<svg width="15" height="20" viewBox="0 0 15 20" fill="none" xmlns="http://www.w3.org/2000/svg">
<g clip-path="url(#clip0)">
<path d="M13.6929 10.3706C13.5157 9.97365 13.2712 9.58274 12.9137 9.13123C12.0123 7.9979 11.7373 5.47062 11.7343 5.44638C11.7221 5.32517 11.6365 5.22517 11.5234 5.18881C11.4073 5.15244 11.2821 5.18577 11.1996 5.27668C10.124 6.47971 10.5762 8.33729 10.8207 9.07971C10.8879 9.28274 10.9612 9.52214 11.0131 9.76456C11.4104 11.7252 10.6434 12.613 10.4631 12.7918C10.289 12.8403 10.1698 12.8161 10.0598 12.6979C9.68091 12.2827 9.55564 10.9221 9.73286 9.14941C9.76956 8.78881 9.76036 8.46456 9.70842 8.16153C9.33466 5.98265 7.96424 4.58502 7.61536 4.09487C6.65592 2.67668 6.55814 0.316077 6.55508 0.294865C6.55203 0.182744 6.48786 0.0827441 6.38703 0.0342593C6.28925 -0.0142256 6.17008 -0.00816496 6.07842 0.0554714C4.47731 1.14335 4.61481 3.76456 4.83786 5.2282C4.88981 5.56759 4.99064 5.91305 5.16481 6.34941C5.78508 7.91002 5.04258 9.92517 5.03647 9.94335C5.03036 9.96153 5.02425 9.97668 5.02119 9.99487C4.92647 10.4918 4.76758 10.7888 4.59036 10.7888C4.57203 10.7888 4.55369 10.7858 4.53231 10.7797C4.31536 10.7343 4.20231 10.504 4.19925 10.304C4.18703 7.71911 1.59286 6.84941 1.56536 6.84032C1.44925 6.80396 1.32092 6.83729 1.24147 6.93123C1.15897 7.02517 1.1437 7.15547 1.1987 7.26456C1.22925 7.3282 1.32703 7.60699 1.25981 8.59184C1.20175 9.47668 1.03981 10.3524 0.780084 11.1918C0.162862 13.204 0.26064 15.11 0.266751 15.2009C0.74137 20.3617 8.1635 21.266 12.5684 18.3585C13.0512 18.0403 13.4454 17.6767 13.7356 17.2767C15.3612 15.0343 14.4048 11.9888 13.6929 10.3706ZM2.40261 15.3009C2.41178 15.4676 2.28345 15.61 2.11539 15.6191H2.09706C1.93511 15.6191 1.80067 15.4949 1.7915 15.3343C1.764 14.8918 1.77011 14.4282 1.80373 13.9252C1.81595 13.7585 1.96261 13.6343 2.13067 13.6433C2.29873 13.6554 2.42706 13.8009 2.41484 13.9676C2.3812 14.4464 2.37511 14.8827 2.40261 15.3009ZM2.55231 12.6161C2.53397 12.7706 2.40258 12.8827 2.24981 12.8827C2.23758 12.8827 2.22536 12.8827 2.21008 12.8797C2.04508 12.8585 1.92592 12.71 1.94425 12.5434L2.09092 11.3737C2.11231 11.21 2.26203 11.0918 2.43314 11.11C2.60119 11.1312 2.72036 11.2827 2.69897 11.4494L2.55231 12.6161Z" fill="#FF6B09"/>
<path d="M11.6256 4.1459C11.4589 4.12029 11.3446 3.96584 11.3703 3.80057C11.3894 3.67745 11.4998 3.04714 11.7994 2.7302C11.9147 2.60799 12.1078 2.60163 12.2313 2.71644C12.3544 2.83081 12.3607 3.0226 12.2452 3.14481C12.1184 3.27902 12.0103 3.66311 11.9743 3.89293C11.9485 4.05645 11.7947 4.1712 11.6256 4.1459Z" fill="#FF6B09"/>
<path d="M0.48629 5.65529C0.427807 5.42992 0.282485 5.05826 0.142999 4.93692C0.0160403 4.82653 0.00335973 4.63507 0.114643 4.50932C0.225651 4.38326 0.418548 4.37038 0.545812 4.4812C0.875079 4.7675 1.04711 5.38407 1.0783 5.50465C1.12007 5.66668 1.02162 5.8315 0.858396 5.87323C0.691563 5.91483 0.527876 5.81462 0.48629 5.65529Z" fill="#FF6B09"/>
</g>
<defs>
<clipPath id="clip0">
<rect width="14.6667" height="20" fill="white"/>
</clipPath>
</defs>
</svg>
