<svg xmlns="http://www.w3.org/2000/svg" width="199" height="50" fill="none"><ellipse cx="25" cy="25.5" fill="#fff" rx="24" ry="24.5"/><path fill="#D41443" d="M18.5144.8775C6.9429 4.3815 0 13.4919 0 25.005 0 34.4159 4.8298 42.6253 12.779 46.73c4.1254 2.1024 4.7292.6007.9055-2.3027-2.7167-2.2025-3.2198-3.2036-3.2198-6.9079 0-2.603-.6038-4.7054-1.5094-5.5063-1.8112-1.5017-2.0124-5.4062-.2012-6.8078.7043-.6007 1.4087-2.603 1.5093-4.405.5031-6.6076 7.6473-12.8147 14.7914-12.8147 7.1441 0 14.2883 6.2071 14.7914 12.8147.1006 1.802.8049 3.8043 1.5093 4.405 1.8112 1.4016 1.6099 5.3061-.2012 6.8078-.9056.8009-1.5094 2.9033-1.5094 5.5063 0 3.7043-.5031 4.7054-3.2199 6.9079-4.2261 3.3038-3.0186 4.5052 1.7106 1.6019 6.641-4.1047 11.5715-13.0149 11.5715-20.924 0-15.8181-16.502-28.6328-31.1927-24.2277Z"/><path fill="#D41443" d="M19.8225 12.4908c-1.8112.8009-3.3205 1.802-3.3205 2.4027 0 1.1013 5.4335 3.1036 8.5528 3.1036 3.1193 0 8.5528-2.0023 8.5528-3.1036 0-1.2014-6.2385-3.9045-8.7541-3.9045-1.0062.1002-3.3205.7008-5.031 1.5018ZM71.6425 17.6968c-1.5093.4004-1.8112 1.7019-1.8112 8.9102v8.4096h7.1441l-.3018-8.71c-.3019-9.1104-.7044-9.8112-5.0311-8.6098ZM83.4152 18.1974c-3.3205 1.8021-4.528 4.0046-4.528 8.3095 0 5.9068 3.2199 8.71 9.1566 8.3095 4.0248-.3003 4.4273-.6007 4.7292-3.1035.3019-2.5029.1006-2.7031-3.0187-2.5029-3.2198.3004-3.3205.1001-3.3205-3.2037 0-3.3037.2013-3.504 3.1193-3.2036 2.4149.2002 3.3205-.2002 3.723-1.702.2012-1.0011 0-2.4027-.6037-3.0034-1.4087-1.4016-6.6411-1.4016-9.2572.1001ZM95.3892 18.2973c-.3019.8009-.4025 4.7054-.2012 8.8101l.3018 7.4085h6.5402c6.038 0 6.541-.2003 6.842-2.3027.302-1.9021-.1-2.2025-3.219-2.2025-2.013 0-3.623-.5006-3.623-1.0011 0-.6007 1.409-1.0012 3.019-1.0012 2.314 0 3.019-.4004 3.019-2.0023 0-1.6018-.705-2.0023-3.019-2.0023-1.61 0-3.019-.5005-3.019-1.0011 0-.6007 1.308-1.0012 2.918-1.0012 2.818 0 4.729-2.2025 3.522-4.1047-.906-1.5017-12.4771-1.1012-13.0808.4005ZM115.614 17.9971c-3.32 1.3015-4.628 3.6041-4.729 7.8089-.101 7.2083 2.817 9.7112 10.364 9.0104 2.918-.2003 3.421-.7008 3.421-2.8032 0-2.2026-.402-2.5029-3.22-2.2026-2.415.2003-3.32-.1001-3.823-1.7019-.906-3.1036 1.006-5.6064 4.226-5.6064 1.912 0 2.918-.6007 3.119-1.9022.704-3.2037-4.427-4.7054-9.358-2.603ZM127.991 17.5966c-.504.4005-.805 4.5052-.805 9.1105v8.4096l3.219-.3003c2.516-.2003 3.422-.9011 3.925-2.8033l.603-2.5028.805 2.7031c.604 2.3026 1.308 2.8032 3.925 2.8032 4.326 0 4.829-.7008 3.018-4.2048-1.107-2.2026-1.308-3.3038-.503-4.1047 1.308-1.3015 1.409-5.7066.201-7.6087-1.006-1.6019-13.08-2.9034-14.388-1.5018Zm8.25 5.4062c0 1.1013-.402 2.0023-1.006 2.0023-.503 0-1.006-.901-1.006-2.0023 0-1.1012.503-2.0023 1.006-2.0023.604 0 1.006.9011 1.006 2.0023ZM146.002 17.6968c-.403.3003-.704 4.405-.704 9.0103v8.3095h6.54c6.339 0 6.54-.1001 6.54-2.5029 0-2.1024-.503-2.5028-3.018-2.5028-1.61 0-3.019-.5006-3.019-1.0012 0-.6007 1.107-1.0011 2.516-1.0011 1.811 0 2.515-.5006 2.515-2.0023s-.704-2.0023-2.515-2.0023c-1.409 0-2.516-.5006-2.516-1.0012 0-.6006 1.409-1.0011 3.019-1.0011 2.515 0 3.018-.4005 3.018-2.5029 0-2.4027-.301-2.5028-5.836-2.5028-3.22 0-6.238.3003-6.54.7008ZM166.328 17.5969c-1.812.5005-6.44 13.8158-5.535 16.0183.805 2.0023 5.333 1.8021 6.541-.3003.905-1.702 1.006-1.702 2.817 0 2.315 2.0023 7.346 2.3026 7.346.4004 0-.6007-1.007-4.6053-2.315-8.71-2.012-6.6075-2.616-7.5086-4.729-7.7088-1.409 0-3.22.1001-4.125.3004Zm2.817 9.1104c-.302 1.0011-.503.4005-.503-1.2014 0-1.7019.201-2.4027.503-1.802.201.7008.201 2.1024 0 3.0034ZM180.817 17.6968c-.906.3003-1.308 3.1035-1.308 8.9102v8.4096h2.918c2.515 0 3.018-.5006 3.421-2.8032.402-2.603.402-2.603 1.207-.5006.403 1.3015 1.409 2.3027 2.113 2.3027.805 0 1.912-1.0012 2.415-2.3027.805-2.1024.906-2.1024.906.6007.101 2.5029.402 2.8032 3.22 2.5029l3.119-.3004.101-8.3095c.201-7.7088.1-8.3095-2.013-8.8101-3.22-.8009-5.936 1.1013-6.842 4.8055l-.704 3.3038-1.107-3.504c-1.409-4.7054-3.522-5.9068-7.446-4.3049ZM14.0869 18.6978c-.3019.4005-.6037 1.702-.6037 3.0035 0 2.3026.1006 2.3026 11.5714 2.3026 11.4709 0 11.5715 0 11.5715-2.3026 0-3.4039-.9056-3.8044-4.1255-2.2026-3.6223 1.9022-11.2696 1.9022-14.892 0-1.6099-.8009-3.1192-1.1012-3.5217-.8009ZM11.1688 27.608c-1.6099 1.702 1.1069 2.4028 8.9554 2.4028h8.4522v3.504c0 1.9022.5031 3.504 1.0062 3.504.6037 0 1.0062-1.5017 1.0062-3.4039 0-3.3038.2013-3.504 4.0249-3.8044 2.2137-.2002 4.0249-.8009 4.0249-1.3014 0-1.1013-26.3629-2.0023-27.4698-.9011Z"/><path fill="#D41443" d="M13.4832 36.4181c0 5.5063 1.9118 6.6075 11.5714 6.6075 9.6597 0 11.5715-1.1012 11.5715-6.6075 0-2.4028-.5031-3.4039-1.5093-3.4039-.9056 0-1.5093.901-1.5093 2.4027 0 5.6064-7.6473 6.107-8.7541.6007-.5031-2.9033-.805-3.0034-5.9367-3.0034h-5.4335v3.4039ZM19.722 47.7312c.6037 3.2037 10.8672 2.9033 10.8672-.2002 0-1.1013-1.3081-1.5018-5.6349-1.5018-4.7292 0-5.5342.3004-5.2323 1.702Z"/></svg>