<svg xmlns="http://www.w3.org/2000/svg" width="92" height="76" fill="none"><circle cx="77" cy="15" r="15" fill="#fff"/><path fill="#D41443" d="M20.4269 27.254c-.8587 0-1.61-1.012-2.254-3.036-.6133-2.024-.92-3.9713-.92-5.842 0-.4293.4753-.9047 1.426-1.426.9507-.552 2.392-1.0427 4.324-1.472s4.0327-.644 6.302-.644c8.8013 0 13.202 3.082 13.202 9.246 0 1.7173-.368 3.3273-1.104 4.83-.736 1.5027-1.5487 2.714-2.438 3.634-.8893.8893-1.932 1.7173-3.128 2.484-1.38.8587-2.6987 1.5333-3.956 2.024h9.2c.184 0 .3833.092.598.276.2147.1533.4447.644.69 1.472.2453.7973.368 1.8093.368 3.036 0 1.196-.0767 2.208-.23 3.036-.1533.7973-.3373 1.38-.552 1.748-.46.828-.874 1.2727-1.242 1.334l-.23.046h-20.148c-1.932 0-2.898-3.0207-2.898-9.062 0-.6747 1.9933-2.53 5.98-5.566 1.5027-1.104 2.8827-2.3153 4.14-3.634 1.2573-1.3187 1.886-2.392 1.886-3.22 0-.92-.69-1.38-2.07-1.38s-2.8367.3527-4.37 1.058c-1.5027.7053-2.3613 1.058-2.576 1.058Zm51.7619-3.818c0 3.0973-1.2267 5.4127-3.68 6.946.3373.1533.7666.5213 1.288 1.104.552.5827 1.012 1.1653 1.38 1.748.9506 1.5027 1.426 3.2813 1.426 5.336 0 3.3733-1.2114 5.8573-3.634 7.452-2.4227 1.5947-5.75 2.392-9.982 2.392-2.0854 0-4.0634-.1687-5.934-.506-1.84-.368-3.2507-.7667-4.232-1.196-.9814-.46-1.472-.874-1.472-1.242 0-1.6867.184-3.174.552-4.462.368-1.288.782-2.1927 1.242-2.714.46-.552.9046-.828 1.334-.828.1226 0 .9353.276 2.438.828 1.5026.552 2.9746.828 4.416.828 1.472 0 2.208-.46 2.208-1.38 0-1.2573-1.5487-1.932-4.646-2.024-1.2267-.0307-1.9014-.0613-2.024-.092-.644-.2147-.966-1.564-.966-4.048s.322-3.8487.966-4.094c.1226-.0613.7973-.092 2.024-.092 3.0973-.0613 4.646-.69 4.646-1.886 0-.92-.6747-1.38-2.024-1.38-1.3187 0-2.7907.322-4.416.966-1.6254.644-2.5147.966-2.668.966-.7054 0-1.3494-1.0273-1.932-3.082-.5827-2.0547-.874-3.5113-.874-4.37 0-.7973.8893-1.61 2.668-2.438 1.9626-.8893 4.8453-1.334 8.648-1.334 8.832 0 13.248 2.8673 13.248 8.602Z"/><path fill="#fff" d="M1.7483 72v-5.95h-1.05v-.994h1.05v-1.204c0-.672.168-1.162.504-1.47.336-.308.826-.462 1.47-.462h.7v1.008h-.518c-.3547 0-.6067.0747-.756.224-.1493.14-.224.3827-.224.728v1.176h1.708v.994h-1.708V72h-1.176Zm7.1747.168c-.6534 0-1.2414-.1493-1.764-.448-.5227-.2987-.938-.7187-1.246-1.26-.2987-.5507-.448-1.1947-.448-1.932 0-.7373.154-1.3767.462-1.918.308-.5507.7233-.9753 1.246-1.274.532-.2987 1.1246-.448 1.778-.448.6533 0 1.2413.1493 1.764.448.5226.2987.9333.7233 1.232 1.274.308.5413.462 1.1807.462 1.918 0 .7373-.154 1.3813-.462 1.932-.308.5413-.728.9613-1.26 1.26-.5227.2987-1.1107.448-1.764.448Zm0-1.008c.4013 0 .7746-.098 1.12-.294.3453-.196.6253-.49.84-.882.2146-.392.322-.8773.322-1.456s-.1074-1.064-.322-1.456c-.2054-.392-.4807-.686-.826-.882-.3454-.196-.714-.294-1.106-.294-.4014 0-.7747.098-1.12.294-.3454.196-.6254.49-.84.882-.2147.392-.322.8773-.322 1.456s.1073 1.064.322 1.456c.2146.392.49.686.826.882.3453.196.714.294 1.106.294Zm8.2851 1.008c-.6533 0-1.2413-.1493-1.764-.448-.5226-.2987-.938-.7187-1.246-1.26-.2986-.5507-.448-1.1947-.448-1.932 0-.7373.154-1.3767.462-1.918.308-.5507.7234-.9753 1.246-1.274.532-.2987 1.1247-.448 1.778-.448.6534 0 1.2414.1493 1.764.448.5227.2987.9334.7233 1.232 1.274.308.5413.462 1.1807.462 1.918 0 .7373-.154 1.3813-.462 1.932-.308.5413-.728.9613-1.26 1.26-.5226.2987-1.1106.448-1.764.448Zm0-1.008c.4014 0 .7747-.098 1.12-.294.3454-.196.6254-.49.84-.882.2147-.392.322-.8773.322-1.456s-.1073-1.064-.322-1.456c-.2053-.392-.4806-.686-.826-.882-.3453-.196-.714-.294-1.106-.294-.4013 0-.7746.098-1.12.294-.3453.196-.6253.49-.84.882-.2146.392-.322.8773-.322 1.456s.1074 1.064.322 1.456c.2147.392.49.686.826.882.3454.196.714.294 1.106.294Zm8.2712 1.008c-.6907 0-1.2974-.1587-1.82-.476-.5134-.3173-.9147-.7513-1.204-1.302-.28-.5507-.42-1.176-.42-1.876s.1446-1.3207.434-1.862c.2893-.5507.6906-.98 1.204-1.288.5133-.3173 1.12-.476 1.82-.476.5693 0 1.0733.1167 1.512.35.4386.2333.7793.56 1.022.98V61.92h1.176V72h-1.064l-.112-1.148c-.224.336-.546.6393-.966.91-.42.2707-.9474.406-1.582.406Zm.126-1.022c.4666 0 .8773-.1073 1.232-.322.364-.224.644-.532.84-.924.2053-.392.308-.8493.308-1.372s-.1027-.98-.308-1.372c-.196-.392-.476-.6953-.84-.91-.3547-.224-.7654-.336-1.232-.336-.4574 0-.868.112-1.232.336-.3547.2147-.6347.518-.84.91-.196.392-.294.8493-.294 1.372s.098.98.294 1.372c.2053.392.4853.7.84.924.364.2147.7746.322 1.232.322ZM37.5694 72c-.6347 0-1.134-.154-1.498-.462-.364-.308-.546-.8633-.546-1.666V66.05h-1.204v-.994h1.204l.154-1.666h1.022v1.666h2.044v.994h-2.044v3.822c0 .4387.0886.7373.266.896.1773.1493.49.224.938.224h.728V72h-1.064Zm2.67 0v-6.944h1.064l.098 1.33c.2147-.4573.5414-.8213.98-1.092.4387-.2707.98-.406 1.624-.406v1.232h-.322c-.4106 0-.7886.0747-1.134.224-.3453.14-.6206.3827-.826.728-.2053.3453-.308.8213-.308 1.428V72h-1.176Zm11.162-6.944V72h-1.064l-.07-1.246c-.224.4387-.546.784-.966 1.036-.42.252-.896.378-1.428.378-.8214 0-1.4794-.2473-1.974-.742-.4854-.504-.728-1.274-.728-2.31v-4.06h1.176v3.934c0 1.4467.5973 2.17 1.792 2.17.5973 0 1.092-.2147 1.484-.644.4013-.4387.602-1.0593.602-1.862v-3.598h1.176Zm5.1277 7.112c-.6627 0-1.26-.1493-1.792-.448-.5227-.308-.938-.7327-1.246-1.274-.2987-.5507-.448-1.19-.448-1.918s.1493-1.3627.448-1.904c.308-.5507.7233-.9753 1.246-1.274.532-.308 1.1293-.462 1.792-.462.8213 0 1.512.2147 2.072.644.5693.4293.9287 1.0033 1.078 1.722h-1.204c-.0933-.4293-.322-.7607-.686-.994-.364-.2427-.7887-.364-1.274-.364-.392 0-.7607.098-1.106.294-.3453.196-.6253.49-.84.882s-.322.8773-.322 1.456.1073 1.064.322 1.456c.2147.392.4947.6907.84.896.3453.196.714.294 1.106.294.4853 0 .91-.1167 1.274-.35.364-.2427.5927-.5833.686-1.022h1.204c-.14.7-.4947 1.2693-1.064 1.708-.5693.4387-1.2647.658-2.086.658ZM61.3215 72V61.92h1.176v6.062l2.842-2.926h1.442l-3.08 3.136L67.1735 72h-1.498l-3.178-3.598V72h-1.176Zm9.3045.168c-.8307 0-1.5213-.21-2.072-.63-.5507-.42-.8727-.9893-.966-1.708h1.204c.0747.364.266.6813.574.952.3173.2613.742.392 1.274.392.4947 0 .8587-.1027 1.092-.308.2333-.2147.35-.4667.35-.756 0-.42-.154-.7-.462-.84-.2987-.14-.7233-.266-1.274-.378a7.2242 7.2242 0 0 1-1.12-.322c-.3733-.14-.686-.336-.938-.588-.252-.2613-.378-.602-.378-1.022 0-.6067.224-1.1013.672-1.484.4573-.392 1.0733-.588 1.848-.588.7373 0 1.3393.1867 1.806.56.476.364.7513.8867.826 1.568H71.9c-.0467-.3547-.2007-.63-.462-.826-.252-.2053-.5927-.308-1.022-.308-.42 0-.7467.0887-.98.266-.224.1773-.336.4107-.336.7 0 .28.1447.4993.434.658.2987.1587.7.294 1.204.406.4293.0933.8353.21 1.218.35.392.1307.7093.3313.952.602.252.2613.378.644.378 1.148.0093.6253-.2287 1.1433-.714 1.554-.476.4013-1.1247.602-1.946.602Z"/></svg>