<svg xmlns="http://www.w3.org/2000/svg" width="72" height="77" fill="none"><circle cx="57" cy="15" r="15" fill="#fff"/><path fill="#D41443" d="M19.8572 47.896c0 .3373-.9353.6133-2.806.828a57.2953 57.2953 0 0 1-5.612.276c-1.8706 0-3.082-.0767-3.634-.23-.5213-.184-.782-.4753-.782-.874V28.024h-4.692c-.5213 0-.782-1.1193-.782-3.358s.2607-4.2627.782-6.072c.1534-.5827 1.7787-1.1193 4.876-1.61 3.0974-.4907 5.474-.736 7.13-.736 1.656 0 2.76.0613 3.312.184s.966.276 1.242.46c.276.1533.4907.3373.644.552.2147.3373.322.6593.322.966v29.486ZM37.757 28.898c.276-.2453 1.012-.5673 2.208-.966 1.196-.3987 2.5453-.598 4.048-.598 1.5333 0 2.8213.23 3.864.69 1.0733.4293 1.9013.9813 2.484 1.656.6133.6747 1.0886 1.518 1.426 2.53.552 1.656.828 3.3427.828 5.06 0 1.7173-.0767 3.0207-.23 3.91-.1227.8587-.46 1.8247-1.012 2.898-.5214 1.0733-1.242 1.978-2.162 2.714-.8894.736-2.1774 1.3647-3.864 1.886-1.656.4907-3.6034.736-5.842.736-4.8147 0-8.4487-1.3187-10.902-3.956-2.4534-2.668-3.68-6.9613-3.68-12.88 0-5.9493 1.15-10.2273 3.45-12.834 2.3-2.6373 5.796-3.956 10.488-3.956 3.22 0 6.0106.2453 8.372.736 2.392.46 3.588 1.012 3.588 1.656 0 .7973-.3067 2.1927-.92 4.186-.5827 1.9933-1.1194 2.99-1.61 2.99-.1534 0-.6134-.0767-1.38-.23-2.0854-.4293-3.9867-.644-5.704-.644-1.7174 0-2.8214.4293-3.312 1.288-.4907.828-.736 2.0547-.736 3.68.1226-.1533.322-.3373.598-.552Zm1.012 4.14c-.8894 0-1.334 1.656-1.334 4.968 0 3.2813.4446 4.922 1.334 4.922.9506 0 1.426-1.6407 1.426-4.922 0-3.312-.4754-4.968-1.426-4.968Z"/><path fill="#fff" d="M23.24 73.168c-.6626 0-1.26-.1493-1.792-.448-.5226-.308-.938-.7327-1.246-1.274-.2986-.5507-.448-1.19-.448-1.918s.1494-1.3627.448-1.904c.308-.5507.7234-.9753 1.246-1.274.532-.308 1.1294-.462 1.792-.462.8214 0 1.512.2147 2.072.644.5694.4293.9287 1.0033 1.078 1.722h-1.204c-.0933-.4293-.322-.7607-.686-.994-.364-.2427-.7886-.364-1.274-.364-.392 0-.7606.098-1.106.294-.3453.196-.6253.49-.84.882-.2146.392-.322.8773-.322 1.456s.1074 1.064.322 1.456c.2147.392.4947.6907.84.896.3454.196.714.294 1.106.294.4854 0 .91-.1167 1.274-.35.364-.2427.5927-.5833.686-1.022h1.204c-.14.7-.4946 1.2693-1.064 1.708-.5693.4387-1.2646.658-2.086.658Zm7.1024 0c-.5787 0-1.0593-.098-1.442-.294-.3827-.196-.6673-.4573-.854-.784-.1867-.3267-.28-.6813-.28-1.064 0-.7093.2707-1.2553.812-1.638.5413-.3827 1.2787-.574 2.212-.574h1.876v-.084c0-.6067-.1587-1.064-.476-1.372-.3173-.3173-.742-.476-1.274-.476-.4573 0-.854.1167-1.19.35-.3267.224-.532.5553-.616.994h-1.204c.0467-.504.2147-.9287.504-1.274.2987-.3453.6673-.6067 1.106-.784.4387-.1867.9053-.28 1.4-.28.9707 0 1.6987.2613 2.184.784.4947.5133.742 1.1993.742 2.058V73h-1.05l-.07-1.246c-.196.392-.4853.728-.868 1.008-.3733.2707-.8773.406-1.512.406Zm.182-.994c.448 0 .8307-.1167 1.148-.35.3267-.2333.574-.5367.742-.91.168-.3733.252-.7653.252-1.176v-.014h-1.778c-.6907 0-1.1807.1213-1.47.364-.28.2333-.42.5273-.42.882 0 .364.1307.658.392.882.2707.2147.6487.322 1.134.322Zm5.4602.826v-5.95h-1.05v-.994h1.05v-1.204c0-.672.168-1.162.504-1.47.336-.308.826-.462 1.47-.462h.7v1.008h-.518c-.3546 0-.6066.0747-.756.224-.1493.14-.224.3827-.224.728v1.176h1.708v.994h-1.708V73h-1.176Zm7.1327.168c-.6627 0-1.2507-.1493-1.764-.448-.5133-.308-.9193-.7327-1.218-1.274-.2893-.5413-.434-1.1807-.434-1.918 0-.728.1447-1.3627.434-1.904.2893-.5507.6907-.9753 1.204-1.274.5227-.308 1.1247-.462 1.806-.462.672 0 1.2507.154 1.736.462.4947.2987.8727.6953 1.134 1.19.2613.4947.392 1.0267.392 1.596 0 .1027-.0047.2053-.014.308v.35h-5.53c.028.532.1493.9753.364 1.33.224.3453.4993.6067.826.784.336.1773.6907.266 1.064.266.4853 0 .8913-.112 1.218-.336.3267-.224.5647-.5273.714-.91h1.162c-.1867.644-.546 1.1807-1.078 1.61-.5227.42-1.1947.63-2.016.63Zm0-6.286c-.56 0-1.0593.1727-1.498.518-.4293.336-.6767.8307-.742 1.484h4.368c-.028-.6253-.2427-1.1153-.644-1.47s-.896-.532-1.484-.532Zm7.5087 6.286c-.8307 0-1.5213-.21-2.072-.63-.5507-.42-.8727-.9893-.966-1.708h1.204c.0747.364.266.6813.574.952.3173.2613.742.392 1.274.392.4947 0 .8587-.1027 1.092-.308.2333-.2147.35-.4667.35-.756 0-.42-.154-.7-.462-.84-.2987-.14-.7233-.266-1.274-.378a7.2242 7.2242 0 0 1-1.12-.322c-.3733-.14-.686-.336-.938-.588-.252-.2613-.378-.602-.378-1.022 0-.6067.224-1.1013.672-1.484.4573-.392 1.0733-.588 1.848-.588.7373 0 1.3393.1867 1.806.56.476.364.7513.8867.826 1.568H51.9c-.0467-.3547-.2007-.63-.462-.826-.252-.2053-.5927-.308-1.022-.308-.42 0-.7467.0887-.98.266-.224.1773-.336.4107-.336.7 0 .28.1447.4993.434.658.2987.1587.7.294 1.204.406.4293.0933.8353.21 1.218.35.392.1307.7093.3313.952.602.252.2613.378.644.378 1.148.0093.6253-.2287 1.1433-.714 1.554-.476.4013-1.1247.602-1.946.602Z"/></svg>