<svg aria-hidden="true" style="position: absolute; width: 0; height: 0; overflow: hidden;" version="1.1" xmlns="http://www.w3.org/2000/svg" xmlns:xlink="http://www.w3.org/1999/xlink">
<defs>
<symbol id="icon-header_ellipse" viewBox="0 0 32 32">
<path fill="#ffa5ba" style="fill: var(--color1, #ffa5ba)" d="M32 16c0 8.837-7.163 16-16 16s-16-7.163-16-16c0-8.837 7.163-16 16-16s16 7.163 16 16z"></path>
</symbol>
<symbol id="icon-header_icecream" viewBox="0 0 14 32">
<path d="M0 0h13.558v32h-13.558v-32z"></path>
</symbol>
<symbol id="icon-header_girl" viewBox="0 0 40 32">
<path d="M0 0h40.365v32h-40.365v-32z"></path>
</symbol>
<symbol id="icon-header_milk" viewBox="0 0 32 32">
<path d="M0 0h31.556v32h-31.556v-32z"></path>
</symbol>
<symbol id="icon-header_logo" viewBox="0 0 127 32">
<path fill="#fff" style="fill: var(--color2, #fff)" d="M31.36 16.32c0 8.66-6.877 15.68-15.36 15.68s-15.36-7.020-15.36-15.68c0-8.66 6.877-15.68 15.36-15.68s15.36 7.020 15.36 15.68z"></path>
<path fill="#d41443" style="fill: var(--color3, #d41443)" d="M11.849 0.562c-7.406 2.243-11.849 8.073-11.849 15.442 0 6.023 3.091 11.277 8.179 13.904 2.64 1.346 3.027 0.384 0.58-1.474-1.739-1.41-2.061-2.050-2.061-4.421 0-1.666-0.386-3.011-0.966-3.524-1.159-0.961-1.288-3.46-0.129-4.357 0.451-0.384 0.902-1.666 0.966-2.819 0.322-4.229 4.894-8.201 9.466-8.201s9.145 3.973 9.466 8.201c0.064 1.153 0.515 2.435 0.966 2.819 1.159 0.897 1.030 3.396-0.129 4.357-0.58 0.513-0.966 1.858-0.966 3.524 0 2.371-0.322 3.011-2.061 4.421-2.705 2.114-1.932 2.883 1.095 1.025 4.25-2.627 7.406-8.33 7.406-13.391 0-10.124-10.561-18.325-19.963-15.506z"></path>
<path fill="#d41443" style="fill: var(--color3, #d41443)" d="M12.686 7.994c-1.159 0.513-2.125 1.153-2.125 1.538 0 0.705 3.477 1.986 5.474 1.986s5.474-1.281 5.474-1.986c0-0.769-3.993-2.499-5.603-2.499-0.644 0.064-2.125 0.449-3.22 0.961zM45.851 11.326c-0.966 0.256-1.159 1.089-1.159 5.703v5.382h4.572l-0.193-5.574c-0.193-5.831-0.451-6.279-3.22-5.51zM53.386 11.646c-2.125 1.153-2.898 2.563-2.898 5.318 0 3.78 2.061 5.574 5.86 5.318 2.576-0.192 2.833-0.384 3.027-1.986s0.064-1.73-1.932-1.602c-2.061 0.192-2.125 0.064-2.125-2.050s0.129-2.243 1.996-2.050c1.546 0.128 2.125-0.128 2.383-1.089 0.129-0.641 0-1.538-0.386-1.922-0.902-0.897-4.25-0.897-5.925 0.064zM61.049 11.71c-0.193 0.513-0.258 3.011-0.129 5.638l0.193 4.741h4.186c3.864 0 4.186-0.128 4.379-1.474 0.193-1.217-0.064-1.41-2.060-1.41-1.288 0-2.319-0.32-2.319-0.641 0-0.384 0.902-0.641 1.932-0.641 1.481 0 1.932-0.256 1.932-1.281s-0.451-1.281-1.932-1.281c-1.030 0-1.932-0.32-1.932-0.641 0-0.384 0.837-0.641 1.868-0.641 1.804 0 3.027-1.41 2.254-2.627-0.58-0.961-7.985-0.705-8.372 0.256zM73.993 11.518c-2.125 0.833-2.962 2.307-3.027 4.998-0.065 4.613 1.803 6.215 6.633 5.767 1.868-0.128 2.189-0.448 2.189-1.794 0-1.41-0.257-1.602-2.061-1.41-1.546 0.128-2.125-0.064-2.447-1.089-0.58-1.986 0.644-3.588 2.705-3.588 1.224 0 1.868-0.384 1.996-1.217 0.451-2.050-2.833-3.011-5.989-1.666zM81.914 11.262c-0.323 0.256-0.515 2.883-0.515 5.831v5.382l2.060-0.192c1.61-0.128 2.19-0.577 2.512-1.794l0.386-1.602 0.515 1.73c0.387 1.474 0.837 1.794 2.512 1.794 2.769 0 3.091-0.448 1.932-2.691-0.708-1.41-0.837-2.114-0.322-2.627 0.837-0.833 0.902-3.652 0.129-4.87-0.644-1.025-8.371-1.858-9.208-0.961zM87.194 14.722c0 0.705-0.257 1.281-0.644 1.281-0.322 0-0.644-0.577-0.644-1.281s0.322-1.281 0.644-1.281c0.387 0 0.644 0.577 0.644 1.281zM93.441 11.326c-0.258 0.192-0.451 2.819-0.451 5.767v5.318h4.186c4.057 0 4.186-0.064 4.186-1.602 0-1.346-0.322-1.602-1.932-1.602-1.030 0-1.932-0.32-1.932-0.641 0-0.384 0.708-0.641 1.61-0.641 1.159 0 1.61-0.32 1.61-1.281s-0.451-1.281-1.61-1.281c-0.902 0-1.61-0.32-1.61-0.641 0-0.384 0.902-0.641 1.932-0.641 1.61 0 1.932-0.256 1.932-1.602 0-1.538-0.193-1.602-3.735-1.602-2.061 0-3.992 0.192-4.186 0.448zM106.45 11.262c-1.16 0.32-4.122 8.842-3.542 10.252 0.515 1.281 3.413 1.153 4.186-0.192 0.579-1.089 0.644-1.089 1.803 0 1.482 1.281 4.701 1.474 4.701 0.256 0-0.384-0.644-2.947-1.482-5.574-1.288-4.229-1.674-4.806-3.027-4.934-0.902 0-2.061 0.064-2.64 0.192zM108.253 17.093c-0.193 0.641-0.322 0.256-0.322-0.769 0-1.089 0.129-1.538 0.322-1.153 0.129 0.448 0.129 1.346 0 1.922zM115.723 11.326c-0.58 0.192-0.837 1.986-0.837 5.703v5.382h1.868c1.61 0 1.932-0.32 2.189-1.794 0.257-1.666 0.257-1.666 0.772-0.32 0.258 0.833 0.902 1.474 1.352 1.474 0.515 0 1.224-0.641 1.546-1.474 0.515-1.346 0.58-1.346 0.58 0.384 0.065 1.602 0.257 1.794 2.061 1.602l1.996-0.192 0.065-5.318c0.129-4.934 0.064-5.318-1.288-5.638-2.061-0.513-3.799 0.705-4.379 3.076l-0.451 2.114-0.708-2.243c-0.902-3.011-2.254-3.78-4.765-2.755zM9.016 11.967c-0.193 0.256-0.386 1.089-0.386 1.922 0 1.474 0.064 1.474 7.406 1.474s7.406 0 7.406-1.474c0-2.178-0.58-2.435-2.64-1.41-2.318 1.217-7.213 1.217-9.531 0-1.030-0.513-1.996-0.705-2.254-0.513zM7.148 17.669c-1.030 1.089 0.708 1.538 5.731 1.538h5.409v2.243c0 1.217 0.322 2.243 0.644 2.243 0.386 0 0.644-0.961 0.644-2.178 0-2.114 0.129-2.243 2.576-2.435 1.417-0.128 2.576-0.513 2.576-0.833 0-0.705-16.872-1.281-17.581-0.577z"></path>
<path fill="#d41443" style="fill: var(--color3, #d41443)" d="M8.629 23.308c0 3.524 1.224 4.229 7.406 4.229s7.406-0.705 7.406-4.229c0-1.538-0.322-2.178-0.966-2.178-0.58 0-0.966 0.577-0.966 1.538 0 3.588-4.894 3.908-5.603 0.384-0.322-1.858-0.515-1.922-3.8-1.922h-3.477v2.178zM12.622 30.548c0.386 2.050 6.955 1.858 6.955-0.128 0-0.705-0.837-0.961-3.606-0.961-3.027 0-3.542 0.192-3.349 1.089z"></path>
</symbol>
<symbol id="icon-header_cafes" viewBox="0 0 30 32">
<path fill="#fff" style="fill: var(--color2, #fff)" d="M29.922 6.234c0 3.443-2.791 6.234-6.234 6.234s-6.234-2.791-6.234-6.234c0-3.443 2.791-6.234 6.234-6.234s6.234 2.791 6.234 6.234z"></path>
<path fill="#d41443" style="fill: var(--color3, #d41443)" d="M8.252 19.905c0 0.14-0.389 0.255-1.166 0.344-0.699 0.073-1.511 0.115-2.332 0.115h-0c-0.777 0-1.281-0.032-1.51-0.096-0.217-0.076-0.325-0.198-0.325-0.363v-8.258h-1.95c-0.217 0-0.325-0.465-0.325-1.396s0.108-1.771 0.325-2.523c0.064-0.242 0.739-0.465 2.026-0.669s2.275-0.306 2.963-0.306 1.147 0.025 1.376 0.076 0.401 0.115 0.516 0.191c0.115 0.064 0.204 0.14 0.268 0.229 0.089 0.14 0.134 0.274 0.134 0.401v12.254zM15.691 12.010c0.115-0.102 0.421-0.236 0.918-0.401s1.058-0.249 1.682-0.249c0.637 0 1.172 0.096 1.606 0.287 0.446 0.178 0.79 0.408 1.032 0.688 0.255 0.28 0.452 0.631 0.593 1.051 0.229 0.688 0.344 1.389 0.344 2.103s-0.032 1.255-0.096 1.625c-0.051 0.357-0.191 0.758-0.421 1.204-0.217 0.446-0.516 0.822-0.898 1.128-0.37 0.306-0.905 0.567-1.606 0.784-0.688 0.204-1.498 0.306-2.428 0.306-2.001 0-3.511-0.548-4.531-1.644-1.020-1.109-1.529-2.893-1.529-5.353 0-2.472 0.478-4.25 1.434-5.334 0.956-1.096 2.409-1.644 4.359-1.644 1.338 0 2.498 0.102 3.479 0.306 0.994 0.191 1.491 0.421 1.491 0.688 0 0.331-0.127 0.911-0.382 1.74-0.242 0.828-0.465 1.243-0.669 1.243-0.064 0-0.255-0.032-0.573-0.096-0.867-0.178-1.657-0.268-2.37-0.268s-1.173 0.178-1.376 0.535c-0.204 0.344-0.306 0.854-0.306 1.529 0.051-0.064 0.134-0.14 0.249-0.229zM16.112 13.73c-0.37 0-0.554 0.688-0.554 2.065 0 1.364 0.185 2.045 0.554 2.045 0.395 0 0.593-0.682 0.593-2.046 0-1.376-0.198-2.065-0.593-2.065z"></path>
<path fill="#fff" style="fill: var(--color2, #fff)" d="M9.658 30.407c-0.275 0-0.524-0.062-0.745-0.186-0.217-0.128-0.39-0.305-0.518-0.529-0.124-0.229-0.186-0.495-0.186-0.797s0.062-0.566 0.186-0.791c0.128-0.229 0.301-0.405 0.518-0.529 0.221-0.128 0.469-0.192 0.745-0.192 0.341 0 0.628 0.089 0.861 0.268 0.237 0.178 0.386 0.417 0.448 0.716h-0.5c-0.039-0.178-0.134-0.316-0.285-0.413-0.151-0.101-0.328-0.151-0.529-0.151-0.163 0-0.316 0.041-0.46 0.122s-0.26 0.204-0.349 0.367c-0.089 0.163-0.134 0.365-0.134 0.605s0.045 0.442 0.134 0.605c0.089 0.163 0.206 0.287 0.349 0.372 0.144 0.081 0.297 0.122 0.46 0.122 0.202 0 0.378-0.049 0.529-0.145 0.151-0.101 0.246-0.242 0.285-0.425h0.5c-0.058 0.291-0.206 0.527-0.442 0.71s-0.526 0.273-0.867 0.273zM12.61 30.407c-0.241 0-0.44-0.041-0.599-0.122s-0.277-0.19-0.355-0.326c-0.078-0.136-0.116-0.283-0.116-0.442 0-0.295 0.113-0.522 0.337-0.681s0.531-0.239 0.919-0.239h0.78v-0.035c0-0.252-0.066-0.442-0.198-0.57-0.132-0.132-0.308-0.198-0.529-0.198-0.19 0-0.355 0.049-0.495 0.145-0.136 0.093-0.221 0.231-0.256 0.413h-0.5c0.019-0.209 0.089-0.386 0.209-0.529 0.124-0.143 0.277-0.252 0.46-0.326 0.182-0.078 0.376-0.116 0.582-0.116 0.403 0 0.706 0.109 0.908 0.326 0.206 0.213 0.308 0.498 0.308 0.855v1.775h-0.436l-0.029-0.518c-0.081 0.163-0.202 0.303-0.361 0.419-0.155 0.113-0.365 0.169-0.628 0.169zM12.685 29.994c0.186 0 0.345-0.049 0.477-0.145 0.136-0.097 0.239-0.223 0.308-0.378s0.105-0.318 0.105-0.489v-0.006h-0.739c-0.287 0-0.491 0.050-0.611 0.151-0.116 0.097-0.175 0.219-0.175 0.367 0 0.151 0.054 0.273 0.163 0.367 0.113 0.089 0.27 0.134 0.471 0.134zM14.955 30.338v-2.473h-0.436v-0.413h0.436v-0.5c0-0.279 0.070-0.483 0.209-0.611s0.343-0.192 0.611-0.192h0.291v0.419h-0.215c-0.147 0-0.252 0.031-0.314 0.093-0.062 0.058-0.093 0.159-0.093 0.303v0.489h0.71v0.413h-0.71v2.473h-0.489zM17.919 30.407c-0.275 0-0.52-0.062-0.733-0.186-0.213-0.128-0.382-0.305-0.506-0.529-0.12-0.225-0.18-0.491-0.18-0.797 0-0.303 0.060-0.566 0.18-0.791 0.12-0.229 0.287-0.405 0.5-0.529 0.217-0.128 0.467-0.192 0.751-0.192 0.279 0 0.52 0.064 0.721 0.192 0.206 0.124 0.363 0.289 0.471 0.495s0.163 0.427 0.163 0.663c0 0.043-0.002 0.085-0.006 0.128v0.145h-2.298c0.012 0.221 0.062 0.405 0.151 0.553 0.093 0.143 0.207 0.252 0.343 0.326 0.14 0.074 0.287 0.111 0.442 0.111 0.202 0 0.37-0.047 0.506-0.14s0.235-0.219 0.297-0.378h0.483c-0.078 0.268-0.227 0.491-0.448 0.669-0.217 0.175-0.497 0.262-0.838 0.262zM17.919 27.795c-0.233 0-0.44 0.072-0.623 0.215-0.178 0.14-0.281 0.345-0.308 0.617h1.815c-0.012-0.26-0.101-0.463-0.268-0.611s-0.372-0.221-0.617-0.221zM21.039 30.407c-0.345 0-0.632-0.087-0.861-0.262s-0.363-0.411-0.401-0.71h0.5c0.031 0.151 0.111 0.283 0.239 0.396 0.132 0.109 0.308 0.163 0.529 0.163 0.206 0 0.357-0.043 0.454-0.128 0.097-0.089 0.145-0.194 0.145-0.314 0-0.175-0.064-0.291-0.192-0.349-0.124-0.058-0.301-0.111-0.529-0.157-0.18-0.037-0.336-0.083-0.486-0.141l0.021 0.007c-0.155-0.058-0.285-0.14-0.39-0.244-0.105-0.109-0.157-0.25-0.157-0.425 0-0.252 0.093-0.458 0.279-0.617 0.19-0.163 0.446-0.244 0.768-0.244 0.306 0 0.557 0.078 0.751 0.233 0.198 0.151 0.312 0.369 0.343 0.652h-0.483c-0.019-0.147-0.083-0.262-0.192-0.343-0.105-0.085-0.246-0.128-0.425-0.128-0.175 0-0.31 0.037-0.407 0.111-0.093 0.074-0.14 0.171-0.14 0.291 0 0.116 0.060 0.207 0.18 0.273 0.124 0.066 0.291 0.122 0.5 0.169 0.178 0.039 0.347 0.087 0.506 0.145 0.163 0.054 0.295 0.138 0.396 0.25 0.105 0.109 0.157 0.268 0.157 0.477 0.004 0.26-0.095 0.475-0.297 0.646-0.198 0.167-0.467 0.25-0.809 0.25z"></path>
</symbol>
<symbol id="icon-header_food" viewBox="0 0 39 32">
<path fill="#fff" style="fill: var(--color2, #fff)" d="M38.737 6.316c0 3.488-2.828 6.316-6.316 6.316s-6.316-2.828-6.316-6.316c0-3.488 2.828-6.316 6.316-6.316s6.316 2.828 6.316 6.316z"></path>
<path fill="#d41443" style="fill: var(--color3, #d41443)" d="M8.601 11.475c-0.362 0-0.678-0.426-0.949-1.278-0.258-0.852-0.387-1.672-0.387-2.46 0-0.181 0.2-0.381 0.6-0.6 0.4-0.232 1.007-0.439 1.821-0.62s1.698-0.271 2.653-0.271c3.706 0 5.559 1.298 5.559 3.893 0 0.723-0.155 1.401-0.465 2.034s-0.652 1.143-1.027 1.53c-0.374 0.374-0.813 0.723-1.317 1.046-0.581 0.362-1.136 0.646-1.666 0.852h3.874c0.077 0 0.161 0.039 0.252 0.116 0.090 0.065 0.187 0.271 0.291 0.62 0.103 0.336 0.155 0.762 0.155 1.278 0 0.504-0.032 0.93-0.097 1.278-0.065 0.336-0.142 0.581-0.232 0.736-0.194 0.349-0.368 0.536-0.523 0.562l-0.097 0.019h-8.483c-0.813 0-1.22-1.272-1.22-3.816 0-0.284 0.839-1.065 2.518-2.344 0.633-0.465 1.214-0.975 1.743-1.53s0.794-1.007 0.794-1.356c0-0.387-0.291-0.581-0.872-0.581s-1.194 0.149-1.84 0.445c-0.633 0.297-0.994 0.445-1.085 0.445zM30.395 9.868c0 1.304-0.517 2.279-1.549 2.925 0.142 0.065 0.323 0.22 0.542 0.465 0.232 0.245 0.426 0.491 0.581 0.736 0.4 0.633 0.6 1.382 0.6 2.247 0 1.42-0.51 2.466-1.53 3.138s-2.421 1.007-4.203 1.007c-0.878 0-1.711-0.071-2.499-0.213-0.775-0.155-1.369-0.323-1.782-0.504-0.413-0.194-0.62-0.368-0.62-0.523 0-0.71 0.077-1.336 0.232-1.879s0.329-0.923 0.523-1.143c0.194-0.232 0.381-0.349 0.562-0.349 0.052 0 0.394 0.116 1.027 0.349s1.252 0.349 1.859 0.349c0.62 0 0.93-0.194 0.93-0.581 0-0.529-0.652-0.813-1.956-0.852-0.517-0.013-0.801-0.026-0.852-0.039-0.271-0.090-0.407-0.659-0.407-1.704s0.136-1.62 0.407-1.724c0.052-0.026 0.336-0.039 0.852-0.039 1.304-0.026 1.956-0.291 1.956-0.794 0-0.387-0.284-0.581-0.852-0.581-0.555 0-1.175 0.136-1.859 0.407s-1.059 0.407-1.123 0.407c-0.297 0-0.568-0.433-0.813-1.298s-0.368-1.478-0.368-1.84c0-0.336 0.374-0.678 1.123-1.027 0.826-0.374 2.040-0.562 3.641-0.562 3.719 0 5.578 1.207 5.578 3.622z"></path>
<path fill="#fff" style="fill: var(--color2, #fff)" d="M0.736 30.316v-2.505h-0.442v-0.419h0.442v-0.507c0-0.283 0.071-0.489 0.212-0.619s0.348-0.195 0.619-0.195h0.295v0.424h-0.218c-0.149 0-0.255 0.031-0.318 0.094-0.063 0.059-0.094 0.161-0.094 0.307v0.495h0.719v0.419h-0.719v2.505h-0.495zM3.757 30.387c-0.275 0-0.523-0.063-0.743-0.189s-0.395-0.303-0.525-0.531c-0.126-0.232-0.189-0.503-0.189-0.813s0.065-0.58 0.195-0.808c0.13-0.232 0.305-0.411 0.525-0.536 0.224-0.126 0.474-0.189 0.749-0.189s0.523 0.063 0.743 0.189c0.22 0.126 0.393 0.305 0.519 0.536 0.13 0.228 0.195 0.497 0.195 0.808s-0.065 0.582-0.195 0.813c-0.13 0.228-0.307 0.405-0.531 0.531-0.22 0.126-0.468 0.189-0.743 0.189zM3.757 29.962c0.169 0 0.326-0.041 0.472-0.124s0.263-0.206 0.354-0.371c0.090-0.165 0.136-0.369 0.136-0.613s-0.045-0.448-0.136-0.613c-0.086-0.165-0.202-0.289-0.348-0.371s-0.301-0.124-0.466-0.124c-0.169 0-0.326 0.041-0.472 0.124s-0.263 0.206-0.354 0.371c-0.090 0.165-0.136 0.369-0.136 0.613s0.045 0.448 0.136 0.613c0.090 0.165 0.206 0.289 0.348 0.371 0.145 0.083 0.301 0.124 0.466 0.124zM7.246 30.387c-0.275 0-0.523-0.063-0.743-0.189s-0.395-0.303-0.525-0.531c-0.126-0.232-0.189-0.503-0.189-0.813s0.065-0.58 0.195-0.808c0.13-0.232 0.305-0.411 0.525-0.536 0.224-0.126 0.474-0.189 0.749-0.189s0.523 0.063 0.743 0.189c0.22 0.126 0.393 0.305 0.519 0.536 0.13 0.228 0.195 0.497 0.195 0.808s-0.065 0.582-0.195 0.813c-0.13 0.228-0.307 0.405-0.531 0.531-0.22 0.126-0.468 0.189-0.743 0.189zM7.246 29.962c0.169 0 0.326-0.041 0.472-0.124s0.263-0.206 0.354-0.371c0.090-0.165 0.136-0.369 0.136-0.613s-0.045-0.448-0.136-0.613c-0.086-0.165-0.202-0.289-0.348-0.371s-0.301-0.124-0.466-0.124c-0.169 0-0.326 0.041-0.472 0.124s-0.263 0.206-0.354 0.371c-0.090 0.165-0.136 0.369-0.136 0.613s0.045 0.448 0.136 0.613c0.090 0.165 0.206 0.289 0.348 0.371 0.145 0.083 0.301 0.124 0.466 0.124zM10.728 30.387c-0.291 0-0.546-0.067-0.766-0.2-0.216-0.134-0.385-0.316-0.507-0.548-0.118-0.232-0.177-0.495-0.177-0.79s0.061-0.556 0.183-0.784c0.122-0.232 0.291-0.413 0.507-0.542 0.216-0.134 0.472-0.2 0.766-0.2 0.24 0 0.452 0.049 0.637 0.147s0.328 0.236 0.43 0.413v-1.81h0.495v4.244h-0.448l-0.047-0.483c-0.094 0.141-0.23 0.269-0.407 0.383s-0.399 0.171-0.666 0.171zM10.781 29.956c0.196 0 0.369-0.045 0.519-0.136 0.153-0.094 0.271-0.224 0.354-0.389 0.086-0.165 0.13-0.358 0.13-0.578s-0.043-0.413-0.13-0.578c-0.083-0.165-0.2-0.293-0.354-0.383-0.149-0.094-0.322-0.141-0.519-0.141-0.193 0-0.365 0.047-0.519 0.141-0.149 0.090-0.267 0.218-0.354 0.383-0.083 0.165-0.124 0.358-0.124 0.578s0.041 0.413 0.124 0.578c0.086 0.165 0.204 0.295 0.354 0.389 0.153 0.090 0.326 0.136 0.519 0.136zM15.819 30.316c-0.267 0-0.477-0.065-0.631-0.195s-0.23-0.363-0.23-0.701v-1.609h-0.507v-0.419h0.507l0.065-0.701h0.43v0.701h0.861v0.419h-0.861v1.609c0 0.185 0.037 0.31 0.112 0.377 0.075 0.063 0.206 0.094 0.395 0.094h0.307v0.424h-0.448zM16.943 30.316v-2.924h0.448l0.041 0.56c0.090-0.193 0.228-0.346 0.413-0.46s0.413-0.171 0.684-0.171v0.519h-0.136c-0.173 0-0.332 0.031-0.477 0.094-0.145 0.059-0.261 0.161-0.348 0.307s-0.13 0.346-0.13 0.601v1.474h-0.495zM21.643 27.392v2.924h-0.448l-0.029-0.525c-0.094 0.185-0.23 0.33-0.407 0.436s-0.377 0.159-0.601 0.159c-0.346 0-0.623-0.104-0.831-0.312-0.204-0.212-0.307-0.536-0.307-0.973v-1.709h0.495v1.656c0 0.609 0.252 0.914 0.755 0.914 0.252 0 0.46-0.090 0.625-0.271 0.169-0.185 0.253-0.446 0.253-0.784v-1.515h0.495zM23.802 30.387c-0.279 0-0.531-0.063-0.755-0.189-0.22-0.13-0.395-0.308-0.525-0.536-0.126-0.232-0.189-0.501-0.189-0.808s0.063-0.574 0.189-0.802c0.13-0.232 0.305-0.411 0.525-0.536 0.224-0.13 0.476-0.195 0.755-0.195 0.346 0 0.637 0.090 0.872 0.271 0.24 0.181 0.391 0.422 0.454 0.725h-0.507c-0.039-0.181-0.136-0.32-0.289-0.419-0.153-0.102-0.332-0.153-0.536-0.153-0.165 0-0.32 0.041-0.466 0.124s-0.263 0.206-0.354 0.371-0.136 0.369-0.136 0.613 0.045 0.448 0.136 0.613c0.090 0.165 0.208 0.291 0.354 0.377 0.145 0.083 0.301 0.124 0.466 0.124 0.204 0 0.383-0.049 0.536-0.147 0.153-0.102 0.25-0.246 0.289-0.43h0.507c-0.059 0.295-0.208 0.534-0.448 0.719s-0.532 0.277-0.878 0.277zM25.82 30.316v-4.244h0.495v2.552l1.197-1.232h0.607l-1.297 1.32 1.462 1.603h-0.631l-1.338-1.515v1.515h-0.495zM29.737 30.387c-0.35 0-0.641-0.088-0.872-0.265s-0.367-0.417-0.407-0.719h0.507c0.031 0.153 0.112 0.287 0.242 0.401 0.134 0.11 0.312 0.165 0.536 0.165 0.208 0 0.362-0.043 0.46-0.13 0.098-0.090 0.147-0.197 0.147-0.318 0-0.177-0.065-0.295-0.195-0.354-0.126-0.059-0.305-0.112-0.536-0.159-0.182-0.037-0.34-0.084-0.492-0.143l0.021 0.007c-0.157-0.059-0.289-0.141-0.395-0.248-0.106-0.11-0.159-0.253-0.159-0.43 0-0.255 0.094-0.464 0.283-0.625 0.193-0.165 0.452-0.248 0.778-0.248 0.31 0 0.564 0.079 0.76 0.236 0.2 0.153 0.316 0.373 0.348 0.66h-0.489c-0.020-0.149-0.084-0.265-0.195-0.348-0.106-0.086-0.25-0.13-0.43-0.13-0.177 0-0.314 0.037-0.413 0.112-0.094 0.075-0.141 0.173-0.141 0.295 0 0.118 0.061 0.21 0.183 0.277 0.126 0.067 0.295 0.124 0.507 0.171 0.181 0.039 0.352 0.088 0.513 0.147 0.165 0.055 0.299 0.14 0.401 0.253 0.106 0.11 0.159 0.271 0.159 0.483 0.004 0.263-0.096 0.481-0.301 0.654-0.2 0.169-0.474 0.253-0.819 0.253z"></path>
</symbol>
<symbol id="icon-form_email" viewBox="0 0 32 32">
<path d="M26.667 5.333h-21.333c-1.467 0-2.653 1.2-2.653 2.667l-0.013 16c0 1.467 1.2 2.667 2.667 2.667h21.333c1.467 0 2.667-1.2 2.667-2.667v-16c0-1.467-1.2-2.667-2.667-2.667zM26.133 11l-9.427 5.893c-0.427 0.267-0.987 0.267-1.413 0l-9.427-5.893c-0.333-0.213-0.533-0.573-0.533-0.96 0-0.893 0.973-1.427 1.733-0.96l8.933 5.587 8.933-5.587c0.76-0.467 1.733 0.067 1.733 0.96 0 0.387-0.2 0.747-0.533 0.96z"></path>
</symbol>
<symbol id="icon-form_person" viewBox="0 0 32 32">
<path d="M16 16c2.947 0 5.333-2.387 5.333-5.333s-2.387-5.333-5.333-5.333-5.333 2.387-5.333 5.333 2.387 5.333 5.333 5.333zM16 18.667c-3.56 0-10.667 1.787-10.667 5.333v1.333c0 0.733 0.6 1.333 1.333 1.333h18.667c0.733 0 1.333-0.6 1.333-1.333v-1.333c0-3.547-7.107-5.333-10.667-5.333z"></path>
</symbol>
<symbol id="icon-form_phone" viewBox="0 0 32 32">
<path d="M24.882 19.773l-3.268-0.373c-0.090-0.011-0.193-0.017-0.299-0.017-0.708 0-1.348 0.287-1.812 0.751l-2.367 2.367c-3.641-1.853-6.626-4.825-8.478-8.478l2.38-2.38c0.464-0.464 0.751-1.104 0.751-1.812 0-0.105-0.006-0.209-0.019-0.311l0.001 0.012-0.373-3.242c-0.154-1.288-1.24-2.277-2.558-2.277-0.001 0-0.002 0-0.003 0h-2.226c-1.454 0-2.663 1.209-2.573 2.663 0.682 10.987 9.469 19.761 20.443 20.443 1.454 0.090 2.663-1.119 2.663-2.573v-2.226c0.013-1.3-0.965-2.393-2.264-2.547z"></path>
</symbol>
<symbol id="icon-arrow_right" viewBox="0 0 32 32">
<path d="M0 0h32v32h-32z"></path>
</symbol>
<symbol id="icon-burger_menu" viewBox="0 0 46 32">
<path fill="none" stroke="#d41443" style="stroke: var(--color1, #d41443)" stroke-linejoin="miter" stroke-linecap="butt" stroke-miterlimit="4" stroke-width="2.2857" d="M0 2.286h45.714M0 16h45.714M0 29.714h45.714"></path>
</symbol>
<symbol id="icon-mobile_close" viewBox="0 0 32 32">
<path fill="none" style="stroke: var(--color1,)" stroke-linejoin="miter" stroke-linecap="butt" stroke-miterlimit="4" stroke-width="2" d="M2.518 2l26.963 28M2 29.481l28-26.963"></path>
</symbol>
<symbol id="icon-form_address" viewBox="0 0 26 32">
<path d="M12.8 1.28c-5.377 0-9.735 4.359-9.735 9.736 0 3.044 1.627 5.509 3.583 7.544 1.415 1.474 6.153 5.76 6.153 5.76s5.124-4.643 5.582-5.1c2.157-2.158 4.153-4.921 4.153-8.204-0-5.377-4.359-9.736-9.735-9.736zM16.742 11.156v4.883h-3.030v-3.618h-1.824v3.618h-3.032v-4.883h-1.245l5.188-5.29 1.868 1.904v-0.972h1.453v2.453l1.869 1.905h-1.247z"></path>
</symbol>
</defs>
</svg>
