<?xml version="1.0" standalone="no"?>
<!DOCTYPE svg PUBLIC "-//W3C//DTD SVG 20010904//EN"
 "http://www.w3.org/TR/2001/REC-SVG-20010904/DTD/svg10.dtd">
<svg version="1.0" xmlns="http://www.w3.org/2000/svg"
 width="512.000000pt" height="512.000000pt" viewBox="0 0 512.000000 512.000000"
 preserveAspectRatio="xMidYMid meet">
<metadata>
Created by potrace 1.11, written by Peter Selinger 2001-2013
</metadata>
<g transform="translate(0.000000,512.000000) scale(0.100000,-0.100000)"
fill="#000000" stroke="none">
<path d="M1695 5107 c-27 -8 -64 -21 -81 -30 -41 -21 -100 -91 -107 -124 -13
-69 44 -155 151 -226 42 -28 82 -64 96 -86 35 -55 60 -146 59 -221 0 -108 -33
-167 -203 -360 -120 -136 -160 -222 -160 -345 l0 -75 -38 0 c-46 0 -159 -29
-226 -59 -118 -52 -246 -170 -311 -286 -58 -103 -78 -177 -79 -293 l-2 -103
-58 -24 c-74 -30 -140 -86 -192 -163 -119 -173 -132 -381 -33 -504 19 -25 25
-38 16 -38 -17 0 -69 -65 -87 -110 -33 -80 -5 -208 60 -275 25 -25 38 -31 87
-33 32 -2 59 -5 60 -6 2 -2 8 -95 13 -207 17 -332 55 -685 131 -1204 29 -197
32 -211 57 -233 49 -42 127 -72 233 -88 132 -20 460 -14 1364 27 132 6 371 9
530 7 160 -2 295 0 302 5 6 4 12 24 12 45 -1 69 78 458 255 1259 42 188 76
344 76 348 0 3 11 3 25 -1 38 -9 110 30 126 69 18 40 17 191 0 271 -16 73 -54
116 -101 116 -27 0 -31 3 -25 18 4 9 9 45 12 78 9 97 -25 207 -83 277 -20 24
-22 32 -12 55 6 15 11 63 11 107 0 89 -15 134 -62 188 l-30 33 112 69 c316
196 726 485 979 692 145 119 143 112 85 228 -194 390 -558 722 -967 883 -86
34 -251 78 -326 88 -45 5 -53 4 -66 -15 -8 -11 -63 -151 -123 -312 l-109 -291
-12 60 c-50 245 -269 487 -579 641 -205 102 -386 149 -600 156 -88 3 -146 1
-180 -8z m360 -81 c373 -67 694 -267 854 -530 47 -78 80 -175 96 -280 l13 -89
-109 -293 c-59 -162 -144 -405 -189 -541 -44 -137 -82 -254 -85 -260 -3 -9
-16 -5 -42 13 -33 23 -46 25 -104 22 -76 -4 -149 -43 -149 -78 0 -25 11 -25
62 1 46 24 122 28 156 10 31 -17 36 -52 17 -111 -9 -27 -19 -50 -21 -50 -3 0
-22 9 -44 20 -48 25 -60 25 -60 2 0 -10 14 -26 30 -35 17 -10 51 -36 76 -58
25 -21 52 -39 60 -39 16 0 19 41 4 56 -16 16 13 36 63 41 37 5 47 1 76 -26 30
-28 33 -35 28 -78 -3 -27 -8 -60 -12 -75 -11 -41 21 -50 51 -15 16 18 33 27
53 27 38 0 52 -24 44 -74 -6 -40 -8 -40 73 -36 89 3 133 -34 119 -100 -5 -22
-2 -31 13 -39 25 -13 41 4 48 51 11 75 -61 148 -147 148 -27 0 -49 4 -49 9 0
5 46 35 103 67 56 31 160 91 230 132 123 71 129 74 143 56 33 -42 54 -100 54
-155 0 -67 -8 -95 -67 -221 -44 -94 -49 -128 -19 -128 8 0 36 32 62 72 l48 72
23 -50 c35 -76 46 -147 37 -231 l-9 -74 -825 2 c-454 2 -1123 4 -1486 4 -746
0 -682 -7 -723 79 -45 93 -45 231 0 351 28 76 110 162 197 208 l67 36 33 -63
c18 -34 51 -82 75 -106 44 -45 154 -104 184 -98 34 6 26 35 -18 61 -70 42
-147 125 -180 195 -37 76 -49 193 -30 282 31 143 146 298 287 386 67 42 244
114 280 114 8 0 19 -12 24 -27 26 -73 82 -147 146 -193 46 -33 74 -34 74 -3 0
9 -35 51 -78 93 -91 87 -132 159 -132 229 0 80 37 138 184 292 109 112 143
155 171 212 41 85 55 166 45 260 -12 110 -45 181 -122 262 -72 76 -88 106 -88
161 0 68 43 115 125 135 51 12 176 10 260 -5z m1411 -240 c331 -113 562 -253
789 -481 84 -84 167 -177 205 -233 80 -114 163 -263 153 -272 -5 -4 -123 -85
-263 -180 -140 -96 -433 -296 -650 -445 -217 -149 -472 -323 -565 -387 l-170
-116 -23 19 c-13 10 -38 21 -57 25 -29 5 -33 10 -39 44 -12 76 -78 125 -159
119 l-44 -4 5 50 c3 32 32 113 79 224 92 216 264 675 464 1239 84 237 158 432
164 432 6 0 56 -15 111 -34z m-46 -3058 c80 -6 149 -14 153 -18 4 -4 -9 -54
-30 -111 -22 -57 -52 -145 -68 -196 l-29 -92 -120 117 c-67 65 -170 159 -231
211 -60 51 -114 98 -120 104 -11 11 213 4 445 -15z m-2498 -4 c19 -4 80 -62
210 -202 352 -380 545 -580 952 -990 400 -401 410 -412 376 -412 -20 0 -165
-7 -324 -16 -159 -8 -289 -14 -290 -12 -24 40 -393 441 -696 758 -119 124
-255 266 -303 316 l-87 91 -30 229 c-16 126 -30 235 -30 242 0 11 19 13 98 7
53 -3 109 -8 124 -11z m1406 -16 c199 -239 729 -823 889 -981 l79 -78 -18
-112 c-10 -62 -25 -170 -33 -242 -22 -182 -19 -175 -58 -175 -25 0 -39 7 -54
28 -11 15 -58 67 -103 117 -103 111 -417 477 -700 815 -117 140 -289 342 -382
448 -158 179 -167 192 -141 193 272 13 341 16 411 17 82 2 84 2 110 -30z
m-1310 -1385 c57 -62 136 -142 175 -178 l71 -65 -89 1 c-138 0 -285 32 -285
61 0 13 -35 282 -45 348 l-5 35 37 -45 c21 -24 84 -95 141 -157z"/>
<path d="M2315 4860 c-10 -17 4 -29 48 -41 23 -6 75 -28 115 -50 81 -43 92
-46 92 -24 0 40 -236 146 -255 115z"/>
<path d="M2410 4720 c0 -5 26 -23 58 -39 32 -16 77 -45 101 -65 42 -35 61 -39
61 -11 0 19 -76 80 -131 104 -47 22 -89 27 -89 11z"/>
<path d="M2785 4018 c-41 -110 -64 -193 -55 -202 7 -7 13 -7 20 0 11 11 70
180 70 201 0 17 -29 17 -35 1z"/>
<path d="M1678 3887 c-33 -31 -55 -74 -60 -116 -4 -42 19 -54 28 -14 9 39 33
84 57 111 31 33 8 50 -25 19z"/>
<path d="M2829 3863 c-41 -96 -71 -195 -61 -205 13 -13 31 22 78 143 19 50 32
95 28 100 -11 19 -25 7 -45 -38z"/>
<path d="M2240 3838 c-1 -2 -2 -42 -4 -90 -2 -68 0 -88 10 -88 12 0 17 11 29
72 4 25 -15 108 -26 108 -5 0 -9 -1 -9 -2z"/>
<path d="M1231 3486 c-72 -49 -130 -119 -131 -158 0 -31 24 -18 66 35 22 29
62 69 90 89 81 62 60 91 -25 34z"/>
<path d="M1186 3338 c-35 -29 -75 -95 -76 -125 0 -31 32 -9 55 37 14 27 39 59
55 72 31 22 40 48 17 48 -7 0 -30 -14 -51 -32z"/>
<path d="M1630 2972 c0 -20 91 -82 120 -82 23 0 8 18 -30 35 -22 10 -47 26
-56 36 -18 20 -34 25 -34 11z"/>
<path d="M3388 2653 c-2 -5 -2 -36 0 -70 4 -68 25 -87 37 -34 11 49 -21 137
-37 104z"/>
<path d="M3323 2565 c-6 -36 -21 -84 -33 -107 -26 -50 -13 -74 17 -31 30 44
43 83 46 142 3 77 -17 74 -30 -4z"/>
<path d="M650 2516 c-10 -24 -22 -65 -25 -90 -6 -38 -5 -46 8 -46 11 0 20 15
27 43 6 23 17 60 25 82 19 51 19 55 0 55 -9 0 -24 -19 -35 -44z"/>
<path d="M579 2474 c-16 -37 -16 -131 0 -168 18 -44 32 -20 19 32 -7 30 -7 58
0 95 12 59 -1 87 -19 41z"/>
<path d="M1730 2341 c0 -18 162 -33 169 -16 3 6 -8 13 -25 16 -46 10 -144 10
-144 0z"/>
<path d="M1640 2255 c0 -12 18 -15 100 -15 82 0 100 3 100 15 0 12 -18 15
-100 15 -82 0 -100 -3 -100 -15z"/>
<path d="M3354 4725 c-25 -39 -35 -95 -18 -102 8 -3 16 -4 18 -2 11 15 43 118
39 123 -12 11 -23 6 -39 -19z"/>
<path d="M3401 4668 c-24 -39 -50 -127 -40 -134 6 -3 14 -2 19 2 9 10 60 133
60 146 0 16 -26 7 -39 -14z"/>
<path d="M3460 4615 c0 -9 19 -50 41 -91 23 -41 40 -77 38 -78 -2 -2 -47 -22
-99 -44 -52 -22 -96 -45 -98 -51 -6 -17 8 -14 112 24 53 19 99 35 101 35 6 0
117 -221 113 -225 -2 -1 -34 -14 -73 -28 -38 -14 -90 -34 -115 -45 l-46 -19
-58 88 c-54 82 -76 105 -76 79 0 -5 19 -48 43 -96 48 -98 57 -81 -75 -157
-102 -59 -124 -75 -114 -84 3 -4 58 19 121 50 63 31 118 57 122 57 9 0 156
-290 151 -295 -19 -18 -221 -115 -227 -109 -4 5 -32 62 -61 127 -30 64 -58
117 -62 117 -12 0 -11 -6 32 -140 22 -69 40 -129 40 -135 0 -10 -140 -95 -157
-95 -5 0 -18 18 -28 40 -22 49 -40 53 -30 8 4 -18 9 -43 12 -55 4 -17 -4 -27
-38 -49 -54 -33 -54 -33 -47 -40 3 -3 24 4 47 15 22 12 45 21 50 21 5 0 21
-38 36 -85 14 -47 28 -91 31 -99 4 -10 -24 -28 -92 -60 -53 -25 -100 -46 -105
-46 -4 0 -20 34 -36 75 -15 41 -31 75 -35 75 -12 0 -10 -8 16 -90 15 -46 21
-79 15 -85 -14 -14 -11 -25 6 -25 9 0 26 -23 39 -55 34 -76 86 -149 98 -137 6
6 -9 46 -41 111 l-51 101 37 16 c98 41 164 66 167 63 2 -2 26 -52 54 -111 33
-70 56 -108 66 -108 23 0 20 15 -20 140 -20 61 -35 112 -33 114 13 8 153 66
155 63 2 -2 19 -38 38 -80 22 -47 41 -77 51 -77 21 0 19 25 -10 110 -14 40
-24 74 -22 75 1 1 40 18 87 38 48 20 86 42 88 51 5 22 -7 20 -93 -14 -42 -16
-81 -30 -89 -30 -7 0 -31 45 -53 103 l-41 102 115 58 c63 32 116 57 118 55 1
-2 35 -67 74 -145 56 -112 75 -143 91 -143 11 0 20 6 20 13 0 16 -48 139 -89
231 -18 38 -28 73 -24 77 4 4 56 30 115 58 l107 50 46 -80 c52 -88 55 -91 75
-79 12 8 8 24 -28 95 l-42 86 67 30 c124 56 164 72 167 68 2 -2 24 -36 49 -75
50 -78 63 -92 79 -76 7 7 -3 38 -30 96 l-41 86 45 19 c25 11 44 27 44 35 0 20
-21 20 -67 1 -19 -8 -39 -15 -42 -15 -4 0 -18 19 -31 42 -13 23 -48 77 -78
121 -29 43 -52 80 -50 82 2 2 25 13 51 24 45 19 55 30 41 44 -4 3 -29 -3 -58
-13 -28 -11 -55 -20 -61 -20 -5 1 -25 21 -43 45 -53 73 -86 55 -36 -19 14 -21
22 -41 18 -46 -10 -8 -193 -70 -209 -70 -10 0 -121 184 -127 210 -2 6 21 21
51 33 57 24 78 47 42 47 -11 0 -43 -9 -70 -20 l-50 -19 -48 84 c-45 79 -73
106 -73 70z m591 -495 c41 -69 68 -124 63 -129 -5 -4 -56 -27 -112 -51 -85
-35 -106 -41 -113 -29 -23 35 -129 238 -129 246 0 10 180 81 207 82 7 1 44
-53 84 -119z m-281 -111 c40 -72 68 -134 64 -138 -11 -9 -209 -101 -218 -101
-3 0 -22 33 -42 73 -20 39 -54 103 -76 140 -22 38 -38 70 -36 72 6 6 212 83
225 84 6 1 44 -58 83 -130z m-461 -516 c12 -29 30 -76 41 -104 l20 -50 -57
-26 c-113 -50 -98 -55 -149 54 -24 53 -43 97 -42 98 6 5 163 83 165 81 1 0 11
-25 22 -53z"/>
<path d="M4470 3933 c0 -24 55 -133 67 -133 17 0 11 25 -21 90 -21 40 -46 64
-46 43z"/>
<path d="M4390 3883 c0 -39 28 -108 44 -111 18 -4 16 14 -9 87 -13 38 -35 53
-35 24z"/>
<path d="M3865 3424 c-66 -52 -91 -84 -65 -84 6 0 44 25 85 56 60 45 73 59 64
70 -6 8 -12 14 -13 14 0 0 -32 -25 -71 -56z"/>
<path d="M3456 1570 c-34 -75 -39 -109 -14 -94 11 7 78 148 78 165 0 5 -6 9
-14 9 -7 0 -30 -36 -50 -80z"/>
<path d="M940 1630 c0 -14 153 -178 168 -179 25 -2 10 22 -69 104 -78 81 -99
97 -99 75z"/>
<path d="M960 1485 c0 -6 129 -135 135 -135 3 0 5 7 5 15 0 21 -102 125 -123
125 -9 0 -17 -2 -17 -5z"/>
<path d="M1674 475 c-7 -18 90 -125 113 -125 24 0 13 23 -34 74 -59 64 -71 72
-79 51z"/>
<path d="M1677 374 c-13 -13 -7 -23 53 -94 56 -65 82 -82 94 -62 4 7 -117 154
-133 160 -4 1 -10 -1 -14 -4z"/>
<path d="M1990 1556 c0 -6 67 -119 84 -141 14 -18 15 -18 16 -2 0 10 -6 30
-14 45 -9 18 10 4 55 -40 63 -63 99 -83 99 -58 0 13 -158 170 -171 170 -5 0
-9 -6 -9 -12 0 -7 -10 -1 -21 15 -18 23 -39 36 -39 23z"/>
<path d="M956 218 c9 -22 86 -78 97 -71 13 8 -66 83 -87 83 -9 0 -13 -6 -10
-12z"/>
</g>
</svg>
