<svg width="51" height="43" viewBox="0 0 51 43" fill="none" xmlns="http://www.w3.org/2000/svg">
<circle r="8" transform="matrix(-1 0 0 1 43 8)" fill="white"/>
<path d="M10.3903 15.372C9.86762 15.372 9.41028 14.756 9.01828 13.524C8.64495 12.292 8.45828 11.1067 8.45828 9.968C8.45828 9.70667 8.74762 9.41733 9.32628 9.1C9.90495 8.764 10.7823 8.46533 11.9583 8.204C13.1343 7.94267 14.4129 7.812 15.7943 7.812C21.1516 7.812 23.8303 9.688 23.8303 13.44C23.8303 14.4853 23.6063 15.4653 23.1583 16.38C22.7103 17.2947 22.2156 18.032 21.6743 18.592C21.1329 19.1333 20.4983 19.6373 19.7703 20.104C18.9303 20.6267 18.1276 21.0373 17.3623 21.336H22.9623C23.0743 21.336 23.1956 21.392 23.3263 21.504C23.4569 21.5973 23.5969 21.896 23.7463 22.4C23.8956 22.8853 23.9703 23.5013 23.9703 24.248C23.9703 24.976 23.9236 25.592 23.8303 26.096C23.7369 26.5813 23.6249 26.936 23.4943 27.16C23.2143 27.664 22.9623 27.9347 22.7383 27.972L22.5983 28H10.3343C9.15828 28 8.57028 26.1613 8.57028 22.484C8.57028 22.0733 9.78362 20.944 12.2103 19.096C13.1249 18.424 13.9649 17.6867 14.7303 16.884C15.4956 16.0813 15.8783 15.428 15.8783 14.924C15.8783 14.364 15.4583 14.084 14.6183 14.084C13.7783 14.084 12.8916 14.2987 11.9583 14.728C11.0436 15.1573 10.5209 15.372 10.3903 15.372ZM41.8975 13.048C41.8975 14.9333 41.1508 16.3427 39.6575 17.276C39.8628 17.3693 40.1242 17.5933 40.4415 17.948C40.7775 18.3027 41.0575 18.6573 41.2815 19.012C41.8602 19.9267 42.1495 21.0093 42.1495 22.26C42.1495 24.3133 41.4122 25.8253 39.9375 26.796C38.4628 27.7667 36.4375 28.252 33.8615 28.252C32.5922 28.252 31.3882 28.1493 30.2495 27.944C29.1295 27.72 28.2708 27.4773 27.6735 27.216C27.0762 26.936 26.7775 26.684 26.7775 26.46C26.7775 25.4333 26.8895 24.528 27.1135 23.744C27.3375 22.96 27.5895 22.4093 27.8695 22.092C28.1495 21.756 28.4202 21.588 28.6815 21.588C28.7562 21.588 29.2508 21.756 30.1655 22.092C31.0802 22.428 31.9762 22.596 32.8535 22.596C33.7495 22.596 34.1975 22.316 34.1975 21.756C34.1975 20.9907 33.2548 20.58 31.3695 20.524C30.6228 20.5053 30.2122 20.4867 30.1375 20.468C29.7455 20.3373 29.5495 19.516 29.5495 18.004C29.5495 16.492 29.7455 15.6613 30.1375 15.512C30.2122 15.4747 30.6228 15.456 31.3695 15.456C33.2548 15.4187 34.1975 15.036 34.1975 14.308C34.1975 13.748 33.7868 13.468 32.9655 13.468C32.1628 13.468 31.2668 13.664 30.2775 14.056C29.2882 14.448 28.7468 14.644 28.6535 14.644C28.2242 14.644 27.8322 14.0187 27.4775 12.768C27.1228 11.5173 26.9455 10.6307 26.9455 10.108C26.9455 9.62267 27.4868 9.128 28.5695 8.624C29.7642 8.08267 31.5188 7.812 33.8335 7.812C39.2095 7.812 41.8975 9.55733 41.8975 13.048Z" fill="#D41443"/>
<path d="M1.71331 41V37.6H1.11331V37.032H1.71331V36.344C1.71331 35.96 1.80931 35.68 2.00131 35.504C2.19331 35.328 2.47331 35.24 2.84131 35.24H3.24131V35.816H2.94531C2.74265 35.816 2.59865 35.8587 2.51331 35.944C2.42798 36.024 2.38531 36.1627 2.38531 36.36V37.032H3.36131V37.6H2.38531V41H1.71331ZM5.81313 41.096C5.43979 41.096 5.10379 41.0107 4.80513 40.84C4.50646 40.6693 4.26913 40.4293 4.09313 40.12C3.92246 39.8053 3.83713 39.4373 3.83713 39.016C3.83713 38.5947 3.92513 38.2293 4.10113 37.92C4.27713 37.6053 4.51446 37.3627 4.81313 37.192C5.11713 37.0213 5.45579 36.936 5.82913 36.936C6.20246 36.936 6.53846 37.0213 6.83713 37.192C7.13579 37.3627 7.37046 37.6053 7.54113 37.92C7.71713 38.2293 7.80513 38.5947 7.80513 39.016C7.80513 39.4373 7.71713 39.8053 7.54113 40.12C7.36513 40.4293 7.12513 40.6693 6.82113 40.84C6.52246 41.0107 6.18646 41.096 5.81313 41.096ZM5.81313 40.52C6.04246 40.52 6.25579 40.464 6.45313 40.352C6.65046 40.24 6.81046 40.072 6.93313 39.848C7.05579 39.624 7.11713 39.3467 7.11713 39.016C7.11713 38.6853 7.05579 38.408 6.93313 38.184C6.81579 37.96 6.65846 37.792 6.46113 37.68C6.26379 37.568 6.05313 37.512 5.82913 37.512C5.59979 37.512 5.38646 37.568 5.18913 37.68C4.99179 37.792 4.83179 37.96 4.70913 38.184C4.58646 38.408 4.52513 38.6853 4.52513 39.016C4.52513 39.3467 4.58646 39.624 4.70913 39.848C4.83179 40.072 4.98913 40.24 5.18113 40.352C5.37846 40.464 5.58913 40.52 5.81313 40.52ZM10.5475 41.096C10.1742 41.096 9.83817 41.0107 9.5395 40.84C9.24083 40.6693 9.0035 40.4293 8.8275 40.12C8.65683 39.8053 8.5715 39.4373 8.5715 39.016C8.5715 38.5947 8.6595 38.2293 8.8355 37.92C9.0115 37.6053 9.24883 37.3627 9.5475 37.192C9.8515 37.0213 10.1902 36.936 10.5635 36.936C10.9368 36.936 11.2728 37.0213 11.5715 37.192C11.8702 37.3627 12.1048 37.6053 12.2755 37.92C12.4515 38.2293 12.5395 38.5947 12.5395 39.016C12.5395 39.4373 12.4515 39.8053 12.2755 40.12C12.0995 40.4293 11.8595 40.6693 11.5555 40.84C11.2568 41.0107 10.9208 41.096 10.5475 41.096ZM10.5475 40.52C10.7768 40.52 10.9902 40.464 11.1875 40.352C11.3848 40.24 11.5448 40.072 11.6675 39.848C11.7902 39.624 11.8515 39.3467 11.8515 39.016C11.8515 38.6853 11.7902 38.408 11.6675 38.184C11.5502 37.96 11.3928 37.792 11.1955 37.68C10.9982 37.568 10.7875 37.512 10.5635 37.512C10.3342 37.512 10.1208 37.568 9.9235 37.68C9.72617 37.792 9.56617 37.96 9.4435 38.184C9.32083 38.408 9.2595 38.6853 9.2595 39.016C9.2595 39.3467 9.32083 39.624 9.4435 39.848C9.56617 40.072 9.7235 40.24 9.9155 40.352C10.1128 40.464 10.3235 40.52 10.5475 40.52ZM15.2739 41.096C14.8792 41.096 14.5325 41.0053 14.2339 40.824C13.9405 40.6427 13.7112 40.3947 13.5459 40.08C13.3859 39.7653 13.3059 39.408 13.3059 39.008C13.3059 38.608 13.3885 38.2533 13.5539 37.944C13.7192 37.6293 13.9485 37.384 14.2419 37.208C14.5352 37.0267 14.8819 36.936 15.2819 36.936C15.6072 36.936 15.8952 37.0027 16.1459 37.136C16.3965 37.2693 16.5912 37.456 16.7299 37.696V35.24H17.4019V41H16.7939L16.7299 40.344C16.6019 40.536 16.4179 40.7093 16.1779 40.864C15.9379 41.0187 15.6365 41.096 15.2739 41.096ZM15.3459 40.512C15.6125 40.512 15.8472 40.4507 16.0499 40.328C16.2579 40.2 16.4179 40.024 16.5299 39.8C16.6472 39.576 16.7059 39.3147 16.7059 39.016C16.7059 38.7173 16.6472 38.456 16.5299 38.232C16.4179 38.008 16.2579 37.8347 16.0499 37.712C15.8472 37.584 15.6125 37.52 15.3459 37.52C15.0845 37.52 14.8499 37.584 14.6419 37.712C14.4392 37.8347 14.2792 38.008 14.1619 38.232C14.0499 38.456 13.9939 38.7173 13.9939 39.016C13.9939 39.3147 14.0499 39.576 14.1619 39.8C14.2792 40.024 14.4392 40.2 14.6419 40.328C14.8499 40.4507 15.0845 40.512 15.3459 40.512ZM22.1825 41C21.8198 41 21.5345 40.912 21.3265 40.736C21.1185 40.56 21.0145 40.2427 21.0145 39.784V37.6H20.3265V37.032H21.0145L21.1025 36.08H21.6865V37.032H22.8545V37.6H21.6865V39.784C21.6865 40.0347 21.7372 40.2053 21.8385 40.296C21.9398 40.3813 22.1185 40.424 22.3745 40.424H22.7905V41H22.1825ZM23.7083 41V37.032H24.3163L24.3723 37.792C24.4949 37.5307 24.6816 37.3227 24.9323 37.168C25.1829 37.0133 25.4923 36.936 25.8603 36.936V37.64H25.6763C25.4416 37.64 25.2256 37.6827 25.0283 37.768C24.8309 37.848 24.6736 37.9867 24.5563 38.184C24.4389 38.3813 24.3803 38.6533 24.3803 39V41H23.7083ZM30.0865 37.032V41H29.4785L29.4385 40.288C29.3105 40.5387 29.1265 40.736 28.8865 40.88C28.6465 41.024 28.3745 41.096 28.0705 41.096C27.6012 41.096 27.2252 40.9547 26.9425 40.672C26.6652 40.384 26.5265 39.944 26.5265 39.352V37.032H27.1985V39.28C27.1985 40.1067 27.5398 40.52 28.2225 40.52C28.5638 40.52 28.8465 40.3973 29.0705 40.152C29.2998 39.9013 29.4145 39.5467 29.4145 39.088V37.032H30.0865ZM33.0166 41.096C32.638 41.096 32.2966 41.0107 31.9926 40.84C31.694 40.664 31.4566 40.4213 31.2806 40.112C31.11 39.7973 31.0246 39.432 31.0246 39.016C31.0246 38.6 31.11 38.2373 31.2806 37.928C31.4566 37.6133 31.694 37.3707 31.9926 37.2C32.2966 37.024 32.638 36.936 33.0166 36.936C33.486 36.936 33.8806 37.0587 34.2006 37.304C34.526 37.5493 34.7313 37.8773 34.8166 38.288H34.1286C34.0753 38.0427 33.9446 37.8533 33.7366 37.72C33.5286 37.5813 33.286 37.512 33.0086 37.512C32.7846 37.512 32.574 37.568 32.3766 37.68C32.1793 37.792 32.0193 37.96 31.8966 38.184C31.774 38.408 31.7126 38.6853 31.7126 39.016C31.7126 39.3467 31.774 39.624 31.8966 39.848C32.0193 40.072 32.1793 40.2427 32.3766 40.36C32.574 40.472 32.7846 40.528 33.0086 40.528C33.286 40.528 33.5286 40.4613 33.7366 40.328C33.9446 40.1893 34.0753 39.9947 34.1286 39.744H34.8166C34.7366 40.144 34.534 40.4693 34.2086 40.72C33.8833 40.9707 33.486 41.096 33.0166 41.096ZM35.7551 41V35.24H36.4271V38.704L38.0511 37.032H38.8751L37.1151 38.824L39.0991 41H38.2431L36.4271 38.944V41H35.7551ZM41.072 41.096C40.5973 41.096 40.2027 40.976 39.888 40.736C39.5733 40.496 39.3893 40.1707 39.336 39.76H40.024C40.0667 39.968 40.176 40.1493 40.352 40.304C40.5333 40.4533 40.776 40.528 41.08 40.528C41.3627 40.528 41.5707 40.4693 41.704 40.352C41.8373 40.2293 41.904 40.0853 41.904 39.92C41.904 39.68 41.816 39.52 41.64 39.44C41.4693 39.36 41.2267 39.288 40.912 39.224C40.6987 39.1813 40.4853 39.12 40.272 39.04C40.0587 38.96 39.88 38.848 39.736 38.704C39.592 38.5547 39.52 38.36 39.52 38.12C39.52 37.7733 39.648 37.4907 39.904 37.272C40.1653 37.048 40.5173 36.936 40.96 36.936C41.3813 36.936 41.7253 37.0427 41.992 37.256C42.264 37.464 42.4213 37.7627 42.464 38.152H41.8C41.7733 37.9493 41.6853 37.792 41.536 37.68C41.392 37.5627 41.1973 37.504 40.952 37.504C40.712 37.504 40.5253 37.5547 40.392 37.656C40.264 37.7573 40.2 37.8907 40.2 38.056C40.2 38.216 40.2827 38.3413 40.448 38.432C40.6187 38.5227 40.848 38.6 41.136 38.664C41.3813 38.7173 41.6133 38.784 41.832 38.864C42.056 38.9387 42.2373 39.0533 42.376 39.208C42.52 39.3573 42.592 39.576 42.592 39.864C42.5973 40.2213 42.4613 40.5173 42.184 40.752C41.912 40.9813 41.5413 41.096 41.072 41.096Z" fill="white"/>
</svg>
