<svg width="43" height="44" viewBox="0 0 43 44" fill="none" xmlns="http://www.w3.org/2000/svg">
<circle r="8" transform="matrix(-1 0 0 1 35 8)" fill="white"/>
<path d="M12.2174 28.328C12.2174 28.5333 11.6481 28.7013 10.5094 28.832C9.37077 28.944 8.23211 29 7.09344 29C5.95477 29 5.21744 28.9533 4.88144 28.86C4.56411 28.748 4.40544 28.5707 4.40544 28.328V16.232H1.54944C1.23211 16.232 1.07344 15.5507 1.07344 14.188C1.07344 12.8253 1.23211 11.5933 1.54944 10.492C1.64277 10.1373 2.63211 9.81067 4.51744 9.512C6.40277 9.21333 7.84944 9.064 8.85744 9.064C9.86544 9.064 10.5374 9.10133 10.8734 9.176C11.2094 9.25067 11.4614 9.344 11.6294 9.456C11.7974 9.54933 11.9281 9.66133 12.0214 9.792C12.1521 9.99733 12.2174 10.1933 12.2174 10.38V28.328ZM23.1129 16.764C23.2809 16.6147 23.7289 16.4187 24.4569 16.176C25.1849 15.9333 26.0063 15.812 26.9209 15.812C27.8543 15.812 28.6383 15.952 29.2729 16.232C29.9263 16.4933 30.4303 16.8293 30.7849 17.24C31.1583 17.6507 31.4476 18.164 31.6529 18.78C31.9889 19.788 32.1569 20.8147 32.1569 21.86C32.1569 22.9053 32.1103 23.6987 32.0169 24.24C31.9423 24.7627 31.7369 25.3507 31.4009 26.004C31.0836 26.6573 30.6449 27.208 30.0849 27.656C29.5436 28.104 28.7596 28.4867 27.7329 28.804C26.7249 29.1027 25.5396 29.252 24.1769 29.252C21.2463 29.252 19.0343 28.4493 17.5409 26.844C16.0476 25.22 15.3009 22.6067 15.3009 19.004C15.3009 15.3827 16.0009 12.7787 17.4009 11.192C18.8009 9.58667 20.9289 8.784 23.7849 8.784C25.7449 8.784 27.4436 8.93333 28.8809 9.232C30.3369 9.512 31.0649 9.848 31.0649 10.24C31.0649 10.7253 30.8783 11.5747 30.5049 12.788C30.1503 14.0013 29.8236 14.608 29.5249 14.608C29.4316 14.608 29.1516 14.5613 28.6849 14.468C27.4156 14.2067 26.2583 14.076 25.2129 14.076C24.1676 14.076 23.4956 14.3373 23.1969 14.86C22.8983 15.364 22.7489 16.1107 22.7489 17.1C22.8236 17.0067 22.9449 16.8947 23.1129 16.764ZM23.7289 19.284C23.1876 19.284 22.9169 20.292 22.9169 22.308C22.9169 24.3053 23.1876 25.304 23.7289 25.304C24.3076 25.304 24.5969 24.3053 24.5969 22.308C24.5969 20.292 24.3076 19.284 23.7289 19.284Z" fill="#D41443"/>
<path d="M15.4229 42.096C15.0442 42.096 14.7029 42.0107 14.3989 41.84C14.1002 41.664 13.8629 41.4213 13.6869 41.112C13.5162 40.7973 13.4309 40.432 13.4309 40.016C13.4309 39.6 13.5162 39.2373 13.6869 38.928C13.8629 38.6133 14.1002 38.3707 14.3989 38.2C14.7029 38.024 15.0442 37.936 15.4229 37.936C15.8922 37.936 16.2869 38.0587 16.6069 38.304C16.9322 38.5493 17.1375 38.8773 17.2229 39.288H16.5349C16.4815 39.0427 16.3509 38.8533 16.1429 38.72C15.9349 38.5813 15.6922 38.512 15.4149 38.512C15.1909 38.512 14.9802 38.568 14.7829 38.68C14.5855 38.792 14.4255 38.96 14.3029 39.184C14.1802 39.408 14.1189 39.6853 14.1189 40.016C14.1189 40.3467 14.1802 40.624 14.3029 40.848C14.4255 41.072 14.5855 41.2427 14.7829 41.36C14.9802 41.472 15.1909 41.528 15.4149 41.528C15.6922 41.528 15.9349 41.4613 16.1429 41.328C16.3509 41.1893 16.4815 40.9947 16.5349 40.744H17.2229C17.1429 41.144 16.9402 41.4693 16.6149 41.72C16.2895 41.9707 15.8922 42.096 15.4229 42.096ZM19.4814 42.096C19.1507 42.096 18.876 42.04 18.6574 41.928C18.4387 41.816 18.276 41.6667 18.1694 41.48C18.0627 41.2933 18.0094 41.0907 18.0094 40.872C18.0094 40.4667 18.164 40.1547 18.4734 39.936C18.7827 39.7173 19.204 39.608 19.7374 39.608H20.8094V39.56C20.8094 39.2133 20.7187 38.952 20.5374 38.776C20.356 38.5947 20.1134 38.504 19.8094 38.504C19.548 38.504 19.3214 38.5707 19.1294 38.704C18.9427 38.832 18.8254 39.0213 18.7774 39.272H18.0894C18.116 38.984 18.212 38.7413 18.3774 38.544C18.548 38.3467 18.7587 38.1973 19.0094 38.096C19.26 37.9893 19.5267 37.936 19.8094 37.936C20.364 37.936 20.78 38.0853 21.0574 38.384C21.34 38.6773 21.4814 39.0693 21.4814 39.56V42H20.8814L20.8414 41.288C20.7294 41.512 20.564 41.704 20.3454 41.864C20.132 42.0187 19.844 42.096 19.4814 42.096ZM19.5854 41.528C19.8414 41.528 20.06 41.4613 20.2414 41.328C20.428 41.1947 20.5694 41.0213 20.6654 40.808C20.7614 40.5947 20.8094 40.3707 20.8094 40.136V40.128H19.7934C19.3987 40.128 19.1187 40.1973 18.9534 40.336C18.7934 40.4693 18.7134 40.6373 18.7134 40.84C18.7134 41.048 18.788 41.216 18.9374 41.344C19.092 41.4667 19.308 41.528 19.5854 41.528ZM22.7055 42V38.6H22.1055V38.032H22.7055V37.344C22.7055 36.96 22.8015 36.68 22.9935 36.504C23.1855 36.328 23.4655 36.24 23.8335 36.24H24.2335V36.816H23.9375C23.7348 36.816 23.5908 36.8587 23.5055 36.944C23.4202 37.024 23.3775 37.1627 23.3775 37.36V38.032H24.3535V38.6H23.3775V42H22.7055ZM26.7813 42.096C26.4026 42.096 26.0666 42.0107 25.7733 41.84C25.48 41.664 25.248 41.4213 25.0773 41.112C24.912 40.8027 24.8293 40.4373 24.8293 40.016C24.8293 39.6 24.912 39.2373 25.0773 38.928C25.2426 38.6133 25.472 38.3707 25.7653 38.2C26.064 38.024 26.408 37.936 26.7973 37.936C27.1813 37.936 27.512 38.024 27.7893 38.2C28.072 38.3707 28.288 38.5973 28.4373 38.88C28.5866 39.1627 28.6613 39.4667 28.6613 39.792C28.6613 39.8507 28.6586 39.9093 28.6533 39.968C28.6533 40.0267 28.6533 40.0933 28.6533 40.168H25.4933C25.5093 40.472 25.5786 40.7253 25.7013 40.928C25.8293 41.1253 25.9866 41.2747 26.1733 41.376C26.3653 41.4773 26.568 41.528 26.7813 41.528C27.0586 41.528 27.2906 41.464 27.4773 41.336C27.664 41.208 27.8 41.0347 27.8853 40.816H28.5493C28.4426 41.184 28.2373 41.4907 27.9333 41.736C27.6346 41.976 27.2506 42.096 26.7813 42.096ZM26.7813 38.504C26.4613 38.504 26.176 38.6027 25.9253 38.8C25.68 38.992 25.5386 39.2747 25.5013 39.648H27.9973C27.9813 39.2907 27.8586 39.0107 27.6293 38.808C27.4 38.6053 27.1173 38.504 26.7813 38.504ZM31.072 42.096C30.5973 42.096 30.2027 41.976 29.888 41.736C29.5733 41.496 29.3893 41.1707 29.336 40.76H30.024C30.0667 40.968 30.176 41.1493 30.352 41.304C30.5333 41.4533 30.776 41.528 31.08 41.528C31.3627 41.528 31.5707 41.4693 31.704 41.352C31.8373 41.2293 31.904 41.0853 31.904 40.92C31.904 40.68 31.816 40.52 31.64 40.44C31.4693 40.36 31.2267 40.288 30.912 40.224C30.6987 40.1813 30.4853 40.12 30.272 40.04C30.0587 39.96 29.88 39.848 29.736 39.704C29.592 39.5547 29.52 39.36 29.52 39.12C29.52 38.7733 29.648 38.4907 29.904 38.272C30.1653 38.048 30.5173 37.936 30.96 37.936C31.3813 37.936 31.7253 38.0427 31.992 38.256C32.264 38.464 32.4213 38.7627 32.464 39.152H31.8C31.7733 38.9493 31.6853 38.792 31.536 38.68C31.392 38.5627 31.1973 38.504 30.952 38.504C30.712 38.504 30.5253 38.5547 30.392 38.656C30.264 38.7573 30.2 38.8907 30.2 39.056C30.2 39.216 30.2827 39.3413 30.448 39.432C30.6187 39.5227 30.848 39.6 31.136 39.664C31.3813 39.7173 31.6133 39.784 31.832 39.864C32.056 39.9387 32.2373 40.0533 32.376 40.208C32.52 40.3573 32.592 40.576 32.592 40.864C32.5973 41.2213 32.4613 41.5173 32.184 41.752C31.912 41.9813 31.5413 42.096 31.072 42.096Z" fill="white"/>
</svg>
