<!-- Generated by IcoMoon.io -->
<svg version="1.1" xmlns="http://www.w3.org/2000/svg" width="58" height="32" viewBox="0 0 58 32">
<title>arrow2</title>
<path d="M35.113 0.239c-0.849 0.261-1.937 1.524-2.133 2.503-0.087 0.522 0 1.045 0.305 1.698 0.457 1.023 1.35 1.763 7.38 6.008 1.459 1.023 2.634 1.916 2.656 2.003 0 0.109-9.752 0.174-21.66 0.174h-21.66v6.313h21.573c12.19 0 21.529 0.087 21.486 0.196-0.022 0.109-1.785 1.589-3.875 3.287-4.833 3.918-5.399 4.484-5.682 5.486-0.61 2.329 1.567 4.506 3.875 3.897 0.457-0.131 1.328-0.631 1.916-1.132 0.61-0.501 4.484-3.701 8.642-7.097 6.792-5.573 7.575-6.269 7.924-7.162 0.305-0.805 0.327-1.11 0.109-1.829-0.131-0.479-0.479-1.11-0.74-1.393-0.414-0.479-14.89-10.993-17.067-12.408-0.98-0.631-2.090-0.827-3.048-0.544z"></path>
</svg>
