<!-- Generated by IcoMoon.io -->
<svg version="1.1" xmlns="http://www.w3.org/2000/svg" width="30" height="32" viewBox="0 0 30 32">
<title>heart</title>
<path d="M6.92 0.029c-0.172 0.008-0.323 0.034-0.336 0.050s-0.197 0.067-0.407 0.109c-0.214 0.038-0.39 0.088-0.39 0.105s-0.071 0.046-0.155 0.063c-0.201 0.038-0.533 0.147-0.558 0.189-0.013 0.017-0.117 0.063-0.239 0.101-0.117 0.042-0.222 0.084-0.231 0.101-0.017 0.038-0.386 0.218-0.449 0.218-0.025 0-0.046 0.021-0.046 0.042 0 0.025-0.067 0.075-0.147 0.113s-0.147 0.084-0.147 0.101c0 0.017-0.075 0.067-0.168 0.117-0.088 0.046-0.201 0.117-0.243 0.159s-0.147 0.13-0.226 0.193c-0.319 0.247-1.179 1.132-1.325 1.371-0.038 0.059-0.092 0.122-0.122 0.138s-0.055 0.059-0.055 0.092c0 0.034-0.025 0.075-0.059 0.092-0.029 0.017-0.088 0.096-0.126 0.168-0.038 0.075-0.084 0.138-0.101 0.138-0.021 0-0.067 0.092-0.109 0.21-0.042 0.113-0.092 0.21-0.117 0.21-0.021 0-0.059 0.055-0.080 0.126-0.025 0.067-0.059 0.126-0.080 0.126-0.017 0-0.055 0.088-0.084 0.193s-0.076 0.214-0.105 0.239c-0.025 0.029-0.080 0.159-0.122 0.289-0.042 0.134-0.088 0.243-0.109 0.243-0.017 0-0.055 0.117-0.084 0.26-0.029 0.147-0.071 0.277-0.092 0.289-0.017 0.013-0.067 0.18-0.105 0.377-0.038 0.193-0.084 0.361-0.101 0.373-0.071 0.050-0.138 1.057-0.138 2.076 0 1.011 0.071 2.068 0.138 2.118 0.013 0.013 0.059 0.218 0.101 0.461 0.038 0.239 0.088 0.445 0.109 0.461 0.021 0.013 0.063 0.138 0.088 0.281 0.029 0.147 0.067 0.264 0.080 0.264 0.017 0 0.055 0.113 0.084 0.256 0.034 0.138 0.084 0.277 0.113 0.31 0.034 0.029 0.059 0.075 0.059 0.096 0 0.088 0.147 0.495 0.197 0.545 0.029 0.029 0.055 0.092 0.055 0.134s0.025 0.105 0.059 0.138c0.034 0.034 0.080 0.134 0.105 0.231 0.029 0.096 0.071 0.197 0.101 0.226 0.034 0.029 0.092 0.143 0.134 0.256 0.042 0.109 0.088 0.197 0.105 0.197s0.055 0.075 0.084 0.168 0.071 0.168 0.092 0.168c0.021 0 0.067 0.071 0.105 0.155 0.034 0.088 0.088 0.176 0.122 0.193s0.059 0.063 0.059 0.092c0 0.034 0.034 0.096 0.075 0.138 0.038 0.038 0.109 0.151 0.151 0.252 0.042 0.096 0.096 0.176 0.117 0.176s0.055 0.046 0.075 0.105 0.055 0.105 0.071 0.105c0.021 0 0.071 0.067 0.113 0.147 0.046 0.080 0.096 0.147 0.117 0.147s0.055 0.046 0.075 0.105 0.071 0.117 0.105 0.13c0.034 0.017 0.063 0.050 0.063 0.084 0 0.029 0.046 0.088 0.105 0.126s0.105 0.088 0.105 0.113c0 0.025 0.038 0.084 0.080 0.134 0.046 0.046 0.168 0.176 0.273 0.285 0.105 0.113 0.193 0.214 0.193 0.226 0 0.017 0.231 0.252 0.512 0.524 0.285 0.273 0.667 0.646 0.856 0.826s0.394 0.365 0.461 0.407c0.063 0.046 0.185 0.151 0.268 0.235 0.080 0.088 0.168 0.159 0.197 0.159 0.025 0 0.084 0.046 0.126 0.096 0.042 0.055 0.117 0.122 0.168 0.147 0.050 0.029 0.117 0.076 0.147 0.101 0.096 0.092 0.323 0.243 0.356 0.243 0.021 0 0.059 0.038 0.088 0.084s0.080 0.084 0.113 0.084c0.034 0 0.075 0.025 0.092 0.050 0.038 0.063 0.155 0.138 0.298 0.201 0.050 0.021 0.092 0.055 0.092 0.076s0.075 0.071 0.168 0.113c0.092 0.042 0.168 0.088 0.168 0.101 0 0.017 0.096 0.071 0.21 0.126 0.117 0.055 0.21 0.113 0.21 0.13s0.084 0.063 0.189 0.109c0.105 0.042 0.189 0.088 0.189 0.101s0.101 0.067 0.222 0.126c0.117 0.055 0.226 0.113 0.239 0.126s0.101 0.059 0.197 0.105c0.101 0.046 0.18 0.096 0.18 0.113 0 0.013 0.096 0.059 0.21 0.096 0.117 0.038 0.21 0.084 0.21 0.101s0.122 0.076 0.273 0.13 0.273 0.113 0.273 0.126 0.084 0.050 0.193 0.080c0.105 0.029 0.21 0.080 0.239 0.105 0.063 0.059 0.478 0.235 0.558 0.235 0.034 0 0.059 0.017 0.059 0.034s0.092 0.067 0.21 0.109 0.21 0.092 0.21 0.109 0.038 0.042 0.084 0.055c0.084 0.021 0.084 0.059 0.084 4.366v4.345h2.139v-7.989h0.839v7.989h2.139v-4.362c0-4.332 0-4.362 0.084-4.362 0.046 0 0.084-0.017 0.084-0.034s0.092-0.067 0.21-0.109c0.113-0.042 0.21-0.088 0.21-0.105 0-0.013 0.113-0.063 0.256-0.105 0.138-0.042 0.277-0.101 0.302-0.13 0.029-0.025 0.159-0.084 0.294-0.126 0.13-0.042 0.239-0.088 0.239-0.105s0.117-0.076 0.264-0.13c0.143-0.050 0.268-0.109 0.281-0.126s0.105-0.063 0.21-0.105 0.21-0.096 0.231-0.122c0.025-0.029 0.109-0.076 0.189-0.109 0.080-0.029 0.18-0.088 0.222-0.126s0.147-0.092 0.239-0.122c0.092-0.029 0.168-0.071 0.168-0.088 0-0.021 0.071-0.067 0.155-0.101 0.088-0.038 0.168-0.084 0.18-0.101 0.013-0.021 0.109-0.076 0.222-0.126 0.109-0.050 0.197-0.105 0.197-0.122 0-0.021 0.067-0.067 0.147-0.105s0.147-0.084 0.147-0.105 0.067-0.063 0.151-0.092c0.084-0.034 0.172-0.092 0.201-0.126 0.025-0.038 0.113-0.101 0.197-0.138s0.164-0.101 0.18-0.134c0.013-0.034 0.046-0.063 0.076-0.063s0.13-0.067 0.222-0.147c0.092-0.080 0.18-0.147 0.193-0.147 0.017 0 0.101-0.067 0.189-0.147 0.092-0.080 0.176-0.147 0.193-0.147s0.113-0.084 0.218-0.189c0.109-0.105 0.21-0.189 0.226-0.189 0.021 0 0.243-0.201 0.499-0.453 0.256-0.247 0.646-0.625 0.868-0.835 0.222-0.214 0.403-0.403 0.403-0.424 0-0.017 0.050-0.080 0.117-0.138 0.063-0.059 0.189-0.197 0.281-0.31 0.092-0.109 0.206-0.239 0.252-0.289s0.117-0.143 0.159-0.21c0.088-0.13 0.185-0.256 0.294-0.369 0.038-0.042 0.071-0.092 0.071-0.113 0-0.025 0.034-0.067 0.076-0.096 0.038-0.029 0.109-0.13 0.155-0.222s0.096-0.172 0.113-0.18c0.017-0.008 0.063-0.080 0.101-0.159s0.084-0.143 0.105-0.143 0.038-0.025 0.038-0.055c0-0.029 0.034-0.092 0.076-0.138 0.038-0.042 0.109-0.155 0.155-0.247s0.096-0.176 0.113-0.189c0.013-0.013 0.059-0.105 0.101-0.21s0.101-0.214 0.13-0.243c0.029-0.029 0.055-0.080 0.055-0.109s0.038-0.096 0.080-0.147c0.042-0.050 0.105-0.176 0.134-0.277 0.029-0.105 0.067-0.189 0.084-0.189 0.013 0 0.059-0.105 0.101-0.231 0.038-0.126 0.084-0.231 0.101-0.231s0.059-0.105 0.088-0.231c0.029-0.126 0.067-0.231 0.084-0.231s0.063-0.147 0.109-0.327c0.042-0.176 0.088-0.331 0.105-0.344 0.034-0.029 0.164-0.612 0.164-0.738 0-0.055 0.017-0.101 0.038-0.101s0.059-0.185 0.088-0.411c0.029-0.222 0.067-0.415 0.088-0.428 0.017-0.013 0.055-0.424 0.084-0.91 0.038-0.688 0.038-1.061 0-1.657-0.029-0.419-0.063-0.776-0.084-0.788-0.017-0.013-0.059-0.197-0.088-0.411-0.029-0.21-0.067-0.386-0.080-0.386-0.017 0-0.063-0.18-0.109-0.398-0.042-0.218-0.088-0.398-0.105-0.398-0.013 0-0.059-0.122-0.105-0.273-0.042-0.151-0.088-0.273-0.105-0.273s-0.055-0.084-0.084-0.189-0.067-0.189-0.084-0.189c-0.021 0-0.067-0.096-0.109-0.21-0.042-0.117-0.088-0.21-0.105-0.21-0.013 0-0.059-0.084-0.096-0.189-0.042-0.105-0.088-0.189-0.109-0.189-0.017 0-0.055-0.059-0.088-0.13-0.029-0.075-0.096-0.18-0.151-0.239s-0.096-0.126-0.096-0.151c0-0.025-0.038-0.071-0.084-0.101s-0.084-0.080-0.084-0.113c0-0.034-0.038-0.080-0.084-0.105s-0.084-0.071-0.084-0.101c0-0.034-0.046-0.088-0.105-0.126s-0.105-0.088-0.105-0.113c0-0.025-0.117-0.155-0.26-0.294-0.147-0.138-0.34-0.327-0.436-0.415-0.092-0.092-0.18-0.168-0.197-0.168-0.013 0-0.071-0.042-0.126-0.096-0.159-0.147-0.289-0.243-0.436-0.315-0.076-0.038-0.138-0.080-0.138-0.096 0-0.021-0.071-0.067-0.155-0.109-0.088-0.038-0.176-0.092-0.201-0.122-0.021-0.025-0.13-0.080-0.239-0.122-0.113-0.042-0.201-0.088-0.201-0.101 0-0.017-0.092-0.063-0.21-0.105-0.113-0.042-0.21-0.092-0.21-0.113s-0.021-0.038-0.050-0.038c-0.076 0-0.637-0.18-0.663-0.21-0.029-0.038-0.65-0.168-0.797-0.168-0.071 0-0.126-0.021-0.126-0.042 0-0.025-0.491-0.042-1.384-0.042s-1.384 0.017-1.384 0.042c0 0.021-0.071 0.042-0.155 0.042-0.201 0-0.906 0.126-0.935 0.168-0.013 0.017-0.206 0.071-0.428 0.126-0.226 0.050-0.411 0.105-0.411 0.126 0 0.017-0.13 0.067-0.294 0.109-0.159 0.042-0.294 0.088-0.294 0.105s-0.126 0.071-0.281 0.126c-0.159 0.050-0.294 0.105-0.306 0.126-0.013 0.017-0.105 0.063-0.21 0.105s-0.197 0.088-0.21 0.105c-0.013 0.013-0.113 0.071-0.231 0.122-0.113 0.050-0.218 0.109-0.231 0.122-0.013 0.017-0.092 0.063-0.176 0.101-0.088 0.042-0.159 0.088-0.159 0.109 0 0.017-0.067 0.063-0.147 0.101s-0.147 0.088-0.147 0.109-0.055 0.059-0.117 0.084c-0.067 0.029-0.193 0.117-0.285 0.197-0.13 0.117-0.189 0.143-0.289 0.122-0.067-0.013-0.155-0.055-0.189-0.096-0.075-0.084-0.189-0.159-0.323-0.218-0.055-0.021-0.096-0.059-0.096-0.080 0-0.025-0.071-0.075-0.155-0.117-0.088-0.038-0.189-0.105-0.231-0.147s-0.105-0.075-0.138-0.075c-0.029 0-0.075-0.025-0.092-0.055-0.029-0.050-0.394-0.239-0.453-0.239-0.013 0-0.063-0.038-0.113-0.084-0.046-0.042-0.143-0.092-0.206-0.105-0.067-0.017-0.122-0.042-0.122-0.063 0-0.017-0.13-0.076-0.294-0.13-0.159-0.050-0.294-0.109-0.294-0.126s-0.126-0.063-0.281-0.105c-0.159-0.042-0.294-0.088-0.31-0.109-0.013-0.017-0.21-0.076-0.44-0.126-0.226-0.050-0.424-0.105-0.436-0.117-0.025-0.034-0.969-0.168-1.162-0.168-0.071 0-0.138-0.021-0.147-0.042-0.013-0.046-1.707-0.088-2.256-0.055zM8.845 2.059c0.268 0.025 0.495 0.063 0.507 0.080s0.117 0.042 0.231 0.059c0.361 0.050 0.692 0.126 0.692 0.155 0 0.017 0.071 0.042 0.159 0.055 0.235 0.046 0.612 0.164 0.663 0.214 0.025 0.025 0.126 0.071 0.222 0.105 0.092 0.029 0.172 0.067 0.172 0.084s0.075 0.055 0.168 0.084 0.201 0.088 0.247 0.13c0.046 0.042 0.126 0.088 0.185 0.101 0.059 0.017 0.143 0.063 0.189 0.109 0.050 0.042 0.164 0.117 0.256 0.168 0.096 0.050 0.172 0.101 0.172 0.117 0 0.013 0.063 0.050 0.138 0.084 0.071 0.029 0.155 0.080 0.176 0.105 0.050 0.055 0.302 0.235 0.331 0.235 0.013 0 0.113 0.092 0.226 0.205s0.243 0.218 0.294 0.231c0.050 0.017 0.092 0.046 0.092 0.067s0.063 0.071 0.138 0.109c0.071 0.038 0.147 0.092 0.164 0.117 0.038 0.059 0.738 0.063 0.78 0.004 0.017-0.025 0.109-0.080 0.21-0.122 0.096-0.046 0.176-0.096 0.176-0.113 0-0.021 0.055-0.063 0.117-0.096s0.193-0.134 0.285-0.222c0.197-0.185 0.415-0.348 0.474-0.348 0.021 0 0.046-0.029 0.063-0.063 0.013-0.034 0.071-0.084 0.13-0.105s0.105-0.059 0.105-0.084c0-0.021 0.088-0.080 0.201-0.13 0.109-0.050 0.206-0.105 0.218-0.126 0.013-0.017 0.096-0.067 0.189-0.105s0.185-0.092 0.21-0.122c0.021-0.029 0.143-0.088 0.264-0.13 0.117-0.042 0.218-0.088 0.218-0.101 0-0.017 0.113-0.063 0.252-0.105s0.252-0.088 0.252-0.105c0-0.017 0.172-0.075 0.377-0.13 0.206-0.050 0.377-0.109 0.377-0.126 0-0.013 0.176-0.063 0.39-0.101 0.21-0.042 0.394-0.088 0.407-0.105 0.046-0.059 0.814-0.126 1.418-0.126s1.262 0.059 1.309 0.117c0.013 0.017 0.151 0.063 0.315 0.105 0.159 0.042 0.302 0.088 0.315 0.109 0.013 0.017 0.126 0.063 0.252 0.105s0.252 0.096 0.273 0.122c0.025 0.029 0.117 0.088 0.21 0.134s0.176 0.092 0.189 0.105c0.038 0.038 0.185 0.126 0.285 0.168 0.050 0.021 0.092 0.059 0.092 0.084s0.034 0.055 0.076 0.071c0.038 0.017 0.143 0.096 0.231 0.176 0.369 0.348 0.726 0.713 0.805 0.818 0.046 0.063 0.117 0.151 0.159 0.197 0.038 0.042 0.071 0.092 0.071 0.109 0 0.021 0.046 0.088 0.105 0.155 0.055 0.063 0.126 0.172 0.155 0.239s0.067 0.122 0.080 0.122c0.013 0 0.059 0.084 0.096 0.189 0.042 0.105 0.088 0.189 0.109 0.189 0.017 0 0.067 0.113 0.109 0.252s0.088 0.252 0.105 0.252c0.017 0 0.055 0.101 0.080 0.218 0.029 0.122 0.067 0.231 0.084 0.243 0.038 0.025 0.168 0.637 0.168 0.797 0 0.067 0.017 0.126 0.038 0.134 0.096 0.034 0.172 1.556 0.084 1.724-0.059 0.109-0.206 0.235-0.277 0.239-0.025 0-0.076 0.025-0.105 0.055-0.029 0.034-0.168 0.092-0.306 0.134s-0.264 0.096-0.277 0.113c-0.013 0.021-0.164 0.075-0.336 0.122-0.172 0.050-0.319 0.105-0.331 0.122s-0.147 0.063-0.302 0.105c-0.159 0.042-0.285 0.092-0.285 0.109 0 0.021-0.034 0.038-0.071 0.038-0.113 0-0.658 0.134-0.684 0.172-0.013 0.017-0.302 0.071-0.65 0.126-0.344 0.050-0.637 0.109-0.65 0.122-0.021 0.029-1.233 0.168-1.455 0.168-0.076 0-0.138 0.017-0.138 0.038 0 0.017-0.159 0.046-0.357 0.063-0.604 0.050-1.153 0.147-1.22 0.214-0.038 0.034-0.088 0.063-0.117 0.063-0.076 0-0.277 0.101-0.277 0.138 0 0.017-0.042 0.050-0.092 0.071-0.147 0.063-0.243 0.134-0.398 0.294-0.239 0.252-0.264 0.277-0.264 0.319 0 0.025-0.034 0.080-0.076 0.126-0.084 0.088-0.218 0.537-0.218 0.726 0 0.067-0.021 0.13-0.050 0.138-0.034 0.013-0.055 0.545-0.076 2.001-0.017 1.090-0.046 1.996-0.067 2.009-0.021 0.017-0.059 0.067-0.084 0.109-0.101 0.189-0.528 0.147-0.633-0.059-0.029-0.059-0.055-0.243-0.055-0.411 0-0.164-0.017-0.302-0.038-0.302s-0.046-0.906-0.059-2.131c-0.017-2.026-0.050-2.621-0.155-2.693-0.017-0.013-0.055-0.092-0.080-0.18-0.029-0.084-0.071-0.155-0.092-0.155s-0.038-0.025-0.038-0.059c0-0.109-0.432-0.516-0.65-0.612-0.113-0.050-0.218-0.109-0.231-0.122-0.013-0.017-0.096-0.063-0.189-0.105-0.092-0.046-0.176-0.092-0.189-0.109-0.013-0.013-0.105-0.059-0.21-0.101s-0.197-0.088-0.21-0.105c-0.013-0.017-0.134-0.075-0.273-0.13s-0.26-0.113-0.273-0.126c-0.013-0.017-0.109-0.063-0.218-0.105-0.113-0.042-0.201-0.088-0.201-0.101 0-0.017-0.122-0.075-0.273-0.13s-0.273-0.113-0.273-0.13c0-0.013-0.084-0.059-0.189-0.105-0.105-0.042-0.189-0.088-0.189-0.101 0-0.017-0.105-0.071-0.231-0.122-0.126-0.055-0.231-0.109-0.231-0.126s-0.084-0.063-0.189-0.105c-0.105-0.046-0.189-0.096-0.189-0.113 0-0.021-0.084-0.075-0.189-0.122s-0.189-0.101-0.189-0.122-0.034-0.046-0.071-0.063c-0.113-0.034-0.235-0.122-0.298-0.205-0.029-0.038-0.080-0.071-0.113-0.071s-0.084-0.034-0.113-0.075c-0.063-0.080-0.185-0.168-0.294-0.201-0.042-0.017-0.075-0.042-0.075-0.063s-0.042-0.059-0.092-0.080c-0.143-0.063-0.26-0.138-0.298-0.201-0.017-0.025-0.059-0.050-0.092-0.050s-0.084-0.034-0.113-0.075c-0.029-0.038-0.143-0.117-0.252-0.172-0.113-0.055-0.201-0.113-0.201-0.13s-0.075-0.063-0.168-0.109c-0.092-0.042-0.168-0.092-0.168-0.109s-0.084-0.071-0.189-0.117c-0.105-0.046-0.189-0.101-0.189-0.117 0-0.021-0.080-0.071-0.176-0.113-0.101-0.042-0.197-0.101-0.222-0.126-0.021-0.029-0.109-0.075-0.189-0.105s-0.164-0.075-0.189-0.105c-0.021-0.025-0.13-0.084-0.239-0.126-0.113-0.042-0.201-0.088-0.201-0.101 0-0.017-0.092-0.063-0.21-0.105-0.113-0.042-0.21-0.088-0.21-0.105 0-0.013-0.151-0.071-0.336-0.126-0.185-0.059-0.336-0.117-0.336-0.134s-0.143-0.063-0.315-0.105-0.315-0.088-0.315-0.105-0.231-0.071-0.512-0.126c-0.285-0.055-0.524-0.109-0.537-0.126-0.013-0.013-0.281-0.063-0.596-0.105-0.319-0.042-0.579-0.088-0.579-0.105s-0.151-0.042-0.336-0.059c-0.327-0.029-0.449-0.080-0.319-0.13 0.038-0.013 0.067-0.050 0.067-0.075 0-0.029 0.042-0.092 0.096-0.138 0.050-0.050 0.205-0.214 0.34-0.365 0.138-0.151 0.268-0.277 0.294-0.277s0.109-0.067 0.189-0.147 0.164-0.147 0.193-0.147 0.063-0.029 0.080-0.063c0.013-0.034 0.096-0.096 0.193-0.134 0.092-0.042 0.168-0.088 0.168-0.109 0-0.017 0.067-0.063 0.147-0.096s0.147-0.075 0.147-0.096c0-0.021 0.134-0.080 0.294-0.13 0.164-0.050 0.294-0.109 0.294-0.126s0.155-0.063 0.348-0.105c0.189-0.042 0.352-0.092 0.365-0.113 0.071-0.101 1.342-0.143 2.093-0.071zM3.682 6.421c0.327 0.029 0.596 0.067 0.596 0.084 0 0.021 0.042 0.038 0.096 0.038 0.143-0.004 0.969 0.138 0.994 0.172 0.013 0.013 0.193 0.071 0.398 0.122 0.21 0.055 0.386 0.113 0.398 0.126 0.013 0.017 0.138 0.063 0.285 0.105 0.143 0.042 0.26 0.092 0.26 0.109 0 0.013 0.113 0.071 0.252 0.122s0.252 0.109 0.252 0.126c0 0.017 0.080 0.055 0.172 0.084 0.096 0.034 0.197 0.080 0.222 0.105 0.055 0.055 0.424 0.231 0.482 0.231 0.021 0 0.046 0.029 0.063 0.063 0.013 0.034 0.046 0.063 0.080 0.063 0.029 0 0.092 0.038 0.143 0.080 0.046 0.046 0.164 0.122 0.26 0.168 0.092 0.050 0.172 0.105 0.172 0.126s0.034 0.050 0.075 0.063c0.138 0.055 0.26 0.13 0.26 0.164 0 0.017 0.042 0.050 0.096 0.071 0.143 0.063 0.252 0.138 0.315 0.218 0.029 0.042 0.080 0.075 0.113 0.075s0.075 0.025 0.092 0.050c0.038 0.059 0.155 0.138 0.289 0.197 0.050 0.021 0.101 0.071 0.113 0.105 0.017 0.038 0.050 0.067 0.080 0.067s0.122 0.059 0.201 0.126 0.168 0.126 0.197 0.126 0.075 0.034 0.105 0.075 0.126 0.109 0.214 0.147c0.084 0.042 0.155 0.088 0.155 0.105s0.075 0.067 0.168 0.109c0.092 0.046 0.168 0.092 0.168 0.109s0.096 0.071 0.21 0.122c0.117 0.050 0.21 0.105 0.21 0.126 0 0.017 0.084 0.067 0.189 0.113 0.105 0.042 0.189 0.088 0.189 0.101 0 0.017 0.105 0.071 0.231 0.122 0.126 0.055 0.231 0.109 0.231 0.126s0.096 0.063 0.21 0.105c0.117 0.042 0.21 0.088 0.21 0.105s0.105 0.063 0.235 0.109c0.13 0.046 0.26 0.101 0.285 0.126 0.025 0.021 0.151 0.075 0.277 0.122 0.126 0.042 0.239 0.092 0.252 0.105 0.013 0.017 0.143 0.075 0.294 0.13s0.281 0.113 0.294 0.126c0.013 0.017 0.080 0.055 0.147 0.088 0.113 0.055 0.13 0.084 0.151 0.31 0.017 0.138 0.029 1.057 0.034 2.042 0.004 1.166 0.021 1.795 0.046 1.795s0.042 0.155 0.042 0.377c0 0.415 0.075 1.007 0.13 1.007 0.017 0 0.063 0.101 0.096 0.226 0.038 0.126 0.096 0.235 0.13 0.252 0.034 0.013 0.063 0.050 0.063 0.084 0 0.055 0.382 0.457 0.616 0.654 0.105 0.088 0.365 0.21 0.449 0.21 0.038 0 0.067 0.017 0.067 0.038 0 0.063 0.382 0.134 0.839 0.159 0.432 0.025 1.116-0.067 1.174-0.151 0.013-0.021 0.092-0.059 0.18-0.092 0.092-0.029 0.18-0.092 0.201-0.13 0.021-0.042 0.067-0.076 0.096-0.076 0.059 0 0.57-0.495 0.57-0.554 0-0.021 0.050-0.088 0.117-0.151 0.122-0.122 0.26-0.528 0.26-0.78 0-0.080 0.021-0.151 0.046-0.159 0.038-0.013 0.055-0.503 0.067-1.774 0.017-1.975 0.046-2.29 0.206-2.365 0.059-0.025 0.143-0.046 0.185-0.046 0.046 0 0.084-0.017 0.084-0.038 0-0.017 0.193-0.046 0.432-0.063 0.688-0.046 1.682-0.155 1.707-0.189 0.013-0.017 0.268-0.063 0.566-0.105 0.302-0.042 0.554-0.092 0.566-0.109s0.247-0.071 0.524-0.126 0.512-0.109 0.524-0.126c0.013-0.013 0.172-0.059 0.357-0.101s0.344-0.092 0.357-0.105c0.013-0.017 0.185-0.075 0.39-0.13 0.201-0.050 0.365-0.109 0.365-0.13 0-0.038 0.247-0.096 0.277-0.067s-0.076 0.365-0.113 0.365c-0.017 0-0.055 0.105-0.084 0.235s-0.076 0.256-0.101 0.285c-0.025 0.025-0.080 0.155-0.126 0.285-0.042 0.134-0.092 0.243-0.109 0.243-0.013 0-0.059 0.105-0.101 0.231-0.038 0.126-0.084 0.231-0.101 0.231s-0.059 0.075-0.088 0.168c-0.029 0.092-0.071 0.168-0.088 0.168s-0.063 0.092-0.105 0.21c-0.042 0.113-0.088 0.21-0.101 0.21-0.017 0-0.063 0.075-0.105 0.168s-0.092 0.168-0.113 0.168c-0.017 0-0.034 0.025-0.034 0.055s-0.034 0.092-0.071 0.138c-0.042 0.042-0.113 0.151-0.159 0.235-0.046 0.088-0.096 0.159-0.109 0.159-0.017 0-0.059 0.067-0.096 0.147s-0.088 0.147-0.105 0.147c-0.017 0-0.055 0.050-0.084 0.113s-0.088 0.138-0.134 0.172c-0.042 0.029-0.080 0.075-0.080 0.101s-0.042 0.088-0.092 0.143c-0.055 0.055-0.143 0.155-0.201 0.226-0.289 0.352-1.124 1.212-1.367 1.405-0.084 0.067-0.214 0.18-0.289 0.252-0.071 0.067-0.206 0.18-0.294 0.252-0.092 0.067-0.214 0.176-0.268 0.239-0.059 0.067-0.13 0.117-0.159 0.117-0.025 0-0.067 0.025-0.084 0.059s-0.105 0.101-0.189 0.151c-0.088 0.050-0.159 0.105-0.159 0.122 0 0.013-0.071 0.063-0.155 0.109-0.088 0.046-0.185 0.117-0.214 0.155-0.029 0.042-0.080 0.076-0.105 0.076-0.029 0-0.101 0.046-0.168 0.101-0.063 0.055-0.172 0.122-0.239 0.151-0.071 0.029-0.126 0.067-0.126 0.088s-0.084 0.076-0.189 0.122c-0.105 0.046-0.189 0.101-0.189 0.122s-0.084 0.071-0.189 0.117c-0.105 0.042-0.189 0.088-0.189 0.105 0 0.013-0.088 0.067-0.197 0.122-0.113 0.050-0.21 0.105-0.222 0.117-0.013 0.017-0.101 0.063-0.197 0.109-0.101 0.046-0.18 0.096-0.18 0.113 0 0.013-0.092 0.059-0.21 0.096-0.113 0.038-0.222 0.092-0.239 0.122-0.021 0.029-0.126 0.088-0.243 0.13-0.113 0.046-0.218 0.092-0.231 0.105-0.013 0.017-0.143 0.071-0.294 0.126s-0.281 0.113-0.294 0.13c-0.013 0.017-0.117 0.063-0.231 0.105-0.117 0.038-0.218 0.084-0.231 0.096-0.013 0.017-0.159 0.076-0.323 0.126-0.168 0.055-0.306 0.113-0.306 0.134s-0.025 0.038-0.059 0.038c-0.076 0-0.503 0.134-0.528 0.168-0.013 0.017-0.189 0.071-0.398 0.122-0.206 0.050-0.39 0.117-0.407 0.143-0.038 0.063-0.491 0.063-0.528 0.004-0.017-0.025-0.206-0.088-0.415-0.147-0.214-0.055-0.39-0.113-0.39-0.126 0-0.017-0.126-0.063-0.281-0.105-0.159-0.042-0.294-0.088-0.306-0.105s-0.159-0.071-0.323-0.122c-0.168-0.050-0.306-0.105-0.306-0.122s-0.113-0.063-0.252-0.105-0.252-0.092-0.252-0.109c0-0.017-0.13-0.076-0.294-0.126-0.159-0.050-0.294-0.109-0.294-0.126s-0.088-0.063-0.197-0.105c-0.113-0.042-0.21-0.088-0.222-0.101-0.013-0.017-0.122-0.076-0.239-0.13-0.122-0.059-0.222-0.117-0.222-0.134 0-0.013-0.055-0.038-0.122-0.055-0.063-0.013-0.155-0.059-0.197-0.096-0.046-0.038-0.18-0.117-0.298-0.172-0.122-0.059-0.222-0.117-0.222-0.134s-0.055-0.046-0.117-0.071c-0.067-0.021-0.147-0.067-0.18-0.105-0.034-0.034-0.143-0.101-0.239-0.151s-0.176-0.105-0.176-0.122c0-0.017-0.075-0.063-0.168-0.105-0.092-0.038-0.168-0.088-0.168-0.113 0-0.021-0.084-0.076-0.185-0.122s-0.193-0.113-0.21-0.151c-0.013-0.034-0.050-0.063-0.084-0.063-0.038 0-0.096-0.046-0.134-0.105s-0.092-0.105-0.117-0.105c-0.055 0-0.268-0.168-0.449-0.348-0.063-0.063-0.13-0.113-0.151-0.113-0.025 0-0.147-0.105-0.277-0.231s-0.247-0.231-0.264-0.231c-0.017 0-0.096-0.067-0.18-0.147-0.742-0.713-0.885-0.856-0.885-0.889 0-0.017-0.092-0.117-0.21-0.218-0.113-0.101-0.21-0.206-0.21-0.235 0-0.025-0.059-0.088-0.126-0.138-0.071-0.055-0.126-0.109-0.126-0.13 0-0.017-0.084-0.126-0.189-0.239-0.105-0.109-0.189-0.222-0.189-0.252 0-0.025-0.029-0.059-0.063-0.075-0.034-0.013-0.084-0.071-0.105-0.13s-0.059-0.105-0.080-0.105-0.059-0.059-0.088-0.126c-0.029-0.071-0.067-0.126-0.088-0.126-0.017 0-0.067-0.067-0.105-0.147s-0.080-0.147-0.096-0.147c-0.017 0-0.063-0.084-0.105-0.189-0.046-0.105-0.096-0.189-0.117-0.189s-0.059-0.059-0.080-0.126c-0.025-0.071-0.059-0.126-0.075-0.126s-0.063-0.096-0.105-0.21c-0.042-0.117-0.092-0.21-0.109-0.21s-0.067-0.096-0.109-0.21c-0.042-0.117-0.088-0.21-0.109-0.21-0.017 0-0.050-0.075-0.075-0.168s-0.063-0.168-0.084-0.168c-0.025 0-0.042-0.021-0.042-0.050 0-0.092-0.143-0.537-0.176-0.537-0.013 0-0.059-0.147-0.101-0.327-0.038-0.176-0.084-0.331-0.096-0.344-0.038-0.025-0.13-0.436-0.13-0.566 0-0.055-0.017-0.105-0.038-0.113-0.038-0.013-0.172-0.86-0.172-1.099 0-0.084-0.017-0.151-0.042-0.151s-0.042-0.285-0.042-0.776 0.017-0.776 0.042-0.776 0.042-0.113 0.042-0.252c0-0.331 0.122-1.191 0.172-1.208 0.021-0.008 0.038-0.050 0.038-0.092 0-0.134 0.034-0.134 1.25-0.038z"></path>
</svg>
