<svg width="40" height="47" viewBox="0 0 40 47" fill="none" xmlns="http://www.w3.org/2000/svg">
<path d="M-0.153905 46.6381C5.00753 46.6381 34.8677 46.6381 40.0231 46.6381C40.2221 42.0563 39.8939 34.4544 37.0769 30.8363L36.9751 30.7063L30.8193 27.6156C30.9529 27.1647 31.0188 26.7517 31.0451 26.4481C31.0756 26.0838 31.0253 25.7414 30.8952 25.4314C29.8797 23.0013 27.7307 21.7228 26.5487 21.1777C26.9089 20.452 27.1412 19.6729 27.2533 18.8768C27.9224 18.6883 28.4607 18.158 28.6371 17.4506L29.3556 14.5316C29.4829 14.0166 29.403 13.4826 29.1293 13.0284C29.0116 12.8326 28.8593 12.6677 28.6885 12.5268C30.7143 7.92517 27.3213 3.5863 27.1364 3.35791C23.4618 -0.615096 18.8197 0.127805 18.5743 0.171834C11.8751 1.57462 9.28987 6.70877 10.7494 12.7302C10.317 13.2092 10.1355 13.8765 10.2958 14.5309L11.0178 17.4531C11.1929 18.1553 11.7268 18.6837 12.3912 18.8744C12.5962 20.3323 13.2133 21.6509 14.1196 22.7136V25.0277C4.50622 29.9507 10.5975 26.8099 2.89344 30.7074C2.87821 30.7801 -0.72148 34.6058 -0.186435 45.9453L-0.153905 46.6381ZM38.6271 45.1836H32.0147V42.4059L36.3881 32.3941C38.579 36.0305 38.6603 42.9737 38.6271 45.1836ZM29.6025 26.3245C29.3473 29.2558 27.7398 28.3698 26.7475 30.6282C25.967 29.7699 25.7323 28.7408 25.942 27.6392C26.3209 25.6164 25.0863 25.0157 25.3915 22.8903L25.4377 22.8416V22.8348C25.464 22.8055 25.7074 22.5156 25.7779 22.424C28.394 23.5644 29.6535 25.6854 29.6025 26.3245ZM15.568 24.0206C16.7825 24.8629 18.2485 25.3608 19.8253 25.3608C21.3104 25.3608 22.7208 24.9287 23.9301 24.133C24.0977 25.8038 24.7508 26.1383 24.5191 27.3679C24.4756 27.5961 24.4521 27.821 24.4381 28.0422L19.935 33.1175L14.1784 26.6276L15.568 25.902V24.0206H15.568ZM13.7575 17.8093V14.9953C13.7575 13.9591 13.7575 9.8481 13.7575 10.0511C14.4584 8.75493 15.4138 7.81495 16.6012 7.25138C19.7813 9.05072 23.4418 11.736 25.8967 14.4386C25.8944 17.8803 25.9064 17.8896 25.8835 18.1724L25.882 18.1904C25.6904 21.3156 23.1206 23.9062 19.8253 23.9062C16.6217 23.9062 13.9619 21.3909 13.7695 18.1594C13.7596 18.0436 13.7575 17.9275 13.7575 17.8093ZM12.8608 27.3295L19.935 35.3043L24.6843 29.9515C24.7929 30.2641 24.9451 30.5593 25.1193 30.8446L19.935 37.3277L12.2041 27.6591L12.8608 27.3295ZM27.3451 16.6388V14.392C27.4087 14.319 27.9486 13.6999 27.885 13.7729C27.9148 14.9105 28.0376 13.5678 27.3451 16.6388ZM18.8423 1.60117C19.1297 1.61906 22.99 1.01398 26.041 4.30785C26.1611 4.4586 28.6447 7.65848 27.6469 11.159C27.3054 9.60135 26.7101 7.60526 25.7694 6.65266L24.7411 7.67681C25.67 8.61759 26.2801 11.4825 26.5125 12.9677C22.2518 8.5094 16.7558 5.68763 16.6804 5.63988C16.4048 5.81131 14.079 6.25349 12.3898 9.53654L12.3092 9.6935V12.1047C12.2366 12.1055 12.0237 12.1078 12.0963 12.107C11.023 6.92547 13.0783 2.80932 18.8423 1.60117ZM11.9436 13.6033L12.3092 15.0841V16.6406L11.7017 14.1818C11.6125 13.8153 11.884 13.6763 11.9436 13.6033ZM10.8787 28.3245L19.935 39.6509L26.0622 31.9874C26.7288 32.5839 27.0492 32.6685 28.4624 33.3952L27.9858 31.7784C27.8649 31.3679 28.3436 30.7095 28.6329 30.4069C29.2785 30.0567 29.8166 29.5573 30.2191 28.9407L35.2184 31.451L30.5664 42.1012V45.1836H9.30284V42.1008L4.64872 31.452L10.8787 28.3245ZM3.48042 32.3973L7.85448 42.4062V45.1836H1.24211C1.20888 42.9744 1.29092 36.0348 3.48042 32.3973Z" fill="#FF6B09"/>
</svg>
