<svg aria-hidden="true" style="position:absolute;width:0;height:0" xmlns="http://www.w3.org/2000/svg" overflow="hidden"><defs><symbol id="icon-footer-inst" viewBox="0 0 32 32"><path fill="var(--color1, #000)" d="M31.452 5.724A5.834 5.834 0 0026.302.55l-.026-.002C23.193.199 19.62 0 16 0S8.807.199 5.29.587l.434-.039A5.834 5.834 0 00.55 5.698l-.002.026C.199 8.807 0 12.38 0 16s.199 7.193.587 10.71l-.039-.434a5.834 5.834 0 005.15 5.174l.026.002C8.807 31.801 12.38 32 16 32s7.193-.199 10.71-.587l-.434.039a5.834 5.834 0 005.174-5.15l.002-.026C31.801 23.193 32 19.62 32 16s-.199-7.193-.587-10.71l.039.434z"/><path fill="var(--color1, #000)" d="M29.712 6.881a5.179 5.179 0 00-4.57-4.591l-.023-.002c-2.736-.309-5.907-.486-9.119-.486s-6.383.177-9.504.52l.385-.034a5.179 5.179 0 00-4.59 4.569l-.002.023a85.795 85.795 0 000 18.238 5.177 5.177 0 004.568 4.592l.023.002a85.795 85.795 0 0018.238 0 5.179 5.179 0 004.592-4.569l.002-.023a85.795 85.795 0 000-18.238z"/><path fill="var(--color1, #000)" d="M.48 25.613c.022.222.044.442.068.664a5.834 5.834 0 005.15 5.174l.026.002c6.844.73 13.709.73 20.552 0a5.834 5.834 0 005.174-5.15l.002-.026.069-.664H.479z"/><path fill="var(--color1, #000)" d="M31.452 26.276a96.47 96.47 0 00.544-11.043l-7.314-7.314c-.914-1.043-2.248-1.694-3.817-1.751a140.917 140.917 0 00-9.932.007l.244-.007c-2.679.093-4.552 1.894-5.033 4.54-.085.468-.136.941-.202 1.412v7.759c.037.251.091.502.108.754.107 1.61.769 2.989 1.828 3.922l7.444 7.443a96.525 96.525 0 0010.954-.546 5.834 5.834 0 005.174-5.15l.002-.026z"/><path fill="var(--color1, #000)" d="M31.452 26.277a5.834 5.834 0 01-5.15 5.174l-.026.002a96.97 96.97 0 01-10.953.545l-7.432-7.432c.861.754 1.984 1.214 3.288 1.262 3.224.122 6.461.118 9.686.002 2.918-.106 5.028-2.264 5.12-5.181.096-3.098.096-6.202 0-9.3-.042-1.346-.514-2.53-1.298-3.426l7.31 7.31a96.957 96.957 0 01-.544 11.044z"/><path fill="var(--color1, #000)" d="M19.776 12.535a5.126 5.126 0 10-7.246 7.238l.004.004 11.858 11.858a90.748 90.748 0 001.882-.182 5.836 5.836 0 005.174-5.15l.002-.026c.067-.627.128-1.254.182-1.882L19.774 12.537zM31.938 19.447l-9.544-9.544a1.218 1.218 0 00-2.196.729c0 .398.191.752.486.975l.003.002 11.08 11.081c.075-1.08.132-2.162.17-3.243z"/><path fill="var(--color1, #000)" d="M5.943 12.119c.066-.471.118-.944.202-1.411.48-2.647 2.354-4.448 5.033-4.54 3.226-.111 6.462-.117 9.687 0 2.916.104 5.027 2.264 5.118 5.181.097 3.097.097 6.202 0 9.299-.091 2.918-2.202 5.076-5.118 5.182-3.226.116-6.462.119-9.687-.002-2.916-.11-4.932-2.274-5.128-5.195-.016-.253-.07-.504-.107-.755V12.12zm10.059 11.982c1.477 0 2.954.044 4.428-.01 2.312-.086 3.733-1.465 3.787-3.774.066-2.877.066-5.758 0-8.635-.054-2.309-1.477-3.72-3.787-3.77a216.083 216.083 0 00-9.03.004l.229-.004c-2.293.048-3.718 1.431-3.781 3.714a159.39 159.39 0 000 8.746c.062 2.283 1.488 3.634 3.781 3.719 1.456.054 2.914.01 4.372.01z"/><path fill="var(--color2, #fff)" d="M5.943 12.119c.066-.471.118-.944.202-1.411.48-2.647 2.354-4.448 5.033-4.54 3.226-.111 6.462-.117 9.687 0 2.916.104 5.027 2.264 5.118 5.181.097 3.097.097 6.202 0 9.299-.091 2.918-2.202 5.076-5.118 5.182-3.226.116-6.462.119-9.687-.002-2.916-.11-4.932-2.274-5.128-5.195-.016-.253-.07-.504-.107-.755V12.12zm10.059 11.982c1.477 0 2.954.044 4.428-.01 2.312-.086 3.733-1.465 3.787-3.774.066-2.877.066-5.758 0-8.635-.054-2.309-1.477-3.72-3.787-3.77a216.083 216.083 0 00-9.03.004l.229-.004c-2.293.048-3.718 1.431-3.781 3.714a159.39 159.39 0 000 8.746c.062 2.283 1.488 3.634 3.781 3.719 1.456.054 2.914.01 4.372.01z"/><path fill="var(--color2, #fff)" d="M16 10.874a5.126 5.126 0 000 10.252 5.126 5.126 0 000-10.252zm0 8.487a3.361 3.361 0 010-6.722 3.361 3.361 0 010 6.722zm6.644-8.72a1.22 1.22 0 01-2.438 0 1.22 1.22 0 012.438 0z"/></symbol><symbol id="icon-footer-tel" viewBox="0 0 33 32"><path d="M4.818.002a2.068 2.068 0 00-1.439.672l-.001.002L.693 3.629c.004-.009-.011-.008-.086.099a.62.62 0 00-.092.179l-.001.005C-.578 7.392.154 11.22 1.937 14.86c1.785 3.641 4.63 7.125 7.897 9.984 3.266 2.859 6.953 5.096 10.467 6.206 3.516 1.109 6.923 1.095 9.449-.737a.56.56 0 00.077-.067c.066-.066.068-.075.057-.065l2.681-2.95c.333-.369.537-.86.537-1.399 0-.608-.26-1.156-.675-1.538l-6.337-5.765a2.088 2.088 0 00-2.938.136l-2.868 3.154c-2.328-.673-4.318-1.816-6.231-3.556-1.913-1.741-3.24-3.615-4.13-5.869l2.866-3.153a2.08 2.08 0 00.538-1.4c0-.608-.259-1.155-.674-1.537L6.314.538A2.064 2.064 0 004.81.003h.005zm.059 1.293l.03-.001c.205 0 .392.08.53.21l6.337 5.763a.759.759 0 01.051 1.097l-3.169 3.482a.648.648 0 00-.127.665l-.001-.005c.961 2.624 2.513 4.778 4.647 6.719 2.135 1.942 4.423 3.283 7.126 3.992a.65.65 0 00.648-.192v-.001l3.169-3.482a.759.759 0 011.097-.051l6.338 5.763a.759.759 0 01.051 1.097l-2.649 2.913c-2.072 1.486-4.992 1.57-8.262.537-3.283-1.036-6.846-3.182-9.999-5.942s-5.898-6.131-7.585-9.574C1.439 10.878.834 7.433 1.752 4.397l2.589-2.845a.772.772 0 01.535-.259h.002z"/></symbol><symbol id="icon-waranty-dotted" viewBox="0 0 2 32"><path d="M1 0v40" stroke="#B9B9B9" stroke-dasharray="3 2"/></symbol><symbol id="icon-header-burger" viewBox="0 0 48 32"><path d="M0 1h20.5M0 7h20.5M0 13h20.5" stroke="#000" stroke-width="2"/></symbol><symbol id="icon-hero-guarantee" viewBox="0 0 31 32"><path d="M6.947 14.567c0 .227-.344.227-.344 0a8.725 8.725 0 0117.45 0c0 .227-.342.227-.342 0 0-3.257-5.351-3.259-5.351 0 0 .227-.352.227-.352 0 0-3.248-5.359-3.248-5.359 0 0 .227-.352.227-.352 0 0-3.242-5.349-3.265-5.349 0zm5.38-1.265c.093-1.874.388-3.556.816-4.839.342-1.019.775-1.794 1.265-2.228a8.386 8.386 0 00-7.322 6.807c1.267-1.827 4.191-1.681 5.242.259zm5.654-.084c-.095-1.803-.381-3.415-.793-4.645-1.063-3.182-2.656-3.182-3.72 0-.412 1.23-.696 2.842-.793 4.645 1.143-1.942 4.163-1.942 5.306 0zm5.59-.176a8.382 8.382 0 00-7.322-6.807c.493.434.923 1.209 1.265 2.228.429 1.284.723 2.964.816 4.839 1.056-1.95 3.99-2.066 5.242-.26zm-9.388 5.516v-1.771c-.319.212-.57.54-.57.94 0 .389.255.647.57.832zm.344.551c-.612-.28-1.257-.608-1.257-1.382 0-.799.608-1.199 1.257-1.498v2.88zm1.946 2.123v1.792c.324-.214.577-.544.577-.943 0-.394-.26-.659-.577-.849zm-.341-.552c.614.284 1.263.622 1.263 1.401 0 .801-.612 1.201-1.263 1.497V20.68z"/><path d="M16.473 14.771c1.409.325 2.857 1.38 2.857 2.955 0 1.35-2.281 1.3-2.281 0 0-.401-.253-.731-.576-.943v2.521c1.304.427 2.861 1.191 2.861 2.776 0 1.578-1.448 2.631-2.861 2.954-.006 1.502-2.286 1.5-2.29-.002-.803-.185-1.501-.56-2.006-1.056-.529-.523-.842-1.18-.842-1.895 0-1.329 2.278-1.329 2.278 0 0 .397.251.725.57.937v-2.519c-1.294-.418-2.859-1.205-2.859-2.776 0-1.578 1.448-2.63 2.859-2.954.006-1.501 2.286-1.499 2.291.002zm-1.946.003v.274c-1.341.266-2.861 1.125-2.861 2.673 0 1.489 1.668 2.157 2.861 2.525v3.328c-.645-.295-1.257-.692-1.257-1.495 0-.877-1.594-.877-1.594 0 0 .62.276 1.193.742 1.65.591.585 1.308.863 2.109 1.022v.276c0 1.056 1.605 1.056 1.605 0v-.274c1.345-.267 2.859-1.126 2.859-2.673 0-1.503-1.665-2.15-2.859-2.527v-3.326c.647.295 1.263.692 1.263 1.499 0 .855 1.592.89 1.592 0 0-1.547-1.512-2.408-2.855-2.675v-.276c0-1.056-1.605-1.056-1.605 0z"/><path fill="none" stroke="var(--color3, #ff6b09)" stroke-width="1.016" d="M30.387 4.945V.762H.508v30.476h29.879v-4.183"/></symbol>

<symbol id="icon-hero-method" viewBox="0 0 31 32"><path d="M24.717 5.25H14.469a1.21 1.21 0 00-1.209 1.21v4.241l-7.613 3.196a.249.249 0 00-.034.441l.001.001.971.581v6.192a1.12 1.12 0 00-.869 1.089v.597c0 .137.111.248.248.248h1.739a.248.248 0 00.248-.248v-.597a1.12 1.12 0 00-.862-1.087l-.008-.002v-5.896l.768.459c-.023.177-.003-.308-.011 2.883 0 1.049 2.687 1.611 5.421 1.643v4.832c0 .667.541 1.208 1.208 1.208H24.716a1.21 1.21 0 001.209-1.209c0 .034-.002-1.023 0-18.573 0-.658-.544-1.21-1.209-1.21zM7.456 22.201v.349H6.213v-.349a.622.622 0 111.243 0zm17.261 3.544H14.469a.712.712 0 01-.713-.71V23.36h11.671v1.676a.718.718 0 01-.711.711zm.711-2.883H13.756v-2.659c1.335-.015 5.425-.309 5.425-1.645-.002-2.005.003-2.818-.007-2.887l2.226-1.334a.249.249 0 00-.03-.44l-.002-.001-7.612-3.195V8.63h11.672v14.231zm-11.92-5.949c-1.376 0-4.023.178-5.173.929.007-2.297-.08-2.148.203-2.343.715-.526 2.758-.894 4.97-.894.965 0 5.176.266 5.176 1.157v2.08c-1.161-.758-3.795-.929-5.176-.929zm.248-10.453c0-.393.32-.713.713-.713h10.248c.393 0 .711.324.711.713v1.675H13.757V6.46zm-.249 4.676l7.218 3.029-1.788 1.07c-.951-.943-4.096-1.126-5.429-1.126-1.335 0-4.48.183-5.429 1.126l-1.788-1.07 7.218-3.029zm-5.172 7.422c0-.401 1.777-1.15 5.173-1.15 3.398 0 5.176.749 5.176 1.15s-1.778 1.15-5.176 1.15c-3.397 0-5.173-.749-5.173-1.15z"/><path d="M19.593 23.732a.821.821 0 000 1.64.821.821 0 000-1.64zm0 1.145h-.012a.325.325 0 110-.65h.014-.001a.325.325 0 01-.001.65h-.001zm.945-18.184h-1.892v.496h1.892v-.496z"/><path fill="none" stroke="var(--color3, #ff6b09)" stroke-width="1.016" d="M30.387 4.945V.762H.508v30.476h29.879v-4.183"/>
</symbol>
<symbol id="icon-hero-program" viewBox="0 0 31 32"><path d="M7.046 26.005h17.006c.084-1.939-.054-5.157-1.247-6.689l-.043-.055-2.606-1.308a2.512 2.512 0 00.1-.581.907.907 0 00-.07-.35l.002.006c-.43-1.029-1.339-1.57-1.84-1.801.152-.307.25-.637.298-.974a.838.838 0 00.584-.598l.001-.006.304-1.235a.834.834 0 00-.281-.847l-.002-.001c.857-1.947-.579-3.784-.657-3.881-1.556-1.682-3.521-1.367-3.624-1.349-2.836.593-3.93 2.767-3.312 5.316a.836.836 0 00-.192.762l.305 1.237c.074.297.3.521.582.601.09.628.352 1.183.735 1.63l-.004-.004v.979c-4.069 2.084-1.491.754-4.752 2.404-.007.03-1.53 1.65-1.304 6.45l.014.293zm16.415-.615h-2.799v-1.175l1.851-4.238c.927 1.539.962 4.478.948 5.413zm-3.82-7.983c-.108 1.24-.789.866-1.209 1.821-.33-.363-.43-.799-.34-1.265.16-.856-.363-1.11-.234-2.01l.02-.021v-.003a6.52 6.52 0 00.144-.174c1.107.483 1.641 1.381 1.619 1.651zm-5.94-.975a3.128 3.128 0 001.805.568c.646 0 1.247-.194 1.747-.528l-.012.007c.071.707.347.849.249 1.369a2.377 2.377 0 00-.034.285l-1.906 2.149-2.437-2.747.588-.307v-.796zm-.766-2.629V10.52c.297-.549.701-.946 1.204-1.185 1.346.762 2.895 1.898 3.934 3.043-.001 1.457.005 1.46-.005 1.58l-.001.008a2.57 2.57 0 01-2.564 2.419 2.578 2.578 0 01-2.569-2.566v-.016.001zm-.38 4.03l2.994 3.376 2.01-2.266a2 2 0 00.184.378l-2.194 2.744-3.273-4.092.278-.14zm6.13-4.526v-.951l.229-.262c.013.482.065-.087-.229 1.213zm-3.598-6.365c.122.008 1.755-.249 3.047 1.145.051.064 1.102 1.418.68 2.9-.145-.66-.396-1.505-.795-1.908l-.435.434c.393.398.651 1.611.75 2.239-1.803-1.887-4.13-3.082-4.162-3.102-.117.073-1.101.26-1.816 1.649l-.034.067v1.021l-.09.001c-.454-2.193.416-3.936 2.856-4.447zm-2.921 5.08l.155.627v.658l-.257-1.041c-.038-.155.077-.213.103-.245zm-.45 6.232l3.833 4.794 2.594-3.244c.282.252.418.288 1.016.596l-.202-.685c-.051-.174.152-.452.274-.58.275-.151.501-.361.667-.614l.004-.007 2.116 1.062-1.969 4.508v1.304h-9.001v-1.305l-1.97-4.507 2.637-1.324zm-3.132 1.724l1.851 4.236v1.176H7.636c-.014-.935.02-3.872.947-5.412z"/><path fill="none" stroke="var(--color3, #ff6b09)" stroke-width="1.016" d="M30.387 4.945V.762H.508v30.476h29.879v-4.183"/></symbol>

<symbol id="icon-header-close" viewBox="0 0 23 32"><path d="M1 15.4957L15.4957 1.00004" stroke="white" stroke-width="2"/><path d="M15.4956 15.4957L0.999917 1.00004" stroke="white" stroke-width="2"/></symbol>

<symbol id="icon-wedoit-1" viewBox="0 0 31 32" >
<path d="M30.151 4.961c0-0.001-0.001-0.001-0.001-0.002-0.007-0.016-0.015-0.031-0.024-0.045-0.001-0.001-0.002-0.002-0.002-0.003-0.010-0.015-0.021-0.029-0.034-0.042l-4.806-4.806c-0.013-0.013-0.026-0.023-0.041-0.033-0.003-0.002-0.006-0.004-0.009-0.006-0.012-0.007-0.024-0.014-0.036-0.019-0.004-0.002-0.007-0.003-0.011-0.005-0.031-0.013-0.065-0.019-0.099-0.020-0.002 0-0.004-0-0.005-0h-21.172c-0.157 0-0.284 0.127-0.284 0.284v29.311c0 0.019 0.002 0.037 0.006 0.056 0.002 0.008 0.005 0.015 0.007 0.023 0.003 0.010 0.006 0.020 0.009 0.030 0.004 0.009 0.009 0.017 0.014 0.026 0.004 0.007 0.008 0.016 0.013 0.023 0.010 0.014 0.021 0.028 0.033 0.040 0.001 0.001 0.001 0.002 0.003 0.003l2.165 2.164c0.111 0.111 0.29 0.111 0.402 0l1.965-1.963 1.964 1.963c0.055 0.056 0.128 0.083 0.201 0.083s0.145-0.027 0.201-0.083l1.964-1.963 1.964 1.963c0.111 0.111 0.291 0.111 0.402 0l1.964-1.963 1.963 1.963c0.111 0.111 0.291 0.111 0.401 0l1.965-1.963 1.963 1.963c0.055 0.056 0.128 0.083 0.201 0.083s0.145-0.027 0.201-0.083l1.963-1.963 1.965 1.963c0.111 0.111 0.291 0.111 0.401 0l2.165-2.164c0.004-0.004 0.007-0.009 0.011-0.014 0.008-0.009 0.017-0.019 0.024-0.029 0.007-0.009 0.011-0.020 0.016-0.030 0.003-0.007 0.007-0.012 0.009-0.019 0.006-0.013 0.009-0.026 0.012-0.039 0.001-0.005 0.003-0.009 0.004-0.013 0.004-0.020 0.006-0.038 0.006-0.058v-24.503c-0.001-0.037-0.008-0.074-0.023-0.109zM25.367 0.949l3.836 3.835h-3.836v-3.835zM29.604 29.456l-1.88 1.88-1.965-1.963c-0.111-0.111-0.29-0.111-0.401 0l-1.963 1.963-1.963-1.963c-0.111-0.111-0.291-0.111-0.402 0l-1.965 1.963-1.963-1.962c0-0-0-0.001-0-0.001-0.055-0.055-0.128-0.083-0.201-0.083s-0.145 0.028-0.201 0.083c-0 0-0 0-0 0l-1.963 1.963-1.964-1.963c-0.111-0.111-0.29-0.111-0.402 0l-1.963 1.963-1.964-1.963c-0.111-0.111-0.29-0.111-0.402 0l-1.965 1.963-1.88-1.88v-28.909h20.603v4.522c0 0.157 0.127 0.284 0.284 0.284h4.521l0 24.103z"></path>
<path d="M6.314 3.234h9.303c0.157 0 0.284-0.127 0.284-0.284s-0.127-0.284-0.284-0.284h-9.303c-0.157 0-0.284 0.127-0.284 0.284s0.127 0.284 0.284 0.284z"></path>
<path d="M6.314 4.991h14.919c0.157 0 0.284-0.127 0.284-0.284s-0.127-0.284-0.284-0.284h-14.919c-0.157 0-0.284 0.127-0.284 0.284s0.127 0.284 0.284 0.284z"></path>
<path d="M6.030 6.568v9.199c0 0.157 0.127 0.284 0.284 0.284h21.172c0.157 0 0.284-0.127 0.284-0.284v-9.199c0-0.157-0.127-0.284-0.284-0.284h-21.172c-0.157 0-0.284 0.127-0.284 0.284zM12.308 6.852h14.893v2.445h-14.893v-2.445zM12.308 9.865h14.893v2.444h-14.893v-2.444zM12.308 12.877h14.893v2.605h-14.893v-2.605zM6.598 6.852h5.142v2.445h-5.142v-2.445zM6.598 9.865h5.142v2.444h-5.142v-2.444zM6.598 12.877h5.142v2.605h-5.142v-2.605z"></path>
<path d="M27.486 17.329h-21.172c-0.157 0-0.284 0.127-0.284 0.284v9.198c0 0.157 0.127 0.284 0.284 0.284s0.284-0.127 0.284-0.284v-2.889h5.142v2.889c0 0.157 0.127 0.284 0.284 0.284s0.284-0.127 0.284-0.284v-2.889h14.893v2.889c0 0.157 0.127 0.284 0.284 0.284s0.284-0.127 0.284-0.284v-9.198c0.001-0.157-0.126-0.284-0.283-0.284zM11.74 23.354h-5.142v-2.443h5.142v2.443zM11.74 20.342h-5.142v-2.444h5.142v2.444zM27.201 23.354h-14.893v-2.443h14.893v2.443zM27.201 20.342h-14.893v-2.444h14.893v2.444z"></path>
<path d="M2.281-0.021c-0.157 0-0.284 0.127-0.284 0.284v29.311c0 0.157 0.127 0.284 0.284 0.284s0.284-0.127 0.284-0.284v-29.311c0-0.157-0.127-0.284-0.284-0.284z"></path>
<path d="M0.718-0.021c-0.157 0-0.284 0.127-0.284 0.284v29.311c0 0.157 0.127 0.284 0.284 0.284s0.284-0.127 0.284-0.284v-29.311c0-0.157-0.127-0.284-0.284-0.284z"></path>
</symbol>

<symbol id="icon-wedoit-2" viewBox="0 0 33 32">
<path d="M30.175-0.128h-15.746c-1.025 0-1.859 0.834-1.859 1.859v6.518l-11.698 4.91c-0.132 0.056-0.222 0.181-0.233 0.324s0.061 0.28 0.184 0.354l1.492 0.893v9.515c-0.763 0.174-1.335 0.857-1.335 1.674v0.917c0 0.21 0.171 0.381 0.381 0.381h2.671c0.21 0 0.381-0.171 0.381-0.381v-0.917c0-0.816-0.573-1.498-1.336-1.673v-9.060l1.18 0.706c-0.036 0.272-0.005-0.474-0.017 4.43 0 1.612 4.129 2.476 8.33 2.525v7.425c0 0.384 0.117 0.74 0.318 1.036 0.334 0.494 0.9 0.82 1.54 0.82h15.746c1.024 0 1.857-0.833 1.857-1.857 0 0.051-0.002-1.573 0-28.54 0-1.011-0.836-1.859-1.856-1.859zM3.651 25.918v0.536h-1.909v-0.536c0-0.528 0.427-0.957 0.952-0.957 0.528 0 0.957 0.43 0.957 0.957zM30.175 31.364h-15.746c-0.378 0-0.712-0.191-0.909-0.482-0.118-0.175-0.187-0.385-0.187-0.612v-2.574h17.935v2.575c0 0.597-0.497 1.092-1.092 1.092zM31.267 26.935h-17.935v-4.086c2.051-0.023 8.335-0.475 8.335-2.527-0.002-3.081 0.005-4.33-0.010-4.436l3.421-2.049c0.123-0.074 0.194-0.211 0.184-0.354s-0.1-0.268-0.233-0.324l-11.698-4.91v-3.182h17.935v21.868zM12.951 17.792c-2.113 0-6.182 0.273-7.949 1.427 0.011-3.53-0.122-3.3 0.312-3.6 1.098-0.809 4.238-1.373 7.637-1.373 1.482 0 7.954 0.408 7.954 1.778v3.195c-1.784-1.165-5.832-1.428-7.954-1.428zM13.333 1.731c0-0.604 0.491-1.095 1.095-1.095h15.746c0.604 0 1.093 0.498 1.093 1.095v2.574h-17.935v-2.574zM12.951 8.915l11.090 4.655-2.748 1.644c-1.461-1.449-6.294-1.73-8.342-1.73-2.051 0-6.884 0.282-8.342 1.73l-2.749-1.645 11.091-4.655zM5.002 20.321c0-0.617 2.73-1.767 7.949-1.767 5.222 0 7.954 1.151 7.954 1.767s-2.732 1.768-7.954 1.768c-5.219 0-7.949-1.151-7.949-1.768z"></path>
<path d="M22.301 28.271c-0.695 0-1.26 0.565-1.26 1.26s0.565 1.26 1.26 1.26c0.695 0 1.26-0.565 1.26-1.26s-0.565-1.26-1.26-1.26zM22.301 30.030c-0.275 0-0.498-0.224-0.498-0.499s0.224-0.498 0.498-0.498c0.275 0 0.498 0.223 0.498 0.498s-0.223 0.499-0.498 0.499z"></path>
<path d="M23.754 2.090h-2.906v0.762h2.906v-0.762z"></path>
</symbol>

<symbol id="icon-wedoit-3" viewBox="0 0 46 32">
<path d="M20.267 4.608h-13.64v1.021h13.64v-1.021z"></path>
<path d="M20.267 8.416h-11.597v1.021h11.597v-1.021z"></path>
<path d="M20.267 12.224h-13.64v1.021h13.64v-1.021z"></path>
<path d="M20.267 16.032h-11.597v1.021h11.597v-1.021z"></path>
<path d="M20.267 19.84h-13.64v1.021h13.64v-1.021z"></path>
<path d="M20.267 23.648h-11.597v1.021h11.597v-1.021z"></path>
<path d="M38.99 4.608h-13.64v1.021h13.64v-1.021z"></path>
<path d="M36.947 8.416h-11.597v1.021h11.597v-1.021z"></path>
<path d="M38.99 12.224h-13.64v1.021h13.64v-1.021z"></path>
<path d="M36.947 16.032h-11.597v1.021h11.597v-1.021z"></path>
<path d="M38.99 19.84h-13.64v1.021h13.64v-1.021z"></path>
<path d="M36.947 23.648h-11.597v1.021h11.597v-1.021z"></path>
<path d="M43.915 3.445h-1.872v-2.812c0-0.282-0.229-0.511-0.511-0.511h-15.265c-1.49 0-2.781 0.805-3.458 2.011-0.678-1.206-1.97-2.011-3.459-2.011h-15.265c-0.282 0-0.511 0.229-0.511 0.511v2.812h-1.872c-0.282 0-0.511 0.229-0.511 0.511v27.411c0 0.282 0.229 0.511 0.511 0.511 5.127 0 37.068 0 42.213 0 0.282 0 0.511-0.229 0.511-0.511v-27.411c0-0.282-0.229-0.511-0.511-0.511zM26.267 1.144h14.754c0 4.573 0 16.619 0 27.35h-15.843c-0.702 0-1.405 0.296-1.859 0.68v-25.089c0-1.63 1.305-2.942 2.948-2.942zM4.596 1.144h14.754c1.597 0 2.889 1.243 2.942 2.829 0.001 0.022 0.003 0.091 0.006 0.112v25.087c-0.453-0.382-1.148-0.678-1.852-0.678h-15.85c0-10.728 0-22.779 0-27.35zM2.213 4.467h1.362v24.538c0 0.282 0.229 0.511 0.511 0.511h16.361c0.778 0 1.531 0.511 1.771 1.341h-20.005v-26.39zM43.404 30.856h-20.004c0.242-0.834 0.987-1.341 1.778-1.341h16.354c0.282 0 0.511-0.229 0.511-0.511v-24.538h1.362v26.39z"></path>
</symbol>

<symbol id="icon-wedoit-4" viewBox="0 0 33 32">
<path d="M1.993 12.558v2.831c0 0.152 0.070 0.295 0.189 0.39 1.935 1.523 4.363 2.362 6.837 2.362 0.74 0 1.482-0.077 2.206-0.224 1.544 0.683 3.188 1.032 4.89 1.032 1.707 0 3.351-0.349 4.89-1.032 3.091 0.624 6.384-0.046 9.042-2.138 0.12-0.094 0.189-0.238 0.189-0.39v-2.831c0-0.416-0.206-0.794-0.575-1.027l-3.867-2.176c0.846-1.073 1.476-2.602 1.586-3.913 0.321-2.256-1.518-4.646-4.165-4.646-1.113 0-2.171 0.458-2.948 1.227-0.027 0.027-0.058 0.049-0.084 0.076-0.024 0.025-0.043 0.054-0.067 0.080-0.016 0.017-0.029 0.036-0.044 0.053-0.757-1.38-2.211-2.232-3.924-2.232-0.166 0-0.33 0.011-0.492 0.028-0.010-0.001-0.018-0.006-0.028-0.006-0.092 0-0.287 0.024-0.391 0.054-0.015 0.004-0.026 0.015-0.041 0.021-1.279 0.259-2.363 1.034-3.013 2.156-0.781-0.911-1.93-1.457-3.179-1.457-3.908 0-5.642 4.612-2.557 8.581l-3.903 2.167c-0.346 0.219-0.553 0.598-0.553 1.014zM20.996 16.828c-0.084 0.041-0.167 0.085-0.251 0.123l-0 0c-0.001 0-0.001 0.001-0.002 0.001-1.452 0.667-3.009 1.006-4.627 1.006-1.613 0-3.17-0.338-4.629-1.007-0.71-0.323-1.397-0.734-2.045-1.221v-2.87c0-0.098 0.047-0.184 0.102-0.221l4.542-2.524c0.565 0.48 1.287 0.832 2.035 0.832 0.721 0 1.499-0.357 2.052-0.843l4.487 2.52c0.083 0.053 0.13 0.139 0.13 0.237v2.87c-0.571 0.429-1.173 0.795-1.794 1.098zM29.154 12.382c0.059 0.037 0.092 0.101 0.092 0.176v2.587c-1.969 1.477-4.337 2.148-6.737 1.98 0.369-0.23 0.771-0.516 1.083-0.76 0.12-0.094 0.19-0.238 0.19-0.39v-3.114c0-0.435-0.218-0.835-0.61-1.087l-2.383-1.339 0.58-0.321c0.703 0.573 1.307 0.744 1.848 0.744 0.662 0 1.36-0.325 1.878-0.759l4.060 2.284zM23.216 1.788c1.38 0 2.593 0.902 3.021 2.142-0.833-0.099-1.647-0.51-2.237-1.142-0.107-0.114-0.258-0.173-0.415-0.155-0.155 0.016-0.293 0.105-0.373 0.239-0.566 0.948-1.493 1.58-2.548 1.76 0-0.001-0-0.002-0-0.003 0.005-0.216-0.008-0.434-0.033-0.653-0.003-0.022-0.005-0.044-0.007-0.067-0.032-0.248-0.107-0.559-0.122-0.609 0.563-0.902 1.609-1.513 2.713-1.513zM20.556 5.644c1.253-0.137 2.386-0.767 3.164-1.762 0.767 0.629 1.74 1.010 2.702 1.056-0.007 1.792-1.471 4.927-3.206 4.927-1.337 0-2.479-1.912-2.905-3.238 0.108-0.341 0.187-0.669 0.245-0.983zM20.657 9.373l-0.886 0.491-0.895-0.502c0.332-0.413 0.636-0.893 0.896-1.413 0.25 0.526 0.55 1.010 0.884 1.425zM19.32 6.465c-0.478 1.427-1.705 3.49-3.199 3.49-1.742 0-3.226-2.864-3.509-4.696 0.075-0.019 2.43 0.126 4.050-2.001 0.822 0.688 1.932 1.143 3.011 1.188 0.013 0.647-0.144 1.406-0.352 2.018zM16.15 0.992c2.78 0 3.309 2.392 3.352 2.442-1.008-0.102-1.928-0.596-2.563-1.276-0.107-0.114-0.262-0.171-0.416-0.154-0.155 0.017-0.293 0.106-0.373 0.241-0.551 0.932-1.414 1.589-2.414 1.868-0.386 0.108-0.803 0.157-1.166 0.154 0.136-1.822 1.596-3.274 3.58-3.274zM12.461 7.938c0.257 0.515 0.563 1.006 0.913 1.438l-0.875 0.487-0.907-0.51c0.344-0.438 0.636-0.929 0.87-1.415zM9.006 1.788c1.125 0 2.155 0.571 2.729 1.514-0.029 0.1-0.106 0.498-0.117 0.548-0.69-0.165-1.324-0.533-1.821-1.062-0.107-0.114-0.258-0.17-0.416-0.154-0.155 0.017-0.293 0.106-0.372 0.24-0.663 1.119-1.881 1.815-3.177 1.815 0.158-1.627 1.518-2.9 3.174-2.9zM5.876 5.678c1.425-0.014 2.77-0.686 3.643-1.796 0.596 0.491 1.303 0.813 2.055 0.961 0.029 0.575 0.179 1.273 0.35 1.789-0.274 0.84-0.799 1.841-1.451 2.505-0.004 0.004-0.010 0.006-0.014 0.010-0.408 0.43-0.988 0.719-1.444 0.719-1.594 0-2.841-2.508-3.14-4.188zM2.985 12.558c0-0.075 0.033-0.139 0.067-0.162l4.116-2.284c0.247 0.206 0.304 0.229 0.353 0.265l-0 0c0.484 0.322 0.928 0.482 1.534 0.482 0.645 0 1.232-0.273 1.749-0.694 0.029-0.023 0.060-0.045 0.088-0.068l0.587 0.33-2.446 1.361c-0.366 0.236-0.584 0.636-0.584 1.071v3.114c0 0.152 0.070 0.296 0.19 0.39 0.317 0.249 0.727 0.539 1.083 0.761-2.434 0.166-4.803-0.528-6.737-1.98v-2.587z"></path>
<path d="M31.259 20.781c-0.61-0.383-1.361-0.423-2.007-0.11l-6.119 2.956c-0.021-1.145-0.956-2.071-2.107-2.071l-3.509 0.001c-1.73-1.504-3.941-2.425-5.952-2.473-1.983-0.047-3.763-0.060-4.593-0.064v-1.002h-6.972v11.517h6.972v-1.379c1.912 1.097 6.939 3.845 9.325 3.845 0.054 0 0.107-0.001 0.158-0.004 4.196-0.235 14.091-7.198 14.743-7.661 0.638-0.37 1.034-1.056 1.034-1.796 0-0.719-0.364-1.376-0.973-1.758zM5.98 28.542h-4.988v-9.533h4.988v9.533zM30.687 23.484c-0.015 0.008-0.030 0.017-0.044 0.028-0.102 0.073-10.281 7.271-14.244 7.494-0.039 0.002-0.079 0.003-0.121 0.003-2.092 0-7.194-2.753-9.307-4.001v-6.997c0.827 0.004 2.597 0.017 4.569 0.064 1.837 0.044 3.876 0.921 5.456 2.346l0.141 0.128 3.887-0.001c0.617 0 1.119 0.502 1.119 1.119s-0.502 1.119-1.119 1.119h-7.142v0.992h7.142c0.684 0 1.288-0.333 1.674-0.839l6.984-3.373c0.343-0.167 0.725-0.146 1.049 0.057s0.508 0.537 0.508 0.918c0 0.391-0.212 0.753-0.553 0.945z"></path>
<path d="M16.612 12.159h-0.992v0.92h0.992v-0.92z"></path>
<path d="M16.612 13.992h-0.992v0.92h0.992v-0.92z"></path>
<path d="M16.612 15.826h-0.992v0.92h0.992v-0.92z"></path>
</symbol>

<symbol id="icon-wedoit-5" viewBox="0 0 27 32">
<path d="M-0.103 31.759c3.441 0 23.348 0 26.785 0 0.133-3.055-0.086-8.122-1.964-10.535l-0.068-0.087-4.104-2.060c0.089-0.301 0.133-0.576 0.151-0.778 0.020-0.243-0.013-0.471-0.1-0.678-0.677-1.62-2.11-2.472-2.898-2.836 0.24-0.484 0.395-1.003 0.47-1.534 0.446-0.126 0.805-0.479 0.923-0.951l0.479-1.946c0.085-0.343 0.032-0.699-0.151-1.002-0.079-0.131-0.18-0.24-0.294-0.334 1.351-3.068-0.911-5.96-1.035-6.113-2.45-2.649-5.545-2.153-5.708-2.124-4.466 0.935-6.19 4.358-5.217 8.372-0.288 0.319-0.409 0.764-0.302 1.2l0.481 1.948c0.117 0.468 0.473 0.82 0.916 0.948 0.137 0.972 0.548 1.851 1.152 2.559v1.543c-6.409 3.282-2.348 1.188-7.484 3.786-0.010 0.048-2.41 2.599-2.053 10.159l0.022 0.462zM25.751 30.789h-4.408v-1.852l2.916-6.675c1.461 2.424 1.515 7.053 1.493 8.526zM19.735 18.216c-0.17 1.954-1.242 1.364-1.903 2.869-0.52-0.572-0.677-1.258-0.537-1.993 0.253-1.349-0.57-1.749-0.367-3.166l0.031-0.032v-0.005c0.017-0.020 0.18-0.213 0.227-0.274 1.744 0.76 2.584 2.174 2.55 2.6zM10.379 16.68c0.81 0.562 1.787 0.893 2.838 0.893 0.99 0 1.93-0.288 2.736-0.819 0.112 1.114 0.547 1.337 0.393 2.157-0.029 0.152-0.045 0.302-0.054 0.45l-3.002 3.384-3.838-4.327 0.926-0.484v-1.254zM9.172 12.54v-1.876c0-0.691 0-3.431 0-3.296 0.467-0.864 1.104-1.491 1.896-1.866 2.12 1.2 4.56 2.99 6.197 4.791-0.002 2.294 0.006 2.301-0.009 2.489l-0.001 0.012c-0.128 2.083-1.841 3.811-4.038 3.811-2.136 0-3.909-1.677-4.037-3.831-0.007-0.077-0.008-0.155-0.008-0.233zM8.574 18.886l4.716 5.317 3.166-3.569c0.072 0.208 0.174 0.405 0.29 0.595l-3.456 4.322-5.154-6.446 0.438-0.22zM18.23 11.759v-1.498c0.042-0.049 0.402-0.461 0.36-0.413 0.020 0.758 0.102-0.137-0.36 1.911zM12.562 1.734c0.192 0.012 2.765-0.391 4.799 1.804 0.080 0.1 1.736 2.234 1.071 4.567-0.228-1.038-0.625-2.369-1.252-3.004l-0.686 0.683c0.619 0.627 1.026 2.537 1.181 3.527-2.84-2.972-6.504-4.853-6.555-4.885-0.184 0.114-1.734 0.409-2.86 2.598l-0.054 0.105v1.607c-0.048 0.001-0.19 0.002-0.142 0.002-0.715-3.454 0.655-6.198 4.497-7.004zM7.962 9.736l0.244 0.987v1.038l-0.405-1.639c-0.059-0.244 0.122-0.337 0.161-0.386zM7.252 19.55l6.037 7.551 4.085-5.109c0.444 0.398 0.658 0.454 1.6 0.939l-0.318-1.078c-0.081-0.274 0.239-0.713 0.431-0.914 0.43-0.233 0.789-0.566 1.058-0.977l3.333 1.674-3.101 7.1v2.055h-14.176v-2.055l-3.103-7.099 4.153-2.085zM2.32 22.265l2.916 6.673v1.852h-4.408c-0.022-1.473 0.033-6.099 1.492-8.524z"></path>
</symbol>

<symbol id="icon-wedoit-6" viewBox="0 0 39 32">
<path d="M3.048 29.453h12.23c0.62 1.285 1.917 2.116 3.38 2.116h0.772c1.465 0 2.761-0.83 3.381-2.116h12.237c1.26 0 2.286-1.025 2.286-2.286v-21.905c0-1.26-1.025-2.286-2.286-2.286h-1.234v-1.021c0-0.84-0.684-1.524-1.524-1.524h-26.491c-0.84 0-1.524 0.683-1.524 1.524v1.021h-1.227c-1.26 0-2.286 1.025-2.286 2.286v21.905c0 1.26 1.025 2.286 2.286 2.286zM32.288 24.752h-12.478v-17.705c2.884 0.377 5.121 2.845 5.121 5.831v0.687l-0.181-0.040c-0.196-0.042-0.403-0.007-0.574 0.102s-0.291 0.281-0.334 0.478l-1.213 5.519c-0.090 0.41 0.17 0.816 0.58 0.907l2.621 0.578c0.135 0.029 0.273 0.043 0.411 0.043 0.922 0 1.707-0.631 1.908-1.535l0.702-3.192c0.231-1.048-0.433-2.090-1.484-2.324l-0.912-0.201v-1.023c0-3.827-2.917-6.986-6.644-7.37v-3.551h12.48l-0.002 22.796zM25.166 15.177l1.871 0.412c0.234 0.052 0.376 0.275 0.325 0.508l-0.702 3.191c-0.051 0.231-0.306 0.374-0.507 0.331l-1.874-0.413 0.886-4.030zM5.798 1.956h12.487v3.55c-3.731 0.381-6.652 3.541-6.652 7.371v1.022l-0.914 0.202c-0.509 0.113-0.943 0.416-1.222 0.854-0.281 0.439-0.373 0.961-0.26 1.468l0.7 3.188c0.19 0.892 0.993 1.54 1.909 1.54 0.138 0 0.275-0.015 0.416-0.045l2.61-0.577c0.41-0.091 0.67-0.496 0.58-0.907l-1.213-5.519c-0.043-0.198-0.164-0.37-0.334-0.478s-0.378-0.144-0.574-0.102l-0.174 0.038v-0.686c0-2.988 2.24-5.458 5.128-5.832v17.706h-12.487v-22.796zM12.916 15.177l0.887 4.029-1.863 0.411c-0.229 0.052-0.463-0.1-0.512-0.328l-0.702-3.196c-0.025-0.111-0.005-0.224 0.055-0.319 0.061-0.096 0.157-0.162 0.268-0.187l1.867-0.412zM2.286 5.262c0-0.42 0.342-0.762 0.762-0.762h1.227v20.252c0 0.84 0.684 1.524 1.524 1.524h26.491c0.84 0 1.524-0.683 1.524-1.524v-20.252h1.234c0.42 0 0.762 0.342 0.762 0.762v21.905c0 0.42-0.342 0.762-0.762 0.762h-12.754c-0.335 0-0.63 0.218-0.728 0.538-0.289 0.943-1.147 1.577-2.135 1.577h-0.772c-0.984 0-1.841-0.631-2.138-1.586-0.101-0.315-0.394-0.529-0.725-0.529h-12.747c-0.42 0-0.762-0.342-0.762-0.762v-21.905z"></path>
</symbol>

<symbol id="icon-comment-arrow-left" viewBox="0 0 54 32"><path d="M52 14a2 2 0 110 4v-4zM.586 17.414C.224 17.052 0 16.552 0 16s.224-1.052.586-1.414L13.314 1.858a2 2 0 012.825 2.829l.001-.001L4.828 16l11.314 11.314a2 2 0 11-2.827 2.829l-.001-.001L.586 17.414zM52 18H2v-4h50v4z"/></symbol>

<symbol id="icon-comment-arrow-right" viewBox="0 0 54 32"><path d="M2 14a2 2 0 100 4v-4zm51.414 3.414c.362-.362.586-.862.586-1.414s-.224-1.052-.586-1.414L40.686 1.858a2 2 0 10-2.829 2.827l.001.001L49.172 16 37.858 27.314a2 2 0 002.829 2.827l-.001.001 12.728-12.728zM2 18h50v-4H2v4z"/></symbol><symbol id="icon-comment-vk" viewBox="0 0 32 32"><path d="M27.541 18.46c1.06 1.037 2.181 2.012 3.133 3.152.421.508.819 1.03 1.123 1.619.432.836.042 1.757-.709 1.807l-4.661-.002c-1.202.099-2.161-.384-2.969-1.206-.645-.658-1.243-1.358-1.863-2.037a4.456 4.456 0 00-.824-.736l-.015-.01c-.637-.413-1.189-.287-1.553.377-.37.676-.454 1.423-.491 2.176-.05 1.098-.382 1.387-1.485 1.436-2.356.112-4.593-.245-6.67-1.434-1.833-1.049-3.253-2.528-4.489-4.203C3.661 16.137 1.817 12.554.161 8.87c-.373-.831-.1-1.276.815-1.292 1.521-.03 3.042-.028 4.564-.002.619.009 1.027.363 1.266.947.822 2.023 1.829 3.948 3.093 5.732.336.475.679.949 1.168 1.284.541.37.953.247 1.206-.354.162-.382.233-.794.269-1.202.121-1.408.137-2.812-.075-4.213-.13-.876-.623-1.442-1.495-1.609-.446-.084-.38-.25-.164-.505.374-.437.727-.711 1.429-.711h5.269c.829.164 1.013.537 1.127 1.371l.004 5.853c-.01.323.161 1.282.743 1.495.465.153.772-.22 1.052-.515 1.262-1.339 2.162-2.922 2.965-4.56.357-.72.665-1.469.962-2.215.221-.555.565-.828 1.191-.816l5.07.004c.151 0 .303.002.448.028.855.145 1.089.512.826 1.347-.416 1.309-1.225 2.4-2.016 3.495-.846 1.17-1.749 2.301-2.589 3.477-.77 1.075-.709 1.617.247 2.55z"/></symbol><symbol id="icon-teacher-mark" viewBox="0 0 40 32"><path d="M34.458 1.514a29.4 29.4 0 00-4.266 2.379c-2.731 1.797-5.227 3.936-7.568 6.218a85.06 85.06 0 00-6.458 7.12l-.125.16c-.515.637-2.822 3.472-2.822 3.472L3.622 6.481 0 16.524l12.976 15.477c1.261-2.552 2.474-5.07 3.664-7.258.294-.557.605-1.08.901-1.613 0 0 1.523-2.677 1.923-3.35 1.602-2.698 3.333-5.325 5.238-7.821 1.909-2.491 3.984-4.87 6.336-6.96a28.318 28.318 0 013.64-2.807l.11-.067C36.119 1.277 37.535.535 39.049 0c-1.574.31-3.112.848-4.592 1.514z"/></symbol><symbol id="icon-fire" viewBox="0 0 23 32"><path d="M21.909 16.593c-.285-.636-.675-1.261-1.248-1.984-1.442-1.813-1.882-5.856-1.887-5.895a.49.49 0 00-.334-.411l-.003-.001a.493.493 0 00-.518.141c-1.721 1.924-.997 4.896-.606 6.084.107.325.224.708.308 1.097.635 3.136-.592 4.557-.88 4.843-.279.078-.469.039-.645-.149-.607-.665-.807-2.842-.523-5.678a5.936 5.936 0 00-.044-1.615l.005.034c-.598-3.486-2.791-5.723-3.349-6.507-1.536-2.269-1.692-6.046-1.696-6.08A.488.488 0 009.725.09l.002-.001C7.165 1.831 7.385 6.025 7.742 8.366c.083.544.244 1.095.523 1.794.992 2.496-.195 5.722-.205 5.749-.011.03-.02.053-.025.083-.151.796-.405 1.27-.69 1.27a.332.332 0 01-.095-.016l.002.001c-.347-.073-.528-.441-.533-.761-.019-4.135-4.17-5.527-4.213-5.542s-.096-.023-.149-.023a.49.49 0 00-.369.169l-.001.001a.474.474 0 00-.067.536l-.001-.003c.049.101.205.547.098 2.123a18.128 18.128 0 01-.803 4.288l.035-.128c-.988 3.221-.832 6.271-.821 6.416.759 8.258 12.635 9.705 19.682 5.053.773-.51 1.404-1.091 1.868-1.731 2.602-3.588 1.071-8.461-.068-11.051zM3.843 24.48l.001.025a.484.484 0 01-.459.484h-.034a.486.486 0 01-.485-.454v-.001c-.044-.707-.034-1.45.019-2.254a.494.494 0 01.524-.451h-.001a.488.488 0 01.456.487l-.001.032v-.001a15.615 15.615 0 00-.019 2.133zm.239-4.295a.485.485 0 01-.482.427h-.002c-.02 0-.039 0-.064-.005a.49.49 0 01-.425-.54v.002l.235-1.872a.495.495 0 01.551-.421h-.002a.486.486 0 01.425.543l-.235 1.867zM18.601 6.634a.486.486 0 01-.408-.555v.003c.032-.197.208-1.205.687-1.713a.488.488 0 01.691-.021.48.48 0 01.021.685c-.203.214-.374.829-.432 1.197a.489.489 0 01-.561.405h.003zM.779 9.049c-.095-.361-.327-.956-.551-1.15a.481.481 0 01-.044-.684.49.49 0 01.691-.045H.874c.527.458.802 1.444.851 1.637a.484.484 0 01-.349.589l-.003.001a.49.49 0 01-.594-.346l-.001-.003z"/></symbol></defs></svg>