<svg aria-hidden="true" style="position: absolute; width: 0; height: 0; overflow: hidden;" version="1.1" xmlns="http://www.w3.org/2000/svg" xmlns:xlink="http://www.w3.org/1999/xlink">
<defs>
<symbol id="icon-github-1" viewBox="0 0 32 32">
<path fill="#fea5bb" style="fill: var(--color1, #fea5bb)" d="M32 16c0 8.837-7.163 16-16 16s-16-7.163-16-16c0-8.837 7.163-16 16-16s16 7.163 16 16z"></path>
<path fill="#fff" style="fill: var(--color2, #fff)" d="M16 6.588c-5.17 0-9.412 4.242-9.412 9.412 0 4.411 3.096 8.419 7.206 9.412v-3.113c-0.408 0.088-0.781 0.091-1.196-0.031-0.556-0.164-1.008-0.535-1.344-1.099-0.214-0.36-0.593-0.753-0.988-0.724l-0.097-1.098c0.856-0.073 1.594 0.521 2.033 1.258 0.196 0.328 0.421 0.52 0.709 0.605 0.278 0.083 0.577 0.043 0.925-0.080 0.088-0.697 0.408-0.958 0.649-1.327-2.452-0.365-3.429-1.666-3.816-2.692-0.514-1.364-0.238-3.066 0.67-4.143 0.018-0.021 0.050-0.075 0.038-0.113-0.417-1.259 0.090-2.3 0.109-2.41 0.481 0.141 0.559-0.143 2.089 0.786l0.264 0.159c0.111 0.066 0.075 0.028 0.186 0.019 0.59-0.166 1.269-0.266 1.97-0.276l0.006-0c0.668 0.008 1.336 0.104 2.002 0.284l0.086 0.009c-0.008-0.002 0.024-0.006 0.075-0.037 1.911-1.158 1.842-0.779 2.355-0.946 0.019 0.111 0.519 1.169 0.106 2.411-0.056 0.171 1.656 1.739 0.708 4.256-0.388 1.026-1.365 2.328-3.816 2.693 0.314 0.48 0.692 0.734 0.69 1.722v3.886c4.109-0.993 7.206-5 7.206-9.412 0-5.17-4.242-9.412-9.412-9.412z"></path>
</symbol>
<symbol id="icon-telegram-1" viewBox="0 0 32 32">
<path fill="#fea5bb" style="fill: var(--color1, #fea5bb)" d="M32 16c0 8.837-7.163 16-16 16s-16-7.163-16-16c0-8.837 7.163-16 16-16s16 7.163 16 16z"></path>
<path fill="#fff" style="fill: var(--color2, #fff)" d="M12.867 18.376l-0.317 4.169c0.455 0 0.651-0.183 0.888-0.401l2.13-1.901 4.414 3.018c0.81 0.421 1.381 0.199 1.6-0.696l2.897-12.673c0.258-1.117-0.433-1.554-1.221-1.28l-17.032 6.086c-1.162 0.422-1.145 1.026-0.198 1.301l4.355 1.264 10.114-5.907c0.476-0.295 0.909-0.132 0.553 0.163l-8.182 6.856z"></path>
</symbol>
<symbol id="icon-facebook-1" viewBox="0 0 32 32">
<path fill="#fea5bb" style="fill: var(--color1, #fea5bb)" d="M16 32c8.837 0 16-7.163 16-16s-7.163-16-16-16-16 7.163-16 16 7.163 16 16 16z"></path>
<path fill="#fff" style="fill: var(--color2, #fff)" d="M20.446 15.981h-2.611v9.619h-3.955v-9.619h-1.88v-3.379h1.88v-2.187c0-1.564 0.739-4.014 3.991-4.014l2.929 0.012v3.281h-2.125c-0.348 0-0.839 0.176-0.839 0.922v1.989h2.955l-0.345 3.377z"></path>
</symbol>
<symbol id="icon-menu" viewBox="0 0 32 32">
<path d="M2 6h28v6h-28zM2 14h28v6h-28zM2 22h28v6h-28z"></path>
</symbol>
<symbol id="icon-Vector-1" viewBox="0 0 26 32">
<path fill="none" stroke="#fff" style="stroke: var(--color1, #fff)" stroke-linejoin="round" stroke-linecap="round" stroke-miterlimit="4" stroke-width="6.4" d="M5.173 3.2l14.169 12.8-14.169 12.8"></path>
</symbol>
<symbol id="icon-close" viewBox="0 0 32 32">
<path fill="none" stroke="#fff" style="stroke: var(--color1, #fff)" stroke-linejoin="miter" stroke-linecap="butt" stroke-miterlimit="4" stroke-width="2" d="M2.519 2l26.963 28"></path>
<path fill="none" stroke="#fff" style="stroke: var(--color1, #fff)" stroke-linejoin="miter" stroke-linecap="butt" stroke-miterlimit="4" stroke-width="2" d="M2 29.481l28-26.963"></path>
</symbol>
<symbol id="icon-Vector-1-3-1" viewBox="0 0 22 32">
<path fill="none" stroke="#d41443" style="stroke: var(--color1, #d41443)" stroke-linejoin="round" stroke-linecap="round" stroke-miterlimit="4" stroke-width="6.4" d="M5.040 3.2l13.226 12.8-13.226 12.8"></path>
</symbol>
<symbol id="icon-Vectoralb" viewBox="0 0 26 32">
<path fill="none" stroke="#fff" style="stroke: var(--color1, #fff)" stroke-linejoin="round" stroke-linecap="round" stroke-miterlimit="4" stroke-width="6.4" d="M5.171 3.2l14.17 12.8-14.17 12.8"></path>
</symbol>
<symbol id="icon-Vectorbordo" viewBox="0 0 22 32">
<path fill="none" stroke="#d41443" style="stroke: var(--color2, #d41443)" stroke-linejoin="round" stroke-linecap="round" stroke-miterlimit="4" stroke-width="6.4" d="M5.040 3.2l13.226 12.8-13.226 12.8"></path>
</symbol>
</defs>
</svg>
