<svg aria-hidden="true" style="position: absolute; width: 0; height: 0; overflow: hidden;" version="1.1" xmlns="http://www.w3.org/2000/svg" xmlns:xlink="http://www.w3.org/1999/xlink">
<defs>
<symbol id="icon-slider-left" viewBox="0 0 32 32">
<path d="M12.918 16.007l11.971-11.972c0.33-0.329 0.511-0.769 0.511-1.237s-0.181-0.909-0.511-1.238l-1.049-1.048c-0.329-0.33-0.769-0.511-1.238-0.511s-0.908 0.182-1.238 0.511l-14.254 14.253c-0.331 0.33-0.512 0.772-0.51 1.241-0.001 0.471 0.179 0.912 0.51 1.243l14.24 14.239c0.329 0.33 0.769 0.511 1.238 0.511s0.908-0.182 1.238-0.511l1.049-1.048c0.682-0.682 0.682-1.793 0-2.475l-11.958-11.958z"></path>
</symbol>
<symbol id="icon-slider-right" viewBox="0 0 32 32">
<path d="M24.889 14.751l-14.24-14.24c-0.329-0.33-0.769-0.511-1.238-0.511s-0.908 0.182-1.238 0.511l-1.049 1.048c-0.682 0.683-0.682 1.794 0 2.476l11.958 11.958-11.971 11.971c-0.329 0.33-0.511 0.769-0.511 1.238s0.182 0.908 0.511 1.238l1.049 1.048c0.33 0.33 0.769 0.511 1.238 0.511s0.908-0.182 1.238-0.511l14.254-14.253c0.33-0.331 0.511-0.772 0.51-1.242 0.001-0.471-0.18-0.912-0.51-1.243z"></path>
</symbol>
</defs>
</svg>
