<svg xmlns="http://www.w3.org/2000/svg" viewBox="0 0 297 297"><path d="M274.968 198.717c-11.991-4.253-22.107-3.189-30.092.168 1.342-8.142 4.365-17.003 10.855-23.024 4.002-3.712 4.236-9.965.524-13.967-3.71-4.001-9.964-4.236-13.967-.524-11.408 10.582-15.83 25.509-17.393 37.877a37.637 37.637 0 00-9.818-2.89l17.543-91.231a9.881 9.881 0 00-9.706-11.75h-1.894c.87-4.645 1.309-9.256 1.274-13.642-.147-18.504-8.383-32.442-22.031-37.283-13.084-4.642-24.035-3.247-32.549.613 1.35-9.056 4.587-19.151 11.896-25.931 4.002-3.712 4.236-9.965.524-13.967-3.71-4.001-9.965-4.236-13.967-.524-12.254 11.368-16.845 27.521-18.394 40.711-6.821-3.231-15.256-4.887-25.138-3.065C112.48 25.704 98.384 18.982 84.68 22.267c-13.471 3.235-21.885 10.352-26.924 18.211-3.807-8.346-6.608-18.575-4.192-28.179C54.895 7.005 51.683 1.635 46.39.303c-5.296-1.335-10.664 1.88-11.996 7.174-4.077 16.208.878 32.258 6.768 44.161-9.431 1.274-19.651 6.03-28.295 17.318-5.367 7.01-7.178 15.761-5.531 25.055a9.88 9.88 0 00-4.165 2.954 9.885 9.885 0 00-2.086 8.161l35.353 183.857A9.884 9.884 0 0046.144 297H187.56a9.884 9.884 0 009.706-8.017l.348-1.809c2.665 1.836 5.528 3.372 8.601 4.517 11.753 4.376 22.707 2.58 28.25 1.095a49.455 49.455 0 0012.658 1.659c4.698 0 10.057-.692 15.591-2.754 21.908-8.162 33.547-35.634 33.375-57.34-.138-17.671-8.034-30.992-21.121-35.634zm-64.521-85.574c-4.551 43.672-41.321 73.41-92.544 73.41s-87.993-29.739-92.544-73.41h185.088zm-61.648-43.395c1.71 3.235 4.974 5.26 8.636 5.26s6.925-2.025 8.636-5.26c.269-.446 2.693-4.324 7.139-7.21 5.839-3.788 12.526-4.265 20.444-1.457 7.896 2.8 8.835 14.087 8.873 18.809.034 4.302-.597 8.924-1.769 13.485h-66.135c2.187-11.04.874-23.127-2.681-34.05 3.495.203 6.718 1.269 9.716 3.213 4.448 2.886 6.87 6.763 7.141 7.21zM28.563 80.972c5.107-6.669 10.973-9.914 17.935-9.921h.019c5.294 0 9.431 1.927 9.897 2.153 3.164 1.759 6.95 1.598 10.011-.346 3.074-1.954 4.734-5.49 4.465-9.123-.053-.715-1.072-17.573 18.406-22.249 8.133-1.956 15.086 6.994 17.692 10.934 7.492 11.327 11.336 28.843 7.21 40.954H27.429c-1.307-4.107-1.659-8.753 1.134-12.402zM54.31 277.233L34.718 175.347a98.193 98.193 0 003.967 3.61c20.491 17.645 48.625 27.363 79.218 27.363s58.727-9.717 79.218-27.363c.478-.411.945-.832 1.413-1.251l-4.003 20.82c-.19.065-.377.124-.568.191-13.087 4.642-20.983 17.963-21.122 35.634-.086 10.807 2.759 23.042 8.338 33.612l-1.782 9.27H54.31zm201.504-4.065c-8.756 3.261-17.457.162-17.781.044-2.317-.897-4.812-.919-7.126-.003-.088.034-8.911 3.266-17.79-.042-12.414-4.624-20.628-23.724-20.51-38.66.035-4.323.878-14.648 7.964-17.161 3.243-1.15 6.139-1.622 8.714-1.622 10.279 0 15.383 7.535 16.54 9.506 1.707 3.248 4.97 5.282 8.641 5.282 3.672 0 6.934-2.036 8.641-5.282 1.447-2.464 9.064-13.624 25.254-7.884 7.085 2.512 7.929 12.838 7.964 17.161.117 14.937-8.097 34.037-20.511 38.661z"/></svg>