<svg id="Capa_1" enable-background="new 0 0 512 512" height="512" viewBox="0 0 512 512" width="512" xmlns="http://www.w3.org/2000/svg"><g><g><path d="m389.01 188.539c.003.112 0-.111 0 0z"/><path d="m390.025 232.046c-1.886-2.545-4.867-4.046-8.035-4.046h-4.919c7.613-11.436 11.938-25.356 11.938-39.461-.548-16.371-8.305-31.91-21.277-42.341-2.27-1.826-4.659-3.451-7.133-4.891 2.442-6.385 3.69-13.105 3.69-20.019 0-7.572-1.485-14.922-4.414-21.848-7.426-17.556-23.509-29.54-41.809-32.64.307-2.456.464-4.936.464-7.433.001-32.735-26.632-59.367-59.367-59.367-5.523 0-10 4.477-10 10 0 6.879-5.597 12.477-12.477 12.477h-23.194c-32.642 0-59.635 26.179-60.171 58.356-.099 5.92.657 11.692 2.242 17.256-16.182 9.586-26.519 27.201-26.519 46.471 0 11.064 3.318 21.614 9.464 30.533-9.121 8.063-15.01 19.709-15.518 32.467-.005.132-.008.265-.008.398 0 7.143 1.61 14.089 4.549 20.363-2.201.564-4.173 1.861-5.555 3.726-1.886 2.545-2.455 5.834-1.532 8.865l19.476 64c1.281 4.211 5.166 7.089 9.567 7.089h11.375l28.764 191.485c.735 4.895 4.94 8.515 9.889 8.515h112.972c4.949 0 9.154-3.62 9.889-8.515l8.336-55.497c.82-5.461-2.942-10.554-8.404-11.375-5.458-.819-10.554 2.942-11.375 8.404l-7.057 46.982h-95.752l-27.039-180h149.829l-6.611 44.011c-.82 5.461 2.942 10.554 8.404 11.375 5.458.819 10.554-2.942 11.375-8.404l7.057-46.982h11.375c4.401 0 8.286-2.878 9.567-7.089l19.476-64c.922-3.031.354-6.319-1.532-8.865zm-176.532-189.569h23.194c14.106 0 26.141-9.04 30.614-21.631 17.816 3.759 31.23 19.604 31.23 38.522 0 2.6-.256 5.169-.753 7.686-.08.016-123.217 24.631-123.217 24.631-.876-3.4-1.302-6.915-1.242-10.518.355-21.334 18.377-38.69 40.174-38.69zm-42.51 70.318 130.476-26.088c16.732-3.345 33.551 5.287 39.996 20.524 1.88 4.447 2.834 9.176 2.834 14.057 0 4.56-.842 8.981-2.483 13.167-6.393-1.106-12.97-1.116-19.455.083l-162.384 30.027c-1.27.235-2.521.525-3.75.866-4.646-5.941-7.174-13.21-7.174-20.871 0-14.102 8.798-26.783 21.94-31.765zm184.121 179.205h-198.208l-13.39-44h224.988zm-4.848-64h-198.747c-5.272-4.999-8.472-12.336-8.527-19.842.557-11.583 9.389-21.849 20.622-23.926l162.384-30.027c10.226-1.892 20.872.872 29.211 7.579 8.385 6.743 13.414 16.609 13.812 27.092-.051 15.331-7.159 30.012-18.755 39.124z"/><circle cx="327.51" cy="402" r="10"/></g></g></svg>