<svg id="Capa_1" enable-background="new 0 0 512 512" height="512" viewBox="0 0 512 512" width="512" xmlns="http://www.w3.org/2000/svg"><g><path d="m397.176 150.408h-3.566c-4.53-32.121-20.184-61.651-44.42-83.57-19.759-17.87-44.005-29.53-69.925-33.915v-20.423c0-6.893-5.607-12.5-12.5-12.5h-21.529c-6.893 0-12.5 5.607-12.5 12.5v20.423c-25.92 4.384-50.166 16.045-69.925 33.915-24.236 21.919-39.89 51.449-44.42 83.57h-3.566c-9.226 0-16.731 7.505-16.731 16.731v15.146c0 9.226 7.505 16.731 16.731 16.731h4.731l30.846 269.24c.864 7.539 6.57 13.444 13.8 14.768v11.994c0 9.364 7.619 16.983 16.983 16.983h149.634c9.364 0 16.983-7.619 16.983-16.983v-11.995c7.228-1.324 12.932-7.23 13.796-14.767l30.846-269.239h4.731c9.226 0 16.731-7.505 16.731-16.731v-15.146c.001-9.227-7.505-16.732-16.73-16.732zm-58.048-72.445c21.096 19.079 34.905 44.612 39.318 72.445h-99.182v-102.247c22.176 4.222 42.879 14.441 59.864 29.802zm-91.393-62.963h16.529v16.219c-2.744-.162-5.499-.253-8.265-.253s-5.521.091-8.265.253v-16.219zm-74.863 62.963c16.985-15.361 37.688-25.58 59.864-29.802v27.562c0 4.142 3.358 7.5 7.5 7.5s7.5-3.358 7.5-7.5v-29.48c2.742-.182 5.498-.277 8.265-.277s5.522.095 8.265.277v104.165h-16.529v-38.395c0-4.142-3.358-7.5-7.5-7.5s-7.5 3.358-7.5 7.5v38.395h-99.182c4.411-27.833 18.221-53.366 39.317-72.445zm157.947 419.037h-149.634c-1.093 0-1.983-.89-1.983-1.983v-11.712h153.6v11.712c0 1.093-.89 1.983-1.983 1.983zm-25.566-44.709c-13.604 11.049-30.734 16.708-48.354 15.941-17.989-.781-34.915-8.229-47.657-20.971s-20.19-29.668-20.971-47.657c-.765-17.611 4.892-34.75 15.941-48.354l9.036 9.036c-17.955 23.186-16.314 56.746 4.955 78.015 11.533 11.534 26.683 17.3 41.833 17.3 12.789 0 25.569-4.126 36.182-12.345zm41.443 14.256c-.115 1.002-.962 1.757-1.97 1.757h-35.91c2.282-1.553 4.505-3.21 6.647-4.989 3.089-2.567 4.967-6.334 5.151-10.335.183-3.974-1.325-7.866-4.139-10.68l-38.46-38.46c-2.929-2.929-7.678-2.929-10.606 0-2.929 2.929-2.929 7.678 0 10.606l18.091 18.091c-17.227 12.173-41.28 10.566-56.69-4.843-15.41-15.41-17.017-39.464-4.843-56.69l17.782 17.782c2.929 2.929 7.678 2.929 10.606 0 2.929-2.929 2.929-7.678 0-10.606l-38.152-38.152c-2.813-2.813-6.704-4.318-10.68-4.138-4.001.184-7.768 2.062-10.336 5.151-13.772 16.574-20.84 37.604-19.902 59.214.944 21.749 9.947 42.21 25.351 57.613 3.9 3.9 8.125 7.385 12.612 10.438h-43.973c-1.008 0-1.855-.755-1.97-1.757l-24.967-217.924h231.326zm52.211-284.262c0 .955-.776 1.731-1.731 1.731h-68.42c-4.142 0-7.5 3.358-7.5 7.5s3.358 7.5 7.5 7.5h48.591l-3.965 34.608h-234.764l-3.965-34.608h157.813c4.142 0 7.5-3.358 7.5-7.5s-3.358-7.5-7.5-7.5h-177.642c-.955 0-1.731-.776-1.731-1.731v-15.146c0-.955.776-1.731 1.731-1.731h282.352c.955 0 1.731.776 1.731 1.731z"/><path d="m234.671 395.858-1.732.733c-3.814 1.614-5.599 6.016-3.984 9.83 1.211 2.861 3.988 4.579 6.911 4.579.975 0 1.965-.191 2.919-.595l1.732-.733c3.814-1.614 5.599-6.016 3.984-9.83s-6.014-5.596-9.83-3.984z"/><path d="m256.659 412c-3.815-1.613-8.215.17-9.83 3.984l-.733 1.732c-1.614 3.814.17 8.216 3.984 9.83.954.403 1.945.595 2.919.595 2.922 0 5.7-1.719 6.911-4.579l.733-1.732c1.615-3.814-.169-8.215-3.984-9.83z"/><path d="m300.954 283.324h-.104c-4.142 0-7.5 3.358-7.5 7.5s3.358 7.5 7.5 7.5h.104c4.142 0 7.5-3.358 7.5-7.5s-3.358-7.5-7.5-7.5z"/><path d="m271.852 295.82h-.104c-.012 0-.024 0-.036 0-4.125 0-7.479 3.334-7.499 7.465-.02 4.142 3.323 7.516 7.465 7.535h.104.036c4.125 0 7.479-3.334 7.499-7.465.019-4.142-3.323-7.515-7.465-7.535z"/><path d="m299.842 351.445h-.104c-.012 0-.024 0-.036 0-4.125 0-7.479 3.334-7.499 7.465-.02 4.142 3.323 7.516 7.465 7.535h.104.036c4.125 0 7.479-3.334 7.499-7.465.02-4.142-3.323-7.515-7.465-7.535z"/></g></svg>