<svg aria-hidden="true" style="position: absolute; width: 0; height: 0; overflow: hidden;" version="1.1" xmlns="http://www.w3.org/2000/svg" xmlns:xlink="http://www.w3.org/1999/xlink">
    <defs>
        <symbol id="icon-dairi" viewBox="0 0 23 32">
            <path  d="M5.241 26.924c-0.441-1.379-2.483-12.966-2.483-14.124 0-1.214 0.166-1.214 8.552-1.214h8.552l-0.055 1.545c0 0.828-0.552 4.359-1.214 7.834l-1.269 6.345-5.903 0.166c-4.469 0.11-5.959-0.055-6.179-0.552zM16.993 22.234c0.331-2.041 0.552-3.807 0.386-3.917-0.11-0.11-0.828 0.221-1.655 0.772-1.931 1.269-6.897 1.269-8.828 0-0.828-0.552-1.545-0.883-1.655-0.772-0.166 0.11 0.055 1.876 0.386 3.917l0.607 3.697h10.152l0.607-3.697zM16.552 16.772c0.828-0.883 1.71-2.152 1.931-2.814l0.331-1.269h-15.007l0.331 1.269c0.497 1.49 2.372 3.641 3.862 4.303 0.607 0.276 2.428 0.386 4.028 0.331 2.372-0.166 3.255-0.497 4.524-1.821z"></path>
            <path d="M9.71 9.269c-0.166-0.386-0.331-1.103-0.497-1.545-0.166-0.552-0.938-0.828-2.648-0.828h-2.428v-6.621h14.345v6.621h-2.428c-2.207 0-2.538 0.166-2.814 1.379-0.221 0.993-0.772 1.434-1.821 1.545-0.883 0.11-1.6-0.11-1.71-0.552zM12.138 7.448c0-1.71 2.428-2.924 3.972-1.986 1.214 0.772 1.931-0.221 0.993-1.324-0.386-0.441-0.552-1.214-0.331-1.655 0.276-0.717-0.552-0.828-5.462-0.828s-5.738 0.11-5.462 0.828c0.221 0.441 0.055 1.214-0.331 1.655-0.938 1.103-0.221 2.097 0.993 1.324 1.545-0.938 3.972 0.276 3.972 1.986 0 0.883 0.331 1.379 0.828 1.379s0.828-0.497 0.828-1.379z"></path>
        </symbol>
        <symbol id="icon-vector" viewBox="0 0 32 32">
            <path d="M32 3.223l-3.223-3.223-12.777 12.777-12.777-12.777-3.223 3.223 12.777 12.777-12.777 12.777 3.223 3.223 12.777-12.777 12.777 12.777 3.223-3.223-12.777-12.777 12.777-12.777z"></path>
        </symbol>
        <symbol id="icon-apples" viewBox="0 0 32 32">
            <path d="M29.626 21.411c-1.292-0.458-2.382-0.344-3.242 0.018 0.145-0.877 0.47-1.832 1.17-2.481 0.431-0.4 0.456-1.074 0.056-1.505s-1.074-0.456-1.505-0.056c-1.229 1.14-1.706 2.748-1.874 4.081-0.307-0.142-0.662-0.25-1.035-0.308l-0.023-0.003 1.89-9.83c0.012-0.061 0.019-0.13 0.019-0.201 0-0.588-0.477-1.065-1.065-1.065-0 0-0 0-0 0h-0.204c0.094-0.5 0.141-0.997 0.137-1.47-0.016-1.994-0.903-3.495-2.374-4.017-1.41-0.5-2.59-0.35-3.507 0.066 0.145-0.976 0.494-2.063 1.282-2.794 0.431-0.4 0.456-1.074 0.056-1.505s-1.074-0.456-1.505-0.056c-1.32 1.225-1.815 2.965-1.982 4.386-0.735-0.348-1.644-0.527-2.708-0.33-1.094-1.571-2.613-2.296-4.089-1.942-1.451 0.349-2.358 1.115-2.901 1.962-0.41-0.899-0.712-2.001-0.452-3.036 0.143-0.57-0.203-1.149-0.773-1.292s-1.149 0.203-1.292 0.773c-0.439 1.746 0.095 3.476 0.729 4.758-1.016 0.137-2.117 0.65-3.049 1.866-0.578 0.755-0.773 1.698-0.596 2.7-0.18 0.068-0.331 0.177-0.447 0.317l-0.001 0.002c-0.152 0.183-0.244 0.42-0.244 0.678 0 0.071 0.007 0.141 0.020 0.208l-0.001-0.007 3.809 19.809c0.098 0.495 0.529 0.864 1.046 0.864h15.237c0.517 0 0.948-0.368 1.045-0.857l0.001-0.007 0.038-0.195c0.287 0.198 0.596 0.363 0.927 0.487 1.266 0.471 2.447 0.278 3.044 0.118 0.409 0.113 0.879 0.178 1.364 0.179h0c0.506 0 1.084-0.075 1.68-0.297 2.36-0.879 3.614-3.839 3.596-6.178-0.015-1.904-0.866-3.339-2.276-3.839zM22.674 12.191c-0.49 4.705-4.452 7.91-9.971 7.91s-9.481-3.204-9.971-7.91h19.942zM16.032 7.515c0.184 0.349 0.536 0.567 0.93 0.567s0.746-0.218 0.93-0.567c0.029-0.048 0.29-0.466 0.769-0.777 0.629-0.408 1.35-0.46 2.203-0.157 0.851 0.302 0.952 1.518 0.956 2.027 0.004 0.463-0.064 0.962-0.191 1.453h-7.126c0.236-1.19 0.094-2.492-0.289-3.669 0.377 0.022 0.724 0.137 1.047 0.346 0.479 0.311 0.74 0.729 0.769 0.777zM3.078 8.724c0.55-0.719 1.182-1.068 1.932-1.069h0.002c0.57 0 1.016 0.208 1.066 0.232 0.341 0.19 0.749 0.172 1.079-0.037 0.331-0.211 0.51-0.591 0.481-0.983-0.006-0.077-0.115-1.893 1.983-2.397 0.876-0.211 1.625 0.754 1.906 1.178 0.807 1.22 1.221 3.108 0.777 4.413h-9.349c-0.141-0.443-0.179-0.943 0.122-1.336zM5.852 29.87l-2.111-10.978c0.132 0.127 0.272 0.254 0.414 0.378l0.013 0.011c2.208 1.901 5.239 2.948 8.535 2.948s6.328-1.047 8.535-2.948c0.052-0.044 0.102-0.090 0.152-0.135l-0.431 2.243c-0.020 0.007-0.041 0.013-0.061 0.021-1.41 0.5-2.261 1.935-2.276 3.839-0.009 1.164 0.297 2.483 0.898 3.622l-0.192 0.999h-13.477zM27.562 29.432c-0.943 0.351-1.881 0.017-1.916 0.005-0.25-0.097-0.518-0.099-0.768-0-0.009 0.004-0.96 0.352-1.917-0.005-1.338-0.498-2.223-2.556-2.21-4.165 0.004-0.466 0.095-1.578 0.858-1.849 0.349-0.124 0.661-0.175 0.939-0.175 1.107 0 1.657 0.812 1.782 1.024 0.184 0.35 0.535 0.569 0.931 0.569s0.747-0.219 0.931-0.569c0.156-0.265 0.977-1.468 2.721-0.849 0.763 0.271 0.854 1.383 0.858 1.849 0.013 1.609-0.872 3.667-2.21 4.166z"></path>
        </symbol>
        <symbol id="icon-arrow" viewBox="0 0 26 32">
            <path fill="none" stroke="#d41443" style="stroke: var(--color2, #d41443)" stroke-linejoin="round" stroke-linecap="round" stroke-miterlimit="4" stroke-width="6.4" d="M5.171 3.2l14.17 12.8-14.17 12.8"></path>
        </symbol>
        <symbol id="icon-choco-heart" viewBox="0 0 28 32">
            <path stroke-linejoin="miter" stroke-linecap="butt" stroke-miterlimit="4" stroke-width="0.64" d="M11.52 27.264v-4.736l-3.52-2.624c-5.824-4.416-8.448-9.472-7.232-13.888 1.536-5.76 7.488-7.424 11.904-3.328l1.408 1.344 1.472-1.344c4.352-4.096 10.304-2.432 11.84 3.328 1.216 4.416-1.408 9.472-7.232 13.888l-3.52 2.624v9.472h-5.12v-4.736zM15.36 26.88c0-3.392-0.128-3.84-1.28-3.84s-1.28 0.448-1.28 3.84 0.128 3.84 1.28 3.84 1.28-0.448 1.28-3.84zM19.008 19.264c1.664-1.344 3.776-3.2 4.608-4.16 1.408-1.472 1.472-1.728 0.576-2.752-0.512-0.64-1.152-1.664-1.344-2.304-0.64-1.728-1.92-1.024-2.432 1.28-0.512 2.624-1.088 3.392-2.432 3.392-1.536 0-2.432-1.152-2.752-3.52-0.128-1.152-0.576-1.92-1.152-1.92s-1.024 0.768-1.152 1.92c-0.32 2.368-1.216 3.52-2.752 3.52-1.344 0-1.92-0.768-2.432-3.392-0.512-2.304-1.792-3.008-2.432-1.28-0.192 0.64-0.832 1.664-1.344 2.304-0.896 1.024-0.832 1.28 0.576 2.752 3.2 3.52 7.744 6.656 9.536 6.656 1.152 0 2.944-0.896 4.928-2.496zM11.392 11.008c0.384-4.096 4.992-4.096 5.376 0.064 0.256 2.752 2.048 2.816 2.304 0 0.128-1.088 0.576-2.368 1.088-2.752 1.28-1.088 3.456-0.192 3.904 1.664 0.192 0.832 0.768 1.536 1.28 1.536 0.64 0 0.896-0.896 0.896-3.2 0-2.624-0.32-3.584-1.6-4.8-2.176-2.24-5.952-2.176-8 0-0.832 0.896-1.984 1.6-2.56 1.6s-1.728-0.704-2.56-1.6c-2.048-2.176-5.824-2.24-8 0-1.28 1.216-1.6 2.176-1.6 4.8 0 2.304 0.256 3.2 0.896 3.2 0.512 0 1.088-0.704 1.28-1.536 0.832-3.328 4.864-2.56 4.864 0.896 0 3.264 2.112 3.392 2.432 0.128z"></path>
        </symbol>
    </defs>
</svg>