<svg aria-hidden="true" style="position: absolute; width: 0; height: 0; overflow: hidden;" version="1.1" xmlns="http://www.w3.org/2000/svg" xmlns:xlink="http://www.w3.org/1999/xlink">
<defs>
<symbol id="icon-female" viewBox="0 0 27 32">
<path fill="#ff6b09" style="fill: var(--color1, #ff6b09)" d="M-0.103 31.759c3.441 0 23.348 0 26.785 0 0.133-3.055-0.086-8.122-1.964-10.535l-0.068-0.087-4.104-2.060c0.089-0.301 0.133-0.576 0.151-0.778 0.020-0.243-0.013-0.471-0.1-0.678-0.677-1.62-2.11-2.472-2.898-2.836 0.24-0.484 0.395-1.003 0.47-1.534 0.446-0.126 0.805-0.479 0.923-0.951l0.479-1.946c0.085-0.343 0.032-0.699-0.151-1.002-0.078-0.131-0.18-0.24-0.294-0.334 1.351-3.068-0.911-5.96-1.035-6.113-2.45-2.649-5.544-2.153-5.708-2.124-4.466 0.935-6.19 4.358-5.217 8.372-0.288 0.319-0.409 0.764-0.302 1.2l0.481 1.948c0.117 0.468 0.473 0.82 0.916 0.948 0.137 0.972 0.548 1.851 1.152 2.559v1.543c-6.409 3.282-2.348 1.188-7.484 3.786-0.010 0.048-2.41 2.599-2.053 10.159l0.022 0.462zM25.751 30.789h-4.408v-1.852l2.916-6.675c1.461 2.424 1.515 7.053 1.493 8.526zM19.735 18.216c-0.17 1.954-1.242 1.364-1.903 2.869-0.52-0.572-0.677-1.258-0.537-1.993 0.253-1.349-0.57-1.749-0.367-3.166l0.031-0.032v-0.005c0.018-0.020 0.18-0.213 0.227-0.274 1.744 0.76 2.584 2.174 2.55 2.6zM10.379 16.68c0.81 0.562 1.787 0.893 2.838 0.893 0.99 0 1.93-0.288 2.737-0.819 0.112 1.114 0.547 1.337 0.393 2.157-0.029 0.152-0.045 0.302-0.054 0.45l-3.002 3.384-3.838-4.327 0.926-0.484v-1.254zM9.172 12.54v-1.876c0-0.691 0-3.431 0-3.296 0.467-0.864 1.104-1.491 1.896-1.866 2.12 1.2 4.56 2.99 6.197 4.791-0.002 2.294 0.006 2.301-0.009 2.489l-0.001 0.012c-0.128 2.083-1.841 3.811-4.038 3.811-2.136 0-3.909-1.677-4.037-3.831-0.007-0.077-0.008-0.155-0.008-0.233zM8.574 18.886l4.716 5.317 3.166-3.569c0.072 0.208 0.174 0.405 0.29 0.595l-3.456 4.322-5.154-6.446 0.438-0.22zM18.23 11.759v-1.498c0.042-0.049 0.402-0.461 0.36-0.413 0.020 0.758 0.102-0.137-0.36 1.911zM12.562 1.734c0.192 0.012 2.765-0.391 4.799 1.804 0.080 0.1 1.736 2.234 1.071 4.567-0.228-1.038-0.625-2.369-1.252-3.004l-0.686 0.683c0.619 0.627 1.026 2.537 1.181 3.527-2.84-2.972-6.504-4.853-6.555-4.885-0.184 0.114-1.734 0.409-2.86 2.598l-0.054 0.105v1.607c-0.048 0.001-0.19 0.002-0.142 0.002-0.716-3.454 0.655-6.198 4.497-7.004zM7.962 9.736l0.244 0.987v1.038l-0.405-1.639c-0.059-0.244 0.122-0.337 0.161-0.386zM7.252 19.55l6.038 7.551 4.085-5.109c0.444 0.398 0.658 0.454 1.6 0.939l-0.318-1.078c-0.081-0.274 0.239-0.713 0.431-0.914 0.43-0.233 0.789-0.566 1.057-0.977l3.333 1.674-3.101 7.1v2.055h-14.176v-2.055l-3.103-7.099 4.153-2.085zM2.32 22.265l2.916 6.673v1.852h-4.408c-0.022-1.473 0.033-6.099 1.492-8.524z"></path>
</symbol>
</defs>
</svg>
