<svg aria-hidden="true" style="position: absolute; width: 0; height: 0; overflow: hidden;" version="1.1" xmlns="http://www.w3.org/2000/svg" xmlns:xlink="http://www.w3.org/1999/xlink">
<defs>
<symbol id="icon-note" viewBox="0 0 31 32">
<path fill="#ff6b09" style="fill: var(--color1, #ff6b09)" d="M30.151 4.961c0-0.001-0.001-0.001-0.001-0.002-0.007-0.016-0.015-0.031-0.024-0.045-0.001-0.001-0.002-0.002-0.002-0.003-0.010-0.015-0.021-0.029-0.034-0.042l-4.806-4.806c-0.013-0.013-0.026-0.023-0.041-0.033-0.003-0.002-0.006-0.004-0.009-0.006-0.012-0.007-0.024-0.014-0.036-0.019-0.004-0.002-0.007-0.003-0.011-0.005-0.031-0.013-0.065-0.019-0.099-0.020-0.002 0-0.004-0-0.005-0h-21.171c-0.157 0-0.284 0.127-0.284 0.284v29.311c0 0.019 0.002 0.037 0.006 0.056 0.002 0.008 0.005 0.015 0.007 0.023 0.003 0.010 0.006 0.020 0.009 0.030 0.004 0.009 0.009 0.017 0.014 0.026 0.004 0.007 0.008 0.016 0.013 0.023 0.010 0.014 0.021 0.028 0.033 0.040 0.001 0.001 0.001 0.002 0.003 0.003l2.165 2.164c0.111 0.111 0.29 0.111 0.402 0l1.964-1.963 1.964 1.963c0.055 0.056 0.128 0.083 0.201 0.083s0.145-0.027 0.201-0.083l1.963-1.963 1.965 1.963c0.111 0.111 0.291 0.111 0.402 0l1.963-1.963 1.963 1.963c0.111 0.111 0.291 0.111 0.401 0l1.965-1.963 1.964 1.963c0.055 0.056 0.128 0.083 0.201 0.083s0.145-0.027 0.201-0.083l1.963-1.963 1.965 1.963c0.111 0.111 0.291 0.111 0.401 0l2.165-2.164c0.004-0.004 0.007-0.009 0.011-0.014 0.008-0.009 0.017-0.019 0.024-0.029 0.007-0.009 0.011-0.020 0.016-0.030 0.003-0.007 0.007-0.012 0.009-0.019 0.006-0.013 0.009-0.026 0.012-0.039 0.001-0.005 0.003-0.009 0.005-0.013 0.004-0.020 0.006-0.038 0.006-0.058v-24.503c-0.001-0.037-0.008-0.074-0.023-0.109zM25.367 0.949l3.836 3.835h-3.836v-3.835zM29.604 29.456l-1.88 1.88-1.965-1.963c-0.111-0.111-0.29-0.111-0.401 0l-1.963 1.963-1.964-1.963c-0.111-0.111-0.291-0.111-0.402 0l-1.965 1.963-1.963-1.962c0-0-0-0.001-0-0.001-0.055-0.055-0.128-0.083-0.201-0.083s-0.145 0.028-0.201 0.083c-0 0-0 0-0 0l-1.963 1.963-1.965-1.963c-0.111-0.111-0.29-0.111-0.402 0l-1.963 1.963-1.964-1.963c-0.111-0.111-0.29-0.111-0.402 0l-1.965 1.963-1.88-1.88v-28.909h20.603v4.522c0 0.157 0.127 0.284 0.284 0.284h4.521l0 24.103z"></path>
<path fill="#ff6b09" style="fill: var(--color1, #ff6b09)" d="M6.314 3.234h9.303c0.157 0 0.284-0.127 0.284-0.284s-0.127-0.284-0.284-0.284h-9.303c-0.157 0-0.284 0.127-0.284 0.284s0.127 0.284 0.284 0.284z"></path>
<path fill="#ff6b09" style="fill: var(--color1, #ff6b09)" d="M6.314 4.991h14.919c0.157 0 0.284-0.127 0.284-0.284s-0.127-0.284-0.284-0.284h-14.919c-0.157 0-0.284 0.127-0.284 0.284s0.127 0.284 0.284 0.284z"></path>
<path fill="#ff6b09" style="fill: var(--color1, #ff6b09)" d="M6.030 6.568v9.199c0 0.157 0.127 0.284 0.284 0.284h21.172c0.157 0 0.284-0.127 0.284-0.284v-9.199c0-0.157-0.127-0.284-0.284-0.284h-21.172c-0.157 0-0.284 0.127-0.284 0.284zM12.308 6.852h14.893v2.445h-14.893v-2.445zM12.308 9.865h14.893v2.444h-14.893v-2.444zM12.308 12.877h14.893v2.605h-14.893v-2.605zM6.598 6.852h5.142v2.445h-5.142v-2.445zM6.598 9.865h5.142v2.444h-5.142v-2.444zM6.598 12.877h5.142v2.605h-5.142v-2.605z"></path>
<path fill="#ff6b09" style="fill: var(--color1, #ff6b09)" d="M27.486 17.329h-21.172c-0.157 0-0.284 0.127-0.284 0.284v9.198c0 0.157 0.127 0.284 0.284 0.284s0.284-0.127 0.284-0.284v-2.889h5.142v2.889c0 0.157 0.127 0.284 0.284 0.284s0.284-0.127 0.284-0.284v-2.889h14.893v2.889c0 0.157 0.127 0.284 0.284 0.284s0.284-0.127 0.284-0.284v-9.198c0.001-0.157-0.126-0.284-0.283-0.284zM11.74 23.354h-5.142v-2.443h5.142v2.443zM11.74 20.342h-5.142v-2.444h5.142v2.444zM27.201 23.354h-14.893v-2.443h14.893v2.443zM27.201 20.342h-14.893v-2.444h14.893v2.444z"></path>
<path fill="#ff6b09" style="fill: var(--color1, #ff6b09)" d="M2.281-0.021c-0.157 0-0.284 0.127-0.284 0.284v29.311c0 0.157 0.127 0.284 0.284 0.284s0.284-0.127 0.284-0.284v-29.311c0-0.157-0.127-0.284-0.284-0.284z"></path>
<path fill="#ff6b09" style="fill: var(--color1, #ff6b09)" d="M0.718-0.021c-0.157 0-0.284 0.127-0.284 0.284v29.311c0 0.157 0.127 0.284 0.284 0.284s0.284-0.127 0.284-0.284v-29.311c0-0.157-0.127-0.284-0.284-0.284z"></path>
</symbol>
</defs>
</svg>
