<svg aria-hidden="true" style="position: absolute; width: 0; height: 0; overflow: hidden;" version="1.1" xmlns="http://www.w3.org/2000/svg" xmlns:xlink="http://www.w3.org/1999/xlink">
<defs>
<symbol id="icon-phone" viewBox="0 0 33 32">
<path fill="#ff6b09" style="fill: var(--color1, #ff6b09)" d="M4.817 0.003c-0.533 0.025-1.056 0.252-1.44 0.674l-2.684 2.95c0.004-0.009-0.010-0.007-0.087 0.1-0.041 0.055-0.072 0.117-0.093 0.182-1.092 3.48-0.36 7.308 1.424 10.949s4.63 7.125 7.897 9.984c3.267 2.859 6.953 5.096 10.468 6.205s6.922 1.095 9.448-0.737c0.027-0.020 0.053-0.043 0.077-0.067 0.066-0.066 0.068-0.075 0.058-0.065l0.010-0.013 2.671-2.938c0.768-0.844 0.706-2.17-0.138-2.938l-6.337-5.763c-0.844-0.768-2.17-0.706-2.938 0.137l-2.867 3.153c-2.327-0.674-4.317-1.816-6.231-3.557s-3.24-3.615-4.131-5.869l2.866-3.153c0.768-0.844 0.706-2.17-0.137-2.938l-6.337-5.763c-0.422-0.384-0.965-0.561-1.498-0.535l-0.001 0zM4.878 1.296c0.196-0.009 0.396 0.059 0.559 0.208l6.337 5.763c0.326 0.297 0.349 0.771 0.052 1.097l-3.169 3.482c-0.080 0.088-0.134 0.196-0.156 0.313s-0.013 0.237 0.027 0.348c0.962 2.624 2.513 4.777 4.648 6.719s4.423 3.283 7.126 3.992c0.115 0.030 0.236 0.028 0.35-0.006s0.217-0.098 0.297-0.186l3.169-3.483c0.297-0.326 0.77-0.348 1.096-0.051l6.338 5.763c0.326 0.297 0.348 0.77 0.051 1.096l-2.649 2.912c-2.072 1.488-4.992 1.571-8.262 0.539-3.282-1.036-6.846-3.182-9.999-5.942s-5.898-6.131-7.585-9.573c-1.67-3.407-2.275-6.852-1.357-9.888l2.588-2.844c0.148-0.163 0.342-0.251 0.538-0.26l0 0z"></path>
</symbol>
</defs>
</svg>
