<svg aria-hidden="true" style="position: absolute; width: 0; height: 0; overflow: hidden;" version="1.1"
   xmlns="http://www.w3.org/2000/svg" xmlns:xlink="http://www.w3.org/1999/xlink">

    <defs>
        <symbol id="icon-cross" viewBox="0 0 32 32">
            <path d="M23.734 10.304l-1.504-1.504-5.963 5.962-5.962-5.962-1.504 1.504 5.962 5.962-5.962 5.963 1.504 1.504 5.962-5.963 5.963 5.963 1.504-1.504-5.963-5.963 5.963-5.962z"></path>
        </symbol>
        <symbol id="icon-arrow-point-to-right" viewBox="0 0 32 32">
            <path

            d="M24.464 17.584l-13.76 13.759c-0.875 0.876-2.294 0.876-3.169 0s-0.875-2.294 0-3.169l12.175-12.175-12.175-12.174c-0.875-0.875-0.875-2.294 0-3.169s2.294-0.875 3.169 0l13.76 13.759c0.437 0.438 0.656 1.011 0.656 1.584s-0.219 1.147-0.656 1.584z">
         </path>
        </symbol>
        <symbol id="icon-arrow-pointing-to-right" viewBox="0 0 32 32">
            <path
            d="M31.565 14.948l-9.523-9.523c-0.581-0.581-1.523-0.581-2.104 0s-0.581 1.523 0 2.104l6.983 6.983h-25.432c-0.822 0-1.488 0.666-1.488 1.488s0.666 1.488 1.488 1.488h25.432l-6.982 6.983c-0.581 0.581-0.581 1.523 0 2.104 0.29 0.29 0.671 0.436 1.052 0.436s0.762-0.145 1.052-0.436l9.523-9.523c0.581-0.581 0.581-1.523 0-2.104z">
         </path>
        </symbol>
        <symbol id="icon-facebook" viewBox="0 0 16 32">
            <path
            d="M14.143 15.971h-4.033v14.865h-6.112v-14.865h-2.906v-5.222h2.906v-3.382c0-2.417 1.142-6.204 6.167-6.204l4.527 0.019v5.072h-3.284c-0.538 0-1.297 0.272-1.297 1.425v3.073h4.567l-0.534 5.219z">
         </path>
        </symbol>
        <symbol id="icon-github" viewBox="0 0 32 32">
            <path
            d="M16 0c-8.789 0-16 7.211-16 16 0 7.499 5.262 14.312 12.25 16v-5.293c-0.276 0.070-0.593 0.109-0.919 0.109-0.398 0-0.781-0.059-1.143-0.169l0.028 0.007c-0.946-0.278-1.714-0.909-2.285-1.869-0.363-0.613-1.008-1.28-1.68-1.23l-0.165-1.867c1.454-0.125 2.71 0.886 3.456 2.139 0.333 0.558 0.715 0.885 1.205 1.029 0.472 0.141 0.981 0.074 1.573-0.136 0.149-1.186 0.693-1.629 1.104-2.256-4.168-0.621-5.829-2.832-6.488-4.576-0.874-2.318-0.405-5.213 1.139-7.043 0.030-0.035 0.085-0.128 0.064-0.192-0.709-2.141 0.154-3.91 0.186-4.098 0.818 0.24 0.95-0.243 3.552 1.336l0.448 0.27c0.189 0.112 0.128 0.048 0.317 0.032 1.003-0.282 2.157-0.452 3.349-0.469l0.010-0c1.136 0.014 2.272 0.176 3.403 0.483l0.146 0.016c-0.013-0.003 0.040-0.010 0.128-0.062 3.248-1.968 3.131-1.325 4.003-1.608 0.032 0.189 0.882 1.987 0.182 4.099-0.096 0.291 2.816 2.957 1.202 7.235-0.659 1.744-2.32 3.957-6.486 4.578 0.534 0.816 1.176 1.248 1.173 2.928v6.606c6.986-1.688 12.25-8.501 12.25-16 0-8.789-7.211-16-16-16z">
         </path>
        </symbol>
        <symbol id="icon-house" viewBox="0 0 35 32">
            <path
            d="M34.253 15.613c0.257-0.279 0.414-0.654 0.414-1.064 0-0.475-0.21-0.901-0.543-1.19l-0.002-0.002-14.773-12.925c-0.318-0.269-0.732-0.432-1.184-0.432-0.467 0-0.893 0.174-1.217 0.46l0.002-0.002-14.821 13.589c-0.316 0.288-0.513 0.701-0.513 1.16 0 0.424 0.168 0.809 0.442 1.091l-0-0 0.373 0.387c0.613 0.64 1.611 0.72 2.224 0.171l1.107-0.992v14.523c0 0.893 0.72 1.613 1.613 1.613h5.773c0.891 0 1.613-0.72 1.613-1.613v-10.16h7.373v10.16c-0.013 0.891 0.624 1.613 1.515 1.613h6.123c0.891 0 1.611-0.72 1.611-1.613v-14.32l0.685 0.603c0.376 0.331 1.168 0.064 1.765-0.595l0.421-0.461z">
         </path>
        </symbol>
        <symbol id="icon-quotes" viewBox="0 0 43 32">
            <path
            d="M32.014 0c1.928 0 3.75 0.52 5.464 1.561s3.107 2.537 4.178 4.488c1.029 1.951 1.543 4.25 1.543 6.894s-0.643 5.225-1.928 7.74c-0.429 0.91-1.2 2.081-2.315 3.512-1.157 1.43-2.228 2.666-3.214 3.707l-4.050 4.098-2.893-4.813c2.063-1.302 3.824-2.855 5.306-4.646l0.030-0.037c1.542-1.821 2.314-3.49 2.314-5.008 0-0.781-0.171-1.41-0.514-1.886-1.5 1.084-3.172 1.626-5.014 1.626-1.328 0-2.593-0.412-3.793-1.236-1.237-0.782-2.237-1.834-2.935-3.078l-0.022-0.043c-0.771-1.258-1.157-2.558-1.157-3.902 0-1.518 0.45-2.97 1.35-4.358 0.866-1.389 2.011-2.526 3.364-3.356l0.044-0.025c1.37-0.824 2.784-1.236 4.242-1.236zM8.936 0c1.928 0 3.75 0.52 5.464 1.561s3.107 2.536 4.178 4.488c1.029 1.951 1.543 4.25 1.543 6.894 0 1.864-0.236 3.534-0.707 5.008-0.472 1.518-1.286 3.1-2.443 4.748-1.114 1.561-2.164 2.862-3.15 3.902-0.986 1.084-2.7 2.883-5.143 5.398l-2.893-4.813c2.063-1.302 3.824-2.855 5.306-4.646l0.030-0.037c1.542-1.821 2.314-3.49 2.314-5.008 0-0.781-0.172-1.41-0.514-1.886-1.5 1.084-3.172 1.626-5.014 1.626-1.328 0-2.593-0.412-3.793-1.236-1.237-0.782-2.237-1.834-2.935-3.078l-0.022-0.043c-0.771-1.258-1.157-2.558-1.157-3.902 0-1.518 0.429-2.97 1.286-4.358 0.866-1.389 2.011-2.526 3.364-3.356l0.045-0.025c1.37-0.824 2.784-1.236 4.242-1.236z">
         </path>
        </symbol>
        <symbol id="icon-telegram" viewBox="0 0 44 32">
            <path
            d="M17.344 21.048l-0.676 8.86c0.966 0 1.384-0.388 1.886-0.852l4.526-4.040 9.38 6.414c1.722 0.894 2.934 0.422 3.4-1.478l6.156-26.932c0.548-2.374-0.92-3.302-2.594-2.72l-36.194 12.934c-2.47 0.896-2.434 2.18-0.42 2.766l9.252 2.684 21.492-12.552c1.012-0.626 1.932-0.28 1.176 0.346l-17.386 14.57z">
         </path>

        </symbol>
        <symbol id="icon-ice-cream" viewBox="0 0 32 32">
            <path 
            d="M32 8.889c0-2.175-0.847-4.221-2.385-5.759l-0.744-0.744c-1.538-1.538-3.584-2.385-5.759-2.385s-4.221 0.847-5.759 2.385l-12.506 12.506c-0.957 0.957-0.957 2.514 0 3.472l2.485 2.485-6.549 6.549c-1.044 1.044-1.044 2.742-0 3.786l0.034 0.034c0.522 0.522 1.207 0.783 1.893 0.783s1.371-0.261 1.893-0.783l6.549-6.549 2.485 2.485c0.479 0.479 1.107 0.718 1.736 0.718s1.257-0.239 1.736-0.718l3.903-3.903c0.386 0.555 1.028 0.92 1.754 0.92 1.177 0 2.134-0.957 2.134-2.134v-2.674l4.716-4.716c1.538-1.538 2.385-3.583 2.385-5.759zM10.146 23.662l-6.549 6.549c-0.489 0.489-1.285 0.489-1.775 0l-0.034-0.034c-0.489-0.489-0.489-1.285 0-1.774l6.549-6.549 1.808 1.808zM16.103 26.148c-0.186 0.187-0.443 0.302-0.727 0.302-0.001 0-0.002 0-0.003 0h0c-0.276 0-0.535-0.107-0.73-0.302l-8.791-8.79c-0.402-0.402-0.402-1.057 0-1.46l1.684-1.684h5.343c1.137 0 2.063 0.925 2.063 2.063v2.205c0 1.177 0.957 2.134 2.134 2.134s2.134-0.957 2.134-2.134v-2.134c0-0.392 0.319-0.711 0.711-0.711s0.711 0.319 0.711 0.711v5.272l-4.529 4.529zM23.476 22.037c0 0.392-0.319 0.711-0.711 0.711s-0.711-0.319-0.711-0.711v-5.69c0-1.177-0.957-2.134-2.134-2.134s-2.134 0.957-2.134 2.134v2.134c0 0.392-0.319 0.711-0.711 0.711s-0.711-0.319-0.711-0.711v-2.205c0-1.922-1.563-3.485-3.485-3.485h-3.921l9.4-9.4c1.31-1.31 3.032-1.966 4.753-1.966s3.443 0.655 4.753 1.966l0.744 0.744c1.27 1.27 1.969 2.958 1.969 4.753 0 1.419-0.437 2.771-1.247 3.903h-1.539c-2.379 0-4.315 1.936-4.315 4.315v4.931zM24.899 17.106c0-1.595 1.298-2.892 2.892-2.892h0.246l-3.138 3.138v-0.246z"></path>
        </symbol>
<!--     </defs> -->

         <symbol id="icon-close" viewBox="0 0 11 11">
            <path
               d="M11 1.108L9.892 0 5.5 4.392 1.108 0 0 1.108 4.392 5.5 0 9.892 1.108 11 5.5 6.608 9.892 11 11 9.892 6.608 5.5 11 1.108z">
            </path>
         </symbol>
         <symbol id="icon-email" viewBox="0 0 32 32">
            <path
               d="M26.667 5.333h-21.333c-1.467 0-2.652 1.2-2.652 2.667l-0.014 16c0 1.467 1.2 2.667 2.667 2.667h21.333c1.467 0 2.667-1.2 2.667-2.667v-16c0-1.467-1.2-2.667-2.667-2.667zM26.133 11.001l-9.426 5.892c-0.201 0.126-0.446 0.2-0.708 0.2s-0.506-0.075-0.713-0.204l0.006 0.003-9.426-5.892c-0.336-0.201-0.557-0.562-0.557-0.975 0-0.625 0.507-1.132 1.132-1.132 0.233 0 0.449 0.070 0.629 0.19l-0.004-0.003 8.933 5.586 8.933-5.588c0.176-0.118 0.392-0.188 0.624-0.188 0.625 0 1.132 0.507 1.132 1.132 0 0.413-0.221 0.775-0.552 0.972l-0.005 0.003z">
            </path>
         </symbol>
         <symbol id="icon-person" viewBox="0 0 32 32">
            <path
               d="M16 16c2.946 0 5.333-2.388 5.333-5.333s-2.388-5.333-5.333-5.333v0c-2.946 0-5.333 2.388-5.333 5.333s2.388 5.333 5.333 5.333v0zM16 18.667c-3.561 0-10.667 1.787-10.667 5.333v1.333c0 0.732 0.599 1.333 1.333 1.333h18.667c0.732 0 1.333-0.601 1.333-1.333v-1.333c0-3.547-7.108-5.333-10.667-5.333z">
            </path>
         </symbol>
         <symbol id="icon-phone" viewBox="0 0 32 32">
            <path
               d="M24.882 19.774l-3.268-0.373c-0.090-0.011-0.194-0.018-0.3-0.018-0.707 0-1.347 0.287-1.81 0.75l-2.368 2.368c-3.669-1.894-6.585-4.81-8.427-8.372l-0.051-0.108 2.382-2.377c0.463-0.463 0.75-1.103 0.75-1.81 0-0.106-0.006-0.21-0.019-0.312l0.001 0.012-0.373-3.243c-0.155-1.287-1.24-2.276-2.557-2.276-0.001 0-0.002 0-0.003 0h-2.226c-1.454 0-2.663 1.209-2.574 2.661 0.683 10.987 9.47 19.762 20.444 20.444 1.452 0.089 2.663-1.12 2.663-2.574v-2.226c0-0.004 0-0.008 0-0.012 0-1.308-0.985-2.386-2.253-2.532l-0.012-0.001z">
            </path>
         </symbol>
         <symbol id="icon-check" viewBox="0 0 34 32">
            <path
               d="M4.267 0h25.6c2.356 0 4.267 1.91 4.267 4.267v23.467c0 2.356-1.91 4.267-4.267 4.267h-25.6c-2.356 0-4.267-1.91-4.267-4.267v-23.467c0-2.356 1.91-4.267 4.267-4.267z">
            </path>
            <path
               d="M8.442 16.537l-0.147-0.14-2.205 2.088 7.767 7.41 16.318-15.567-2.19-2.089-14.128 13.465-5.416-5.167z">
            </path>
         </symbol>
         <symbol id="icon-checked" viewBox="0 0 42 32">
            <path
               d="M6.263 15.205l-0.22-0.21-3.307 3.132 11.651 11.114 24.477-23.351-3.285-3.134-21.192 20.197-8.124-7.75z">
            </path>
         </symbol>
         <symbol id="icon-send" viewBox="0 0 32 32">
            <path
               d="M32 0l-32 18 10.227 3.787 15.773-14.787-11.997 16.187 0.009 0.003-0.012-0.003v8.813l5.735-6.691 7.267 2.691 4.999-28z">
            </path>
         </symbol>
<!--       </symbol> -->
   </defs>

</svg>
