<?xml version="1.0" standalone="no"?>
<!DOCTYPE svg PUBLIC "-//W3C//DTD SVG 20010904//EN"
 "http://www.w3.org/TR/2001/REC-SVG-20010904/DTD/svg10.dtd">
<svg version="1.0" xmlns="http://www.w3.org/2000/svg"
 width="698.000000pt" height="698.000000pt" viewBox="0 0 698.000000 698.000000"
 preserveAspectRatio="xMidYMid meet">
<metadata>
Created by potrace 1.11, written by Peter Selinger 2001-2013
</metadata>
<g transform="translate(0.000000,698.000000) scale(0.100000,-0.100000)"
fill="#000000" stroke="none">
<path d="M3071 6969 c-28 -11 -101 -69 -146 -114 -44 -45 -115 -132 -115 -141
0 -4 -6 -15 -14 -23 -44 -49 -125 -245 -161 -390 -23 -93 -26 -110 -40 -216
-4 -27 -9 -61 -12 -75 -8 -46 -10 -424 -2 -515 4 -49 11 -121 14 -160 3 -38 8
-77 10 -85 2 -8 6 -37 10 -65 8 -69 43 -219 67 -285 17 -49 26 -72 58 -155 13
-33 48 -157 54 -195 22 -116 28 -368 14 -500 -17 -153 -50 -315 -94 -459 -14
-47 -34 -118 -45 -159 -38 -149 -93 -229 -148 -216 -82 20 -119 78 -126 200
-8 127 -15 179 -36 259 -82 315 -241 525 -574 763 -32 22 -82 49 -184 99 -141
70 -188 75 -232 25 -34 -38 -37 -74 -13 -142 13 -34 17 -85 18 -215 1 -233
-10 -367 -50 -615 -24 -151 -68 -333 -133 -558 -42 -144 -103 -416 -117 -527
-4 -33 -9 -62 -9 -65 -2 -5 -12 -86 -20 -155 -19 -159 -27 -584 -13 -690 29
-223 118 -473 232 -655 202 -323 544 -591 956 -747 138 -53 315 -104 445 -129
22 -4 46 -8 53 -10 17 -3 136 -22 182 -29 102 -14 228 -20 440 -20 205 0 423
10 440 20 3 1 32 6 65 9 288 32 706 149 995 278 250 111 506 264 655 392 291
250 472 599 525 1013 18 145 18 439 -1 566 -4 28 -10 70 -13 92 -4 33 -36 202
-51 269 -18 80 -95 331 -135 439 -121 329 -180 440 -369 692 -135 181 -250
444 -316 723 -18 74 -57 254 -61 282 -3 19 -7 37 -9 40 -2 3 -7 33 -10 65 -4
33 -9 62 -10 65 -2 3 -6 30 -9 60 -10 91 -16 108 -48 135 -21 18 -41 25 -72
25 -39 0 -48 -5 -85 -45 -78 -84 -142 -202 -180 -332 -39 -131 -46 -191 -45
-383 2 -153 12 -248 44 -390 6 -25 13 -56 16 -70 3 -14 21 -74 40 -134 41
-127 80 -287 89 -365 4 -30 9 -63 11 -75 9 -38 3 -371 -6 -371 -1 0 -3 -16 -6
-35 -22 -171 -155 -438 -229 -458 -130 -36 -220 132 -252 473 -16 162 -9 572
13 775 18 179 5 344 -42 535 -95 384 -274 723 -587 1117 -157 197 -217 306
-304 548 -40 112 -102 349 -118 455 -2 11 -8 47 -13 80 -6 33 -14 84 -17 114
-4 30 -8 61 -10 70 -1 9 -6 52 -9 96 -10 126 -16 151 -39 173 -27 25 -83 35
-116 21z m-1231 -3899 l33 -30 -6 -83 c-4 -45 -8 -91 -11 -102 -2 -11 -7 -49
-11 -85 -4 -36 -9 -73 -10 -82 -2 -9 -6 -43 -10 -74 -7 -66 -17 -88 -49 -109
-54 -35 -118 -22 -152 31 -16 24 -16 86 1 199 3 17 7 46 9 65 32 273 43 298
137 299 28 1 45 -7 69 -29z m-108 -877 c34 -30 44 -66 38 -140 -4 -37 -5 -151
-4 -253 2 -202 -5 -237 -52 -259 -66 -30 -135 1 -154 69 -15 51 -7 519 9 548
30 56 118 75 163 35z"/>
<path d="M5051 6022 c-67 -64 -150 -274 -151 -380 0 -70 58 -120 126 -108 45
8 73 46 90 117 23 99 52 178 83 223 45 64 45 110 1 153 -21 21 -41 30 -69 31
-34 2 -45 -3 -80 -36z"/>
<path d="M993 5425 c-28 -19 -44 -49 -48 -84 -3 -30 8 -54 45 -97 33 -38 71
-116 100 -205 23 -72 41 -95 87 -108 60 -17 133 38 133 101 0 72 -95 280 -160
351 -38 42 -52 50 -90 54 -32 3 -52 0 -67 -12z"/>
</g>
</svg>
