<svg width="92" height="76" viewBox="0 0 92 76" fill="none" xmlns="http://www.w3.org/2000/svg">
<circle cx="77" cy="15" r="15" fill="white"/>
<path d="M20.4269 27.254C19.5682 27.254 18.8169 26.242 18.1729 24.218C17.5596 22.194 17.2529 20.2467 17.2529 18.376C17.2529 17.9467 17.7282 17.4713 18.6789 16.95C19.6296 16.398 21.0709 15.9073 23.0029 15.478C24.9349 15.0487 27.0356 14.834 29.3049 14.834C38.1062 14.834 42.5069 17.916 42.5069 24.08C42.5069 25.7973 42.1389 27.4073 41.4029 28.91C40.6669 30.4127 39.8542 31.624 38.9649 32.544C38.0756 33.4333 37.0329 34.2613 35.8369 35.028C34.4569 35.8867 33.1382 36.5613 31.8809 37.052H41.0809C41.2649 37.052 41.4642 37.144 41.6789 37.328C41.8936 37.4813 42.1236 37.972 42.3689 38.8C42.6142 39.5973 42.7369 40.6093 42.7369 41.836C42.7369 43.032 42.6602 44.044 42.5069 44.872C42.3536 45.6693 42.1696 46.252 41.9549 46.62C41.4949 47.448 41.0809 47.8927 40.7129 47.954L40.4829 48H20.3349C18.4029 48 17.4369 44.9793 17.4369 38.938C17.4369 38.2633 19.4302 36.408 23.4169 33.372C24.9196 32.268 26.2996 31.0567 27.5569 29.738C28.8142 28.4193 29.4429 27.346 29.4429 26.518C29.4429 25.598 28.7529 25.138 27.3729 25.138C25.9929 25.138 24.5362 25.4907 23.0029 26.196C21.5002 26.9013 20.6416 27.254 20.4269 27.254ZM72.1888 23.436C72.1888 26.5333 70.9621 28.8487 68.5088 30.382C68.8461 30.5353 69.2754 30.9033 69.7968 31.486C70.3488 32.0687 70.8088 32.6513 71.1768 33.234C72.1274 34.7367 72.6028 36.5153 72.6028 38.57C72.6028 41.9433 71.3914 44.4273 68.9688 46.022C66.5461 47.6167 63.2188 48.414 58.9868 48.414C56.9014 48.414 54.9234 48.2453 53.0528 47.908C51.2128 47.54 49.8021 47.1413 48.8208 46.712C47.8394 46.252 47.3488 45.838 47.3488 45.47C47.3488 43.7833 47.5328 42.296 47.9008 41.008C48.2688 39.72 48.6828 38.8153 49.1428 38.294C49.6028 37.742 50.0474 37.466 50.4768 37.466C50.5994 37.466 51.4121 37.742 52.9148 38.294C54.4174 38.846 55.8894 39.122 57.3308 39.122C58.8028 39.122 59.5388 38.662 59.5388 37.742C59.5388 36.4847 57.9901 35.81 54.8928 35.718C53.6661 35.6873 52.9914 35.6567 52.8688 35.626C52.2248 35.4113 51.9028 34.062 51.9028 31.578C51.9028 29.094 52.2248 27.7293 52.8688 27.484C52.9914 27.4227 53.6661 27.392 54.8928 27.392C57.9901 27.3307 59.5388 26.702 59.5388 25.506C59.5388 24.586 58.8641 24.126 57.5148 24.126C56.1961 24.126 54.7241 24.448 53.0988 25.092C51.4734 25.736 50.5841 26.058 50.4308 26.058C49.7254 26.058 49.0814 25.0307 48.4988 22.976C47.9161 20.9213 47.6248 19.4647 47.6248 18.606C47.6248 17.8087 48.5141 16.996 50.2928 16.168C52.2554 15.2787 55.1381 14.834 58.9408 14.834C67.7728 14.834 72.1888 17.7013 72.1888 23.436Z" fill="#D41443"/>
<path d="M1.7483 72V66.05H0.698297V65.056H1.7483V63.852C1.7483 63.18 1.9163 62.69 2.2523 62.382C2.5883 62.074 3.0783 61.92 3.7223 61.92H4.4223V62.928H3.9043C3.54963 62.928 3.29763 63.0027 3.1483 63.152C2.99896 63.292 2.9243 63.5347 2.9243 63.88V65.056H4.6323V66.05H2.9243V72H1.7483ZM8.92297 72.168C8.26964 72.168 7.68164 72.0187 7.15897 71.72C6.6363 71.4213 6.22097 71.0013 5.91297 70.46C5.6143 69.9093 5.46497 69.2653 5.46497 68.528C5.46497 67.7907 5.61897 67.1513 5.92697 66.61C6.23497 66.0593 6.6503 65.6347 7.17297 65.336C7.70497 65.0373 8.29764 64.888 8.95097 64.888C9.6043 64.888 10.1923 65.0373 10.715 65.336C11.2376 65.6347 11.6483 66.0593 11.947 66.61C12.255 67.1513 12.409 67.7907 12.409 68.528C12.409 69.2653 12.255 69.9093 11.947 70.46C11.639 71.0013 11.219 71.4213 10.687 71.72C10.1643 72.0187 9.5763 72.168 8.92297 72.168ZM8.92297 71.16C9.3243 71.16 9.69764 71.062 10.043 70.866C10.3883 70.67 10.6683 70.376 10.883 69.984C11.0976 69.592 11.205 69.1067 11.205 68.528C11.205 67.9493 11.0976 67.464 10.883 67.072C10.6776 66.68 10.4023 66.386 10.057 66.19C9.71164 65.994 9.34297 65.896 8.95097 65.896C8.54964 65.896 8.1763 65.994 7.83097 66.19C7.48564 66.386 7.20564 66.68 6.99097 67.072C6.7763 67.464 6.66897 67.9493 6.66897 68.528C6.66897 69.1067 6.7763 69.592 6.99097 69.984C7.20564 70.376 7.48097 70.67 7.81697 70.866C8.1623 71.062 8.53097 71.16 8.92297 71.16ZM17.2081 72.168C16.5548 72.168 15.9668 72.0187 15.4441 71.72C14.9215 71.4213 14.5061 71.0013 14.1981 70.46C13.8995 69.9093 13.7501 69.2653 13.7501 68.528C13.7501 67.7907 13.9041 67.1513 14.2121 66.61C14.5201 66.0593 14.9355 65.6347 15.4581 65.336C15.9901 65.0373 16.5828 64.888 17.2361 64.888C17.8895 64.888 18.4775 65.0373 19.0001 65.336C19.5228 65.6347 19.9335 66.0593 20.2321 66.61C20.5401 67.1513 20.6941 67.7907 20.6941 68.528C20.6941 69.2653 20.5401 69.9093 20.2321 70.46C19.9241 71.0013 19.5041 71.4213 18.9721 71.72C18.4495 72.0187 17.8615 72.168 17.2081 72.168ZM17.2081 71.16C17.6095 71.16 17.9828 71.062 18.3281 70.866C18.6735 70.67 18.9535 70.376 19.1681 69.984C19.3828 69.592 19.4901 69.1067 19.4901 68.528C19.4901 67.9493 19.3828 67.464 19.1681 67.072C18.9628 66.68 18.6875 66.386 18.3421 66.19C17.9968 65.994 17.6281 65.896 17.2361 65.896C16.8348 65.896 16.4615 65.994 16.1161 66.19C15.7708 66.386 15.4908 66.68 15.2761 67.072C15.0615 67.464 14.9541 67.9493 14.9541 68.528C14.9541 69.1067 15.0615 69.592 15.2761 69.984C15.4908 70.376 15.7661 70.67 16.1021 70.866C16.4475 71.062 16.8161 71.16 17.2081 71.16ZM25.4793 72.168C24.7886 72.168 24.1819 72.0093 23.6593 71.692C23.1459 71.3747 22.7446 70.9407 22.4553 70.39C22.1753 69.8393 22.0353 69.214 22.0353 68.514C22.0353 67.814 22.1799 67.1933 22.4693 66.652C22.7586 66.1013 23.1599 65.672 23.6733 65.364C24.1866 65.0467 24.7933 64.888 25.4933 64.888C26.0626 64.888 26.5666 65.0047 27.0053 65.238C27.4439 65.4713 27.7846 65.798 28.0273 66.218V61.92H29.2033V72H28.1393L28.0273 70.852C27.8033 71.188 27.4813 71.4913 27.0613 71.762C26.6413 72.0327 26.1139 72.168 25.4793 72.168ZM25.6053 71.146C26.0719 71.146 26.4826 71.0387 26.8373 70.824C27.2013 70.6 27.4813 70.292 27.6773 69.9C27.8826 69.508 27.9853 69.0507 27.9853 68.528C27.9853 68.0053 27.8826 67.548 27.6773 67.156C27.4813 66.764 27.2013 66.4607 26.8373 66.246C26.4826 66.022 26.0719 65.91 25.6053 65.91C25.1479 65.91 24.7373 66.022 24.3733 66.246C24.0186 66.4607 23.7386 66.764 23.5333 67.156C23.3373 67.548 23.2393 68.0053 23.2393 68.528C23.2393 69.0507 23.3373 69.508 23.5333 69.9C23.7386 70.292 24.0186 70.6 24.3733 70.824C24.7373 71.0387 25.1479 71.146 25.6053 71.146ZM37.5694 72C36.9347 72 36.4354 71.846 36.0714 71.538C35.7074 71.23 35.5254 70.6747 35.5254 69.872V66.05H34.3214V65.056H35.5254L35.6794 63.39H36.7014V65.056H38.7454V66.05H36.7014V69.872C36.7014 70.3107 36.79 70.6093 36.9674 70.768C37.1447 70.9173 37.4574 70.992 37.9054 70.992H38.6334V72H37.5694ZM40.2394 72V65.056H41.3034L41.4014 66.386C41.6161 65.9287 41.9428 65.5647 42.3814 65.294C42.8201 65.0233 43.3614 64.888 44.0054 64.888V66.12H43.6834C43.2728 66.12 42.8948 66.1947 42.5494 66.344C42.2041 66.484 41.9288 66.7267 41.7234 67.072C41.5181 67.4173 41.4154 67.8933 41.4154 68.5V72H40.2394ZM51.4014 65.056V72H50.3374L50.2674 70.754C50.0434 71.1927 49.7214 71.538 49.3014 71.79C48.8814 72.042 48.4054 72.168 47.8734 72.168C47.052 72.168 46.394 71.9207 45.8994 71.426C45.414 70.922 45.1714 70.152 45.1714 69.116V65.056H46.3474V68.99C46.3474 70.4367 46.9447 71.16 48.1394 71.16C48.7367 71.16 49.2314 70.9453 49.6234 70.516C50.0247 70.0773 50.2254 69.4567 50.2254 68.654V65.056H51.4014ZM56.5291 72.168C55.8664 72.168 55.2691 72.0187 54.7371 71.72C54.2144 71.412 53.7991 70.9873 53.4911 70.446C53.1924 69.8953 53.0431 69.256 53.0431 68.528C53.0431 67.8 53.1924 67.1653 53.4911 66.624C53.7991 66.0733 54.2144 65.6487 54.7371 65.35C55.2691 65.042 55.8664 64.888 56.5291 64.888C57.3504 64.888 58.0411 65.1027 58.6011 65.532C59.1704 65.9613 59.5298 66.5353 59.6791 67.254H58.4751C58.3818 66.8247 58.1531 66.4933 57.7891 66.26C57.4251 66.0173 57.0004 65.896 56.5151 65.896C56.1231 65.896 55.7544 65.994 55.4091 66.19C55.0638 66.386 54.7838 66.68 54.5691 67.072C54.3544 67.464 54.2471 67.9493 54.2471 68.528C54.2471 69.1067 54.3544 69.592 54.5691 69.984C54.7838 70.376 55.0638 70.6747 55.4091 70.88C55.7544 71.076 56.1231 71.174 56.5151 71.174C57.0004 71.174 57.4251 71.0573 57.7891 70.824C58.1531 70.5813 58.3818 70.2407 58.4751 69.802H59.6791C59.5391 70.502 59.1844 71.0713 58.6151 71.51C58.0458 71.9487 57.3504 72.168 56.5291 72.168ZM61.3215 72V61.92H62.4975V67.982L65.3395 65.056H66.7815L63.7015 68.192L67.1735 72H65.6755L62.4975 68.402V72H61.3215ZM70.626 72.168C69.7953 72.168 69.1047 71.958 68.554 71.538C68.0033 71.118 67.6813 70.5487 67.588 69.83H68.792C68.8667 70.194 69.058 70.5113 69.366 70.782C69.6833 71.0433 70.108 71.174 70.64 71.174C71.1347 71.174 71.4987 71.0713 71.732 70.866C71.9653 70.6513 72.082 70.3993 72.082 70.11C72.082 69.69 71.928 69.41 71.62 69.27C71.3213 69.13 70.8967 69.004 70.346 68.892C69.9727 68.8173 69.5993 68.71 69.226 68.57C68.8527 68.43 68.54 68.234 68.288 67.982C68.036 67.7207 67.91 67.38 67.91 66.96C67.91 66.3533 68.134 65.8587 68.582 65.476C69.0393 65.084 69.6553 64.888 70.43 64.888C71.1673 64.888 71.7693 65.0747 72.236 65.448C72.712 65.812 72.9873 66.3347 73.062 67.016H71.9C71.8533 66.6613 71.6993 66.386 71.438 66.19C71.186 65.9847 70.8453 65.882 70.416 65.882C69.996 65.882 69.6693 65.9707 69.436 66.148C69.212 66.3253 69.1 66.5587 69.1 66.848C69.1 67.128 69.2447 67.3473 69.534 67.506C69.8327 67.6647 70.234 67.8 70.738 67.912C71.1673 68.0053 71.5733 68.122 71.956 68.262C72.348 68.3927 72.6653 68.5933 72.908 68.864C73.16 69.1253 73.286 69.508 73.286 70.012C73.2953 70.6373 73.0573 71.1553 72.572 71.566C72.096 71.9673 71.4473 72.168 70.626 72.168Z" fill="white"/>
</svg>
