<svg width="72" height="77" viewBox="0 0 72 77" fill="none" xmlns="http://www.w3.org/2000/svg">
<circle cx="57" cy="15" r="15" fill="white"/>
<path d="M19.8572 47.896C19.8572 48.2333 18.9219 48.5093 17.0512 48.724C15.1806 48.908 13.3099 49 11.4392 49C9.56855 49 8.35722 48.9233 7.80522 48.77C7.28389 48.586 7.02322 48.2947 7.02322 47.896V28.024H2.33122C1.80989 28.024 1.54922 26.9047 1.54922 24.666C1.54922 22.4273 1.80989 20.4033 2.33122 18.594C2.48455 18.0113 4.10989 17.4747 7.20722 16.984C10.3046 16.4933 12.6812 16.248 14.3372 16.248C15.9932 16.248 17.0972 16.3093 17.6492 16.432C18.2012 16.5547 18.6152 16.708 18.8912 16.892C19.1672 17.0453 19.3819 17.2293 19.5352 17.444C19.7499 17.7813 19.8572 18.1033 19.8572 18.41V47.896ZM37.757 28.898C38.033 28.6527 38.769 28.3307 39.965 27.932C41.161 27.5333 42.5103 27.334 44.013 27.334C45.5463 27.334 46.8343 27.564 47.877 28.024C48.9503 28.4533 49.7783 29.0053 50.361 29.68C50.9743 30.3547 51.4496 31.198 51.787 32.21C52.339 33.866 52.615 35.5527 52.615 37.27C52.615 38.9873 52.5383 40.2907 52.385 41.18C52.2623 42.0387 51.925 43.0047 51.373 44.078C50.8516 45.1513 50.131 46.056 49.211 46.792C48.3216 47.528 47.0336 48.1567 45.347 48.678C43.691 49.1687 41.7436 49.414 39.505 49.414C34.6903 49.414 31.0563 48.0953 28.603 45.458C26.1496 42.79 24.923 38.4967 24.923 32.578C24.923 26.6287 26.073 22.3507 28.373 19.744C30.673 17.1067 34.169 15.788 38.861 15.788C42.081 15.788 44.8716 16.0333 47.233 16.524C49.625 16.984 50.821 17.536 50.821 18.18C50.821 18.9773 50.5143 20.3727 49.901 22.366C49.3183 24.3593 48.7816 25.356 48.291 25.356C48.1376 25.356 47.6776 25.2793 46.911 25.126C44.8256 24.6967 42.9243 24.482 41.207 24.482C39.4896 24.482 38.3856 24.9113 37.895 25.77C37.4043 26.598 37.159 27.8247 37.159 29.45C37.2816 29.2967 37.481 29.1127 37.757 28.898ZM38.769 33.038C37.8796 33.038 37.435 34.694 37.435 38.006C37.435 41.2873 37.8796 42.928 38.769 42.928C39.7196 42.928 40.195 41.2873 40.195 38.006C40.195 34.694 39.7196 33.038 38.769 33.038Z" fill="#D41443"/>
<path d="M23.24 73.168C22.5774 73.168 21.98 73.0187 21.448 72.72C20.9254 72.412 20.51 71.9873 20.202 71.446C19.9034 70.8953 19.754 70.256 19.754 69.528C19.754 68.8 19.9034 68.1653 20.202 67.624C20.51 67.0733 20.9254 66.6487 21.448 66.35C21.98 66.042 22.5774 65.888 23.24 65.888C24.0614 65.888 24.752 66.1027 25.312 66.532C25.8814 66.9613 26.2407 67.5353 26.39 68.254H25.186C25.0927 67.8247 24.864 67.4933 24.5 67.26C24.136 67.0173 23.7114 66.896 23.226 66.896C22.834 66.896 22.4654 66.994 22.12 67.19C21.7747 67.386 21.4947 67.68 21.28 68.072C21.0654 68.464 20.958 68.9493 20.958 69.528C20.958 70.1067 21.0654 70.592 21.28 70.984C21.4947 71.376 21.7747 71.6747 22.12 71.88C22.4654 72.076 22.834 72.174 23.226 72.174C23.7114 72.174 24.136 72.0573 24.5 71.824C24.864 71.5813 25.0927 71.2407 25.186 70.802H26.39C26.25 71.502 25.8954 72.0713 25.326 72.51C24.7567 72.9487 24.0614 73.168 23.24 73.168ZM30.3424 73.168C29.7637 73.168 29.2831 73.07 28.9004 72.874C28.5177 72.678 28.2331 72.4167 28.0464 72.09C27.8597 71.7633 27.7664 71.4087 27.7664 71.026C27.7664 70.3167 28.0371 69.7707 28.5784 69.388C29.1197 69.0053 29.8571 68.814 30.7904 68.814H32.6664V68.73C32.6664 68.1233 32.5077 67.666 32.1904 67.358C31.8731 67.0407 31.4484 66.882 30.9164 66.882C30.4591 66.882 30.0624 66.9987 29.7264 67.232C29.3997 67.456 29.1944 67.7873 29.1104 68.226H27.9064C27.9531 67.722 28.1211 67.2973 28.4104 66.952C28.7091 66.6067 29.0777 66.3453 29.5164 66.168C29.9551 65.9813 30.4217 65.888 30.9164 65.888C31.8871 65.888 32.6151 66.1493 33.1004 66.672C33.5951 67.1853 33.8424 67.8713 33.8424 68.73V73H32.7924L32.7224 71.754C32.5264 72.146 32.2371 72.482 31.8544 72.762C31.4811 73.0327 30.9771 73.168 30.3424 73.168ZM30.5244 72.174C30.9724 72.174 31.3551 72.0573 31.6724 71.824C31.9991 71.5907 32.2464 71.2873 32.4144 70.914C32.5824 70.5407 32.6664 70.1487 32.6664 69.738V69.724H30.8884C30.1977 69.724 29.7077 69.8453 29.4184 70.088C29.1384 70.3213 28.9984 70.6153 28.9984 70.97C28.9984 71.334 29.1291 71.628 29.3904 71.852C29.6611 72.0667 30.0391 72.174 30.5244 72.174ZM35.9846 73V67.05H34.9346V66.056H35.9846V64.852C35.9846 64.18 36.1526 63.69 36.4886 63.382C36.8246 63.074 37.3146 62.92 37.9586 62.92H38.6586V63.928H38.1406C37.786 63.928 37.534 64.0027 37.3846 64.152C37.2353 64.292 37.1606 64.5347 37.1606 64.88V66.056H38.8686V67.05H37.1606V73H35.9846ZM43.1173 73.168C42.4546 73.168 41.8666 73.0187 41.3533 72.72C40.84 72.412 40.434 71.9873 40.1353 71.446C39.846 70.9047 39.7013 70.2653 39.7013 69.528C39.7013 68.8 39.846 68.1653 40.1353 67.624C40.4246 67.0733 40.826 66.6487 41.3393 66.35C41.862 66.042 42.464 65.888 43.1453 65.888C43.8173 65.888 44.396 66.042 44.8813 66.35C45.376 66.6487 45.754 67.0453 46.0153 67.54C46.2766 68.0347 46.4073 68.5667 46.4073 69.136C46.4073 69.2387 46.4026 69.3413 46.3933 69.444C46.3933 69.5467 46.3933 69.6633 46.3933 69.794H40.8633C40.8913 70.326 41.0126 70.7693 41.2273 71.124C41.4513 71.4693 41.7266 71.7307 42.0533 71.908C42.3893 72.0853 42.744 72.174 43.1173 72.174C43.6026 72.174 44.0086 72.062 44.3353 71.838C44.662 71.614 44.9 71.3107 45.0493 70.928H46.2113C46.0246 71.572 45.6653 72.1087 45.1333 72.538C44.6106 72.958 43.9386 73.168 43.1173 73.168ZM43.1173 66.882C42.5573 66.882 42.058 67.0547 41.6193 67.4C41.19 67.736 40.9426 68.2307 40.8773 68.884H45.2453C45.2173 68.2587 45.0026 67.7687 44.6013 67.414C44.2 67.0593 43.7053 66.882 43.1173 66.882ZM50.626 73.168C49.7953 73.168 49.1047 72.958 48.554 72.538C48.0033 72.118 47.6813 71.5487 47.588 70.83H48.792C48.8667 71.194 49.058 71.5113 49.366 71.782C49.6833 72.0433 50.108 72.174 50.64 72.174C51.1347 72.174 51.4987 72.0713 51.732 71.866C51.9653 71.6513 52.082 71.3993 52.082 71.11C52.082 70.69 51.928 70.41 51.62 70.27C51.3213 70.13 50.8967 70.004 50.346 69.892C49.9727 69.8173 49.5993 69.71 49.226 69.57C48.8527 69.43 48.54 69.234 48.288 68.982C48.036 68.7207 47.91 68.38 47.91 67.96C47.91 67.3533 48.134 66.8587 48.582 66.476C49.0393 66.084 49.6553 65.888 50.43 65.888C51.1673 65.888 51.7693 66.0747 52.236 66.448C52.712 66.812 52.9873 67.3347 53.062 68.016H51.9C51.8533 67.6613 51.6993 67.386 51.438 67.19C51.186 66.9847 50.8453 66.882 50.416 66.882C49.996 66.882 49.6693 66.9707 49.436 67.148C49.212 67.3253 49.1 67.5587 49.1 67.848C49.1 68.128 49.2447 68.3473 49.534 68.506C49.8327 68.6647 50.234 68.8 50.738 68.912C51.1673 69.0053 51.5733 69.122 51.956 69.262C52.348 69.3927 52.6653 69.5933 52.908 69.864C53.16 70.1253 53.286 70.508 53.286 71.012C53.2953 71.6373 53.0573 72.1553 52.572 72.566C52.096 72.9673 51.4473 73.168 50.626 73.168Z" fill="white"/>
</svg>
