<svg xmlns="http://www.w3.org/2000/svg" width="50" height="50" fill="none"><g clip-path="url(#a)"><path fill="#FFA5BA" d="M46.2909 33.4541c-2.0187-.716-3.7217-.5369-5.066.0283.2259-1.3708.7349-2.8625 1.8275-3.8761.6737-.625.7131-1.6777.0882-2.3514-.6246-.6736-1.6775-.7131-2.3514-.0882-1.9205 1.7815-2.665 4.2944-2.9281 6.3766a6.335 6.335 0 0 0-1.6529-.4865l2.9534-15.3588a1.6633 1.6633 0 0 0-.3512-1.3739 1.6633 1.6633 0 0 0-1.2828-.6042h-.3188c.1464-.782.2203-1.5583.2144-2.2966-.0247-3.1152-1.4112-5.4617-3.7089-6.2766-2.2027-.7815-4.0463-.5467-5.4796.1032.2273-1.5246.7722-3.2241 2.0027-4.3655.6737-.625.7131-1.6776.0882-2.3514C29.701-.1405 28.648-.18 27.9742.4448c-2.0629 1.9138-2.8358 4.6332-3.0966 6.8537-1.1483-.544-2.5683-.8227-4.232-.516-1.7096-2.4552-4.0826-3.5868-6.3897-3.0338-2.2679.5446-3.6844 1.7427-4.5327 3.0658-.6409-1.405-1.1124-3.1271-.7057-4.744.224-.8912-.3167-1.7952-1.2077-2.0195-.8916-.2247-1.7953.3165-2.0196 1.2078-.6863 2.7286.1479 5.4306 1.1394 7.4345-1.5877.2145-3.3082 1.0151-4.7634 2.9155-.9036 1.1801-1.2085 2.6534-.9312 4.218-.27.101-.5133.2699-.7012.4973a1.6641 1.6641 0 0 0-.3511 1.3739l5.9516 30.9524A1.664 1.664 0 0 0 7.7683 50h23.8075a1.664 1.664 0 0 0 1.634-1.3496l.0585-.3046c.4487.3091.9307.5677 1.448.7605 1.9787.7367 3.8228.4343 4.7559.1843a8.327 8.327 0 0 0 2.131.2793c.7909 0 1.6931-.1165 2.6247-.4636 3.6883-1.3741 5.6477-5.999 5.6187-9.6532-.0232-2.975-1.3525-5.2176-3.5557-5.999ZM35.4288 19.0477c-.7662 7.3522-6.9564 12.3586-15.5798 12.3586S5.0354 26.3997 4.2692 19.0477h31.1596Zm-10.3785-7.3056c.2879.5446.8374.8855 1.4539.8855.6165 0 1.1658-.3409 1.4539-.8855.0453-.0751.4533-.7279 1.2018-1.2138.983-.6377 2.1088-.718 3.4418-.2453 1.3293.4714 1.4874 2.3716 1.4938 3.1665.0057.7243-.1006 1.5024-.2979 2.2702H22.6638c.3682-1.8586.1471-3.8934-.4513-5.7323.5883.0342 1.1309.2136 1.6356.5409.7489.4859 1.1566 1.1386 1.2022 1.2138ZM4.8086 13.6317c.8598-1.1227 1.8473-1.669 3.0194-1.6702h.0031c.8913 0 1.5878.3244 1.6662.3624.5327.2962 1.17.2691 1.6854-.0582.5175-.329.7969-.9243.7516-1.5359-.0089-.1203-.1804-2.9584 3.0987-3.7456 1.3692-.3293 2.5397 1.1774 2.9784 1.8407 1.2613 1.9069 1.9085 4.8558 1.2139 6.8947H4.6177c-.22-.6915-.2793-1.4736.1909-2.0879ZM9.143 46.6723 5.8448 29.5197c.2161.2078.4387.4105.6678.6078 3.4497 2.9705 8.1861 4.6065 13.3364 4.6065s9.8867-1.6358 13.3364-4.6065c.0804-.0692.159-.1401.2378-.2106l-.6739 3.505c-.032.011-.0634.0209-.0956.0322-2.2032.7814-3.5325 3.024-3.5559 5.999-.0145 1.8193.4645 3.8791 1.4037 5.6585l-.3 1.5607H9.1431Zm33.9232-.6844c-1.474.549-2.9389.0273-2.9934.0074-.3901-.151-.8101-.1547-1.1997-.0005-.0148.0057-1.5001.5498-2.9949-.0071-2.0899-.7784-3.4727-3.9939-3.4529-6.5084.0059-.7278.1478-2.466 1.3408-2.889.5459-.1936 1.0335-.2731 1.467-.2731 1.7304 0 2.5897 1.2685 2.7845 1.6003.2873.5468.8367.8893 1.4547.8893.6182 0 1.1673-.3428 1.4547-.8893.2436-.4148 1.5259-2.2936 4.2515-1.3272 1.1928.4229 1.3349 2.1612 1.3408 2.889.0197 2.5147-1.3632 5.7302-3.4531 6.5086Z"/></g><defs><clipPath id="a"><path fill="#fff" d="M0 0h50v50H0z"/></clipPath></defs></svg>