<svg width="33" height="32" viewBox="0 0 33 32" fill="none" xmlns="http://www.w3.org/2000/svg">
<g clip-path="url(#clip0_57354_393)">
<path d="M16.4706 32C25.3071 32 32.4706 24.8366 32.4706 16C32.4706 7.16344 25.3071 0 16.4706 0C7.63403 0 0.470589 7.16344 0.470589 16C0.470589 24.8366 7.63403 32 16.4706 32Z" fill="#FEA5BB"/>
<path d="M20.9162 15.9814H18.3061V25.5999H14.3514V15.9814H12.4706V12.6011H14.3514V10.4136C14.3514 8.84938 15.0901 6.3999 18.3413 6.3999L21.2706 6.41223V9.69341H19.1452C18.7965 9.69341 18.3063 9.86861 18.3063 10.6148V12.6042H21.2617L20.9162 15.9814Z" fill="white"/>
</g>
<defs>
<clipPath id="clip0_57354_393">
<rect width="32" height="32" fill="white" transform="translate(0.470589)"/>
</clipPath>
</defs>
</svg>
