<svg width="46" height="52" viewBox="0 0 46 52" fill="none" xmlns="http://www.w3.org/2000/svg">
<path d="M1.08336 18.1357L1.08339 18.1359C2.03783 22.5167 4.16167 26.4039 7.50728 29.775C10.4958 32.798 13.1215 34.6343 17.2695 36.5405C17.2698 36.5407 17.2702 36.5408 17.2705 36.541L19.2825 37.4855V44.1539V51V51.25H19.5325H20.6883H21.8442H22.0942V51V44.5478V38.4104L22.352 38.4857L22.3533 38.486C22.7258 38.5927 23.2743 38.5927 23.6468 38.486L23.6481 38.4857L23.9059 38.4104V44.5478V51V51.25H24.1559H25.3118H26.4676H26.7176V51V44.1539V37.4688L28.6324 36.5976L28.6336 36.5971C32.6458 34.7477 35.5611 32.7429 38.3968 29.8684L38.397 29.8682C42.9244 25.2711 45.2497 20.0338 45.2499 14.3322C45.2694 8.07496 41.9834 2.95683 36.7777 1.20915C35.6584 0.82008 35.0646 0.764317 33.0152 0.783142M1.08336 18.1357L23.2064 4.63963L23.0478 4.52232M1.08336 18.1357C0.866368 17.137 0.755017 15.7722 0.750166 14.4378C0.745322 13.1054 0.84654 11.78 1.06485 10.8612L1.08336 18.1357ZM33.0152 0.783142L33.0175 1.03313L33.0153 0.783142C33.0153 0.783142 33.0152 0.783142 33.0152 0.783142ZM33.0152 0.783142C31.9463 0.792519 31.2762 0.815857 30.668 0.902878C30.0569 0.990295 29.5159 1.14086 28.7047 1.39474L28.7022 1.39553C26.7723 2.02188 24.8741 3.01043 23.6119 4.04729L23.6096 4.04922L23.0478 4.52232M23.0478 4.52232L22.1662 3.87062L22.1657 3.87026C19.4484 1.87175 16.6649 0.897938 13.3973 0.764584L13.3955 0.764511C12.8315 0.745579 12.2288 0.745567 11.7127 0.762161C11.2054 0.778469 10.7601 0.811306 10.5219 0.863758M23.0478 4.52232L10.5219 0.863758M10.5219 0.863758C10.5214 0.863857 10.521 0.863964 10.5205 0.864063L10.5745 1.10816L10.5219 0.863758ZM14.6445 13.9695L14.646 13.9706C15.494 14.5898 16.572 15.377 17.0528 15.7327C18.3609 16.7022 20.5166 17.912 22.1517 18.5944M14.6445 13.9695L22.1525 18.5947C22.1522 18.5946 22.1519 18.5945 22.1517 18.5944M14.6445 13.9695C12.6421 12.484 10.4565 11.3947 8.53066 10.9167C7.64832 10.7043 6.52395 10.5279 5.6016 10.4374C5.13982 10.3921 4.73527 10.369 4.44044 10.3726C4.29177 10.3744 4.18014 10.383 4.10621 10.3961C4.09457 10.3982 4.0848 10.4002 4.07669 10.4021C3.99781 10.5576 3.91368 10.8319 3.83642 11.2086C3.75233 11.6185 3.68179 12.1209 3.6306 12.6599C3.52801 13.74 3.50506 14.9458 3.59897 15.8238C4.11198 20.5781 6.18004 24.5959 10.1504 28.4058L10.1512 28.4065C13.2827 31.4369 17.1801 33.8 21.5966 35.2891L21.5966 35.2891L21.6001 35.2904L23.0006 35.7862L24.4202 35.29L24.4216 35.2895C28.5529 33.8743 32.6053 31.5094 35.5436 28.7601C37.569 26.8625 38.6131 25.5683 39.9487 23.2833L39.9497 23.2817C40.3629 22.5867 40.9301 21.3265 41.3694 20.2069C41.5885 19.6486 41.773 19.1322 41.8892 18.7455C41.9309 18.6064 41.9627 18.4878 41.9842 18.392C41.9163 18.4097 41.8371 18.4319 41.7478 18.4583C41.4221 18.5549 40.9795 18.703 40.5018 18.8798L40.5005 18.8803C38.5706 19.5825 35.6787 20.2056 33.3479 20.4136L33.3463 20.4137C33.3114 20.4166 33.2773 20.4194 33.2437 20.4222C32.7187 20.4653 32.3529 20.4954 32.081 20.5667C31.8112 20.6375 31.6718 20.7394 31.5764 20.9178C31.4673 21.1218 31.402 21.4506 31.3702 22.017C31.3408 22.54 31.3409 23.2291 31.341 24.1514C31.3411 24.2155 31.3411 24.2808 31.3411 24.3473C31.3411 26.1308 31.3179 27.1836 31.1851 27.8958C31.1175 28.2584 31.0201 28.5423 30.8784 28.7952C30.7376 29.0462 30.5595 29.2551 30.3461 29.4727C29.9643 29.8735 29.582 30.1631 29.1543 30.3508C28.7255 30.5389 28.2659 30.618 27.7391 30.618C26.9259 30.618 26.2322 30.4566 25.6534 30.1031C25.0736 29.749 24.6298 29.2148 24.2957 28.5051L24.2956 28.5049C24.1255 28.1425 24.0287 27.7972 23.9741 27.1005C23.9202 26.4137 23.9059 25.3671 23.9059 23.597C23.9059 22.1247 23.8914 21.0989 23.8557 20.4168C23.8378 20.0751 23.8148 19.8265 23.7871 19.6538C23.7733 19.5674 23.7591 19.5058 23.7459 19.4639C23.7369 19.4352 23.7305 19.4227 23.7292 19.4202M14.6445 13.9695L23.7292 19.4202M22.1517 18.5944C22.5409 18.7608 22.9191 18.9404 23.2147 19.098C23.3629 19.1771 23.4874 19.249 23.5811 19.3097C23.6279 19.34 23.6646 19.366 23.6916 19.3873C23.7176 19.4078 23.7278 19.4186 23.7292 19.4202M22.1517 18.5944L23.7292 19.4202M21.3836 6.87937L21.383 6.87875C20.9969 6.51179 20.2963 6.00657 19.5297 5.5261C18.7657 5.04724 17.9566 4.60573 17.3589 4.35998C16.7955 4.14087 15.7146 3.82689 14.9214 3.67978C11.7124 3.09175 9.25034 3.7159 7.0805 5.64641L7.07887 5.64784C6.62023 6.04881 6.13464 6.5764 5.78629 7.01869C5.61905 7.23104 5.48885 7.4169 5.40893 7.55517C5.51357 7.57449 5.64727 7.59843 5.80405 7.62592C6.19043 7.69368 6.71403 7.78255 7.28129 7.87616C9.28171 8.18822 10.8334 8.60649 12.4963 9.40769C14.1541 10.2064 15.9134 11.3814 18.3338 13.1934L18.3362 13.1952C19.3188 13.9496 20.9776 14.9161 22.644 15.6994L22.6441 15.6994L22.6483 15.7014C23.3918 16.0681 24.1077 16.4354 24.6604 16.7351C24.9365 16.8849 25.1739 17.0189 25.3545 17.1282C25.4447 17.1827 25.5229 17.2325 25.5856 17.2759C25.6429 17.3156 25.7028 17.3604 25.7447 17.4054C25.9529 17.6278 26.1254 17.8511 26.2618 18.132C26.3976 18.4117 26.4917 18.7367 26.558 19.1573C26.6893 19.9895 26.7176 21.2393 26.7176 23.3344C26.7176 25.235 26.7227 26.2337 26.7721 26.8039C26.7967 27.0883 26.8309 27.2438 26.8706 27.3435C26.9061 27.4328 26.9497 27.4875 27.0273 27.563C27.4276 27.9528 27.9743 27.937 28.2659 27.6126L28.2658 27.6125L28.2718 27.6063C28.3528 27.5221 28.43 27.3875 28.4749 26.865C28.5195 26.3458 28.5293 25.5045 28.5293 24.0659C28.5293 22.1605 28.5759 21.0007 28.7881 20.2013C28.8964 19.7935 29.049 19.4727 29.2629 19.1908C29.4748 18.9115 29.7391 18.6807 30.0555 18.4449L30.0585 18.4427C30.3778 18.212 30.6559 18.0609 31.1093 17.9417C31.5483 17.8262 32.1534 17.7402 33.1236 17.628L33.1248 17.6278C36.1543 17.2918 37.9047 16.9016 39.9986 16.1046L39.9988 16.1046C40.6563 15.8551 41.1423 15.6684 41.5055 15.5013C41.871 15.3332 42.0857 15.1962 42.2181 15.057C42.3408 14.928 42.4051 14.7839 42.4351 14.566C42.4669 14.3349 42.458 14.0392 42.4385 13.6113L42.4384 13.6113L42.4383 13.6061C42.4195 12.8586 42.2302 11.6029 42.023 10.8326L42.0227 10.8316C40.8708 6.47433 37.2753 3.42135 33.3835 3.42135C30.4793 3.42135 26.9366 4.78597 24.7476 6.77024L24.7464 6.77132C24.3892 7.09093 24.0876 7.34282 23.8172 7.51701C23.5457 7.69184 23.2855 7.80185 23.0122 7.81249C22.7352 7.82328 22.4803 7.73079 22.223 7.56975C21.9696 7.4112 21.698 7.176 21.3836 6.87937ZM5.1792 7.50992C5.17606 7.50898 5.1743 7.50855 5.17446 7.50863C5.17459 7.5087 5.17606 7.50913 5.1792 7.50992ZM4.04543 10.4111C4.0423 10.4125 4.04291 10.4125 4.04606 10.4109L4.04543 10.4111ZM4.10544 10.3503L4.10365 10.3533C4.10424 10.3523 4.10485 10.3513 4.10544 10.3503Z" fill="#FFA5BA" stroke="#FFA5BA" stroke-width="0.5"/>
</svg>
