<svg xmlns="http://www.w3.org/2000/svg" width="950.6667" height="1017.3333" version="1.0" viewBox="0 0 713 763"><path d="M165 .7c-4.1.2-7.7.8-8 1.2-.3.4-4.7 1.6-9.7 2.6-5.1.9-9.3 2.1-9.3 2.5 0 .4-1.7 1.1-3.7 1.5-4.8.9-12.7 3.5-13.3 4.5-.3.4-2.8 1.5-5.7 2.4-2.8 1-5.3 2-5.5 2.4-.4.9-9.2 5.2-10.7 5.2-.6 0-1.1.5-1.1 1 0 .6-1.6 1.8-3.5 2.7-1.9.9-3.5 2-3.5 2.4 0 .4-1.8 1.6-4 2.8-2.1 1.1-4.8 2.8-5.8 3.8s-3.5 3.1-5.4 4.6c-7.6 5.9-28.1 27-31.6 32.7-.9 1.4-2.2 2.9-2.9 3.3-.7.4-1.3 1.4-1.3 2.2 0 .8-.6 1.8-1.4 2.2-.7.4-2.1 2.3-3 4-.9 1.8-2 3.3-2.4 3.3-.5 0-1.6 2.2-2.6 5-1 2.7-2.2 5-2.8 5-.5 0-1.4 1.3-1.9 3-.6 1.6-1.4 3-1.9 3-.4 0-1.3 2.1-2 4.6-.7 2.5-1.8 5.1-2.5 5.7-.6.7-1.9 3.8-2.9 6.9-1 3.2-2.1 5.8-2.6 5.8-.4 0-1.3 2.8-2 6.2-.7 3.5-1.7 6.6-2.2 6.9-.4.3-1.6 4.3-2.5 9-.9 4.6-2 8.6-2.4 8.9-1.7 1.2-3.3 25.2-3.3 49.5 0 24.1 1.7 49.3 3.3 50.5.3.3 1.4 5.2 2.4 11 .9 5.7 2.1 10.6 2.6 11 .5.3 1.5 3.3 2.1 6.7.7 3.5 1.6 6.3 1.9 6.3.4 0 1.3 2.7 2 6.1.8 3.3 2 6.6 2.7 7.4.8.7 1.4 1.8 1.4 2.3 0 2.1 3.5 11.8 4.7 13 .7.7 1.3 2.2 1.3 3.2s.6 2.5 1.4 3.3c.8.8 1.9 3.2 2.5 5.5.7 2.3 1.7 4.7 2.4 5.4.8.7 2.2 3.4 3.2 6.1 1 2.6 2.1 4.7 2.5 4.7.4 0 1.3 1.8 2 4s1.7 4 2.2 4c.5 0 1.6 1.7 2.5 3.7.8 2.1 2.1 4.2 2.9 4.6.8.4 1.4 1.5 1.4 2.2 0 .8.8 2.3 1.8 3.3.9.9 2.6 3.6 3.6 6 1 2.3 2.3 4.2 2.8 4.2s1.3 1.1 1.8 2.5 1.3 2.5 1.7 2.5c.5 0 1.7 1.6 2.7 3.5 1.1 1.9 2.3 3.5 2.8 3.5s1.3 1.1 1.8 2.5 1.7 2.8 2.5 3.1c.8.4 1.5 1.2 1.5 2 0 .7 1.1 2.1 2.5 3 1.4.9 2.5 2.1 2.5 2.7 0 .6.9 2 1.9 3.2 1.1 1.1 4 4.2 6.5 6.8 2.5 2.7 4.6 5.1 4.6 5.4 0 .4 5.5 6 12.2 12.5 6.8 6.5 15.9 15.4 20.4 19.7 4.5 4.3 9.4 8.7 11 9.7 1.5 1.1 4.4 3.6 6.4 5.6 1.9 2.1 4 3.8 4.7 3.8.6 0 2 1.1 3 2.3 1 1.3 2.8 2.9 4 3.5 1.2.7 2.8 1.8 3.5 2.4 2.3 2.2 7.7 5.8 8.5 5.8.5 0 1.4.9 2.1 2 .7 1.1 1.9 2 2.7 2 .8 0 1.8.6 2.2 1.2.9 1.5 3.7 3.3 7.1 4.8 1.2.5 2.2 1.3 2.2 1.8s1.8 1.7 4 2.7c2.2 1 4 2.1 4 2.4 0 .4 2.3 1.7 5 3 2.8 1.3 5 2.7 5 3.1 0 .4 2 1.5 4.5 2.6 2.5 1 4.5 2.1 4.5 2.4 0 .3 2.4 1.6 5.3 3 2.8 1.3 5.4 2.7 5.7 3 .3.3 2.4 1.4 4.7 2.5 2.4 1.1 4.3 2.3 4.3 2.7 0 .3 2.3 1.4 5 2.3 2.8.9 5 2 5 2.4 0 .4 2.9 1.8 6.5 3.1s6.5 2.7 6.5 3c0 .3 2 1.2 4.6 1.9 2.5.7 5 1.9 5.7 2.5 1.5 1.4 11.4 5.6 13.3 5.6.8 0 1.4.4 1.4.8s2.2 1.6 5 2.6 5 2.2 5 2.6c0 .4.9 1 2 1.3 2 .5 2 1.4 2 104.1V763h51V572.5h20V763h51V659c0-103.3 0-104 2-104 1.1 0 2-.4 2-.8s2.2-1.6 5-2.6c2.7-1 5-2.1 5-2.5 0-.3 2.7-1.5 6.1-2.5 3.3-1 6.6-2.4 7.2-3.1.7-.6 3.8-2 7-3 3.1-1 5.7-2.1 5.7-2.5 0-.4 2.8-1.8 6.3-3.1 3.4-1.2 6.4-2.6 6.7-3 .3-.4 2.5-1.5 5-2.5s5-2.3 5.5-2.9c.6-.7 2.6-1.8 4.5-2.6 1.9-.7 4.3-2.1 5.3-3 1-.9 3.5-2.2 5.7-2.9 2.2-.7 4-1.7 4-2.1 0-.5 1.7-1.6 3.7-2.4 2.1-.9 4-2 4.3-2.4.3-.5 2.6-1.8 5.3-3 2.6-1.2 4.7-2.5 4.7-2.9 0-.5 1.6-1.6 3.5-2.5 1.9-.9 3.5-2 3.5-2.5s1.6-1.5 3.6-2.2c2-.8 4.1-2.2 4.8-3 .6-.9 2.7-2.4 4.7-3.3 2-.9 3.9-2.4 4.3-3.2.3-.8 1.1-1.5 1.8-1.5s3.1-1.6 5.3-3.5c2.2-1.9 4.3-3.5 4.6-3.5.4 0 2.4-1.6 4.5-3.5 2.2-1.9 4.2-3.5 4.6-3.5.4 0 2.7-2 5.2-4.5 2.6-2.5 5-4.5 5.4-4.5.5 0 5.8-4.8 11.9-10.8 6.1-5.9 15.4-14.9 20.7-19.9 5.3-5.1 9.6-9.6 9.6-10.1 0-.4 1.2-1.9 2.8-3.3 1.5-1.4 4.5-4.7 6.7-7.4 2.2-2.6 4.9-5.7 6-6.9 1.1-1.2 2.8-3.4 3.8-5 2.1-3.1 4.4-6.1 7-8.8.9-1 1.7-2.2 1.7-2.7 0-.6.8-1.6 1.8-2.3.9-.7 2.6-3.1 3.7-5.3 1.1-2.2 2.3-4.1 2.7-4.3.4-.2 1.5-1.9 2.4-3.8.9-1.9 2-3.4 2.5-3.4s.9-.6.9-1.3c0-.7.8-2.2 1.8-3.3.9-1 2.6-3.7 3.7-5.9s2.3-4.2 2.7-4.5c.3-.3 1.4-2.5 2.4-5s2.4-5.1 3.1-5.8c.7-.7 1.3-1.9 1.3-2.6 0-.7.9-2.3 1.9-3.5 1-1.2 2.5-4.2 3.2-6.6.7-2.5 1.6-4.5 2-4.5.3 0 1.4-2.5 2.4-5.5.9-3 2-5.5 2.4-5.5.4 0 1.4-2.5 2.1-5.5.7-3 1.6-5.5 2-5.5.4 0 1.5-3.5 2.6-7.8 1-4.2 2.1-7.9 2.5-8.2.8-.7 3.9-14.6 3.9-17.6 0-1.3.4-2.4.9-2.4s1.4-4.4 2.1-9.8c.7-5.3 1.6-9.9 2.1-10.2.4-.3 1.3-10.1 2-21.7.9-16.4.9-25.3 0-39.5-.7-10-1.5-18.5-2-18.8-.4-.3-1.4-4.7-2.1-9.8-.7-5-1.6-9.2-1.9-9.2-.4 0-1.5-4.3-2.6-9.5-1-5.2-2.1-9.5-2.5-9.5-.3 0-1.4-2.9-2.5-6.5-1-3.6-2.1-6.5-2.5-6.5-.4 0-1.3-2-2-4.5s-1.6-4.5-2-4.5c-.5 0-1.6-2.3-2.6-5-1-2.8-2.1-5-2.5-5-.3 0-1.4-2-2.3-4.5-1-2.5-2.1-4.5-2.6-4.5-.4 0-1.3-1.4-2.1-3.1-.7-1.8-2.3-4.3-3.6-5.7-1.3-1.4-2.3-3-2.3-3.6 0-.6-.9-1.7-2-2.4s-2-1.9-2-2.7c0-.8-.9-1.9-2-2.5-1.1-.6-2-1.7-2-2.4 0-.8-1.1-2.1-2.5-3-1.4-.9-2.5-2.1-2.5-2.7 0-.6-2.8-3.7-6.2-7-3.5-3.3-8.1-7.8-10.4-9.9-2.2-2.2-4.3-4-4.7-4-.3 0-1.7-1-3-2.3-3.8-3.5-6.9-5.8-10.4-7.5-1.8-.9-3.3-1.9-3.3-2.3 0-.5-1.7-1.6-3.7-2.6-2.1-.9-4.2-2.2-4.8-2.9-.5-.6-3.1-1.9-5.7-2.9-2.7-1-4.8-2.1-4.8-2.4 0-.4-2.2-1.5-5-2.5-2.7-1-5-2.2-5-2.7s-.5-.9-1.2-.9c-1.8 0-15.2-4.3-15.8-5-.7-.9-15.5-4-19-4-1.7 0-3-.5-3-1 0-.6-11.7-1-33-1s-33 .4-33 1c0 .5-1.7 1-3.7 1-4.8 0-21.6 3-22.3 4-.3.4-4.9 1.7-10.2 3-5.4 1.2-9.8 2.5-9.8 3 0 .4-3.1 1.6-7 2.6-3.8 1-7 2.1-7 2.5 0 .4-3 1.7-6.7 3-3.8 1.2-7 2.5-7.3 3-.3.4-2.5 1.5-5 2.5s-4.7 2.1-5 2.5c-.3.3-2.7 1.7-5.5 2.9-2.7 1.2-5.2 2.6-5.5 2.9-.3.4-2.2 1.5-4.2 2.4-2.1 1-3.8 2.1-3.8 2.6 0 .4-1.6 1.5-3.5 2.4-1.9.9-3.5 2.1-3.5 2.6s-1.3 1.4-2.8 2c-1.6.7-4.6 2.8-6.8 4.7-3.1 2.8-4.5 3.4-6.9 2.9-1.6-.3-3.7-1.3-4.5-2.3-1.8-2-4.5-3.8-7.7-5.2-1.3-.5-2.3-1.4-2.3-1.9 0-.6-1.7-1.8-3.7-2.8-2.1-.9-4.5-2.5-5.5-3.5s-2.5-1.8-3.3-1.8c-.7 0-1.8-.6-2.2-1.3-.7-1.2-9.4-5.7-10.8-5.7-.3 0-1.5-.9-2.7-2-1.1-1-3.4-2.2-4.9-2.5-1.6-.4-2.9-1-2.9-1.5 0-.4-3.1-1.8-7-3.1-3.8-1.2-7-2.6-7-3 0-.4-3-1.5-6.7-2.5-3.8-1-7-2.1-7.4-2.6-.3-.4-5-1.8-10.5-3C255 8.6 250.3 7.3 250 7c-.6-.8-23.1-4-27.7-4-1.7 0-3.3-.5-3.5-1C218.5.9 178.1-.1 165 .7zm45.9 48.4c6.4.6 11.8 1.5 12.1 1.9.3.4 2.8 1 5.5 1.4 8.6 1.2 16.5 3 16.5 3.7 0 .4 1.7 1 3.8 1.3 5.6 1.1 14.6 3.9 15.8 5.1.6.6 3 1.7 5.3 2.5 2.2.7 4.1 1.6 4.1 2 0 .4 1.8 1.3 4 2s4.8 2.1 5.9 3.1c1.1 1 3 2.1 4.4 2.4 1.4.4 3.4 1.5 4.5 2.6 1.2 1 3.9 2.8 6.1 4 2.3 1.2 4.1 2.4 4.1 2.8 0 .3 1.5 1.2 3.3 2 1.7.7 3.7 1.9 4.2 2.5 1.2 1.3 7.2 5.6 7.9 5.6.3 0 2.7 2.2 5.4 4.9s5.8 5.2 7 5.5c1.2.4 2.2 1.1 2.2 1.6s1.5 1.7 3.3 2.6c1.7.9 3.5 2.2 3.9 2.8.9 1.4 17.6 1.5 18.6.1.4-.6 2.6-1.9 5-2.9 2.3-1.1 4.2-2.3 4.2-2.7 0-.5 1.3-1.5 2.8-2.3 1.5-.8 4.6-3.2 6.8-5.3 4.7-4.4 9.9-8.3 11.3-8.3.5 0 1.1-.7 1.5-1.5.3-.8 1.7-2 3.1-2.5 1.4-.5 2.5-1.4 2.5-2 0-.5 2.1-1.9 4.8-3.1 2.6-1.2 4.9-2.5 5.2-3 .3-.4 2.3-1.6 4.5-2.5 2.2-.9 4.4-2.2 5-2.9.5-.7 3.4-2.1 6.3-3.1 2.8-1 5.2-2.1 5.2-2.4 0-.4 2.7-1.5 6-2.5s6-2.1 6-2.5c0-.4 4.1-1.8 9-3.1 4.9-1.2 9-2.6 9-3 0-.3 4.2-1.5 9.3-2.4 5-1 9.4-2.1 9.7-2.5 1.1-1.4 19.4-3 33.8-3 14.4 0 30.1 1.4 31.2 2.8.3.4 3.6 1.5 7.5 2.5 3.8 1 7.2 2.1 7.5 2.6.3.4 3 1.5 6 2.5s6 2.3 6.5 2.9c.6.7 2.8 2.1 5 3.2s4.2 2.2 4.5 2.5c.9.9 4.4 3 6.8 4 1.2.5 2.2 1.4 2.2 2 0 .6.8 1.3 1.8 1.7.9.4 3.4 2.3 5.5 4.2 8.8 8.3 17.3 17 19.2 19.5 1.1 1.5 2.8 3.6 3.8 4.7.9 1 1.7 2.2 1.7 2.6 0 .5 1.1 2.1 2.5 3.7 1.3 1.5 3 4.1 3.7 5.7.7 1.6 1.6 2.9 1.9 2.9.3 0 1.4 2 2.3 4.5 1 2.5 2.1 4.5 2.6 4.5.4 0 1.6 2.7 2.6 6s2.1 6 2.5 6c.4 0 1.3 2.4 1.9 5.2.7 2.9 1.6 5.5 2 5.8.9.6 4 15.2 4 19 0 1.6.4 3 .9 3.2 2.3.8 4.1 37.1 2 41.1-1.4 2.6-4.9 5.6-6.6 5.7-.6 0-1.8.6-2.5 1.3-.7.8-4 2.2-7.3 3.2s-6.3 2.3-6.6 2.7c-.3.5-3.9 1.8-8 2.9-4.1 1.2-7.6 2.5-7.9 2.9-.3.4-3.5 1.5-7.2 2.5-3.8 1-6.8 2.2-6.8 2.6 0 .5-.8.9-1.7.9-2.7 0-15.7 3.2-16.3 4.1-.3.4-7.2 1.7-15.5 3-8.2 1.2-15.2 2.6-15.5 2.9-.5.7-29.4 4-34.7 4-1.8 0-3.3.4-3.3.9 0 .4-3.8 1.1-8.5 1.5-14.4 1.2-27.5 3.5-29.1 5.1-.9.8-2.1 1.5-2.8 1.5-1.8 0-6.6 2.4-6.6 3.3 0 .4-1 1.2-2.2 1.7-3.5 1.5-5.8 3.2-9.5 7-5.7 6-6.3 6.6-6.3 7.6 0 .6-.8 1.9-1.8 3-2 2.1-5.2 12.8-5.2 17.3 0 1.6-.5 3.1-1.2 3.3-.8.3-1.3 13-1.8 47.7-.4 26-1.1 47.6-1.6 47.9-.5.4-1.4 1.6-2 2.6-2.4 4.5-12.6 3.5-15.1-1.4-.7-1.4-1.3-5.8-1.3-9.8 0-3.9-.4-7.2-.9-7.2s-1.1-21.6-1.4-50.8c-.4-48.3-1.2-62.5-3.7-64.2-.4-.3-1.3-2.2-1.9-4.3-.7-2-1.7-3.7-2.2-3.7-.5 0-.9-.6-.9-1.4 0-2.6-10.3-12.3-15.5-14.6-2.7-1.2-5.2-2.6-5.5-2.9-.3-.4-2.3-1.5-4.5-2.5-2.2-1.1-4.2-2.2-4.5-2.6-.3-.3-2.5-1.4-5-2.4s-4.7-2.1-5-2.5c-.3-.4-3.2-1.8-6.5-3.1s-6.2-2.7-6.5-3c-.3-.4-2.6-1.5-5.2-2.5-2.7-1-4.8-2.1-4.8-2.4 0-.4-2.9-1.8-6.5-3.1s-6.5-2.7-6.5-3.1c0-.3-2-1.4-4.5-2.5-2.5-1-4.5-2.1-4.5-2.4 0-.4-2.5-1.7-5.5-2.9-3-1.3-5.5-2.6-5.5-3 0-.4-2-1.5-4.5-2.5-2.5-1.1-4.5-2.3-4.5-2.7 0-.5-2-1.8-4.5-2.9-2.5-1.1-4.5-2.4-4.5-2.9s-.8-1.1-1.7-1.5c-2.7-.8-5.6-2.9-7.1-4.9-.7-.9-1.9-1.7-2.7-1.7-.8 0-2-.8-2.7-1.8-1.5-1.9-4.4-4-7-4.8-1-.4-1.8-1-1.8-1.5s-1-1.4-2.2-1.9c-3.4-1.5-6.2-3.3-7.1-4.8-.4-.6-1.4-1.2-2.2-1.2-.8 0-2-.8-2.7-1.8-.7-.9-3.4-2.8-6-4.1-2.7-1.3-4.8-2.7-4.8-3.1 0-.4-1.8-1.5-4-2.6-2.2-1-4-2.2-4-2.6 0-.4-2-1.7-4.5-2.8-2.5-1.1-4.5-2.4-4.5-2.8 0-.5-1.9-1.7-4.2-2.7-2.4-1-4.7-2.4-5.3-3-.5-.7-2.6-1.8-4.5-2.5s-3.9-1.8-4.5-2.5c-.5-.6-3.1-2-5.7-3-2.7-1-4.8-2.1-4.8-2.4 0-.4-2.2-1.5-5-2.5-2.7-1-5-2.1-5-2.5 0-.3-3.6-1.7-8-3-4.4-1.4-8-2.8-8-3.2 0-.4-3.4-1.5-7.5-2.5s-7.5-2.1-7.5-2.5c0-.4-5.5-1.7-12.2-3-6.8-1.3-12.5-2.6-12.8-3-.3-.3-6.7-1.5-14.2-2.5-7.6-1-13.8-2.1-13.8-2.5 0-.4-3.6-1-8-1.4-7.8-.7-10.7-1.9-7.6-3.1.9-.3 1.6-1.2 1.6-1.8 0-.7 1-2.2 2.3-3.3 1.2-1.2 4.9-5.1 8.1-8.7 3.3-3.6 6.4-6.6 7-6.6.6 0 2.6-1.6 4.5-3.5s3.9-3.5 4.6-3.5c.7 0 1.5-.7 1.9-1.5.3-.8 2.3-2.3 4.6-3.2 2.2-1 4-2.1 4-2.6 0-.4 1.6-1.5 3.5-2.3 1.9-.8 3.5-1.8 3.5-2.3 0-.5 3.2-1.9 7-3.1 3.9-1.2 7-2.6 7-3 0-.4 3.7-1.5 8.3-2.5 4.5-1 8.4-2.2 8.7-2.7 1.7-2.4 32-3.4 49.9-1.7zm-123.1 104c7.8.7 14.2 1.6 14.2 2 0 .5 1 .9 2.3.9 3.4-.1 23.1 3.3 23.7 4.1.3.3 4.6 1.7 9.5 2.9 5 1.3 9.2 2.7 9.5 3 .3.4 3.3 1.5 6.8 2.5 3.4 1 6.2 2.2 6.2 2.6 0 .3 2.7 1.7 6 2.9s6 2.6 6 3c0 .4 1.9 1.3 4.1 2 2.3.8 4.7 1.9 5.3 2.5 1.3 1.3 10.1 5.5 11.5 5.5.5 0 1.1.7 1.5 1.5.3.8 1.1 1.5 1.9 1.5.7 0 2.2.9 3.4 1.9 1.1 1.1 3.9 2.9 6.2 4 2.2 1.2 4.1 2.5 4.1 3s.8 1.2 1.8 1.5c3.3 1.3 6.2 3.1 6.2 3.9 0 .4 1 1.2 2.3 1.7 3.4 1.5 6 3.3 7.5 5.2.7 1 1.9 1.8 2.7 1.8.8 0 1.8.6 2.2 1.2.9 1.4 3.7 3.3 6.9 4.7 1.2.5 2.4 1.7 2.7 2.5.4.9 1.2 1.6 1.9 1.6s2.9 1.4 4.8 3 4 3 4.7 3c.6 0 1.8.8 2.5 1.8s3 2.6 5.1 3.5c2 1 3.7 2.1 3.7 2.5 0 .4 1.8 1.6 4 2.6 2.2 1.1 4 2.2 4 2.6 0 .4 2.3 1.7 5 2.9 2.8 1.2 5 2.5 5 3 0 .4 2 1.6 4.5 2.7 2.5 1 4.5 2.1 4.5 2.4 0 .4 2.5 1.7 5.5 2.9 3 1.3 5.5 2.6 5.5 3 0 .4 2.3 1.5 5 2.5 2.8 1 5 2.1 5 2.5 0 .4 2.5 1.5 5.6 2.6 3.1 1.1 6.2 2.4 6.8 3 .6.5 3.6 1.8 6.6 2.9 3 1 5.7 2.2 6 2.5.3.4 3.4 1.8 7 3.1s6.7 2.7 7 3c.3.4 1.9 1.3 3.5 2.1 2.7 1.3 3.1 2 3.6 7.4.4 3.3.7 25.2.8 48.7.1 27.8.5 42.8 1.1 42.8.6 0 1 3.7 1 9 0 9.9 1.8 24 3.1 24 .4 0 1.5 2.4 2.3 5.4.9 3 2.3 5.6 3.1 6 .8.3 1.5 1.2 1.5 2 0 1.3 9.1 10.9 14.7 15.6 2.5 2.1 8.7 5 10.7 5 .9 0 1.6.4 1.6.9 0 1.5 9.1 3.2 20 3.8 10.3.6 26.6-1.6 28-3.6.3-.5 2.2-1.4 4.3-2.2 2.2-.7 4.3-2.2 4.8-3.1.5-1 1.6-1.8 2.3-1.8 1.4 0 13.6-11.8 13.6-13.2 0-.5 1.2-2.1 2.8-3.6 2.9-2.9 6.2-12.6 6.2-18.6 0-1.9.5-3.6 1.1-3.8.9-.3 1.3-12 1.6-42.3.4-47.1 1.1-54.6 4.9-56.4 1.4-.6 3.4-1.1 4.4-1.1 1.1 0 2-.4 2-.9 0-.4 4.6-1.1 10.3-1.5 16.4-1.1 40.1-3.7 40.7-4.5.3-.4 6.4-1.5 13.5-2.5 7.2-1 13.2-2.2 13.5-2.6.3-.4 5.9-1.7 12.5-3s12.2-2.6 12.5-3c.3-.3 4.1-1.4 8.5-2.4s8.2-2.2 8.5-2.5c.3-.4 4.4-1.8 9.3-3.1 4.8-1.2 8.7-2.6 8.7-3.1 0-.9 5.9-2.3 6.6-1.6.7.7-1.8 8.7-2.7 8.7-.4 0-1.3 2.5-2 5.6-.7 3.1-1.8 6.1-2.4 6.8-.6.6-1.9 3.7-3 6.8-1 3.2-2.2 5.8-2.6 5.8-.3 0-1.4 2.5-2.4 5.5-.9 3-2 5.5-2.4 5.5-.4 0-1.4 1.8-2.1 4-.7 2.2-1.7 4-2.1 4-.4 0-1.5 2.2-2.5 5-1 2.7-2.1 5-2.4 5-.4 0-1.5 1.8-2.5 4s-2.2 4-2.7 4c-.4 0-.8.6-.8 1.3 0 .7-.8 2.2-1.7 3.3-1 1-2.7 3.6-3.8 5.6-1.1 2.1-2.3 3.8-2.6 3.8-.4 0-1.4 1.6-2.3 3.5-.9 1.9-2.1 3.5-2.5 3.5-.4 0-1.3 1.2-2 2.7-.7 1.5-2.1 3.3-3.2 4.1-1 .7-1.9 1.8-1.9 2.4 0 .6-1 2.1-2.2 3.4-1.3 1.3-3.4 3.7-4.8 5.4-6.9 8.4-26.8 28.9-32.6 33.5-2 1.6-5.1 4.3-6.9 6-1.7 1.6-4.9 4.3-7 6-2.2 1.6-5.1 4.2-6.4 5.7-1.4 1.6-3.1 2.8-3.8 2.8-.6 0-1.6.6-2 1.4-.4.8-2.5 2.4-4.5 3.6-2.1 1.2-3.8 2.5-3.8 2.9 0 .3-1.7 1.5-3.7 2.6-2.1 1.1-4.4 2.8-5.1 3.7-.7 1-1.9 1.8-2.5 1.8-.7 0-2.4 1.1-4 2.4-1.5 1.3-4.1 2.9-5.7 3.6-1.7.7-3 1.6-3 2.1s-2 1.8-4.5 2.9c-2.5 1.1-4.5 2.4-4.5 2.9s-2 1.7-4.5 2.8c-2.5 1-4.5 2.1-4.5 2.5 0 .3-2.1 1.6-4.7 2.9-2.7 1.2-5 2.5-5.3 2.8-.3.4-2.4 1.5-4.7 2.6-2.4 1.1-4.3 2.3-4.3 2.7 0 .3-2.2 1.4-5 2.3-2.7.9-5.3 2.2-5.7 2.9-.5.7-3 2.1-5.8 3.1-2.7 1.1-5.2 2.2-5.5 2.5-.3.4-3.4 1.7-7 3s-6.7 2.7-7 3.1c-.3.4-2.8 1.5-5.5 2.5-2.8.9-5.2 2-5.5 2.3-.3.4-3.8 1.8-7.7 3-4 1.3-7.3 2.7-7.3 3.2s-.6.9-1.4.9c-1.8 0-12 3.2-12.6 4-.3.4-4.5 1.7-9.5 2.9-4.9 1.2-9.3 2.8-9.7 3.4-.9 1.5-11.7 1.5-12.6.1-.4-.6-4.9-2.1-9.9-3.5-5.1-1.3-9.3-2.7-9.3-3 0-.4-3-1.5-6.7-2.5-3.8-1-7-2.1-7.3-2.5-.3-.4-3.8-1.7-7.7-2.9-4-1.2-7.3-2.5-7.3-2.9 0-.4-2.7-1.5-6-2.5s-6-2.2-6-2.6c0-.4-3.1-1.8-7-3-3.8-1.2-7-2.6-7-3 0-.4-2.1-1.5-4.7-2.5-2.7-1-5-2.1-5.3-2.4-.3-.4-2.9-1.8-5.7-3.1-2.9-1.4-5.3-2.8-5.3-3.2 0-.3-1.3-.9-2.9-1.3-1.5-.3-3.7-1.4-4.7-2.3-1.1-.9-4.3-2.8-7.1-4.1-2.9-1.4-5.3-2.8-5.3-3.2 0-.4-1.3-1.1-2.8-1.7-1.6-.5-3.5-1.6-4.3-2.5-.8-.8-3.4-2.4-5.7-3.6-2.3-1.2-4.2-2.5-4.2-2.9 0-.4-1.8-1.5-4-2.5-2.2-.9-4-2.1-4-2.7 0-.5-2-1.8-4.4-2.9-2.4-1.1-4.6-2.7-5-3.6-.3-.8-1.2-1.5-2-1.5-.9 0-2.3-1.1-3.2-2.5-.9-1.4-2.2-2.5-2.8-2.5-1.3 0-6.4-4-10.7-8.3-1.5-1.5-3.1-2.7-3.6-2.7-.6 0-3.5-2.5-6.6-5.5-3.1-3-5.9-5.5-6.3-5.5-.4 0-2.3-1.6-4.3-3.5-17.7-17-21.1-20.4-21.1-21.2 0-.4-2.2-2.8-5-5.2-2.7-2.4-5-4.9-5-5.6 0-.6-1.4-2.1-3-3.3-1.7-1.3-3-2.6-3-3.1 0-.4-2-3-4.5-5.7-2.5-2.6-4.5-5.3-4.5-6 0-.6-.7-1.4-1.5-1.8-.8-.3-2-1.7-2.5-3.1-.5-1.4-1.4-2.5-1.9-2.5s-1.4-1.4-2.1-3c-.7-1.7-1.6-3-2.1-3-.4 0-1.6-1.6-2.5-3.5-.9-1.9-1.9-3.5-2.3-3.5-.4 0-1.5-2-2.5-4.5-1.1-2.5-2.3-4.5-2.8-4.5s-1.4-1.4-1.9-3c-.6-1.7-1.4-3-1.8-3-.4 0-1.5-2.3-2.5-5-1-2.8-2.2-5-2.6-5-.4 0-1.6-2.3-2.6-5-1-2.8-2.1-5-2.6-5-.4 0-1.2-1.8-1.8-4-.6-2.2-1.5-4-2-4-.6 0-1-.5-1-1.2 0-2.2-3.4-12.8-4.2-12.8-.3 0-1.4-3.5-2.4-7.8-.9-4.2-2-7.9-2.3-8.2-.9-.6-3.1-10.4-3.1-13.5 0-1.3-.4-2.5-.9-2.7-.9-.3-4.1-20.5-4.1-26.2 0-2-.4-3.6-1-3.6s-1-6.8-1-18.5.4-18.5 1-18.5 1-2.7 1-6c0-7.9 2.9-28.4 4.1-28.8.5-.2.9-1.2.9-2.2 0-3.2.8-3.2 29.8-.9z"/></svg>