<svg xmlns="http://www.w3.org/2000/svg" width="13" height="12" fill="none"><path fill="#D31342" d="M12.2399 5.7754c.2247-.2438.203-.6174-.0485-.8343L6.6519.1597c-.2515-.2169-.6546-.2123-.9007.0103L.1928 5.196c-.2462.2226-.2582.5958-.0268.8331l.1394.1432c.2312.2373.6049.2656.8342.063l.4154-.367v5.3724c0 .3296.2707.5965.6046.5965h2.1667c.3339 0 .6047-.2669.6047-.5965V7.4822h2.7636v3.7585c-.0048.3294.234.5962.568.5962h2.2961c.3339 0 .6047-.2668.6047-.5964V5.944s.1147.0991.2563.2219c.1413.1225.438.0242.6627-.2198l.1575-.1707Z"/></svg>