<svg xmlns="http://www.w3.org/2000/svg" width="33" height="50" fill="none"><path fill="#FFA5BA" d="M3.645.225c-.546.293-.863.879-.863 1.572.01 1.27.326 2.432.96 3.437l.278.46-.528.595c-.595.664-.739.908-1.007 1.7-.221.644-.24 1.816-.048 2.47.671 2.246 2.897 3.545 5.074 2.969.739-.196 1.19-.44 1.88-1.026l.586-.488.547.274c.307.156.825.38 1.16.507l.595.215v1.094c0 1.728.355 2.754 1.266 3.682.912.927 2.341 1.406 3.579 1.191.882-.156 1.745-.596 2.33-1.191.912-.928 1.267-1.954 1.267-3.682V12.91l.604-.215c.326-.127.845-.351 1.152-.508l.546-.273.585.488c.691.586 1.142.83 1.88 1.026 2.178.576 4.404-.723 5.075-2.969.192-.654.173-1.826-.048-2.47-.268-.792-.412-1.036-1.007-1.7l-.527-.596.278-.459c.633-1.005.95-2.168.96-3.437 0-.693-.318-1.28-.864-1.572L28.942 0H4.058l-.413.225ZM26.67 3.28c0 .03-.279.489-.624 1.035-1.017 1.612-.978 1.963.374 3.39.49.517.94 1.034 1.008 1.151.364.723-.365 1.622-1.17 1.436-.193-.04-.615-.38-1.229-.986-1.228-1.211-1.65-1.348-2.59-.81-1.084.624-2.465 1.259-3.137 1.444-.95.274-1.276.479-1.525.996-.201.4-.22.567-.22 2.13 0 1.923-.078 2.236-.624 2.5-.394.195-.47.195-.864 0-.547-.264-.623-.577-.623-2.5 0-1.563-.02-1.73-.211-2.13-.26-.507-.585-.722-1.535-.996-.825-.234-2.043-.771-2.715-1.21-.633-.41-1.19-.567-1.63-.489-.289.059-.576.283-1.344 1.035-.633.616-1.084.977-1.276 1.016-.796.186-1.525-.723-1.16-1.436.067-.117.518-.634 1.007-1.152 1.352-1.426 1.39-1.777.374-3.389-.345-.546-.624-1.005-.624-1.035 0-.039 4.576-.058 10.169-.058 5.593 0 10.169.02 10.169.058ZM.758 20.635c-.49.332-.758.8-.758 1.318 0 .352 4.873 26.445 5.046 26.992.086.303.441.664.815.86C6.216 50 6.466 50 16.5 50c10.034 0 10.284 0 10.639-.195.374-.196.729-.557.815-.86.173-.547 5.046-26.64 5.046-26.992 0-.517-.269-.986-.758-1.318l-.326-.225H1.084l-.326.225Zm28.453 3.554c-.096.782-.653 2.48-1.065 3.252-2.005 3.711-5.804 5.967-10.514 6.23-3.559.206-6.571-.517-9.094-2.177a10.954 10.954 0 0 1-3.54-3.808c-.48-.85-1.113-2.676-1.209-3.497l-.067-.556h25.556l-.067.556ZM6.859 34.248c4.115 2.774 10.264 3.506 15.445 1.826 1.727-.556 3.492-1.494 4.969-2.636.432-.342.46-.342.413-.128-.03.127-.595 3.116-1.257 6.631-.662 3.516-1.218 6.494-1.247 6.612l-.048.224H7.866l-.048-.224c-.028-.117-.585-3.096-1.247-6.612-.662-3.515-1.228-6.504-1.256-6.63-.048-.215-.02-.215.412.127.25.195.767.556 1.132.81Z"/></svg>