<svg aria-hidden="true" style="position: absolute; width: 0; height: 0; overflow: hidden;" version="1.1" xmlns="http://www.w3.org/2000/svg" xmlns:xlink="http://www.w3.org/1999/xlink">
<defs>
<symbol id="close" viewBox="0 0 32 32">
<path d="M23.733 10.304l-1.504-1.504-5.963 5.963-5.963-5.963-1.504 1.504 5.963 5.963-5.963 5.963 1.504 1.504 5.963-5.963 5.963 5.963 1.504-1.504-5.963-5.963 5.963-5.963z"></path>
</symbol>
<symbol id="menu" viewBox="0 0 32 32">
<path d="M6.4 11.733v-2.133h19.2v2.133h-19.2zM6.4 17.067h19.2v-2.133h-19.2v2.133zM6.4 22.4h19.2v-2.133h-19.2v2.133z"></path>
</symbol>
<symbol id="dots-products" viewBox="0 0 139 32">
<path d="M85.352 16.015c0 8.838-7.165 16.003-16.004 16.003s-16.004-7.165-16.004-16.003c0-8.838 7.165-16.003 16.004-16.003s16.004 7.165 16.004 16.003z"></path>
<path d="M32.007 16.015c0 8.838-7.165 16.003-16.003 16.003s-16.003-7.165-16.003-16.003c0-8.838 7.165-16.003 16.003-16.003s16.003 7.165 16.003 16.003z"></path>
<path d="M138.697 16.015c0 8.838-7.165 16.003-16.004 16.003s-16.004-7.165-16.004-16.003c0-8.838 7.165-16.003 16.004-16.003s16.004 7.165 16.004 16.003z"></path>
</symbol>
<symbol id="dots-slider" viewBox="0 0 256 32">
<path d="M144.009 16.015c0 8.837-7.164 16.001-16.001 16.001s-16.001-7.164-16.001-16.001c0-8.837 7.164-16.001 16.001-16.001s16.001 7.164 16.001 16.001z"></path>
<path d="M32.002 16.015c0 8.837-7.164 16.001-16.001 16.001s-16.001-7.164-16.001-16.001c0-8.837 7.164-16.001 16.001-16.001s16.001 7.164 16.001 16.001z"></path>
<path d="M256.015 16.015c0 8.837-7.164 16.001-16.001 16.001s-16.001-7.164-16.001-16.001c0-8.837 7.164-16.001 16.001-16.001s16.001 7.164 16.001 16.001z"></path>
</symbol>
<symbol id="ellipse" viewBox="0 0 32 32">
<path d="M32 16c0 8.837-7.163 16-16 16s-16-7.163-16-16c0-8.837 7.163-16 16-16s16 7.163 16 16z"></path>
</symbol>
<symbol id="facebook" viewBox="0 0 16 32">
<path d="M14.147 15.972h-4.034v14.867h-6.113v-14.867h-2.906v-5.222h2.906v-3.382c0-2.418 1.142-6.204 6.168-6.204l4.527 0.019v5.072h-3.285c-0.538 0-1.298 0.272-1.298 1.426v3.074h4.568l-0.534 5.219z"></path>
</symbol>
<symbol id="github" viewBox="0 0 32 32">
<path d="M16 0c-8.789 0-16 7.211-16 16 0 7.499 5.262 14.312 12.25 16v-5.293c-0.276 0.070-0.593 0.109-0.919 0.109-0.398 0-0.781-0.059-1.143-0.169l0.028 0.007c-0.946-0.278-1.714-0.909-2.285-1.869-0.363-0.613-1.008-1.28-1.68-1.23l-0.165-1.867c1.454-0.125 2.71 0.886 3.456 2.139 0.333 0.558 0.715 0.885 1.205 1.029 0.472 0.141 0.981 0.074 1.573-0.136 0.149-1.186 0.693-1.629 1.104-2.256-4.168-0.621-5.829-2.832-6.488-4.576-0.874-2.318-0.405-5.213 1.139-7.043 0.030-0.035 0.085-0.128 0.064-0.192-0.709-2.141 0.154-3.91 0.186-4.098 0.818 0.24 0.95-0.243 3.552 1.336l0.448 0.27c0.189 0.112 0.128 0.048 0.317 0.032 1.003-0.282 2.157-0.452 3.349-0.469l0.010-0c1.136 0.014 2.272 0.176 3.403 0.483l0.146 0.016c-0.013-0.003 0.040-0.010 0.128-0.062 3.248-1.968 3.131-1.325 4.003-1.608 0.032 0.189 0.882 1.987 0.182 4.099-0.096 0.291 2.816 2.957 1.202 7.235-0.659 1.744-2.32 3.957-6.486 4.578 0.534 0.816 1.176 1.248 1.173 2.928v6.606c6.986-1.688 12.25-8.501 12.25-16 0-8.789-7.211-16-16-16z"></path>
</symbol>
<symbol id="home" viewBox="0 0 35 32">
<path d="M34.273 15.616c0.257-0.28 0.414-0.654 0.414-1.065 0-0.475-0.21-0.901-0.543-1.191l-0.002-0.002-14.782-12.933c-0.318-0.269-0.732-0.432-1.185-0.432-0.467 0-0.894 0.174-1.218 0.461l0.002-0.002-14.83 13.597c-0.316 0.288-0.514 0.701-0.514 1.161 0 0.424 0.168 0.809 0.442 1.091l-0-0 0.374 0.387c0.614 0.64 1.612 0.72 2.225 0.171l1.107-0.993v14.531c0 0.894 0.72 1.614 1.614 1.614h5.777c0.891 0 1.614-0.72 1.614-1.614v-10.166h7.378v10.166c-0.013 0.891 0.624 1.614 1.516 1.614h6.126c0.891 0 1.612-0.72 1.612-1.614v-14.328l0.686 0.603c0.376 0.331 1.169 0.064 1.766-0.595l0.422-0.462z"></path>
</symbol>
<symbol id="quotes" viewBox="0 0 43 32">
<path d="M32.017-0.001c1.928 0 3.75 0.52 5.464 1.561s3.107 2.537 4.179 4.488c1.029 1.951 1.543 4.25 1.543 6.895s-0.643 5.225-1.928 7.741c-0.429 0.91-1.2 2.081-2.315 3.512-1.157 1.43-2.228 2.667-3.214 3.707l-4.051 4.098-2.893-4.813c2.063-1.302 3.824-2.855 5.307-4.647l0.030-0.037c1.542-1.821 2.314-3.491 2.314-5.008 0-0.781-0.171-1.41-0.514-1.887-1.5 1.084-3.172 1.627-5.015 1.627-1.328 0-2.593-0.412-3.793-1.236-1.238-0.782-2.237-1.834-2.936-3.079l-0.022-0.043c-0.771-1.258-1.157-2.559-1.157-3.903 0-1.518 0.45-2.971 1.35-4.359 0.866-1.389 2.011-2.526 3.364-3.356l0.044-0.025c1.37-0.824 2.784-1.236 4.242-1.236zM8.937-0.001c1.928 0 3.75 0.52 5.464 1.561s3.107 2.536 4.179 4.488c1.029 1.951 1.543 4.25 1.543 6.895 0 1.864-0.236 3.534-0.707 5.008-0.472 1.518-1.286 3.1-2.443 4.748-1.114 1.561-2.164 2.862-3.15 3.903-0.986 1.084-2.7 2.883-5.144 5.399l-2.893-4.813c2.063-1.302 3.824-2.855 5.307-4.647l0.030-0.037c1.543-1.821 2.315-3.491 2.315-5.008 0-0.781-0.172-1.41-0.514-1.887-1.5 1.084-3.172 1.627-5.015 1.627-1.328 0-2.593-0.412-3.793-1.236-1.238-0.782-2.237-1.834-2.936-3.079l-0.022-0.043c-0.771-1.258-1.157-2.559-1.157-3.903 0-1.518 0.429-2.971 1.286-4.359 0.866-1.389 2.011-2.526 3.364-3.356l0.045-0.025c1.37-0.824 2.784-1.236 4.243-1.236z"></path>
</symbol>
<symbol id="telegram" viewBox="0 0 44 32">
<path d="M17.343 21.054l-0.674 8.861c0.966 0 1.384-0.388 1.886-0.852l4.526-4.040 9.381 6.415c1.72 0.894 2.934 0.422 3.4-1.478l6.157-26.934c0.548-2.374-0.92-3.302-2.594-2.72l-36.197 12.935c-2.47 0.896-2.434 2.18-0.42 2.766l9.253 2.684 21.496-12.553c1.012-0.626 1.932-0.28 1.176 0.346l-17.392 14.571z"></path>
</symbol>
<symbol id="tip" viewBox="0 0 32 32">
<path d="M24.472 14.254l-13.654-13.579c-0.906-0.9-2.375-0.9-3.282 0s-0.906 2.36 0 3.26l12.131 12.065-12.131 12.065c-0.906 0.9-0.906 2.36 0 3.26s2.375 0.9 3.282 0l13.654-13.579c0.483-0.48 0.7-1.118 0.669-1.746 0.032-0.628-0.186-1.266-0.669-1.746z"></path>
</symbol>
<symbol id="arrow" viewBox="0 0 32 32">
<path d="M19.414 27.414l10-10c0.781-0.781 0.781-2.047 0-2.828l-10-10c-0.781-0.781-2.047-0.781-2.828 0s-0.781 2.047 0 2.828l6.586 6.586h-19.172c-1.105 0-2 0.895-2 2s0.895 2 2 2h19.172l-6.586 6.586c-0.39 0.39-0.586 0.902-0.586 1.414s0.195 1.024 0.586 1.414c0.781 0.781 2.047 0.781 2.828 0z"></path>
</symbol>
</defs>
</svg>
