<svg xmlns="http://www.w3.org/2000/svg" width="33" height="32" fill="none"><g clip-path="url(#a)"><circle cx="16.2353" cy="16" r="16" fill="#FEA5BB"/><path fill="#fff" d="m13.1025 18.3753-.3176 4.1693c.4544 0 .6512-.1822.8872-.4009l2.1305-1.9003 4.4145 3.0173c.8096.4211 1.38.1993 1.5984-.6952l2.8977-12.6723.0008-.0008c.2568-1.117-.4328-1.5538-1.2216-1.2797L6.46 14.6987c-1.1625.4211-1.1449 1.0259-.1977 1.2999l4.3546 1.2641 10.1146-5.9068c.476-.2942.9088-.1314.5528.1628l-8.1818 6.8566Z"/></g><defs><clipPath id="a"><path fill="#fff" d="M.2353 0h32v32h-32z"/></clipPath></defs></svg>