<?xml version="1.0" encoding="UTF-8"?>
<!DOCTYPE svg PUBLIC "-//W3C//DTD SVG 1.1//EN" "http://www.w3.org/Graphics/SVG/1.1/DTD/svg11.dtd">
<!-- Creator: CorelDRAW 2019 (64-Bit) -->
<svg xmlns="http://www.w3.org/2000/svg" xml:space="preserve" width="200mm" height="200mm" version="1.1" style="shape-rendering:geometricPrecision; text-rendering:geometricPrecision; image-rendering:optimizeQuality; fill-rule:evenodd; clip-rule:evenodd"
viewBox="0 0 20000 20000"
 xmlns:xlink="http://www.w3.org/1999/xlink">
 <defs>
  <style type="text/css">
   <![CDATA[
    .fil0 {fill:#D41443}
    .fil1 {fill:white}
   ]]>
  </style>
 </defs>
 <g id="Слой_x0020_1">
  <metadata id="CorelCorpID_0Corel-Layer"/>
  <ellipse class="fil0" cx="9999.63" cy="9971.27" rx="9900" ry="9899.99"/>
  <g id="_1744546267632">
   <g id="XMLID_743_">
    <path id="XMLID_862_" class="fil1" d="M15706.63 8333.28c0,-1288.14 -1059.92,-2370.82 -2482.63,-2661.97 135.91,-329.24 204.76,-674.25 204.76,-1029.61 0,-375.4 -77.42,-741.93 -230.04,-1089.4 -276.09,-629.11 -796.19,-1177.61 -1464.55,-1544.45 -140.15,-76.94 -327.82,-43.53 -419.1,74.77 -91.23,118.26 -51.53,276.47 88.65,353.45 434,238.19 792.8,568.01 1040.16,949.54l-1208.9 0c-399.19,0 -723.95,273.88 -723.95,610.55l0 118.17c0,82.46 -79.52,149.52 -177.29,149.52 -97.78,0 -177.3,-67.06 -177.3,-149.52l0 -607.4c0,-351.24 -338.81,-636.98 -755.28,-636.98 -416.47,0 -755.28,285.74 -755.28,636.98l0 1374.18c0,54.95 -52.99,99.64 -118.13,99.64 -65.15,0 -118.14,-44.69 -118.14,-99.64l0.01 -884.95c0,-336.67 -324.75,-610.56 -723.94,-610.56l-720.54 0.01c539.93,-834.48 1591.21,-1373.81 2739.57,-1373.81 209.45,0 417.65,17.44 618.77,51.81 164.13,28.03 323.78,-61.35 357.02,-199.64 33.24,-138.29 -72.78,-273.1 -236.71,-301.1 -240.67,-41.14 -489.32,-61.99 -739.08,-61.99 -1551.84,0 -2955.85,824.46 -3493.56,2051.32 -152.66,347.56 -230.08,714.1 -230.08,1089.49 0,424.81 102.98,846.67 299.51,1234.97 -737.38,306.89 -1329.5,844.96 -1620.97,1522.75 -57.03,132.64 24.23,279.14 181.5,327.26 34.09,10.42 68.98,15.37 103.27,15.37 123.83,0 240.1,-64.58 284.77,-168.43 377.82,-878.62 1376.62,-1468.98 2485.38,-1468.98 765.98,0 1497.71,284.79 1996.73,769.35 -316.91,422.83 -501.2,923.1 -501.2,1459.29 0,522.61 180.16,1027.57 501.76,1458.75 -499.07,484.86 -1231.03,769.89 -1997.3,769.89 -1386.53,0 -2544.71,-912.91 -2636.75,-2078.39 -11.1,-140.78 -155.21,-247.28 -322.37,-237.92 -166.93,9.37 -293.21,131.1 -282.1,271.88 85.09,1077.84 911.85,1979.87 2041.73,2360.77 1.74,5.41 3.31,10.83 5.49,16.21l3179.03 7872.81c41.8,103.51 157.06,173.1 286.74,173.1 129.64,0 244.95,-69.58 286.75,-173.13l2634.28 -6524.93c123.43,326.93 486.83,564.47 914.85,564.47 529.31,0 959.92,-363.2 959.92,-809.61l0 -1750.63c588.77,-509.22 924.54,-1199.92 924.54,-1913.26zm-7992.2 -2739.57c-297.81,0 -589.16,34.68 -867.51,100.1 -170.47,-329.95 -260.05,-689.64 -260.05,-1052.12 0,-255.02 43.3,-504.8 127.42,-745.17l971.52 0c65.14,0 118.13,44.69 118.13,99.64l0 884.94c0,336.67 324.75,610.56 723.94,610.56 399.19,0 723.95,-273.89 723.95,-610.56l-0.01 -1374.17c0,-69.52 67.03,-126.06 149.47,-126.06 82.43,0 149.47,56.54 149.47,126.06l0 607.42c0,364.19 351.29,660.45 783.1,660.45 431.82,0 783.11,-296.27 783.11,-660.45l0 -118.16c0,-54.94 52.98,-99.63 118.13,-99.63l1460.56 0c84.13,240.31 127.42,490.11 127.42,745.16 0,331.53 -71.49,652.04 -212.27,955.29 -50.53,-1.98 -101.29,-3.27 -152.42,-3.27 -934.44,0 -1777.43,334.96 -2370.6,869.46 -610.17,-549.24 -1472.56,-869.49 -2373.36,-869.49zm2372.79 4610.12c168.33,152.39 357.99,289.32 566.43,407.07l0 146.4c0,485.75 468.61,880.96 1044.57,880.96 447,0 829.18,-238.09 978.01,-571.75 22.54,-1.27 45.07,-2.66 67.53,-4.33l-436.59 1081.39 -3453.13 -1246.31c465.58,-147.66 889.41,-384.11 1233.18,-693.43zm-2372.79 869.01c27.87,0 55.66,-0.45 83.4,-1.06l4313.46 1556.85 -432.27 1070.73 -2048.56 -727.35c-154.24,-54.73 -331.78,6.3 -396.72,136.31 -64.9,130.02 7.48,279.82 161.63,334.59l2087.86 741.32 -442 1094.81 -2463.65 -874.87 -590.01 -1461.1 230.85 81.95c38.37,13.63 78.23,20.06 117.4,20.06 118.22,0 230.53,-58.75 279.32,-156.41 64.9,-130.02 -7.47,-279.82 -161.63,-334.59l-727.25 -258.22 -506.93 -1255.41c161.71,21.08 326.98,32.39 495.1,32.39zm2689.14 5785.76l-974.58 -346.13 -590.01 -1461.17 2006.58 712.57 -441.99 1094.73zm-417.36 1033.8l-295.87 -732.77 517.52 183.8 -221.65 548.97zm4492.9 -9397.75c-167.29,0 -302.9,114.38 -302.9,255.47l0 3247.08c0,164.69 -158.88,298.69 -354.12,298.69 -195.27,0 -354.15,-134 -354.15,-298.69l0 -1253.26c0,-309.48 -298.54,-561.26 -665.5,-561.26 -366.95,0 -665.49,251.78 -665.49,561.26l0 13.35c0,204.02 -196.85,370.05 -438.77,370.05 -241.93,0 -438.77,-166.02 -438.77,-370.05l0 -1198.7c0,-141.08 -135.62,-255.46 -302.91,-255.46 -167.28,0 -302.9,114.38 -302.9,255.46l0 401.59c-526.36,-417.15 -837.87,-1006.79 -837.87,-1626.91 0,-1228.87 1185.44,-2228.65 2642.52,-2228.65 1457.09,0 2642.53,999.78 2642.53,2228.65 0,379.27 -110.78,741.79 -318.86,1063.67l0 -646.87c0.1,-141.03 -135.53,-255.42 -302.81,-255.42z"/>
    <path id="XMLID_870_" class="fil1" d="M13477.55 7248.42l-54.97 0c-167.29,0 -302.9,114.38 -302.9,255.46 0,141.09 135.61,255.46 302.9,255.46l54.97 0c167.29,0 302.91,-114.38 302.91,-255.47 0,-141.08 -135.63,-255.45 -302.91,-255.45z"/>
    <path id="XMLID_871_" class="fil1" d="M14082.91 7976.41l-54.97 0c-167.28,0 -302.9,114.38 -302.9,255.47 0,141.08 135.62,255.46 302.9,255.46l54.97 0c167.28,0 302.9,-114.38 302.9,-255.46 0,-141.09 -135.62,-255.47 -302.9,-255.47z"/>
    <path id="XMLID_872_" class="fil1" d="M6862.15 9774.35c167.29,0 302.91,-114.38 302.91,-255.46 0,-141.09 -135.62,-255.47 -302.91,-255.47l-54.97 0.01c-167.29,0 -302.9,114.38 -302.9,255.46 0,141.09 135.61,255.47 302.9,255.47l54.97 -0.01z"/>
   </g>
   <g>
   </g>
   <g>
   </g>
   <g>
   </g>
   <g>
   </g>
   <g>
   </g>
   <g>
   </g>
   <g>
   </g>
   <g>
   </g>
   <g>
   </g>
   <g>
   </g>
   <g>
   </g>
   <g>
   </g>
   <g>
   </g>
   <g>
   </g>
   <g>
   </g>
  </g>
 </g>
</svg>
