<svg width="16" height="20" viewBox="0 0 16 20" fill="none" xmlns="http://www.w3.org/2000/svg">
<path d="M14.1507 10.0502C13.979 9.66554 13.7421 9.2867 13.3956 8.84914C12.5221 7.75081 12.2556 5.3016 12.2526 5.2781C12.2408 5.16063 12.1578 5.06372 12.0483 5.02848C11.9358 4.99324 11.8143 5.02555 11.7344 5.11365C10.6921 6.27952 11.1303 8.07972 11.3672 8.79921C11.4324 8.99597 11.5034 9.22797 11.5537 9.46291C11.9387 11.363 11.1954 12.2234 11.0207 12.3967C10.8519 12.4437 10.7364 12.4202 10.6298 12.3056C10.2627 11.9033 10.1412 10.5847 10.313 8.86676C10.3486 8.51729 10.3396 8.20306 10.2893 7.90939C9.9271 5.79781 8.59901 4.44334 8.2609 3.96833C7.33109 2.59395 7.23633 0.30626 7.23337 0.285704C7.23041 0.177045 7.16823 0.0801342 7.07051 0.0331469C6.97575 -0.0138404 6.86026 -0.00796697 6.77143 0.0537038C5.21977 1.10798 5.35302 3.64823 5.56919 5.06666C5.61953 5.39557 5.71725 5.73035 5.88604 6.15324C6.48716 7.66564 5.76759 9.61855 5.76167 9.63617C5.75574 9.65379 5.74982 9.66848 5.74686 9.6861C5.65507 10.1677 5.50108 10.4555 5.32934 10.4555C5.31157 10.4555 5.2938 10.4526 5.27307 10.4467C5.06283 10.4027 4.95327 10.1795 4.9503 9.98564C4.93846 7.48063 2.42442 6.6378 2.39777 6.62899C2.28525 6.59375 2.16088 6.62605 2.08389 6.71709C2.00393 6.80813 1.98913 6.9344 2.04243 7.04012C2.07204 7.1018 2.1668 7.37197 2.10165 8.3264C2.04539 9.18392 1.88845 10.0326 1.63675 10.8461C1.03859 12.7961 1.13335 14.6433 1.13927 14.7314C1.59923 19.7328 8.79211 20.6091 13.061 17.7914C13.5288 17.483 13.9108 17.1306 14.1921 16.743C15.7675 14.5698 14.8407 11.6184 14.1507 10.0502ZM3.20916 14.8283C3.21805 14.9898 3.09368 15.1278 2.93081 15.1366H2.91304C2.7561 15.1366 2.62581 15.0162 2.61693 14.8606C2.59028 14.4318 2.5962 13.9825 2.62877 13.495C2.64062 13.3335 2.78275 13.2131 2.94562 13.2219C3.10848 13.2336 3.23285 13.3746 3.22101 13.5361C3.1884 14.0001 3.18251 14.423 3.20916 14.8283ZM3.35423 12.2263C3.33646 12.3761 3.20913 12.4848 3.06107 12.4848C3.04923 12.4848 3.03738 12.4848 3.02258 12.4818C2.86267 12.4613 2.74719 12.3174 2.76496 12.1559L2.90709 11.0223C2.92782 10.8637 3.07292 10.7492 3.23874 10.7668C3.40161 10.7874 3.5171 10.9342 3.49637 11.0957L3.35423 12.2263Z" fill="#FF6B09"/>
<path d="M12.1474 4.01779C11.9858 3.99297 11.8751 3.84329 11.9 3.68312C11.9185 3.5638 12.0255 2.95297 12.3158 2.64582C12.4276 2.52738 12.6147 2.52121 12.7344 2.63249C12.8537 2.74332 12.8597 2.92918 12.7478 3.04762C12.625 3.17769 12.5203 3.54991 12.4853 3.77263C12.4603 3.9311 12.3113 4.04231 12.1474 4.01779Z" fill="#FF6B09"/>
<path d="M1.35211 5.48058C1.29543 5.26218 1.1546 4.90199 1.01942 4.78441C0.896383 4.67742 0.884094 4.49188 0.99194 4.37001C1.09952 4.24784 1.28646 4.23536 1.40979 4.34276C1.72889 4.62022 1.8956 5.21775 1.92584 5.3346C1.96632 5.49163 1.87091 5.65135 1.71272 5.69179C1.55104 5.73211 1.39241 5.635 1.35211 5.48058Z" fill="#FF6B09"/>
</svg>
