<!-- Generated by IcoMoon.io -->
<svg version="1.1" xmlns="http://www.w3.org/2000/svg" width="50" height="50" viewBox="0 0 32 32">
<title>logo2</title>
<path fill="#D41443" d="M31.839 15.954c0 8.748-7.092 15.84-15.84 15.84s-15.84-7.092-15.84-15.84c0-8.748 7.092-15.84 15.84-15.84s15.84 7.092 15.84 15.84z"></path>
<path fill="#fff" d="M25.131 13.333c0-2.061-1.696-3.793-3.972-4.259 0.217-0.527 0.328-1.079 0.328-1.647 0-0.601-0.124-1.187-0.368-1.743-0.442-1.007-1.274-1.884-2.343-2.471-0.224-0.123-0.524-0.070-0.671 0.12s-0.082 0.442 0.142 0.566c0.694 0.381 1.268 0.909 1.664 1.519h-1.934c-0.639 0-1.158 0.438-1.158 0.977v0.189c0 0.132-0.127 0.239-0.284 0.239s-0.284-0.107-0.284-0.239v-0.972c0-0.562-0.542-1.019-1.208-1.019s-1.208 0.457-1.208 1.019v2.199c0 0.088-0.085 0.159-0.189 0.159s-0.189-0.072-0.189-0.159l0-1.416c0-0.539-0.52-0.977-1.158-0.977l-1.153 0c0.864-1.335 2.546-2.198 4.383-2.198 0.335 0 0.668 0.028 0.99 0.083 0.263 0.045 0.518-0.098 0.571-0.319s-0.116-0.437-0.379-0.482c-0.385-0.066-0.783-0.099-1.183-0.099-2.483 0-4.729 1.319-5.59 3.282-0.244 0.556-0.368 1.143-0.368 1.743 0 0.68 0.165 1.355 0.479 1.976-1.18 0.491-2.127 1.352-2.594 2.436-0.091 0.212 0.039 0.447 0.29 0.524 0.055 0.017 0.11 0.025 0.165 0.025 0.198 0 0.384-0.103 0.456-0.27 0.604-1.406 2.203-2.35 3.977-2.35 1.226 0 2.396 0.456 3.195 1.231-0.507 0.677-0.802 1.477-0.802 2.335 0 0.836 0.288 1.644 0.803 2.334-0.799 0.776-1.97 1.232-3.196 1.232-2.218 0-4.072-1.461-4.219-3.325-0.018-0.225-0.248-0.396-0.516-0.381s-0.469 0.21-0.451 0.435c0.136 1.725 1.459 3.168 3.267 3.777 0.003 0.009 0.005 0.017 0.009 0.026l5.086 12.596c0.067 0.166 0.251 0.277 0.459 0.277s0.392-0.111 0.459-0.277l4.215-10.44c0.198 0.523 0.779 0.903 1.464 0.903 0.847 0 1.536-0.581 1.536-1.295v-2.801c0.942-0.815 1.479-1.92 1.479-3.061zM12.343 8.95c-0.476 0-0.943 0.056-1.388 0.16-0.273-0.528-0.416-1.103-0.416-1.683 0-0.408 0.069-0.808 0.204-1.192h1.554c0.104 0 0.189 0.072 0.189 0.159v1.416c0 0.539 0.52 0.977 1.158 0.977s1.158-0.438 1.158-0.977l-0-2.199c0-0.111 0.107-0.202 0.239-0.202s0.239 0.090 0.239 0.202v0.972c0 0.583 0.562 1.057 1.253 1.057s1.253-0.474 1.253-1.057v-0.189c0-0.088 0.085-0.159 0.189-0.159h2.337c0.135 0.385 0.204 0.784 0.204 1.192 0 0.53-0.114 1.043-0.34 1.528-0.081-0.003-0.162-0.005-0.244-0.005-1.495 0-2.844 0.536-3.793 1.391-0.976-0.879-2.356-1.391-3.797-1.391zM16.14 16.326c0.269 0.244 0.573 0.463 0.906 0.651v0.234c0 0.777 0.75 1.41 1.671 1.41 0.715 0 1.327-0.381 1.565-0.915 0.036-0.002 0.072-0.004 0.108-0.007l-0.699 1.73-5.525-1.994c0.745-0.236 1.423-0.615 1.973-1.11zM12.343 17.717c0.045 0 0.089-0.001 0.133-0.002l6.902 2.491-0.692 1.713-3.278-1.164c-0.247-0.088-0.531 0.010-0.635 0.218s0.012 0.448 0.259 0.535l3.341 1.186-0.707 1.752-3.942-1.4-0.944-2.338 0.369 0.131c0.061 0.022 0.125 0.032 0.188 0.032 0.189 0 0.369-0.094 0.447-0.25 0.104-0.208-0.012-0.448-0.259-0.535l-1.164-0.413-0.811-2.009c0.259 0.034 0.523 0.052 0.792 0.052zM16.646 26.974l-1.559-0.554-0.944-2.338 3.211 1.14-0.707 1.752zM15.978 28.628l-0.473-1.172 0.828 0.294-0.355 0.878zM23.167 13.591c-0.268 0-0.485 0.183-0.485 0.409v5.195c0 0.264-0.254 0.478-0.567 0.478s-0.567-0.214-0.567-0.478v-2.005c0-0.495-0.478-0.898-1.065-0.898s-1.065 0.403-1.065 0.898v0.021c0 0.326-0.315 0.592-0.702 0.592s-0.702-0.266-0.702-0.592v-1.918c0-0.226-0.217-0.409-0.485-0.409s-0.485 0.183-0.485 0.409v0.643c-0.842-0.667-1.341-1.611-1.341-2.603 0-1.966 1.897-3.566 4.228-3.566s4.228 1.6 4.228 3.566c0 0.607-0.177 1.187-0.51 1.702v-1.035c0-0.226-0.217-0.409-0.485-0.409z"></path>
<path fill="#fff" d="M21.564 11.597h-0.088c-0.268 0-0.485 0.183-0.485 0.409s0.217 0.409 0.485 0.409h0.088c0.268 0 0.485-0.183 0.485-0.409s-0.217-0.409-0.485-0.409z"></path>
<path fill="#fff" d="M22.533 12.762h-0.088c-0.268 0-0.485 0.183-0.485 0.409s0.217 0.409 0.485 0.409h0.088c0.268 0 0.485-0.183 0.485-0.409s-0.217-0.409-0.485-0.409z"></path>
<path fill="#fff" d="M10.979 15.639c0.268 0 0.485-0.183 0.485-0.409s-0.217-0.409-0.485-0.409l-0.088 0c-0.268 0-0.485 0.183-0.485 0.409s0.217 0.409 0.485 0.409l0.088-0z"></path>
</svg>