<svg aria-hidden="true" style="position:absolute;width:0;height:0" xmlns="http://www.w3.org/2000/svg" overflow="hidden"><defs><symbol id="icon-logo-mobile" viewBox="0 0 91 32"><path d="M12.548 4.928v13.188h-3.73v-5.143H3.731v5.143H.001V4.928h3.73v4.955h5.087V4.928h3.73zM26.201 13.029c0 .025-.019.32-.057.886h-7.423c.151.527.44.936.867 1.225.44.276.986.415 1.639.415.49 0 .911-.069 1.262-.207a3.704 3.704 0 001.093-.678l1.884 1.959c-.992 1.105-2.443 1.658-4.352 1.658-1.193 0-2.242-.226-3.146-.678s-1.608-1.08-2.11-1.884c-.49-.804-.735-1.714-.735-2.732 0-1.005.239-1.903.716-2.694.49-.804 1.162-1.432 2.016-1.884s1.815-.678 2.883-.678c1.017 0 1.941.214 2.77.641a4.66 4.66 0 011.959 1.828c.49.791.735 1.733.735 2.826zm-5.445-2.751c-.553 0-1.017.157-1.394.471-.364.314-.597.741-.697 1.281h4.183c-.1-.54-.339-.967-.716-1.281-.364-.314-.823-.471-1.375-.471zM28.605 4.136h3.58v13.98h-3.58V4.136zM35.265 4.136h3.58v13.98h-3.58V4.136zM3.383 30.29H1.499l-.359.87H.178l1.809-4.058h.928l1.814 4.058h-.986l-.359-.87zm-.296-.713l-.643-1.554-.643 1.554h1.287zM10.529 30.394V32h-.87v-.841H6.795V32h-.87l.006-1.606h.162c.243-.008.415-.186.516-.533s.162-.844.186-1.49l.046-1.27H9.96v3.293h.568zm-2.904-1.936a8.5 8.5 0 01-.122 1.217c-.062.325-.157.564-.284.719h1.815v-2.528H7.643l-.017.591zM14.123 31.229c-.414 0-.788-.089-1.125-.267a2.069 2.069 0 01-.788-.748c-.189-.321-.284-.682-.284-1.084s.095-.761.284-1.078a2.01 2.01 0 01.788-.748 2.334 2.334 0 011.13-.272c.352 0 .669.062.951.186.286.124.526.301.719.533l-.603.557a1.294 1.294 0 00-1.02-.475c-.251 0-.475.056-.672.168a1.175 1.175 0 00-.464.458c-.108.197-.162.421-.162.672s.054.475.162.672c.112.197.267.352.464.464.197.108.421.162.672.162.406 0 .746-.16 1.02-.481l.603.557c-.193.236-.433.415-.719.539s-.605.186-.957.186zM19.025 29.525h-.649v1.635h-.933v-4.058h.933v1.641h.672l1.067-1.641h.991l-1.328 1.959 1.368 2.099h-1.067l-1.055-1.635zM22.631 27.101h.933v2.644l1.936-2.644h.881v4.058h-.928v-2.638l-1.936 2.638h-.887v-4.058zM28.435 27.101h.933v2.644l1.936-2.644h.881v4.058h-.928v-2.638l-1.936 2.638h-.887v-4.058zm1.873-.26c-.742 0-1.117-.296-1.125-.887h.644c.008.282.168.423.481.423.155 0 .272-.035.354-.104.081-.073.124-.18.128-.319h.643c-.004.29-.098.51-.284.661s-.466.226-.841.226zM39.673 30.29h-1.884l-.359.87h-.962l1.809-4.058h.927l1.815 4.058h-.986l-.359-.87zm-.296-.713l-.644-1.554-.643 1.554h1.287zM46.321 27.101v4.058h-.939v-1.664h-1.844v1.664h-.939v-4.058h.939v1.6h1.844v-1.6h.939zM51.239 27.867h-1.93l.006 3.293h-.933v-4.058h2.864l-.006.765zM55.975 27.101v4.058h-.928v-3.293h-1.391l-.029.846a8.723 8.723 0 01-.139 1.403c-.073.356-.197.63-.371.823-.17.189-.41.284-.719.284-.128 0-.282-.021-.464-.064l.058-.794c.05.015.106.023.168.023.224 0 .381-.131.47-.394.089-.267.145-.682.168-1.246l.058-1.646h3.119zM58.032 27.101h.933v2.644l1.936-2.644h.881v4.058h-.928v-2.638l-1.936 2.638h-.887v-4.058zM63.836 27.101h.933v2.644l1.936-2.644h.881v4.058h-.928v-2.638l-1.936 2.638h-.887v-4.058zm1.873-.26c-.742 0-1.117-.296-1.125-.887h.643c.008.282.168.423.481.423.155 0 .273-.035.354-.104.081-.073.124-.18.128-.319h.644c-.004.29-.099.51-.284.661s-.466.226-.841.226zM71.56 31.229c-.414 0-.788-.089-1.125-.267a2.069 2.069 0 01-.788-.748c-.189-.321-.284-.682-.284-1.084s.095-.761.284-1.078a2.01 2.01 0 01.788-.748 2.334 2.334 0 011.13-.272c.352 0 .669.062.951.186.286.124.526.301.719.533l-.603.557a1.294 1.294 0 00-1.02-.475c-.251 0-.475.056-.672.168a1.175 1.175 0 00-.464.458c-.108.197-.162.421-.162.672s.054.475.162.672c.112.197.267.352.464.464.197.108.421.162.672.162.406 0 .746-.16 1.02-.481l.603.557c-.193.236-.433.415-.719.539s-.605.186-.956.186zM76.462 29.525h-.649v1.635h-.933v-4.058h.933v1.641h.672l1.067-1.641h.991l-1.328 1.959 1.368 2.099h-1.067l-1.055-1.635zM80.067 27.101H81v2.644l1.936-2.644h.881v4.058h-.927v-2.638l-1.936 2.638h-.887v-4.058zM85.871 27.101h.933v2.644l1.936-2.644h.881v4.058h-.927v-2.638l-1.936 2.638h-.887v-4.058zm1.873-.26c-.742 0-1.117-.296-1.125-.887h.644c.008.282.168.423.481.423.155 0 .272-.035.354-.104.081-.073.124-.18.128-.319h.643c-.004.29-.099.51-.284.661s-.466.226-.841.226zM74.357 15.233v2.883H63.769V4.928h10.343v2.883h-6.651v2.223h5.859v2.788h-5.859v2.412h6.896zM89.728 4.928v13.188h-3.071l-5.822-7.028v7.028H77.18V4.928h3.071l5.822 7.028V4.928h3.655z"/><path fill="var(--color1, #ff6b09)" d="M58.495 11.281c-.193-.432-.458-.857-.847-1.348-.98-1.233-1.279-3.982-1.282-4.008a.33.33 0 00-.229-.28.336.336 0 00-.352.096c-1.169 1.309-.678 3.329-.412 4.137.073.221.153.481.209.745.432 2.133-.402 3.099-.598 3.293-.189.053-.319.026-.438-.102-.412-.452-.548-1.932-.355-3.86.04-.392.03-.745-.027-1.075-.406-2.37-1.896-3.891-2.275-4.424C50.846 2.912 50.74.344 50.737.321a.32.32 0 00-.183-.283.33.33 0 00-.335.023c-1.74 1.183-1.591 4.035-1.348 5.627.056.369.166.745.355 1.22.674 1.698-.133 3.89-.14 3.909s-.013.036-.017.056c-.103.541-.276.864-.468.864a.211.211 0 01-.063-.01c-.236-.05-.359-.3-.362-.518-.013-2.812-2.833-3.758-2.863-3.768a.33.33 0 00-.352.099.326.326 0 00-.047.363c.033.069.139.373.066 1.444a12.323 12.323 0 01-.521 2.828c-.671 2.189-.565 4.262-.558 4.361.516 5.614 8.583 6.598 13.371 3.435a4.846 4.846 0 001.269-1.177c1.767-2.439.727-5.752-.047-7.513zm-12.272 5.363a.33.33 0 01-.312.346h-.02a.33.33 0 01-.332-.31c-.03-.481-.023-.986.013-1.533a.332.332 0 01.664.046c-.037.521-.043.996-.013 1.45zm.162-2.92a.33.33 0 01-.329.29c-.013 0-.027 0-.043-.003a.333.333 0 01-.289-.366l.159-1.272a.335.335 0 01.372-.287.33.33 0 01.289.369l-.159 1.269zM56.191 4.507a.33.33 0 01-.277-.375c.021-.134.141-.819.466-1.163.125-.133.335-.14.47-.015s.141.333.015.466c-.138.146-.255.563-.294.813a.332.332 0 01-.379.275zM44.116 6.147c-.064-.245-.221-.649-.373-.781-.138-.12-.152-.328-.031-.465s.33-.151.468-.031c.358.311.544.981.578 1.112a.33.33 0 01-.239.401.333.333 0 01-.404-.237z"/></symbol><symbol id="icon-logo" viewBox="0 0 91 32"><path d="M12.548 4.928v13.188h-3.73v-5.143H3.731v5.143H.001V4.928h3.73v4.955h5.087V4.928h3.73z"/><path fill="var(--color2, #111518)" d="M26.201 13.029c0 .025-.019.32-.057.886h-7.423c.151.527.44.936.867 1.225.44.276.986.415 1.639.415.49 0 .911-.069 1.262-.207a3.704 3.704 0 001.093-.678l1.884 1.959c-.992 1.105-2.443 1.658-4.352 1.658-1.193 0-2.242-.226-3.146-.678s-1.608-1.08-2.11-1.884c-.49-.804-.735-1.714-.735-2.732 0-1.005.239-1.903.716-2.694.49-.804 1.162-1.432 2.016-1.884s1.815-.678 2.883-.678c1.017 0 1.941.214 2.77.641a4.66 4.66 0 011.959 1.828c.49.791.735 1.733.735 2.826zm-5.445-2.751c-.553 0-1.017.157-1.394.471-.364.314-.597.741-.697 1.281h4.183c-.1-.54-.339-.967-.716-1.281-.364-.314-.823-.471-1.375-.471zM28.605 4.136h3.58v13.98h-3.58V4.136zM35.265 4.136h3.58v13.98h-3.58V4.136z"/><path fill="var(--color2, #ff6b09)" d="M3.383 30.29H1.499l-.359.87H.178l1.809-4.058h.928l1.814 4.058h-.986l-.359-.87zm-.296-.713l-.643-1.554-.643 1.554h1.287zM10.529 30.394V32h-.87v-.841H6.795V32h-.87l.006-1.606h.162c.243-.008.415-.186.516-.533s.162-.844.186-1.49l.046-1.27H9.96v3.293h.568zm-2.904-1.936a8.5 8.5 0 01-.122 1.217c-.062.325-.157.564-.284.719h1.815v-2.528H7.643l-.017.591zM14.123 31.229c-.414 0-.788-.089-1.125-.267a2.069 2.069 0 01-.788-.748c-.189-.321-.284-.682-.284-1.084s.095-.761.284-1.078a2.01 2.01 0 01.788-.748 2.334 2.334 0 011.13-.272c.352 0 .669.062.951.186.286.124.526.301.719.533l-.603.557a1.294 1.294 0 00-1.02-.475c-.251 0-.475.056-.672.168a1.175 1.175 0 00-.464.458c-.108.197-.162.421-.162.672s.054.475.162.672c.112.197.267.352.464.464.197.108.421.162.672.162.406 0 .746-.16 1.02-.481l.603.557c-.193.236-.433.415-.719.539s-.605.186-.957.186zM19.025 29.525h-.649v1.635h-.933v-4.058h.933v1.641h.672l1.067-1.641h.991l-1.328 1.959 1.368 2.099h-1.067l-1.055-1.635zM22.631 27.101h.933v2.644l1.936-2.644h.881v4.058h-.928v-2.638l-1.936 2.638h-.887v-4.058zM28.435 27.101h.933v2.644l1.936-2.644h.881v4.058h-.928v-2.638l-1.936 2.638h-.887v-4.058zm1.873-.26c-.742 0-1.117-.296-1.125-.887h.644c.008.282.168.423.481.423.155 0 .272-.035.354-.104.081-.073.124-.18.128-.319h.643c-.004.29-.098.51-.284.661s-.466.226-.841.226z"/><path fill="var(--color2, #111518)" d="M39.673 30.29h-1.884l-.359.87h-.962l1.809-4.058h.927l1.815 4.058h-.986l-.359-.87zm-.296-.713l-.644-1.554-.643 1.554h1.287zM46.321 27.101v4.058h-.939v-1.664h-1.844v1.664h-.939v-4.058h.939v1.6h1.844v-1.6h.939zM51.239 27.867h-1.93l.006 3.293h-.933v-4.058h2.864l-.006.765zM55.975 27.101v4.058h-.928v-3.293h-1.391l-.029.846a8.723 8.723 0 01-.139 1.403c-.073.356-.197.63-.371.823-.17.189-.41.284-.719.284-.128 0-.282-.021-.464-.064l.058-.794c.05.015.106.023.168.023.224 0 .381-.131.47-.394.089-.267.145-.682.168-1.246l.058-1.646h3.119zM58.032 27.101h.933v2.644l1.936-2.644h.881v4.058h-.928v-2.638l-1.936 2.638h-.887v-4.058zM63.836 27.101h.933v2.644l1.936-2.644h.881v4.058h-.928v-2.638l-1.936 2.638h-.887v-4.058zm1.873-.26c-.742 0-1.117-.296-1.125-.887h.643c.008.282.168.423.481.423.155 0 .273-.035.354-.104.081-.073.124-.18.128-.319h.644c-.004.29-.099.51-.284.661s-.466.226-.841.226zM71.56 31.229c-.414 0-.788-.089-1.125-.267a2.069 2.069 0 01-.788-.748c-.189-.321-.284-.682-.284-1.084s.095-.761.284-1.078a2.01 2.01 0 01.788-.748 2.334 2.334 0 011.13-.272c.352 0 .669.062.951.186.286.124.526.301.719.533l-.603.557a1.294 1.294 0 00-1.02-.475c-.251 0-.475.056-.672.168a1.175 1.175 0 00-.464.458c-.108.197-.162.421-.162.672s.054.475.162.672c.112.197.267.352.464.464.197.108.421.162.672.162.406 0 .746-.16 1.02-.481l.603.557c-.193.236-.433.415-.719.539s-.605.186-.956.186zM76.462 29.525h-.649v1.635h-.933v-4.058h.933v1.641h.672l1.067-1.641h.991l-1.328 1.959 1.368 2.099h-1.067l-1.055-1.635zM80.067 27.101H81v2.644l1.936-2.644h.881v4.058h-.927v-2.638l-1.936 2.638h-.887v-4.058zM85.871 27.101h.933v2.644l1.936-2.644h.881v4.058h-.927v-2.638l-1.936 2.638h-.887v-4.058zm1.873-.26c-.742 0-1.117-.296-1.125-.887h.644c.008.282.168.423.481.423.155 0 .272-.035.354-.104.081-.073.124-.18.128-.319h.643c-.004.29-.099.51-.284.661s-.466.226-.841.226zM74.357 15.233v2.883H63.769V4.928h10.343v2.883h-6.651v2.223h5.859v2.788h-5.859v2.412h6.896zM89.728 4.928v13.188h-3.071l-5.822-7.028v7.028H77.18V4.928h3.071l5.822 7.028V4.928h3.655z"/><path fill="var(--color1, #ff6b09)" d="M58.495 11.281c-.193-.432-.458-.857-.847-1.348-.98-1.233-1.279-3.982-1.282-4.008a.33.33 0 00-.229-.28.336.336 0 00-.352.096c-1.169 1.309-.678 3.329-.412 4.137.073.221.153.481.209.745.432 2.133-.402 3.099-.598 3.293-.189.053-.319.026-.438-.102-.412-.452-.548-1.932-.355-3.86.04-.392.03-.745-.027-1.075-.406-2.37-1.896-3.891-2.275-4.424C50.846 2.912 50.74.344 50.737.321a.32.32 0 00-.183-.283.33.33 0 00-.335.023c-1.74 1.183-1.591 4.035-1.348 5.627.056.369.166.745.355 1.22.674 1.698-.133 3.89-.14 3.909s-.013.036-.017.056c-.103.541-.276.864-.468.864a.211.211 0 01-.063-.01c-.236-.05-.359-.3-.362-.518-.013-2.812-2.833-3.758-2.863-3.768a.33.33 0 00-.352.099.326.326 0 00-.047.363c.033.069.139.373.066 1.444a12.323 12.323 0 01-.521 2.828c-.671 2.189-.565 4.262-.558 4.361.516 5.614 8.583 6.598 13.371 3.435a4.846 4.846 0 001.269-1.177c1.767-2.439.727-5.752-.047-7.513zm-12.272 5.363a.33.33 0 01-.312.346h-.02a.33.33 0 01-.332-.31c-.03-.481-.023-.986.013-1.533a.332.332 0 01.664.046c-.037.521-.043.996-.013 1.45zm.162-2.92a.33.33 0 01-.329.29c-.013 0-.027 0-.043-.003a.333.333 0 01-.289-.366l.159-1.272a.335.335 0 01.372-.287.33.33 0 01.289.369l-.159 1.269zM56.191 4.507a.33.33 0 01-.277-.375c.021-.134.141-.819.466-1.163.125-.133.335-.14.47-.015s.141.333.015.466c-.138.146-.255.563-.294.813a.332.332 0 01-.379.275zM44.116 6.147c-.064-.245-.221-.649-.373-.781-.138-.12-.152-.328-.031-.465s.33-.151.468-.031c.358.311.544.981.578 1.112a.33.33 0 01-.239.401.333.333 0 01-.404-.237z"/></symbol></defs></svg>