<svg aria-hidden="true" style="position: absolute; width: 0; height: 0; overflow: hidden;" version="1.1" xmlns="http://www.w3.org/2000/svg" xmlns:xlink="http://www.w3.org/1999/xlink">
    <defs>
        <symbol id="icon-close" viewBox="0 0 32 32">
            <path fill="none" stroke="#d41443" stroke-width="2" d="M2.52 2l26.96 28M2 29.48L30 2.52"></path>
        </symbol>
        <symbol id="icon-Burger" viewBox="0 0 46 32">
            <path fill="none" stroke="#d41443" style="stroke: var(--color2, #d41443)" stroke-linejoin="miter" stroke-linecap="butt" stroke-miterlimit="4" stroke-width="2.2857" d="M0 2.286h45.714"></path>
            <path fill="none" stroke="#d41443" style="stroke: var(--color2, #d41443)" stroke-linejoin="miter" stroke-linecap="butt" stroke-miterlimit="4" stroke-width="2.2857" d="M0 16h45.714"></path>
            <path fill="none" stroke="#d41443" style="stroke: var(--color2, #d41443)" stroke-linejoin="miter" stroke-linecap="butt" stroke-miterlimit="4" stroke-width="2.2857" d="M0 29.714h45.714"></path>
        </symbol>
        <symbol id="icon-Vector1" viewBox="0 0 22 32">
            <path fill="none" stroke="#d41443" style="stroke: var(--color2, #d41443)" stroke-linejoin="round" stroke-linecap="round" stroke-miterlimit="4" stroke-width="6.4" d="M5.575 3.2l12.88 12.8-12.88 12.8"></path>
        </symbol>
        <symbol id="icon-input-contact1" viewBox="0 0 12 12">
            <path d="M6 6C7.6575 6 9 4.6575 9 3C9 1.3425 7.6575 0 6 0C4.3425 0 3 1.3425 3 3C3 4.6575 4.3425 6 6 6ZM6 7.5C3.9975 7.5 0 8.505 0 10.5V11.25C0 11.6625 0.3375 12 0.75 12H11.25C11.6625 12 12 11.6625 12 11.25V10.5C12 8.505 8.0025 7.5 6 7.5Z" />
        </symbol>
        <symbol id="icon-input-contact3" viewBox="0 0 16 12">
            <path d="M14 0H2C1.175 0 0.5075 0.675 0.5075 1.5L0.5 10.5C0.5 11.325 1.175 12 2 12H14C14.825 12 15.5 11.325 15.5 10.5V1.5C15.5 0.675 14.825 0 14 0ZM13.7 3.1875L8.3975 6.5025C8.1575 6.6525 7.8425 6.6525 7.6025 6.5025L2.3 3.1875C2.1125 3.0675 2 2.865 2 2.6475C2 2.145 2.5475 1.845 2.975 2.1075L8 5.25L13.025 2.1075C13.4525 1.845 14 2.145 14 2.6475C14 2.865 13.8875 3.0675 13.7 3.1875Z" />
        </symbol>
        <symbol id="icon-input-contact2" viewBox="0 0 14 14">
            <path d="M11.996 9.12256L10.1579 8.91269C9.71641 8.86203 9.2822 9.01401 8.97102 9.32519L7.63945 10.6568C5.59144 9.61466 3.91251 7.94296 2.87041 5.8877L4.20922 4.54888C4.5204 4.2377 4.67237 3.80349 4.62171 3.36205L4.41185 1.53836C4.325 0.807445 3.70988 0.257446 2.97173 0.257446H1.71976C0.902004 0.257446 0.221746 0.937708 0.272403 1.75547C0.655953 7.93572 5.59868 12.8712 11.7717 13.2548C12.5894 13.3054 13.2697 12.6252 13.2697 11.8074V10.5555C13.2769 9.82453 12.7269 9.2094 11.996 9.12256Z" />
        </symbol>
        <symbol id="icon_check" viewBox="0 0 16 15">
            <path d="M3.95703 7.75166L3.88825 7.68604L3.81923 7.75141L2.93123 8.59258L2.85486 8.66492L2.93097 8.73753L6.42671 12.0724L6.49574 12.1382L6.56476 12.0724L14.069 4.91352L14.1449 4.84116L14.069 4.76881L13.1873 3.92764L13.1183 3.86183L13.0493 3.92761L6.49577 10.1735L3.95703 7.75166Z" fill="white" stroke="white" stroke-width="0.2"/>
        </symbol>
        <symbol id="icon-logo" viewBox="0 0 31.5 31.5">
            <path d="M14.392.049a15.524 15.524 0 00-7.173 2.49 15.987 15.987 0 00-6.597 8.957 16.446 16.446 0 00-.549 2.821c-.064.567-.091 2.132-.045 2.775a16.404 16.404 0 001.107 4.899c.379.965 1.107 2.314 1.717 3.191 1.868 2.681 4.492 4.726 7.48 5.827.249.091.482.176.522.188l.067.018v-1.186c0-.922-.009-1.186-.036-1.195-.021-.006-.167-.039-.325-.076-1.077-.249-2.111-.971-2.742-1.917a4.62 4.62 0 01-.695-1.614c-.064-.27-.067-.358-.076-2.39l-.012-2.111-.264-.033A2.7 2.7 0 014.517 18.7a2.964 2.964 0 01-.003-1.265c.127-.516.37-.934.758-1.304.449-.431.928-.649 1.617-.737l.143-.018.015-1.219c.015-1.301.036-1.547.173-2.235.261-1.31.807-2.493 1.668-3.609.288-.376 1.086-1.165 1.471-1.459a8.64 8.64 0 014.025-1.717c.476-.073 2.566-.091 3.133-.027a8.349 8.349 0 012.791.807 8.602 8.602 0 014.532 5.49c.231.88.276 1.338.276 2.812 0 1.137.003 1.192.055 1.192.121 0 .549.127.755.224 1.01.479 1.602 1.459 1.547 2.551a2.582 2.582 0 01-.776 1.747c-.367.367-.898.652-1.362.731l-.224.036.021 1.959c.024 2.087.018 2.202-.121 2.76a4.612 4.612 0 01-1.016 1.908c-.673.767-1.671 1.329-2.654 1.492l-.227.039v2.196l.312-.118a15.918 15.918 0 008.993-8.948c1.85-4.629 1.447-9.934-1.08-14.207a16.067 16.067 0 00-5.29-5.426A15.59 15.59 0 0016.96.035c-.555-.045-2.008-.036-2.566.015z"/>
            <path d="M14.984 6.521a7.125 7.125 0 00-4.875 2.572l-.076.097.115.146c.224.282.828.846 1.189 1.113a7.216 7.216 0 003.024 1.31c.382.067.528.076 1.462.091.698.012 1.159.003 1.395-.021 1.583-.158 2.939-.758 4.134-1.829.234-.209.758-.78.758-.828 0-.052-.516-.616-.746-.819-.595-.522-1.022-.807-1.696-1.134a6.78 6.78 0 00-2.123-.655c-.355-.055-2.102-.085-2.563-.042z"/>
            <path d="M9.109 10.704a8.38 8.38 0 00-.476 1.489c-.115.582-.14.949-.14 2.114v1.071h15.202l-.015-1.238c-.015-1.341-.033-1.535-.206-2.248a8.972 8.972 0 00-.191-.652c-.121-.331-.322-.777-.352-.777a.483.483 0 00-.115.121 8.183 8.183 0 01-.446.437c-1.392 1.271-3.006 2.011-4.883 2.238-.449.052-2.363.055-2.821 0a8.569 8.569 0 01-5.093-2.436l-.358-.352-.106.231zM6.718 16.895a1.228 1.228 0 00-.716 1.674c.112.24.358.479.601.595l.176.082 3.534.018c1.944.012 4.301.021 5.241.024l1.705.003v1.568c0 1.705.009 1.823.167 2.132.1.197.334.449.534.579.437.279 1.08.282 1.523.006.285-.173.51-.455.634-.786.067-.176.067-.209.079-1.853l.009-1.677 4.926-.015.206-.097c.249-.118.455-.322.582-.573.085-.167.091-.203.091-.513 0-.3-.009-.352-.082-.51a1.407 1.407 0 00-.598-.607l-.2-.097-9.115-.006c-8.93-.006-9.118-.006-9.297.052z"/>
            <path d="M8.472 22.725c.009 1.723.018 2.038.061 2.208.306 1.238 1.131 2.081 2.378 2.436l.237.067 4.792.009c3.464.006 4.859 0 5.035-.024a3.215 3.215 0 002.687-2.584c.039-.206.046-2.554.009-3.582l-.021-.537h-2.023v.952c0 .743-.009 1.007-.049 1.204a2.818 2.818 0 01-.743 1.435c-.786.831-1.905 1.125-2.985.786-.919-.291-1.623-1.013-1.917-1.972-.079-.264-.082-.285-.097-1.329l-.018-1.062-7.358-.015.012 2.008zM12.369 30.186l-.009 1.283-.485.03.44.1c2.402.543 5.114.5 7.386-.112.188-.052.2-.058.1-.061l-.115-.003v-2.518h-7.31l-.006 1.28z"/>
        </symbol>
        <symbol id="icon-logo1" viewBox="0 0 28 32">
            <path d="M12.972.022c-.895.066-1.626.187-2.308.385a10.38 10.38 0 00-7.376 8.308c-.103.639-.132 1.178-.132 2.499v1.288l-.257.026c-1.56.154-2.793 1.442-2.888 3.017a3.235 3.235 0 002.044 3.218c.268.106.734.209.943.209h.139l-.011 2.172c-.015 2.349.007 2.818.158 3.439a5.658 5.658 0 002.972 3.721 6.104 6.104 0 001.461.481l.136.026V32h1.761v-3.119h8.807v3.046h1.761v-3.083l.084-.015c.044-.011.209-.044.367-.077a5.45 5.45 0 001.365-.481 5.566 5.566 0 003.013-4.088c.051-.301.055-.69.04-2.782l-.015-2.429.077-.018c.044-.007.165-.033.272-.055.716-.139 1.516-.675 1.941-1.303.371-.55.525-1.02.554-1.684.022-.543-.022-.851-.18-1.284a3.298 3.298 0 00-1.574-1.765c-.268-.136-.664-.268-.881-.297l-.176-.022-.018-1.512c-.018-1.604-.04-1.897-.209-2.738a10.336 10.336 0 00-2.826-5.248A10.338 10.338 0 0015.994.088c-.433-.055-2.543-.103-3.024-.066zM15.78 1.85a8.768 8.768 0 014.444 1.96c.338.286.95.903 1.097 1.108l.073.099-.341.382a8.685 8.685 0 01-4.411 2.62c-.661.158-1.16.209-2.206.228-1.49.029-2.338-.055-3.317-.338a8.652 8.652 0 01-3.853-2.356c-.455-.481-.466-.499-.385-.628.132-.198 1.112-1.138 1.479-1.413a8.778 8.778 0 014.007-1.655c.543-.073 2.881-.077 3.413-.007zM7.119 7.82c.606.47 1.119.793 1.816 1.134 1.064.521 1.941.793 3.193.98.371.055.679.066 1.982.066 1.747-.004 2.073-.033 3.152-.308a10.32 10.32 0 004.935-2.914.927.927 0 01.187-.172c.088 0 .517 1.163.672 1.817.18.749.209 1.149.209 2.683v1.409H4.909l.015-1.461c.015-1.138.033-1.549.084-1.879a9.236 9.236 0 01.679-2.327l.103-.235.444.433c.242.239.642.587.884.774zm17.89 6.514c.44.114.789.404.983.815.106.224.117.279.117.598 0 .33-.007.363-.136.628a1.412 1.412 0 01-.719.701l-.246.117-5.916.018-.022.668a65.883 65.883 0 00-.026 1.996c0 1.2-.007 1.35-.07 1.552-.272.873-1.237 1.428-2.092 1.196a1.76 1.76 0 01-1.251-1.193c-.062-.216-.07-.411-.084-2.195-.007-1.075-.026-1.967-.04-1.982s-2.862-.033-6.33-.044l-6.297-.018-.25-.121a1.516 1.516 0 01-.84-1.101c-.132-.705.367-1.442 1.108-1.644.128-.037 2.576-.048 11.028-.048 9.706-.004 10.888.004 11.083.055zm-12.8 4.664l1.545.022.018 1.215c.018 1.391.044 1.56.338 2.18.209.44.418.734.756 1.053.451.429.947.712 1.53.87.231.066.389.081.888.081.525.004.646-.007.914-.081 1.299-.356 2.242-1.343 2.558-2.686.044-.18.062-.547.077-1.461l.018-1.218h2.407l.026 1.842c.037 2.378.018 3.035-.088 3.424a4.821 4.821 0 01-.554 1.196 4.834 4.834 0 01-.987.987 4.892 4.892 0 01-1.171.547c-.547.15-.745.154-6.631.143l-5.651-.011-.352-.095c-.738-.206-1.314-.536-1.817-1.039-.657-.661-1.039-1.479-1.108-2.371-.015-.191-.022-1.31-.015-2.488l.011-2.136h2.873c1.578 0 3.567.011 4.415.026z"/>
        </symbol>
        <symbol id="icon-arrow-up" viewBox="0 0 32 32">
            <path d="M16 1l-15 15h9v16h12v-16h9z"></path>
        </symbol>
        <symbol id="icon-arrow-up2" viewBox="0 0 32 32">
            <path d="M27.414 12.586l-10-10c-0.781-0.781-2.047-0.781-2.828 0l-10 10c-0.781 0.781-0.781 2.047 0 2.828s2.047 0.781 2.828 0l6.586-6.586v19.172c0 1.105 0.895 2 2 2s2-0.895 2-2v-19.172l6.586 6.586c0.39 0.39 0.902 0.586 1.414 0.586s1.024-0.195 1.414-0.586c0.781-0.781 0.781-2.047 0-2.828z"></path>
        </symbol>
        <symbol id="icon-circle-up" viewBox="0 0 32 32">
            <path d="M0 16c0 8.837 7.163 16 16 16s16-7.163 16-16-7.163-16-16-16-16 7.163-16 16zM29 16c0 7.18-5.82 13-13 13s-13-5.82-13-13 5.82-13 13-13 13 5.82 13 13z"></path>
            <path d="M22.086 20.914l2.829-2.829-8.914-8.914-8.914 8.914 2.828 2.828 6.086-6.086z"></path>
        </symbol>
        <symbol id="icon-shift" viewBox="0 0 32 32">
            <path d="M21 28h-10c-0.552 0-1-0.448-1-1v-11h-4c-0.404 0-0.769-0.244-0.924-0.617s-0.069-0.804 0.217-1.090l10-10c0.391-0.39 1.024-0.39 1.414 0l10 10c0.286 0.286 0.372 0.716 0.217 1.090s-0.519 0.617-0.924 0.617h-4v11c0 0.552-0.448 1-1 1zM12 26h8v-11c0-0.552 0.448-1 1-1h2.586l-7.586-7.586-7.586 7.586h2.586c0.552 0 1 0.448 1 1v11z"></path>
        </symbol>
    </defs>
</svg>