<svg aria-hidden="true" style="position:absolute;width:0;height:0"
    xmlns="http://www.w3.org/2000/svg" overflow="hidden" >
    <defs>
        <symbol id="icon-twitter" viewBox="0 0 32 32">
            <path  d="M32 16c0 4.418-1.791 8.418-4.686 11.314S20.419 32 16 32s-8.418-1.791-11.314-4.686C1.791 24.419 0 20.419 0 16S1.791 7.582 4.686 4.686 11.581 0 16 0c4.418 0 8.418 1.791 11.314 4.686S32 11.581 32 16z"/>
            <path  d="M23.273 11.49a6.248 6.248 0 01-1.718.471 2.967 2.967 0 001.312-1.648 5.963 5.963 0 01-1.891.722 2.981 2.981 0 00-5.158 2.039c0 .236.02.464.069.68a8.439 8.439 0 01-6.146-3.119 2.985 2.985 0 00.917 3.985 2.943 2.943 0 01-1.347-.367v.033a2.996 2.996 0 002.389 2.93 2.992 2.992 0 01-.782.098 2.64 2.64 0 01-.565-.051 3.01 3.01 0 002.786 2.077 5.991 5.991 0 01-3.697 1.272 5.59 5.59 0 01-.714-.041 8.393 8.393 0 004.575 1.338c5.487 0 8.487-4.545 8.487-8.485 0-.132-.005-.259-.011-.385a5.95 5.95 0 001.495-1.548z"/>
        </symbol>
        <symbol id="logo" viewBox="0 0 32 32">
        <path d="M25.833 15.8h-.004a.625.625 0 11.004 0zM24.788 13.077a.62.62 0 01-.441-.183l-.002-.002a.625.625 0 11.443.185z"></path>
        <path d="M29.982 16.961h-.384a8.313 8.313 0 00-4.355-8.417l.222-.072c1.799-.58 3.498-1.128 4.569-1.745a3.438 3.438 0 001.265-4.689c-.456-.792-1.196-1.361-2.084-1.599S27.402.32 26.61.775c-1.078.619-2.413 1.82-3.825 3.091l-.014.013A8.307 8.307 0 0015.747 0c-4.544 0-8.248 3.67-8.303 8.201-3.023 1.243-5.157 4.219-5.157 7.685 0 .36.024.72.07 1.076h-.342a2.018 2.018 0 00-2.016 2.016c0 1.11.904 2.015 2.015 2.017h.591l3.044 10.553A.625.625 0 006.25 32h6.941a.625.625 0 000-1.25H6.72L5.032 24.9A3.577 3.577 0 008.726 21l7.331.005v3.627c0 1.124.915 2.039 2.039 2.039s2.039-.915 2.039-2.039v-3.727a.79.79 0 011.578 0v1.125c0 1.124.915 2.039 2.039 2.039s2.039-.915 2.039-2.039v-1.035h2.298l-1.98 6.862a3.692 3.692 0 00-6.18 2.893h-1.125a.625.625 0 000 1.25h6.941a.626.626 0 00.601-.452l3.044-10.553h.591a2.018 2.018 0 000-4.034zM25.276 30.75h-4.094a2.441 2.441 0 012.431-2.614c.862 0 1.639.443 2.08 1.169zM23.622 4.796c1.362-1.226 2.649-2.383 3.613-2.937.503-.289 1.092-.365 1.657-.213s1.036.513 1.325 1.016c.6 1.044.24 2.381-.805 2.982-.957.551-2.595 1.08-4.329 1.639l-1.058.343a8.241 8.241 0 00-.651-2.608l.248-.223zM15.748 1.25c3.687 0 6.721 2.843 7.029 6.451a8.267 8.267 0 00-6.796 1.865 8.25 8.25 0 00-5.388-1.986c-.647 0-1.276.074-1.881.215.262-3.653 3.318-6.546 7.036-6.546zm-5.156 7.581c1.658 0 3.233.572 4.497 1.62a8.273 8.273 0 00-1.96 6.511H3.62a7.063 7.063 0 016.972-8.131zM5.171 23.653c-.174 0-.346-.019-.513-.057l-.75-2.6 3.562.003a2.326 2.326 0 01-2.299 2.654zm10.889-3.898l-14.042-.01a.767.767 0 01-.001-1.533H15.474c.324 0 .587.263.587.587v.957zm8.482-.957v3.231a.79.79 0 01-1.578 0v-1.125c0-1.124-.915-2.039-2.039-2.039s-2.039.915-2.039 2.039v3.727a.79.79 0 01-1.578 0v-5.834a1.839 1.839 0 00-1.837-1.837h-1.082a7.063 7.063 0 016.972-8.131 7.063 7.063 0 016.972 8.131h-1.957a1.839 1.839 0 00-1.837 1.837zm5.44.947h-4.19v-.946c0-.324.263-.587.587-.587H29.982a.767.767 0 110 1.534z"></path>
        <path d="M9.069 26.395a2.723 2.723 0 002.721 2.719c1.499 0 2.719-1.22 2.719-2.719s-1.22-2.721-2.719-2.721a2.725 2.725 0 00-2.721 2.721zm4.19 0a1.47 1.47 0 01-2.94 0c0-.81.66-1.471 1.471-1.471.81 0 1.469.66 1.469 1.471zM5.804 15.671h.004c.345 0 .623-.28.623-.625a.627.627 0 00-1.252 0c0 .345.28.625.625.625zM8.194 13.285h.004c.345 0 .623-.28.623-.625a.627.627 0 00-1.252 0c0 .345.28.625.625.625zM7.898 15.117c0 .345.28.625.625.625h.004c.345 0 .623-.28.623-.625a.627.627 0 00-1.252 0zM14.314 5.56h.004c.345 0 .623-.28.623-.625a.627.627 0 00-1.252 0c0 .345.28.625.625.625zM17.879 5.934h.004c.345 0 .623-.28.623-.625a.627.627 0 00-1.252 0c0 .345.28.625.625.625zM16.332 4.083h.004c.345 0 .623-.28.623-.625a.627.627 0 00-1.252 0c0 .345.28.625.625.625zM21.542 12.585a.625.625 0 00-.625.625v1.265a.66.66 0 11-1.32 0V13.21a.625.625 0 00-1.25 0v1.265c0 1.054.857 1.911 1.909 1.911s1.911-.857 1.911-1.911V13.21a.625.625 0 00-.625-.625zM15.999 30.75a.625.625 0 000 1.25h.004c.345 0 .623-.28.623-.625s-.282-.625-.627-.625z"></path>
        </symbol>
    </defs>undefinedundefinedundefined
</svg>