<svg aria-hidden="true" style="position: absolute; width: 0; height: 0; overflow: hidden;" version="1.1" xmlns="http://www.w3.org/2000/svg" xmlns:xlink="http://www.w3.org/1999/xlink">
<defs>
<symbol id="icon-close" viewBox="0 0 32 32">
<path fill="none" stroke="var(--color1, #fff)" stroke-width="2" d="M2.52 2l26.96 28M2 29.48L30 2.52"></path>
</symbol>
<symbol id="icon-Burger" viewBox="0 0 46 32">
<path fill="none" stroke="#d41443" style="stroke: var(--color2, #d41443)" stroke-linejoin="miter" stroke-linecap="butt" stroke-miterlimit="4" stroke-width="2.2857" d="M0 2.286h45.714"></path>
<path fill="none" stroke="#d41443" style="stroke: var(--color2, #d41443)" stroke-linejoin="miter" stroke-linecap="butt" stroke-miterlimit="4" stroke-width="2.2857" d="M0 16h45.714"></path>
<path fill="none" stroke="#d41443" style="stroke: var(--color2, #d41443)" stroke-linejoin="miter" stroke-linecap="butt" stroke-miterlimit="4" stroke-width="2.2857" d="M0 29.714h45.714"></path>
</symbol>
<symbol id="icon-Vector1" viewBox="0 0 22 32">
<path fill="none" stroke="#d41443" style="stroke: var(--color2, #d41443)" stroke-linejoin="round" stroke-linecap="round" stroke-miterlimit="4" stroke-width="6.4" d="M5.575 3.2l12.88 12.8-12.88 12.8"></path>
</symbol>
<symbol id="icon-input-contact1" viewBox="0 0 12 12">
<path d="M6 6C7.6575 6 9 4.6575 9 3C9 1.3425 7.6575 0 6 0C4.3425 0 3 1.3425 3 3C3 4.6575 4.3425 6 6 6ZM6 7.5C3.9975 7.5 0 8.505 0 10.5V11.25C0 11.6625 0.3375 12 0.75 12H11.25C11.6625 12 12 11.6625 12 11.25V10.5C12 8.505 8.0025 7.5 6 7.5Z" />
</symbol>
<symbol id="icon-input-contact3" viewBox="0 0 16 12">
<path d="M14 0H2C1.175 0 0.5075 0.675 0.5075 1.5L0.5 10.5C0.5 11.325 1.175 12 2 12H14C14.825 12 15.5 11.325 15.5 10.5V1.5C15.5 0.675 14.825 0 14 0ZM13.7 3.1875L8.3975 6.5025C8.1575 6.6525 7.8425 6.6525 7.6025 6.5025L2.3 3.1875C2.1125 3.0675 2 2.865 2 2.6475C2 2.145 2.5475 1.845 2.975 2.1075L8 5.25L13.025 2.1075C13.4525 1.845 14 2.145 14 2.6475C14 2.865 13.8875 3.0675 13.7 3.1875Z" />
</symbol>
<symbol id="icon-input-contact2" viewBox="0 0 14 14">
<path d="M11.996 9.12256L10.1579 8.91269C9.71641 8.86203 9.2822 9.01401 8.97102 9.32519L7.63945 10.6568C5.59144 9.61466 3.91251 7.94296 2.87041 5.8877L4.20922 4.54888C4.5204 4.2377 4.67237 3.80349 4.62171 3.36205L4.41185 1.53836C4.325 0.807445 3.70988 0.257446 2.97173 0.257446H1.71976C0.902004 0.257446 0.221746 0.937708 0.272403 1.75547C0.655953 7.93572 5.59868 12.8712 11.7717 13.2548C12.5894 13.3054 13.2697 12.6252 13.2697 11.8074V10.5555C13.2769 9.82453 12.7269 9.2094 11.996 9.12256Z" />
</symbol>
<symbol id="icon_check" viewBox="0 0 16 15">
<path d="M3.95703 7.75166L3.88825 7.68604L3.81923 7.75141L2.93123 8.59258L2.85486 8.66492L2.93097 8.73753L6.42671 12.0724L6.49574 12.1382L6.56476 12.0724L14.069 4.91352L14.1449 4.84116L14.069 4.76881L13.1873 3.92764L13.1183 3.86183L13.0493 3.92761L6.49577 10.1735L3.95703 7.75166Z" fill="white" stroke="white" stroke-width="0.2"/>
</symbol>
<symbol id="icon-logo" viewBox="0 0 32 32">
<path d="M14.392.049a15.524 15.524 0 00-7.173 2.49 15.987 15.987 0 00-6.597 8.957 16.446 16.446 0 00-.549 2.821c-.064.567-.091 2.132-.045 2.775a16.404 16.404 0 001.107 4.899c.379.965 1.107 2.314 1.717 3.191 1.868 2.681 4.492 4.726 7.48 5.827.249.091.482.176.522.188l.067.018v-1.186c0-.922-.009-1.186-.036-1.195-.021-.006-.167-.039-.325-.076-1.077-.249-2.111-.971-2.742-1.917a4.62 4.62 0 01-.695-1.614c-.064-.27-.067-.358-.076-2.39l-.012-2.111-.264-.033A2.7 2.7 0 014.517 18.7a2.964 2.964 0 01-.003-1.265c.127-.516.37-.934.758-1.304.449-.431.928-.649 1.617-.737l.143-.018.015-1.219c.015-1.301.036-1.547.173-2.235.261-1.31.807-2.493 1.668-3.609.288-.376 1.086-1.165 1.471-1.459a8.64 8.64 0 014.025-1.717c.476-.073 2.566-.091 3.133-.027a8.349 8.349 0 012.791.807 8.602 8.602 0 014.532 5.49c.231.88.276 1.338.276 2.812 0 1.137.003 1.192.055 1.192.121 0 .549.127.755.224 1.01.479 1.602 1.459 1.547 2.551a2.582 2.582 0 01-.776 1.747c-.367.367-.898.652-1.362.731l-.224.036.021 1.959c.024 2.087.018 2.202-.121 2.76a4.612 4.612 0 01-1.016 1.908c-.673.767-1.671 1.329-2.654 1.492l-.227.039v2.196l.312-.118a15.918 15.918 0 008.993-8.948c1.85-4.629 1.447-9.934-1.08-14.207a16.067 16.067 0 00-5.29-5.426A15.59 15.59 0 0016.96.035c-.555-.045-2.008-.036-2.566.015z"/>
<path d="M14.984 6.521a7.125 7.125 0 00-4.875 2.572l-.076.097.115.146c.224.282.828.846 1.189 1.113a7.216 7.216 0 003.024 1.31c.382.067.528.076 1.462.091.698.012 1.159.003 1.395-.021 1.583-.158 2.939-.758 4.134-1.829.234-.209.758-.78.758-.828 0-.052-.516-.616-.746-.819-.595-.522-1.022-.807-1.696-1.134a6.78 6.78 0 00-2.123-.655c-.355-.055-2.102-.085-2.563-.042z"/>
<path d="M9.109 10.704a8.38 8.38 0 00-.476 1.489c-.115.582-.14.949-.14 2.114v1.071h15.202l-.015-1.238c-.015-1.341-.033-1.535-.206-2.248a8.972 8.972 0 00-.191-.652c-.121-.331-.322-.777-.352-.777a.483.483 0 00-.115.121 8.183 8.183 0 01-.446.437c-1.392 1.271-3.006 2.011-4.883 2.238-.449.052-2.363.055-2.821 0a8.569 8.569 0 01-5.093-2.436l-.358-.352-.106.231zM6.718 16.895a1.228 1.228 0 00-.716 1.674c.112.24.358.479.601.595l.176.082 3.534.018c1.944.012 4.301.021 5.241.024l1.705.003v1.568c0 1.705.009 1.823.167 2.132.1.197.334.449.534.579.437.279 1.08.282 1.523.006.285-.173.51-.455.634-.786.067-.176.067-.209.079-1.853l.009-1.677 4.926-.015.206-.097c.249-.118.455-.322.582-.573.085-.167.091-.203.091-.513 0-.3-.009-.352-.082-.51a1.407 1.407 0 00-.598-.607l-.2-.097-9.115-.006c-8.93-.006-9.118-.006-9.297.052z"/>
<path d="M8.472 22.725c.009 1.723.018 2.038.061 2.208.306 1.238 1.131 2.081 2.378 2.436l.237.067 4.792.009c3.464.006 4.859 0 5.035-.024a3.215 3.215 0 002.687-2.584c.039-.206.046-2.554.009-3.582l-.021-.537h-2.023v.952c0 .743-.009 1.007-.049 1.204a2.818 2.818 0 01-.743 1.435c-.786.831-1.905 1.125-2.985.786-.919-.291-1.623-1.013-1.917-1.972-.079-.264-.082-.285-.097-1.329l-.018-1.062-7.358-.015.012 2.008zM12.369 30.186l-.009 1.283-.485.03.44.1c2.402.543 5.114.5 7.386-.112.188-.052.2-.058.1-.061l-.115-.003v-2.518h-7.31l-.006 1.28z"/>
</symbol>
</defs>
</svg>
