<svg aria-hidden="true" style="position:absolute;width:0;height:0" xmlns="http://www.w3.org/2000/svg" overflow="hidden"><defs><symbol id="icon-home" viewBox="0 0 32 32"><path fill="var(--color1, #d31342)" d="M31.618 15.643c.553-.608.5-1.541-.119-2.082L17.863 1.63c-.619-.541-1.611-.53-2.217.026L1.964 14.198a1.446 1.446 0 00-.066 2.079l.343.357c.569.592 1.489.663 2.053.157l1.023-.916v13.406c0 .823.666 1.488 1.488 1.488h5.333c.822 0 1.488-.666 1.488-1.488v-9.379h6.803v9.379c-.012.822.576 1.488 1.398 1.488h5.652c.822 0 1.488-.666 1.488-1.488V16.064l.631.554c.349.307 1.078.061 1.631-.548l.388-.426z"/></symbol><symbol id="icon-ellipse" viewBox="0 0 32 32"><path fill="var(--color2, #d9d9d9)" d="M32 16c0 8.837-7.163 16-16 16S0 24.837 0 16 7.163 0 16 0s16 7.163 16 16z"/></symbol><symbol id="icon-facebook" viewBox="0 0 16 32"><path fill="var(--color3, #fff)" d="M14.143 15.972h-4.034v14.865H3.997V15.972H1.09v-5.224h2.907V7.367c0-2.418 1.142-6.203 6.166-6.203l4.527.019v5.071h-3.285c-.539 0-1.296.271-1.296 1.424v3.075h4.567l-.534 5.219z"/></symbol><symbol id="icon-telegram" viewBox="0 0 32 32"><path fill="var(--color3, #fff)" d="M12.613 19.671l-.491 6.444c.702 0 1.006-.282 1.371-.62l3.293-2.937 6.822 4.663c1.251.651 2.133.308 2.47-1.074l4.478-19.585.001-.001c.397-1.726-.669-2.401-1.888-1.978L2.346 13.989c-1.796.651-1.769 1.585-.305 2.009l6.73 1.954 15.632-9.129c.736-.455 1.404-.203.854.252L12.612 19.672z"/></symbol><symbol id="icon-github" viewBox="0 0 32 32"><path fill="var(--color3, #fff)" d="M16 0C7.212 0 0 7.212 0 16c0 7.499 5.262 14.312 12.25 16v-5.293c-.692.152-1.33.156-2.034-.052-.946-.279-1.714-.909-2.284-1.869-.364-.613-1.008-1.278-1.68-1.23l-.165-1.868c1.453-.124 2.711.886 3.457 2.14.332.558.713.884 1.203 1.029.473.14.982.072 1.574-.137.149-1.186.692-1.63 1.102-2.255v-.001c-4.167-.622-5.828-2.832-6.488-4.578-.874-2.317-.405-5.212 1.14-7.041.03-.036.084-.129.063-.194-.708-2.139.155-3.909.187-4.097.817.242.95-.243 3.551 1.337l.449.27c.188.112.129.048.317.034A13.544 13.544 0 0116 7.723c1.136.015 2.273.178 3.404.484l.145.015c-.013-.002.04-.009.127-.062 3.248-1.968 3.132-1.324 4.003-1.608.032.188.883 1.987.182 4.099-.095.291 2.816 2.956 1.203 7.235-.659 1.746-2.32 3.957-6.487 4.578v.001c.534.814 1.176 1.247 1.173 2.927V32C26.738 30.312 32 23.499 32 16c0-8.788-7.212-16-16-16z"/></symbol><symbol id="arrow" viewBox="0 0 32 32"><path d="M19.414 27.414l10-10a2 2 0 000-2.828l-10-10a2 2 0 10-2.828 2.828L23.172 14H4a2 2 0 100 4h19.172l-6.586 6.586c-.39.39-.586.902-.586 1.414s.195 1.024.586 1.414a2 2 0 002.828 0z"/></symbol><symbol id="icon-logo" viewBox="0 0 28 32"><path d="M12.972.022c-.895.066-1.626.187-2.308.385a10.38 10.38 0 00-7.376 8.308c-.103.639-.132 1.178-.132 2.499v1.288l-.257.026c-1.56.154-2.793 1.442-2.888 3.017a3.235 3.235 0 002.044 3.218c.268.106.734.209.943.209h.139l-.011 2.172c-.015 2.349.007 2.818.158 3.439a5.658 5.658 0 002.972 3.721 6.104 6.104 0 001.461.481l.136.026V32h1.761v-3.119h8.807v3.046h1.761v-3.083l.084-.015c.044-.011.209-.044.367-.077a5.45 5.45 0 001.365-.481 5.566 5.566 0 003.013-4.088c.051-.301.055-.69.04-2.782l-.015-2.429.077-.018c.044-.007.165-.033.272-.055.716-.139 1.516-.675 1.941-1.303.371-.55.525-1.02.554-1.684.022-.543-.022-.851-.18-1.284a3.298 3.298 0 00-1.574-1.765c-.268-.136-.664-.268-.881-.297l-.176-.022-.018-1.512c-.018-1.604-.04-1.897-.209-2.738a10.336 10.336 0 00-2.826-5.248A10.338 10.338 0 0015.994.088c-.433-.055-2.543-.103-3.024-.066zM15.78 1.85a8.768 8.768 0 014.444 1.96c.338.286.95.903 1.097 1.108l.073.099-.341.382a8.685 8.685 0 01-4.411 2.62c-.661.158-1.16.209-2.206.228-1.49.029-2.338-.055-3.317-.338a8.652 8.652 0 01-3.853-2.356c-.455-.481-.466-.499-.385-.628.132-.198 1.112-1.138 1.479-1.413a8.778 8.778 0 014.007-1.655c.543-.073 2.881-.077 3.413-.007zM7.119 7.82c.606.47 1.119.793 1.816 1.134 1.064.521 1.941.793 3.193.98.371.055.679.066 1.982.066 1.747-.004 2.073-.033 3.152-.308a10.32 10.32 0 004.935-2.914.927.927 0 01.187-.172c.088 0 .517 1.163.672 1.817.18.749.209 1.149.209 2.683v1.409H4.909l.015-1.461c.015-1.138.033-1.549.084-1.879a9.236 9.236 0 01.679-2.327l.103-.235.444.433c.242.239.642.587.884.774zm17.89 6.514c.44.114.789.404.983.815.106.224.117.279.117.598 0 .33-.007.363-.136.628a1.412 1.412 0 01-.719.701l-.246.117-5.916.018-.022.668a65.883 65.883 0 00-.026 1.996c0 1.2-.007 1.35-.07 1.552-.272.873-1.237 1.428-2.092 1.196a1.76 1.76 0 01-1.251-1.193c-.062-.216-.07-.411-.084-2.195-.007-1.075-.026-1.967-.04-1.982s-2.862-.033-6.33-.044l-6.297-.018-.25-.121a1.516 1.516 0 01-.84-1.101c-.132-.705.367-1.442 1.108-1.644.128-.037 2.576-.048 11.028-.048 9.706-.004 10.888.004 11.083.055zm-12.8 4.664l1.545.022.018 1.215c.018 1.391.044 1.56.338 2.18.209.44.418.734.756 1.053.451.429.947.712 1.53.87.231.066.389.081.888.081.525.004.646-.007.914-.081 1.299-.356 2.242-1.343 2.558-2.686.044-.18.062-.547.077-1.461l.018-1.218h2.407l.026 1.842c.037 2.378.018 3.035-.088 3.424a4.821 4.821 0 01-.554 1.196 4.834 4.834 0 01-.987.987 4.892 4.892 0 01-1.171.547c-.547.15-.745.154-6.631.143l-5.651-.011-.352-.095c-.738-.206-1.314-.536-1.817-1.039-.657-.661-1.039-1.479-1.108-2.371-.015-.191-.022-1.31-.015-2.488l.011-2.136h2.873c1.578 0 3.567.011 4.415.026z"/></symbol></defs></svg>