<svg aria-hidden="true" style="position:absolute;width:0;height:0" xmlns="http://www.w3.org/2000/svg" overflow="hidden"><defs><symbol id="prev" viewBox="0 0 54 32"><path fill="var(--color1, #ff6b09)" d="M52 14a2 2 0 110 4v-4zM.586 17.414a2 2 0 010-2.828L13.314 1.858a2 2 0 112.828 2.828L4.828 16l11.314 11.314a2 2 0 11-2.828 2.828L.586 17.414zM52 18H2v-4h50v4z"/></symbol><symbol id="next" viewBox="0 0 54 32"><path fill="var(--color1, #ff6b09)" d="M2 14a2 2 0 100 4v-4zm51.414 3.414a2 2 0 000-2.828L40.686 1.858a2 2 0 10-2.828 2.828L49.172 16 37.858 27.314a2 2 0 102.828 2.828l12.728-12.728zM2 18h50v-4H2v4z"/></symbol><symbol id="vk" viewBox="0 0 53 32"><path fill="var(--color2, #436eab)" d="M45.901 20.1c1.769 1.727 3.636 3.352 5.223 5.254.701.845 1.364 1.717 1.872 2.698.719 1.394.068 2.928-1.182 3.011l-7.77-.004c-2.004.166-3.603-.64-4.947-2.011-1.076-1.096-2.072-2.262-3.106-3.395-.424-.463-.868-.898-1.398-1.243-1.061-.689-1.981-.478-2.587.628-.617 1.125-.758 2.371-.818 3.625-.083 1.829-.636 2.311-2.474 2.394-3.928.185-7.655-.409-11.118-2.39-3.053-1.747-5.42-4.213-7.481-7.004C6.103 16.227 3.031 10.254.27 4.114-.352 2.731.103 1.988 1.629 1.962c2.535-.049 5.069-.046 7.607-.004 1.03.015 1.712.606 2.11 1.579 1.371 3.372 3.049 6.58 5.156 9.554.561.792 1.133 1.583 1.947 2.141.901.617 1.587.412 2.011-.591.269-.636.387-1.322.447-2.004.201-2.345.227-4.686-.125-7.023-.216-1.458-1.038-2.403-2.493-2.679-.743-.141-.632-.417-.273-.841.625-.731 1.212-1.186 2.383-1.186h8.781c1.382.273 1.689.894 1.879 2.285l.007 9.754c-.015.538.269 2.136 1.239 2.493.776.254 1.288-.367 1.754-.86 2.102-2.231 3.603-4.868 4.943-7.599.595-1.201 1.106-2.448 1.602-3.694.367-.924.944-1.379 1.985-1.359l8.451.008c.251 0 .504.004.747.045 1.424.243 1.814.855 1.375 2.246-.693 2.182-2.041 4-3.36 5.827-1.409 1.95-2.917 3.834-4.314 5.795-1.284 1.792-1.182 2.695.413 4.251z"/></symbol></defs></svg>