<?xml version="1.0" encoding="utf-8"?>
<!-- Generator: Adobe Illustrator 16.0.0, SVG Export Plug-In . SVG Version: 6.00 Build 0)  -->
<!DOCTYPE svg PUBLIC "-//W3C//DTD SVG 1.1//EN" "http://www.w3.org/Graphics/SVG/1.1/DTD/svg11.dtd">
<svg version="1.1" id="Layer_1" xmlns="http://www.w3.org/2000/svg" xmlns:xlink="http://www.w3.org/1999/xlink" x="0px" y="0px"
	 width="164.41px" height="280.63px" viewBox="0 0 164.41 280.63" enable-background="new 0 0 164.41 280.63" xml:space="preserve">
<path fill-rule="evenodd" clip-rule="evenodd" fill="#FE7B96" d="M93.932,230.72c-1.199-1.039-2.334-0.536-3.682-0.132
	c-7.444,2.235-14.995,4.128-22.399,6.484c-8.89,2.828-18.752-2.242-21.573-11.715c-5.383-18.073-10.811-36.135-16.202-54.206
	c-3.499-11.728-6.984-23.459-10.444-35.199c-1.868-6.338-3.671-12.696-5.504-19.044c4.818,1.144,9.037,4.319,14.232,4.189
	c1.98,1.135,2.136,3.269,2.714,5.126c2.366,7.612,4.445,15.313,7.009,22.865c0.997,2.937,2.48,5.466,5.627,6.537
	c5.581,1.898,10.766-3.184,9.414-9.595c-1.68-7.966-4.45-15.65-6.74-23.458c-2.758-9.403-5.679-18.757-8.375-28.179
	c-0.54-1.885-1.439-3.792-0.189-5.752c2.671-1.563,4.365,0.142,6.009,1.851c1.156,1.201,1.847,2.757,2.896,4.048
	c2.271,2.794,5.296,3.262,8.572,2.592c3.364-0.688,4.886-3.176,5.638-6.278c0.197-0.812,0.221-1.643,0.19-2.477
	c-0.115-3.133-0.902-6.933,3.648-7.353c4.261-0.393,4.659,3.479,5.574,6.434c2.015,6.505,3.845,13.065,5.896,19.559
	c1.858,5.883,6.869,9.182,12.448,8.246c5.271-0.884,8.547-5.572,7.9-12.005c-0.771-7.661-3.979-14.72-5.962-22.085
	c-1.388-5.157-0.02-8.632,4.166-10.343c1.719-0.702,3.51-1.277,4.996,0.545c5.66,14.039,9.805,28.59,14.312,43.01
	c7.235,23.152,14.083,46.42,20.064,69.943c2.201,8.657,1.516,16.38-3.771,23.649c-3.514,4.832-6.617,9.967-10.677,14.395
	C111.537,226.42,102.571,228.066,93.932,230.72z"/>
<path fill-rule="evenodd" clip-rule="evenodd" fill="#F5D8FE" d="M99.064,71.742c-5.809-0.727-9.067,2.586-7.55,7.805
	c1.981,6.817,4.297,13.544,6.062,20.415c1.262,4.916,1.273,9.652-2.818,13.876c-5.339,5.51-16.946,3.333-19.552-5.098
	c-2.242-7.252-4.196-14.593-6.284-21.893c-0.09-0.316-0.25-0.613-0.35-0.928c-1.16-3.694-2.235-4.675-4.468-4.068
	c-1.961,0.534-2.607,2.09-1.692,5.437c0.422,1.545,0.394,2.778-0.092,4.289c-1.542,4.796-3.618,6.89-7.68,7.29
	c-4.545,0.447-8.198-0.762-10.254-5.247c-1.208-2.635-2.666-5.083-6.221-4.636c-4.278-3.852-4.676-9.033-4.896-14.272
	c1.181-2.711,3.09,0.252,4.593-0.592c-0.344-1.972-2.374-2.423-3.4-3.754c-0.529-0.494-1.001-1.035-1.413-1.632
	c-1.574-6.618,0.4-12.776,2.664-18.827c1.339-3.58,3.41-6.813,5.556-10.005c2.792-4.15,2.248-8.558-1.046-11.207
	c-3.354-2.698-8.112-1.958-11.481,1.821c-2.006,2.25-3.497,4.843-4.902,7.496c-0.841,1.589-1.411,3.429-3.31,4.194
	c-1.412,0.354-2.09-1.298-3.445-1.511c-0.37,3.316,1.506,5.97,1.573,8.947c-0.94,5.73-1.84,11.463-2.596,17.214
	c-0.56,2.749-2.971,4.501-4.041,6.88c1.144,1.42,2.759,0.116,3.748,1.161c2.396,4.761,2.887,10.016,3.934,15.125
	c-3.663,4.278,0.323,6.21,2.675,8.647c2.958,6.491,4.513,13.423,6.393,20.25c0.269,0.977,0.07,1.972-0.712,2.746
	c-5.569,1.126-9.885-1.419-13.931-4.755c-2.706-6.722-4.126-13.837-6.317-20.72c-2.24-7.034-4.294-14.136-6.156-21.279
	C-1.03,64.615-0.314,54.472,2.719,44.24c2.942-9.925,7.939-18.411,15.117-25.733C26.274,9.898,36.402,4.234,48.174,1.832
	c18.704-3.816,35.783-0.215,51.074,11.583c10.749,8.294,17.541,18.984,21.163,31.97c2.293,8.22,5.056,16.31,7.607,24.458
	c-1.053,1.739,0.469,3.479,0.002,5.221c-1.582,5.907-5.18,9.173-10.876,9.879c-6.12,0.758-11.698-2.035-14.508-7.355
	C101.566,75.558,100.989,73.243,99.064,71.742z"/>
<path fill-rule="evenodd" clip-rule="evenodd" fill="#E7587E" d="M99.064,71.742c2.6,0.165,3.37,1.99,4.221,4.123
	c2.166,5.436,6.604,8.167,12.369,8.002c5.757-0.165,9.286-2.954,11.431-9.034c0.903-0.338-0.14-2.602,1.848-1.867
	c3.057,10.492,6.064,20.998,9.178,31.472c8.446,28.413,16.897,56.825,25.431,85.212c2.999,9.979-1.779,19.982-12.956,23.057
	c-6.384,1.755-12.754,3.571-19.08,5.521c-1.666,0.514-3.736,0.477-4.76,2.377c-2.459,1.061-4.854,2.549-7.683,1.156
	c3.89-5.913,8.325-11.438,12.073-17.463c3.158-5.075,3.93-10.445,2.584-16.017c-4.392-18.177-9.521-36.157-14.949-54.051
	c-6.245-20.593-12.537-41.173-19.619-61.5C99.045,72.428,99.09,72.073,99.064,71.742z"/>
<path fill-rule="evenodd" clip-rule="evenodd" fill="#E9AA4E" d="M129.114,229.78c3.747,10.215,6.779,20.658,9.377,31.207
	c1.656,6.73-3.637,15.088-10.368,17.942c-9.603,4.071-20.625-1.698-23.146-10.729c-2.754-9.859-5.793-19.64-8.707-29.455
	c4.332-2.979,9.604-3.288,14.382-5.006c4.182-1.503,8.514-2.589,12.777-3.87C125.261,229.319,127.202,228.416,129.114,229.78z"/>
<path fill-rule="evenodd" clip-rule="evenodd" fill="#CB8527" d="M129.114,229.78c-9.363,2.702-18.743,5.353-28.075,8.158
	c-1.593,0.479-3.095,1.02-4.77,0.807c-0.779-2.675-1.559-5.35-2.338-8.024c0.145-1.402,1.072-1.636,2.307-1.996
	c7.637-2.227,15.223-4.623,22.824-6.963c2.593-0.178,4.925-2.081,7.683-1.156C127.569,223.655,128.943,226.562,129.114,229.78z"/>
<path fill-rule="evenodd" clip-rule="evenodd" fill="#F2B4D4" d="M128.933,72.965c-1.094,0.149-0.891,1.583-1.848,1.867
	c0.262-1.673-0.853-3.603,0.934-4.99C128.323,70.883,128.628,71.924,128.933,72.965z"/>
<path fill-rule="evenodd" clip-rule="evenodd" fill="#F8F3E6" d="M28.059,121.664c-0.807-4.447-2.043-8.796-3.641-13
	c-1.24-3.263-1.015-7.022-3.384-9.881c-1.335-2.47-3.112-4.827-2.005-7.915c-1.348-5.433-2.696-10.865-4.044-16.298
	c-1.933-2.166-0.735-4.338-0.017-6.51c0.313-6.521,0.832-13.008,3.084-19.218c-0.636-2.709-0.286-5.141,1.979-7.034
	c2.718-2.75,3.309-6.767,5.812-9.697c0.833-0.975,1.55-2.12,2.466-3.069c3.695-3.83,9.156-4.492,12.851-1.574
	c3.665,2.895,4.499,9.27,1.273,13.273c-4.157,5.159-6.796,10.999-7.874,17.373c-0.57,3.375-2.255,6.907-0.516,10.471
	c-0.092,1.441,0.369,2.814,0.521,4.227c-0.002,0.437-0.187,0.783-0.525,1.051c0.292,5.335,2.164,10.24,4.125,15.121
	c0.241,3.661,1.744,6.994,2.753,10.451c4.476,15.338,9.056,30.646,13.479,45.999c1.702,5.905-0.713,10.068-6.522,11.877
	c-4.31,1.342-9.116-1.375-10.726-6.51c-2.858-9.114-5.458-18.309-8.125-27.481C28.83,122.647,28.597,122.091,28.059,121.664z"/>
<path fill-rule="evenodd" clip-rule="evenodd" fill="#F8F3E6" d="M55.78,190.853c-5.945,0.508-9.591-4.734-9.693-11.832
	c-0.073-5.074,4.268-9.514,9.112-9.086c6.006,0.528,9.357,4.377,9.776,12.17C65.251,187.25,61.064,190.908,55.78,190.853z"/>
<path fill-rule="evenodd" clip-rule="evenodd" fill="#7CBD9A" d="M34.063,23.692c-1.741-0.444-2.527-1.738-1.803-3.003
	c1.991-3.479,4.774-6.271,8.419-8.124c1.207-0.613,1.833,0.128,2.528,0.825c0.792,0.793,0.435,1.56-0.249,2.104
	c-2.836,2.256-5.841,4.32-7.733,7.555C35.021,23.397,34.412,23.508,34.063,23.692z"/>
<path fill-rule="evenodd" clip-rule="evenodd" fill="#EC2738" d="M71.262,42.242c-0.316-0.095-0.658-0.139-0.94-0.293
	c-2.736-1.497-5.474-2.99-8.184-4.533c-0.946-0.539-1.403-1.399-0.946-2.489c0.466-1.11,1.5-1.383,2.461-1.031
	c3.253,1.19,6.237,2.924,8.954,5.062c0.662,0.521,0.594,1.516,0.199,2.297C72.505,41.853,71.979,42.229,71.262,42.242z"/>
<path fill-rule="evenodd" clip-rule="evenodd" fill="#7ABD99" d="M100.896,57.249c0.425,0.223,1.133,0.403,1.559,0.852
	c2.264,2.377,4.461,4.817,6.668,7.246c0.713,0.783,1.143,1.642,0.31,2.606c-0.894,1.035-2.128,1.3-3.03,0.357
	c-2.488-2.599-4.902-5.285-7.128-8.109C98.393,59.081,99.475,57.214,100.896,57.249z"/>
<path fill-rule="evenodd" clip-rule="evenodd" fill="#D8DE28" d="M74.029,64.642c-0.547,0-2.206,0.113-3.841-0.037
	c-1.255-0.115-2.153-0.905-2.059-2.308c0.084-1.256,1.05-1.621,2.101-1.564c2.953,0.159,5.947-0.216,8.852,0.606
	c1.168,0.331,2.244,0.807,2.01,2.321c-0.228,1.477-1.171,1.764-2.527,1.491C77.442,64.927,76.281,64.885,74.029,64.642z"/>
<path fill-rule="evenodd" clip-rule="evenodd" fill="#0FAFEF" d="M85.037,20.446c-0.422,1.803-0.873,4.221-1.595,6.554
	c-0.27,0.87-1.155,1.665-2.33,1.191c-0.843-0.34-1.257-1.088-1.135-1.98c0.399-2.92,0.805-5.841,1.322-8.741
	c0.148-0.833,0.88-1.415,1.791-1.419c1.152-0.005,1.797,0.698,1.934,1.804C85.103,18.502,85.037,19.168,85.037,20.446z"/>
<path fill-rule="evenodd" clip-rule="evenodd" fill="#0DAEEF" d="M52.026,55.492c0.138-0.736,0.526-2.497,0.783-4.276
	c0.21-1.458,0.647-2.729,2.402-2.312c1.627,0.388,1.648,1.851,1.486,3.202c-0.195,1.625-0.431,3.248-0.735,4.855
	c-0.281,1.482-0.663,3.128-2.677,2.773C51.46,59.412,51.891,57.835,52.026,55.492z"/>
<path fill-rule="evenodd" clip-rule="evenodd" fill="#0BAEEF" d="M55.957,75.946c-1.292,2.41-2.577,5.283-4.323,7.841
	c-0.768,1.125-2.166,0.506-2.615-0.885c-0.493-1.526,2.396-8.083,3.817-8.888C53.997,73.356,55.829,74.239,55.957,75.946z"/>
<path fill-rule="evenodd" clip-rule="evenodd" fill="#D9DE30" d="M61.712,13.016c1.956,0.669,4.145,1.343,6.267,2.185
	c0.795,0.315,1.171,1.192,0.917,2.072c-0.24,0.834-0.88,1.542-1.773,1.44c-2.458-0.282-4.8-1.071-6.923-2.328
	c-0.638-0.377-1.127-1.246-0.657-2.152C59.942,13.462,60.541,12.943,61.712,13.016z"/>
<path fill-rule="evenodd" clip-rule="evenodd" fill="#19B1EF" d="M20.031,41.808c-0.053,2.516-1.645,4.598-1.979,7.034
	c-2.225-1.913-1.553-4.868-2.59-7.213c-0.629-1.423-0.396-2.678,1.26-3.18c1.843-0.558,2.248,0.716,2.546,2.14
	C19.36,41.029,19.768,41.403,20.031,41.808z"/>
<path fill-rule="evenodd" clip-rule="evenodd" fill="#F08AA0" d="M96.572,42.852c-0.891-0.078-2.011,0.161-2.336-1.149
	c-0.343-1.376,0.479-2.146,1.565-2.706c0.277-0.143,0.663-0.243,0.952-0.171c1.539,0.384,2.973-1.922,4.554-0.16
	c0.47,0.523,0.802,1.117,0.411,1.751c-1.044,1.692-2.83,2.055-4.602,2.405C96.959,42.854,96.791,42.842,96.572,42.852z"/>
<path fill-rule="evenodd" clip-rule="evenodd" fill="#D9DE31" d="M14.967,68.059c0.005,2.17,0.011,4.34,0.017,6.51
	c-0.644,0.515-1.268,1.056-1.936,1.537c-0.787,0.567-1.531,0.409-2.234-0.218c-0.892-0.796-1.02-1.776-0.33-2.642
	C11.907,71.46,13.465,69.782,14.967,68.059z"/>
<path fill-rule="evenodd" clip-rule="evenodd" fill="#7DBE9B" d="M34.039,73.863c-0.04-0.319-0.061-0.64-0.063-0.961
	c-0.216-1.282-1.409-2.921,1.164-3.184c1.215,0.836,2.444,1.652,3.642,2.513c1.206,0.867,1.827,2.019,0.919,3.379
	c-1.015,1.522-2.173,0.978-3.308-0.008C35.659,74.965,34.827,74.438,34.039,73.863z"/>
<path fill-rule="evenodd" clip-rule="evenodd" fill="#F08CA1" d="M19.028,90.867c1.113,2.525,1.91,5.131,2.005,7.915
	c-1.778-0.935-3.039-2.384-4.06-4.074C15.503,92.273,16.321,91.066,19.028,90.867z"/>
<path fill-rule="evenodd" clip-rule="evenodd" fill="#9AC9AE" d="M35.14,69.718c-1.556,0.635-0.892,2.08-1.164,3.184
	c-1.213-1.458-1.399-2.9,0.067-4.317C34.408,68.962,34.774,69.34,35.14,69.718z"/>
</svg>
