<svg width="102" height="104" fill="none" xmlns="http://www.w3.org/2000/svg"><g clip-path="url(#clip0)" fill="#FF6B09"><path d="M66.32 27.812H43.193a2.733 2.733 0 00-2.73 2.73v9.573L23.28 47.328a.559.559 0 00-.071.996l2.191 1.311V63.61a2.525 2.525 0 00-1.961 2.458v1.347c0 .31.25.56.56.56h3.923a.56.56 0 00.56-.56v-1.347c0-1.198-.842-2.2-1.963-2.457V50.304l1.733 1.037c-.054.4-.007-.696-.025 6.506 0 2.368 6.064 3.636 12.235 3.709v10.906a2.727 2.727 0 002.729 2.726h23.126a2.73 2.73 0 002.728-2.728c0 .075-.003-2.31 0-41.917 0-1.485-1.228-2.731-2.726-2.731zM27.363 66.067v.788H24.56v-.788c0-.775.627-1.406 1.399-1.406.775 0 1.405.631 1.405 1.406zm38.957 7.999H43.193c-.555 0-1.045-.28-1.335-.707a1.599 1.599 0 01-.275-.899v-3.78h26.341v3.782c0 .876-.73 1.604-1.604 1.604zm1.604-6.505H41.582v-6.002c3.012-.034 12.242-.698 12.242-3.712-.004-4.525.008-6.36-.014-6.515l5.024-3.01a.56.56 0 00-.071-.995l-17.181-7.212v-4.673h26.342v32.119zM41.022 54.132c-3.103 0-9.08.401-11.675 2.096.016-5.185-.18-4.847.458-5.287 1.613-1.187 6.226-2.016 11.217-2.016 2.177 0 11.683.598 11.683 2.61v4.694c-2.62-1.711-8.566-2.097-11.683-2.097zm.56-23.59a1.61 1.61 0 011.61-1.608h23.126c.888 0 1.606.732 1.606 1.608v3.781H41.583v-3.78zm-.56 10.552l16.289 6.837-4.036 2.415c-2.146-2.128-9.244-2.54-12.253-2.54-3.013 0-10.111.413-12.252 2.54l-4.037-2.415 16.29-6.837zM29.347 57.847c0-.906 4.01-2.596 11.675-2.596 7.67 0 11.683 1.69 11.683 2.596 0 .906-4.013 2.597-11.683 2.597-7.665 0-11.675-1.69-11.675-2.597z"/><path d="M54.755 69.523c-1.02 0-1.85.83-1.85 1.851 0 1.02.83 1.851 1.85 1.851s1.85-.83 1.85-1.851c0-1.02-.83-1.85-1.85-1.85zm0 2.583a.733.733 0 010-1.463.732.732 0 010 1.463zM56.89 31.069h-4.27v1.119h4.27v-1.119z"/></g><path d="M101 15V1H1v102h100V89" stroke="#FF6B09" stroke-width="2"/><defs><clipPath id="clip0"><path fill="#fff" transform="translate(22 28)" d="M0 0h48v47H0z"/></clipPath></defs></svg>