<svg width="102" height="104" fill="none" xmlns="http://www.w3.org/2000/svg"><g clip-path="url(#clip0)" fill="#FF6B09"><path d="M25.813 48.613c0 .535-.813.535-.813 0C25 37.231 34.231 28 45.613 28 57 28 66.226 37.231 66.226 48.613c0 .535-.808.535-.808 0 0-7.693-12.642-7.698-12.642 0 0 .535-.832.535-.832 0 0-7.674-12.662-7.674-12.662 0 0 .535-.832.535-.832 0 0-7.66-12.637-7.713-12.637 0zm12.71-2.988c.22-4.428.915-8.399 1.927-11.43.808-2.41 1.83-4.239 2.988-5.266-8.691.95-15.728 7.538-17.3 16.083 2.993-4.316 9.903-3.97 12.385.613zm13.358-.2c-.224-4.257-.9-8.067-1.874-10.972-2.51-7.519-6.277-7.519-8.788 0-.973 2.905-1.645 6.715-1.873 10.973 2.7-4.589 9.834-4.589 12.535 0zm13.207-.413c-1.567-8.545-8.604-15.134-17.3-16.083 1.163 1.027 2.18 2.857 2.988 5.266 1.012 3.031 1.708 7.002 1.927 11.43 2.496-4.608 9.426-4.88 12.385-.613zM42.907 58.045v-4.186c-.754.502-1.347 1.275-1.347 2.22 0 .92.603 1.528 1.347 1.966zm.813 1.3c-1.445-.662-2.968-1.436-2.968-3.266 0-1.889 1.435-2.833 2.968-3.539v6.804zM48.319 64.36v4.234c.764-.506 1.362-1.285 1.362-2.23 0-.928-.613-1.556-1.362-2.004zm-.808-1.304c1.45.671 2.983 1.47 2.983 3.309 0 1.893-1.445 2.837-2.983 3.538v-6.847z"/><path d="M48.319 49.095c3.328.769 6.75 3.26 6.75 6.983 0 3.187-5.388 3.07-5.388 0 0-.949-.598-1.728-1.362-2.229v5.957c3.08 1.007 6.759 2.812 6.759 6.56 0 3.727-3.421 6.214-6.76 6.978-.014 3.547-5.4 3.542-5.41-.005-1.898-.438-3.548-1.324-4.74-2.497-1.25-1.236-1.99-2.788-1.99-4.477 0-3.138 5.382-3.138 5.382 0 0 .94.593 1.713 1.348 2.215v-5.952c-3.056-.988-6.755-2.847-6.755-6.56 0-3.727 3.421-6.214 6.755-6.978.014-3.548 5.401-3.543 5.41.005zm-4.599.01v.647c-3.168.628-6.759 2.657-6.759 6.316 0 3.519 3.942 5.095 6.76 5.966v7.864c-1.524-.696-2.97-1.635-2.97-3.533 0-2.073-3.766-2.073-3.766 0 0 1.465.653 2.818 1.752 3.898 1.397 1.382 3.09 2.04 4.983 2.414v.652c0 2.496 3.791 2.496 3.791 0v-.647c3.178-.633 6.754-2.662 6.754-6.317 0-3.552-3.932-5.08-6.754-5.97v-7.86c1.528.696 2.983 1.635 2.983 3.543 0 2.02 3.761 2.102 3.761 0 0-3.655-3.571-5.689-6.744-6.321v-.652c0-2.497-3.79-2.497-3.79 0z"/></g><path d="M101 15V1H1v102h100V89" stroke="#FF6B09" stroke-width="2"/><defs><clipPath id="clip0"><path fill="#fff" transform="translate(25 28)" d="M0 0h42v48H0z"/></clipPath></defs></svg>