<svg aria-hidden="true" style="position: absolute; width: 0; height: 0; overflow: hidden;" version="1.1" xmlns="http://www.w3.org/2000/svg" xmlns:xlink="http://www.w3.org/1999/xlink">
<defs>
<symbol id="icon-dots" viewBox="0 0 139 32">
<path fill="#fff" style="fill: var(--color1, #fff)" d="M85.333 16c0 8.837-7.163 16-16 16s-16-7.163-16-16c0-8.837 7.163-16 16-16s16 7.163 16 16z"></path>
<path fill="#fff" style="fill: var(--color1, #fff)" d="M32 16c0 8.837-7.163 16-16 16s-16-7.163-16-16c0-8.837 7.163-16 16-16s16 7.163 16 16z"></path>
<path fill="#fff" style="fill: var(--color1, #fff)" d="M138.667 16c0 8.837-7.163 16-16 16s-16-7.163-16-16c0-8.837 7.163-16 16-16s16 7.163 16 16z"></path>
</symbol>
<symbol id="icon-arrow-circle-right" viewBox="0 0 32 32">
<path d="M16 0.5c8.563 0 15.5 6.938 15.5 15.5s-6.938 15.5-15.5 15.5-15.5-6.938-15.5-15.5 6.938-15.5 15.5-15.5zM14.194 9.475l4.719 4.525h-11.412c-0.831 0-1.5 0.669-1.5 1.5v1c0 0.831 0.669 1.5 1.5 1.5h11.412l-4.719 4.525c-0.606 0.581-0.619 1.55-0.025 2.144l0.688 0.681c0.588 0.587 1.537 0.587 2.119 0l8.294-8.287c0.587-0.587 0.587-1.537 0-2.119l-8.294-8.3c-0.587-0.588-1.537-0.588-2.119 0l-0.688 0.681c-0.594 0.6-0.581 1.569 0.025 2.15z"></path>
</symbol>
</defs>
</svg>
