<svg aria-hidden="true" style="position: absolute; width: 0; height: 0; overflow: hidden;" version="1.1" xmlns="http://www.w3.org/2000/svg" xmlns:xlink="http://www.w3.org/1999/xlink">
<defs>
<symbol id="icon-arrow-right2" viewBox="0 0 32 32">
<path d="M19.414 27.414l10-10c0.781-0.781 0.781-2.047 0-2.828l-10-10c-0.781-0.781-2.047-0.781-2.828 0s-0.781 2.047 0 2.828l6.586 6.586h-19.172c-1.105 0-2 0.895-2 2s0.895 2 2 2h19.172l-6.586 6.586c-0.39 0.39-0.586 0.902-0.586 1.414s0.195 1.024 0.586 1.414c0.781 0.781 2.047 0.781 2.828 0z"></path>
</symbol>
<symbol id="icon-arrow-left2" viewBox="0 0 32 32">
<path d="M12.586 27.414l-10-10c-0.781-0.781-0.781-2.047 0-2.828l10-10c0.781-0.781 2.047-0.781 2.828 0s0.781 2.047 0 2.828l-6.586 6.586h19.172c1.105 0 2 0.895 2 2s-0.895 2-2 2h-19.172l6.586 6.586c0.39 0.39 0.586 0.902 0.586 1.414s-0.195 1.024-0.586 1.414c-0.781 0.781-2.047 0.781-2.828 0z"></path>
</symbol>
<symbol id="icon-circle-up" viewBox="0 0 32 32">
<path d="M0 16c0 8.837 7.163 16 16 16s16-7.163 16-16-7.163-16-16-16-16 7.163-16 16zM29 16c0 7.18-5.82 13-13 13s-13-5.82-13-13 5.82-13 13-13 13 5.82 13 13z"></path>
<path d="M22.086 20.914l2.829-2.829-8.914-8.914-8.914 8.914 2.828 2.828 6.086-6.086z"></path>
</symbol>

<symbol id="icon-logo" viewBox="5 5 490 490">
<path d="M190 491 c-115 -35 -184 -126 -184 -241 0 -94 48 -176 127 -217 41
-21 47 -6 9 23 -27 22 -32 32 -32 69 0 26 -6 47 -15 55 -18 15 -20 54 -2 68 7
6 14 26 15 44 5 66 76 128 147 128 71 0 142 -62 147 -128 1 -18 8 -38 15 -44
18 -14 16 -53 -2 -68 -9 -8 -15 -29 -15 -55 0 -37 -5 -47 -32 -69 -42 -33 -30
-45 17 -16 66 41 115 130 115 209 0 158 -164 286 -310 242z"/>
<path d="M203 375 c-18 -8 -33 -18 -33 -24 0 -11 54 -31 85 -31 31 0 85 20 85
31 0 12 -62 39 -87 39 -10 -1 -33 -7 -50 -15z"/>
<path d="M146 313 c-3 -4 -6 -17 -6 -30 0 -23 1 -23 115 -23 114 0 115 0 115
23 0 34 -9 38 -41 22 -36 -19 -112 -19 -148 0 -16 8 -31 11 -35 8z"/>
<path d="M117 224 c-16 -17 11 -24 89 -24 l84 0 0 -35 c0 -19 5 -35 10 -35 6
0 10 15 10 34 0 33 2 35 40 38 22 2 40 8 40 13 0 11 -262 20 -273 9z"/>
<path d="M140 136 c0 -55 19 -66 115 -66 96 0 115 11 115 66 0 24 -5 34 -15
34 -9 0 -15 -9 -15 -24 0 -56 -76 -61 -87 -6 -5 29 -8 30 -59 30 l-54 0 0 -34z"/>
<path d="M202 23 c6 -32 108 -29 108 2 0 11 -13 15 -56 15 -47 0 -55 -3 -52
-17z"/>
</symbol>
</defs>
</svg>
