<svg width="80" height="29" viewBox="0 0 80 29" fill="none" xmlns="http://www.w3.org/2000/svg">
<path d="M11.1874 4.39338V16.1519H7.86144V11.5661H3.326V16.1519H0V4.39338H3.326V8.81124H7.86144V4.39338H11.1874Z" fill="#111518"/>
<path d="M23.3603 11.6165C23.3603 11.6389 23.3435 11.9021 23.3099 12.406H16.6915C16.8259 12.8763 17.0835 13.2403 17.4642 13.4979C17.8562 13.7442 18.3433 13.8674 18.9257 13.8674C19.3624 13.8674 19.7376 13.8058 20.0511 13.6826C20.3759 13.5595 20.7006 13.3579 21.0254 13.0779L22.7052 14.8249C21.8205 15.8104 20.5271 16.3031 18.8249 16.3031C17.761 16.3031 16.8259 16.1016 16.0196 15.6984C15.2133 15.2953 14.5862 14.7353 14.1382 14.0186C13.7015 13.3019 13.4831 12.49 13.4831 11.5829C13.4831 10.687 13.6959 9.88631 14.1214 9.1808C14.5582 8.46408 15.1573 7.90415 15.9188 7.501C16.6803 7.09785 17.537 6.89628 18.4889 6.89628C19.396 6.89628 20.2191 7.08665 20.9582 7.46741C21.6973 7.83696 22.2796 8.3801 22.7052 9.09681C23.1419 9.80232 23.3603 10.6422 23.3603 11.6165ZM18.5057 9.164C18.013 9.164 17.5986 9.30398 17.2627 9.58395C16.9379 9.86391 16.7307 10.2447 16.6411 10.7262H20.3703C20.2807 10.2447 20.0679 9.86391 19.732 9.58395C19.4072 9.30398 18.9984 9.164 18.5057 9.164Z" fill="#111518"/>
<path d="M25.5038 3.68787H28.6954V16.1519H25.5038V3.68787Z" fill="#111518"/>
<path d="M31.4414 3.68787H34.6331V16.1519H31.4414V3.68787Z" fill="#111518"/>
<path d="M3.01595 27.0059H1.33616L1.0157 27.7812H0.157715L1.77032 24.1632H2.5973L4.21507 27.7812H3.3364L3.01595 27.0059ZM2.75235 26.3701L2.17864 24.985L1.60492 26.3701H2.75235Z" fill="#111518"/>
<path d="M9.38722 27.0989V28.5306H8.61193V27.7812H6.05864V28.5306H5.28335L5.28852 27.0989H5.43324C5.65032 27.092 5.80366 26.9335 5.89325 26.6234C5.98284 26.3133 6.03797 25.8705 6.05864 25.2951L6.09999 24.1632H8.8807V27.0989H9.38722ZM6.79775 25.3726C6.78052 25.8033 6.74434 26.1651 6.68921 26.458C6.63408 26.7475 6.54966 26.9611 6.43595 27.0989H8.05372V24.8454H6.81326L6.79775 25.3726Z" fill="#111518"/>
<path d="M12.592 27.8432C12.2233 27.8432 11.8891 27.7639 11.5893 27.6054C11.293 27.4435 11.0587 27.2212 10.8864 26.9387C10.7176 26.6527 10.6331 26.3305 10.6331 25.9722C10.6331 25.6138 10.7176 25.2934 10.8864 25.0108C11.0587 24.7248 11.293 24.5026 11.5893 24.3441C11.8891 24.1821 12.2251 24.1011 12.5972 24.1011C12.9108 24.1011 13.1933 24.1563 13.4449 24.2665C13.6998 24.3768 13.9135 24.5353 14.0858 24.742L13.5482 25.2382C13.3036 24.9557 13.0004 24.8144 12.6386 24.8144C12.4146 24.8144 12.2147 24.8644 12.039 24.9643C11.8633 25.0608 11.7254 25.1969 11.6255 25.3726C11.529 25.5483 11.4808 25.7482 11.4808 25.9722C11.4808 26.1961 11.529 26.396 11.6255 26.5717C11.7254 26.7475 11.8633 26.8853 12.039 26.9852C12.2147 27.0817 12.4146 27.1299 12.6386 27.1299C13.0004 27.1299 13.3036 26.9869 13.5482 26.7009L14.0858 27.1971C13.9135 27.4073 13.6998 27.5675 13.4449 27.6778C13.1899 27.7881 12.9056 27.8432 12.592 27.8432Z" fill="#111518"/>
<path d="M16.9625 26.3236H16.3837V27.7812H15.5515V24.1632H16.3837V25.6259H16.9832L17.9342 24.1632H18.8181L17.6345 25.9101L18.8542 27.7812H17.9032L16.9625 26.3236Z" fill="#111518"/>
<path d="M20.1768 24.1632H21.009V26.52L22.7353 24.1632H23.5209V27.7812H22.6939V25.4295L20.9676 27.7812H20.1768V24.1632Z" fill="#111518"/>
<path d="M25.3521 24.1632H26.1842V26.52L27.9106 24.1632H28.6962V27.7812H27.8692V25.4295L26.1429 27.7812H25.3521V24.1632ZM27.0216 23.9306C26.36 23.9306 26.0257 23.667 26.0189 23.1398H26.5926C26.5995 23.3913 26.7425 23.5171 27.0216 23.5171C27.1594 23.5171 27.2645 23.4861 27.3368 23.424C27.4092 23.3586 27.4471 23.2638 27.4506 23.1398H28.0243C28.0208 23.3982 27.9364 23.5946 27.771 23.729C27.6056 23.8634 27.3558 23.9306 27.0216 23.9306Z" fill="#111518"/>
<path d="M35.3714 27.0059H33.6916L33.3711 27.7812H32.5132L34.1258 24.1632H34.9527L36.5705 27.7812H35.6919L35.3714 27.0059ZM35.1078 26.3701L34.5341 24.985L33.9604 26.3701H35.1078Z" fill="#111518"/>
<path d="M41.2989 24.1632V27.7812H40.4616V26.2978H38.818V27.7812H37.9807V24.1632H38.818V25.5897H40.4616V24.1632H41.2989Z" fill="#111518"/>
<path d="M45.6838 24.8454H43.9627L43.9679 27.7812H43.1357V24.1632H45.689L45.6838 24.8454Z" fill="#111518"/>
<path d="M49.9059 24.1632V27.7812H49.0789V24.8454H47.8384L47.8126 25.6C47.7954 26.1134 47.754 26.5304 47.6885 26.8508C47.6231 27.1678 47.5128 27.4125 47.3577 27.5848C47.2061 27.7536 46.9925 27.838 46.7168 27.838C46.6031 27.838 46.4653 27.8191 46.3034 27.7812L46.355 27.0731C46.3998 27.0869 46.4498 27.0938 46.5049 27.0938C46.7048 27.0938 46.8443 26.9766 46.9236 26.7423C47.0028 26.5045 47.0528 26.1341 47.0735 25.631L47.1252 24.1632H49.9059Z" fill="#111518"/>
<path d="M51.7398 24.1632H52.572V26.52L54.2983 24.1632H55.0839V27.7812H54.2569V25.4295L52.5306 27.7812H51.7398V24.1632Z" fill="#111518"/>
<path d="M56.9151 24.1632H57.7472V26.52L59.4736 24.1632H60.2592V27.7812H59.4322V25.4295L57.7059 27.7812H56.9151V24.1632ZM58.5846 23.9306C57.923 23.9306 57.5887 23.667 57.5818 23.1398H58.1556C58.1624 23.3913 58.3054 23.5171 58.5846 23.5171C58.7224 23.5171 58.8275 23.4861 58.8998 23.424C58.9722 23.3586 59.0101 23.2638 59.0135 23.1398H59.5873C59.5838 23.3982 59.4994 23.5946 59.334 23.729C59.1686 23.8634 58.9188 23.9306 58.5846 23.9306Z" fill="#111518"/>
<path d="M63.8012 27.8432C63.4325 27.8432 63.0982 27.7639 62.7985 27.6054C62.5021 27.4435 62.2678 27.2212 62.0955 26.9387C61.9267 26.6527 61.8423 26.3305 61.8423 25.9722C61.8423 25.6138 61.9267 25.2934 62.0955 25.0108C62.2678 24.7248 62.5021 24.5026 62.7985 24.3441C63.0982 24.1821 63.4342 24.1011 63.8063 24.1011C64.1199 24.1011 64.4024 24.1563 64.654 24.2665C64.909 24.3768 65.1226 24.5353 65.2949 24.742L64.7574 25.2382C64.5127 24.9557 64.2095 24.8144 63.8477 24.8144C63.6237 24.8144 63.4239 24.8644 63.2481 24.9643C63.0724 25.0608 62.9346 25.1969 62.8346 25.3726C62.7382 25.5483 62.6899 25.7482 62.6899 25.9722C62.6899 26.1961 62.7382 26.396 62.8346 26.5717C62.9346 26.7475 63.0724 26.8853 63.2481 26.9852C63.4239 27.0817 63.6237 27.1299 63.8477 27.1299C64.2095 27.1299 64.5127 26.9869 64.7574 26.7009L65.2949 27.1971C65.1226 27.4073 64.909 27.5675 64.654 27.6778C64.399 27.7881 64.1147 27.8432 63.8012 27.8432Z" fill="#111518"/>
<path d="M68.1717 26.3236H67.5928V27.7812H66.7606V24.1632H67.5928V25.6259H68.1923L69.1434 24.1632H70.0272L68.8436 25.9101L70.0634 27.7812H69.1124L68.1717 26.3236Z" fill="#111518"/>
<path d="M71.386 24.1632H72.2181V26.52L73.9444 24.1632H74.7301V27.7812H73.9031V25.4295L72.1768 27.7812H71.386V24.1632Z" fill="#111518"/>
<path d="M76.5612 24.1632H77.3934V26.52L79.1197 24.1632H79.9053V27.7812H79.0783V25.4295L77.352 27.7812H76.5612V24.1632ZM78.2307 23.9306C77.5691 23.9306 77.2349 23.667 77.228 23.1398H77.8017C77.8086 23.3913 77.9516 23.5171 78.2307 23.5171C78.3685 23.5171 78.4736 23.4861 78.546 23.424C78.6183 23.3586 78.6562 23.2638 78.6597 23.1398H79.2334C79.23 23.3982 79.1455 23.5946 78.9801 23.729C78.8147 23.8634 78.5649 23.9306 78.2307 23.9306Z" fill="#111518"/>
<path d="M66.2949 13.5817V16.1518H56.8545V4.39319H66.0766V6.96328H60.1469V8.94543H65.3711V11.4315H60.1469V13.5817H66.2949Z" fill="#111518"/>
<path d="M80 4.39319V16.1518H77.2619L72.0713 9.88612V16.1518H68.8125V4.39319H71.5506L76.7412 10.6588V4.39319H80Z" fill="#111518"/>
<g clip-path="url(#clip0)">
<path d="M52.1507 10.0502C51.979 9.66554 51.7421 9.2867 51.3956 8.84914C50.5221 7.75081 50.2556 5.3016 50.2526 5.2781C50.2408 5.16063 50.1578 5.06372 50.0483 5.02848C49.9358 4.99324 49.8143 5.02555 49.7344 5.11365C48.6921 6.27952 49.1303 8.07972 49.3672 8.79921C49.4324 8.99597 49.5034 9.22797 49.5537 9.46291C49.9387 11.363 49.1954 12.2234 49.0207 12.3967C48.8519 12.4437 48.7364 12.4202 48.6298 12.3056C48.2627 11.9033 48.1412 10.5847 48.313 8.86676C48.3486 8.51729 48.3396 8.20306 48.2893 7.90939C47.9271 5.79781 46.599 4.44334 46.2609 3.96833C45.3311 2.59395 45.2363 0.30626 45.2334 0.285704C45.2304 0.177045 45.1682 0.0801342 45.0705 0.0331469C44.9758 -0.0138404 44.8603 -0.00796697 44.7714 0.0537038C43.2198 1.10798 43.353 3.64823 43.5692 5.06666C43.6195 5.39557 43.7172 5.73035 43.886 6.15324C44.4872 7.66564 43.7676 9.61855 43.7617 9.63617C43.7557 9.65379 43.7498 9.66848 43.7469 9.6861C43.6551 10.1677 43.5011 10.4555 43.3293 10.4555C43.3116 10.4555 43.2938 10.4526 43.2731 10.4467C43.0628 10.4027 42.9533 10.1795 42.9503 9.98564C42.9385 7.48063 40.4244 6.6378 40.3978 6.62899C40.2852 6.59375 40.1609 6.62605 40.0839 6.71709C40.0039 6.80813 39.9891 6.9344 40.0424 7.04012C40.072 7.1018 40.1668 7.37197 40.1017 8.3264C40.0454 9.18392 39.8884 10.0326 39.6367 10.8461C39.0386 12.7961 39.1333 14.6433 39.1393 14.7314C39.5992 19.7328 46.7921 20.6091 51.061 17.7914C51.5288 17.483 51.9108 17.1306 52.1921 16.743C53.7675 14.5698 52.8407 11.6184 52.1507 10.0502ZM41.2092 14.8283C41.218 14.9898 41.0937 15.1278 40.9308 15.1366H40.913C40.7561 15.1366 40.6258 15.0162 40.6169 14.8606C40.5903 14.4318 40.5962 13.9825 40.6288 13.495C40.6406 13.3335 40.7828 13.2131 40.9456 13.2219C41.1085 13.2336 41.2329 13.3746 41.221 13.5361C41.1884 14.0001 41.1825 14.423 41.2092 14.8283ZM41.3542 12.2263C41.3365 12.3761 41.2091 12.4848 41.0611 12.4848C41.0492 12.4848 41.0374 12.4848 41.0226 12.4818C40.8627 12.4613 40.7472 12.3174 40.765 12.1559L40.9071 11.0223C40.9278 10.8637 41.0729 10.7492 41.2387 10.7668C41.4016 10.7874 41.5171 10.9342 41.4964 11.0957L41.3542 12.2263Z" fill="#FF6B09"/>
<path d="M50.1474 4.01779C49.9858 3.99297 49.8751 3.84329 49.9 3.68312C49.9185 3.5638 50.0255 2.95297 50.3158 2.64582C50.4276 2.52738 50.6147 2.52121 50.7344 2.63249C50.8537 2.74332 50.8597 2.92918 50.7478 3.04762C50.625 3.17769 50.5203 3.54991 50.4853 3.77263C50.4603 3.9311 50.3113 4.04231 50.1474 4.01779Z" fill="#FF6B09"/>
<path d="M39.3521 5.48058C39.2954 5.26218 39.1546 4.90199 39.0194 4.78441C38.8964 4.67742 38.8841 4.49188 38.9919 4.37001C39.0995 4.24784 39.2865 4.23536 39.4098 4.34276C39.7289 4.62022 39.8956 5.21775 39.9258 5.3346C39.9663 5.49163 39.8709 5.65135 39.7127 5.69179C39.551 5.73211 39.3924 5.635 39.3521 5.48058Z" fill="#FF6B09"/>
</g>
<defs>
<clipPath id="clip0">
<rect width="14.2137" height="19.3823" fill="white" transform="translate(38.8809)"/>
</clipPath>
</defs>
</svg>
