<?xml version="1.0" standalone="no"?>
  <!DOCTYPE svg PUBLIC "-//W3C//DTD SVG 1.1//EN" "http://www.w3.org/Graphics/SVG/1.1/DTD/svg11.dtd" >
  <svg>
  <metadata>
  Created by font-carrier
  </metadata>
  <defs>
  <font id="DMSans-Bold" horiz-adv-x="1246" vert-adv-y="1246" >
    <font-face
      
      font-family="DM Sans"
      
      font-weight="400"
      
      font-stretch="normal"
      
      units-per-em="1000"
      
      ascent="992"
      
      descent="-310"
      
    />
      <missing-glyph />

      

      
      <glyph glyph-name="uni41" unicode="&#x41;" d="M23 0L279 700L423 700L679 0L543 0L487 162L214 162L157 0L23 0M249 262L452 262L350 553L249 262Z"  horiz-adv-x="701" vert-adv-y="1000"  />

      
      <glyph glyph-name="unic1" unicode="&#xc1;" d="M23 0L279 700L423 700L679 0L543 0L487 162L214 162L157 0L23 0M249 262L452 262L350 553L249 262M301 740L301 830L527 952L527 848L301 740Z"  horiz-adv-x="701" vert-adv-y="1000"  />

      
      <glyph glyph-name="uni0102" unicode="&#x0102;" d="M23 0L279 700L423 700L679 0L543 0L487 162L214 162L157 0L23 0M249 262L452 262L350 553L249 262M351 749Q279 749 237.50 790Q196 831 196 901L196 917L264 917Q264 883 283.50 864Q303 845 351 845Q400 845 419.50 864Q439 883 439 917L507 917L507 900Q507 831 465 790Q423 749 351 749Z"  horiz-adv-x="701" vert-adv-y="1000"  />

      
      <glyph glyph-name="unic2" unicode="&#xc2;" d="M23 0L279 700L423 700L679 0L543 0L487 162L214 162L157 0L23 0M249 262L452 262L350 553L249 262M205 747L205 839L351 919L497 839L497 747L351 829L205 747Z"  horiz-adv-x="701" vert-adv-y="1000"  />

      
      <glyph glyph-name="unic4" unicode="&#xc4;" d="M23 0L279 700L423 700L679 0L543 0L487 162L214 162L157 0L23 0M249 262L452 262L350 553L249 262M441 768Q415 768 397 786Q379 804 379 830Q379 856 397 874Q415 892 441 892Q467 892 485 874Q503 856 503 830Q503 804 485 786Q467 768 441 768M261 768Q235 768 217 786Q199 804 199 830Q199 856 217 874Q235 892 261 892Q287 892 305 874Q323 856 323 830Q323 804 305 786Q287 768 261 768Z"  horiz-adv-x="701" vert-adv-y="1000"  />

      
      <glyph glyph-name="unic0" unicode="&#xc0;" d="M23 0L279 700L423 700L679 0L543 0L487 162L214 162L157 0L23 0M249 262L452 262L350 553L249 262M401 740L175 848L175 952L401 830L401 740Z"  horiz-adv-x="701" vert-adv-y="1000"  />

      
      <glyph glyph-name="uni0100" unicode="&#x0100;" d="M23 0L279 700L423 700L679 0L543 0L487 162L214 162L157 0L23 0M249 262L452 262L350 553L249 262M164 783L164 874L538 874L538 783L164 783Z"  horiz-adv-x="701" vert-adv-y="1000"  />

      
      <glyph glyph-name="uni0104" unicode="&#x0104;" d="M23 0L279 700L423 700L679 0L626-25Q588-43 575-59.50Q562-76 562-93Q562-113 576-124Q590-135 614-135Q645-135 684-120L684-196Q665-202 642.50-206Q620-210 597-210Q543-210 503.50-185Q464-160 464-104Q464-73 480.50-45Q497-17 540 10L487 162L214 162L157 0L23 0M249 262L452 262L350 553L249 262Z"  horiz-adv-x="707" vert-adv-y="1000"  />

      
      <glyph glyph-name="unic5" unicode="&#xc5;" d="M23 0L279 700L423 700L679 0L543 0L487 162L214 162L157 0L23 0M249 262L452 262L350 553L249 262M351 751Q305 751 271.50 781Q238 811 238 863Q238 915 271.50 945Q305 975 351 975Q399 975 432.50 945Q466 915 466 863Q466 811 432.50 781Q399 751 351 751M351 809Q374 809 389 824Q404 839 404 863Q404 888 389 902.50Q374 917 351 917Q330 917 315 902.50Q300 888 300 863Q300 839 315 824Q330 809 351 809Z"  horiz-adv-x="701" vert-adv-y="1000"  />

      
      <glyph glyph-name="unic3" unicode="&#xc3;" d="M23 0L279 700L423 700L679 0L543 0L487 162L214 162L157 0L23 0M249 262L452 262L350 553L249 262M414 752Q386 752 366 763.50Q346 775 329 786.50Q312 798 291 798Q255 798 248 753L180 753Q190 817 220.50 847Q251 877 297 877Q325 877 345 865.50Q365 854 382 842.50Q399 831 420 831Q437 831 448.50 842Q460 853 463 876L531 876Q522 812 490.50 782Q459 752 414 752Z"  horiz-adv-x="701" vert-adv-y="1000"  />

      
      <glyph glyph-name="unic6" unicode="&#xc6;" d="M23 0L402 700L885 700L885 599L614 599L614 405L855 405L855 306L614 306L614 101L885 101L885 0L486 0L486 138L237 138L162 0L23 0M486 602L290 237L486 237L486 602Z"  horiz-adv-x="939" vert-adv-y="1000"  />

      
      <glyph glyph-name="uni01FC" unicode="&#x01FC;" d="M23 0L402 700L885 700L885 599L614 599L614 405L855 405L855 306L614 306L614 101L885 101L885 0L486 0L486 138L237 138L162 0L23 0M486 602L290 237L486 237L486 602M527 740L527 830L753 952L753 848L527 740Z"  horiz-adv-x="939" vert-adv-y="1000"  />

      
      <glyph glyph-name="uni42" unicode="&#x42;" d="M68 0L68 700L349 700Q458 700 515.50 649.50Q573 599 573 520Q573 454 537.50 414.50Q502 375 451 361Q511 349 550 301.50Q589 254 589 191Q589 108 529 54Q469 0 359 0L68 0M196 406L330 406Q384 406 413 431Q442 456 442 502Q442 546 413.50 571.50Q385 597 328 597L196 597L196 406M196 104L339 104Q396 104 427.50 130.50Q459 157 459 205Q459 254 426 282Q393 310 337 310L196 310L196 104Z"  horiz-adv-x="631" vert-adv-y="1000"  />

      
      <glyph glyph-name="uni43" unicode="&#x43;" d="M385-12Q279-12 203 33.50Q127 79 86 160.50Q45 242 45 349Q45 456 86 538Q127 620 203 666Q279 712 385 712Q511 712 591.50 649.50Q672 587 692 474L551 474Q538 531 495.50 563.50Q453 596 383 596Q286 596 231 530Q176 464 176 349Q176 234 231 168.50Q286 103 383 103Q453 103 495.50 133.50Q538 164 551 218L692 218Q672 110 591.50 49Q511-12 385-12Z"  horiz-adv-x="737" vert-adv-y="1000"  />

      
      <glyph glyph-name="uni0106" unicode="&#x0106;" d="M385-12Q279-12 203 33.50Q127 79 86 160.50Q45 242 45 349Q45 456 86 538Q127 620 203 666Q279 712 385 712Q511 712 591.50 649.50Q672 587 692 474L551 474Q538 531 495.50 563.50Q453 596 383 596Q286 596 231 530Q176 464 176 349Q176 234 231 168.50Q286 103 383 103Q453 103 495.50 133.50Q538 164 551 218L692 218Q672 110 591.50 49Q511-12 385-12M336 740L336 830L562 952L562 848L336 740Z"  horiz-adv-x="737" vert-adv-y="1000"  />

      
      <glyph glyph-name="uni010C" unicode="&#x010C;" d="M385-12Q279-12 203 33.50Q127 79 86 160.50Q45 242 45 349Q45 456 86 538Q127 620 203 666Q279 712 385 712Q511 712 591.50 649.50Q672 587 692 474L551 474Q538 531 495.50 563.50Q453 596 383 596Q286 596 231 530Q176 464 176 349Q176 234 231 168.50Q286 103 383 103Q453 103 495.50 133.50Q538 164 551 218L692 218Q672 110 591.50 49Q511-12 385-12M386 746L240 826L240 918L386 833L532 918L532 826L386 746Z"  horiz-adv-x="737" vert-adv-y="1000"  />

      
      <glyph glyph-name="unic7" unicode="&#xc7;" d="M385-12Q279-12 203 33.50Q127 79 86 160.50Q45 242 45 349Q45 456 86 538Q127 620 203 666Q279 712 385 712Q511 712 591.50 649.50Q672 587 692 474L551 474Q538 531 495.50 563.50Q453 596 383 596Q286 596 231 530Q176 464 176 349Q176 234 231 168.50Q286 103 383 103Q453 103 495.50 133.50Q538 164 551 218L692 218Q672 110 591.50 49Q511-12 385-12M301-265L301-191L413-191Q466-191 466-155Q466-120 413-120L352-120L352 5L432 5L432-52Q466-51 495.50-62Q525-73 543.50-96.50Q562-120 562-157Q562-211 523-238Q484-265 432-265L301-265Z"  horiz-adv-x="737" vert-adv-y="1000"  />

      
      <glyph glyph-name="uni010A" unicode="&#x010A;" d="M385-12Q279-12 203 33.50Q127 79 86 160.50Q45 242 45 349Q45 456 86 538Q127 620 203 666Q279 712 385 712Q511 712 591.50 649.50Q672 587 692 474L551 474Q538 531 495.50 563.50Q453 596 383 596Q286 596 231 530Q176 464 176 349Q176 234 231 168.50Q286 103 383 103Q453 103 495.50 133.50Q538 164 551 218L692 218Q672 110 591.50 49Q511-12 385-12M386 764Q360 764 342 782Q324 800 324 826Q324 852 342 870Q360 888 386 888Q412 888 430 870Q448 852 448 826Q448 800 430 782Q412 764 386 764Z"  horiz-adv-x="737" vert-adv-y="1000"  />

      
      <glyph glyph-name="uni44" unicode="&#x44;" d="M68 0L68 700L307 700Q430 700 509.50 656.50Q589 613 627.50 534.50Q666 456 666 350Q666 244 627.50 165.50Q589 87 509.50 43.50Q430 0 307 0L68 0M196 110L301 110Q389 110 440 138.50Q491 167 513 220.50Q535 274 535 350Q535 425 513 479Q491 533 440 562Q389 591 301 591L196 591L196 110Z"  horiz-adv-x="711" vert-adv-y="1000"  />

      
      <glyph glyph-name="unid0" unicode="&#xd0;" d="M81 0L81 295L6 295L6 405L81 405L81 700L320 700Q443 700 522.50 656.50Q602 613 640.50 534.50Q679 456 679 350Q679 244 640.50 165.50Q602 87 522.50 43.50Q443 0 320 0L81 0M209 110L314 110Q402 110 453 138.50Q504 167 526 220.50Q548 274 548 350Q548 425 526 479Q504 533 453 562Q402 591 314 591L209 591L209 405L386 405L386 295L209 295L209 110Z"  horiz-adv-x="724" vert-adv-y="1000"  />

      
      <glyph glyph-name="uni010E" unicode="&#x010E;" d="M68 0L68 700L307 700Q430 700 509.50 656.50Q589 613 627.50 534.50Q666 456 666 350Q666 244 627.50 165.50Q589 87 509.50 43.50Q430 0 307 0L68 0M196 110L301 110Q389 110 440 138.50Q491 167 513 220.50Q535 274 535 350Q535 425 513 479Q491 533 440 562Q389 591 301 591L196 591L196 110M291 746L145 826L145 918L291 833L437 918L437 826L291 746Z"  horiz-adv-x="711" vert-adv-y="1000"  />

      
      <glyph glyph-name="uni0110" unicode="&#x0110;" d="M81 0L81 295L6 295L6 405L81 405L81 700L320 700Q443 700 522.50 656.50Q602 613 640.50 534.50Q679 456 679 350Q679 244 640.50 165.50Q602 87 522.50 43.50Q443 0 320 0L81 0M209 110L314 110Q402 110 453 138.50Q504 167 526 220.50Q548 274 548 350Q548 425 526 479Q504 533 453 562Q402 591 314 591L209 591L209 405L386 405L386 295L209 295L209 110Z"  horiz-adv-x="724" vert-adv-y="1000"  />

      
      <glyph glyph-name="uni45" unicode="&#x45;" d="M68 0L68 700L525 700L525 597L196 597L196 405L495 405L495 305L196 305L196 103L525 103L525 0L68 0Z"  horiz-adv-x="578" vert-adv-y="1000"  />

      
      <glyph glyph-name="unic9" unicode="&#xc9;" d="M68 0L68 700L525 700L525 597L196 597L196 405L495 405L495 305L196 305L196 103L525 103L525 0L68 0M249 740L249 830L475 952L475 848L249 740Z"  horiz-adv-x="578" vert-adv-y="1000"  />

      
      <glyph glyph-name="uni0114" unicode="&#x0114;" d="M68 0L68 700L525 700L525 597L196 597L196 405L495 405L495 305L196 305L196 103L525 103L525 0L68 0M299 749Q227 749 185.50 790Q144 831 144 901L144 917L212 917Q212 883 231.50 864Q251 845 299 845Q348 845 367.50 864Q387 883 387 917L455 917L455 900Q455 831 413 790Q371 749 299 749Z"  horiz-adv-x="578" vert-adv-y="1000"  />

      
      <glyph glyph-name="uni011A" unicode="&#x011A;" d="M68 0L68 700L525 700L525 597L196 597L196 405L495 405L495 305L196 305L196 103L525 103L525 0L68 0M299 746L153 826L153 918L299 833L445 918L445 826L299 746Z"  horiz-adv-x="578" vert-adv-y="1000"  />

      
      <glyph glyph-name="unica" unicode="&#xca;" d="M68 0L68 700L525 700L525 597L196 597L196 405L495 405L495 305L196 305L196 103L525 103L525 0L68 0M153 747L153 839L299 919L445 839L445 747L299 829L153 747Z"  horiz-adv-x="578" vert-adv-y="1000"  />

      
      <glyph glyph-name="unicb" unicode="&#xcb;" d="M68 0L68 700L525 700L525 597L196 597L196 405L495 405L495 305L196 305L196 103L525 103L525 0L68 0M389 768Q363 768 345 786Q327 804 327 830Q327 856 345 874Q363 892 389 892Q415 892 433 874Q451 856 451 830Q451 804 433 786Q415 768 389 768M209 768Q183 768 165 786Q147 804 147 830Q147 856 165 874Q183 892 209 892Q235 892 253 874Q271 856 271 830Q271 804 253 786Q235 768 209 768Z"  horiz-adv-x="578" vert-adv-y="1000"  />

      
      <glyph glyph-name="uni0116" unicode="&#x0116;" d="M68 0L68 700L525 700L525 597L196 597L196 405L495 405L495 305L196 305L196 103L525 103L525 0L68 0M299 764Q273 764 255 782Q237 800 237 826Q237 852 255 870Q273 888 299 888Q325 888 343 870Q361 852 361 826Q361 800 343 782Q325 764 299 764Z"  horiz-adv-x="578" vert-adv-y="1000"  />

      
      <glyph glyph-name="unic8" unicode="&#xc8;" d="M68 0L68 700L525 700L525 597L196 597L196 405L495 405L495 305L196 305L196 103L525 103L525 0L68 0M349 740L123 848L123 952L349 830L349 740Z"  horiz-adv-x="578" vert-adv-y="1000"  />

      
      <glyph glyph-name="uni0112" unicode="&#x0112;" d="M68 0L68 700L525 700L525 597L196 597L196 405L495 405L495 305L196 305L196 103L525 103L525 0L68 0M112 783L112 874L486 874L486 783L112 783Z"  horiz-adv-x="578" vert-adv-y="1000"  />

      
      <glyph glyph-name="uni0118" unicode="&#x0118;" d="M68 0L68 700L525 700L525 597L196 597L196 405L495 405L495 305L196 305L196 103L525 103L525 0L68 0M443-210Q389-210 349.50-185Q310-160 310-106Q310-66 340-30Q370 6 450 40L496 60L525 0L473-26Q437-44 422-60Q407-76 407-94Q407-113 421-124Q435-135 459-135Q491-135 530-120L530-196Q511-202 488.50-206Q466-210 443-210Z"  horiz-adv-x="578" vert-adv-y="1000"  />

      
      <glyph glyph-name="uni1EBC" unicode="&#x1EBC;" d="M68 0L68 700L525 700L525 597L196 597L196 405L495 405L495 305L196 305L196 103L525 103L525 0L68 0M362 752Q334 752 314 763.50Q294 775 277 786.50Q260 798 239 798Q203 798 196 753L128 753Q138 817 168.50 847Q199 877 245 877Q273 877 293 865.50Q313 854 330 842.50Q347 831 368 831Q385 831 396.50 842Q408 853 411 876L479 876Q470 812 438.50 782Q407 752 362 752Z"  horiz-adv-x="578" vert-adv-y="1000"  />

      
      <glyph glyph-name="uni46" unicode="&#x46;" d="M68 0L68 700L520 700L520 597L196 597L196 401L458 401L458 300L196 300L196 0L68 0Z"  horiz-adv-x="551" vert-adv-y="1000"  />

      
      <glyph glyph-name="uni47" unicode="&#x47;" d="M374-12Q275-12 201 33Q127 78 86 158.50Q45 239 45 346Q45 454 87.50 536.50Q130 619 208.50 665.50Q287 712 395 712Q518 712 599 653Q680 594 704 490L561 490Q545 539 503 566.50Q461 594 395 594Q290 594 233 527.50Q176 461 176 345Q176 229 232.50 165.50Q289 102 386 102Q481 102 529.50 153.50Q578 205 588 289L411 289L411 385L717 385L717 0L599 0L589 92Q555 42 504 15Q453-12 374-12Z"  horiz-adv-x="773" vert-adv-y="1000"  />

      
      <glyph glyph-name="uni011E" unicode="&#x011E;" d="M374-12Q275-12 201 33Q127 78 86 158.50Q45 239 45 346Q45 454 87.50 536.50Q130 619 208.50 665.50Q287 712 395 712Q518 712 599 653Q680 594 704 490L561 490Q545 539 503 566.50Q461 594 395 594Q290 594 233 527.50Q176 461 176 345Q176 229 232.50 165.50Q289 102 386 102Q481 102 529.50 153.50Q578 205 588 289L411 289L411 385L717 385L717 0L599 0L589 92Q555 42 504 15Q453-12 374-12M394 749Q322 749 280.50 790Q239 831 239 901L239 917L307 917Q307 883 326.50 864Q346 845 394 845Q443 845 462.50 864Q482 883 482 917L550 917L550 900Q550 831 508 790Q466 749 394 749Z"  horiz-adv-x="773" vert-adv-y="1000"  />

      
      <glyph glyph-name="uni0122" unicode="&#x0122;" d="M374-12Q275-12 201 33Q127 78 86 158.50Q45 239 45 346Q45 454 87.50 536.50Q130 619 208.50 665.50Q287 712 395 712Q518 712 599 653Q680 594 704 490L561 490Q545 539 503 566.50Q461 594 395 594Q290 594 233 527.50Q176 461 176 345Q176 229 232.50 165.50Q289 102 386 102Q481 102 529.50 153.50Q578 205 588 289L411 289L411 385L717 385L717 0L599 0L589 92Q555 42 504 15Q453-12 374-12M336-274L336-222Q385-222 385-160L385-145L331-145L331-45L439-45Q447-71 450.50-95.50Q454-120 454-141Q454-205 424-239.50Q394-274 336-274Z"  horiz-adv-x="773" vert-adv-y="1000"  />

      
      <glyph glyph-name="uni0120" unicode="&#x0120;" d="M374-12Q275-12 201 33Q127 78 86 158.50Q45 239 45 346Q45 454 87.50 536.50Q130 619 208.50 665.50Q287 712 395 712Q518 712 599 653Q680 594 704 490L561 490Q545 539 503 566.50Q461 594 395 594Q290 594 233 527.50Q176 461 176 345Q176 229 232.50 165.50Q289 102 386 102Q481 102 529.50 153.50Q578 205 588 289L411 289L411 385L717 385L717 0L599 0L589 92Q555 42 504 15Q453-12 374-12M394 764Q368 764 350 782Q332 800 332 826Q332 852 350 870Q368 888 394 888Q420 888 438 870Q456 852 456 826Q456 800 438 782Q420 764 394 764Z"  horiz-adv-x="773" vert-adv-y="1000"  />

      
      <glyph glyph-name="uni48" unicode="&#x48;" d="M68 0L68 700L196 700L196 409L510 409L510 700L638 700L638 0L510 0L510 305L196 305L196 0L68 0Z"  horiz-adv-x="706" vert-adv-y="1000"  />

      
      <glyph glyph-name="uni49" unicode="&#x49;" d="M68 0L68 700L196 700L196 0L68 0Z"  horiz-adv-x="264" vert-adv-y="1000"  />

      
      <glyph glyph-name="unicd" unicode="&#xcd;" d="M68 0L68 700L196 700L196 0L68 0M82 740L82 830L308 952L308 848L82 740Z"  horiz-adv-x="264" vert-adv-y="1000"  />

      
      <glyph glyph-name="uni012C" unicode="&#x012C;" d="M68 0L68 700L196 700L196 0L68 0M132 749Q60 749 18.50 790Q-23 831-23 901L-23 917L45 917Q45 883 64.50 864Q84 845 132 845Q181 845 200.50 864Q220 883 220 917L288 917L288 900Q288 831 246 790Q204 749 132 749Z"  horiz-adv-x="264" vert-adv-y="1000"  />

      
      <glyph glyph-name="unice" unicode="&#xce;" d="M68 0L68 700L196 700L196 0L68 0M-14 747L-14 839L132 919L278 839L278 747L132 829L-14 747Z"  horiz-adv-x="264" vert-adv-y="1000"  />

      
      <glyph glyph-name="unicf" unicode="&#xcf;" d="M68 0L68 700L196 700L196 0L68 0M222 768Q196 768 178 786Q160 804 160 830Q160 856 178 874Q196 892 222 892Q248 892 266 874Q284 856 284 830Q284 804 266 786Q248 768 222 768M42 768Q16 768-2 786Q-20 804-20 830Q-20 856-2 874Q16 892 42 892Q68 892 86 874Q104 856 104 830Q104 804 86 786Q68 768 42 768Z"  horiz-adv-x="264" vert-adv-y="1000"  />

      
      <glyph glyph-name="uni0130" unicode="&#x0130;" d="M68 0L68 700L196 700L196 0L68 0M132 764Q106 764 88 782Q70 800 70 826Q70 852 88 870Q106 888 132 888Q158 888 176 870Q194 852 194 826Q194 800 176 782Q158 764 132 764Z"  horiz-adv-x="264" vert-adv-y="1000"  />

      
      <glyph glyph-name="unicc" unicode="&#xcc;" d="M68 0L68 700L196 700L196 0L68 0M182 740L-44 848L-44 952L182 830L182 740Z"  horiz-adv-x="264" vert-adv-y="1000"  />

      
      <glyph glyph-name="uni012A" unicode="&#x012A;" d="M68 0L68 700L196 700L196 0L68 0M-55 783L-55 874L319 874L319 783L-55 783Z"  horiz-adv-x="264" vert-adv-y="1000"  />

      
      <glyph glyph-name="uni012E" unicode="&#x012E;" d="M68 0L68 700L196 700L196 0L68 0M114-210Q60-210 20.50-185Q-19-160-19-106Q-19-66 11-30Q41 6 121 40L167 60L196 0L144-26Q108-44 93-60Q78-76 78-94Q78-113 92-124Q106-135 130-135Q162-135 201-120L201-196Q182-202 159.50-206Q137-210 114-210Z"  horiz-adv-x="264" vert-adv-y="1000"  />

      
      <glyph glyph-name="uni0128" unicode="&#x0128;" d="M68 0L68 700L196 700L196 0L68 0M195 752Q167 752 147 763.50Q127 775 110 786.50Q93 798 72 798Q36 798 29 753L-39 753Q-29 817 1.50 847Q32 877 78 877Q106 877 126 865.50Q146 854 163 842.50Q180 831 201 831Q218 831 229.50 842Q241 853 244 876L312 876Q303 812 271.50 782Q240 752 195 752Z"  horiz-adv-x="264" vert-adv-y="1000"  />

      
      <glyph glyph-name="uni4a" unicode="&#x4a;" d="M251-12Q149-12 87.50 45.50Q26 103 26 209L154 209Q155 160 177 131Q199 102 248 102Q294 102 315 129.50Q336 157 336 202L336 700L464 700L464 202Q464 99 406.50 43.50Q349-12 251-12Z"  horiz-adv-x="532" vert-adv-y="1000"  />

      
      <glyph glyph-name="uni4b" unicode="&#x4b;" d="M68 0L68 700L196 700L196 417L455 700L613 700L355 422L620 0L463 0L263 324L196 251L196 0L68 0Z"  horiz-adv-x="640" vert-adv-y="1000"  />

      
      <glyph glyph-name="uni0136" unicode="&#x0136;" d="M68 0L68 700L196 700L196 417L455 700L613 700L355 422L620 0L463 0L263 324L196 251L196 0L68 0M275-274L275-222Q325-222 325-160L325-145L270-145L270-45L379-45Q387-71 390.50-95.50Q394-120 394-141Q394-205 364-239.50Q334-274 275-274Z"  horiz-adv-x="640" vert-adv-y="1000"  />

      
      <glyph glyph-name="uni4c" unicode="&#x4c;" d="M68 0L68 700L196 700L196 100L506 100L506 0L68 0Z"  horiz-adv-x="551" vert-adv-y="1000"  />

      
      <glyph glyph-name="uni0139" unicode="&#x0139;" d="M68 0L68 700L196 700L196 100L506 100L506 0L68 0M91 740L91 830L317 952L317 848L91 740Z"  horiz-adv-x="551" vert-adv-y="1000"  />

      
      <glyph glyph-name="uni013D" unicode="&#x013D;" d="M312 465L312 518Q362 518 362 578L362 597L306 597L306 700L416 700Q424 671 427.50 645Q431 619 431 596Q431 534 401 499.50Q371 465 312 465M68 0L68 700L196 700L196 100L506 100L506 0L68 0Z"  horiz-adv-x="551" vert-adv-y="1000"  />

      
      <glyph glyph-name="uni013B" unicode="&#x013B;" d="M68 0L68 700L196 700L196 100L506 100L506 0L68 0M206-274L206-222Q255-222 255-160L255-145L201-145L201-45L310-45Q318-71 321.50-95.50Q325-120 325-141Q325-205 295-239.50Q265-274 206-274Z"  horiz-adv-x="551" vert-adv-y="1000"  />

      
      <glyph glyph-name="uni013F" unicode="&#x013F;" d="M68 0L68 700L196 700L196 100L506 100L506 0L68 0M376 275Q341 275 318.50 297Q296 319 296 350Q296 382 318.50 404Q341 426 376 426Q411 426 433.50 404Q456 382 456 350Q456 319 433.50 297Q411 275 376 275Z"  horiz-adv-x="551" vert-adv-y="1000"  />

      
      <glyph glyph-name="uni0141" unicode="&#x0141;" d="M92 0L92 293L20 268L20 374L92 399L92 700L220 700L220 441L323 476L323 370L220 335L220 100L530 100L530 0L92 0Z"  horiz-adv-x="576" vert-adv-y="1000"  />

      
      <glyph glyph-name="uni4d" unicode="&#x4d;" d="M68 0L68 700L220 700L443 256L663 700L815 700L815 0L687 0L687 483L492 100L391 100L196 483L196 0L68 0Z"  horiz-adv-x="883" vert-adv-y="1000"  />

      
      <glyph glyph-name="uni4e" unicode="&#x4e;" d="M68 0L68 700L196 700L525 207L525 700L653 700L653 0L525 0L196 492L196 0L68 0Z"  horiz-adv-x="721" vert-adv-y="1000"  />

      
      <glyph glyph-name="uni0143" unicode="&#x0143;" d="M68 0L68 700L196 700L525 207L525 700L653 700L653 0L525 0L196 492L196 0L68 0M311 740L311 830L537 952L537 848L311 740Z"  horiz-adv-x="721" vert-adv-y="1000"  />

      
      <glyph glyph-name="uni0147" unicode="&#x0147;" d="M68 0L68 700L196 700L525 207L525 700L653 700L653 0L525 0L196 492L196 0L68 0M361 746L215 826L215 918L361 833L507 918L507 826L361 746Z"  horiz-adv-x="721" vert-adv-y="1000"  />

      
      <glyph glyph-name="uni0145" unicode="&#x0145;" d="M68 0L68 700L196 700L525 207L525 700L653 700L653 0L525 0L196 492L196 0L68 0M318-274L318-222Q367-222 367-160L367-145L313-145L313-45L421-45Q429-71 433-95.50Q437-120 437-141Q437-205 407-239.50Q377-274 318-274Z"  horiz-adv-x="721" vert-adv-y="1000"  />

      
      <glyph glyph-name="unid1" unicode="&#xd1;" d="M68 0L68 700L196 700L525 207L525 700L653 700L653 0L525 0L196 492L196 0L68 0M424 752Q396 752 376 763.50Q356 775 339 786.50Q322 798 301 798Q265 798 258 753L190 753Q200 817 230.50 847Q261 877 307 877Q335 877 355 865.50Q375 854 392 842.50Q409 831 430 831Q447 831 458.50 842Q470 853 473 876L541 876Q532 812 500.50 782Q469 752 424 752Z"  horiz-adv-x="721" vert-adv-y="1000"  />

      
      <glyph glyph-name="uni4f" unicode="&#x4f;" d="M396-12Q291-12 212.50 34Q134 80 89.50 161.50Q45 243 45 350Q45 457 89.50 538.50Q134 620 212.50 666Q291 712 396 712Q500 712 579 666Q658 620 702 538.50Q746 457 746 350Q746 243 702 161.50Q658 80 579 34Q500-12 396-12M396 103Q496 103 555.50 169Q615 235 615 350Q615 465 555.50 531Q496 597 396 597Q296 597 236 531Q176 465 176 350Q176 235 236 169Q296 103 396 103Z"  horiz-adv-x="791" vert-adv-y="1000"  />

      
      <glyph glyph-name="unid3" unicode="&#xd3;" d="M396-12Q291-12 212.50 34Q134 80 89.50 161.50Q45 243 45 350Q45 457 89.50 538.50Q134 620 212.50 666Q291 712 396 712Q500 712 579 666Q658 620 702 538.50Q746 457 746 350Q746 243 702 161.50Q658 80 579 34Q500-12 396-12M396 103Q496 103 555.50 169Q615 235 615 350Q615 465 555.50 531Q496 597 396 597Q296 597 236 531Q176 465 176 350Q176 235 236 169Q296 103 396 103M346 740L346 830L572 952L572 848L346 740Z"  horiz-adv-x="791" vert-adv-y="1000"  />

      
      <glyph glyph-name="uni014E" unicode="&#x014E;" d="M396-12Q291-12 212.50 34Q134 80 89.50 161.50Q45 243 45 350Q45 457 89.50 538.50Q134 620 212.50 666Q291 712 396 712Q500 712 579 666Q658 620 702 538.50Q746 457 746 350Q746 243 702 161.50Q658 80 579 34Q500-12 396-12M396 103Q496 103 555.50 169Q615 235 615 350Q615 465 555.50 531Q496 597 396 597Q296 597 236 531Q176 465 176 350Q176 235 236 169Q296 103 396 103M396 749Q324 749 282.50 790Q241 831 241 901L241 917L309 917Q309 883 328.50 864Q348 845 396 845Q445 845 464.50 864Q484 883 484 917L552 917L552 900Q552 831 510 790Q468 749 396 749Z"  horiz-adv-x="791" vert-adv-y="1000"  />

      
      <glyph glyph-name="unid4" unicode="&#xd4;" d="M396-12Q291-12 212.50 34Q134 80 89.50 161.50Q45 243 45 350Q45 457 89.50 538.50Q134 620 212.50 666Q291 712 396 712Q500 712 579 666Q658 620 702 538.50Q746 457 746 350Q746 243 702 161.50Q658 80 579 34Q500-12 396-12M396 103Q496 103 555.50 169Q615 235 615 350Q615 465 555.50 531Q496 597 396 597Q296 597 236 531Q176 465 176 350Q176 235 236 169Q296 103 396 103M250 747L250 839L396 919L542 839L542 747L396 829L250 747Z"  horiz-adv-x="791" vert-adv-y="1000"  />

      
      <glyph glyph-name="unid6" unicode="&#xd6;" d="M396-12Q291-12 212.50 34Q134 80 89.50 161.50Q45 243 45 350Q45 457 89.50 538.50Q134 620 212.50 666Q291 712 396 712Q500 712 579 666Q658 620 702 538.50Q746 457 746 350Q746 243 702 161.50Q658 80 579 34Q500-12 396-12M396 103Q496 103 555.50 169Q615 235 615 350Q615 465 555.50 531Q496 597 396 597Q296 597 236 531Q176 465 176 350Q176 235 236 169Q296 103 396 103M486 768Q460 768 442 786Q424 804 424 830Q424 856 442 874Q460 892 486 892Q512 892 530 874Q548 856 548 830Q548 804 530 786Q512 768 486 768M306 768Q280 768 262 786Q244 804 244 830Q244 856 262 874Q280 892 306 892Q332 892 350 874Q368 856 368 830Q368 804 350 786Q332 768 306 768Z"  horiz-adv-x="791" vert-adv-y="1000"  />

      
      <glyph glyph-name="unid2" unicode="&#xd2;" d="M396-12Q291-12 212.50 34Q134 80 89.50 161.50Q45 243 45 350Q45 457 89.50 538.50Q134 620 212.50 666Q291 712 396 712Q500 712 579 666Q658 620 702 538.50Q746 457 746 350Q746 243 702 161.50Q658 80 579 34Q500-12 396-12M396 103Q496 103 555.50 169Q615 235 615 350Q615 465 555.50 531Q496 597 396 597Q296 597 236 531Q176 465 176 350Q176 235 236 169Q296 103 396 103M446 740L220 848L220 952L446 830L446 740Z"  horiz-adv-x="791" vert-adv-y="1000"  />

      
      <glyph glyph-name="uni0150" unicode="&#x0150;" d="M396-12Q291-12 212.50 34Q134 80 89.50 161.50Q45 243 45 350Q45 457 89.50 538.50Q134 620 212.50 666Q291 712 396 712Q500 712 579 666Q658 620 702 538.50Q746 457 746 350Q746 243 702 161.50Q658 80 579 34Q500-12 396-12M396 103Q496 103 555.50 169Q615 235 615 350Q615 465 555.50 531Q496 597 396 597Q296 597 236 531Q176 465 176 350Q176 235 236 169Q296 103 396 103M430 748L511 927L616 927L510 748L430 748M260 748L331 927L435 927L341 748L260 748Z"  horiz-adv-x="791" vert-adv-y="1000"  />

      
      <glyph glyph-name="uni014C" unicode="&#x014C;" d="M396-12Q291-12 212.50 34Q134 80 89.50 161.50Q45 243 45 350Q45 457 89.50 538.50Q134 620 212.50 666Q291 712 396 712Q500 712 579 666Q658 620 702 538.50Q746 457 746 350Q746 243 702 161.50Q658 80 579 34Q500-12 396-12M396 103Q496 103 555.50 169Q615 235 615 350Q615 465 555.50 531Q496 597 396 597Q296 597 236 531Q176 465 176 350Q176 235 236 169Q296 103 396 103M209 783L209 874L583 874L583 783L209 783Z"  horiz-adv-x="791" vert-adv-y="1000"  />

      
      <glyph glyph-name="unid8" unicode="&#xd8;" d="M31 0L124 109Q86 155 65.50 216.50Q45 278 45 350Q45 457 89 538.50Q133 620 212 666Q291 712 395 712Q452 712 502.50 697.50Q553 683 594 656L632 700L754 700L663 595Q703 548 724 486Q745 424 745 350Q745 243 701 161.50Q657 80 578 34Q499-12 395-12Q336-12 285 3Q234 18 193 46L153 0L31 0M175 350Q175 267 208 207L515 564Q464 597 395 597Q295 597 235 531Q175 465 175 350M395 103Q495 103 555 169Q615 235 615 350Q615 436 579 497L271 138Q323 103 395 103Z"  horiz-adv-x="784" vert-adv-y="1000"  />

      
      <glyph glyph-name="unid5" unicode="&#xd5;" d="M396-12Q291-12 212.50 34Q134 80 89.50 161.50Q45 243 45 350Q45 457 89.50 538.50Q134 620 212.50 666Q291 712 396 712Q500 712 579 666Q658 620 702 538.50Q746 457 746 350Q746 243 702 161.50Q658 80 579 34Q500-12 396-12M396 103Q496 103 555.50 169Q615 235 615 350Q615 465 555.50 531Q496 597 396 597Q296 597 236 531Q176 465 176 350Q176 235 236 169Q296 103 396 103M459 752Q431 752 411 763.50Q391 775 374 786.50Q357 798 336 798Q300 798 293 753L225 753Q235 817 265.50 847Q296 877 342 877Q370 877 390 865.50Q410 854 427 842.50Q444 831 465 831Q482 831 493.50 842Q505 853 508 876L576 876Q567 812 535.50 782Q504 752 459 752Z"  horiz-adv-x="791" vert-adv-y="1000"  />

      
      <glyph glyph-name="uni0152" unicode="&#x0152;" d="M389-12Q315-12 252.50 14Q190 40 143.50 88.50Q97 137 71 203.50Q45 270 45 350Q45 430 71 496.50Q97 563 143.50 611Q190 659 252.50 685.50Q315 712 389 712Q457 712 520.50 683.50Q584 655 623 601L623 700L1050 700L1050 597L751 597L751 405L1020 405L1020 305L751 305L751 103L1050 103L1050 0L623 0L623 96Q585 44 521 16Q457-12 389-12M399 103Q461 103 511.50 133Q562 163 592.50 218.50Q623 274 623 350Q623 426 592.50 481.50Q562 537 511.50 567Q461 597 399 597Q337 597 286.50 567Q236 537 206 481.50Q176 426 176 350Q176 274 206 218.50Q236 163 286.50 133Q337 103 399 103Z"  horiz-adv-x="1103" vert-adv-y="1000"  />

      
      <glyph glyph-name="uni50" unicode="&#x50;" d="M68 0L68 700L327 700Q411 700 466 672Q521 644 548 595Q575 546 575 485Q575 427 549 378.50Q523 330 468 300.50Q413 271 327 271L196 271L196 0L68 0M196 375L319 375Q386 375 415.50 404.50Q445 434 445 485Q445 537 415.50 566.50Q386 596 319 596L196 596L196 375Z"  horiz-adv-x="607" vert-adv-y="1000"  />

      
      <glyph glyph-name="unide" unicode="&#xde;" d="M68 0L68 700L196 700L196 565L327 565Q411 565 466 536.50Q521 508 548 459.50Q575 411 575 349Q575 292 549 243.50Q523 195 468 165.50Q413 136 327 136L196 136L196 0L68 0M196 239L319 239Q386 239 415.50 269Q445 299 445 349Q445 401 415.50 430.50Q386 460 319 460L196 460L196 239Z"  horiz-adv-x="607" vert-adv-y="1000"  />

      
      <glyph glyph-name="uni51" unicode="&#x51;" d="M396-12Q291-12 212.50 34Q134 80 89.50 161.50Q45 243 45 350Q45 457 89.50 538.50Q134 620 212.50 666Q291 712 396 712Q500 712 579 666Q658 620 702 538.50Q746 457 746 350Q746 250 707 171.50Q668 93 599 47L761-127L602-127L492-1Q446-12 396-12M396 103Q496 103 555.50 169Q615 235 615 350Q615 465 555.50 531Q496 597 396 597Q296 597 236 531Q176 465 176 350Q176 235 236 169Q296 103 396 103Z"  horiz-adv-x="788" vert-adv-y="1000"  />

      
      <glyph glyph-name="uni52" unicode="&#x52;" d="M68 0L68 700L325 700Q409 700 463.50 671.50Q518 643 545 594.50Q572 546 572 487Q572 423 538.50 370Q505 317 434 293L579 0L432 0L302 276L196 276L196 0L68 0M196 370L317 370Q381 370 411 401Q441 432 441 483Q441 533 411.50 563Q382 593 316 593L196 593L196 370Z"  horiz-adv-x="623" vert-adv-y="1000"  />

      
      <glyph glyph-name="uni0154" unicode="&#x0154;" d="M68 0L68 700L325 700Q409 700 463.50 671.50Q518 643 545 594.50Q572 546 572 487Q572 423 538.50 370Q505 317 434 293L579 0L432 0L302 276L196 276L196 0L68 0M196 370L317 370Q381 370 411 401Q441 432 441 483Q441 533 411.50 563Q382 593 316 593L196 593L196 370M235 740L235 830L461 952L461 848L235 740Z"  horiz-adv-x="623" vert-adv-y="1000"  />

      
      <glyph glyph-name="uni0158" unicode="&#x0158;" d="M68 0L68 700L325 700Q409 700 463.50 671.50Q518 643 545 594.50Q572 546 572 487Q572 423 538.50 370Q505 317 434 293L579 0L432 0L302 276L196 276L196 0L68 0M196 370L317 370Q381 370 411 401Q441 432 441 483Q441 533 411.50 563Q382 593 316 593L196 593L196 370M285 746L139 826L139 918L285 833L431 918L431 826L285 746Z"  horiz-adv-x="623" vert-adv-y="1000"  />

      
      <glyph glyph-name="uni0156" unicode="&#x0156;" d="M68 0L68 700L325 700Q409 700 463.50 671.50Q518 643 545 594.50Q572 546 572 487Q572 423 538.50 370Q505 317 434 293L579 0L432 0L302 276L196 276L196 0L68 0M196 370L317 370Q381 370 411 401Q441 432 441 483Q441 533 411.50 563Q382 593 316 593L196 593L196 370M264-274L264-222Q313-222 313-160L313-145L259-145L259-45L368-45Q376-71 379.50-95.50Q383-120 383-141Q383-205 353-239.50Q323-274 264-274Z"  horiz-adv-x="623" vert-adv-y="1000"  />

      
      <glyph glyph-name="uni53" unicode="&#x53;" d="M307-12Q230-12 171 14.50Q112 41 78 90.50Q44 140 43 211L178 211Q180 162 213.50 128.50Q247 95 306 95Q357 95 387 119.50Q417 144 417 185Q417 228 390.50 252Q364 276 320 291Q276 306 226 323Q145 351 102.50 395Q60 439 60 512Q59 574 89.50 618.50Q120 663 173 687.50Q226 712 295 712Q365 712 418.50 687Q472 662 502.50 617Q533 572 535 510L398 510Q397 547 369.50 575.50Q342 604 293 604Q251 605 222.50 583.50Q194 562 194 521Q194 486 216 465.50Q238 445 276 431Q314 417 363 401Q415 383 458 359Q501 335 527 295.50Q553 256 553 194Q553 139 525 92Q497 45 442 16.50Q387-12 307-12Z"  horiz-adv-x="597" vert-adv-y="1000"  />

      
      <glyph glyph-name="uni015A" unicode="&#x015A;" d="M307-12Q230-12 171 14.50Q112 41 78 90.50Q44 140 43 211L178 211Q180 162 213.50 128.50Q247 95 306 95Q357 95 387 119.50Q417 144 417 185Q417 228 390.50 252Q364 276 320 291Q276 306 226 323Q145 351 102.50 395Q60 439 60 512Q59 574 89.50 618.50Q120 663 173 687.50Q226 712 295 712Q365 712 418.50 687Q472 662 502.50 617Q533 572 535 510L398 510Q397 547 369.50 575.50Q342 604 293 604Q251 605 222.50 583.50Q194 562 194 521Q194 486 216 465.50Q238 445 276 431Q314 417 363 401Q415 383 458 359Q501 335 527 295.50Q553 256 553 194Q553 139 525 92Q497 45 442 16.50Q387-12 307-12M247 740L247 830L473 952L473 848L247 740Z"  horiz-adv-x="597" vert-adv-y="1000"  />

      
      <glyph glyph-name="uni0160" unicode="&#x0160;" d="M307-12Q230-12 171 14.50Q112 41 78 90.50Q44 140 43 211L178 211Q180 162 213.50 128.50Q247 95 306 95Q357 95 387 119.50Q417 144 417 185Q417 228 390.50 252Q364 276 320 291Q276 306 226 323Q145 351 102.50 395Q60 439 60 512Q59 574 89.50 618.50Q120 663 173 687.50Q226 712 295 712Q365 712 418.50 687Q472 662 502.50 617Q533 572 535 510L398 510Q397 547 369.50 575.50Q342 604 293 604Q251 605 222.50 583.50Q194 562 194 521Q194 486 216 465.50Q238 445 276 431Q314 417 363 401Q415 383 458 359Q501 335 527 295.50Q553 256 553 194Q553 139 525 92Q497 45 442 16.50Q387-12 307-12M297 746L151 826L151 918L297 833L443 918L443 826L297 746Z"  horiz-adv-x="597" vert-adv-y="1000"  />

      
      <glyph glyph-name="uni015E" unicode="&#x015E;" d="M307-12Q230-12 171 14.50Q112 41 78 90.50Q44 140 43 211L178 211Q180 162 213.50 128.50Q247 95 306 95Q357 95 387 119.50Q417 144 417 185Q417 228 390.50 252Q364 276 320 291Q276 306 226 323Q145 351 102.50 395Q60 439 60 512Q59 574 89.50 618.50Q120 663 173 687.50Q226 712 295 712Q365 712 418.50 687Q472 662 502.50 617Q533 572 535 510L398 510Q397 547 369.50 575.50Q342 604 293 604Q251 605 222.50 583.50Q194 562 194 521Q194 486 216 465.50Q238 445 276 431Q314 417 363 401Q415 383 458 359Q501 335 527 295.50Q553 256 553 194Q553 139 525 92Q497 45 442 16.50Q387-12 307-12M219-265L219-191L331-191Q384-191 384-155Q384-120 331-120L270-120L270 5L350 5L350-52Q384-51 413.50-62Q443-73 461.50-96.50Q480-120 480-157Q480-211 441-238Q402-265 350-265L219-265Z"  horiz-adv-x="597" vert-adv-y="1000"  />

      
      <glyph glyph-name="uni0218" unicode="&#x0218;" d="M307-12Q230-12 171 14.50Q112 41 78 90.50Q44 140 43 211L178 211Q180 162 213.50 128.50Q247 95 306 95Q357 95 387 119.50Q417 144 417 185Q417 228 390.50 252Q364 276 320 291Q276 306 226 323Q145 351 102.50 395Q60 439 60 512Q59 574 89.50 618.50Q120 663 173 687.50Q226 712 295 712Q365 712 418.50 687Q472 662 502.50 617Q533 572 535 510L398 510Q397 547 369.50 575.50Q342 604 293 604Q251 605 222.50 583.50Q194 562 194 521Q194 486 216 465.50Q238 445 276 431Q314 417 363 401Q415 383 458 359Q501 335 527 295.50Q553 256 553 194Q553 139 525 92Q497 45 442 16.50Q387-12 307-12M261-274L261-222Q311-222 311-160L311-145L256-145L256-45L365-45Q373-71 376.50-95.50Q380-120 380-141Q380-205 350-239.50Q320-274 261-274Z"  horiz-adv-x="597" vert-adv-y="1000"  />

      
      <glyph glyph-name="uni018F" unicode="&#x018F;" d="M380-12Q280-12 205 28Q130 68 87.50 143.50Q45 219 45 326Q45 340 46 355.50Q47 371 49 386L586 386Q583 452 555.50 499Q528 546 483 571Q438 596 382 596Q315 596 264 563.50Q213 531 194 474L53 474Q73 544 118.50 598Q164 652 231 682Q298 712 380 712Q482 712 558.50 666.50Q635 621 678 539.50Q721 458 721 348Q721 240 678 159Q635 78 558.50 33Q482-12 380-12M378 105Q433 105 478.50 127Q524 149 552.50 190.50Q581 232 586 292L177 292Q178 236 203.50 194Q229 152 274 128.50Q319 105 378 105Z"  horiz-adv-x="766" vert-adv-y="1000"  />

      
      <glyph glyph-name="uni54" unicode="&#x54;" d="M231 0L231 597L27 597L27 700L564 700L564 597L359 597L359 0L231 0Z"  horiz-adv-x="591" vert-adv-y="1000"  />

      
      <glyph glyph-name="uni0164" unicode="&#x0164;" d="M231 0L231 597L27 597L27 700L564 700L564 597L359 597L359 0L231 0M294 746L148 826L148 918L294 833L440 918L440 826L294 746Z"  horiz-adv-x="591" vert-adv-y="1000"  />

      
      <glyph glyph-name="uni0162" unicode="&#x0162;" d="M231 0L231 597L27 597L27 700L564 700L564 597L359 597L359 0L231 0M207-265L207-191L319-191Q372-191 372-155Q372-120 319-120L258-120L258 5L338 5L338-52Q372-51 401.50-62Q431-73 449.50-96.50Q468-120 468-157Q468-211 429-238Q390-265 338-265L207-265Z"  horiz-adv-x="591" vert-adv-y="1000"  />

      
      <glyph glyph-name="uni021A" unicode="&#x021A;" d="M231 0L231 597L27 597L27 700L564 700L564 597L359 597L359 0L231 0M239-274L239-222Q289-222 289-160L289-145L235-145L235-45L344-45Q358-96 358-141Q358-205 328-239.50Q298-274 239-274Z"  horiz-adv-x="591" vert-adv-y="1000"  />

      
      <glyph glyph-name="uni55" unicode="&#x55;" d="M338-12Q261-12 199 18.50Q137 49 100.50 111Q64 173 64 268L64 700L192 700L192 267Q192 185 231.50 145Q271 105 341 105Q410 105 450 145Q490 185 490 267L490 700L618 700L618 268Q618 173 580 111Q542 49 478.50 18.50Q415-12 338-12Z"  horiz-adv-x="681" vert-adv-y="1000"  />

      
      <glyph glyph-name="unida" unicode="&#xda;" d="M338-12Q261-12 199 18.50Q137 49 100.50 111Q64 173 64 268L64 700L192 700L192 267Q192 185 231.50 145Q271 105 341 105Q410 105 450 145Q490 185 490 267L490 700L618 700L618 268Q618 173 580 111Q542 49 478.50 18.50Q415-12 338-12M290 740L290 830L516 952L516 848L290 740Z"  horiz-adv-x="681" vert-adv-y="1000"  />

      
      <glyph glyph-name="uni016C" unicode="&#x016C;" d="M338-12Q261-12 199 18.50Q137 49 100.50 111Q64 173 64 268L64 700L192 700L192 267Q192 185 231.50 145Q271 105 341 105Q410 105 450 145Q490 185 490 267L490 700L618 700L618 268Q618 173 580 111Q542 49 478.50 18.50Q415-12 338-12M340 749Q268 749 226.50 790Q185 831 185 901L185 917L253 917Q253 883 272.50 864Q292 845 340 845Q389 845 408.50 864Q428 883 428 917L496 917L496 900Q496 831 454 790Q412 749 340 749Z"  horiz-adv-x="681" vert-adv-y="1000"  />

      
      <glyph glyph-name="unidb" unicode="&#xdb;" d="M338-12Q261-12 199 18.50Q137 49 100.50 111Q64 173 64 268L64 700L192 700L192 267Q192 185 231.50 145Q271 105 341 105Q410 105 450 145Q490 185 490 267L490 700L618 700L618 268Q618 173 580 111Q542 49 478.50 18.50Q415-12 338-12M194 747L194 839L340 919L486 839L486 747L340 829L194 747Z"  horiz-adv-x="681" vert-adv-y="1000"  />

      
      <glyph glyph-name="unidc" unicode="&#xdc;" d="M338-12Q261-12 199 18.50Q137 49 100.50 111Q64 173 64 268L64 700L192 700L192 267Q192 185 231.50 145Q271 105 341 105Q410 105 450 145Q490 185 490 267L490 700L618 700L618 268Q618 173 580 111Q542 49 478.50 18.50Q415-12 338-12M430 768Q404 768 386 786Q368 804 368 830Q368 856 386 874Q404 892 430 892Q456 892 474 874Q492 856 492 830Q492 804 474 786Q456 768 430 768M250 768Q224 768 206 786Q188 804 188 830Q188 856 206 874Q224 892 250 892Q276 892 294 874Q312 856 312 830Q312 804 294 786Q276 768 250 768Z"  horiz-adv-x="681" vert-adv-y="1000"  />

      
      <glyph glyph-name="unid9" unicode="&#xd9;" d="M338-12Q261-12 199 18.50Q137 49 100.50 111Q64 173 64 268L64 700L192 700L192 267Q192 185 231.50 145Q271 105 341 105Q410 105 450 145Q490 185 490 267L490 700L618 700L618 268Q618 173 580 111Q542 49 478.50 18.50Q415-12 338-12M390 740L164 848L164 952L390 830L390 740Z"  horiz-adv-x="681" vert-adv-y="1000"  />

      
      <glyph glyph-name="uni0170" unicode="&#x0170;" d="M338-12Q261-12 199 18.50Q137 49 100.50 111Q64 173 64 268L64 700L192 700L192 267Q192 185 231.50 145Q271 105 341 105Q410 105 450 145Q490 185 490 267L490 700L618 700L618 268Q618 173 580 111Q542 49 478.50 18.50Q415-12 338-12M374 748L455 927L560 927L454 748L374 748M204 748L275 927L379 927L285 748L204 748Z"  horiz-adv-x="681" vert-adv-y="1000"  />

      
      <glyph glyph-name="uni016A" unicode="&#x016A;" d="M338-12Q261-12 199 18.50Q137 49 100.50 111Q64 173 64 268L64 700L192 700L192 267Q192 185 231.50 145Q271 105 341 105Q410 105 450 145Q490 185 490 267L490 700L618 700L618 268Q618 173 580 111Q542 49 478.50 18.50Q415-12 338-12M153 783L153 874L527 874L527 783L153 783Z"  horiz-adv-x="681" vert-adv-y="1000"  />

      
      <glyph glyph-name="uni0172" unicode="&#x0172;" d="M338-12Q261-12 199 18.50Q137 49 100.50 111Q64 173 64 268L64 700L192 700L192 267Q192 185 231.50 145Q271 105 341 105Q410 105 450 145Q490 185 490 267L490 700L618 700L618 268Q618 173 580 111Q542 49 478.50 18.50Q415-12 338-12M334-209Q281-209 241-184Q201-159 201-105Q201-65 231-29Q261 7 341 41L387 61L416 1L364-25Q328-43 313.50-59Q299-75 299-93Q299-112 313-123Q327-134 351-134Q383-134 421-119L421-195Q402-201 380-205Q358-209 334-209Z"  horiz-adv-x="681" vert-adv-y="1000"  />

      
      <glyph glyph-name="uni016E" unicode="&#x016E;" d="M338-12Q261-12 199 18.50Q137 49 100.50 111Q64 173 64 268L64 700L192 700L192 267Q192 185 231.50 145Q271 105 341 105Q410 105 450 145Q490 185 490 267L490 700L618 700L618 268Q618 173 580 111Q542 49 478.50 18.50Q415-12 338-12M340 751Q294 751 260.50 781Q227 811 227 863Q227 915 260.50 945Q294 975 340 975Q388 975 421.50 945Q455 915 455 863Q455 811 421.50 781Q388 751 340 751M340 809Q363 809 378 824Q393 839 393 863Q393 888 378 902.50Q363 917 340 917Q319 917 304 902.50Q289 888 289 863Q289 839 304 824Q319 809 340 809Z"  horiz-adv-x="681" vert-adv-y="1000"  />

      
      <glyph glyph-name="uni0168" unicode="&#x0168;" d="M338-12Q261-12 199 18.50Q137 49 100.50 111Q64 173 64 268L64 700L192 700L192 267Q192 185 231.50 145Q271 105 341 105Q410 105 450 145Q490 185 490 267L490 700L618 700L618 268Q618 173 580 111Q542 49 478.50 18.50Q415-12 338-12M403 752Q375 752 355 763.50Q335 775 318 786.50Q301 798 280 798Q244 798 237 753L169 753Q179 817 209.50 847Q240 877 286 877Q314 877 334 865.50Q354 854 371 842.50Q388 831 409 831Q426 831 437.50 842Q449 853 452 876L520 876Q511 812 479.50 782Q448 752 403 752Z"  horiz-adv-x="681" vert-adv-y="1000"  />

      
      <glyph glyph-name="uni56" unicode="&#x56;" d="M271 0L15 700L152 700L350 131L549 700L684 700L428 0L271 0Z"  horiz-adv-x="699" vert-adv-y="1000"  />

      
      <glyph glyph-name="uni57" unicode="&#x57;" d="M210 0L25 700L162 700L288 143L436 700L577 700L721 143L847 700L985 700L795 0L643 0L504 519L361 0L210 0Z"  horiz-adv-x="1010" vert-adv-y="1000"  />

      
      <glyph glyph-name="uni1E82" unicode="&#x1E82;" d="M210 0L25 700L162 700L288 143L436 700L577 700L721 143L847 700L985 700L795 0L643 0L504 519L361 0L210 0M455 740L455 830L681 952L681 848L455 740Z"  horiz-adv-x="1010" vert-adv-y="1000"  />

      
      <glyph glyph-name="uni0174" unicode="&#x0174;" d="M210 0L25 700L162 700L288 143L436 700L577 700L721 143L847 700L985 700L795 0L643 0L504 519L361 0L210 0M359 747L359 839L505 919L651 839L651 747L505 829L359 747Z"  horiz-adv-x="1010" vert-adv-y="1000"  />

      
      <glyph glyph-name="uni1E84" unicode="&#x1E84;" d="M210 0L25 700L162 700L288 143L436 700L577 700L721 143L847 700L985 700L795 0L643 0L504 519L361 0L210 0M595 768Q569 768 551 786Q533 804 533 830Q533 856 551 874Q569 892 595 892Q621 892 639 874Q657 856 657 830Q657 804 639 786Q621 768 595 768M415 768Q389 768 371 786Q353 804 353 830Q353 856 371 874Q389 892 415 892Q441 892 459 874Q477 856 477 830Q477 804 459 786Q441 768 415 768Z"  horiz-adv-x="1010" vert-adv-y="1000"  />

      
      <glyph glyph-name="uni1E80" unicode="&#x1E80;" d="M210 0L25 700L162 700L288 143L436 700L577 700L721 143L847 700L985 700L795 0L643 0L504 519L361 0L210 0M555 740L329 848L329 952L555 830L555 740Z"  horiz-adv-x="1010" vert-adv-y="1000"  />

      
      <glyph glyph-name="uni58" unicode="&#x58;" d="M34 0L253 354L31 700L178 700L335 456L479 700L623 700L404 348L628 0L481 0L322 247L178 0L34 0Z"  horiz-adv-x="659" vert-adv-y="1000"  />

      
      <glyph glyph-name="uni59" unicode="&#x59;" d="M249 0L249 249L14 700L159 700L314 377L468 700L611 700L377 249L377 0L249 0Z"  horiz-adv-x="625" vert-adv-y="1000"  />

      
      <glyph glyph-name="unidd" unicode="&#xdd;" d="M249 0L249 249L14 700L159 700L314 377L468 700L611 700L377 249L377 0L249 0M264 740L264 830L490 952L490 848L264 740Z"  horiz-adv-x="625" vert-adv-y="1000"  />

      
      <glyph glyph-name="uni0176" unicode="&#x0176;" d="M249 0L249 249L14 700L159 700L314 377L468 700L611 700L377 249L377 0L249 0M167 747L167 839L313 919L459 839L459 747L313 829L167 747Z"  horiz-adv-x="625" vert-adv-y="1000"  />

      
      <glyph glyph-name="uni0178" unicode="&#x0178;" d="M249 0L249 249L14 700L159 700L314 377L468 700L611 700L377 249L377 0L249 0M404 768Q378 768 360 786Q342 804 342 830Q342 856 360 874Q378 892 404 892Q430 892 448 874Q466 856 466 830Q466 804 448 786Q430 768 404 768M224 768Q198 768 180 786Q162 804 162 830Q162 856 180 874Q198 892 224 892Q250 892 268 874Q286 856 286 830Q286 804 268 786Q250 768 224 768Z"  horiz-adv-x="625" vert-adv-y="1000"  />

      
      <glyph glyph-name="uni1EF2" unicode="&#x1EF2;" d="M249 0L249 249L14 700L159 700L314 377L468 700L611 700L377 249L377 0L249 0M364 740L138 848L138 952L364 830L364 740Z"  horiz-adv-x="625" vert-adv-y="1000"  />

      
      <glyph glyph-name="uni1EF8" unicode="&#x1EF8;" d="M249 0L249 249L14 700L159 700L314 377L468 700L611 700L377 249L377 0L249 0M376 752Q348 752 328 763.50Q308 775 291 786.50Q274 798 253 798Q217 798 210 753L142 753Q152 817 182.50 847Q213 877 259 877Q287 877 307 865.50Q327 854 344 842.50Q361 831 382 831Q399 831 410.50 842Q422 853 425 876L493 876Q484 812 452.50 782Q421 752 376 752Z"  horiz-adv-x="625" vert-adv-y="1000"  />

      
      <glyph glyph-name="uni5a" unicode="&#x5a;" d="M47 0L47 98L369 593L50 593L50 700L517 700L517 602L193 107L519 107L519 0L47 0Z"  horiz-adv-x="566" vert-adv-y="1000"  />

      
      <glyph glyph-name="uni0179" unicode="&#x0179;" d="M47 0L47 98L369 593L50 593L50 700L517 700L517 602L193 107L519 107L519 0L47 0M233 740L233 830L459 952L459 848L233 740Z"  horiz-adv-x="566" vert-adv-y="1000"  />

      
      <glyph glyph-name="uni017D" unicode="&#x017D;" d="M47 0L47 98L369 593L50 593L50 700L517 700L517 602L193 107L519 107L519 0L47 0M283 746L137 826L137 918L283 833L429 918L429 826L283 746Z"  horiz-adv-x="566" vert-adv-y="1000"  />

      
      <glyph glyph-name="uni017B" unicode="&#x017B;" d="M47 0L47 98L369 593L50 593L50 700L517 700L517 602L193 107L519 107L519 0L47 0M283 764Q257 764 239 782Q221 800 221 826Q221 852 239 870Q257 888 283 888Q309 888 327 870Q345 852 345 826Q345 800 327 782Q309 764 283 764Z"  horiz-adv-x="566" vert-adv-y="1000"  />

      
      <glyph glyph-name="uni61" unicode="&#x61;" d="M236-12Q172-12 131 8.50Q90 29 70 63Q50 97 50 138Q50 207 104 250Q158 293 266 293L392 293L392 305Q392 356 363 380Q334 404 291 404Q252 404 223 385.50Q194 367 187 331L62 331Q67 385 98.50 425Q130 465 180 486.50Q230 508 292 508Q398 508 459 455Q520 402 520 305L520 0L411 0L399 80Q377 40 337.50 14Q298-12 236-12M265 88Q320 88 350.50 124Q381 160 389 213L280 213Q229 213 207 194.50Q185 176 185 149Q185 120 207 104Q229 88 265 88Z"  horiz-adv-x="577" vert-adv-y="1000"  />

      
      <glyph glyph-name="unie1" unicode="&#xe1;" d="M236-12Q172-12 131 8.50Q90 29 70 63Q50 97 50 138Q50 207 104 250Q158 293 266 293L392 293L392 305Q392 356 363 380Q334 404 291 404Q252 404 223 385.50Q194 367 187 331L62 331Q67 385 98.50 425Q130 465 180 486.50Q230 508 292 508Q398 508 459 455Q520 402 520 305L520 0L411 0L399 80Q377 40 337.50 14Q298-12 236-12M265 88Q320 88 350.50 124Q381 160 389 213L280 213Q229 213 207 194.50Q185 176 185 149Q185 120 207 104Q229 88 265 88M256 536L256 626L482 748L482 644L256 536Z"  horiz-adv-x="577" vert-adv-y="1000"  />

      
      <glyph glyph-name="uni0103" unicode="&#x0103;" d="M236-12Q172-12 131 8.50Q90 29 70 63Q50 97 50 138Q50 207 104 250Q158 293 266 293L392 293L392 305Q392 356 363 380Q334 404 291 404Q252 404 223 385.50Q194 367 187 331L62 331Q67 385 98.50 425Q130 465 180 486.50Q230 508 292 508Q398 508 459 455Q520 402 520 305L520 0L411 0L399 80Q377 40 337.50 14Q298-12 236-12M265 88Q320 88 350.50 124Q381 160 389 213L280 213Q229 213 207 194.50Q185 176 185 149Q185 120 207 104Q229 88 265 88M289 545Q217 545 175.50 586Q134 627 134 697L134 713L202 713Q202 679 221.50 660Q241 641 289 641Q337 641 357 660Q377 679 377 713L445 713L445 696Q445 627 403 586Q361 545 289 545Z"  horiz-adv-x="577" vert-adv-y="1000"  />

      
      <glyph glyph-name="unie2" unicode="&#xe2;" d="M236-12Q172-12 131 8.50Q90 29 70 63Q50 97 50 138Q50 207 104 250Q158 293 266 293L392 293L392 305Q392 356 363 380Q334 404 291 404Q252 404 223 385.50Q194 367 187 331L62 331Q67 385 98.50 425Q130 465 180 486.50Q230 508 292 508Q398 508 459 455Q520 402 520 305L520 0L411 0L399 80Q377 40 337.50 14Q298-12 236-12M265 88Q320 88 350.50 124Q381 160 389 213L280 213Q229 213 207 194.50Q185 176 185 149Q185 120 207 104Q229 88 265 88M144 543L144 635L290 715L436 635L436 543L290 625L144 543Z"  horiz-adv-x="577" vert-adv-y="1000"  />

      
      <glyph glyph-name="unie4" unicode="&#xe4;" d="M236-12Q172-12 131 8.50Q90 29 70 63Q50 97 50 138Q50 207 104 250Q158 293 266 293L392 293L392 305Q392 356 363 380Q334 404 291 404Q252 404 223 385.50Q194 367 187 331L62 331Q67 385 98.50 425Q130 465 180 486.50Q230 508 292 508Q398 508 459 455Q520 402 520 305L520 0L411 0L399 80Q377 40 337.50 14Q298-12 236-12M265 88Q320 88 350.50 124Q381 160 389 213L280 213Q229 213 207 194.50Q185 176 185 149Q185 120 207 104Q229 88 265 88M380 564Q354 564 336 582Q318 600 318 626Q318 652 336 670Q354 688 380 688Q406 688 423.50 670Q441 652 441 626Q441 600 423.50 582Q406 564 380 564M199 564Q173 564 155.50 582Q138 600 138 626Q138 652 155.50 670Q173 688 199 688Q225 688 243 670Q261 652 261 626Q261 600 243 582Q225 564 199 564Z"  horiz-adv-x="577" vert-adv-y="1000"  />

      
      <glyph glyph-name="unie0" unicode="&#xe0;" d="M236-12Q172-12 131 8.50Q90 29 70 63Q50 97 50 138Q50 207 104 250Q158 293 266 293L392 293L392 305Q392 356 363 380Q334 404 291 404Q252 404 223 385.50Q194 367 187 331L62 331Q67 385 98.50 425Q130 465 180 486.50Q230 508 292 508Q398 508 459 455Q520 402 520 305L520 0L411 0L399 80Q377 40 337.50 14Q298-12 236-12M265 88Q320 88 350.50 124Q381 160 389 213L280 213Q229 213 207 194.50Q185 176 185 149Q185 120 207 104Q229 88 265 88M340 536L114 644L114 748L340 626L340 536Z"  horiz-adv-x="577" vert-adv-y="1000"  />

      
      <glyph glyph-name="uni0101" unicode="&#x0101;" d="M236-12Q172-12 131 8.50Q90 29 70 63Q50 97 50 138Q50 207 104 250Q158 293 266 293L392 293L392 305Q392 356 363 380Q334 404 291 404Q252 404 223 385.50Q194 367 187 331L62 331Q67 385 98.50 425Q130 465 180 486.50Q230 508 292 508Q398 508 459 455Q520 402 520 305L520 0L411 0L399 80Q377 40 337.50 14Q298-12 236-12M265 88Q320 88 350.50 124Q381 160 389 213L280 213Q229 213 207 194.50Q185 176 185 149Q185 120 207 104Q229 88 265 88M102 579L102 670L476 670L476 579L102 579Z"  horiz-adv-x="577" vert-adv-y="1000"  />

      
      <glyph glyph-name="uni0105" unicode="&#x0105;" d="M236-12Q172-12 131 8.50Q90 29 70 63Q50 97 50 138Q50 207 104 250Q158 293 266 293L392 293L392 305Q392 356 363 380Q334 404 291 404Q252 404 223 385.50Q194 367 187 331L62 331Q67 385 98.50 425Q130 465 180 486.50Q230 508 292 508Q398 508 459 455Q520 402 520 305L520 0L411 0L399 80Q377 40 337.50 14Q298-12 236-12M265 88Q320 88 350.50 124Q381 160 389 213L280 213Q229 213 207 194.50Q185 176 185 149Q185 120 207 104Q229 88 265 88M438-210Q385-210 345-185Q305-160 305-106Q305-66 335-30Q365 6 445 40L491 60L520 0L468-26Q432-44 417.50-60Q403-76 403-94Q403-113 417-124Q431-135 455-135Q487-135 525-120L525-196Q506-202 484-206Q462-210 438-210Z"  horiz-adv-x="577" vert-adv-y="1000"  />

      
      <glyph glyph-name="unie5" unicode="&#xe5;" d="M236-12Q172-12 131 8.50Q90 29 70 63Q50 97 50 138Q50 207 104 250Q158 293 266 293L392 293L392 305Q392 356 363 380Q334 404 291 404Q252 404 223 385.50Q194 367 187 331L62 331Q67 385 98.50 425Q130 465 180 486.50Q230 508 292 508Q398 508 459 455Q520 402 520 305L520 0L411 0L399 80Q377 40 337.50 14Q298-12 236-12M265 88Q320 88 350.50 124Q381 160 389 213L280 213Q229 213 207 194.50Q185 176 185 149Q185 120 207 104Q229 88 265 88M290 547Q244 547 210.50 577Q177 607 177 659Q177 711 210.50 741Q244 771 290 771Q338 771 371 741Q404 711 404 659Q404 607 371 577Q338 547 290 547M290 605Q312 605 327.50 620Q343 635 343 659Q343 684 327.50 698.50Q312 713 290 713Q269 713 253.50 698.50Q238 684 238 659Q238 635 253.50 620Q269 605 290 605Z"  horiz-adv-x="577" vert-adv-y="1000"  />

      
      <glyph glyph-name="unie3" unicode="&#xe3;" d="M236-12Q172-12 131 8.50Q90 29 70 63Q50 97 50 138Q50 207 104 250Q158 293 266 293L392 293L392 305Q392 356 363 380Q334 404 291 404Q252 404 223 385.50Q194 367 187 331L62 331Q67 385 98.50 425Q130 465 180 486.50Q230 508 292 508Q398 508 459 455Q520 402 520 305L520 0L411 0L399 80Q377 40 337.50 14Q298-12 236-12M265 88Q320 88 350.50 124Q381 160 389 213L280 213Q229 213 207 194.50Q185 176 185 149Q185 120 207 104Q229 88 265 88M348 548Q320 548 300 559.50Q280 571 263 582.50Q246 594 226 594Q189 594 182 549L114 549Q124 613 154.50 643Q185 673 231 673Q259 673 279 661.50Q299 650 316 638.50Q333 627 354 627Q371 627 382.50 638Q394 649 397 672L466 672Q456 608 425 578Q394 548 348 548Z"  horiz-adv-x="577" vert-adv-y="1000"  />

      
      <glyph glyph-name="unie6" unicode="&#xe6;" d="M245-12Q182-12 138.50 8.50Q95 29 72.50 63.50Q50 98 50 139Q50 209 102.50 252.50Q155 296 262 296L395 296L395 305Q395 356 366.50 380Q338 404 297 404Q260 404 232 386Q204 368 197 333L72 333Q77 386 108 425.50Q139 465 188 486.50Q237 508 297 508Q356 508 402 489.50Q448 471 476 436Q509 470 554.50 489Q600 508 652 508Q725 508 780.50 476Q836 444 867 389Q898 334 898 264Q898 254 897.50 242Q897 230 896 216L526 216Q531 157 567 125Q603 93 651 93Q694 93 721.50 114.50Q749 136 762 170L889 170Q876 118 843 77Q810 36 761.50 12Q713-12 652-12Q587-12 533.50 15Q480 42 446 90Q416 46 368 17Q320-12 245-12M528 296L769 296Q765 347 732.50 375.50Q700 404 653 404Q608 404 573 377Q538 350 528 296M263 88Q314 88 347.50 123Q381 158 390 207L390 216L278 216Q229 216 207 198Q185 180 185 152Q185 123 206.50 105.50Q228 88 263 88Z"  horiz-adv-x="941" vert-adv-y="1000"  />

      
      <glyph glyph-name="uni01FD" unicode="&#x01FD;" d="M245-12Q182-12 138.50 8.50Q95 29 72.50 63.50Q50 98 50 139Q50 209 102.50 252.50Q155 296 262 296L395 296L395 305Q395 356 366.50 380Q338 404 297 404Q260 404 232 386Q204 368 197 333L72 333Q77 386 108 425.50Q139 465 188 486.50Q237 508 297 508Q356 508 402 489.50Q448 471 476 436Q509 470 554.50 489Q600 508 652 508Q725 508 780.50 476Q836 444 867 389Q898 334 898 264Q898 254 897.50 242Q897 230 896 216L526 216Q531 157 567 125Q603 93 651 93Q694 93 721.50 114.50Q749 136 762 170L889 170Q876 118 843 77Q810 36 761.50 12Q713-12 652-12Q587-12 533.50 15Q480 42 446 90Q416 46 368 17Q320-12 245-12M528 296L769 296Q765 347 732.50 375.50Q700 404 653 404Q608 404 573 377Q538 350 528 296M263 88Q314 88 347.50 123Q381 158 390 207L390 216L278 216Q229 216 207 198Q185 180 185 152Q185 123 206.50 105.50Q228 88 263 88M446 536L446 626L672 748L672 644L446 536Z"  horiz-adv-x="941" vert-adv-y="1000"  />

      
      <glyph glyph-name="uni62" unicode="&#x62;" d="M359-12Q303-12 261 9Q219 30 193 68L179 0L65 0L65 720L193 720L193 425Q217 458 256.50 483Q296 508 359 508Q429 508 484 474Q539 440 571 381Q603 322 603 247Q603 172 571 113.50Q539 55 484 21.50Q429-12 359-12M332 100Q393 100 433 141Q473 182 473 247Q473 312 433 354Q393 396 332 396Q270 396 230.50 354.50Q191 313 191 248Q191 183 230.50 141.50Q270 100 332 100Z"  horiz-adv-x="652" vert-adv-y="1000"  />

      
      <glyph glyph-name="uni63" unicode="&#x63;" d="M308-12Q232-12 174 21Q116 54 82.50 113Q49 172 49 248Q49 324 82.50 383Q116 442 174 475Q232 508 308 508Q403 508 468 458.50Q533 409 551 322L416 322Q406 358 376.50 378.50Q347 399 307 399Q254 399 217 359Q180 319 180 248Q180 177 217 137Q254 97 307 97Q347 97 376.50 117Q406 137 416 174L551 174Q533 90 468 39Q403-12 308-12Z"  horiz-adv-x="600" vert-adv-y="1000"  />

      
      <glyph glyph-name="uni0107" unicode="&#x0107;" d="M308-12Q232-12 174 21Q116 54 82.50 113Q49 172 49 248Q49 324 82.50 383Q116 442 174 475Q232 508 308 508Q403 508 468 458.50Q533 409 551 322L416 322Q406 358 376.50 378.50Q347 399 307 399Q254 399 217 359Q180 319 180 248Q180 177 217 137Q254 97 307 97Q347 97 376.50 117Q406 137 416 174L551 174Q533 90 468 39Q403-12 308-12M277 536L277 626L503 748L503 644L277 536Z"  horiz-adv-x="600" vert-adv-y="1000"  />

      
      <glyph glyph-name="uni010D" unicode="&#x010D;" d="M308-12Q232-12 174 21Q116 54 82.50 113Q49 172 49 248Q49 324 82.50 383Q116 442 174 475Q232 508 308 508Q403 508 468 458.50Q533 409 551 322L416 322Q406 358 376.50 378.50Q347 399 307 399Q254 399 217 359Q180 319 180 248Q180 177 217 137Q254 97 307 97Q347 97 376.50 117Q406 137 416 174L551 174Q533 90 468 39Q403-12 308-12M311 542L165 622L165 714L311 629L457 714L457 622L311 542Z"  horiz-adv-x="600" vert-adv-y="1000"  />

      
      <glyph glyph-name="unie7" unicode="&#xe7;" d="M308-12Q232-12 174 21Q116 54 82.50 113Q49 172 49 248Q49 324 82.50 383Q116 442 174 475Q232 508 308 508Q403 508 468 458.50Q533 409 551 322L416 322Q406 358 376.50 378.50Q347 399 307 399Q254 399 217 359Q180 319 180 248Q180 177 217 137Q254 97 307 97Q347 97 376.50 117Q406 137 416 174L551 174Q533 90 468 39Q403-12 308-12M218-266L218-192L330-192Q383-192 383-156Q383-121 330-121L269-121L269 4L349 4L349-53Q383-52 412.50-63Q442-74 460.50-97.50Q479-121 479-158Q479-212 440-239Q401-266 349-266L218-266Z"  horiz-adv-x="600" vert-adv-y="1000"  />

      
      <glyph glyph-name="uni010B" unicode="&#x010B;" d="M308-12Q232-12 174 21Q116 54 82.50 113Q49 172 49 248Q49 324 82.50 383Q116 442 174 475Q232 508 308 508Q403 508 468 458.50Q533 409 551 322L416 322Q406 358 376.50 378.50Q347 399 307 399Q254 399 217 359Q180 319 180 248Q180 177 217 137Q254 97 307 97Q347 97 376.50 117Q406 137 416 174L551 174Q533 90 468 39Q403-12 308-12M310 560Q285 560 267 578Q249 596 249 622Q249 648 267 666Q285 684 310 684Q336 684 354 666Q372 648 372 622Q372 596 354 578Q336 560 310 560Z"  horiz-adv-x="600" vert-adv-y="1000"  />

      
      <glyph glyph-name="uni64" unicode="&#x64;" d="M293-12Q223-12 168 22Q113 56 81 115Q49 174 49 249Q49 324 81 382.50Q113 441 168 474.50Q223 508 293 508Q349 508 391 487Q433 466 459 428L459 720L587 720L587 0L473 0L459 71Q435 38 395.50 13Q356-12 293-12M320 100Q382 100 421.50 141.50Q461 183 461 248Q461 313 421.50 354.50Q382 396 320 396Q259 396 219 355Q179 314 179 249Q179 184 219 142Q259 100 320 100Z"  horiz-adv-x="652" vert-adv-y="1000"  />

      
      <glyph glyph-name="unif0" unicode="&#xf0;" d="M319-12Q240-12 179 22.50Q118 57 83.50 115Q49 173 49 246Q49 320 83.50 378Q118 436 176.50 469.50Q235 503 310 503Q350 503 386 491.50Q422 480 454 456Q431 518 390 578L264 537L264 614L341 639Q312 672 279 700L400 700Q417 685 433 669L555 709L555 632L485 609Q541 534 568.50 451Q596 368 596 289Q596 197 559 129.50Q522 62 459 25Q396-12 319-12M323 97Q361 97 393.50 115Q426 133 445.50 166.50Q465 200 465 246Q465 292 445.50 325Q426 358 393.50 376Q361 394 323 394Q285 394 252.50 376Q220 358 200 325Q180 292 180 246Q180 200 200 166.50Q220 133 252.50 115Q285 97 323 97Z"  horiz-adv-x="645" vert-adv-y="1000"  />

      
      <glyph glyph-name="uni010F" unicode="&#x010F;" d="M662 505L662 558Q712 558 712 617L712 637L656 637L656 740L766 740Q774 711 778 685Q782 659 782 636Q782 574 752 539.50Q722 505 662 505M293-12Q223-12 168 22Q113 56 81 115Q49 174 49 249Q49 324 81 382.50Q113 441 168 474.50Q223 508 293 508Q349 508 391 487Q433 466 459 428L459 720L587 720L587 0L473 0L459 71Q435 38 395.50 13Q356-12 293-12M320 100Q382 100 421.50 141.50Q461 183 461 248Q461 313 421.50 354.50Q382 396 320 396Q259 396 219 355Q179 314 179 249Q179 184 219 142Q259 100 320 100Z"  horiz-adv-x="800" vert-adv-y="1000"  />

      
      <glyph glyph-name="uni0111" unicode="&#x0111;" d="M293-12Q223-12 168 22Q113 56 81 115Q49 174 49 249Q49 324 81 382.50Q113 441 168 474.50Q223 508 293 508Q349 508 391 487Q433 466 459 428L459 566L318 566L318 644L459 644L459 720L587 720L587 644L657 644L657 566L587 566L587 0L473 0L459 71Q435 38 395.50 13Q356-12 293-12M320 100Q382 100 421.50 141.50Q461 183 461 248Q461 313 421.50 354.50Q382 396 320 396Q259 396 219 355Q179 314 179 249Q179 184 219 142Q259 100 320 100Z"  horiz-adv-x="683" vert-adv-y="1000"  />

      
      <glyph glyph-name="uni65" unicode="&#x65;" d="M306-12Q231-12 173 20Q115 52 82 110Q49 168 49 244Q49 321 81.50 381Q114 441 171.50 474.50Q229 508 307 508Q380 508 436 476Q492 444 523.50 388.50Q555 333 555 265Q555 254 554.50 242Q554 230 553 217L176 217Q180 159 216.50 126Q253 93 305 93Q344 93 370.50 110.50Q397 128 410 156L540 156Q526 109 493.50 70.50Q461 32 413.50 10Q366-12 306-12M307 404Q260 404 224 377.50Q188 351 178 297L425 297Q422 346 389 375Q356 404 307 404Z"  horiz-adv-x="598" vert-adv-y="1000"  />

      
      <glyph glyph-name="unie9" unicode="&#xe9;" d="M306-12Q231-12 173 20Q115 52 82 110Q49 168 49 244Q49 321 81.50 381Q114 441 171.50 474.50Q229 508 307 508Q380 508 436 476Q492 444 523.50 388.50Q555 333 555 265Q555 254 554.50 242Q554 230 553 217L176 217Q180 159 216.50 126Q253 93 305 93Q344 93 370.50 110.50Q397 128 410 156L540 156Q526 109 493.50 70.50Q461 32 413.50 10Q366-12 306-12M307 404Q260 404 224 377.50Q188 351 178 297L425 297Q422 346 389 375Q356 404 307 404M271 536L271 626L497 748L497 644L271 536Z"  horiz-adv-x="598" vert-adv-y="1000"  />

      
      <glyph glyph-name="uni0115" unicode="&#x0115;" d="M306-12Q231-12 173 20Q115 52 82 110Q49 168 49 244Q49 321 81.50 381Q114 441 171.50 474.50Q229 508 307 508Q380 508 436 476Q492 444 523.50 388.50Q555 333 555 265Q555 254 554.50 242Q554 230 553 217L176 217Q180 159 216.50 126Q253 93 305 93Q344 93 370.50 110.50Q397 128 410 156L540 156Q526 109 493.50 70.50Q461 32 413.50 10Q366-12 306-12M307 404Q260 404 224 377.50Q188 351 178 297L425 297Q422 346 389 375Q356 404 307 404M305 545Q233 545 191.50 586Q150 627 150 697L150 713L218 713Q218 679 237.50 660Q257 641 305 641Q353 641 373 660Q393 679 393 713L461 713L461 696Q461 627 419 586Q377 545 305 545Z"  horiz-adv-x="598" vert-adv-y="1000"  />

      
      <glyph glyph-name="uni011B" unicode="&#x011B;" d="M306-12Q231-12 173 20Q115 52 82 110Q49 168 49 244Q49 321 81.50 381Q114 441 171.50 474.50Q229 508 307 508Q380 508 436 476Q492 444 523.50 388.50Q555 333 555 265Q555 254 554.50 242Q554 230 553 217L176 217Q180 159 216.50 126Q253 93 305 93Q344 93 370.50 110.50Q397 128 410 156L540 156Q526 109 493.50 70.50Q461 32 413.50 10Q366-12 306-12M307 404Q260 404 224 377.50Q188 351 178 297L425 297Q422 346 389 375Q356 404 307 404M305 542L159 622L159 714L305 629L451 714L451 622L305 542Z"  horiz-adv-x="598" vert-adv-y="1000"  />

      
      <glyph glyph-name="uniea" unicode="&#xea;" d="M306-12Q231-12 173 20Q115 52 82 110Q49 168 49 244Q49 321 81.50 381Q114 441 171.50 474.50Q229 508 307 508Q380 508 436 476Q492 444 523.50 388.50Q555 333 555 265Q555 254 554.50 242Q554 230 553 217L176 217Q180 159 216.50 126Q253 93 305 93Q344 93 370.50 110.50Q397 128 410 156L540 156Q526 109 493.50 70.50Q461 32 413.50 10Q366-12 306-12M307 404Q260 404 224 377.50Q188 351 178 297L425 297Q422 346 389 375Q356 404 307 404M159 543L159 635L305 715L451 635L451 543L305 625L159 543Z"  horiz-adv-x="598" vert-adv-y="1000"  />

      
      <glyph glyph-name="unieb" unicode="&#xeb;" d="M306-12Q231-12 173 20Q115 52 82 110Q49 168 49 244Q49 321 81.50 381Q114 441 171.50 474.50Q229 508 307 508Q380 508 436 476Q492 444 523.50 388.50Q555 333 555 265Q555 254 554.50 242Q554 230 553 217L176 217Q180 159 216.50 126Q253 93 305 93Q344 93 370.50 110.50Q397 128 410 156L540 156Q526 109 493.50 70.50Q461 32 413.50 10Q366-12 306-12M307 404Q260 404 224 377.50Q188 351 178 297L425 297Q422 346 389 375Q356 404 307 404M395 564Q369 564 351 582Q333 600 333 626Q333 652 351 670Q369 688 395 688Q421 688 438.50 670Q456 652 456 626Q456 600 438.50 582Q421 564 395 564M214 564Q188 564 170.50 582Q153 600 153 626Q153 652 170.50 670Q188 688 214 688Q240 688 258 670Q276 652 276 626Q276 600 258 582Q240 564 214 564Z"  horiz-adv-x="598" vert-adv-y="1000"  />

      
      <glyph glyph-name="uni0117" unicode="&#x0117;" d="M306-12Q231-12 173 20Q115 52 82 110Q49 168 49 244Q49 321 81.50 381Q114 441 171.50 474.50Q229 508 307 508Q380 508 436 476Q492 444 523.50 388.50Q555 333 555 265Q555 254 554.50 242Q554 230 553 217L176 217Q180 159 216.50 126Q253 93 305 93Q344 93 370.50 110.50Q397 128 410 156L540 156Q526 109 493.50 70.50Q461 32 413.50 10Q366-12 306-12M307 404Q260 404 224 377.50Q188 351 178 297L425 297Q422 346 389 375Q356 404 307 404M304 560Q279 560 261 578Q243 596 243 622Q243 648 261 666Q279 684 304 684Q330 684 348 666Q366 648 366 622Q366 596 348 578Q330 560 304 560Z"  horiz-adv-x="598" vert-adv-y="1000"  />

      
      <glyph glyph-name="unie8" unicode="&#xe8;" d="M306-12Q231-12 173 20Q115 52 82 110Q49 168 49 244Q49 321 81.50 381Q114 441 171.50 474.50Q229 508 307 508Q380 508 436 476Q492 444 523.50 388.50Q555 333 555 265Q555 254 554.50 242Q554 230 553 217L176 217Q180 159 216.50 126Q253 93 305 93Q344 93 370.50 110.50Q397 128 410 156L540 156Q526 109 493.50 70.50Q461 32 413.50 10Q366-12 306-12M307 404Q260 404 224 377.50Q188 351 178 297L425 297Q422 346 389 375Q356 404 307 404M355 536L129 644L129 748L355 626L355 536Z"  horiz-adv-x="598" vert-adv-y="1000"  />

      
      <glyph glyph-name="uni0113" unicode="&#x0113;" d="M306-12Q231-12 173 20Q115 52 82 110Q49 168 49 244Q49 321 81.50 381Q114 441 171.50 474.50Q229 508 307 508Q380 508 436 476Q492 444 523.50 388.50Q555 333 555 265Q555 254 554.50 242Q554 230 553 217L176 217Q180 159 216.50 126Q253 93 305 93Q344 93 370.50 110.50Q397 128 410 156L540 156Q526 109 493.50 70.50Q461 32 413.50 10Q366-12 306-12M307 404Q260 404 224 377.50Q188 351 178 297L425 297Q422 346 389 375Q356 404 307 404M118 579L118 670L492 670L492 579L118 579Z"  horiz-adv-x="598" vert-adv-y="1000"  />

      
      <glyph glyph-name="uni0119" unicode="&#x0119;" d="M306-12Q231-12 173 20Q115 52 82 110Q49 168 49 244Q49 321 81.50 381Q114 441 171.50 474.50Q229 508 307 508Q380 508 436 476Q492 444 523.50 388.50Q555 333 555 265Q555 254 554.50 242Q554 230 553 217L176 217Q180 159 216.50 126Q253 93 305 93Q344 93 370.50 110.50Q397 128 410 156L540 156Q526 109 493.50 70.50Q461 32 413.50 10Q366-12 306-12M307 404Q260 404 224 377.50Q188 351 178 297L425 297Q422 346 389 375Q356 404 307 404M324-199Q271-199 231-174Q191-149 191-95Q191-55 221-19Q251 17 331 51L377 71L406 11L354-15Q318-33 303.50-49Q289-65 289-83Q289-102 303-113Q317-124 341-124Q373-124 411-109L411-185Q392-191 370-195Q348-199 324-199Z"  horiz-adv-x="598" vert-adv-y="1000"  />

      
      <glyph glyph-name="uni1EBD" unicode="&#x1EBD;" d="M306-12Q231-12 173 20Q115 52 82 110Q49 168 49 244Q49 321 81.50 381Q114 441 171.50 474.50Q229 508 307 508Q380 508 436 476Q492 444 523.50 388.50Q555 333 555 265Q555 254 554.50 242Q554 230 553 217L176 217Q180 159 216.50 126Q253 93 305 93Q344 93 370.50 110.50Q397 128 410 156L540 156Q526 109 493.50 70.50Q461 32 413.50 10Q366-12 306-12M307 404Q260 404 224 377.50Q188 351 178 297L425 297Q422 346 389 375Q356 404 307 404M363 548Q335 548 315 559.50Q295 571 278 582.50Q261 594 241 594Q204 594 197 549L129 549Q139 613 169.50 643Q200 673 246 673Q274 673 294 661.50Q314 650 331 638.50Q348 627 369 627Q386 627 397.50 638Q409 649 412 672L481 672Q471 608 440 578Q409 548 363 548Z"  horiz-adv-x="598" vert-adv-y="1000"  />

      
      <glyph glyph-name="uni0259" unicode="&#x0259;" d="M292 508Q367 508 425 476Q483 444 516 386Q549 328 549 252Q549 175 516.50 115Q484 55 426.50 21.50Q369-12 291-12Q218-12 162 20Q106 52 74.50 107.50Q43 163 43 231Q43 242 43.50 254Q44 266 45 279L422 279Q418 337 381.50 370Q345 403 293 403Q254 403 227.50 385.50Q201 368 188 340L58 340Q72 387 104.50 425.50Q137 464 184.50 486Q232 508 292 508M291 92Q338 92 374 118.50Q410 145 420 199L173 199Q176 150 209 121Q242 92 291 92Z"  horiz-adv-x="598" vert-adv-y="1000"  />

      
      <glyph glyph-name="uni66" unicode="&#x66;" d="M88 0L88 389L20 389L20 496L88 496L88 554Q88 644 133.50 682Q179 720 257 720L312 720L312 611L277 611Q244 611 230 598Q216 585 216 554L216 496L323 496L323 389L216 389L216 0L88 0Z"  horiz-adv-x="359" vert-adv-y="1000"  />

      
      <glyph glyph-name="uni67" unicode="&#x67;" d="M275 148Q239 148 208 156L171 119Q188 110 217 104Q246 98 311 92Q410 83 455 45Q500 7 500-60Q500-104 476-143.50Q452-183 402-207.50Q352-232 274-232Q168-232 103-192.50Q38-153 38-74Q38-7 103 42Q83 51 68.50 61Q54 71 43 82L43 105L130 197Q72 248 72 328Q72 378 96.50 419Q121 460 166 484Q211 508 275 508Q317 508 353 496L541 496L541 418L456 412Q476 374 476 328Q476 278 452 237Q428 196 382.50 172Q337 148 275 148M275 246Q314 246 339.50 267Q365 288 365 327Q365 366 339.50 387Q314 408 275 408Q234 408 209 387Q184 366 184 327Q184 288 209 267Q234 246 275 246M155-61Q155-98 189.50-116.50Q224-135 274-135Q322-135 352-115.50Q382-96 382-63Q382-36 362.50-18Q343 0 285 4Q244 7 209 13Q180-3 167.50-22Q155-41 155-61Z"  horiz-adv-x="569" vert-adv-y="1000"  />

      
      <glyph glyph-name="uni011F" unicode="&#x011F;" d="M275 148Q239 148 208 156L171 119Q188 110 217 104Q246 98 311 92Q410 83 455 45Q500 7 500-60Q500-104 476-143.50Q452-183 402-207.50Q352-232 274-232Q168-232 103-192.50Q38-153 38-74Q38-7 103 42Q83 51 68.50 61Q54 71 43 82L43 105L130 197Q72 248 72 328Q72 378 96.50 419Q121 460 166 484Q211 508 275 508Q317 508 353 496L541 496L541 418L456 412Q476 374 476 328Q476 278 452 237Q428 196 382.50 172Q337 148 275 148M275 246Q314 246 339.50 267Q365 288 365 327Q365 366 339.50 387Q314 408 275 408Q234 408 209 387Q184 366 184 327Q184 288 209 267Q234 246 275 246M155-61Q155-98 189.50-116.50Q224-135 274-135Q322-135 352-115.50Q382-96 382-63Q382-36 362.50-18Q343 0 285 4Q244 7 209 13Q180-3 167.50-22Q155-41 155-61M275 545Q203 545 161.50 586Q120 627 120 697L120 713L188 713Q188 679 207.50 660Q227 641 275 641Q324 641 343.50 660Q363 679 363 713L431 713L431 696Q431 627 389 586Q347 545 275 545Z"  horiz-adv-x="569" vert-adv-y="1000"  />

      
      <glyph glyph-name="uni0123" unicode="&#x0123;" d="M236 597Q228 625 224 651.50Q220 678 220 701Q220 763 250 797.50Q280 832 340 832L340 779Q290 779 290 720L290 700L345 700L345 597L236 597M275 148Q239 148 208 156L171 119Q188 110 217 104Q246 98 311 92Q410 83 455 45Q500 7 500-60Q500-104 476-143.50Q452-183 402-207.50Q352-232 274-232Q168-232 103-192.50Q38-153 38-74Q38-7 103 42Q83 51 68.50 61Q54 71 43 82L43 105L130 197Q72 248 72 328Q72 378 96.50 419Q121 460 166 484Q211 508 275 508Q317 508 353 496L541 496L541 418L456 412Q476 374 476 328Q476 278 452 237Q428 196 382.50 172Q337 148 275 148M275 246Q314 246 339.50 267Q365 288 365 327Q365 366 339.50 387Q314 408 275 408Q234 408 209 387Q184 366 184 327Q184 288 209 267Q234 246 275 246M155-61Q155-98 189.50-116.50Q224-135 274-135Q322-135 352-115.50Q382-96 382-63Q382-36 362.50-18Q343 0 285 4Q244 7 209 13Q180-3 167.50-22Q155-41 155-61Z"  horiz-adv-x="569" vert-adv-y="1000"  />

      
      <glyph glyph-name="uni0121" unicode="&#x0121;" d="M275 148Q239 148 208 156L171 119Q188 110 217 104Q246 98 311 92Q410 83 455 45Q500 7 500-60Q500-104 476-143.50Q452-183 402-207.50Q352-232 274-232Q168-232 103-192.50Q38-153 38-74Q38-7 103 42Q83 51 68.50 61Q54 71 43 82L43 105L130 197Q72 248 72 328Q72 378 96.50 419Q121 460 166 484Q211 508 275 508Q317 508 353 496L541 496L541 418L456 412Q476 374 476 328Q476 278 452 237Q428 196 382.50 172Q337 148 275 148M275 246Q314 246 339.50 267Q365 288 365 327Q365 366 339.50 387Q314 408 275 408Q234 408 209 387Q184 366 184 327Q184 288 209 267Q234 246 275 246M155-61Q155-98 189.50-116.50Q224-135 274-135Q322-135 352-115.50Q382-96 382-63Q382-36 362.50-18Q343 0 285 4Q244 7 209 13Q180-3 167.50-22Q155-41 155-61M275 560Q249 560 231 578Q213 596 213 622Q213 648 231 666Q249 684 275 684Q301 684 319 666Q337 648 337 622Q337 596 319 578Q301 560 275 560Z"  horiz-adv-x="569" vert-adv-y="1000"  />

      
      <glyph glyph-name="uni68" unicode="&#x68;" d="M65 0L65 720L193 720L193 420Q218 461 260.50 484.50Q303 508 358 508Q450 508 500.50 450Q551 392 551 280L551 0L424 0L424 268Q424 332 398.50 366Q373 400 318 400Q264 400 228.50 362Q193 324 193 256L193 0L65 0Z"  horiz-adv-x="608" vert-adv-y="1000"  />

      
      <glyph glyph-name="uni69" unicode="&#x69;" d="M134 573Q99 573 76.50 594Q54 615 54 647Q54 679 76.50 699.50Q99 720 134 720Q169 720 191.50 699.50Q214 679 214 647Q214 615 191.50 594Q169 573 134 573M70 0L70 496L198 496L198 0L70 0Z"  horiz-adv-x="267" vert-adv-y="1000"  />

      
      <glyph glyph-name="uni0131" unicode="&#x0131;" d="M65 0L65 496L193 496L193 0L65 0Z"  horiz-adv-x="259" vert-adv-y="1000"  />

      
      <glyph glyph-name="unied" unicode="&#xed;" d="M65 0L65 496L193 496L193 0L65 0M96 536L96 626L322 748L322 644L96 536Z"  horiz-adv-x="259" vert-adv-y="1000"  />

      
      <glyph glyph-name="uni012D" unicode="&#x012D;" d="M65 0L65 496L193 496L193 0L65 0M130 545Q58 545 16.50 586Q-25 627-25 697L-25 713L43 713Q43 679 62.50 660Q82 641 130 641Q178 641 198 660Q218 679 218 713L286 713L286 696Q286 627 244 586Q202 545 130 545Z"  horiz-adv-x="259" vert-adv-y="1000"  />

      
      <glyph glyph-name="uniee" unicode="&#xee;" d="M65 0L65 496L193 496L193 0L65 0M-16 543L-16 635L130 715L276 635L276 543L130 625L-16 543Z"  horiz-adv-x="259" vert-adv-y="1000"  />

      
      <glyph glyph-name="unief" unicode="&#xef;" d="M65 0L65 496L193 496L193 0L65 0M220 564Q194 564 176 582Q158 600 158 626Q158 652 176 670Q194 688 220 688Q246 688 263.50 670Q281 652 281 626Q281 600 263.50 582Q246 564 220 564M39 564Q13 564-4.50 582Q-22 600-22 626Q-22 652-4.50 670Q13 688 39 688Q65 688 83 670Q101 652 101 626Q101 600 83 582Q65 564 39 564Z"  horiz-adv-x="259" vert-adv-y="1000"  />

      
      <glyph glyph-name="uniec" unicode="&#xec;" d="M65 0L65 496L193 496L193 0L65 0M180 536L-46 644L-46 748L180 626L180 536Z"  horiz-adv-x="259" vert-adv-y="1000"  />

      
      <glyph glyph-name="uni012B" unicode="&#x012B;" d="M65 0L65 496L193 496L193 0L65 0M-57 579L-57 670L317 670L317 579L-57 579Z"  horiz-adv-x="259" vert-adv-y="1000"  />

      
      <glyph glyph-name="uni012F" unicode="&#x012F;" d="M134 573Q99 573 76.50 594Q54 615 54 647Q54 679 76.50 699.50Q99 720 134 720Q169 720 191.50 699.50Q214 679 214 647Q214 615 191.50 594Q169 573 134 573M70 0L70 496L198 496L198 0L70 0M116-210Q63-210 23-185Q-17-160-17-106Q-17-66 13-30Q43 6 123 40L169 60L198 0L146-26Q110-44 95.50-60Q81-76 81-94Q81-113 95-124Q109-135 133-135Q165-135 203-120L203-196Q184-202 162-206Q140-210 116-210Z"  horiz-adv-x="267" vert-adv-y="1000"  />

      
      <glyph glyph-name="uni0129" unicode="&#x0129;" d="M65 0L65 496L193 496L193 0L65 0M188 548Q160 548 140 559.50Q120 571 103 582.50Q86 594 66 594Q29 594 22 549L-46 549Q-36 613-5.50 643Q25 673 71 673Q99 673 119 661.50Q139 650 156 638.50Q173 627 194 627Q211 627 222.50 638Q234 649 237 672L306 672Q296 608 265 578Q234 548 188 548Z"  horiz-adv-x="259" vert-adv-y="1000"  />

      
      <glyph glyph-name="uni6a" unicode="&#x6a;" d="M136 573Q101 573 78.50 594Q56 615 56 647Q56 679 78.50 699.50Q101 720 136 720Q171 720 193.50 699.50Q216 679 216 647Q216 615 193.50 594Q171 573 136 573M-29-220L-29-111L10-111Q43-111 57-98Q71-85 71-54L71 496L199 496L199-54Q199-144 153.50-182Q108-220 30-220L-29-220Z"  horiz-adv-x="268" vert-adv-y="1000"  />

      
      <glyph glyph-name="uni6b" unicode="&#x6b;" d="M65 0L65 720L193 720L193 295L369 496L521 496L318 270L554 0L394 0L193 249L193 0L65 0Z"  horiz-adv-x="568" vert-adv-y="1000"  />

      
      <glyph glyph-name="uni0137" unicode="&#x0137;" d="M65 0L65 720L193 720L193 295L369 496L521 496L318 270L554 0L394 0L193 249L193 0L65 0M230-274L230-222Q280-222 280-160L280-145L226-145L226-45L335-45Q349-96 349-141Q349-205 319-239.50Q289-274 230-274Z"  horiz-adv-x="568" vert-adv-y="1000"  />

      
      <glyph glyph-name="uni6c" unicode="&#x6c;" d="M65 0L65 720L193 720L193 0L65 0Z"  horiz-adv-x="259" vert-adv-y="1000"  />

      
      <glyph glyph-name="uni013A" unicode="&#x013A;" d="M65 0L65 720L193 720L193 0L65 0M96 760L96 850L322 972L322 868L96 760Z"  horiz-adv-x="259" vert-adv-y="1000"  />

      
      <glyph glyph-name="uni013E" unicode="&#x013E;" d="M270 505L270 558Q320 558 320 617L320 637L264 637L264 740L374 740Q382 711 385 685Q388 659 388 636Q388 574 358.50 539.50Q329 505 270 505M65 0L65 720L193 720L193 0L65 0Z"  horiz-adv-x="407" vert-adv-y="1000"  />

      
      <glyph glyph-name="uni013C" unicode="&#x013C;" d="M65 0L65 720L193 720L193 0L65 0M79-274L79-222Q129-222 129-160L129-145L74-145L74-45L183-45Q191-71 194.50-95.50Q198-120 198-141Q198-205 167.50-239.50Q137-274 79-274Z"  horiz-adv-x="267" vert-adv-y="1000"  />

      
      <glyph glyph-name="uni0140" unicode="&#x0140;" d="M70 0L70 720L198 720L198 0L70 0M302 304Q276 304 258 321.50Q240 339 240 365Q240 391 258 409.50Q276 428 302 428Q328 428 346 409.50Q364 391 364 365Q364 339 346 321.50Q328 304 302 304Z"  horiz-adv-x="394" vert-adv-y="1000"  />

      
      <glyph glyph-name="uni0142" unicode="&#x0142;" d="M80 0L80 317L11 293L11 400L80 424L80 720L208 720L208 468L278 493L278 386L208 362L208 0L80 0Z"  horiz-adv-x="289" vert-adv-y="1000"  />

      
      <glyph glyph-name="uni6d" unicode="&#x6d;" d="M65 0L65 496L178 496L189 429Q213 465 252.50 486.50Q292 508 344 508Q459 508 507 419Q534 460 579.50 484Q625 508 679 508Q776 508 828 450Q880 392 880 280L880 0L752 0L752 268Q752 332 727.50 366Q703 400 652 400Q600 400 568.50 362Q537 324 537 256L537 0L409 0L409 268Q409 332 384 366Q359 400 307 400Q256 400 224.50 362Q193 324 193 256L193 0L65 0Z"  horiz-adv-x="937" vert-adv-y="1000"  />

      
      <glyph glyph-name="uni6e" unicode="&#x6e;" d="M65 0L65 496L178 496L188 412Q211 456 254.50 482Q298 508 357 508Q449 508 500 450Q551 392 551 280L551 0L423 0L423 268Q423 332 397 366Q371 400 316 400Q262 400 227.50 362Q193 324 193 256L193 0L65 0Z"  horiz-adv-x="608" vert-adv-y="1000"  />

      
      <glyph glyph-name="uni0144" unicode="&#x0144;" d="M65 0L65 496L178 496L188 412Q211 456 254.50 482Q298 508 357 508Q449 508 500 450Q551 392 551 280L551 0L423 0L423 268Q423 332 397 366Q371 400 316 400Q262 400 227.50 362Q193 324 193 256L193 0L65 0M294 536L294 626L520 748L520 644L294 536Z"  horiz-adv-x="608" vert-adv-y="1000"  />

      
      <glyph glyph-name="uni0148" unicode="&#x0148;" d="M65 0L65 496L178 496L188 412Q211 456 254.50 482Q298 508 357 508Q449 508 500 450Q551 392 551 280L551 0L423 0L423 268Q423 332 397 366Q371 400 316 400Q262 400 227.50 362Q193 324 193 256L193 0L65 0M328 542L182 622L182 714L328 629L474 714L474 622L328 542Z"  horiz-adv-x="608" vert-adv-y="1000"  />

      
      <glyph glyph-name="uni0146" unicode="&#x0146;" d="M65 0L65 496L178 496L188 412Q211 456 254.50 482Q298 508 357 508Q449 508 500 450Q551 392 551 280L551 0L423 0L423 268Q423 332 397 366Q371 400 316 400Q262 400 227.50 362Q193 324 193 256L193 0L65 0M265-274L265-222Q315-222 315-160L315-145L260-145L260-45L369-45Q377-71 380.50-95.50Q384-120 384-141Q384-205 354-239.50Q324-274 265-274Z"  horiz-adv-x="608" vert-adv-y="1000"  />

      
      <glyph glyph-name="unif1" unicode="&#xf1;" d="M65 0L65 496L178 496L188 412Q211 456 254.50 482Q298 508 357 508Q449 508 500 450Q551 392 551 280L551 0L423 0L423 268Q423 332 397 366Q371 400 316 400Q262 400 227.50 362Q193 324 193 256L193 0L65 0M386 548Q358 548 338 559.50Q318 571 301 582.50Q284 594 264 594Q227 594 220 549L152 549Q162 613 192.50 643Q223 673 269 673Q297 673 317 661.50Q337 650 354 638.50Q371 627 392 627Q409 627 420.50 638Q432 649 435 672L504 672Q494 608 463 578Q432 548 386 548Z"  horiz-adv-x="608" vert-adv-y="1000"  />

      
      <glyph glyph-name="uni6f" unicode="&#x6f;" d="M303-12Q231-12 173.50 21Q116 54 82.50 112.50Q49 171 49 248Q49 325 83 383.50Q117 442 174.50 475Q232 508 304 508Q375 508 432.50 475Q490 442 523.50 383.50Q557 325 557 248Q557 171 523.50 112.50Q490 54 432 21Q374-12 303-12M303 99Q353 99 390 136.50Q427 174 427 248Q427 322 390 359.50Q353 397 304 397Q253 397 216.50 359.50Q180 322 180 248Q180 174 216.50 136.50Q253 99 303 99Z"  horiz-adv-x="606" vert-adv-y="1000"  />

      
      <glyph glyph-name="unif3" unicode="&#xf3;" d="M303-12Q231-12 173.50 21Q116 54 82.50 112.50Q49 171 49 248Q49 325 83 383.50Q117 442 174.50 475Q232 508 304 508Q375 508 432.50 475Q490 442 523.50 383.50Q557 325 557 248Q557 171 523.50 112.50Q490 54 432 21Q374-12 303-12M303 99Q353 99 390 136.50Q427 174 427 248Q427 322 390 359.50Q353 397 304 397Q253 397 216.50 359.50Q180 322 180 248Q180 174 216.50 136.50Q253 99 303 99M270 536L270 626L496 748L496 644L270 536Z"  horiz-adv-x="606" vert-adv-y="1000"  />

      
      <glyph glyph-name="uni014F" unicode="&#x014F;" d="M303-12Q231-12 173.50 21Q116 54 82.50 112.50Q49 171 49 248Q49 325 83 383.50Q117 442 174.50 475Q232 508 304 508Q375 508 432.50 475Q490 442 523.50 383.50Q557 325 557 248Q557 171 523.50 112.50Q490 54 432 21Q374-12 303-12M303 99Q353 99 390 136.50Q427 174 427 248Q427 322 390 359.50Q353 397 304 397Q253 397 216.50 359.50Q180 322 180 248Q180 174 216.50 136.50Q253 99 303 99M304 545Q232 545 190.50 586Q149 627 149 697L149 713L217 713Q217 679 236.50 660Q256 641 304 641Q352 641 372 660Q392 679 392 713L460 713L460 696Q460 627 418 586Q376 545 304 545Z"  horiz-adv-x="606" vert-adv-y="1000"  />

      
      <glyph glyph-name="unif4" unicode="&#xf4;" d="M303-12Q231-12 173.50 21Q116 54 82.50 112.50Q49 171 49 248Q49 325 83 383.50Q117 442 174.50 475Q232 508 304 508Q375 508 432.50 475Q490 442 523.50 383.50Q557 325 557 248Q557 171 523.50 112.50Q490 54 432 21Q374-12 303-12M303 99Q353 99 390 136.50Q427 174 427 248Q427 322 390 359.50Q353 397 304 397Q253 397 216.50 359.50Q180 322 180 248Q180 174 216.50 136.50Q253 99 303 99M158 543L158 635L304 715L450 635L450 543L304 625L158 543Z"  horiz-adv-x="606" vert-adv-y="1000"  />

      
      <glyph glyph-name="unif6" unicode="&#xf6;" d="M303-12Q231-12 173.50 21Q116 54 82.50 112.50Q49 171 49 248Q49 325 83 383.50Q117 442 174.50 475Q232 508 304 508Q375 508 432.50 475Q490 442 523.50 383.50Q557 325 557 248Q557 171 523.50 112.50Q490 54 432 21Q374-12 303-12M303 99Q353 99 390 136.50Q427 174 427 248Q427 322 390 359.50Q353 397 304 397Q253 397 216.50 359.50Q180 322 180 248Q180 174 216.50 136.50Q253 99 303 99M394 564Q368 564 350 582Q332 600 332 626Q332 652 350 670Q368 688 394 688Q420 688 437.50 670Q455 652 455 626Q455 600 437.50 582Q420 564 394 564M213 564Q187 564 169.50 582Q152 600 152 626Q152 652 169.50 670Q187 688 213 688Q239 688 257 670Q275 652 275 626Q275 600 257 582Q239 564 213 564Z"  horiz-adv-x="606" vert-adv-y="1000"  />

      
      <glyph glyph-name="unif2" unicode="&#xf2;" d="M303-12Q231-12 173.50 21Q116 54 82.50 112.50Q49 171 49 248Q49 325 83 383.50Q117 442 174.50 475Q232 508 304 508Q375 508 432.50 475Q490 442 523.50 383.50Q557 325 557 248Q557 171 523.50 112.50Q490 54 432 21Q374-12 303-12M303 99Q353 99 390 136.50Q427 174 427 248Q427 322 390 359.50Q353 397 304 397Q253 397 216.50 359.50Q180 322 180 248Q180 174 216.50 136.50Q253 99 303 99M354 536L128 644L128 748L354 626L354 536Z"  horiz-adv-x="606" vert-adv-y="1000"  />

      
      <glyph glyph-name="uni0151" unicode="&#x0151;" d="M303-12Q231-12 173.50 21Q116 54 82.50 112.50Q49 171 49 248Q49 325 83 383.50Q117 442 174.50 475Q232 508 304 508Q375 508 432.50 475Q490 442 523.50 383.50Q557 325 557 248Q557 171 523.50 112.50Q490 54 432 21Q374-12 303-12M303 99Q353 99 390 136.50Q427 174 427 248Q427 322 390 359.50Q353 397 304 397Q253 397 216.50 359.50Q180 322 180 248Q180 174 216.50 136.50Q253 99 303 99M337 544L418 723L523 723L417 544L337 544M167 544L238 723L342 723L248 544L167 544Z"  horiz-adv-x="606" vert-adv-y="1000"  />

      
      <glyph glyph-name="uni014D" unicode="&#x014D;" d="M303-12Q231-12 173.50 21Q116 54 82.50 112.50Q49 171 49 248Q49 325 83 383.50Q117 442 174.50 475Q232 508 304 508Q375 508 432.50 475Q490 442 523.50 383.50Q557 325 557 248Q557 171 523.50 112.50Q490 54 432 21Q374-12 303-12M303 99Q353 99 390 136.50Q427 174 427 248Q427 322 390 359.50Q353 397 304 397Q253 397 216.50 359.50Q180 322 180 248Q180 174 216.50 136.50Q253 99 303 99M116 579L116 670L490 670L490 579L116 579Z"  horiz-adv-x="606" vert-adv-y="1000"  />

      
      <glyph glyph-name="unif8" unicode="&#xf8;" d="M30 0L97 78Q70 111 55 154Q40 197 40 248Q40 325 73.50 383.50Q107 442 165 475Q223 508 294 508Q372 508 434 469L457 496L558 496L491 418Q518 385 533 342Q548 299 548 248Q548 171 514 112.50Q480 54 422.50 21Q365-12 293-12Q216-12 154 27L131 0L30 0M162 248Q162 203 176 169L364 388Q333 408 294 408Q241 408 201.50 368Q162 328 162 248M293 88Q347 88 386.50 128Q426 168 426 248Q426 292 412 327L224 108Q254 88 293 88Z"  horiz-adv-x="588" vert-adv-y="1000"  />

      
      <glyph glyph-name="unif5" unicode="&#xf5;" d="M303-12Q231-12 173.50 21Q116 54 82.50 112.50Q49 171 49 248Q49 325 83 383.50Q117 442 174.50 475Q232 508 304 508Q375 508 432.50 475Q490 442 523.50 383.50Q557 325 557 248Q557 171 523.50 112.50Q490 54 432 21Q374-12 303-12M303 99Q353 99 390 136.50Q427 174 427 248Q427 322 390 359.50Q353 397 304 397Q253 397 216.50 359.50Q180 322 180 248Q180 174 216.50 136.50Q253 99 303 99M362 548Q334 548 314 559.50Q294 571 277 582.50Q260 594 240 594Q203 594 196 549L128 549Q138 613 168.50 643Q199 673 245 673Q273 673 293 661.50Q313 650 330 638.50Q347 627 368 627Q385 627 396.50 638Q408 649 411 672L480 672Q470 608 439 578Q408 548 362 548Z"  horiz-adv-x="606" vert-adv-y="1000"  />

      
      <glyph glyph-name="uni0153" unicode="&#x0153;" d="M303-12Q231-12 173.50 21Q116 54 82.50 112.50Q49 171 49 248Q49 325 83 383.50Q117 442 174.50 475Q232 508 304 508Q363 508 410 484.50Q457 461 488 418Q520 460 570.50 484Q621 508 684 508Q758 508 813.50 476Q869 444 900.50 388.50Q932 333 932 265Q932 254 931.50 242Q931 230 930 217L553 217Q558 158 594.50 125.50Q631 93 683 93Q726 93 754.50 114.50Q783 136 796 170L923 170Q910 118 877 77Q844 36 795 12Q746-12 684-12Q621-12 570.50 11.50Q520 35 487 77Q456 35 409 11.50Q362-12 303-12M557 297L803 297Q800 346 766.50 375Q733 404 684 404Q637 404 601 377Q565 350 557 297M303 99Q353 99 390 136.50Q427 174 427 248Q427 322 390 359.50Q353 397 304 397Q253 397 216.50 359.50Q180 322 180 248Q180 174 216.50 136.50Q253 99 303 99Z"  horiz-adv-x="975" vert-adv-y="1000"  />

      
      <glyph glyph-name="uni70" unicode="&#x70;" d="M65-220L65 496L179 496L193 425Q217 458 256.50 483Q296 508 359 508Q429 508 484 474Q539 440 571 381Q603 322 603 247Q603 172 571 113.50Q539 55 484 21.50Q429-12 359-12Q303-12 261 9Q219 30 193 68L193-220L65-220M332 100Q393 100 433 141Q473 182 473 247Q473 312 433 354Q393 396 332 396Q270 396 230.50 354.50Q191 313 191 248Q191 183 230.50 141.50Q270 100 332 100Z"  horiz-adv-x="652" vert-adv-y="1000"  />

      
      <glyph glyph-name="unife" unicode="&#xfe;" d="M65-220L65 720L193 720L193 425Q217 458 256.50 483Q296 508 359 508Q429 508 484 474Q539 440 571 381Q603 322 603 247Q603 172 571 113.50Q539 55 484 21.50Q429-12 359-12Q303-12 261 9Q219 30 193 68L193-220L65-220M332 100Q393 100 433 141Q473 182 473 247Q473 312 433 354Q393 396 332 396Q270 396 230.50 354.50Q191 313 191 248Q191 183 230.50 141.50Q270 100 332 100Z"  horiz-adv-x="652" vert-adv-y="1000"  />

      
      <glyph glyph-name="uni71" unicode="&#x71;" d="M459-220L459 71Q435 38 395.50 13Q356-12 293-12Q223-12 168 22Q113 56 81 115Q49 174 49 249Q49 324 81 382.50Q113 441 168 474.50Q223 508 293 508Q349 508 391 487Q433 466 459 428L473 496L587 496L587-220L459-220M320 100Q382 100 421.50 141.50Q461 183 461 248Q461 313 421.50 354.50Q382 396 320 396Q259 396 219 355Q179 314 179 249Q179 184 219 142Q259 100 320 100Z"  horiz-adv-x="652" vert-adv-y="1000"  />

      
      <glyph glyph-name="uni72" unicode="&#x72;" d="M65 0L65 496L179 496L191 403Q218 451 264.50 479.50Q311 508 374 508L374 373L338 373Q296 373 263 360Q230 347 211.50 315Q193 283 193 226L193 0L65 0Z"  horiz-adv-x="396" vert-adv-y="1000"  />

      
      <glyph glyph-name="uni0155" unicode="&#x0155;" d="M65 0L65 496L179 496L191 403Q218 451 264.50 479.50Q311 508 374 508L374 373L338 373Q296 373 263 360Q230 347 211.50 315Q193 283 193 226L193 0L65 0M189 536L189 626L415 748L415 644L189 536Z"  horiz-adv-x="396" vert-adv-y="1000"  />

      
      <glyph glyph-name="uni0159" unicode="&#x0159;" d="M65 0L65 496L179 496L191 403Q218 451 264.50 479.50Q311 508 374 508L374 373L338 373Q296 373 263 360Q230 347 211.50 315Q193 283 193 226L193 0L65 0M239 542L93 622L93 714L239 629L385 714L385 622L239 542Z"  horiz-adv-x="396" vert-adv-y="1000"  />

      
      <glyph glyph-name="uni0157" unicode="&#x0157;" d="M65 0L65 496L179 496L191 403Q218 451 264.50 479.50Q311 508 374 508L374 373L338 373Q296 373 263 360Q230 347 211.50 315Q193 283 193 226L193 0L65 0M81-274L81-222Q131-222 131-160L131-145L76-145L76-45L185-45Q193-71 196-95.50Q199-120 199-141Q199-205 169.50-239.50Q140-274 81-274Z"  horiz-adv-x="396" vert-adv-y="1000"  />

      
      <glyph glyph-name="uni73" unicode="&#x73;" d="M270-12Q204-12 154 9.50Q104 31 74 69Q44 107 38 157L167 157Q173 128 199.50 107.50Q226 87 268 87Q310 87 329.50 104Q349 121 349 143Q349 175 321 186.50Q293 198 243 209Q211 216 178 226Q145 236 117.50 251.50Q90 267 73 291.50Q56 316 56 352Q56 418 108.50 463Q161 508 256 508Q344 508 396.50 467Q449 426 459 354L338 354Q327 409 255 409Q219 409 199.50 395Q180 381 180 360Q180 338 209 325Q238 312 286 301Q338 289 381.50 274.50Q425 260 451 231.50Q477 203 477 150Q478 104 453 67Q428 30 381 9Q334-12 270-12Z"  horiz-adv-x="525" vert-adv-y="1000"  />

      
      <glyph glyph-name="uni015B" unicode="&#x015B;" d="M270-12Q204-12 154 9.50Q104 31 74 69Q44 107 38 157L167 157Q173 128 199.50 107.50Q226 87 268 87Q310 87 329.50 104Q349 121 349 143Q349 175 321 186.50Q293 198 243 209Q211 216 178 226Q145 236 117.50 251.50Q90 267 73 291.50Q56 316 56 352Q56 418 108.50 463Q161 508 256 508Q344 508 396.50 467Q449 426 459 354L338 354Q327 409 255 409Q219 409 199.50 395Q180 381 180 360Q180 338 209 325Q238 312 286 301Q338 289 381.50 274.50Q425 260 451 231.50Q477 203 477 150Q478 104 453 67Q428 30 381 9Q334-12 270-12M212 536L212 626L438 748L438 644L212 536Z"  horiz-adv-x="525" vert-adv-y="1000"  />

      
      <glyph glyph-name="uni0161" unicode="&#x0161;" d="M270-12Q204-12 154 9.50Q104 31 74 69Q44 107 38 157L167 157Q173 128 199.50 107.50Q226 87 268 87Q310 87 329.50 104Q349 121 349 143Q349 175 321 186.50Q293 198 243 209Q211 216 178 226Q145 236 117.50 251.50Q90 267 73 291.50Q56 316 56 352Q56 418 108.50 463Q161 508 256 508Q344 508 396.50 467Q449 426 459 354L338 354Q327 409 255 409Q219 409 199.50 395Q180 381 180 360Q180 338 209 325Q238 312 286 301Q338 289 381.50 274.50Q425 260 451 231.50Q477 203 477 150Q478 104 453 67Q428 30 381 9Q334-12 270-12M261 542L115 622L115 714L261 629L407 714L407 622L261 542Z"  horiz-adv-x="525" vert-adv-y="1000"  />

      
      <glyph glyph-name="uni015F" unicode="&#x015F;" d="M270-12Q204-12 154 9.50Q104 31 74 69Q44 107 38 157L167 157Q173 128 199.50 107.50Q226 87 268 87Q310 87 329.50 104Q349 121 349 143Q349 175 321 186.50Q293 198 243 209Q211 216 178 226Q145 236 117.50 251.50Q90 267 73 291.50Q56 316 56 352Q56 418 108.50 463Q161 508 256 508Q344 508 396.50 467Q449 426 459 354L338 354Q327 409 255 409Q219 409 199.50 395Q180 381 180 360Q180 338 209 325Q238 312 286 301Q338 289 381.50 274.50Q425 260 451 231.50Q477 203 477 150Q478 104 453 67Q428 30 381 9Q334-12 270-12M176-265L176-191L288-191Q341-191 341-155Q341-120 288-120L227-120L227 5L307 5L307-52Q341-51 370.50-62Q400-73 418.50-96.50Q437-120 437-157Q437-211 398-238Q359-265 307-265L176-265Z"  horiz-adv-x="525" vert-adv-y="1000"  />

      
      <glyph glyph-name="uni0219" unicode="&#x0219;" d="M270-12Q204-12 154 9.50Q104 31 74 69Q44 107 38 157L167 157Q173 128 199.50 107.50Q226 87 268 87Q310 87 329.50 104Q349 121 349 143Q349 175 321 186.50Q293 198 243 209Q211 216 178 226Q145 236 117.50 251.50Q90 267 73 291.50Q56 316 56 352Q56 418 108.50 463Q161 508 256 508Q344 508 396.50 467Q449 426 459 354L338 354Q327 409 255 409Q219 409 199.50 395Q180 381 180 360Q180 338 209 325Q238 312 286 301Q338 289 381.50 274.50Q425 260 451 231.50Q477 203 477 150Q478 104 453 67Q428 30 381 9Q334-12 270-12M221-274L221-222Q270-222 270-160L270-145L216-145L216-45L325-45Q332-71 336-95.50Q340-120 340-141Q340-205 310-239.50Q280-274 221-274Z"  horiz-adv-x="525" vert-adv-y="1000"  />

      
      <glyph glyph-name="unidf" unicode="&#xdf;" d="M474-10Q382-10 324 38.50Q266 87 256 175L377 175Q381 134 406 109.50Q431 85 472 85Q510 85 530.50 102.50Q551 120 551 151Q551 181 531.50 200Q512 219 458 238Q376 266 340 295Q304 324 304 370Q304 398 317 417Q330 436 349 449.50Q368 463 386.50 476Q405 489 418 504.50Q431 520 431 543Q431 581 400.50 603Q370 625 319 625Q254 625 224 591.50Q194 558 194 499L194 0L66 0L66 509Q66 574 96.50 624.50Q127 675 184.50 703.50Q242 732 324 732Q397 732 449.50 708.50Q502 685 530 645Q558 605 558 556Q558 526 545.50 505Q533 484 514 469Q495 454 476.50 442Q458 430 445.50 418Q433 406 433 390Q433 378 440.50 368Q448 358 470.50 347Q493 336 535 321Q610 294 643 255.50Q676 217 676 159Q676 84 621.50 37Q567-10 474-10Z"  horiz-adv-x="707" vert-adv-y="1000"  />

      
      <glyph glyph-name="uni74" unicode="&#x74;" d="M286 0Q208 0 161 38Q114 76 114 173L114 389L29 389L29 496L114 496L129 629L242 629L242 496L376 496L376 389L242 389L242 172Q242 136 257.50 122.50Q273 109 311 109L373 109L373 0L286 0Z"  horiz-adv-x="421" vert-adv-y="1000"  />

      
      <glyph glyph-name="uni0165" unicode="&#x0165;" d="M300 596L300 649Q350 649 350 686L350 704L294 704L294 807L404 807Q412 779 415.50 757Q419 735 419 711Q419 596 300 596M286 0Q208 0 161 38Q114 76 114 173L114 389L29 389L29 496L114 496L129 629L242 629L242 496L376 496L376 389L242 389L242 172Q242 136 257.50 122.50Q273 109 311 109L373 109L373 0L286 0Z"  horiz-adv-x="421" vert-adv-y="1000"  />

      
      <glyph glyph-name="uni0163" unicode="&#x0163;" d="M161-265L161-191L272-191Q326-191 326-155Q326-120 272-120L212-120L212 10Q166 24 140 63Q114 102 114 173L114 389L29 389L29 496L114 496L129 629L242 629L242 496L376 496L376 389L242 389L242 172Q242 136 257.50 122.50Q273 109 311 109L373 109L373 0L292 0L292-52Q326-52 355.50-62.50Q385-73 403-96.50Q421-120 421-157Q421-212 382.50-238.50Q344-265 292-265L161-265Z"  horiz-adv-x="421" vert-adv-y="1000"  />

      
      <glyph glyph-name="uni021B" unicode="&#x021B;" d="M286 0Q208 0 161 38Q114 76 114 173L114 389L29 389L29 496L114 496L129 629L242 629L242 496L376 496L376 389L242 389L242 172Q242 136 257.50 122.50Q273 109 311 109L373 109L373 0L286 0M203-274L203-222Q252-222 252-160L252-145L198-145L198-45L306-45Q314-71 317.50-95.50Q321-120 321-141Q321-205 291-239.50Q261-274 203-274Z"  horiz-adv-x="421" vert-adv-y="1000"  />

      
      <glyph glyph-name="uni75" unicode="&#x75;" d="M543 496L543 0L430 0L420 84Q397 40 353.50 14Q310-12 251-12Q159-12 108 46Q57 104 57 216L57 496L185 496L185 228Q185 164 211 130Q237 96 292 96Q346 96 380.50 134Q415 172 415 240L415 496L543 496Z"  horiz-adv-x="608" vert-adv-y="1000"  />

      
      <glyph glyph-name="unifa" unicode="&#xfa;" d="M543 496L543 0L430 0L420 84Q397 40 353.50 14Q310-12 251-12Q159-12 108 46Q57 104 57 216L57 496L185 496L185 228Q185 164 211 130Q237 96 292 96Q346 96 380.50 134Q415 172 415 240L415 496L543 496M248 536L248 626L474 748L474 644L248 536Z"  horiz-adv-x="608" vert-adv-y="1000"  />

      
      <glyph glyph-name="uni016D" unicode="&#x016D;" d="M543 496L543 0L430 0L420 84Q397 40 353.50 14Q310-12 251-12Q159-12 108 46Q57 104 57 216L57 496L185 496L185 228Q185 164 211 130Q237 96 292 96Q346 96 380.50 134Q415 172 415 240L415 496L543 496M297 545Q225 545 183.50 586Q142 627 142 697L142 713L210 713Q210 679 229.50 660Q249 641 297 641Q346 641 365.50 660Q385 679 385 713L453 713L453 696Q453 627 411 586Q369 545 297 545Z"  horiz-adv-x="608" vert-adv-y="1000"  />

      
      <glyph glyph-name="unifb" unicode="&#xfb;" d="M543 496L543 0L430 0L420 84Q397 40 353.50 14Q310-12 251-12Q159-12 108 46Q57 104 57 216L57 496L185 496L185 228Q185 164 211 130Q237 96 292 96Q346 96 380.50 134Q415 172 415 240L415 496L543 496M152 543L152 635L298 715L444 635L444 543L298 625L152 543Z"  horiz-adv-x="608" vert-adv-y="1000"  />

      
      <glyph glyph-name="unifc" unicode="&#xfc;" d="M543 496L543 0L430 0L420 84Q397 40 353.50 14Q310-12 251-12Q159-12 108 46Q57 104 57 216L57 496L185 496L185 228Q185 164 211 130Q237 96 292 96Q346 96 380.50 134Q415 172 415 240L415 496L543 496M388 564Q362 564 344 582Q326 600 326 626Q326 652 344 670Q362 688 388 688Q414 688 432 670Q450 652 450 626Q450 600 432 582Q414 564 388 564M208 564Q182 564 164 582Q146 600 146 626Q146 652 164 670Q182 688 208 688Q234 688 252 670Q270 652 270 626Q270 600 252 582Q234 564 208 564Z"  horiz-adv-x="608" vert-adv-y="1000"  />

      
      <glyph glyph-name="unif9" unicode="&#xf9;" d="M543 496L543 0L430 0L420 84Q397 40 353.50 14Q310-12 251-12Q159-12 108 46Q57 104 57 216L57 496L185 496L185 228Q185 164 211 130Q237 96 292 96Q346 96 380.50 134Q415 172 415 240L415 496L543 496M348 536L122 644L122 748L348 626L348 536Z"  horiz-adv-x="608" vert-adv-y="1000"  />

      
      <glyph glyph-name="uni0171" unicode="&#x0171;" d="M543 496L543 0L430 0L420 84Q397 40 353.50 14Q310-12 251-12Q159-12 108 46Q57 104 57 216L57 496L185 496L185 228Q185 164 211 130Q237 96 292 96Q346 96 380.50 134Q415 172 415 240L415 496L543 496M331 544L412 723L517 723L411 544L331 544M161 544L232 723L336 723L242 544L161 544Z"  horiz-adv-x="608" vert-adv-y="1000"  />

      
      <glyph glyph-name="uni016B" unicode="&#x016B;" d="M543 496L543 0L430 0L420 84Q397 40 353.50 14Q310-12 251-12Q159-12 108 46Q57 104 57 216L57 496L185 496L185 228Q185 164 211 130Q237 96 292 96Q346 96 380.50 134Q415 172 415 240L415 496L543 496M110 579L110 670L484 670L484 579L110 579Z"  horiz-adv-x="608" vert-adv-y="1000"  />

      
      <glyph glyph-name="uni0173" unicode="&#x0173;" d="M543 496L543 0L430 0L420 84Q397 40 353.50 14Q310-12 251-12Q159-12 108 46Q57 104 57 216L57 496L185 496L185 228Q185 164 211 130Q237 96 292 96Q346 96 380.50 134Q415 172 415 240L415 496L543 496M461-210Q407-210 367.50-185Q328-160 328-106Q328-66 358-30Q388 6 468 40L514 60L543 0L491-26Q455-44 440-60Q425-76 425-94Q425-113 439-124Q453-135 477-135Q509-135 548-120L548-196Q529-202 506.50-206Q484-210 461-210Z"  horiz-adv-x="608" vert-adv-y="1000"  />

      
      <glyph glyph-name="uni016F" unicode="&#x016F;" d="M543 496L543 0L430 0L420 84Q397 40 353.50 14Q310-12 251-12Q159-12 108 46Q57 104 57 216L57 496L185 496L185 228Q185 164 211 130Q237 96 292 96Q346 96 380.50 134Q415 172 415 240L415 496L543 496M297 547Q251 547 217.50 577Q184 607 184 659Q184 711 217.50 741Q251 771 297 771Q345 771 378.50 741Q412 711 412 659Q412 607 378.50 577Q345 547 297 547M297 605Q320 605 335 620Q350 635 350 659Q350 684 335 698.50Q320 713 297 713Q276 713 261 698.50Q246 684 246 659Q246 635 261 620Q276 605 297 605Z"  horiz-adv-x="608" vert-adv-y="1000"  />

      
      <glyph glyph-name="uni0169" unicode="&#x0169;" d="M543 496L543 0L430 0L420 84Q397 40 353.50 14Q310-12 251-12Q159-12 108 46Q57 104 57 216L57 496L185 496L185 228Q185 164 211 130Q237 96 292 96Q346 96 380.50 134Q415 172 415 240L415 496L543 496M361 548Q333 548 313 559.50Q293 571 276 582.50Q259 594 238 594Q202 594 195 549L127 549Q137 613 167.50 643Q198 673 244 673Q272 673 292 661.50Q312 650 329 638.50Q346 627 367 627Q384 627 395.50 638Q407 649 410 672L478 672Q469 608 437.50 578Q406 548 361 548Z"  horiz-adv-x="608" vert-adv-y="1000"  />

      
      <glyph glyph-name="uni76" unicode="&#x76;" d="M199 0L17 496L151 496L277 121L403 496L537 496L354 0L199 0Z"  horiz-adv-x="553" vert-adv-y="1000"  />

      
      <glyph glyph-name="uni77" unicode="&#x77;" d="M162 0L17 496L144 496L230 139L330 496L472 496L572 139L659 496L786 496L640 0L507 0L401 371L295 0L162 0Z"  horiz-adv-x="802" vert-adv-y="1000"  />

      
      <glyph glyph-name="uni1E83" unicode="&#x1E83;" d="M162 0L17 496L144 496L230 139L330 496L472 496L572 139L659 496L786 496L640 0L507 0L401 371L295 0L162 0M351 536L351 626L577 748L577 644L351 536Z"  horiz-adv-x="802" vert-adv-y="1000"  />

      
      <glyph glyph-name="uni0175" unicode="&#x0175;" d="M162 0L17 496L144 496L230 139L330 496L472 496L572 139L659 496L786 496L640 0L507 0L401 371L295 0L162 0M255 543L255 635L401 715L547 635L547 543L401 625L255 543Z"  horiz-adv-x="802" vert-adv-y="1000"  />

      
      <glyph glyph-name="uni1E85" unicode="&#x1E85;" d="M162 0L17 496L144 496L230 139L330 496L472 496L572 139L659 496L786 496L640 0L507 0L401 371L295 0L162 0M491 564Q465 564 447 582Q429 600 429 626Q429 652 447 670Q465 688 491 688Q517 688 535 670Q553 652 553 626Q553 600 535 582Q517 564 491 564M311 564Q285 564 267 582Q249 600 249 626Q249 652 267 670Q285 688 311 688Q337 688 355 670Q373 652 373 626Q373 600 355 582Q337 564 311 564Z"  horiz-adv-x="802" vert-adv-y="1000"  />

      
      <glyph glyph-name="uni1E81" unicode="&#x1E81;" d="M162 0L17 496L144 496L230 139L330 496L472 496L572 139L659 496L786 496L640 0L507 0L401 371L295 0L162 0M451 536L225 644L225 748L451 626L451 536Z"  horiz-adv-x="802" vert-adv-y="1000"  />

      
      <glyph glyph-name="uni78" unicode="&#x78;" d="M18 0L198 248L18 496L155 496L281 320L406 496L544 496L363 248L544 0L406 0L281 176L155 0L18 0Z"  horiz-adv-x="561" vert-adv-y="1000"  />

      
      </font>
</defs>
</svg>
