<?xml version="1.0" standalone="no"?>
<!DOCTYPE svg PUBLIC "-//W3C//DTD SVG 1.1//EN" "http://www.w3.org/Graphics/SVG/1.1/DTD/svg11.dtd" >
<svg>
<metadata>
Created by FontForge 20090914 at Tue Oct 13 09:43:36 2020
 By www-data
Copyright (c) 2011 Rodrigo Fuenzalida (hello@rfuenzalida.com), with Reserved Font Name "Titan One"
</metadata>
<defs>
<font id="TitanOne" horiz-adv-x="680" >
  <font-face 
    font-family="Titan One"
    font-weight="400"
    font-stretch="normal"
    units-per-em="1000"
    panose-1="2 0 0 0 0 0 0 0 0 0"
    ascent="800"
    descent="-200"
    x-height="579.999"
    cap-height="711"
    bbox="-70.001 -175.004 1384 969.998"
    underline-thickness="50"
    underline-position="-50"
    unicode-range="U+0020-U+FB04"
  />
<missing-glyph horiz-adv-x="300" 
 />
    <glyph glyph-name=".notdef" horiz-adv-x="300" 
 />
    <glyph glyph-name="space" unicode=" " horiz-adv-x="225" 
 />
    <glyph glyph-name="exclam" unicode="!" horiz-adv-x="332" 
d="M88 717.5c38.667 4.33301 84 6.50098 136 6.50098s78 -7.66699 78 -23c0 -19.333 -6 -180 -18 -482c-0.666992 -16.667 -12.667 -31.667 -36 -45s-56.333 -20 -99 -20c-58 0 -88.333 15.667 -91 47l-27 499c-0.666992 7.33301 18.333 13.166 57 17.499zM258.5 -61.499
c-21.667 -13 -52 -19.501 -91 -19.501s-68.833 5.83301 -89.5 17.5s-31 35.834 -31 72.501c0 60 40.667 90 122 90s122 -30 122 -90c0 -34 -10.833 -57.5 -32.5 -70.5z" />
    <glyph glyph-name="quotedbl" unicode="&#x22;" horiz-adv-x="522" 
d="M49 762.5c12.667 11.667 38.667 17.5 78 17.5s66.5 -5.33301 81.5 -16s22.5 -35.334 22.5 -74.001c0 -168.667 -33.5 -253 -100.5 -253s-100.5 84.333 -100.5 253c0 36.667 6.33301 60.834 19 72.501zM310 762.5c12.667 11.667 38.667 17.5 78 17.5
s66.5 -5.33301 81.5 -16s22.5 -35.334 22.5 -74.001c0 -168.667 -33.5 -253 -100.5 -253s-100.5 84.333 -100.5 253c0 36.667 6.33301 60.834 19 72.501z" />
    <glyph glyph-name="numbersign" unicode="#" horiz-adv-x="814" 
d="M105 0c-14.667 0 -25.1689 4.5 -31.502 13.5s-9.5 18.5 -9.5 28.5s6.33301 39.333 19 88h-46c-7.33301 0 -13.666 6.16699 -18.999 18.5s-8 30 -8 53s7.33301 46.333 22 70s29 35.5 43 35.5h56l26 96h-62c-7.33301 0 -13.666 6.16699 -18.999 18.5s-8 30 -8 53
s7.33301 46.333 22 70s29 35.5 43 35.5h72c5.33301 21.333 12.333 47 21 77c10 36 61.333 54 154 54c34.667 0 52 -11.667 52 -35c0 -4 -8 -36 -24 -96h105c5.33301 21.333 12.333 47 21 77c10 36 61.333 54 154 54c34.667 0 52 -11.667 52 -35c0 -4 -8 -36 -24 -96h62
c17.333 0 26 -21.667 26 -65c0 -22 -7 -46.167 -21 -72.5s-27.333 -39.5 -40 -39.5h-75l-26 -96h78c17.333 0 26 -21.667 26 -65c0 -22 -7 -46.167 -21 -72.5s-27.333 -39.5 -40 -39.5h-90l-23 -86c-8 -29.333 -61 -44 -159 -44c-14.667 0 -25.167 4.5 -31.5 13.5
s-9.5 18.5 -9.5 28.5s6.33301 39.333 19 88h-104l-23 -86c-8 -29.333 -61 -44 -159 -44zM359.998 403l-26 -96h105l26 96h-105z" />
    <glyph glyph-name="dollar" unicode="$" horiz-adv-x="664" 
d="M235 716c0 15.333 12.6631 29.832 37.9961 43.499s58.666 20.5 99.999 20.5c32 0 52.667 -6.66699 62 -20c6.66699 -9.33301 10 -18 10 -26v-30c75.333 -8 127.666 -22 156.999 -42c12 -8 18 -15.667 18 -23c0 -34.667 -8.16699 -72 -24.5 -112s-32.166 -60 -47.499 -60
c-2.66699 0 -11.334 3 -26.001 9c-44 19.333 -80.5 29 -109.5 29s-48.667 -2.66699 -59 -8s-15.5 -13.5 -15.5 -24.5s7.33301 -19.5 22 -25.5s32.834 -11.167 54.501 -15.5s45.334 -11.5 71.001 -21.5s49.5 -22 71.5 -36s40.333 -34.833 55 -62.5s22 -55.834 22 -84.501
s-2.66699 -52.334 -8 -71.001s-14.5 -38 -27.5 -58s-32.667 -37.833 -59 -53.5s-57.833 -27.167 -94.5 -34.5v-16c0 -15.333 -12.667 -29.833 -38 -43.5s-58.666 -20.5 -99.999 -20.5c-32 0 -52.667 6.66699 -62 20c-6.66699 9.33301 -10 18 -10 26v30
c-43.333 4 -81 10.333 -113 19c-61.333 16.667 -92 34.667 -92 54c0 37.333 5.33301 76.166 16 116.499s23.334 60.5 38.001 60.5c2.66699 0 30.334 -9 83.001 -27s92.334 -27 119.001 -27s44 2.83301 52 8.5s12 13.834 12 24.501s-7.33301 19.834 -22 27.501
s-33 13.834 -55 18.501s-45.833 12 -71.5 22s-49.5 21.667 -71.5 35s-40.333 33 -55 59s-22 56.333 -22 91c0 122.667 60.667 194.334 182 215.001v13z" />
    <glyph glyph-name="percent" unicode="%" horiz-adv-x="975" 
d="M353 11.5c-14 -7.66699 -37.333 -11.502 -70 -11.502s-49 8.66699 -49 26c0 1.33301 0.666992 4 2 8l354 626c6 10.667 11.5 18.834 16.5 24.501s14.167 11.334 27.5 17.001s30 8.5 50 8.5c41.333 0 62 -9 62 -27c0 -3.33301 -0.666992 -6.33301 -2 -9l-358 -630
c-8 -14 -19 -24.833 -33 -32.5zM224 328.998c-29.333 0 -54.832 2.66797 -76.499 8.00098s-41.834 14.666 -60.501 27.999c-38 27.333 -57 80.333 -57 159c0 76.667 20 128 60 154c34 22 78.667 33 134 33c54.667 0 99.667 -11 135 -33c40 -26 60 -77.333 60 -154
c0 -79.333 -19 -132.333 -57 -159c-34.667 -24 -80.667 -36 -138 -36zM224.001 425.999c5.33301 0 9.66602 2.00098 12.999 6.00098c8.66699 9.33301 13 33 13 71s-1.33301 64.167 -4 78.5s-5.66699 23.166 -9 26.499s-7.66602 5 -12.999 5c-17.333 0 -26 -31.167 -26 -93.5
s8.66699 -93.5 26 -93.5zM750.001 -10c-29.333 0 -54.832 2.66797 -76.499 8.00098s-41.834 14.666 -60.501 27.999c-38 27.333 -57 80.333 -57 159c0 76.667 20 127.667 60 153c34 22.667 78.667 34 134 34c54.667 0 99.667 -11.333 135 -34c40 -25.333 60 -76.333 60 -153
c0 -79.333 -19 -132.333 -57 -159c-34.667 -24 -80.667 -36 -138 -36zM750.002 87.001c5.33301 0 9.66602 1.66797 12.999 5.00098c8.66699 10 13 34 13 72s-1.33301 64.167 -4 78.5s-5.66699 23.166 -9 26.499s-7.66602 5 -12.999 5c-17.333 0 -26 -31.167 -26 -93.5
s8.66699 -93.5 26 -93.5z" />
    <glyph glyph-name="ampersand" unicode="&#x26;" horiz-adv-x="776" 
d="M447 438l268.998 0.000976562c30 0 45 -25.333 45 -76c0 -24 -2.83301 -45.833 -8.5 -65.5s-11.834 -29.5 -18.501 -29.5h-50v-29c0 -87.333 -3 -135.333 -9 -144c-47.333 -68.667 -163.666 -103 -348.999 -103c-92 0 -164.333 17.333 -217 52s-79 88.667 -79 162
c0 59.333 19.333 107.333 58 144c8.66699 8.66699 19 16.667 31 24c-2 1.33301 -4.83301 3 -8.5 5s-10.167 7.33301 -19.5 16s-17.666 18.334 -24.999 29.001c-18 28 -27 61.667 -27 101c0 124.667 96 187 288 187c54 0 100.333 -3.83301 139 -11.5
s66.167 -16.834 82.5 -27.501s24.5 -21.667 24.5 -33c0 -18.667 -6.33301 -50.334 -19 -95.001s-26.667 -67 -42 -67c-3.33301 0 -22.666 5.33301 -57.999 16s-67.5 16 -96.5 16s-43.5 -10 -43.5 -30c0 -17.333 12.667 -28.333 38 -33c26 -5.33301 57.667 -8 95 -8z
M422.998 200.001l1 10.999v55c-73.333 -1.33301 -110 -15.666 -110 -42.999c0 -20 18 -30 54 -30c16.667 0 35 2.33301 55 7z" />
    <glyph glyph-name="quotesingle" unicode="'" horiz-adv-x="261" 
d="M49 762.5c12.667 11.667 38.667 17.5 78 17.5s66.5 -5.33301 81.5 -16s22.5 -35.334 22.5 -74.001c0 -168.667 -33.5 -253 -100.5 -253s-100.5 84.333 -100.5 253c0 36.667 6.33301 60.834 19 72.501z" />
    <glyph glyph-name="parenleft" unicode="(" horiz-adv-x="450" 
d="M388 -149c-235.333 0 -353 148.002 -353 444.002c0 144 30.333 250.833 91 320.5s144.667 104.5 252 104.5c28 0 42 -16.333 42 -49c0 -26.667 -2.5 -51.5 -7.5 -74.5s-13.167 -34.5 -24.5 -34.5c-28 0 -49.333 -23.667 -64 -71s-22 -114.5 -22 -201.5
s7.66699 -155.333 23 -205s34 -74.5 56 -74.5c13.333 0 22.833 -7.33301 28.5 -22s8.5 -35.334 8.5 -62.001s-2 -45.834 -6 -57.501s-12 -17.5 -24 -17.5z" />
    <glyph glyph-name="parenright" unicode=")" horiz-adv-x="450" 
d="M62 -149c-12 0 -20 5.83203 -24 17.499s-6 30.834 -6 57.501c0 56 12.333 84 37 84c22 0 40.667 24.833 56 74.5s23 118 23 205s-7.33301 154.167 -22 201.5s-36 71 -64 71c-11.333 0 -19.5 11.5 -24.5 34.5s-7.5 47.833 -7.5 74.5c0 32.667 14 49 42 49
c107.333 0 191.333 -34.833 252 -104.5s91 -176.5 91 -320.5c0 -296 -117.667 -444 -353 -444z" />
    <glyph glyph-name="asterisk" unicode="*" horiz-adv-x="558" 
d="M15 549c0 22 5.66699 45.166 17 69.499s27 36.5 47 36.5c14 0 31.833 -5.5 53.5 -16.5s46.834 -27.167 75.501 -48.5c-4.66699 64 -7 107.167 -7 129.5s4.83301 38 14.5 47s30 13.5 61 13.5s52.167 -4.16699 63.5 -12.5s17 -27.5 17 -57.5c0 -10.667 -2.33301 -32 -7 -64
s-8 -50.667 -10 -56l18 11.5c4.66699 3 10.5 6.5 17.5 10.5l21 12c7 4 14.5 8 22.5 12s15.667 7.33301 23 10c14.667 6.66699 27.667 10 39 10c19.333 0 34.5 -12 45.5 -36s16.5 -47.333 16.5 -70c0 -16 -14.167 -29.667 -42.5 -41s-56.5 -19 -84.5 -23l-42 -5
c70.667 -58 106 -100.667 106 -128c0 -16 -12.167 -33.5 -36.5 -52.5s-44.833 -28.5 -61.5 -28.5c-26 0 -60.333 49.667 -103 149c-14 -39.333 -31 -73.666 -51 -102.999s-37.833 -44 -53.5 -44s-35.334 8.83301 -59.001 26.5s-35.5 33.334 -35.5 47.001
s7.83301 31.167 23.5 52.5s39.167 48 70.5 80h-4.5c-3 0 -16.333 2 -40 6s-48.667 11.667 -75 23s-39.5 24.666 -39.5 39.999z" />
    <glyph glyph-name="plus" unicode="+" horiz-adv-x="553" 
d="M253 31c-43.333 0 -64.999 8.66504 -64.999 25.998v133h-131c-7.33301 0 -13.666 6.16699 -18.999 18.5s-8 30 -8 53s7.33301 46.333 22 70s29 35.5 43 35.5h93v112c0 12.667 11.167 23.334 33.5 32.001s45.666 13 69.999 13s42.666 -2.66699 54.999 -8
s18.5 -11.666 18.5 -18.999v-130h132c17.333 0 26 -21.667 26 -65c0 -22 -7 -46.167 -21 -72.5s-27.333 -39.5 -40 -39.5h-97v-118c0 -11.333 -12.5 -21 -37.5 -29s-49.833 -12 -74.5 -12z" />
    <glyph glyph-name="comma" unicode="," horiz-adv-x="293" 
d="M47 48c-4.66699 13.333 -7 32.333 -7 57s7 45.167 21 61.5s42.333 24.5 85 24.5s71.167 -8.33301 85.5 -25s21.5 -42 21.5 -76c0 -162 -54.667 -243 -164 -243c-10 0 -19.833 12 -29.5 36s-14.5 43 -14.5 57s2.33301 21 7 21c13.333 0 24.333 3.16699 33 9.5
s14 12.833 16 19.5l3 10c-26.667 0 -45.667 16 -57 48z" />
    <glyph glyph-name="hyphen" unicode="-" horiz-adv-x="553" 
d="M462 190h-405.001c-7.33301 0 -13.666 6.16699 -18.999 18.5s-8 30 -8 53s7.33301 46.333 22 70s29 35.5 43 35.5h402c17.333 0 26 -21.667 26 -65c0 -22 -7 -46.167 -21 -72.5s-27.333 -39.5 -40 -39.5z" />
    <glyph glyph-name="period" unicode="." horiz-adv-x="293" 
d="M226 13c-18 -14.667 -44.5 -22 -79.5 -22s-61.5 7.33301 -79.5 22s-27 41.667 -27 81s9.16699 65.5 27.5 78.5s44.833 19.5 79.5 19.5s61 -6.5 79 -19.5s27 -39.167 27 -78.5s-9 -66.333 -27 -81z" />
    <glyph glyph-name="slash" unicode="/" horiz-adv-x="418" 
d="M66 0c-14.667 0 -25.167 4.5 -31.5 13.5s-9.5 18.5 -9.5 28.5s54 215 162 615c10 36 61.333 54 154 54c34.667 0 52 -11.667 52 -35c0 -4 -56 -214.667 -168 -632c-8 -29.333 -61 -44 -159 -44z" />
    <glyph glyph-name="zero" unicode="0" horiz-adv-x="726" 
d="M363 -9c-55.333 0 -101.829 4.83301 -139.496 14.5s-71.834 27.5 -102.501 53.5c-60.667 51.333 -91 151.666 -91 300.999c0 144 31.667 241.667 95 293c31.333 25.333 65.666 43 102.999 53s82.166 15 134.499 15s97.333 -5 135 -15s72.167 -27.667 103.5 -53
c63.333 -51.333 95 -149 95 -293c0 -149.333 -30.333 -249.666 -91 -300.999c-30.667 -26 -64.834 -43.833 -102.501 -53.5s-84.167 -14.5 -139.5 -14.5zM342.004 161c5.33301 -8.66699 12.5 -13.002 21.5 -13.002s16.167 4.5 21.5 13.5s9.66602 28.833 12.999 59.5
s5 74.334 5 131.001s-1.66699 100.834 -5 132.501s-7.66602 52.667 -12.999 63s-12.5 15.5 -21.5 15.5s-16.167 -5 -21.5 -15c-13.333 -22.667 -20 -88 -20 -196c0 -107.333 6.66699 -171 20 -191z" />
    <glyph glyph-name="one" unicode="1" horiz-adv-x="453" 
d="M352 6.5c-40.667 -4.33301 -81.3311 -6.50098 -121.998 -6.50098s-66.834 1.83301 -78.501 5.5s-17.5 9.83398 -17.5 18.501v432h-102c-11.333 0 -17 24.333 -17 73s5.66699 92.667 17 132c3.33301 12.667 38.666 24.334 105.999 35.001s119 16 155 16s60 -1.33301 72 -4
s21 -5.83398 27 -9.50098s10.667 -7.83398 14 -12.501c4.66699 -7.33301 7 -14.333 7 -21v-641c0 -7.33301 -20.333 -13.166 -61 -17.499z" />
    <glyph glyph-name="two" unicode="2" horiz-adv-x="614" 
d="M99 451c-18.667 0 -34.833 22.0039 -48.5 66.0039s-20.5 86.333 -20.5 127c0 9.33301 10.333 19.833 31 31.5s52 22.167 94 31.5s87.667 14 137 14c191.333 0 287 -67 287 -201c0 -37.333 -8 -72.333 -24 -105s-33.667 -58.834 -53 -78.501s-42 -37.834 -68 -54.501
c-30 -18.667 -58.667 -33.334 -86 -44.001h200c4 0 8.33301 -1.83301 13 -5.5s9.66699 -14.334 15 -32.001s8 -39.667 8 -66s-1.66699 -48.333 -5 -66s-7.33301 -30.5 -12 -38.5c-10 -18 -19 -27.667 -27 -29l-5 -1h-438c-42 0 -63 65.667 -63 197
c0 14.667 43.333 55 130 121c32.667 24 62.667 50.333 90 79s41 52 41 70c0 20 -15 30 -45 30s-61.5 -7.66699 -94.5 -23s-51.833 -23 -56.5 -23z" />
    <glyph glyph-name="three" unicode="3" horiz-adv-x="609" 
d="M570 534c0 -67.333 -26.6729 -117.668 -80.0059 -151.001c7.33301 -3.33301 16.833 -11.333 28.5 -24s21.5 -25.334 29.5 -38.001c20.667 -32.667 31 -71.334 31 -116.001c0 -73.333 -26.333 -127.333 -79 -162s-125 -52 -217 -52
c-45.333 0 -88.166 3.83301 -128.499 11.5s-71.166 16.334 -92.499 26.001s-32 18.5 -32 26.5c0 36.667 4 69 12 97s17 47.833 27 59.5s19.667 17.5 29 17.5c2.66699 0 20.334 -6 53.001 -18s64.834 -18 96.501 -18s47.5 10 47.5 30c0 27.333 -33.667 42 -101 44
c-26.667 0.666992 -41.334 1.33398 -44.001 2.00098c-14 4.66699 -21 34 -21 88s7 83.667 21 89c2.66699 1.33301 17.334 2 44.001 2c67.333 1.33301 101 15 101 41c0 20 -14.5 30 -43.5 30s-61.167 -7 -96.5 -21s-54.666 -21 -57.999 -21c-15.333 0 -29.333 22.333 -42 67
s-19 76.334 -19 95.001c0 17.333 19.333 35 58 53c42.667 19.333 105.334 29 188.001 29c192 0 288 -62.333 288 -187z" />
    <glyph glyph-name="four" unicode="4" horiz-adv-x="618" 
d="M517 6.5c-40.667 -4.33301 -81.332 -6.50195 -121.999 -6.50195s-66.834 1.83301 -78.501 5.5s-17.5 9.83398 -17.5 18.501v123h-250c-22.667 0 -34 55.333 -34 166c0 12.667 27.167 67 81.5 163s91.833 159 112.5 189c8 11.333 38 22 90 32s102.667 15 152 15
c84.667 0 127 -15.667 127 -47v-641c0 -7.33301 -20.333 -13.166 -61 -17.499zM316.002 302.998l1 218l-70 -218h69z" />
    <glyph glyph-name="five" unicode="5" horiz-adv-x="611" 
d="M30 67c0 43.333 5.99902 82.5 17.999 117.5s25.333 52.5 40 52.5c4 0 25.333 -8.16699 64 -24.5s67.334 -24.5 86.001 -24.5s33.167 3 43.5 9s15.5 14 15.5 24c0 36.667 -67.667 58.334 -203 65.001c-23.333 1.33301 -35 72.666 -35 213.999s11 212 33 212h442
c17.333 0 26 -26.667 26 -80c0 -32 -3.16699 -67.167 -9.5 -105.5s-17.166 -57.5 -32.499 -57.5h-280v-45c128.667 0 220.667 -20.667 276 -62c44.667 -34 67 -84 67 -150s-24.667 -119.333 -74 -160s-128.333 -61 -237 -61c-70.667 0 -128.334 8 -173.001 24
s-67 33.333 -67 52z" />
    <glyph glyph-name="six" unicode="6" horiz-adv-x="662" 
d="M357 458c26 8.66699 55.5 12.999 88.5 12.999s61 -4.83301 84 -14.5s41 -21.834 54 -36.501s23.167 -33 30.5 -55c12 -36 18 -72.667 18 -110s-1.5 -65.5 -4.5 -84.5s-10.333 -40.167 -22 -63.5s-27.334 -43 -47.001 -59s-47.667 -29.5 -84 -40.5
s-78.833 -16.5 -127.5 -16.5c-104.667 0 -183.667 28.833 -237 86.5s-80 151 -80 280s25 222 75 279s126 85.5 228 85.5c70 0 130.833 -5.16699 182.5 -15.5s77.5 -22.5 77.5 -36.5c0 -17.333 -6.5 -47.666 -19.5 -90.999s-24.833 -65 -35.5 -65
c-3.33301 0 -13.333 1.66699 -30 5c-45.333 9.33301 -86.666 14 -123.999 14s-61.333 -9.16699 -72 -27.5s-16 -45.166 -16 -80.499c2.66699 3.33301 7 7.5 13 12.5s22 11.833 48 20.5zM331 346.999c-19.333 0 -29 -35.833 -29 -107.5s9.66699 -107.5 29 -107.5
c20.667 0 31 35.833 31 107.5s-10.333 107.5 -31 107.5z" />
    <glyph glyph-name="seven" unicode="7" horiz-adv-x="539" 
d="M327.5 6.5c-42.333 -4.33301 -84.1709 -6.50195 -125.504 -6.50195s-67.666 1.83301 -78.999 5.5s-17 9.83398 -17 18.501c0 14 45 162.667 135 446h-205c-9.33301 0 -16.666 16 -21.999 48c-2.66699 15.333 -4 35.666 -4 60.999s3.5 53.833 10.5 85.5
s18.167 47.5 33.5 47.5h402c32.667 0 53.334 -7.33301 62.001 -22c7.33301 -11.333 11 -26.166 11 -44.499s-7.66699 -62.5 -23 -132.5s-35.166 -156 -59.499 -258s-41.833 -179 -52.5 -231c-2 -7.33301 -24.167 -13.166 -66.5 -17.499z" />
    <glyph glyph-name="eight" unicode="8" horiz-adv-x="659" 
d="M629 224c0 -155.333 -99.833 -233 -299.5 -233s-299.5 77.667 -299.5 233c0 70 16 122.667 48 158c-8.66699 10 -16.667 27.5 -24 52.5s-11 49.833 -11 74.5c0 76.667 24.333 131.167 73 163.5s119.667 48.5 213 48.5s164.5 -16.167 213.5 -48.5
s73.5 -86.833 73.5 -163.5c0 -24.667 -3.66699 -49.5 -11 -74.5s-15.333 -42.5 -24 -52.5c32 -35.333 48 -88 48 -158zM305 151.5c5.33301 -10.333 13.5 -15.5 24.5 -15.5s19 5.16699 24 15.5s7.5 32.166 7.5 65.499s-2.5 55.5 -7.5 66.5s-13 16.5 -24 16.5
s-19.167 -5.5 -24.5 -16.5s-8 -33.167 -8 -66.5s2.66699 -55.166 8 -65.499zM330 456c20.667 0 31 19.833 31 59.5s-10.333 59.5 -31 59.5c-22 0 -33 -19.833 -33 -59.5s11 -59.5 33 -59.5z" />
    <glyph glyph-name="nine" unicode="9" horiz-adv-x="662" 
d="M205 252c-57.333 0 -100.835 20.835 -130.502 62.502s-44.5 96.5 -44.5 164.5c0 57.333 18.667 109.666 56 156.999c20 26 49.667 46.833 89 62.5s86 23.5 140 23.5c106 0 185.333 -27.333 238 -82s79 -148.334 79 -281.001s-24.667 -227.167 -74 -283.5
s-125.666 -84.5 -228.999 -84.5c-72 0 -133.333 4.5 -184 13.5s-76 20.5 -76 34.5c0 16.667 6.5 46.667 19.5 90s24.833 65 35.5 65c3.33301 0 13.333 -1.33301 30 -4c48.667 -6.66699 90.834 -10 126.501 -10s58.834 9.5 69.501 28.5s16 44.167 16 75.5
c-9.33301 -7.33301 -29.833 -14.5 -61.5 -21.5s-64.834 -10.5 -99.501 -10.5zM330.998 376.002c19.333 0 29 34.167 29 102.5s-9.66699 102.5 -29 102.5c-20.667 0 -31 -34.167 -31 -102.5s10.333 -102.5 31 -102.5z" />
    <glyph glyph-name="colon" unicode=":" horiz-adv-x="293" 
d="M226 337.5c-18 -14.333 -44.5 -21.5 -79.5 -21.5s-61.5 7.16699 -79.5 21.5s-27 41.333 -27 81s9.16699 66 27.5 79s44.833 19.5 79.5 19.5s61 -6.5 79 -19.5s27 -39.333 27 -79s-9 -66.667 -27 -81zM226 13c-18 -14.667 -44.5 -22 -79.5 -22s-61.5 7.33301 -79.5 22
s-27 41.667 -27 81s9.16699 65.5 27.5 78.5s44.833 19.5 79.5 19.5s61 -6.5 79 -19.5s27 -39.167 27 -78.5s-9 -66.333 -27 -81z" />
    <glyph glyph-name="semicolon" unicode=";" horiz-adv-x="293" 
d="M226 337.5c-18 -14.333 -44.5 -21.5 -79.5 -21.5s-61.5 7.16699 -79.5 21.5s-27 41.333 -27 81s9.16699 66 27.5 79s44.833 19.5 79.5 19.5s61 -6.5 79 -19.5s27 -39.333 27 -79s-9 -66.667 -27 -81zM61 166.5c14 16.333 42.333 24.5 85 24.5s71.167 -8.33301 85.5 -25
s21.5 -42 21.5 -76c0 -162 -54.667 -243 -164 -243c-10 0 -19.833 12 -29.5 36s-14.5 43 -14.5 57s2.33301 21 7 21c17.333 0 31.333 6 42 18c6.66699 7.33301 10 14.333 10 21c-14.667 1.33301 -28.667 8 -42 20c-6 6 -11.167 15.5 -15.5 28.5s-6.5 31.833 -6.5 56.5
s7 45.167 21 61.5z" />
    <glyph glyph-name="less" unicode="&#x3c;" horiz-adv-x="362" 
d="M215 288c78 -160 116.998 -247.999 116.998 -263.999s-17.333 -24 -52 -24c-55.333 0 -92.5 3 -111.5 9s-33.167 16.167 -42.5 30.5s-30.166 55.666 -62.499 123.999s-48.5 108.5 -48.5 120.5s8.16699 35.333 24.5 70s34.666 71.5 54.999 110.5s31.833 61.667 34.5 68
s7.83398 13 15.501 20s22.834 13.333 45.501 19s52 8.5 88 8.5s54 -11.667 54 -35c0 -14 -39 -99.667 -117 -257z" />
    <glyph glyph-name="equal" unicode="=" horiz-adv-x="553" 
d="M462 317h-405.001c-7.33301 0 -13.666 6.16699 -18.999 18.5s-8 30 -8 53s7.33301 46.333 22 70s29 35.5 43 35.5h402c17.333 0 26 -21.667 26 -65c0 -22 -7 -46.167 -21 -72.5s-27.333 -39.5 -40 -39.5zM461.999 74h-405.001c-7.33301 0 -13.666 6.16699 -18.999 18.5
s-8 30 -8 53s7.33301 46.333 22 70s29 35.5 43 35.5h402c17.333 0 26 -21.667 26 -65c0 -22 -7 -46.167 -21 -72.5s-27.333 -39.5 -40 -39.5z" />
    <glyph glyph-name="greater" unicode="&#x3e;" horiz-adv-x="362" 
d="M30 545c0 23.333 40.668 34.998 122.001 34.998c40 0 68 -18 84 -54c0.666992 -2 11.334 -22.667 32.001 -62c52.667 -101.333 79 -159.666 79 -174.999s-16.167 -57.166 -48.5 -125.499s-53 -109.5 -62 -123.5s-19.5 -24.167 -31.5 -30.5s-32.833 -9.5 -62.5 -9.5
s-53.834 1.16699 -72.501 3.5s-30 5.16602 -34 8.49902s-6 8 -6 14s9.66699 31 29 75s48.666 106.333 87.999 187c-78 156.667 -117 242.334 -117 257.001z" />
    <glyph glyph-name="question" unicode="?" horiz-adv-x="599" 
d="M89 441c-18.667 0 -34.832 22.1699 -48.499 66.5029s-20.5 86.833 -20.5 127.5c0 9.33301 10.333 19.833 31 31.5s52 22 94 31s87.667 13.5 137 13.5c191.333 0 287 -66.667 287 -200c0 -38 -7.83301 -70.833 -23.5 -98.5s-34.5 -47.834 -56.5 -60.501
c-44.667 -24.667 -85.667 -37.334 -123 -38.001l-23 -1c0 -7.33301 1.66699 -19 5 -35s5 -30 5 -42c0 -10.667 -18.167 -18.834 -54.5 -24.501s-67.833 -8.5 -94.5 -8.5c-40.667 0 -65.834 10 -75.501 30s-14.5 62.333 -14.5 127c0 15.333 28.667 26.666 86 33.999
c21.333 3.33301 40.833 10.333 58.5 21s26.5 25.334 26.5 44.001s-15 28 -45 28s-61.5 -7.66699 -94.5 -23s-51.833 -23 -56.5 -23zM246.002 169.003c45.333 0 80 -5.83203 104 -17.499s36 -35.834 36 -72.501c0 -60 -46.667 -90 -140 -90s-140 30 -140 90s46.667 90 140 90
z" />
    <glyph glyph-name="at" unicode="@" horiz-adv-x="786" 
d="M431 235l-3.99609 0.00390625c-10 -35.333 -36.667 -53 -80 -53c-88.667 0 -133 34.667 -133 104c0 22 6.16699 40.667 18.5 56s28.166 26.666 47.499 33.999c33.333 11.333 68.333 17 105 17h19c0 9.33301 -2.83301 18 -8.5 26s-15.334 12 -29.001 12
s-31 -4.66699 -52 -14s-32.167 -14 -33.5 -14c-6.66699 0 -16 10.5 -28 31.5s-18 39.167 -18 54.5c0 13.333 23 24.333 69 33c26 5.33301 55.833 8 89.5 8s61.5 -3.83301 83.5 -11.5s38.333 -16.5 49 -26.5s19 -23.167 25 -39.5s9.33301 -29.333 10 -39s1 -21.834 1 -36.501
v-110h32c19.333 0 32.166 8.16699 38.499 24.5s9.5 42.5 9.5 78.5s-3.16699 67.667 -9.5 95s-17.833 53 -34.5 77c-32.667 47.333 -100.334 71 -203.001 71c-103.333 0 -171.333 -23 -204 -69c-16.667 -24 -27.834 -49.667 -33.501 -77s-8.5 -59.833 -8.5 -97.5
s1 -66.834 3 -87.501s7.5 -44 16.5 -70s21.833 -46.333 38.5 -61s41 -27.167 73 -37.5s70.667 -15.5 116 -15.5c7.33301 0 14.333 -8.16699 21 -24.5s10 -31.833 10 -46.5c0 -24.667 -10.333 -37 -31 -37c-94 0 -165.333 14 -214 42c-45.333 25.333 -79.333 62 -102 110
c-26.667 56 -40 128.333 -40 217c0 63.333 7.16699 117.833 21.5 163.5s32.166 81 53.499 106s48.833 44.667 82.5 59s65.334 23.333 95.001 27s64.5 5.5 104.5 5.5c118 0 205.667 -27.833 263 -83.5s86 -133.167 86 -232.5c0 -108 -28 -174.667 -84 -200
c-18.667 -8.66699 -35.167 -13.834 -49.5 -15.501s-32.166 -2.5 -53.499 -2.5c-85.333 0 -128 16.333 -128 49zM405.004 279.004v68.001c-10 0 -18.167 -4.33301 -24.5 -13s-9.5 -18.334 -9.5 -29.001c0 -25.333 5.66699 -38 17 -38s17 4 17 12z" />
    <glyph glyph-name="A" unicode="A" horiz-adv-x="738" 
d="M285.5 11c-19 -7.33301 -53.166 -11 -102.499 -11s-90.5 4.5 -123.5 13.5s-49.5 20.5 -49.5 34.5c0 16 29.667 118.167 89 306.5l102 325.5c3.33301 8.66699 30.166 15.834 80.499 21.501s104.333 8.5 162 8.5s89.5 -10 95.5 -30c126 -418.667 189 -631.334 189 -638.001
s-4 -13.334 -12 -20.001c-18.667 -14.667 -55.667 -22 -111 -22c-118 0 -178.333 14 -181 42l-7 65h-96l-5 -56c-1.33301 -19.333 -11.5 -32.666 -30.5 -39.999zM396.001 297l-15 180h-22l-17 -180h54z" />
    <glyph glyph-name="B" unicode="B" horiz-adv-x="705" 
d="M343 0h-219c-33.333 -0 -55.666 2.33301 -66.999 7s-17 12 -17 22v643c0 32 96.333 48 289 48c110.667 0 187 -10.667 229 -32c42.667 -22 70 -50 82 -84c6.66699 -20 10 -43.333 10 -70c0 -52 -8.83301 -91 -26.5 -117s-36.834 -40.667 -57.501 -44
c31.333 -6.66699 57.333 -22 78 -46s31 -64.667 31 -122c0 -66.667 -20.333 -116 -61 -148c-35.333 -28 -89.333 -45.667 -162 -53c-30.667 -2.66699 -67 -4 -109 -4zM344 436c34 0 51 22.667 51 68c0 22.667 -4.5 39.5 -13.5 50.5s-19.167 16.5 -30.5 16.5h-32v-135h25z
M319 149h25c34 0 51 22.667 51 68c0 22.667 -4.5 39.5 -13.5 50.5s-19.167 16.5 -30.5 16.5h-32v-135z" />
    <glyph glyph-name="C" unicode="C" horiz-adv-x="656" 
d="M459.5 -5.5c-27.667 -2.33301 -54.668 -3.49902 -81.001 -3.49902s-46.666 0.666992 -60.999 2s-33.166 4.66602 -56.499 9.99902s-44.666 12.666 -63.999 21.999s-39.833 23 -61.5 41s-39.834 39.333 -54.501 64c-34 57.333 -51 131.333 -51 222
c0 60.667 9.5 114.334 28.5 161.001s42 82.667 69 108s57.833 45.666 92.5 60.999c56 25.333 112.333 38 169 38c81.333 0 139.666 -6.66699 174.999 -20c16 -6 30.333 -15.333 43 -28s19 -31 19 -55s-5.83301 -54.333 -17.5 -91s-28.5 -55 -50.5 -55
c-6.66699 0 -31.334 5.33301 -74.001 16s-71.667 16 -87 16c-23.333 0 -43.166 -13 -59.499 -39s-24.5 -63 -24.5 -111s7.16699 -85.333 21.5 -112s33.166 -40 56.499 -40c16.667 0 46.834 6.83301 90.501 20.5s69.167 20.5 76.5 20.5c20.667 0 36.834 -19 48.501 -57
s17.5 -68.667 17.5 -92s-7.16699 -41.833 -21.5 -55.5s-34.833 -23.667 -61.5 -30s-53.834 -10.666 -81.501 -12.999z" />
    <glyph glyph-name="D" unicode="D" horiz-adv-x="731" 
d="M359 0h-235.999c-32.667 -0 -54.667 2.33301 -66 7s-17 12.334 -17 23.001v631c0 17.333 7.33301 29.833 22 37.5s40 11.5 76 11.5h225c128 0 216.333 -25.167 265 -75.5s73 -141.833 73 -274.5s-25.333 -225.834 -76 -279.501s-139.334 -80.5 -266.001 -80.5z
M351.001 561c-16 0 -26.667 -1.33398 -32 -4.00098v-404l38 -4c20 0 35.167 16 45.5 48s15.5 87.333 15.5 166s-5.33301 131.334 -16 158.001s-27.667 40 -51 40z" />
    <glyph glyph-name="E" unicode="E" horiz-adv-x="610" 
d="M547 0h-424.001c-32.667 -0 -54.667 2.33301 -66 7s-17 12 -17 22v633c0 17.333 7.83301 29.666 23.5 36.999s43.834 11 84.501 11h402c14 0 21 -23.167 21 -69.5s-3 -81.666 -9 -105.999s-14 -36.5 -24 -36.5c-43.333 0 -116.333 4.33301 -219 13v-67
c98.667 4 163 6 193 6c18 0 27 -21 27 -63s-3.5 -73.833 -10.5 -95.5s-16.5 -32.5 -28.5 -32.5l-181 4v-64c116 8.66699 196 13 240 13c14 0 21 -23.333 21 -70s-3 -82 -9 -106s-14 -36 -24 -36z" />
    <glyph glyph-name="F" unicode="F" horiz-adv-x="586" 
d="M254.5 7c-43 -4.66699 -83.833 -7 -122.5 -7s-63.667 2.33301 -75 7s-17 12 -17 22v634c0 17.333 8.66699 29.666 26 36.999s50 11 98 11h371c14 0 21 -25.167 21 -75.5s-3.16699 -88.666 -9.5 -114.999s-14.5 -39.5 -24.5 -39.5l-203 10v-68c88.667 4 148 6 178 6
c10 0 16.833 -5.33301 20.5 -16s5.5 -31.167 5.5 -61.5s-3.33301 -59.333 -10 -87s-16 -41.5 -28 -41.5l-166 6v-200c0 -10 -21.5 -17.333 -64.5 -22z" />
    <glyph glyph-name="G" unicode="G" horiz-adv-x="674" 
d="M257 -8c-22.667 0 -43.665 2.33789 -62.998 7.00488s-39.5 14.5 -60.5 29.5s-38.833 34.833 -53.5 59.5c-33.333 56 -50 140.333 -50 253c0 62 8.33301 116.667 25 164s37.667 84.166 63 110.499s55.666 47.833 90.999 64.5s68.333 27.5 99 32.5s63.334 7.5 98.001 7.5
c80 0 136.333 -6.83301 169 -20.5s49 -39.834 49 -78.501c0 -30.667 -5.66699 -63.834 -17 -99.501s-28 -53.5 -50 -53.5c-5.33301 0 -28 5.16699 -68 15.5s-70 15.5 -90 15.5c-57.333 0 -86 -48.333 -86 -145c0 -48.667 6.66699 -84.834 20 -108.501s30 -36.834 50 -39.501
v90c0 16.667 17 32 51 46s66.667 21 98 21s54.166 -2 68.499 -6s24.166 -9.66699 29.499 -17c9.33301 -12 14 -22.667 14 -32v-277c0 -8.66699 -17.5 -15.667 -52.5 -21s-71.333 -8 -109 -8s-61.5 1.83301 -71.5 5.5s-15.667 13.834 -17 30.501l-7 59h-8
c-4.66699 -28.667 -16.5 -53.334 -35.5 -74.001s-47.833 -31 -86.5 -31z" />
    <glyph glyph-name="H" unicode="H" horiz-adv-x="727" 
d="M258.5 8c-40.333 -5.33301 -80.998 -8.00195 -121.998 -8.00195s-67.333 2.33301 -79 7s-17.5 12 -17.5 22v615c0 16.667 19.333 31.834 58 45.501s80.667 20.5 126 20.5c63.333 0 95 -15 95 -45v-220h89v199c0 16.667 19.5 31.834 58.5 45.501s81.167 20.5 126.5 20.5
c62.667 0 94 -15 94 -45v-636c0 -8.66699 -20.333 -15.667 -61 -21s-81.334 -8 -122.001 -8s-66.834 2.33301 -78.501 7s-17.5 12 -17.5 22v229h-89v-229c0 -8.66699 -20.167 -15.667 -60.5 -21z" />
    <glyph glyph-name="I" unicode="I" horiz-adv-x="359" 
d="M258 6.5c-40.667 -4.33301 -81.5 -6.50098 -122.5 -6.50098s-67.167 1.83301 -78.5 5.5s-17 9.83398 -17 18.501v622c0 14.667 19.333 29.167 58 43.5s82 21.5 130 21.5c42.667 0 70.667 -9 84 -27c4.66699 -6.66699 7 -13.334 7 -20.001v-640
c0 -7.33301 -20.333 -13.166 -61 -17.499z" />
    <glyph glyph-name="J" unicode="J" horiz-adv-x="410" 
d="M281.5 -121.5c-25 -9 -53.333 -13.5 -85 -13.5s-54.834 0.5 -69.501 1.5s-30.167 3.66699 -46.5 8s-29.166 10.166 -38.499 17.499c-21.333 18 -32 46 -32 84c0 54.667 14 82 42 82c8.66699 0 15.334 1.33301 20.001 4c12.667 6 19 26.667 19 62v521
c0 14.667 19.167 29.167 57.5 43.5s79.166 21.5 122.499 21.5c66 0 99 -15.667 99 -47v-553c0 -46 -2 -82.667 -6 -110s-12.5 -52.166 -25.5 -74.499s-32 -38 -57 -47z" />
    <glyph glyph-name="K" unicode="K" horiz-adv-x="709" 
d="M257.5 10c-41 -5.33301 -81.835 -8.00098 -122.502 -8.00098s-66.667 2.33301 -78 7s-17 12 -17 22v613c0 17.333 18.833 32.666 56.5 45.999s81.167 20 130.5 20c40.667 0 67 -8 79 -24c8.66699 -11.333 13 -21.666 13 -30.999v-165h8c0 3.33301 10 31 30 83
c38 98 65.667 147 83 147c32.667 0 78.667 -9.66699 138 -29c28.667 -9.33301 53.334 -22.833 74.001 -40.5s31 -37.167 31 -58.5c0 -13.333 -13.5 -39.166 -40.5 -77.499s-67.833 -89.5 -122.5 -153.5l48 -51c19.333 -20.667 45.166 -51.5 77.499 -92.5
s48.5 -70.167 48.5 -87.5s-15.667 -37.5 -47 -60.5s-64.666 -41.667 -99.999 -56s-61.666 -21.5 -78.999 -21.5c-11.333 0 -26.833 17.167 -46.5 51.5s-43.5 85.833 -71.5 154.5l-31 -37v-130c0 -8.66699 -20.5 -15.667 -61.5 -21z" />
    <glyph glyph-name="L" unicode="L" horiz-adv-x="544" 
d="M124 0c-33.333 0 -55.666 1.83301 -66.999 5.5s-17 9.83398 -17 18.501v622c0 14.667 19.333 29.167 58 43.5s82 21.5 130 21.5c42.667 0 70.667 -9 84 -27c4.66699 -6.66699 7 -13.334 7 -20.001v-443c81.333 5.33301 142.666 8 183.999 8c14 0 21 -22.167 21 -66.5
s-3 -82.5 -9 -114.5s-14 -48 -24 -48h-367z" />
    <glyph glyph-name="M" unicode="M" horiz-adv-x="880" 
d="M194 0l-72.5 -0.00195312c-31.667 0 -53.167 2.33301 -64.5 7s-17 12 -17 22v631c0 15.333 20.5 27.5 61.5 36.5s84.833 13.5 131.5 13.5s80 -6 100 -18s31.667 -24.667 35 -38l68 -264h9l64 252c4.66699 18 26.5 33.833 65.5 47.5s81.833 20.5 128.5 20.5
s81.167 -3.66699 103.5 -11s33.5 -16.666 33.5 -27.999v-642c0 -8.66699 -19 -15.667 -57 -21s-84.333 -8 -139 -8s-82 9.66699 -82 29c0 52.667 5.66699 146.334 17 281.001h-9l-52 -261c-2 -10 -10.167 -17.333 -24.5 -22s-35.833 -7 -64.5 -7s-46.167 2 -52.5 6
s-10.5 11.667 -12.5 23l-54 261h-9c12 -137.333 18 -231 18 -281c0 -17.333 -41.667 -27 -125 -29z" />
    <glyph glyph-name="N" unicode="N" horiz-adv-x="734" 
d="M257.5 8c-41 -5.33301 -81.833 -8.00195 -122.5 -8.00195s-66.667 2.33301 -78 7s-17 12 -17 22v614c0 16.667 19.167 32 57.5 46s81.833 21 130.5 21c17.333 0 30.333 -0.666992 39 -2c22.667 -3.33301 38.667 -17.666 48 -42.999l96 -258h4v236c0 16.667 19 32 57 46
s81.333 21 130 21c42 0 68.667 -8 80 -24c8 -11.333 12 -21.666 12 -30.999v-626c0 -8.66699 -20.5 -15.667 -61.5 -21s-86 -8 -135 -8s-75.833 6.33301 -80.5 19l-93 246h-5v-236c0 -8.66699 -20.5 -15.667 -61.5 -21z" />
    <glyph glyph-name="O" unicode="O" horiz-adv-x="756" 
d="M378 -9c-55.333 0 -102.833 5.16699 -142.5 15.5s-76.167 28.833 -109.5 55.5c-67.333 52.667 -101 153.667 -101 303c0 62.667 9.16699 117.334 27.5 164.001s43.833 83.667 76.5 111c64 53.333 147 80 249 80c52.667 0 98.5 -4.66699 137.5 -14
s75.833 -26.333 110.5 -51c70 -50.667 105 -147.334 105 -290.001c0 -128 -31.667 -222.333 -95 -283s-149.333 -91 -258 -91zM378 148c14 0 25 4.83301 33 14.5s14.667 30.334 20 62.001s8 75.834 8 132.501s-2.66699 100.334 -8 131.001s-12 50.667 -20 60s-19 14 -33 14
s-25 -4.66699 -33 -14s-14.667 -29.333 -20 -60s-8 -74.334 -8 -131.001s2.66699 -100.834 8 -132.501s12 -52.334 20 -62.001s19 -14.5 33 -14.5z" />
    <glyph glyph-name="P" unicode="P" horiz-adv-x="707" 
d="M318 29c0 -8.66699 -20.333 -15.666 -61 -20.999s-81.334 -8 -122.001 -8s-66.667 2.33301 -78 7s-17 12 -17 22v643c0 32 96 48 288 48c116 0 192.667 -8 230 -24c45.333 -18.667 76 -44 92 -76c21.333 -41.333 32 -94.333 32 -159c0 -88.667 -15.333 -153 -46 -193
c-22 -29.333 -44 -48.333 -66 -57s-40.167 -14.834 -54.5 -18.501s-32.166 -6.5 -53.499 -8.5c-29.333 -2.66699 -69.333 -4 -120 -4l-24 1v-152zM319 347.001l23.999 -0.000976562c12.667 0 22.667 1.83301 30 5.5s13.833 13.667 19.5 30s8.5 39.333 8.5 69
s-3.16699 52.334 -9.5 68.001s-12.666 25 -18.999 28s-13.833 4.5 -22.5 4.5h-31v-205z" />
    <glyph glyph-name="Q" unicode="Q" horiz-adv-x="746" 
d="M20 373c0 61.333 9.16797 114.667 27.501 160s43.833 81.333 76.5 108c64.667 52.667 147.667 79 249 79c42 0 79.167 -2.66699 111.5 -8s64.333 -15.5 96 -30.5s57.5 -34.833 77.5 -59.5c45.333 -55.333 68 -134 68 -236s-15 -182.5 -45 -241.5s-72 -99.167 -126 -120.5
c30 -49.333 45 -78 45 -86c0 -14.667 -7.33301 -27.167 -22 -37.5s-33.334 -17.833 -56.001 -22.5c-42 -8.66699 -77.333 -13 -106 -13s-48.5 2.83301 -59.5 8.5s-20.167 17.167 -27.5 34.5l-43 92c-81.333 0 -146 30.167 -194 90.5s-72 154.5 -72 282.5zM373.001 148.001
c20.667 0 36 15.833 46 47.5s15 81.667 15 150s-2.66699 117.333 -8 147s-12 48.667 -20 57s-19 12.5 -33 12.5s-25 -4 -33 -12c-18.667 -20 -28 -76.167 -28 -168.5s5 -154.333 15 -186s25.333 -47.5 46 -47.5z" />
    <glyph glyph-name="R" unicode="R" horiz-adv-x="716" 
d="M320 29c0 -8.66699 -20.3369 -15.6641 -61.0039 -20.9971s-81.5 -8 -122.5 -8s-67.333 2.33301 -79 7s-17.5 12 -17.5 22v643c0 17.333 21.833 29.666 65.5 36.999s98.834 11 165.501 11s109.834 -0.166992 129.501 -0.5s42.834 -1.5 69.501 -3.5
s47.834 -5.33301 63.501 -10s33 -10.667 52 -18s33.833 -16.833 44.5 -28.5s21 -25.5 31 -41.5c18 -28.667 27 -69.5 27 -122.5s-8.83301 -97.667 -26.5 -134s-41.167 -63.833 -70.5 -82.5c76.667 -120.667 115 -197.334 115 -230.001s-65.667 -49 -197 -49
c-38 0 -64.333 1.66699 -79 5s-24 10.666 -28 21.999l-65 206l-17 1v-205zM319.996 388.003l25.999 -0.000976562c38.667 0 58 30 58 90c0 30.667 -5.16699 52.334 -15.5 65.001s-22.166 19 -35.499 19h-33v-174z" />
    <glyph glyph-name="S" unicode="S" horiz-adv-x="654" 
d="M465.5 5.5c-35.667 -9.66699 -81.6719 -14.4951 -138.005 -14.4951s-109.833 4.66699 -160.5 14s-87 19.666 -109 30.999s-33 22.333 -33 33c0 37.333 5.33301 76.166 16 116.499s23.334 60.5 38.001 60.5c2.66699 0 30.334 -9 83.001 -27s92.334 -27 119.001 -27
s44 2.83301 52 8.5s12 13.834 12 24.501s-7.33301 20.167 -22 28.5s-33 15.666 -55 21.999s-45.833 15.5 -71.5 27.5s-49.5 25.333 -71.5 40s-40.333 35.5 -55 62.5s-22 57.833 -22 92.5c0 148 88.333 222 265 222c66 0 123 -4.16699 171 -12.5
s81.833 -17.666 101.5 -27.999s29.5 -20.5 29.5 -30.5c0 -34.667 -8.16699 -72 -24.5 -112s-32.166 -60 -47.499 -60c-2.66699 0 -11.334 3 -26.001 9c-44 19.333 -80.5 29 -109.5 29s-48.667 -2.66699 -59 -8s-15.5 -13.5 -15.5 -24.5s7.33301 -20 22 -27
s32.834 -13.333 54.501 -19s45.334 -14.334 71.001 -26.001s49.5 -25.334 71.5 -41.001s40.333 -37.834 55 -66.501s22 -62 22 -100c0 -40 -10.333 -76.333 -31 -109c-12.667 -20 -29 -37.333 -49 -52s-47.833 -26.834 -83.5 -36.501z" />
    <glyph glyph-name="T" unicode="T" horiz-adv-x="651" 
d="M403.5 6.5c-41 -4.33301 -82.001 -6.50293 -123.001 -6.50293s-67 1.83301 -78 5.5s-16.5 9.83398 -16.5 18.501v430h-139c-7.33301 0 -13.666 9.33301 -18.999 28s-8 46.5 -8 83.5s4 70.333 12 100s18.667 44.5 32 44.5h541c10 0 16.833 -9.33301 20.5 -28
s5.5 -45.667 5.5 -81s-3.66699 -68.666 -11 -99.999s-17.333 -47 -30 -47h-125v-430c0 -7.33301 -20.5 -13.166 -61.5 -17.499z" />
    <glyph glyph-name="U" unicode="U" horiz-adv-x="726" 
d="M603.5 63.5c-55 -47.667 -134.668 -71.501 -239.001 -71.501s-184.5 23.833 -240.5 71.5s-84 119.5 -84 215.5v367c0 16.667 18.833 31.667 56.5 45s81.5 20 131.5 20c40 0 66 -7.66699 78 -23c8.66699 -12 13 -22.333 13 -31v-298
c0 -75.333 2.83301 -125.166 8.5 -149.499s17.834 -36.5 36.501 -36.5s30.5 11.833 35.5 35.5s7.5 74.167 7.5 151.5v286c0 16.667 18.833 31.667 56.5 45s81.167 20 130.5 20c42 0 68.667 -7.66699 80 -23c8 -12 12 -22.333 12 -31v-378c0 -96 -27.5 -167.833 -82.5 -215.5
z" />
    <glyph glyph-name="V" unicode="V" horiz-adv-x="727" 
d="M10 639c0 8 8.66895 17.501 26.002 28.501s41.833 20.833 73.5 29.5s66.167 13 103.5 13s64.666 -5.33301 81.999 -16s26.666 -22.334 27.999 -35.001l35 -364h14l31 355c2 18.667 24.667 33.334 68 44.001s83.666 16 120.999 16s65 -3.16699 83 -9.5
s29.5 -12.833 34.5 -19.5s7.5 -12.834 7.5 -18.501s-4.83301 -21.334 -14.5 -47.001l-30.5 -82.5c-35.333 -93.333 -95 -260.666 -179 -501.999c-7.33301 -20.667 -64.666 -31 -171.999 -31c-33.333 -0 -55.333 2.33301 -66 7s-18 12.667 -22 24
c-39.333 113.333 -86.333 242 -141 386s-82 218 -82 222z" />
    <glyph glyph-name="W" unicode="W" horiz-adv-x="1016" 
d="M315 0c-32 0 -53.002 2.33203 -63.002 6.99902s-17 12.667 -21 24l-221 610c0 12.667 23.833 27.334 71.5 44.001s95.834 25 144.501 25c62.667 0 96 -19.667 100 -59l34 -317h14l28 317c3.33301 39.333 48.333 59 135 59c33.333 0 55.666 -4.5 66.999 -13.5
s17.666 -20.833 18.999 -35.5l33 -327h14l26 317c2 19.333 24.833 34 68.5 44s87 15 130 15s72.333 -6.33301 88 -19s23.5 -26 23.5 -40l-214 -620c-7.33301 -20.667 -56.666 -31 -147.999 -31c-27.333 -0 -45.666 2.33301 -54.999 7s-15.666 12.667 -18.999 24l-52 174h-12
l-53 -174c-6 -20.667 -52 -31 -138 -31z" />
    <glyph glyph-name="X" unicode="X" horiz-adv-x="721" 
d="M209 0c-48.667 0 -94.002 4.16504 -136.002 12.498s-63 20.5 -63 36.5c0 9.33301 13.833 39.833 41.5 91.5s69.5 124.834 125.5 219.501c-100 188 -150 286.667 -150 296c0 14.667 21.167 27.334 63.5 38.001s81 16 116 16s63.667 -5.33301 86 -16
s34.5 -21.334 36.5 -32.001l39 -177h5l28 175c0.666992 4.66699 8.66699 11 24 19s35.833 15.167 61.5 21.5s55.334 9.5 89.001 9.5s61.834 -4 84.501 -12s34 -23 34 -45c0 -11.333 -12 -44.333 -36 -99s-60.333 -130.667 -109 -228c108 -175.333 162 -267.666 162 -276.999
c0 -32.667 -39.667 -49 -119 -49c-118 0 -181.333 16 -190 48l-39 139h-6l-32 -139c-7.33301 -32 -46 -48 -116 -48z" />
    <glyph glyph-name="Y" unicode="Y" horiz-adv-x="698" 
d="M426 8c-40.667 -5.33301 -81.167 -8.00098 -121.5 -8.00098s-66.5 2.16699 -78.5 6.5s-18 11.833 -18 22.5v174c-132 270 -198 416.667 -198 440c0 14 22.333 28.667 67 44s91.667 23 141 23c63.333 0 97 -18.667 101 -56l27 -269h11l19 262
c1.33301 18.667 25 33.834 71 45.501s89.667 17.5 131 17.5s70 -6 86 -18s24 -24.667 24 -38c0 -12.667 -67 -163 -201 -451v-174c0 -8.66699 -20.333 -15.667 -61 -21z" />
    <glyph glyph-name="Z" unicode="Z" horiz-adv-x="627" 
d="M582 507c0 -12 -17.667 -39.666 -53 -82.999s-88.333 -102 -159 -176h211c7.33301 0 13.5 -9.83301 18.5 -29.5s7.5 -47.334 7.5 -83.001s-4.16699 -67.167 -12.5 -94.5s-19.5 -41 -33.5 -41h-487c-19.333 -0 -33.166 19.333 -41.499 58s-12.5 80.667 -12.5 126
c0 10 18.667 37.333 56 82s93.666 107 168.999 187h-194c-18 0 -27 29 -27 87c0 40.667 4.33301 79.167 13 115.5s19.667 54.5 33 54.5h461c34 0 51 -67.667 51 -203z" />
    <glyph glyph-name="bracketleft" unicode="[" horiz-adv-x="470" 
d="M134 -143c-33.333 0 -55.666 1.83105 -66.999 5.49805s-17 9.83398 -17 18.501v805c0 8.66699 5.66699 14.834 17 18.501s33.666 5.5 66.999 5.5h253c10 0 18 -9.33301 24 -28s9 -40 9 -64c0 -44.667 -7 -67 -21 -67c-36.667 0 -71.667 2.66699 -105 8v-551
c28.667 5.33301 63.667 8 105 8c14 0 21 -22.333 21 -67c0 -24 -3 -45.333 -9 -64s-14 -28 -24 -28h-253z" />
    <glyph glyph-name="backslash" unicode="\" horiz-adv-x="368" 
d="M0 676c0 23.333 43.999 35.001 131.999 35.001c18.667 0 34.667 -5.33301 48 -16s22 -23.334 26 -38.001c108 -400 162 -604.333 162 -613c0 -29.333 -40.333 -44 -121 -44c-18.667 0 -35.667 4.16699 -51 12.5s-24.666 18.833 -27.999 31.5
c-112 417.333 -168 628 -168 632z" />
    <glyph glyph-name="bracketright" unicode="]" horiz-adv-x="470" 
d="M336 -143l-253 0.00195312c-10 0 -18 9.33301 -24 28s-9 40 -9 64c0 44.667 7 67 21 67c36.667 0 71.667 -2.66699 105 -8v551c-28.667 -5.33301 -63.667 -8 -105 -8c-14 0 -21 22.333 -21 67c0 24 3 45.333 9 64s14 28 24 28h253c33.333 0 55.666 -1.83301 66.999 -5.5
s17 -9.83398 17 -18.501v-805c0 -8.66699 -5.66699 -14.834 -17 -18.501s-33.666 -5.5 -66.999 -5.5z" />
    <glyph glyph-name="asciicircum" unicode="^" horiz-adv-x="440" 
d="M113.5 745.5c49 23 85.334 34.5 109.001 34.5s59.167 -11.333 106.5 -34s71 -38 71 -46c0 -23.333 -3.66699 -44.166 -11 -62.499s-17 -27.5 -29 -27.5c-9.33301 0 -56 13 -140 39c-84.667 -26 -131.334 -39 -140.001 -39c-12 0 -21.667 9.16699 -29 27.5
s-11 39.166 -11 62.499c0 7.33301 24.5 22.5 73.5 45.5z" />
    <glyph glyph-name="underscore" unicode="_" horiz-adv-x="593" 
d="M537 -145l-494.999 -0.000976562c-18 0 -27 17 -27 51c0 24 4.83301 44 14.5 60s21.5 24 35.5 24h487c5.33301 0 9.66602 -1 12.999 -3c8.66699 -5.33301 13 -20.666 13 -45.999s-3.83301 -46 -11.5 -62s-17.5 -24 -29.5 -24z" />
    <glyph glyph-name="grave" unicode="`" horiz-adv-x="380" 
d="M120 780c40.667 0 85.833 -9.83203 135.5 -29.499s74.5 -40 74.5 -61s-5.16699 -39.5 -15.5 -55.5s-21.833 -24 -34.5 -24c-38 0 -85.833 3.83301 -143.5 11.5s-86.5 16.5 -86.5 26.5c0 37.333 7.83301 68.666 23.5 93.999s31.167 38 46.5 38z" />
    <glyph glyph-name="a" unicode="a" horiz-adv-x="664" 
d="M225 -9c-60.667 0 -108.334 14.333 -143.001 43c-14 12 -26.167 29.667 -36.5 53s-15.5 50.666 -15.5 81.999s7.5 58.666 22.5 81.999s33.167 41.333 54.5 54s46.333 23 75 31c43.333 11.333 91 17 143 17h33c0 27.333 -9.33301 46.666 -28 57.999
c-8 4.66699 -20.167 7 -36.5 7s-36 -4.33301 -59 -13s-42.167 -17.5 -57.5 -26.5s-25.666 -13.5 -30.999 -13.5c-12 0 -28.333 15.833 -49 47.5s-31 60.5 -31 86.5c0 8.66699 12.333 20 37 34s59.5 26.833 104.5 38.5s88.833 17.5 131.5 17.5s79.5 -3.5 110.5 -10.5
s56.333 -15.5 76 -25.5s36.334 -23.333 50.001 -40s24 -31.667 31 -45s12.167 -30.666 15.5 -51.999c4.66699 -24.667 7 -55 7 -91v-301c0 -7.33301 -17.833 -13.166 -53.5 -17.499s-71 -6.5 -106 -6.5s-57.667 1 -68 3s-16.5 4.33301 -18.5 7s-3.66699 7.33398 -5 14.001
l-8 57h-8c-16.667 -60 -62.334 -90 -137.001 -90zM359 157v117.002c-17.333 0 -31.333 -7.33301 -42 -22s-16 -31.334 -16 -50.001c0 -44 10 -66 30 -66c8.66699 0 15.5 2.16699 20.5 6.5s7.5 9.16602 7.5 14.499z" />
    <glyph glyph-name="b" unicode="b" horiz-adv-x="668" 
d="M90 10c-36.667 9.33301 -54.9951 23.333 -54.9951 42v634c0 14.667 19.667 29 59 43s80.666 21 123.999 21c58.667 0 88 -15.333 88 -46v-113l-11 -69h8c4 6 11.5 13.333 22.5 22s22.5 16 34.5 22c29.333 15.333 61.666 23 96.999 23s63.166 -4.5 83.499 -13.5
s36.666 -20.667 48.999 -35s22.166 -32.5 29.499 -54.5c12.667 -38 19 -85.333 19 -142c0 -94 -10.667 -166 -32 -216s-56 -85.333 -104 -106s-115.667 -31 -203 -31s-157 6.33301 -209 19zM305.005 138h31c21.333 0 32 51.167 32 153.5s-11 153.5 -33 153.5h-30v-307z" />
    <glyph glyph-name="c" unicode="c" horiz-adv-x="550" 
d="M164 17c-16 7.33301 -33.166 18.332 -51.499 32.999s-33.5 32 -45.5 52c-28 48 -42 110.667 -42 188c0 48 7.66699 90.833 23 128.5s34 66.834 56 87.501s47.333 37.667 76 51c46 21.333 92 32 138 32c77.333 0 131.166 -6 161.499 -18s45.5 -32.333 45.5 -61
s-5.16699 -59.167 -15.5 -91.5s-23.833 -48.5 -40.5 -48.5c-5.33301 0 -21.5 5.66699 -48.5 17s-50.333 17 -70 17s-34.667 -7.83301 -45 -23.5s-15.5 -46 -15.5 -91s4.66699 -75.667 14 -92s23.833 -24.5 43.5 -24.5s44.167 6.66699 73.5 20s45.666 20 48.999 20
c12.667 0 24.834 -15 36.501 -45s17.5 -56.667 17.5 -80c0 -36 -18.667 -61.167 -56 -75.5s-87.833 -21.5 -151.5 -21.5s-114.5 8.66699 -152.5 26z" />
    <glyph glyph-name="d" unicode="d" horiz-adv-x="664" 
d="M223 -9c-24.667 0 -47.666 3.66797 -68.999 11.001s-38.833 16.333 -52.5 27s-25.5 25 -35.5 43s-17.667 35.167 -23 51.5s-9.33301 36.5 -12 60.5c-4 35.333 -6 75.666 -6 120.999c0 92.667 17 163.167 51 211.5s80.667 72.5 140 72.5c60.667 0 104.667 -14.333 132 -43
c6 -6.66699 10.667 -14.667 14 -24h8l-12 69v125c0 14.667 18.667 29 56 43s77.666 21 120.999 21c45.333 0 74.333 -8.66699 87 -26c4.66699 -6.66699 7 -13.334 7 -20.001v-710c0 -7.33301 -18.5 -13.166 -55.5 -17.499s-72.667 -6.5 -107 -6.5s-56.333 1.16699 -66 3.5
s-15.667 4.83301 -18 7.5s-3.83301 7 -4.5 13l-8 57h-8c-6 -23.333 -18 -43 -36 -59c-22.667 -20.667 -57 -31 -103 -31zM335.001 137.001c10.667 0 18.668 6.66602 24.001 19.999v267c0 6.66699 -3.5 11.834 -10.5 15.501s-13.167 5.5 -18.5 5.5
c-22.667 0 -34 -52 -34 -156c0 -55.333 3.16699 -94.5 9.5 -117.5s16.166 -34.5 29.499 -34.5z" />
    <glyph glyph-name="e" unicode="e" horiz-adv-x="640" 
d="M298 226c0 -43.333 20.665 -64.998 61.998 -64.998c24 0 55.333 8.16699 94 24.5s59 24.5 61 24.5c12.667 0 29.334 -19 50.001 -57s31 -66 31 -84c0 -26 -26.667 -45.667 -80 -59s-105.5 -20 -156.5 -20s-93.667 4 -128 12s-62.333 18.167 -84 30.5
s-40.667 27.5 -57 45.5s-28.5 35.167 -36.5 51.5s-14.333 34.5 -19 54.5c-6.66699 29.333 -10 59.666 -10 90.999c0 121.333 31.667 205 95 251c31.333 23.333 66.333 39.666 105 48.999s84.334 14 137.001 14c168.667 0 253 -58.667 253 -176
c0 -124.667 -94.667 -187 -284 -187h-33zM295.998 372.002l0.000976562 -66c19.333 0 35.166 7.66699 47.499 23s18.5 34 18.5 56c0 40 -10.333 60 -31 60c-23.333 0 -35 -24.333 -35 -73z" />
    <glyph glyph-name="f" unicode="f" horiz-adv-x="559" 
d="M358 330l0.00292969 -306.002c0 -7.33301 -18.333 -13.166 -55 -17.499s-81.667 -6.5 -135 -6.5s-80 8 -80 24v306h-51c-18 0 -27 30.333 -27 91c0 24 4.16699 46.5 12.5 67.5s19.166 31.5 32.499 31.5h33c0 44.667 6.5 83.667 19.5 117s28.667 58.833 47 76.5
s40.5 31.834 66.5 42.501c38.667 16 82.667 24 132 24c124 0 186 -20.333 186 -61c0 -44 -4.33301 -80 -13 -108s-20.334 -42 -35.001 -42c-6 0 -17.167 2.16699 -33.5 6.5s-31.833 6.5 -46.5 6.5c-38.667 0 -58 -13.333 -58 -40c0 -6.66699 1.66699 -14 5 -22h133
c18 0 27 -29.333 27 -88c0 -26 -3.83301 -49.5 -11.5 -70.5s-17.834 -31.5 -30.501 -31.5h-118z" />
    <glyph glyph-name="g" unicode="g" horiz-adv-x="659" 
d="M369 66l-0.00195312 58.001h-8c-2.66699 -3.33301 -7.33398 -7.5 -14.001 -12.5s-23.167 -11.833 -49.5 -20.5s-56 -13 -89 -13s-60.833 5 -83.5 15s-40.334 22.5 -53.001 37.5s-22.667 35.167 -30 60.5c-11.333 39.333 -17 92.666 -17 159.999
c0 77.333 16.333 136.666 49 177.999c12.667 16.667 31.5 30.834 56.5 42.501s51.833 17.5 80.5 17.5s52.334 -3.16699 71.001 -9.5s32.667 -13.833 42 -22.5c18.667 -18.667 29.334 -35 32.001 -49l1 -9h8l9 39c6.66699 28 59.334 42 158.001 42
c44 0 70.667 -6.66699 80 -20c5.33301 -8 8.66602 -15.5 9.99902 -22.5s2 -17.5 2 -31.5v-419c0 -78.667 -25.667 -138.667 -77 -180s-126.666 -62 -225.999 -62c-105.333 0 -177 10.333 -215 31c-16.667 9.33301 -25 19 -25 29c0 16 6.5 43 19.5 81s25.167 57 36.5 57
c2.66699 0 12 -2.33301 28 -7c50.667 -13.333 91.834 -20 123.501 -20s53 4 64 12s16.5 20.667 16.5 38zM328.998 192.001c7.33301 0 13.333 2.66699 18 8s7 11.333 7 18v206c-2.66699 14 -10 21 -22 21c-25.333 0 -38 -41.667 -38 -125c0 -38.667 3.16699 -69.667 9.5 -93
s14.833 -35 25.5 -35z" />
    <glyph glyph-name="h" unicode="h" horiz-adv-x="665" 
d="M360 24l0.00195312 277.996c0 50 -2 86.333 -6 109s-13.667 34 -29 34c-13.333 0 -20 -9 -20 -27v-394c0 -7.33301 -19.333 -13.166 -58 -17.499s-78.334 -6.5 -119.001 -6.5s-66.334 1.83301 -77.001 5.5s-16 9.83398 -16 18.501v693c0 14 19.333 28 58 42
s79.334 21 122.001 21c44.667 0 73 -8.33301 85 -25c4 -5.33301 6 -11 6 -17v-147l-11 -69h7c9.33301 14 24 26.333 44 37c37.333 20 78 30 122 30c63.333 0 106.166 -20.167 128.499 -60.5s33.5 -105.833 33.5 -196.5v-308c0 -7.33301 -19.5 -13.166 -58.5 -17.499
s-78.667 -6.5 -119 -6.5s-65.833 1.83301 -76.5 5.5s-16 9.83398 -16 18.501z" />
    <glyph glyph-name="i" unicode="i" horiz-adv-x="350" 
d="M310 517l-0.00195312 -493.002c0 -7.33301 -19.167 -13.166 -57.5 -17.499s-77.666 -6.5 -117.999 -6.5s-66.333 1.83301 -78 5.5s-17.5 9.83398 -17.5 18.501v475c0 14.667 18.833 29.167 56.5 43.5s78.834 21.5 123.501 21.5c60.667 0 91 -15.667 91 -47z
M173.998 779.998c44 0 78.5 -6.5 103.5 -19.5s37.5 -36.5 37.5 -70.5c0 -60 -46.667 -90 -140 -90s-140 30 -140 90s46.333 90 139 90z" />
    <glyph glyph-name="j" unicode="j" horiz-adv-x="400" 
d="M304.5 -94c-37 -40.667 -87.833 -61 -152.5 -61s-106.167 6.16699 -124.5 18.5s-27.5 40 -27.5 83s8.33301 65.5 25 67.5c23.333 3.33301 39.833 9.33301 49.5 18s14.5 24.667 14.5 48v419c0 14.667 18.833 29.167 56.5 43.5s78.5 21.5 122.5 21.5
c61.333 0 92 -15.667 92 -47v-427c0 -82 -18.5 -143.333 -55.5 -184zM225 600c-93.333 0 -140.001 30.334 -140.001 91.001c0 34 12.5 57.333 37.5 70s59.833 19 104.5 19s78.834 -5.83301 102.501 -17.5s35.5 -34.834 35.5 -69.501c0 -62 -46.667 -93 -140 -93z" />
    <glyph glyph-name="k" unicode="k" horiz-adv-x="636" 
d="M249 6.5c-37.333 -4.33301 -76.333 -6.50195 -117 -6.50195s-67 1.83301 -79 5.5s-18 9.83398 -18 18.501v692c0 14.667 18.833 29 56.5 43s78.167 21 121.5 21c61.333 0 92 -15.333 92 -46v-374h13c32 152.667 55.667 229 71 229c38.667 0 85.334 -9 140.001 -27
s82 -38 82 -60c0 -16 -13.333 -46.667 -40 -92s-54.334 -82.333 -83.001 -111c95.333 -114 143 -181.667 143 -203c0 -20 -30.333 -44.333 -91 -73s-103.334 -43 -128.001 -43c-12 0 -24.667 14.5 -38 43.5s-27.666 72.5 -42.999 130.5l-26 -31v-99
c0 -7.33301 -18.667 -13.166 -56 -17.499z" />
    <glyph glyph-name="l" unicode="l" horiz-adv-x="340" 
d="M305 734v-710.002c0 -7.33301 -19 -13.166 -57 -17.499s-77.167 -6.5 -117.5 -6.5s-66.333 1.83301 -78 5.5s-17.5 9.83398 -17.5 18.501v692c0 14.667 18.833 29 56.5 43s78.167 21 121.5 21c61.333 0 92 -15.333 92 -46z" />
    <glyph glyph-name="m" unicode="m" horiz-adv-x="981" 
d="M946 330l0.000976562 -306.006c0 -7.33301 -18.833 -13.166 -56.5 -17.499s-76.667 -6.5 -117 -6.5s-66.5 1.83301 -78.5 5.5s-18 9.83398 -18 18.501v277c0 95.333 -9.66699 143 -29 143c-4.66699 0 -9.33398 -2 -14.001 -6s-7 -11 -7 -21v-393
c0 -7.33301 -18.833 -13.166 -56.5 -17.499s-76.834 -6.5 -117.501 -6.5s-66.834 1.83301 -78.501 5.5s-17.5 9.83398 -17.5 18.501v277c0 74 -4.66699 118.333 -14 133c-4.66699 6.66699 -10.667 10 -18 10c-12.667 0 -19 -9 -19 -27v-393
c0 -7.33301 -19 -13.166 -57 -17.499s-77.167 -6.5 -117.5 -6.5s-66.333 1.83301 -78 5.5s-17.5 9.83398 -17.5 18.501v493c0 14 19.167 28 57.5 42s78.833 21 121.5 21s66.667 -12.333 72 -37l9 -44h7c19.333 38 51.333 65 96 81c18.667 6 42.667 9 72 9
c58.667 0 101.334 -30 128.001 -90c8.66699 20 30.334 40 65.001 60s73 30 115 30c66 0 110.5 -20.5 133.5 -61.5s34.5 -106.833 34.5 -197.5z" />
    <glyph glyph-name="n" unicode="n" horiz-adv-x="673" 
d="M638 332l0.00195312 -308.004c0 -7.33301 -19 -13.166 -57 -17.499s-77.167 -6.5 -117.5 -6.5s-66.333 1.83301 -78 5.5s-17.5 9.83398 -17.5 18.501v318c0 30 -1.16699 49.667 -3.5 59l-6.5 25c-4.66699 12.667 -13 19 -25 19c-18.667 0 -28 -9 -28 -27v-394
c0 -7.33301 -18.833 -13.166 -56.5 -17.499s-76.667 -6.5 -117 -6.5s-66.5 1.83301 -78.5 5.5s-18 9.83398 -18 18.501v493c0 14 19.167 28 57.5 42s78.833 21 121.5 21s66.667 -12.333 72 -37l9 -44h7c19.333 38.667 52.666 65.667 99.999 81c19.333 6 40.666 9 63.999 9
c67.333 0 112.833 -20.167 136.5 -60.5s35.5 -105.833 35.5 -196.5z" />
    <glyph glyph-name="o" unicode="o" horiz-adv-x="685" 
d="M343 -9c-50 0 -93 4.33301 -129 13s-68.667 24 -98 46c-60.667 44 -91 126 -91 246c0 106.667 31 183 93 229c58 42.667 133 64 225 64c39.333 0 73 -1.83301 101 -5.5s56.5 -11.5 85.5 -23.5s52.333 -28.333 70 -49s32.167 -49.167 43.5 -85.5s17 -79.5 17 -129.5
c0 -101.333 -28.667 -177.5 -86 -228.5s-134.333 -76.5 -231 -76.5zM322.5 143c5 -4.66699 11.666 -7.00098 19.999 -7.00098s15 2.33301 20 7s9.66699 19 14 43s6.5 54.167 6.5 90.5s-0.833008 64.333 -2.5 84s-3.66699 34.834 -6 45.501s-5.5 19 -9.5 25
c-6 8.66699 -13.167 13 -21.5 13s-15.166 -2.5 -20.499 -7.5s-10.333 -19.667 -15 -44s-7 -58.833 -7 -103.5s2.33301 -79 7 -103s9.5 -38.333 14.5 -43z" />
    <glyph glyph-name="p" unicode="p" horiz-adv-x="663" 
d="M35 -121l-0.00292969 636.001c0 14 18.667 28.333 56 43s77.666 22 120.999 22c20 0 35.667 -2.33301 47 -7s18.333 -9.33398 21 -14.001s7.66699 -24.667 15 -60h8c1.33301 6 7.33301 15.333 18 28s21.5 23 32.5 31s26.833 15.167 47.5 21.5s44.834 9.5 72.501 9.5
s52.834 -6.16699 75.501 -18.5s39.5 -26.666 50.5 -42.999s19.667 -37 26 -62s10 -45 11 -60s1.5 -36.667 1.5 -65s-1 -56.333 -3 -84s-5.66699 -55.834 -11 -84.501s-13 -53.334 -23 -74.001s-22.667 -39.334 -38 -56.001c-30.667 -33.333 -75.667 -50 -135 -50
c-21.333 0 -40.166 3.16699 -56.499 9.5s-28.5 13.833 -36.5 22.5c-16.667 18 -26.334 34 -29.001 48l-1 10h-8l14 -90v-113c0 -7.33301 -19.167 -13.166 -57.5 -17.499s-77.666 -6.5 -117.999 -6.5s-67.166 1.83301 -80.499 5.5s-20 9.83398 -20 18.501zM357.997 412.001
c-6 22.667 -15 33.999 -27 33.999s-20.667 -6.66699 -26 -20v-262c0 -17.333 9 -26 27 -26c23.333 0 35 51.667 35 155c0 56.667 -3 96.334 -9 119.001z" />
    <glyph glyph-name="q" unicode="q" horiz-adv-x="663" 
d="M287.5 -0.5c-17.667 -5 -40.833 -7.50098 -69.5 -7.50098s-55.667 5.5 -81 16.5s-45 24.833 -59 41.5s-25.333 38 -34 64c-12.667 40 -19 90.333 -19 151c0 115.333 26.5 198.166 79.5 248.499s138.833 75.5 257.5 75.5c66 0 113.333 -2.33301 142 -7s51.667 -9 69 -13
c36.667 -8.66699 55 -22.667 55 -42v-648c0 -7.33301 -18.5 -13.166 -55.5 -17.499s-82.167 -6.5 -135.5 -6.5s-80 8 -80 24v113l12 69h-8c0 -5.33301 -3.33301 -12.666 -10 -21.999s-14.5 -17 -23.5 -23s-22.333 -11.5 -40 -16.5zM328.001 443.999
c-21.333 0 -32 -51 -32 -153s11.333 -153 34 -153c5.33301 0 11.333 1.66699 18 5s10 8 10 14v283c-4.66699 2.66699 -14.667 4 -30 4z" />
    <glyph glyph-name="r" unicode="r" horiz-adv-x="586" 
d="M305 316l0.00292969 -292.003c0 -7.33301 -18.833 -13.166 -56.5 -17.499s-76.667 -6.5 -117 -6.5s-66.5 1.83301 -78.5 5.5s-18 9.83398 -18 18.501v493c0 12.667 18.5 26.334 55.5 41.001s77.333 22 121 22s68.167 -12 73.5 -36l10 -46h7
c9.33301 25.333 31.666 46.833 66.999 64.5s70.666 26.5 105.999 26.5s60.166 -5.66699 74.499 -17s21.5 -25.833 21.5 -43.5s-1.33301 -40.167 -4 -67.5s-9.16699 -57 -19.5 -89s-23.833 -48 -40.5 -48c-6.66699 0 -27.667 5 -63 15s-64.5 15 -87.5 15
s-37.333 -3.33301 -43 -10s-8.5 -16 -8.5 -28z" />
    <glyph glyph-name="s" unicode="s" horiz-adv-x="611" 
d="M307 -9c-110.667 0 -191.666 10.667 -242.999 32c-26 11.333 -39 22.333 -39 33c0 27.333 8 59.333 24 96s30 55 42 55c6.66699 0 29.167 -7.33301 67.5 -22s70.666 -22 96.999 -22s43.666 1.66699 51.999 5s12.5 9.83301 12.5 19.5s-6.66699 17.334 -20 23.001
s-30 9.5 -50 11.5s-41.5 6 -64.5 12s-44.5 13.667 -64.5 23s-36.667 24.833 -50 46.5s-20 45 -20 70s0.666992 43.667 2 56s6.83301 29.666 16.5 51.999s23.334 40.5 41.001 54.5s45 26.667 82 38s78.5 17 124.5 17s84.5 -1.5 115.5 -4.5s55.333 -6.83301 73 -11.5
s32.167 -10 43.5 -16c19.333 -10 29 -21 29 -33c0 -26 -9.33301 -56 -28 -90s-33.5 -51 -44.5 -51s-34.833 5.83301 -71.5 17.5s-63.667 17.5 -81 17.5c-28 0 -42 -8 -42 -24c0 -10 9.5 -17.5 28.5 -22.5s41.833 -10.167 68.5 -15.5s53.5 -12.833 80.5 -22.5
s50 -27.167 69 -52.5s28.5 -57.333 28.5 -96c0 -130.667 -93 -196 -279 -196z" />
    <glyph glyph-name="t" unicode="t" horiz-adv-x="482" 
d="M346 -8c-42.667 0 -78.001 2.83105 -106.001 8.49805s-54.667 16.834 -80 33.501c-48.667 32.667 -73 100.667 -73 204v156h-50c-7.33301 0 -13.666 7.66699 -18.999 23s-8 36.333 -8 63s4.16699 50.167 12.5 70.5s19.166 30.5 32.499 30.5h32v121
c0 20.667 20.167 37.334 60.5 50.001s79.833 19 118.5 19c60.667 0 91 -15 91 -45v-145h74c17.333 0 26 -25 26 -75c0 -32.667 -3.83301 -59.5 -11.5 -80.5s-17.5 -31.5 -29.5 -31.5h-59v-183c0 -18 7.66699 -30.833 23 -38.5s28.833 -11.5 40.5 -11.5
s18.834 -5.66699 21.501 -17s4 -28.333 4 -51c0 -44.667 -6 -72.667 -18 -84s-39.333 -17 -82 -17z" />
    <glyph glyph-name="u" unicode="u" horiz-adv-x="678" 
d="M236 -9c-74.667 0 -126.833 19.334 -156.5 58.001s-44.5 106 -44.5 202v272c0 13.333 19.667 26.166 59 38.499s80.666 18.5 123.999 18.5c58 0 87 -15 87 -45v-254c0 -50.667 2 -87.5 6 -110.5s14 -34.5 30 -34.5c21.333 0 32 9 32 27v360c0 14 20.667 27 62 39
s86.333 18 135 18s73 -13 73 -39v-515c0 -9.33301 -21 -16 -63 -20s-83.333 -6 -124 -6s-61.334 5.33301 -62.001 16l-10 65h-8c-6 -24 -18 -43.667 -36 -59c-9.33301 -8 -23.166 -15.167 -41.499 -21.5s-39.166 -9.5 -62.499 -9.5z" />
    <glyph glyph-name="v" unicode="v" horiz-adv-x="679" 
d="M5 509c0 6.66699 9.66797 15.498 29.001 26.498s45.666 21.167 78.999 30.5s66 14 98 14c64.667 0 98 -15.667 100 -47l25 -318h13l22 302c1.33301 16.667 24.333 31.334 69 44.001s84 19 118 19s59.5 -3 76.5 -9s27.833 -12.167 32.5 -18.5s7 -11.833 7 -16.5
s-14.167 -39 -42.5 -103s-84.833 -200.333 -169.5 -409c-6.66699 -16 -61 -24 -163 -24c-32 0 -53 1.83301 -63 5.5s-16.667 9.83398 -20 18.501c-46 116 -92.667 225.167 -140 327.5s-71 154.833 -71 157.5z" />
    <glyph glyph-name="w" unicode="w" horiz-adv-x="983" 
d="M794 24c-8.66699 -16 -53.834 -24.002 -135.501 -24.002s-124.167 8 -127.5 24l-34 182h-14l-32 -182c-2 -16 -60.333 -24 -175 -24c-32 0 -53.167 1.83301 -63.5 5.5s-17.5 9.83398 -21.5 18.501c-124 304.667 -186 465 -186 481s24.167 32.5 72.5 49.5
s94.833 25.5 139.5 25.5c57.333 0 87 -15.333 89 -46l34 -274h12l12 221c0.666992 16.667 17.667 31.334 51 44.001s67 19 101 19s59.5 -4.16699 76.5 -12.5s25.833 -18.5 26.5 -30.5l11 -241h11l33 257c2 16 24.5 30.5 67.5 43.5s80.833 19.5 113.5 19.5
s58.334 -4.66699 77.001 -14c30.667 -14.667 46 -32 46 -52c0 -2 -30.167 -83.333 -90.5 -244s-91.5 -242.667 -93.5 -246z" />
    <glyph glyph-name="x" unicode="x" horiz-adv-x="679" 
d="M306 38c-5.33301 -25.333 -34.999 -37.999 -88.999 -37.999s-102.833 3.16699 -146.5 9.5s-65.5 16.166 -65.5 29.499c0 8 14 33 42 75s70.333 101 127 177c-106.667 145.333 -160 221.333 -160 228c0 12.667 23.333 26 70 40s86 21 118 21s56.833 -3.83301 74.5 -11.5
s27.5 -16.167 29.5 -25.5l44 -153h9l16 144c0.666992 4 8.5 9.5 23.5 16.5s35.167 13.667 60.5 20s49.666 9.5 72.999 9.5c88 0 132 -15 132 -45c0 -9.33301 -13 -35.5 -39 -78.5s-65 -102.833 -117 -179.5c110.667 -150 166 -229.333 166 -238c0 -26 -37.667 -39 -113 -39
c-116.667 0 -177.667 12.667 -183 38l-39 131h-7z" />
    <glyph glyph-name="y" unicode="y" horiz-adv-x="661" 
d="M372 65l0.00195312 59.001h-8c-3.33301 -3.33301 -8.33301 -7.66602 -15 -12.999s-22.334 -12.333 -47.001 -21s-52.167 -13 -82.5 -13s-57 4.83301 -80 14.5s-41.167 22.667 -54.5 39s-23.666 38.166 -30.999 65.499c-12.667 43.333 -19 104.666 -19 183.999v138
c0 14 19.667 27.833 59 41.5s80.666 20.5 123.999 20.5c58 0 87 -15 87 -45v-126c0 -133.333 10.667 -200 32 -200c12.667 0 19 9 19 27v282c0 14 21 27.833 63 41.5s87 20.5 135 20.5s72 -13 72 -39v-473c0 -148.667 -100.667 -223 -302 -223c-106 0 -178 10.333 -216 31
c-16.667 9.33301 -25 19 -25 29c0 16 6.66699 42.833 20 80.5s25.666 56.5 36.999 56.5c2.66699 0 12 -2 28 -6c49.333 -13.333 90.5 -20 123.5 -20s54.667 3.66699 65 11s15.5 20 15.5 38z" />
    <glyph glyph-name="z" unicode="z" horiz-adv-x="576" 
d="M531 428c0 -9.33301 -13.8311 -34.167 -41.498 -74.5s-69.167 -95.833 -124.5 -166.5h161c16.667 0 25 -23.333 25 -70c0 -30.667 -4.33301 -57.834 -13 -81.501s-19.334 -35.5 -32.001 -35.5h-431c-18 0 -30.833 15.833 -38.5 47.5s-11.5 65.834 -11.5 102.501
c0 8 15.5 32.167 46.5 72.5s77.5 97.166 139.5 170.499h-153c-16.667 0 -25 23.333 -25 70c0 30.667 4.16699 57.834 12.5 81.501s19.166 35.5 32.499 35.5h405c32 0 48 -50.667 48 -152z" />
    <glyph glyph-name="braceleft" unicode="{" horiz-adv-x="466" 
d="M412 711.5c6 -5 8.99805 -21.334 8.99805 -49.001s-5.16699 -51.667 -15.5 -72s-24.166 -30.5 -41.499 -30.5c-26 0 -43.167 -11.333 -51.5 -34s-12.5 -52.5 -12.5 -89.5s-2.16699 -63 -6.5 -78s-9.5 -27.167 -15.5 -36.5c-12.667 -17.333 -27 -30.333 -43 -39
c42.667 -28.667 64 -75 64 -139c0 -49.333 4.5 -83.833 13.5 -103.5s25.5 -29.5 49.5 -29.5c39.333 0 59 -38 59 -114c0 -14.667 -3.83301 -26.334 -11.5 -35.001s-21 -13 -40 -13s-36.5 0.833008 -52.5 2.5s-36.5 4.66699 -61.5 9s-47.5 12 -67.5 23
s-39.333 24.833 -58 41.5c-40.667 35.333 -61 89.333 -61 162c0 74.667 -7 117.667 -21 129c-5.33301 4.66699 -11 8 -17 10c-14 3.33301 -21 23.333 -21 60c0 36 5.33301 54.667 16 56c20.667 3.33301 33.334 22.666 38.001 57.999c3.33301 20.667 5 48.334 5 83.001
s5.33301 65.834 16 93.501s25.5 49.834 44.5 66.501s38.5 30.5 58.5 41.5s42.667 18.833 68 23.5c44 7.33301 79.5 11 106.5 11s43.5 -2.5 49.5 -7.5z" />
    <glyph glyph-name="bar" unicode="|" horiz-adv-x="280" 
d="M235 669v-770c0 -29.333 -45.333 -44 -136 -44c-36 0 -54 14.667 -54 44v752c0 39.333 42.667 59 128 59c41.333 0 62 -13.667 62 -41z" />
    <glyph glyph-name="braceright" unicode="}" horiz-adv-x="466" 
d="M60.5 590.5c-10.333 20.333 -15.5 44.334 -15.5 72.001s3 44 9 49s19.333 7.5 40 7.5s39 -0.833008 55 -2.5s36.5 -4.66699 61.5 -9s47.5 -12 67.5 -23s39.333 -24.833 58 -41.5c40.667 -35.333 61 -89.333 61 -162c0 -73.333 7.66699 -116.333 23 -129
c4 -3.33301 8.16699 -5.5 12.5 -6.5s8.16602 -2.83301 11.499 -5.5c8 -6.66699 12 -22.834 12 -48.501s-2 -42.667 -6 -51s-8.83301 -13.333 -14.5 -15s-11.5 -4.83398 -17.5 -9.50098c-14 -10.667 -21 -53.667 -21 -129c0 -72.667 -20.167 -126.667 -60.5 -162
s-82.5 -57 -126.5 -65c-44 -7.33301 -78.667 -11 -104 -11s-41.833 4.33301 -49.5 13s-11.5 20.334 -11.5 35.001c0 76 19.667 114 59 114c24 0 40.5 9.83301 49.5 29.5s13.5 46.834 13.5 81.501s2.33301 60.5 7 77.5s10 30.5 16 40.5c13.333 19.333 27 33.666 41 42.999
c-4.66699 1.33301 -11.5 6.16602 -20.5 14.499s-16.5 16.5 -22.5 24.5c-14.667 22.667 -22 51.334 -22 86.001c0 56 -4.16699 95.333 -12.5 118s-25.5 34 -51.5 34c-17.333 0 -31.166 10.167 -41.499 30.5z" />
    <glyph glyph-name="asciitilde" unicode="~" horiz-adv-x="561" 
d="M469.5 642c-34.333 -21.333 -64.333 -32.001 -90 -32.001s-56.334 5.83301 -92.001 17.5s-58.667 17.5 -69 17.5s-30.166 -5.83301 -59.499 -17.5s-50 -17.5 -62 -17.5s-24.5 11.833 -37.5 35.5s-19.5 41.834 -19.5 54.501c0 11.333 18.167 27.5 54.5 48.5
s66.5 31.5 90.5 31.5s53.5 -5.66699 88.5 -17s60.167 -17 75.5 -17c4.66699 0 21.167 5.66699 49.5 17s49 17 62 17s26.333 -12.333 40 -37s20.5 -42.667 20.5 -54c0 -10 -17.167 -25.667 -51.5 -47z" />
    <glyph glyph-name="exclamdown" unicode="&#xa1;" horiz-adv-x="332" 
d="M244 -138.5c-38.667 -4.33301 -84.001 -6.5 -136.001 -6.5s-78 7.66699 -78 23c10.667 262.667 16.834 401.167 18.501 415.5s14 28.166 37 41.499s55.5 20 97.5 20c58 0 88.333 -15.667 91 -47l27 -429c0.666992 -7.33301 -18.333 -13.166 -57 -17.499zM74.499 569.5
c21.667 13 52 19.501 91 19.501s68.833 -5.83301 89.5 -17.5s31 -35.834 31 -72.501c0 -60 -40.667 -90 -122 -90s-122 30 -122 90c0 34 10.833 57.5 32.5 70.5z" />
    <glyph glyph-name="cent" unicode="&#xa2;" horiz-adv-x="545" 
d="M400 -53c0 -29.333 -45.333 -44.001 -136 -44.001c-36 0 -54 14.667 -54 44v54c-123.333 30 -185 126 -185 288s61.667 258.333 185 289v40c0 39.333 42.667 59 128 59c41.333 0 62 -13.667 62 -41v-50c45.333 -3.33301 77.5 -11.166 96.5 -23.499s28.5 -31.333 28.5 -57
s-5.16699 -54.667 -15.5 -87s-23.833 -48.5 -40.5 -48.5c-5.33301 0 -21.5 5.66699 -48.5 17s-50.333 17 -70 17s-34.667 -7.83301 -45 -23.5s-15.5 -46 -15.5 -91s4.66699 -75.667 14 -92s23.833 -24.5 43.5 -24.5s44.167 6.66699 73.5 20s45.666 20 48.999 20
c12.667 0 24.834 -15 36.501 -45s17.5 -56.667 17.5 -80c0 -51.333 -41.333 -82 -124 -92v-49z" />
    <glyph glyph-name="sterling" unicode="&#xa3;" horiz-adv-x="594" 
d="M97 257c0 14.667 -2.33301 28.998 -7 42.998h-53c-8.66699 0 -15.334 8.83301 -20.001 26.5s-7 38 -7 61s2.83301 43.333 8.5 61s11.667 29 18 34s12.833 7.5 19.5 7.5h32c0 52.667 8 98.5 24 137.5s38 69.167 66 90.5c53.333 41.333 114.5 62 183.5 62
s115.833 -5.83301 140.5 -17.5s37 -28.167 37 -49.5c0 -36.667 -4.33301 -70 -13 -100s-19.667 -45 -33 -45c-8 0 -19.667 2.33301 -35 7s-30.333 7 -45 7s-26.667 -7.66699 -36 -23s-14.666 -30.666 -15.999 -45.999l-2 -23h133c6.66699 0 12.667 -5.83301 18 -17.5
s8 -26.5 8 -44.5c0 -85.333 -15 -128 -45 -128h-117c0 -42.667 -13.333 -71 -40 -85v-6c126.667 6.66699 201 10 223 10c16.667 0 25 -28.333 25 -85c0 -49.333 -3 -81.333 -9 -96c-10 -23.333 -17.667 -35.666 -23 -36.999l-3 -1h-465c-32.667 0 -49 30.667 -49 92
c0 74.667 11.667 112 35 112c31.333 0 47 17.667 47 53z" />
    <glyph glyph-name="currency" unicode="&#xa4;" horiz-adv-x="721" 
d="M500 14c-42.667 -15.333 -90.166 -23.002 -142.499 -23.002s-99.833 7.66699 -142.5 23l-44 -44c-8 -7.33301 -17.833 -11 -29.5 -11s-26.167 8.66699 -43.5 26c-41.333 42 -62 75.667 -62 101c0 12 4.33301 22.333 13 31l22 22c-21.333 44 -32 96.167 -32 156.5
s10 110.5 30 150.5l-20 20c-8.66699 8.66699 -13 19 -13 31c0 26 20.667 59.667 62 101c17.333 17.333 34.333 26 51 26c8.66699 0 16 -3.66699 22 -11l44 -45c43.333 14 91.666 21 144.999 21s100.333 -6.66699 141 -20l42 42c9.33301 9.33301 19.666 14 30.999 14
s24 -7 38 -21c48.667 -48.667 73 -84.667 73 -108c0 -7.33301 -2.66699 -13.666 -8 -18.999l-32 -32c19.333 -42 29 -92 29 -150s-10.667 -109.333 -32 -154l35 -35c5.33301 -5.33301 8 -11.666 8 -18.999c0 -23.333 -24.333 -59.333 -73 -108c-14 -14 -26.667 -21 -38 -21
s-21.666 4.66699 -30.999 14zM357.001 135.998c40 0 60 51.333 60 154s-20 154 -60 154c-41.333 0 -62 -51.333 -62 -154s20.667 -154 62 -154z" />
    <glyph glyph-name="yen" unicode="&#xa5;" horiz-adv-x="698" 
d="M547 78l-60 -0.000976562v-49c0 -8.66699 -20.333 -15.667 -61 -21s-81.167 -8 -121.5 -8s-66.5 2.16699 -78.5 6.5s-18 11.833 -18 22.5v49h-96c-10 0 -15 13.667 -15 41c0 13.333 4.16699 26.666 12.5 39.999s16.5 20 24.5 20h74v39h-76c-10 0 -15 13.333 -15 40
c0 14 4.16699 27.833 12.5 41.5s16.5 20.5 24.5 20.5h31c-116.667 194.667 -175 302.334 -175 323.001c0 14 22.333 28.667 67 44s91.667 23 141 23c63.333 0 97 -18.667 101 -56l27 -269h11l19 262c1.33301 18.667 25 33.834 71 45.501s89.667 17.5 131 17.5s70 -6 86 -18
s24 -24.5 24 -37.5s-60 -124.5 -180 -334.5h79c10 0 15 -12.333 15 -37c0 -12.667 -4 -26.667 -12 -42s-15.667 -23 -23 -23h-80v-39h80c10 0 15 -12.333 15 -37c0 -12.667 -4.16699 -26.5 -12.5 -41.5s-15.833 -22.5 -22.5 -22.5z" />
    <glyph glyph-name="brokenbar" unicode="&#xa6;" horiz-adv-x="280" 
d="M235 669v-302c0 -29.333 -45.333 -44 -136 -44c-36 0 -54 14.667 -54 44v284c0 39.333 42.667 59 128 59c41.333 0 62 -13.667 62 -41zM235 202v-302c0 -29.333 -45.333 -44 -136 -44c-36 0 -54 14.667 -54 44v284c0 39.333 42.667 59 128 59c41.333 0 62 -13.667 62 -41
z" />
    <glyph glyph-name="section" unicode="&#xa7;" horiz-adv-x="579" 
d="M291 -106c-103.333 0 -180.997 12.002 -232.997 36.002c-25.333 11.333 -38 22.666 -38 33.999c0 27.333 7.66699 59.166 23 95.499s28.666 54.5 39.999 54.5c6.66699 0 28.5 -8.16699 65.5 -24.5s68.167 -24.5 93.5 -24.5s41.833 1.66699 49.5 5s11.5 9.83301 11.5 19.5
s-6.33301 17.334 -19 23.001s-28.667 9.5 -48 11.5s-40 6 -62 12s-42.667 13.667 -62 23s-35.333 24.833 -48 46.5s-19 48.5 -19 80.5c0 74 23.333 127.333 70 160c-46.667 24.667 -70 67.667 -70 129c0 46 7 81.667 21 107c6.66699 10.667 16.5 22.667 29.5 36
s28.5 24.333 46.5 33c41.333 20 97 30 167 30c104 0 175.667 -10.667 215 -32c18 -10 27 -21 27 -33c0 -26 -8.83301 -55.833 -26.5 -89.5s-31.834 -50.5 -42.501 -50.5s-31.334 5.83301 -62.001 17.5s-53.667 17.5 -69 17.5c-37.333 0 -56 -8 -56 -24s23 -27 69 -33
c42.667 -4.66699 84.667 -18.334 126 -41.001c20 -10.667 36.5 -27.667 49.5 -51s19.5 -51.333 19.5 -84c0 -68 -25 -118.333 -75 -151c50 -30 75 -76 75 -138c0 -130 -89.333 -195 -268 -195zM308.003 352.002c-42.667 0 -64 -10.667 -64 -32
c9.33301 -12 27.333 -18 54 -18c42.667 0 64 10.667 64 32c-9.33301 12 -27.333 18 -54 18z" />
    <glyph glyph-name="dieresis" unicode="&#xa8;" horiz-adv-x="570" 
d="M146 600c-34.667 0 -60.998 6.5 -78.998 19.5s-27 37 -27 72s9.16699 58.5 27.5 70.5s44.666 18 78.999 18s60.666 -6 78.999 -18s27.5 -35.5 27.5 -70.5s-9.16699 -59 -27.5 -72s-44.833 -19.5 -79.5 -19.5zM423.002 600c-34.667 0 -60.998 6.5 -78.998 19.5
s-27 37 -27 72s9.16699 58.5 27.5 70.5s44.666 18 78.999 18s60.666 -6 78.999 -18s27.5 -35.5 27.5 -70.5s-9.16699 -59 -27.5 -72s-44.833 -19.5 -79.5 -19.5z" />
    <glyph glyph-name="copyright" unicode="&#xa9;" horiz-adv-x="685" 
d="M471 4c-36 -8.66699 -78.832 -13 -128.499 -13s-92.5 4.33301 -128.5 13s-68.667 24 -98 46c-60.667 44 -91 126 -91 246c0 96 20.333 167.667 61 215c17.333 20.667 40.5 37 69.5 49s57.667 19.833 86 23.5s62.166 5.5 101.499 5.5s73 -1.83301 101 -5.5
s56.5 -11.5 85.5 -23.5s52.333 -28.333 70 -49s32.167 -49.167 43.5 -85.5s17 -82.166 17 -137.499s-7.66699 -103.5 -23 -144.5s-37.833 -72.333 -67.5 -94s-62.5 -36.834 -98.5 -45.501zM169.001 119c40 -32 97.832 -47.998 173.499 -47.998s133.334 16 173.001 48
s59.5 90.667 59.5 176c0 91.333 -23 150.666 -69 177.999c-23.333 14 -47.333 23.5 -72 28.5s-53.167 7.5 -85.5 7.5s-59 -1.33301 -80 -4s-42.167 -8.33398 -63.5 -17.001s-38.333 -20.667 -51 -36c-30 -34.667 -45 -87 -45 -157c0 -85.333 20 -144 60 -176zM340 148.002
c-24.667 0 -50.665 6.66699 -77.998 20c-16 8.66699 -29.167 23.667 -39.5 45s-15.5 48 -15.5 80c0 98.667 48 148 144 148c63.333 0 95 -12.333 95 -37c0 -12 -2.33301 -25.5 -7 -40.5s-11.334 -22.5 -20.001 -22.5c-2.66699 0 -12.667 2.16699 -30 6.5
s-29.833 6.5 -37.5 6.5s-14.667 -5.16699 -21 -15.5s-9.5 -25.5 -9.5 -45.5c0 -40 10.333 -60 31 -60c6.66699 0 18.667 2.66699 36 8s27.666 8 30.999 8c8 0 14.333 -7.5 19 -22.5s7 -28.167 7 -39.5c0 -26 -35 -39 -105 -39z" />
    <glyph glyph-name="ordfeminine" unicode="&#xaa;" horiz-adv-x="332" 
d="M91 464c-31.333 0 -51.833 1.99902 -61.5 5.99902s-14.5 7.16699 -14.5 9.5s3 13.833 9 34.5c18 66 38 128 60 186c0.666992 2.66699 15.667 5 45 7s56 3 80 3s37.667 -3.33301 41 -10c22.667 -61.333 39.5 -112.666 50.5 -153.999s16.5 -63 16.5 -65
c0 -11.333 -20.5 -17 -61.5 -17s-61.833 5 -62.5 15l-3 23h-47l-2 -20c-2 -12 -18.667 -18 -50 -18zM181 567.999l-6 61h-17l-7 -61h30z" />
    <glyph glyph-name="guillemotleft" unicode="&#xab;" horiz-adv-x="716" 
d="M255 288c78 -160 117.002 -248.001 117.002 -264.001s-18 -24 -54 -24s-64.833 1.83301 -86.5 5.5s-36 7.83398 -43 12.501s-16 13.667 -27 27s-38.167 53.5 -81.5 120.5s-65 107.833 -65 122.5s23 55 69 121l52.5 75c18.333 26 29.666 42.333 33.999 49
s9.66602 13 15.999 19s21 12.167 44 18.5s52.333 9.5 88 9.5s53.5 -11.667 53.5 -35c0 -14 -39 -99.667 -117 -257zM569.002 287.999c78 -160 117.002 -248.001 117.002 -264.001s-18 -24 -54 -24s-64.833 1.83301 -86.5 5.5s-36 7.83398 -43 12.501s-16 13.667 -27 27
s-38.167 53.5 -81.5 120.5s-65 107.833 -65 122.5s23 55 69 121l52.5 75c18.333 26 29.666 42.333 33.999 49s9.66602 13 15.999 19s21 12.167 44 18.5s52.333 9.5 88 9.5s53.5 -11.667 53.5 -35c0 -14 -39 -99.667 -117 -257z" />
    <glyph glyph-name="logicalnot" unicode="&#xac;" horiz-adv-x="553" 
d="M525 308l0.000976562 -205.001c0 -7.33301 -13.333 -13 -40 -17s-55.834 -6 -87.501 -6s-47.5 5 -47.5 15v95h-287c-22 0 -33 21 -33 63c0 28.667 7 54.834 21 78.501s28.667 35.5 44 35.5h403c18 0 27 -19.667 27 -59z" />
    <glyph glyph-name="uni00AD" unicode="&#xad;" horiz-adv-x="833" 
 />
    <glyph glyph-name="registered" unicode="&#xae;" horiz-adv-x="685" 
d="M471 4c-36 -8.66699 -78.832 -13 -128.499 -13s-92.5 4.33301 -128.5 13s-68.667 24 -98 46c-60.667 44 -91 126 -91 246c0 96 20.333 167.667 61 215c17.333 20.667 40.5 37 69.5 49s57.667 19.833 86 23.5s62.166 5.5 101.499 5.5s73 -1.83301 101 -5.5
s56.5 -11.5 85.5 -23.5s52.333 -28.333 70 -49s32.167 -49.167 43.5 -85.5s17 -82.166 17 -137.499s-7.66699 -103.5 -23 -144.5s-37.833 -72.333 -67.5 -94s-62.5 -36.834 -98.5 -45.501zM169.001 119c40 -32 97.832 -47.998 173.499 -47.998s133.334 16 173.001 48
s59.5 90.667 59.5 176c0 91.333 -23 150.666 -69 177.999c-23.333 14 -47.333 23.5 -72 28.5s-53.167 7.5 -85.5 7.5s-59 -1.33301 -80 -4s-42.167 -8.33398 -63.5 -17.001s-38.333 -20.667 -51 -36c-30 -34.667 -45 -87 -45 -157c0 -85.333 20 -144 60 -176zM329 162.002
c0 -7.33301 -16.834 -11.001 -50.501 -11.001s-50.5 3.66699 -50.5 11v255c0 4.66699 2 8.33398 6 11.001c8.66699 5.33301 39.167 8 91.5 8s89.5 -6.16699 111.5 -18.5s33 -39 33 -80s-15 -69.833 -45 -86.5c35.333 -40.667 53 -67.5 53 -80.5s-23.667 -19.5 -71 -19.5
c-16.667 0 -27.167 0.666992 -31.5 2s-7.16602 4.33301 -8.49902 9l-31 73l-7 1v-74zM328.999 306.001h11.999c8.66699 0 15.334 2 20.001 6s7 12.667 7 26c0 20.667 -8 31 -24 31h-15v-63z" />
    <glyph glyph-name="macron" unicode="&#xaf;" horiz-adv-x="553" 
d="M462 610h-405.001c-7.33301 0 -13.666 6.16699 -18.999 18.5s-8 28.833 -8 49.5s7.5 41.167 22.5 61.5s29.167 30.5 42.5 30.5h402c17.333 0 26 -21.667 26 -65c0 -21.333 -7 -42.5 -21 -63.5s-27.333 -31.5 -40 -31.5z" />
    <glyph glyph-name="degree" unicode="&#xb0;" horiz-adv-x="375" 
d="M293 491.5c-24.667 -18.333 -59.832 -27.5 -105.499 -27.5s-80.834 9.16699 -105.501 27.5s-37 51.333 -37 99s12.333 79.5 37 95.5s59.667 24 105 24s80.5 -8 105.5 -24s37.5 -47.833 37.5 -95.5s-12.333 -80.667 -37 -99zM149.002 587c0 -22.667 12.833 -34 38.5 -34
s38.5 11.333 38.5 34c0 13.333 -3.33301 22.166 -10 26.499s-15.167 6.5 -25.5 6.5s-17.833 -0.666992 -22.5 -2c-12.667 -3.33301 -19 -13.666 -19 -30.999z" />
    <glyph glyph-name="plusminus" unicode="&#xb1;" horiz-adv-x="553" 
d="M253 217c-43.333 0 -64.999 8.66504 -64.999 25.998v133h-131c-7.33301 0 -13.666 6.16699 -18.999 18.5s-8 30 -8 53s7.33301 46.333 22 70s29 35.5 43 35.5h93v112c0 12.667 11.167 23.334 33.5 32.001s45.666 13 69.999 13s42.666 -2.66699 54.999 -8
s18.5 -11.666 18.5 -18.999v-130h132c17.333 0 26 -21.667 26 -65c0 -22 -7 -46.167 -21 -72.5s-27.333 -39.5 -40 -39.5h-97v-118c0 -11.333 -12.5 -21 -37.5 -29s-49.833 -12 -74.5 -12zM462.001 -0.00195312h-405.001c-7.33301 0 -13.666 6.16699 -18.999 18.5
s-8 30 -8 53s7.33301 46.333 22 70s29 35.5 43 35.5h402c17.333 0 26 -21.667 26 -65c0 -22 -7 -46.167 -21 -72.5s-27.333 -39.5 -40 -39.5z" />
    <glyph glyph-name="twosuperior" unicode="&#xb2;" horiz-adv-x="362" 
d="M62 596c-10 0 -18.668 13 -26.001 39s-11 50.333 -11 73c0 4.66699 5.66699 10 17 16c26.667 16 65.834 24 117.501 24s93.667 -8.66699 126 -26s48.5 -44.666 48.5 -81.999c0 -19.333 -4.83301 -37.5 -14.5 -54.5s-20.5 -30.333 -32.5 -40s-26 -18.834 -42 -27.501
c-20.667 -10.667 -38 -17.667 -52 -21h124c13.333 0 20 -19 20 -57c0 -19.333 -2.16699 -34.833 -6.5 -46.5s-8.5 -18.167 -12.5 -19.5l-7 -3h-251c-22 0 -33 34.667 -33 104c0 6 11.5 16.833 34.5 32.5s46.167 32.667 69.5 51s35 33.5 35 45.5c0 10.667 -8 16 -24 16
s-32.667 -4 -50 -12s-27.333 -12 -30 -12z" />
    <glyph glyph-name="threesuperior" unicode="&#xb3;" horiz-adv-x="364" 
d="M25 400c0 39.333 7.00195 69.3389 21.002 90.0059c5.33301 7.33301 9.66602 11 12.999 11s13.666 -3.16699 30.999 -9.5s34.333 -9.5 51 -9.5s25 5.33301 25 16c0 14.667 -16 22.667 -48 24h-20c-8 3.33301 -12 15.166 -12 35.499s4 32.166 12 35.499
c1.33301 0.666992 8 1 20 1c32 1.33301 48 8.66602 48 21.999c0 10.667 -7.83301 16 -23.5 16s-32.667 -3.83301 -51 -11.5s-28.5 -11.5 -30.5 -11.5c-8.66699 0 -16.167 13.167 -22.5 39.5s-9.5 43.833 -9.5 52.5s4.33301 16.334 13 23.001c22.667 16 62.5 24 119.5 24
s99.167 -9.83301 126.5 -29.5s41 -43.167 41 -70.5c0 -16.667 -3.66699 -31.334 -11 -44.001c-8.66699 -16.667 -19 -28.667 -31 -36c12 -4.66699 22.833 -15.834 32.5 -33.501s14.5 -35.834 14.5 -54.501c0 -38.667 -16.5 -67.334 -49.5 -86.001s-74.833 -28 -125.5 -28
c-47.333 0 -86.333 6.66699 -117 20c-11.333 5.33301 -17 10 -17 14z" />
    <glyph glyph-name="acute" unicode="&#xb4;" horiz-adv-x="380" 
d="M260 780c15.333 0 30.832 -12.668 46.499 -38.001s23.5 -56.666 23.5 -93.999c0 -10 -28.833 -18.833 -86.5 -26.5s-105.5 -11.5 -143.5 -11.5c-12.667 0 -24.167 8 -34.5 24s-15.5 34.5 -15.5 55.5s24.833 41.333 74.5 61s94.834 29.5 135.501 29.5z" />
    <glyph glyph-name="mu" unicode="&#xb5;" horiz-adv-x="688" 
d="M247 31l-4.00195 -0.00195312c44.667 -91.333 67 -143.333 67 -156c0 -20 -57.333 -30 -172 -30c-53.333 0 -84 3.66699 -92 11c-4 2.66699 -6 6.66699 -6 12v655c0 14.667 21.167 27.834 63.5 39.501s82.5 17.5 120.5 17.5c57.333 0 86 -16 86 -48v-267
c0 -46 2.33301 -79 7 -99s15.334 -30 32.001 -30c19.333 0 29 11.333 29 34v352c0 16 21.833 29.667 65.5 41s85.834 17 126.501 17c52 0 78 -13 78 -39v-516c0 -8 -19.5 -14.167 -58.5 -18.5s-80.167 -6.5 -123.5 -6.5s-65.666 5.66699 -66.999 17l-10 64h-8
c-0.666992 -2 -1.33398 -4.83301 -2.00098 -8.5s-3 -10.167 -7 -19.5s-8.66699 -17.666 -14 -24.999c-14.667 -18.667 -33 -28 -55 -28s-40.667 10.333 -56 31z" />
    <glyph glyph-name="mu" unicode="&#x3bc;" horiz-adv-x="688" 
d="M247 31l-4.00195 -0.00195312c44.667 -91.333 67 -143.333 67 -156c0 -20 -57.333 -30 -172 -30c-53.333 0 -84 3.66699 -92 11c-4 2.66699 -6 6.66699 -6 12v655c0 14.667 21.167 27.834 63.5 39.501s82.5 17.5 120.5 17.5c57.333 0 86 -16 86 -48v-267
c0 -46 2.33301 -79 7 -99s15.334 -30 32.001 -30c19.333 0 29 11.333 29 34v352c0 16 21.833 29.667 65.5 41s85.834 17 126.501 17c52 0 78 -13 78 -39v-516c0 -8 -19.5 -14.167 -58.5 -18.5s-80.167 -6.5 -123.5 -6.5s-65.666 5.66699 -66.999 17l-10 64h-8
c-0.666992 -2 -1.33398 -4.83301 -2.00098 -8.5s-3 -10.167 -7 -19.5s-8.66699 -17.666 -14 -24.999c-14.667 -18.667 -33 -28 -55 -28s-40.667 10.333 -56 31z" />
    <glyph glyph-name="paragraph" unicode="&#xb6;" horiz-adv-x="703" 
d="M222 197c-70 0 -121.167 22.668 -153.5 68.001s-48.5 103.666 -48.5 174.999c0 90.667 19.333 158 58 202c34.667 38.667 91.334 62.667 170.001 72c33.333 4 73.666 6 120.999 6c192.667 0 289 -17.333 289 -52v-789c0 -16 -41 -24 -123 -24c-32 0 -48 8 -48 24v658h-44
v-658c0 -16 -41 -24 -123 -24c-32 0 -48 8 -48 24v318h-50z" />
    <glyph glyph-name="periodcentered" unicode="&#xb7;" horiz-adv-x="293" 
d="M226 223c-18 -14.667 -44.5 -22 -79.5 -22s-61.5 7.33301 -79.5 22s-27 41.667 -27 81s9.16699 65.5 27.5 78.5s44.833 19.5 79.5 19.5s61 -6.5 79 -19.5s27 -39.167 27 -78.5s-9 -66.333 -27 -81z" />
    <glyph glyph-name="cedilla" unicode="&#xb8;" horiz-adv-x="268" 
d="M85 -74l-29.002 -0.999023c-10.667 0 -16 10.333 -16 31v47c0 5.33301 8 10.333 24 15s32.833 7 50.5 7s26.5 -5 26.5 -15v-25c58 -2 87 -25 87 -69c0 -20.667 -10 -37.5 -30 -50.5s-41.167 -21.333 -63.5 -25s-46.166 -5.5 -71.499 -5.5
c-5.33301 0 -9.66602 5.16699 -12.999 15.5s-5 21.166 -5 32.499s2.66699 17 8 17c49.333 0 74 5.33301 74 16c0 6.66699 -14 10 -42 10z" />
    <glyph glyph-name="onesuperior" unicode="&#xb9;" horiz-adv-x="275" 
d="M123 367c-30 0 -45 4.33203 -45 12.999v224h-54c-6 0 -9 13.5 -9 40.5s3 49.5 9 67.5c1.33301 6.66699 21.333 12.834 60 18.501s73.5 8.5 104.5 8.5s46.5 -8.33301 46.5 -25v-334c0 -8.66699 -37.333 -13 -112 -13z" />
    <glyph glyph-name="ordmasculine" unicode="&#xba;" horiz-adv-x="375" 
d="M293 491.5c-24.667 -18.333 -59.832 -27.5 -105.499 -27.5s-80.834 9.16699 -105.501 27.5s-37 51.333 -37 99s12.333 79.5 37 95.5s59.667 24 105 24s80.5 -8 105.5 -24s37.5 -47.833 37.5 -95.5s-12.333 -80.667 -37 -99zM189.002 556c13.333 0 20 10.5 20 31.5
s-7.16699 31.5 -21.5 31.5s-21.5 -10 -21.5 -30c0 -10 2.16699 -18 6.5 -24s9.83301 -9 16.5 -9z" />
    <glyph glyph-name="guillemotright" unicode="&#xbb;" horiz-adv-x="694" 
d="M30 545c0 23.333 40.667 34.999 122 34.999c26.667 0 48 -9.66699 64 -29c2 -2 5.66699 -6.5 11 -13.5l20 -25.5c8 -10 31.667 -46.5 71 -109.5s59 -101.5 59 -115.5s-20.167 -54.5 -60.5 -121.5s-66.5 -108.167 -78.5 -123.5s-23.667 -26.166 -35 -32.499
s-31.666 -9.5 -60.999 -9.5s-53.333 1.16699 -72 3.5s-30 5.16602 -34 8.49902s-6 8 -6 14s9.66699 31 29 75s48.666 106.333 87.999 187c-78 156.667 -117 242.334 -117 257.001zM332 544.999c0 23.333 40.667 34.999 122 34.999c26.667 0 48 -9.66699 64 -29
c2 -2 5.66699 -6.5 11 -13.5l20 -25.5c8 -10 31.667 -46.5 71 -109.5s59 -101.5 59 -115.5s-20.167 -54.5 -60.5 -121.5s-66.5 -108.167 -78.5 -123.5s-23.667 -26.166 -35 -32.499s-31.666 -9.5 -60.999 -9.5s-53.333 1.16699 -72 3.5s-30 5.16602 -34 8.49902s-6 8 -6 14
s9.66699 31 29 75s48.666 106.333 87.999 187c-78 156.667 -117 242.334 -117 257.001z" />
    <glyph glyph-name="onequarter" unicode="&#xbc;" horiz-adv-x="771" 
d="M245 11.5c-14 -7.66699 -37.333 -11.502 -70 -11.502s-49 8.66699 -49 26c0 1.33301 0.666992 4 2 8l354 626c6 10.667 11.5 18.834 16.5 24.501s14.167 11.334 27.5 17.001s30 8.5 50 8.5c41.333 0 62 -9 62 -27c0 -3.33301 -0.666992 -6.33301 -2 -9l-358 -630
c-8 -14 -19 -24.833 -33 -32.5zM138 326.998c-30 0 -45 4.33203 -45 12.999v224h-54c-6 0 -9 13.5 -9 40.5s3 49.5 9 67.5c1.33301 6.66699 21.333 12.834 60 18.501s73.5 8.5 104.5 8.5s46.5 -8.33301 46.5 -25v-334c0 -8.66699 -37.333 -13 -112 -13zM628 -0.00292969
c-29.333 0 -44 4.33301 -44 13v60h-138c-12 0 -18 29.333 -18 88c0 6.66699 15 35.167 45 85.5s51 83.833 63 100.5c4.66699 6 22 11.667 52 17s58.333 8 85 8c45.333 0 68 -8.33301 68 -25v-334c0 -8.66699 -37.667 -13 -113 -13zM593 155.997v115l-37 -115h37z" />
    <glyph glyph-name="onehalf" unicode="&#xbd;" horiz-adv-x="828" 
d="M235 11.5c-14 -7.66699 -37.333 -11.502 -70 -11.502s-49 8.66699 -49 26c0 1.33301 0.666992 4 2 8l354 626c6 10.667 11.5 18.834 16.5 24.501s14.167 11.334 27.5 17.001s30 8.5 50 8.5c41.333 0 62 -9 62 -27c0 -3.33301 -0.666992 -6.33301 -2 -9l-358 -630
c-8 -14 -19 -24.833 -33 -32.5zM138 326.998c-30 0 -45 4.33203 -45 12.999v224h-54c-6 0 -9 13.5 -9 40.5s3 49.5 9 67.5c1.33301 6.66699 21.333 12.834 60 18.501s73.5 8.5 104.5 8.5s46.5 -8.33301 46.5 -25v-334c0 -8.66699 -37.333 -13 -112 -13zM523 224.997
c-10 0 -18.668 12.9971 -26.001 38.9971s-11 50.333 -11 73c0 4.66699 5.33301 10.334 16 17.001c27.333 15.333 66.833 23 118.5 23s93.667 -8.66699 126 -26s48.5 -44.666 48.5 -81.999c0 -19.333 -4.83301 -37.5 -14.5 -54.5s-20.5 -30.333 -32.5 -40
s-26 -18.5 -42 -26.5c-20.667 -11.333 -38 -18.666 -52 -21.999h124c13.333 0 20 -19 20 -57c0 -19.333 -2.16699 -34.833 -6.5 -46.5s-8.83301 -18.5 -13.5 -20.5l-6 -2h-251c-22 0 -33 34.667 -33 104c0 6 11.667 16.833 35 32.5s46.5 32.667 69.5 51s34.5 33.5 34.5 45.5
c0 10.667 -8.16699 16 -24.5 16s-33.166 -4 -50.499 -12s-27 -12 -29 -12z" />
    <glyph glyph-name="threequarters" unicode="&#xbe;" horiz-adv-x="799" 
d="M291 11.5c-14 -7.66699 -37.333 -11.502 -70 -11.502s-49 8.66699 -49 26c0 1.33301 0.666992 4 2 8l354 626c6 10.667 11.5 18.834 16.5 24.501s14.167 11.334 27.5 17.001s30 8.5 50 8.5c41.333 0 62 -9 62 -27c0 -3.33301 -0.666992 -6.33301 -2 -9l-358 -630
c-8 -14 -19 -24.833 -33 -32.5zM30 362.998c0 39.333 7.00195 69 21.002 89c5.33301 8 9.66602 12 12.999 12s13.666 -3.16699 30.999 -9.5s34.333 -9.5 51 -9.5s25 5.33301 25 16c0 14.667 -15.667 22.334 -47 23.001c-13.333 0.666992 -20.333 1 -21 1
c-8 3.33301 -12 15.333 -12 36s4 32.334 12 35.001c1.33301 0.666992 8.33301 1.33398 21 2.00098c31.333 0.666992 47 7.66699 47 21c0 10.667 -7.83301 16 -23.5 16s-32.667 -3.83301 -51 -11.5s-28.5 -11.5 -30.5 -11.5c-8.66699 0 -16.167 13.167 -22.5 39.5
s-9.5 43.833 -9.5 52.5s4.33301 16 13 22c22.667 16.667 62.5 25 119.5 25s99.167 -9.83301 126.5 -29.5s41 -43.167 41 -70.5c0 -16.667 -3.33301 -31.667 -10 -45c-9.33301 -16 -20 -27.667 -32 -35c12 -4.66699 22.833 -15.834 32.5 -33.501s14.5 -35.834 14.5 -54.501
c0 -38.667 -16.5 -67.334 -49.5 -86.001s-74.833 -28 -125.5 -28c-47.333 0 -86.333 7 -117 21c-11.333 4.66699 -17 9 -17 13zM656.002 -0.00195312c-29.333 0 -44 4.33301 -44 13v60h-138c-12 0 -18 29.333 -18 88c0 6.66699 15 35.167 45 85.5s51 83.833 63 100.5
c4.66699 6 22 11.667 52 17s58.333 8 85 8c45.333 0 68 -8.33301 68 -25v-334c0 -8.66699 -37.667 -13 -113 -13zM621.002 155.998v115l-37 -115h37z" />
    <glyph glyph-name="questiondown" unicode="&#xbf;" horiz-adv-x="599" 
d="M510 115c18.667 0 34.832 -22.166 48.499 -66.499s20.5 -86.833 20.5 -127.5c0 -9.33301 -10.333 -19.833 -31 -31.5s-52 -22 -94 -31s-87.667 -13.5 -137 -13.5c-191.333 0 -287 67 -287 201c0 38 7.83301 71.333 23.5 100s34.5 50 56.5 64c45.333 30 86 46.667 122 50
l24 3c0 8 -1.66699 20 -5 36s-5 29.5 -5 40.5s18.167 19.333 54.5 25s67.833 8.5 94.5 8.5c40.667 0 65.834 -10 75.501 -30s14.5 -62.333 14.5 -127c0 -14.667 -28.667 -29.334 -86 -44.001c-21.333 -5.33301 -41 -14.333 -59 -27s-27 -28 -27 -46
c0 -20 15.167 -30 45.5 -30s62 7.66699 95 23s51.833 23 56.5 23zM352.998 410.001c-45.333 0 -80 5.83203 -104 17.499s-36 35.834 -36 72.501c0 60 46.667 90 140 90s140 -30 140 -90s-46.667 -90 -140 -90z" />
    <glyph glyph-name="Agrave" unicode="&#xc0;" horiz-adv-x="748" 
d="M290.5 11c-19 -7.33301 -53.166 -11 -102.499 -11s-90.5 4.5 -123.5 13.5s-49.5 20.5 -49.5 34.5c0 16 29.667 118.167 89 306.5l102 325.5c3.33301 8.66699 30.166 15.834 80.499 21.501s104.333 8.5 162 8.5s89.5 -10 95.5 -30c126 -418.667 189 -631.334 189 -638.001
s-4 -13.334 -12 -20.001c-18.667 -14.667 -55.667 -22 -111 -22c-118 0 -178.333 14 -181 42l-7 65h-96l-5 -56c-1.33301 -19.333 -11.5 -32.666 -30.5 -39.999zM401.001 297l-15 180h-22l-17 -180h54zM244.001 910c40.667 0 85.833 -9.83203 135.5 -29.499
s74.5 -40 74.5 -61s-5.16699 -39.5 -15.5 -55.5s-21.833 -24 -34.5 -24c-38 0 -85.833 3.83301 -143.5 11.5s-86.5 16.5 -86.5 26.5c0 37.333 7.83301 68.666 23.5 93.999s31.167 38 46.5 38z" />
    <glyph glyph-name="Aacute" unicode="&#xc1;" horiz-adv-x="748" 
d="M290.5 11c-19 -7.33301 -53.166 -11 -102.499 -11s-90.5 4.5 -123.5 13.5s-49.5 20.5 -49.5 34.5c0 16 29.667 118.167 89 306.5l102 325.5c3.33301 8.66699 30.166 15.834 80.499 21.501s104.333 8.5 162 8.5s89.5 -10 95.5 -30c126 -418.667 189 -631.334 189 -638.001
s-4 -13.334 -12 -20.001c-18.667 -14.667 -55.667 -22 -111 -22c-118 0 -178.333 14 -181 42l-7 65h-96l-5 -56c-1.33301 -19.333 -11.5 -32.666 -30.5 -39.999zM401.001 297l-15 180h-22l-17 -180h54zM484.001 910c15.333 0 30.832 -12.668 46.499 -38.001
s23.5 -56.666 23.5 -93.999c0 -10 -28.833 -18.833 -86.5 -26.5s-105.5 -11.5 -143.5 -11.5c-12.667 0 -24.167 8 -34.5 24s-15.5 34.5 -15.5 55.5s24.833 41.333 74.5 61s94.834 29.5 135.501 29.5z" />
    <glyph glyph-name="Acircumflex" unicode="&#xc2;" horiz-adv-x="748" 
d="M290.5 11c-19 -7.33301 -53.166 -11 -102.499 -11s-90.5 4.5 -123.5 13.5s-49.5 20.5 -49.5 34.5c0 16 29.667 118.167 89 306.5l102 325.5c3.33301 8.66699 30.166 15.834 80.499 21.501s104.333 8.5 162 8.5s89.5 -10 95.5 -30c126 -418.667 189 -631.334 189 -638.001
s-4 -13.334 -12 -20.001c-18.667 -14.667 -55.667 -22 -111 -22c-118 0 -178.333 14 -181 42l-7 65h-96l-5 -56c-1.33301 -19.333 -11.5 -32.666 -30.5 -39.999zM401.001 297l-15 180h-22l-17 -180h54zM267.501 865.5c49 23 85.334 34.5 109.001 34.5
s59.167 -11.333 106.5 -34s71 -38 71 -46c0 -23.333 -3.66699 -44.166 -11 -62.499s-17 -27.5 -29 -27.5c-9.33301 0 -56 13 -140 39c-84.667 -26 -131.334 -39 -140.001 -39c-12 0 -21.667 9.16699 -29 27.5s-11 39.166 -11 62.499c0 7.33301 24.5 22.5 73.5 45.5z" />
    <glyph glyph-name="Atilde" unicode="&#xc3;" horiz-adv-x="748" 
d="M290.5 11c-19 -7.33301 -53.166 -11 -102.499 -11s-90.5 4.5 -123.5 13.5s-49.5 20.5 -49.5 34.5c0 16 29.667 118.167 89 306.5l102 325.5c3.33301 8.66699 30.166 15.834 80.499 21.501s104.333 8.5 162 8.5s89.5 -10 95.5 -30c126 -418.667 189 -631.334 189 -638.001
s-4 -13.334 -12 -20.001c-18.667 -14.667 -55.667 -22 -111 -22c-118 0 -178.333 14 -181 42l-7 65h-96l-5 -56c-1.33301 -19.333 -11.5 -32.666 -30.5 -39.999zM401.001 297l-15 180h-22l-17 -180h54zM571.501 772c-34.333 -21.333 -64.333 -32.001 -90 -32.001
s-56.334 5.83301 -92.001 17.5s-58.667 17.5 -69 17.5s-30.166 -5.83301 -59.499 -17.5s-50 -17.5 -62 -17.5s-24.5 11.833 -37.5 35.5s-19.5 41.834 -19.5 54.501c0 11.333 18.167 27.5 54.5 48.5s66.5 31.5 90.5 31.5s53.5 -5.66699 88.5 -17s60.167 -17 75.5 -17
c4.66699 0 21.167 5.66699 49.5 17s49 17 62 17s26.333 -12.333 40 -37s20.5 -42.667 20.5 -54c0 -10 -17.167 -25.667 -51.5 -47z" />
    <glyph glyph-name="Adieresis" unicode="&#xc4;" horiz-adv-x="748" 
d="M290.5 11c-19 -7.33301 -53.166 -11 -102.499 -11s-90.5 4.5 -123.5 13.5s-49.5 20.5 -49.5 34.5c0 16 29.667 118.167 89 306.5l102 325.5c3.33301 8.66699 30.166 15.834 80.499 21.501s104.333 8.5 162 8.5s89.5 -10 95.5 -30c126 -418.667 189 -631.334 189 -638.001
s-4 -13.334 -12 -20.001c-18.667 -14.667 -55.667 -22 -111 -22c-118 0 -178.333 14 -181 42l-7 65h-96l-5 -56c-1.33301 -19.333 -11.5 -32.666 -30.5 -39.999zM401.001 297l-15 180h-22l-17 -180h54zM240.001 730c-34.667 0 -60.998 6.5 -78.998 19.5s-27 37 -27 72
s9.16699 58.5 27.5 70.5s44.666 18 78.999 18s60.666 -6 78.999 -18s27.5 -35.5 27.5 -70.5s-9.16699 -59 -27.5 -72s-44.833 -19.5 -79.5 -19.5zM517.003 730c-34.667 0 -60.998 6.5 -78.998 19.5s-27 37 -27 72s9.16699 58.5 27.5 70.5s44.666 18 78.999 18
s60.666 -6 78.999 -18s27.5 -35.5 27.5 -70.5s-9.16699 -59 -27.5 -72s-44.833 -19.5 -79.5 -19.5z" />
    <glyph glyph-name="Aring" unicode="&#xc5;" horiz-adv-x="748" 
d="M290.5 11c-19 -7.33301 -53.166 -11 -102.499 -11s-90.5 4.5 -123.5 13.5s-49.5 20.5 -49.5 34.5c0 16 29.667 118.167 89 306.5l102 325.5c3.33301 8.66699 30.166 15.834 80.499 21.501s104.333 8.5 162 8.5s89.5 -10 95.5 -30c126 -418.667 189 -631.334 189 -638.001
s-4 -13.334 -12 -20.001c-18.667 -14.667 -55.667 -22 -111 -22c-118 0 -178.333 14 -181 42l-7 65h-96l-5 -56c-1.33301 -19.333 -11.5 -32.666 -30.5 -39.999zM401.001 297l-15 180h-22l-17 -180h54zM461.001 748.5c-18.667 -12.333 -47.667 -18.5 -87 -18.5
s-68.333 6.16699 -87 18.5s-28 35.333 -28 69s9.33301 55.834 28 66.501s47.667 16 87 16s68.333 -5.33301 87 -16s28 -32.834 28 -66.501s-9.33301 -56.667 -28 -69zM352.501 801c3.66699 -2.66699 10.832 -4 21.499 -4s17.834 1.33301 21.501 4s5.5 7.5 5.5 14.5
s-2 11.667 -6 14s-11.167 3.5 -21.5 3.5s-17.333 -1.16699 -21 -3.5s-5.5 -7 -5.5 -14s1.83301 -11.833 5.5 -14.5z" />
    <glyph glyph-name="AE" unicode="&#xc6;" horiz-adv-x="1004" 
d="M941 0l-423.999 -0.00390625c-32.667 0 -54.667 2.33301 -66 7s-17 12 -17 22v78h-114l-17 -56c-6 -19.333 -19.333 -32.666 -40 -39.999s-50.5 -11 -89.5 -11s-70.833 2.66699 -95.5 8c-42 8.66699 -63 22 -63 40c0 12.667 37.667 102.834 113 270.501
s131.666 285.5 168.999 353.5c4.66699 8.66699 28.5 15.834 71.5 21.501s96.167 8.5 159.5 8.5h416c14 0 21 -23.167 21 -69.5s-3 -81.166 -9 -104.499s-14 -35 -24 -35c-26 0 -99 4.33301 -219 13v-67c98.667 4 163 6 193 6c18 0 27 -21 27 -63s-3.5 -73.833 -10.5 -95.5
s-16.5 -32.5 -28.5 -32.5l-181 4v-64c116 8.66699 196 13 240 13c14 0 21 -23 21 -69c0 -92 -11 -138 -33 -138zM434.001 296.996v169l-59 -169h59z" />
    <glyph glyph-name="Ccedilla" unicode="&#xc7;" horiz-adv-x="661" 
d="M464.5 -5.5c27.667 2.33301 54.835 6.66504 81.502 12.998s47.167 16.333 61.5 30s21.5 32.167 21.5 55.5s-5.83301 54 -17.5 92s-27.834 57 -48.501 57c-7.33301 0 -32.833 -6.83301 -76.5 -20.5s-73.834 -20.5 -90.501 -20.5c-23.333 0 -42.166 13.333 -56.499 40
s-21.5 64 -21.5 112s8.16699 85 24.5 111s36.166 39 59.499 39c15.333 0 44.333 -5.33301 87 -16s67.334 -16 74.001 -16c22 0 38.833 18.333 50.5 55s17.5 67 17.5 91s-6.33301 42.333 -19 55s-27 22 -43 28c-35.333 13.333 -93.666 20 -174.999 20
c-56.667 0 -112.667 -12.667 -168 -38c-35.333 -15.333 -66.5 -35.666 -93.5 -60.999s-50 -61.333 -69 -108s-28.5 -100.334 -28.5 -161.001c0 -90.667 17 -164.667 51 -222c14.667 -24.667 32.834 -46 54.501 -64s42.167 -31.667 61.5 -41s40.666 -16.666 63.999 -21.999
s42.166 -8.66602 56.499 -9.99902s34.666 -2 60.999 -2s53.333 1.16699 81 3.5zM356.001 -84.001l-29.002 -0.999023c-10.667 0 -16 10.333 -16 31v47c0 5.33301 8 10.333 24 15s32.833 7 50.5 7s26.5 -5 26.5 -15v-25c58 -2 87 -25 87 -69c0 -20.667 -10 -37.5 -30 -50.5
s-41.167 -21.333 -63.5 -25s-46.166 -5.5 -71.499 -5.5c-5.33301 0 -9.66602 5.16699 -12.999 15.5s-5 21.166 -5 32.499s2.66699 17 8 17c49.333 0 74 5.33301 74 16c0 6.66699 -14 10 -42 10z" />
    <glyph glyph-name="Egrave" unicode="&#xc8;" horiz-adv-x="615" 
d="M552 0h-424.001c-32.667 -0 -54.667 2.33301 -66 7s-17 12 -17 22v633c0 17.333 7.83301 29.666 23.5 36.999s43.834 11 84.501 11h402c14 0 21 -23.167 21 -69.5s-3 -81.666 -9 -105.999s-14 -36.5 -24 -36.5c-43.333 0 -116.333 4.33301 -219 13v-67
c98.667 4 163 6 193 6c18 0 27 -21 27 -63s-3.5 -73.833 -10.5 -95.5s-16.5 -32.5 -28.5 -32.5l-181 4v-64c116 8.66699 196 13 240 13c14 0 21 -23.333 21 -70s-3 -82 -9 -106s-14 -36 -24 -36zM206.999 910c40.667 0 85.833 -9.83203 135.5 -29.499s74.5 -40 74.5 -61
s-5.16699 -39.5 -15.5 -55.5s-21.833 -24 -34.5 -24c-38 0 -85.833 3.83301 -143.5 11.5s-86.5 16.5 -86.5 26.5c0 37.333 7.83301 68.666 23.5 93.999s31.167 38 46.5 38z" />
    <glyph glyph-name="Eacute" unicode="&#xc9;" horiz-adv-x="615" 
d="M552 0h-424.001c-32.667 -0 -54.667 2.33301 -66 7s-17 12 -17 22v633c0 17.333 7.83301 29.666 23.5 36.999s43.834 11 84.501 11h402c14 0 21 -23.167 21 -69.5s-3 -81.666 -9 -105.999s-14 -36.5 -24 -36.5c-43.333 0 -116.333 4.33301 -219 13v-67
c98.667 4 163 6 193 6c18 0 27 -21 27 -63s-3.5 -73.833 -10.5 -95.5s-16.5 -32.5 -28.5 -32.5l-181 4v-64c116 8.66699 196 13 240 13c14 0 21 -23.333 21 -70s-3 -82 -9 -106s-14 -36 -24 -36zM416.999 910c15.333 0 30.832 -12.668 46.499 -38.001
s23.5 -56.666 23.5 -93.999c0 -10 -28.833 -18.833 -86.5 -26.5s-105.5 -11.5 -143.5 -11.5c-12.667 0 -24.167 8 -34.5 24s-15.5 34.5 -15.5 55.5s24.833 41.333 74.5 61s94.834 29.5 135.501 29.5z" />
    <glyph glyph-name="Ecircumflex" unicode="&#xca;" horiz-adv-x="615" 
d="M552 0h-424.001c-32.667 -0 -54.667 2.33301 -66 7s-17 12 -17 22v633c0 17.333 7.83301 29.666 23.5 36.999s43.834 11 84.501 11h402c14 0 21 -23.167 21 -69.5s-3 -81.666 -9 -105.999s-14 -36.5 -24 -36.5c-43.333 0 -116.333 4.33301 -219 13v-67
c98.667 4 163 6 193 6c18 0 27 -21 27 -63s-3.5 -73.833 -10.5 -95.5s-16.5 -32.5 -28.5 -32.5l-181 4v-64c116 8.66699 196 13 240 13c14 0 21 -23.333 21 -70s-3 -82 -9 -106s-14 -36 -24 -36zM200.499 865.5c49 23 85.334 34.5 109.001 34.5s59.167 -11.333 106.5 -34
s71 -38 71 -46c0 -23.333 -3.66699 -44.166 -11 -62.499s-17 -27.5 -29 -27.5c-9.33301 0 -56 13 -140 39c-84.667 -26 -131.334 -39 -140.001 -39c-12 0 -21.667 9.16699 -29 27.5s-11 39.166 -11 62.499c0 7.33301 24.5 22.5 73.5 45.5z" />
    <glyph glyph-name="Edieresis" unicode="&#xcb;" horiz-adv-x="615" 
d="M552 0h-424.001c-32.667 -0 -54.667 2.33301 -66 7s-17 12 -17 22v633c0 17.333 7.83301 29.666 23.5 36.999s43.834 11 84.501 11h402c14 0 21 -23.167 21 -69.5s-3 -81.666 -9 -105.999s-14 -36.5 -24 -36.5c-43.333 0 -116.333 4.33301 -219 13v-67
c98.667 4 163 6 193 6c18 0 27 -21 27 -63s-3.5 -73.833 -10.5 -95.5s-16.5 -32.5 -28.5 -32.5l-181 4v-64c116 8.66699 196 13 240 13c14 0 21 -23.333 21 -70s-3 -82 -9 -106s-14 -36 -24 -36zM172.999 730c-34.667 0 -60.998 6.5 -78.998 19.5s-27 37 -27 72
s9.16699 58.5 27.5 70.5s44.666 18 78.999 18s60.666 -6 78.999 -18s27.5 -35.5 27.5 -70.5s-9.16699 -59 -27.5 -72s-44.833 -19.5 -79.5 -19.5zM450.001 730c-34.667 0 -60.998 6.5 -78.998 19.5s-27 37 -27 72s9.16699 58.5 27.5 70.5s44.666 18 78.999 18
s60.666 -6 78.999 -18s27.5 -35.5 27.5 -70.5s-9.16699 -59 -27.5 -72s-44.833 -19.5 -79.5 -19.5z" />
    <glyph glyph-name="Igrave" unicode="&#xcc;" horiz-adv-x="369" 
d="M263 6.5c-40.667 -4.33301 -81.501 -6.50098 -122.501 -6.50098s-67.167 1.83301 -78.5 5.5s-17 9.83398 -17 18.501v622c0 14.667 19.333 29.167 58 43.5s82 21.5 130 21.5c42.667 0 70.334 -9 83.001 -27c5.33301 -6.66699 8 -13.334 8 -20.001v-640
c0 -7.33301 -20.333 -13.166 -61 -17.499zM84.999 909.999c40.667 0 85.833 -9.83203 135.5 -29.499s74.5 -40 74.5 -61s-5.16699 -39.5 -15.5 -55.5s-21.833 -24 -34.5 -24c-38 0 -85.833 3.83301 -143.5 11.5s-86.5 16.5 -86.5 26.5c0 37.333 7.83301 68.666 23.5 93.999
s31.167 38 46.5 38z" />
    <glyph glyph-name="Iacute" unicode="&#xcd;" horiz-adv-x="369" 
d="M263 6.5c-40.667 -4.33301 -81.501 -6.50098 -122.501 -6.50098s-67.167 1.83301 -78.5 5.5s-17 9.83398 -17 18.501v622c0 14.667 19.333 29.167 58 43.5s82 21.5 130 21.5c42.667 0 70.334 -9 83.001 -27c5.33301 -6.66699 8 -13.334 8 -20.001v-640
c0 -7.33301 -20.333 -13.166 -61 -17.499zM284.999 909.999c15.333 0 30.832 -12.668 46.499 -38.001s23.5 -56.666 23.5 -93.999c0 -10 -28.833 -18.833 -86.5 -26.5s-105.5 -11.5 -143.5 -11.5c-12.667 0 -24.167 8 -34.5 24s-15.5 34.5 -15.5 55.5s24.833 41.333 74.5 61
s94.834 29.5 135.501 29.5z" />
    <glyph glyph-name="Icircumflex" unicode="&#xce;" horiz-adv-x="369" 
d="M263 6.5c-40.667 -4.33301 -81.501 -6.50098 -122.501 -6.50098s-67.167 1.83301 -78.5 5.5s-17 9.83398 -17 18.501v622c0 14.667 19.333 29.167 58 43.5s82 21.5 130 21.5c42.667 0 70.334 -9 83.001 -27c5.33301 -6.66699 8 -13.334 8 -20.001v-640
c0 -7.33301 -20.333 -13.166 -61 -17.499zM82.499 865.499c49 23 85.334 34.5 109.001 34.5s59.167 -11.333 106.5 -34s71 -38 71 -46c0 -23.333 -3.66699 -44.166 -11 -62.499s-17 -27.5 -29 -27.5c-9.33301 0 -56 13 -140 39c-84.667 -26 -131.334 -39 -140.001 -39
c-12 0 -21.667 9.16699 -29 27.5s-11 39.166 -11 62.499c0 7.33301 24.5 22.5 73.5 45.5z" />
    <glyph glyph-name="Idieresis" unicode="&#xcf;" horiz-adv-x="369" 
d="M263 6.5c-40.667 -4.33301 -81.501 -6.50098 -122.501 -6.50098s-67.167 1.83301 -78.5 5.5s-17 9.83398 -17 18.501v622c0 14.667 19.333 29.167 58 43.5s82 21.5 130 21.5c42.667 0 70.334 -9 83.001 -27c5.33301 -6.66699 8 -13.334 8 -20.001v-640
c0 -7.33301 -20.333 -13.166 -61 -17.499zM50.999 729.999c-34.667 0 -60.998 6.5 -78.998 19.5s-27 37 -27 72s9.16699 58.5 27.5 70.5s44.666 18 78.999 18s60.666 -6 78.999 -18s27.5 -35.5 27.5 -70.5s-9.16699 -59 -27.5 -72s-44.833 -19.5 -79.5 -19.5z
M328.001 729.999c-34.667 0 -60.998 6.5 -78.998 19.5s-27 37 -27 72s9.16699 58.5 27.5 70.5s44.666 18 78.999 18s60.666 -6 78.999 -18s27.5 -35.5 27.5 -70.5s-9.16699 -59 -27.5 -72s-44.833 -19.5 -79.5 -19.5z" />
    <glyph glyph-name="Eth" unicode="&#xd0;" horiz-adv-x="776" 
d="M80 273h-43c-7.33301 0 -13.666 6.16699 -18.999 18.5s-8 30 -8 53s7.33301 46.333 22 70s29 35.5 43 35.5h5v211c0 17.333 7.33301 29.833 22 37.5s40 11.5 76 11.5h225c128 0 216.333 -25.167 265 -75.5s73 -141.833 73 -274.5s-25.333 -225.834 -76 -279.501
s-139.334 -80.5 -266.001 -80.5h-236c-32.667 0 -54.667 2.33301 -66 7s-17 12.334 -17 23.001v243zM391 561c-16 0 -26.667 -1.33398 -32 -4.00098v-107h40c17.333 0 26 -21.667 26 -65c0 -22 -7 -46.167 -21 -72.5s-27.333 -39.5 -40 -39.5h-5v-121c10 -2 22.667 -3 38 -3
c20 0 35.167 16 45.5 48s15.5 87.333 15.5 166s-5.33301 131.334 -16 158.001s-27.667 40 -51 40z" />
    <glyph glyph-name="Ntilde" unicode="&#xd1;" horiz-adv-x="734" 
d="M257.5 8c-41 -5.33301 -81.833 -8.00195 -122.5 -8.00195s-66.667 2.33301 -78 7s-17 12 -17 22v614c0 16.667 19.167 32 57.5 46s81.833 21 130.5 21c17.333 0 30.333 -0.666992 39 -2c22.667 -3.33301 38.667 -17.666 48 -42.999l96 -258h4v236c0 16.667 19 32 57 46
s81.333 21 130 21c42 0 68.667 -8 80 -24c8 -11.333 12 -21.666 12 -30.999v-626c0 -8.66699 -20.5 -15.667 -61.5 -21s-86 -8 -135 -8s-75.833 6.33301 -80.5 19l-93 246h-5v-236c0 -8.66699 -20.5 -15.667 -61.5 -21zM550.5 761.998
c-34.333 -21.333 -64.333 -32.001 -90 -32.001s-56.334 5.83301 -92.001 17.5s-58.667 17.5 -69 17.5s-30.166 -5.83301 -59.499 -17.5s-50 -17.5 -62 -17.5s-24.5 11.833 -37.5 35.5s-19.5 41.834 -19.5 54.501c0 11.333 18.167 27.5 54.5 48.5s66.5 31.5 90.5 31.5
s53.5 -5.66699 88.5 -17s60.167 -17 75.5 -17c4.66699 0 21.167 5.66699 49.5 17s49 17 62 17s26.333 -12.333 40 -37s20.5 -42.667 20.5 -54c0 -10 -17.167 -25.667 -51.5 -47z" />
    <glyph glyph-name="Ograve" unicode="&#xd2;" horiz-adv-x="776" 
d="M388 -9c-55.333 0 -102.833 5.16699 -142.5 15.5s-76.167 28.833 -109.5 55.5c-67.333 52.667 -101 153.667 -101 303c0 62.667 9.16699 117.334 27.5 164.001s43.833 83.667 76.5 111c64 53.333 147 80 249 80c52.667 0 98.5 -4.66699 137.5 -14
s75.833 -26.333 110.5 -51c70 -50.667 105 -147.334 105 -290.001c0 -128 -31.667 -222.333 -95 -283s-149.333 -91 -258 -91zM388 148c14 0 25 4.83301 33 14.5s14.667 30.334 20 62.001s8 75.834 8 132.501s-2.66699 100.334 -8 131.001s-12 50.667 -20 60s-19 14 -33 14
s-25 -4.66699 -33 -14s-14.667 -29.333 -20 -60s-8 -74.334 -8 -131.001s2.66699 -100.834 8 -132.501s12 -52.334 20 -62.001s19 -14.5 33 -14.5zM268 910c40.667 0 85.833 -9.83203 135.5 -29.499s74.5 -40 74.5 -61s-5.16699 -39.5 -15.5 -55.5s-21.833 -24 -34.5 -24
c-38 0 -85.833 3.83301 -143.5 11.5s-86.5 16.5 -86.5 26.5c0 37.333 7.83301 68.666 23.5 93.999s31.167 38 46.5 38z" />
    <glyph glyph-name="Oacute" unicode="&#xd3;" horiz-adv-x="776" 
d="M388 -9c-55.333 0 -102.833 5.16699 -142.5 15.5s-76.167 28.833 -109.5 55.5c-67.333 52.667 -101 153.667 -101 303c0 62.667 9.16699 117.334 27.5 164.001s43.833 83.667 76.5 111c64 53.333 147 80 249 80c52.667 0 98.5 -4.66699 137.5 -14
s75.833 -26.333 110.5 -51c70 -50.667 105 -147.334 105 -290.001c0 -128 -31.667 -222.333 -95 -283s-149.333 -91 -258 -91zM388 148c14 0 25 4.83301 33 14.5s14.667 30.334 20 62.001s8 75.834 8 132.501s-2.66699 100.334 -8 131.001s-12 50.667 -20 60s-19 14 -33 14
s-25 -4.66699 -33 -14s-14.667 -29.333 -20 -60s-8 -74.334 -8 -131.001s2.66699 -100.834 8 -132.501s12 -52.334 20 -62.001s19 -14.5 33 -14.5zM498 920c15.333 0 30.832 -12.668 46.499 -38.001s23.5 -56.666 23.5 -93.999c0 -10 -28.833 -18.833 -86.5 -26.5
s-105.5 -11.5 -143.5 -11.5c-12.667 0 -24.167 8 -34.5 24s-15.5 34.5 -15.5 55.5s24.833 41.333 74.5 61s94.834 29.5 135.501 29.5z" />
    <glyph glyph-name="Ocircumflex" unicode="&#xd4;" horiz-adv-x="776" 
d="M388 -9c-55.333 0 -102.833 5.16699 -142.5 15.5s-76.167 28.833 -109.5 55.5c-67.333 52.667 -101 153.667 -101 303c0 62.667 9.16699 117.334 27.5 164.001s43.833 83.667 76.5 111c64 53.333 147 80 249 80c52.667 0 98.5 -4.66699 137.5 -14
s75.833 -26.333 110.5 -51c70 -50.667 105 -147.334 105 -290.001c0 -128 -31.667 -222.333 -95 -283s-149.333 -91 -258 -91zM388 148c14 0 25 4.83301 33 14.5s14.667 30.334 20 62.001s8 75.834 8 132.501s-2.66699 100.334 -8 131.001s-12 50.667 -20 60s-19 14 -33 14
s-25 -4.66699 -33 -14s-14.667 -29.333 -20 -60s-8 -74.334 -8 -131.001s2.66699 -100.834 8 -132.501s12 -52.334 20 -62.001s19 -14.5 33 -14.5zM281.5 875.5c49 23 85.334 34.5 109.001 34.5s59.167 -11.333 106.5 -34s71 -38 71 -46
c0 -23.333 -3.66699 -44.166 -11 -62.499s-17 -27.5 -29 -27.5c-9.33301 0 -56 13 -140 39c-84.667 -26 -131.334 -39 -140.001 -39c-12 0 -21.667 9.16699 -29 27.5s-11 39.166 -11 62.499c0 7.33301 24.5 22.5 73.5 45.5z" />
    <glyph glyph-name="Otilde" unicode="&#xd5;" horiz-adv-x="776" 
d="M388 -9c-55.333 0 -102.833 5.16699 -142.5 15.5s-76.167 28.833 -109.5 55.5c-67.333 52.667 -101 153.667 -101 303c0 62.667 9.16699 117.334 27.5 164.001s43.833 83.667 76.5 111c64 53.333 147 80 249 80c52.667 0 98.5 -4.66699 137.5 -14
s75.833 -26.333 110.5 -51c70 -50.667 105 -147.334 105 -290.001c0 -128 -31.667 -222.333 -95 -283s-149.333 -91 -258 -91zM388 148c14 0 25 4.83301 33 14.5s14.667 30.334 20 62.001s8 75.834 8 132.501s-2.66699 100.334 -8 131.001s-12 50.667 -20 60s-19 14 -33 14
s-25 -4.66699 -33 -14s-14.667 -29.333 -20 -60s-8 -74.334 -8 -131.001s2.66699 -100.834 8 -132.501s12 -52.334 20 -62.001s19 -14.5 33 -14.5zM581.5 772c-34.333 -21.333 -64.333 -32.001 -90 -32.001s-56.334 5.83301 -92.001 17.5s-58.667 17.5 -69 17.5
s-30.166 -5.83301 -59.499 -17.5s-50 -17.5 -62 -17.5s-24.5 11.833 -37.5 35.5s-19.5 41.834 -19.5 54.501c0 11.333 18.167 27.5 54.5 48.5s66.5 31.5 90.5 31.5s53.5 -5.66699 88.5 -17s60.167 -17 75.5 -17c4.66699 0 21.167 5.66699 49.5 17s49 17 62 17
s26.333 -12.333 40 -37s20.5 -42.667 20.5 -54c0 -10 -17.167 -25.667 -51.5 -47z" />
    <glyph glyph-name="Odieresis" unicode="&#xd6;" horiz-adv-x="776" 
d="M388 -9c-55.333 0 -102.833 5.16699 -142.5 15.5s-76.167 28.833 -109.5 55.5c-67.333 52.667 -101 153.667 -101 303c0 62.667 9.16699 117.334 27.5 164.001s43.833 83.667 76.5 111c64 53.333 147 80 249 80c52.667 0 98.5 -4.66699 137.5 -14
s75.833 -26.333 110.5 -51c70 -50.667 105 -147.334 105 -290.001c0 -128 -31.667 -222.333 -95 -283s-149.333 -91 -258 -91zM388 148c14 0 25 4.83301 33 14.5s14.667 30.334 20 62.001s8 75.834 8 132.501s-2.66699 100.334 -8 131.001s-12 50.667 -20 60s-19 14 -33 14
s-25 -4.66699 -33 -14s-14.667 -29.333 -20 -60s-8 -74.334 -8 -131.001s2.66699 -100.834 8 -132.501s12 -52.334 20 -62.001s19 -14.5 33 -14.5zM249 730c-34.667 0 -60.998 6.5 -78.998 19.5s-27 37 -27 72s9.16699 58.5 27.5 70.5s44.666 18 78.999 18
s60.666 -6 78.999 -18s27.5 -35.5 27.5 -70.5s-9.16699 -59 -27.5 -72s-44.833 -19.5 -79.5 -19.5zM526.002 730c-34.667 0 -60.998 6.5 -78.998 19.5s-27 37 -27 72s9.16699 58.5 27.5 70.5s44.666 18 78.999 18s60.666 -6 78.999 -18s27.5 -35.5 27.5 -70.5
s-9.16699 -59 -27.5 -72s-44.833 -19.5 -79.5 -19.5z" />
    <glyph glyph-name="multiply" unicode="&#xd7;" horiz-adv-x="553" 
d="M181 64c-20 0 -46.4961 13.4932 -79.4961 40.4932s-49.5 48.833 -49.5 65.5c0 4 10.333 16.667 31 38l69 70l-59 58c-19.333 18.667 -30.333 29.667 -33 33s-4 7.66602 -4 12.999c0 22.667 15 44.334 45 65.001s57.333 31 82 31c7.33301 0 16.666 -4.16699 27.999 -12.5
s33.333 -29.166 66 -62.499c50.667 50.667 78 77.5 82 80.5s6.83301 4.66699 8.5 5s3.16699 0.5 4.5 0.5h4c21.333 0 47 -13.667 77 -41s45 -49.666 45 -66.999c0 -7.33301 -5.33301 -15.666 -16 -24.999l-79 -78l48.5 -48l16.5 -16
c5.33301 -5.33301 9.5 -9.66602 12.5 -12.999s6 -6.33301 9 -9s5.16699 -5 6.5 -7s2.66602 -3.66699 3.99902 -5s2.16602 -2.66602 2.49902 -3.99902s0.5 -2.66602 0.5 -3.99902v-4c0 -18 -16.667 -39.167 -50 -63.5s-58.333 -36.5 -75 -36.5
c-8 0 -15.833 3.16699 -23.5 9.5s-33.5 31.5 -77.5 75.5l-28 -29l-21 -22l-15 -15.5c-4.66699 -5 -8.33398 -8.5 -11.001 -10.5c-6 -6.66699 -9.83301 -10.167 -11.5 -10.5s-3.16699 -0.666016 -4.5 -0.999023s-3 -0.5 -5 -0.5z" />
    <glyph glyph-name="Oslash" unicode="&#xd8;" horiz-adv-x="776" 
d="M389 -9c0 -16.667 -22.332 -29.335 -66.999 -38.002c-24.667 -4.66699 -55.334 -7 -92.001 -7c-14.667 0 -25.167 4.5 -31.5 13.5s-9.5 18.333 -9.5 28s1.66699 21.834 5 36.501c-106 47.333 -159 161 -159 341c0 161.333 47.667 266.333 143 315
c31.333 15.333 63 25.833 95 31.5s69 8.5 111 8.5c8 36 59.333 54 154 54c34.667 0 52 -11.667 52 -35c0 -11.333 -8 -26.666 -24 -45.999c116.667 -44 175 -153.333 175 -328c0 -170 -47 -280.333 -141 -331c-54.667 -28.667 -125 -43 -211 -43zM388.001 147.999
c14 0 25 4.83301 33 14.5s14.667 30.334 20 62.001s8 75.834 8 132.501s-2.66699 100.334 -8 131.001s-12 50.667 -20 60s-19 14 -33 14s-25 -4.66699 -33 -14s-14.667 -29.333 -20 -60s-8 -74.334 -8 -131.001s2.66699 -100.834 8 -132.501s12 -52.334 20 -62.001
s19 -14.5 33 -14.5z" />
    <glyph glyph-name="Ugrave" unicode="&#xd9;" horiz-adv-x="736" 
d="M608.5 63.5c-55 -47.667 -134.668 -71.501 -239.001 -71.501s-184.5 23.833 -240.5 71.5s-84 119.5 -84 215.5v367c0 16.667 18.833 31.667 56.5 45s81.5 20 131.5 20c40 0 66 -7.66699 78 -23c8.66699 -12 13 -22.333 13 -31v-298
c0 -75.333 2.83301 -125.166 8.5 -149.499s17.834 -36.5 36.501 -36.5s30.5 11.833 35.5 35.5s7.5 74.167 7.5 151.5v286c0 16.667 18.833 31.667 56.5 45s81.167 20 130.5 20c42 0 68.333 -7.66699 79 -23c8.66699 -12 13 -22.333 13 -31v-378
c0 -96 -27.5 -167.833 -82.5 -215.5zM257.999 909.999c40.667 0 85.833 -9.83203 135.5 -29.499s74.5 -40 74.5 -61s-5.16699 -39.5 -15.5 -55.5s-21.833 -24 -34.5 -24c-38 0 -85.833 3.83301 -143.5 11.5s-86.5 16.5 -86.5 26.5c0 37.333 7.83301 68.666 23.5 93.999
s31.167 38 46.5 38z" />
    <glyph glyph-name="Uacute" unicode="&#xda;" horiz-adv-x="736" 
d="M608.5 63.5c-55 -47.667 -134.668 -71.501 -239.001 -71.501s-184.5 23.833 -240.5 71.5s-84 119.5 -84 215.5v367c0 16.667 18.833 31.667 56.5 45s81.5 20 131.5 20c40 0 66 -7.66699 78 -23c8.66699 -12 13 -22.333 13 -31v-298
c0 -75.333 2.83301 -125.166 8.5 -149.499s17.834 -36.5 36.501 -36.5s30.5 11.833 35.5 35.5s7.5 74.167 7.5 151.5v286c0 16.667 18.833 31.667 56.5 45s81.167 20 130.5 20c42 0 68.333 -7.66699 79 -23c8.66699 -12 13 -22.333 13 -31v-378
c0 -96 -27.5 -167.833 -82.5 -215.5zM487.999 909.999c15.333 0 30.832 -12.668 46.499 -38.001s23.5 -56.666 23.5 -93.999c0 -10 -28.833 -18.833 -86.5 -26.5s-105.5 -11.5 -143.5 -11.5c-12.667 0 -24.167 8 -34.5 24s-15.5 34.5 -15.5 55.5s24.833 41.333 74.5 61
s94.834 29.5 135.501 29.5z" />
    <glyph glyph-name="Ucircumflex" unicode="&#xdb;" horiz-adv-x="736" 
d="M608.5 63.5c-55 -47.667 -134.668 -71.501 -239.001 -71.501s-184.5 23.833 -240.5 71.5s-84 119.5 -84 215.5v367c0 16.667 18.833 31.667 56.5 45s81.5 20 131.5 20c40 0 66 -7.66699 78 -23c8.66699 -12 13 -22.333 13 -31v-298
c0 -75.333 2.83301 -125.166 8.5 -149.499s17.834 -36.5 36.501 -36.5s30.5 11.833 35.5 35.5s7.5 74.167 7.5 151.5v286c0 16.667 18.833 31.667 56.5 45s81.167 20 130.5 20c42 0 68.333 -7.66699 79 -23c8.66699 -12 13 -22.333 13 -31v-378
c0 -96 -27.5 -167.833 -82.5 -215.5zM261.499 865.499c49 23 85.334 34.5 109.001 34.5s59.167 -11.333 106.5 -34s71 -38 71 -46c0 -23.333 -3.66699 -44.166 -11 -62.499s-17 -27.5 -29 -27.5c-9.33301 0 -56 13 -140 39c-84.667 -26 -131.334 -39 -140.001 -39
c-12 0 -21.667 9.16699 -29 27.5s-11 39.166 -11 62.499c0 7.33301 24.5 22.5 73.5 45.5z" />
    <glyph glyph-name="Udieresis" unicode="&#xdc;" horiz-adv-x="736" 
d="M608.5 63.5c-55 -47.667 -134.668 -71.501 -239.001 -71.501s-184.5 23.833 -240.5 71.5s-84 119.5 -84 215.5v367c0 16.667 18.833 31.667 56.5 45s81.5 20 131.5 20c40 0 66 -7.66699 78 -23c8.66699 -12 13 -22.333 13 -31v-298
c0 -75.333 2.83301 -125.166 8.5 -149.499s17.834 -36.5 36.501 -36.5s30.5 11.833 35.5 35.5s7.5 74.167 7.5 151.5v286c0 16.667 18.833 31.667 56.5 45s81.167 20 130.5 20c42 0 68.333 -7.66699 79 -23c8.66699 -12 13 -22.333 13 -31v-378
c0 -96 -27.5 -167.833 -82.5 -215.5zM228.999 729.999c-34.667 0 -60.998 6.5 -78.998 19.5s-27 37 -27 72s9.16699 58.5 27.5 70.5s44.666 18 78.999 18s60.666 -6 78.999 -18s27.5 -35.5 27.5 -70.5s-9.16699 -59 -27.5 -72s-44.833 -19.5 -79.5 -19.5zM506.001 729.999
c-34.667 0 -60.998 6.5 -78.998 19.5s-27 37 -27 72s9.16699 58.5 27.5 70.5s44.666 18 78.999 18s60.666 -6 78.999 -18s27.5 -35.5 27.5 -70.5s-9.16699 -59 -27.5 -72s-44.833 -19.5 -79.5 -19.5z" />
    <glyph glyph-name="Yacute" unicode="&#xdd;" horiz-adv-x="698" 
d="M426 8c-40.667 -5.33301 -81.167 -8.00098 -121.5 -8.00098s-66.5 2.16699 -78.5 6.5s-18 11.833 -18 22.5v174c-132 270 -198 416.667 -198 440c0 14 22.333 28.667 67 44s91.667 23 141 23c63.333 0 97 -18.667 101 -56l27 -269h11l19 262
c1.33301 18.667 25 33.834 71 45.501s89.667 17.5 131 17.5s70 -6 86 -18s24 -24.667 24 -38c0 -12.667 -67 -163 -201 -451v-174c0 -8.66699 -20.333 -15.667 -61 -21zM469 909.999c15.333 0 30.832 -12.668 46.499 -38.001s23.5 -56.666 23.5 -93.999
c0 -10 -28.833 -18.833 -86.5 -26.5s-105.5 -11.5 -143.5 -11.5c-12.667 0 -24.167 8 -34.5 24s-15.5 34.5 -15.5 55.5s24.833 41.333 74.5 61s94.834 29.5 135.501 29.5z" />
    <glyph glyph-name="Thorn" unicode="&#xde;" horiz-adv-x="718" 
d="M324 696l-0.00292969 -65.999c110 0 181.333 -5 214 -15c47.333 -14.667 78.666 -31 93.999 -49c26.667 -32 43.334 -68 50.001 -108c4 -24 6 -51 6 -81s-2 -57.167 -6 -81.5s-8.83301 -45.5 -14.5 -63.5s-14.167 -33.833 -25.5 -47.5s-22.166 -25.167 -32.499 -34.5
s-24.166 -17.166 -41.499 -23.499s-32.833 -11.333 -46.5 -15s-31.5 -6.16699 -53.5 -7.5c-31.333 -2.66699 -71.333 -4 -120 -4l-24 1v-77c0 -6.66699 -17 -12.334 -51 -17.001s-70.667 -7 -110 -7s-66.666 1 -81.999 3s-25.166 4.66699 -29.499 8
s-6.5 7.66602 -6.5 12.999v654c0 14 19.667 26.667 59 38s81.666 17 126.999 17c62 0 93 -12.333 93 -37zM324.997 257.001h24.001c13.333 0 23.333 1.5 30 4.5s13 13.167 19 30.5s9 40.5 9 69.5s-1.5 51.167 -4.5 66.5s-7.83301 26 -14.5 32
c-8.66699 8 -19.334 12 -32.001 12h-31v-215z" />
    <glyph glyph-name="germandbls" unicode="&#xdf;" horiz-adv-x="919" 
d="M185 0c-36 0 -60.9941 1.66895 -74.9941 5.00195s-21 11 -21 23v254h-51c-7.33301 0 -13.833 9 -19.5 27s-8.5 39.5 -8.5 64.5s4.66699 47.667 14 68s20 30.5 32 30.5h30c0 84 23.167 148.5 69.5 193.5s119.166 67.5 218.499 67.5s170.333 -10 213 -30
s64 -56.667 64 -110c0 -20.667 -4.5 -45.834 -13.5 -75.501s-13.5 -53.5 -13.5 -71.5s5.83301 -32.333 17.5 -43s26.167 -19 43.5 -25s36.166 -13.833 56.499 -23.5s39.166 -20.5 56.499 -32.5s31.833 -29.667 43.5 -53s17.5 -51.333 17.5 -84s-6.5 -61.5 -19.5 -86.5
s-28.833 -44.333 -47.5 -58s-41.334 -24.5 -68.001 -32.5c-42 -12.667 -88.667 -19 -140 -19c-120.667 0 -181 24.667 -181 74c0 30 4.83301 60.667 14.5 92s20.5 47 32.5 47c2.66699 0 17.167 -5.83301 43.5 -17.5s48.166 -17.5 65.499 -17.5c30 0 45 7 45 21
c0 16.667 -16 28.667 -48 36c-30.667 6 -60.334 21.333 -89.001 46c-14 11.333 -25.5 29.666 -34.5 54.999s-13.5 61.333 -13.5 108s-2.16699 80.167 -6.5 100.5s-12 30.5 -23 30.5s-18.833 -5.16699 -23.5 -15.5s-7 -32.5 -7 -66.5v-456c0 -17.333 -58 -26 -174 -26z" />
    <glyph glyph-name="agrave" unicode="&#xe0;" horiz-adv-x="659" 
d="M220 -9c-60.667 0 -108.002 14.333 -142.002 43c-14.667 12 -27.167 29.667 -37.5 53s-15.5 50.666 -15.5 81.999s7.5 58.666 22.5 81.999s33.167 41.333 54.5 54s46.333 23 75 31c43.333 11.333 91 17 143 17h33c0 27.333 -9.66699 46.666 -29 57.999
c-7.33301 4.66699 -19.166 7 -35.499 7s-36 -4.33301 -59 -13s-42.167 -17.5 -57.5 -26.5s-25.666 -13.5 -30.999 -13.5c-12 0 -28.333 15.833 -49 47.5s-31 60.5 -31 86.5c0 8.66699 12.333 20 37 34s59.5 26.833 104.5 38.5s88.833 17.5 131.5 17.5s79.5 -3.5 110.5 -10.5
s56.333 -15.5 76 -25.5s36.334 -23.333 50.001 -40s24 -31.667 31 -45s12.5 -30.666 16.5 -51.999c4 -24.667 6 -55 6 -91v-301c0 -7.33301 -17.833 -13.166 -53.5 -17.499s-71 -6.5 -106 -6.5s-57.667 1 -68 3s-16.5 4.33301 -18.5 7s-3.66699 7.33398 -5 14.001l-8 57h-8
c-16.667 -60 -62.334 -90 -137.001 -90zM353.998 157v117.002c-17.333 0 -31.333 -7.33301 -42 -22s-16 -31.334 -16 -50.001c0 -44 10 -66 30 -66c8.66699 0 15.5 2.16699 20.5 6.5s7.5 9.16602 7.5 14.499zM238.998 780.002c40.667 0 85.833 -9.83203 135.5 -29.499
s74.5 -40 74.5 -61s-5.16699 -39.5 -15.5 -55.5s-21.833 -24 -34.5 -24c-38 0 -85.833 3.83301 -143.5 11.5s-86.5 16.5 -86.5 26.5c0 37.333 7.83301 68.666 23.5 93.999s31.167 38 46.5 38z" />
    <glyph glyph-name="aacute" unicode="&#xe1;" horiz-adv-x="659" 
d="M220 -9c-60.667 0 -108.002 14.333 -142.002 43c-14.667 12 -27.167 29.667 -37.5 53s-15.5 50.666 -15.5 81.999s7.5 58.666 22.5 81.999s33.167 41.333 54.5 54s46.333 23 75 31c43.333 11.333 91 17 143 17h33c0 27.333 -9.66699 46.666 -29 57.999
c-7.33301 4.66699 -19.166 7 -35.499 7s-36 -4.33301 -59 -13s-42.167 -17.5 -57.5 -26.5s-25.666 -13.5 -30.999 -13.5c-12 0 -28.333 15.833 -49 47.5s-31 60.5 -31 86.5c0 8.66699 12.333 20 37 34s59.5 26.833 104.5 38.5s88.833 17.5 131.5 17.5s79.5 -3.5 110.5 -10.5
s56.333 -15.5 76 -25.5s36.334 -23.333 50.001 -40s24 -31.667 31 -45s12.5 -30.666 16.5 -51.999c4 -24.667 6 -55 6 -91v-301c0 -7.33301 -17.833 -13.166 -53.5 -17.499s-71 -6.5 -106 -6.5s-57.667 1 -68 3s-16.5 4.33301 -18.5 7s-3.66699 7.33398 -5 14.001l-8 57h-8
c-16.667 -60 -62.334 -90 -137.001 -90zM353.998 157v117.002c-17.333 0 -31.333 -7.33301 -42 -22s-16 -31.334 -16 -50.001c0 -44 10 -66 30 -66c8.66699 0 15.5 2.16699 20.5 6.5s7.5 9.16602 7.5 14.499zM438.998 780.002c15.333 0 30.832 -12.668 46.499 -38.001
s23.5 -56.666 23.5 -93.999c0 -10 -28.833 -18.833 -86.5 -26.5s-105.5 -11.5 -143.5 -11.5c-12.667 0 -24.167 8 -34.5 24s-15.5 34.5 -15.5 55.5s24.833 41.333 74.5 61s94.834 29.5 135.501 29.5z" />
    <glyph glyph-name="acircumflex" unicode="&#xe2;" horiz-adv-x="659" 
d="M220 -9c-60.667 0 -108.002 14.333 -142.002 43c-14.667 12 -27.167 29.667 -37.5 53s-15.5 50.666 -15.5 81.999s7.5 58.666 22.5 81.999s33.167 41.333 54.5 54s46.333 23 75 31c43.333 11.333 91 17 143 17h33c0 27.333 -9.66699 46.666 -29 57.999
c-7.33301 4.66699 -19.166 7 -35.499 7s-36 -4.33301 -59 -13s-42.167 -17.5 -57.5 -26.5s-25.666 -13.5 -30.999 -13.5c-12 0 -28.333 15.833 -49 47.5s-31 60.5 -31 86.5c0 8.66699 12.333 20 37 34s59.5 26.833 104.5 38.5s88.833 17.5 131.5 17.5s79.5 -3.5 110.5 -10.5
s56.333 -15.5 76 -25.5s36.334 -23.333 50.001 -40s24 -31.667 31 -45s12.5 -30.666 16.5 -51.999c4 -24.667 6 -55 6 -91v-301c0 -7.33301 -17.833 -13.166 -53.5 -17.499s-71 -6.5 -106 -6.5s-57.667 1 -68 3s-16.5 4.33301 -18.5 7s-3.66699 7.33398 -5 14.001l-8 57h-8
c-16.667 -60 -62.334 -90 -137.001 -90zM353.998 157v117.002c-17.333 0 -31.333 -7.33301 -42 -22s-16 -31.334 -16 -50.001c0 -44 10 -66 30 -66c8.66699 0 15.5 2.16699 20.5 6.5s7.5 9.16602 7.5 14.499zM252.498 745.502c49 23 85.334 34.5 109.001 34.5
s59.167 -11.333 106.5 -34s71 -38 71 -46c0 -23.333 -3.66699 -44.166 -11 -62.499s-17 -27.5 -29 -27.5c-9.33301 0 -56 13 -140 39c-84.667 -26 -131.334 -39 -140.001 -39c-12 0 -21.667 9.16699 -29 27.5s-11 39.166 -11 62.499c0 7.33301 24.5 22.5 73.5 45.5z" />
    <glyph glyph-name="atilde" unicode="&#xe3;" horiz-adv-x="659" 
d="M220 -9c-60.667 0 -108.002 14.333 -142.002 43c-14.667 12 -27.167 29.667 -37.5 53s-15.5 50.666 -15.5 81.999s7.5 58.666 22.5 81.999s33.167 41.333 54.5 54s46.333 23 75 31c43.333 11.333 91 17 143 17h33c0 27.333 -9.66699 46.666 -29 57.999
c-7.33301 4.66699 -19.166 7 -35.499 7s-36 -4.33301 -59 -13s-42.167 -17.5 -57.5 -26.5s-25.666 -13.5 -30.999 -13.5c-12 0 -28.333 15.833 -49 47.5s-31 60.5 -31 86.5c0 8.66699 12.333 20 37 34s59.5 26.833 104.5 38.5s88.833 17.5 131.5 17.5s79.5 -3.5 110.5 -10.5
s56.333 -15.5 76 -25.5s36.334 -23.333 50.001 -40s24 -31.667 31 -45s12.5 -30.666 16.5 -51.999c4 -24.667 6 -55 6 -91v-301c0 -7.33301 -17.833 -13.166 -53.5 -17.499s-71 -6.5 -106 -6.5s-57.667 1 -68 3s-16.5 4.33301 -18.5 7s-3.66699 7.33398 -5 14.001l-8 57h-8
c-16.667 -60 -62.334 -90 -137.001 -90zM353.998 157v117.002c-17.333 0 -31.333 -7.33301 -42 -22s-16 -31.334 -16 -50.001c0 -44 10 -66 30 -66c8.66699 0 15.5 2.16699 20.5 6.5s7.5 9.16602 7.5 14.499zM527.498 642.002c-34.333 -21.333 -64.333 -32.001 -90 -32.001
s-56.334 5.83301 -92.001 17.5s-58.667 17.5 -69 17.5s-30.166 -5.83301 -59.499 -17.5s-50 -17.5 -62 -17.5s-24.5 11.833 -37.5 35.5s-19.5 41.834 -19.5 54.501c0 11.333 18.167 27.5 54.5 48.5s66.5 31.5 90.5 31.5s53.5 -5.66699 88.5 -17s60.167 -17 75.5 -17
c4.66699 0 21.167 5.66699 49.5 17s49 17 62 17s26.333 -12.333 40 -37s20.5 -42.667 20.5 -54c0 -10 -17.167 -25.667 -51.5 -47z" />
    <glyph glyph-name="adieresis" unicode="&#xe4;" horiz-adv-x="659" 
d="M220 -9c-60.667 0 -108.002 14.333 -142.002 43c-14.667 12 -27.167 29.667 -37.5 53s-15.5 50.666 -15.5 81.999s7.5 58.666 22.5 81.999s33.167 41.333 54.5 54s46.333 23 75 31c43.333 11.333 91 17 143 17h33c0 27.333 -9.66699 46.666 -29 57.999
c-7.33301 4.66699 -19.166 7 -35.499 7s-36 -4.33301 -59 -13s-42.167 -17.5 -57.5 -26.5s-25.666 -13.5 -30.999 -13.5c-12 0 -28.333 15.833 -49 47.5s-31 60.5 -31 86.5c0 8.66699 12.333 20 37 34s59.5 26.833 104.5 38.5s88.833 17.5 131.5 17.5s79.5 -3.5 110.5 -10.5
s56.333 -15.5 76 -25.5s36.334 -23.333 50.001 -40s24 -31.667 31 -45s12.5 -30.666 16.5 -51.999c4 -24.667 6 -55 6 -91v-301c0 -7.33301 -17.833 -13.166 -53.5 -17.499s-71 -6.5 -106 -6.5s-57.667 1 -68 3s-16.5 4.33301 -18.5 7s-3.66699 7.33398 -5 14.001l-8 57h-8
c-16.667 -60 -62.334 -90 -137.001 -90zM353.998 157v117.002c-17.333 0 -31.333 -7.33301 -42 -22s-16 -31.334 -16 -50.001c0 -44 10 -66 30 -66c8.66699 0 15.5 2.16699 20.5 6.5s7.5 9.16602 7.5 14.499zM191.998 599.002c-34.667 0 -60.998 6.5 -78.998 19.5
s-27 37 -27 72s9.16699 58.5 27.5 70.5s44.666 18 78.999 18s60.666 -6 78.999 -18s27.5 -35.5 27.5 -70.5s-9.16699 -59 -27.5 -72s-44.833 -19.5 -79.5 -19.5zM469 599.002c-34.667 0 -60.998 6.5 -78.998 19.5s-27 37 -27 72s9.16699 58.5 27.5 70.5s44.666 18 78.999 18
s60.666 -6 78.999 -18s27.5 -35.5 27.5 -70.5s-9.16699 -59 -27.5 -72s-44.833 -19.5 -79.5 -19.5z" />
    <glyph glyph-name="aring" unicode="&#xe5;" horiz-adv-x="659" 
d="M220 -9c-60.667 0 -107.999 14.335 -141.999 43.002c-14.667 12 -27.167 29.667 -37.5 53s-15.5 50.666 -15.5 81.999s7.5 58.666 22.5 81.999s33.167 41.333 54.5 54s46.333 23 75 31c43.333 11.333 91 17 143 17h33c0 27.333 -9.66699 46.666 -29 57.999
c-7.33301 4.66699 -16 7 -26 7c-30.667 0 -63.834 -8 -99.501 -24s-54.834 -24 -57.501 -24c-12 0 -28.333 18.333 -49 55s-31 68 -31 94c0 19.333 31.333 37 94 53c46.667 12 98.834 18 156.501 18s102 -3.5 133 -10.5s56.333 -15.5 76 -25.5s36.334 -23.5 50.001 -40.5
s24 -32.167 31 -45.5s12.5 -30.333 16.5 -51c4 -24.667 6 -55.334 6 -92.001v-301c0 -7.33301 -17.833 -13.166 -53.5 -17.499s-71 -6.5 -106 -6.5s-57.667 1 -68 3s-16.5 4.33301 -18.5 7s-3.66699 7.33398 -5 14.001l-8 57h-8c-16.667 -60 -62.334 -90 -137.001 -90z
M354.001 157.002v117.002c-17.333 0 -31.333 -7.33301 -42 -22s-16 -31.334 -16 -50.001c0 -44 10 -66 30 -66c8.66699 0 15.5 2.16699 20.5 6.5s7.5 9.16602 7.5 14.499zM429.001 628.504c-18.667 -12.333 -47.667 -18.5 -87 -18.5s-68.333 6.16699 -87 18.5
s-28 35.333 -28 69s9.33301 55.834 28 66.501s47.667 16 87 16s68.333 -5.33301 87 -16s28 -32.834 28 -66.501s-9.33301 -56.667 -28 -69zM320.501 681.004c3.66699 -2.66699 10.832 -4 21.499 -4s17.834 1.33301 21.501 4s5.5 7.5 5.5 14.5s-2 11.667 -6 14
s-11.167 3.5 -21.5 3.5s-17.333 -1.16699 -21 -3.5s-5.5 -7 -5.5 -14s1.83301 -11.833 5.5 -14.5z" />
    <glyph glyph-name="ae" unicode="&#xe6;" horiz-adv-x="970" 
d="M627 226c0 -43.333 20.6709 -64.998 62.0039 -64.998c24 0 55.5 8.16699 94.5 24.5s59.5 24.5 61.5 24.5c12 0 28.333 -19 49 -57s31 -66 31 -84c0 -26 -26.333 -45.5 -79 -58.5s-109.334 -19.5 -170.001 -19.5c-102.667 0 -181.667 22.667 -237 68
c-30 -45.333 -103 -68 -219 -68c-60.667 0 -108 14.333 -142 43c-14.667 12 -27.167 29.667 -37.5 53s-15.5 50.666 -15.5 81.999s7.5 58.666 22.5 81.999s33.167 41.333 54.5 54s46.333 23 75 31c43.333 11.333 91 17 143 17h33c0 27.333 -9.66699 46.666 -29 57.999
c-7.33301 4.66699 -16 7 -26 7c-30.667 0 -63.834 -8 -99.501 -24s-54.834 -24 -57.501 -24c-12 0 -28.333 18.333 -49 55s-31 68 -31 94c0 10.667 13.667 22.334 41 35.001c51.333 23.333 130.666 35 237.999 35c70 0 125.333 -9.66699 166 -29c48 19.333 110 29 186 29
c168.667 0 253 -58.667 253 -176c0 -124.667 -95 -187 -285 -187h-33zM625.004 372.002l0.000976562 -66c19.333 0 35.166 7.66699 47.499 23s18.5 34 18.5 56c0 40 -10.333 60 -31 60c-23.333 0 -35 -24.333 -35 -73zM354.005 157.002v117.002
c-17.333 0 -31.333 -7.33301 -42 -22s-16 -31.334 -16 -50.001c0 -44 10 -66 30 -66c8.66699 0 15.5 2.16699 20.5 6.5s7.5 9.16602 7.5 14.499z" />
    <glyph glyph-name="ccedilla" unicode="&#xe7;" horiz-adv-x="545" 
d="M279 -84l-29 -1c-10.667 0 -16 10.333 -16 31v50c-139.333 22.667 -209 120.667 -209 294c0 48 7.66699 90.833 23 128.5s34 66.834 56 87.501s47.333 37.667 76 51c46 21.333 92 32 138 32c77.333 0 131.166 -6 161.499 -18s45.5 -32.333 45.5 -61
s-5.16699 -59.167 -15.5 -91.5s-23.833 -48.5 -40.5 -48.5c-5.33301 0 -21.5 5.66699 -48.5 17s-50.333 17 -70 17s-34.667 -7.83301 -45 -23.5s-15.5 -46 -15.5 -91s4.66699 -75.667 14 -92s23.833 -24.5 43.5 -24.5s44.167 6.66699 73.5 20s45.666 20 48.999 20
c12.667 0 24.834 -15 36.501 -45s17.5 -56.667 17.5 -80c0 -34 -16.333 -58.333 -49 -73s-79.334 -22.667 -140.001 -24v-16c58 -2 87 -25 87 -69c0 -20.667 -10 -37.5 -30 -50.5s-41.167 -21.333 -63.5 -25s-46.166 -5.5 -71.499 -5.5
c-5.33301 0 -9.66602 5.16699 -12.999 15.5s-5 21.166 -5 32.499s2.66699 17 8 17c49.333 0 74 5.33301 74 16c0 6.66699 -14 10 -42 10z" />
    <glyph glyph-name="egrave" unicode="&#xe8;" horiz-adv-x="640" 
d="M298 226c0 -43.333 20.665 -64.998 61.998 -64.998c24 0 55.333 8.16699 94 24.5s59 24.5 61 24.5c12.667 0 29.334 -19 50.001 -57s31 -66 31 -84c0 -26 -26.667 -45.667 -80 -59s-105.5 -20 -156.5 -20s-93.667 4 -128 12s-62.333 18.167 -84 30.5
s-40.667 27.5 -57 45.5s-28.5 35.167 -36.5 51.5s-14.333 34.5 -19 54.5c-6.66699 29.333 -10 59.666 -10 90.999c0 121.333 31.667 205 95 251c31.333 23.333 66.333 39.666 105 48.999s84.334 14 137.001 14c168.667 0 253 -58.667 253 -176
c0 -124.667 -94.667 -187 -284 -187h-33zM295.998 372.002l0.000976562 -66c19.333 0 35.166 7.66699 47.499 23s18.5 34 18.5 56c0 40 -10.333 60 -31 60c-23.333 0 -35 -24.333 -35 -73zM219.999 780.002c40.667 0 85.833 -9.83203 135.5 -29.499s74.5 -40 74.5 -61
s-5.16699 -39.5 -15.5 -55.5s-21.833 -24 -34.5 -24c-38 0 -85.833 3.83301 -143.5 11.5s-86.5 16.5 -86.5 26.5c0 37.333 7.83301 68.666 23.5 93.999s31.167 38 46.5 38z" />
    <glyph glyph-name="eacute" unicode="&#xe9;" horiz-adv-x="640" 
d="M298 226c0 -43.333 20.665 -64.998 61.998 -64.998c24 0 55.333 8.16699 94 24.5s59 24.5 61 24.5c12.667 0 29.334 -19 50.001 -57s31 -66 31 -84c0 -26 -26.667 -45.667 -80 -59s-105.5 -20 -156.5 -20s-93.667 4 -128 12s-62.333 18.167 -84 30.5
s-40.667 27.5 -57 45.5s-28.5 35.167 -36.5 51.5s-14.333 34.5 -19 54.5c-6.66699 29.333 -10 59.666 -10 90.999c0 121.333 31.667 205 95 251c31.333 23.333 66.333 39.666 105 48.999s84.334 14 137.001 14c168.667 0 253 -58.667 253 -176
c0 -124.667 -94.667 -187 -284 -187h-33zM295.998 372.002l0.000976562 -66c19.333 0 35.166 7.66699 47.499 23s18.5 34 18.5 56c0 40 -10.333 60 -31 60c-23.333 0 -35 -24.333 -35 -73zM438.999 780.002c15.333 0 30.832 -12.668 46.499 -38.001
s23.5 -56.666 23.5 -93.999c0 -10 -28.833 -18.833 -86.5 -26.5s-105.5 -11.5 -143.5 -11.5c-12.667 0 -24.167 8 -34.5 24s-15.5 34.5 -15.5 55.5s24.833 41.333 74.5 61s94.834 29.5 135.501 29.5z" />
    <glyph glyph-name="ecircumflex" unicode="&#xea;" horiz-adv-x="640" 
d="M298 226c0 -43.333 20.665 -64.998 61.998 -64.998c24 0 55.333 8.16699 94 24.5s59 24.5 61 24.5c12.667 0 29.334 -19 50.001 -57s31 -66 31 -84c0 -26 -26.667 -45.667 -80 -59s-105.5 -20 -156.5 -20s-93.667 4 -128 12s-62.333 18.167 -84 30.5
s-40.667 27.5 -57 45.5s-28.5 35.167 -36.5 51.5s-14.333 34.5 -19 54.5c-6.66699 29.333 -10 59.666 -10 90.999c0 121.333 31.667 205 95 251c31.333 23.333 66.333 39.666 105 48.999s84.334 14 137.001 14c168.667 0 253 -58.667 253 -176
c0 -124.667 -94.667 -187 -284 -187h-33zM295.998 372.002l0.000976562 -66c19.333 0 35.166 7.66699 47.499 23s18.5 34 18.5 56c0 40 -10.333 60 -31 60c-23.333 0 -35 -24.333 -35 -73zM223.499 745.502c49 23 85.334 34.5 109.001 34.5s59.167 -11.333 106.5 -34
s71 -38 71 -46c0 -23.333 -3.66699 -44.166 -11 -62.499s-17 -27.5 -29 -27.5c-9.33301 0 -56 13 -140 39c-84.667 -26 -131.334 -39 -140.001 -39c-12 0 -21.667 9.16699 -29 27.5s-11 39.166 -11 62.499c0 7.33301 24.5 22.5 73.5 45.5z" />
    <glyph glyph-name="edieresis" unicode="&#xeb;" horiz-adv-x="640" 
d="M298 226c0 -43.333 20.665 -64.998 61.998 -64.998c24 0 55.333 8.16699 94 24.5s59 24.5 61 24.5c12.667 0 29.334 -19 50.001 -57s31 -66 31 -84c0 -26 -26.667 -45.667 -80 -59s-105.5 -20 -156.5 -20s-93.667 4 -128 12s-62.333 18.167 -84 30.5
s-40.667 27.5 -57 45.5s-28.5 35.167 -36.5 51.5s-14.333 34.5 -19 54.5c-6.66699 29.333 -10 59.666 -10 90.999c0 121.333 31.667 205 95 251c31.333 23.333 66.333 39.666 105 48.999s84.334 14 137.001 14c168.667 0 253 -58.667 253 -176
c0 -124.667 -94.667 -187 -284 -187h-33zM295.998 372.002l0.000976562 -66c19.333 0 35.166 7.66699 47.499 23s18.5 34 18.5 56c0 40 -10.333 60 -31 60c-23.333 0 -35 -24.333 -35 -73zM189.999 600.002c-34.667 0 -60.998 6.5 -78.998 19.5s-27 37 -27 72
s9.16699 58.5 27.5 70.5s44.666 18 78.999 18s60.666 -6 78.999 -18s27.5 -35.5 27.5 -70.5s-9.16699 -59 -27.5 -72s-44.833 -19.5 -79.5 -19.5zM467.001 600.002c-34.667 0 -60.998 6.5 -78.998 19.5s-27 37 -27 72s9.16699 58.5 27.5 70.5s44.666 18 78.999 18
s60.666 -6 78.999 -18s27.5 -35.5 27.5 -70.5s-9.16699 -59 -27.5 -72s-44.833 -19.5 -79.5 -19.5z" />
    <glyph glyph-name="igrave" unicode="&#xec;" horiz-adv-x="341" 
d="M306 534l-0.000976562 -510.002c0 -7.33301 -19.167 -13.166 -57.5 -17.499s-77.666 -6.5 -117.999 -6.5s-66.333 1.83301 -78 5.5s-17.5 9.83398 -17.5 18.501v492c0 14.667 19 29 57 43s79 21 123 21c60.667 0 91 -15.333 91 -46zM70.999 779.998
c40.667 0 85.833 -9.83203 135.5 -29.499s74.5 -40 74.5 -61s-5.16699 -39.5 -15.5 -55.5s-21.833 -24 -34.5 -24c-38 0 -85.833 3.83301 -143.5 11.5s-86.5 16.5 -86.5 26.5c0 37.333 7.83301 68.666 23.5 93.999s31.167 38 46.5 38z" />
    <glyph glyph-name="iacute" unicode="&#xed;" horiz-adv-x="341" 
d="M306 534l-0.000976562 -510.002c0 -7.33301 -19.167 -13.166 -57.5 -17.499s-77.666 -6.5 -117.999 -6.5s-66.333 1.83301 -78 5.5s-17.5 9.83398 -17.5 18.501v492c0 14.667 19 29 57 43s79 21 123 21c60.667 0 91 -15.333 91 -46zM270.999 779.998
c15.333 0 30.832 -12.668 46.499 -38.001s23.5 -56.666 23.5 -93.999c0 -10 -28.833 -18.833 -86.5 -26.5s-105.5 -11.5 -143.5 -11.5c-12.667 0 -24.167 8 -34.5 24s-15.5 34.5 -15.5 55.5s24.833 41.333 74.5 61s94.834 29.5 135.501 29.5z" />
    <glyph glyph-name="icircumflex" unicode="&#xee;" horiz-adv-x="341" 
d="M306 534l-0.000976562 -510.002c0 -7.33301 -19.167 -13.166 -57.5 -17.499s-77.666 -6.5 -117.999 -6.5s-66.333 1.83301 -78 5.5s-17.5 9.83398 -17.5 18.501v492c0 14.667 19 29 57 43s79 21 123 21c60.667 0 91 -15.333 91 -46zM69.499 735.498
c49 23 85.334 34.5 109.001 34.5s59.167 -11.333 106.5 -34s71 -38 71 -46c0 -23.333 -3.66699 -44.166 -11 -62.499s-17 -27.5 -29 -27.5c-9.33301 0 -56 13 -140 39c-84.667 -26 -131.334 -39 -140.001 -39c-12 0 -21.667 9.16699 -29 27.5s-11 39.166 -11 62.499
c0 7.33301 24.5 22.5 73.5 45.5z" />
    <glyph glyph-name="idieresis" unicode="&#xef;" horiz-adv-x="341" 
d="M306 534l-0.000976562 -510.002c0 -7.33301 -19.167 -13.166 -57.5 -17.499s-77.666 -6.5 -117.999 -6.5s-66.333 1.83301 -78 5.5s-17.5 9.83398 -17.5 18.501v492c0 14.667 19 29 57 43s79 21 123 21c60.667 0 91 -15.333 91 -46zM37.999 599.998
c-34.667 0 -60.998 6.5 -78.998 19.5s-27 37 -27 72s9.16699 58.5 27.5 70.5s44.666 18 78.999 18s60.666 -6 78.999 -18s27.5 -35.5 27.5 -70.5s-9.16699 -59 -27.5 -72s-44.833 -19.5 -79.5 -19.5zM315.001 599.998c-34.667 0 -60.998 6.5 -78.998 19.5s-27 37 -27 72
s9.16699 58.5 27.5 70.5s44.666 18 78.999 18s60.666 -6 78.999 -18s27.5 -35.5 27.5 -70.5s-9.16699 -59 -27.5 -72s-44.833 -19.5 -79.5 -19.5z" />
    <glyph glyph-name="eth" unicode="&#xf0;" horiz-adv-x="705" 
d="M634 590h-5v-566c0 -7.33301 -18.5 -13.166 -55.5 -17.499s-72.667 -6.5 -107 -6.5s-56.333 1.16699 -66 3.5s-15.667 4.83301 -18 7.5s-3.83301 7 -4.5 13l-8 57h-8c-6 -23.333 -18 -43 -36 -59c-8.66699 -8 -21.834 -15.167 -39.501 -21.5s-38.834 -9.5 -63.501 -9.5
s-47.667 3.66699 -69 11s-38.833 16.333 -52.5 27s-25.5 25 -35.5 43s-17.667 35.167 -23 51.5s-9.33301 36.5 -12 60.5c-4 35.333 -6 78.333 -6 129s4.33301 95 13 133s21.834 67.167 39.501 87.5s37.5 34.666 59.5 42.999s46.667 12.5 74 12.5s50.5 -2.33301 69.5 -7
s33.5 -10 43.5 -16c19.333 -13.333 31.333 -25.666 36 -36.999l2 -7h8v68h-38c-18 0 -27 20.333 -27 61c0 23.333 7.33301 45.166 22 65.499s29 30.5 43 30.5h17c41.333 22 88.833 33 142.5 33s85.834 -11 96.501 -33h43c17.333 0 26 -18.333 26 -55
c0 -22 -7 -44.5 -21 -67.5s-27.333 -34.5 -40 -34.5zM335 137c10.667 0 18.668 6.66602 24.001 19.999v267c0 6.66699 -3.5 11.834 -10.5 15.501s-13.167 5.5 -18.5 5.5c-22.667 0 -34 -52 -34 -156c0 -55.333 3.16699 -94.5 9.5 -117.5s16.166 -34.5 29.499 -34.5z" />
    <glyph glyph-name="ntilde" unicode="&#xf1;" horiz-adv-x="673" 
d="M638 332l0.00195312 -308.004c0 -7.33301 -19 -13.166 -57 -17.499s-77.167 -6.5 -117.5 -6.5s-66.333 1.83301 -78 5.5s-17.5 9.83398 -17.5 18.501v318c0 30 -1.16699 49.667 -3.5 59l-6.5 25c-4.66699 12.667 -13 19 -25 19c-18.667 0 -28 -9 -28 -27v-394
c0 -7.33301 -18.833 -13.166 -56.5 -17.499s-76.667 -6.5 -117 -6.5s-66.5 1.83301 -78.5 5.5s-18 9.83398 -18 18.501v493c0 14 19.167 28 57.5 42s78.833 21 121.5 21s66.667 -12.333 72 -37l9 -44h7c19.333 38.667 52.666 65.667 99.999 81c19.333 6 40.666 9 63.999 9
c67.333 0 112.833 -20.167 136.5 -60.5s35.5 -105.833 35.5 -196.5zM497.502 641.996c-34.333 -21.333 -64.333 -32.001 -90 -32.001s-56.334 5.83301 -92.001 17.5s-58.667 17.5 -69 17.5s-30.166 -5.83301 -59.499 -17.5s-50 -17.5 -62 -17.5s-24.5 11.833 -37.5 35.5
s-19.5 41.834 -19.5 54.501c0 11.333 18.167 27.5 54.5 48.5s66.5 31.5 90.5 31.5s53.5 -5.66699 88.5 -17s60.167 -17 75.5 -17c4.66699 0 21.167 5.66699 49.5 17s49 17 62 17s26.333 -12.333 40 -37s20.5 -42.667 20.5 -54c0 -10 -17.167 -25.667 -51.5 -47z" />
    <glyph glyph-name="ograve" unicode="&#xf2;" horiz-adv-x="685" 
d="M343 -9c-50 0 -93 4.33301 -129 13s-68.667 24 -98 46c-60.667 44 -91 126 -91 246c0 106.667 31 183 93 229c58 42.667 133 64 225 64c39.333 0 73 -1.83301 101 -5.5s56.5 -11.5 85.5 -23.5s52.333 -28.333 70 -49s32.167 -49.167 43.5 -85.5s17 -79.5 17 -129.5
c0 -101.333 -28.667 -177.5 -86 -228.5s-134.333 -76.5 -231 -76.5zM322.5 143c5 -4.66699 11.666 -7.00098 19.999 -7.00098s15 2.33301 20 7s9.66699 19 14 43s6.5 54.167 6.5 90.5s-0.833008 64.333 -2.5 84s-3.66699 34.834 -6 45.501s-5.5 19 -9.5 25
c-6 8.66699 -13.167 13 -21.5 13s-15.166 -2.5 -20.499 -7.5s-10.333 -19.667 -15 -44s-7 -58.833 -7 -103.5s2.33301 -79 7 -103s9.5 -38.333 14.5 -43zM231.999 779.999c40.667 0 85.833 -9.83203 135.5 -29.499s74.5 -40 74.5 -61s-5.16699 -39.5 -15.5 -55.5
s-21.833 -24 -34.5 -24c-38 0 -85.833 3.83301 -143.5 11.5s-86.5 16.5 -86.5 26.5c0 37.333 7.83301 68.666 23.5 93.999s31.167 38 46.5 38z" />
    <glyph glyph-name="oacute" unicode="&#xf3;" horiz-adv-x="685" 
d="M343 -9c-50 0 -93 4.33301 -129 13s-68.667 24 -98 46c-60.667 44 -91 126 -91 246c0 106.667 31 183 93 229c58 42.667 133 64 225 64c39.333 0 73 -1.83301 101 -5.5s56.5 -11.5 85.5 -23.5s52.333 -28.333 70 -49s32.167 -49.167 43.5 -85.5s17 -79.5 17 -129.5
c0 -101.333 -28.667 -177.5 -86 -228.5s-134.333 -76.5 -231 -76.5zM322.5 143c5 -4.66699 11.666 -7.00098 19.999 -7.00098s15 2.33301 20 7s9.66699 19 14 43s6.5 54.167 6.5 90.5s-0.833008 64.333 -2.5 84s-3.66699 34.834 -6 45.501s-5.5 19 -9.5 25
c-6 8.66699 -13.167 13 -21.5 13s-15.166 -2.5 -20.499 -7.5s-10.333 -19.667 -15 -44s-7 -58.833 -7 -103.5s2.33301 -79 7 -103s9.5 -38.333 14.5 -43zM461.999 779.999c15.333 0 30.832 -12.668 46.499 -38.001s23.5 -56.666 23.5 -93.999
c0 -10 -28.833 -18.833 -86.5 -26.5s-105.5 -11.5 -143.5 -11.5c-12.667 0 -24.167 8 -34.5 24s-15.5 34.5 -15.5 55.5s24.833 41.333 74.5 61s94.834 29.5 135.501 29.5z" />
    <glyph glyph-name="ocircumflex" unicode="&#xf4;" horiz-adv-x="685" 
d="M343 -9c-50 0 -93 4.33301 -129 13s-68.667 24 -98 46c-60.667 44 -91 126 -91 246c0 106.667 31 183 93 229c58 42.667 133 64 225 64c39.333 0 73 -1.83301 101 -5.5s56.5 -11.5 85.5 -23.5s52.333 -28.333 70 -49s32.167 -49.167 43.5 -85.5s17 -79.5 17 -129.5
c0 -101.333 -28.667 -177.5 -86 -228.5s-134.333 -76.5 -231 -76.5zM322.5 143c5 -4.66699 11.666 -7.00098 19.999 -7.00098s15 2.33301 20 7s9.66699 19 14 43s6.5 54.167 6.5 90.5s-0.833008 64.333 -2.5 84s-3.66699 34.834 -6 45.501s-5.5 19 -9.5 25
c-6 8.66699 -13.167 13 -21.5 13s-15.166 -2.5 -20.499 -7.5s-10.333 -19.667 -15 -44s-7 -58.833 -7 -103.5s2.33301 -79 7 -103s9.5 -38.333 14.5 -43zM235.499 745.499c49 23 85.334 34.5 109.001 34.5s59.167 -11.333 106.5 -34s71 -38 71 -46
c0 -23.333 -3.66699 -44.166 -11 -62.499s-17 -27.5 -29 -27.5c-9.33301 0 -56 13 -140 39c-84.667 -26 -131.334 -39 -140.001 -39c-12 0 -21.667 9.16699 -29 27.5s-11 39.166 -11 62.499c0 7.33301 24.5 22.5 73.5 45.5z" />
    <glyph glyph-name="otilde" unicode="&#xf5;" horiz-adv-x="685" 
d="M343 -9c-50 0 -93 4.33301 -129 13s-68.667 24 -98 46c-60.667 44 -91 126 -91 246c0 106.667 31 183 93 229c58 42.667 133 64 225 64c39.333 0 73 -1.83301 101 -5.5s56.5 -11.5 85.5 -23.5s52.333 -28.333 70 -49s32.167 -49.167 43.5 -85.5s17 -79.5 17 -129.5
c0 -101.333 -28.667 -177.5 -86 -228.5s-134.333 -76.5 -231 -76.5zM322.5 143c5 -4.66699 11.666 -7.00098 19.999 -7.00098s15 2.33301 20 7s9.66699 19 14 43s6.5 54.167 6.5 90.5s-0.833008 64.333 -2.5 84s-3.66699 34.834 -6 45.501s-5.5 19 -9.5 25
c-6 8.66699 -13.167 13 -21.5 13s-15.166 -2.5 -20.499 -7.5s-10.333 -19.667 -15 -44s-7 -58.833 -7 -103.5s2.33301 -79 7 -103s9.5 -38.333 14.5 -43zM537.499 641.999c-34.333 -21.333 -64.333 -32.001 -90 -32.001s-56.334 5.83301 -92.001 17.5s-58.667 17.5 -69 17.5
s-30.166 -5.83301 -59.499 -17.5s-50 -17.5 -62 -17.5s-24.5 11.833 -37.5 35.5s-19.5 41.834 -19.5 54.501c0 11.333 18.167 27.5 54.5 48.5s66.5 31.5 90.5 31.5s53.5 -5.66699 88.5 -17s60.167 -17 75.5 -17c4.66699 0 21.167 5.66699 49.5 17s49 17 62 17
s26.333 -12.333 40 -37s20.5 -42.667 20.5 -54c0 -10 -17.167 -25.667 -51.5 -47z" />
    <glyph glyph-name="odieresis" unicode="&#xf6;" horiz-adv-x="685" 
d="M343 -9c-50 0 -93 4.33301 -129 13s-68.667 24 -98 46c-60.667 44 -91 126 -91 246c0 106.667 31 183 93 229c58 42.667 133 64 225 64c39.333 0 73 -1.83301 101 -5.5s56.5 -11.5 85.5 -23.5s52.333 -28.333 70 -49s32.167 -49.167 43.5 -85.5s17 -79.5 17 -129.5
c0 -101.333 -28.667 -177.5 -86 -228.5s-134.333 -76.5 -231 -76.5zM322.5 143c5 -4.66699 11.666 -7.00098 19.999 -7.00098s15 2.33301 20 7s9.66699 19 14 43s6.5 54.167 6.5 90.5s-0.833008 64.333 -2.5 84s-3.66699 34.834 -6 45.501s-5.5 19 -9.5 25
c-6 8.66699 -13.167 13 -21.5 13s-15.166 -2.5 -20.499 -7.5s-10.333 -19.667 -15 -44s-7 -58.833 -7 -103.5s2.33301 -79 7 -103s9.5 -38.333 14.5 -43zM202.999 599.999c-34.667 0 -60.998 6.5 -78.998 19.5s-27 37 -27 72s9.16699 58.5 27.5 70.5s44.666 18 78.999 18
s60.666 -6 78.999 -18s27.5 -35.5 27.5 -70.5s-9.16699 -59 -27.5 -72s-44.833 -19.5 -79.5 -19.5zM480.001 599.999c-34.667 0 -60.998 6.5 -78.998 19.5s-27 37 -27 72s9.16699 58.5 27.5 70.5s44.666 18 78.999 18s60.666 -6 78.999 -18s27.5 -35.5 27.5 -70.5
s-9.16699 -59 -27.5 -72s-44.833 -19.5 -79.5 -19.5z" />
    <glyph glyph-name="divide" unicode="&#xf7;" horiz-adv-x="533" 
d="M268 -10c-28 0 -49.333 5.83301 -64 17.5s-22 33.334 -22 65.001s7.5 52.834 22.5 63.501s36.167 16 63.5 16s48.5 -5.33301 63.5 -16s22.5 -31.834 22.5 -63.501s-7.33301 -53.334 -22 -65.001s-36 -17.5 -64 -17.5zM452 190h-405.001
c-7.33301 0 -13.666 6.16699 -18.999 18.5s-8 30 -8 53s7.33301 46.333 22 70s29 35.5 43 35.5h402c17.333 0 26 -21.667 26 -65c0 -22 -7 -46.167 -21 -72.5s-27.333 -39.5 -40 -39.5zM267.999 407c-28 0 -49.333 5.83301 -64 17.5s-22 33.334 -22 65.001
s7.5 52.834 22.5 63.501s36.167 16 63.5 16s48.5 -5.33301 63.5 -16s22.5 -31.834 22.5 -63.501s-7.33301 -53.334 -22 -65.001s-36 -17.5 -64 -17.5z" />
    <glyph glyph-name="oslash" unicode="&#xf8;" horiz-adv-x="685" 
d="M193 -87c-14.667 0 -25.166 4.50098 -31.499 13.501s-9.5 18.833 -9.5 29.5s4 32 12 64c-92.667 40 -139 132 -139 276c0 135.333 40 222 120 260c26.667 12.667 53.5 21.167 80.5 25.5s58.833 6.83301 95.5 7.5l9 35c9.33301 36 60.666 54 153.999 54
c34.667 0 52 -11.667 52 -35c0 -8.66699 -5.66699 -34.667 -17 -78c94 -36.667 141 -126.334 141 -269.001c0 -116.667 -28.333 -197.334 -85 -242.001c-28 -22 -59 -37.667 -93 -47s-74.333 -14.666 -121 -15.999l-9 -34c-8 -29.333 -61 -44 -159 -44zM322.501 143.001
c5 -4.66699 11.666 -7.00098 19.999 -7.00098s15 2.33301 20 7s9.66699 19 14 43s6.5 54.167 6.5 90.5s-0.833008 64.333 -2.5 84s-3.66699 34.834 -6 45.501s-5.5 19 -9.5 25c-6 8.66699 -13.167 13 -21.5 13s-15.166 -2.5 -20.499 -7.5s-10.333 -19.667 -15 -44
s-7 -58.833 -7 -103.5s2.33301 -79 7 -103s9.5 -38.333 14.5 -43z" />
    <glyph glyph-name="ugrave" unicode="&#xf9;" horiz-adv-x="678" 
d="M236 -9c-74.667 0 -126.833 19.334 -156.5 58.001s-44.5 106 -44.5 202v272c0 13.333 19.667 26.166 59 38.499s80.666 18.5 123.999 18.5c58 0 87 -15 87 -45v-254c0 -50.667 2 -87.5 6 -110.5s14 -34.5 30 -34.5c21.333 0 32 9 32 27v360c0 14 20.667 27 62 39
s86.333 18 135 18s73 -13 73 -39v-515c0 -9.33301 -21 -16 -63 -20s-83.333 -6 -124 -6s-61.334 5.33301 -62.001 16l-10 65h-8c-6 -24 -18 -43.667 -36 -59c-9.33301 -8 -23.166 -15.167 -41.499 -21.5s-39.166 -9.5 -62.499 -9.5zM249.001 780.001
c40.667 0 85.833 -9.83203 135.5 -29.499s74.5 -40 74.5 -61s-5.16699 -39.5 -15.5 -55.5s-21.833 -24 -34.5 -24c-38 0 -85.833 3.83301 -143.5 11.5s-86.5 16.5 -86.5 26.5c0 37.333 7.83301 68.666 23.5 93.999s31.167 38 46.5 38z" />
    <glyph glyph-name="uacute" unicode="&#xfa;" horiz-adv-x="678" 
d="M394 16l-9.99902 65.001h-8l-2 -9c-2.66699 -14.667 -14 -31 -34 -49c-9.33301 -8.66699 -23.166 -16.167 -41.499 -22.5s-39.166 -9.5 -62.499 -9.5c-74.667 0 -126.834 19.333 -156.501 58s-44.5 106 -44.5 202v272c0 13.333 19.667 26.166 59 38.499
s80.666 18.5 123.999 18.5c58 0 87 -15 87 -45v-254c0 -50.667 2 -87.5 6 -110.5s14 -34.5 30 -34.5c21.333 0 32 9 32 27v360c0 14 20.667 27 62 39s86.333 18 135 18s73 -13 73 -39v-515c0 -9.33301 -21 -16 -63 -20s-83.333 -6 -124 -6s-61.334 5.33301 -62.001 16z
M459.001 780.001c15.333 0 30.832 -12.668 46.499 -38.001s23.5 -56.666 23.5 -93.999c0 -10 -28.833 -18.833 -86.5 -26.5s-105.5 -11.5 -143.5 -11.5c-12.667 0 -24.167 8 -34.5 24s-15.5 34.5 -15.5 55.5s24.833 41.333 74.5 61s94.834 29.5 135.501 29.5z" />
    <glyph glyph-name="ucircumflex" unicode="&#xfb;" horiz-adv-x="678" 
d="M394 16l-9.99902 65.001h-8l-2 -9c-2.66699 -14.667 -14 -31 -34 -49c-9.33301 -8.66699 -23.166 -16.167 -41.499 -22.5s-39.166 -9.5 -62.499 -9.5c-74.667 0 -126.834 19.333 -156.501 58s-44.5 106 -44.5 202v272c0 13.333 19.667 26.166 59 38.499
s80.666 18.5 123.999 18.5c58 0 87 -15 87 -45v-254c0 -50.667 2 -87.5 6 -110.5s14 -34.5 30 -34.5c21.333 0 32 9 32 27v360c0 14 20.667 27 62 39s86.333 18 135 18s73 -13 73 -39v-515c0 -9.33301 -21 -16 -63 -20s-83.333 -6 -124 -6s-61.334 5.33301 -62.001 16z
M234.501 735.501c49 23 85.334 34.5 109.001 34.5s59.167 -11.333 106.5 -34s71 -38 71 -46c0 -23.333 -3.66699 -44.166 -11 -62.499s-17 -27.5 -29 -27.5c-9.33301 0 -56 13 -140 39c-84.667 -26 -131.334 -39 -140.001 -39c-12 0 -21.667 9.16699 -29 27.5
s-11 39.166 -11 62.499c0 7.33301 24.5 22.5 73.5 45.5z" />
    <glyph glyph-name="udieresis" unicode="&#xfc;" horiz-adv-x="678" 
d="M394 16l-9.99902 65.001h-8l-2 -9c-2.66699 -14.667 -14 -31 -34 -49c-9.33301 -8.66699 -23.166 -16.167 -41.499 -22.5s-39.166 -9.5 -62.499 -9.5c-74.667 0 -126.834 19.333 -156.501 58s-44.5 106 -44.5 202v272c0 13.333 19.667 26.166 59 38.499
s80.666 18.5 123.999 18.5c58 0 87 -15 87 -45v-254c0 -50.667 2 -87.5 6 -110.5s14 -34.5 30 -34.5c21.333 0 32 9 32 27v360c0 14 20.667 27 62 39s86.333 18 135 18s73 -13 73 -39v-515c0 -9.33301 -21 -16 -63 -20s-83.333 -6 -124 -6s-61.334 5.33301 -62.001 16z
M200.001 600.001c-34.667 0 -60.998 6.5 -78.998 19.5s-27 37 -27 72s9.16699 58.5 27.5 70.5s44.666 18 78.999 18s60.666 -6 78.999 -18s27.5 -35.5 27.5 -70.5s-9.16699 -59 -27.5 -72s-44.833 -19.5 -79.5 -19.5zM477.003 600.001c-34.667 0 -60.998 6.5 -78.998 19.5
s-27 37 -27 72s9.16699 58.5 27.5 70.5s44.666 18 78.999 18s60.666 -6 78.999 -18s27.5 -35.5 27.5 -70.5s-9.16699 -59 -27.5 -72s-44.833 -19.5 -79.5 -19.5z" />
    <glyph glyph-name="yacute" unicode="&#xfd;" horiz-adv-x="661" 
d="M372 65l0.00195312 59.001h-8c-3.33301 -3.33301 -8.33301 -7.66602 -15 -12.999s-22.334 -12.333 -47.001 -21s-52.167 -13 -82.5 -13s-57 4.83301 -80 14.5s-41.167 22.667 -54.5 39s-23.666 38.166 -30.999 65.499c-12.667 43.333 -19 104.666 -19 183.999v138
c0 14 19.667 27.833 59 41.5s80.666 20.5 123.999 20.5c58 0 87 -15 87 -45v-126c0 -133.333 10.667 -200 32 -200c12.667 0 19 9 19 27v282c0 14 21 27.833 63 41.5s87 20.5 135 20.5s72 -13 72 -39v-473c0 -148.667 -100.667 -223 -302 -223c-106 0 -178 10.333 -216 31
c-16.667 9.33301 -25 19 -25 29c0 16 6.66699 42.833 20 80.5s25.666 56.5 36.999 56.5c2.66699 0 12 -2 28 -6c49.333 -13.333 90.5 -20 123.5 -20s54.667 3.66699 65 11s15.5 20 15.5 38zM440.002 780.001c15.333 0 30.832 -12.668 46.499 -38.001
s23.5 -56.666 23.5 -93.999c0 -10 -28.833 -18.833 -86.5 -26.5s-105.5 -11.5 -143.5 -11.5c-12.667 0 -24.167 8 -34.5 24s-15.5 34.5 -15.5 55.5s24.833 41.333 74.5 61s94.834 29.5 135.501 29.5z" />
    <glyph glyph-name="thorn" unicode="&#xfe;" horiz-adv-x="735" 
d="M31 -102l-0.00292969 771c0 14.667 19.667 29 59 43s80.666 21 123.999 21c58.667 0 88 -15.333 88 -46v-96l-11 -69h8c18 21.333 41.5 37.833 70.5 49.5s58 17.5 87 17.5s53.833 -3.5 74.5 -10.5s37.167 -17.833 49.5 -32.5s22.333 -29.5 30 -44.5
s13.167 -34.833 16.5 -59.5c4.66699 -35.333 7 -77.333 7 -126s-3.33301 -90.834 -10 -126.501s-17.667 -68.834 -33 -99.501s-37.166 -54.667 -65.499 -72s-62.166 -26 -101.499 -26c-21.333 0 -40.166 3.16699 -56.499 9.5s-28.5 13.833 -36.5 22.5
c-16.667 18 -26.334 34 -29.001 48l-1 10h-8l14 -90v-94c0 -7.33301 -19.167 -13.166 -57.5 -17.499s-77.666 -6.5 -117.999 -6.5s-67.166 1.83301 -80.499 5.5s-20 9.83398 -20 18.501zM353.997 412c-6 22.667 -15 34 -27 34s-20.667 -6.66699 -26 -20v-244
c0 -17.333 9 -26 27 -26c8 0 14.667 3.33301 20 10c10 12.667 15 51.167 15 115.5s-3 107.833 -9 130.5z" />
    <glyph glyph-name="ydieresis" unicode="&#xff;" horiz-adv-x="661" 
d="M372 65l0.00195312 59.001h-8c-3.33301 -3.33301 -8.33301 -7.66602 -15 -12.999s-22.334 -12.333 -47.001 -21s-52.167 -13 -82.5 -13s-57 4.83301 -80 14.5s-41.167 22.667 -54.5 39s-23.666 38.166 -30.999 65.499c-12.667 43.333 -19 104.666 -19 183.999v138
c0 14 19.667 27.833 59 41.5s80.666 20.5 123.999 20.5c58 0 87 -15 87 -45v-126c0 -133.333 10.667 -200 32 -200c12.667 0 19 9 19 27v282c0 14 21 27.833 63 41.5s87 20.5 135 20.5s72 -13 72 -39v-473c0 -148.667 -100.667 -223 -302 -223c-106 0 -178 10.333 -216 31
c-16.667 9.33301 -25 19 -25 29c0 16 6.66699 42.833 20 80.5s25.666 56.5 36.999 56.5c2.66699 0 12 -2 28 -6c49.333 -13.333 90.5 -20 123.5 -20s54.667 3.66699 65 11s15.5 20 15.5 38zM191.002 600.001c-34.667 0 -60.998 6.5 -78.998 19.5s-27 37 -27 72
s9.16699 58.5 27.5 70.5s44.666 18 78.999 18s60.666 -6 78.999 -18s27.5 -35.5 27.5 -70.5s-9.16699 -59 -27.5 -72s-44.833 -19.5 -79.5 -19.5zM468.004 600.001c-34.667 0 -60.998 6.5 -78.998 19.5s-27 37 -27 72s9.16699 58.5 27.5 70.5s44.666 18 78.999 18
s60.666 -6 78.999 -18s27.5 -35.5 27.5 -70.5s-9.16699 -59 -27.5 -72s-44.833 -19.5 -79.5 -19.5z" />
    <glyph glyph-name="Amacron" unicode="&#x100;" horiz-adv-x="748" 
d="M290.5 11c-19 -7.33301 -53.166 -11 -102.499 -11s-90.5 4.5 -123.5 13.5s-49.5 20.5 -49.5 34.5c0 16 29.667 118.167 89 306.5l102 325.5c3.33301 8.66699 30.166 15.834 80.499 21.501s104.333 8.5 162 8.5s89.5 -10 95.5 -30c126 -418.667 189 -631.334 189 -638.001
s-4 -13.334 -12 -20.001c-18.667 -14.667 -55.667 -22 -111 -22c-118 0 -178.333 14 -181 42l-7 65h-96l-5 -56c-1.33301 -19.333 -11.5 -32.666 -30.5 -39.999zM401.001 297l-15 180h-22l-17 -180h54zM562.001 730h-405.001c-7.33301 0 -13.666 6.16699 -18.999 18.5
s-8 28.833 -8 49.5s7.5 41.167 22.5 61.5s29.167 30.5 42.5 30.5h402c17.333 0 26 -21.667 26 -65c0 -21.333 -7 -42.5 -21 -63.5s-27.333 -31.5 -40 -31.5z" />
    <glyph glyph-name="amacron" unicode="&#x101;" horiz-adv-x="659" 
d="M220 -9c-60.667 0 -108.002 14.333 -142.002 43c-14.667 12 -27.167 29.667 -37.5 53s-15.5 50.666 -15.5 81.999s7.5 58.666 22.5 81.999s33.167 41.333 54.5 54s46.333 23 75 31c43.333 11.333 91 17 143 17h33c0 27.333 -9.66699 46.666 -29 57.999
c-7.33301 4.66699 -19.166 7 -35.499 7s-36 -4.33301 -59 -13s-42.167 -17.5 -57.5 -26.5s-25.666 -13.5 -30.999 -13.5c-12 0 -28.333 15.833 -49 47.5s-31 60.5 -31 86.5c0 8.66699 12.333 20 37 34s59.5 26.833 104.5 38.5s88.833 17.5 131.5 17.5s79.5 -3.5 110.5 -10.5
s56.333 -15.5 76 -25.5s36.334 -23.333 50.001 -40s24 -31.667 31 -45s12.5 -30.666 16.5 -51.999c4 -24.667 6 -55 6 -91v-301c0 -7.33301 -17.833 -13.166 -53.5 -17.499s-71 -6.5 -106 -6.5s-57.667 1 -68 3s-16.5 4.33301 -18.5 7s-3.66699 7.33398 -5 14.001l-8 57h-8
c-16.667 -60 -62.334 -90 -137.001 -90zM353.998 157v117.002c-17.333 0 -31.333 -7.33301 -42 -22s-16 -31.334 -16 -50.001c0 -44 10 -66 30 -66c8.66699 0 15.5 2.16699 20.5 6.5s7.5 9.16602 7.5 14.499zM523.998 610.002h-405.001
c-7.33301 0 -13.666 6.16699 -18.999 18.5s-8 28.833 -8 49.5s7.5 41.167 22.5 61.5s29.167 30.5 42.5 30.5h402c17.333 0 26 -21.667 26 -65c0 -21.333 -7 -42.5 -21 -63.5s-27.333 -31.5 -40 -31.5z" />
    <glyph glyph-name="Abreve" unicode="&#x102;" horiz-adv-x="748" 
d="M290.5 11c-19 -7.33301 -53.166 -11 -102.499 -11s-90.5 4.5 -123.5 13.5s-49.5 20.5 -49.5 34.5c0 16 29.667 118.167 89 306.5l102 325.5c3.33301 8.66699 30.166 15.834 80.499 21.501s104.333 8.5 162 8.5s89.5 -10 95.5 -30c126 -418.667 189 -631.334 189 -638.001
s-4 -13.334 -12 -20.001c-18.667 -14.667 -55.667 -22 -111 -22c-118 0 -178.333 14 -181 42l-7 65h-96l-5 -56c-1.33301 -19.333 -11.5 -32.666 -30.5 -39.999zM401.001 297l-15 180h-22l-17 -180h54zM350.001 868c0 -31.333 7.83203 -47 23.499 -47s23.5 15.667 23.5 47
c0 21.333 19.833 32 59.5 32s59.5 -10 59.5 -30c0 -50 -12.5 -84.167 -37.5 -102.5s-60.167 -27.5 -105.5 -27.5s-80.166 8.83301 -104.499 26.5s-36.5 52.167 -36.5 103.5c0 20 19.667 30 59 30s59 -10.667 59 -32z" />
    <glyph glyph-name="abreve" unicode="&#x103;" horiz-adv-x="659" 
d="M220 -9c-60.667 0 -108.002 14.333 -142.002 43c-14.667 12 -27.167 29.667 -37.5 53s-15.5 50.666 -15.5 81.999s7.5 58.666 22.5 81.999s33.167 41.333 54.5 54s46.333 23 75 31c43.333 11.333 91 17 143 17h33c0 27.333 -9.66699 46.666 -29 57.999
c-7.33301 4.66699 -19.166 7 -35.499 7s-36 -4.33301 -59 -13s-42.167 -17.5 -57.5 -26.5s-25.666 -13.5 -30.999 -13.5c-12 0 -28.333 15.833 -49 47.5s-31 60.5 -31 86.5c0 8.66699 12.333 20 37 34s59.5 26.833 104.5 38.5s88.833 17.5 131.5 17.5s79.5 -3.5 110.5 -10.5
s56.333 -15.5 76 -25.5s36.334 -23.333 50.001 -40s24 -31.667 31 -45s12.5 -30.666 16.5 -51.999c4 -24.667 6 -55 6 -91v-301c0 -7.33301 -17.833 -13.166 -53.5 -17.499s-71 -6.5 -106 -6.5s-57.667 1 -68 3s-16.5 4.33301 -18.5 7s-3.66699 7.33398 -5 14.001l-8 57h-8
c-16.667 -60 -62.334 -90 -137.001 -90zM353.998 157v117.002c-17.333 0 -31.333 -7.33301 -42 -22s-16 -31.334 -16 -50.001c0 -44 10 -66 30 -66c8.66699 0 15.5 2.16699 20.5 6.5s7.5 9.16602 7.5 14.499zM302.998 738.002c0 -31.333 7.83203 -47 23.499 -47
s23.5 15.667 23.5 47c0 21.333 19.833 32 59.5 32s59.5 -10 59.5 -30c0 -50 -12.5 -84.167 -37.5 -102.5s-60.167 -27.5 -105.5 -27.5s-80.166 8.83301 -104.499 26.5s-36.5 52.167 -36.5 103.5c0 20 19.667 30 59 30s59 -10.667 59 -32z" />
    <glyph glyph-name="Aogonek" unicode="&#x104;" horiz-adv-x="748" 
d="M290.5 11c-19 -7.33301 -53.166 -11 -102.499 -11s-90.5 4.5 -123.5 13.5s-49.5 20.5 -49.5 34.5c0 16 29.667 118.167 89 306.5l102 325.5c3.33301 8.66699 30.166 15.834 80.499 21.501s104.333 8.5 162 8.5s89.5 -10 95.5 -30c126 -418.667 189 -631.334 189 -638.001
s-4 -13.334 -12 -20.001c-18.667 -14.667 -55.667 -22 -111 -22c-118 0 -178.333 14 -181 42l-7 65h-96l-5 -56c-1.33301 -19.333 -11.5 -32.666 -30.5 -39.999zM401.001 297l-15 180h-22l-17 -180h54zM537.001 38.5c47.333 -5.66699 71.0029 -11.167 71.0029 -16.5
s-6.33301 -12.5 -19 -21.5s-19 -16.833 -19 -23.5c0 -10.667 8.33301 -16 25 -16s33.667 1.5 51 4.5s27.666 4.5 30.999 4.5s7.66602 -4 12.999 -12c14 -20 21 -49.667 21 -89c0 -8.66699 -16.333 -14.834 -49 -18.501s-61 -5.5 -85 -5.5c-50.667 0 -92.5 9.33301 -125.5 28
s-49.5 47.334 -49.5 86.001c0 19.333 4 36.333 12 51s16 24.667 24 30l11 7c11.333 0 40.666 -2.83301 87.999 -8.5z" />
    <glyph glyph-name="aogonek" unicode="&#x105;" horiz-adv-x="659" 
d="M220 -9c-60.667 0 -108.002 14.333 -142.002 43c-14.667 12 -27.167 29.667 -37.5 53s-15.5 50.666 -15.5 81.999s7.5 58.666 22.5 81.999s33.167 41.333 54.5 54s46.333 23 75 31c43.333 11.333 91 17 143 17h33c0 27.333 -9.66699 46.666 -29 57.999
c-7.33301 4.66699 -19.166 7 -35.499 7s-36 -4.33301 -59 -13s-42.167 -17.5 -57.5 -26.5s-25.666 -13.5 -30.999 -13.5c-12 0 -28.333 15.833 -49 47.5s-31 60.5 -31 86.5c0 8.66699 12.333 20 37 34s59.5 26.833 104.5 38.5s88.833 17.5 131.5 17.5s79.5 -3.5 110.5 -10.5
s56.333 -15.5 76 -25.5s36.334 -23.333 50.001 -40s24 -31.667 31 -45s12.5 -30.666 16.5 -51.999c4 -24.667 6 -55 6 -91v-301c0 -7.33301 -17.833 -13.166 -53.5 -17.499s-71 -6.5 -106 -6.5s-57.667 1 -68 3s-16.5 4.33301 -18.5 7s-3.66699 7.33398 -5 14.001l-8 57h-8
c-16.667 -60 -62.334 -90 -137.001 -90zM353.998 157v117.002c-17.333 0 -31.333 -7.33301 -42 -22s-16 -31.334 -16 -50.001c0 -44 10 -66 30 -66c8.66699 0 15.5 2.16699 20.5 6.5s7.5 9.16602 7.5 14.499zM492.998 38.502c47.333 -5.66699 71.0029 -11.167 71.0029 -16.5
s-6.33301 -12.5 -19 -21.5s-19 -16.833 -19 -23.5c0 -10.667 8.33301 -16 25 -16s33.667 1.5 51 4.5s27.666 4.5 30.999 4.5s7.66602 -4 12.999 -12c14 -20 21 -49.667 21 -89c0 -8.66699 -16.333 -14.834 -49 -18.501s-61 -5.5 -85 -5.5c-50.667 0 -92.5 9.33301 -125.5 28
s-49.5 47.334 -49.5 86.001c0 19.333 4 36.333 12 51s16 24.667 24 30l11 7c11.333 0 40.666 -2.83301 87.999 -8.5z" />
    <glyph glyph-name="Cacute" unicode="&#x106;" horiz-adv-x="661" 
d="M322.5 -7c-14.333 1.33301 -33.167 4.66797 -56.5 10.001s-44.666 12.666 -63.999 21.999s-39.833 23 -61.5 41s-39.834 39.333 -54.501 64s-26.834 56 -36.501 94s-14.5 84 -14.5 138s9.5 104.333 28.5 151s42 82.667 69 108s58 45.833 93 61.5
s65.833 25.834 92.5 30.501s57 7 91 7s66.333 -2 97 -6c26 -3.33301 47 -8 63 -14s30.333 -15.333 43 -28s19 -31 19 -55s-5.83301 -54.333 -17.5 -91s-28.5 -55 -50.5 -55c-6.66699 0 -31.334 5.33301 -74.001 16s-71.667 16 -87 16c-23.333 0 -43.166 -13 -59.499 -39
s-24.5 -63 -24.5 -111s7.16699 -85.333 21.5 -112s33.166 -40 56.499 -40c16.667 0 46.834 6.83301 90.501 20.5s69.167 20.5 76.5 20.5c20.667 0 36.834 -19 48.501 -57s17.5 -70.333 17.5 -97c0 -40.667 -27.667 -67.334 -83 -80.001
c-26.667 -6.66699 -53.834 -11.167 -81.501 -13.5s-54.667 -3.5 -81 -3.5s-46.666 0.666992 -60.999 2zM477.999 910.002c15.333 0 30.832 -12.668 46.499 -38.001s23.5 -56.666 23.5 -93.999c0 -10 -28.833 -18.833 -86.5 -26.5s-105.5 -11.5 -143.5 -11.5
c-12.667 0 -24.167 8 -34.5 24s-15.5 34.5 -15.5 55.5s24.833 41.333 74.5 61s94.834 29.5 135.501 29.5z" />
    <glyph glyph-name="cacute" unicode="&#x107;" horiz-adv-x="545" 
d="M308 -9c-32 0 -61.667 3 -89 9c-20.667 4 -39 9.66699 -55 17s-33.167 18.333 -51.5 33s-33.5 32.167 -45.5 52.5s-22 46.666 -30 78.999s-12 70.5 -12 114.5s7.66699 84.833 23 122.5s34 66.834 56 87.501s51.667 39.667 89 57s79 26 125 26
c77.333 0 131.166 -6 161.499 -18s45.5 -32.333 45.5 -61s-5.16699 -59.167 -15.5 -91.5s-23.833 -48.5 -40.5 -48.5c-5.33301 0 -21.5 5.66699 -48.5 17s-50.333 17 -70 17s-34.667 -7.83301 -45 -23.5s-15.5 -46 -15.5 -91s4.66699 -75.667 14 -92
s23.833 -24.5 43.5 -24.5s44.167 6.66699 73.5 20s45.666 20 48.999 20c12.667 0 24.834 -15 36.501 -45s17.5 -56.667 17.5 -80c0 -36 -18.667 -61.167 -56 -75.5s-90.666 -21.5 -159.999 -21.5zM422 780c15.333 0 30.832 -12.668 46.499 -38.001
s23.5 -56.666 23.5 -93.999c0 -10 -28.833 -18.833 -86.5 -26.5s-105.5 -11.5 -143.5 -11.5c-12.667 0 -24.167 8 -34.5 24s-15.5 34.5 -15.5 55.5s24.833 41.333 74.5 61s94.834 29.5 135.501 29.5z" />
    <glyph glyph-name="Ccircumflex" unicode="&#x108;" horiz-adv-x="661" 
d="M322.5 -7c-14.333 1.33301 -33.167 4.66797 -56.5 10.001s-44.666 12.666 -63.999 21.999s-39.833 23 -61.5 41s-39.834 39.333 -54.501 64s-26.834 56 -36.501 94s-14.5 84 -14.5 138s9.5 104.333 28.5 151s42 82.667 69 108s58 45.833 93 61.5
s65.833 25.834 92.5 30.501s57 7 91 7s66.333 -2 97 -6c26 -3.33301 47 -8 63 -14s30.333 -15.333 43 -28s19 -31 19 -55s-5.83301 -54.333 -17.5 -91s-28.5 -55 -50.5 -55c-6.66699 0 -31.334 5.33301 -74.001 16s-71.667 16 -87 16c-23.333 0 -43.166 -13 -59.499 -39
s-24.5 -63 -24.5 -111s7.16699 -85.333 21.5 -112s33.166 -40 56.499 -40c16.667 0 46.834 6.83301 90.501 20.5s69.167 20.5 76.5 20.5c20.667 0 36.834 -19 48.501 -57s17.5 -70.333 17.5 -97c0 -40.667 -27.667 -67.334 -83 -80.001
c-26.667 -6.66699 -53.834 -11.167 -81.501 -13.5s-54.667 -3.5 -81 -3.5s-46.666 0.666992 -60.999 2zM288.499 875.502c49 23 85.334 34.5 109.001 34.5s59.167 -11.333 106.5 -34s71 -38 71 -46c0 -23.333 -3.66699 -44.166 -11 -62.499s-17 -27.5 -29 -27.5
c-9.33301 0 -56 13 -140 39c-84.667 -26 -131.334 -39 -140.001 -39c-12 0 -21.667 9.16699 -29 27.5s-11 39.166 -11 62.499c0 7.33301 24.5 22.5 73.5 45.5z" />
    <glyph glyph-name="ccircumflex" unicode="&#x109;" horiz-adv-x="545" 
d="M308 -9c-32 0 -61.667 3 -89 9c-20.667 4 -39 9.66699 -55 17s-33.167 18.333 -51.5 33s-33.5 32.167 -45.5 52.5s-22 46.666 -30 78.999s-12 70.5 -12 114.5s7.66699 84.833 23 122.5s34 66.834 56 87.501s51.667 39.667 89 57s79 26 125 26
c77.333 0 131.166 -6 161.499 -18s45.5 -32.333 45.5 -61s-5.16699 -59.167 -15.5 -91.5s-23.833 -48.5 -40.5 -48.5c-5.33301 0 -21.5 5.66699 -48.5 17s-50.333 17 -70 17s-34.667 -7.83301 -45 -23.5s-15.5 -46 -15.5 -91s4.66699 -75.667 14 -92
s23.833 -24.5 43.5 -24.5s44.167 6.66699 73.5 20s45.666 20 48.999 20c12.667 0 24.834 -15 36.501 -45s17.5 -56.667 17.5 -80c0 -36 -18.667 -61.167 -56 -75.5s-90.666 -21.5 -159.999 -21.5zM220.5 745.5c49 23 85.334 34.5 109.001 34.5s59.167 -11.333 106.5 -34
s71 -38 71 -46c0 -23.333 -3.66699 -44.166 -11 -62.499s-17 -27.5 -29 -27.5c-9.33301 0 -56 13 -140 39c-84.667 -26 -131.334 -39 -140.001 -39c-12 0 -21.667 9.16699 -29 27.5s-11 39.166 -11 62.499c0 7.33301 24.5 22.5 73.5 45.5z" />
    <glyph glyph-name="Cdotaccent" unicode="&#x10a;" horiz-adv-x="661" 
d="M322.5 -7c-14.333 1.33301 -33.167 4.66797 -56.5 10.001s-44.666 12.666 -63.999 21.999s-39.833 23 -61.5 41s-39.834 39.333 -54.501 64s-26.834 56 -36.501 94s-14.5 84 -14.5 138s9.5 104.333 28.5 151s42 82.667 69 108s58 45.833 93 61.5
s65.833 25.834 92.5 30.501s57 7 91 7s66.333 -2 97 -6c26 -3.33301 47 -8 63 -14s30.333 -15.333 43 -28s19 -31 19 -55s-5.83301 -54.333 -17.5 -91s-28.5 -55 -50.5 -55c-6.66699 0 -31.334 5.33301 -74.001 16s-71.667 16 -87 16c-23.333 0 -43.166 -13 -59.499 -39
s-24.5 -63 -24.5 -111s7.16699 -85.333 21.5 -112s33.166 -40 56.499 -40c16.667 0 46.834 6.83301 90.501 20.5s69.167 20.5 76.5 20.5c20.667 0 36.834 -19 48.501 -57s17.5 -70.333 17.5 -97c0 -40.667 -27.667 -67.334 -83 -80.001
c-26.667 -6.66699 -53.834 -11.167 -81.501 -13.5s-54.667 -3.5 -81 -3.5s-46.666 0.666992 -60.999 2zM421.999 909.002c11.333 -0.666992 23.832 -2.5 37.499 -5.5s24.167 -7.5 31.5 -13.5c18 -14.667 27 -37.5 27 -68.5s-12.167 -52.333 -36.5 -64
s-58.666 -17.5 -102.999 -17.5s-78.833 5.83301 -103.5 17.5s-37 34.167 -37 67.5c0 35.333 14 59 42 71c24 9.33301 50.833 14 80.5 14s50.167 -0.333008 61.5 -1z" />
    <glyph glyph-name="cdotaccent" unicode="&#x10b;" horiz-adv-x="545" 
d="M308 -9c-32 0 -61.667 3 -89 9c-20.667 4 -39 9.66699 -55 17s-33.167 18.333 -51.5 33s-33.5 32.167 -45.5 52.5s-22 46.666 -30 78.999s-12 70.5 -12 114.5s7.66699 84.833 23 122.5s34 66.834 56 87.501s51.667 39.667 89 57s79 26 125 26
c77.333 0 131.166 -6 161.499 -18s45.5 -32.333 45.5 -61s-5.16699 -59.167 -15.5 -91.5s-23.833 -48.5 -40.5 -48.5c-5.33301 0 -21.5 5.66699 -48.5 17s-50.333 17 -70 17s-34.667 -7.83301 -45 -23.5s-15.5 -46 -15.5 -91s4.66699 -75.667 14 -92
s23.833 -24.5 43.5 -24.5s44.167 6.66699 73.5 20s45.666 20 48.999 20c12.667 0 24.834 -15 36.501 -45s17.5 -56.667 17.5 -80c0 -36 -18.667 -61.167 -56 -75.5s-90.666 -21.5 -159.999 -21.5zM357 779c11.333 -0.666992 23.832 -2.5 37.499 -5.5s24.167 -7.5 31.5 -13.5
c18 -14.667 27 -37.5 27 -68.5s-12.167 -52.333 -36.5 -64s-58.666 -17.5 -102.999 -17.5s-78.833 5.83301 -103.5 17.5s-37 34.167 -37 67.5c0 35.333 14 59 42 71c24 9.33301 50.833 14 80.5 14s50.167 -0.333008 61.5 -1z" />
    <glyph glyph-name="Ccaron" unicode="&#x10c;" horiz-adv-x="661" 
d="M464.5 -5.5c-27.667 -2.33301 -54.668 -3.49902 -81.001 -3.49902s-46.666 0.666992 -60.999 2s-33.166 4.66602 -56.499 9.99902s-44.666 12.666 -63.999 21.999s-39.833 23 -61.5 41s-39.834 39.333 -54.501 64c-34 57.333 -51 131.333 -51 222
c0 60.667 9.5 114.334 28.5 161.001s42 82.667 69 108s58.167 45.666 93.5 60.999c55.333 25.333 111.333 38 168 38c81.333 0 139.666 -6.66699 174.999 -20c16 -6 30.333 -15.333 43 -28s19 -31 19 -55s-5.83301 -54.333 -17.5 -91s-28.5 -55 -50.5 -55
c-6.66699 0 -31.334 5.33301 -74.001 16s-71.667 16 -87 16c-23.333 0 -43.166 -13 -59.499 -39s-24.5 -63 -24.5 -111s7.16699 -85.333 21.5 -112s33.166 -40 56.499 -40c16.667 0 46.834 6.83301 90.501 20.5s69.167 20.5 76.5 20.5c20.667 0 36.834 -19 48.501 -57
s17.5 -68.667 17.5 -92s-7.16699 -41.833 -21.5 -55.5s-34.833 -23.667 -61.5 -30s-53.834 -10.666 -81.501 -12.999zM501.999 774.001c-47.333 -22.667 -82.834 -34 -106.501 -34s-60 11.5 -109 34.5s-73.5 38.167 -73.5 45.5c0 23.333 3.66699 44.166 11 62.499
s17 27.5 29 27.5c8.66699 0 55.334 -13 140.001 -39c84 26 130.667 39 140 39c12 0 21.667 -9.16699 29 -27.5s11 -39.166 11 -62.499c0 -8 -23.667 -23.333 -71 -46z" />
    <glyph glyph-name="ccaron" unicode="&#x10d;" horiz-adv-x="545" 
d="M164 17c-16 7.33301 -33.166 18.332 -51.499 32.999s-33.5 32 -45.5 52c-28 48 -42 110.667 -42 188c0 48 7.66699 90.833 23 128.5s34 66.834 56 87.501s47.333 37.667 76 51c46 21.333 92 32 138 32c77.333 0 131.166 -6 161.499 -18s45.5 -32.333 45.5 -61
s-5.16699 -59.167 -15.5 -91.5s-23.833 -48.5 -40.5 -48.5c-5.33301 0 -21.5 5.66699 -48.5 17s-50.333 17 -70 17s-34.667 -7.83301 -45 -23.5s-15.5 -46 -15.5 -91s4.66699 -75.667 14 -92s23.833 -24.5 43.5 -24.5s44.167 6.66699 73.5 20s45.666 20 48.999 20
c12.667 0 24.834 -15 36.501 -45s17.5 -56.667 17.5 -80c0 -36 -18.667 -61.167 -56 -75.5s-87.833 -21.5 -151.5 -21.5s-114.5 8.66699 -152.5 26zM435.001 643.999c-47.333 -22.667 -82.834 -34 -106.501 -34s-60 11.5 -109 34.5s-73.5 38.167 -73.5 45.5
c0 23.333 3.66699 44.166 11 62.499s17 27.5 29 27.5c8.66699 0 55.334 -13 140.001 -39c84 26 130.667 39 140 39c12 0 21.667 -9.16699 29 -27.5s11 -39.166 11 -62.499c0 -8 -23.667 -23.333 -71 -46z" />
    <glyph glyph-name="Dcaron" unicode="&#x10e;" horiz-adv-x="741" 
d="M364 0h-235.999c-32.667 -0 -54.667 2.33301 -66 7s-17 12.334 -17 23.001v631c0 17.333 7.33301 29.833 22 37.5s40 11.5 76 11.5h225c128 0 216.333 -25.167 265 -75.5s73 -141.833 73 -274.5s-25.333 -225.834 -76 -279.501s-139.334 -80.5 -266.001 -80.5z
M356.001 561c-16 0 -26.667 -1.33398 -32 -4.00098v-404l38 -4c20 0 35.167 16 45.5 48s15.5 87.333 15.5 166s-5.33301 131.334 -16 158.001s-27.667 40 -51 40zM468.001 773.999c-47.333 -22.667 -82.834 -34 -106.501 -34s-60 11.5 -109 34.5s-73.5 38.167 -73.5 45.5
c0 23.333 3.66699 44.166 11 62.499s17 27.5 29 27.5c8.66699 0 55.334 -13 140.001 -39c84 26 130.667 39 140 39c12 0 21.667 -9.16699 29 -27.5s11 -39.166 11 -62.499c0 -8 -23.667 -23.333 -71 -46z" />
    <glyph glyph-name="dcaron" unicode="&#x10f;" horiz-adv-x="928" 
d="M223 -9c-24.667 0 -47.666 3.66797 -68.999 11.001s-38.833 16.333 -52.5 27s-25.5 25 -35.5 43s-17.667 35.167 -23 51.5s-9.33301 36.5 -12 60.5c-4 35.333 -6 75.666 -6 120.999c0 92.667 17 163.167 51 211.5s80.667 72.5 140 72.5c60.667 0 104.667 -14.333 132 -43
c6 -6.66699 10.667 -14.667 14 -24h8l-12 69v125c0 14.667 18.667 29 56 43s77.666 21 120.999 21c45.333 0 74.333 -8.66699 87 -26c4.66699 -6.66699 7 -13.334 7 -20.001v-710c0 -7.33301 -18.5 -13.166 -55.5 -17.499s-72.667 -6.5 -107 -6.5s-56.333 1.16699 -66 3.5
s-15.667 4.83301 -18 7.5s-3.83301 7 -4.5 13l-8 57h-8c-6 -23.333 -18 -43 -36 -59c-22.667 -20.667 -57 -31 -103 -31zM335.001 137.001c10.667 0 18.668 6.66602 24.001 19.999v267c0 6.66699 -3.5 11.834 -10.5 15.501s-13.167 5.5 -18.5 5.5
c-22.667 0 -34 -52 -34 -156c0 -55.333 3.16699 -94.5 9.5 -117.5s16.166 -34.5 29.499 -34.5zM744.002 437c-19.333 0 -33.334 15.668 -42.001 47.001c-8.66699 33.333 -13.667 66.666 -15 99.999c-2 49.333 -3 97 -3 143c0 35.333 54 53 162 53
c18.667 0 30.334 -12 35.001 -36s7 -65.333 7 -124c0 -122 -48 -183 -144 -183z" />
    <glyph glyph-name="Dcroat" unicode="&#x110;" horiz-adv-x="776" 
d="M80 273h-43c-7.33301 0 -13.666 6.16699 -18.999 18.5s-8 30 -8 53s7.33301 46.333 22 70s29 35.5 43 35.5h5v211c0 17.333 7.33301 29.833 22 37.5s40 11.5 76 11.5h225c128 0 216.333 -25.167 265 -75.5s73 -141.833 73 -274.5s-25.333 -225.834 -76 -279.501
s-139.334 -80.5 -266.001 -80.5h-236c-32.667 0 -54.667 2.33301 -66 7s-17 12.334 -17 23.001v243zM391 561c-16 0 -26.667 -1.33398 -32 -4.00098v-107h40c17.333 0 26 -21.667 26 -65c0 -22 -7 -46.167 -21 -72.5s-27.333 -39.5 -40 -39.5h-5v-121c10 -2 22.667 -3 38 -3
c20 0 35.167 16 45.5 48s15.5 87.333 15.5 166s-5.33301 131.334 -16 158.001s-27.667 40 -51 40z" />
    <glyph glyph-name="dcroat" unicode="&#x111;" horiz-adv-x="705" 
d="M634 590h-5v-566c0 -7.33301 -18.5 -13.166 -55.5 -17.499s-72.667 -6.5 -107 -6.5s-56.333 1.16699 -66 3.5s-15.667 4.83301 -18 7.5s-3.83301 7 -4.5 13l-8 57h-8c-6 -23.333 -18 -43 -36 -59c-8.66699 -8 -21.834 -15.167 -39.501 -21.5s-38.834 -9.5 -63.501 -9.5
s-47.667 3.66699 -69 11s-38.833 16.333 -52.5 27s-25.5 25 -35.5 43s-17.667 35.167 -23 51.5s-9.33301 36.5 -12 60.5c-4 35.333 -6 78.333 -6 129s4.33301 95 13 133s21.834 67.167 39.501 87.5s37.5 34.666 59.5 42.999s46.667 12.5 74 12.5s50.5 -2.33301 69.5 -7
s33.5 -10 43.5 -16c19.333 -13.333 31.333 -25.666 36 -36.999l2 -7h8v68h-38c-18 0 -27 20.333 -27 61c0 23.333 7.33301 45.166 22 65.499s29 30.5 43 30.5h17c41.333 22 88.833 33 142.5 33s85.834 -11 96.501 -33h43c17.333 0 26 -18.333 26 -55
c0 -22 -7 -44.5 -21 -67.5s-27.333 -34.5 -40 -34.5zM335 137c10.667 0 18.668 6.66602 24.001 19.999v267c0 6.66699 -3.5 11.834 -10.5 15.501s-13.167 5.5 -18.5 5.5c-22.667 0 -34 -52 -34 -156c0 -55.333 3.16699 -94.5 9.5 -117.5s16.166 -34.5 29.499 -34.5z" />
    <glyph glyph-name="Emacron" unicode="&#x112;" horiz-adv-x="615" 
d="M552 0h-424.001c-32.667 -0 -54.667 2.33301 -66 7s-17 12 -17 22v633c0 17.333 7.83301 29.666 23.5 36.999s43.834 11 84.501 11h402c14 0 21 -23.167 21 -69.5s-3 -81.666 -9 -105.999s-14 -36.5 -24 -36.5c-43.333 0 -116.333 4.33301 -219 13v-67
c98.667 4 163 6 193 6c18 0 27 -21 27 -63s-3.5 -73.833 -10.5 -95.5s-16.5 -32.5 -28.5 -32.5l-181 4v-64c116 8.66699 196 13 240 13c14 0 21 -23.333 21 -70s-3 -82 -9 -106s-14 -36 -24 -36zM490.999 730h-405.001c-7.33301 0 -13.666 6.16699 -18.999 18.5
s-8 28.833 -8 49.5s7.5 41.167 22.5 61.5s29.167 30.5 42.5 30.5h402c17.333 0 26 -21.667 26 -65c0 -21.333 -7 -42.5 -21 -63.5s-27.333 -31.5 -40 -31.5z" />
    <glyph glyph-name="emacron" unicode="&#x113;" horiz-adv-x="640" 
d="M298 226c0 -43.333 20.665 -64.998 61.998 -64.998c24 0 55.333 8.16699 94 24.5s59 24.5 61 24.5c12.667 0 29.334 -19 50.001 -57s31 -66 31 -84c0 -26 -26.667 -45.667 -80 -59s-105.5 -20 -156.5 -20s-93.667 4 -128 12s-62.333 18.167 -84 30.5
s-40.667 27.5 -57 45.5s-28.5 35.167 -36.5 51.5s-14.333 34.5 -19 54.5c-6.66699 29.333 -10 59.666 -10 90.999c0 121.333 31.667 205 95 251c31.333 23.333 66.333 39.666 105 48.999s84.334 14 137.001 14c168.667 0 253 -58.667 253 -176
c0 -124.667 -94.667 -187 -284 -187h-33zM295.998 372.002l0.000976562 -66c19.333 0 35.166 7.66699 47.499 23s18.5 34 18.5 56c0 40 -10.333 60 -31 60c-23.333 0 -35 -24.333 -35 -73zM514.999 610.002h-405.001c-7.33301 0 -13.666 6.16699 -18.999 18.5
s-8 28.833 -8 49.5s7.5 41.167 22.5 61.5s29.167 30.5 42.5 30.5h402c17.333 0 26 -21.667 26 -65c0 -21.333 -7 -42.5 -21 -63.5s-27.333 -31.5 -40 -31.5z" />
    <glyph glyph-name="Ebreve" unicode="&#x114;" horiz-adv-x="615" 
d="M552 0h-424.001c-32.667 -0 -54.667 2.33301 -66 7s-17 12 -17 22v633c0 17.333 7.83301 29.666 23.5 36.999s43.834 11 84.501 11h402c14 0 21 -23.167 21 -69.5s-3 -81.666 -9 -105.999s-14 -36.5 -24 -36.5c-43.333 0 -116.333 4.33301 -219 13v-67
c98.667 4 163 6 193 6c18 0 27 -21 27 -63s-3.5 -73.833 -10.5 -95.5s-16.5 -32.5 -28.5 -32.5l-181 4v-64c116 8.66699 196 13 240 13c14 0 21 -23.333 21 -70s-3 -82 -9 -106s-14 -36 -24 -36zM299.999 868c0 -31.333 7.83203 -47 23.499 -47s23.5 15.667 23.5 47
c0 21.333 19.833 32 59.5 32s59.5 -10 59.5 -30c0 -50 -12.5 -84.167 -37.5 -102.5s-60.167 -27.5 -105.5 -27.5s-80.166 8.83301 -104.499 26.5s-36.5 52.167 -36.5 103.5c0 20 19.667 30 59 30s59 -10.667 59 -32z" />
    <glyph glyph-name="ebreve" unicode="&#x115;" horiz-adv-x="640" 
d="M298 226c0 -43.333 20.665 -64.998 61.998 -64.998c24 0 55.333 8.16699 94 24.5s59 24.5 61 24.5c12.667 0 29.334 -19 50.001 -57s31 -66 31 -84c0 -26 -26.667 -45.667 -80 -59s-105.5 -20 -156.5 -20s-93.667 4 -128 12s-62.333 18.167 -84 30.5
s-40.667 27.5 -57 45.5s-28.5 35.167 -36.5 51.5s-14.333 34.5 -19 54.5c-6.66699 29.333 -10 59.666 -10 90.999c0 121.333 31.667 205 95 251c31.333 23.333 66.333 39.666 105 48.999s84.334 14 137.001 14c168.667 0 253 -58.667 253 -176
c0 -124.667 -94.667 -187 -284 -187h-33zM295.998 372.002l0.000976562 -66c19.333 0 35.166 7.66699 47.499 23s18.5 34 18.5 56c0 40 -10.333 60 -31 60c-23.333 0 -35 -24.333 -35 -73zM324.999 738.002c0 -31.333 7.83203 -47 23.499 -47s23.5 15.667 23.5 47
c0 21.333 19.833 32 59.5 32s59.5 -10 59.5 -30c0 -50 -12.5 -84.167 -37.5 -102.5s-60.167 -27.5 -105.5 -27.5s-80.166 8.83301 -104.499 26.5s-36.5 52.167 -36.5 103.5c0 20 19.667 30 59 30s59 -10.667 59 -32z" />
    <glyph glyph-name="Edotaccent" unicode="&#x116;" horiz-adv-x="615" 
d="M552 0h-424.001c-32.667 -0 -54.667 2.33301 -66 7s-17 12 -17 22v633c0 17.333 7.83301 29.666 23.5 36.999s43.834 11 84.501 11h402c14 0 21 -23.167 21 -69.5s-3 -81.666 -9 -105.999s-14 -36.5 -24 -36.5c-43.333 0 -116.333 4.33301 -219 13v-67
c98.667 4 163 6 193 6c18 0 27 -21 27 -63s-3.5 -73.833 -10.5 -95.5s-16.5 -32.5 -28.5 -32.5l-181 4v-64c116 8.66699 196 13 240 13c14 0 21 -23.333 21 -70s-3 -82 -9 -106s-14 -36 -24 -36zM365.999 909c11.333 -0.666992 23.832 -2.5 37.499 -5.5
s24.167 -7.5 31.5 -13.5c18 -14.667 27 -37.5 27 -68.5s-12.167 -52.333 -36.5 -64s-58.666 -17.5 -102.999 -17.5s-78.833 5.83301 -103.5 17.5s-37 34.167 -37 67.5c0 35.333 14 59 42 71c24 9.33301 50.833 14 80.5 14s50.167 -0.333008 61.5 -1z" />
    <glyph glyph-name="edotaccent" unicode="&#x117;" horiz-adv-x="640" 
d="M298 226c0 -43.333 20.665 -64.998 61.998 -64.998c24 0 55.333 8.16699 94 24.5s59 24.5 61 24.5c12.667 0 29.334 -19 50.001 -57s31 -66 31 -84c0 -26 -26.667 -45.667 -80 -59s-105.5 -20 -156.5 -20s-93.667 4 -128 12s-62.333 18.167 -84 30.5
s-40.667 27.5 -57 45.5s-28.5 35.167 -36.5 51.5s-14.333 34.5 -19 54.5c-6.66699 29.333 -10 59.666 -10 90.999c0 121.333 31.667 205 95 251c31.333 23.333 66.333 39.666 105 48.999s84.334 14 137.001 14c168.667 0 253 -58.667 253 -176
c0 -124.667 -94.667 -187 -284 -187h-33zM295.998 372.002l0.000976562 -66c19.333 0 35.166 7.66699 47.499 23s18.5 34 18.5 56c0 40 -10.333 60 -31 60c-23.333 0 -35 -24.333 -35 -73zM383.999 779.002c11.333 -0.666992 23.832 -2.5 37.499 -5.5
s24.167 -7.5 31.5 -13.5c18 -14.667 27 -37.5 27 -68.5s-12.167 -52.333 -36.5 -64s-58.666 -17.5 -102.999 -17.5s-78.833 5.83301 -103.5 17.5s-37 34.167 -37 67.5c0 35.333 14 59 42 71c24 9.33301 50.833 14 80.5 14s50.167 -0.333008 61.5 -1z" />
    <glyph glyph-name="Eogonek" unicode="&#x118;" horiz-adv-x="615" 
d="M552 0h-424.001c-32.667 -0 -54.667 2.33301 -66 7s-17 12 -17 22v633c0 17.333 7.83301 29.666 23.5 36.999s43.834 11 84.501 11h402c14 0 21 -23.167 21 -69.5s-3 -81.666 -9 -105.999s-14 -36.5 -24 -36.5c-43.333 0 -116.333 4.33301 -219 13v-67
c98.667 4 163 6 193 6c18 0 27 -21 27 -63s-3.5 -73.833 -10.5 -95.5s-16.5 -32.5 -28.5 -32.5l-181 4v-64c116 8.66699 196 13 240 13c14 0 21 -23.333 21 -70s-3 -82 -9 -106s-14 -36 -24 -36zM334.499 -127c-33 18.667 -49.4971 47.668 -49.4971 87.001
s15.667 68.333 47 87c11.333 0 40.666 -2.83301 87.999 -8.5s71 -11.167 71 -16.5s-6.33301 -12.5 -19 -21.5s-19 -16.833 -19 -23.5c0 -10.667 8.33301 -16 25 -16s33.667 1.5 51 4.5s27.666 4.5 30.999 4.5s7.66602 -4 12.999 -12c14 -20 21 -49.667 21 -89
c0 -8.66699 -16.333 -14.834 -49 -18.501s-61 -5.5 -85 -5.5c-50.667 0 -92.5 9.33301 -125.5 28z" />
    <glyph glyph-name="eogonek" unicode="&#x119;" horiz-adv-x="640" 
d="M298 226l33.002 -0.00195312c189.333 0 284 62.333 284 187c0 117.333 -84.333 176 -253 176c-52.667 0 -98.334 -4.66699 -137.001 -14s-73.667 -25.666 -105 -48.999c-63.333 -46 -95 -129.667 -95 -251c0 -31.333 3.33301 -61.666 10 -90.999
c4.66699 -20 11 -38.167 19 -54.5s20.167 -33.5 36.5 -51.5s35.333 -33.167 57 -45.5s49.667 -22.5 84 -30.5s77 -12 128 -12s103.167 6.66699 156.5 20s80 33 80 59c0 18 -10.333 46 -31 84s-37.334 57 -50.001 57c-2 0 -22.333 -8.16699 -61 -24.5s-70 -24.5 -94 -24.5
c-41.333 0 -62 21.667 -62 65zM296.002 371.998c0 48.667 11.666 73 34.999 73c20.667 0 31 -20 31 -60c0 -22 -6.16699 -40.667 -18.5 -56s-28.166 -23 -47.499 -23v66zM341.001 38.498c47.333 -5.66699 71.0029 -11.167 71.0029 -16.5s-6.33301 -12.5 -19 -21.5
s-19 -16.833 -19 -23.5c0 -10.667 8.33301 -16 25 -16s33.667 1.5 51 4.5s27.666 4.5 30.999 4.5s7.66602 -4 12.999 -12c14 -20 21 -49.667 21 -89c0 -8.66699 -16.333 -14.834 -49 -18.501s-61 -5.5 -85 -5.5c-50.667 0 -92.5 9.33301 -125.5 28
s-49.5 47.334 -49.5 86.001c0 19.333 4 36.333 12 51s16 24.667 24 30l11 7c11.333 0 40.666 -2.83301 87.999 -8.5z" />
    <glyph glyph-name="Ecaron" unicode="&#x11a;" horiz-adv-x="615" 
d="M552 0h-424.001c-32.667 -0 -54.667 2.33301 -66 7s-17 12 -17 22v633c0 17.333 7.83301 29.666 23.5 36.999s43.834 11 84.501 11h402c14 0 21 -23.167 21 -69.5s-3 -81.666 -9 -105.999s-14 -36.5 -24 -36.5c-43.333 0 -116.333 4.33301 -219 13v-67
c98.667 4 163 6 193 6c18 0 27 -21 27 -63s-3.5 -73.833 -10.5 -95.5s-16.5 -32.5 -28.5 -32.5l-181 4v-64c116 8.66699 196 13 240 13c14 0 21 -23.333 21 -70s-3 -82 -9 -106s-14 -36 -24 -36zM429.999 774c-47.333 -22.667 -82.834 -34 -106.501 -34s-60 11.5 -109 34.5
s-73.5 38.167 -73.5 45.5c0 23.333 3.66699 44.166 11 62.499s17 27.5 29 27.5c8.66699 0 55.334 -13 140.001 -39c84 26 130.667 39 140 39c12 0 21.667 -9.16699 29 -27.5s11 -39.166 11 -62.499c0 -8 -23.667 -23.333 -71 -46z" />
    <glyph glyph-name="ecaron" unicode="&#x11b;" horiz-adv-x="640" 
d="M298 226c0 -43.333 20.665 -64.998 61.998 -64.998c24 0 55.333 8.16699 94 24.5s59 24.5 61 24.5c12.667 0 29.334 -19 50.001 -57s31 -66 31 -84c0 -26 -26.667 -45.667 -80 -59s-105.5 -20 -156.5 -20s-93.667 4 -128 12s-62.333 18.167 -84 30.5
s-40.667 27.5 -57 45.5s-28.5 35.167 -36.5 51.5s-14.333 34.5 -19 54.5c-6.66699 29.333 -10 59.666 -10 90.999c0 121.333 31.667 205 95 251c31.333 23.333 66.333 39.666 105 48.999s84.334 14 137.001 14c168.667 0 253 -58.667 253 -176
c0 -124.667 -94.667 -187 -284 -187h-33zM295.998 372.002l0.000976562 -66c19.333 0 35.166 7.66699 47.499 23s18.5 34 18.5 56c0 40 -10.333 60 -31 60c-23.333 0 -35 -24.333 -35 -73zM440.999 644.002c-47.333 -22.667 -82.834 -34 -106.501 -34s-60 11.5 -109 34.5
s-73.5 38.167 -73.5 45.5c0 23.333 3.66699 44.166 11 62.499s17 27.5 29 27.5c8.66699 0 55.334 -13 140.001 -39c84 26 130.667 39 140 39c12 0 21.667 -9.16699 29 -27.5s11 -39.166 11 -62.499c0 -8 -23.667 -23.333 -71 -46z" />
    <glyph glyph-name="Gcircumflex" unicode="&#x11c;" horiz-adv-x="679" 
d="M262 -8c-22.667 0 -43.667 2.33789 -63 7.00488s-39.5 14.5 -60.5 29.5s-38.833 34.833 -53.5 59.5s-26.667 58.5 -36 101.5s-14 94.5 -14 154.5s8.33301 113.667 25 161s37.667 84.166 63 110.499s55.666 47.833 90.999 64.5s68.333 27.5 99 32.5s63.334 7.5 98.001 7.5
c80 0 136.333 -6.83301 169 -20.5s49 -39.834 49 -78.501c0 -30.667 -5.66699 -63.834 -17 -99.501s-28 -53.5 -50 -53.5c-5.33301 0 -28 5.16699 -68 15.5s-70 15.5 -90 15.5c-57.333 0 -86 -48.333 -86 -145c0 -48.667 6.66699 -84.834 20 -108.501s30 -36.834 50 -39.501
v90c0 16.667 17 32 51 46s72.333 21 115 21s70.667 -8.66699 84 -26c7.33301 -10 11 -19.667 11 -29v-277c0 -8.66699 -17.5 -15.667 -52.5 -21s-71.333 -8 -109 -8s-61.5 1.83301 -71.5 5.5s-15.667 13.834 -17 30.501l-7 59h-8
c-4.66699 -28.667 -16.5 -53.334 -35.5 -74.001s-47.833 -31 -86.5 -31zM287.5 875.505c49 23 85.334 34.5 109.001 34.5s59.167 -11.333 106.5 -34s71 -38 71 -46c0 -23.333 -3.66699 -44.166 -11 -62.499s-17 -27.5 -29 -27.5c-9.33301 0 -56 13 -140 39
c-84.667 -26 -131.334 -39 -140.001 -39c-12 0 -21.667 9.16699 -29 27.5s-11 39.166 -11 62.499c0 7.33301 24.5 22.5 73.5 45.5z" />
    <glyph glyph-name="gcircumflex" unicode="&#x11d;" horiz-adv-x="659" 
d="M369 124l-8.00098 -0.000976562l-13 -12c-8.66699 -7.33301 -25.834 -14.833 -51.501 -22.5s-55.5 -11.5 -89.5 -11.5c-60.667 0 -105.667 17.333 -135 52c-12.667 15.333 -22.667 35.666 -30 60.999s-12 49.833 -14 73.5s-3 54.834 -3 93.501s5.66699 75.667 17 111
c8 23.333 18.5 43.333 31.5 60s32 30.834 57 42.501s51.833 17.5 80.5 17.5s52.334 -3.16699 71.001 -9.5s32.5 -13.5 41.5 -21.5s16.833 -18 23.5 -30s10 -21.667 10 -29h8l9 39c6.66699 28 59.334 42 158.001 42c44 0 70.667 -6.66699 80 -20
c5.33301 -8 8.66602 -15.5 9.99902 -22.5s2 -17.5 2 -31.5v-419c0 -78.667 -25.667 -138.667 -77 -180s-126.666 -62 -225.999 -62c-52.667 0 -97.667 3 -135 9c-70 11.333 -105 28.333 -105 51c0 16 6.5 43 19.5 81s25.167 57 36.5 57c2.66699 0 12 -2.16699 28 -6.5
s36 -8.83301 60 -13.5s48.5 -7 73.5 -7s43 4 54 12s16.5 20.667 16.5 38v58zM331.999 444.999c-25.333 0 -38 -41.667 -38 -125c0 -38.667 3.16699 -69.667 9.5 -93s14.833 -35 25.5 -35c5.33301 0 10.833 2 16.5 6s8.5 10.667 8.5 20v206c-4 14 -11.333 21 -22 21z
M250.499 745.499c49 23 85.334 34.5 109.001 34.5s59.167 -11.333 106.5 -34s71 -38 71 -46c0 -23.333 -3.66699 -44.166 -11 -62.499s-17 -27.5 -29 -27.5c-9.33301 0 -56 13 -140 39c-84.667 -26 -131.334 -39 -140.001 -39c-12 0 -21.667 9.16699 -29 27.5
s-11 39.166 -11 62.499c0 7.33301 24.5 22.5 73.5 45.5z" />
    <glyph glyph-name="Gbreve" unicode="&#x11e;" horiz-adv-x="679" 
d="M262 -8c-22.667 0 -43.665 2.33789 -62.998 7.00488s-39.5 14.5 -60.5 29.5s-38.833 34.833 -53.5 59.5c-33.333 56 -50 140.333 -50 253c0 62 8.33301 116.667 25 164s37.667 84.166 63 110.499s55.666 47.833 90.999 64.5s68.333 27.5 99 32.5s63.334 7.5 98.001 7.5
c80 0 136.333 -6.83301 169 -20.5s49 -39.834 49 -78.501c0 -30.667 -5.66699 -63.834 -17 -99.501s-28 -53.5 -50 -53.5c-5.33301 0 -28 5.16699 -68 15.5s-70 15.5 -90 15.5c-57.333 0 -86 -48.333 -86 -145c0 -48.667 6.66699 -84.834 20 -108.501s30 -36.834 50 -39.501
v90c0 16.667 17 32 51 46s66.667 21 98 21s54.166 -2 68.499 -6s24.166 -9.66699 29.499 -17c9.33301 -12 14 -22.667 14 -32v-277c0 -8.66699 -17.5 -15.667 -52.5 -21s-71.333 -8 -109 -8s-61.5 1.83301 -71.5 5.5s-15.667 13.834 -17 30.501l-7 59h-8
c-4.66699 -28.667 -16.5 -53.334 -35.5 -74.001s-47.833 -31 -86.5 -31zM377.002 868.005c0 -31.333 7.83203 -47 23.499 -47s23.5 15.667 23.5 47c0 21.333 19.833 32 59.5 32s59.5 -10 59.5 -30c0 -50 -12.5 -84.167 -37.5 -102.5s-60.167 -27.5 -105.5 -27.5
s-80.166 8.83301 -104.499 26.5s-36.5 52.167 -36.5 103.5c0 20 19.667 30 59 30s59 -10.667 59 -32z" />
    <glyph glyph-name="gbreve" unicode="&#x11f;" horiz-adv-x="659" 
d="M369 66l-0.00195312 58.001h-8c-2.66699 -3.33301 -7.33398 -7.5 -14.001 -12.5s-23.167 -11.833 -49.5 -20.5s-56 -13 -89 -13s-60.833 5 -83.5 15s-40.334 22.5 -53.001 37.5s-22.667 35.167 -30 60.5c-11.333 39.333 -17 92.666 -17 159.999
c0 77.333 16.333 136.666 49 177.999c12.667 16.667 31.5 30.834 56.5 42.501s51.833 17.5 80.5 17.5s52.334 -3.16699 71.001 -9.5s32.667 -13.833 42 -22.5c18.667 -18.667 29.334 -35 32.001 -49l1 -9h8l9 39c6.66699 28 59.334 42 158.001 42
c44 0 70.667 -6.66699 80 -20c5.33301 -8 8.66602 -15.5 9.99902 -22.5s2 -17.5 2 -31.5v-419c0 -78.667 -25.667 -138.667 -77 -180s-126.666 -62 -225.999 -62c-105.333 0 -177 10.333 -215 31c-16.667 9.33301 -25 19 -25 29c0 16 6.5 43 19.5 81s25.167 57 36.5 57
c2.66699 0 12 -2.33301 28 -7c50.667 -13.333 91.834 -20 123.501 -20s53 4 64 12s16.5 20.667 16.5 38zM328.998 192.001c7.33301 0 13.333 2.66699 18 8s7 11.333 7 18v206c-2.66699 14 -10 21 -22 21c-25.333 0 -38 -41.667 -38 -125c0 -38.667 3.16699 -69.667 9.5 -93
s14.833 -35 25.5 -35zM334.998 738.001c0 -31.333 7.83203 -47 23.499 -47s23.5 15.667 23.5 47c0 21.333 19.833 32 59.5 32s59.5 -10 59.5 -30c0 -50 -12.5 -84.167 -37.5 -102.5s-60.167 -27.5 -105.5 -27.5s-80.166 8.83301 -104.499 26.5s-36.5 52.167 -36.5 103.5
c0 20 19.667 30 59 30s59 -10.667 59 -32z" />
    <glyph glyph-name="Gdotaccent" unicode="&#x120;" horiz-adv-x="679" 
d="M262 -8c-22.667 0 -43.667 2.33789 -63 7.00488s-39.5 14.5 -60.5 29.5s-38.833 34.833 -53.5 59.5s-26.667 58.5 -36 101.5s-14 94.5 -14 154.5s8.33301 113.667 25 161s37.667 84.166 63 110.499s55.666 47.833 90.999 64.5s68.333 27.5 99 32.5s63.334 7.5 98.001 7.5
c80 0 136.333 -6.83301 169 -20.5s49 -39.834 49 -78.501c0 -30.667 -5.66699 -63.834 -17 -99.501s-28 -53.5 -50 -53.5c-5.33301 0 -28 5.16699 -68 15.5s-70 15.5 -90 15.5c-57.333 0 -86 -48.333 -86 -145c0 -48.667 6.66699 -84.834 20 -108.501s30 -36.834 50 -39.501
v90c0 16.667 17 32 51 46s72.333 21 115 21s70.667 -8.66699 84 -26c7.33301 -10 11 -19.667 11 -29v-277c0 -8.66699 -17.5 -15.667 -52.5 -21s-71.333 -8 -109 -8s-61.5 1.83301 -71.5 5.5s-15.667 13.834 -17 30.501l-7 59h-8
c-4.66699 -28.667 -16.5 -53.334 -35.5 -74.001s-47.833 -31 -86.5 -31zM446 909.005c11.333 -0.666992 23.832 -2.5 37.499 -5.5s24.167 -7.5 31.5 -13.5c18 -14.667 27 -37.5 27 -68.5s-12.167 -52.333 -36.5 -64s-58.666 -17.5 -102.999 -17.5
s-78.833 5.83301 -103.5 17.5s-37 34.167 -37 67.5c0 35.333 14 59 42 71c24 9.33301 50.833 14 80.5 14s50.167 -0.333008 61.5 -1z" />
    <glyph glyph-name="gdotaccent" unicode="&#x121;" horiz-adv-x="659" 
d="M369 124l-8.00098 -0.000976562l-13 -12c-8.66699 -7.33301 -25.834 -14.833 -51.501 -22.5s-55.5 -11.5 -89.5 -11.5c-60.667 0 -105.667 17.333 -135 52c-12.667 15.333 -22.667 35.666 -30 60.999s-12 49.833 -14 73.5s-3 54.834 -3 93.501s5.66699 75.667 17 111
c8 23.333 18.5 43.333 31.5 60s32 30.834 57 42.501s51.833 17.5 80.5 17.5s52.334 -3.16699 71.001 -9.5s32.5 -13.5 41.5 -21.5s16.833 -18 23.5 -30s10 -21.667 10 -29h8l9 39c6.66699 28 59.334 42 158.001 42c44 0 70.667 -6.66699 80 -20
c5.33301 -8 8.66602 -15.5 9.99902 -22.5s2 -17.5 2 -31.5v-419c0 -78.667 -25.667 -138.667 -77 -180s-126.666 -62 -225.999 -62c-52.667 0 -97.667 3 -135 9c-70 11.333 -105 28.333 -105 51c0 16 6.5 43 19.5 81s25.167 57 36.5 57c2.66699 0 12 -2.16699 28 -6.5
s36 -8.83301 60 -13.5s48.5 -7 73.5 -7s43 4 54 12s16.5 20.667 16.5 38v58zM331.999 444.999c-25.333 0 -38 -41.667 -38 -125c0 -38.667 3.16699 -69.667 9.5 -93s14.833 -35 25.5 -35c5.33301 0 10.833 2 16.5 6s8.5 10.667 8.5 20v206c-4 14 -11.333 21 -22 21z
M385.999 778.999c11.333 -0.666992 23.832 -2.5 37.499 -5.5s24.167 -7.5 31.5 -13.5c18 -14.667 27 -37.5 27 -68.5s-12.167 -52.333 -36.5 -64s-58.666 -17.5 -102.999 -17.5s-78.833 5.83301 -103.5 17.5s-37 34.167 -37 67.5c0 35.333 14 59 42 71
c24 9.33301 50.833 14 80.5 14s50.167 -0.333008 61.5 -1z" />
    <glyph glyph-name="Hcircumflex" unicode="&#x124;" horiz-adv-x="737" 
d="M263.5 8c-40.333 -5.33301 -80.998 -8.00195 -121.998 -8.00195s-67.333 2.33301 -79 7s-17.5 12 -17.5 22v615c0 16.667 19.333 31.834 58 45.501s80.667 20.5 126 20.5c63.333 0 95 -15 95 -45v-220h89v199c0 16.667 19.5 31.834 58.5 45.501s81.167 20.5 126.5 20.5
c62.667 0 94 -15 94 -45v-636c0 -8.66699 -20.333 -15.667 -61 -21s-81.334 -8 -122.001 -8s-66.834 2.33301 -78.501 7s-17.5 12 -17.5 22v229h-89v-229c0 -8.66699 -20.167 -15.667 -60.5 -21zM261.502 875.498c49 23 85.334 34.5 109.001 34.5s59.167 -11.333 106.5 -34
s71 -38 71 -46c0 -23.333 -3.66699 -44.166 -11 -62.499s-17 -27.5 -29 -27.5c-9.33301 0 -56 13 -140 39c-84.667 -26 -131.334 -39 -140.001 -39c-12 0 -21.667 9.16699 -29 27.5s-11 39.166 -11 62.499c0 7.33301 24.5 22.5 73.5 45.5z" />
    <glyph glyph-name="hcircumflex" unicode="&#x125;" horiz-adv-x="665" 
d="M379.5 746c39 22.667 70.168 34 93.501 34s53.833 -11.167 91.5 -33.5s56.5 -37.833 56.5 -46.5c0 -23.333 -3.66699 -44.166 -11 -62.499s-17 -27.5 -29 -27.5c-9.33301 0 -46 13 -110 39c-64.667 -26 -101.334 -39 -110.001 -39c-12 0 -21.667 9.16699 -29 27.5
s-11 39.166 -11 62.499c0 8 19.5 23.333 58.5 46zM360.001 24l0.00195312 277.996c0 50 -2 86.333 -6 109s-13.667 34 -29 34c-13.333 0 -20 -9 -20 -27v-394c0 -7.33301 -19.333 -13.166 -58 -17.499s-78.334 -6.5 -119.001 -6.5s-66.334 1.83301 -77.001 5.5
s-16 9.83398 -16 18.501v693c0 14 19.333 28 58 42s79.334 21 122.001 21c44.667 0 73 -8.33301 85 -25c4 -5.33301 6 -11 6 -17v-147l-11 -69h7c9.33301 14 24 26.333 44 37c37.333 20 78 30 122 30c63.333 0 106.166 -20.167 128.499 -60.5s33.5 -105.833 33.5 -196.5
v-308c0 -7.33301 -19.5 -13.166 -58.5 -17.499s-78.667 -6.5 -119 -6.5s-65.833 1.83301 -76.5 5.5s-16 9.83398 -16 18.501z" />
    <glyph glyph-name="hbar" unicode="&#x127;" horiz-adv-x="665" 
d="M365 24l0.00195312 277.996c0 50 -2 86.333 -6 109s-13.667 34 -29 34c-13.333 0 -20 -9 -20 -27v-394c0 -7.33301 -19.333 -13.166 -58 -17.499s-78.334 -6.5 -119.001 -6.5s-66.334 1.83301 -77.001 5.5s-16 9.83398 -16 18.501v693c0 14 19.333 28 58 42
s79.334 21 122.001 21c44.667 0 73 -8.33301 85 -25c4 -5.33301 6 -11 6 -17v-147l-11 -69h7c9.33301 14 24 26.333 44 37c37.333 20 78 30 122 30c63.333 0 106.166 -20.167 128.499 -60.5s33.5 -105.833 33.5 -196.5v-308c0 -7.33301 -19.5 -13.166 -58.5 -17.499
s-78.667 -6.5 -119 -6.5s-65.833 1.83301 -76.5 5.5s-16 9.83398 -16 18.501zM378.002 589.996h-405.001c-7.33301 0 -13.666 6.16699 -18.999 18.5s-8 28.833 -8 49.5s7.5 41.167 22.5 61.5s29.167 30.5 42.5 30.5h402c17.333 0 26 -21.667 26 -65
c0 -21.333 -7 -42.5 -21 -63.5s-27.333 -31.5 -40 -31.5z" />
    <glyph glyph-name="Itilde" unicode="&#x128;" horiz-adv-x="369" 
d="M263 6.5c-40.667 -4.33301 -81.501 -6.50098 -122.501 -6.50098s-67.167 1.83301 -78.5 5.5s-17 9.83398 -17 18.501v622c0 14.667 19.333 29.167 58 43.5s82 21.5 130 21.5c42.667 0 70.334 -9 83.001 -27c5.33301 -6.66699 8 -13.334 8 -20.001v-640
c0 -7.33301 -20.333 -13.166 -61 -17.499zM379.499 761.999c-34.333 -21.333 -64.333 -32.001 -90 -32.001s-56.334 5.83301 -92.001 17.5s-58.667 17.5 -69 17.5s-30.166 -5.83301 -59.499 -17.5s-50 -17.5 -62 -17.5s-24.5 11.833 -37.5 35.5s-19.5 41.834 -19.5 54.501
c0 11.333 18.167 27.5 54.5 48.5s66.5 31.5 90.5 31.5s53.5 -5.66699 88.5 -17s60.167 -17 75.5 -17c4.66699 0 21.167 5.66699 49.5 17s49 17 62 17s26.333 -12.333 40 -37s20.5 -42.667 20.5 -54c0 -10 -17.167 -25.667 -51.5 -47z" />
    <glyph glyph-name="itilde" unicode="&#x129;" horiz-adv-x="341" 
d="M306 534l-0.000976562 -510.002c0 -7.33301 -19.167 -13.166 -57.5 -17.499s-77.666 -6.5 -117.999 -6.5s-66.333 1.83301 -78 5.5s-17.5 9.83398 -17.5 18.501v492c0 14.667 19 29 57 43s79 21 123 21c60.667 0 91 -15.333 91 -46zM359.499 641.998
c-34.333 -21.333 -64.333 -32.001 -90 -32.001s-56.334 5.83301 -92.001 17.5s-58.667 17.5 -69 17.5s-30.166 -5.83301 -59.499 -17.5s-50 -17.5 -62 -17.5s-24.5 11.833 -37.5 35.5s-19.5 41.834 -19.5 54.501c0 11.333 18.167 27.5 54.5 48.5s66.5 31.5 90.5 31.5
s53.5 -5.66699 88.5 -17s60.167 -17 75.5 -17c4.66699 0 21.167 5.66699 49.5 17s49 17 62 17s26.333 -12.333 40 -37s20.5 -42.667 20.5 -54c0 -10 -17.167 -25.667 -51.5 -47z" />
    <glyph glyph-name="Imacron" unicode="&#x12a;" horiz-adv-x="463" 
d="M417 730h-405.001c-7.33301 0 -13.666 6.16699 -18.999 18.5s-8 28.833 -8 49.5s7.5 41.167 22.5 61.5s29.167 30.5 42.5 30.5h402c17.333 0 26 -21.667 26 -65c0 -21.333 -7 -42.5 -21 -63.5s-27.333 -31.5 -40 -31.5zM307.999 6.5
c-40.667 -4.33301 -81.5 -6.50098 -122.5 -6.50098s-67.167 1.83301 -78.5 5.5s-17 9.83398 -17 18.501v622c0 14.667 19.333 29.167 58 43.5s82 21.5 130 21.5c42.667 0 70.667 -9 84 -27c4.66699 -6.66699 7 -13.334 7 -20.001v-640
c0 -7.33301 -20.333 -13.166 -61 -17.499z" />
    <glyph glyph-name="imacron" unicode="&#x12b;" horiz-adv-x="463" 
d="M417 610h-405.001c-7.33301 0 -13.666 6.16699 -18.999 18.5s-8 28.833 -8 49.5s7.5 41.167 22.5 61.5s29.167 30.5 42.5 30.5h402c17.333 0 26 -21.667 26 -65c0 -21.333 -7 -42.5 -21 -63.5s-27.333 -31.5 -40 -31.5zM364.999 544l-0.000976562 -520.002
c0 -7.33301 -19.167 -13.166 -57.5 -17.499s-77.666 -6.5 -117.999 -6.5s-66.333 1.83301 -78 5.5s-17.5 9.83398 -17.5 18.501v502c0 14.667 19 29 57 43s79 21 123 21c60.667 0 91 -15.333 91 -46z" />
    <glyph glyph-name="Ibreve" unicode="&#x12c;" horiz-adv-x="369" 
d="M263 6.5c-40.667 -4.33301 -81.501 -6.50098 -122.501 -6.50098s-67.167 1.83301 -78.5 5.5s-17 9.83398 -17 18.501v622c0 14.667 19.333 29.167 58 43.5s82 21.5 130 21.5c42.667 0 70.334 -9 83.001 -27c5.33301 -6.66699 8 -13.334 8 -20.001v-640
c0 -7.33301 -20.333 -13.166 -61 -17.499zM159.999 867.999c0 -31.333 7.83203 -47 23.499 -47s23.5 15.667 23.5 47c0 21.333 19.833 32 59.5 32s59.5 -10 59.5 -30c0 -50 -12.5 -84.167 -37.5 -102.5s-60.167 -27.5 -105.5 -27.5s-80.166 8.83301 -104.499 26.5
s-36.5 52.167 -36.5 103.5c0 20 19.667 30 59 30s59 -10.667 59 -32z" />
    <glyph glyph-name="ibreve" unicode="&#x12d;" horiz-adv-x="341" 
d="M306 534l-0.000976562 -510.002c0 -7.33301 -19.167 -13.166 -57.5 -17.499s-77.666 -6.5 -117.999 -6.5s-66.333 1.83301 -78 5.5s-17.5 9.83398 -17.5 18.501v492c0 14.667 19 29 57 43s79 21 123 21c60.667 0 91 -15.333 91 -46zM146.999 737.998
c0 -31.333 7.83203 -47 23.499 -47s23.5 15.667 23.5 47c0 21.333 19.833 32 59.5 32s59.5 -10 59.5 -30c0 -50 -12.5 -84.167 -37.5 -102.5s-60.167 -27.5 -105.5 -27.5s-80.166 8.83301 -104.499 26.5s-36.5 52.167 -36.5 103.5c0 20 19.667 30 59 30s59 -10.667 59 -32z
" />
    <glyph glyph-name="Iogonek" unicode="&#x12e;" horiz-adv-x="369" 
d="M263 6.5c40.667 4.33301 61.001 10.167 61.001 17.5v640c0 6.66699 -2.66699 13.334 -8 20.001c-12.667 18 -40.334 27 -83.001 27c-48 0 -91.333 -7.16699 -130 -21.5s-58 -28.833 -58 -43.5v-622c0 -8.66699 5.66699 -14.834 17 -18.501s37.5 -5.5 78.5 -5.5
s81.833 2.16699 122.5 6.5zM79.501 -126.999c-33 18.667 -49.4971 47.668 -49.4971 87.001s15.667 68.333 47 87c11.333 0 40.666 -2.83301 87.999 -8.5s71 -11.167 71 -16.5s-6.33301 -12.5 -19 -21.5s-19 -16.833 -19 -23.5c0 -10.667 8.33301 -16 25 -16
s33.667 1.5 51 4.5s27.666 4.5 30.999 4.5s7.66602 -4 12.999 -12c14 -20 21 -49.667 21 -89c0 -8.66699 -16.333 -14.834 -49 -18.501s-61 -5.5 -85 -5.5c-50.667 0 -92.5 9.33301 -125.5 28z" />
    <glyph glyph-name="iogonek" unicode="&#x12f;" horiz-adv-x="350" 
d="M310 517c0 31.333 -30.3311 47.002 -90.998 47.002c-44.667 0 -85.834 -7.16699 -123.501 -21.5s-56.5 -28.833 -56.5 -43.5v-475c0 -8.66699 5.83301 -14.834 17.5 -18.501s37.667 -5.5 78 -5.5s79.666 2.16699 117.999 6.5s57.5 10.166 57.5 17.499v493z
M174.002 780.002c44 0 78.5 -6.5 103.5 -19.5s37.5 -36.5 37.5 -70.5c0 -60 -46.667 -90 -140 -90s-140 30 -140 90s46.333 90 139 90zM68.502 -126.998c-33 18.667 -49.4971 47.668 -49.4971 87.001s15.667 68.333 47 87c11.333 0 40.666 -2.83301 87.999 -8.5
s71 -11.167 71 -16.5s-6.33301 -12.5 -19 -21.5s-19 -16.833 -19 -23.5c0 -10.667 8.33301 -16 25 -16s33.667 1.5 51 4.5s27.666 4.5 30.999 4.5s7.66602 -4 12.999 -12c14 -20 21 -49.667 21 -89c0 -8.66699 -16.333 -14.834 -49 -18.501s-61 -5.5 -85 -5.5
c-50.667 0 -92.5 9.33301 -125.5 28z" />
    <glyph glyph-name="dotlessi" unicode="&#x131;" horiz-adv-x="341" 
d="M306 534l-0.000976562 -510.002c0 -7.33301 -19.167 -13.166 -57.5 -17.499s-77.666 -6.5 -117.999 -6.5s-66.333 1.83301 -78 5.5s-17.5 9.83398 -17.5 18.501v492c0 14.667 19 29 57 43s79 21 123 21c60.667 0 91 -15.333 91 -46z" />
    <glyph glyph-name="IJ" unicode="&#x132;" horiz-adv-x="789" 
d="M263 6.5c-40.667 -4.33301 -81.501 -6.50098 -122.501 -6.50098s-67.167 1.83301 -78.5 5.5s-17 9.83398 -17 18.501v622c0 14.667 19.333 29.167 58 43.5s82 21.5 130 21.5c42.667 0 70.334 -9 83.001 -27c5.33301 -6.66699 8 -13.334 8 -20.001v-640
c0 -7.33301 -20.333 -13.166 -61 -17.499zM630.499 -121.501c-25 -9 -53.333 -13.5 -85 -13.5s-54.834 0.5 -69.501 1.5s-30.167 3.66699 -46.5 8s-29.166 10.166 -38.499 17.499c-21.333 18 -32 46 -32 84c0 54.667 14 82 42 82c8.66699 0 15.334 1.33301 20.001 4
c12.667 6 19 26.667 19 62v521c0 14.667 19.167 29.167 57.5 43.5s79.166 21.5 122.499 21.5c66 0 99 -15.667 99 -47v-553c0 -46 -2 -82.667 -6 -110s-12.5 -52.166 -25.5 -74.499s-32 -38 -57 -47z" />
    <glyph glyph-name="ij" unicode="&#x133;" horiz-adv-x="765" 
d="M315 517l-0.00195312 -493.002c0 -7.33301 -19.167 -13.166 -57.5 -17.499s-77.666 -6.5 -117.999 -6.5s-66.333 1.83301 -78 5.5s-17.5 9.83398 -17.5 18.501v475c0 14.667 18.833 29.167 56.5 43.5s78.834 21.5 123.501 21.5c60.667 0 91 -15.667 91 -47z
M178.998 779.998c44 0 78.5 -6.5 103.5 -19.5s37.5 -36.5 37.5 -70.5c0 -60 -46.667 -90 -140 -90s-140 30 -140 90s46.333 90 139 90zM641.498 -94.002c-37 -40.667 -87.833 -61 -152.5 -61s-106.167 6.16699 -124.5 18.5s-27.5 40 -27.5 83s8.33301 65.5 25 67.5
c23.333 3.33301 39.833 9.33301 49.5 18s14.5 24.667 14.5 48v419c0 14.667 18.833 29.167 56.5 43.5s78.5 21.5 122.5 21.5c61.333 0 92 -15.667 92 -47v-427c0 -82 -18.5 -143.333 -55.5 -184zM561.998 599.998c-93.333 0 -140.001 30.334 -140.001 91.001
c0 34 12.5 57.333 37.5 70s59.833 19 104.5 19s78.834 -5.83301 102.501 -17.5s35.5 -34.834 35.5 -69.501c0 -62 -46.667 -93 -140 -93z" />
    <glyph glyph-name="Jcircumflex" unicode="&#x134;" horiz-adv-x="420" 
d="M132.5 825.5c49 23 85.334 34.5 109.001 34.5s59.167 -11.333 106.5 -34s71 -38 71 -46c0 -23.333 -3.66699 -44.166 -11 -62.499s-17 -27.5 -29 -27.5c-9.33301 0 -56 13 -140 39c-84.667 -26 -131.334 -39 -140.001 -39c-12 0 -21.667 9.16699 -29 27.5
s-11 39.166 -11 62.499c0 7.33301 24.5 22.5 73.5 45.5zM286.501 -121.5c-25 -9 -53.333 -13.5 -85 -13.5s-54.834 0.5 -69.501 1.5s-30.167 3.66699 -46.5 8s-29.166 10.166 -38.499 17.499c-21.333 18 -32 46 -32 84c0 54.667 14 82 42 82
c8.66699 0 15.334 1.33301 20.001 4c12.667 6 19 26.667 19 62v471c0 14.667 19.167 29.167 57.5 43.5s79.166 21.5 122.499 21.5c66 0 99 -15.667 99 -47v-503c0 -46 -2 -82.667 -6 -110s-12.5 -52.166 -25.5 -74.499s-32 -38 -57 -47z" />
    <glyph glyph-name="jcircumflex" unicode="&#x135;" horiz-adv-x="371" 
d="M228.5 -145c-23 -6.66699 -55.332 -9.99902 -96.999 -9.99902s-72.334 8.5 -92.001 25.5s-29.5 43.667 -29.5 80s8.33301 57.5 25 63.5c11.333 4 18.333 10.167 21 18.5s4 24.166 4 47.499v419c0 14.667 18.833 29.167 56.5 43.5s78.5 21.5 122.5 21.5
c61.333 0 92 -15.667 92 -47v-427c0 -38 -1 -68.333 -3 -91s-6.5 -45 -13.5 -67s-17.333 -38.667 -31 -50s-32 -20.333 -55 -27zM88.501 745.501c49 23 85.334 34.5 109.001 34.5s59.167 -11.333 106.5 -34s71 -38 71 -46c0 -23.333 -3.66699 -44.166 -11 -62.499
s-17 -27.5 -29 -27.5c-9.33301 0 -56 13 -140 39c-84.667 -26 -131.334 -39 -140.001 -39c-12 0 -21.667 9.16699 -29 27.5s-11 39.166 -11 62.499c0 7.33301 24.5 22.5 73.5 45.5z" />
    <glyph glyph-name="Lacute" unicode="&#x139;" horiz-adv-x="549" 
d="M129 0c-33.333 0 -55.667 1.83301 -67 5.5s-17 9.83398 -17 18.501v622c0 14.667 19.333 29.167 58 43.5s82 21.5 130 21.5c42.667 0 70.334 -9 83.001 -27c5.33301 -6.66699 8 -13.334 8 -20.001v-443c81.333 5.33301 142.666 8 183.999 8c14 0 21 -22.167 21 -66.5
s-3 -82.5 -9 -114.5s-14 -48 -24 -48h-367zM341.999 910c15.333 0 30.832 -12.668 46.499 -38.001s23.5 -56.666 23.5 -93.999c0 -10 -28.833 -18.833 -86.5 -26.5s-105.5 -11.5 -143.5 -11.5c-12.667 0 -24.167 8 -34.5 24s-15.5 34.5 -15.5 55.5s24.833 41.333 74.5 61
s94.834 29.5 135.501 29.5z" />
    <glyph glyph-name="lacute" unicode="&#x13a;" horiz-adv-x="340" 
d="M305 734v-710.002c0 -7.33301 -19 -13.166 -57 -17.499s-77.167 -6.5 -117.5 -6.5s-66.333 1.83301 -78 5.5s-17.5 9.83398 -17.5 18.501v692c0 14.667 18.833 29 56.5 43s78.167 21 121.5 21c61.333 0 92 -15.333 92 -46zM290 969.998
c15.333 0 30.832 -12.668 46.499 -38.001s23.5 -56.666 23.5 -93.999c0 -10 -28.833 -18.833 -86.5 -26.5s-105.5 -11.5 -143.5 -11.5c-12.667 0 -24.167 8 -34.5 24s-15.5 34.5 -15.5 55.5s24.833 41.333 74.5 61s94.834 29.5 135.501 29.5z" />
    <glyph glyph-name="Lcaron" unicode="&#x13d;" horiz-adv-x="600" 
d="M129 0c-33.333 0 -55.667 1.83301 -67 5.5s-17 9.83398 -17 18.501v622c0 14.667 19.333 29.167 58 43.5s82 21.5 130 21.5c42.667 0 70.334 -9 83.001 -27c5.33301 -6.66699 8 -13.334 8 -20.001v-443c81.333 5.33301 142.666 8 183.999 8c14 0 21 -22.167 21 -66.5
s-3 -82.5 -9 -114.5s-14 -48 -24 -48h-367zM415.999 367c-19.333 0 -33.334 15.668 -42.001 47.001c-8.66699 33.333 -13.667 66.666 -15 99.999c-2 49.333 -3 97 -3 143c0 35.333 54 53 162 53c18.667 0 30.334 -12 35.001 -36s7 -65.333 7 -124c0 -122 -48 -183 -144 -183
z" />
    <glyph glyph-name="lcaron" unicode="&#x13e;" horiz-adv-x="610" 
d="M305 734v-710.002c0 -7.33301 -19 -13.166 -57 -17.499s-77.167 -6.5 -117.5 -6.5s-66.333 1.83301 -78 5.5s-17.5 9.83398 -17.5 18.501v692c0 14.667 18.833 29 56.5 43s78.167 21 121.5 21c61.333 0 92 -15.333 92 -46zM436 436.998
c-19.333 0 -33.334 15.668 -42.001 47.001c-8.66699 33.333 -13.667 66.666 -15 99.999c-2 49.333 -3 97 -3 143c0 35.333 54 53 162 53c18.667 0 30.334 -12 35.001 -36s7 -65.333 7 -124c0 -122 -48 -183 -144 -183z" />
    <glyph glyph-name="Ldot" unicode="&#x13f;" horiz-adv-x="607" 
d="M129 0c-33.333 0 -55.667 1.83301 -67 5.5s-17 9.83398 -17 18.501v622c0 14.667 19.333 29.167 58 43.5s82 21.5 130 21.5c42.667 0 70.334 -9 83.001 -27c5.33301 -6.66699 8 -13.334 8 -20.001v-443c81.333 5.33301 142.666 8 183.999 8c14 0 21 -22.167 21 -66.5
s-3 -82.5 -9 -114.5s-14 -48 -24 -48h-367zM549.999 330c-18 -14.667 -44.5 -22 -79.5 -22s-61.5 7.33301 -79.5 22s-27 41.667 -27 81s9.16699 65.5 27.5 78.5s44.833 19.5 79.5 19.5s61 -6.5 79 -19.5s27 -39.167 27 -78.5s-9 -66.333 -27 -81z" />
    <glyph glyph-name="ldot" unicode="&#x140;" horiz-adv-x="608" 
d="M305 734v-710.002c0 -7.33301 -19 -13.166 -57 -17.499s-77.167 -6.5 -117.5 -6.5s-66.333 1.83301 -78 5.5s-17.5 9.83398 -17.5 18.501v692c0 14.667 18.833 29 56.5 43s78.167 21 121.5 21c61.333 0 92 -15.333 92 -46zM551 329.998c-18 -14.667 -44.5 -22 -79.5 -22
s-61.5 7.33301 -79.5 22s-27 41.667 -27 81s9.16699 65.5 27.5 78.5s44.833 19.5 79.5 19.5s61 -6.5 79 -19.5s27 -39.167 27 -78.5s-9 -66.333 -27 -81z" />
    <glyph glyph-name="Lslash" unicode="&#x141;" horiz-adv-x="611" 
d="M191 0c-33.333 0 -55.668 1.83301 -67.001 5.5s-17 9.83398 -17 18.501v289h-70c-7.33301 0 -13.666 6.16699 -18.999 18.5s-8 30 -8 53s7.33301 46.333 22 70s29 35.5 43 35.5h32v156c0 14.667 19.333 29.167 58 43.5s82 21.5 130 21.5c42.667 0 70.334 -9 83.001 -27
c5.33301 -6.66699 8 -13.334 8 -20.001v-174h101c17.333 0 26 -21.667 26 -65c0 -22 -7 -46.167 -21 -72.5s-27.333 -39.5 -40 -39.5h-66v-92c81.333 5.33301 142.666 8 183.999 8c14 0 21 -22.167 21 -66.5s-3 -82.5 -9 -114.5s-14 -48 -24 -48h-367z" />
    <glyph glyph-name="lslash" unicode="&#x142;" horiz-adv-x="553" 
d="M354 6.5c-38 -4.33301 -77.168 -6.50195 -117.501 -6.50195s-66.333 1.83301 -78 5.5s-17.5 9.83398 -17.5 18.501v286h-104c-7.33301 0 -13.666 6.16699 -18.999 18.5s-8 30 -8 53s7.33301 46.333 22 70s29 35.5 43 35.5h66v229c0 14.667 18.833 29 56.5 43
s78.167 21 121.5 21c61.333 0 92 -15.333 92 -46v-247h106c17.333 0 26 -21.667 26 -65c0 -22 -7 -46.167 -21 -72.5s-27.333 -39.5 -40 -39.5h-71v-286c0 -7.33301 -19 -13.166 -57 -17.499z" />
    <glyph glyph-name="Nacute" unicode="&#x143;" horiz-adv-x="744" 
d="M262.5 8c-41 -5.33301 -81.833 -8.00195 -122.5 -8.00195s-66.667 2.33301 -78 7s-17 12 -17 22v614c0 16.667 19.167 32 57.5 46s81.833 21 130.5 21c17.333 0 30.333 -0.666992 39 -2c22.667 -3.33301 38.667 -17.666 48 -42.999l96 -258h4v236c0 16.667 19 32 57 46
s81.333 21 130 21c42 0 68.333 -8 79 -24c8.66699 -11.333 13 -21.666 13 -30.999v-626c0 -8.66699 -20.5 -15.667 -61.5 -21s-86 -8 -135 -8s-75.833 6.33301 -80.5 19l-93 246h-5v-236c0 -8.66699 -20.5 -15.667 -61.5 -21zM462 909.998
c15.333 0 30.832 -12.668 46.499 -38.001s23.5 -56.666 23.5 -93.999c0 -10 -28.833 -18.833 -86.5 -26.5s-105.5 -11.5 -143.5 -11.5c-12.667 0 -24.167 8 -34.5 24s-15.5 34.5 -15.5 55.5s24.833 41.333 74.5 61s94.834 29.5 135.501 29.5z" />
    <glyph glyph-name="nacute" unicode="&#x144;" horiz-adv-x="673" 
d="M638 332l0.00195312 -308.004c0 -7.33301 -19 -13.166 -57 -17.499s-77.167 -6.5 -117.5 -6.5s-66.333 1.83301 -78 5.5s-17.5 9.83398 -17.5 18.501v318c0 30 -1.16699 49.667 -3.5 59l-6.5 25c-4.66699 12.667 -13 19 -25 19c-18.667 0 -28 -9 -28 -27v-394
c0 -7.33301 -18.833 -13.166 -56.5 -17.499s-76.667 -6.5 -117 -6.5s-66.5 1.83301 -78.5 5.5s-18 9.83398 -18 18.501v493c0 14 19.167 28 57.5 42s78.833 21 121.5 21s66.667 -12.333 72 -37l9 -44h7c19.333 38.667 52.666 65.667 99.999 81c19.333 6 40.666 9 63.999 9
c67.333 0 112.833 -20.167 136.5 -60.5s35.5 -105.833 35.5 -196.5zM426.002 779.996c15.333 0 30.832 -12.668 46.499 -38.001s23.5 -56.666 23.5 -93.999c0 -10 -28.833 -18.833 -86.5 -26.5s-105.5 -11.5 -143.5 -11.5c-12.667 0 -24.167 8 -34.5 24
s-15.5 34.5 -15.5 55.5s24.833 41.333 74.5 61s94.834 29.5 135.501 29.5z" />
    <glyph glyph-name="Ncaron" unicode="&#x147;" horiz-adv-x="744" 
d="M262.5 8c-41 -5.33301 -81.833 -8.00195 -122.5 -8.00195s-66.667 2.33301 -78 7s-17 12 -17 22v614c0 16.667 19.167 32 57.5 46s81.833 21 130.5 21c17.333 0 30.333 -0.666992 39 -2c22.667 -3.33301 38.667 -17.666 48 -42.999l96 -258h4v236c0 16.667 19 32 57 46
s81.333 21 130 21c42 0 68.333 -8 79 -24c8.66699 -11.333 13 -21.666 13 -30.999v-626c0 -8.66699 -20.5 -15.667 -61.5 -21s-86 -8 -135 -8s-75.833 6.33301 -80.5 19l-93 246h-5v-236c0 -8.66699 -20.5 -15.667 -61.5 -21zM481 773.998
c-47.333 -22.667 -82.834 -34 -106.501 -34s-60 11.5 -109 34.5s-73.5 38.167 -73.5 45.5c0 23.333 3.66699 44.166 11 62.499s17 27.5 29 27.5c8.66699 0 55.334 -13 140.001 -39c84 26 130.667 39 140 39c12 0 21.667 -9.16699 29 -27.5s11 -39.166 11 -62.499
c0 -8 -23.667 -23.333 -71 -46z" />
    <glyph glyph-name="ncaron" unicode="&#x148;" horiz-adv-x="673" 
d="M638 332l0.00195312 -308.004c0 -7.33301 -19 -13.166 -57 -17.499s-77.167 -6.5 -117.5 -6.5s-66.333 1.83301 -78 5.5s-17.5 9.83398 -17.5 18.501v318c0 30 -1.16699 49.667 -3.5 59l-6.5 25c-4.66699 12.667 -13 19 -25 19c-18.667 0 -28 -9 -28 -27v-394
c0 -7.33301 -18.833 -13.166 -56.5 -17.499s-76.667 -6.5 -117 -6.5s-66.5 1.83301 -78.5 5.5s-18 9.83398 -18 18.501v493c0 14 19.167 28 57.5 42s78.833 21 121.5 21s66.667 -12.333 72 -37l9 -44h7c19.333 38.667 52.666 65.667 99.999 81c19.333 6 40.666 9 63.999 9
c67.333 0 112.833 -20.167 136.5 -60.5s35.5 -105.833 35.5 -196.5zM445.002 643.996c-47.333 -22.667 -82.834 -34 -106.501 -34s-60 11.5 -109 34.5s-73.5 38.167 -73.5 45.5c0 23.333 3.66699 44.166 11 62.499s17 27.5 29 27.5c8.66699 0 55.334 -13 140.001 -39
c84 26 130.667 39 140 39c12 0 21.667 -9.16699 29 -27.5s11 -39.166 11 -62.499c0 -8 -23.667 -23.333 -71 -46z" />
    <glyph glyph-name="Eng" unicode="&#x14a;" horiz-adv-x="744" 
d="M610.5 -141.5c-25 -9 -53.332 -13.501 -84.999 -13.501s-54.834 0.5 -69.501 1.5s-30.167 3.66699 -46.5 8s-29.166 10.166 -38.499 17.499c-21.333 18 -32 46 -32 84c0 54.667 14 82 42 82c8 0 14.333 1.33301 19 4c13.333 6 20 26 20 60l-111 163h-5v-236
c0 -8.66699 -17.5 -15.667 -52.5 -21s-72.5 -8 -112.5 -8s-65.667 2.33301 -77 7s-17 12 -17 22v614c0 16.667 19.167 32 57.5 46s75.666 21 111.999 21s60.5 -2.5 72.5 -7.5s23 -17.5 33 -37.5l96 -188h4v166c0 16.667 19 32 57 46s81.333 21 130 21c42 0 68.333 -8 79 -24
c8.66699 -11.333 13 -21.666 13 -30.999v-565c0 -46 -2 -82.667 -6 -110s-12.5 -52.166 -25.5 -74.499s-32 -38 -57 -47z" />
    <glyph glyph-name="eng" unicode="&#x14b;" horiz-adv-x="673" 
d="M451 -155c-49.333 0 -83.8311 8.49805 -103.498 25.498s-29.5 43.667 -29.5 80s8.33301 57.5 25 63.5c11.333 4 18.333 10.167 21 18.5s4 24.166 4 47.499v262c0 30 -1.16699 49.667 -3.5 59l-6.5 25c-4.66699 12.667 -13 19 -25 19c-18.667 0 -28 -9 -28 -27v-394
c0 -7.33301 -18.833 -13.166 -56.5 -17.499s-76.667 -6.5 -117 -6.5s-66.5 1.83301 -78.5 5.5s-18 9.83398 -18 18.501v493c0 14 19.167 28 57.5 42s78.833 21 121.5 21s66.667 -12.333 72 -37l9 -44h7c19.333 38.667 52.666 65.667 99.999 81c19.333 6 40.666 9 63.999 9
c67.333 0 112.833 -20.167 136.5 -60.5s35.5 -105.833 35.5 -196.5v-301c0 -63.333 -15 -110.166 -45 -140.499s-77.333 -45.5 -142 -45.5z" />
    <glyph glyph-name="Omacron" unicode="&#x14c;" horiz-adv-x="776" 
d="M388 -9c-55.333 0 -102.833 5.16699 -142.5 15.5s-76.167 28.833 -109.5 55.5c-67.333 52.667 -101 153.667 -101 303c0 62.667 9.16699 117.334 27.5 164.001s43.833 83.667 76.5 111c64 53.333 147 80 249 80c52.667 0 98.5 -4.66699 137.5 -14
s75.833 -26.333 110.5 -51c70 -50.667 105 -147.334 105 -290.001c0 -128 -31.667 -222.333 -95 -283s-149.333 -91 -258 -91zM388 148c14 0 25 4.83301 33 14.5s14.667 30.334 20 62.001s8 75.834 8 132.501s-2.66699 100.334 -8 131.001s-12 50.667 -20 60s-19 14 -33 14
s-25 -4.66699 -33 -14s-14.667 -29.333 -20 -60s-8 -74.334 -8 -131.001s2.66699 -100.834 8 -132.501s12 -52.334 20 -62.001s19 -14.5 33 -14.5zM574 740h-405.001c-7.33301 0 -13.666 6.16699 -18.999 18.5s-8 28.833 -8 49.5s7.5 41.167 22.5 61.5
s29.167 30.5 42.5 30.5h402c17.333 0 26 -21.667 26 -65c0 -21.333 -7 -42.5 -21 -63.5s-27.333 -31.5 -40 -31.5z" />
    <glyph glyph-name="omacron" unicode="&#x14d;" horiz-adv-x="685" 
d="M343 -9c-50 0 -93 4.33301 -129 13s-68.667 24 -98 46c-60.667 44 -91 126 -91 246c0 106.667 31 183 93 229c58 42.667 133 64 225 64c39.333 0 73 -1.83301 101 -5.5s56.5 -11.5 85.5 -23.5s52.333 -28.333 70 -49s32.167 -49.167 43.5 -85.5s17 -79.5 17 -129.5
c0 -101.333 -28.667 -177.5 -86 -228.5s-134.333 -76.5 -231 -76.5zM322.5 143c5 -4.66699 11.666 -7.00098 19.999 -7.00098s15 2.33301 20 7s9.66699 19 14 43s6.5 54.167 6.5 90.5s-0.833008 64.333 -2.5 84s-3.66699 34.834 -6 45.501s-5.5 19 -9.5 25
c-6 8.66699 -13.167 13 -21.5 13s-15.166 -2.5 -20.499 -7.5s-10.333 -19.667 -15 -44s-7 -58.833 -7 -103.5s2.33301 -79 7 -103s9.5 -38.333 14.5 -43zM529.999 609.999h-405.001c-7.33301 0 -13.666 6.16699 -18.999 18.5s-8 28.833 -8 49.5s7.5 41.167 22.5 61.5
s29.167 30.5 42.5 30.5h402c17.333 0 26 -21.667 26 -65c0 -21.333 -7 -42.5 -21 -63.5s-27.333 -31.5 -40 -31.5z" />
    <glyph glyph-name="Obreve" unicode="&#x14e;" horiz-adv-x="776" 
d="M388 -9c-55.333 0 -102.833 5.16699 -142.5 15.5s-76.167 28.833 -109.5 55.5c-67.333 52.667 -101 153.667 -101 303c0 62.667 9.16699 117.334 27.5 164.001s43.833 83.667 76.5 111c64 53.333 147 80 249 80c52.667 0 98.5 -4.66699 137.5 -14
s75.833 -26.333 110.5 -51c70 -50.667 105 -147.334 105 -290.001c0 -128 -31.667 -222.333 -95 -283s-149.333 -91 -258 -91zM388 148c14 0 25 4.83301 33 14.5s14.667 30.334 20 62.001s8 75.834 8 132.501s-2.66699 100.334 -8 131.001s-12 50.667 -20 60s-19 14 -33 14
s-25 -4.66699 -33 -14s-14.667 -29.333 -20 -60s-8 -74.334 -8 -131.001s2.66699 -100.834 8 -132.501s12 -52.334 20 -62.001s19 -14.5 33 -14.5zM365 868c0 -31.333 7.83203 -47 23.499 -47s23.5 15.667 23.5 47c0 21.333 19.833 32 59.5 32s59.5 -10 59.5 -30
c0 -50 -12.5 -84.167 -37.5 -102.5s-60.167 -27.5 -105.5 -27.5s-80.166 8.83301 -104.499 26.5s-36.5 52.167 -36.5 103.5c0 20 19.667 30 59 30s59 -10.667 59 -32z" />
    <glyph glyph-name="obreve" unicode="&#x14f;" horiz-adv-x="685" 
d="M343 -9c-50 0 -93 4.33301 -129 13s-68.667 24 -98 46c-60.667 44 -91 126 -91 246c0 106.667 31 183 93 229c58 42.667 133 64 225 64c39.333 0 73 -1.83301 101 -5.5s56.5 -11.5 85.5 -23.5s52.333 -28.333 70 -49s32.167 -49.167 43.5 -85.5s17 -79.5 17 -129.5
c0 -101.333 -28.667 -177.5 -86 -228.5s-134.333 -76.5 -231 -76.5zM322.5 143c5 -4.66699 11.666 -7.00098 19.999 -7.00098s15 2.33301 20 7s9.66699 19 14 43s6.5 54.167 6.5 90.5s-0.833008 64.333 -2.5 84s-3.66699 34.834 -6 45.501s-5.5 19 -9.5 25
c-6 8.66699 -13.167 13 -21.5 13s-15.166 -2.5 -20.499 -7.5s-10.333 -19.667 -15 -44s-7 -58.833 -7 -103.5s2.33301 -79 7 -103s9.5 -38.333 14.5 -43zM317.999 737.999c0 -31.333 7.83203 -47 23.499 -47s23.5 15.667 23.5 47c0 21.333 19.833 32 59.5 32
s59.5 -10 59.5 -30c0 -50 -12.5 -84.167 -37.5 -102.5s-60.167 -27.5 -105.5 -27.5s-80.166 8.83301 -104.499 26.5s-36.5 52.167 -36.5 103.5c0 20 19.667 30 59 30s59 -10.667 59 -32z" />
    <glyph glyph-name="Ohungarumlaut" unicode="&#x150;" horiz-adv-x="776" 
d="M388 -9c-55.333 0 -102.833 5.16699 -142.5 15.5s-76.167 28.833 -109.5 55.5c-67.333 52.667 -101 153.667 -101 303c0 62.667 9.16699 117.334 27.5 164.001s43.833 83.667 76.5 111c64 53.333 147 80 249 80c52.667 0 98.5 -4.66699 137.5 -14
s75.833 -26.333 110.5 -51c70 -50.667 105 -147.334 105 -290.001c0 -128 -31.667 -222.333 -95 -283s-149.333 -91 -258 -91zM388 148c14 0 25 4.83301 33 14.5s14.667 30.334 20 62.001s8 75.834 8 132.501s-2.66699 100.334 -8 131.001s-12 50.667 -20 60s-19 14 -33 14
s-25 -4.66699 -33 -14s-14.667 -29.333 -20 -60s-8 -74.334 -8 -131.001s2.66699 -100.834 8 -132.501s12 -52.334 20 -62.001s19 -14.5 33 -14.5zM292 910c15.333 0 30.834 -12.667 46.501 -38s23.5 -56.666 23.5 -93.999c0 -10 -25.833 -18.833 -77.5 -26.5
s-95.834 -11.5 -132.501 -11.5c-12.667 0 -24.167 8 -34.5 24s-15.5 34.667 -15.5 56s21.833 41.666 65.5 60.999s85.167 29 124.5 29zM603.001 910c15.333 0 30.834 -12.667 46.501 -38s23.5 -56.666 23.5 -93.999c0 -10 -25.833 -18.833 -77.5 -26.5
s-95.834 -11.5 -132.501 -11.5c-12.667 0 -24.167 8 -34.5 24s-15.5 34.667 -15.5 56s21.833 41.666 65.5 60.999s85.167 29 124.5 29z" />
    </font>
</defs>
</svg>
