<?xml version="1.0" standalone="no"?>
<!DOCTYPE svg PUBLIC "-//W3C//DTD SVG 20010904//EN"
 "http://www.w3.org/TR/2001/REC-SVG-20010904/DTD/svg10.dtd">
<svg version="1.0" xmlns="http://www.w3.org/2000/svg"
 width="700.000000pt" height="700.000000pt" viewBox="0 0 700.000000 700.000000"
 preserveAspectRatio="xMidYMid meet">
<metadata>
Created by potrace 1.11, written by Peter Selinger 2001-2013
</metadata>
<g transform="translate(0.000000,700.000000) scale(0.100000,-0.100000)"
fill="#000000" stroke="none">
<path d="M3278 6995 c-2 -1 -41 -5 -88 -9 -87 -7 -105 -9 -225 -27 -116 -18
-123 -19 -192 -35 -184 -42 -248 -59 -369 -99 -264 -88 -538 -216 -759 -356
-346 -217 -655 -497 -910 -824 -238 -304 -432 -668 -559 -1047 -31 -94 -79
-267 -91 -329 -3 -13 -11 -58 -20 -99 -29 -147 -36 -200 -52 -370 -15 -165 -8
-592 12 -711 2 -13 6 -46 9 -74 9 -78 22 -152 51 -285 21 -96 91 -339 114
-395 5 -11 26 -65 46 -120 53 -138 160 -358 239 -489 36 -60 66 -111 66 -113
0 -2 5 -9 10 -16 6 -7 40 -55 76 -107 166 -238 395 -488 609 -665 33 -28 62
-52 65 -55 31 -33 389 -280 407 -280 3 0 14 -6 22 -14 56 -49 436 -222 631
-288 107 -36 376 -110 445 -123 290 -51 390 -60 700 -60 229 0 319 6 495 31
1413 205 2574 1271 2898 2664 27 116 33 142 46 225 36 219 41 301 40 605 0
191 -5 301 -18 395 -120 900 -550 1688 -1236 2264 -74 63 -310 237 -361 266
-227 132 -479 265 -503 265 -4 0 -31 11 -59 24 -163 74 -561 185 -757 211 -19
3 -46 7 -60 10 -13 2 -52 7 -86 11 -33 3 -74 8 -90 10 -32 5 -540 14 -546 9z"/>
</g>
</svg>
