<!-- Generated by IcoMoon.io -->
<svg version="1.1" xmlns="http://www.w3.org/2000/svg" width="32" height="32" viewBox="0 0 32 32">
<title>git</title>
<path fill="#fff" d="M16 0c-8.788 0-16 7.212-16 16 0 7.499 5.262 14.312 12.25 16v-5.293c-0.692 0.152-1.33 0.156-2.034-0.052-0.946-0.279-1.714-0.909-2.284-1.869-0.364-0.613-1.008-1.278-1.68-1.23l-0.165-1.868c1.453-0.124 2.711 0.886 3.457 2.14 0.332 0.558 0.713 0.884 1.203 1.029 0.473 0.14 0.982 0.072 1.574-0.137 0.149-1.186 0.692-1.63 1.102-2.255v-0.001c-4.167-0.622-5.828-2.832-6.488-4.578-0.874-2.317-0.405-5.212 1.14-7.041 0.030-0.036 0.084-0.129 0.063-0.194-0.708-2.139 0.155-3.909 0.187-4.097 0.817 0.242 0.95-0.243 3.551 1.337l0.449 0.27c0.188 0.112 0.129 0.048 0.317 0.034 1.086-0.295 2.23-0.458 3.358-0.472 1.136 0.015 2.273 0.178 3.404 0.484l0.145 0.015c-0.013-0.002 0.040-0.009 0.127-0.062 3.248-1.968 3.132-1.324 4.003-1.608 0.032 0.188 0.883 1.987 0.182 4.099-0.095 0.291 2.816 2.956 1.203 7.235-0.659 1.746-2.32 3.957-6.487 4.578v0.001c0.534 0.814 1.176 1.247 1.173 2.927v6.608c6.988-1.688 12.25-8.501 12.25-16 0-8.788-7.212-16-16-16z"></path>
</svg>
