<?xml version="1.0" encoding="utf-8"?>
<!-- Generator: Adobe Illustrator 24.1.2, SVG Export Plug-In . SVG Version: 6.00 Build 0)  -->
<svg version="1.1" id="Layer_1" xmlns="http://www.w3.org/2000/svg" xmlns:xlink="http://www.w3.org/1999/xlink" x="0px" y="0px"
	 viewBox="0 0 13 12" style="enable-background:new 0 0 13 12;" xml:space="preserve">
<style type="text/css">
	.st0{fill:#D9D9D9;}
</style>
<path class="st0" d="M12.8,5.9c0.2-0.2,0.2-0.6,0-0.8L7.3,0.2C7-0.1,6.6-0.1,6.4,0.2L0.8,5.3c-0.2,0.2-0.3,0.6,0,0.8l0.1,0.1
	c0.2,0.2,0.6,0.3,0.8,0.1l0.4-0.4v5.4c0,0.3,0.3,0.6,0.6,0.6h2.2c0.3,0,0.6-0.3,0.6-0.6V7.6h2.8v3.8c0,0.3,0.2,0.6,0.6,0.6h2.3
	c0.3,0,0.6-0.3,0.6-0.6V6c0,0,0.1,0.1,0.3,0.2c0.1,0.1,0.4,0,0.7-0.2L12.8,5.9z"/>
</svg>
