<?xml version="1.0" ?><svg id="blue_copy" style="enable-background:new 0 0 100 100;" version="1.1" viewBox="0 0 100 100" xml:space="preserve" xmlns="http://www.w3.org/2000/svg" xmlns:xlink="http://www.w3.org/1999/xlink"><g id="Layer_8_copy_4_1_"><path d="M41.762,27.26v8.294c0,0.571,0.305,1.1,0.8,1.385l20.212,11.669c1.066,0.616,1.066,2.155,0,2.771L42.562,63.048   c-0.495,0.286-0.8,0.814-0.8,1.385v8.294c0,1.231,1.333,2.001,2.399,1.385l39.375-22.733c1.066-0.616,1.066-2.155,0-2.771   L44.161,25.875C43.095,25.259,41.762,26.029,41.762,27.26z"/><path d="M83.537,48.608L44.161,25.875c-0.193-0.112-0.395-0.164-0.597-0.19l37.972,21.923c1.066,0.616,1.066,2.155,0,2.771   L42.161,73.112c-0.1,0.058-0.205,0.092-0.308,0.126c0.308,0.914,1.401,1.398,2.308,0.874l39.375-22.733   C84.603,50.763,84.603,49.224,83.537,48.608z"/><path d="M41.762,27.26v8.294c0,0.571,0.305,1.1,0.8,1.385l20.212,11.669   c1.066,0.616,1.066,2.155,0,2.771L42.562,63.048c-0.495,0.286-0.8,0.814-0.8,1.385v8.294c0,1.231,1.333,2.001,2.399,1.385   l39.375-22.733c1.066-0.616,1.066-2.155,0-2.771L44.161,25.875C43.095,25.259,41.762,26.029,41.762,27.26z" style="fill:#ffb8ca;stroke:none;stroke-miterlimit:10;"/><path d="M14.664,27.273v8.294c0,0.571,0.305,1.1,0.8,1.385l20.212,11.669c1.066,0.616,1.066,2.155,0,2.771L15.464,63.061   c-0.495,0.286-0.8,0.814-0.8,1.385v8.294c0,1.231,1.333,2.001,2.399,1.385l39.375-22.733c1.066-0.616,1.066-2.155,0-2.771   L17.063,25.888C15.997,25.272,14.664,26.042,14.664,27.273z"/><path d="M56.438,48.621L17.063,25.888c-0.193-0.112-0.395-0.164-0.597-0.19l37.972,21.923c1.066,0.616,1.066,2.155,0,2.771   L15.063,73.125c-0.1,0.058-0.205,0.092-0.308,0.126c0.308,0.914,1.401,1.398,2.308,0.874l39.375-22.733   C57.505,50.776,57.505,49.237,56.438,48.621z"/><path d="M14.664,27.273v8.294c0,0.571,0.305,1.1,0.8,1.385l20.212,11.669   c1.066,0.616,1.066,2.155,0,2.771L15.464,63.061c-0.495,0.286-0.8,0.814-0.8,1.385v8.294c0,1.231,1.333,2.001,2.399,1.385   l39.375-22.733c1.066-0.616,1.066-2.155,0-2.771L17.063,25.888C15.997,25.272,14.664,26.042,14.664,27.273z" style="fill:#ffb8ca;stroke:none;stroke-miterlimit:10;"/></g></svg>