<svg version="1.1" xmlns="http://www.w3.org/2000/svg" xmlns:xlink="http://www.w3.org/1999/xlink">
<defs>
<symbol id="icon-vk" viewBox="0 0 53 32">
<path fill="#436eab" d="M45.902 20.1c1.767 1.728 3.636 3.353 5.221 5.253 0.702 0.846 1.365 1.717 1.872 2.699 0.72 1.394 0.069 2.928-1.182 3.012l-7.769-0.004c-2.004 0.165-3.602-0.64-4.948-2.011-1.076-1.097-2.071-2.263-3.106-3.396-0.41-0.469-0.868-0.878-1.373-1.227l-0.025-0.016c-1.061-0.688-1.982-0.478-2.588 0.629-0.617 1.124-0.757 2.37-0.818 3.625-0.084 1.829-0.636 2.311-2.475 2.393-3.927 0.187-7.655-0.409-11.116-2.389-3.054-1.748-5.422-4.213-7.481-7.004-4.012-5.436-7.084-11.408-9.845-17.548-0.622-1.385-0.167-2.126 1.358-2.153 2.535-0.050 5.070-0.046 7.607-0.004 1.031 0.014 1.712 0.604 2.11 1.579 1.371 3.372 3.049 6.58 5.156 9.554 0.56 0.791 1.132 1.582 1.947 2.14 0.901 0.617 1.588 0.412 2.011-0.59 0.27-0.636 0.388-1.323 0.448-2.004 0.201-2.347 0.228-4.686-0.124-7.022-0.217-1.46-1.038-2.404-2.492-2.681-0.743-0.14-0.633-0.416-0.274-0.841 0.624-0.729 1.212-1.186 2.382-1.186h8.782c1.381 0.274 1.689 0.894 1.879 2.284l0.007 9.755c-0.016 0.539 0.268 2.137 1.239 2.492 0.775 0.254 1.287-0.366 1.753-0.859 2.103-2.231 3.604-4.869 4.942-7.6 0.596-1.2 1.108-2.448 1.604-3.692 0.368-0.924 0.942-1.38 1.986-1.36l8.45 0.007c0.252 0 0.505 0.004 0.747 0.046 1.426 0.242 1.815 0.853 1.376 2.245-0.693 2.181-2.041 4-3.36 5.826-1.41 1.95-2.916 3.835-4.315 5.796-1.284 1.792-1.182 2.695 0.412 4.251z"></path>
</symbol>
</defs>
</svg>