<svg width="128" height="45" fill="none" xmlns="http://www.w3.org/2000/svg"><path d="M19.136 6.8V25h-5.148v-7.098h-7.02V25H1.82V6.8h5.148v6.838h7.02V6.8h5.148zm18.841 11.18c0 .035-.026.442-.078 1.222H27.655c.208.728.607 1.291 1.196 1.69.607.381 1.36.572 2.262.572.676 0 1.257-.095 1.742-.286.503-.19 1.006-.503 1.508-.936l2.6 2.704c-1.37 1.525-3.371 2.288-6.006 2.288-1.646 0-3.094-.312-4.342-.936-1.248-.624-2.218-1.49-2.912-2.6-.676-1.11-1.014-2.366-1.014-3.77 0-1.387.33-2.626.988-3.718a7.057 7.057 0 012.782-2.6c1.179-.624 2.505-.936 3.978-.936 1.404 0 2.678.295 3.822.884a6.431 6.431 0 012.704 2.522c.676 1.092 1.014 2.392 1.014 3.9zm-7.514-3.796c-.762 0-1.404.217-1.924.65-.502.433-.823 1.023-.962 1.768h5.772c-.138-.745-.468-1.335-.988-1.768-.502-.433-1.135-.65-1.898-.65zm10.832-8.476h4.94V25h-4.94V5.708zm9.19 0h4.94V25h-4.94V5.708z" fill="#111518"/><path d="M6.488 41.8h-2.6L3.392 43H2.064l2.496-5.6h1.28L8.344 43h-1.36l-.496-1.2zm-.408-.984l-.888-2.144-.888 2.144H6.08zm10.27 1.128v2.216h-1.2V43h-3.953v1.16h-1.2l.008-2.216h.224c.337-.01.574-.256.713-.736.138-.48.223-1.165.255-2.056l.065-1.752h4.303v4.544h.784zm-4.009-2.672a11.86 11.86 0 01-.167 1.68c-.086.448-.216.779-.393.992h2.505v-3.488h-1.92l-.024.816zm8.969 3.824c-.57 0-1.088-.123-1.552-.368a2.853 2.853 0 01-1.088-1.032 2.887 2.887 0 01-.392-1.496c0-.555.13-1.05.392-1.488.267-.443.63-.787 1.088-1.032.464-.25.984-.376 1.56-.376.485 0 .923.085 1.312.256.395.17.725.416.992.736l-.832.768c-.379-.437-.848-.656-1.408-.656-.347 0-.656.077-.928.232a1.62 1.62 0 00-.64.632c-.15.272-.224.581-.224.928 0 .347.075.656.224.928.155.272.368.485.64.64.272.15.581.224.928.224.56 0 1.03-.221 1.408-.664l.832.768a2.593 2.593 0 01-.992.744c-.395.17-.835.256-1.32.256zm6.765-2.352h-.896V43H25.89v-5.6h1.288v2.264h.928l1.472-2.264h1.368l-1.832 2.704L31.003 43H29.53l-1.456-2.256zM33.05 37.4h1.288v3.648L37.01 37.4h1.216V43h-1.28v-3.64L34.274 43H33.05v-5.6zm8.01 0h1.288v3.648L45.02 37.4h1.216V43h-1.28v-3.64L42.284 43H41.06v-5.6zm2.584-.36c-1.024 0-1.541-.408-1.552-1.224h.888c.01.39.232.584.664.584.213 0 .376-.048.488-.144.112-.101.17-.248.176-.44h.888c-.005.4-.136.704-.392.912-.256.208-.643.312-1.16.312z" fill="#FF6B09"/><path d="M56.568 41.8h-2.6l-.496 1.2h-1.328l2.496-5.6h1.28l2.504 5.6h-1.36l-.496-1.2zm-.408-.984l-.888-2.144-.888 2.144h1.776zm9.583-3.416V43h-1.296v-2.296h-2.544V43h-1.296v-5.6h1.296v2.208h2.544V37.4h1.296zm6.787 1.056h-2.664L69.874 43h-1.288v-5.6h3.952l-.008 1.056zm6.535-1.056V43h-1.28v-4.544h-1.92l-.04 1.168c-.027.795-.091 1.44-.192 1.936-.102.49-.272.87-.512 1.136-.235.261-.566.392-.992.392-.176 0-.39-.03-.64-.088l.08-1.096c.069.021.146.032.232.032.309 0 .525-.181.648-.544.122-.368.2-.941.232-1.72l.08-2.272h4.304zm2.838 0h1.288v3.648l2.672-3.648h1.216V43H85.8v-3.64L83.127 43h-1.224v-5.6zm8.01 0h1.288v3.648l2.673-3.648h1.216V43h-1.28v-3.64L91.138 43h-1.225v-5.6zm2.585-.36c-1.025 0-1.542-.408-1.553-1.224h.889c.01.39.231.584.663.584.214 0 .377-.048.489-.144.111-.101.17-.248.175-.44h.888c-.005.4-.136.704-.392.912-.255.208-.642.312-1.16.312zm8.074 6.056a3.269 3.269 0 01-1.552-.368 2.852 2.852 0 01-1.088-1.032 2.887 2.887 0 01-.392-1.496c0-.555.13-1.05.392-1.488.266-.443.63-.787 1.088-1.032a3.23 3.23 0 011.56-.376c.485 0 .922.085 1.312.256.394.17.725.416.992.736l-.832.768c-.379-.437-.848-.656-1.408-.656-.347 0-.656.077-.928.232a1.62 1.62 0 00-.64.632c-.15.272-.224.581-.224.928 0 .347.075.656.224.928.155.272.368.485.64.64.272.15.581.224.928.224.56 0 1.029-.221 1.408-.664l.832.768a2.602 2.602 0 01-.992.744c-.395.17-.835.256-1.32.256zm6.765-2.352h-.896V43h-1.288v-5.6h1.288v2.264h.928l1.472-2.264h1.368l-1.832 2.704L110.265 43h-1.472l-1.456-2.256zm4.975-3.344h1.288v3.648l2.672-3.648h1.216V43h-1.28v-3.64L113.536 43h-1.224v-5.6zm8.01 0h1.288v3.648l2.672-3.648h1.216V43h-1.28v-3.64L121.546 43h-1.224v-5.6zm2.584-.36c-1.024 0-1.541-.408-1.552-1.224h.888c.011.39.232.584.664.584.213 0 .376-.048.488-.144.112-.101.171-.248.176-.44h.888c-.005.4-.136.704-.392.912-.256.208-.643.312-1.16.312zM104.432 21.022V25H89.82V6.8h14.274v3.978h-9.178v3.068h8.086v3.848h-8.086v3.328h9.516zM125.645 6.8V25h-4.238l-8.034-9.698V25h-5.044V6.8h4.238l8.034 9.698V6.8h5.044z" fill="#111518"/><path d="M82.54 15.556c-.267-.596-.633-1.182-1.17-1.86-1.352-1.7-1.764-5.49-1.769-5.527a.457.457 0 00-.316-.386.465.465 0 00-.486.132c-1.613 1.804-.935 4.59-.568 5.704.1.305.21.664.289 1.028.595 2.94-.555 4.272-.825 4.54-.262.073-.44.037-.605-.14-.569-.623-.757-2.664-.49-5.323a5.44 5.44 0 00-.037-1.482c-.561-3.268-2.617-5.365-3.14-6.1-1.44-2.127-1.586-5.668-1.59-5.7a.458.458 0 00-.715-.36c-2.402 1.633-2.196 5.565-1.861 7.76.078.51.229 1.027.49 1.682.93 2.34-.183 5.364-.192 5.39-.01.028-.019.05-.023.078-.142.746-.38 1.191-.647 1.191a.313.313 0 01-.087-.014c-.325-.068-.495-.413-.5-.713-.018-3.877-3.909-5.182-3.95-5.196a.456.456 0 00-.486.137.447.447 0 00-.064.5c.046.095.192.513.092 1.99a16.978 16.978 0 01-.72 3.9c-.926 3.019-.78 5.878-.77 6.014.712 7.742 11.845 9.098 18.453 4.737.724-.478 1.315-1.023 1.75-1.623 2.439-3.364 1.004-7.932-.064-10.36zM65.603 22.95a.454.454 0 01-.431.477h-.028a.456.456 0 01-.458-.427c-.041-.663-.032-1.359.019-2.113a.463.463 0 01.49-.423.458.458 0 01.426.486c-.05.718-.06 1.373-.018 2zm.224-4.027a.455.455 0 01-.453.4c-.019 0-.037 0-.06-.005a.459.459 0 01-.399-.504l.22-1.755a.462.462 0 01.514-.395c.252.032.43.259.398.509l-.22 1.75zM79.438 6.219a.455.455 0 01-.383-.518c.03-.185.195-1.13.644-1.606a.46.46 0 01.648-.02c.185.171.194.459.02.642-.19.201-.351.777-.406 1.122a.458.458 0 01-.523.38zM62.73 8.483c-.088-.338-.306-.896-.515-1.078a.452.452 0 01-.043-.641.46.46 0 01.647-.042c.494.43.752 1.354.798 1.535a.454.454 0 01-.33.553.46.46 0 01-.558-.327z" fill="#FF6B09"/></svg>