<svg width="80" height="29" fill="none" xmlns="http://www.w3.org/2000/svg"><path d="M11.187 4.393v11.759H7.861v-4.586H3.326v4.586H0V4.393h3.326v4.418h4.535V4.393h3.326zM23.36 11.617c0 .022-.017.285-.05.789h-6.618c.134.47.392.834.772 1.092.392.246.88.37 1.462.37.436 0 .812-.062 1.125-.185.325-.123.65-.325.974-.605l1.68 1.747c-.884.985-2.178 1.478-3.88 1.478-1.064 0-2-.201-2.805-.605-.807-.403-1.434-.963-1.882-1.68-.437-.716-.655-1.528-.655-2.435 0-.896.213-1.697.638-2.402A4.56 4.56 0 0115.92 7.5c.761-.403 1.618-.605 2.57-.605.907 0 1.73.19 2.47.571.738.37 1.32.913 1.746 1.63.437.705.655 1.545.655 2.52zm-4.854-2.453c-.493 0-.907.14-1.243.42-.325.28-.532.66-.622 1.142h3.73c-.09-.481-.303-.862-.639-1.142-.325-.28-.734-.42-1.226-.42zM25.504 3.688h3.191v12.464h-3.191V3.688zM31.441 3.688h3.192v12.464h-3.192V3.688zM3.016 27.006h-1.68l-.32.775H.158l1.612-3.618h.827l1.618 3.618h-.879l-.32-.775zm-.264-.636l-.573-1.385-.574 1.385h1.147zM9.387 27.099v1.432h-.775v-.75H6.059v.75h-.776l.006-1.432h.144c.217-.007.37-.166.46-.476.09-.31.145-.753.166-1.328l.041-1.132h2.78V27.1h.507zm-2.59-1.726c-.016.43-.053.792-.108 1.085-.055.29-.14.503-.253.64h1.618v-2.253h-1.24l-.016.528zM12.592 27.843c-.369 0-.703-.08-1.003-.238a1.842 1.842 0 01-.703-.666 1.866 1.866 0 01-.253-.967c0-.358.085-.679.253-.961.173-.286.407-.508.703-.667.3-.162.636-.243 1.008-.243.314 0 .596.055.848.166a1.7 1.7 0 01.64.475l-.537.496a1.156 1.156 0 00-.91-.424c-.223 0-.423.05-.599.15a1.047 1.047 0 00-.413.409 1.225 1.225 0 00-.145.6c0 .223.048.423.145.599.1.175.237.313.413.413.176.097.376.145.6.145.361 0 .665-.143.91-.43l.537.497c-.172.21-.386.37-.641.48-.255.111-.54.166-.853.166zM16.962 26.324h-.578v1.457h-.832v-3.618h.832v1.463h.6l.95-1.463h.884l-1.184 1.747 1.22 1.871h-.95l-.942-1.457zM20.177 24.163h.832v2.357l1.726-2.357h.786v3.618h-.827V25.43l-1.726 2.351h-.791v-3.618zM25.352 24.163h.832v2.357l1.727-2.357h.785v3.618h-.827V25.43l-1.726 2.351h-.79v-3.618zm1.67-.232c-.662 0-.996-.264-1.003-.791h.574c.006.251.15.377.429.377.137 0 .243-.03.315-.093.072-.065.11-.16.114-.284h.573c-.003.258-.088.455-.253.589-.165.134-.415.202-.75.202zM35.371 27.006h-1.68l-.32.775h-.858l1.613-3.618h.827l1.617 3.618h-.878l-.32-.775zm-.263-.636l-.574-1.385-.574 1.385h1.148zM41.299 24.163v3.618h-.837v-1.483h-1.644v1.483h-.837v-3.618h.837v1.427h1.644v-1.427h.837zM45.684 24.845h-1.721l.005 2.936h-.832v-3.618h2.553l-.005.682zM49.906 24.163v3.618h-.827v-2.936h-1.24l-.026.755c-.018.513-.059.93-.125 1.25-.065.318-.175.563-.33.735-.152.169-.365.253-.641.253-.114 0-.252-.019-.414-.057l.052-.708c.045.014.095.02.15.02.2 0 .34-.116.419-.35.079-.238.129-.609.15-1.112l.051-1.468h2.78zM51.74 24.163h.832v2.357l1.726-2.357h.786v3.618h-.827V25.43L52.53 27.78h-.791v-3.618zM56.915 24.163h.832v2.357l1.727-2.357h.785v3.618h-.827V25.43l-1.726 2.351h-.79v-3.618zm1.67-.232c-.662 0-.996-.264-1.003-.791h.574c.006.251.15.377.429.377.137 0 .242-.03.315-.093.072-.065.11-.16.114-.284h.573c-.003.258-.088.455-.253.589-.165.134-.415.202-.75.202zM63.801 27.843c-.369 0-.703-.08-1.003-.238a1.842 1.842 0 01-.703-.666 1.865 1.865 0 01-.253-.967 1.792 1.792 0 01.956-1.628c.3-.162.636-.243 1.008-.243.314 0 .597.055.848.166a1.7 1.7 0 01.64.475l-.537.496a1.156 1.156 0 00-.91-.424c-.223 0-.423.05-.599.15a1.048 1.048 0 00-.413.409 1.226 1.226 0 00-.145.6c0 .223.048.423.145.599.1.175.237.313.413.413.176.097.376.145.6.145.362 0 .665-.143.91-.43l.537.497c-.172.21-.386.37-.641.48-.255.111-.54.166-.853.166zM68.172 26.324h-.58v1.457h-.831v-3.618h.832v1.463h.6l.95-1.463h.884l-1.183 1.747 1.22 1.871h-.952l-.94-1.457zM71.386 24.163h.832v2.357l1.726-2.357h.786v3.618h-.827V25.43l-1.726 2.351h-.791v-3.618zM76.561 24.163h.832v2.357l1.727-2.357h.785v3.618h-.827V25.43l-1.726 2.351h-.79v-3.618zm1.67-.232c-.662 0-.996-.264-1.003-.791h.574c.007.251.15.377.429.377.138 0 .243-.03.315-.093.072-.065.11-.16.114-.284h.573c-.003.258-.088.455-.253.589-.165.134-.415.202-.75.202zM66.295 13.582v2.57h-9.44V4.393h9.222v2.57h-5.93v1.982h5.224v2.486h-5.224v2.15h6.148zM80 4.393v11.759h-2.738l-5.19-6.266v6.266h-3.26V4.393h2.739l5.19 6.266V4.393H80z" fill="#111518"/><g clip-path="url(#clip0)" fill="#FF6B09"><path d="M52.15 10.05c-.171-.384-.408-.763-.754-1.2-.874-1.1-1.14-3.548-1.143-3.572a.296.296 0 00-.205-.25.3.3 0 00-.314.086c-1.042 1.166-.604 2.966-.367 3.685.065.197.136.429.187.664.385 1.9-.359 2.76-.533 2.934-.17.047-.285.023-.391-.091-.367-.403-.489-1.721-.317-3.44.036-.349.027-.663-.024-.957-.362-2.111-1.69-3.466-2.028-3.94-.93-1.375-1.025-3.663-1.028-3.683a.296.296 0 00-.462-.232c-1.551 1.054-1.418 3.594-1.202 5.013.05.329.148.663.317 1.086.601 1.513-.118 3.466-.124 3.483-.006.018-.012.032-.015.05-.092.482-.246.77-.418.77a.202.202 0 01-.056-.01c-.21-.043-.32-.266-.323-.46-.012-2.505-2.526-3.348-2.552-3.357a.295.295 0 00-.314.088.289.289 0 00-.042.323c.03.062.125.332.06 1.286a10.971 10.971 0 01-.465 2.52 12.275 12.275 0 00-.498 3.885c.46 5.002 7.653 5.878 11.922 3.06.468-.308.85-.66 1.131-1.048 1.575-2.173.649-5.125-.041-6.693zm-10.94 4.778a.293.293 0 01-.28.309h-.017a.295.295 0 01-.296-.276c-.027-.43-.02-.879.012-1.366a.299.299 0 01.317-.273.296.296 0 01.275.314 9.473 9.473 0 00-.012 1.292zm.144-2.602a.294.294 0 01-.293.259c-.012 0-.024 0-.038-.003a.296.296 0 01-.258-.326l.142-1.134a.299.299 0 01.332-.255c.163.02.278.167.257.329l-.142 1.13zM50.147 4.018a.294.294 0 01-.247-.335c.019-.12.126-.73.416-1.037a.297.297 0 01.418-.014c.12.111.126.297.014.416-.123.13-.228.502-.263.725a.296.296 0 01-.338.245zM39.352 5.48c-.057-.218-.197-.578-.333-.696a.292.292 0 01-.027-.414.297.297 0 01.418-.027c.319.277.486.875.516.992a.294.294 0 01-.213.357.297.297 0 01-.36-.211z"/></g><defs><clipPath id="clip0"><path fill="#fff" transform="translate(38.88)" d="M0 0h14.214v19.382H0z"/></clipPath></defs></svg>