<svg id="Layer_1_1_" enable-background="new 0 0 64 64" height="512" viewBox="0 0 64 64" width="512" xmlns="http://www.w3.org/2000/svg"><g><path d="m61.168 7.445c-1.066 1.6-2.851 2.555-4.773 2.555h-1.42c.011-.16.025-.32.025-.482 0-1.391-1.127-2.518-2.518-2.518-.915 0-1.757.496-2.201 1.295-.293.528-.613 1.041-.916 1.564l-5.488-1.22c-1.912-.425-3.865-.639-5.824-.639-1.367 0-2.731.104-4.082.312l-.011.002c-7.296 1.122-14.667 1.686-22.049 1.686h-9.911v3h1v4c0 1.105.895 2 2 2h4.658c8.866 0 17.703-1.006 26.342-3v1l1.632-.544c.817-.272 1.368-1.037 1.368-1.898v-3.558c2.66 0 5.314.263 7.922.784l1.078.216.098.021c-2.317 3.764-4.889 7.368-7.701 10.783-5.584 6.78-11.836 12.981-18.663 18.507l-9.049 7.325c-1.066.863-1.685 2.161-1.685 3.532v.288c0 2.51 2.034 4.544 4.544 4.544.947 0 1.87-.296 2.641-.846l4.59-3.279c5.466-3.904 10.477-8.409 14.94-13.43 6.153-6.922 11.199-14.753 14.961-23.216l1.722-3.875c.051-.116.091-.236.136-.354h1.861c2.593 0 4.999-1.288 6.438-3.445zm-45.168 46.555c-1.103 0-2-.897-2-2s.897-2 2-2 2 .897 2 2-.897 2-2 2zm36-42c-.552 0-1-.448-1-1s.448-1 1-1 1 .448 1 1-.448 1-1 1z"/></g></svg>