<svg width="39" height="11" fill="none" xmlns="http://www.w3.org/2000/svg"><path d="M0 5.38h14v1.358H0V5.38zm24.95 4.788c-.811 0-1.534-.2-2.17-.602-.634-.401-1.133-.98-1.497-1.736-.355-.765-.532-1.675-.532-2.73s.177-1.96.532-2.716c.364-.765.863-1.349 1.498-1.75s1.358-.602 2.17-.602c.812 0 1.535.2 2.17.602.635.401 1.13.985 1.484 1.75.364.756.546 1.661.546 2.716 0 1.055-.182 1.965-.546 2.73-.355.756-.85 1.335-1.484 1.736-.635.401-1.358.602-2.17.602zm0-1.918c.598 0 1.065-.257 1.4-.77.346-.513.519-1.307.519-2.38s-.173-1.867-.518-2.38c-.336-.513-.803-.77-1.4-.77-.588 0-1.055.257-1.4.77-.336.513-.504 1.307-.504 2.38s.168 1.867.504 2.38c.345.513.812.77 1.4.77zm13.663-.098V10h-7.406V8.53l3.78-3.57c.401-.383.672-.71.812-.98.14-.28.21-.555.21-.826 0-.392-.136-.69-.406-.896-.262-.215-.649-.322-1.162-.322-.43 0-.817.084-1.162.252a2.168 2.168 0 00-.868.728l-1.652-1.064c.382-.57.91-1.013 1.582-1.33.672-.327 1.442-.49 2.31-.49.728 0 1.362.121 1.904.364.55.233.975.57 1.274 1.008.308.43.462.938.462 1.526 0 .532-.112 1.031-.336 1.498-.224.467-.658.999-1.302 1.596l-2.254 2.128h4.214z" fill="#FF6B09"/></svg>