<svg width="39" height="11" fill="none" xmlns="http://www.w3.org/2000/svg"><path d="M0 5.38h14v1.358H0V5.38zm24.95 4.788c-.811 0-1.534-.2-2.17-.602-.634-.401-1.133-.98-1.497-1.736-.355-.765-.532-1.675-.532-2.73s.177-1.96.532-2.716c.364-.765.863-1.349 1.498-1.75s1.358-.602 2.17-.602c.812 0 1.535.2 2.17.602.635.401 1.13.985 1.484 1.75.364.756.546 1.661.546 2.716 0 1.055-.182 1.965-.546 2.73-.355.756-.85 1.335-1.484 1.736-.635.401-1.358.602-2.17.602zm0-1.918c.598 0 1.065-.257 1.4-.77.346-.513.519-1.307.519-2.38s-.173-1.867-.518-2.38c-.336-.513-.803-.77-1.4-.77-.588 0-1.055.257-1.4.77-.336.513-.504 1.307-.504 2.38s.168 1.867.504 2.38c.345.513.812.77 1.4.77zm10.864-4.06c.859.14 1.517.462 1.974.966.457.495.686 1.11.686 1.848 0 .57-.15 1.097-.448 1.582-.299.476-.756.859-1.372 1.148-.607.29-1.353.434-2.24.434a7.98 7.98 0 01-2.044-.266c-.663-.187-1.227-.448-1.694-.784l.882-1.736c.373.28.803.5 1.288.658.495.15.999.224 1.512.224.57 0 1.017-.107 1.344-.322.327-.224.49-.537.49-.938 0-.803-.611-1.204-1.834-1.204h-1.036V4.302l2.016-2.282h-4.172V.2h6.86v1.47l-2.212 2.52z" fill="#FF6B09"/></svg>