<svg width="41" height="11" fill="none" xmlns="http://www.w3.org/2000/svg"><path d="M0 5.38h14v1.358H0V5.38zm24.95 4.788c-.811 0-1.534-.2-2.17-.602-.634-.401-1.133-.98-1.497-1.736-.355-.765-.532-1.675-.532-2.73s.177-1.96.532-2.716c.364-.765.863-1.349 1.498-1.75s1.358-.602 2.17-.602c.812 0 1.535.2 2.17.602.635.401 1.13.985 1.484 1.75.364.756.546 1.661.546 2.716 0 1.055-.182 1.965-.546 2.73-.355.756-.85 1.335-1.484 1.736-.635.401-1.358.602-2.17.602zm0-1.918c.598 0 1.065-.257 1.4-.77.346-.513.519-1.307.519-2.38s-.173-1.867-.518-2.38c-.336-.513-.803-.77-1.4-.77-.588 0-1.055.257-1.4.77-.336.513-.504 1.307-.504 2.38s.168 1.867.504 2.38c.345.513.812.77 1.4.77zm15.397-.308H38.75V10h-2.212V7.942H31.26V6.416L35.88.2h2.38l-4.284 5.894h2.632V4.26h2.142v1.834h1.596v1.848z" fill="#FF6B09"/></svg>