<svg width="40" height="11" fill="none" xmlns="http://www.w3.org/2000/svg"><path d="M0 5.38h14v1.358H0V5.38zm24.95 4.788c-.811 0-1.534-.2-2.17-.602-.634-.401-1.133-.98-1.497-1.736-.355-.765-.532-1.675-.532-2.73s.177-1.96.532-2.716c.364-.765.863-1.349 1.498-1.75s1.358-.602 2.17-.602c.812 0 1.535.2 2.17.602.635.401 1.13.985 1.484 1.75.364.756.546 1.661.546 2.716 0 1.055-.182 1.965-.546 2.73-.355.756-.85 1.335-1.484 1.736-.635.401-1.358.602-2.17.602zm0-1.918c.598 0 1.065-.257 1.4-.77.346-.513.519-1.307.519-2.38s-.173-1.867-.518-2.38c-.336-.513-.803-.77-1.4-.77-.588 0-1.055.257-1.4.77-.336.513-.504 1.307-.504 2.38s.168 1.867.504 2.38c.345.513.812.77 1.4.77zm11.14-4.396c.626 0 1.195.126 1.709.378.513.252.92.611 1.218 1.078.298.457.448.99.448 1.596 0 .653-.164 1.227-.49 1.722a3.237 3.237 0 01-1.344 1.148c-.56.261-1.185.392-1.876.392-1.372 0-2.446-.42-3.22-1.26-.775-.84-1.162-2.04-1.162-3.598 0-1.11.21-2.063.63-2.856.42-.793 1.003-1.395 1.75-1.806.756-.41 1.629-.616 2.618-.616.523 0 1.022.06 1.498.182.485.112.896.275 1.232.49l-.84 1.666c-.486-.327-1.097-.49-1.834-.49-.83 0-1.489.243-1.974.728-.486.485-.747 1.19-.784 2.114.579-.579 1.386-.868 2.422-.868zm-.461 4.62c.485 0 .877-.13 1.176-.392.308-.261.462-.616.462-1.064 0-.448-.154-.803-.462-1.064-.299-.27-.7-.406-1.204-.406-.495 0-.9.14-1.218.42-.318.27-.476.62-.476 1.05 0 .43.154.78.462 1.05.308.27.728.406 1.26.406z" fill="#FF6B09"/></svg>