<svg width="40" height="40" viewBox="0 0 40 40" fill="none" xmlns="http://www.w3.org/2000/svg">
<g opacity="0.8">
<path d="M22.6402 11.4799C22.8202 11.4799 23.0002 11.4799 23.3602 11.4799V14.1799C23.1802 14.1799 22.8202 14.1799 22.4602 14.1799C22.1002 14.1799 21.7402 14.1799 21.5602 14.3599C21.3802 14.5399 21.3802 14.7199 21.3802 15.1399C21.3802 15.4999 21.3802 15.7399 21.3802 16.0999H23.3602V18.3799H21.3802V28.2799H18.3202V18.3199H16.7002V16.0399H18.3202V15.2599C18.3202 13.9399 18.5002 12.9799 18.8602 12.5599C19.4002 11.7799 20.4802 11.4199 22.1002 11.4199C22.2802 11.4799 22.4602 11.4799 22.6402 11.4799Z" fill="white"/>
</g>
<rect x="0.5" y="0.5" width="39" height="39" rx="9.5" stroke="white" stroke-opacity="0.1"/>
</svg>
