<svg width="40" height="40" viewBox="0 0 40 40" fill="none" xmlns="http://www.w3.org/2000/svg">
<g opacity="0.8">
<path fill-rule="evenodd" clip-rule="evenodd" d="M26.1799 12.4999C25.1599 12.4399 23.0599 12.3799 19.8799 12.3799H19.4599C16.3999 12.3799 14.3599 12.4399 13.3399 12.5599C11.9599 12.6799 10.9999 13.0399 10.4599 13.5199C9.97988 13.9399 9.61989 14.7199 9.49989 15.7399C9.43989 16.3999 9.37988 17.7799 9.37988 19.8799V20.1799C9.37988 22.1599 9.43988 23.5399 9.55988 24.1999C9.73988 25.1599 10.0399 25.8799 10.6399 26.2999C11.2399 26.7799 12.2599 27.0799 13.6999 27.1999C14.7199 27.2599 16.8199 27.3199 19.9999 27.3199H20.4199C23.4799 27.3199 25.5199 27.2599 26.5399 27.1399C27.9199 27.0199 28.8799 26.6599 29.4199 26.1799C29.8999 25.7599 30.2599 24.9799 30.3799 23.9599C30.4399 23.2999 30.4999 21.9199 30.4999 19.8199V19.5199C30.4999 17.5399 30.4399 16.1599 30.3199 15.4999C30.1399 14.5399 29.8399 13.8199 29.2399 13.3999C28.6399 12.9199 27.6199 12.6199 26.1799 12.4999ZM23.8399 19.8799L17.2399 23.8399V15.9199L23.8399 19.8799Z" fill="white"/>
</g>
<rect x="0.5" y="0.5" width="39" height="39" rx="9.5" stroke="white" stroke-opacity="0.1"/>
</svg>
