<svg width="61" height="63" viewBox="0 0 61 63" fill="none" xmlns="http://www.w3.org/2000/svg">
<g clip-path="url(#clip0)">
<path d="M13.8719 51.1984C18.1731 51.1984 43.0566 51.1984 47.3527 51.1984C47.5185 47.3803 47.245 41.0454 44.8975 38.0302L44.8127 37.9219L39.6829 35.3463C39.7942 34.9706 39.8491 34.6264 39.8711 34.3735C39.8964 34.0698 39.8546 33.7846 39.7461 33.5262C38.8998 31.5011 37.1091 30.4356 36.124 29.9815C36.4242 29.3767 36.6178 28.7274 36.7112 28.064C37.2688 27.9069 37.7173 27.465 37.8644 26.8755L38.4632 24.443C38.5692 24.0139 38.5026 23.5688 38.2746 23.1903C38.1764 23.0272 38.0495 22.8898 37.9072 22.7723C39.5953 18.9377 36.7679 15.3219 36.6138 15.1316C33.5516 11.8208 29.6832 12.4399 29.4787 12.4765C23.8961 13.6455 21.7417 17.924 22.958 22.9419C22.5976 23.341 22.4464 23.8971 22.5799 24.4424L23.1816 26.8776C23.3275 27.4628 23.7725 27.9031 24.3261 28.0621C24.4969 29.2769 25.0112 30.3758 25.7665 31.2613V33.1897C17.7553 37.2923 22.8314 34.6749 16.4113 37.9228C16.3986 37.9834 13.3989 41.1715 13.8448 50.6211L13.8719 51.1984ZM46.1894 49.9863H40.6791V47.6716L44.3235 39.3285C46.1493 42.3588 46.2171 48.1448 46.1894 49.9863ZM38.6688 34.2705C38.4562 36.7132 37.1166 35.9748 36.2897 37.8568C35.6393 37.1416 35.4437 36.284 35.6184 35.366C35.9342 33.6804 34.9054 33.1797 35.1597 31.4086L35.1982 31.368V31.3624C35.2201 31.338 35.423 31.0963 35.4817 31.02C37.6618 31.9704 38.7114 33.7379 38.6688 34.2705ZM26.9734 32.3505C27.9855 33.0525 29.2072 33.4673 30.5212 33.4673C31.7588 33.4673 32.9341 33.1072 33.9419 32.4441C34.0815 33.8365 34.6258 34.1153 34.4327 35.1399C34.3964 35.3301 34.3769 35.5175 34.3652 35.7019L30.6126 39.9313L25.8154 34.523L26.9734 33.9183V32.3505H26.9734ZM25.4647 27.1744V24.8295C25.4647 23.966 25.4647 20.5401 25.4647 20.7093C26.0488 19.6291 26.845 18.8458 27.8344 18.3762C30.4845 19.8756 33.535 22.1134 35.5807 24.3655C35.5788 27.2336 35.5888 27.2414 35.5697 27.477L35.5684 27.492C35.4088 30.0964 33.2673 32.2552 30.5212 32.2552C27.8515 32.2552 25.635 30.1591 25.4747 27.4662C25.4665 27.3697 25.4647 27.273 25.4647 27.1744ZM24.7174 35.1079L30.6126 41.7536L34.5704 37.293C34.6609 37.5534 34.7877 37.7995 34.9328 38.0371L30.6126 43.4398L24.1702 35.3826L24.7174 35.1079ZM36.7877 26.199V24.3267C36.8407 24.2659 37.2907 23.75 37.2376 23.8108C37.2625 24.7588 37.3648 23.6399 36.7877 26.199ZM29.7021 13.6677C29.9415 13.6826 33.1585 13.1783 35.7009 15.9232C35.801 16.0489 37.8707 18.7154 37.0392 21.6325C36.7546 20.3345 36.2586 18.6711 35.4746 17.8772L34.6177 18.7307C35.3918 19.5147 35.9002 21.9021 36.0938 23.1398C32.5433 19.4245 27.9633 17.073 27.9005 17.0333C27.6707 17.1761 25.7326 17.5446 24.3249 20.2805L24.2578 20.4113V22.4206C24.1973 22.4213 24.0199 22.4231 24.0803 22.4225C23.186 18.1046 24.8987 14.6745 29.7021 13.6677ZM23.9531 23.6694L24.2578 24.9035V26.2005L23.7515 24.1515C23.6772 23.8461 23.9035 23.7303 23.9531 23.6694ZM23.0657 35.9371L30.6126 45.3758L35.7186 38.9895C36.2741 39.4866 36.5411 39.5571 37.7188 40.1627L37.3216 38.8153C37.2208 38.4732 37.6198 37.9246 37.8608 37.6725C38.3988 37.3806 38.8473 36.9644 39.1827 36.4506L43.3488 38.5425L39.4721 47.4177V49.9863H21.7525V47.4174L17.8741 38.5434L23.0657 35.9371ZM16.9005 39.3311L20.5455 47.6719V49.9863H15.0352C15.0075 48.1454 15.0759 42.3623 16.9005 39.3311Z" fill="#FF6B09"/>
</g>
<path d="M59.8235 9.73529V1.5H1V61.5H59.8235V53.2647" stroke="#FF6B09" stroke-width="2"/>
<defs>
<clipPath id="clip0">
<rect width="33.1915" height="40" fill="white" transform="translate(14 11.5)"/>
</clipPath>
</defs>
</svg>
