<svg aria-hidden="true" style="position: absolute; width: 0; height: 0; overflow: hidden;" version="1.1" xmlns="http://www.w3.org/2000/svg" xmlns:xlink="http://www.w3.org/1999/xlink">
<defs>
<symbol id="apples" viewBox="0 0 32 32">
<path d="M16.706 3.994c0.33-1.149 0.933-2.292 1.777-2.908l0.363 0.497c-0.685 0.5-1.235 1.49-1.549 2.581-0.291 1.012-0.357 2.036-0.185 2.728 0.669-1.292 1.714-1.866 2.735-1.874 1.119-0.009 2.174 0.671 2.536 1.729 0.67 1.957 0.488 3.551-0.091 4.781h0.094c0.583 0 1.019 0.533 0.905 1.104l-1.682 8.411c0.013-0 0.025-0 0.038-0 1.002 0 2.031 0.545 2.711 1.781-0.198-0.81-0.104-1.919 0.191-2.947 0.315-1.096 0.882-2.187 1.675-2.773l0.366 0.495c-0.634 0.469-1.15 1.408-1.449 2.449s-0.355 2.094-0.152 2.752l-0.554 0.171c0.067 0.133 0.131 0.273 0.19 0.421 0.031 0.078 0.054 0.093 0.056 0.095l0 0c0.002 0.001 0.021 0.014 0.095 0.014 0.027 0 0.041-0.003 0.047-0.006s0.008-0.003 0.011-0.006c0.007-0.006 0.029-0.028 0.057-0.098 0.655-1.637 1.834-2.347 2.978-2.347 1.119 0 2.169 0.688 2.523 1.749 0.934 2.803 0.134 4.841-1.046 6.131-0.584 0.638-1.258 1.090-1.85 1.363-0.296 0.137-0.578 0.231-0.824 0.281-0.235 0.048-0.476 0.063-0.669-0.001l-0.069-0.023-0.051-0.051c-0.282-0.282-0.503-0.405-0.67-0.463s-0.305-0.058-0.457-0.058-0.287 0.001-0.453 0.058c-0.166 0.057-0.385 0.181-0.668 0.463l-0.051 0.051-0.069 0.023c-0.193 0.064-0.434 0.049-0.669 0.001-0.246-0.050-0.528-0.145-0.824-0.281-0.593-0.273-1.266-0.725-1.85-1.363-0.038-0.041-0.075-0.083-0.112-0.126l-0.324 1.62c-0.086 0.431-0.465 0.742-0.905 0.742h-12.829c-0.434 0-0.809-0.302-0.902-0.726l-3.88-17.784c-0.123-0.562 0.292-1.094 0.86-1.119-0.245-0.518-0.442-1.108-0.579-1.778-0.224-1.095 0.341-2.216 1.31-2.776 0.991-0.572 2.367-0.547 3.753 0.544 0.066 0.052 0.094 0.054 0.096 0.054h0c0.003 0 0.026 0.002 0.090-0.035 0.023-0.013 0.034-0.023 0.038-0.028s0.005-0.007 0.006-0.010c0.003-0.009 0.011-0.038 0-0.113-0.014-0.094-0.024-0.187-0.033-0.278l-0.301 0.33c-0.665-0.608-1.209-1.735-1.491-2.902s-0.325-2.464 0.104-3.419l0.561 0.252c-0.348 0.775-0.336 1.913-0.068 3.022 0.246 1.019 0.69 1.939 1.177 2.462-0.058-1.459 0.568-2.478 1.455-2.99 0.969-0.56 2.223-0.489 3.059 0.253 0.46 0.408 0.839 0.825 1.147 1.246 0.631-0.319 1.399-0.4 2.138-0.146 0.833 0.286 1.593 0.986 2.080 2.174 0.032 0.078 0.055 0.093 0.057 0.094l0 0c0.002 0.001 0.021 0.014 0.096 0.013 0.027-0 0.041-0.004 0.047-0.006s0.008-0.004 0.011-0.006c0.007-0.006 0.028-0.028 0.056-0.098 0.040-0.102 0.082-0.2 0.125-0.295l-0.442 0.145c-0.279-0.853-0.196-2.095 0.134-3.244zM12.748 5.881c0.536 0.9 0.77 1.804 0.801 2.656 0.042 1.161-0.294 2.206-0.723 2.991h8.778c0.608-1.11 0.869-2.623 0.199-4.582-0.268-0.783-1.069-1.32-1.949-1.313-0.856 0.007-1.827 0.535-2.391 1.979-0.046 0.118-0.116 0.248-0.235 0.347-0.126 0.105-0.279 0.153-0.446 0.154-0.141 0.001-0.295-0.021-0.436-0.113s-0.23-0.228-0.291-0.377c-0.431-1.054-1.073-1.606-1.71-1.825-0.548-0.188-1.118-0.139-1.595 0.082zM12.111 11.528c0.463-0.723 0.866-1.782 0.823-2.969-0.045-1.238-0.574-2.643-2.084-3.982-0.619-0.549-1.581-0.621-2.343-0.181-0.741 0.428-1.325 1.366-1.104 2.901 0.018 0.126 0.021 0.273-0.033 0.418-0.058 0.154-0.168 0.271-0.312 0.354-0.122 0.070-0.267 0.127-0.435 0.117s-0.313-0.085-0.439-0.184c-1.219-0.959-2.323-0.922-3.064-0.495-0.763 0.44-1.181 1.308-1.015 2.12 0.152 0.745 0.382 1.373 0.664 1.9h9.343zM19.565 28.131c-0.81-1.277-1.201-3.055-0.439-5.339 0.28-0.84 0.997-1.447 1.84-1.663l1.53-7.651c-1.814 4.727-5.585 7.944-9.581 8.425-2.22 0.267-4.493-0.314-6.504-1.933-1.73-1.392-3.254-3.542-4.394-6.555l3.684 16.886c0.031 0.141 0.156 0.242 0.301 0.242h12.829c0.147 0 0.273-0.104 0.302-0.247l0.433-2.165zM2.221 12.143c1.144 3.504 2.762 5.888 4.575 7.348 1.881 1.515 3.988 2.049 6.044 1.801 4.018-0.484 7.904-3.972 9.461-9.149h-20.080zM21.648 21.658c-0.881 0-1.677 0.543-1.939 1.328-0.86 2.58-0.121 4.387 0.916 5.521 0.525 0.573 1.13 0.978 1.654 1.22 0.262 0.121 0.498 0.198 0.689 0.237 0.142 0.029 0.239 0.032 0.298 0.027 0.306-0.292 0.581-0.457 0.835-0.545 0.266-0.092 0.488-0.092 0.643-0.092h0.023c0.155-0 0.379-0 0.646 0.092 0.256 0.088 0.532 0.253 0.839 0.545 0.059 0.005 0.156 0.002 0.298-0.027 0.19-0.039 0.427-0.116 0.689-0.237 0.524-0.242 1.129-0.646 1.654-1.22 1.038-1.134 1.776-2.941 0.916-5.521-0.262-0.785-1.058-1.328-1.939-1.328-0.856 0-1.831 0.521-2.407 1.96-0.047 0.118-0.118 0.247-0.238 0.345-0.127 0.104-0.281 0.15-0.448 0.15-0.141 0-0.295-0.024-0.435-0.116s-0.228-0.23-0.288-0.379c-0.576-1.44-1.551-1.96-2.407-1.96z"></path>
<path d="M18.484 1.086l0.497-0.363-0.363-0.497-0.497 0.363 0.363 0.497zM16.706 3.994v0zM18.846 1.583l0.363 0.497 0.497-0.363-0.363-0.497-0.497 0.363zM17.298 4.164v0zM17.113 6.892l-0.597 0.148 0.393 1.583 0.75-1.448-0.546-0.283zM19.848 5.018v0zM22.384 6.747v0zM22.293 11.528l-0.557-0.262-0.413 0.877h0.97v-0.615zM23.292 12.632v0zM21.61 21.043l-0.603-0.121-0.149 0.747 0.761-0.011-0.009-0.615zM24.36 22.823l-0.539 0.297 1.137-0.443-0.598 0.147zM24.551 19.876v0zM26.226 17.103l0.495-0.366-0.366-0.495-0.495 0.366 0.366 0.495zM26.592 17.598l0.366 0.495 0.495-0.366-0.366-0.495-0.495 0.366zM25.142 20.046v0zM24.991 22.798l0.182 0.588 0.588-0.182-0.182-0.588-0.588 0.182zM24.437 22.969l-0.182-0.588-0.697 0.215 0.329 0.651 0.549-0.278zM24.626 23.39v0zM24.683 23.484l0.346-0.509-0.005-0.003-0.005-0.003-0.335 0.516zM24.683 23.484l-0.346 0.509 0.004 0.003 0.341-0.512zM24.683 23.484v0zM24.825 23.493v0zM24.836 23.487v0zM24.892 23.39v0zM27.87 21.042v0zM30.393 22.791v0zM29.347 28.922v0zM27.497 30.285v0zM26.673 30.567v0zM26.004 30.565v0zM25.935 30.542l-0.435 0.435 0.103 0.103 0.138 0.046 0.195-0.584zM25.884 30.491v0zM25.213 30.028v0zM24.303 30.027v0zM23.635 30.491v0zM23.584 30.542l0.195 0.584 0.138-0.046 0.103-0.103-0.435-0.435zM23.515 30.565v0zM22.846 30.567v0zM22.022 30.285v0zM20.172 28.922v0zM20.060 28.796l0.466-0.402-0.822-0.953-0.247 1.234 0.603 0.121zM19.736 30.416v0zM5.1 30.432v0zM1.219 12.648v0zM2.080 11.529l0.027 0.615 0.925-0.040-0.396-0.837-0.556 0.263zM1.501 9.751v0zM2.811 6.975v0zM6.564 7.519v0zM6.66 7.573l0.036-0.614-0.003-0-0.033 0.615zM6.66 7.573l0.039-0.614-0.003-0-0.036 0.614zM6.66 7.573l0.039-0.614-0-0-0.039 0.614zM6.75 7.537v0zM6.787 7.509v0zM6.794 7.499v0zM6.794 7.386v0zM6.761 7.108l0.613-0.056-0.127-1.389-0.94 1.029 0.454 0.415zM6.46 7.438l-0.415 0.454 0.454 0.415 0.415-0.454-0.454-0.415zM4.969 4.536v0zM5.073 1.117l0.252-0.561-0.561-0.252-0.252 0.561 0.561 0.252zM5.634 1.37l0.561 0.252 0.252-0.561-0.561-0.252-0.252 0.561zM5.567 4.391v0zM6.744 6.854l-0.45 0.419 1.132 1.216-0.066-1.66-0.615 0.025zM8.199 3.864v0zM11.258 4.117v0zM12.405 5.363l-0.496 0.364 0.308 0.421 0.466-0.235-0.278-0.549zM14.543 5.217v0zM16.623 7.391v0zM16.68 7.485l-0.332 0.518 0.001 0 0.331-0.519zM16.68 7.485l0.336-0.515-0.005-0.003-0.331 0.519zM16.68 7.485l0.337-0.515-0.001-0.001-0.336 0.515zM16.775 7.498v0zM16.822 7.493v0zM16.833 7.487v0zM16.889 7.389v0zM17.014 7.094l0.559 0.258 0.592-1.282-1.342 0.439 0.192 0.585zM16.572 7.238l-0.585 0.191 0.191 0.585 0.585-0.191-0.192-0.585zM12.748 5.881l-0.259-0.558-0.619 0.287 0.349 0.586 0.529-0.315zM13.549 8.537v0zM12.826 11.528l-0.54-0.295-0.499 0.911h1.038v-0.615zM21.603 11.528v0.615h0.365l0.175-0.32-0.54-0.296zM21.802 6.946v0zM19.853 5.633v0zM17.462 7.613v0zM17.227 7.96v0zM16.78 8.114v0zM16.344 8.001v0zM16.053 7.624v0zM14.343 5.799v0zM2.768 11.528l-0.543 0.29 0.174 0.325h0.369v-0.615zM12.111 11.528v0.615h0.337l0.182-0.283-0.518-0.332zM2.103 9.628v0zM3.119 7.508v0zM6.183 8.003v0zM6.622 8.187v0zM7.057 8.070v0zM7.37 7.716v0zM7.403 7.298v0zM8.507 4.397v0zM10.85 4.578v0zM12.934 8.559v0zM19.126 22.791v0zM19.565 28.131l0.603 0.121 0.048-0.242-0.132-0.208-0.52 0.329zM20.965 21.129l0.153 0.596 0.375-0.096 0.076-0.379-0.603-0.121zM22.496 13.478l0.603 0.121-1.178-0.341 0.575 0.22zM12.915 21.903v0zM6.411 19.97v0zM2.017 13.415l0.576-0.218-1.177 0.349 0.601-0.131zM5.701 30.301v0zM19.132 30.295v0zM22.302 12.143l0.589 0.177 0.238-0.793h-0.828v0.615zM2.221 12.143v-0.615h-0.848l0.263 0.806 0.585-0.191zM12.841 21.292v0zM6.797 19.491v0zM19.71 22.986v0zM21.648 21.658v0zM20.626 28.507v0zM22.28 29.727v0zM22.968 29.963v0zM23.267 29.991l0.051 0.613 0.216-0.018 0.157-0.15-0.425-0.445zM24.102 29.446v0zM24.744 29.354l0-0.615h-0l-0 0.615zM24.756 29.354l-0 0.615h0l-0-0.615zM24.768 29.354v0zM25.413 29.446v0zM26.252 29.991l-0.425 0.445 0.157 0.15 0.216 0.018 0.052-0.613zM26.55 29.963l-0.122-0.603h-0l0.122 0.603zM27.239 29.727v0zM28.893 28.507v0zM29.809 22.986v0zM27.87 21.658v0zM25.464 23.618v0zM25.226 23.964v0zM24.343 23.998v0zM24.055 23.618v0zM18.121 0.589c-1.004 0.732-1.659 2.028-2.006 3.235l1.183 0.34c0.314-1.091 0.863-2.081 1.549-2.581l-0.725-0.994zM19.343 1.221l-0.363-0.497-0.994 0.725 0.363 0.497 0.994-0.725zM17.889 4.334c0.297-1.033 0.794-1.87 1.32-2.254l-0.725-0.994c-0.845 0.616-1.447 1.759-1.777 2.908l1.183 0.34zM17.71 6.743c-0.137-0.55-0.095-1.457 0.179-2.409l-1.183-0.34c-0.308 1.073-0.398 2.213-0.191 3.046l1.194-0.297zM19.843 4.402c-1.273 0.010-2.514 0.733-3.277 2.206l1.093 0.566c0.575-1.11 1.423-1.536 2.194-1.542l-0.010-1.231zM22.967 6.547c-0.456-1.333-1.766-2.156-3.124-2.145l0.010 1.231c0.881-0.007 1.681 0.53 1.949 1.313l1.165-0.398zM22.85 11.79c0.651-1.384 0.834-3.145 0.116-5.242l-1.165 0.398c0.621 1.816 0.44 3.244-0.066 4.32l1.114 0.524zM22.293 12.143h0.094v-1.231h-0.094v1.231zM22.387 12.143c0.194 0 0.34 0.178 0.302 0.368l1.207 0.241c0.19-0.952-0.538-1.84-1.509-1.84v1.231zM22.689 12.511l-1.682 8.411 1.207 0.241 1.682-8.411-1.207-0.241zM21.619 21.658c0.010-0 0.020-0 0.030-0v-1.231c-0.016 0-0.031 0-0.047 0l0.017 1.231zM21.648 21.658c0.757 0 1.59 0.404 2.172 1.462l1.078-0.593c-0.778-1.413-2.003-2.099-3.25-2.099v1.231zM24.957 22.677c-0.164-0.668-0.094-1.66 0.185-2.631l-1.183-0.34c-0.312 1.086-0.431 2.312-0.197 3.263l1.195-0.293zM25.142 20.046c0.299-1.041 0.815-1.98 1.449-2.449l-0.732-0.99c-0.951 0.703-1.57 1.948-1.901 3.098l1.183 0.34zM25.731 17.469l0.366 0.495 0.99-0.732-0.366-0.495-0.99 0.732zM26.226 17.103c-0.793 0.586-1.36 1.678-1.675 2.773l1.183 0.34c0.283-0.986 0.748-1.772 1.224-2.124l-0.732-0.99zM24.551 19.876c-0.315 1.096-0.401 2.284-0.148 3.103l1.176-0.363c-0.153-0.496-0.127-1.416 0.155-2.4l-1.183-0.34zM24.809 22.21l-0.554 0.171 0.363 1.176 0.554-0.171-0.363-1.176zM23.888 23.247c0.059 0.116 0.115 0.24 0.167 0.371l1.143-0.457c-0.066-0.164-0.136-0.321-0.212-0.47l-1.098 0.556zM24.055 23.618c0.057 0.143 0.144 0.286 0.293 0.382l0.67-1.032c0.027 0.017 0.057 0.040 0.086 0.068 0.026 0.025 0.046 0.049 0.060 0.069 0.027 0.037 0.036 0.061 0.034 0.056l-1.143 0.457zM24.337 23.994v0zM24.341 23.996v0zM24.342 23.997c0.143 0.095 0.3 0.117 0.437 0.117v-1.231c-0.004 0 0.022-0.001 0.066 0.010 0.023 0.005 0.053 0.014 0.086 0.029 0.017 0.007 0.035 0.016 0.052 0.026 0.009 0.005 0.017 0.010 0.025 0.015 0.004 0.002 0.007 0.005 0.010 0.007 0.001 0.001 0.003 0.002 0.004 0.002s0.002 0.001 0.002 0.001l-0.682 1.024zM24.778 24.114c0.081 0 0.162-0.011 0.239-0.036l-0.383-1.169c0.065-0.021 0.116-0.025 0.145-0.025v1.231zM25.017 24.078c0.078-0.026 0.148-0.064 0.209-0.114l-0.78-0.952c0.018-0.015 0.049-0.038 0.090-0.060 0.039-0.021 0.074-0.035 0.098-0.043l0.383 1.169zM25.226 23.964c0.12-0.098 0.191-0.228 0.238-0.345l-1.143-0.457c-0.003 0.007 0.003-0.008 0.019-0.034s0.050-0.070 0.106-0.116l0.78 0.952zM25.464 23.618c0.576-1.44 1.552-1.96 2.407-1.96v-1.231c-1.434 0-2.816 0.9-3.549 2.734l1.143 0.457zM27.87 21.658c0.881 0 1.677 0.543 1.939 1.328l1.168-0.389c-0.445-1.336-1.749-2.17-3.106-2.17v1.231zM29.809 22.986c0.86 2.58 0.121 4.387-0.916 5.521l0.908 0.831c1.323-1.446 2.184-3.715 1.176-6.741l-1.168 0.389zM28.893 28.507c-0.525 0.573-1.13 0.978-1.654 1.22l0.515 1.118c0.661-0.305 1.403-0.803 2.047-1.507l-0.908-0.831zM27.239 29.727c-0.262 0.121-0.498 0.198-0.689 0.237l0.245 1.206c0.301-0.061 0.629-0.173 0.959-0.325l-0.515-1.118zM26.55 29.963c-0.201 0.041-0.314 0.031-0.352 0.018l-0.389 1.168c0.347 0.116 0.718 0.075 0.986 0.021l-0.245-1.206zM26.198 29.981l-0.069-0.023-0.389 1.168 0.069 0.023 0.389-1.168zM26.37 30.107l-0.051-0.051-0.87 0.87 0.051 0.051 0.87-0.87zM26.319 30.056c-0.333-0.333-0.631-0.516-0.906-0.61l-0.4 1.164c0.061 0.021 0.205 0.086 0.435 0.316l0.87-0.87zM25.413 29.446c-0.274-0.094-0.503-0.092-0.657-0.092v1.231c0.151 0 0.196 0.004 0.257 0.025l0.4-1.164zM24.756 29.354c-0.154 0-0.381-0.003-0.655 0.092l0.403 1.163c0.059-0.020 0.1-0.024 0.252-0.024v-1.231zM24.102 29.446c-0.273 0.094-0.569 0.277-0.901 0.61l0.87 0.87c0.232-0.232 0.375-0.296 0.434-0.317l-0.403-1.163zM23.2 30.056l-0.051 0.051 0.87 0.87 0.051-0.051-0.87-0.87zM23.389 29.958l-0.069 0.023 0.389 1.168 0.069-0.023-0.389-1.168zM23.32 29.981c-0.038 0.013-0.151 0.023-0.352-0.018l-0.245 1.206c0.268 0.054 0.639 0.095 0.986-0.021l-0.389-1.168zM22.968 29.963c-0.19-0.039-0.426-0.116-0.689-0.237l-0.515 1.118c0.33 0.152 0.658 0.264 0.959 0.325l0.245-1.206zM22.28 29.727c-0.524-0.242-1.129-0.646-1.654-1.22l-0.908 0.831c0.644 0.703 1.386 1.202 2.047 1.507l0.515-1.118zM20.626 28.507c-0.034-0.037-0.067-0.075-0.1-0.113l-0.932 0.804c0.041 0.047 0.082 0.094 0.124 0.14l0.908-0.831zM19.456 28.675l-0.324 1.62 1.207 0.241 0.324-1.62-1.207-0.241zM19.132 30.295c-0.029 0.144-0.155 0.247-0.302 0.247v1.231c0.733 0 1.365-0.518 1.509-1.237l-1.207-0.241zM18.83 30.543h-12.829v1.231h12.829v-1.231zM6.001 30.543c-0.145 0-0.27-0.101-0.301-0.242l-1.202 0.262c0.154 0.707 0.78 1.211 1.503 1.211v-1.231zM5.701 30.301l-3.88-17.784-1.202 0.262 3.88 17.784 1.202-0.262zM1.821 12.517c-0.041-0.187 0.097-0.365 0.286-0.373l-0.054-1.23c-0.947 0.041-1.639 0.928-1.435 1.865l1.202-0.262zM2.636 11.266c-0.222-0.47-0.405-1.013-0.533-1.638l-1.206 0.247c0.146 0.714 0.358 1.352 0.626 1.917l1.113-0.526zM2.103 9.628c-0.166-0.811 0.252-1.679 1.015-2.12l-0.615-1.066c-1.176 0.679-1.888 2.052-1.605 3.432l1.206-0.247zM3.119 7.508c0.741-0.428 1.845-0.465 3.064 0.495l0.761-0.967c-1.552-1.221-3.199-1.31-4.441-0.593l0.615 1.066zM6.183 8.003c0.121 0.095 0.268 0.175 0.444 0.185l0.065-1.229c-0 0 0.001 0 0.002 0s0.003 0 0.005 0 0.009 0.001 0.013 0.001 0.020 0.002 0.030 0.003 0.040 0.007 0.057 0.011c0.035 0.009 0.064 0.020 0.086 0.029 0.042 0.019 0.062 0.035 0.057 0.032l-0.761 0.967zM6.623 8.187h0l0.072-1.229h-0l-0.072 1.229zM6.621 8.187h0l0.078-1.228h-0l-0.078 1.228zM6.62 8.187c0.171 0.011 0.319-0.048 0.437-0.117l-0.615-1.066c-0.003 0.002 0.019-0.012 0.062-0.025 0.023-0.007 0.053-0.014 0.089-0.018 0.018-0.002 0.038-0.004 0.058-0.004 0.010-0 0.020-0 0.029 0 0.005 0 0.009 0 0.012 0.001 0.002 0 0.003 0 0.004 0s0.002 0 0.002 0l-0.079 1.228zM7.057 8.070c0.070-0.041 0.134-0.090 0.189-0.151l-0.917-0.821c0.045-0.051 0.088-0.080 0.113-0.094l0.615 1.066zM7.246 7.92c0.055-0.061 0.096-0.13 0.124-0.203l-1.151-0.435c0.008-0.022 0.023-0.057 0.047-0.097 0.023-0.038 0.046-0.067 0.064-0.086l0.917 0.821zM7.37 7.716c0.055-0.145 0.051-0.293 0.033-0.418l-1.218 0.175c0.001 0.007-0.002-0.008-0-0.039s0.008-0.086 0.034-0.153l1.151 0.435zM7.403 7.298c-0.012-0.084-0.022-0.166-0.029-0.246l-1.226 0.112c0.009 0.102 0.021 0.205 0.037 0.31l1.218-0.176zM6.307 6.693l-0.301 0.33 0.909 0.83 0.301-0.33-0.909-0.83zM6.875 6.983c-0.537-0.491-1.040-1.483-1.308-2.592l-1.196 0.289c0.296 1.225 0.881 2.487 1.674 3.211l0.83-0.909zM5.567 4.391c-0.268-1.109-0.281-2.247 0.068-3.022l-1.123-0.505c-0.51 1.135-0.438 2.59-0.141 3.816l1.196-0.289zM4.821 1.679l0.561 0.252 0.505-1.123-0.561-0.252-0.505 1.123zM5.073 1.117c-0.429 0.955-0.387 2.251-0.104 3.419l1.196-0.289c-0.254-1.051-0.237-2.030 0.031-2.625l-1.123-0.505zM4.969 4.536c0.261 1.080 0.741 2.11 1.325 2.737l0.901-0.838c-0.391-0.42-0.798-1.23-1.030-2.188l-1.196 0.289zM7.359 6.829c-0.050-1.255 0.479-2.046 1.148-2.432l-0.615-1.066c-1.105 0.638-1.829 1.884-1.762 3.547l1.23-0.049zM8.507 4.397c0.763-0.441 1.724-0.368 2.343 0.181l0.817-0.921c-1.054-0.935-2.599-1.005-3.775-0.326l0.615 1.066zM10.85 4.578c0.43 0.381 0.778 0.766 1.059 1.149l0.993-0.727c-0.336-0.458-0.745-0.908-1.235-1.343l-0.817 0.921zM14.743 4.635c-0.904-0.311-1.844-0.211-2.616 0.179l0.555 1.098c0.49-0.248 1.087-0.311 1.66-0.114l0.4-1.164zM17.192 7.158c-0.541-1.322-1.421-2.169-2.449-2.523l-0.4 1.164c0.637 0.219 1.279 0.771 1.71 1.825l1.139-0.466zM17.011 6.966c-0 0 0.001 0.001 0.002 0.001s0.003 0.002 0.004 0.003 0.007 0.005 0.011 0.008 0.016 0.011 0.024 0.018 0.031 0.025 0.044 0.038c0.027 0.025 0.046 0.049 0.061 0.068 0.027 0.037 0.036 0.061 0.034 0.056l-1.139 0.466c0.058 0.143 0.147 0.285 0.295 0.38l0.663-1.037zM17.011 6.966v0zM17.016 6.97v0zM16.771 6.883c-0.004 0 0.022-0.001 0.067 0.009 0.023 0.005 0.053 0.014 0.087 0.028 0.017 0.007 0.035 0.016 0.053 0.025 0.009 0.005 0.017 0.010 0.025 0.015 0.004 0.002 0.007 0.005 0.010 0.006 0.001 0.001 0.003 0.002 0.004 0.002s0.002 0.001 0.002 0.001l-0.674 1.030c0.144 0.094 0.301 0.115 0.438 0.114l-0.010-1.231zM16.626 6.909c0.065-0.022 0.116-0.026 0.145-0.026l0.010 1.231c0.081-0.001 0.161-0.012 0.238-0.038l-0.393-1.166zM16.439 7.014c0.018-0.015 0.048-0.038 0.089-0.061 0.039-0.022 0.073-0.035 0.098-0.043l0.393 1.166c0.078-0.026 0.147-0.065 0.208-0.116l-0.787-0.946zM16.316 7.165c-0.003 0.007 0.002-0.008 0.019-0.034s0.049-0.071 0.105-0.117l0.788 0.946c0.119-0.099 0.189-0.229 0.235-0.347l-1.146-0.448zM16.455 6.836c-0.049 0.106-0.096 0.216-0.14 0.329l1.146 0.448c0.035-0.091 0.073-0.178 0.111-0.261l-1.117-0.516zM16.764 7.823l0.442-0.145-0.383-1.17-0.442 0.145 0.383 1.17zM16.115 3.824c-0.347 1.206-0.461 2.587-0.127 3.606l1.17-0.383c-0.225-0.688-0.173-1.792 0.141-2.883l-1.183-0.34zM12.22 6.196c0.482 0.808 0.687 1.611 0.714 2.364l1.23-0.044c-0.034-0.952-0.296-1.958-0.887-2.949l-1.057 0.63zM12.934 8.559c0.037 1.031-0.262 1.967-0.648 2.673l1.080 0.591c0.472-0.863 0.845-2.017 0.798-3.308l-1.23 0.044zM12.826 12.143h8.778v-1.231h-8.778v1.231zM21.22 7.145c0.617 1.805 0.364 3.137-0.156 4.087l1.080 0.591c0.695-1.269 0.965-2.963 0.241-5.077l-1.165 0.398zM19.858 6.249c0.641-0.005 1.188 0.387 1.362 0.896l1.165-0.398c-0.362-1.057-1.416-1.738-2.536-1.729l0.010 1.231zM18.035 7.837c0.487-1.246 1.255-1.584 1.823-1.588l-0.010-1.231c-1.144 0.009-2.317 0.728-2.959 2.371l1.146 0.448zM17.62 8.433c0.232-0.193 0.35-0.43 0.415-0.596l-1.146-0.448c-0.027 0.070-0.049 0.092-0.056 0.098l0.788 0.946zM16.785 8.729c0.285-0.002 0.582-0.086 0.835-0.296l-0.788-0.946c-0.003 0.002-0.005 0.004-0.010 0.006s-0.021 0.006-0.047 0.006l0.010 1.231zM16.009 8.517c0.28 0.182 0.57 0.214 0.776 0.213l-0.010-1.231c-0.075 0.001-0.094-0.013-0.096-0.014l-0.671 1.032zM15.484 7.857c0.089 0.218 0.243 0.476 0.525 0.66l0.671-1.032c-0.001-0.001-0.024-0.015-0.057-0.094l-1.139 0.466zM14.143 6.381c0.441 0.152 0.964 0.557 1.341 1.476l1.139-0.466c-0.486-1.188-1.247-1.888-2.080-2.174l-0.4 1.164zM13.007 6.439c0.34-0.158 0.746-0.192 1.136-0.058l0.4-1.164c-0.706-0.243-1.44-0.179-2.054 0.105l0.517 1.117zM2.768 12.143h9.343v-1.231h-9.343v1.231zM1.501 9.751c0.163 0.798 0.412 1.483 0.725 2.067l1.085-0.58c-0.252-0.471-0.463-1.041-0.604-1.733l-1.206 0.247zM2.811 6.975c-0.97 0.56-1.534 1.681-1.31 2.776l1.206-0.247c-0.108-0.528 0.165-1.143 0.72-1.463l-0.615-1.066zM6.564 7.519c-1.386-1.091-2.762-1.116-3.753-0.544l0.615 1.066c0.492-0.284 1.325-0.382 2.376 0.445l0.761-0.967zM6.66 7.573c-0.001-0-0.028-0.001-0.096-0.054l-0.761 0.967c0.185 0.146 0.446 0.295 0.782 0.315l0.075-1.229zM6.75 7.537c-0.065 0.038-0.088 0.035-0.090 0.035l-0.075 1.228c0.334 0.020 0.602-0.095 0.78-0.198l-0.615-1.066zM6.794 7.499c-0.001 0.003-0.003 0.006-0.006 0.010s-0.015 0.015-0.038 0.029l0.615 1.066c0.247-0.142 0.464-0.362 0.58-0.67l-1.152-0.435zM6.794 7.386c0.011 0.075 0.003 0.104-0 0.113l1.151 0.435c0.106-0.282 0.092-0.546 0.067-0.723l-1.218 0.175zM8.199 3.864c-0.99 0.572-1.657 1.776-1.405 3.522l1.218-0.175c-0.191-1.324 0.311-1.997 0.803-2.28l-0.615-1.066zM11.258 4.117c-0.836-0.741-2.089-0.813-3.059-0.253l0.615 1.066c0.555-0.321 1.224-0.249 1.627 0.108l0.817-0.921zM13.549 8.537c-0.051-1.416-0.663-2.976-2.291-4.42l-0.817 0.921c1.391 1.234 1.839 2.483 1.877 3.543l1.23-0.044zM12.629 11.86c0.517-0.807 0.968-1.987 0.92-3.323l-1.23 0.044c0.037 1.038-0.317 1.975-0.726 2.614l1.036 0.664zM18.542 22.597c-0.819 2.456-0.408 4.426 0.503 5.864l1.040-0.659c-0.708-1.117-1.080-2.701-0.375-4.815l-1.168-0.389zM20.813 20.533c-1.023 0.262-1.918 1.005-2.271 2.064l1.168 0.389c0.207-0.621 0.746-1.091 1.409-1.261l-0.305-1.192zM21.892 13.357l-1.53 7.651 1.207 0.241 1.53-7.651-1.207-0.241zM12.988 22.514c4.273-0.515 8.206-3.927 10.082-8.816l-1.149-0.441c-1.752 4.566-5.36 7.587-9.080 8.035l0.147 1.222zM6.025 20.45c2.14 1.723 4.578 2.352 6.963 2.064l-0.147-1.222c-2.056 0.248-4.163-0.287-6.044-1.801l-0.772 0.959zM1.441 13.633c1.17 3.090 2.75 5.34 4.584 6.816l0.772-0.959c-1.625-1.308-3.093-3.358-4.205-6.293l-1.151 0.436zM6.302 30.17l-3.684-16.886-1.202 0.262 3.684 16.885 1.202-0.262zM6.001 29.927c0.145 0 0.27 0.101 0.301 0.242l-1.202 0.262c0.093 0.424 0.468 0.726 0.902 0.726v-1.231zM18.83 29.927h-12.829v1.231h12.829v-1.231zM18.529 30.175c0.029-0.144 0.155-0.247 0.302-0.247v1.231c0.44 0 0.819-0.311 0.905-0.742l-1.207-0.241zM18.962 28.010l-0.433 2.165 1.207 0.241 0.433-2.165-1.207-0.241zM22.302 11.528h-20.080v1.231h20.080v-1.231zM12.915 21.903c4.315-0.52 8.367-4.23 9.976-9.583l-1.179-0.354c-1.503 5-5.225 8.267-8.945 8.715l0.147 1.222zM6.411 19.97c2.011 1.619 4.283 2.2 6.504 1.933l-0.147-1.222c-1.891 0.228-3.832-0.259-5.585-1.67l-0.772 0.959zM1.636 12.334c1.17 3.585 2.845 6.082 4.775 7.636l0.772-0.959c-1.697-1.366-3.259-3.636-4.376-7.059l-1.17 0.382zM20.293 23.18c0.17-0.511 0.714-0.907 1.355-0.907v-1.231c-1.12 0-2.169 0.689-2.523 1.749l1.168 0.389zM21.080 28.092c-0.895-0.978-1.572-2.554-0.786-4.911l-1.168-0.389c-0.934 2.803-0.134 4.841 1.046 6.131l0.908-0.831zM22.537 29.168c-0.456-0.21-0.992-0.568-1.458-1.076l-0.908 0.831c0.584 0.638 1.258 1.090 1.85 1.363l0.515-1.118zM23.091 29.36c-0.135-0.027-0.325-0.087-0.553-0.193l-0.515 1.118c0.296 0.137 0.578 0.231 0.824 0.281l0.245-1.206zM23.215 29.377c0.009-0.001 0.004 0-0.019-0.001s-0.057-0.006-0.105-0.016l-0.245 1.206c0.183 0.037 0.341 0.048 0.472 0.037l-0.103-1.226zM23.9 28.864c-0.354 0.123-0.702 0.341-1.058 0.681l0.85 0.89c0.256-0.244 0.457-0.355 0.611-0.409l-0.403-1.163zM24.745 28.739c-0.164-0-0.475-0.002-0.845 0.126l0.403 1.163c0.162-0.056 0.295-0.058 0.441-0.058l0-1.231zM24.756 28.739h-0.012l-0.001 1.231h0.012l0-1.231zM24.767 28.739h-0.012l0 1.231h0.012l-0-1.231zM25.613 28.864c-0.37-0.127-0.682-0.125-0.846-0.125l0 1.231c0.146-0 0.282 0.002 0.445 0.058l0.4-1.164zM26.677 29.545c-0.358-0.341-0.709-0.56-1.064-0.682l-0.4 1.164c0.157 0.054 0.359 0.165 0.614 0.408l0.849-0.891zM26.428 29.36c-0.049 0.010-0.084 0.014-0.105 0.016s-0.028 0.001-0.019 0.001l-0.103 1.226c0.131 0.011 0.29-0 0.472-0.037l-0.245-1.206zM26.982 29.168c-0.228 0.105-0.419 0.165-0.553 0.193l0.245 1.206c0.246-0.050 0.528-0.145 0.824-0.281l-0.515-1.118zM28.439 28.092c-0.465 0.509-1.002 0.866-1.458 1.076l0.515 1.118c0.593-0.273 1.266-0.725 1.85-1.363l-0.908-0.831zM29.226 23.18c0.786 2.357 0.109 3.933-0.786 4.911l0.908 0.831c1.18-1.29 1.98-3.329 1.046-6.131l-1.168 0.389zM27.87 22.273c0.641 0 1.185 0.396 1.355 0.907l1.168-0.389c-0.353-1.060-1.403-1.749-2.523-1.749v1.231zM26.035 23.847c0.497-1.242 1.268-1.574 1.835-1.574v-1.231c-1.144 0-2.323 0.71-2.978 2.347l1.143 0.457zM25.616 24.44c0.233-0.191 0.353-0.427 0.419-0.593l-1.143-0.457c-0.028 0.070-0.049 0.092-0.057 0.098l0.78 0.952zM24.778 24.729c0.285 0 0.583-0.081 0.838-0.29l-0.78-0.952c-0.003 0.002-0.005 0.004-0.010 0.005-0.006 0.002-0.021 0.006-0.047 0.006v1.231zM24.004 24.511c0.279 0.185 0.569 0.219 0.775 0.219v-1.231c-0.075 0-0.094-0.013-0.095-0.014l-0.679 1.026zM23.484 23.847c0.087 0.219 0.239 0.478 0.52 0.664l0.679-1.026c-0.001-0.001-0.024-0.015-0.056-0.095l-1.143 0.457zM21.648 22.273c0.568 0 1.338 0.332 1.835 1.574l1.143-0.457c-0.655-1.638-1.834-2.347-2.978-2.347v1.231z"></path>
</symbol>
</defs>
</svg>
