<svg xmlns="http://www.w3.org/2000/svg" width="50" height="50" fill="none">
  <g clip-path="url(#a)">
    <path fill="#FFA5BA" d="M46.3 33.45a6.84 6.84 0 0 0-5.08.03 6.71 6.71 0 0 1 1.83-3.87 1.66 1.66 0 1 0-2.26-2.44c-1.92 1.78-2.67 4.3-2.93 6.37-.5-.22-1.05-.4-1.65-.48l2.95-15.36a1.66 1.66 0 0 0-1.63-1.98h-.32c.15-.78.22-1.56.21-2.3-.02-3.11-1.4-5.46-3.7-6.27a7.13 7.13 0 0 0-5.49.1c.23-1.52.78-3.22 2-4.37A1.66 1.66 0 1 0 27.98.44c-2.06 1.92-2.83 4.64-3.1 6.86a6.82 6.82 0 0 0-4.22-.52c-1.71-2.45-4.09-3.58-6.4-3.03A7.14 7.14 0 0 0 9.73 6.8c-.64-1.4-1.1-3.12-.7-4.74a1.66 1.66 0 0 0-3.23-.81c-.69 2.73.15 5.43 1.14 7.43a7.11 7.11 0 0 0-4.76 2.92 5.26 5.26 0 0 0-.94 4.22A1.66 1.66 0 0 0 .18 17.7l5.95 30.95c.15.78.84 1.35 1.64 1.35h23.8c.8 0 1.49-.57 1.64-1.35l.06-.3c.45.3.93.56 1.45.76 1.97.73 3.82.43 4.75.18.5.13 1.24.28 2.13.28.8 0 1.7-.12 2.63-.46 3.69-1.38 5.65-6 5.62-9.66-.03-2.97-1.36-5.21-3.56-6Zm-10.87-14.4c-.77 7.35-6.96 12.36-15.58 12.36-8.62 0-14.81-5.01-15.58-12.36h31.16Zm-10.38-7.3a1.64 1.64 0 0 0 2.9 0c.05-.08.46-.74 1.21-1.22.98-.64 2.1-.72 3.44-.25 1.33.47 1.49 2.37 1.5 3.17 0 .72-.1 1.5-.3 2.27H22.66c.37-1.86.15-3.9-.45-5.73a3.3 3.3 0 0 1 1.64.54 4.12 4.12 0 0 1 1.2 1.21ZM4.81 13.62c.86-1.12 1.85-1.67 3.02-1.67.9 0 1.59.33 1.67.36a1.63 1.63 0 0 0 2.43-1.59c0-.12-.18-2.96 3.1-3.75 1.37-.33 2.54 1.18 2.98 1.84 1.26 1.91 1.91 4.86 1.22 6.9H4.62c-.22-.7-.28-1.47.19-2.09Zm4.33 33.04-3.3-17.15c.22.2.44.41.67.6 3.45 2.98 8.19 4.61 13.34 4.61s9.89-1.63 13.34-4.6l.23-.21-.67 3.5-.1.03c-2.2.79-3.53 3.03-3.55 6a12.2 12.2 0 0 0 1.4 5.66l-.3 1.56H9.14ZM43.07 46a4.75 4.75 0 0 1-3 0 1.63 1.63 0 0 0-1.2 0c-.01.01-1.5.55-3 0-2.08-.78-3.46-4-3.44-6.51 0-.73.14-2.47 1.34-2.89.54-.2 1.03-.27 1.46-.27a3.25 3.25 0 0 1 2.79 1.6 1.64 1.64 0 0 0 2.9 0c.25-.42 1.53-2.3 4.26-1.33 1.2.42 1.33 2.16 1.34 2.89.02 2.51-1.36 5.73-3.45 6.5Z"/>
  </g>
  <defs>
    <clipPath id="a">
      <path fill="#fff" d="M0 0h50v50H0z"/>
    </clipPath>
  </defs>
</svg>
