<svg width="51" height="52" viewBox="0 0 51 52" fill="none" xmlns="http://www.w3.org/2000/svg">
<path fill-rule="evenodd" clip-rule="evenodd" d="M26.2333 6.29667C26.7699 4.42974 27.749 2.57212 29.1214 1.57114L29.7107 2.37907C28.5974 3.19103 27.7039 4.80025 27.1944 6.57292C26.7214 8.2182 26.6145 9.88135 26.8939 11.0054C27.981 8.90653 29.6785 7.97322 31.3386 7.96005C33.1575 7.94563 34.8721 9.05038 35.4603 10.7693C36.5484 13.9494 36.2526 16.5402 35.3124 18.5389H35.4648C36.4114 18.5389 37.1213 19.4049 36.9357 20.3331L34.2022 34.0004C34.2229 34.0001 34.2436 34 34.2644 34C35.8934 34 37.5654 34.8856 38.6703 36.8936C38.3478 35.5779 38.5011 33.7758 38.9809 32.1048C39.4921 30.3247 40.4147 28.5504 41.7027 27.598L42.2973 28.402C41.267 29.1639 40.4278 30.6896 39.9421 32.3808C39.4568 34.071 39.3654 35.7835 39.6958 36.8523L38.7954 37.1307C38.9046 37.3464 39.0076 37.5742 39.1036 37.8143C39.1546 37.9417 39.1921 37.9661 39.1951 37.968L39.1952 37.9681L39.1953 37.9682C39.1987 37.9705 39.2299 37.9913 39.3503 37.9913C39.3935 37.9913 39.4166 37.9856 39.4267 37.9823C39.4354 37.9794 39.4397 37.9767 39.4439 37.9732C39.4555 37.9637 39.4903 37.9279 39.5358 37.8143C40.5999 35.154 42.5154 34 44.375 34C46.194 34 47.8998 35.1183 48.4743 36.8419C49.9925 41.3962 48.6925 44.7091 46.7747 46.8049C45.8254 47.8423 44.7309 48.576 43.7677 49.02C43.2862 49.2419 42.8283 49.3956 42.4289 49.4767C42.0478 49.554 41.6551 49.5787 41.3419 49.4743L41.2299 49.437L41.1464 49.3535C40.6881 48.8952 40.3294 48.6946 40.057 48.601C39.7841 48.5071 39.562 48.5063 39.3141 48.5063C39.0662 48.5063 38.8475 48.5072 38.5779 48.6006C38.3084 48.694 37.9521 48.8943 37.4929 49.3535L37.4094 49.437L37.2975 49.4743C36.9842 49.5787 36.5915 49.554 36.2104 49.4767C35.811 49.3956 35.3531 49.2419 34.8716 49.02C33.9085 48.576 32.8139 47.8423 31.8647 46.8049C31.8032 46.7378 31.7424 46.6694 31.6823 46.5997L31.1558 49.2323C31.0156 49.9335 30.4 50.4382 29.6849 50.4382H8.83788C8.13267 50.4382 7.52269 49.9469 7.37236 49.2579L1.06706 20.3586C0.867821 19.4454 1.54226 18.5806 2.4653 18.5404C2.06778 17.699 1.74687 16.7404 1.52407 15.6516C1.15984 13.8717 2.07795 12.0503 3.65327 11.1408C5.26369 10.211 7.49966 10.2527 9.75133 12.0245C9.85916 12.1093 9.90391 12.1117 9.90742 12.1119L9.90755 12.1119L9.90769 12.1119C9.9118 12.1122 9.94924 12.1146 10.0535 12.0544C10.0909 12.0328 10.1081 12.0163 10.1151 12.0084C10.1213 12.0015 10.1236 11.997 10.1255 11.992C10.1308 11.9779 10.143 11.9295 10.1256 11.8084C10.1035 11.6551 10.0858 11.5043 10.0722 11.3562L9.58243 11.8924C8.50113 10.9046 7.61823 9.07369 7.15969 7.17709C6.70114 5.28042 6.6319 3.17372 7.3295 1.62183L8.24159 2.03183C7.6755 3.29115 7.69595 5.13979 8.13169 6.94209C8.532 8.59783 9.2532 10.0927 10.045 10.9435C9.95027 8.57243 10.9682 6.91753 12.4093 6.08548C13.9847 5.17597 16.0211 5.29154 17.3804 6.49694C18.1279 7.15979 18.7436 7.83781 19.244 8.5214C20.2692 8.00337 21.518 7.87126 22.7183 8.28377C24.0712 8.74877 25.3074 9.88525 26.0976 11.816C26.1495 11.943 26.1873 11.9672 26.1903 11.9691L26.1904 11.9691L26.1905 11.9692C26.1939 11.9715 26.2253 11.992 26.3457 11.991C26.3888 11.9907 26.412 11.9848 26.422 11.9815C26.4266 11.9799 26.43 11.9784 26.4328 11.9767C26.4352 11.9753 26.4372 11.9739 26.4391 11.9723C26.4506 11.9627 26.4852 11.9266 26.5297 11.8126C26.5944 11.6471 26.6624 11.4874 26.7335 11.3333L26.0156 11.5684C25.5616 10.1819 25.6967 8.16327 26.2333 6.29667ZM19.8015 9.36234C20.6728 10.8247 21.0527 12.2945 21.1026 13.679C21.1707 15.5663 20.6251 17.264 19.9273 18.5389H34.1911C35.1784 16.7357 35.6036 14.277 34.5142 11.0931C34.0786 9.82009 32.7774 8.94868 31.3465 8.96002C29.9561 8.97105 28.3784 9.82952 27.4611 12.1766C27.3861 12.3687 27.2728 12.5794 27.0789 12.7408C26.8736 12.9117 26.6249 12.9889 26.3536 12.991C26.1251 12.9928 25.8742 12.9564 25.6451 12.8074C25.4152 12.6578 25.271 12.4366 25.1721 12.1948C24.4714 10.4825 23.4281 9.58515 22.3932 9.22947C21.5021 8.9232 20.5764 9.00338 19.8015 9.36234ZM18.7657 18.5389H3.58356C3.1253 17.6817 2.75151 16.6618 2.50377 15.4511C2.23404 14.133 2.914 12.7223 4.15327 12.0068C5.35744 11.3116 7.15255 11.252 9.13294 12.8103C9.33826 12.9719 9.57278 13.0933 9.8466 13.11C10.1194 13.1267 10.3556 13.0347 10.5535 12.9204C10.7884 12.7847 10.9668 12.595 11.0611 12.345C11.1502 12.109 11.1448 11.8698 11.1154 11.6658C10.756 9.17154 11.7052 7.64673 12.9093 6.9515C14.1486 6.23601 15.7103 6.35248 16.7169 7.24514C19.17 9.42037 20.0308 11.7039 20.1033 13.7151C20.1728 15.6438 19.5183 17.3642 18.7657 18.5389ZM30.8788 45.5184C29.5627 43.4425 28.9274 40.5547 30.165 36.8419C30.6202 35.4764 31.7854 34.4908 33.1544 34.1402L35.6411 21.7071C32.6928 29.3889 26.5658 34.6162 20.0717 35.3985C16.4637 35.8331 12.7705 34.8878 9.50342 32.2576C6.69281 29.9949 4.21582 26.5012 2.36269 21.6058L8.34938 49.0448C8.39949 49.2744 8.60281 49.4382 8.83788 49.4382H29.6849C29.9233 49.4382 30.1285 49.2699 30.1752 49.0362L30.8788 45.5184ZM2.69534 19.5389H35.3257C32.7966 27.9506 26.4806 33.6193 19.9521 34.4057C16.6117 34.808 13.1878 33.9399 10.1305 31.4786C7.18337 29.1061 4.55423 25.2333 2.69534 19.5389ZM34.2644 35C32.8334 35 31.5392 35.8817 31.1137 37.1581C29.7163 41.3501 30.9164 44.2873 32.6024 46.1298C33.4551 47.0617 34.4385 47.7192 35.2902 48.1118C35.7162 48.3081 36.1 48.4339 36.4092 48.4966C36.6396 48.5434 36.7984 48.5489 36.8938 48.5409C37.3909 48.0665 37.8373 47.7989 38.2505 47.6557C38.6824 47.5061 39.0437 47.5062 39.2952 47.5063L39.3141 47.5063L39.3329 47.5063C39.5845 47.5062 39.948 47.5061 40.3821 47.6553C40.7978 47.7982 41.2472 48.0658 41.7455 48.5409C41.8409 48.5489 41.9997 48.5434 42.2301 48.4966C42.5393 48.4339 42.9232 48.3081 43.3491 48.1118C44.2009 47.7192 45.1842 47.0617 46.0369 46.1298C47.723 44.2873 48.923 41.3501 47.5257 37.1581C47.1002 35.8817 45.806 35 44.375 35C42.9846 35 41.4001 35.8459 40.4642 38.1857C40.3877 38.3771 40.2728 38.5869 40.0776 38.7468C39.871 38.9161 39.6216 38.9913 39.3503 38.9913C39.1218 38.9913 38.8712 38.9529 38.6433 38.8021C38.4145 38.6507 38.2722 38.4283 38.1751 38.1857C37.2392 35.8459 35.6548 35 34.2644 35Z" fill="#ffa5ba"/>
<path d="M29.1214 1.57114L29.9294 0.981868L29.3401 0.173932L28.5322 0.763199L29.1214 1.57114ZM26.2333 6.29667L27.1944 6.57292V6.57292L26.2333 6.29667ZM29.7107 2.37907L30.3 3.18701L31.1079 2.59774L30.5186 1.78981L29.7107 2.37907ZM27.1944 6.57292L26.2333 6.29666V6.29667L27.1944 6.57292ZM26.8939 11.0054L25.9234 11.2467L26.5628 13.8189L27.7819 11.4654L26.8939 11.0054ZM31.3386 7.96005L31.3306 6.96009L31.3386 7.96005ZM35.4603 10.7693L34.5142 11.0931V11.0931L35.4603 10.7693ZM35.3124 18.5389L34.4075 18.1132L33.7368 19.5389H35.3124V18.5389ZM36.9357 20.3331L35.9551 20.137V20.137L36.9357 20.3331ZM34.2022 34.0004L33.2216 33.8043L32.9789 35.0176L34.2162 35.0003L34.2022 34.0004ZM38.6703 36.8936L37.7941 37.3757L39.6415 36.6555L38.6703 36.8936ZM38.9809 32.1048L38.0198 31.8288L38.9809 32.1048ZM41.7027 27.598L42.5068 27.0034L41.9122 26.1994L41.1081 26.7939L41.7027 27.598ZM42.2973 28.402L42.8919 29.2061L43.6959 28.6115L43.1013 27.8074L42.2973 28.402ZM39.9421 32.3808L40.9033 32.6569L39.9421 32.3808ZM39.6958 36.8523L39.9911 37.8077L40.9465 37.5124L40.6512 36.557L39.6958 36.8523ZM38.7954 37.1307L38.5001 36.1753L37.3681 36.5252L37.9032 37.5823L38.7954 37.1307ZM39.1036 37.8143L40.0321 37.4429L39.1036 37.8143ZM39.1951 37.968L39.7566 37.1406L39.7482 37.1349L39.7397 37.1294L39.1951 37.968ZM39.1952 37.9681L38.6337 38.7956L38.6405 38.8002L39.1952 37.9681ZM39.1953 37.9682L38.6406 38.8002L38.6408 38.8004L39.1953 37.9682ZM39.4267 37.9823L39.1152 37.032L39.1151 37.0321L39.4267 37.9823ZM39.4439 37.9732L38.8103 37.1996L38.8102 37.1996L39.4439 37.9732ZM39.5358 37.8143L38.6073 37.4429L38.6073 37.4429L39.5358 37.8143ZM44.375 34V35V34ZM48.4743 36.8419L47.5257 37.1581L48.4743 36.8419ZM46.7747 46.8049L47.5124 47.48L46.7747 46.8049ZM43.7677 49.02L43.3491 48.1118L43.3491 48.1118L43.7677 49.02ZM42.4289 49.4767L42.6277 50.4567L42.6277 50.4567L42.4289 49.4767ZM41.3419 49.4743L41.6581 48.5256L41.6581 48.5256L41.3419 49.4743ZM41.2299 49.437L40.5228 50.1441L40.6897 50.311L40.9137 50.3857L41.2299 49.437ZM40.057 48.601L40.3821 47.6553L40.3821 47.6553L40.057 48.601ZM38.5779 48.6006L38.2505 47.6557L38.2505 47.6557L38.5779 48.6006ZM37.4094 49.437L37.7257 50.3857L37.9496 50.311L38.1166 50.1441L37.4094 49.437ZM37.2975 49.4743L36.9813 48.5256L36.9812 48.5256L37.2975 49.4743ZM36.2104 49.4767L36.0116 50.4567H36.0116L36.2104 49.4767ZM34.8716 49.02L35.2902 48.1118L35.2902 48.1118L34.8716 49.02ZM31.8647 46.8049L32.6024 46.1298H32.6024L31.8647 46.8049ZM31.6823 46.5997L32.4394 45.9464L31.1029 44.3977L30.7017 46.4036L31.6823 46.5997ZM31.1558 49.2323L32.1364 49.4285L31.1558 49.2323ZM7.37236 49.2579L6.39534 49.4711H6.39534L7.37236 49.2579ZM1.06706 20.3586L2.04408 20.1455H2.04408L1.06706 20.3586ZM2.4653 18.5404L2.50889 19.5394L4.01236 19.4738L3.36946 18.1132L2.4653 18.5404ZM1.52407 15.6516L0.544373 15.8521H0.544373L1.52407 15.6516ZM3.65327 11.1408L3.15327 10.2748V10.2748L3.65327 11.1408ZM9.75133 12.0245L9.13294 12.8103L9.13294 12.8103L9.75133 12.0245ZM9.90742 12.1119L9.85427 13.1105L9.85602 13.1106L9.90742 12.1119ZM9.90755 12.1119L9.9783 11.1144L9.96863 11.1137L9.95896 11.1132L9.90755 12.1119ZM9.90769 12.1119L9.83694 13.1094L9.84384 13.1099L9.90769 12.1119ZM10.0535 12.0544L10.5535 12.9204L10.5535 12.9204L10.0535 12.0544ZM10.1151 12.0084L10.86 12.6756L10.86 12.6756L10.1151 12.0084ZM10.1255 11.992L9.18992 11.6389L9.1899 11.6389L10.1255 11.992ZM10.1256 11.8084L11.1154 11.6658L11.1154 11.6658L10.1256 11.8084ZM10.0722 11.3562L11.0681 11.2652L10.8621 9.00894L9.33394 10.6817L10.0722 11.3562ZM9.58243 11.8924L8.90796 12.6307L9.64627 13.3051L10.3207 12.5668L9.58243 11.8924ZM7.15969 7.17709L6.1877 7.41208V7.41208L7.15969 7.17709ZM7.3295 1.62183L7.7395 0.70974L6.82742 0.29974L6.41742 1.21183L7.3295 1.62183ZM8.24159 2.03183L9.15368 2.44182L9.56367 1.52974L8.65159 1.11974L8.24159 2.03183ZM8.13169 6.94209L9.10368 6.70709V6.70709L8.13169 6.94209ZM10.045 10.9435L9.31301 11.6248L11.1521 13.6009L11.0442 10.9036L10.045 10.9435ZM12.4093 6.08548L11.9093 5.21945V5.21945L12.4093 6.08548ZM17.3804 6.49694L16.7169 7.24514L16.7169 7.24514L17.3804 6.49694ZM19.244 8.5214L18.4372 9.11214L18.9382 9.7964L19.6951 9.41392L19.244 8.5214ZM22.7183 8.28377L23.0433 7.33806L22.7183 8.28377ZM26.0976 11.816L27.0231 11.4373L27.0231 11.4373L26.0976 11.816ZM26.1903 11.9691L25.6515 12.8115L25.6524 12.8121L26.1903 11.9691ZM26.1904 11.9691L26.7369 11.1316L26.7282 11.1261L26.1904 11.9691ZM26.1905 11.9692L26.7384 11.1326L26.737 11.1317L26.1905 11.9692ZM26.3457 11.991L26.3536 12.991H26.3536L26.3457 11.991ZM26.422 11.9815L26.1029 11.0337L26.1028 11.0338L26.422 11.9815ZM26.4328 11.9767L25.9316 11.1114L25.9316 11.1114L26.4328 11.9767ZM26.4391 11.9723L27.0789 12.7409L27.079 12.7408L26.4391 11.9723ZM26.5297 11.8126L27.4611 12.1766L27.4611 12.1766L26.5297 11.8126ZM26.7335 11.3333L27.6414 11.7524L28.6032 9.66893L26.4223 10.383L26.7335 11.3333ZM26.0156 11.5684L25.0653 11.8796L25.3764 12.8299L26.3268 12.5187L26.0156 11.5684ZM19.8015 9.36234L19.3812 8.45496L18.3746 8.92123L18.9424 9.87421L19.8015 9.36234ZM21.1026 13.679L20.1033 13.7151L21.1026 13.679ZM19.9273 18.5389L19.0501 18.0587L18.2399 19.5389H19.9273V18.5389ZM34.1911 18.5389V19.5389H34.7836L35.0682 19.0192L34.1911 18.5389ZM34.5142 11.0931L35.4603 10.7693V10.7693L34.5142 11.0931ZM31.3465 8.96002L31.3544 9.95999L31.3465 8.96002ZM27.4611 12.1766L28.3925 12.5406L28.3925 12.5406L27.4611 12.1766ZM27.0789 12.7408L27.7188 13.5093L27.7188 13.5093L27.0789 12.7408ZM26.3536 12.991L26.3457 11.991L26.3536 12.991ZM25.6451 12.8074L26.1904 11.9691L26.1904 11.9691L25.6451 12.8074ZM25.1721 12.1948L26.0976 11.816V11.816L25.1721 12.1948ZM22.3932 9.22947L22.7183 8.28377L22.3932 9.22947ZM3.58356 18.5389L2.70168 19.0104L2.98424 19.5389H3.58356V18.5389ZM18.7657 18.5389V19.5389H19.3126L19.6077 19.0784L18.7657 18.5389ZM2.50377 15.4511L3.48347 15.2506L2.50377 15.4511ZM4.15327 12.0068L3.65327 11.1408V11.1408L4.15327 12.0068ZM9.13294 12.8103L9.75133 12.0245H9.75133L9.13294 12.8103ZM9.8466 13.11L9.78565 14.1082H9.78565L9.8466 13.11ZM10.5535 12.9204L10.0535 12.0544L10.0535 12.0544L10.5535 12.9204ZM11.0611 12.345L10.1255 11.992V11.992L11.0611 12.345ZM11.1154 11.6658L10.1256 11.8084L10.1256 11.8084L11.1154 11.6658ZM12.9093 6.9515L12.4093 6.08548V6.08548L12.9093 6.9515ZM16.7169 7.24514L17.3804 6.49694L16.7169 7.24514ZM20.1033 13.7151L21.1026 13.679V13.679L20.1033 13.7151ZM30.165 36.8419L31.1137 37.1581L30.165 36.8419ZM30.8788 45.5184L31.8594 45.7145L31.938 45.3215L31.7234 44.983L30.8788 45.5184ZM33.1544 34.1402L33.4025 35.1089L34.0117 34.9529L34.135 34.3363L33.1544 34.1402ZM35.6411 21.7071L36.6216 21.9032L34.7074 21.3488L35.6411 21.7071ZM20.0717 35.3985L19.9521 34.4057L20.0717 35.3985ZM9.50342 32.2576L8.87633 33.0365L9.50342 32.2576ZM2.36269 21.6058L3.29793 21.2518L1.38568 21.8189L2.36269 21.6058ZM8.34938 49.0448L7.37236 49.2579H7.37236L8.34938 49.0448ZM30.1752 49.0362L31.1558 49.2323L31.1558 49.2323L30.1752 49.0362ZM35.3257 19.5389L36.2833 19.8268L36.6706 18.5389H35.3257V19.5389ZM2.69534 19.5389V18.5389H1.31697L1.74471 19.8492L2.69534 19.5389ZM19.9521 34.4057L20.0717 35.3985L19.9521 34.4057ZM10.1305 31.4786L10.7576 30.6997L10.1305 31.4786ZM31.1137 37.1581L30.165 36.8419L31.1137 37.1581ZM34.2644 35L34.2644 36H34.2644V35ZM32.6024 46.1298L31.8647 46.8049V46.8049L32.6024 46.1298ZM35.2902 48.1118L34.8716 49.02L35.2902 48.1118ZM36.4092 48.4966L36.2104 49.4767L36.2104 49.4767L36.4092 48.4966ZM36.8938 48.5409L36.9774 49.5374L37.3289 49.5079L37.5842 49.2644L36.8938 48.5409ZM38.2505 47.6557L37.9231 46.7108L37.9231 46.7108L38.2505 47.6557ZM39.2952 47.5063L39.2956 46.5063H39.2955L39.2952 47.5063ZM39.3141 47.5063L39.3137 48.5063H39.3145L39.3141 47.5063ZM39.3329 47.5063L39.3325 46.5063H39.3325L39.3329 47.5063ZM40.3821 47.6553L40.057 48.601L40.057 48.601L40.3821 47.6553ZM41.7455 48.5409L41.0554 49.2646L41.3105 49.5079L41.6619 49.5374L41.7455 48.5409ZM42.2301 48.4966L42.4289 49.4767H42.4289L42.2301 48.4966ZM43.3491 48.1118L43.7677 49.02L43.3491 48.1118ZM46.0369 46.1298L46.7747 46.8049L46.0369 46.1298ZM47.5257 37.1581L48.4743 36.8419L47.5257 37.1581ZM44.375 35V36V35ZM40.4642 38.1857L41.3927 38.5571V38.5571L40.4642 38.1857ZM40.0776 38.7468L40.7113 39.5204L40.7113 39.5204L40.0776 38.7468ZM38.6433 38.8021L39.1952 37.9681V37.9681L38.6433 38.8021ZM38.1751 38.1857L39.1036 37.8143V37.8143L38.1751 38.1857ZM28.5322 0.763199C26.9005 1.95325 25.8359 4.05932 25.2722 6.02041L27.1944 6.57292C27.7039 4.80016 28.5975 3.191 29.7107 2.37907L28.5322 0.763199ZM30.5186 1.78981L29.9294 0.981868L28.3135 2.16041L28.9028 2.96834L30.5186 1.78981ZM28.1555 6.84918C28.6379 5.17086 29.4458 3.80998 30.3 3.18701L29.1214 1.57114C27.749 2.57208 26.77 4.42964 26.2333 6.29666L28.1555 6.84918ZM27.8644 10.7642C27.642 9.86964 27.7108 8.3961 28.1555 6.84918L26.2333 6.29667C25.7321 8.04031 25.5869 9.89307 25.9234 11.2467L27.8644 10.7642ZM31.3306 6.96009C29.2626 6.97648 27.2458 8.15176 26.0059 10.5455L27.7819 11.4654C28.7162 9.6613 30.0944 8.96995 31.3465 8.96002L31.3306 6.96009ZM36.4065 10.4456C35.6654 8.27991 33.5368 6.9426 31.3306 6.96009L31.3465 8.96002C32.7783 8.94867 34.0788 9.82084 34.5142 11.0931L36.4065 10.4456ZM36.2172 18.9646C37.2754 16.7153 37.5728 13.8544 36.4065 10.4456L34.5142 11.0931C35.524 14.0443 35.2298 16.3652 34.4075 18.1132L36.2172 18.9646ZM35.3124 19.5389H35.4648V17.5389H35.3124V19.5389ZM35.4648 19.5389C35.7803 19.5389 36.017 19.8276 35.9551 20.137L37.9162 20.5292C38.2256 18.9822 37.0424 17.5389 35.4648 17.5389V19.5389ZM35.9551 20.137L33.2216 33.8043L35.1828 34.1965L37.9162 20.5292L35.9551 20.137ZM34.2162 35.0003C34.2322 35.0001 34.2483 35 34.2644 35V33C34.239 33 34.2136 33.0002 34.1882 33.0005L34.2162 35.0003ZM34.2644 35C35.4947 35 36.848 35.6562 37.7941 37.3757L39.5464 36.4115C38.2827 34.1151 36.292 33 34.2644 33V35ZM39.6415 36.6555C39.3756 35.5706 39.4893 33.9578 39.9421 32.3808L38.0198 31.8288C37.513 33.5938 37.32 35.5853 37.699 37.1317L39.6415 36.6555ZM39.9421 32.3809C40.4278 30.6895 41.2671 29.1638 42.2973 28.402L41.1081 26.7939C39.5624 27.9369 38.5565 29.9599 38.0198 31.8288L39.9421 32.3809ZM40.8987 28.1925L41.4932 28.9966L43.1013 27.8074L42.5068 27.0034L40.8987 28.1925ZM41.7027 27.598C40.4148 28.5504 39.4921 30.3246 38.9809 32.1048L40.9033 32.6569C41.3634 31.0545 42.1192 29.7774 42.8919 29.2061L41.7027 27.598ZM38.9809 32.1048C38.4694 33.8862 38.3289 35.8165 38.7404 37.1476L40.6512 36.557C40.4019 35.7506 40.4441 34.2557 40.9033 32.6569L38.9809 32.1048ZM39.4005 35.8969L38.5001 36.1753L39.0907 38.0861L39.9911 37.8077L39.4005 35.8969ZM37.9032 37.5823C37.9987 37.771 38.0896 37.9719 38.1751 38.1857L40.0321 37.4429C39.9255 37.1765 39.8105 36.9219 39.6876 36.679L37.9032 37.5823ZM38.1751 38.1857C38.2681 38.418 38.4098 38.6504 38.6504 38.8067L39.7397 37.1294C39.783 37.1575 39.8317 37.194 39.8799 37.2404C39.9228 37.2816 39.9546 37.3204 39.9773 37.3517C40.0211 37.4122 40.0355 37.4514 40.0321 37.4429L38.1751 38.1857ZM38.6336 38.7955L38.6337 38.7956L39.7567 37.1406L39.7566 37.1406L38.6336 38.7955ZM38.6405 38.8002L38.6406 38.8002L39.75 37.1361L39.7499 37.1361L38.6405 38.8002ZM38.6408 38.8004C38.8734 38.9554 39.1286 38.9913 39.3503 38.9913V36.9913C39.3439 36.9913 39.3866 36.9904 39.4582 37.0072C39.4955 37.016 39.5437 37.0303 39.5985 37.0538C39.6261 37.0657 39.6546 37.0796 39.6836 37.0957C39.6981 37.1037 39.7118 37.1118 39.7246 37.1198C39.7309 37.1237 39.7366 37.1273 39.7414 37.1305C39.7437 37.132 39.7457 37.1333 39.7473 37.1343C39.7487 37.1353 39.7499 37.1361 39.7498 37.136L38.6408 38.8004ZM39.3503 38.9913C39.4826 38.9913 39.6129 38.9736 39.7382 38.9325L39.1151 37.0321C39.2204 36.9975 39.3044 36.9913 39.3503 36.9913V38.9913ZM39.7382 38.9325C39.8649 38.891 39.9783 38.8282 40.0776 38.7468L38.8102 37.1996C38.8395 37.1756 38.889 37.138 38.9558 37.1013C39.0193 37.0665 39.0754 37.0451 39.1152 37.032L39.7382 38.9325ZM40.0776 38.7468C40.2729 38.5869 40.3877 38.3769 40.4642 38.1857L38.6073 37.4429C38.603 37.4535 38.6114 37.4299 38.6388 37.3876C38.6661 37.3457 38.72 37.2736 38.8103 37.1996L40.0776 38.7468ZM40.4642 38.1857C41.4005 35.8451 42.9854 35 44.375 35V33C42.0455 33 39.7992 34.463 38.6073 37.4429L40.4642 38.1857ZM44.375 35C45.8068 35 47.1004 35.8824 47.5257 37.1581L49.423 36.5256C48.6992 34.3541 46.5812 33 44.375 33L44.375 35ZM47.5257 37.1581C48.923 41.35 47.7231 44.2872 46.0369 46.1298L47.5124 47.48C49.662 45.1309 51.062 41.4425 49.423 36.5256L47.5257 37.1581ZM46.0369 46.1298C45.1842 47.0617 44.2009 47.7192 43.3491 48.1118L44.1863 49.9281C45.2609 49.4328 46.4666 48.6229 47.5124 47.48L46.0369 46.1298ZM43.3491 48.1118C42.9231 48.3081 42.5393 48.4339 42.2301 48.4966L42.6277 50.4567C43.1174 50.3574 43.6493 50.1756 44.1863 49.9281L43.3491 48.1118ZM42.2301 48.4966C41.9033 48.5629 41.7202 48.5463 41.6581 48.5256L41.0257 50.423C41.5901 50.6111 42.1924 50.545 42.6277 50.4567L42.2301 48.4966ZM41.6581 48.5256L41.5461 48.4883L40.9137 50.3857L41.0257 50.423L41.6581 48.5256ZM41.937 48.7299L41.8535 48.6464L40.4393 50.0606L40.5228 50.1441L41.937 48.7299ZM41.8535 48.6464C41.3119 48.1047 40.8276 47.8085 40.3821 47.6553L39.7318 49.5466C39.8312 49.5808 40.0643 49.6856 40.4393 50.0606L41.8535 48.6464ZM40.3821 47.6553C39.9362 47.502 39.5642 47.5063 39.3141 47.5063V49.5063C39.5598 49.5063 39.6319 49.5123 39.7319 49.5466L40.3821 47.6553ZM39.3141 47.5063C39.0641 47.5063 38.6942 47.502 38.2505 47.6557L38.9053 49.5455C39.0007 49.5124 39.0682 49.5063 39.3141 49.5063V47.5063ZM38.2505 47.6557C37.8077 47.8091 37.3266 48.1056 36.7858 48.6464L38.2 50.0606C38.5776 49.683 38.8092 49.5788 38.9053 49.5455L38.2505 47.6557ZM36.7858 48.6464L36.7023 48.7299L38.1166 50.1441L38.2 50.0606L36.7858 48.6464ZM37.0932 48.4883L36.9813 48.5256L37.6137 50.423L37.7257 50.3857L37.0932 48.4883ZM36.9812 48.5256C36.9192 48.5463 36.7361 48.5629 36.4092 48.4966L36.0116 50.4567C36.447 50.545 37.0493 50.6111 37.6137 50.423L36.9812 48.5256ZM36.4092 48.4966C36.1 48.4339 35.7162 48.3081 35.2902 48.1118L34.453 49.9281C34.99 50.1756 35.522 50.3574 36.0116 50.4567L36.4092 48.4966ZM35.2902 48.1118C34.4385 47.7192 33.4551 47.0617 32.6024 46.1298L31.1269 47.48C32.1727 48.6229 33.3784 49.4328 34.4531 49.9281L35.2902 48.1118ZM32.6024 46.1298C32.5475 46.0698 32.4931 46.0086 32.4394 45.9464L30.9253 47.2531C30.9918 47.3301 31.059 47.4058 31.1269 47.48L32.6024 46.1298ZM30.7017 46.4036L30.1752 49.0362L32.1364 49.4285L32.6629 46.7959L30.7017 46.4036ZM30.1752 49.0362C30.1285 49.2699 29.9233 49.4382 29.6849 49.4382V51.4382C30.8766 51.4382 31.9027 50.597 32.1364 49.4285L30.1752 49.0362ZM29.6849 49.4382H8.83788V51.4382H29.6849V49.4382ZM8.83788 49.4382C8.60281 49.4382 8.39949 49.2744 8.34938 49.0448L6.39534 49.4711C6.64589 50.6194 7.66253 51.4382 8.83788 51.4382V49.4382ZM8.34938 49.0448L2.04408 20.1455L0.0900488 20.5718L6.39534 49.4711L8.34938 49.0448ZM2.04408 20.1455C1.97777 19.8415 2.20244 19.5528 2.50889 19.5394L2.42172 17.5413C0.882073 17.6085 -0.242128 19.0493 0.0900489 20.5718L2.04408 20.1455ZM3.36946 18.1132C3.00869 17.3496 2.71181 16.4678 2.50377 15.4511L0.544373 15.8521C0.781925 17.0129 1.12686 18.0484 1.56115 18.9676L3.36946 18.1132ZM2.50377 15.4511C2.2342 14.1338 2.91326 12.7227 4.15327 12.0068L3.15327 10.2748C1.24264 11.3779 0.0854868 13.6096 0.544373 15.8521L2.50377 15.4511ZM4.15327 12.0068C5.35673 11.312 7.15182 11.2514 9.13294 12.8103L10.3697 11.2386C7.8475 9.25391 5.17065 9.11004 3.15327 10.2748L4.15327 12.0068ZM9.13294 12.8103C9.32992 12.9653 9.56852 13.0953 9.85427 13.1105L9.96058 11.1133C9.96051 11.1133 9.96225 11.1134 9.9644 11.1135C9.96669 11.1136 9.9695 11.1138 9.97273 11.114C9.97928 11.1145 9.98658 11.115 9.99451 11.1157C10.0104 11.1171 10.0267 11.119 10.0433 11.1213C10.0764 11.1259 10.1076 11.1321 10.1367 11.1393C10.1944 11.1536 10.2414 11.1713 10.2767 11.187C10.3449 11.2175 10.3769 11.2443 10.3697 11.2386L9.13294 12.8103ZM9.85602 13.1106L9.85615 13.1106L9.95896 11.1132L9.95883 11.1132L9.85602 13.1106ZM9.83681 13.1094L9.83694 13.1094L9.97843 11.1144L9.9783 11.1144L9.83681 13.1094ZM9.84384 13.1099C10.1225 13.1277 10.3614 13.0313 10.5535 12.9204L9.55347 11.1884C9.54796 11.1915 9.58444 11.1694 9.65493 11.1482C9.69162 11.1372 9.74046 11.1255 9.79965 11.1185C9.82953 11.1149 9.86115 11.1127 9.89429 11.1121C9.91085 11.1118 9.92671 11.112 9.94176 11.1125C9.94921 11.1127 9.95588 11.1131 9.96159 11.1134C9.96439 11.1135 9.96678 11.1136 9.96861 11.1138C9.9703 11.1139 9.97169 11.114 9.97154 11.1139L9.84384 13.1099ZM10.5535 12.9204C10.668 12.8543 10.772 12.7739 10.86 12.6756L9.37023 11.3412C9.44416 11.2587 9.51373 11.2113 9.55347 11.1884L10.5535 12.9204ZM10.86 12.6756C10.949 12.5762 11.0158 12.4651 11.0611 12.345L9.1899 11.6389C9.20328 11.6035 9.2273 11.5462 9.26686 11.481C9.30439 11.4191 9.34229 11.3724 9.3702 11.3413L10.86 12.6756ZM11.0611 12.345C11.1502 12.1089 11.1448 11.8697 11.1154 11.6658L9.13581 11.951C9.13744 11.9623 9.13282 11.9376 9.13549 11.8873C9.13814 11.8374 9.14873 11.748 9.18992 11.6389L11.0611 12.345ZM11.1154 11.6658C11.0957 11.5293 11.08 11.3958 11.0681 11.2652L9.07639 11.4471C9.09153 11.6129 9.1113 11.7809 9.13581 11.951L11.1154 11.6658ZM9.33394 10.6817L8.84412 11.2179L10.3207 12.5668L10.8106 12.0306L9.33394 10.6817ZM10.2569 11.1541C9.38347 10.3562 8.56745 8.7445 8.13169 6.94209L6.1877 7.41208C6.66901 9.40287 7.61879 11.453 8.90796 12.6307L10.2569 11.1541ZM8.13169 6.94209C7.69593 5.1397 7.67552 3.2911 8.24159 2.03183L6.41742 1.21183C5.58828 3.05633 5.70635 5.42114 6.1877 7.41208L8.13169 6.94209ZM6.9195 2.53391L7.83159 2.94391L8.65159 1.11974L7.7395 0.70974L6.9195 2.53391ZM7.3295 1.62183C6.63193 3.17366 6.70111 5.28033 7.15969 7.17709L9.10368 6.70709C8.69078 4.99925 8.71907 3.40865 9.15368 2.44182L7.3295 1.62183ZM7.15969 7.17709C7.584 8.93212 8.36452 10.6056 9.31301 11.6248L10.7771 10.2622C10.1419 9.57972 9.47999 8.26355 9.10368 6.70709L7.15969 7.17709ZM11.0442 10.9036C10.9627 8.86462 11.8226 7.57896 12.9093 6.9515L11.9093 5.21945C10.1138 6.2561 8.93779 8.28023 9.04584 10.9835L11.0442 10.9036ZM12.9093 6.9515C14.1494 6.23558 15.7109 6.35301 16.7169 7.24514L18.0439 5.74873C16.3313 4.23008 13.82 4.11635 11.9093 5.21945L12.9093 6.9515ZM16.7169 7.24514C17.415 7.8641 17.9816 8.48991 18.4372 9.11214L20.0509 7.93067C19.5055 7.18571 18.8409 6.45549 18.0439 5.74873L16.7169 7.24514ZM23.0433 7.33806C21.5747 6.83331 20.0464 6.99553 18.793 7.62888L19.6951 9.41392C20.492 9.01122 21.4614 8.9092 22.3932 9.22947L23.0433 7.33806ZM27.0231 11.4373C26.1436 9.28824 24.7146 7.91247 23.0433 7.33806L22.3932 9.22947C23.4279 9.58506 24.4713 10.4823 25.1721 12.1948L27.0231 11.4373ZM26.729 11.1266C26.7289 11.1265 26.7304 11.1275 26.7322 11.1286C26.7341 11.1299 26.7365 11.1314 26.7392 11.1332C26.7446 11.1368 26.7507 11.1409 26.7573 11.1454C26.7704 11.1544 26.7837 11.1641 26.797 11.1743C26.8235 11.1947 26.8476 11.2154 26.8693 11.236C26.9125 11.2769 26.9447 11.3154 26.9676 11.3465C27.0118 11.4067 27.0266 11.4458 27.0231 11.4373L25.1721 12.1948C25.267 12.4268 25.4105 12.6574 25.6515 12.8115L26.729 11.1266ZM26.7282 11.1261L26.7281 11.126L25.6524 12.8121L25.6525 12.8122L26.7282 11.1261ZM26.737 11.1317L26.7368 11.1317L25.6439 12.8066L25.644 12.8067L26.737 11.1317ZM26.3377 10.9911C26.3314 10.9911 26.374 10.9899 26.4458 11.0062C26.4832 11.0147 26.5314 11.0286 26.5864 11.0517C26.6142 11.0633 26.6428 11.077 26.6719 11.0928C26.6865 11.1008 26.7002 11.1088 26.7131 11.1166C26.7194 11.1205 26.7251 11.1241 26.7299 11.1272C26.7323 11.1287 26.7343 11.13 26.7359 11.131C26.7373 11.132 26.7385 11.1327 26.7384 11.1327L25.6426 12.8057C25.8764 12.9589 26.1319 12.9928 26.3536 12.991L26.3377 10.9911ZM26.1028 11.0338C26.2079 10.9983 26.2919 10.9914 26.3377 10.9911L26.3536 12.991C26.4858 12.99 26.616 12.9713 26.7411 12.9292L26.1028 11.0338ZM25.9316 11.1114C25.9995 11.0721 26.0602 11.0481 26.1029 11.0337L26.741 12.9292C26.7931 12.9117 26.8605 12.8846 26.9341 12.842L25.9316 11.1114ZM25.7994 11.2037C25.8258 11.1817 25.8708 11.1467 25.9316 11.1114L26.934 12.8421C26.9997 12.804 27.0486 12.766 27.0789 12.7409L25.7994 11.2037ZM25.5983 11.4486C25.5942 11.4592 25.6023 11.4355 25.6294 11.393C25.6564 11.3509 25.7096 11.2784 25.7993 11.2038L27.079 12.7408C27.2729 12.5793 27.3861 12.3685 27.4611 12.1766L25.5983 11.4486ZM25.8256 10.9142C25.7459 11.0868 25.6701 11.2649 25.5983 11.4486L27.4611 12.1766C27.5187 12.0293 27.5789 11.8879 27.6414 11.7524L25.8256 10.9142ZM26.3268 12.5187L27.0447 12.2837L26.4223 10.383L25.7044 10.618L26.3268 12.5187ZM25.2722 6.02041C24.7088 7.98056 24.5232 10.2241 25.0653 11.8796L26.966 11.2572C26.6001 10.1397 26.6847 8.34597 27.1944 6.57292L25.2722 6.02041ZM18.9424 9.87421C19.725 11.1876 20.0592 12.4929 20.1033 13.7151L22.102 13.643C22.0462 12.0961 21.6207 10.4618 20.6606 8.85047L18.9424 9.87421ZM20.1033 13.7151C20.1637 15.3904 19.6783 16.9111 19.0501 18.0587L20.8045 19.0191C21.5719 17.617 22.1777 15.7422 22.102 13.643L20.1033 13.7151ZM19.9273 19.5389H34.1911V17.5389H19.9273V19.5389ZM33.568 11.4168C34.5714 14.3492 34.1593 16.5147 33.3139 18.0586L35.0682 19.0192C36.1975 16.9566 36.6358 14.2048 35.4603 10.7693L33.568 11.4168ZM31.3544 9.95999C32.3962 9.95173 33.2847 10.5888 33.568 11.4168L35.4603 10.7693C34.8725 9.05136 33.1587 7.94563 31.3386 7.96005L31.3544 9.95999ZM28.3925 12.5406C29.1838 10.5161 30.4321 9.9673 31.3544 9.95999L31.3386 7.96005C29.4801 7.97479 27.5731 9.14294 26.5297 11.8126L28.3925 12.5406ZM27.7188 13.5093C28.095 13.1961 28.2869 12.8108 28.3925 12.5406L26.5297 11.8126C26.4852 11.9265 26.4507 11.9627 26.4391 11.9723L27.7188 13.5093ZM26.3615 13.991C26.8244 13.9873 27.3078 13.8515 27.7188 13.5093L26.4391 11.9723C26.4344 11.9762 26.4305 11.9786 26.4224 11.9813C26.4127 11.9846 26.389 11.9907 26.3457 11.991L26.3615 13.991ZM25.0999 13.6457C25.5555 13.942 26.0268 13.9936 26.3615 13.991L26.3457 11.991C26.2234 11.992 26.1929 11.9708 26.1904 11.9691L25.0999 13.6457ZM24.2466 12.5735C24.3915 12.9276 24.6415 13.3476 25.0999 13.6457L26.1904 11.9691C26.1888 11.9681 26.1506 11.9455 26.0976 11.816L24.2466 12.5735ZM22.0682 10.1752C22.7853 10.4216 23.6355 11.0802 24.2466 12.5735L26.0976 11.816C25.3073 9.88489 24.0709 8.74866 22.7183 8.28377L22.0682 10.1752ZM20.2218 10.2697C20.7746 10.0137 21.4334 9.95701 22.0682 10.1752L22.7183 8.28377C21.5708 7.8894 20.3783 7.99309 19.3812 8.45496L20.2218 10.2697ZM3.58356 19.5389H18.7657V17.5389H3.58356V19.5389ZM1.52407 15.6516C1.78943 16.9484 2.194 18.0607 2.70168 19.0104L4.46545 18.0674C4.05661 17.3027 3.71359 16.3752 3.48347 15.2506L1.52407 15.6516ZM3.65327 11.1408C2.07698 12.0509 1.16005 13.8727 1.52407 15.6516L3.48347 15.2506C3.30802 14.3933 3.75102 13.3938 4.65327 12.8728L3.65327 11.1408ZM9.75133 12.0245C7.49877 10.252 5.26281 10.2115 3.65327 11.1408L4.65327 12.8728C5.45206 12.4117 6.80632 12.252 8.51455 13.5962L9.75133 12.0245ZM9.90756 12.1119C9.90569 12.1118 9.86128 12.111 9.75133 12.0245L8.51455 13.5962C8.81525 13.8328 9.23987 14.0748 9.78565 14.1082L9.90756 12.1119ZM10.0535 12.0544C9.94759 12.1155 9.9106 12.1121 9.90755 12.1119L9.78565 14.1082C10.3282 14.1413 10.7636 13.9538 11.0535 13.7864L10.0535 12.0544ZM10.1255 11.992C10.1233 11.9977 10.1212 12.0017 10.1155 12.008C10.1086 12.0157 10.091 12.0327 10.0535 12.0544L11.0535 13.7864C11.4544 13.555 11.8079 13.1985 11.9967 12.6981L10.1255 11.992ZM10.1256 11.8084C10.143 11.9294 10.1308 11.9779 10.1255 11.992L11.9967 12.6981C12.1696 12.2401 12.1465 11.8103 12.1052 11.5232L10.1256 11.8084ZM12.4093 6.08548C10.7998 7.01475 9.71685 8.97137 10.1256 11.8084L12.1052 11.5232C11.7952 9.37172 12.6106 8.27871 13.4093 7.81753L12.4093 6.08548ZM17.3804 6.49694C16.0219 5.29224 13.9856 5.17541 12.4093 6.08548L13.4093 7.81753C14.3116 7.29661 15.3987 7.41272 16.0535 7.99334L17.3804 6.49694ZM21.1026 13.679C21.0197 11.3787 20.026 8.84288 17.3804 6.49694L16.0535 7.99334C18.314 9.99786 19.0418 12.029 19.1039 13.7511L21.1026 13.679ZM19.6077 19.0784C20.4476 17.7675 21.1809 15.8492 21.1026 13.679L19.1039 13.7511C19.1648 15.4383 18.5891 16.9609 17.9237 17.9994L19.6077 19.0784ZM29.2163 36.5256C27.8862 40.5159 28.5529 43.7173 30.0342 46.0539L31.7234 44.983C30.5725 43.1677 29.9685 40.5936 31.1137 37.1581L29.2163 36.5256ZM32.9064 33.1714C31.2442 33.5971 29.7902 34.8039 29.2163 36.5256L31.1137 37.1581C31.4501 36.1488 32.3266 35.3844 33.4025 35.1089L32.9064 33.1714ZM34.6605 21.511L32.1739 33.9441L34.135 34.3363L36.6216 21.9032L34.6605 21.511ZM20.1913 36.3913C27.1345 35.555 33.5257 30.0096 36.5747 22.0654L34.7074 21.3488C31.86 28.7681 25.9972 33.6775 19.9521 34.4057L20.1913 36.3913ZM8.87633 33.0365C12.3533 35.8356 16.3156 36.8581 20.1913 36.3913L19.9521 34.4057C16.6117 34.808 13.1878 33.9399 10.1305 31.4786L8.87633 33.0365ZM1.42746 21.9598C3.32797 26.9804 5.89619 30.6374 8.87633 33.0365L10.1305 31.4786C7.48942 29.3524 5.10366 26.022 3.29793 21.2518L1.42746 21.9598ZM9.32639 48.8316L3.33971 21.3926L1.38568 21.8189L7.37236 49.2579L9.32639 48.8316ZM8.83788 48.4382C9.07296 48.4382 9.27628 48.6019 9.32639 48.8316L7.37236 49.2579C7.52269 49.9469 8.13267 50.4382 8.83788 50.4382V48.4382ZM29.6849 48.4382H8.83788V50.4382H29.6849V48.4382ZM29.1946 48.8401C29.2414 48.6064 29.4466 48.4382 29.6849 48.4382V50.4382C30.4 50.4382 31.0156 49.9335 31.1558 49.2323L29.1946 48.8401ZM29.8982 45.3223L29.1946 48.8401L31.1558 49.2323L31.8594 45.7145L29.8982 45.3223ZM35.3257 18.5389H2.69534V20.5389H35.3257V18.5389ZM20.0717 35.3985C27.0835 34.5539 33.668 28.5255 36.2833 19.8268L34.368 19.251C31.9253 27.3757 25.8776 32.6847 19.8325 33.4128L20.0717 35.3985ZM9.50342 32.2576C12.7705 34.8878 16.4637 35.8331 20.0717 35.3985L19.8325 33.4128C16.7598 33.783 13.6051 32.9921 10.7576 30.6997L9.50342 32.2576ZM1.74471 19.8492C3.64657 25.6753 6.36729 29.7329 9.50342 32.2576L10.7576 30.6997C7.99945 28.4793 5.46189 24.7913 3.64597 19.2286L1.74471 19.8492ZM32.0624 37.4743C32.3391 36.6441 33.2225 36 34.2644 36L34.2644 34C32.4442 34 30.7392 35.1193 30.165 36.8419L32.0624 37.4743ZM33.3402 45.4548C31.886 43.8656 30.7858 41.3041 32.0624 37.4743L30.165 36.8419C28.6469 41.3961 29.9467 44.709 31.8647 46.8049L33.3402 45.4548ZM35.7088 47.2036C34.9685 46.8624 34.0963 46.2811 33.3402 45.4548L31.8647 46.8049C32.8139 47.8423 33.9084 48.576 34.8716 49.02L35.7088 47.2036ZM36.608 47.5166C36.389 47.4722 36.0793 47.3744 35.7088 47.2036L34.8716 49.02C35.3531 49.2419 35.811 49.3956 36.2104 49.4767L36.608 47.5166ZM36.8102 47.5444C36.825 47.5431 36.816 47.5451 36.7793 47.5423C36.7438 47.5395 36.6873 47.5327 36.608 47.5166L36.2104 49.4767C36.507 49.5368 36.7638 49.5553 36.9774 49.5374L36.8102 47.5444ZM37.9231 46.7108C37.3486 46.9099 36.7825 47.2649 36.2035 47.8174L37.5842 49.2644C37.9994 48.8681 38.3261 48.6878 38.5779 48.6006L37.9231 46.7108ZM39.2955 46.5063C39.0295 46.5062 38.524 46.5026 37.9231 46.7108L38.5779 48.6006C38.8407 48.5095 39.0579 48.5062 39.2948 48.5063L39.2955 46.5063ZM39.3145 46.5063L39.2956 46.5063L39.2947 48.5063L39.3137 48.5063L39.3145 46.5063ZM39.3325 46.5063L39.3137 46.5063L39.3145 48.5063L39.3333 48.5063L39.3325 46.5063ZM40.7073 46.7096C40.1052 46.5026 39.5985 46.5062 39.3325 46.5063L39.3333 48.5063C39.5704 48.5062 39.7908 48.5095 40.057 48.601L40.7073 46.7096ZM42.4356 47.8172C41.8539 47.2625 41.284 46.9079 40.7072 46.7096L40.057 48.601C40.3116 48.6885 40.6406 48.869 41.0554 49.2646L42.4356 47.8172ZM42.0313 47.5166C41.9521 47.5327 41.8955 47.5395 41.8601 47.5423C41.8233 47.5451 41.8143 47.5431 41.8291 47.5444L41.6619 49.5374C41.8755 49.5553 42.1323 49.5368 42.4289 49.4767L42.0313 47.5166ZM42.9306 47.2036C42.5601 47.3744 42.2503 47.4722 42.0313 47.5166L42.4289 49.4767C42.8283 49.3956 43.2862 49.2419 43.7677 49.02L42.9306 47.2036ZM45.2992 45.4548C44.543 46.2811 43.6708 46.8624 42.9306 47.2036L43.7677 49.02C44.7309 48.576 45.8254 47.8423 46.7747 46.8049L45.2992 45.4548ZM46.577 37.4743C47.8536 41.3041 46.7534 43.8656 45.2992 45.4548L46.7747 46.8049C48.6926 44.709 49.9924 41.3961 48.4743 36.8419L46.577 37.4743ZM44.375 36C45.4168 36 46.3002 36.6441 46.577 37.4743L48.4743 36.8419C47.9001 35.1193 46.1951 34 44.375 34L44.375 36ZM41.3927 38.5571C42.2 36.5389 43.4526 36 44.375 36V34C42.5165 34 40.6003 35.153 39.5358 37.8143L41.3927 38.5571ZM40.7113 39.5204C41.09 39.2101 41.285 38.8264 41.3927 38.5571L39.5358 37.8143C39.4903 37.9279 39.4555 37.9637 39.4439 37.9732L40.7113 39.5204ZM39.3503 39.9913C39.8132 39.9913 40.2976 39.8593 40.7113 39.5204L39.4439 37.9732C39.4392 37.9771 39.4353 37.9795 39.4272 37.9821C39.4174 37.9853 39.3936 37.9913 39.3503 37.9913V39.9913ZM38.0915 39.636C38.5447 39.9359 39.0156 39.9913 39.3503 39.9913V37.9913C39.2281 37.9913 39.1977 37.9698 39.1952 37.9681L38.0915 39.636ZM37.2466 38.5571C37.3887 38.9123 37.6355 39.3342 38.0915 39.636L39.1952 37.9681C39.1936 37.9671 39.1556 37.9442 39.1036 37.8143L37.2466 38.5571ZM34.2644 36C35.1867 36 36.4394 36.5389 37.2466 38.5571L39.1036 37.8143C38.0391 35.153 36.1229 34 34.2644 34V36Z" fill="#ffa5ba"/>
</svg>
