<svg width="58" height="48" viewBox="0 0 58 48" fill="none" xmlns="http://www.w3.org/2000/svg">
<path d="M4.57164 44.1788H22.9165C23.8462 46.1068 25.7915 47.3524 27.9868 47.3524H29.1453C31.3428 47.3524 33.287 46.1074 34.2167 44.1788H52.5716C54.4623 44.1788 56.0002 42.6409 56.0002 40.7503V7.89311C56.0002 6.00249 54.4623 4.46454 52.5716 4.46454H50.7201V2.9333C50.7201 1.67269 49.6944 0.647583 48.4344 0.647583H8.69775C7.43771 0.647583 6.41204 1.67269 6.41204 2.9333V4.46454H4.57164C2.68101 4.46454 1.14307 6.00249 1.14307 7.89311V40.7503C1.14307 42.6409 2.68101 44.1788 4.57164 44.1788ZM48.4321 37.1275H29.7145V10.5698C34.0409 11.1357 37.3953 14.8373 37.3953 19.3156V20.3463L37.1241 20.2865C36.8295 20.2235 36.5203 20.2765 36.2636 20.4394C36.008 20.603 35.8272 20.8608 35.7625 21.1571L33.9433 29.4361C33.8082 30.0516 34.1978 30.6604 34.8138 30.796L38.7457 31.6627C38.9489 31.7056 39.1553 31.7279 39.3618 31.7279C40.7446 31.7279 41.9221 30.7821 42.2234 29.4255L43.2759 24.6375C43.623 23.0656 42.6263 21.5019 41.0493 21.1515L39.681 20.85V19.3156C39.681 13.5745 35.3052 8.83692 29.7145 8.26019V2.9333H48.4344L48.4321 37.1275ZM37.7491 22.7648L40.556 23.3831C40.9065 23.4612 41.1207 23.7949 41.0437 24.1454L39.9913 28.9322C39.9154 29.2782 39.5326 29.493 39.2301 29.4288L36.4198 28.8094L37.7491 22.7648ZM8.69775 2.9333H27.4288V8.2585C21.8325 8.82993 17.4511 13.5706 17.4511 19.3156V20.8493L16.0806 21.1521C15.3172 21.3217 14.6654 21.7765 14.2469 22.4327C13.8261 23.0907 13.6877 23.8742 13.8574 24.6353L14.9076 29.4177C15.1922 30.7564 16.3964 31.7279 17.7714 31.7279C17.9779 31.7279 18.1844 31.7056 18.3953 31.661L22.3105 30.796C22.9254 30.6599 23.315 30.0516 23.1799 29.4361L21.3607 21.1571C21.296 20.8608 21.1152 20.6024 20.8596 20.4394C20.6029 20.2765 20.2926 20.2229 19.998 20.2865L19.7368 20.3442V19.3156C19.7368 14.8335 23.0969 11.129 27.4288 10.5681V37.1275H8.69775V5.6074V2.9333ZM19.3741 22.7659L20.7045 28.81L17.9098 29.4272C17.5661 29.5047 17.2156 29.2776 17.1419 28.9355L16.0895 24.142C16.0515 23.9757 16.0817 23.8055 16.1721 23.6638C16.2636 23.5203 16.4076 23.421 16.5739 23.3836L19.3741 22.7659ZM3.42878 7.89311C3.42878 7.26309 3.94106 6.75026 4.57164 6.75026H6.41204V37.1275C6.41204 38.3881 7.43771 39.4132 8.69775 39.4132H48.4344C49.6944 39.4132 50.7201 38.3881 50.7201 37.1275V6.75026H52.5716C53.2022 6.75026 53.7145 7.26309 53.7145 7.89311V40.7503C53.7145 41.3803 53.2022 41.8931 52.5716 41.8931H33.4399C32.9377 41.8931 32.4946 42.2207 32.3473 42.7006C31.9132 44.1158 30.6263 45.0667 29.1453 45.0667H27.9868C26.5114 45.0667 25.2257 44.1197 24.7804 42.6872C24.6285 42.214 24.1888 41.8931 23.6922 41.8931H4.57164C3.94106 41.8931 3.42878 41.3803 3.42878 40.7503V7.89311Z" fill="#FF6B09"/>
</svg>
