<svg width="20" height="20" viewBox="0 0 20 20" fill="none" xmlns="http://www.w3.org/2000/svg">
<path d="M11.5555 2.57531C11.6844 2.33094 11.7578 2.05285 11.7578 1.75781C11.7578 0.788555 10.9693 0 10 0C9.03076 0 8.2422 0.788555 8.2422 1.75781C8.2422 2.05285 8.3156 2.33094 8.44459 2.57531C4.34185 3.31164 1.21869 6.9073 1.21869 11.2187C1.21869 16.0607 5.15799 20 10 20C14.842 20 18.7813 16.0607 18.7813 11.2187C18.7813 6.9073 15.6582 3.31168 11.5555 2.57531ZM10 1.17188C10.3231 1.17188 10.586 1.43473 10.586 1.75781C10.586 2.0809 10.3231 2.34375 10 2.34375C9.67693 2.34375 9.41408 2.0809 9.41408 1.75781C9.41408 1.43473 9.67693 1.17188 10 1.17188ZM10 18.8281C5.80416 18.8281 2.39056 15.4145 2.39056 11.2187C2.39056 7.02281 5.80416 3.60922 10 3.60922C14.1959 3.60922 17.6095 7.02281 17.6095 11.2187C17.6095 15.4145 14.1959 18.8281 10 18.8281Z" fill="white" fill-opacity="0.54"/>
<path d="M14.5826 6.68113C14.5744 6.67184 14.5664 6.66234 14.5575 6.65344C14.5481 6.64402 14.5382 6.63563 14.5283 6.62699C13.3622 5.47688 11.7622 4.76562 10 4.76562C8.23032 4.76562 6.62489 5.48188 5.45789 6.63953C5.45282 6.64426 5.44747 6.64848 5.44254 6.65344C5.4384 6.65758 5.43493 6.66207 5.43094 6.66625C4.26735 7.83406 3.547 9.44379 3.547 11.2187C3.547 11.5423 3.80934 11.8046 4.13293 11.8046H4.797C5.12059 11.8046 5.38293 11.5423 5.38293 11.2187C5.38293 10.8951 5.12059 10.6327 4.797 10.6327H4.75157C4.86465 9.61309 5.26911 8.68016 5.87969 7.91922L5.91211 7.95164C6.02653 8.06605 6.17649 8.12328 6.32641 8.12328C6.47633 8.12328 6.62633 8.06609 6.74071 7.95164C6.96954 7.72281 6.96954 7.35184 6.74071 7.12301L6.70915 7.09145C7.46856 6.48469 8.39829 6.08289 9.41411 5.97023V6.01562C9.41411 6.33922 9.67645 6.60156 10 6.60156C10.3236 6.60156 10.586 6.33922 10.586 6.01562V5.97023C11.6014 6.08297 12.5311 6.48496 13.2905 7.09184L13.2594 7.12297C13.0306 7.3518 13.0306 7.72277 13.2594 7.9516C13.3738 8.06602 13.5238 8.12324 13.6737 8.12324C13.8236 8.12324 13.9736 8.06605 14.088 7.9516L14.12 7.91961C14.7291 8.67863 15.1332 9.60867 15.2476 10.625H15.1954C14.8718 10.625 14.6094 10.8873 14.6094 11.2109C14.6094 11.5345 14.8718 11.7969 15.1954 11.7969C15.1954 11.7969 15.8677 11.7968 15.8679 11.7968C16.1915 11.7964 16.4535 11.5337 16.4531 11.2101C16.4507 9.44629 15.7361 7.84598 14.5826 6.68113Z" fill="white" fill-opacity="0.54"/>
<path d="M12.6571 8.56151C12.4283 8.33269 12.0573 8.33269 11.8285 8.56151L9.38164 11.0084C9.11074 10.8789 8.80836 10.8192 8.50207 10.8407C8.17925 10.8632 7.93582 11.1432 7.95836 11.466C7.9809 11.7888 8.26058 12.0324 8.58367 12.0097C8.75293 11.9978 8.91879 12.0599 9.03875 12.1799C9.15687 12.298 9.21906 12.4614 9.20937 12.6282C9.19062 12.9512 9.4373 13.2283 9.76035 13.2471C9.77191 13.2478 9.78339 13.2481 9.79484 13.2481C10.1029 13.248 10.3612 13.0076 10.3793 12.6961C10.3966 12.3972 10.3364 12.1021 10.2101 11.8373L12.6571 9.39019C12.8859 9.16132 12.8859 8.79034 12.6571 8.56151Z" fill="white" fill-opacity="0.54"/>
<path d="M13.3594 15.4297H6.64062C6.31703 15.4297 6.05469 15.692 6.05469 16.0156C6.05469 16.3392 6.31703 16.6016 6.64062 16.6016H13.3594C13.683 16.6016 13.9453 16.3392 13.9453 16.0156C13.9453 15.692 13.683 15.4297 13.3594 15.4297Z" fill="white" fill-opacity="0.54"/>
</svg>
