<svg width="768" height="622" viewBox="0 0 768 622" fill="none" xmlns="http://www.w3.org/2000/svg">
<path d="M29.9349 591.653C29.9349 605.468 10.9095 622.553 -1 621.986V0H767.867V202.724C768.167 323.757 767.867 557.115 767.867 579.039C767.867 592.779 746.897 586.993 729.883 564.881C712.87 542.769 744.345 472.182 746.897 451.771C749.449 431.36 741.793 388.837 662.68 336.959C583.566 285.081 467.874 331.006 406.625 361.622C345.376 392.239 293.313 349.716 209.947 324.202C126.58 298.689 95.9557 339.511 84.8968 361.622C73.838 383.734 74.0092 443.266 50.1901 451.771C26.3711 460.275 17.0136 483.238 22.9684 516.405C28.9231 549.573 29.9349 573.793 29.9349 591.653Z" fill="#FEF3E4"/>
</svg>
