<svg  viewBox="0 0 11 10" xmlns="http://www.w3.org/2000/svg">
<path fill-rule="evenodd" clip-rule="evenodd" d="M4.87431 0.329647C5.24454 -0.0801679 5.87689 -0.112257 6.2867 0.257973L10.7144 4.25797C10.9242 4.44757 11.044 4.71718 11.044 5.00001C11.044 5.28284 10.9242 5.55244 10.7144 5.74204L6.2867 9.74204C5.87689 10.1123 5.24454 10.0802 4.87431 9.67037C4.50408 9.26055 4.53617 8.6282 4.94598 8.25797L8.55228 5.00001L4.94598 1.74204C4.53617 1.37181 4.50408 0.739461 4.87431 0.329647Z" fill="#D41443"/>
<path fill-rule="evenodd" clip-rule="evenodd" d="M0 5C0 4.44771 0.447715 4 1 4H10C10.5523 4 11 4.44771 11 5C11 5.55228 10.5523 6 10 6H1C0.447715 6 0 5.55228 0 5Z" fill="#D41443"/>
</svg>
