<svg  viewBox="0 0 22 30" fill="none" xmlns="http://www.w3.org/2000/svg">
<path d="M20.5392 15.5558C20.2734 14.9604 19.9067 14.374 19.3705 13.6967C18.0184 11.9967 17.6059 8.20581 17.6013 8.16945C17.583 7.98763 17.4546 7.83763 17.285 7.78309C17.1109 7.72854 16.923 7.77854 16.7992 7.9149C15.1859 9.71945 15.8642 12.5058 16.2309 13.6194C16.3317 13.924 16.4417 14.2831 16.5196 14.6467C17.1154 17.5876 15.965 18.9194 15.6946 19.1876C15.4333 19.2604 15.2546 19.224 15.0896 19.0467C14.5213 18.424 14.3333 16.3831 14.5992 13.724C14.6542 13.1831 14.6404 12.6967 14.5625 12.2422C14.0019 8.97386 11.9462 6.8774 11.4229 6.14218C9.98375 4.0149 9.83709 0.473994 9.8325 0.442176C9.82792 0.273994 9.73167 0.123994 9.58042 0.0512668C9.43375 -0.0214604 9.255 -0.0123695 9.1175 0.083085C6.71584 1.7149 6.92209 5.64672 7.25667 7.84218C7.33459 8.35127 7.48584 8.86945 7.74709 9.524C8.6775 11.8649 7.56375 14.8876 7.55459 14.9149C7.54542 14.9422 7.53625 14.9649 7.53167 14.9922C7.38959 15.7376 7.15125 16.1831 6.88542 16.1831C6.85792 16.1831 6.83042 16.1785 6.79834 16.1694C6.47292 16.1013 6.30334 15.7558 6.29875 15.4558C6.28042 11.5785 2.38917 10.274 2.34792 10.2604C2.17375 10.2058 1.98125 10.2558 1.86209 10.3967C1.73834 10.5376 1.71542 10.7331 1.79792 10.8967C1.84375 10.9922 1.99042 11.4104 1.88959 12.8876C1.8025 14.2149 1.55959 15.5285 1.17 16.7876C0.244171 19.8058 0.390837 22.6649 0.400004 22.8013C1.11193 30.5425 12.2451 31.899 18.8525 27.5376C19.5767 27.0604 20.1679 26.5149 20.6033 25.9149C23.0417 22.5513 21.6071 17.9831 20.5392 15.5558ZM3.6038 22.9513C3.61755 23.2013 3.42505 23.4149 3.17297 23.4285H3.14547C2.90255 23.4285 2.70088 23.2422 2.68713 23.0013C2.64588 22.3376 2.65505 21.6422 2.70547 20.8876C2.7238 20.6376 2.9438 20.4513 3.19588 20.4649C3.44797 20.483 3.64047 20.7012 3.62213 20.9512C3.57167 21.6695 3.56255 22.324 3.6038 22.9513ZM3.82834 18.924C3.80084 19.1558 3.60375 19.324 3.37459 19.324C3.35625 19.324 3.33792 19.324 3.315 19.3195C3.0675 19.2876 2.88875 19.0649 2.91625 18.8149L3.13625 17.0604C3.16834 16.8149 3.39292 16.6376 3.64959 16.6649C3.90167 16.6967 4.08042 16.924 4.04834 17.174L3.82834 18.924Z" fill="#FF6B09"/>
<path d="M17.4383 6.21861C17.1884 6.1802 17.017 5.94851 17.0555 5.70061C17.0841 5.51592 17.2497 4.57047 17.6991 4.09506C17.8721 3.91174 18.1617 3.9022 18.347 4.07442C18.5316 4.24597 18.541 4.53365 18.3678 4.71697C18.1776 4.91829 18.0155 5.49442 17.9614 5.83915C17.9227 6.08442 17.692 6.25656 17.4383 6.21861Z" fill="#FF6B09"/>
<path d="M0.729313 8.48281C0.641588 8.14476 0.423605 7.58726 0.214376 7.40526C0.0239384 7.23967 0.00491753 6.95249 0.171843 6.76385C0.338355 6.57476 0.627701 6.55544 0.818596 6.72167C1.3125 7.15113 1.57054 8.07599 1.61733 8.25685C1.67999 8.4999 1.53231 8.74713 1.28747 8.80972C1.03722 8.87213 0.791693 8.72181 0.729313 8.48281Z" fill="#FF6B09"/>
</svg>
