<svg width="102" height="104" fill="none" xmlns="http://www.w3.org/2000/svg"><g clip-path="url(#clip0)"><path d="M25.846 75.638h40.177c.2-4.582-.13-12.184-2.946-15.802l-.102-.13-6.156-3.09c.134-.451.2-.864.226-1.168a2.14 2.14 0 00-.15-1.017c-1.015-2.43-3.164-3.708-4.346-4.253.36-.726.592-1.505.704-2.301a1.975 1.975 0 001.384-1.426l.719-2.92a1.975 1.975 0 00-.227-1.503 1.967 1.967 0 00-.44-.501c2.025-4.602-1.368-8.94-1.553-9.17-3.674-3.972-8.316-3.23-8.562-3.185-6.699 1.403-9.284 6.537-7.825 12.558a1.977 1.977 0 00-.453 1.8l.722 2.923c.175.702.709 1.23 1.373 1.421a7.52 7.52 0 001.729 3.84v2.314c-9.614 4.923-3.523 1.782-11.227 5.68-.015.072-3.614 3.898-3.08 15.237l.033.693zm38.781-1.454h-6.612v-2.778l4.373-10.012c2.191 3.637 2.272 10.58 2.24 12.79zm-9.024-18.86c-.256 2.932-1.863 2.046-2.855 4.304-.781-.858-1.016-1.887-.806-2.989.379-2.023-.856-2.623-.55-4.749l.046-.048v-.007c.026-.03.27-.32.34-.411 2.616 1.14 3.876 3.261 3.825 3.9zm-14.035-2.303a7.449 7.449 0 008.362.112c.168 1.67.82 2.005.59 3.235a5.408 5.408 0 00-.082.674l-4.503 5.075-5.757-6.49 1.39-.725v-1.881zm-1.81-6.212v-2.814-4.944c.7-1.296 1.656-2.236 2.843-2.8 3.18 1.8 6.84 4.485 9.296 7.188-.003 3.441.01 3.45-.014 3.733l-.001.018c-.192 3.126-2.761 5.716-6.057 5.716-3.203 0-5.863-2.515-6.056-5.747a4.102 4.102 0 01-.011-.35zm-.897 9.52l7.074 7.975 4.75-5.352c.108.312.26.607.434.893l-5.184 6.483-7.73-9.669.656-.33zm14.484-10.69v-2.247l.54-.62c.03 1.139.153-.204-.54 2.867zM44.842 30.6c.288.018 4.148-.587 7.199 2.707.12.15 2.604 3.35 1.606 6.851-.342-1.558-.937-3.554-1.878-4.506l-1.028 1.024c.929.94 1.54 3.806 1.772 5.29-4.261-4.458-9.757-7.28-9.833-7.327-.275.171-2.601.614-4.29 3.896l-.08.157v2.412l-.214.002c-1.073-5.181.982-9.298 6.746-10.506zm-6.898 12.002l.365 1.481v1.557l-.607-2.46c-.09-.366.182-.505.242-.578zm-1.065 14.721l9.056 11.327 6.127-7.664c.667.597.987.681 2.4 1.408l-.476-1.617c-.121-.41.358-1.069.647-1.371a4.38 4.38 0 001.586-1.466l5 2.51-4.653 10.65v3.083H35.303V71.1l-4.654-10.649 6.23-3.127zm-7.399 4.073l4.375 10.01v2.777h-6.613c-.033-2.21.049-9.15 2.238-12.787z" fill="#FF6B09"/></g><path d="M101 15V1H1v102h100V89" stroke="#FF6B09" stroke-width="2"/><defs><clipPath id="clip0"><path fill="#fff" transform="translate(26 28)" d="M0 0h39.83v48H0z"/></clipPath></defs></svg>