<svg width="44" height="44" viewBox="0 0 44 44" fill="none" xmlns="http://www.w3.org/2000/svg">
<path d="M44 22C44 28.0751 41.5376 33.5751 37.5564 37.5563C33.5751 41.5375 28.0751 44 22 44C15.9249 44 10.4249 41.5375 6.44365 37.5563C2.46244 33.5751 1.90735e-06 28.0751 1.90735e-06 22C1.90735e-06 15.9248 2.46244 10.4248 6.44365 6.44362C10.4249 2.4624 15.9249 -3.05176e-05 22 -3.05176e-05C28.0751 -3.05176e-05 33.5751 2.4624 37.5564 6.44362C41.5376 10.4248 44 15.9248 44 22Z" fill="white"/>
<g clip-path="url(#clip0)">
<path d="M25.3308 15.3208H27.1567V12.1408C26.8417 12.0975 25.7583 12 24.4967 12C21.8642 12 20.0608 13.6558 20.0608 16.6992V19.5H17.1558V23.055H20.0608V32H23.6225V23.0558H26.41L26.8525 19.5008H23.6217V17.0517C23.6225 16.0242 23.8992 15.3208 25.3308 15.3208Z" fill="#303030"/>
</g>
<defs>
<clipPath id="clip0">
<rect width="20" height="20" fill="white" transform="translate(12 12)"/>
</clipPath>
</defs>
</svg>
