<?xml version="1.0" encoding="utf-8"?>
<!-- Generator: Adobe Illustrator 25.2.1, SVG Export Plug-In . SVG Version: 6.00 Build 0)  -->
<svg version="1.1" id="Layer_1" xmlns="http://www.w3.org/2000/svg" xmlns:xlink="http://www.w3.org/1999/xlink" x="0px" y="0px"
	 viewBox="0 0 32 32" style="enable-background:new 0 0 32 32;" xml:space="preserve">
<style type="text/css">
	.st0{fill:#D41442;}
	.st1{fill:#FFFFFF;}
</style>
<path class="st0" d="M32,16c0,7.15-4.68,13.2-11.15,15.25c-0.55,0.18-1.12,0.33-1.7,0.44C18.13,31.89,17.08,32,16,32
	s-2.13-0.11-3.15-0.31c-0.58-0.11-1.15-0.26-1.7-0.44C4.68,29.2,0,23.15,0,16C0,7.16,7.16,0,16,0S32,7.16,32,16z"/>
<path class="st1" d="M25.85,14.29V13c0-1.76-0.49-3.46-1.37-4.96L24.5,8l-0.31-0.47c-0.38-0.57-0.8-1.07-1.23-1.49
	C21.11,4.18,18.64,3.15,16,3.15c-0.41,0-0.82,0.03-1.22,0.08c-2.02,0.25-3.89,1.11-5.38,2.46C8.81,6.23,8.27,6.84,7.81,7.53L7.5,8
	l0.02,0.04c-0.88,1.5-1.37,3.2-1.37,4.96v1.29C5.71,14.43,5.31,14.65,5,14.98C4.45,15.51,4.15,16.23,4.15,17
	c0,1.27,0.85,2.34,2,2.71v3.05c0,2.99,2.16,5.47,5,5.99v2.5c0.55,0.18,1.12,0.33,1.7,0.44v-2.84h6.3v2.84
	c0.58-0.11,1.15-0.26,1.7-0.44v-2.5c2.84-0.52,5-3,5-5.99v-3.05c0.44-0.14,0.84-0.36,1.15-0.69c0.55-0.53,0.85-1.25,0.85-2.02
	C27.85,15.73,27,14.66,25.85,14.29z M9.72,7.82C9.81,7.71,9.91,7.61,10,7.5c0.13-0.13,0.25-0.26,0.38-0.39
	c0.1-0.1,0.21-0.19,0.32-0.28c0.13-0.12,0.27-0.23,0.42-0.34c0.11-0.09,0.22-0.17,0.34-0.25c0.15-0.1,0.3-0.19,0.46-0.28
	c0.12-0.07,0.24-0.14,0.36-0.2c0.17-0.09,0.34-0.16,0.51-0.24c0.12-0.05,0.24-0.11,0.36-0.15c0.19-0.07,0.37-0.12,0.56-0.18
	c0.12-0.03,0.24-0.08,0.36-0.11c0.21-0.05,0.42-0.08,0.64-0.11c0.1-0.02,0.21-0.05,0.31-0.06c0.32-0.04,0.65-0.06,0.98-0.06
	c2.18,0,4.23,0.85,5.77,2.4c0.2,0.2,0.4,0.43,0.6,0.68c0.02,0.02,0.04,0.05,0.06,0.08c-1.54,1.98-3.9,3.14-6.43,3.14
	c-2.18,0-4.23-0.85-5.77-2.4c-0.22-0.22-0.44-0.47-0.65-0.74C9.63,7.95,9.67,7.88,9.72,7.82z M7.85,13c0-1.22,0.27-2.4,0.78-3.48
	C8.77,9.67,8.9,9.83,9.04,9.96c1.85,1.86,4.32,2.89,6.96,2.89c2.85,0,5.52-1.23,7.37-3.33c0.51,1.08,0.78,2.27,0.78,3.48v1.15H7.85
	V13z M24.15,22.76c0,2.42-1.97,4.39-4.39,4.39h-7.52c-2.42,0-4.39-1.97-4.39-4.39v-2.91h8.3V21c0,0.77,0.3,1.49,0.83,2
	c0.53,0.55,1.25,0.85,2.02,0.85c1.57,0,2.85-1.28,2.85-2.85v-1.15h2.3V22.76z M25.8,17.82c-0.21,0.21-0.49,0.33-0.8,0.33h-4.85V21
	c0,0.63-0.52,1.15-1.15,1.15c-0.31,0-0.59-0.12-0.82-0.35c-0.21-0.21-0.33-0.49-0.33-0.8v-2.85H7c-0.63,0-1.15-0.52-1.15-1.15
	c0-0.31,0.12-0.59,0.35-0.82c0.21-0.21,0.49-0.33,0.8-0.33h18c0.63,0,1.15,0.52,1.15,1.15C26.15,17.31,26.03,17.59,25.8,17.82z"/>
</svg>
