<svg width="199" height="20" fill="none" xmlns="http://www.w3.org/2000/svg"><path d="M37.364 10.8h-2.478v2.45h-1.498V10.8H30.91V9.4h2.478V6.95h1.498V9.4h2.478v1.4zm6.528-1.554c.906.112 1.596.42 2.072.924s.714 1.134.714 1.89a2.89 2.89 0 01-.434 1.554c-.289.467-.728.84-1.316 1.12-.578.27-1.288.406-2.128.406-.7 0-1.376-.098-2.03-.294-.644-.205-1.194-.485-1.652-.84l.784-1.414c.355.299.784.537 1.288.714.514.168 1.041.252 1.582.252.644 0 1.148-.13 1.512-.392.374-.27.56-.635.56-1.092 0-.457-.177-.812-.532-1.064-.345-.261-.877-.392-1.596-.392h-.896V9.372l2.226-2.646h-4.452V5.2h6.678v1.218l-2.38 2.828zm11.453.602c.513.233.905.55 1.176.952.28.392.42.854.42 1.386 0 .597-.168 1.12-.504 1.568-.327.448-.793.793-1.4 1.036-.607.233-1.312.35-2.114.35-.803 0-1.508-.117-2.114-.35-.597-.243-1.06-.588-1.386-1.036-.327-.448-.49-.97-.49-1.568 0-.532.135-.994.406-1.386.27-.401.658-.719 1.162-.952a2.403 2.403 0 01-.91-.84 2.387 2.387 0 01-.308-1.218c0-.55.15-1.031.448-1.442.308-.41.737-.728 1.288-.952.55-.224 1.185-.336 1.904-.336.728 0 1.367.112 1.918.336.55.224.98.541 1.288.952.308.41.462.891.462 1.442 0 .457-.108.859-.322 1.204-.215.345-.523.63-.924.854zm-2.422-3.36c-.57 0-1.022.121-1.358.364-.327.243-.49.583-.49 1.022 0 .42.163.756.49 1.008.336.243.788.364 1.358.364.578 0 1.036-.121 1.372-.364.336-.252.504-.588.504-1.008 0-.439-.173-.78-.518-1.022-.336-.243-.789-.364-1.358-.364zm0 7.224c.672 0 1.204-.14 1.596-.42.392-.28.588-.667.588-1.162 0-.485-.196-.868-.588-1.148-.392-.28-.924-.42-1.596-.42s-1.2.14-1.582.42c-.383.28-.574.663-.574 1.148 0 .495.191.882.574 1.162.383.28.91.42 1.582.42zm13.576 4.004c-.55-.85-.976-1.834-1.274-2.954a14.34 14.34 0 01-.434-3.598c0-1.279.144-2.478.434-3.598.298-1.13.723-2.114 1.274-2.954h1.666a12.585 12.585 0 00-1.26 3.122 14.346 14.346 0 00-.392 3.43c0 1.223.13 2.37.392 3.444.27 1.064.69 2.1 1.26 3.108h-1.666zm7.793-2.576c-.784 0-1.484-.196-2.1-.588-.616-.401-1.101-.98-1.456-1.736-.354-.765-.532-1.67-.532-2.716 0-1.045.178-1.946.532-2.702.355-.765.84-1.344 1.456-1.736.616-.401 1.316-.602 2.1-.602s1.484.2 2.1.602c.626.392 1.116.97 1.47 1.736.355.756.532 1.657.532 2.702s-.177 1.95-.532 2.716c-.354.756-.844 1.335-1.47 1.736-.616.392-1.316.588-2.1.588zm0-1.582c.7 0 1.25-.29 1.652-.868.41-.579.616-1.442.616-2.59s-.205-2.011-.616-2.59c-.401-.579-.952-.868-1.652-.868-.69 0-1.241.29-1.652.868-.401.579-.602 1.442-.602 2.59s.2 2.011.602 2.59c.41.579.962.868 1.652.868zm10.54 1.582c-.784 0-1.484-.196-2.1-.588-.616-.401-1.101-.98-1.456-1.736-.355-.765-.532-1.67-.532-2.716 0-1.045.177-1.946.532-2.702.355-.765.84-1.344 1.456-1.736.616-.401 1.316-.602 2.1-.602s1.484.2 2.1.602c.626.392 1.115.97 1.47 1.736.355.756.532 1.657.532 2.702s-.177 1.95-.532 2.716c-.355.756-.844 1.335-1.47 1.736-.616.392-1.316.588-2.1.588zm0-1.582c.7 0 1.25-.29 1.652-.868.41-.579.616-1.442.616-2.59s-.205-2.011-.616-2.59c-.401-.579-.952-.868-1.652-.868-.69 0-1.241.29-1.652.868-.401.579-.602 1.442-.602 2.59s.2 2.011.602 2.59c.41.579.961.868 1.652.868zm10.54 1.582c-.784 0-1.484-.196-2.1-.588-.616-.401-1.101-.98-1.456-1.736-.355-.765-.532-1.67-.532-2.716 0-1.045.177-1.946.532-2.702.355-.765.84-1.344 1.456-1.736.616-.401 1.316-.602 2.1-.602s1.484.2 2.1.602c.626.392 1.116.97 1.47 1.736.355.756.532 1.657.532 2.702s-.177 1.95-.532 2.716c-.354.756-.844 1.335-1.47 1.736-.616.392-1.316.588-2.1.588zm0-1.582c.7 0 1.25-.29 1.652-.868.41-.579.616-1.442.616-2.59s-.205-2.011-.616-2.59c-.401-.579-.952-.868-1.652-.868-.69 0-1.241.29-1.652.868-.401.579-.602 1.442-.602 2.59s.2 2.011.602 2.59c.41.579.962.868 1.652.868zm6.144 4.158a12.616 12.616 0 001.26-3.122 13.97 13.97 0 00.406-3.43 13.97 13.97 0 00-.406-3.43 12.615 12.615 0 00-1.26-3.122h1.666c.551.83.971 1.81 1.26 2.94.299 1.12.448 2.324.448 3.612 0 1.288-.149 2.492-.448 3.612-.289 1.11-.709 2.09-1.26 2.94h-1.666zm15.372-2.576c-.784 0-1.484-.196-2.1-.588-.616-.401-1.101-.98-1.456-1.736-.354-.765-.532-1.67-.532-2.716 0-1.045.178-1.946.532-2.702.355-.765.84-1.344 1.456-1.736.616-.401 1.316-.602 2.1-.602s1.484.2 2.1.602c.626.392 1.116.97 1.47 1.736.355.756.532 1.657.532 2.702s-.177 1.95-.532 2.716c-.354.756-.844 1.335-1.47 1.736-.616.392-1.316.588-2.1.588zm0-1.582c.7 0 1.251-.29 1.652-.868.411-.579.616-1.442.616-2.59s-.205-2.011-.616-2.59c-.401-.579-.952-.868-1.652-.868-.69 0-1.241.29-1.652.868-.401.579-.602 1.442-.602 2.59s.201 2.011.602 2.59c.411.579.962.868 1.652.868zm10.54 1.582c-.784 0-1.484-.196-2.1-.588-.616-.401-1.101-.98-1.456-1.736-.354-.765-.532-1.67-.532-2.716 0-1.045.178-1.946.532-2.702.355-.765.84-1.344 1.456-1.736.616-.401 1.316-.602 2.1-.602s1.484.2 2.1.602c.626.392 1.116.97 1.47 1.736.355.756.532 1.657.532 2.702s-.177 1.95-.532 2.716c-.354.756-.844 1.335-1.47 1.736-.616.392-1.316.588-2.1.588zm0-1.582c.7 0 1.251-.29 1.652-.868.411-.579.616-1.442.616-2.59s-.205-2.011-.616-2.59c-.401-.579-.952-.868-1.652-.868-.69 0-1.241.29-1.652.868-.401.579-.602 1.442-.602 2.59s.201 2.011.602 2.59c.411.579.962.868 1.652.868zm10.54 1.582c-.784 0-1.484-.196-2.1-.588-.616-.401-1.101-.98-1.456-1.736-.354-.765-.532-1.67-.532-2.716 0-1.045.178-1.946.532-2.702.355-.765.84-1.344 1.456-1.736.616-.401 1.316-.602 2.1-.602s1.484.2 2.1.602c.626.392 1.116.97 1.47 1.736.355.756.532 1.657.532 2.702s-.177 1.95-.532 2.716c-.354.756-.844 1.335-1.47 1.736-.616.392-1.316.588-2.1.588zm0-1.582c.7 0 1.251-.29 1.652-.868.411-.579.616-1.442.616-2.59s-.205-2.011-.616-2.59c-.401-.579-.952-.868-1.652-.868-.69 0-1.241.29-1.652.868-.401.579-.602 1.442-.602 2.59s.201 2.011.602 2.59c.411.579.962.868 1.652.868zm15.529 1.582c-.784 0-1.484-.196-2.1-.588-.616-.401-1.101-.98-1.456-1.736-.354-.765-.532-1.67-.532-2.716 0-1.045.178-1.946.532-2.702.355-.765.84-1.344 1.456-1.736.616-.401 1.316-.602 2.1-.602s1.484.2 2.1.602c.626.392 1.116.97 1.47 1.736.355.756.532 1.657.532 2.702s-.177 1.95-.532 2.716c-.354.756-.844 1.335-1.47 1.736-.616.392-1.316.588-2.1.588zm0-1.582c.7 0 1.251-.29 1.652-.868.411-.579.616-1.442.616-2.59s-.205-2.011-.616-2.59c-.401-.579-.952-.868-1.652-.868-.69 0-1.241.29-1.652.868-.401.579-.602 1.442-.602 2.59s.201 2.011.602 2.59c.411.579.962.868 1.652.868zm10.54 1.582c-.784 0-1.484-.196-2.1-.588-.616-.401-1.101-.98-1.456-1.736-.354-.765-.532-1.67-.532-2.716 0-1.045.178-1.946.532-2.702.355-.765.84-1.344 1.456-1.736.616-.401 1.316-.602 2.1-.602s1.484.2 2.1.602c.626.392 1.116.97 1.47 1.736.355.756.532 1.657.532 2.702s-.177 1.95-.532 2.716c-.354.756-.844 1.335-1.47 1.736-.616.392-1.316.588-2.1.588zm0-1.582c.7 0 1.251-.29 1.652-.868.411-.579.616-1.442.616-2.59s-.205-2.011-.616-2.59c-.401-.579-.952-.868-1.652-.868-.69 0-1.241.29-1.652.868-.401.579-.602 1.442-.602 2.59s.201 2.011.602 2.59c.411.579.962.868 1.652.868zm15.529 1.582c-.784 0-1.484-.196-2.1-.588-.616-.401-1.101-.98-1.456-1.736-.354-.765-.532-1.67-.532-2.716 0-1.045.178-1.946.532-2.702.355-.765.84-1.344 1.456-1.736.616-.401 1.316-.602 2.1-.602s1.484.2 2.1.602c.626.392 1.116.97 1.47 1.736.355.756.532 1.657.532 2.702s-.177 1.95-.532 2.716c-.354.756-.844 1.335-1.47 1.736-.616.392-1.316.588-2.1.588zm0-1.582c.7 0 1.251-.29 1.652-.868.411-.579.616-1.442.616-2.59s-.205-2.011-.616-2.59c-.401-.579-.952-.868-1.652-.868-.69 0-1.241.29-1.652.868-.401.579-.602 1.442-.602 2.59s.201 2.011.602 2.59c.411.579.962.868 1.652.868zm10.54 1.582c-.784 0-1.484-.196-2.1-.588-.616-.401-1.101-.98-1.456-1.736-.354-.765-.532-1.67-.532-2.716 0-1.045.178-1.946.532-2.702.355-.765.84-1.344 1.456-1.736.616-.401 1.316-.602 2.1-.602s1.484.2 2.1.602c.626.392 1.116.97 1.47 1.736.355.756.532 1.657.532 2.702s-.177 1.95-.532 2.716c-.354.756-.844 1.335-1.47 1.736-.616.392-1.316.588-2.1.588zm0-1.582c.7 0 1.251-.29 1.652-.868.411-.579.616-1.442.616-2.59s-.205-2.011-.616-2.59c-.401-.579-.952-.868-1.652-.868-.69 0-1.241.29-1.652.868-.401.579-.602 1.442-.602 2.59s.201 2.011.602 2.59c.411.579.962.868 1.652.868z" fill="#111518"/><path d="M2.91.002a1.252 1.252 0 00-.87.407L.42 2.19c.002-.005-.006-.004-.052.06a.394.394 0 00-.057.11c-.66 2.103-.217 4.416.86 6.616 1.078 2.2 2.798 4.304 4.771 6.032 1.974 1.727 4.201 3.079 6.325 3.749 2.123.67 4.182.662 5.708-.445a.407.407 0 00.046-.041c.04-.04.042-.045.035-.039l.006-.008 1.614-1.775a1.263 1.263 0 00-.083-1.774l-3.829-3.482a1.263 1.263 0 00-1.775.083l-1.732 1.905c-1.406-.408-2.608-1.098-3.765-2.15C7.335 9.982 6.534 8.85 5.996 7.488l1.732-1.905a1.262 1.262 0 00-.084-1.775L3.816.325A1.253 1.253 0 002.91 0zm.037.78a.469.469 0 01.338.126L7.113 4.39a.46.46 0 01.032.663L5.23 7.157a.394.394 0 00-.078.4c.581 1.585 1.519 2.886 2.808 4.059 1.29 1.173 2.672 1.984 4.306 2.412a.395.395 0 00.39-.116l1.916-2.104a.46.46 0 01.662-.031l3.83 3.482a.46.46 0 01.03.662l-1.6 1.76c-1.253.898-3.017.949-4.992.325-1.983-.626-4.136-1.922-6.041-3.59-1.906-1.668-3.564-3.704-4.583-5.784-1.009-2.058-1.375-4.14-.82-5.974L2.622.94a.468.468 0 01.325-.157z" fill="#FF6B09"/></svg>