<svg aria-hidden="true" style="position: absolute; width: 0; height: 0;" xmlns="http://www.w3.org/2000/svg" overflow="hidden">
    <defs>
        <symbol id="close-btn" viewBox="0 0 32 32"><path d="M26.667 7.303l-1.97-1.97-7.808 7.808-7.808-7.808-1.97 1.97 7.808 7.808-7.808 7.808 1.97 1.97 7.808-7.808 7.808 7.808 1.97-1.97-7.808-7.808 7.808-7.808z" /></symbol>
        <symbol id="email-icon" viewBox="0 0 32 32">
            <path
                d="M26.667 5.333H5.334A2.663 2.663 0 002.681 8l-.013 16c0 1.467 1.2 2.667 2.667 2.667h21.333c1.467 0 2.667-1.2 2.667-2.667V8c0-1.467-1.2-2.667-2.667-2.667zM26.133 11l-9.427 5.893a1.346 1.346 0 01-1.413 0L5.866 11a1.132 1.132 0 111.2-1.92l8.933 5.587 8.933-5.587a1.132 1.132 0 111.2 1.92z"
            />
        </symbol>
        <symbol id="phone-icon" viewBox="0 0 32 32">
            <path
                d="M24.882 19.773l-3.268-.373a2.561 2.561 0 00-2.11.733L17.137 22.5a19.357 19.357 0 01-8.478-8.478l2.38-2.38a2.561 2.561 0 00.733-2.11l-.373-3.242a2.575 2.575 0 00-2.56-2.277H6.613c-1.454 0-2.663 1.209-2.573 2.663.682 10.987 9.469 19.761 20.443 20.443 1.454.09 2.663-1.119 2.663-2.573V22.32a2.55 2.55 0 00-2.264-2.547z"
            />
        </symbol>
        <symbol id="send-icon" viewBox="0 0 32 32"><path d="M32 0L0 18l10.227 3.788L26 7 14.002 23.186l.01.004-.012-.004V32l5.735-6.691L27 28l5-28z" /></symbol>
        <symbol id="user-icon" viewBox="0 0 32 32">
            <path
                d="M16 16c2.947 0 5.333-2.387 5.333-5.333S18.946 5.334 16 5.334c-2.947 0-5.333 2.387-5.333 5.333S13.054 16 16 16zm0 2.667c-3.56 0-10.667 1.787-10.667 5.333v1.333c0 .733.6 1.333 1.333 1.333h18.667c.733 0 1.333-.6 1.333-1.333V24c0-3.547-7.107-5.333-10.667-5.333z"
            />
        </symbol>
        <symbol id="close" viewBox="0 0 32 32"><path d="M23.733 10.304L22.229 8.8l-5.963 5.963L10.303 8.8l-1.504 1.504 5.963 5.963-5.963 5.963 1.504 1.504 5.963-5.963 5.963 5.963 1.504-1.504-5.963-5.963 5.963-5.963z" /></symbol>
        <symbol id="menu" viewBox="0 0 32 32"><path d="M6.4 11.733V9.6h19.2v2.133H6.4zm0 5.334h19.2v-2.133H6.4v2.133zm0 5.333h19.2v-2.133H6.4V22.4z" /></symbol>
         <symbol id="logo-menu" viewBox="0 0 88 32">
            <path
                fill="var(--color1, #fff)"
                d="M12.345 4.848v12.975h-3.67v-5.06H3.67v5.06H0V4.848h3.67v4.875h5.005V4.848h3.67zM25.777 12.818c0 .025-.019.315-.056.871h-7.303c.148.519.433.921.853 1.205.433.272.97.408 1.613.408.482 0 .896-.068 1.242-.204a3.646 3.646 0 001.075-.667l1.854 1.928c-.976 1.087-2.403 1.631-4.282 1.631-1.174 0-2.206-.222-3.096-.667s-1.582-1.063-2.076-1.854c-.482-.791-.723-1.687-.723-2.688 0-.989.235-1.872.704-2.651.482-.791 1.143-1.409 1.983-1.854s1.786-.667 2.836-.667c1.001 0 1.909.21 2.725.63a4.586 4.586 0 011.928 1.798c.482.778.723 1.705.723 2.78zm-5.357-2.706c-.544 0-1.001.154-1.372.463-.358.309-.587.729-.686 1.26h4.115c-.099-.531-.334-.951-.704-1.26-.358-.309-.809-.463-1.353-.463zM28.142 4.069h3.522v13.753h-3.522V4.069zM34.694 4.069h3.522v13.753h-3.522V4.069zM3.328 29.8H1.474l-.354.855H.173l1.779-3.992h.913l1.785 3.992h-.97l-.354-.855zm-.291-.702l-.633-1.528-.633 1.528h1.266zM10.358 29.902v1.58h-.855v-.827H6.686v.827H5.83l.006-1.58h.16c.24-.008.409-.183.508-.525s.16-.831.183-1.466l.046-1.249h3.068v3.239h.559zm-2.857-1.905a8.441 8.441 0 01-.12 1.198c-.061.319-.154.555-.279.707h1.785v-2.487H7.518l-.017.582zM13.895 30.724c-.407 0-.776-.087-1.106-.262a2.041 2.041 0 01-.776-.736c-.186-.316-.28-.671-.28-1.066s.093-.749.28-1.061c.19-.316.449-.561.776-.736a2.3 2.3 0 011.112-.268c.346 0 .658.061.935.183.281.122.517.297.707.525l-.593.548a1.274 1.274 0 00-1.004-.468 1.32 1.32 0 00-.662.165 1.15 1.15 0 00-.456.451c-.106.194-.16.414-.16.662s.053.468.16.662c.11.194.262.346.456.456.194.106.414.16.662.16.399 0 .734-.158 1.004-.473l.593.548c-.19.232-.426.409-.707.53s-.595.183-.941.183zM18.717 29.047h-.639v1.608h-.918v-3.992h.918v1.614h.662l1.049-1.614h.975l-1.306 1.928 1.346 2.065h-1.049l-1.038-1.608zM22.264 26.663h.918v2.601l1.905-2.601h.867v3.992h-.913V28.06l-1.905 2.595h-.873v-3.992zM27.975 26.663h.918v2.601l1.905-2.601h.867v3.992h-.913V28.06l-1.905 2.595h-.873v-3.992zm1.842-.257c-.73 0-1.099-.291-1.106-.873h.633c.008.278.165.416.473.416.152 0 .268-.034.348-.103.08-.072.122-.177.126-.314h.633c-.004.285-.097.502-.279.65s-.458.222-.827.222zM39.031 29.8h-1.854l-.354.855h-.947l1.779-3.992h.912l1.785 3.992h-.969l-.354-.855zm-.291-.702l-.633-1.528-.633 1.528h1.266zM45.571 26.663v3.992h-.924v-1.637h-1.814v1.637h-.924v-3.992h.924v1.574h1.814v-1.574h.924zM50.41 27.416h-1.899l.006 3.239h-.918v-3.992h2.817l-.006.753zM55.069 26.663v3.992h-.913v-3.239h-1.369l-.028.833a8.581 8.581 0 01-.137 1.38c-.072.35-.194.62-.365.81-.167.186-.403.279-.707.279-.125 0-.278-.021-.456-.063l.057-.781a.567.567 0 00.165.023c.221 0 .374-.129.462-.388.087-.262.143-.671.165-1.226l.057-1.62h3.068zM57.092 26.663h.918v2.601l1.905-2.601h.867v3.992h-.913V28.06l-1.905 2.595h-.873v-3.992zM62.803 26.663h.918v2.601l1.905-2.601h.867v3.992h-.913V28.06l-1.905 2.595h-.873v-3.992zm1.842-.257c-.73 0-1.099-.291-1.107-.873h.633c.007.278.165.416.473.416.152 0 .268-.034.348-.103.08-.072.122-.177.125-.314h.633c-.004.285-.097.502-.279.65s-.458.222-.827.222zM70.401 30.724c-.407 0-.776-.087-1.106-.262a2.034 2.034 0 01-.776-.736c-.186-.316-.279-.671-.279-1.066s.093-.749.279-1.061c.19-.316.449-.561.776-.736a2.297 2.297 0 011.112-.268c.346 0 .658.061.935.183.281.122.517.297.707.525l-.593.548a1.276 1.276 0 00-1.004-.468 1.32 1.32 0 00-.662.165 1.15 1.15 0 00-.456.451c-.106.194-.16.414-.16.662s.053.468.16.662c.11.194.262.346.456.456.194.106.414.16.662.16.399 0 .734-.158 1.004-.473l.593.548c-.19.232-.426.409-.707.53s-.595.183-.941.183zM75.224 29.047h-.639v1.608h-.918v-3.992h.918v1.614h.662l1.049-1.614h.975l-1.306 1.928 1.346 2.065h-1.049l-1.038-1.608zM78.771 26.663h.918v2.601l1.905-2.601h.867v3.992h-.913V28.06l-1.905 2.595h-.873v-3.992zM84.481 26.663h.918v2.601l1.905-2.601h.867v3.992h-.913V28.06l-1.905 2.595h-.873v-3.992zm1.843-.257c-.73 0-1.099-.291-1.106-.873h.633c.008.278.165.416.473.416.152 0 .268-.034.348-.103.08-.072.122-.177.125-.314h.633c-.004.285-.097.502-.279.65s-.458.222-.827.222zM73.153 14.987v2.836H62.736V4.848h10.176v2.836h-6.543v2.187h5.765v2.743h-5.765v2.373h6.784zM88.276 4.848v12.975h-3.021l-5.728-6.914v6.914h-3.596V4.848h3.021l5.728 6.914V4.848h3.596z"
            />
            <path
                fill="var(--color2, #ff6b09)"
                d="M57.546 11.09c-.189-.424-.451-.842-.833-1.325-.964-1.212-1.258-3.915-1.261-3.94a.325.325 0 00-.225-.275.331.331 0 00-.346.094c-1.15 1.286-.667 3.273-.405 4.067.072.217.15.473.206.732.425 2.097-.395 3.046-.588 3.237-.186.052-.314.026-.431-.101-.405-.444-.539-1.899-.35-3.795a3.906 3.906 0 00-.026-1.056c-.4-2.33-1.865-3.825-2.238-4.349C50.023 2.862 49.918.338 49.915.315a.326.326 0 00-.51-.256c-1.712 1.163-1.565 3.966-1.327 5.532.056.363.163.732.35 1.199.663 1.669-.131 3.824-.137 3.843s-.013.036-.016.055c-.101.531-.271.849-.461.849a.205.205 0 01-.062-.01c-.232-.049-.353-.295-.356-.509-.013-2.764-2.787-3.694-2.817-3.704a.325.325 0 00-.392.453c.033.068.137.366.065 1.419a12.078 12.078 0 01-.513 2.78 13.567 13.567 0 00-.549 4.287c.507 5.519 8.444 6.486 13.155 3.377.516-.34.938-.729 1.248-1.157 1.738-2.398.716-5.655-.046-7.385zm-12.074 5.272a.323.323 0 01-.307.34h-.02a.326.326 0 01-.327-.305c-.029-.473-.023-.969.013-1.507a.33.33 0 01.35-.301c.18.013.317.168.304.347-.036.512-.042.979-.013 1.426zm.16-2.871a.324.324 0 01-.323.285c-.013 0-.026 0-.042-.003a.327.327 0 01-.284-.36l.157-1.251a.33.33 0 01.366-.282c.18.023.307.185.284.363l-.157 1.248zM55.335 4.433a.325.325 0 01-.273-.369c.02-.132.138-.806.459-1.145.123-.131.33-.138.462-.015s.138.327.015.458c-.136.144-.251.554-.29.8a.327.327 0 01-.373.271zM43.423 6.048c-.063-.241-.218-.638-.367-.768-.136-.118-.149-.323-.03-.457s.325-.149.461-.03c.352.306.536.966.569 1.094a.324.324 0 01-.235.394.328.328 0 01-.398-.233z"
            />
        </symbol>
    </defs>
</svg>

        
        