
<svg aria-hidden="true" style="position:absolute;width:0;height:0" xmlns="http://www.w3.org/2000/svg" overflow="hidden"><defs><symbol id="menu" viewBox="0 0 32 32">
<path d="M1.273 4.429h29.455v6.312h-29.455zM1.273 12.844h29.455v6.312h-29.455zM1.273 21.26h29.455v6.312h-29.455z"></path>
</symbol>
<symbol id="cross" viewBox="0 0 32 32">
<path d="M31.708 25.708c-0-0-0-0-0-0l-9.708-9.708 9.708-9.708c0-0 0-0 0-0 0.105-0.105 0.18-0.227 0.229-0.357 0.133-0.356 0.057-0.771-0.229-1.057l-4.586-4.586c-0.286-0.286-0.702-0.361-1.057-0.229-0.13 0.048-0.252 0.124-0.357 0.228 0 0-0 0-0 0l-9.708 9.708-9.708-9.708c-0-0-0-0-0-0-0.105-0.104-0.227-0.18-0.357-0.228-0.356-0.133-0.771-0.057-1.057 0.229l-4.586 4.586c-0.286 0.286-0.361 0.702-0.229 1.057 0.049 0.13 0.124 0.252 0.229 0.357 0 0 0 0 0 0l9.708 9.708-9.708 9.708c-0 0-0 0-0 0-0.104 0.105-0.18 0.227-0.229 0.357-0.133 0.355-0.057 0.771 0.229 1.057l4.586 4.586c0.286 0.286 0.702 0.361 1.057 0.229 0.13-0.049 0.252-0.124 0.357-0.229 0-0 0-0 0-0l9.708-9.708 9.708 9.708c0 0 0 0 0 0 0.105 0.105 0.227 0.18 0.357 0.229 0.356 0.133 0.771 0.057 1.057-0.229l4.586-4.586c0.286-0.286 0.362-0.702 0.229-1.057-0.049-0.13-0.124-0.252-0.229-0.357z"></path>
</symbol><symbol id="instagram" viewBox="0 0 32 32"><path fill="var(--color2, #000)" d="M31.452 5.724A5.834 5.834 0 0026.302.55l-.026-.002C23.193.199 19.62 0 16 0S8.807.199 5.29.587l.434-.039A5.834 5.834 0 00.55 5.698l-.002.026C.199 8.807 0 12.38 0 16s.199 7.193.587 10.71l-.039-.434a5.834 5.834 0 005.15 5.174l.026.002c6.844.73 13.708.73 20.552 0a5.834 5.834 0 005.174-5.15l.002-.026c.73-6.844.73-13.708 0-20.552z"/><path fill="var(--color2, #000)" d="M29.712 6.881a5.179 5.179 0 00-4.57-4.591l-.023-.002c-2.736-.309-5.907-.486-9.119-.486s-6.383.177-9.504.52l.385-.034A5.179 5.179 0 002.29 6.857l-.002.023a85.795 85.795 0 000 18.238 5.178 5.178 0 004.569 4.592l.023.002a85.795 85.795 0 0018.238 0 5.178 5.178 0 004.591-4.569l.002-.023a85.795 85.795 0 000-18.238z"/><path fill="var(--color2, #000)" d="M.48 25.613c.022.222.044.442.068.664a5.834 5.834 0 005.15 5.174l.026.002c6.844.73 13.709.73 20.552 0a5.834 5.834 0 005.174-5.15l.002-.026.069-.664H.48z"/><path fill="var(--color2, #000)" d="M31.452 26.276c.392-3.678.574-7.36.544-11.043l-7.314-7.314c-.914-1.043-2.25-1.694-3.818-1.751a140.959 140.959 0 00-9.931.007l.244-.007c-2.68.093-4.553 1.894-5.034 4.54-.085.468-.135.941-.202 1.412v7.759c.037.251.091.502.108.754.107 1.61.768 2.989 1.828 3.922l7.443 7.443a96.525 96.525 0 0010.954-.546 5.834 5.834 0 005.174-5.15l.002-.026z"/><path fill="var(--color2, #000)" d="M31.452 26.277a5.834 5.834 0 01-5.15 5.174l-.026.002a96.96 96.96 0 01-10.953.545l-7.432-7.432c.862.754 1.984 1.214 3.288 1.262 3.224.122 6.461.118 9.686.002 2.917-.106 5.028-2.264 5.118-5.181.098-3.098.098-6.202 0-9.3-.041-1.346-.514-2.53-1.297-3.426l7.31 7.31a96.957 96.957 0 01-.544 11.044z"/><path fill="var(--color2, #000)" d="M19.776 12.535a5.126 5.126 0 10-7.246 7.238l.004.004 11.858 11.858a90.748 90.748 0 001.882-.182 5.836 5.836 0 005.174-5.15l.002-.026c.067-.627.128-1.254.182-1.882L19.774 12.537zM31.938 19.447l-9.544-9.544a1.218 1.218 0 00-2.196.729c0 .398.191.752.486.975l.003.002 11.08 11.081c.074-1.08.131-2.162.17-3.243z"/><path fill="var(--color2, #000)" d="M5.943 12.119c.066-.471.117-.944.202-1.411.48-2.647 2.354-4.448 5.034-4.54 3.226-.111 6.462-.117 9.686 0 2.916.104 5.028 2.264 5.119 5.181a149.62 149.62 0 01-.006 9.536l.006-.237c-.091 2.918-2.202 5.076-5.118 5.182-3.226.116-6.462.119-9.687-.002-2.916-.11-4.933-2.274-5.128-5.195-.016-.253-.07-.504-.107-.755V12.12zm10.059 11.982c1.476 0 2.954.044 4.428-.01 2.311-.086 3.733-1.465 3.786-3.774.067-2.877.067-5.758 0-8.635-.054-2.309-1.476-3.72-3.786-3.77a215.92 215.92 0 00-9.029.004l.229-.004c-2.293.048-3.719 1.431-3.781 3.714a159.39 159.39 0 000 8.746c.062 2.283 1.488 3.634 3.781 3.719 1.456.054 2.914.01 4.372.01z"/><path fill="var(--color1, #fff)" d="M5.943 12.119c.066-.471.117-.944.202-1.411.48-2.647 2.354-4.448 5.034-4.54 3.226-.111 6.462-.117 9.686 0 2.916.104 5.028 2.264 5.119 5.181a149.62 149.62 0 01-.006 9.536l.006-.237c-.091 2.918-2.202 5.076-5.118 5.182-3.226.116-6.462.119-9.687-.002-2.916-.11-4.933-2.274-5.128-5.195-.016-.253-.07-.504-.107-.755V12.12zm10.059 11.982c1.476 0 2.954.044 4.428-.01 2.311-.086 3.733-1.465 3.786-3.774.067-2.877.067-5.758 0-8.635-.054-2.309-1.476-3.72-3.786-3.77a215.92 215.92 0 00-9.029.004l.229-.004c-2.293.048-3.719 1.431-3.781 3.714a159.39 159.39 0 000 8.746c.062 2.283 1.488 3.634 3.781 3.719 1.456.054 2.914.01 4.372.01z"/><path fill="var(--color1, #fff)" d="M16 10.874a5.126 5.126 0 000 10.252 5.126 5.126 0 000-10.252zm0 8.487a3.361 3.361 0 010-6.722 3.361 3.361 0 010 6.722zm6.644-8.72a1.22 1.22 0 01-2.438 0 1.22 1.22 0 012.438 0z"/></symbol><symbol id="logo" viewBox="0 0 91 32"><path fill="var(--color3, #111518)" d="M13.608 4.836v12.942H9.947v-5.047H4.955v5.047H1.294V4.836h3.661v4.863h4.992V4.836h3.661zm13.398 7.95c0 .025-.018.314-.055.869h-7.285c.148.518.432.918.851 1.202.432.271.967.407 1.609.407.481 0 .894-.068 1.239-.203a3.617 3.617 0 001.072-.666l1.849 1.923c-.974 1.084-2.397 1.627-4.271 1.627-1.171 0-2.2-.222-3.088-.666s-1.577-1.06-2.071-1.849c-.481-.789-.721-1.683-.721-2.681 0-.986.235-1.867.703-2.644a5.064 5.064 0 011.951-1.836l.027-.013c.838-.444 1.781-.666 2.829-.666.998 0 1.904.21 2.718.629a4.599 4.599 0 011.911 1.772l.012.021c.481.777.721 1.701.721 2.773zm-5.343-2.7c-.542 0-.998.154-1.368.462-.357.308-.585.727-.684 1.257h4.105c-.098-.53-.333-.949-.703-1.257-.357-.308-.807-.462-1.35-.462zm7.702-6.027h3.513v13.719h-3.513V4.059zm6.535 0h3.513v13.719H35.9V4.059z"/><path fill="var(--color4, #ff6b09)" d="M4.614 29.724H2.765l-.353.853h-.944l1.775-3.982h.91l1.781 3.982h-.967l-.353-.853zm-.29-.699L3.693 27.5l-.631 1.525h1.263zm7.303.802v1.576h-.853v-.825H7.963v.825H7.11l.006-1.576h.159c.24-.007.408-.182.507-.523s.159-.828.181-1.462l.046-1.246h3.06v3.231h.557zm-2.851-1.9a8.467 8.467 0 01-.126 1.245l.007-.051c-.061.319-.154.554-.279.705h1.781v-2.48H8.794l-.017.58zm6.378 2.719c-.405 0-.774-.087-1.104-.262a2.047 2.047 0 01-.769-.725l-.005-.009a2.034 2.034 0 01-.279-1.033v-.032.002a1.973 1.973 0 011.053-1.792 2.3 2.3 0 011.109-.267c.345 0 .656.06.933.182.281.121.516.296.705.523l-.592.546a1.272 1.272 0 00-1.001-.466c-.247 0-.466.055-.66.165a1.162 1.162 0 00-.452.444l-.003.006c-.107.193-.159.413-.159.66s.053.466.159.66c.11.193.262.345.455.455.193.107.413.159.66.159.398 0 .732-.157 1.001-.472l.592.546a1.855 1.855 0 01-.694.524l-.012.005a2.35 2.35 0 01-.939.182zm4.81-1.672h-.637v1.604h-.917v-3.982h.916v1.61h.66l1.047-1.61h.973l-1.303 1.923 1.343 2.059h-1.047l-1.035-1.604zm3.538-2.378h.916v2.594l1.9-2.594h.865v3.982h-.91V27.99l-1.9 2.588h-.87v-3.982zm5.696 0h.916v2.594l1.9-2.594h.865v3.982h-.91V27.99l-1.9 2.588h-.87v-3.982zm1.838-.256c-.728 0-1.096-.29-1.104-.87h.631c.007.277.165.415.472.415.151 0 .267-.034.347-.102.08-.072.121-.176.125-.313h.631c-.004.284-.097.501-.279.649s-.457.222-.825.222z"/><path fill="var(--color3, #111518)" d="M40.226 29.724h-1.849l-.353.853h-.944l1.775-3.982h.91l1.781 3.982h-.967l-.353-.853zm-.29-.699l-.631-1.525-.631 1.525h1.263zm6.815-2.429v3.982h-.922v-1.633H44.02v1.633h-.922v-3.982h.922v1.57h1.809v-1.57h.922zm4.826.75h-1.894l.006 3.231h-.916v-3.982h2.81l-.006.751zm4.647-.75v3.982h-.91v-3.231h-1.365l-.028.831a8.564 8.564 0 01-.137 1.377c-.073.348-.193.619-.364.808-.167.186-.403.279-.705.279-.125 0-.277-.021-.455-.063l.057-.779a.562.562 0 00.165.023c.22 0 .373-.129.461-.387.087-.262.142-.669.165-1.223l.057-1.616h3.061zm2.018 0h.916v2.594l1.9-2.594h.865v3.982h-.91V27.99l-1.901 2.588h-.87v-3.982zm5.696 0h.916v2.594l1.901-2.594h.865v3.982h-.91V27.99l-1.9 2.588h-.871v-3.982zm1.838-.256c-.729 0-1.097-.29-1.104-.87h.632c.007.277.164.415.471.415.152 0 .268-.034.348-.102a.415.415 0 00.124-.313h.631c-.004.284-.097.501-.279.649s-.457.222-.825.222zm5.742 4.306h-.032c-.392 0-.761-.097-1.085-.268l.013.006a2.047 2.047 0 01-.769-.725l-.005-.009a2.034 2.034 0 01-.279-1.033v-.032.002c0-.395.092-.747.279-1.058.189-.315.448-.56.774-.734a2.263 2.263 0 011.076-.268h.035-.002c.345 0 .656.06.933.182.28.121.516.296.705.523l-.592.546a1.271 1.271 0 00-1.001-.466c-.247 0-.466.055-.66.165a1.162 1.162 0 00-.452.444l-.003.006c-.107.193-.159.413-.159.66s.053.466.159.66c.11.193.262.345.455.455.193.107.413.159.66.159.398 0 .732-.157 1.001-.472l.592.546a1.86 1.86 0 01-.693.524l-.012.005a2.35 2.35 0 01-.939.182zm4.811-1.672h-.637v1.604h-.916v-3.982h.916v1.61h.66l1.047-1.61h.973l-1.303 1.923 1.343 2.059h-1.047l-1.035-1.604zm3.537-2.378h.916v2.594l1.9-2.594h.865v3.982h-.91V27.99l-1.9 2.588h-.87v-3.982zm5.696 0h.916v2.594l1.9-2.594h.865v3.982h-.91V27.99l-1.9 2.588h-.87v-3.982zm1.838-.256c-.728 0-1.096-.29-1.104-.87h.631c.008.277.165.415.472.415.151 0 .267-.034.347-.102.08-.072.122-.176.125-.313h.631c-.004.284-.097.501-.279.649s-.457.222-.825.222zM74.263 14.949v2.829H63.872V4.836h10.15v2.829h-6.527v2.182h5.75v2.736h-5.75v2.367h6.767zM89.348 4.836v12.942h-3.014l-5.713-6.896v6.896h-3.587V4.836h3.014l5.713 6.896V4.836h3.587z"/><path fill="var(--color4, #ff6b09)" d="M58.695 11.062c-.19-.424-.45-.841-.832-1.323-.961-1.209-1.254-3.904-1.258-3.93a.326.326 0 00-.222-.274l-.002-.001a.329.329 0 00-.345.094c-1.147 1.283-.665 3.264-.404 4.056.071.217.149.472.206.731.423 2.091-.395 3.038-.587 3.228-.186.052-.313.026-.43-.1-.405-.443-.538-1.894-.348-3.785a3.818 3.818 0 00-.03-1.076l.003.023c-.399-2.324-1.861-3.815-2.233-4.338C51.189 2.854 51.085.336 51.082.314a.325.325 0 00-.509-.255l.001-.001c-1.708 1.161-1.562 3.957-1.323 5.518.055.363.163.73.348 1.196.661 1.664-.13 3.814-.137 3.833-.007.02-.014.036-.016.055-.101.53-.27.847-.46.847a.219.219 0 01-.063-.01h.002c-.231-.048-.352-.294-.356-.507-.013-2.757-2.78-3.685-2.809-3.695s-.064-.016-.1-.016a.326.326 0 00-.246.113.316.316 0 00-.044.357l-.001-.002c.033.068.137.365.065 1.415a12.078 12.078 0 01-.535 2.859l.023-.085c-.658 2.147-.555 4.18-.548 4.277.506 5.505 8.423 6.47 13.122 3.369.515-.34.935-.727 1.244-1.154 1.734-2.392.714-5.641-.045-7.367zM46.651 16.32v.017a.322.322 0 01-.306.322h-.023a.325.325 0 01-.324-.303v-.001c-.029-.471-.023-.966.014-1.503a.33.33 0 01.349-.3h-.001c.17.012.304.153.304.325l-.001.022v-.001c-.036.511-.043.976-.013 1.422zm.159-2.864a.323.323 0 01-.321.284h-.001c-.014 0-.026 0-.043-.004a.327.327 0 01-.286-.324l.002-.036v.001l.156-1.248a.329.329 0 01.367-.28h-.002a.324.324 0 01.283.362l-.156 1.244zm9.679-9.034a.324.324 0 01-.272-.37v.002c.021-.132.139-.804.458-1.142a.327.327 0 01.461-.014.32.32 0 01.014.457c-.135.143-.25.553-.289.798a.327.327 0 01-.374.27h.002zm-11.881 1.61c-.063-.24-.218-.637-.366-.767a.32.32 0 01-.03-.456.326.326 0 01.46-.029c.351.306.535.963.567 1.092a.323.323 0 01-.232.393h-.002a.329.329 0 01-.397-.23l-.001-.002z"/></symbol><symbol id="logo-mobile" viewBox="0 0 88 32"><path fill="var(--color3, #111518)" d="M12.344 4.847v12.975h-3.67v-5.06H3.67v5.06H0V4.847h3.67v4.875h5.004V4.847h3.67zm13.433 7.972c0 .024-.019.314-.055.871h-7.303c.148.519.433.92.852 1.205.433.271.971.408 1.613.408.481 0 .896-.068 1.241-.204a3.638 3.638 0 001.075-.668l1.854 1.928c-.975 1.087-2.403 1.631-4.281 1.631-1.174 0-2.207-.222-3.095-.668-.89-.445-1.582-1.063-2.077-1.854-.482-.79-.723-1.686-.723-2.687 0-.989.235-1.873.704-2.65a5.076 5.076 0 011.958-1.842l.027-.013c.84-.445 1.785-.668 2.836-.668 1.001 0 1.909.21 2.726.63a4.591 4.591 0 011.927 1.799c.482.778.723 1.705.723 2.781zm-5.357-2.707c-.544 0-1.001.154-1.372.463-.359.309-.587.728-.686 1.26h4.116c-.099-.531-.334-.951-.705-1.26-.359-.309-.81-.463-1.353-.463zm7.722-6.042h3.521v13.753h-3.521V4.07zm6.552 0h3.522v13.753h-3.522V4.07zM3.328 29.8H1.474l-.353.855H.174l1.779-3.992h.913l1.785 3.992h-.97l-.353-.855zm-.291-.702l-.632-1.528-.633 1.528h1.266zm7.321.804v1.58h-.855v-.828H6.686v.828H5.83l.007-1.58h.159c.239-.008.408-.183.508-.525s.16-.831.183-1.465l.045-1.249H9.8v3.241h.559zM7.5 27.998a8.297 8.297 0 01-.119 1.197c-.061.32-.154.555-.279.706h1.785v-2.486H7.519l-.018.583zm6.395 2.725c-.407 0-.776-.088-1.107-.263a2.056 2.056 0 01-.771-.726l-.005-.009a2.033 2.033 0 01-.279-1.036v-.033.002c0-.395.094-.749.279-1.06.191-.316.449-.561.776-.736a2.3 2.3 0 011.112-.268c.346 0 .658.061.936.183.281.121.518.299.704.521l.002.003-.593.547a1.273 1.273 0 00-.987-.468h-.018.001c-.246 0-.467.055-.661.166-.193.106-.348.26-.453.446l-.003.006c-.101.185-.16.405-.16.638v.025-.001c0 .246.053.467.16.661.11.193.262.345.456.456.194.107.415.16.662.16a1.27 1.27 0 001.004-.474l.593.548c-.19.232-.426.408-.707.53a2.344 2.344 0 01-.941.183zm4.822-1.676h-.638v1.608h-.918v-3.992h.918v1.614h.662l1.048-1.614h.975l-1.306 1.928 1.346 2.065h-1.048l-1.039-1.608zm3.547-2.384h.918v2.601l1.905-2.601h.867v3.992h-.913v-2.594l-1.905 2.594h-.873v-3.992zm5.711 0h.918v2.601l1.906-2.601h.866v3.992h-.913v-2.594l-1.905 2.594h-.872v-3.992zm1.842-.256c-.73 0-1.099-.291-1.107-.873h.633c.007.277.166.416.473.416.151 0 .268-.033.348-.103a.426.426 0 00.126-.313h.632c-.003.285-.097.502-.279.65s-.458.223-.828.223zM39.03 29.8h-1.854l-.353.855h-.947l1.78-3.992h.913l1.784 3.992h-.969l-.353-.855zm-.29-.702l-.633-1.528-.633 1.528h1.267zm6.831-2.435v3.992h-.924v-1.636h-1.814v1.636h-.924v-3.992h.924v1.575h1.814v-1.575h.924zm4.839.752h-1.899l.006 3.24h-.918v-3.992h2.817l-.006.753zm4.659-.752v3.992h-.913v-3.24h-1.368l-.029.833c-.02.566-.065 1.026-.138 1.379-.072.351-.193.621-.364.811-.168.186-.403.279-.707.279-.126 0-.278-.021-.457-.063l.057-.781c.05.015.105.022.166.022.221 0 .375-.128.462-.386.087-.263.142-.672.166-1.227l.056-1.62h3.068zm2.023 0h.918v2.601l1.905-2.601h.867v3.992h-.913v-2.594l-1.906 2.593h-.873v-3.992zm5.711 0h.918v2.601l1.906-2.601h.866v3.992h-.913v-2.594l-1.905 2.594h-.872v-3.992zm1.843-.256c-.73 0-1.099-.291-1.107-.873h.633c.007.277.166.416.473.416.151 0 .267-.033.348-.103a.426.426 0 00.126-.313h.632c-.003.285-.097.502-.279.65s-.458.223-.828.223zm5.755 4.316c-.407 0-.776-.088-1.107-.263a2.056 2.056 0 01-.771-.726l-.005-.009a2.032 2.032 0 01-.279-1.035v-.033.002l-.001-.047c0-.755.423-1.411 1.045-1.744l.011-.005a2.3 2.3 0 011.112-.268c.346 0 .659.061.936.183.281.121.518.299.704.521l.002.003-.593.547a1.273 1.273 0 00-.987-.468h-.018.001c-.246 0-.467.055-.661.166-.193.106-.348.26-.453.446l-.003.006c-.101.185-.16.405-.16.639v.025-.001c0 .246.053.467.16.661.11.193.262.345.456.456.194.107.415.16.662.16a1.27 1.27 0 001.004-.474l.593.548c-.19.232-.426.408-.707.53a2.344 2.344 0 01-.941.183zm4.823-1.676h-.64v1.608h-.917v-3.992h.918v1.614h.662l1.048-1.614h.975l-1.305 1.928 1.346 2.065h-1.05l-1.037-1.608zm3.547-2.384h.918v2.601l1.905-2.601h.867v3.992h-.913v-2.594l-1.905 2.594h-.873v-3.992zm5.71 0h.918v2.601l1.906-2.601h.866v3.992h-.913v-2.594l-1.905 2.594h-.872v-3.992zm1.843-.256c-.73 0-1.099-.291-1.107-.873h.633c.008.277.166.416.473.416.152 0 .268-.033.348-.103a.426.426 0 00.126-.313h.632c-.003.285-.097.502-.279.65s-.458.223-.828.223zm-13.171-11.42v2.836H62.736V4.848h10.176v2.836h-6.543v2.187h5.764v2.743h-5.764v2.372h6.784zm15.123-10.14v12.975h-3.021l-5.727-6.914v6.914h-3.597V4.847h3.022l5.727 6.914V4.847h3.596z"/><path fill="var(--color4, #ff6b09)" d="M57.545 11.09c-.189-.424-.45-.842-.832-1.324-.964-1.214-1.258-3.915-1.261-3.942a.328.328 0 00-.224-.275l-.002-.001a.326.326 0 00-.346.095c-1.15 1.287-.666 3.273-.405 4.066.072.217.15.473.206.733.425 2.097-.396 3.046-.588 3.238-.188.052-.314.025-.431-.1-.405-.445-.54-1.899-.35-3.796.04-.385.03-.732-.026-1.056-.399-2.329-1.865-3.825-2.238-4.348C50.022 2.863 49.917.338 49.914.316a.327.327 0 00-.511-.255l.001-.001c-1.711 1.163-1.565 3.966-1.326 5.532.055.363.163.732.35 1.198.663 1.67-.13 3.825-.137 3.843-.007.02-.013.035-.017.055-.102.532-.271.85-.461.85a.26.26 0 01-.063-.011h.002c-.232-.047-.353-.294-.356-.508-.013-2.764-2.787-3.694-2.816-3.704a.328.328 0 00-.346.096.319.319 0 00-.046.358l-.001-.002c.033.068.138.366.066 1.419a12.077 12.077 0 01-.537 2.866l.023-.086a13.26 13.26 0 00-.549 4.31l-.001-.023c.508 5.519 8.445 6.486 13.155 3.377.516-.34.938-.728 1.248-1.156 1.738-2.398.716-5.655-.045-7.385zm-12.072 5.272l.001.018a.323.323 0 01-.309.323h-.022a.327.327 0 01-.325-.304v-.001c-.03-.474-.022-.97.013-1.507a.33.33 0 01.351-.301h-.001c.17.012.304.153.304.326l-.001.022v-.001a10.114 10.114 0 00-.011 1.455l-.001-.029zm.159-2.871a.325.325 0 01-.322.286h-.001c-.013 0-.026 0-.042-.003a.328.328 0 01-.285-.361v.002l.157-1.251a.33.33 0 01.368-.281h-.002c.18.022.307.184.284.363l-.157 1.247zm9.703-9.057a.325.325 0 01-.272-.372v.002c.021-.132.139-.806.459-1.144a.33.33 0 01.461-.015.322.322 0 01.015.459c-.136.143-.252.554-.29.8a.327.327 0 01-.374.27h.002zM43.423 6.047c-.063-.241-.217-.638-.367-.768a.32.32 0 01-.03-.457.327.327 0 01.462-.03c.352.306.536.966.569 1.095a.324.324 0 01-.233.393h-.002a.328.328 0 01-.397-.231l-.001-.002z"/></symbol><symbol id="logo-mobile-white" viewBox="0 0 88 32"><path fill="var(--color1, #fff)" d="M12.344 4.847v12.975h-3.67v-5.06H3.67v5.06H0V4.847h3.67v4.875h5.004V4.847h3.67zm13.433 7.972c0 .024-.019.314-.055.871h-7.303c.148.519.433.92.852 1.205.433.271.971.408 1.613.408.481 0 .896-.068 1.241-.204a3.638 3.638 0 001.075-.668l1.854 1.928c-.975 1.087-2.403 1.631-4.281 1.631-1.174 0-2.207-.222-3.095-.668-.89-.445-1.582-1.063-2.077-1.854-.482-.79-.723-1.686-.723-2.687 0-.989.235-1.873.704-2.65a5.076 5.076 0 011.958-1.842l.027-.013c.84-.445 1.785-.668 2.836-.668 1.001 0 1.909.21 2.726.63a4.591 4.591 0 011.927 1.799c.482.778.723 1.705.723 2.781zm-5.357-2.707c-.544 0-1.001.154-1.372.463-.359.309-.587.728-.686 1.26h4.116c-.099-.531-.334-.951-.705-1.26-.359-.309-.81-.463-1.353-.463zm7.722-6.042h3.521v13.753h-3.521V4.07zm6.552 0h3.522v13.753h-3.522V4.07zM3.328 29.8H1.474l-.353.855H.174l1.779-3.992h.913l1.785 3.992h-.97l-.353-.855zm-.291-.702l-.632-1.528-.633 1.528h1.266zm7.321.804v1.58h-.855v-.828H6.686v.828H5.83l.007-1.58h.159c.239-.008.408-.183.508-.525s.16-.831.183-1.465l.045-1.249H9.8v3.241h.559zM7.5 27.998a8.297 8.297 0 01-.119 1.197c-.061.32-.154.555-.279.706h1.785v-2.486H7.519l-.018.583zm6.395 2.725c-.407 0-.776-.088-1.107-.263a2.056 2.056 0 01-.771-.726l-.005-.009a2.033 2.033 0 01-.279-1.036v-.033.002c0-.395.094-.749.279-1.06.191-.316.449-.561.776-.736a2.3 2.3 0 011.112-.268c.346 0 .658.061.936.183.281.121.518.299.704.521l.002.003-.593.547a1.273 1.273 0 00-.987-.468h-.018.001c-.246 0-.467.055-.661.166-.193.106-.348.26-.453.446l-.003.006c-.101.185-.16.405-.16.638v.025-.001c0 .246.053.467.16.661.11.193.262.345.456.456.194.107.415.16.662.16a1.27 1.27 0 001.004-.474l.593.548c-.19.232-.426.408-.707.53a2.344 2.344 0 01-.941.183zm4.822-1.676h-.638v1.608h-.918v-3.992h.918v1.614h.662l1.048-1.614h.975l-1.306 1.928 1.346 2.065h-1.048l-1.039-1.608zm3.547-2.384h.918v2.601l1.905-2.601h.867v3.992h-.913v-2.594l-1.905 2.594h-.873v-3.992zm5.711 0h.918v2.601l1.906-2.601h.866v3.992h-.913v-2.594l-1.905 2.594h-.872v-3.992zm1.842-.256c-.73 0-1.099-.291-1.107-.873h.633c.007.277.166.416.473.416.151 0 .268-.033.348-.103a.426.426 0 00.126-.313h.632c-.003.285-.097.502-.279.65s-.458.223-.828.223zM39.03 29.8h-1.854l-.353.855h-.947l1.78-3.992h.913l1.784 3.992h-.969l-.353-.855zm-.29-.702l-.633-1.528-.633 1.528h1.267zm6.831-2.435v3.992h-.924v-1.636h-1.814v1.636h-.924v-3.992h.924v1.575h1.814v-1.575h.924zm4.839.752h-1.899l.006 3.24h-.918v-3.992h2.817l-.006.753zm4.659-.752v3.992h-.913v-3.24h-1.368l-.029.833c-.02.566-.065 1.026-.138 1.379-.072.351-.193.621-.364.811-.168.186-.403.279-.707.279-.126 0-.278-.021-.457-.063l.057-.781c.05.015.105.022.166.022.221 0 .375-.128.462-.386.087-.263.142-.672.166-1.227l.056-1.62h3.068zm2.023 0h.918v2.601l1.905-2.601h.867v3.992h-.913v-2.594l-1.906 2.593h-.873v-3.992zm5.711 0h.918v2.601l1.906-2.601h.866v3.992h-.913v-2.594l-1.905 2.594h-.872v-3.992zm1.843-.256c-.73 0-1.099-.291-1.107-.873h.633c.007.277.166.416.473.416.151 0 .267-.033.348-.103a.426.426 0 00.126-.313h.632c-.003.285-.097.502-.279.65s-.458.223-.828.223zm5.755 4.316c-.407 0-.776-.088-1.107-.263a2.056 2.056 0 01-.771-.726l-.005-.009a2.032 2.032 0 01-.279-1.035v-.033.002l-.001-.047c0-.755.423-1.411 1.045-1.744l.011-.005a2.3 2.3 0 011.112-.268c.346 0 .659.061.936.183.281.121.518.299.704.521l.002.003-.593.547a1.273 1.273 0 00-.987-.468h-.018.001c-.246 0-.467.055-.661.166-.193.106-.348.26-.453.446l-.003.006c-.101.185-.16.405-.16.639v.025-.001c0 .246.053.467.16.661.11.193.262.345.456.456.194.107.415.16.662.16a1.27 1.27 0 001.004-.474l.593.548c-.19.232-.426.408-.707.53a2.344 2.344 0 01-.941.183zm4.823-1.676h-.64v1.608h-.917v-3.992h.918v1.614h.662l1.048-1.614h.975l-1.305 1.928 1.346 2.065h-1.05l-1.037-1.608zm3.547-2.384h.918v2.601l1.905-2.601h.867v3.992h-.913v-2.594l-1.905 2.594h-.873v-3.992zm5.71 0h.918v2.601l1.906-2.601h.866v3.992h-.913v-2.594l-1.905 2.594h-.872v-3.992zm1.843-.256c-.73 0-1.099-.291-1.107-.873h.633c.008.277.166.416.473.416.152 0 .268-.033.348-.103a.426.426 0 00.126-.313h.632c-.003.285-.097.502-.279.65s-.458.223-.828.223zm-13.171-11.42v2.836H62.736V4.848h10.176v2.836h-6.543v2.187h5.764v2.743h-5.764v2.372h6.784zm15.123-10.14v12.975h-3.021l-5.727-6.914v6.914h-3.597V4.847h3.022l5.727 6.914V4.847h3.596z"/><path fill="var(--color4, #ff6b09)" d="M57.545 11.09c-.189-.424-.45-.842-.832-1.324-.964-1.214-1.258-3.915-1.261-3.942a.328.328 0 00-.224-.275l-.002-.001a.326.326 0 00-.346.095c-1.15 1.287-.666 3.273-.405 4.066.072.217.15.473.206.733.425 2.097-.396 3.046-.588 3.238-.188.052-.314.025-.431-.1-.405-.445-.54-1.899-.35-3.796.04-.385.03-.732-.026-1.056-.399-2.329-1.865-3.825-2.238-4.348C50.022 2.863 49.917.338 49.914.316a.327.327 0 00-.511-.255l.001-.001c-1.711 1.163-1.565 3.966-1.326 5.532.055.363.163.732.35 1.198.663 1.67-.13 3.825-.137 3.843-.007.02-.013.035-.017.055-.102.532-.271.85-.461.85a.26.26 0 01-.063-.011h.002c-.232-.047-.353-.294-.356-.508-.013-2.764-2.787-3.694-2.816-3.704a.328.328 0 00-.346.096.319.319 0 00-.046.358l-.001-.002c.033.068.138.366.066 1.419a12.077 12.077 0 01-.537 2.866l.023-.086a13.26 13.26 0 00-.549 4.31l-.001-.023c.508 5.519 8.445 6.486 13.155 3.377.516-.34.938-.728 1.248-1.156 1.738-2.398.716-5.655-.045-7.385zm-12.072 5.272l.001.018a.323.323 0 01-.309.323h-.022a.327.327 0 01-.325-.304v-.001c-.03-.474-.022-.97.013-1.507a.33.33 0 01.351-.301h-.001c.17.012.304.153.304.326l-.001.022v-.001a10.114 10.114 0 00-.011 1.455l-.001-.029zm.159-2.871a.325.325 0 01-.322.286h-.001c-.013 0-.026 0-.042-.003a.328.328 0 01-.285-.361v.002l.157-1.251a.33.33 0 01.368-.281h-.002c.18.022.307.184.284.363l-.157 1.247zm9.703-9.057a.325.325 0 01-.272-.372v.002c.021-.132.139-.806.459-1.144a.33.33 0 01.461-.015.322.322 0 01.015.459c-.136.143-.252.554-.29.8a.327.327 0 01-.374.27h.002zM43.423 6.047c-.063-.241-.217-.638-.367-.768a.32.32 0 01-.03-.457.327.327 0 01.462-.03c.352.306.536.966.569 1.095a.324.324 0 01-.233.393h-.002a.328.328 0 01-.397-.231l-.001-.002z"/></symbol><symbol id="logo-white" viewBox="0 0 91 32"><path fill="var(--color1, #fff)" d="M13.608 4.836v12.942H9.947v-5.047H4.955v5.047H1.294V4.836h3.661v4.863h4.992V4.836h3.661zm13.398 7.95c0 .025-.018.314-.055.869h-7.285c.148.518.432.918.851 1.202.432.271.967.407 1.609.407.481 0 .894-.068 1.239-.203a3.617 3.617 0 001.072-.666l1.849 1.923c-.974 1.084-2.397 1.627-4.271 1.627-1.171 0-2.2-.222-3.088-.666s-1.577-1.06-2.071-1.849c-.481-.789-.721-1.683-.721-2.681 0-.986.235-1.867.703-2.644a5.064 5.064 0 011.951-1.836l.027-.013c.838-.444 1.781-.666 2.829-.666.998 0 1.904.21 2.718.629a4.599 4.599 0 011.911 1.772l.012.021c.481.777.721 1.701.721 2.773zm-5.343-2.7c-.542 0-.998.154-1.368.462-.357.308-.585.727-.684 1.257h4.105c-.098-.53-.333-.949-.703-1.257-.357-.308-.807-.462-1.35-.462zm7.702-6.027h3.513v13.719h-3.513V4.059zm6.535 0h3.513v13.719H35.9V4.059z"/><path fill="var(--color4, #ff6b09)" d="M4.614 29.724H2.765l-.353.853h-.944l1.775-3.982h.91l1.781 3.982h-.967l-.353-.853zm-.29-.699L3.693 27.5l-.631 1.525h1.263zm7.303.802v1.576h-.853v-.825H7.963v.825H7.11l.006-1.576h.159c.24-.007.408-.182.507-.523s.159-.828.181-1.462l.046-1.246h3.06v3.231h.557zm-2.851-1.9a8.467 8.467 0 01-.126 1.245l.007-.051c-.061.319-.154.554-.279.705h1.781v-2.48H8.794l-.017.58zm6.378 2.719c-.405 0-.774-.087-1.104-.262a2.047 2.047 0 01-.769-.725l-.005-.009a2.034 2.034 0 01-.279-1.033v-.032.002a1.973 1.973 0 011.053-1.792 2.3 2.3 0 011.109-.267c.345 0 .656.06.933.182.281.121.516.296.705.523l-.592.546a1.272 1.272 0 00-1.001-.466c-.247 0-.466.055-.66.165a1.162 1.162 0 00-.452.444l-.003.006c-.107.193-.159.413-.159.66s.053.466.159.66c.11.193.262.345.455.455.193.107.413.159.66.159.398 0 .732-.157 1.001-.472l.592.546a1.855 1.855 0 01-.694.524l-.012.005a2.35 2.35 0 01-.939.182zm4.81-1.672h-.637v1.604h-.917v-3.982h.916v1.61h.66l1.047-1.61h.973l-1.303 1.923 1.343 2.059h-1.047l-1.035-1.604zm3.538-2.378h.916v2.594l1.9-2.594h.865v3.982h-.91V27.99l-1.9 2.588h-.87v-3.982zm5.696 0h.916v2.594l1.9-2.594h.865v3.982h-.91V27.99l-1.9 2.588h-.87v-3.982zm1.838-.256c-.728 0-1.096-.29-1.104-.87h.631c.007.277.165.415.472.415.151 0 .267-.034.347-.102.08-.072.121-.176.125-.313h.631c-.004.284-.097.501-.279.649s-.457.222-.825.222z"/><path fill="var(--color1, #fff)" d="M40.226 29.724h-1.849l-.353.853h-.944l1.775-3.982h.91l1.781 3.982h-.967l-.353-.853zm-.29-.699l-.631-1.525-.631 1.525h1.263zm6.815-2.429v3.982h-.922v-1.633H44.02v1.633h-.922v-3.982h.922v1.57h1.809v-1.57h.922zm4.826.75h-1.894l.006 3.231h-.916v-3.982h2.81l-.006.751zm4.647-.75v3.982h-.91v-3.231h-1.365l-.028.831a8.564 8.564 0 01-.137 1.377c-.073.348-.193.619-.364.808-.167.186-.403.279-.705.279-.125 0-.277-.021-.455-.063l.057-.779a.562.562 0 00.165.023c.22 0 .373-.129.461-.387.087-.262.142-.669.165-1.223l.057-1.616h3.061zm2.018 0h.916v2.594l1.9-2.594h.865v3.982h-.91V27.99l-1.901 2.588h-.87v-3.982zm5.696 0h.916v2.594l1.901-2.594h.865v3.982h-.91V27.99l-1.9 2.588h-.871v-3.982zm1.838-.256c-.729 0-1.097-.29-1.104-.87h.632c.007.277.164.415.471.415.152 0 .268-.034.348-.102a.415.415 0 00.124-.313h.631c-.004.284-.097.501-.279.649s-.457.222-.825.222zm5.742 4.306h-.032c-.392 0-.761-.097-1.085-.268l.013.006a2.047 2.047 0 01-.769-.725l-.005-.009a2.034 2.034 0 01-.279-1.033v-.032.002c0-.395.092-.747.279-1.058.189-.315.448-.56.774-.734a2.263 2.263 0 011.076-.268h.035-.002c.345 0 .656.06.933.182.28.121.516.296.705.523l-.592.546a1.271 1.271 0 00-1.001-.466c-.247 0-.466.055-.66.165a1.162 1.162 0 00-.452.444l-.003.006c-.107.193-.159.413-.159.66s.053.466.159.66c.11.193.262.345.455.455.193.107.413.159.66.159.398 0 .732-.157 1.001-.472l.592.546a1.86 1.86 0 01-.693.524l-.012.005a2.35 2.35 0 01-.939.182zm4.811-1.672h-.637v1.604h-.916v-3.982h.916v1.61h.66l1.047-1.61h.973l-1.303 1.923 1.343 2.059h-1.047l-1.035-1.604zm3.537-2.378h.916v2.594l1.9-2.594h.865v3.982h-.91V27.99l-1.9 2.588h-.87v-3.982zm5.696 0h.916v2.594l1.9-2.594h.865v3.982h-.91V27.99l-1.9 2.588h-.87v-3.982zm1.838-.256c-.728 0-1.096-.29-1.104-.87h.631c.008.277.165.415.472.415.151 0 .267-.034.347-.102.08-.072.122-.176.125-.313h.631c-.004.284-.097.501-.279.649s-.457.222-.825.222zM74.263 14.949v2.829H63.872V4.836h10.15v2.829h-6.527v2.182h5.75v2.736h-5.75v2.367h6.767zM89.348 4.836v12.942h-3.014l-5.713-6.896v6.896h-3.587V4.836h3.014l5.713 6.896V4.836h3.587z"/><path fill="var(--color4, #ff6b09)" d="M58.695 11.062c-.19-.424-.45-.841-.832-1.323-.961-1.209-1.254-3.904-1.258-3.93a.326.326 0 00-.222-.274l-.002-.001a.329.329 0 00-.345.094c-1.147 1.283-.665 3.264-.404 4.056.071.217.149.472.206.731.423 2.091-.395 3.038-.587 3.228-.186.052-.313.026-.43-.1-.405-.443-.538-1.894-.348-3.785a3.818 3.818 0 00-.03-1.076l.003.023c-.399-2.324-1.861-3.815-2.233-4.338C51.189 2.854 51.085.336 51.082.314a.325.325 0 00-.509-.255l.001-.001c-1.708 1.161-1.562 3.957-1.323 5.518.055.363.163.73.348 1.196.661 1.664-.13 3.814-.137 3.833-.007.02-.014.036-.016.055-.101.53-.27.847-.46.847a.219.219 0 01-.063-.01h.002c-.231-.048-.352-.294-.356-.507-.013-2.757-2.78-3.685-2.809-3.695s-.064-.016-.1-.016a.326.326 0 00-.246.113.316.316 0 00-.044.357l-.001-.002c.033.068.137.365.065 1.415a12.078 12.078 0 01-.535 2.859l.023-.085c-.658 2.147-.555 4.18-.548 4.277.506 5.505 8.423 6.47 13.122 3.369.515-.34.935-.727 1.244-1.154 1.734-2.392.714-5.641-.045-7.367zM46.651 16.32v.017a.322.322 0 01-.306.322h-.023a.325.325 0 01-.324-.303v-.001c-.029-.471-.023-.966.014-1.503a.33.33 0 01.349-.3h-.001c.17.012.304.153.304.325l-.001.022v-.001c-.036.511-.043.976-.013 1.422zm.159-2.864a.323.323 0 01-.321.284h-.002c-.014 0-.026 0-.043-.004a.327.327 0 01-.286-.324l.002-.036v.001l.156-1.248a.329.329 0 01.367-.28h-.002a.324.324 0 01.283.362l-.156 1.244zm9.679-9.034a.324.324 0 01-.272-.37v.002c.021-.132.139-.804.458-1.142a.327.327 0 01.461-.014.32.32 0 01.014.457c-.135.143-.25.553-.289.798a.327.327 0 01-.374.27h.002zm-11.881 1.61c-.063-.24-.218-.637-.367-.767a.32.32 0 01-.03-.456.326.326 0 01.46-.029c.351.306.535.963.567 1.092a.323.323 0 01-.232.393h-.002a.329.329 0 01-.397-.23l-.001-.002z"/></symbol><symbol id="menu" viewBox="0 0 48 32"><path stroke-width="4.571" d="M0 2.286h46.857M0 16h46.857M0 29.714h46.857"/></symbol><symbol id="phone" viewBox="0 0 32 32"><path fill="var(--color4, #ff6b09)" d="M4.656.003a1.998 1.998 0 00-1.391.65l-.001.002-2.592 2.85c.003-.008-.01-.006-.083.096a.6.6 0 00-.09.172l-.001.004C-.558 7.142.151 10.843 1.874 14.363c1.725 3.52 4.477 6.886 7.634 9.651 3.158 2.763 6.722 4.926 10.12 5.998 3.397 1.072 6.691 1.059 9.133-.712a.662.662 0 00.073-.065c.064-.064.067-.072.056-.062l.01-.013 2.582-2.84c.322-.357.519-.831.519-1.352 0-.587-.25-1.116-.65-1.485l-6.128-5.572a2.015 2.015 0 00-1.353-.52c-.588 0-1.117.251-1.486.651l-.001.001-2.771 3.048c-2.25-.653-4.173-1.757-6.024-3.44-1.851-1.678-3.133-3.49-3.994-5.669l2.771-3.048a2.01 2.01 0 00.52-1.352 2.01 2.01 0 00-.653-1.486l-.001-.001L6.106.522A1.996 1.996 0 004.651.003h.005zm.059 1.248l.028-.001c.198 0 .379.077.513.203l6.125 5.571a.736.736 0 01.051 1.061l-3.064 3.366a.627.627 0 00-.123.644l-.001-.004c.93 2.536 2.43 4.618 4.493 6.494 2.064 1.877 4.275 3.174 6.89 3.859a.632.632 0 00.624-.185l3.066-3.366a.735.735 0 011.059-.049l6.128 5.571a.734.734 0 01.048 1.06l-2.56 2.816c-2.005 1.437-4.827 1.518-7.987.52-3.173-1.002-6.618-3.075-9.666-5.744-3.05-2.669-5.702-5.926-7.333-9.254-1.614-3.293-2.2-6.624-1.312-9.558l2.502-2.749a.745.745 0 01.518-.251h.002z"/></symbol>
<symbol id="icon-icon1" viewBox="0 0 31 32"><path fill="var(--color1, #ff6b09)" d="M30.151 4.961l-.001-.003a.225.225 0 00-.025-.046l.001.001-.003-.003a.278.278 0 00-.033-.042L25.283.062a.237.237 0 00-.039-.032l-.001-.001c-.003-.002-.007-.003-.009-.006A.518.518 0 0025.2.004l-.002-.001-.011-.004a.28.28 0 00-.098-.02H3.912a.283.283 0 00-.283.284v29.311a.25.25 0 00.005.055l.007.023.01.03c.003.009.009.017.013.025.004.007.007.016.013.023a.26.26 0 00.033.04l2.167 2.167a.283.283 0 00.402 0l1.965-1.964 1.964 1.964c.051.052.122.084.201.084s.15-.032.201-.084l1.963-1.963 1.965 1.963a.283.283 0 00.402 0l1.963-1.963 1.964 1.963a.283.283 0 00.402 0l1.965-1.964 1.964 1.964a.282.282 0 00.402 0l1.964-1.963 1.965 1.963a.283.283 0 00.402 0l2.165-2.165.011-.013.024-.029c.007-.009.011-.02.016-.03.004-.007.007-.012.009-.019.007-.013.009-.027.013-.04l.005-.013a.324.324 0 00.005-.056V5.068a.314.314 0 00-.023-.111l.001.002zM25.367.949l3.836 3.835h-3.836V.949zm4.237 28.507l-1.88 1.88-1.965-1.964a.283.283 0 00-.402 0l-1.963 1.964-1.964-1.964a.283.283 0 00-.402 0l-1.965 1.964-1.963-1.964c-.051-.052-.122-.084-.201-.084s-.15.032-.201.084l-1.963 1.964-1.965-1.964a.287.287 0 00-.402 0l-1.963 1.964-1.964-1.964a.287.287 0 00-.402 0l-1.964 1.964-1.88-1.88V.547h20.603v4.522c0 .157.127.284.284.284h4.521v24.103z"/><path fill="var(--color1, #ff6b09)" d="M6.313 3.234h9.303a.284.284 0 100-.568H6.313a.284.284 0 100 .568zm0 1.757h14.92a.284.284 0 100-.568H6.313a.284.284 0 100 .568zm-.284 1.577v9.199c0 .157.127.284.285.284h21.172a.284.284 0 00.284-.284V6.568a.284.284 0 00-.284-.284H6.313h-.001a.284.284 0 00-.284.284zm6.279.284h14.893v2.445H12.308V6.852zm0 3.013h14.893v2.444H12.308V9.865zm0 3.012h14.893v2.605H12.308v-2.605zm-5.71-6.025h5.142v2.445H6.598V6.852zm0 3.013h5.142v2.444H6.598V9.865zm0 3.012h5.142v2.605H6.598v-2.605zm20.888 4.452H6.313h-.001a.284.284 0 00-.284.284v9.198a.284.284 0 10.568 0v-2.889h5.143v2.889a.284.284 0 10.568 0v-2.889H27.2v2.889a.284.284 0 10.568 0v-9.198-.001a.283.283 0 00-.283-.283h-.001zM11.74 23.353H6.598V20.91h5.142v2.443zm0-3.012H6.598v-2.444h5.142v2.444zm15.461 3.012H12.308V20.91h14.893v2.443zm0-3.012H12.308v-2.444h14.893v2.444zM2.281-.021a.284.284 0 00-.284.284v29.311a.284.284 0 10.568 0V.263a.284.284 0 00-.284-.284zm-1.563 0a.284.284 0 00-.284.284v29.311a.284.284 0 10.568 0V.263a.284.284 0 00-.284-.284z"/></symbol><symbol id="icon-icon2" viewBox="0 0 33 32"><path fill="var(--color1, #ff6b09)" d="M30.175-.128H14.429a1.861 1.861 0 00-1.859 1.859V8.25L.871 13.159a.382.382 0 00-.05.678l.002.001 1.492.893v9.516A1.722 1.722 0 00.98 25.92v.917c0 .211.17.381.381.381h2.671a.38.38 0 00.381-.381v-.917a1.72 1.72 0 00-1.337-1.673v-9.06l1.18.706c-.037.272-.005-.474-.017 4.43 0 1.612 4.129 2.476 8.33 2.525v7.425c0 1.025.832 1.856 1.857 1.856H30.172a1.858 1.858 0 001.857-1.857c0 .051-.002-1.573 0-28.539a1.87 1.87 0 00-1.856-1.859zM3.651 25.918v.537H1.743v-.537a.955.955 0 111.909 0zm26.524 5.446H14.429c-.378 0-.711-.191-.909-.481a1.081 1.081 0 01-.187-.61V27.697h17.934v2.575c0 .596-.497 1.092-1.092 1.092zm1.092-4.429H13.332v-4.086c2.051-.023 8.335-.475 8.335-2.527-.003-3.08.005-4.33-.01-4.436l3.421-2.049a.382.382 0 00-.046-.676l-.002-.001-11.698-4.91V5.068h17.935v21.868zm-18.316-9.143c-2.113 0-6.182.273-7.949 1.427.011-3.53-.123-3.3.312-3.6 1.098-.808 4.239-1.373 7.637-1.373 1.482 0 7.954.407 7.954 1.777v3.196c-1.784-1.165-5.832-1.428-7.954-1.428zm.381-16.061A1.096 1.096 0 0114.428.636h15.745c.605 0 1.093.498 1.093 1.095v2.574H13.332V1.731zm-.381 7.184l11.09 4.655-2.748 1.644c-1.461-1.449-6.294-1.729-8.342-1.729-2.051 0-6.884.281-8.342 1.729L1.86 13.57l11.091-4.655zM5.002 20.321c0-.616 2.73-1.768 7.949-1.768 5.222 0 7.954 1.151 7.954 1.767s-2.732 1.768-7.954 1.768c-5.219 0-7.949-1.151-7.949-1.768z"/><path fill="var(--color1, #ff6b09)" d="M22.301 28.271a1.261 1.261 0 101.26 1.26c0-.694-.565-1.26-1.26-1.26zm0 1.759a.5.5 0 01-.001-.996h.001a.498.498 0 010 .996zm1.454-27.94h-2.907v.762h2.907V2.09z"/></symbol><symbol id="icon-icon3" viewBox="0 0 43 32"><path fill="var(--color1, #ff6b09)" d="M19.075 4.485H5.435v1.021h13.64V4.485zm0 3.808H7.478v1.021h11.597V8.293zm0 3.808H5.435v1.021h13.64v-1.021zm0 3.808H7.478v1.021h11.597v-1.021zm0 3.808H5.435v1.021h13.64v-1.021zm0 3.808H7.478v1.021h11.597v-1.021zm18.724-19.04h-13.64v1.021h13.64V4.485zm-2.043 3.808H24.159v1.021h11.597V8.293zm2.043 3.808h-13.64v1.021h13.64v-1.021zm-2.043 3.808H24.159v1.021h11.597v-1.021zm2.043 3.808h-13.64v1.021h13.64v-1.021zm-2.043 3.808H24.159v1.021h11.597v-1.021z"/><path fill="var(--color1, #ff6b09)" d="M42.723 3.323h-1.872V.511A.511.511 0 0040.34 0H25.057a3.95 3.95 0 00-3.431 1.991l-.01.019a3.955 3.955 0 00-3.441-2.011H2.892a.511.511 0 00-.511.511v2.812H.509a.511.511 0 00-.511.511v27.411c0 .281.229.511.511.511h42.213a.51.51 0 00.51-.511V3.832a.511.511 0 00-.511-.511zM25.076 1.021h14.753v27.35H23.986c-.703 0-1.405.296-1.859.68V3.962v-.009a2.932 2.932 0 012.932-2.932h.017-.001zm-21.672 0h14.774A2.924 2.924 0 0121.1 3.846v.005c.001.022.003.091.007.112V29.05a2.993 2.993 0 00-1.853-.678H3.405V1.022zM1.021 4.344h1.361v24.538c0 .282.229.511.511.511h16.361c.779 0 1.531.511 1.772 1.341H1.021V4.344zm41.192 26.39H22.209a1.849 1.849 0 011.775-1.341H40.341a.511.511 0 00.511-.511V4.344h1.361v26.39z"/></symbol><symbol id="icon-icon4" viewBox="0 0 33 32"><path fill="var(--color1, #ff6b09)" d="M1.993 12.558v2.831c0 .152.069.295.189.39a11.027 11.027 0 006.836 2.362c.741 0 1.482-.077 2.207-.224a11.826 11.826 0 004.872 1.032h.019-.001c1.707 0 3.351-.349 4.89-1.032 3.091.625 6.385-.046 9.043-2.138a.495.495 0 00.189-.39v-2.831c0-.415-.207-.794-.575-1.027l-3.867-2.176c.846-1.073 1.476-2.602 1.586-3.913.321-2.256-1.519-4.646-4.166-4.646a4.208 4.208 0 00-2.947 1.227c-.027.027-.058.049-.084.077-.024.025-.043.054-.067.08l-.044.053C19.316.852 17.862 0 16.148 0c-.167 0-.329.011-.491.028-.01-.001-.019-.006-.029-.006-.092 0-.287.025-.391.055-.015.004-.027.015-.041.021a4.498 4.498 0 00-3.002 2.135l-.011.021A4.17 4.17 0 009.014.797h-.01.001c-3.908 0-5.642 4.612-2.557 8.581l-3.903 2.167a1.19 1.19 0 00-.553 1.014zm19.004 4.27c-.084.041-.167.085-.251.123l-.002.001a10.84 10.84 0 01-4.596 1.006h-.033.002-.025c-2.509 0-4.823-.837-6.677-2.248l.027.02v-2.87c0-.097.047-.184.102-.221l4.542-2.525c.565.48 1.287.832 2.035.832.72 0 1.499-.357 2.052-.843l4.487 2.52a.277.277 0 01.131.237v2.87c-.52.395-1.108.76-1.729 1.069l-.064.029zm8.157-4.447a.202.202 0 01.092.169v2.595a9.988 9.988 0 01-6.737 1.98c.419-.265.772-.515 1.111-.782l-.028.022a.496.496 0 00.19-.39V12.86c0-.435-.219-.835-.611-1.087l-2.383-1.339.58-.321c.703.573 1.307.744 1.848.744.663 0 1.36-.325 1.878-.759l4.06 2.284zM23.216 1.788c1.381 0 2.593.902 3.021 2.142a3.698 3.698 0 01-2.235-1.14L24 2.788a.497.497 0 00-.788.082l-.001.002a3.694 3.694 0 01-2.524 1.757l-.022.003-.001-.003.001-.083c0-.201-.012-.399-.036-.594l.002.023-.007-.066a5.316 5.316 0 00-.13-.647l.009.038c.563-.902 1.609-1.513 2.713-1.513zm-2.66 3.855a4.652 4.652 0 003.157-1.751l.008-.01a4.684 4.684 0 002.701 1.056c-.007 1.792-1.471 4.927-3.206 4.927-1.337 0-2.479-1.912-2.905-3.238.109-.341.187-.669.245-.983zm.101 3.73l-.886.491-.895-.503c.332-.413.636-.893.897-1.413.25.527.551 1.01.884 1.425zM19.32 6.465c-.478 1.427-1.705 3.49-3.2 3.49-1.742 0-3.225-2.864-3.508-4.696.075-.019 2.429.127 4.049-2.001.823.688 1.932 1.143 3.011 1.188.013.647-.144 1.407-.352 2.019zM16.149.991c2.78 0 3.309 2.393 3.353 2.443a4.124 4.124 0 01-2.561-1.274l-.002-.002a.494.494 0 00-.788.085l-.001.002a4.095 4.095 0 01-2.385 1.86l-.029.007a4.23 4.23 0 01-1.14.153h-.028.001c.136-1.821 1.596-3.273 3.58-3.273zm-3.688 6.947c.257.515.563 1.007.913 1.439l-.875.487-.907-.51c.321-.411.61-.876.849-1.369l.02-.046zm-3.455-6.15c1.125 0 2.155.571 2.729 1.514-.029.1-.107.498-.117.548a3.685 3.685 0 01-1.819-1.061l-.002-.002a.494.494 0 00-.787.085l-.001.002a3.717 3.717 0 01-3.177 1.815h-.001c.158-1.627 1.518-2.9 3.174-2.9zm-3.13 3.889a4.699 4.699 0 003.635-1.786l.007-.01a4.6 4.6 0 002.027.956l.029.005c.029.575.179 1.273.35 1.789-.273.84-.799 1.84-1.451 2.505l-.013.01c-.408.43-.988.719-1.444.719-1.594 0-2.841-2.508-3.14-4.188zm-2.891 6.881c0-.075.033-.139.067-.162l4.116-2.284c.247.206.304.229.353.265.485.323.929.483 1.534.483.645 0 1.233-.273 1.749-.694.029-.023.06-.045.088-.068l.587.33-2.447 1.361a1.271 1.271 0 00-.584 1.069V15.976c0 .152.07.295.19.389.317.249.727.539 1.083.761a10.018 10.018 0 01-6.737-1.98v-2.587z"/><path fill="var(--color1, #ff6b09)" d="M31.259 20.781a2.042 2.042 0 00-1.102-.319c-.329 0-.641.077-.917.215l.012-.005-6.12 2.957a2.11 2.11 0 00-2.106-2.071l-3.51.001c-1.73-1.504-3.941-2.425-5.952-2.473-1.983-.047-3.762-.06-4.592-.064V18.02H0v11.517h6.972v-1.379c1.911 1.098 6.939 3.845 9.325 3.845.053 0 .107-.001.157-.005 4.196-.235 14.091-7.198 14.743-7.66a2.083 2.083 0 001.034-1.796v-.006a2.06 2.06 0 00-.965-1.747l-.009-.005zM5.98 28.543H.992V19.01H5.98v9.533zm24.707-5.058a.385.385 0 00-.045.028l.001-.001c-.103.073-10.281 7.271-14.245 7.493a2.179 2.179 0 01-.12.003c-2.093 0-7.195-2.753-9.307-4.001V20.01c.827.003 2.596.017 4.569.063 1.837.045 3.876.921 5.455 2.346l.141.128 3.888-.001a1.119 1.119 0 010 2.238h-7.142v.991h7.142a2.1 2.1 0 001.673-.839l6.984-3.373a1.052 1.052 0 011.053.06l-.004-.003c.323.202.508.537.508.918a1.087 1.087 0 01-.548.943l-.005.003zM16.611 12.159h-.991v.92h.991v-.92zm0 1.833h-.991v.92h.991v-.92zm0 1.835h-.991v.919h.991v-.92z"/></symbol><symbol id="icon-icon5" viewBox="0 0 27 32"><path fill="var(--color1, #ff6b09)" d="M-.105 31.754H27.25c.136-3.12-.088-8.296-2.006-10.759l-.069-.088-4.191-2.104c.091-.307.136-.588.154-.795a1.46 1.46 0 00-.105-.702l.004.01c-.691-1.654-2.154-2.525-2.959-2.896a5.128 5.128 0 00.479-1.567c.466-.134.823-.5.94-.962l.002-.009.49-1.988a1.336 1.336 0 00-.158-1.029l.003.006a1.35 1.35 0 00-.297-.339l-.002-.002c1.379-3.133-.931-6.087-1.057-6.243C15.977-.417 12.816.089 12.649.119c-4.561.955-6.321 4.45-5.327 8.549a1.34 1.34 0 00-.307 1.235l-.002-.009.492 1.99c.119.478.483.837.935.967a5.114 5.114 0 001.183 2.621l-.006-.007v1.576c-6.546 3.352-2.398 1.213-7.644 3.867-.01.049-2.461 2.654-2.097 10.374l.022.472zm26.404-.99h-4.502v-1.891l2.977-6.817c1.492 2.476 1.547 7.203 1.525 8.708zm-6.144-12.841c-.174 1.996-1.268 1.393-1.944 2.93-.531-.584-.691-1.285-.548-2.035.258-1.377-.583-1.786-.374-3.233l.031-.033v-.005c.018-.02.184-.218.232-.28 1.781.776 2.639 2.22 2.604 2.655zM10.6 16.355a5.03 5.03 0 002.903.913 5.047 5.047 0 002.809-.848l-.019.012c.114 1.137.558 1.365.402 2.203a3.32 3.32 0 00-.055.449v.01l-3.066 3.455-3.92-4.419.946-.494v-1.281zm-1.233-4.23V6.843c.477-.882 1.127-1.522 1.936-1.906 2.165 1.226 4.657 3.054 6.329 4.894-.002 2.343.007 2.349-.009 2.542l-.001.012c-.131 2.128-1.88 3.892-4.124 3.892-2.181 0-3.992-1.712-4.123-3.913a2.831 2.831 0 01-.008-.215v-.025.001zm-.611 6.482l4.816 5.43 3.234-3.645c.074.213.177.414.296.609l-3.53 4.414-5.263-6.583.447-.225zm9.862-7.278v-1.53l.368-.422c.02.775.104-.139-.368 1.952zm-5.789-10.24c.196.012 2.824-.4 4.901 1.843.082.102 1.773 2.281 1.093 4.665-.233-1.061-.638-2.42-1.279-3.068l-.7.697c.633.64 1.049 2.591 1.206 3.602-2.9-3.035-6.642-4.957-6.694-4.989-.187.116-1.771.417-2.921 2.653l-.054.106V8.24l-.146.001c-.731-3.528.669-6.331 4.593-7.153zM8.132 9.261l.248 1.008v1.06l-.413-1.675c-.061-.249.124-.344.165-.394zm-.725 10.023l6.166 7.711 4.172-5.218c.454.406.672.464 1.634.959l-.324-1.101c-.082-.279.244-.728.441-.933a3.008 3.008 0 001.073-.987l.007-.011 3.404 1.709-3.168 7.251v2.099H6.335v-2.099l-3.169-7.25 4.242-2.13zm-5.038 2.774l2.978 6.815v1.891H.845c-.022-1.505.033-6.23 1.524-8.706z"/></symbol><symbol id="icon-icon6" viewBox="0 0 37 32"><path fill="var(--color1, #ff6b09)" d="M2.381 29.453h12.23a3.743 3.743 0 003.367 2.115h.801a3.737 3.737 0 003.356-2.093l.01-.022h12.237a2.288 2.288 0 002.286-2.286V5.262a2.288 2.288 0 00-2.286-2.285h-1.234V1.956A1.525 1.525 0 0031.624.433H5.133a1.525 1.525 0 00-1.524 1.523v1.021H2.382A2.289 2.289 0 00.095 5.262v21.905a2.288 2.288 0 002.287 2.286zm29.24-4.702H19.144V7.046c2.885.377 5.121 2.845 5.121 5.831v.687l-.181-.04a.763.763 0 00-.907.575l-.001.005-1.213 5.52a.762.762 0 00.575.906l.005.001 2.621.578a1.944 1.944 0 002.318-1.492l.702-3.192a1.953 1.953 0 00-1.472-2.321l-.013-.003-.912-.201v-1.023c0-3.827-2.917-6.987-6.645-7.371V1.955h12.48l-.001 22.796zM24.5 15.177l1.871.412a.422.422 0 01.325.508l-.702 3.191a.45.45 0 01-.507.331l-1.873-.413.886-4.029zM5.132 1.955h12.487v3.55c-3.731.381-6.651 3.542-6.651 7.372v1.022l-.913.202a1.945 1.945 0 00-1.218.846l-.005.008a1.91 1.91 0 00-.257 1.482l-.003-.013.7 3.189a1.961 1.961 0 002.338 1.493l-.013.002 2.61-.577a.764.764 0 00.58-.912l.001.005-1.213-5.519a.762.762 0 00-.913-.579l.005-.001-.174.038v-.685c0-2.988 2.24-5.458 5.128-5.832v17.707H5.133V1.956zm7.117 13.222l.887 4.029-1.863.411a.432.432 0 01-.511-.325l-.001-.003-.702-3.196a.42.42 0 01.056-.321l-.001.002a.429.429 0 01.265-.186l.003-.001 1.867-.412zM1.619 5.262c0-.42.341-.762.761-.762h1.227v20.251a1.525 1.525 0 001.525 1.524h26.491a1.525 1.525 0 001.524-1.523V4.5h1.234c.421 0 .762.342.762.762v21.905c0 .42-.341.762-.762.762H21.627a.763.763 0 00-.729.539 2.226 2.226 0 01-2.126 1.577h-.785a2.23 2.23 0 01-2.13-1.571l-.004-.016a.762.762 0 00-.725-.529H2.381a.762.762 0 01-.762-.762V5.262z"/></symbol>
</defs></svg>


