<svg aria-hidden="true" style="position: absolute; width: 0; height: 0; overflow: hidden;" version="1.1" xmlns="http://www.w3.org/2000/svg" xmlns:xlink="http://www.w3.org/1999/xlink">
<defs>
<symbol id="logo" viewBox="0 0 91 32">
<path fill="#111518" style="fill: var(--color1, #111518)" d="M13.608 4.836v12.942h-3.661v-5.047h-4.992v5.047h-3.661v-12.942h3.661v4.863h4.992v-4.863h3.661zM27.006 12.786c0 0.025-0.018 0.314-0.055 0.869h-7.285c0.148 0.518 0.432 0.918 0.851 1.202 0.432 0.271 0.967 0.407 1.609 0.407 0.481 0 0.894-0.068 1.239-0.203 0.358-0.135 0.715-0.358 1.072-0.666l1.849 1.923c-0.974 1.084-2.397 1.627-4.271 1.627-1.171 0-2.2-0.222-3.088-0.666s-1.577-1.060-2.071-1.849c-0.481-0.789-0.721-1.683-0.721-2.681 0-0.986 0.235-1.867 0.703-2.644 0.483-0.786 1.154-1.415 1.951-1.836l0.027-0.013c0.838-0.444 1.781-0.666 2.829-0.666 0.998 0 1.904 0.21 2.718 0.629 0.811 0.406 1.466 1.020 1.911 1.772l0.012 0.021c0.481 0.777 0.721 1.701 0.721 2.773zM21.663 10.086c-0.542 0-0.998 0.154-1.368 0.462-0.357 0.308-0.585 0.727-0.684 1.257h4.105c-0.098-0.53-0.333-0.949-0.703-1.257-0.357-0.308-0.807-0.462-1.35-0.462zM29.365 4.059h3.513v13.719h-3.513v-13.719zM35.9 4.059h3.513v13.719h-3.513v-13.719z"></path>
<path fill="#ff6b09" style="fill: var(--color2, #ff6b09)" d="M4.614 29.724h-1.849l-0.353 0.853h-0.944l1.775-3.982h0.91l1.781 3.982h-0.967l-0.353-0.853zM4.324 29.025l-0.631-1.525-0.631 1.525h1.263zM11.627 29.827v1.576h-0.853v-0.825h-2.811v0.825h-0.853l0.006-1.576h0.159c0.24-0.007 0.408-0.182 0.507-0.523s0.159-0.828 0.181-1.462l0.046-1.246h3.060v3.231h0.557zM8.776 27.927c-0.012 0.432-0.055 0.843-0.126 1.245l0.007-0.051c-0.061 0.319-0.154 0.554-0.279 0.705h1.781v-2.48h-1.365l-0.017 0.58zM15.154 30.646c-0.405 0-0.774-0.087-1.104-0.262-0.322-0.175-0.583-0.424-0.769-0.725l-0.005-0.009c-0.175-0.296-0.279-0.653-0.279-1.033 0-0.011 0-0.021 0-0.032l-0 0.002c0-0.395 0.092-0.747 0.279-1.058 0.19-0.315 0.448-0.56 0.774-0.734 0.33-0.178 0.7-0.267 1.109-0.267 0.345 0 0.656 0.060 0.933 0.182 0.281 0.121 0.516 0.296 0.705 0.523l-0.592 0.546c-0.27-0.311-0.603-0.466-1.001-0.466-0.247 0-0.466 0.055-0.66 0.165-0.192 0.106-0.347 0.259-0.452 0.444l-0.003 0.006c-0.107 0.193-0.159 0.413-0.159 0.66s0.053 0.466 0.159 0.66c0.11 0.193 0.262 0.345 0.455 0.455 0.193 0.107 0.413 0.159 0.66 0.159 0.398 0 0.732-0.157 1.001-0.472l0.592 0.546c-0.187 0.227-0.424 0.407-0.694 0.524l-0.012 0.005c-0.281 0.121-0.594 0.182-0.939 0.182zM19.964 28.974h-0.637v1.604h-0.917v-3.982h0.916v1.61h0.66l1.047-1.61h0.973l-1.303 1.923 1.343 2.059h-1.047l-1.035-1.604zM23.502 26.596h0.916v2.594l1.9-2.594h0.865v3.982h-0.91v-2.588l-1.9 2.588h-0.87v-3.982zM29.198 26.596h0.916v2.594l1.9-2.594h0.865v3.982h-0.91v-2.588l-1.9 2.588h-0.87v-3.982zM31.036 26.34c-0.728 0-1.096-0.29-1.104-0.87h0.631c0.007 0.277 0.165 0.415 0.472 0.415 0.151 0 0.267-0.034 0.347-0.102 0.080-0.072 0.121-0.176 0.125-0.313h0.631c-0.004 0.284-0.097 0.501-0.279 0.649s-0.457 0.222-0.825 0.222z"></path>
<path fill="#111518" style="fill: var(--color1, #111518)" d="M40.226 29.724h-1.849l-0.353 0.853h-0.944l1.775-3.982h0.91l1.781 3.982h-0.967l-0.353-0.853zM39.936 29.025l-0.631-1.525-0.631 1.525h1.263zM46.751 26.596v3.982h-0.922v-1.633h-1.809v1.633h-0.922v-3.982h0.922v1.57h1.809v-1.57h0.922zM51.577 27.346h-1.894l0.006 3.231h-0.916v-3.982h2.81l-0.006 0.751zM56.224 26.596v3.982h-0.91v-3.231h-1.365l-0.028 0.831c-0.019 0.565-0.065 1.024-0.137 1.377-0.073 0.348-0.193 0.619-0.364 0.808-0.167 0.186-0.403 0.279-0.705 0.279-0.125 0-0.277-0.021-0.455-0.063l0.057-0.779c0.049 0.015 0.104 0.023 0.165 0.023 0.22 0 0.373-0.129 0.461-0.387 0.087-0.262 0.142-0.669 0.165-1.223l0.057-1.616h3.061zM58.242 26.596h0.916v2.594l1.9-2.594h0.865v3.982h-0.91v-2.588l-1.901 2.588h-0.87v-3.982zM63.938 26.596h0.916v2.594l1.901-2.594h0.865v3.982h-0.91v-2.588l-1.9 2.588h-0.871v-3.982zM65.776 26.34c-0.729 0-1.097-0.29-1.104-0.87h0.632c0.007 0.277 0.164 0.415 0.471 0.415 0.152 0 0.268-0.034 0.348-0.102 0.079-0.072 0.121-0.176 0.124-0.313h0.631c-0.004 0.284-0.097 0.501-0.279 0.649s-0.457 0.222-0.825 0.222zM71.518 30.646c-0.009 0-0.021 0-0.032 0-0.392 0-0.761-0.097-1.085-0.268l0.013 0.006c-0.322-0.175-0.583-0.424-0.769-0.725l-0.005-0.009c-0.175-0.296-0.279-0.653-0.279-1.033 0-0.011 0-0.021 0-0.032l-0 0.002c0-0.395 0.092-0.747 0.279-1.058 0.189-0.315 0.448-0.56 0.774-0.734 0.312-0.169 0.682-0.268 1.076-0.268 0.012 0 0.023 0 0.035 0l-0.002-0c0.345 0 0.656 0.060 0.933 0.182 0.28 0.121 0.516 0.296 0.705 0.523l-0.592 0.546c-0.269-0.311-0.603-0.466-1.001-0.466-0.247 0-0.466 0.055-0.66 0.165-0.192 0.106-0.347 0.259-0.452 0.444l-0.003 0.006c-0.107 0.193-0.159 0.413-0.159 0.66s0.053 0.466 0.159 0.66c0.11 0.193 0.262 0.345 0.455 0.455 0.193 0.107 0.413 0.159 0.66 0.159 0.398 0 0.732-0.157 1.001-0.472l0.592 0.546c-0.187 0.227-0.424 0.407-0.693 0.524l-0.012 0.005c-0.281 0.121-0.594 0.182-0.939 0.182zM76.329 28.974h-0.637v1.604h-0.916v-3.982h0.916v1.61h0.66l1.047-1.61h0.973l-1.303 1.923 1.343 2.059h-1.047l-1.035-1.604zM79.866 26.596h0.916v2.594l1.9-2.594h0.865v3.982h-0.91v-2.588l-1.9 2.588h-0.87v-3.982zM85.562 26.596h0.916v2.594l1.9-2.594h0.865v3.982h-0.91v-2.588l-1.9 2.588h-0.87v-3.982zM87.4 26.34c-0.728 0-1.096-0.29-1.104-0.87h0.631c0.008 0.277 0.165 0.415 0.472 0.415 0.151 0 0.267-0.034 0.347-0.102 0.080-0.072 0.122-0.176 0.125-0.313h0.631c-0.004 0.284-0.097 0.501-0.279 0.649s-0.457 0.222-0.825 0.222zM74.263 14.949v2.829h-10.391v-12.942h10.15v2.829h-6.527v2.182h5.75v2.736h-5.75v2.367h6.767zM89.348 4.836v12.942h-3.014l-5.713-6.896v6.896h-3.587v-12.942h3.014l5.713 6.896v-6.896h3.587z"></path>
<path fill="#ff6b09" style="fill: var(--color2, #ff6b09)" d="M58.695 11.062c-0.19-0.424-0.45-0.841-0.832-1.323-0.961-1.209-1.254-3.904-1.258-3.93-0.015-0.13-0.103-0.235-0.222-0.274l-0.002-0.001c-0.030-0.010-0.064-0.015-0.1-0.015-0.097 0-0.185 0.042-0.245 0.109l-0 0c-1.147 1.283-0.665 3.264-0.404 4.056 0.071 0.217 0.149 0.472 0.206 0.731 0.423 2.091-0.395 3.038-0.587 3.228-0.186 0.052-0.313 0.026-0.43-0.1-0.405-0.443-0.538-1.894-0.348-3.785 0.015-0.129 0.024-0.279 0.024-0.431 0-0.22-0.018-0.435-0.054-0.645l0.003 0.023c-0.399-2.324-1.861-3.815-2.233-4.338-1.024-1.513-1.128-4.031-1.131-4.053-0.007-0.174-0.15-0.312-0.325-0.312-0.068 0-0.132 0.021-0.184 0.057l0.001-0.001c-1.708 1.161-1.562 3.957-1.323 5.518 0.055 0.363 0.163 0.73 0.348 1.196 0.661 1.664-0.13 3.814-0.137 3.833-0.007 0.020-0.014 0.036-0.016 0.055-0.101 0.53-0.27 0.847-0.46 0.847-0.022-0-0.043-0.004-0.063-0.010l0.002 0c-0.231-0.048-0.352-0.294-0.356-0.507-0.013-2.757-2.78-3.685-2.809-3.695s-0.064-0.016-0.1-0.016c-0.098 0-0.186 0.044-0.246 0.113l-0 0c-0.050 0.056-0.080 0.13-0.080 0.211 0 0.053 0.013 0.102 0.036 0.146l-0.001-0.002c0.033 0.068 0.137 0.365 0.065 1.415-0.068 1.014-0.25 1.959-0.535 2.859l0.023-0.085c-0.658 2.147-0.555 4.18-0.548 4.277 0.506 5.505 8.423 6.47 13.122 3.369 0.515-0.34 0.935-0.727 1.244-1.154 1.734-2.392 0.714-5.641-0.045-7.367zM46.651 16.32c0 0.005 0 0.011 0 0.017 0 0.173-0.136 0.314-0.306 0.322l-0.001 0h-0.020c-0.001 0-0.001 0-0.002 0-0.172 0-0.312-0.134-0.324-0.303l-0-0.001c-0.029-0.471-0.023-0.966 0.014-1.503 0.015-0.169 0.156-0.301 0.328-0.301 0.007 0 0.014 0 0.021 0.001l-0.001-0c0.17 0.012 0.304 0.153 0.304 0.325 0 0.007-0 0.014-0.001 0.022l0-0.001c-0.036 0.511-0.043 0.976-0.013 1.422zM46.81 13.456c-0.020 0.161-0.156 0.284-0.321 0.284-0 0-0.001 0-0.001 0h0c-0.014 0-0.026 0-0.043-0.004-0.162-0.021-0.286-0.158-0.286-0.324 0-0.012 0.001-0.024 0.002-0.036l-0 0.001 0.156-1.248c0.023-0.161 0.16-0.283 0.325-0.283 0.014 0 0.028 0.001 0.042 0.003l-0.002-0c0.179 0.023 0.306 0.184 0.283 0.362l-0.156 1.244zM56.489 4.422c-0.157-0.024-0.276-0.158-0.276-0.32 0-0.017 0.001-0.034 0.004-0.050l-0 0.002c0.021-0.132 0.139-0.804 0.458-1.142 0.060-0.063 0.144-0.102 0.238-0.102 0.086 0 0.165 0.034 0.223 0.088l-0-0c0.132 0.122 0.138 0.326 0.014 0.457-0.135 0.143-0.25 0.553-0.289 0.798-0.026 0.156-0.16 0.274-0.322 0.274-0.018 0-0.035-0.001-0.052-0.004l0.002 0zM44.608 6.032c-0.063-0.24-0.218-0.637-0.366-0.767-0.068-0.059-0.111-0.146-0.111-0.243 0-0.082 0.031-0.156 0.081-0.213l-0 0c0.060-0.068 0.148-0.11 0.245-0.11 0.083 0 0.158 0.031 0.215 0.081l-0-0c0.351 0.306 0.535 0.963 0.567 1.092 0.006 0.024 0.010 0.052 0.010 0.080 0 0.151-0.103 0.277-0.242 0.313l-0.002 0c-0.024 0.006-0.052 0.010-0.081 0.010-0.151 0-0.277-0.102-0.316-0.24l-0.001-0.002z"></path>
</symbol>
<symbol id="logo-mobile" viewBox="0 0 88 32">
<path fill="#111518" style="fill: var(--color1, #111518)" d="M12.344 4.847v12.975h-3.67v-5.060h-5.004v5.060h-3.67v-12.975h3.67v4.875h5.004v-4.875h3.67zM25.777 12.819c0 0.024-0.019 0.314-0.055 0.871h-7.303c0.148 0.519 0.433 0.92 0.852 1.205 0.433 0.271 0.971 0.408 1.613 0.408 0.481 0 0.896-0.068 1.241-0.204 0.359-0.136 0.717-0.359 1.075-0.668l1.854 1.928c-0.975 1.087-2.403 1.631-4.281 1.631-1.174 0-2.207-0.222-3.095-0.668-0.89-0.445-1.582-1.063-2.077-1.854-0.482-0.79-0.723-1.686-0.723-2.687 0-0.989 0.235-1.873 0.704-2.65 0.485-0.789 1.158-1.42 1.958-1.842l0.027-0.013c0.84-0.445 1.785-0.668 2.836-0.668 1.001 0 1.909 0.21 2.726 0.63 0.814 0.408 1.457 1.007 1.927 1.799 0.482 0.778 0.723 1.705 0.723 2.781zM20.42 10.112c-0.544 0-1.001 0.154-1.372 0.463-0.359 0.309-0.587 0.728-0.686 1.26h4.116c-0.099-0.531-0.334-0.951-0.705-1.26-0.359-0.309-0.81-0.463-1.353-0.463zM28.142 4.070h3.521v13.753h-3.521v-13.753zM34.694 4.070h3.522v13.753h-3.522v-13.753zM3.328 29.8h-1.854l-0.353 0.855h-0.947l1.779-3.992h0.913l1.785 3.992h-0.97l-0.353-0.855zM3.037 29.098l-0.632-1.528-0.633 1.528h1.266zM10.358 29.902v1.58h-0.855v-0.828h-2.817v0.828h-0.856l0.007-1.58h0.159c0.239-0.008 0.408-0.183 0.508-0.525s0.16-0.831 0.183-1.465l0.045-1.249h3.068v3.241h0.559zM7.5 27.998c-0.018 0.474-0.058 0.874-0.119 1.197-0.061 0.32-0.154 0.555-0.279 0.706h1.785v-2.486h-1.368l-0.018 0.583zM13.895 30.723c-0.407 0-0.776-0.088-1.107-0.263-0.322-0.175-0.585-0.425-0.771-0.726l-0.005-0.009c-0.176-0.297-0.279-0.654-0.279-1.036 0-0.011 0-0.022 0-0.033l-0 0.002c0-0.395 0.094-0.749 0.279-1.060 0.191-0.316 0.449-0.561 0.776-0.736 0.331-0.179 0.702-0.268 1.112-0.268 0.346 0 0.658 0.061 0.936 0.183 0.281 0.121 0.518 0.299 0.704 0.521l0.002 0.003-0.593 0.547c-0.236-0.287-0.59-0.468-0.987-0.468-0.006 0-0.012 0-0.018 0h0.001c-0.246 0-0.467 0.055-0.661 0.166-0.193 0.106-0.348 0.26-0.453 0.446l-0.003 0.006c-0.101 0.185-0.16 0.405-0.16 0.638 0 0.008 0 0.017 0 0.025l-0-0.001c0 0.246 0.053 0.467 0.16 0.661 0.11 0.193 0.262 0.345 0.456 0.456 0.194 0.107 0.415 0.16 0.662 0.16 0.398 0 0.734-0.158 1.004-0.474l0.593 0.548c-0.19 0.232-0.426 0.408-0.707 0.53-0.281 0.122-0.596 0.183-0.941 0.183zM18.717 29.047h-0.638v1.608h-0.918v-3.992h0.918v1.614h0.662l1.048-1.614h0.975l-1.306 1.928 1.346 2.065h-1.048l-1.039-1.608zM22.264 26.663h0.918v2.601l1.905-2.601h0.867v3.992h-0.913v-2.594l-1.905 2.594h-0.873v-3.992zM27.975 26.663h0.918v2.601l1.906-2.601h0.866v3.992h-0.913v-2.594l-1.905 2.594h-0.872v-3.992zM29.817 26.407c-0.73 0-1.099-0.291-1.107-0.873h0.633c0.007 0.277 0.166 0.416 0.473 0.416 0.151 0 0.268-0.033 0.348-0.103 0.079-0.072 0.121-0.177 0.126-0.313h0.632c-0.003 0.285-0.097 0.502-0.279 0.65s-0.458 0.223-0.828 0.223zM39.030 29.8h-1.854l-0.353 0.855h-0.947l1.78-3.992h0.913l1.784 3.992h-0.969l-0.353-0.855zM38.74 29.098l-0.633-1.528-0.633 1.528h1.267zM45.571 26.663v3.992h-0.924v-1.636h-1.814v1.636h-0.924v-3.992h0.924v1.575h1.814v-1.575h0.924zM50.41 27.415h-1.899l0.006 3.24h-0.918v-3.992h2.817l-0.006 0.753zM55.069 26.663v3.992h-0.913v-3.24h-1.368l-0.029 0.833c-0.020 0.566-0.065 1.026-0.138 1.379-0.072 0.351-0.193 0.621-0.364 0.811-0.168 0.186-0.403 0.279-0.707 0.279-0.126 0-0.278-0.021-0.457-0.063l0.057-0.781c0.050 0.015 0.105 0.022 0.166 0.022 0.221 0 0.375-0.128 0.462-0.386 0.087-0.263 0.142-0.672 0.166-1.227l0.056-1.62h3.068zM57.092 26.663h0.918v2.601l1.905-2.601h0.867v3.992h-0.913v-2.594l-1.906 2.593h-0.873v-3.992zM62.803 26.663h0.918v2.601l1.906-2.601h0.866v3.992h-0.913v-2.594l-1.905 2.594h-0.872v-3.992zM64.646 26.407c-0.73 0-1.099-0.291-1.107-0.873h0.633c0.007 0.277 0.166 0.416 0.473 0.416 0.151 0 0.267-0.033 0.348-0.103 0.079-0.072 0.121-0.177 0.126-0.313h0.632c-0.003 0.285-0.097 0.502-0.279 0.65s-0.458 0.223-0.828 0.223zM70.401 30.723c-0.407 0-0.776-0.088-1.107-0.263-0.322-0.175-0.585-0.425-0.771-0.726l-0.005-0.009c-0.176-0.297-0.279-0.654-0.279-1.035 0-0.011 0-0.022 0-0.033l-0 0.002c-0-0.014-0.001-0.031-0.001-0.047 0-0.755 0.423-1.411 1.045-1.744l0.011-0.005c0.331-0.179 0.702-0.268 1.112-0.268 0.346 0 0.659 0.061 0.936 0.183 0.281 0.121 0.518 0.299 0.704 0.521l0.002 0.003-0.593 0.547c-0.236-0.287-0.59-0.468-0.987-0.468-0.006 0-0.012 0-0.018 0h0.001c-0.246 0-0.467 0.055-0.661 0.166-0.193 0.106-0.348 0.26-0.453 0.446l-0.003 0.006c-0.101 0.185-0.16 0.405-0.16 0.639 0 0.008 0 0.017 0 0.025l-0-0.001c0 0.246 0.053 0.467 0.16 0.661 0.11 0.193 0.262 0.345 0.456 0.456 0.194 0.107 0.415 0.16 0.662 0.16 0.399 0 0.734-0.158 1.004-0.474l0.593 0.548c-0.19 0.232-0.426 0.408-0.707 0.53-0.281 0.122-0.596 0.183-0.941 0.183zM75.224 29.047h-0.64v1.608h-0.917v-3.992h0.918v1.614h0.662l1.048-1.614h0.975l-1.305 1.928 1.346 2.065h-1.050l-1.037-1.608zM78.771 26.663h0.918v2.601l1.905-2.601h0.867v3.992h-0.913v-2.594l-1.905 2.594h-0.873v-3.992zM84.481 26.663h0.918v2.601l1.906-2.601h0.866v3.992h-0.913v-2.594l-1.905 2.594h-0.872v-3.992zM86.324 26.407c-0.73 0-1.099-0.291-1.107-0.873h0.633c0.008 0.277 0.166 0.416 0.473 0.416 0.152 0 0.268-0.033 0.348-0.103 0.079-0.072 0.121-0.177 0.126-0.313h0.632c-0.003 0.285-0.097 0.502-0.279 0.65s-0.458 0.223-0.828 0.223zM73.153 14.987v2.836h-10.417v-12.975h10.176v2.836h-6.543v2.187h5.764v2.743h-5.764v2.372h6.784zM88.276 4.847v12.975h-3.021l-5.727-6.914v6.914h-3.597v-12.975h3.022l5.727 6.914v-6.914h3.596z"></path>
<path fill="#ff6b09" style="fill: var(--color2, #ff6b09)" d="M57.545 11.090c-0.189-0.424-0.45-0.842-0.832-1.324-0.964-1.214-1.258-3.915-1.261-3.942-0.015-0.13-0.104-0.236-0.224-0.275l-0.002-0.001c-0.030-0.010-0.064-0.015-0.1-0.015-0.098 0-0.186 0.042-0.246 0.11l-0 0c-1.15 1.287-0.666 3.273-0.405 4.066 0.072 0.217 0.15 0.473 0.206 0.733 0.425 2.097-0.396 3.046-0.588 3.238-0.188 0.052-0.314 0.025-0.431-0.1-0.405-0.445-0.54-1.899-0.35-3.796 0.040-0.385 0.030-0.732-0.026-1.056-0.399-2.329-1.865-3.825-2.238-4.348-1.026-1.517-1.131-4.042-1.134-4.064-0.008-0.174-0.151-0.312-0.326-0.312-0.069 0-0.132 0.021-0.185 0.057l0.001-0.001c-1.711 1.163-1.565 3.966-1.326 5.532 0.055 0.363 0.163 0.732 0.35 1.198 0.663 1.67-0.13 3.825-0.137 3.843-0.007 0.020-0.013 0.035-0.017 0.055-0.102 0.532-0.271 0.85-0.461 0.85-0.022-0.001-0.043-0.005-0.063-0.011l0.002 0c-0.232-0.047-0.353-0.294-0.356-0.508-0.013-2.764-2.787-3.694-2.816-3.704-0.030-0.010-0.064-0.016-0.1-0.016-0.098 0-0.186 0.044-0.246 0.112l-0 0c-0.050 0.056-0.081 0.131-0.081 0.212 0 0.053 0.013 0.102 0.035 0.146l-0.001-0.002c0.033 0.068 0.138 0.366 0.066 1.419-0.068 1.017-0.251 1.964-0.537 2.866l0.023-0.086c-0.353 1.151-0.557 2.473-0.557 3.844 0 0.156 0.003 0.311 0.008 0.466l-0.001-0.023c0.508 5.519 8.445 6.486 13.155 3.377 0.516-0.34 0.938-0.728 1.248-1.156 1.738-2.398 0.716-5.655-0.045-7.385zM45.473 16.362c0 0.005 0.001 0.012 0.001 0.018 0 0.174-0.137 0.315-0.309 0.323l-0.001 0h-0.019c-0.001 0-0.001 0-0.002 0-0.172 0-0.313-0.134-0.325-0.304l-0-0.001c-0.030-0.474-0.022-0.97 0.013-1.507 0.015-0.17 0.156-0.302 0.329-0.302 0.007 0 0.015 0 0.022 0.001l-0.001-0c0.17 0.012 0.304 0.153 0.304 0.326 0 0.007-0 0.014-0.001 0.022l0-0.001c-0.020 0.242-0.031 0.525-0.031 0.81 0 0.217 0.007 0.432 0.020 0.645l-0.001-0.029zM45.632 13.491c-0.020 0.162-0.157 0.286-0.322 0.286-0 0-0.001 0-0.001 0h0c-0.013 0-0.026 0-0.042-0.003-0.162-0.021-0.287-0.158-0.287-0.324 0-0.013 0.001-0.025 0.002-0.037l-0 0.002 0.157-1.251c0.023-0.161 0.161-0.284 0.327-0.284 0.014 0 0.028 0.001 0.041 0.003l-0.002-0c0.18 0.022 0.307 0.184 0.284 0.363l-0.157 1.247zM55.335 4.434c-0.157-0.024-0.276-0.159-0.276-0.321 0-0.017 0.001-0.034 0.004-0.051l-0 0.002c0.021-0.132 0.139-0.806 0.459-1.144 0.060-0.063 0.145-0.103 0.238-0.103 0.086 0 0.165 0.033 0.223 0.088l-0-0c0.132 0.122 0.139 0.328 0.015 0.459-0.136 0.143-0.252 0.554-0.29 0.8-0.026 0.156-0.16 0.274-0.322 0.274-0.018 0-0.035-0.001-0.052-0.004l0.002 0zM43.423 6.047c-0.063-0.241-0.217-0.638-0.367-0.768-0.068-0.059-0.111-0.146-0.111-0.243 0-0.082 0.031-0.157 0.081-0.214l-0 0c0.060-0.068 0.148-0.111 0.246-0.111 0.083 0 0.158 0.031 0.216 0.081l-0-0c0.352 0.306 0.536 0.966 0.569 1.095 0.006 0.024 0.010 0.051 0.010 0.079 0 0.151-0.103 0.278-0.243 0.314l-0.002 0c-0.024 0.006-0.052 0.010-0.081 0.010-0.151 0-0.278-0.102-0.316-0.241l-0.001-0.002z"></path>
</symbol>
<symbol id="logo-mobile-white" viewBox="0 0 88 32">
<path fill="#fff" style="fill: var(--color3, #fff)" d="M12.344 4.847v12.975h-3.67v-5.060h-5.004v5.060h-3.67v-12.975h3.67v4.875h5.004v-4.875h3.67zM25.777 12.819c0 0.024-0.019 0.314-0.055 0.871h-7.303c0.148 0.519 0.433 0.92 0.852 1.205 0.433 0.271 0.971 0.408 1.613 0.408 0.481 0 0.896-0.068 1.241-0.204 0.359-0.136 0.717-0.359 1.075-0.668l1.854 1.928c-0.975 1.087-2.403 1.631-4.281 1.631-1.174 0-2.207-0.222-3.095-0.668-0.89-0.445-1.582-1.063-2.077-1.854-0.482-0.79-0.723-1.686-0.723-2.687 0-0.989 0.235-1.873 0.704-2.65 0.485-0.789 1.158-1.42 1.958-1.842l0.027-0.013c0.84-0.445 1.785-0.668 2.836-0.668 1.001 0 1.909 0.21 2.726 0.63 0.814 0.408 1.457 1.007 1.927 1.799 0.482 0.778 0.723 1.705 0.723 2.781zM20.42 10.112c-0.544 0-1.001 0.154-1.372 0.463-0.359 0.309-0.587 0.728-0.686 1.26h4.116c-0.099-0.531-0.334-0.951-0.705-1.26-0.359-0.309-0.81-0.463-1.353-0.463zM28.142 4.070h3.521v13.753h-3.521v-13.753zM34.694 4.070h3.522v13.753h-3.522v-13.753zM3.328 29.8h-1.854l-0.353 0.855h-0.947l1.779-3.992h0.913l1.785 3.992h-0.97l-0.353-0.855zM3.037 29.098l-0.632-1.528-0.633 1.528h1.266zM10.358 29.902v1.58h-0.855v-0.828h-2.817v0.828h-0.856l0.007-1.58h0.159c0.239-0.008 0.408-0.183 0.508-0.525s0.16-0.831 0.183-1.465l0.045-1.249h3.068v3.241h0.559zM7.5 27.998c-0.018 0.474-0.058 0.874-0.119 1.197-0.061 0.32-0.154 0.555-0.279 0.706h1.785v-2.486h-1.368l-0.018 0.583zM13.895 30.723c-0.407 0-0.776-0.088-1.107-0.263-0.322-0.175-0.585-0.425-0.771-0.726l-0.005-0.009c-0.176-0.297-0.279-0.654-0.279-1.036 0-0.011 0-0.022 0-0.033l-0 0.002c0-0.395 0.094-0.749 0.279-1.060 0.191-0.316 0.449-0.561 0.776-0.736 0.331-0.179 0.702-0.268 1.112-0.268 0.346 0 0.658 0.061 0.936 0.183 0.281 0.121 0.518 0.299 0.704 0.521l0.002 0.003-0.593 0.547c-0.236-0.287-0.59-0.468-0.987-0.468-0.006 0-0.012 0-0.018 0h0.001c-0.246 0-0.467 0.055-0.661 0.166-0.193 0.106-0.348 0.26-0.453 0.446l-0.003 0.006c-0.101 0.185-0.16 0.405-0.16 0.638 0 0.008 0 0.017 0 0.025l-0-0.001c0 0.246 0.053 0.467 0.16 0.661 0.11 0.193 0.262 0.345 0.456 0.456 0.194 0.107 0.415 0.16 0.662 0.16 0.398 0 0.734-0.158 1.004-0.474l0.593 0.548c-0.19 0.232-0.426 0.408-0.707 0.53-0.281 0.122-0.596 0.183-0.941 0.183zM18.717 29.047h-0.638v1.608h-0.918v-3.992h0.918v1.614h0.662l1.048-1.614h0.975l-1.306 1.928 1.346 2.065h-1.048l-1.039-1.608zM22.264 26.663h0.918v2.601l1.905-2.601h0.867v3.992h-0.913v-2.594l-1.905 2.594h-0.873v-3.992zM27.975 26.663h0.918v2.601l1.906-2.601h0.866v3.992h-0.913v-2.594l-1.905 2.594h-0.872v-3.992zM29.817 26.407c-0.73 0-1.099-0.291-1.107-0.873h0.633c0.007 0.277 0.166 0.416 0.473 0.416 0.151 0 0.268-0.033 0.348-0.103 0.079-0.072 0.121-0.177 0.126-0.313h0.632c-0.003 0.285-0.097 0.502-0.279 0.65s-0.458 0.223-0.828 0.223zM39.030 29.8h-1.854l-0.353 0.855h-0.947l1.78-3.992h0.913l1.784 3.992h-0.969l-0.353-0.855zM38.74 29.098l-0.633-1.528-0.633 1.528h1.267zM45.571 26.663v3.992h-0.924v-1.636h-1.814v1.636h-0.924v-3.992h0.924v1.575h1.814v-1.575h0.924zM50.41 27.415h-1.899l0.006 3.24h-0.918v-3.992h2.817l-0.006 0.753zM55.069 26.663v3.992h-0.913v-3.24h-1.368l-0.029 0.833c-0.020 0.566-0.065 1.026-0.138 1.379-0.072 0.351-0.193 0.621-0.364 0.811-0.168 0.186-0.403 0.279-0.707 0.279-0.126 0-0.278-0.021-0.457-0.063l0.057-0.781c0.050 0.015 0.105 0.022 0.166 0.022 0.221 0 0.375-0.128 0.462-0.386 0.087-0.263 0.142-0.672 0.166-1.227l0.056-1.62h3.068zM57.092 26.663h0.918v2.601l1.905-2.601h0.867v3.992h-0.913v-2.594l-1.906 2.593h-0.873v-3.992zM62.803 26.663h0.918v2.601l1.906-2.601h0.866v3.992h-0.913v-2.594l-1.905 2.594h-0.872v-3.992zM64.646 26.407c-0.73 0-1.099-0.291-1.107-0.873h0.633c0.007 0.277 0.166 0.416 0.473 0.416 0.151 0 0.267-0.033 0.348-0.103 0.079-0.072 0.121-0.177 0.126-0.313h0.632c-0.003 0.285-0.097 0.502-0.279 0.65s-0.458 0.223-0.828 0.223zM70.401 30.723c-0.407 0-0.776-0.088-1.107-0.263-0.322-0.175-0.585-0.425-0.771-0.726l-0.005-0.009c-0.176-0.297-0.279-0.654-0.279-1.035 0-0.011 0-0.022 0-0.033l-0 0.002c-0-0.014-0.001-0.031-0.001-0.047 0-0.755 0.423-1.411 1.045-1.744l0.011-0.005c0.331-0.179 0.702-0.268 1.112-0.268 0.346 0 0.659 0.061 0.936 0.183 0.281 0.121 0.518 0.299 0.704 0.521l0.002 0.003-0.593 0.547c-0.236-0.287-0.59-0.468-0.987-0.468-0.006 0-0.012 0-0.018 0h0.001c-0.246 0-0.467 0.055-0.661 0.166-0.193 0.106-0.348 0.26-0.453 0.446l-0.003 0.006c-0.101 0.185-0.16 0.405-0.16 0.639 0 0.008 0 0.017 0 0.025l-0-0.001c0 0.246 0.053 0.467 0.16 0.661 0.11 0.193 0.262 0.345 0.456 0.456 0.194 0.107 0.415 0.16 0.662 0.16 0.399 0 0.734-0.158 1.004-0.474l0.593 0.548c-0.19 0.232-0.426 0.408-0.707 0.53-0.281 0.122-0.596 0.183-0.941 0.183zM75.224 29.047h-0.64v1.608h-0.917v-3.992h0.918v1.614h0.662l1.048-1.614h0.975l-1.305 1.928 1.346 2.065h-1.050l-1.037-1.608zM78.771 26.663h0.918v2.601l1.905-2.601h0.867v3.992h-0.913v-2.594l-1.905 2.594h-0.873v-3.992zM84.481 26.663h0.918v2.601l1.906-2.601h0.866v3.992h-0.913v-2.594l-1.905 2.594h-0.872v-3.992zM86.324 26.407c-0.73 0-1.099-0.291-1.107-0.873h0.633c0.008 0.277 0.166 0.416 0.473 0.416 0.152 0 0.268-0.033 0.348-0.103 0.079-0.072 0.121-0.177 0.126-0.313h0.632c-0.003 0.285-0.097 0.502-0.279 0.65s-0.458 0.223-0.828 0.223zM73.153 14.987v2.836h-10.417v-12.975h10.176v2.836h-6.543v2.187h5.764v2.743h-5.764v2.372h6.784zM88.276 4.847v12.975h-3.021l-5.727-6.914v6.914h-3.597v-12.975h3.022l5.727 6.914v-6.914h3.596z"></path>
<path fill="#ff6b09" style="fill: var(--color2, #ff6b09)" d="M57.545 11.090c-0.189-0.424-0.45-0.842-0.832-1.324-0.964-1.214-1.258-3.915-1.261-3.942-0.015-0.13-0.104-0.236-0.224-0.275l-0.002-0.001c-0.030-0.010-0.064-0.015-0.1-0.015-0.098 0-0.186 0.042-0.246 0.11l-0 0c-1.15 1.287-0.666 3.273-0.405 4.066 0.072 0.217 0.15 0.473 0.206 0.733 0.425 2.097-0.396 3.046-0.588 3.238-0.188 0.052-0.314 0.025-0.431-0.1-0.405-0.445-0.54-1.899-0.35-3.796 0.040-0.385 0.030-0.732-0.026-1.056-0.399-2.329-1.865-3.825-2.238-4.348-1.026-1.517-1.131-4.042-1.134-4.064-0.008-0.174-0.151-0.312-0.326-0.312-0.069 0-0.132 0.021-0.185 0.057l0.001-0.001c-1.711 1.163-1.565 3.966-1.326 5.532 0.055 0.363 0.163 0.732 0.35 1.198 0.663 1.67-0.13 3.825-0.137 3.843-0.007 0.020-0.013 0.035-0.017 0.055-0.102 0.532-0.271 0.85-0.461 0.85-0.022-0.001-0.043-0.005-0.063-0.011l0.002 0c-0.232-0.047-0.353-0.294-0.356-0.508-0.013-2.764-2.787-3.694-2.816-3.704-0.030-0.010-0.064-0.016-0.1-0.016-0.098 0-0.186 0.044-0.246 0.112l-0 0c-0.050 0.056-0.081 0.131-0.081 0.212 0 0.053 0.013 0.102 0.035 0.146l-0.001-0.002c0.033 0.068 0.138 0.366 0.066 1.419-0.068 1.017-0.251 1.964-0.537 2.866l0.023-0.086c-0.353 1.151-0.557 2.473-0.557 3.844 0 0.156 0.003 0.311 0.008 0.466l-0.001-0.023c0.508 5.519 8.445 6.486 13.155 3.377 0.516-0.34 0.938-0.728 1.248-1.156 1.738-2.398 0.716-5.655-0.045-7.385zM45.473 16.362c0 0.005 0.001 0.012 0.001 0.018 0 0.174-0.137 0.315-0.309 0.323l-0.001 0h-0.019c-0.001 0-0.001 0-0.002 0-0.172 0-0.313-0.134-0.325-0.304l-0-0.001c-0.030-0.474-0.022-0.97 0.013-1.507 0.015-0.17 0.156-0.302 0.329-0.302 0.007 0 0.015 0 0.022 0.001l-0.001-0c0.17 0.012 0.304 0.153 0.304 0.326 0 0.007-0 0.014-0.001 0.022l0-0.001c-0.020 0.242-0.031 0.525-0.031 0.81 0 0.217 0.007 0.432 0.020 0.645l-0.001-0.029zM45.632 13.491c-0.020 0.162-0.157 0.286-0.322 0.286-0 0-0.001 0-0.001 0h0c-0.013 0-0.026 0-0.042-0.003-0.162-0.021-0.287-0.158-0.287-0.324 0-0.013 0.001-0.025 0.002-0.037l-0 0.002 0.157-1.251c0.023-0.161 0.161-0.284 0.327-0.284 0.014 0 0.028 0.001 0.041 0.003l-0.002-0c0.18 0.022 0.307 0.184 0.284 0.363l-0.157 1.247zM55.335 4.434c-0.157-0.024-0.276-0.159-0.276-0.321 0-0.017 0.001-0.034 0.004-0.051l-0 0.002c0.021-0.132 0.139-0.806 0.459-1.144 0.060-0.063 0.145-0.103 0.238-0.103 0.086 0 0.165 0.033 0.223 0.088l-0-0c0.132 0.122 0.139 0.328 0.015 0.459-0.136 0.143-0.252 0.554-0.29 0.8-0.026 0.156-0.16 0.274-0.322 0.274-0.018 0-0.035-0.001-0.052-0.004l0.002 0zM43.423 6.047c-0.063-0.241-0.217-0.638-0.367-0.768-0.068-0.059-0.111-0.146-0.111-0.243 0-0.082 0.031-0.157 0.081-0.214l-0 0c0.060-0.068 0.148-0.111 0.246-0.111 0.083 0 0.158 0.031 0.216 0.081l-0-0c0.352 0.306 0.536 0.966 0.569 1.095 0.006 0.024 0.010 0.051 0.010 0.079 0 0.151-0.103 0.278-0.243 0.314l-0.002 0c-0.024 0.006-0.052 0.010-0.081 0.010-0.151 0-0.278-0.102-0.316-0.241l-0.001-0.002z"></path>
</symbol>
<symbol id="logo-white" viewBox="0 0 91 32">
<path fill="#fff" style="fill: var(--color3, #fff)" d="M13.608 4.836v12.942h-3.661v-5.047h-4.992v5.047h-3.661v-12.942h3.661v4.863h4.992v-4.863h3.661zM27.006 12.786c0 0.025-0.018 0.314-0.055 0.869h-7.285c0.148 0.518 0.432 0.918 0.851 1.202 0.432 0.271 0.967 0.407 1.609 0.407 0.481 0 0.894-0.068 1.239-0.203 0.358-0.135 0.715-0.358 1.072-0.666l1.849 1.923c-0.974 1.084-2.397 1.627-4.271 1.627-1.171 0-2.2-0.222-3.088-0.666s-1.577-1.060-2.071-1.849c-0.481-0.789-0.721-1.683-0.721-2.681 0-0.986 0.235-1.867 0.703-2.644 0.483-0.786 1.154-1.415 1.951-1.836l0.027-0.013c0.838-0.444 1.781-0.666 2.829-0.666 0.998 0 1.904 0.21 2.718 0.629 0.811 0.406 1.466 1.020 1.911 1.772l0.012 0.021c0.481 0.777 0.721 1.701 0.721 2.773zM21.663 10.086c-0.542 0-0.998 0.154-1.368 0.462-0.357 0.308-0.585 0.727-0.684 1.257h4.105c-0.098-0.53-0.333-0.949-0.703-1.257-0.357-0.308-0.807-0.462-1.35-0.462zM29.365 4.059h3.513v13.719h-3.513v-13.719zM35.9 4.059h3.513v13.719h-3.513v-13.719z"></path>
<path fill="#ff6b09" style="fill: var(--color2, #ff6b09)" d="M4.614 29.724h-1.849l-0.353 0.853h-0.944l1.775-3.982h0.91l1.781 3.982h-0.967l-0.353-0.853zM4.324 29.025l-0.631-1.525-0.631 1.525h1.263zM11.627 29.827v1.576h-0.853v-0.825h-2.811v0.825h-0.853l0.006-1.576h0.159c0.24-0.007 0.408-0.182 0.507-0.523s0.159-0.828 0.181-1.462l0.046-1.246h3.060v3.231h0.557zM8.776 27.927c-0.012 0.432-0.055 0.843-0.126 1.245l0.007-0.051c-0.061 0.319-0.154 0.554-0.279 0.705h1.781v-2.48h-1.365l-0.017 0.58zM15.154 30.646c-0.405 0-0.774-0.087-1.104-0.262-0.322-0.175-0.583-0.424-0.769-0.725l-0.005-0.009c-0.175-0.296-0.279-0.653-0.279-1.033 0-0.011 0-0.021 0-0.032l-0 0.002c0-0.395 0.092-0.747 0.279-1.058 0.19-0.315 0.448-0.56 0.774-0.734 0.33-0.178 0.7-0.267 1.109-0.267 0.345 0 0.656 0.060 0.933 0.182 0.281 0.121 0.516 0.296 0.705 0.523l-0.592 0.546c-0.27-0.311-0.603-0.466-1.001-0.466-0.247 0-0.466 0.055-0.66 0.165-0.192 0.106-0.347 0.259-0.452 0.444l-0.003 0.006c-0.107 0.193-0.159 0.413-0.159 0.66s0.053 0.466 0.159 0.66c0.11 0.193 0.262 0.345 0.455 0.455 0.193 0.107 0.413 0.159 0.66 0.159 0.398 0 0.732-0.157 1.001-0.472l0.592 0.546c-0.187 0.227-0.424 0.407-0.694 0.524l-0.012 0.005c-0.281 0.121-0.594 0.182-0.939 0.182zM19.964 28.974h-0.637v1.604h-0.917v-3.982h0.916v1.61h0.66l1.047-1.61h0.973l-1.303 1.923 1.343 2.059h-1.047l-1.035-1.604zM23.502 26.596h0.916v2.594l1.9-2.594h0.865v3.982h-0.91v-2.588l-1.9 2.588h-0.87v-3.982zM29.198 26.596h0.916v2.594l1.9-2.594h0.865v3.982h-0.91v-2.588l-1.9 2.588h-0.87v-3.982zM31.036 26.34c-0.728 0-1.096-0.29-1.104-0.87h0.631c0.007 0.277 0.165 0.415 0.472 0.415 0.151 0 0.267-0.034 0.347-0.102 0.080-0.072 0.121-0.176 0.125-0.313h0.631c-0.004 0.284-0.097 0.501-0.279 0.649s-0.457 0.222-0.825 0.222z"></path>
<path fill="#fff" style="fill: var(--color3, #fff)" d="M40.226 29.724h-1.849l-0.353 0.853h-0.944l1.775-3.982h0.91l1.781 3.982h-0.967l-0.353-0.853zM39.936 29.025l-0.631-1.525-0.631 1.525h1.263zM46.751 26.596v3.982h-0.922v-1.633h-1.809v1.633h-0.922v-3.982h0.922v1.57h1.809v-1.57h0.922zM51.577 27.346h-1.894l0.006 3.231h-0.916v-3.982h2.81l-0.006 0.751zM56.224 26.596v3.982h-0.91v-3.231h-1.365l-0.028 0.831c-0.019 0.565-0.065 1.024-0.137 1.377-0.073 0.348-0.193 0.619-0.364 0.808-0.167 0.186-0.403 0.279-0.705 0.279-0.125 0-0.277-0.021-0.455-0.063l0.057-0.779c0.049 0.015 0.104 0.023 0.165 0.023 0.22 0 0.373-0.129 0.461-0.387 0.087-0.262 0.142-0.669 0.165-1.223l0.057-1.616h3.061zM58.242 26.596h0.916v2.594l1.9-2.594h0.865v3.982h-0.91v-2.588l-1.901 2.588h-0.87v-3.982zM63.938 26.596h0.916v2.594l1.901-2.594h0.865v3.982h-0.91v-2.588l-1.9 2.588h-0.871v-3.982zM65.776 26.34c-0.729 0-1.097-0.29-1.104-0.87h0.632c0.007 0.277 0.164 0.415 0.471 0.415 0.152 0 0.268-0.034 0.348-0.102 0.079-0.072 0.121-0.176 0.124-0.313h0.631c-0.004 0.284-0.097 0.501-0.279 0.649s-0.457 0.222-0.825 0.222zM71.518 30.646c-0.009 0-0.021 0-0.032 0-0.392 0-0.761-0.097-1.085-0.268l0.013 0.006c-0.322-0.175-0.583-0.424-0.769-0.725l-0.005-0.009c-0.175-0.296-0.279-0.653-0.279-1.033 0-0.011 0-0.021 0-0.032l-0 0.002c0-0.395 0.092-0.747 0.279-1.058 0.189-0.315 0.448-0.56 0.774-0.734 0.312-0.169 0.682-0.268 1.076-0.268 0.012 0 0.023 0 0.035 0l-0.002-0c0.345 0 0.656 0.060 0.933 0.182 0.28 0.121 0.516 0.296 0.705 0.523l-0.592 0.546c-0.269-0.311-0.603-0.466-1.001-0.466-0.247 0-0.466 0.055-0.66 0.165-0.192 0.106-0.347 0.259-0.452 0.444l-0.003 0.006c-0.107 0.193-0.159 0.413-0.159 0.66s0.053 0.466 0.159 0.66c0.11 0.193 0.262 0.345 0.455 0.455 0.193 0.107 0.413 0.159 0.66 0.159 0.398 0 0.732-0.157 1.001-0.472l0.592 0.546c-0.187 0.227-0.424 0.407-0.693 0.524l-0.012 0.005c-0.281 0.121-0.594 0.182-0.939 0.182zM76.329 28.974h-0.637v1.604h-0.916v-3.982h0.916v1.61h0.66l1.047-1.61h0.973l-1.303 1.923 1.343 2.059h-1.047l-1.035-1.604zM79.866 26.596h0.916v2.594l1.9-2.594h0.865v3.982h-0.91v-2.588l-1.9 2.588h-0.87v-3.982zM85.562 26.596h0.916v2.594l1.9-2.594h0.865v3.982h-0.91v-2.588l-1.9 2.588h-0.87v-3.982zM87.4 26.34c-0.728 0-1.096-0.29-1.104-0.87h0.631c0.008 0.277 0.165 0.415 0.472 0.415 0.151 0 0.267-0.034 0.347-0.102 0.080-0.072 0.122-0.176 0.125-0.313h0.631c-0.004 0.284-0.097 0.501-0.279 0.649s-0.457 0.222-0.825 0.222zM74.263 14.949v2.829h-10.391v-12.942h10.15v2.829h-6.527v2.182h5.75v2.736h-5.75v2.367h6.767zM89.348 4.836v12.942h-3.014l-5.713-6.896v6.896h-3.587v-12.942h3.014l5.713 6.896v-6.896h3.587z"></path>
<path fill="#ff6b09" style="fill: var(--color2, #ff6b09)" d="M58.695 11.062c-0.19-0.424-0.45-0.841-0.832-1.323-0.961-1.209-1.254-3.904-1.258-3.93-0.015-0.13-0.103-0.235-0.222-0.274l-0.002-0.001c-0.030-0.010-0.064-0.015-0.1-0.015-0.097 0-0.185 0.042-0.245 0.109l-0 0c-1.147 1.283-0.665 3.264-0.404 4.056 0.071 0.217 0.149 0.472 0.206 0.731 0.423 2.091-0.395 3.038-0.587 3.228-0.186 0.052-0.313 0.026-0.43-0.1-0.405-0.443-0.538-1.894-0.348-3.785 0.015-0.129 0.024-0.279 0.024-0.431 0-0.22-0.018-0.435-0.054-0.645l0.003 0.023c-0.399-2.324-1.861-3.815-2.233-4.338-1.024-1.513-1.128-4.031-1.131-4.053-0.007-0.174-0.15-0.312-0.325-0.312-0.068 0-0.132 0.021-0.184 0.057l0.001-0.001c-1.708 1.161-1.562 3.957-1.323 5.518 0.055 0.363 0.163 0.73 0.348 1.196 0.661 1.664-0.13 3.814-0.137 3.833-0.007 0.020-0.014 0.036-0.016 0.055-0.101 0.53-0.27 0.847-0.46 0.847-0.022-0-0.043-0.004-0.063-0.010l0.002 0c-0.231-0.048-0.352-0.294-0.356-0.507-0.013-2.757-2.78-3.685-2.809-3.695s-0.064-0.016-0.1-0.016c-0.098 0-0.186 0.044-0.246 0.113l-0 0c-0.050 0.056-0.080 0.13-0.080 0.211 0 0.053 0.013 0.102 0.036 0.146l-0.001-0.002c0.033 0.068 0.137 0.365 0.065 1.415-0.068 1.014-0.25 1.959-0.535 2.859l0.023-0.085c-0.658 2.147-0.555 4.18-0.548 4.277 0.506 5.505 8.423 6.47 13.122 3.369 0.515-0.34 0.935-0.727 1.244-1.154 1.734-2.392 0.714-5.641-0.045-7.367zM46.651 16.32c0 0.005 0 0.011 0 0.017 0 0.173-0.136 0.314-0.306 0.322l-0.001 0h-0.020c-0.001 0-0.001 0-0.002 0-0.172 0-0.312-0.134-0.324-0.303l-0-0.001c-0.029-0.471-0.023-0.966 0.014-1.503 0.015-0.169 0.156-0.301 0.328-0.301 0.007 0 0.014 0 0.021 0.001l-0.001-0c0.17 0.012 0.304 0.153 0.304 0.325 0 0.007-0 0.014-0.001 0.022l0-0.001c-0.036 0.511-0.043 0.976-0.013 1.422zM46.81 13.456c-0.020 0.161-0.156 0.284-0.321 0.284-0.001 0-0.001 0-0.002 0h0c-0.014 0-0.026 0-0.043-0.004-0.162-0.021-0.286-0.158-0.286-0.324 0-0.012 0.001-0.024 0.002-0.036l-0 0.001 0.156-1.248c0.023-0.161 0.16-0.283 0.325-0.283 0.014 0 0.028 0.001 0.042 0.003l-0.002-0c0.179 0.023 0.306 0.184 0.283 0.362l-0.156 1.244zM56.489 4.422c-0.157-0.024-0.276-0.158-0.276-0.32 0-0.017 0.001-0.034 0.004-0.050l-0 0.002c0.021-0.132 0.139-0.804 0.458-1.142 0.060-0.063 0.144-0.102 0.238-0.102 0.086 0 0.165 0.034 0.223 0.088l-0-0c0.132 0.122 0.138 0.326 0.014 0.457-0.135 0.143-0.25 0.553-0.289 0.798-0.026 0.156-0.16 0.274-0.322 0.274-0.018 0-0.035-0.001-0.052-0.004l0.002 0zM44.608 6.032c-0.063-0.24-0.218-0.637-0.367-0.767-0.068-0.059-0.111-0.146-0.111-0.243 0-0.082 0.031-0.157 0.081-0.213l-0 0c0.060-0.068 0.148-0.11 0.245-0.11 0.083 0 0.158 0.031 0.215 0.081l-0-0c0.351 0.306 0.535 0.963 0.567 1.092 0.006 0.024 0.010 0.052 0.010 0.080 0 0.151-0.103 0.277-0.242 0.313l-0.002 0c-0.024 0.006-0.052 0.010-0.081 0.010-0.151 0-0.277-0.102-0.316-0.24l-0.001-0.002z"></path>
</symbol>
<symbol id="phone" viewBox="0 0 32 32">
<path fill="#ff6b09" style="fill: var(--color2, #ff6b09)" d="M4.656 0.003c-0.553 0.025-1.044 0.27-1.391 0.65l-0.001 0.002-2.592 2.85c0.003-0.008-0.010-0.006-0.083 0.096-0.038 0.050-0.069 0.109-0.090 0.172l-0.001 0.004c-1.056 3.365-0.347 7.066 1.376 10.586 1.725 3.52 4.477 6.886 7.634 9.651 3.158 2.763 6.722 4.926 10.12 5.998 3.397 1.072 6.691 1.059 9.133-0.712 0.027-0.021 0.051-0.042 0.073-0.065l0-0c0.064-0.064 0.067-0.072 0.056-0.062l0.010-0.013 2.582-2.84c0.322-0.357 0.519-0.831 0.519-1.352 0-0.587-0.25-1.116-0.65-1.485l-6.128-5.572c-0.357-0.322-0.832-0.52-1.353-0.52-0.588 0-1.117 0.251-1.486 0.651l-0.001 0.001-2.771 3.048c-2.25-0.653-4.173-1.757-6.024-3.44-1.851-1.678-3.133-3.49-3.994-5.669l2.771-3.048c0.322-0.356 0.52-0.831 0.52-1.352 0-0.588-0.251-1.117-0.653-1.486l-0.001-0.001-6.125-5.573c-0.355-0.324-0.829-0.522-1.35-0.522-0.035 0-0.070 0.001-0.105 0.003l0.005-0zM4.715 1.251c0.008-0 0.018-0.001 0.028-0.001 0.198 0 0.379 0.077 0.513 0.203l-0-0 6.125 5.571c0.155 0.136 0.253 0.334 0.253 0.555 0 0.196-0.077 0.374-0.202 0.506l0-0-3.064 3.366c-0.101 0.111-0.163 0.26-0.163 0.423 0 0.078 0.014 0.152 0.040 0.221l-0.001-0.004c0.93 2.536 2.43 4.618 4.493 6.494 2.064 1.877 4.275 3.174 6.89 3.859 0.047 0.013 0.102 0.020 0.158 0.020 0.184 0 0.35-0.079 0.466-0.205l0-0 3.066-3.366c0.136-0.154 0.333-0.251 0.553-0.251 0.196 0 0.374 0.077 0.506 0.202l6.128 5.571c0.154 0.136 0.25 0.333 0.25 0.553 0 0.196-0.077 0.375-0.202 0.507l0-0-2.56 2.816c-2.005 1.437-4.827 1.518-7.987 0.52-3.173-1.002-6.618-3.075-9.666-5.744-3.050-2.669-5.702-5.926-7.333-9.254-1.614-3.293-2.2-6.624-1.312-9.558l2.502-2.749c0.129-0.145 0.312-0.24 0.518-0.251l0.002-0z"></path>
</symbol>
<symbol id="menu" viewBox="0 0 32 32">
<path d="M1.273 4.429h29.455v6.312h-29.455zM1.273 12.844h29.455v6.312h-29.455zM1.273 21.26h29.455v6.312h-29.455z"></path>
</symbol>
<symbol id="cross" viewBox="0 0 32 32">
<path d="M31.708 25.708c-0-0-0-0-0-0l-9.708-9.708 9.708-9.708c0-0 0-0 0-0 0.105-0.105 0.18-0.227 0.229-0.357 0.133-0.356 0.057-0.771-0.229-1.057l-4.586-4.586c-0.286-0.286-0.702-0.361-1.057-0.229-0.13 0.048-0.252 0.124-0.357 0.228 0 0-0 0-0 0l-9.708 9.708-9.708-9.708c-0-0-0-0-0-0-0.105-0.104-0.227-0.18-0.357-0.228-0.356-0.133-0.771-0.057-1.057 0.229l-4.586 4.586c-0.286 0.286-0.361 0.702-0.229 1.057 0.049 0.13 0.124 0.252 0.229 0.357 0 0 0 0 0 0l9.708 9.708-9.708 9.708c-0 0-0 0-0 0-0.104 0.105-0.18 0.227-0.229 0.357-0.133 0.355-0.057 0.771 0.229 1.057l4.586 4.586c0.286 0.286 0.702 0.361 1.057 0.229 0.13-0.049 0.252-0.124 0.357-0.229 0-0 0-0 0-0l9.708-9.708 9.708 9.708c0 0 0 0 0 0 0.105 0.105 0.227 0.18 0.357 0.229 0.356 0.133 0.771 0.057 1.057-0.229l4.586-4.586c0.286-0.286 0.362-0.702 0.229-1.057-0.049-0.13-0.124-0.252-0.229-0.357z"></path>
</symbol>
</defs>
</svg>
