<svg aria-hidden="true" style="position:absolute;width:0;height:0" xmlns="http://www.w3.org/2000/svg" overflow="hidden"><defs><symbol id="cross-mobile" viewBox="0 0 32 32"><path fill="none" stroke="var(--color1, #fff)" stroke-width="3.765" d="M1.882 29.169L29.169 1.882m0 27.287L1.882 1.882"/></symbol><symbol id="instagram" viewBox="0 0 32 32"><path fill="var(--color2, #000)" d="M31.452 5.724A5.834 5.834 0 0026.302.55l-.026-.002C23.193.199 19.62 0 16 0S8.807.199 5.29.587l.434-.039A5.834 5.834 0 00.55 5.698l-.002.026C.199 8.807 0 12.38 0 16s.199 7.193.587 10.71l-.039-.434a5.834 5.834 0 005.15 5.174l.026.002c6.844.73 13.708.73 20.552 0a5.834 5.834 0 005.174-5.15l.002-.026c.73-6.844.73-13.708 0-20.552z"/><path fill="var(--color2, #000)" d="M29.712 6.881a5.179 5.179 0 00-4.57-4.591l-.023-.002c-2.736-.309-5.907-.486-9.119-.486s-6.383.177-9.504.52l.385-.034A5.179 5.179 0 002.29 6.857l-.002.023a85.795 85.795 0 000 18.238 5.178 5.178 0 004.569 4.592l.023.002a85.795 85.795 0 0018.238 0 5.178 5.178 0 004.591-4.569l.002-.023a85.795 85.795 0 000-18.238z"/><path fill="var(--color2, #000)" d="M.48 25.613c.022.222.044.442.068.664a5.834 5.834 0 005.15 5.174l.026.002c6.844.73 13.709.73 20.552 0a5.834 5.834 0 005.174-5.15l.002-.026.069-.664H.48z"/><path fill="var(--color2, #000)" d="M31.452 26.276c.392-3.678.574-7.36.544-11.043l-7.314-7.314c-.914-1.043-2.25-1.694-3.818-1.751a140.959 140.959 0 00-9.931.007l.244-.007c-2.68.093-4.553 1.894-5.034 4.54-.085.468-.135.941-.202 1.412v7.759c.037.251.091.502.108.754.107 1.61.768 2.989 1.828 3.922l7.443 7.443a96.525 96.525 0 0010.954-.546 5.834 5.834 0 005.174-5.15l.002-.026z"/><path fill="var(--color2, #000)" d="M31.452 26.277a5.834 5.834 0 01-5.15 5.174l-.026.002a96.96 96.96 0 01-10.953.545l-7.432-7.432c.862.754 1.984 1.214 3.288 1.262 3.224.122 6.461.118 9.686.002 2.917-.106 5.028-2.264 5.118-5.181.098-3.098.098-6.202 0-9.3-.041-1.346-.514-2.53-1.297-3.426l7.31 7.31a96.957 96.957 0 01-.544 11.044z"/><path fill="var(--color2, #000)" d="M19.776 12.535a5.126 5.126 0 10-7.246 7.238l.004.004 11.858 11.858a90.748 90.748 0 001.882-.182 5.836 5.836 0 005.174-5.15l.002-.026c.067-.627.128-1.254.182-1.882L19.774 12.537zM31.938 19.447l-9.544-9.544a1.218 1.218 0 00-2.196.729c0 .398.191.752.486.975l.003.002 11.08 11.081c.074-1.08.131-2.162.17-3.243z"/><path fill="var(--color2, #000)" d="M5.943 12.119c.066-.471.117-.944.202-1.411.48-2.647 2.354-4.448 5.034-4.54 3.226-.111 6.462-.117 9.686 0 2.916.104 5.028 2.264 5.119 5.181a149.62 149.62 0 01-.006 9.536l.006-.237c-.091 2.918-2.202 5.076-5.118 5.182-3.226.116-6.462.119-9.687-.002-2.916-.11-4.933-2.274-5.128-5.195-.016-.253-.07-.504-.107-.755V12.12zm10.059 11.982c1.476 0 2.954.044 4.428-.01 2.311-.086 3.733-1.465 3.786-3.774.067-2.877.067-5.758 0-8.635-.054-2.309-1.476-3.72-3.786-3.77a215.92 215.92 0 00-9.029.004l.229-.004c-2.293.048-3.719 1.431-3.781 3.714a159.39 159.39 0 000 8.746c.062 2.283 1.488 3.634 3.781 3.719 1.456.054 2.914.01 4.372.01z"/><path fill="var(--color1, #fff)" d="M5.943 12.119c.066-.471.117-.944.202-1.411.48-2.647 2.354-4.448 5.034-4.54 3.226-.111 6.462-.117 9.686 0 2.916.104 5.028 2.264 5.119 5.181a149.62 149.62 0 01-.006 9.536l.006-.237c-.091 2.918-2.202 5.076-5.118 5.182-3.226.116-6.462.119-9.687-.002-2.916-.11-4.933-2.274-5.128-5.195-.016-.253-.07-.504-.107-.755V12.12zm10.059 11.982c1.476 0 2.954.044 4.428-.01 2.311-.086 3.733-1.465 3.786-3.774.067-2.877.067-5.758 0-8.635-.054-2.309-1.476-3.72-3.786-3.77a215.92 215.92 0 00-9.029.004l.229-.004c-2.293.048-3.719 1.431-3.781 3.714a159.39 159.39 0 000 8.746c.062 2.283 1.488 3.634 3.781 3.719 1.456.054 2.914.01 4.372.01z"/><path fill="var(--color1, #fff)" d="M16 10.874a5.126 5.126 0 000 10.252 5.126 5.126 0 000-10.252zm0 8.487a3.361 3.361 0 010-6.722 3.361 3.361 0 010 6.722zm6.644-8.72a1.22 1.22 0 01-2.438 0 1.22 1.22 0 012.438 0z"/></symbol><symbol id="logo" viewBox="0 0 91 32"><path fill="var(--color3, #111518)" d="M13.608 4.836v12.942H9.947v-5.047H4.955v5.047H1.294V4.836h3.661v4.863h4.992V4.836h3.661zm13.398 7.95c0 .025-.018.314-.055.869h-7.285c.148.518.432.918.851 1.202.432.271.967.407 1.609.407.481 0 .894-.068 1.239-.203a3.617 3.617 0 001.072-.666l1.849 1.923c-.974 1.084-2.397 1.627-4.271 1.627-1.171 0-2.2-.222-3.088-.666s-1.577-1.06-2.071-1.849c-.481-.789-.721-1.683-.721-2.681 0-.986.235-1.867.703-2.644a5.064 5.064 0 011.951-1.836l.027-.013c.838-.444 1.781-.666 2.829-.666.998 0 1.904.21 2.718.629a4.599 4.599 0 011.911 1.772l.012.021c.481.777.721 1.701.721 2.773zm-5.343-2.7c-.542 0-.998.154-1.368.462-.357.308-.585.727-.684 1.257h4.105c-.098-.53-.333-.949-.703-1.257-.357-.308-.807-.462-1.35-.462zm7.702-6.027h3.513v13.719h-3.513V4.059zm6.535 0h3.513v13.719H35.9V4.059z"/><path fill="var(--color4, #ff6b09)" d="M4.614 29.724H2.765l-.353.853h-.944l1.775-3.982h.91l1.781 3.982h-.967l-.353-.853zm-.29-.699L3.693 27.5l-.631 1.525h1.263zm7.303.802v1.576h-.853v-.825H7.963v.825H7.11l.006-1.576h.159c.24-.007.408-.182.507-.523s.159-.828.181-1.462l.046-1.246h3.06v3.231h.557zm-2.851-1.9a8.467 8.467 0 01-.126 1.245l.007-.051c-.061.319-.154.554-.279.705h1.781v-2.48H8.794l-.017.58zm6.378 2.719c-.405 0-.774-.087-1.104-.262a2.047 2.047 0 01-.769-.725l-.005-.009a2.034 2.034 0 01-.279-1.033v-.032.002a1.973 1.973 0 011.053-1.792 2.3 2.3 0 011.109-.267c.345 0 .656.06.933.182.281.121.516.296.705.523l-.592.546a1.272 1.272 0 00-1.001-.466c-.247 0-.466.055-.66.165a1.162 1.162 0 00-.452.444l-.003.006c-.107.193-.159.413-.159.66s.053.466.159.66c.11.193.262.345.455.455.193.107.413.159.66.159.398 0 .732-.157 1.001-.472l.592.546a1.855 1.855 0 01-.694.524l-.012.005a2.35 2.35 0 01-.939.182zm4.81-1.672h-.637v1.604h-.917v-3.982h.916v1.61h.66l1.047-1.61h.973l-1.303 1.923 1.343 2.059h-1.047l-1.035-1.604zm3.538-2.378h.916v2.594l1.9-2.594h.865v3.982h-.91V27.99l-1.9 2.588h-.87v-3.982zm5.696 0h.916v2.594l1.9-2.594h.865v3.982h-.91V27.99l-1.9 2.588h-.87v-3.982zm1.838-.256c-.728 0-1.096-.29-1.104-.87h.631c.007.277.165.415.472.415.151 0 .267-.034.347-.102.08-.072.121-.176.125-.313h.631c-.004.284-.097.501-.279.649s-.457.222-.825.222z"/><path fill="var(--color3, #111518)" d="M40.226 29.724h-1.849l-.353.853h-.944l1.775-3.982h.91l1.781 3.982h-.967l-.353-.853zm-.29-.699l-.631-1.525-.631 1.525h1.263zm6.815-2.429v3.982h-.922v-1.633H44.02v1.633h-.922v-3.982h.922v1.57h1.809v-1.57h.922zm4.826.75h-1.894l.006 3.231h-.916v-3.982h2.81l-.006.751zm4.647-.75v3.982h-.91v-3.231h-1.365l-.028.831a8.564 8.564 0 01-.137 1.377c-.073.348-.193.619-.364.808-.167.186-.403.279-.705.279-.125 0-.277-.021-.455-.063l.057-.779a.562.562 0 00.165.023c.22 0 .373-.129.461-.387.087-.262.142-.669.165-1.223l.057-1.616h3.061zm2.018 0h.916v2.594l1.9-2.594h.865v3.982h-.91V27.99l-1.901 2.588h-.87v-3.982zm5.696 0h.916v2.594l1.901-2.594h.865v3.982h-.91V27.99l-1.9 2.588h-.871v-3.982zm1.838-.256c-.729 0-1.097-.29-1.104-.87h.632c.007.277.164.415.471.415.152 0 .268-.034.348-.102a.415.415 0 00.124-.313h.631c-.004.284-.097.501-.279.649s-.457.222-.825.222zm5.742 4.306h-.032c-.392 0-.761-.097-1.085-.268l.013.006a2.047 2.047 0 01-.769-.725l-.005-.009a2.034 2.034 0 01-.279-1.033v-.032.002c0-.395.092-.747.279-1.058.189-.315.448-.56.774-.734a2.263 2.263 0 011.076-.268h.035-.002c.345 0 .656.06.933.182.28.121.516.296.705.523l-.592.546a1.271 1.271 0 00-1.001-.466c-.247 0-.466.055-.66.165a1.162 1.162 0 00-.452.444l-.003.006c-.107.193-.159.413-.159.66s.053.466.159.66c.11.193.262.345.455.455.193.107.413.159.66.159.398 0 .732-.157 1.001-.472l.592.546a1.86 1.86 0 01-.693.524l-.012.005a2.35 2.35 0 01-.939.182zm4.811-1.672h-.637v1.604h-.916v-3.982h.916v1.61h.66l1.047-1.61h.973l-1.303 1.923 1.343 2.059h-1.047l-1.035-1.604zm3.537-2.378h.916v2.594l1.9-2.594h.865v3.982h-.91V27.99l-1.9 2.588h-.87v-3.982zm5.696 0h.916v2.594l1.9-2.594h.865v3.982h-.91V27.99l-1.9 2.588h-.87v-3.982zm1.838-.256c-.728 0-1.096-.29-1.104-.87h.631c.008.277.165.415.472.415.151 0 .267-.034.347-.102.08-.072.122-.176.125-.313h.631c-.004.284-.097.501-.279.649s-.457.222-.825.222zM74.263 14.949v2.829H63.872V4.836h10.15v2.829h-6.527v2.182h5.75v2.736h-5.75v2.367h6.767zM89.348 4.836v12.942h-3.014l-5.713-6.896v6.896h-3.587V4.836h3.014l5.713 6.896V4.836h3.587z"/><path fill="var(--color4, #ff6b09)" d="M58.695 11.062c-.19-.424-.45-.841-.832-1.323-.961-1.209-1.254-3.904-1.258-3.93a.326.326 0 00-.222-.274l-.002-.001a.329.329 0 00-.345.094c-1.147 1.283-.665 3.264-.404 4.056.071.217.149.472.206.731.423 2.091-.395 3.038-.587 3.228-.186.052-.313.026-.43-.1-.405-.443-.538-1.894-.348-3.785a3.818 3.818 0 00-.03-1.076l.003.023c-.399-2.324-1.861-3.815-2.233-4.338C51.189 2.854 51.085.336 51.082.314a.325.325 0 00-.509-.255l.001-.001c-1.708 1.161-1.562 3.957-1.323 5.518.055.363.163.73.348 1.196.661 1.664-.13 3.814-.137 3.833-.007.02-.014.036-.016.055-.101.53-.27.847-.46.847a.219.219 0 01-.063-.01h.002c-.231-.048-.352-.294-.356-.507-.013-2.757-2.78-3.685-2.809-3.695s-.064-.016-.1-.016a.326.326 0 00-.246.113.316.316 0 00-.044.357l-.001-.002c.033.068.137.365.065 1.415a12.078 12.078 0 01-.535 2.859l.023-.085c-.658 2.147-.555 4.18-.548 4.277.506 5.505 8.423 6.47 13.122 3.369.515-.34.935-.727 1.244-1.154 1.734-2.392.714-5.641-.045-7.367zM46.651 16.32v.017a.322.322 0 01-.306.322h-.023a.325.325 0 01-.324-.303v-.001c-.029-.471-.023-.966.014-1.503a.33.33 0 01.349-.3h-.001c.17.012.304.153.304.325l-.001.022v-.001c-.036.511-.043.976-.013 1.422zm.159-2.864a.323.323 0 01-.321.284h-.001c-.014 0-.026 0-.043-.004a.327.327 0 01-.286-.324l.002-.036v.001l.156-1.248a.329.329 0 01.367-.28h-.002a.324.324 0 01.283.362l-.156 1.244zm9.679-9.034a.324.324 0 01-.272-.37v.002c.021-.132.139-.804.458-1.142a.327.327 0 01.461-.014.32.32 0 01.014.457c-.135.143-.25.553-.289.798a.327.327 0 01-.374.27h.002zm-11.881 1.61c-.063-.24-.218-.637-.366-.767a.32.32 0 01-.03-.456.326.326 0 01.46-.029c.351.306.535.963.567 1.092a.323.323 0 01-.232.393h-.002a.329.329 0 01-.397-.23l-.001-.002z"/></symbol><symbol id="logo-mobile" viewBox="0 0 88 32"><path fill="var(--color3, #111518)" d="M12.344 4.847v12.975h-3.67v-5.06H3.67v5.06H0V4.847h3.67v4.875h5.004V4.847h3.67zm13.433 7.972c0 .024-.019.314-.055.871h-7.303c.148.519.433.92.852 1.205.433.271.971.408 1.613.408.481 0 .896-.068 1.241-.204a3.638 3.638 0 001.075-.668l1.854 1.928c-.975 1.087-2.403 1.631-4.281 1.631-1.174 0-2.207-.222-3.095-.668-.89-.445-1.582-1.063-2.077-1.854-.482-.79-.723-1.686-.723-2.687 0-.989.235-1.873.704-2.65a5.076 5.076 0 011.958-1.842l.027-.013c.84-.445 1.785-.668 2.836-.668 1.001 0 1.909.21 2.726.63a4.591 4.591 0 011.927 1.799c.482.778.723 1.705.723 2.781zm-5.357-2.707c-.544 0-1.001.154-1.372.463-.359.309-.587.728-.686 1.26h4.116c-.099-.531-.334-.951-.705-1.26-.359-.309-.81-.463-1.353-.463zm7.722-6.042h3.521v13.753h-3.521V4.07zm6.552 0h3.522v13.753h-3.522V4.07zM3.328 29.8H1.474l-.353.855H.174l1.779-3.992h.913l1.785 3.992h-.97l-.353-.855zm-.291-.702l-.632-1.528-.633 1.528h1.266zm7.321.804v1.58h-.855v-.828H6.686v.828H5.83l.007-1.58h.159c.239-.008.408-.183.508-.525s.16-.831.183-1.465l.045-1.249H9.8v3.241h.559zM7.5 27.998a8.297 8.297 0 01-.119 1.197c-.061.32-.154.555-.279.706h1.785v-2.486H7.519l-.018.583zm6.395 2.725c-.407 0-.776-.088-1.107-.263a2.056 2.056 0 01-.771-.726l-.005-.009a2.033 2.033 0 01-.279-1.036v-.033.002c0-.395.094-.749.279-1.06.191-.316.449-.561.776-.736a2.3 2.3 0 011.112-.268c.346 0 .658.061.936.183.281.121.518.299.704.521l.002.003-.593.547a1.273 1.273 0 00-.987-.468h-.018.001c-.246 0-.467.055-.661.166-.193.106-.348.26-.453.446l-.003.006c-.101.185-.16.405-.16.638v.025-.001c0 .246.053.467.16.661.11.193.262.345.456.456.194.107.415.16.662.16a1.27 1.27 0 001.004-.474l.593.548c-.19.232-.426.408-.707.53a2.344 2.344 0 01-.941.183zm4.822-1.676h-.638v1.608h-.918v-3.992h.918v1.614h.662l1.048-1.614h.975l-1.306 1.928 1.346 2.065h-1.048l-1.039-1.608zm3.547-2.384h.918v2.601l1.905-2.601h.867v3.992h-.913v-2.594l-1.905 2.594h-.873v-3.992zm5.711 0h.918v2.601l1.906-2.601h.866v3.992h-.913v-2.594l-1.905 2.594h-.872v-3.992zm1.842-.256c-.73 0-1.099-.291-1.107-.873h.633c.007.277.166.416.473.416.151 0 .268-.033.348-.103a.426.426 0 00.126-.313h.632c-.003.285-.097.502-.279.65s-.458.223-.828.223zM39.03 29.8h-1.854l-.353.855h-.947l1.78-3.992h.913l1.784 3.992h-.969l-.353-.855zm-.29-.702l-.633-1.528-.633 1.528h1.267zm6.831-2.435v3.992h-.924v-1.636h-1.814v1.636h-.924v-3.992h.924v1.575h1.814v-1.575h.924zm4.839.752h-1.899l.006 3.24h-.918v-3.992h2.817l-.006.753zm4.659-.752v3.992h-.913v-3.24h-1.368l-.029.833c-.02.566-.065 1.026-.138 1.379-.072.351-.193.621-.364.811-.168.186-.403.279-.707.279-.126 0-.278-.021-.457-.063l.057-.781c.05.015.105.022.166.022.221 0 .375-.128.462-.386.087-.263.142-.672.166-1.227l.056-1.62h3.068zm2.023 0h.918v2.601l1.905-2.601h.867v3.992h-.913v-2.594l-1.906 2.593h-.873v-3.992zm5.711 0h.918v2.601l1.906-2.601h.866v3.992h-.913v-2.594l-1.905 2.594h-.872v-3.992zm1.843-.256c-.73 0-1.099-.291-1.107-.873h.633c.007.277.166.416.473.416.151 0 .267-.033.348-.103a.426.426 0 00.126-.313h.632c-.003.285-.097.502-.279.65s-.458.223-.828.223zm5.755 4.316c-.407 0-.776-.088-1.107-.263a2.056 2.056 0 01-.771-.726l-.005-.009a2.032 2.032 0 01-.279-1.035v-.033.002l-.001-.047c0-.755.423-1.411 1.045-1.744l.011-.005a2.3 2.3 0 011.112-.268c.346 0 .659.061.936.183.281.121.518.299.704.521l.002.003-.593.547a1.273 1.273 0 00-.987-.468h-.018.001c-.246 0-.467.055-.661.166-.193.106-.348.26-.453.446l-.003.006c-.101.185-.16.405-.16.639v.025-.001c0 .246.053.467.16.661.11.193.262.345.456.456.194.107.415.16.662.16a1.27 1.27 0 001.004-.474l.593.548c-.19.232-.426.408-.707.53a2.344 2.344 0 01-.941.183zm4.823-1.676h-.64v1.608h-.917v-3.992h.918v1.614h.662l1.048-1.614h.975l-1.305 1.928 1.346 2.065h-1.05l-1.037-1.608zm3.547-2.384h.918v2.601l1.905-2.601h.867v3.992h-.913v-2.594l-1.905 2.594h-.873v-3.992zm5.71 0h.918v2.601l1.906-2.601h.866v3.992h-.913v-2.594l-1.905 2.594h-.872v-3.992zm1.843-.256c-.73 0-1.099-.291-1.107-.873h.633c.008.277.166.416.473.416.152 0 .268-.033.348-.103a.426.426 0 00.126-.313h.632c-.003.285-.097.502-.279.65s-.458.223-.828.223zm-13.171-11.42v2.836H62.736V4.848h10.176v2.836h-6.543v2.187h5.764v2.743h-5.764v2.372h6.784zm15.123-10.14v12.975h-3.021l-5.727-6.914v6.914h-3.597V4.847h3.022l5.727 6.914V4.847h3.596z"/><path fill="var(--color4, #ff6b09)" d="M57.545 11.09c-.189-.424-.45-.842-.832-1.324-.964-1.214-1.258-3.915-1.261-3.942a.328.328 0 00-.224-.275l-.002-.001a.326.326 0 00-.346.095c-1.15 1.287-.666 3.273-.405 4.066.072.217.15.473.206.733.425 2.097-.396 3.046-.588 3.238-.188.052-.314.025-.431-.1-.405-.445-.54-1.899-.35-3.796.04-.385.03-.732-.026-1.056-.399-2.329-1.865-3.825-2.238-4.348C50.022 2.863 49.917.338 49.914.316a.327.327 0 00-.511-.255l.001-.001c-1.711 1.163-1.565 3.966-1.326 5.532.055.363.163.732.35 1.198.663 1.67-.13 3.825-.137 3.843-.007.02-.013.035-.017.055-.102.532-.271.85-.461.85a.26.26 0 01-.063-.011h.002c-.232-.047-.353-.294-.356-.508-.013-2.764-2.787-3.694-2.816-3.704a.328.328 0 00-.346.096.319.319 0 00-.046.358l-.001-.002c.033.068.138.366.066 1.419a12.077 12.077 0 01-.537 2.866l.023-.086a13.26 13.26 0 00-.549 4.31l-.001-.023c.508 5.519 8.445 6.486 13.155 3.377.516-.34.938-.728 1.248-1.156 1.738-2.398.716-5.655-.045-7.385zm-12.072 5.272l.001.018a.323.323 0 01-.309.323h-.022a.327.327 0 01-.325-.304v-.001c-.03-.474-.022-.97.013-1.507a.33.33 0 01.351-.301h-.001c.17.012.304.153.304.326l-.001.022v-.001a10.114 10.114 0 00-.011 1.455l-.001-.029zm.159-2.871a.325.325 0 01-.322.286h-.001c-.013 0-.026 0-.042-.003a.328.328 0 01-.285-.361v.002l.157-1.251a.33.33 0 01.368-.281h-.002c.18.022.307.184.284.363l-.157 1.247zm9.703-9.057a.325.325 0 01-.272-.372v.002c.021-.132.139-.806.459-1.144a.33.33 0 01.461-.015.322.322 0 01.015.459c-.136.143-.252.554-.29.8a.327.327 0 01-.374.27h.002zM43.423 6.047c-.063-.241-.217-.638-.367-.768a.32.32 0 01-.03-.457.327.327 0 01.462-.03c.352.306.536.966.569 1.095a.324.324 0 01-.233.393h-.002a.328.328 0 01-.397-.231l-.001-.002z"/></symbol><symbol id="logo-mobile-white" viewBox="0 0 88 32"><path fill="var(--color1, #fff)" d="M12.344 4.847v12.975h-3.67v-5.06H3.67v5.06H0V4.847h3.67v4.875h5.004V4.847h3.67zm13.433 7.972c0 .024-.019.314-.055.871h-7.303c.148.519.433.92.852 1.205.433.271.971.408 1.613.408.481 0 .896-.068 1.241-.204a3.638 3.638 0 001.075-.668l1.854 1.928c-.975 1.087-2.403 1.631-4.281 1.631-1.174 0-2.207-.222-3.095-.668-.89-.445-1.582-1.063-2.077-1.854-.482-.79-.723-1.686-.723-2.687 0-.989.235-1.873.704-2.65a5.076 5.076 0 011.958-1.842l.027-.013c.84-.445 1.785-.668 2.836-.668 1.001 0 1.909.21 2.726.63a4.591 4.591 0 011.927 1.799c.482.778.723 1.705.723 2.781zm-5.357-2.707c-.544 0-1.001.154-1.372.463-.359.309-.587.728-.686 1.26h4.116c-.099-.531-.334-.951-.705-1.26-.359-.309-.81-.463-1.353-.463zm7.722-6.042h3.521v13.753h-3.521V4.07zm6.552 0h3.522v13.753h-3.522V4.07zM3.328 29.8H1.474l-.353.855H.174l1.779-3.992h.913l1.785 3.992h-.97l-.353-.855zm-.291-.702l-.632-1.528-.633 1.528h1.266zm7.321.804v1.58h-.855v-.828H6.686v.828H5.83l.007-1.58h.159c.239-.008.408-.183.508-.525s.16-.831.183-1.465l.045-1.249H9.8v3.241h.559zM7.5 27.998a8.297 8.297 0 01-.119 1.197c-.061.32-.154.555-.279.706h1.785v-2.486H7.519l-.018.583zm6.395 2.725c-.407 0-.776-.088-1.107-.263a2.056 2.056 0 01-.771-.726l-.005-.009a2.033 2.033 0 01-.279-1.036v-.033.002c0-.395.094-.749.279-1.06.191-.316.449-.561.776-.736a2.3 2.3 0 011.112-.268c.346 0 .658.061.936.183.281.121.518.299.704.521l.002.003-.593.547a1.273 1.273 0 00-.987-.468h-.018.001c-.246 0-.467.055-.661.166-.193.106-.348.26-.453.446l-.003.006c-.101.185-.16.405-.16.638v.025-.001c0 .246.053.467.16.661.11.193.262.345.456.456.194.107.415.16.662.16a1.27 1.27 0 001.004-.474l.593.548c-.19.232-.426.408-.707.53a2.344 2.344 0 01-.941.183zm4.822-1.676h-.638v1.608h-.918v-3.992h.918v1.614h.662l1.048-1.614h.975l-1.306 1.928 1.346 2.065h-1.048l-1.039-1.608zm3.547-2.384h.918v2.601l1.905-2.601h.867v3.992h-.913v-2.594l-1.905 2.594h-.873v-3.992zm5.711 0h.918v2.601l1.906-2.601h.866v3.992h-.913v-2.594l-1.905 2.594h-.872v-3.992zm1.842-.256c-.73 0-1.099-.291-1.107-.873h.633c.007.277.166.416.473.416.151 0 .268-.033.348-.103a.426.426 0 00.126-.313h.632c-.003.285-.097.502-.279.65s-.458.223-.828.223zM39.03 29.8h-1.854l-.353.855h-.947l1.78-3.992h.913l1.784 3.992h-.969l-.353-.855zm-.29-.702l-.633-1.528-.633 1.528h1.267zm6.831-2.435v3.992h-.924v-1.636h-1.814v1.636h-.924v-3.992h.924v1.575h1.814v-1.575h.924zm4.839.752h-1.899l.006 3.24h-.918v-3.992h2.817l-.006.753zm4.659-.752v3.992h-.913v-3.24h-1.368l-.029.833c-.02.566-.065 1.026-.138 1.379-.072.351-.193.621-.364.811-.168.186-.403.279-.707.279-.126 0-.278-.021-.457-.063l.057-.781c.05.015.105.022.166.022.221 0 .375-.128.462-.386.087-.263.142-.672.166-1.227l.056-1.62h3.068zm2.023 0h.918v2.601l1.905-2.601h.867v3.992h-.913v-2.594l-1.906 2.593h-.873v-3.992zm5.711 0h.918v2.601l1.906-2.601h.866v3.992h-.913v-2.594l-1.905 2.594h-.872v-3.992zm1.843-.256c-.73 0-1.099-.291-1.107-.873h.633c.007.277.166.416.473.416.151 0 .267-.033.348-.103a.426.426 0 00.126-.313h.632c-.003.285-.097.502-.279.65s-.458.223-.828.223zm5.755 4.316c-.407 0-.776-.088-1.107-.263a2.056 2.056 0 01-.771-.726l-.005-.009a2.032 2.032 0 01-.279-1.035v-.033.002l-.001-.047c0-.755.423-1.411 1.045-1.744l.011-.005a2.3 2.3 0 011.112-.268c.346 0 .659.061.936.183.281.121.518.299.704.521l.002.003-.593.547a1.273 1.273 0 00-.987-.468h-.018.001c-.246 0-.467.055-.661.166-.193.106-.348.26-.453.446l-.003.006c-.101.185-.16.405-.16.639v.025-.001c0 .246.053.467.16.661.11.193.262.345.456.456.194.107.415.16.662.16a1.27 1.27 0 001.004-.474l.593.548c-.19.232-.426.408-.707.53a2.344 2.344 0 01-.941.183zm4.823-1.676h-.64v1.608h-.917v-3.992h.918v1.614h.662l1.048-1.614h.975l-1.305 1.928 1.346 2.065h-1.05l-1.037-1.608zm3.547-2.384h.918v2.601l1.905-2.601h.867v3.992h-.913v-2.594l-1.905 2.594h-.873v-3.992zm5.71 0h.918v2.601l1.906-2.601h.866v3.992h-.913v-2.594l-1.905 2.594h-.872v-3.992zm1.843-.256c-.73 0-1.099-.291-1.107-.873h.633c.008.277.166.416.473.416.152 0 .268-.033.348-.103a.426.426 0 00.126-.313h.632c-.003.285-.097.502-.279.65s-.458.223-.828.223zm-13.171-11.42v2.836H62.736V4.848h10.176v2.836h-6.543v2.187h5.764v2.743h-5.764v2.372h6.784zm15.123-10.14v12.975h-3.021l-5.727-6.914v6.914h-3.597V4.847h3.022l5.727 6.914V4.847h3.596z"/><path fill="var(--color4, #ff6b09)" d="M57.545 11.09c-.189-.424-.45-.842-.832-1.324-.964-1.214-1.258-3.915-1.261-3.942a.328.328 0 00-.224-.275l-.002-.001a.326.326 0 00-.346.095c-1.15 1.287-.666 3.273-.405 4.066.072.217.15.473.206.733.425 2.097-.396 3.046-.588 3.238-.188.052-.314.025-.431-.1-.405-.445-.54-1.899-.35-3.796.04-.385.03-.732-.026-1.056-.399-2.329-1.865-3.825-2.238-4.348C50.022 2.863 49.917.338 49.914.316a.327.327 0 00-.511-.255l.001-.001c-1.711 1.163-1.565 3.966-1.326 5.532.055.363.163.732.35 1.198.663 1.67-.13 3.825-.137 3.843-.007.02-.013.035-.017.055-.102.532-.271.85-.461.85a.26.26 0 01-.063-.011h.002c-.232-.047-.353-.294-.356-.508-.013-2.764-2.787-3.694-2.816-3.704a.328.328 0 00-.346.096.319.319 0 00-.046.358l-.001-.002c.033.068.138.366.066 1.419a12.077 12.077 0 01-.537 2.866l.023-.086a13.26 13.26 0 00-.549 4.31l-.001-.023c.508 5.519 8.445 6.486 13.155 3.377.516-.34.938-.728 1.248-1.156 1.738-2.398.716-5.655-.045-7.385zm-12.072 5.272l.001.018a.323.323 0 01-.309.323h-.022a.327.327 0 01-.325-.304v-.001c-.03-.474-.022-.97.013-1.507a.33.33 0 01.351-.301h-.001c.17.012.304.153.304.326l-.001.022v-.001a10.114 10.114 0 00-.011 1.455l-.001-.029zm.159-2.871a.325.325 0 01-.322.286h-.001c-.013 0-.026 0-.042-.003a.328.328 0 01-.285-.361v.002l.157-1.251a.33.33 0 01.368-.281h-.002c.18.022.307.184.284.363l-.157 1.247zm9.703-9.057a.325.325 0 01-.272-.372v.002c.021-.132.139-.806.459-1.144a.33.33 0 01.461-.015.322.322 0 01.015.459c-.136.143-.252.554-.29.8a.327.327 0 01-.374.27h.002zM43.423 6.047c-.063-.241-.217-.638-.367-.768a.32.32 0 01-.03-.457.327.327 0 01.462-.03c.352.306.536.966.569 1.095a.324.324 0 01-.233.393h-.002a.328.328 0 01-.397-.231l-.001-.002z"/></symbol><symbol id="logo-white" viewBox="0 0 91 32"><path fill="var(--color1, #fff)" d="M13.608 4.836v12.942H9.947v-5.047H4.955v5.047H1.294V4.836h3.661v4.863h4.992V4.836h3.661zm13.398 7.95c0 .025-.018.314-.055.869h-7.285c.148.518.432.918.851 1.202.432.271.967.407 1.609.407.481 0 .894-.068 1.239-.203a3.617 3.617 0 001.072-.666l1.849 1.923c-.974 1.084-2.397 1.627-4.271 1.627-1.171 0-2.2-.222-3.088-.666s-1.577-1.06-2.071-1.849c-.481-.789-.721-1.683-.721-2.681 0-.986.235-1.867.703-2.644a5.064 5.064 0 011.951-1.836l.027-.013c.838-.444 1.781-.666 2.829-.666.998 0 1.904.21 2.718.629a4.599 4.599 0 011.911 1.772l.012.021c.481.777.721 1.701.721 2.773zm-5.343-2.7c-.542 0-.998.154-1.368.462-.357.308-.585.727-.684 1.257h4.105c-.098-.53-.333-.949-.703-1.257-.357-.308-.807-.462-1.35-.462zm7.702-6.027h3.513v13.719h-3.513V4.059zm6.535 0h3.513v13.719H35.9V4.059z"/><path fill="var(--color4, #ff6b09)" d="M4.614 29.724H2.765l-.353.853h-.944l1.775-3.982h.91l1.781 3.982h-.967l-.353-.853zm-.29-.699L3.693 27.5l-.631 1.525h1.263zm7.303.802v1.576h-.853v-.825H7.963v.825H7.11l.006-1.576h.159c.24-.007.408-.182.507-.523s.159-.828.181-1.462l.046-1.246h3.06v3.231h.557zm-2.851-1.9a8.467 8.467 0 01-.126 1.245l.007-.051c-.061.319-.154.554-.279.705h1.781v-2.48H8.794l-.017.58zm6.378 2.719c-.405 0-.774-.087-1.104-.262a2.047 2.047 0 01-.769-.725l-.005-.009a2.034 2.034 0 01-.279-1.033v-.032.002a1.973 1.973 0 011.053-1.792 2.3 2.3 0 011.109-.267c.345 0 .656.06.933.182.281.121.516.296.705.523l-.592.546a1.272 1.272 0 00-1.001-.466c-.247 0-.466.055-.66.165a1.162 1.162 0 00-.452.444l-.003.006c-.107.193-.159.413-.159.66s.053.466.159.66c.11.193.262.345.455.455.193.107.413.159.66.159.398 0 .732-.157 1.001-.472l.592.546a1.855 1.855 0 01-.694.524l-.012.005a2.35 2.35 0 01-.939.182zm4.81-1.672h-.637v1.604h-.917v-3.982h.916v1.61h.66l1.047-1.61h.973l-1.303 1.923 1.343 2.059h-1.047l-1.035-1.604zm3.538-2.378h.916v2.594l1.9-2.594h.865v3.982h-.91V27.99l-1.9 2.588h-.87v-3.982zm5.696 0h.916v2.594l1.9-2.594h.865v3.982h-.91V27.99l-1.9 2.588h-.87v-3.982zm1.838-.256c-.728 0-1.096-.29-1.104-.87h.631c.007.277.165.415.472.415.151 0 .267-.034.347-.102.08-.072.121-.176.125-.313h.631c-.004.284-.097.501-.279.649s-.457.222-.825.222z"/><path fill="var(--color1, #fff)" d="M40.226 29.724h-1.849l-.353.853h-.944l1.775-3.982h.91l1.781 3.982h-.967l-.353-.853zm-.29-.699l-.631-1.525-.631 1.525h1.263zm6.815-2.429v3.982h-.922v-1.633H44.02v1.633h-.922v-3.982h.922v1.57h1.809v-1.57h.922zm4.826.75h-1.894l.006 3.231h-.916v-3.982h2.81l-.006.751zm4.647-.75v3.982h-.91v-3.231h-1.365l-.028.831a8.564 8.564 0 01-.137 1.377c-.073.348-.193.619-.364.808-.167.186-.403.279-.705.279-.125 0-.277-.021-.455-.063l.057-.779a.562.562 0 00.165.023c.22 0 .373-.129.461-.387.087-.262.142-.669.165-1.223l.057-1.616h3.061zm2.018 0h.916v2.594l1.9-2.594h.865v3.982h-.91V27.99l-1.901 2.588h-.87v-3.982zm5.696 0h.916v2.594l1.901-2.594h.865v3.982h-.91V27.99l-1.9 2.588h-.871v-3.982zm1.838-.256c-.729 0-1.097-.29-1.104-.87h.632c.007.277.164.415.471.415.152 0 .268-.034.348-.102a.415.415 0 00.124-.313h.631c-.004.284-.097.501-.279.649s-.457.222-.825.222zm5.742 4.306h-.032c-.392 0-.761-.097-1.085-.268l.013.006a2.047 2.047 0 01-.769-.725l-.005-.009a2.034 2.034 0 01-.279-1.033v-.032.002c0-.395.092-.747.279-1.058.189-.315.448-.56.774-.734a2.263 2.263 0 011.076-.268h.035-.002c.345 0 .656.06.933.182.28.121.516.296.705.523l-.592.546a1.271 1.271 0 00-1.001-.466c-.247 0-.466.055-.66.165a1.162 1.162 0 00-.452.444l-.003.006c-.107.193-.159.413-.159.66s.053.466.159.66c.11.193.262.345.455.455.193.107.413.159.66.159.398 0 .732-.157 1.001-.472l.592.546a1.86 1.86 0 01-.693.524l-.012.005a2.35 2.35 0 01-.939.182zm4.811-1.672h-.637v1.604h-.916v-3.982h.916v1.61h.66l1.047-1.61h.973l-1.303 1.923 1.343 2.059h-1.047l-1.035-1.604zm3.537-2.378h.916v2.594l1.9-2.594h.865v3.982h-.91V27.99l-1.9 2.588h-.87v-3.982zm5.696 0h.916v2.594l1.9-2.594h.865v3.982h-.91V27.99l-1.9 2.588h-.87v-3.982zm1.838-.256c-.728 0-1.096-.29-1.104-.87h.631c.008.277.165.415.472.415.151 0 .267-.034.347-.102.08-.072.122-.176.125-.313h.631c-.004.284-.097.501-.279.649s-.457.222-.825.222zM74.263 14.949v2.829H63.872V4.836h10.15v2.829h-6.527v2.182h5.75v2.736h-5.75v2.367h6.767zM89.348 4.836v12.942h-3.014l-5.713-6.896v6.896h-3.587V4.836h3.014l5.713 6.896V4.836h3.587z"/><path fill="var(--color4, #ff6b09)" d="M58.695 11.062c-.19-.424-.45-.841-.832-1.323-.961-1.209-1.254-3.904-1.258-3.93a.326.326 0 00-.222-.274l-.002-.001a.329.329 0 00-.345.094c-1.147 1.283-.665 3.264-.404 4.056.071.217.149.472.206.731.423 2.091-.395 3.038-.587 3.228-.186.052-.313.026-.43-.1-.405-.443-.538-1.894-.348-3.785a3.818 3.818 0 00-.03-1.076l.003.023c-.399-2.324-1.861-3.815-2.233-4.338C51.189 2.854 51.085.336 51.082.314a.325.325 0 00-.509-.255l.001-.001c-1.708 1.161-1.562 3.957-1.323 5.518.055.363.163.73.348 1.196.661 1.664-.13 3.814-.137 3.833-.007.02-.014.036-.016.055-.101.53-.27.847-.46.847a.219.219 0 01-.063-.01h.002c-.231-.048-.352-.294-.356-.507-.013-2.757-2.78-3.685-2.809-3.695s-.064-.016-.1-.016a.326.326 0 00-.246.113.316.316 0 00-.044.357l-.001-.002c.033.068.137.365.065 1.415a12.078 12.078 0 01-.535 2.859l.023-.085c-.658 2.147-.555 4.18-.548 4.277.506 5.505 8.423 6.47 13.122 3.369.515-.34.935-.727 1.244-1.154 1.734-2.392.714-5.641-.045-7.367zM46.651 16.32v.017a.322.322 0 01-.306.322h-.023a.325.325 0 01-.324-.303v-.001c-.029-.471-.023-.966.014-1.503a.33.33 0 01.349-.3h-.001c.17.012.304.153.304.325l-.001.022v-.001c-.036.511-.043.976-.013 1.422zm.159-2.864a.323.323 0 01-.321.284h-.002c-.014 0-.026 0-.043-.004a.327.327 0 01-.286-.324l.002-.036v.001l.156-1.248a.329.329 0 01.367-.28h-.002a.324.324 0 01.283.362l-.156 1.244zm9.679-9.034a.324.324 0 01-.272-.37v.002c.021-.132.139-.804.458-1.142a.327.327 0 01.461-.014.32.32 0 01.014.457c-.135.143-.25.553-.289.798a.327.327 0 01-.374.27h.002zm-11.881 1.61c-.063-.24-.218-.637-.367-.767a.32.32 0 01-.03-.456.326.326 0 01.46-.029c.351.306.535.963.567 1.092a.323.323 0 01-.232.393h-.002a.329.329 0 01-.397-.23l-.001-.002z"/></symbol><symbol id="menu" viewBox="0 0 48 32"><path stroke-width="4.571" d="M0 2.286h46.857M0 16h46.857M0 29.714h46.857"/></symbol><symbol id="phone" viewBox="0 0 32 32"><path fill="var(--color4, #ff6b09)" d="M4.656.003a1.998 1.998 0 00-1.391.65l-.001.002-2.592 2.85c.003-.008-.01-.006-.083.096a.6.6 0 00-.09.172l-.001.004C-.558 7.142.151 10.843 1.874 14.363c1.725 3.52 4.477 6.886 7.634 9.651 3.158 2.763 6.722 4.926 10.12 5.998 3.397 1.072 6.691 1.059 9.133-.712a.662.662 0 00.073-.065c.064-.064.067-.072.056-.062l.01-.013 2.582-2.84c.322-.357.519-.831.519-1.352 0-.587-.25-1.116-.65-1.485l-6.128-5.572a2.015 2.015 0 00-1.353-.52c-.588 0-1.117.251-1.486.651l-.001.001-2.771 3.048c-2.25-.653-4.173-1.757-6.024-3.44-1.851-1.678-3.133-3.49-3.994-5.669l2.771-3.048a2.01 2.01 0 00.52-1.352 2.01 2.01 0 00-.653-1.486l-.001-.001L6.106.522A1.996 1.996 0 004.651.003h.005zm.059 1.248l.028-.001c.198 0 .379.077.513.203l6.125 5.571a.736.736 0 01.051 1.061l-3.064 3.366a.627.627 0 00-.123.644l-.001-.004c.93 2.536 2.43 4.618 4.493 6.494 2.064 1.877 4.275 3.174 6.89 3.859a.632.632 0 00.624-.185l3.066-3.366a.735.735 0 011.059-.049l6.128 5.571a.734.734 0 01.048 1.06l-2.56 2.816c-2.005 1.437-4.827 1.518-7.987.52-3.173-1.002-6.618-3.075-9.666-5.744-3.05-2.669-5.702-5.926-7.333-9.254-1.614-3.293-2.2-6.624-1.312-9.558l2.502-2.749a.745.745 0 01.518-.251h.002z"/></symbol></defs></svg>