<svg width="52" height="52" viewBox="0 0 52 52" fill="none" xmlns="http://www.w3.org/2000/svg">
<path fill-rule="evenodd" clip-rule="evenodd" d="M22.5629 6.96172C20.2639 2.82347 13.2331 1.86159 8.88285 7.0405C6.36439 10.0387 5.76582 13.3516 6.3822 16.6666C6.51994 17.4073 6.71857 18.1487 6.97062 18.8866C7.00611 18.9806 7.03767 19.0719 7.06602 19.1587C7.17429 19.4597 7.29132 19.7601 7.41659 20.0595C7.51246 20.129 7.75924 20.2189 8.5 20.2189C9.78915 20.2189 10.3108 19.871 10.5632 19.5001C10.8523 19.0753 10.9055 18.4763 10.9379 17.6981L10.9424 17.5896C10.9559 17.2545 10.9706 16.893 11.0173 16.5499C11.0694 16.1669 11.1657 15.7682 11.3702 15.409C11.8114 14.6342 12.6459 14.2189 14 14.2189C14.8102 14.2189 15.4667 14.3706 15.9863 14.6737C16.5124 14.9806 16.8586 15.4197 17.0819 15.9221C17.5004 16.8637 17.5002 18.0783 17.5 19.1519L17.5 19.2189C17.5 20.3791 17.5091 21.3833 17.8319 22.1096C17.9836 22.451 18.1999 22.715 18.5176 22.9003C18.8417 23.0894 19.3102 23.2189 20 23.2189C20.6939 23.2189 21.1665 23.0957 21.4931 22.9157C21.8119 22.7401 22.0245 22.4926 22.1726 22.1779C22.49 21.5034 22.5 20.568 22.5 19.4689L22.5 19.4009C22.4998 18.3907 22.4995 17.2331 22.9226 16.3341C23.1495 15.852 23.4994 15.4354 24.0244 15.1462C24.5415 14.8613 25.1939 14.7189 26 14.7189C26.8061 14.7189 27.4585 14.8613 27.9756 15.1462C28.5006 15.4354 28.8505 15.852 29.0774 16.3341C29.5005 17.2331 29.5002 18.3907 29.5 19.4009L29.5 19.4689C29.5 20.568 29.51 21.5034 29.8274 22.1779C29.9755 22.4926 30.1881 22.7401 30.5069 22.9157C30.8335 23.0957 31.3061 23.2189 32 23.2189C32.6898 23.2189 33.1583 23.0894 33.4824 22.9003C33.8001 22.715 34.0164 22.451 34.1681 22.1096C34.4909 21.3833 34.5 20.3791 34.5 19.2189L34.5 19.1519C34.4998 18.0783 34.4996 16.8637 34.9181 15.9221C35.1414 15.4197 35.4876 14.9806 36.0137 14.6737C36.5333 14.3706 37.1898 14.2189 38 14.2189C39.3541 14.2189 40.1886 14.6342 40.6298 15.409C40.8343 15.7682 40.9306 16.1669 40.9827 16.5499C41.0294 16.893 41.0441 17.2545 41.0576 17.5896L41.0621 17.6981C41.0945 18.4763 41.1477 19.0753 41.4368 19.5001C41.6892 19.871 42.2109 20.2189 43.5 20.2189C44.2408 20.2189 44.4875 20.129 44.5834 20.0595C44.7087 19.7601 44.8257 19.4597 44.934 19.1587C44.9623 19.0719 44.9939 18.9806 45.0294 18.8866C45.2814 18.1487 45.4801 17.4073 45.6178 16.6666C46.2342 13.3516 45.6356 10.0387 43.1171 7.0405C38.7669 1.86159 31.7361 2.82347 29.4371 6.96172C29.4033 7.02247 29.3697 7.08372 29.336 7.1452L29.3359 7.14543C29.0574 7.65324 28.7705 8.17636 28.3201 8.55426C27.7805 9.00699 27.0651 9.2189 26 9.2189C24.9349 9.2189 24.2195 9.00699 23.6799 8.55426C23.2295 8.17636 22.9426 7.65324 22.6641 7.14543L22.664 7.1452C22.6303 7.08372 22.5967 7.02247 22.5629 6.96172ZM26 8.2189C26.9349 8.2189 27.3845 8.0339 27.6773 7.78818C27.9756 7.5379 28.1686 7.18888 28.4709 6.64219L28.5629 6.47608C31.2639 1.61434 39.1665 0.782546 43.8829 6.3973C46.6144 9.64913 47.2658 13.2737 46.601 16.8494C46.4364 17.7343 46.1915 18.6155 45.8785 19.4875C45.8466 19.586 45.8192 19.6795 45.7918 19.7726C45.7742 19.8324 45.7566 19.892 45.738 19.9528C45.6758 20.1559 45.5949 20.396 45.4383 20.6052C44.4822 22.8386 43.1041 24.9931 41.5147 26.9697C39.0443 30.0418 36.0384 32.7155 33.2345 34.6244C31.8322 35.579 30.4726 36.3478 29.248 36.8797C28.0328 37.4074 26.9124 37.7189 26 37.7189C25.0876 37.7189 23.9672 37.4074 22.752 36.8797C21.5274 36.3478 20.1678 35.579 18.7655 34.6244C15.9616 32.7155 12.9557 30.0418 10.4854 26.9697C8.8959 24.9931 7.51781 22.8386 6.56165 20.6052C6.40509 20.396 6.3242 20.1559 6.26197 19.9528C6.24336 19.8921 6.22582 19.8324 6.20824 19.7726L6.20823 19.7726L6.20822 19.7726C6.18084 19.6795 6.15336 19.586 6.12155 19.4875C5.80847 18.6155 5.56359 17.7343 5.39905 16.8494C4.73418 13.2737 5.38561 9.64913 8.11715 6.3973C12.8335 0.782546 20.7361 1.61434 23.4371 6.47608L23.5291 6.64219C23.8314 7.18888 24.0244 7.5379 24.3227 7.78818C24.6155 8.0339 25.0651 8.2189 26 8.2189ZM26 36.7189C26.7126 36.7189 27.6859 36.4678 28.8496 35.9624C30.004 35.4611 31.3084 34.7259 32.6717 33.7978C35.3991 31.941 38.3307 29.3335 40.7353 26.3431C42.0457 24.7136 43.1921 22.9797 44.065 21.2C43.8904 21.2135 43.7022 21.2189 43.5 21.2189C42.0391 21.2189 41.1233 20.8168 40.6101 20.0627C40.1336 19.3625 40.093 18.4615 40.0629 17.7397L40.0586 17.635C40.0446 17.2911 40.0318 16.978 39.9919 16.6848C39.9483 16.3647 39.8766 16.1071 39.7608 15.9038C39.5614 15.5536 39.1459 15.2189 38 15.2189C37.3102 15.2189 36.8417 15.3484 36.5176 15.5375C36.1999 15.7228 35.9836 15.9868 35.8319 16.3282C35.5091 17.0545 35.5 18.0587 35.5 19.2189L35.5 19.2859C35.5002 20.3595 35.5004 21.5741 35.0819 22.5157C34.8586 23.0181 34.5124 23.4572 33.9863 23.7641C33.4667 24.0672 32.8102 24.2189 32 24.2189C31.1939 24.2189 30.5415 24.0765 30.0244 23.7916C29.4994 23.5024 29.1495 23.0858 28.9226 22.6037C28.4995 21.7047 28.4998 20.5471 28.5 19.5369L28.5 19.4689C28.5 18.3699 28.49 17.4344 28.1726 16.7599C28.0245 16.4452 27.8119 16.1977 27.4931 16.0221C27.1665 15.8421 26.6939 15.7189 26 15.7189C25.3061 15.7189 24.8335 15.8421 24.5069 16.0221C24.1881 16.1977 23.9755 16.4452 23.8274 16.7599C23.51 17.4344 23.5 18.3699 23.5 19.4689L23.5 19.5369C23.5002 20.5471 23.5005 21.7047 23.0774 22.6037C22.8505 23.0858 22.5006 23.5024 21.9756 23.7916C21.4585 24.0765 20.8061 24.2189 20 24.2189C19.1898 24.2189 18.5333 24.0672 18.0137 23.7641C17.4876 23.4572 17.1414 23.0181 16.9181 22.5157C16.4996 21.5741 16.4998 20.3595 16.5 19.2859L16.5 19.2189C16.5 18.0587 16.4909 17.0545 16.1681 16.3282C16.0164 15.9868 15.8001 15.7228 15.4824 15.5375C15.1583 15.3484 14.6898 15.2189 14 15.2189C12.8541 15.2189 12.4386 15.5536 12.2392 15.9038C12.1234 16.1071 12.0517 16.3647 12.0081 16.6848C11.9682 16.978 11.9554 17.291 11.9414 17.6349L11.9414 17.635L11.9371 17.7397C11.907 18.4615 11.8664 19.3625 11.3899 20.0627C10.8767 20.8168 9.96085 21.2189 8.5 21.2189C8.29783 21.2189 8.10963 21.2135 7.93504 21.2C8.80788 22.9797 9.95434 24.7136 11.2646 26.3431C13.6693 29.3335 16.6009 31.941 19.3283 33.7978C20.6916 34.7259 21.996 35.4611 23.1504 35.9624C24.3141 36.4678 25.2874 36.7189 26 36.7189Z" fill="#ffa5ba"/>
<path d="M8.88285 7.0405L9.64856 7.68369L8.88285 7.0405ZM22.5629 6.96172L21.6888 7.44736L21.6888 7.44738L22.5629 6.96172ZM6.3822 16.6666L7.36535 16.4837L7.36535 16.4837L6.3822 16.6666ZM6.97062 18.8866L6.0243 19.2098L6.02945 19.2249L6.03507 19.2398L6.97062 18.8866ZM7.06602 19.1587L6.11544 19.4692L6.12003 19.4832L6.12503 19.4971L7.06602 19.1587ZM7.41659 20.0595L6.49407 20.4455L6.6024 20.7044L6.82966 20.8692L7.41659 20.0595ZM10.5632 19.5001L11.3899 20.0627H11.3899L10.5632 19.5001ZM10.9379 17.6981L11.9371 17.7397L11.9371 17.7389L10.9379 17.6981ZM10.9424 17.5896L11.9415 17.6304L11.9416 17.63L10.9424 17.5896ZM11.0173 16.5499L10.0264 16.415L11.0173 16.5499ZM11.3702 15.409L12.2392 15.9038L12.2392 15.9038L11.3702 15.409ZM15.9863 14.6737L16.4902 13.81L15.9863 14.6737ZM17.0819 15.9221L16.1681 16.3282L16.1681 16.3282L17.0819 15.9221ZM17.5 19.1519L16.5 19.1517V19.1518L17.5 19.1519ZM17.5 19.2189L16.5 19.2188V19.2189H17.5ZM17.8319 22.1096L16.9181 22.5157L17.8319 22.1096ZM18.5176 22.9003L18.0137 23.7641H18.0137L18.5176 22.9003ZM21.4931 22.9157L21.9756 23.7916H21.9756L21.4931 22.9157ZM22.1726 22.1779L21.2678 21.7521L22.1726 22.1779ZM22.5 19.4689H23.5V19.4688L22.5 19.4689ZM22.5 19.4009L23.5 19.4008V19.4007L22.5 19.4009ZM22.9226 16.3341L23.8274 16.7599L22.9226 16.3341ZM24.0244 15.1462L24.5069 16.0221L24.5069 16.0221L24.0244 15.1462ZM27.9756 15.1462L27.4931 16.0221L27.4931 16.0221L27.9756 15.1462ZM29.0774 16.3341L28.1726 16.7599L29.0774 16.3341ZM29.5 19.4009L28.5 19.4007V19.4008L29.5 19.4009ZM29.5 19.4689L28.5 19.4688V19.4689H29.5ZM29.8274 22.1779L30.7322 21.7521L29.8274 22.1779ZM30.5069 22.9157L30.0244 23.7916H30.0244L30.5069 22.9157ZM33.4824 22.9003L33.9863 23.7641L33.4824 22.9003ZM34.1681 22.1096L33.2543 21.7034L33.2543 21.7034L34.1681 22.1096ZM34.5 19.2189H35.5V19.2188L34.5 19.2189ZM34.5 19.1519L35.5 19.1518V19.1517L34.5 19.1519ZM34.9181 15.9221L34.0043 15.5159L34.9181 15.9221ZM36.0137 14.6737L35.5098 13.81L35.5098 13.81L36.0137 14.6737ZM40.6298 15.409L41.4988 14.9141V14.9141L40.6298 15.409ZM40.9827 16.5499L39.9919 16.6848V16.6848L40.9827 16.5499ZM41.0576 17.5896L40.0584 17.63L40.0585 17.6305L41.0576 17.5896ZM41.0621 17.6981L40.0629 17.7389L40.0629 17.7397L41.0621 17.6981ZM41.4368 19.5001L42.2635 18.9375V18.9375L41.4368 19.5001ZM44.5834 20.0595L45.1703 20.8692L45.3976 20.7044L45.5059 20.4455L44.5834 20.0595ZM44.934 19.1587L45.875 19.4971L45.88 19.4832L45.8846 19.4692L44.934 19.1587ZM45.0294 18.8866L45.9649 19.2398L45.9705 19.2249L45.9757 19.2098L45.0294 18.8866ZM45.6178 16.6666L44.6346 16.4837V16.4838L45.6178 16.6666ZM43.1171 7.0405L42.3514 7.68369L43.1171 7.0405ZM29.4371 6.96172L30.3112 7.44738L30.3112 7.44736L29.4371 6.96172ZM29.336 7.1452L28.4592 6.66434L28.4585 6.66559L29.336 7.1452ZM29.3359 7.14543L30.2127 7.6263L30.2134 7.62505L29.3359 7.14543ZM28.3201 8.55426L28.9628 9.32033V9.32033L28.3201 8.55426ZM23.6799 8.55426L23.0372 9.32033V9.32033L23.6799 8.55426ZM22.6641 7.14543L21.7866 7.62505L21.7873 7.6263L22.6641 7.14543ZM22.664 7.1452L23.5415 6.66559L23.5408 6.66434L22.664 7.1452ZM27.6773 7.78818L28.3201 8.55426L28.3201 8.55425L27.6773 7.78818ZM28.4709 6.64219L27.5961 6.15769L27.5958 6.15829L28.4709 6.64219ZM28.5629 6.47608L27.6888 5.99043L27.6881 5.99158L28.5629 6.47608ZM43.8829 6.3973L44.6486 5.75411L43.8829 6.3973ZM46.601 16.8494L45.6178 16.6666V16.6666L46.601 16.8494ZM45.8785 19.4875L44.9373 19.1495L44.9318 19.1648L44.9268 19.1802L45.8785 19.4875ZM45.7918 19.7726L46.7512 20.0547L46.7512 20.0547L45.7918 19.7726ZM45.738 19.9528L44.7819 19.6598L44.7819 19.6598L45.738 19.9528ZM45.4383 20.6052L44.6377 20.006L44.5661 20.1017L44.519 20.2116L45.4383 20.6052ZM41.5147 26.9697L42.2939 27.5964V27.5964L41.5147 26.9697ZM33.2345 34.6244L32.6717 33.7978H32.6717L33.2345 34.6244ZM29.248 36.8797L29.6464 37.7969H29.6464L29.248 36.8797ZM22.752 36.8797L22.3536 37.7969H22.3536L22.752 36.8797ZM18.7655 34.6244L19.3283 33.7978H19.3283L18.7655 34.6244ZM10.4854 26.9697L11.2646 26.3431L11.2646 26.3431L10.4854 26.9697ZM6.56165 20.6052L7.48095 20.2116L7.4339 20.1017L7.36227 20.006L6.56165 20.6052ZM6.26197 19.9528L7.21808 19.6598H7.21808L6.26197 19.9528ZM6.20824 19.7726L5.24715 20.0489L5.24886 20.0547L6.20824 19.7726ZM6.20823 19.7726L7.1693 19.4963L7.16456 19.4798L7.15926 19.4635L6.20823 19.7726ZM6.20822 19.7726L5.24884 20.0547L5.25282 20.0682L5.25718 20.0816L6.20822 19.7726ZM6.12155 19.4875L7.07317 19.1802L7.06819 19.1648L7.06272 19.1495L6.12155 19.4875ZM5.39905 16.8494L6.3822 16.6666L5.39905 16.8494ZM8.11715 6.3973L7.35144 5.75411H7.35144L8.11715 6.3973ZM23.4371 6.47608L24.3119 5.99157L24.3112 5.99043L23.4371 6.47608ZM23.5291 6.64219L24.4042 6.15829L24.4039 6.15769L23.5291 6.64219ZM24.3227 7.78818L23.6799 8.55425L23.6799 8.55426L24.3227 7.78818ZM28.8496 35.9624L28.4513 35.0452H28.4513L28.8496 35.9624ZM32.6717 33.7978L33.2345 34.6244H33.2345L32.6717 33.7978ZM40.7353 26.3431L39.9561 25.7164L40.7353 26.3431ZM44.065 21.2L44.9628 21.6403L45.7342 20.0675L43.9876 20.203L44.065 21.2ZM40.6101 20.0627L41.4368 19.5001V19.5001L40.6101 20.0627ZM40.0629 17.7397L39.0638 17.7808L39.0638 17.7814L40.0629 17.7397ZM40.0586 17.635L39.0595 17.6758L39.0595 17.6761L40.0586 17.635ZM39.9919 16.6848L40.9827 16.5499V16.5499L39.9919 16.6848ZM39.7608 15.9038L38.8918 16.3987V16.3987L39.7608 15.9038ZM36.5176 15.5375L37.0214 16.4013L37.0214 16.4013L36.5176 15.5375ZM35.8319 16.3282L34.9181 15.9221V15.9221L35.8319 16.3282ZM35.5 19.2189H34.5V19.219L35.5 19.2189ZM35.5 19.2859L34.5 19.286V19.2861L35.5 19.2859ZM35.0819 22.5157L34.1681 22.1096L35.0819 22.5157ZM33.9863 23.7641L33.4824 22.9003L33.9863 23.7641ZM30.0244 23.7916L30.5069 22.9157H30.5069L30.0244 23.7916ZM28.9226 22.6037L29.8274 22.1779L28.9226 22.6037ZM28.5 19.5369L29.5 19.5371V19.537L28.5 19.5369ZM28.5 19.4689L29.5 19.469V19.4689H28.5ZM28.1726 16.7599L27.2678 17.1857V17.1857L28.1726 16.7599ZM27.4931 16.0221L27.0106 16.8979L27.4931 16.0221ZM24.5069 16.0221L24.9894 16.8979L24.5069 16.0221ZM23.8274 16.7599L24.7322 17.1857V17.1857L23.8274 16.7599ZM23.5 19.4689H22.5V19.469L23.5 19.4689ZM23.5 19.5369L22.5 19.537V19.5371L23.5 19.5369ZM23.0774 22.6037L22.1726 22.1779L23.0774 22.6037ZM21.9756 23.7916L21.4931 22.9157H21.4931L21.9756 23.7916ZM18.0137 23.7641L18.5176 22.9003H18.5176L18.0137 23.7641ZM16.9181 22.5157L17.8319 22.1096L17.8319 22.1096L16.9181 22.5157ZM16.5 19.2859L17.5 19.2861V19.286L16.5 19.2859ZM16.5 19.2189L17.5 19.219V19.2189H16.5ZM16.1681 16.3282L17.0819 15.9221L17.0819 15.9221L16.1681 16.3282ZM15.4824 15.5375L14.9786 16.4013L14.9786 16.4013L15.4824 15.5375ZM12.2392 15.9038L11.3702 15.409L12.2392 15.9038ZM12.0081 16.6848L11.0173 16.5499V16.5499L12.0081 16.6848ZM11.9414 17.6349L10.9422 17.5941L10.942 17.5992L11.9414 17.6349ZM11.9414 17.635L12.9405 17.6761L12.9407 17.6707L11.9414 17.635ZM11.9371 17.7397L12.9362 17.7813L12.9362 17.7808L11.9371 17.7397ZM11.3899 20.0627L12.2166 20.6253H12.2166L11.3899 20.0627ZM7.93504 21.2L8.01238 20.203L6.2658 20.0675L7.03721 21.6403L7.93504 21.2ZM11.2646 26.3431L12.0439 25.7164L11.2646 26.3431ZM19.3283 33.7978L18.7655 34.6244H18.7655L19.3283 33.7978ZM23.1504 35.9624L23.5487 35.0452H23.5487L23.1504 35.9624ZM9.64856 7.68369C13.6299 2.944 19.7897 4.02902 21.6888 7.44736L23.4371 6.47608C20.7381 1.61792 12.8364 0.779171 8.11715 6.3973L9.64856 7.68369ZM7.36535 16.4837C6.79748 13.4297 7.34309 10.4283 9.64856 7.68369L8.11715 6.3973C5.38568 9.64905 4.73416 13.2736 5.39905 16.8494L7.36535 16.4837ZM7.91694 18.5634C7.6791 17.8671 7.49345 17.1727 7.36535 16.4837L5.39905 16.8494C5.54643 17.642 5.75803 18.4303 6.0243 19.2098L7.91694 18.5634ZM8.01659 18.8482C7.98453 18.75 7.94798 18.6442 7.90616 18.5334L6.03507 19.2398C6.06424 19.3171 6.09082 19.3938 6.11544 19.4692L8.01659 18.8482ZM8.33911 19.6736C8.22015 19.3892 8.10931 19.1047 8.00701 18.8202L6.12503 19.4971C6.23926 19.8147 6.36248 20.1309 6.49407 20.4455L8.33911 19.6736ZM8.5 19.2189C8.16352 19.2189 7.98383 19.198 7.90064 19.1824C7.81304 19.166 7.88675 19.1652 8.00353 19.2499L6.82966 20.8692C7.04231 21.0233 7.28733 21.1023 7.53228 21.1482C7.78163 21.1949 8.09571 21.2189 8.5 21.2189V19.2189ZM9.73649 18.9375C9.72093 18.9603 9.68268 19.0149 9.5389 19.0742C9.37488 19.1419 9.06241 19.2189 8.5 19.2189V21.2189C9.96377 21.2189 10.8779 20.8151 11.3899 20.0627L9.73649 18.9375ZM9.9388 17.6565C9.90383 18.4958 9.83731 18.7893 9.73649 18.9375L11.3899 20.0627C11.8673 19.3612 11.9072 18.4569 11.9371 17.7397L9.9388 17.6565ZM9.9432 17.5488L9.93877 17.6572L11.9371 17.7389L11.9415 17.6304L9.9432 17.5488ZM10.0264 16.415C9.97221 16.8132 9.9564 17.2227 9.94319 17.5492L11.9416 17.63C11.9555 17.2864 11.9689 16.9728 12.0081 16.6848L10.0264 16.415ZM10.5012 14.9141C10.2079 15.4292 10.0871 15.9689 10.0264 16.415L12.0081 16.6848C12.0517 16.3648 12.1234 16.1072 12.2392 15.9038L10.5012 14.9141ZM14 13.2189C12.4405 13.2189 11.1852 13.713 10.5012 14.9141L12.2392 15.9038C12.4376 15.5554 12.8512 15.2189 14 15.2189V13.2189ZM16.4902 13.81C15.7751 13.3928 14.9304 13.2189 14 13.2189V15.2189C14.69 15.2189 15.1584 15.3485 15.4824 15.5375L16.4902 13.81ZM17.9957 15.5159C17.701 14.8529 17.2248 14.2385 16.4902 13.81L15.4824 15.5375C15.7999 15.7227 16.0163 15.9866 16.1681 16.3282L17.9957 15.5159ZM18.5 19.1521C18.5002 18.1379 18.5174 16.6898 17.9957 15.5159L16.1681 16.3282C16.4834 17.0376 16.5002 18.0187 16.5 19.1517L18.5 19.1521ZM18.5 19.219L18.5 19.152L16.5 19.1518L16.5 19.2188L18.5 19.219ZM18.7457 21.7034C18.6487 21.4851 18.5794 21.1774 18.5411 20.7398C18.5029 20.3036 18.5 19.8061 18.5 19.2189H16.5C16.5 19.7919 16.5017 20.3766 16.5487 20.9142C16.5957 21.4503 16.6923 22.0078 16.9181 22.5157L18.7457 21.7034ZM19.0214 22.0365C18.9119 21.9726 18.8258 21.8836 18.7457 21.7034L16.9181 22.5157C17.1415 23.0184 17.4879 23.4574 18.0137 23.7641L19.0214 22.0365ZM20 22.2189C19.4307 22.2189 19.1503 22.1117 19.0214 22.0365L18.0137 23.7641C18.5332 24.0671 19.1897 24.2189 20 24.2189V22.2189ZM21.0106 22.0399C20.8743 22.1149 20.5816 22.2189 20 22.2189V24.2189C20.8062 24.2189 21.4586 24.0765 21.9756 23.7916L21.0106 22.0399ZM21.2678 21.7521C21.1985 21.8992 21.1234 21.9777 21.0106 22.0399L21.9756 23.7916C22.5004 23.5025 22.8504 23.0861 23.0774 22.6037L21.2678 21.7521ZM21.5 19.4689C21.5 20.0257 21.4968 20.4884 21.4596 20.8904C21.4223 21.2933 21.3558 21.5649 21.2678 21.7521L23.0774 22.6037C23.3068 22.1163 23.404 21.583 23.4511 21.0748C23.4982 20.5657 23.5 20.0112 23.5 19.4689H21.5ZM21.5 19.4011L21.5 19.469L23.5 19.4688L23.5 19.4008L21.5 19.4011ZM22.0178 15.9083C21.481 17.0489 21.4998 18.4515 21.5 19.4011L23.5 19.4007C23.4998 18.3299 23.518 17.4173 23.8274 16.7599L22.0178 15.9083ZM23.5418 14.2703C22.8106 14.6732 22.3233 15.259 22.0178 15.9083L23.8274 16.7599C23.9756 16.445 24.1882 16.1976 24.5069 16.0221L23.5418 14.2703ZM26 13.7189C25.0818 13.7189 24.2495 13.8805 23.5418 14.2703L24.5069 16.0221C24.8335 15.8422 25.306 15.7189 26 15.7189V13.7189ZM26 15.7189C26.694 15.7189 27.1665 15.8422 27.4931 16.0221L28.4582 14.2703C27.7505 13.8805 26.9182 13.7189 26 13.7189V15.7189ZM27.4931 16.0221C27.8118 16.1976 28.0244 16.445 28.1726 16.7599L29.9822 15.9083C29.6767 15.259 29.1894 14.6732 28.4582 14.2703L27.4931 16.0221ZM28.1726 16.7599C28.482 17.4173 28.5002 18.3299 28.5 19.4007L30.5 19.4011C30.5002 18.4515 30.519 17.0489 29.9822 15.9083L28.1726 16.7599ZM28.5 19.4008L28.5 19.4688L30.5 19.469L30.5 19.4011L28.5 19.4008ZM28.5 19.4689C28.5 20.0112 28.5018 20.5657 28.5489 21.0748C28.596 21.583 28.6932 22.1163 28.9226 22.6037L30.7322 21.7521C30.6442 21.5649 30.5777 21.2933 30.5404 20.8904C30.5032 20.4884 30.5 20.0257 30.5 19.4689H28.5ZM28.9226 22.6037C29.1496 23.0861 29.4996 23.5025 30.0244 23.7916L30.9894 22.0399C30.8766 21.9777 30.8015 21.8992 30.7322 21.7521L28.9226 22.6037ZM30.0244 23.7916C30.5414 24.0765 31.1938 24.2189 32 24.2189V22.2189C31.4184 22.2189 31.1257 22.1149 30.9894 22.0399L30.0244 23.7916ZM32 24.2189C32.8103 24.2189 33.4668 24.0671 33.9863 23.7641L32.9786 22.0365C32.8497 22.1117 32.5693 22.2189 32 22.2189V24.2189ZM33.9863 23.7641C34.5121 23.4574 34.8585 23.0184 35.0819 22.5157L33.2543 21.7034C33.1742 21.8836 33.0881 21.9726 32.9786 22.0365L33.9863 23.7641ZM35.0819 22.5157C35.3077 22.0078 35.4043 21.4503 35.4513 20.9142C35.4983 20.3766 35.5 19.7919 35.5 19.2189H33.5C33.5 19.8061 33.4971 20.3036 33.4589 20.7398C33.4206 21.1774 33.3513 21.4851 33.2543 21.7034L35.0819 22.5157ZM35.5 19.2188L35.5 19.1518L33.5 19.152L33.5 19.219L35.5 19.2188ZM35.5 19.1517C35.4998 18.0187 35.5166 17.0376 35.8319 16.3282L34.0043 15.5159C33.4826 16.6898 33.4998 18.1379 33.5 19.1521L35.5 19.1517ZM35.8319 16.3282C35.9837 15.9866 36.2001 15.7227 36.5176 15.5375L35.5098 13.81C34.7752 14.2385 34.299 14.8529 34.0043 15.5159L35.8319 16.3282ZM36.5176 15.5375C36.8416 15.3485 37.31 15.2189 38 15.2189V13.2189C37.0696 13.2189 36.2249 13.3928 35.5098 13.81L36.5176 15.5375ZM38 15.2189C39.1488 15.2189 39.5624 15.5554 39.7608 15.9038L41.4988 14.9141C40.8148 13.713 39.5595 13.2189 38 13.2189V15.2189ZM39.7608 15.9038C39.8766 16.1072 39.9483 16.3648 39.9919 16.6848L41.9736 16.415C41.9129 15.9689 41.7921 15.4292 41.4988 14.9141L39.7608 15.9038ZM39.9919 16.6848C40.0311 16.9728 40.0445 17.2864 40.0584 17.63L42.0568 17.5492C42.0436 17.2227 42.0278 16.8132 41.9736 16.415L39.9919 16.6848ZM40.0585 17.6305L40.0629 17.7389L42.0612 17.6572L42.0568 17.5487L40.0585 17.6305ZM40.0629 17.7397C40.0928 18.4569 40.1327 19.3612 40.6101 20.0627L42.2635 18.9375C42.1627 18.7893 42.0962 18.4958 42.0612 17.6565L40.0629 17.7397ZM40.6101 20.0627C41.1221 20.8151 42.0362 21.2189 43.5 21.2189V19.2189C42.9376 19.2189 42.6251 19.1419 42.4611 19.0742C42.3173 19.0149 42.2791 18.9603 42.2635 18.9375L40.6101 20.0627ZM43.5 21.2189C43.9043 21.2189 44.2184 21.1949 44.4677 21.1482C44.7127 21.1023 44.9577 21.0233 45.1703 20.8692L43.9965 19.2499C44.1133 19.1652 44.187 19.166 44.0994 19.1824C44.0162 19.198 43.8365 19.2189 43.5 19.2189V21.2189ZM45.5059 20.4455C45.6375 20.1309 45.7607 19.8147 45.875 19.4971L43.993 18.8202C43.8907 19.1047 43.7799 19.3892 43.6609 19.6736L45.5059 20.4455ZM45.8846 19.4692C45.9092 19.3938 45.9358 19.317 45.9649 19.2398L44.0938 18.5334C44.052 18.6442 44.0155 18.75 43.9834 18.8482L45.8846 19.4692ZM45.9757 19.2098C46.242 18.4303 46.4536 17.642 46.601 16.8494L44.6346 16.4838C44.5066 17.1727 44.3209 17.8671 44.0831 18.5634L45.9757 19.2098ZM46.601 16.8494C47.2658 13.2736 46.6143 9.64905 43.8829 6.3973L42.3514 7.68369C44.6569 10.4283 45.2025 13.4297 44.6346 16.4837L46.601 16.8494ZM43.8829 6.3973C39.1636 0.779171 31.2619 1.61792 28.5629 6.47608L30.3112 7.44736C32.2103 4.02902 38.3701 2.944 42.3514 7.68369L43.8829 6.3973ZM28.5629 6.47607C28.5276 6.53961 28.4927 6.60327 28.4592 6.66434L30.2128 7.62607C30.2468 7.56417 30.279 7.50533 30.3112 7.44738L28.5629 6.47607ZM28.4585 6.66559L28.4584 6.66582L30.2134 7.62505L30.2135 7.62482L28.4585 6.66559ZM28.4591 6.66457C28.1638 7.20308 27.9597 7.55131 27.6773 7.78818L28.9628 9.32033C29.5813 8.8014 29.951 8.10341 30.2127 7.6263L28.4591 6.66457ZM27.6773 7.78818C27.3847 8.0337 26.9353 8.2189 26 8.2189V10.2189C27.1949 10.2189 28.1763 9.98028 28.9628 9.32033L27.6773 7.78818ZM23.0372 9.32033C23.8237 9.98028 24.8051 10.2189 26 10.2189V8.2189C25.0647 8.2189 24.6153 8.0337 24.3227 7.78818L23.0372 9.32033ZM21.7873 7.6263C22.049 8.10341 22.4187 8.8014 23.0372 9.32033L24.3227 7.78818C24.0403 7.55131 23.8362 7.20308 23.5409 6.66457L21.7873 7.6263ZM21.7865 7.62482L21.7866 7.62505L23.5416 6.66582L23.5415 6.66559L21.7865 7.62482ZM21.6888 7.44738C21.721 7.50533 21.7532 7.56417 21.7872 7.62607L23.5408 6.66434C23.5073 6.60327 23.4724 6.53961 23.4371 6.47607L21.6888 7.44738ZM26 9.2189C27.0658 9.2189 27.7808 9.0067 28.3201 8.55426L27.0346 7.0221C26.9881 7.0611 26.804 7.2189 26 7.2189V9.2189ZM28.3201 8.55425C28.7909 8.15924 29.0731 7.61966 29.346 7.12609L27.5958 6.15829C27.2641 6.7581 27.1604 6.91657 27.0346 7.0221L28.3201 8.55425ZM29.3457 7.12669L29.4377 6.96058L27.6881 5.99158L27.5961 6.15769L29.3457 7.12669ZM29.4371 6.96172C31.7343 2.82665 38.7643 1.85857 43.1171 7.0405L44.6486 5.75411C39.5686 -0.293484 30.7934 0.40203 27.6888 5.99043L29.4371 6.96172ZM43.1171 7.0405C45.6355 10.0386 46.2342 13.3515 45.6178 16.6666L47.5841 17.0322C48.2974 13.1958 47.5932 9.25966 44.6486 5.75411L43.1171 7.0405ZM45.6178 16.6666C45.464 17.4936 45.2341 18.323 44.9373 19.1495L46.8196 19.8254C47.149 18.9081 47.4088 17.9749 47.5841 17.0322L45.6178 16.6666ZM44.9268 19.1802C44.8904 19.2931 44.8593 19.3989 44.8324 19.4905L46.7512 20.0547C46.779 19.9601 46.8029 19.8789 46.8301 19.7947L44.9268 19.1802ZM44.8324 19.4905C44.8146 19.5511 44.7986 19.6053 44.7819 19.6598L46.6941 20.2458C46.7147 20.1787 46.7338 20.1137 46.7512 20.0547L44.8324 19.4905ZM44.7819 19.6598C44.7532 19.7536 44.7298 19.8232 44.7037 19.8845C44.6783 19.9439 44.656 19.9817 44.6377 20.006L46.239 21.2044C46.5084 20.8443 46.6297 20.4561 46.6941 20.2458L44.7819 19.6598ZM44.519 20.2116C43.6066 22.3429 42.2818 24.4199 40.7354 26.3431L42.2939 27.5964C43.9264 25.5663 45.3578 23.3343 46.3576 20.9988L44.519 20.2116ZM40.7354 26.3431C38.3307 29.3335 35.3991 31.941 32.6717 33.7978L33.7973 35.451C36.6777 33.49 39.758 30.7501 42.2939 27.5964L40.7354 26.3431ZM32.6717 33.7978C31.3084 34.7259 30.004 35.4611 28.8496 35.9624L29.6464 37.7969C30.9413 37.2345 32.3561 36.4321 33.7973 35.451L32.6717 33.7978ZM28.8496 35.9624C27.686 36.4678 26.7127 36.7189 26 36.7189V38.7189C27.1121 38.7189 28.3796 38.3471 29.6464 37.7969L28.8496 35.9624ZM22.3536 37.7969C23.6204 38.3471 24.8879 38.7189 26 38.7189V36.7189C25.2873 36.7189 24.314 36.4678 23.1504 35.9624L22.3536 37.7969ZM18.2027 35.451C19.6439 36.4321 21.0587 37.2345 22.3536 37.7969L23.1504 35.9624C21.996 35.4611 20.6916 34.7259 19.3283 33.7978L18.2027 35.451ZM9.70605 27.5964C12.242 30.7501 15.3223 33.49 18.2027 35.451L19.3283 33.7978C16.6009 31.941 13.6693 29.3335 11.2646 26.3431L9.70605 27.5964ZM5.64236 20.9988C6.64224 23.3343 8.07365 25.5663 9.70605 27.5964L11.2646 26.3431C9.71816 24.4199 8.39338 22.3429 7.48095 20.2116L5.64236 20.9988ZM5.30586 20.2458C5.3703 20.4561 5.49159 20.8443 5.76104 21.2044L7.36227 20.006C7.34404 19.9817 7.32166 19.9439 7.29631 19.8845C7.27018 19.8232 7.24682 19.7536 7.21808 19.6598L5.30586 20.2458ZM5.24886 20.0547C5.2662 20.1137 5.28531 20.1787 5.30586 20.2458L7.21808 19.6598C7.2014 19.6054 7.18544 19.5511 7.16761 19.4905L5.24886 20.0547ZM5.24716 20.0489L5.24717 20.0489L7.1693 19.4963L7.1693 19.4963L5.24716 20.0489ZM5.25718 20.0816L5.25719 20.0817L7.15926 19.4635L7.15925 19.4635L5.25718 20.0816ZM5.16992 19.7947C5.19708 19.8788 5.22101 19.9601 5.24884 20.0547L7.1676 19.4904C7.14067 19.3989 7.10963 19.2931 7.07317 19.1802L5.16992 19.7947ZM4.4159 17.0322C4.59119 17.9749 4.851 18.9081 5.18038 19.8254L7.06272 19.1495C6.76593 18.323 6.53598 17.4936 6.3822 16.6666L4.4159 17.0322ZM7.35144 5.75411C4.40678 9.25966 3.70257 13.1958 4.4159 17.0322L6.3822 16.6666C5.7658 13.3515 6.36445 10.0386 8.88285 7.0405L7.35144 5.75411ZM24.3112 5.99043C21.2066 0.40203 12.4314 -0.293484 7.35144 5.75411L8.88285 7.0405C13.2357 1.85857 20.2657 2.82665 22.5629 6.96172L24.3112 5.99043ZM24.4039 6.15769L24.3119 5.99158L22.5623 6.96058L22.6543 7.12669L24.4039 6.15769ZM24.9654 7.0221C24.8396 6.91657 24.7359 6.7581 24.4042 6.15829L22.654 7.12609C22.9269 7.61966 23.2091 8.15924 23.6799 8.55425L24.9654 7.0221ZM26 7.2189C25.196 7.2189 25.0119 7.0611 24.9654 7.0221L23.6799 8.55426C24.2192 9.0067 24.9342 9.2189 26 9.2189V7.2189ZM26 37.7189C26.9124 37.7189 28.0329 37.4074 29.248 36.8797L28.4513 35.0452C27.339 35.5283 26.5128 35.7189 26 35.7189V37.7189ZM29.248 36.8797C30.4726 36.3478 31.8322 35.579 33.2345 34.6244L32.109 32.9711C30.7845 33.8728 29.5353 34.5744 28.4513 35.0452L29.248 36.8797ZM33.2345 34.6244C36.0384 32.7155 39.0443 30.0418 41.5146 26.9697L39.9561 25.7164C37.617 28.6252 34.7598 31.1665 32.109 32.9711L33.2345 34.6244ZM41.5146 26.9697C42.8621 25.2941 44.0516 23.4982 44.9628 21.6403L43.1671 20.7597C42.3326 22.4611 41.2292 24.1331 39.9561 25.7164L41.5146 26.9697ZM43.9876 20.203C43.8467 20.2139 43.6858 20.2189 43.5 20.2189V22.2189C43.7186 22.2189 43.9341 22.2132 44.1423 22.197L43.9876 20.203ZM43.5 20.2189C42.2089 20.2189 41.6884 19.8699 41.4368 19.5001L39.7834 20.6253C40.5581 21.7637 41.8694 22.2189 43.5 22.2189V20.2189ZM41.4368 19.5001C41.147 19.0743 41.0944 18.4729 41.0621 17.6981L39.0638 17.7814C39.0917 18.4501 39.1201 19.6507 39.7834 20.6253L41.4368 19.5001ZM41.0621 17.6986L41.0578 17.5939L39.0595 17.6761L39.0638 17.7808L41.0621 17.6986ZM41.0578 17.5942C41.0442 17.2613 41.0302 16.8987 40.9827 16.5499L39.001 16.8196C39.0333 17.0572 39.045 17.3208 39.0595 17.6758L41.0578 17.5942ZM40.9827 16.5499C40.9306 16.1671 40.8344 15.7683 40.6298 15.409L38.8918 16.3987C38.9188 16.446 38.966 16.5623 39.001 16.8196L40.9827 16.5499ZM40.6298 15.409C40.4377 15.0716 40.136 14.7477 39.6596 14.5245C39.2101 14.3139 38.6606 14.2189 38 14.2189V16.2189C38.4853 16.2189 38.7165 16.2913 38.8111 16.3356C38.8787 16.3673 38.8845 16.3858 38.8918 16.3987L40.6298 15.409ZM38 14.2189C37.1897 14.2189 36.5332 14.3707 36.0137 14.6737L37.0214 16.4013C37.1503 16.3261 37.4307 16.2189 38 16.2189V14.2189ZM36.0137 14.6737C35.4879 14.9805 35.1415 15.4194 34.9181 15.9221L36.7457 16.7344C36.8258 16.5542 36.9119 16.4652 37.0214 16.4013L36.0137 14.6737ZM34.9181 15.9221C34.6923 16.43 34.5957 16.9875 34.5487 17.5236C34.5017 18.0612 34.5 18.6459 34.5 19.2189H36.5C36.5 18.6317 36.5029 18.1342 36.5411 17.6981C36.5794 17.2605 36.6487 16.9527 36.7457 16.7344L34.9181 15.9221ZM34.5 19.219L34.5 19.286L36.5 19.2858L36.5 19.2188L34.5 19.219ZM34.5 19.2861C34.5002 20.4191 34.4834 21.4002 34.1681 22.1096L35.9957 22.9219C36.5174 21.748 36.5002 20.2999 36.5 19.2857L34.5 19.2861ZM34.1681 22.1096C34.0163 22.4512 33.7999 22.7151 33.4824 22.9003L34.4902 24.6279C35.2248 24.1993 35.701 23.5849 35.9957 22.9219L34.1681 22.1096ZM33.4824 22.9003C33.1584 23.0893 32.69 23.2189 32 23.2189V25.2189C32.9304 25.2189 33.7751 25.045 34.4902 24.6279L33.4824 22.9003ZM32 23.2189C31.306 23.2189 30.8335 23.0957 30.5069 22.9157L29.5418 24.6675C30.2495 25.0573 31.0818 25.2189 32 25.2189V23.2189ZM30.5069 22.9157C30.1882 22.7402 29.9756 22.4928 29.8274 22.1779L28.0178 23.0295C28.3233 23.6788 28.8106 24.2646 29.5418 24.6675L30.5069 22.9157ZM29.8274 22.1779C29.518 21.5205 29.4998 20.6079 29.5 19.5371L27.5 19.5367C27.4998 20.4863 27.481 21.8889 28.0178 23.0295L29.8274 22.1779ZM29.5 19.537L29.5 19.469L27.5 19.4688L27.5 19.5368L29.5 19.537ZM29.5 19.4689C29.5 18.9266 29.4982 18.3721 29.4511 17.863C29.404 17.3548 29.3068 16.8215 29.0774 16.3341L27.2678 17.1857C27.3558 17.3729 27.4223 17.6446 27.4596 18.0474C27.4968 18.4495 27.5 18.9121 27.5 19.4689H29.5ZM29.0774 16.3341C28.8504 15.8517 28.5004 15.4353 27.9756 15.1462L27.0106 16.8979C27.1234 16.9601 27.1985 17.0386 27.2678 17.1857L29.0774 16.3341ZM27.9756 15.1462C27.4586 14.8614 26.8062 14.7189 26 14.7189V16.7189C26.5816 16.7189 26.8743 16.8229 27.0106 16.8979L27.9756 15.1462ZM24.9894 16.8979C25.1257 16.8229 25.4184 16.7189 26 16.7189V14.7189C25.1938 14.7189 24.5414 14.8614 24.0244 15.1462L24.9894 16.8979ZM24.7322 17.1857C24.8015 17.0386 24.8766 16.9601 24.9894 16.8979L24.0244 15.1462C23.4996 15.4353 23.1496 15.8517 22.9226 16.3341L24.7322 17.1857ZM24.5 19.4689C24.5 18.9121 24.5032 18.4495 24.5404 18.0474C24.5777 17.6446 24.6442 17.3729 24.7322 17.1857L22.9226 16.3341C22.6932 16.8215 22.596 17.3548 22.5489 17.863C22.5018 18.3721 22.5 18.9266 22.5 19.4689H24.5ZM24.5 19.5368L24.5 19.4688L22.5 19.469L22.5 19.537L24.5 19.5368ZM23.9822 23.0295C24.519 21.8889 24.5002 20.4863 24.5 19.5367L22.5 19.5371C22.5002 20.6079 22.482 21.5205 22.1726 22.1779L23.9822 23.0295ZM22.4582 24.6675C23.1894 24.2646 23.6767 23.6788 23.9822 23.0295L22.1726 22.1779C22.0244 22.4928 21.8118 22.7402 21.4931 22.9157L22.4582 24.6675ZM20 25.2189C20.9182 25.2189 21.7505 25.0573 22.4582 24.6675L21.4931 22.9157C21.1665 23.0957 20.694 23.2189 20 23.2189V25.2189ZM17.5098 24.6279C18.2249 25.045 19.0696 25.2189 20 25.2189V23.2189C19.31 23.2189 18.8416 23.0893 18.5176 22.9003L17.5098 24.6279ZM16.0043 22.9219C16.299 23.5849 16.7752 24.1993 17.5098 24.6279L18.5176 22.9003C18.2001 22.7151 17.9837 22.4512 17.8319 22.1096L16.0043 22.9219ZM15.5 19.2857C15.4998 20.2999 15.4826 21.748 16.0043 22.9219L17.8319 22.1096C17.5166 21.4002 17.4998 20.4191 17.5 19.2861L15.5 19.2857ZM15.5 19.2188L15.5 19.2858L17.5 19.286L17.5 19.219L15.5 19.2188ZM15.2543 16.7344C15.3513 16.9527 15.4206 17.2605 15.4589 17.6981C15.4971 18.1342 15.5 18.6317 15.5 19.2189H17.5C17.5 18.6459 17.4983 18.0612 17.4513 17.5236C17.4043 16.9875 17.3077 16.43 17.0819 15.9221L15.2543 16.7344ZM14.9786 16.4013C15.0881 16.4652 15.1742 16.5542 15.2543 16.7344L17.0819 15.9221C16.8585 15.4194 16.5121 14.9805 15.9863 14.6737L14.9786 16.4013ZM14 16.2189C14.5693 16.2189 14.8497 16.3261 14.9786 16.4013L15.9863 14.6737C15.4668 14.3707 14.8103 14.2189 14 14.2189V16.2189ZM13.1082 16.3987C13.1155 16.3858 13.1213 16.3673 13.1889 16.3356C13.2835 16.2913 13.5147 16.2189 14 16.2189V14.2189C13.3394 14.2189 12.7899 14.3139 12.3404 14.5245C11.864 14.7477 11.5623 15.0716 11.3702 15.409L13.1082 16.3987ZM12.999 16.8196C13.034 16.5623 13.0812 16.446 13.1082 16.3987L11.3702 15.409C11.1656 15.7683 11.0694 16.1671 11.0173 16.5499L12.999 16.8196ZM12.9405 17.6758C12.955 17.3208 12.9667 17.0572 12.999 16.8196L11.0173 16.5499C10.9698 16.8987 10.9558 17.2613 10.9422 17.5941L12.9405 17.6758ZM12.9407 17.6707L12.9407 17.6706L10.942 17.5992L10.942 17.5993L12.9407 17.6707ZM12.9362 17.7808L12.9405 17.6761L10.9422 17.5939L10.9379 17.6986L12.9362 17.7808ZM12.2166 20.6253C12.8799 19.6507 12.9083 18.4501 12.9362 17.7813L10.9379 17.6981C10.9057 18.4729 10.853 19.0743 10.5632 19.5001L12.2166 20.6253ZM8.5 22.2189C10.1306 22.2189 11.4419 21.7637 12.2166 20.6253L10.5632 19.5001C10.3116 19.8699 9.79114 20.2189 8.5 20.2189V22.2189ZM7.8577 22.197C8.06594 22.2132 8.28142 22.2189 8.5 22.2189V20.2189C8.31424 20.2189 8.15332 20.2139 8.01238 20.203L7.8577 22.197ZM12.0439 25.7164C10.7708 24.1331 9.66736 22.4611 8.83287 20.7597L7.03721 21.6403C7.94841 23.4982 9.13791 25.2941 10.4854 26.9697L12.0439 25.7164ZM19.891 32.9711C17.2402 31.1665 14.383 28.6252 12.0439 25.7164L10.4854 26.9697C12.9557 30.0418 15.9616 32.7155 18.7655 34.6244L19.891 32.9711ZM23.5487 35.0452C22.4647 34.5744 21.2155 33.8728 19.891 32.9711L18.7655 34.6244C20.1678 35.579 21.5274 36.3478 22.752 36.8797L23.5487 35.0452ZM26 35.7189C25.4872 35.7189 24.661 35.5283 23.5487 35.0452L22.752 36.8797C23.9671 37.4074 25.0876 37.7189 26 37.7189V35.7189Z" fill="#ffa5ba"/>
<path fill-rule="evenodd" clip-rule="evenodd" d="M22 36.2002V52H30V36.2002C29.0878 36.6859 27.6356 37 26 37C24.3644 37 22.9122 36.6859 22 36.2002ZM24 49V39H28V49H24Z" fill="#ffa5ba"/>
</svg>
