<svg aria-hidden="true" style="position: absolute; width: 0; height: 0; overflow: hidden;" version="1.1" xmlns="http://www.w3.org/2000/svg" xmlns:xlink="http://www.w3.org/1999/xlink">
<defs>
<symbol id="heart" viewBox="0 0 32 32">
<path d="M13.885 3.822c-1.415-2.547-5.741-3.139-8.418 0.048-1.55 1.845-1.918 3.884-1.539 5.924 0.085 0.456 0.207 0.912 0.362 1.366 0.022 0.058 0.041 0.114 0.059 0.167 0.067 0.185 0.139 0.37 0.216 0.554 0.059 0.043 0.211 0.098 0.667 0.098 0.793 0 1.114-0.214 1.27-0.442 0.178-0.261 0.211-0.63 0.231-1.109l0.003-0.067c0.008-0.206 0.017-0.429 0.046-0.64 0.032-0.236 0.091-0.481 0.217-0.702 0.271-0.477 0.785-0.732 1.618-0.732 0.499 0 0.903 0.093 1.222 0.28 0.324 0.189 0.537 0.459 0.674 0.768 0.258 0.579 0.257 1.327 0.257 1.988v0.041c0 0.714 0.006 1.332 0.204 1.779 0.093 0.21 0.226 0.373 0.422 0.487 0.199 0.116 0.488 0.196 0.912 0.196 0.427 0 0.718-0.076 0.919-0.187 0.196-0.108 0.327-0.26 0.418-0.454 0.195-0.415 0.201-0.991 0.201-1.667v-0.042c-0-0.622-0-1.334 0.26-1.887 0.14-0.297 0.355-0.553 0.678-0.731 0.318-0.175 0.72-0.263 1.216-0.263s0.898 0.088 1.216 0.263c0.323 0.178 0.538 0.434 0.678 0.731 0.26 0.553 0.26 1.266 0.26 1.887v0.042c0 0.676 0.006 1.252 0.201 1.667 0.091 0.194 0.222 0.346 0.418 0.454 0.201 0.111 0.492 0.187 0.919 0.187 0.424 0 0.713-0.080 0.912-0.196 0.195-0.114 0.329-0.277 0.422-0.487 0.199-0.447 0.204-1.065 0.204-1.779v-0.041c-0-0.661-0-1.408 0.257-1.988 0.137-0.309 0.35-0.579 0.674-0.768 0.32-0.187 0.724-0.28 1.222-0.28 0.833 0 1.347 0.256 1.618 0.732 0.126 0.221 0.185 0.466 0.217 0.702 0.029 0.211 0.038 0.434 0.046 0.64l0.003 0.067c0.020 0.479 0.053 0.848 0.231 1.109 0.155 0.228 0.476 0.442 1.27 0.442 0.456 0 0.608-0.055 0.667-0.098 0.077-0.184 0.149-0.369 0.216-0.554 0.017-0.053 0.037-0.11 0.059-0.167 0.155-0.454 0.277-0.91 0.362-1.366 0.379-2.040 0.011-4.079-1.539-5.924-2.677-3.187-7.004-2.595-8.418-0.048-0.021 0.037-0.041 0.075-0.062 0.113l-0 0c-0.171 0.313-0.348 0.634-0.625 0.867-0.332 0.279-0.772 0.409-1.428 0.409s-1.096-0.13-1.428-0.409c-0.277-0.233-0.454-0.554-0.625-0.867l-0-0c-0.021-0.038-0.041-0.076-0.062-0.113zM16 4.596c0.575 0 0.852-0.114 1.032-0.265 0.184-0.154 0.302-0.369 0.488-0.705l0.057-0.102c1.662-2.992 6.525-3.504 9.428-0.048 1.681 2.001 2.082 4.232 1.673 6.432-0.101 0.545-0.252 1.087-0.445 1.623-0.020 0.061-0.037 0.118-0.053 0.175-0.011 0.037-0.022 0.073-0.033 0.111-0.038 0.125-0.088 0.273-0.184 0.401-0.588 1.374-1.436 2.7-2.415 3.917-1.52 1.891-3.37 3.536-5.096 4.711-0.863 0.587-1.7 1.061-2.453 1.388-0.748 0.325-1.437 0.516-1.999 0.516s-1.251-0.192-1.999-0.516c-0.754-0.327-1.59-0.8-2.453-1.388-1.725-1.175-3.575-2.82-5.095-4.711-0.978-1.216-1.826-2.542-2.415-3.917-0.096-0.129-0.146-0.277-0.184-0.401-0.011-0.037-0.022-0.074-0.033-0.111v0c-0.017-0.057-0.034-0.115-0.053-0.175-0.193-0.537-0.343-1.079-0.445-1.623-0.409-2.2-0.008-4.431 1.673-6.432 2.902-3.455 7.765-2.943 9.428 0.048l0.057 0.102c0.186 0.336 0.305 0.551 0.488 0.705 0.18 0.151 0.457 0.265 1.032 0.265zM16 22.134c0.439 0 1.037-0.155 1.754-0.466 0.71-0.308 1.513-0.761 2.352-1.332 1.678-1.143 3.482-2.747 4.962-4.588 0.806-1.003 1.512-2.070 2.049-3.165-0.107 0.008-0.223 0.012-0.348 0.012-0.899 0-1.463-0.247-1.778-0.711-0.293-0.431-0.318-0.985-0.337-1.43l-0.003-0.064c-0.009-0.212-0.017-0.404-0.041-0.585-0.027-0.197-0.071-0.355-0.142-0.481-0.123-0.216-0.378-0.421-1.084-0.421-0.424 0-0.713 0.080-0.912 0.196-0.195 0.114-0.329 0.277-0.422 0.487-0.199 0.447-0.204 1.065-0.204 1.779v0.041c0 0.661 0 1.408-0.257 1.988-0.137 0.309-0.35 0.579-0.674 0.768-0.32 0.187-0.724 0.28-1.222 0.28-0.496 0-0.898-0.088-1.216-0.263-0.323-0.178-0.538-0.434-0.678-0.731-0.26-0.553-0.26-1.266-0.26-1.887v-0.042c0-0.676-0.006-1.252-0.201-1.667-0.091-0.194-0.222-0.346-0.418-0.454-0.201-0.111-0.492-0.187-0.919-0.187s-0.718 0.076-0.919 0.187c-0.196 0.108-0.327 0.26-0.418 0.454-0.195 0.415-0.201 0.991-0.201 1.667v0.042c0 0.622 0 1.334-0.26 1.887-0.14 0.297-0.355 0.553-0.678 0.731-0.318 0.175-0.72 0.263-1.216 0.263-0.499 0-0.903-0.093-1.222-0.28-0.324-0.189-0.537-0.459-0.674-0.768-0.258-0.579-0.257-1.327-0.257-1.988v-0.041c0-0.714-0.006-1.332-0.204-1.779-0.093-0.21-0.226-0.373-0.422-0.487-0.199-0.116-0.488-0.196-0.912-0.196-0.705 0-0.961 0.206-1.084 0.421-0.071 0.125-0.115 0.284-0.142 0.481-0.025 0.18-0.032 0.373-0.041 0.585v0l-0.003 0.064c-0.019 0.444-0.043 0.999-0.337 1.43-0.316 0.464-0.879 0.712-1.778 0.712-0.124 0-0.24-0.003-0.348-0.012 0.537 1.095 1.243 2.162 2.049 3.165 1.48 1.84 3.284 3.445 4.962 4.587 0.839 0.571 1.642 1.024 2.352 1.332 0.716 0.311 1.315 0.466 1.754 0.466z"></path>
<path d="M5.466 3.871v0zM13.885 3.822v0zM3.928 9.794v0zM4.29 11.16l-0.582 0.199 0.003 0.009 0.003 0.009 0.576-0.217zM4.348 11.328l-0.585 0.191 0.003 0.009 0.003 0.009 0.579-0.208zM4.564 11.882l-0.568 0.238 0.067 0.159 0.14 0.101 0.361-0.498zM6.5 11.538v0zM6.731 10.429v0zM6.734 10.362v0zM6.78 9.722v0zM6.997 9.020v0zM9.838 8.568v0zM10.512 9.336v0zM10.769 11.324v0zM10.769 11.365v0zM10.973 13.144v0zM11.395 13.63v0zM13.227 13.64v0zM13.645 13.186v0zM13.846 11.519v0zM13.846 11.477v0zM14.106 9.59v0zM14.784 8.859v0zM17.216 8.859v0zM17.894 9.59v0zM18.154 11.477v0zM18.154 11.519v0zM18.355 13.186v0zM18.773 13.64v0zM20.605 13.63v0zM21.027 13.144v0zM21.231 11.365v0zM21.231 11.324v0zM21.488 9.336v0zM22.162 8.568v0zM25.003 9.020v0zM25.22 9.722v0zM25.266 10.362v0zM25.269 10.429v0zM25.5 11.538v0zM27.436 11.882l0.361 0.498 0.14-0.101 0.067-0.159-0.568-0.238zM27.652 11.328l0.579 0.208 0.003-0.009 0.003-0.009-0.585-0.191zM27.71 11.16l0.576 0.217 0.003-0.009 0.003-0.009-0.582-0.199zM28.073 9.794v0zM26.534 3.871v0zM18.115 3.822v0zM18.053 3.935l-0.54-0.296-0 0.001 0.54 0.295zM18.053 3.935l0.54 0.296 0-0.001-0.54-0.295zM17.428 4.802v0zM14.572 4.802v0zM13.947 3.935l-0.54 0.295 0 0.001 0.54-0.296zM13.947 3.935l0.54-0.295-0-0.001-0.54 0.296zM17.032 4.331v0zM17.521 3.625v0zM17.577 3.523l-0.538-0.299-0 0.001 0.538 0.298zM27.005 3.475v0zM28.678 9.907v0zM28.233 11.53l-0.579-0.208-0.003 0.009-0.003 0.009 0.586 0.189zM28.18 11.706v0zM28.146 11.817v0zM27.962 12.218l-0.493-0.369-0.044 0.059-0.029 0.068 0.566 0.242zM25.547 16.135v0zM20.452 20.845v0zM17.999 22.233v0zM14.001 22.233v0zM11.548 20.845v0zM6.453 16.135v0zM4.038 12.218l0.566-0.242-0.029-0.068-0.044-0.059-0.493 0.369zM3.854 11.817v0zM3.82 11.706l-0.591 0.17 0.001 0.004 0.59-0.174zM3.82 11.706l0.591-0.17-0.003-0.010-0.003-0.010-0.585 0.19zM3.82 11.706l-0.59 0.174 0.002 0.008 0.003 0.008 0.585-0.19zM3.767 11.53l0.586-0.189-0.003-0.009-0.003-0.009-0.579 0.208zM3.322 9.907v0zM4.995 3.475v0zM14.423 3.523l0.538-0.298-0-0.001-0.538 0.299zM14.479 3.625v0zM14.968 4.331v0zM17.754 21.669v0zM20.106 20.337v0zM25.068 15.749v0zM27.117 12.584l0.552 0.271 0.475-0.968-1.075 0.083 0.048 0.614zM24.991 11.884v0zM24.654 10.455v0zM24.651 10.39v0zM24.61 9.805v0zM24.468 9.325v0zM22.472 9.099v0zM22.050 9.586v0zM21.846 11.365v0zM21.846 11.406v0zM21.589 13.394v0zM20.915 14.162v0zM18.477 14.179v0zM17.799 13.448v0zM17.538 11.561v0zM17.538 11.519v0zM17.337 9.852v0zM16.919 9.398v0zM15.081 9.398v0zM14.663 9.852v0zM14.462 11.519v0zM14.462 11.561v0zM14.201 13.448v0zM13.523 14.179v0zM11.085 14.162v0zM10.411 13.394v0zM10.154 11.406v0zM10.154 11.365v0zM9.95 9.586v0zM9.528 9.099v0zM7.532 9.325v0zM7.39 9.805v0zM7.349 10.39l-0.615-0.025-0 0.003 0.615 0.022zM7.349 10.39l0.615 0.025 0-0.003-0.615-0.022zM7.346 10.455v0zM7.009 11.884v0zM4.883 12.584l0.048-0.614-1.075-0.083 0.475 0.968 0.553-0.271zM6.932 15.749v0zM11.894 20.337v0zM14.246 21.669v0zM5.938 4.266c2.45-2.917 6.241-2.249 7.409-0.145l1.076-0.598c-1.661-2.99-6.524-3.506-9.428-0.048l0.942 0.792zM4.533 9.682c-0.349-1.879-0.014-3.726 1.405-5.415l-0.942-0.792c-1.681 2.001-2.082 4.231-1.673 6.432l1.21-0.225zM4.872 10.962c-0.146-0.428-0.261-0.856-0.339-1.28l-1.21 0.225c0.091 0.488 0.221 0.973 0.385 1.453l1.165-0.398zM4.933 11.137c-0.020-0.060-0.042-0.126-0.068-0.194l-1.151 0.435c0.018 0.048 0.034 0.095 0.049 0.141l1.17-0.382zM5.132 11.645c-0.073-0.175-0.141-0.35-0.204-0.525l-1.158 0.417c0.070 0.195 0.146 0.39 0.227 0.584l1.135-0.475zM5.231 11.365c-0.207 0-0.318-0.013-0.369-0.022-0.054-0.010-0.009-0.011 0.063 0.042l-0.722 0.996c0.131 0.095 0.282 0.143 0.432 0.172 0.153 0.029 0.347 0.043 0.596 0.043v-1.231zM5.992 11.192c-0.010 0.014-0.033 0.048-0.122 0.084-0.101 0.042-0.293 0.089-0.639 0.089v1.231c0.901 0 1.463-0.248 1.778-0.712l-1.017-0.692zM6.116 10.403c-0.022 0.517-0.062 0.697-0.125 0.788l1.017 0.692c0.294-0.432 0.318-0.988 0.337-1.43l-1.23-0.051zM6.119 10.337l-0.003 0.067 1.23 0.050 0.003-0.067-1.23-0.050zM6.17 9.639c-0.033 0.245-0.043 0.497-0.051 0.698l1.23 0.050c0.009-0.211 0.017-0.404 0.041-0.582l-1.22-0.166zM6.462 8.716c-0.181 0.317-0.255 0.649-0.292 0.924l1.22 0.166c0.027-0.197 0.071-0.355 0.142-0.481l-1.070-0.609zM8.615 7.673c-0.96 0-1.732 0.304-2.153 1.043l1.070 0.609c0.122-0.214 0.377-0.421 1.084-0.421v-1.231zM10.148 8.036c-0.44-0.257-0.96-0.364-1.532-0.364v1.231c0.425 0 0.713 0.080 0.912 0.196l0.62-1.063zM11.074 9.086c-0.181-0.408-0.474-0.786-0.926-1.050l-0.62 1.063c0.195 0.114 0.329 0.276 0.422 0.487l1.125-0.5zM11.385 11.324c0-0.624 0.011-1.515-0.31-2.238l-1.125 0.5c0.194 0.437 0.204 1.040 0.204 1.738l1.231 0zM11.385 11.365v-0.041l-1.231-0v0.041l1.231 0zM11.536 12.894c-0.060-0.134-0.102-0.324-0.126-0.593s-0.025-0.575-0.025-0.936h-1.231c0 0.353 0.001 0.712 0.030 1.043s0.088 0.673 0.227 0.986l1.125-0.5zM11.705 13.099c-0.067-0.039-0.12-0.094-0.17-0.205l-1.125 0.5c0.137 0.309 0.351 0.579 0.674 0.768l0.62-1.063zM12.308 13.211c-0.35 0-0.523-0.066-0.602-0.112l-0.62 1.063c0.32 0.186 0.724 0.28 1.222 0.28v-1.231zM12.93 13.101c-0.084 0.046-0.264 0.11-0.622 0.11v1.231c0.496 0 0.898-0.088 1.216-0.263l-0.594-1.078zM13.088 12.924c-0.043 0.091-0.089 0.139-0.158 0.177l0.594 1.078c0.323-0.178 0.538-0.434 0.678-0.731l-1.114-0.524zM13.231 11.519c0 0.343-0.002 0.627-0.025 0.875s-0.064 0.415-0.118 0.53l1.114 0.524c0.141-0.3 0.201-0.628 0.23-0.941s0.030-0.655 0.030-0.988h-1.231zM13.231 11.477v0.042l1.231-0v-0.042l-1.231 0zM13.549 9.328c-0.33 0.702-0.319 1.565-0.319 2.149l1.231-0c-0-0.659 0.011-1.221 0.201-1.625l-1.114-0.524zM14.487 8.32c-0.45 0.248-0.75 0.608-0.938 1.008l1.114 0.524c0.091-0.194 0.222-0.346 0.418-0.454l-0.594-1.078zM16 7.98c-0.565 0-1.077 0.099-1.513 0.339l0.594 1.078c0.201-0.111 0.492-0.187 0.919-0.187v-1.231zM16 9.211c0.427 0 0.718 0.076 0.919 0.187l0.594-1.078c-0.436-0.24-0.948-0.339-1.513-0.339v1.231zM16.919 9.398c0.196 0.108 0.327 0.26 0.418 0.454l1.114-0.524c-0.188-0.4-0.488-0.76-0.938-1.008l-0.594 1.078zM17.337 9.852c0.19 0.405 0.202 0.966 0.201 1.625l1.231 0c0-0.584 0.012-1.447-0.319-2.149l-1.114 0.524zM17.538 11.477v0.042l1.231 0v-0.042l-1.231-0zM17.538 11.519c0 0.334 0.001 0.675 0.030 0.988s0.089 0.641 0.23 0.941l1.114-0.524c-0.054-0.115-0.095-0.282-0.118-0.53s-0.025-0.532-0.025-0.875h-1.231zM17.799 13.448c0.14 0.297 0.355 0.553 0.678 0.731l0.594-1.078c-0.069-0.038-0.116-0.087-0.158-0.177l-1.114 0.524zM18.477 14.179c0.318 0.175 0.72 0.263 1.216 0.263v-1.231c-0.358 0-0.538-0.064-0.622-0.11l-0.594 1.078zM19.692 14.442c0.499 0 0.903-0.093 1.222-0.28l-0.62-1.063c-0.079 0.046-0.252 0.112-0.602 0.112v1.231zM20.915 14.162c0.324-0.189 0.537-0.459 0.674-0.768l-1.125-0.5c-0.049 0.111-0.102 0.166-0.17 0.205l0.62 1.063zM21.589 13.394c0.139-0.313 0.198-0.656 0.227-0.986s0.030-0.691 0.030-1.043h-1.231c0 0.361-0.002 0.668-0.025 0.936s-0.066 0.459-0.126 0.593l1.125 0.5zM21.846 11.365v-0.041l-1.231 0v0.041l1.231-0zM21.846 11.324c-0-0.697 0.010-1.301 0.204-1.738l-1.125-0.5c-0.321 0.722-0.31 1.614-0.31 2.238l1.231-0zM22.050 9.586c0.093-0.21 0.227-0.373 0.422-0.487l-0.62-1.063c-0.452 0.264-0.745 0.642-0.926 1.050l1.125 0.5zM22.472 9.099c0.199-0.116 0.488-0.196 0.912-0.196v-1.231c-0.573 0-1.092 0.107-1.532 0.364l0.62 1.063zM23.385 8.903c0.707 0 0.961 0.207 1.084 0.421l1.070-0.609c-0.421-0.739-1.193-1.043-2.153-1.043v1.231zM24.468 9.325c0.071 0.125 0.115 0.284 0.142 0.481l1.22-0.166c-0.037-0.275-0.112-0.607-0.292-0.924l-1.070 0.609zM24.61 9.805c0.024 0.177 0.032 0.37 0.041 0.582l1.23-0.050c-0.008-0.201-0.018-0.453-0.051-0.698l-1.22 0.166zM24.651 10.387l0.003 0.067 1.23-0.050-0.003-0.067-1.23 0.050zM24.654 10.455c0.018 0.441 0.043 0.998 0.337 1.43l1.017-0.692c-0.062-0.091-0.103-0.272-0.125-0.788l-1.23 0.051zM24.991 11.884c0.315 0.463 0.878 0.712 1.778 0.712v-1.231c-0.346 0-0.538-0.047-0.639-0.089-0.088-0.037-0.112-0.070-0.122-0.084l-1.017 0.692zM26.769 12.596c0.249 0 0.442-0.015 0.596-0.043 0.151-0.028 0.302-0.077 0.432-0.172l-0.722-0.996c0.072-0.052 0.117-0.052 0.063-0.042-0.051 0.010-0.162 0.022-0.369 0.022v1.231zM28.004 12.12c0.081-0.194 0.157-0.388 0.227-0.584l-1.158-0.417c-0.063 0.175-0.131 0.35-0.204 0.525l1.135 0.475zM28.237 11.519c0.015-0.046 0.032-0.094 0.049-0.141l-1.151-0.435c-0.026 0.068-0.048 0.133-0.068 0.194l1.17 0.382zM28.293 11.359c0.164-0.48 0.294-0.965 0.385-1.453l-1.21-0.225c-0.079 0.424-0.193 0.851-0.339 1.28l1.165 0.398zM28.677 9.907c0.409-2.201 0.008-4.431-1.673-6.432l-0.942 0.792c1.419 1.689 1.755 3.536 1.405 5.415l1.21 0.225zM27.005 3.475c-2.904-3.457-7.767-2.941-9.428 0.048l1.076 0.598c1.169-2.104 4.959-2.771 7.409 0.145l0.942-0.792zM17.577 3.523c-0.022 0.039-0.043 0.078-0.064 0.116l1.079 0.592c0.021-0.038 0.041-0.074 0.061-0.11l-1.076-0.598zM17.513 3.64v0zM17.513 3.639c-0.182 0.331-0.307 0.546-0.481 0.691l0.791 0.943c0.381-0.319 0.608-0.749 0.769-1.042l-1.079-0.592zM17.032 4.331c-0.18 0.151-0.457 0.265-1.032 0.265v1.231c0.735 0 1.339-0.147 1.823-0.553l-0.791-0.943zM14.177 5.274c0.484 0.406 1.088 0.553 1.823 0.553v-1.231c-0.576 0-0.852-0.114-1.032-0.265l-0.791 0.943zM13.408 4.231c0.161 0.294 0.389 0.723 0.769 1.042l0.791-0.943c-0.174-0.146-0.299-0.36-0.481-0.691l-1.079 0.592zM13.407 4.23v0zM13.347 4.121c0.020 0.036 0.040 0.072 0.061 0.11l1.079-0.592c-0.021-0.038-0.042-0.077-0.064-0.116l-1.076 0.598zM16 5.211c0.656 0 1.096-0.131 1.428-0.409l-0.791-0.943c-0.029 0.024-0.142 0.121-0.637 0.121v1.231zM17.428 4.802c0.29-0.243 0.463-0.575 0.631-0.879l-1.077-0.596c-0.204 0.369-0.268 0.467-0.345 0.532l0.791 0.943zM18.059 3.924l0.057-0.102-1.077-0.596-0.057 0.102 1.077 0.596zM18.115 3.822c1.414-2.545 5.74-3.14 8.418 0.048l0.942-0.792c-3.126-3.722-8.526-3.294-10.437 0.145l1.076 0.598zM26.534 3.871c1.55 1.845 1.918 3.884 1.539 5.924l1.21 0.225c0.439-2.361 0.006-4.783-1.806-6.94l-0.942 0.792zM28.073 9.794c-0.095 0.509-0.236 1.019-0.419 1.528l1.158 0.416c0.203-0.565 0.363-1.139 0.47-1.719l-1.21-0.225zM27.647 11.341c-0.022 0.069-0.042 0.135-0.058 0.191l1.181 0.347c0.017-0.058 0.032-0.108 0.049-0.16l-1.171-0.378zM27.589 11.532c-0.011 0.037-0.021 0.071-0.031 0.104l1.177 0.361c0.013-0.041 0.024-0.081 0.035-0.118l-1.181-0.347zM27.558 11.636c-0.018 0.058-0.032 0.101-0.048 0.138-0.016 0.037-0.029 0.060-0.041 0.075l0.985 0.737c0.166-0.222 0.24-0.46 0.28-0.59l-1.177-0.361zM27.396 11.976c-0.561 1.312-1.377 2.59-2.328 3.773l0.959 0.771c1.005-1.249 1.885-2.623 2.501-4.060l-1.131-0.484zM25.068 15.749c-1.48 1.84-3.284 3.445-4.962 4.588l0.693 1.017c1.773-1.207 3.668-2.893 5.229-4.834l-0.959-0.771zM20.106 20.337c-0.839 0.571-1.642 1.024-2.352 1.332l0.49 1.129c0.797-0.346 1.668-0.84 2.554-1.444l-0.693-1.017zM17.754 21.669c-0.716 0.311-1.315 0.466-1.754 0.466v1.231c0.684 0 1.464-0.229 2.244-0.567l-0.49-1.129zM13.756 22.798c0.78 0.339 1.56 0.567 2.244 0.567v-1.231c-0.439 0-1.038-0.155-1.754-0.466l-0.49 1.129zM11.202 21.354c0.887 0.604 1.758 1.098 2.554 1.444l0.49-1.129c-0.71-0.308-1.513-0.761-2.352-1.332l-0.693 1.017zM5.973 16.52c1.561 1.941 3.456 3.627 5.229 4.834l0.693-1.017c-1.678-1.143-3.482-2.747-4.962-4.588l-0.959 0.771zM3.472 12.46c0.615 1.437 1.496 2.811 2.501 4.060l0.959-0.771c-0.952-1.184-1.767-2.462-2.328-3.773l-1.131 0.484zM3.265 11.997c0.040 0.129 0.114 0.368 0.28 0.59l0.985-0.737c-0.011-0.015-0.025-0.038-0.041-0.075-0.016-0.038-0.030-0.081-0.048-0.138l-1.177 0.361zM3.23 11.879c0.011 0.036 0.022 0.076 0.035 0.118l1.177-0.361c-0.010-0.033-0.020-0.067-0.031-0.104l-1.181 0.347zM3.229 11.876v0 0zM3.235 11.896v0zM3.182 11.719c0.017 0.052 0.031 0.102 0.049 0.16l1.181-0.347c-0.017-0.056-0.036-0.121-0.058-0.191l-1.171 0.378zM2.717 10.019c0.108 0.58 0.268 1.154 0.47 1.719l1.158-0.416c-0.183-0.509-0.324-1.019-0.419-1.528l-1.21 0.225zM4.524 3.079c-1.812 2.157-2.245 4.58-1.806 6.94l1.21-0.225c-0.379-2.040-0.011-4.079 1.539-5.924l-0.942-0.792zM14.961 3.224c-1.911-3.439-7.311-3.867-10.437-0.145l0.942 0.792c2.679-3.189 7.005-2.593 8.418-0.048l1.076-0.598zM15.018 3.327l-0.057-0.102-1.077 0.596 0.057 0.102 1.077-0.596zM15.363 3.859c-0.077-0.065-0.141-0.162-0.345-0.532l-1.077 0.596c0.168 0.304 0.342 0.636 0.631 0.879l0.791-0.943zM16 3.98c-0.495 0-0.608-0.097-0.637-0.121l-0.791 0.943c0.332 0.278 0.772 0.409 1.428 0.409v-1.231zM16 22.75c0.561 0 1.251-0.192 1.999-0.516l-0.49-1.129c-0.684 0.297-1.193 0.415-1.509 0.415v1.231zM17.999 22.233c0.754-0.327 1.59-0.8 2.453-1.388l-0.693-1.017c-0.815 0.555-1.584 0.987-2.251 1.276l0.49 1.129zM20.452 20.845c1.725-1.175 3.575-2.82 5.095-4.711l-0.959-0.771c-1.439 1.79-3.198 3.354-4.829 4.464l0.693 1.017zM25.547 16.135c0.829-1.031 1.561-2.136 2.122-3.28l-1.105-0.542c-0.514 1.047-1.193 2.076-1.976 3.050l0.959 0.771zM27.069 11.971c-0.087 0.007-0.186 0.010-0.3 0.010v1.231c0.135 0 0.267-0.004 0.395-0.013l-0.095-1.227zM26.769 11.98c-0.795 0-1.115-0.215-1.27-0.442l-1.017 0.692c0.477 0.701 1.284 0.981 2.287 0.981v-1.231zM25.5 11.538c-0.178-0.262-0.211-0.632-0.231-1.109l-1.23 0.051c0.017 0.412 0.035 1.15 0.443 1.75l1.017-0.692zM25.269 10.429l-0.003-0.064-1.23 0.051 0.003 0.064 1.23-0.051zM25.266 10.365c-0.008-0.205-0.017-0.428-0.046-0.643l-1.22 0.166c0.020 0.146 0.027 0.308 0.036 0.527l1.23-0.050zM25.22 9.722c-0.032-0.236-0.091-0.481-0.217-0.702l-1.070 0.609c0.017 0.029 0.046 0.101 0.067 0.259l1.22-0.166zM25.003 9.020c-0.118-0.208-0.304-0.407-0.597-0.544-0.277-0.13-0.615-0.188-1.021-0.188v1.231c0.299 0 0.441 0.045 0.499 0.072 0.042 0.020 0.045 0.031 0.050 0.039l1.070-0.609zM23.385 8.288c-0.499 0-0.903 0.093-1.222 0.28l0.62 1.063c0.079-0.046 0.252-0.112 0.602-0.112v-1.231zM22.162 8.568c-0.324 0.189-0.537 0.459-0.674 0.768l1.125 0.5c0.049-0.111 0.102-0.166 0.17-0.205l-0.62-1.063zM21.488 9.336c-0.139 0.313-0.198 0.656-0.227 0.986s-0.030 0.691-0.030 1.043h1.231c0-0.361 0.002-0.668 0.025-0.936s0.066-0.459 0.126-0.593l-1.125-0.5zM21.231 11.365v0.041l1.231-0v-0.041l-1.231 0zM21.231 11.406c0 0.697-0.010 1.301-0.204 1.738l1.125 0.5c0.321-0.722 0.31-1.614 0.31-2.238l-1.231 0zM21.027 13.144c-0.093 0.21-0.227 0.373-0.422 0.487l0.62 1.063c0.452-0.264 0.745-0.642 0.926-1.050l-1.125-0.5zM20.605 13.63c-0.199 0.116-0.488 0.196-0.912 0.196v1.231c0.573 0 1.092-0.107 1.532-0.364l-0.62-1.063zM19.692 13.826c-0.427 0-0.718-0.076-0.919-0.187l-0.594 1.078c0.436 0.24 0.948 0.339 1.513 0.339v-1.231zM18.773 13.64c-0.196-0.108-0.327-0.26-0.418-0.454l-1.114 0.524c0.188 0.4 0.488 0.76 0.938 1.008l0.594-1.078zM18.355 13.186c-0.19-0.405-0.202-0.966-0.201-1.625l-1.231-0c-0 0.584-0.012 1.447 0.319 2.149l1.114-0.524zM18.154 11.561v-0.042l-1.231-0v0.042l1.231 0zM18.154 11.519c0-0.334-0.001-0.675-0.030-0.988s-0.089-0.641-0.23-0.941l-1.114 0.524c0.054 0.115 0.095 0.282 0.118 0.53s0.025 0.532 0.025 0.875h1.231zM17.894 9.59c-0.14-0.297-0.355-0.553-0.678-0.731l-0.594 1.078c0.069 0.038 0.116 0.087 0.158 0.177l1.114-0.524zM17.216 8.859c-0.318-0.175-0.72-0.263-1.216-0.263v1.231c0.358 0 0.538 0.064 0.622 0.11l0.594-1.078zM15.378 9.937c0.084-0.046 0.264-0.11 0.622-0.11v-1.231c-0.496 0-0.898 0.088-1.216 0.263l0.594 1.078zM15.22 10.114c0.043-0.091 0.089-0.139 0.158-0.177l-0.594-1.078c-0.323 0.178-0.538 0.434-0.678 0.731l1.114 0.524zM15.077 11.519c0-0.343 0.002-0.627 0.025-0.875s0.064-0.415 0.118-0.53l-1.114-0.524c-0.141 0.3-0.201 0.628-0.23 0.941s-0.030 0.655-0.030 0.988h1.231zM15.077 11.561v-0.042l-1.231 0v0.042l1.231-0zM14.758 13.71c0.33-0.702 0.319-1.565 0.319-2.149l-1.231 0c0 0.659-0.011 1.221-0.201 1.625l1.114 0.524zM13.82 14.718c0.45-0.248 0.75-0.608 0.938-1.008l-1.114-0.524c-0.091 0.194-0.222 0.346-0.418 0.454l0.594 1.078zM12.308 15.057c0.565 0 1.077-0.099 1.513-0.339l-0.594-1.078c-0.201 0.111-0.492 0.187-0.919 0.187v1.231zM10.775 14.694c0.44 0.257 0.96 0.364 1.532 0.364v-1.231c-0.425 0-0.713-0.080-0.912-0.196l-0.62 1.063zM9.849 13.644c0.181 0.408 0.474 0.786 0.926 1.050l0.62-1.063c-0.195-0.114-0.329-0.276-0.422-0.487l-1.125 0.5zM9.538 11.406c-0 0.624-0.011 1.515 0.31 2.238l1.125-0.5c-0.194-0.437-0.204-1.040-0.204-1.738l-1.231-0zM9.538 11.365v0.041l1.231 0v-0.041l-1.231-0zM9.387 9.836c0.060 0.134 0.102 0.324 0.126 0.593s0.025 0.575 0.025 0.936h1.231c0-0.353-0.001-0.712-0.030-1.043s-0.088-0.673-0.227-0.986l-1.125 0.5zM9.218 9.631c0.067 0.039 0.12 0.094 0.17 0.205l1.125-0.5c-0.137-0.309-0.351-0.579-0.674-0.768l-0.62 1.063zM8.615 9.519c0.35 0 0.523 0.066 0.602 0.112l0.62-1.063c-0.32-0.186-0.724-0.28-1.222-0.28v1.231zM8.067 9.629c0.005-0.008 0.008-0.019 0.050-0.039 0.058-0.027 0.2-0.072 0.499-0.072v-1.231c-0.407 0-0.745 0.058-1.021 0.188-0.293 0.137-0.479 0.337-0.597 0.544l1.070 0.609zM7.999 9.888c0.022-0.158 0.051-0.23 0.067-0.259l-1.070-0.609c-0.126 0.221-0.185 0.467-0.217 0.702l1.22 0.166zM7.963 10.415c0.009-0.218 0.016-0.381 0.036-0.527l-1.22-0.166c-0.029 0.215-0.038 0.438-0.046 0.643l1.23 0.050zM7.963 10.412v0zM7.961 10.48l0.003-0.064-1.23-0.051-0.003 0.064 1.23 0.051zM7.518 12.23c0.408-0.6 0.426-1.339 0.443-1.75l-1.23-0.051c-0.020 0.477-0.052 0.847-0.231 1.109l1.017 0.692zM5.231 13.211c1.003 0 1.81-0.28 2.287-0.981l-1.017-0.692c-0.155 0.228-0.475 0.442-1.27 0.442v1.231zM4.835 13.198c0.128 0.010 0.261 0.013 0.395 0.013v-1.231c-0.114 0-0.213-0.003-0.3-0.010l-0.095 1.227zM7.412 15.363c-0.783-0.974-1.462-2.003-1.976-3.050l-1.105 0.542c0.561 1.143 1.293 2.248 2.122 3.28l0.959-0.771zM12.241 19.828c-1.631-1.111-3.39-2.674-4.829-4.464l-0.959 0.771c1.52 1.891 3.37 3.536 5.095 4.711l0.693-1.017zM14.492 21.104c-0.667-0.29-1.436-0.721-2.251-1.276l-0.693 1.017c0.863 0.587 1.7 1.061 2.453 1.388l0.49-1.129zM16 21.519c-0.316 0-0.824-0.117-1.508-0.415l-0.49 1.129c0.748 0.325 1.437 0.516 1.999 0.516v-1.231z"></path>
<path d="M13.538 21.815v9.723h4.923v-9.723c-0.561 0.299-1.455 0.492-2.462 0.492s-1.9-0.193-2.462-0.492zM14.769 29.692v-6.154h2.462v6.154h-2.462z"></path>
</symbol>
</defs>
</svg>
