<svg xmlns="http://www.w3.org/2000/svg" width="46" height="52" fill="none">
  <path fill="#FFA5BA" stroke="#FFA5BA" stroke-width=".5" d="M1.08 18.14a23.3 23.3 0 0 0 6.43 11.63 30.08 30.08 0 0 0 9.76 6.77l2.01.95v13.76h2.82V38.41l.26.08c.38.1.92.1 1.3 0l.26-.08v12.84h2.8V37.47l1.91-.87a31.27 31.27 0 0 0 9.77-6.73c4.52-4.6 6.85-9.84 6.85-15.54.02-6.25-3.27-11.37-8.47-13.12-1.12-.39-1.72-.45-3.76-.43M1.08 18.14l22.13-13.5-.16-.12M1.08 18.14a19 19 0 0 1-.33-3.7c0-1.33.1-2.66.31-3.58 1.18-5.18 4.79-9.02 9.46-10M1.08 18.14 10.52.86m22.5-.08v.25-.25Zm0 0c-1.07.01-1.74.04-2.35.12a16.4 16.4 0 0 0-7.06 3.14l-.56.48m0 0-.88-.65c-2.72-2-5.5-2.97-8.77-3.1a23.8 23.8 0 0 0-1.69 0c-.5 0-.95.04-1.19.1m12.53 3.65L10.52.86m10.86 6.02a11 11 0 0 0-1.85-1.35 15.9 15.9 0 0 0-2.17-1.17c-.56-.22-1.65-.53-2.44-.68-3.2-.59-5.67.04-7.84 1.97a10.91 10.91 0 0 0-1.67 1.9 46.33 46.33 0 0 0 1.87.33c2 .3 3.55.73 5.22 1.53a37 37 0 0 1 5.83 3.78c.99.76 2.65 1.73 4.31 2.5v.01a61.33 61.33 0 0 1 2.71 1.43 4.57 4.57 0 0 1 .4.28 2.89 2.89 0 0 1 .8 1.75c.14.83.17 2.08.17 4.17 0 1.9 0 2.9.05 3.47.03.29.06.44.1.54.04.1.08.15.16.22.4.4.94.38 1.24.05.08-.09.16-.22.2-.75.05-.51.06-1.36.06-2.8 0-1.9.05-3.06.26-3.86.1-.4.26-.73.47-1a3.64 3.64 0 0 1 1.85-1.26c.44-.11 1.04-.2 2.01-.31a25.37 25.37 0 0 0 8.38-2.13c.37-.17.59-.3.72-.44a.82.82 0 0 0 .22-.5 14.36 14.36 0 0 0-.41-3.73c-1.16-4.36-4.75-7.4-8.65-7.4-2.9 0-6.44 1.36-8.63 3.34-.36.32-.66.57-.93.75a1.6 1.6 0 0 1-.8.3 1.5 1.5 0 0 1-.8-.25 6.3 6.3 0 0 1-.84-.7Zm-16.2.63Zm9.47 6.46c-2-1.49-4.2-2.58-6.12-3.05a23.2 23.2 0 0 0-4.09-.55 2.2 2.2 0 0 0-.36.03c-.08.16-.17.43-.24.8a17.16 17.16 0 0 0-.24 4.62c.51 4.76 2.58 8.78 6.55 12.59a30.34 30.34 0 0 0 11.45 6.88l1.4.5 1.42-.5a31.92 31.92 0 0 0 11.12-6.53c2.03-1.9 3.07-3.2 4.4-5.48h.01a24.62 24.62 0 0 0 2.03-4.89 31.52 31.52 0 0 1-8.64 2.02l-.1.01c-.52.05-.89.08-1.16.15-.27.07-.4.17-.5.35-.11.2-.18.53-.21 1.1-.03.52-.03 1.2-.03 2.13v.2c0 1.78-.02 2.83-.15 3.55-.07.36-.17.64-.31.9a3.2 3.2 0 0 1-.53.67 3.35 3.35 0 0 1-2.61 1.15c-.81 0-1.5-.16-2.09-.52a3.58 3.58 0 0 1-1.35-1.6c-.17-.36-.27-.7-.33-1.4-.05-.69-.06-1.73-.06-3.5 0-1.48-.02-2.5-.05-3.18a7.65 7.65 0 0 0-.13-1l-.04-.03a14.35 14.35 0 0 0-1.54-.8 27.84 27.84 0 0 1-5.1-2.86 669.6 669.6 0 0 0-2.4-1.76Zm-10.6-3.56Zm.06-.06Z"/>
</svg>
