<svg width="12px" height="12px" viewBox="0 0 32 32" fill="#c7133e">
<path fill="#c7133e" d="M31.618 15.643c0.237-0.258 0.382-0.603 0.382-0.983 0-0.438-0.194-0.832-0.501-1.098l-0.002-0.002-13.637-11.931c-0.293-0.248-0.676-0.399-1.093-0.399-0.431 0-0.824 0.16-1.124 0.425l0.002-0.002-13.681 12.544c-0.292 0.266-0.474 0.647-0.474 1.071 0 0.391 0.155 0.746 0.408 1.007l-0-0 0.345 0.357c0.566 0.591 1.487 0.665 2.053 0.158l1.022-0.916v13.406c0 0.825 0.665 1.489 1.489 1.489h5.329c0.822 0 1.489-0.665 1.489-1.489v-9.378h6.806v9.378c-0.012 0.822 0.576 1.489 1.398 1.489h5.652c0.822 0 1.487-0.665 1.487-1.489v-13.218l0.633 0.556c0.347 0.305 1.078 0.059 1.63-0.549l0.389-0.426z"></path>
</svg>