<svg width="20" height="20" viewBox="0 0 20 20" fill="none" xmlns="http://www.w3.org/2000/svg">
<g clip-path="url(#clip0_103_566)">
<path fill-rule="evenodd" clip-rule="evenodd" d="M17.8876 5.87409C17.5147 5.23588 17.1161 4.63252 16.7652 4.17506C16.2479 3.50068 15.9423 3.26165 15.5975 3.26165C15.2707 3.26165 15.0049 3.49056 14.7064 3.83427C14.4866 4.08736 14.2246 4.4383 13.9488 4.849C13.5535 5.43756 13.1739 6.07944 12.8494 6.70225C12.5018 6.03577 12.1768 5.46139 11.9365 5.05018C11.1847 3.76353 10.3829 2.54946 9.67869 1.63153C8.52388 0.126094 8.0897 0 7.77341 0C7.45711 0 7.02293 0.126094 5.86805 1.63157C5.1639 2.5495 4.36206 3.76357 3.61026 5.05022C2.70678 6.59635 0.605408 10.4497 0.605408 12.832C0.605408 16.7845 3.82097 20 7.77341 20C11.4819 20 14.5414 17.1692 14.9051 13.5551C15.1324 13.597 15.3638 13.6189 15.5976 13.6189C17.6912 13.6189 19.3945 11.9156 19.3945 9.82191C19.3945 8.63074 18.4504 6.83718 17.8876 5.87409ZM7.77341 18.8281C4.46714 18.8281 1.77729 16.1383 1.77729 12.832C1.77729 11.4363 2.77702 8.85824 4.45159 5.93592C5.94633 3.32751 7.27899 1.65028 7.77341 1.23668C8.26782 1.65028 9.60044 3.32747 11.0952 5.93592C12.7698 8.85828 13.7695 11.4363 13.7695 12.832C13.7695 16.1383 11.0797 18.8281 7.77341 18.8281ZM15.5976 12.447C15.3656 12.447 15.1373 12.4166 14.9163 12.3574C14.7872 11.0661 14.1754 9.46101 13.5066 8.02948C14.1582 6.5744 15.1249 5.14057 15.597 4.59349C15.8952 4.93717 16.4233 5.66143 17.0107 6.69995C17.7696 8.04167 18.2227 9.20875 18.2227 9.82191C18.2227 11.2693 17.045 12.447 15.5976 12.447Z" fill="white" fill-opacity="0.54"/>
<path fill-rule="evenodd" clip-rule="evenodd" d="M9.38205 10.0454C9.10178 9.88353 8.74346 9.97966 8.58166 10.2599L5.95018 14.8178C5.78838 15.0981 5.8844 15.4564 6.16463 15.6182C6.2569 15.6715 6.35764 15.6968 6.45705 15.6968C6.65955 15.6968 6.85651 15.5917 6.96502 15.4037L9.59651 10.8458C9.7583 10.5656 9.66229 10.2072 9.38205 10.0454Z" fill="white" fill-opacity="0.54"/>
<path fill-rule="evenodd" clip-rule="evenodd" d="M6.30859 11.2109C6.30859 10.8882 6.04539 10.625 5.72266 10.625C5.39992 10.625 5.13672 10.8882 5.13672 11.2109C5.13672 11.5337 5.39996 11.7969 5.72266 11.7969C6.04535 11.7969 6.30859 11.5337 6.30859 11.2109Z" fill="white" fill-opacity="0.54"/>
<path fill-rule="evenodd" clip-rule="evenodd" d="M9.6289 13.9453C9.30617 13.9453 9.04297 14.2085 9.04297 14.5312C9.04297 14.854 9.30621 15.1172 9.6289 15.1172C9.95163 15.1172 10.2148 14.8539 10.2148 14.5312C10.2148 14.2085 9.9516 13.9453 9.6289 13.9453Z" fill="white" fill-opacity="0.54"/>
</g>
<defs>
<clipPath id="clip0_103_566">
<rect width="20" height="20" fill="white"/>
</clipPath>
</defs>
</svg>
