<svg xmlns="http://www.w3.org/2000/svg" width="50" height="50" fill="none">
  <path fill="#FFA5BA" d="M12.65.22c-.55.3-.87.88-.87 1.58.01 1.27.33 2.43.96 3.43l.28.46-.53.6c-.6.66-.74.9-1 1.7a5.01 5.01 0 0 0-.05 2.47 4.2 4.2 0 0 0 6.95 1.94l.59-.49.54.28a15 15 0 0 0 1.16.5l.6.22v1.1c0 1.72.35 2.75 1.27 3.68.9.92 2.34 1.4 3.57 1.19a4.4 4.4 0 0 0 2.33-1.2c.92-.92 1.27-1.95 1.27-3.68v-1.09l.6-.21c.33-.13.85-.36 1.16-.51l.54-.28.59.5a4.2 4.2 0 0 0 6.95-1.94c.2-.67.18-1.84-.04-2.48a3.83 3.83 0 0 0-1.01-1.7l-.53-.6.28-.46c.63-1 .95-2.16.96-3.43 0-.7-.32-1.28-.87-1.58l-.4-.22h-24.9l-.41.22Zm23.02 3.06c0 .03-.28.49-.62 1.04-1.02 1.6-.98 1.96.37 3.39.49.51.94 1.03 1 1.15.37.72-.36 1.62-1.16 1.43a4.1 4.1 0 0 1-1.23-.98c-1.23-1.21-1.65-1.35-2.6-.81a17.34 17.34 0 0 1-3.13 1.44c-.95.27-1.27.48-1.52 1-.2.4-.22.56-.22 2.13 0 1.92-.08 2.23-.63 2.5-.4.2-.47.2-.86 0-.55-.27-.63-.58-.63-2.5 0-1.57-.01-1.73-.2-2.13-.27-.51-.6-.73-1.54-1-.83-.23-2.04-.77-2.72-1.21-.63-.41-1.19-.57-1.63-.49-.28.06-.57.29-1.34 1.04-.63.61-1.08.97-1.28 1.01-.8.19-1.52-.72-1.16-1.43.07-.12.52-.64 1.01-1.15 1.35-1.43 1.4-1.78.38-3.4-.35-.54-.63-1-.63-1.03 0-.04 4.58-.06 10.17-.06 5.6 0 10.17.02 10.17.06ZM9.76 20.63c-.5.34-.76.8-.76 1.32 0 .35 4.87 26.45 5.05 27 .08.3.44.66.81.85.36.2.6.2 10.64.2 10.03 0 10.28 0 10.64-.2.37-.2.73-.55.81-.85.18-.55 5.05-26.65 5.05-27 0-.51-.27-.98-.76-1.32l-.32-.22H10.08l-.32.22ZM38.2 24.2c-.1.78-.65 2.48-1.06 3.25-2 3.71-5.8 5.97-10.52 6.23-3.56.2-6.57-.52-9.1-2.18A10.95 10.95 0 0 1 14 27.7a12.97 12.97 0 0 1-1.21-3.5l-.07-.56h25.56l-.07.56ZM15.86 34.25c4.11 2.77 10.26 3.5 15.44 1.82a16.5 16.5 0 0 0 4.97-2.63c.43-.34.46-.34.42-.13l-1.26 6.63-1.25 6.61-.05.23H16.87l-.05-.23-1.25-6.6-1.26-6.64c-.04-.21-.01-.21.42.13.25.2.76.55 1.13.8Z"/>
</svg>
