<svg aria-hidden="true" style="position: absolute; width: 0; height: 0; overflow: hidden;" version="1.1" xmlns="http://www.w3.org/2000/svg" xmlns:xlink="http://www.w3.org/1999/xlink">
<defs>
<symbol id="icon-frozen1" viewBox="0 0 21 32">
<path fill="#ffa5ba" style="fill: var(--color1, #ffa5ba)" d="M2.333 0.144c-0.349 0.188-0.552 0.563-0.552 1.006 0.006 0.813 0.209 1.556 0.614 2.2l0.178 0.294-0.338 0.381c-0.381 0.425-0.473 0.581-0.644 1.088-0.141 0.412-0.154 1.162-0.031 1.581 0.429 1.437 1.854 2.269 3.247 1.9 0.473-0.125 0.762-0.282 1.203-0.657l0.375-0.312 0.35 0.175c0.196 0.1 0.528 0.243 0.742 0.324l0.381 0.138v0.7c0 1.106 0.227 1.763 0.81 2.356s1.498 0.9 2.291 0.762c0.564-0.1 1.117-0.381 1.491-0.762 0.584-0.594 0.811-1.251 0.811-2.356v-0.7l0.387-0.138c0.209-0.081 0.541-0.225 0.737-0.325l0.349-0.175 0.374 0.312c0.442 0.375 0.731 0.531 1.203 0.657 1.394 0.369 2.819-0.463 3.248-1.9 0.123-0.419 0.111-1.169-0.031-1.581-0.172-0.507-0.264-0.663-0.644-1.088l-0.337-0.381 0.178-0.294c0.405-0.643 0.608-1.388 0.614-2.2 0-0.444-0.204-0.819-0.553-1.006l-0.264-0.144h-15.926l-0.264 0.144zM17.069 2.099c0 0.019-0.179 0.313-0.399 0.662-0.651 1.032-0.626 1.256 0.239 2.17 0.314 0.331 0.602 0.662 0.645 0.737 0.233 0.463-0.234 1.038-0.749 0.919-0.124-0.026-0.394-0.243-0.787-0.631-0.786-0.775-1.056-0.863-1.658-0.518-0.694 0.399-1.578 0.806-2.008 0.924-0.608 0.175-0.817 0.307-0.976 0.637-0.129 0.256-0.141 0.363-0.141 1.363 0 1.231-0.050 1.431-0.399 1.6-0.252 0.125-0.301 0.125-0.553 0-0.35-0.169-0.399-0.369-0.399-1.6 0-1-0.013-1.107-0.135-1.363-0.166-0.324-0.374-0.462-0.982-0.637-0.528-0.15-1.308-0.493-1.738-0.774-0.405-0.262-0.762-0.363-1.043-0.313-0.185 0.038-0.369 0.181-0.86 0.662-0.405 0.394-0.694 0.625-0.817 0.65-0.509 0.119-0.976-0.463-0.742-0.919 0.043-0.075 0.332-0.406 0.644-0.737 0.865-0.913 0.89-1.137 0.239-2.169-0.221-0.349-0.399-0.643-0.399-0.662 0-0.025 2.929-0.037 6.508-0.037s6.508 0.013 6.508 0.037zM0.485 13.206c-0.314 0.212-0.485 0.512-0.485 0.844 0 0.225 3.119 16.925 3.229 17.275 0.055 0.194 0.282 0.425 0.522 0.55 0.227 0.125 0.387 0.125 6.809 0.125s6.582 0 6.809-0.125c0.239-0.125 0.467-0.356 0.522-0.55 0.111-0.35 3.229-17.050 3.229-17.275 0-0.331-0.172-0.631-0.485-0.844l-0.209-0.144h-19.732l-0.209 0.144zM18.695 15.481c-0.061 0.5-0.418 1.587-0.682 2.081-1.283 2.375-3.715 3.819-6.729 3.987-2.278 0.132-4.205-0.331-5.82-1.393-0.94-0.625-1.704-1.443-2.247-2.402l-0.018-0.035c-0.307-0.544-0.712-1.713-0.774-2.238l-0.043-0.356h16.356l-0.043 0.356zM4.39 21.919c2.634 1.775 6.569 2.244 9.885 1.169 1.105-0.356 2.235-0.956 3.18-1.687 0.276-0.219 0.294-0.219 0.264-0.082-0.019 0.081-0.381 1.994-0.804 4.244s-0.78 4.156-0.798 4.232l-0.031 0.143h-11.052l-0.031-0.143c-0.018-0.075-0.374-1.981-0.798-4.232s-0.786-4.163-0.804-4.243c-0.031-0.138-0.013-0.138 0.264 0.081 0.16 0.125 0.491 0.356 0.724 0.518z"></path>
</symbol>
<symbol id="icon-frozen2" viewBox="0 0 32 32">
<path fill="#ffa5ba" style="fill: var(--color1, #ffa5ba)" d="M29.626 21.411c-1.292-0.458-2.381-0.344-3.242 0.018 0.145-0.877 0.47-1.832 1.169-2.481 0.214-0.195 0.348-0.476 0.348-0.787 0-0.588-0.477-1.065-1.065-1.065-0.283 0-0.541 0.111-0.731 0.291l0-0c-1.229 1.14-1.706 2.749-1.874 4.081-0.307-0.142-0.662-0.25-1.035-0.308l-0.023-0.003 1.89-9.83c0.012-0.061 0.019-0.13 0.019-0.202 0-0.588-0.477-1.064-1.064-1.064-0 0-0 0-0 0h-0.205c0.094-0.5 0.141-0.997 0.138-1.47-0.016-1.994-0.903-3.495-2.374-4.017-1.409-0.5-2.589-0.35-3.507 0.066 0.146-0.976 0.495-2.063 1.282-2.794 0.214-0.195 0.348-0.476 0.348-0.787 0-0.588-0.477-1.065-1.065-1.065-0.283 0-0.541 0.111-0.731 0.291l0-0c-1.32 1.226-1.815 2.966-1.981 4.387-0.735-0.348-1.644-0.526-2.709-0.33-1.094-1.571-2.612-2.295-4.090-1.941-1.451 0.348-2.358 1.115-2.9 1.962-0.41-0.899-0.712-2.001-0.452-3.036 0.018-0.073 0.028-0.157 0.028-0.244 0-0.588-0.477-1.065-1.065-1.065-0.49 0-0.903 0.331-1.027 0.781l-0.002 0.007c-0.439 1.746 0.095 3.475 0.73 4.758-1.016 0.138-2.118 0.65-3.049 1.866-0.578 0.755-0.773 1.698-0.596 2.7-0.408 0.155-0.692 0.543-0.692 0.997 0 0.071 0.007 0.14 0.020 0.207l-0.001-0.007 3.809 19.809c0.096 0.502 0.535 0.864 1.046 0.864h15.237c0.51 0 0.949-0.362 1.046-0.864l0.037-0.195c0.287 0.198 0.595 0.364 0.927 0.486 1.267 0.472 2.447 0.278 3.044 0.118 0.316 0.084 0.795 0.179 1.364 0.179 0.506 0 1.084-0.075 1.68-0.297 2.36-0.879 3.615-3.839 3.596-6.178-0.015-1.904-0.865-3.34-2.275-3.839zM22.675 12.191c-0.491 4.705-4.452 7.909-9.971 7.909s-9.481-3.204-9.971-7.909h19.942zM16.032 7.515c0.184 0.349 0.536 0.567 0.931 0.567s0.746-0.218 0.931-0.567c0.203-0.312 0.46-0.572 0.76-0.771l0.010-0.006c0.629-0.408 1.35-0.46 2.203-0.157 0.851 0.301 0.952 1.518 0.956 2.027 0.004 0.463-0.064 0.961-0.19 1.453h-7.126c0.236-1.19 0.094-2.492-0.289-3.669 0.392 0.022 0.751 0.149 1.055 0.351l-0.008-0.005c0.31 0.205 0.567 0.465 0.763 0.767l0.006 0.010zM3.077 8.724c0.55-0.719 1.183-1.069 1.933-1.069h0.002c0.57 0 1.016 0.207 1.066 0.232 0.341 0.189 0.749 0.172 1.078-0.037 0.332-0.211 0.51-0.592 0.481-0.983-0.006-0.077-0.115-1.894 1.983-2.397 0.877-0.211 1.626 0.754 1.906 1.178 0.808 1.221 1.222 3.108 0.777 4.413h-9.348c-0.141-0.443-0.179-0.943 0.122-1.336zM5.852 29.87l-2.111-10.977c0.138 0.132 0.28 0.262 0.428 0.388 2.208 1.901 5.239 2.948 8.535 2.948s6.328-1.047 8.535-2.948c0.051-0.044 0.102-0.090 0.152-0.134l-0.431 2.243c-0.020 0.006-0.040 0.013-0.061 0.020-1.411 0.5-2.261 1.935-2.276 3.839-0.010 1.165 0.297 2.483 0.898 3.622l-0.192 0.998h-13.477zM27.562 29.432c-0.943 0.351-1.881 0.017-1.916 0.004-0.114-0.046-0.246-0.073-0.384-0.073s-0.27 0.027-0.391 0.076l0.007-0.003c-0.010 0.004-0.96 0.352-1.917-0.004-1.338-0.499-2.223-2.556-2.21-4.166 0.004-0.465 0.095-1.578 0.858-1.849 0.279-0.107 0.601-0.17 0.937-0.175l0.002-0c1.107 0 1.658 0.812 1.782 1.024 0.184 0.35 0.535 0.57 0.931 0.57s0.748-0.22 0.931-0.57c0.156-0.265 0.977-1.468 2.721-0.849 0.763 0.271 0.854 1.383 0.858 1.85 0.013 1.609-0.872 3.667-2.21 4.165z"></path>
</symbol>
<symbol id="icon-frozen3" viewBox="0 0 28 32">
<path fill="#ffa5ba" stroke="#ffa5ba" stroke-width="0.3077" stroke-miterlimit="4" stroke-linecap="butt" stroke-linejoin="miter" style="fill: var(--color1, #ffa5ba); stroke: var(--color1, #ffa5ba)" d="M0.666 11.161c0.588 2.695 1.895 5.088 3.953 7.162 1.839 1.86 3.455 2.991 6.008 4.164l1.238 0.582v8.47h1.73v-7.902l0.159 0.047h0.001c0.23 0.066 0.567 0.066 0.796 0h0.001l0.159-0.047v7.902h1.73v-8.481l1.179-0.536c2.469-1.138 4.263-2.372 6.008-4.142 2.786-2.829 4.217-6.052 4.217-9.561 0.012-3.85-2.010-7-5.214-8.076-0.689-0.239-1.054-0.274-2.316-0.262M0.666 11.161l13.614-8.305-0.097-0.073M0.666 11.161c-0.134-0.615-0.202-1.455-0.205-2.276s0.060-1.636 0.194-2.201c0.722-3.188 2.943-5.549 5.82-6.152M0.666 11.161l5.809-10.629M20.317 0.482v0zM20.317 0.482c-0.658 0.006-1.070 0.020-1.444 0.073-0.376 0.054-0.709 0.146-1.208 0.303h-0.002c-1.188 0.386-2.356 0.994-3.132 1.632l-0.001 0.001-0.346 0.291M14.183 2.783l-0.543-0.401c-1.673-1.231-3.385-1.83-5.396-1.911h-0.001c-0.163-0.006-0.354-0.009-0.547-0.009-0.172 0-0.343 0.003-0.513 0.008l0.025-0.001c-0.313 0.010-0.586 0.031-0.733 0.063M14.183 2.783l-7.708-2.251M13.159 4.233h-0.001c-0.238-0.226-0.669-0.537-1.14-0.833-0.47-0.295-0.968-0.566-1.335-0.718-0.416-0.159-0.919-0.303-1.437-0.408l-0.064-0.011c-1.975-0.362-3.489 0.022-4.825 1.21l-0.001 0.001c-0.282 0.246-0.581 0.571-0.796 0.843-0.079 0.097-0.155 0.205-0.224 0.317l-0.007 0.013c-0.203-0.019 0.188 0.050 0.58 0.117l0.572 0.081c1.231 0.192 2.186 0.449 3.209 0.943 1.020 0.491 2.103 1.214 3.593 2.329l0.001 0.001c0.605 0.465 1.626 1.059 2.651 1.541l0.002 0.001c0.458 0.226 0.898 0.452 1.238 0.636 0.17 0.092 0.316 0.175 0.428 0.242 0.055 0.034 0.103 0.065 0.142 0.091 0.036 0.025 0.073 0.052 0.098 0.080 0.128 0.137 0.234 0.274 0.318 0.447s0.142 0.372 0.182 0.631c0.081 0.512 0.098 1.281 0.098 2.57 0 1.17 0.003 1.785 0.033 2.135 0.015 0.175 0.036 0.271 0.061 0.332 0.022 0.053 0.055 0.099 0.096 0.134l0 0c0.246 0.24 0.583 0.23 0.762 0.031l0.004-0.004c0.049-0.052 0.097-0.135 0.125-0.456 0.027-0.32 0.033-0.837 0.033-1.723 0-1.172 0.029-1.886 0.16-2.378 0.066-0.25 0.16-0.448 0.292-0.622 0.13-0.172 0.293-0.314 0.487-0.459l0.002-0.001c0.197-0.142 0.368-0.235 0.647-0.308 0.271-0.071 0.642-0.124 1.24-0.193 1.865-0.207 2.942-0.447 4.231-0.937 0.404-0.154 0.703-0.269 0.927-0.372 0.225-0.103 0.357-0.188 0.439-0.273 0.076-0.079 0.115-0.168 0.134-0.302 0.020-0.142 0.014-0.324 0.002-0.588v-0.003c-0.012-0.46-0.128-1.233-0.255-1.706v-0.001c-0.709-2.682-2.922-4.56-5.317-4.56-1.787 0-3.967 0.839-5.314 2.060l-0.001 0.001c-0.22 0.197-0.405 0.352-0.572 0.459s-0.327 0.175-0.495 0.182c-0.17 0.007-0.327-0.050-0.486-0.149-0.156-0.098-0.323-0.242-0.517-0.425zM9.013 8.598l-0.001-0.001c-1.232-0.914-2.577-1.584-3.762-1.878-0.503-0.123-1.117-0.227-1.743-0.29l-0.060-0.005c-0.213-0.024-0.461-0.038-0.712-0.039h-0.001c-0.001 0-0.001 0-0.002 0-0.079 0-0.155 0.007-0.23 0.020l0.008-0.001c-0.049 0.095-0.1 0.264-0.148 0.496-0.052 0.252-0.095 0.561-0.127 0.892-0.063 0.665-0.078 1.407-0.020 1.948 0.316 2.926 1.588 5.398 4.031 7.743h0.001c1.927 1.865 4.326 3.319 7.044 4.236l0.002 0.001 0.862 0.305 0.875-0.305c2.542-0.871 5.036-2.326 6.844-4.018 1.246-1.168 1.889-1.964 2.711-3.37v-0.001c0.255-0.428 0.604-1.204 0.874-1.892 0.135-0.343 0.249-0.662 0.32-0.9 0.026-0.086 0.046-0.158 0.058-0.217-0.042 0.011-0.090 0.025-0.145 0.041-0.201 0.060-0.473 0.151-0.767 0.26h-0.001c-1.188 0.433-2.967 0.816-4.401 0.944h-0.001l-0.063 0.005c-0.323 0.026-0.548 0.045-0.716 0.089-0.166 0.043-0.252 0.106-0.311 0.215-0.067 0.126-0.107 0.329-0.127 0.677-0.018 0.322-0.018 0.746-0.018 1.313v0.121c0 1.098-0.014 1.746-0.096 2.184-0.035 0.208-0.101 0.394-0.194 0.563l0.005-0.009c-0.086 0.154-0.196 0.283-0.327 0.417-0.235 0.246-0.47 0.425-0.734 0.54s-0.546 0.164-0.871 0.164c-0.5 0-0.927-0.099-1.284-0.317s-0.63-0.546-0.835-0.983c-0.105-0.223-0.164-0.436-0.198-0.864-0.033-0.423-0.042-1.067-0.042-2.156 0-0.906-0.009-1.537-0.031-1.957-0.007-0.174-0.022-0.336-0.046-0.495l0.003 0.025c-0.007-0.045-0.015-0.085-0.027-0.123l0.002 0.006c-0.003-0.011-0.007-0.020-0.011-0.028l0 0.001c-0.027-0.023-0.057-0.045-0.088-0.066l-0.003-0.002c-0.059-0.038-0.133-0.082-0.208-0.122l-0.017-0.008c-0.163-0.089-0.378-0.193-0.598-0.288l-0.057-0.022c-1.006-0.42-2.332-1.164-3.137-1.761-0.295-0.219-0.959-0.703-1.481-1.084h-0.001zM2.49 6.407c-0.002 0.001-0.002 0.001 0 0zM2.527 6.37l-0.001 0.001 0.001-0.002z"></path>
</symbol>
</defs>
</svg>
