<?xml version="1.0" encoding="UTF-8"?>
<svg xmlns="http://www.w3.org/2000/svg" xmlns:xlink="http://www.w3.org/1999/xlink" width="0" height="0">
<symbol id="modal-close-button" width="20" height="20" viewBox="0 0 20 20" fill="none">
<path d="M15 5L5 15" stroke="#141414" stroke-width="1.3" stroke-linecap="round" stroke-linejoin="round"/>
<path d="M5 5L15 15" stroke="#141414" stroke-width="1.3" stroke-linecap="round" stroke-linejoin="round"/>
</symbol>

<symbol id="header-close-button" width="24" height="24" viewBox="0 0 24 24" fill="none">
<path d="M18 6L6 18" stroke="white" stroke-width="1.3" stroke-linecap="round" stroke-linejoin="round"/>
<path d="M6 6L18 18" stroke="white" stroke-width="1.3" stroke-linecap="round" stroke-linejoin="round"/>
</symbol>

<symbol id="ham-menu-svg" width="20" height="14" viewBox="0 0 20 14" fill="none">
<path d="M0 0.995C0 0.445 0.446 0 0.995 0H9.005C9.26889 7.86455e-09 9.52197 0.10483 9.70857 0.291429C9.89517 0.478027 10 0.731109 10 0.995C10 1.25889 9.89517 1.51197 9.70857 1.69857C9.52197 1.88517 9.26889 1.99 9.005 1.99H0.995C0.731109 1.99 0.478028 1.88517 0.291429 1.69857C0.10483 1.51197 0 1.25889 0 0.995ZM0 7C0 6.45 0.446 6.005 0.995 6.005H19.005C19.2689 6.005 19.522 6.10983 19.7086 6.29643C19.8952 6.48303 20 6.73611 20 7C20 7.26389 19.8952 7.51697 19.7086 7.70357C19.522 7.89017 19.2689 7.995 19.005 7.995H0.995C0.731109 7.995 0.478028 7.89017 0.291429 7.70357C0.10483 7.51697 0 7.26389 0 7ZM0.995 12.01C0.731109 12.01 0.478028 12.1148 0.291429 12.3014C0.10483 12.488 0 12.7411 0 13.005C0 13.2689 0.10483 13.522 0.291429 13.7086C0.478028 13.8952 0.731109 14 0.995 14H13.005C13.2689 14 13.522 13.8952 13.7086 13.7086C13.8952 13.522 14 13.2689 14 13.005C14 12.7411 13.8952 12.488 13.7086 12.3014C13.522 12.1148 13.2689 12.01 13.005 12.01H0.995Z" fill="white"/>
</symbol>

<symbol id="header-right-carousel" width="8" height="14" viewBox="0 0 8 14" fill="none">
<path d="M7 13L1 7L7 1" stroke="white" stroke-opacity="0.5" stroke-linecap="round" stroke-linejoin="round"/>
</symbol>

<symbol id="header-left-carousel" width="24" height="27" viewBox="0 0 24 27" fill="none">
<g filter="url(#filter0_d_102_75)">
<path d="M9 18L15 12L9 6" stroke="white" stroke-linecap="round" stroke-linejoin="round"/>
</g>
<defs>
<filter x="-4" y="0" width="32" height="32" filterUnits="userSpaceOnUse" color-interpolation-filters="sRGB">
<feFlood flood-opacity="0" result="BackgroundImageFix"/>
<feColorMatrix in="SourceAlpha" type="matrix" values="0 0 0 0 0 0 0 0 0 0 0 0 0 0 0 0 0 0 127 0" result="hardAlpha"/>
<feOffset dy="4"/>
<feGaussianBlur stdDeviation="2"/>
<feComposite in2="hardAlpha" operator="out"/>
<feColorMatrix type="matrix" values="0 0 0 0 0 0 0 0 0 0 0 0 0 0 0 0 0 0 0.25 0"/>
<feBlend mode="normal" in2="BackgroundImageFix" result="effect1_dropShadow_102_75"/>
<feBlend mode="normal" in="SourceGraphic" in2="effect1_dropShadow_102_75" result="shape"/>
</filter>
</defs>
</symbol>

<symbol id="footer-youtube" width="28" height="28" viewBox="0 0 28 28" fill="none">
<g opacity="0.8">
<path fill-rule="evenodd" clip-rule="evenodd" d="M21.21 5.24986C20.02 5.17986 17.57 5.10986 13.86 5.10986H13.37C9.80004 5.10986 7.42007 5.17986 6.23007 5.31986C4.62007 5.45986 3.50004 5.87986 2.87004 6.43986C2.31004 6.92986 1.89005 7.83986 1.75005 9.02986C1.68005 9.79986 1.61005 11.4099 1.61005 13.8599V14.2099C1.61005 16.5199 1.68004 18.1299 1.82004 18.8999C2.03004 20.0199 2.38007 20.8599 3.08007 21.3499C3.78007 21.9099 4.97005 22.2599 6.65005 22.3999C7.84005 22.4699 10.2901 22.5399 14.0001 22.5399H14.4901C18.0601 22.5399 20.4401 22.4699 21.6301 22.3299C23.2401 22.1899 24.3601 21.7699 24.9901 21.2099C25.5501 20.7199 25.97 19.8099 26.11 18.6199C26.18 17.8499 26.2501 16.2399 26.2501 13.7899V13.4399C26.2501 11.1299 26.1801 9.51986 26.0401 8.74986C25.8301 7.62986 25.4801 6.78986 24.7801 6.29986C24.0801 5.73986 22.89 5.38986 21.21 5.24986ZM18.4801 13.8599L10.7801 18.4799V9.23986L18.4801 13.8599Z" fill="white"/>
</g>
</symbol>

<symbol id="footer-instagram" width="28" height="28" viewBox="0 0 28 28" fill="none">
<g opacity="0.8">
<path d="M25.1278 9.41127C25.1142 8.47121 24.94 7.5386 24.6067 6.65939C24.0233 5.15803 22.8354 3.97084 21.3315 3.38967C20.462 3.06307 19.5428 2.88797 18.6123 2.86811C17.4157 2.81471 17.0363 2.7998 13.9987 2.7998C10.9612 2.7998 10.5718 2.7998 9.38391 2.86811C8.45472 2.88797 7.53548 3.06307 6.666 3.38967C5.16214 3.97084 3.97298 5.15803 3.39084 6.65939C3.06369 7.52743 2.88706 8.44513 2.86965 9.37277C2.81616 10.5687 2.79999 10.9474 2.79999 13.9799C2.79999 17.0125 2.79999 17.3999 2.86965 18.5871C2.8883 19.516 3.06369 20.4325 3.39084 21.303C3.97422 22.8031 5.16214 23.9903 6.66725 24.5714C7.533 24.9092 8.45223 25.1005 9.38515 25.1303C10.583 25.1837 10.9624 25.1998 14 25.1998C17.0376 25.1998 17.4269 25.1998 18.6148 25.1303C19.544 25.1116 20.4632 24.9365 21.334 24.6099C22.8378 24.0275 24.0258 22.8403 24.6091 21.3402C24.9363 20.4709 25.1117 19.5545 25.1303 18.6244C25.1838 17.4297 25.2 17.051 25.2 14.0172C25.1975 10.9847 25.1975 10.5997 25.1278 9.41127ZM13.9913 19.7147C10.8144 19.7147 8.24077 17.1453 8.24077 13.9737C8.24077 10.8021 10.8144 8.23278 13.9913 8.23278C17.1657 8.23278 19.7418 10.8021 19.7418 13.9737C19.7418 17.1453 17.1657 19.7147 13.9913 19.7147ZM19.9707 9.35911C19.2281 9.35911 18.6298 8.76056 18.6298 8.02043C18.6298 7.2803 19.2281 6.68174 19.9707 6.68174C20.7108 6.68174 21.3103 7.2803 21.3103 8.02043C21.3103 8.76056 20.7108 9.35911 19.9707 9.35911Z" fill="white"/>
<path d="M13.9931 17.4792C15.928 17.4792 17.4966 15.9106 17.4966 13.9757C17.4966 12.0407 15.928 10.4722 13.9931 10.4722C12.0581 10.4722 10.4896 12.0407 10.4896 13.9757C10.4896 15.9106 12.0581 17.4792 13.9931 17.4792Z" fill="white"/>
</g>
</symbol>

<symbol id="footer-facebook" width="28" height="28" viewBox="0 0 28 28" fill="none">
<g opacity="0.8">
<path d="M17.08 4.06023C17.29 4.06023 17.5 4.06023 17.92 4.06023V7.21023C17.71 7.21023 17.29 7.21023 16.87 7.21023C16.45 7.21023 16.03 7.21023 15.82 7.42023C15.61 7.63023 15.61 7.84023 15.61 8.33023C15.61 8.75023 15.61 9.03023 15.61 9.45023H17.92V12.1102H15.61V23.6602H12.04V12.0402H10.15V9.38023H12.04V8.47023C12.04 6.93023 12.25 5.81023 12.67 5.32023C13.3 4.41023 14.56 3.99023 16.45 3.99023C16.66 4.06023 16.87 4.06023 17.08 4.06023Z" fill="white"/>
</g>
</symbol>

<symbol id="footer-logo" width="50" height="50" viewBox="0 0 50 50" fill="none">
<path d="M43.9511 29.0059L33.4076 4.85455L31.1086 3.26081L28.4133 2.40264L24.7667 1.42188L20.4858 3.26081L17.632 4.85455L28.4133 29.0059H43.9511Z" fill="url(#paint0_linear_102_110)"/>
<path d="M6.11333 20.9295L16.6568 45.1374L18.9558 46.7349L21.6511 47.5951L25.2978 48.5781L29.5786 46.7349L32.4325 45.1374L21.6511 20.9295L6.11333 20.9295Z" fill="url(#paint1_linear_102_110)"/>
<path d="M17.0682 5.17001L0.699824 28.8298L17.0682 29.0052L28.9005 5.17001C29.7312 2.73162 32.3306 4.15401 33.5264 5.17001C28.4158 -4.19337 20.4248 1.2686 17.0682 5.17001Z" fill="white"/>
<path d="M32.9318 44.83L49.3002 21.1702L32.9318 20.9948L21.0995 44.83C20.2688 47.2684 17.6694 45.846 16.4736 44.83C21.5842 54.1934 29.5752 48.7314 32.9318 44.83Z" fill="white"/>
<defs>
<linearGradient x1="41.2244" y1="29.0059" x2="28.7202" y2="5.61312" gradientUnits="userSpaceOnUse">
<stop/>
<stop offset="0.494792" stop-color="white"/>
<stop offset="1" stop-color="white"/>
</linearGradient>
<linearGradient id="paint1_linear_102_110" x1="8.84009" y1="20.9295" x2="21.3898" y2="44.3526" gradientUnits="userSpaceOnUse">
<stop stop-color="#0C0C0C"/>
<stop offset="0.494792" stop-color="white"/>
<stop offset="1" stop-color="white"/>
</linearGradient>
</defs>
</symbol>

<symbol id="header-logo" width="19" height="19" viewBox="0 0 19 19" fill="none">
<path d="M16.7014 11.022L12.6949 1.84445L11.8213 1.23883L10.797 0.912729L9.41133 0.540039L7.78461 1.23883L6.70013 1.84445L10.797 11.022H16.7014Z" fill="url(#paint0_linear_102_283)"/>
<path d="M2.32305 7.9535L6.32959 17.1525L7.2032 17.7595L8.22743 18.0864L9.61315 18.46L11.2399 17.7595L12.3243 17.1525L8.22743 7.9535H2.32305Z" fill="url(#paint1_linear_102_283)"/>
<path d="M6.4859 1.9646L0.265933 10.9553L6.4859 11.022L10.9822 1.9646C11.2979 1.03802 12.2856 1.57853 12.74 1.9646C10.798 -1.59348 7.76144 0.482067 6.4859 1.9646Z" fill="white"/>
<path d="M12.5141 17.0354L18.7341 8.04468L12.5141 7.97804L8.01783 17.0354C7.70213 17.962 6.71439 17.4215 6.25997 17.0354C8.20198 20.5935 11.2386 18.5179 12.5141 17.0354Z" fill="white"/>
<defs>
<linearGradient x1="15.6653" y1="11.022" x2="10.9137" y2="2.13271" gradientUnits="userSpaceOnUse">
<stop/>
<stop offset="0.494792" stop-color="white"/>
<stop offset="1" stop-color="white"/>
</linearGradient>
<linearGradient id="paint1_linear_102_283" x1="3.35922" y1="7.9535" x2="8.12811" y2="16.8543" gradientUnits="userSpaceOnUse">
<stop stop-color="#0C0C0C"/>
<stop offset="0.494792" stop-color="white"/>
<stop offset="1" stop-color="white"/>
</linearGradient>
</defs>
</symbol>

</svg>
