<svg aria-hidden="true" style="position: absolute; width: 0; height: 0; overflow: hidden;" version="1.1" xmlns="http://www.w3.org/2000/svg" xmlns:xlink="http://www.w3.org/1999/xlink">
<defs>

<symbol id="icon-gps_not_fixed" viewBox="0 0 24 24">
<path d="M12 18.984q2.906 0 4.945-2.039t2.039-4.945-2.039-4.945-4.945-2.039-4.945 2.039-2.039 4.945 2.039 4.945 4.945 2.039zM20.953 11.016h2.063v1.969h-2.063q-0.328 2.953-2.672 5.297t-5.297 2.672v2.063h-1.969v-2.063q-2.953-0.328-5.297-2.672t-2.672-5.297h-2.063v-1.969h2.063q0.328-2.953 2.672-5.297t5.297-2.672v-2.063h1.969v2.063q2.953 0.328 5.297 2.672t2.672 5.297z"></path>
</symbol>
<symbol id="icon-close" viewBox="0 0 32 32">
<path d="M26.667 7.303l-1.97-1.97-7.808 7.808-7.808-7.808-1.97 1.97 7.808 7.808-7.808 7.808 1.97 1.97 7.808-7.808 7.808 7.808 1.97-1.97-7.808-7.808 7.808-7.808z"></path>
</symbol>
<symbol id="icon-location" viewBox="0 0 32 32">
<path fill="none" stroke="#aeb3b9" style="stroke: var(--color1, #aeb3b9)" stroke-linejoin="miter" stroke-linecap="butt" stroke-miterlimit="4" stroke-width="2.9091" d="M27.636 16c0 6.427-5.21 11.636-11.636 11.636s-11.636-5.21-11.636-11.636c0-6.427 5.21-11.636 11.636-11.636s11.636 5.21 11.636 11.636z"></path>
<path fill="#aeb3b9" style="fill: var(--color1, #aeb3b9)" d="M14.545 0h2.909v5.818h-2.909v-5.818z"></path>
<path fill="#aeb3b9" style="fill: var(--color1, #aeb3b9)" d="M14.545 26.182h2.909v5.818h-2.909v-5.818z"></path>
<path fill="#aeb3b9" style="fill: var(--color1, #aeb3b9)" d="M5.818 14.545v2.909h-5.818v-2.909h5.818z"></path>
<path fill="#aeb3b9" style="fill: var(--color1, #aeb3b9)" d="M32 14.545v2.909h-5.818v-2.909h5.818z"></path>
</symbol>
<symbol id="icon-star" viewBox="0 0 35 32">
<path fill="none" stroke="#7e8691" style="stroke: var(--color1, #7e8691)" stroke-linejoin="miter" stroke-linecap="butt" stroke-miterlimit="4" stroke-width="1.6" d="M17.6 2.589l3.37 10.372h10.906l-8.823 6.411 0.18 0.553 3.191 9.82-8.823-6.411-8.823 6.411 3.37-10.372-8.823-6.411h10.906l3.37-10.372z"></path>
</symbol>
<symbol id="icon-right" viewBox="0 0 32 32">

<path d="M11.086 22.086l2.829 2.829 8.914-8.914-8.914-8.914-2.828 2.828 6.086 6.086z"></path>
</symbol>
<symbol id="icon-left" viewBox="0 0 32 32">

<path d="M20.914 9.914l-2.829-2.829-8.914 8.914 8.914 8.914 2.828-2.828-6.086-6.086z"></path>
</symbol>
</defs>
</svg>