<svg aria-hidden="true" style="position: absolute; width: 0; height: 0; overflow: hidden;" version="1.1" xmlns="http://www.w3.org/2000/svg" xmlns:xlink="http://www.w3.org/1999/xlink">
<defs>
<symbol id="icon-facebook22" viewBox="0 0 20 20">
<path d="M11.875 3.75h3.125v-3.75h-3.125c-2.412 0-4.375 1.963-4.375 4.375v1.875h-2.5v3.75h2.5v10h3.75v-10h3.125l0.625-3.75h-3.75v-1.875c0-0.339 0.286-0.625 0.625-0.625z"></path>
</symbol>
<symbol id="icon-github" viewBox="0 0 20 20">
<path d="M10 0.247c-5.525 0-10 4.478-10 10 0 4.419 2.865 8.167 6.837 9.487 0.5 0.094 0.683-0.215 0.683-0.481 0-0.237-0.008-0.867-0.012-1.7-2.782 0.603-3.368-1.342-3.368-1.342-0.455-1.154-1.113-1.463-1.113-1.463-0.906-0.62 0.070-0.607 0.070-0.607 1.004 0.070 1.532 1.030 1.532 1.030 0.892 1.529 2.341 1.087 2.913 0.832 0.090-0.647 0.348-1.088 0.633-1.338-2.221-0.25-4.555-1.11-4.555-4.942 0-1.092 0.388-1.983 1.029-2.683-0.112-0.252-0.45-1.269 0.087-2.647 0 0 0.838-0.268 2.75 1.025 0.8-0.222 1.65-0.332 2.5-0.338 0.85 0.005 1.7 0.115 2.5 0.337 1.9-1.293 2.737-1.025 2.737-1.025 0.537 1.377 0.2 2.394 0.1 2.647 0.638 0.7 1.025 1.592 1.025 2.683 0 3.842-2.338 4.688-4.563 4.933 0.35 0.3 0.675 0.913 0.675 1.85 0 1.338-0.013 2.413-0.013 2.738 0 0.262 0.175 0.575 0.688 0.475 4.001-1.312 6.863-5.062 6.863-9.474 0-5.522-4.478-10-10-10z"></path>
</symbol>
<symbol id="icon-paper-plane" viewBox="0 0 20 20">
<path d="M19.688 0.123c0.234 0.167 0.346 0.435 0.301 0.714l-2.857 17.143c-0.033 0.212-0.167 0.391-0.357 0.502-0.1 0.056-0.223 0.089-0.346 0.089-0.089 0-0.179-0.022-0.268-0.056l-5.056-2.065-2.701 3.292c-0.134 0.167-0.335 0.257-0.547 0.257-0.078 0-0.167-0.011-0.246-0.045-0.279-0.1-0.469-0.368-0.469-0.67v-3.895l9.643-11.819-11.931 10.324-4.408-1.808c-0.257-0.1-0.424-0.335-0.446-0.614-0.011-0.268 0.123-0.525 0.357-0.658l18.571-10.714c0.112-0.067 0.234-0.1 0.357-0.1 0.145 0 0.29 0.045 0.402 0.123z"></path>
</symbol>

</defs>
</svg>