<svg aria-hidden="true" style="position: absolute; width: 0; height: 0; overflow: hidden;" version="1.1" xmlns="http://www.w3.org/2000/svg" xmlns:xlink="http://www.w3.org/1999/xlink">
<defs>
<symbol id="icon-Vector-3" viewBox="0 0 32 32">
<path fill="#d41443" style="fill: var(--color1, #d41443)" d="M13.714 1.173c-2.542 0.674-3.050 2.866-3.050 15.007v14.164h12.032l-0.508-14.669c-0.508-15.344-1.186-16.524-8.473-14.501z"></path>
</symbol>
<symbol id="icon-Vector-4" viewBox="0 0 32 32">
<path fill="#d41443" style="fill: var(--color1, #d41443)" d="M11.405 2.129c-5.903 3.204-8.050 7.119-8.050 14.772 0 10.501 5.724 15.484 16.278 14.772 7.155-0.534 7.871-1.068 8.407-5.517s0.179-4.806-5.367-4.45c-5.724 0.534-5.903 0.178-5.903-5.695s0.358-6.229 5.545-5.695c4.293 0.356 5.903-0.356 6.619-3.026 0.358-1.78 0-4.272-1.073-5.339-2.504-2.492-11.806-2.492-16.457 0.178z"></path>
</symbol>
<symbol id="icon-Vector-5" viewBox="0 0 32 32">
<path fill="#d41443" style="fill: var(--color1, #d41443)" d="M4.866 3.869c-0.508 1.349-0.678 7.925-0.339 14.838l0.508 12.477h11.015c10.168 0 11.015-0.337 11.524-3.878 0.508-3.204-0.169-3.709-5.423-3.709-3.389 0-6.101-0.843-6.101-1.686 0-1.012 2.373-1.686 5.084-1.686 3.898 0 5.084-0.674 5.084-3.372s-1.186-3.372-5.084-3.372c-2.712 0-5.084-0.843-5.084-1.686 0-1.012 2.203-1.686 4.915-1.686 4.745 0 7.965-3.71 5.931-6.913-1.525-2.529-21.014-1.855-22.031 0.674z"></path>
</symbol>
<symbol id="icon-Vector-6" viewBox="0 0 32 32">
<path fill="#d41443" style="fill: var(--color1, #d41443)" d="M11.759 1.773c-5.903 2.314-8.229 6.407-8.408 13.883-0.179 12.815 5.009 17.264 18.425 16.018 5.188-0.356 6.082-1.246 6.082-4.983 0-3.916-0.715-4.45-5.724-3.916-4.293 0.356-5.903-0.178-6.797-3.026-1.61-5.517 1.789-9.967 7.513-9.967 3.399 0 5.188-1.068 5.545-3.382 1.252-5.695-7.871-8.365-16.636-4.628z"></path>
</symbol>
<symbol id="icon-Vector-7" viewBox="0 0 32 32">
<path fill="#d41443" style="fill: var(--color1, #d41443)" d="M3.352 1.005c-0.847 0.674-1.356 7.588-1.356 15.344v14.164l5.423-0.506c4.237-0.337 5.762-1.518 6.609-4.721l1.017-4.215 1.356 4.553c1.017 3.878 2.203 4.721 6.609 4.721 7.287 0 8.135-1.18 5.084-7.082-1.864-3.71-2.203-5.564-0.847-6.913 2.203-2.192 2.373-9.611 0.339-12.815-1.695-2.698-22.031-4.89-24.234-2.529zM17.249 10.11c0 1.855-0.678 3.372-1.695 3.372-0.847 0-1.695-1.518-1.695-3.372s0.847-3.372 1.695-3.372c1.017 0 1.695 1.518 1.695 3.372z"></path>
</symbol>
<symbol id="icon-Vector-8" viewBox="0 0 22 32">
<path fill="#d41443" style="fill: var(--color1, #d41443)" d="M1.603 2.715c-0.644 0.481-1.127 7.048-1.127 14.417v13.295h10.465c10.143 0 10.465-0.16 10.465-4.005 0-3.364-0.805-4.004-4.83-4.004-2.576 0-4.83-0.801-4.83-1.602 0-0.961 1.771-1.602 4.025-1.602 2.898 0 4.025-0.801 4.025-3.204s-1.127-3.204-4.025-3.204c-2.254 0-4.025-0.801-4.025-1.602 0-0.961 2.254-1.602 4.83-1.602 4.025 0 4.83-0.641 4.83-4.005 0-3.844-0.483-4.005-9.338-4.005-5.152 0-9.982 0.481-10.465 1.121z"></path>
</symbol>
<symbol id="icon-Vector-9" viewBox="0 0 32 32">
<path fill="#d41443" style="fill: var(--color1, #d41443)" d="M11.499 1.005c-3.050 0.843-10.846 23.269-9.321 26.978 1.356 3.372 8.982 3.035 11.015-0.506 1.525-2.867 1.695-2.867 4.745 0 3.898 3.372 12.371 3.878 12.371 0.674 0-1.012-1.695-7.756-3.898-14.669-3.389-11.129-4.406-12.646-7.965-12.983-2.372 0-5.423 0.169-6.948 0.506zM16.244 16.349c-0.508 1.686-0.847 0.675-0.847-2.023 0-2.866 0.339-4.047 0.847-3.035 0.339 1.18 0.339 3.541 0 5.058z"></path>
</symbol>
<symbol id="icon-Vector-10" viewBox="0 0 32 32">
<path fill="#d41443" style="fill: var(--color1, #d41443)" d="M2.907 1.915c-1.449 0.481-2.093 4.966-2.093 14.256v13.455h4.669c4.025 0 4.83-0.801 5.474-4.485 0.644-4.165 0.644-4.165 1.932-0.801 0.644 2.082 2.254 3.684 3.381 3.684 1.288 0 3.059-1.602 3.864-3.684 1.288-3.364 1.449-3.364 1.449 0.961 0.161 4.005 0.644 4.485 5.152 4.005l4.991-0.481 0.161-13.295c0.322-12.334 0.161-13.295-3.22-14.096-5.152-1.281-9.499 1.762-10.948 7.689l-1.127 5.286-1.771-5.606c-2.254-7.529-5.635-9.451-11.914-6.888z"></path>
</symbol>
<symbol id="icon-arrow" viewBox="0 0 19 32">
<path fill="none" stroke="#d41443" style="stroke: var(--color1, #d41443)" stroke-linejoin="round" stroke-linecap="round" stroke-miterlimit="4" stroke-width="6.4" d="M3.2 3.2l12.8 12.8-12.8 12.8"></path>
</symbol>
</defs>
</svg>

