<svg aria-hidden="true" style="position: absolute; width: 0; height: 0; overflow: hidden;" version="1.1" xmlns="http://www.w3.org/2000/svg" xmlns:xlink="http://www.w3.org/1999/xlink">
<defs>
<symbol id="icon-icon-house" viewBox="0 0 35 32">
<path fill="#d31342" style="fill: var(--color1, #d31342)" d="M34.473 15.38c0.269-0.269 0.435-0.64 0.435-1.049 0-0.474-0.222-0.896-0.568-1.168l-0.003-0.002-15.601-12.736c-0.342-0.265-0.777-0.425-1.25-0.425-0.489 0-0.938 0.171-1.291 0.457l0.004-0.003-15.654 13.382c-0.334 0.272-0.546 0.683-0.546 1.144 0 0.426 0.181 0.809 0.469 1.078l0.001 0.001 0.393 0.378c0.649 0.634 1.702 0.71 2.348 0.169l1.169-0.977v14.31c0 0.876 0.765 1.588 1.705 1.588h6.1c0.943 0 1.705-0.713 1.705-1.588v-10.010h7.782v10.007c-0 0.012-0 0.025-0 0.039 0 0.856 0.694 1.551 1.551 1.551 0.018 0 0.035-0 0.052-0.001l-0.003 0h6.467c0.94 0 1.702-0.71 1.702-1.588v-14.103s0.326 0.262 0.724 0.591c0.396 0.326 1.233 0.064 1.865-0.585l0.445-0.457z"></path>
</symbol>
</defs>
</svg>
