<svg aria-hidden="true" style="position: absolute; width: 0; height: 0; overflow: hidden;" version="1.1" xmlns="http://www.w3.org/2000/svg" xmlns:xlink="http://www.w3.org/1999/xlink">
<defs>
<symbol id="icon-arrowright" viewBox="0 0 31 32">
<path d="M0 0h30.567v32h-30.567z"></path>
</symbol>
<symbol id="icon-threedots" viewBox="0 0 133 32">
<path fill="#fff" style="fill: var(--color1, #fff)" d="M81.515 16c0 8.837-6.843 16-15.285 16s-15.285-7.163-15.285-16c0-8.837 6.843-16 15.285-16s15.285 7.163 15.285 16z"></path>
<path fill="#fff" style="fill: var(--color1, #fff)" d="M30.571 16c0 8.837-6.843 16-15.285 16s-15.285-7.163-15.285-16c0-8.837 6.843-16 15.285-16s15.285 7.163 15.285 16z"></path>
<path fill="#fff" style="fill: var(--color1, #fff)" d="M132.459 16c0 8.837-6.843 16-15.285 16s-15.285-7.163-15.285-16c0-8.837 6.843-16 15.285-16s15.285 7.163 15.285 16z"></path>
</symbol>
</defs>
</svg>
