<svg aria-hidden="true" style="position: absolute; width: 0; height: 0; overflow: hidden;" version="1.1"
  xmlns="http://www.w3.org/2000/svg" xmlns:xlink="http://www.w3.org/1999/xlink">
  <defs>

    <symbol id="icon-down_arrow_mobile" viewBox="0 0 53 32">
      <path fill="#fd9222" style="fill: var(--color1, #fd9222)"
        d="M29.19 20.979c-0.331 0.333-0.724 0.598-1.157 0.778s-0.898 0.273-1.367 0.273-0.934-0.093-1.367-0.273c-0.433-0.181-0.826-0.445-1.157-0.778l-16.284-16.32c-0.331-0.333-0.724-0.598-1.157-0.778s-0.898-0.273-1.367-0.273c-0.469 0-0.934 0.093-1.367 0.273s-0.827 0.445-1.157 0.778c-0.662 0.666-1.034 1.567-1.034 2.507s0.372 1.84 1.034 2.507l16.32 16.32c2 1.997 4.711 3.12 7.538 3.12s5.538-1.122 7.538-3.12l16.32-16.32c0.657-0.662 1.027-1.556 1.031-2.489 0.003-0.468-0.087-0.932-0.264-1.365s-0.438-0.827-0.767-1.159c-0.331-0.333-0.724-0.598-1.157-0.778s-0.898-0.273-1.367-0.273c-0.469 0-0.934 0.093-1.367 0.273s-0.827 0.445-1.157 0.778l-16.284 16.32z">
      </path>
    </symbol>
    <symbol id="icon-down_arrow_desktop_tablet" viewBox="0 0 56 32">
      <path fill="#fd9222" style="fill: var(--color1, #fd9222)"
        d="M30.605 21.134c-0.341 0.344-0.746 0.616-1.193 0.803s-0.926 0.282-1.41 0.282-0.963-0.096-1.41-0.282c-0.447-0.186-0.852-0.459-1.193-0.803l-16.793-16.83c-0.341-0.344-0.746-0.616-1.193-0.803s-0.926-0.282-1.41-0.282-0.963 0.096-1.41 0.282c-0.447 0.186-0.852 0.459-1.193 0.803-0.683 0.687-1.066 1.616-1.066 2.585s0.383 1.898 1.066 2.585l16.83 16.83c2.063 2.060 4.858 3.217 7.773 3.217s5.711-1.157 7.773-3.217l16.83-16.83c0.678-0.683 1.060-1.605 1.064-2.567 0.003-0.483-0.090-0.961-0.272-1.408s-0.451-0.853-0.791-1.196c-0.341-0.344-0.746-0.616-1.193-0.803s-0.926-0.282-1.41-0.282-0.963 0.096-1.41 0.282c-0.447 0.186-0.852 0.459-1.193 0.803l-16.793 16.83z">
      </path>
    </symbol>
    <symbol id="icon-hamburger_mobile" viewBox="0 0 32 32">
      <path stroke-linejoin="round" stroke-linecap="round" stroke-miterlimit="4" stroke-width="2.2857"
        d="M4 16h24M4 8h24M4 24h24"></path>
    </symbol>
    <symbol id="icon-hamburger_tablet" viewBox="0 0 45 32">
      <path stroke-linejoin="round" stroke-linecap="round" stroke-miterlimit="4" stroke-width="4"
        d="M3.2 16h38.4M3.2 3.2h38.4M3.2 28.8h38.4"></path>
    </symbol>
    <symbol id="icon-instagram_desktop_tablet" viewBox="0 0 32 32">
      <path stroke-linejoin="round" stroke-linecap="round" stroke-miterlimit="4" stroke-width="2.6667"
        d="M22.667 2.667h-13.333c-3.682 0-6.667 2.985-6.667 6.667v13.333c0 3.682 2.985 6.667 6.667 6.667h13.333c3.682 0 6.667-2.985 6.667-6.667v-13.333c0-3.682-2.985-6.667-6.667-6.667z">
      </path>
      <path stroke-linejoin="round" stroke-linecap="round" stroke-miterlimit="4" stroke-width="2.6667"
        d="M21.334 15.16c0.165 1.11-0.025 2.243-0.542 3.239s-1.334 1.803-2.336 2.307c-1.002 0.504-2.138 0.68-3.245 0.502s-2.131-0.701-2.924-1.494-1.316-1.816-1.494-2.924c-0.178-1.108-0.003-2.243 0.502-3.245s1.312-1.819 2.308-2.336 2.129-0.706 3.239-0.542c1.132 0.168 2.18 0.695 2.989 1.504s1.337 1.857 1.504 2.989z">
      </path>
      <path stroke-linejoin="round" stroke-linecap="round" stroke-miterlimit="4" stroke-width="2.6667"
        d="M23.333 8.667h0.013"></path>
    </symbol>
    <symbol id="icon-instagram_mobile" viewBox="0 0 32 32">
      <path stroke-linejoin="round" stroke-linecap="round" stroke-miterlimit="4" stroke-width="2.1818"
        d="M22.667 2.667h-13.333c-3.682 0-6.667 2.985-6.667 6.667v13.333c0 3.682 2.985 6.667 6.667 6.667h13.333c3.682 0 6.667-2.985 6.667-6.667v-13.333c0-3.682-2.985-6.667-6.667-6.667z">
      </path>
      <path stroke-linejoin="round" stroke-linecap="round" stroke-miterlimit="4" stroke-width="2.1818"
        d="M21.333 15.16c0.165 1.11-0.025 2.243-0.542 3.239s-1.334 1.803-2.336 2.308c-1.002 0.504-2.138 0.68-3.245 0.502s-2.131-0.701-2.924-1.494-1.316-1.816-1.494-2.924c-0.178-1.107-0.003-2.243 0.502-3.245s1.312-1.82 2.308-2.336c0.996-0.517 2.129-0.706 3.239-0.542 1.132 0.168 2.18 0.695 2.989 1.504s1.337 1.857 1.504 2.989z">
      </path>
      <path stroke-linejoin="round" stroke-linecap="round" stroke-miterlimit="4" stroke-width="2.1818"
        d="M23.333 8.667h0.015"></path>
    </symbol>
    <symbol id="icon-logo_desktop" viewBox="0 0 28 32">
      <path fill="none" stroke="#fd9222" style="stroke: var(--color1, #fd9222)" stroke-linejoin="round"
        stroke-linecap="round" stroke-miterlimit="4" stroke-width="2.6667"
        d="M20.301 23.88l-14.185-8.864M10.028 8.599l14.185 8.864M9.297 25.864l11.736-19.25M25.843 14.789c-3.040-1.899-4.234-3.384-2.278-6.592l-9.626-6.015-11.736 19.25 14.186 8.864 9.454-15.507z">
      </path>
    </symbol>
    <symbol id="icon-logo_tablet_mobile" viewBox="0 0 27 32">
      <path fill="none" stroke="#fd9222" style="stroke: var(--color1, #fd9222)" stroke-linejoin="round"
        stroke-linecap="round" stroke-miterlimit="4" stroke-width="2.7429"
        d="M20.111 23.88l-14.186-8.864M9.837 8.599l14.185 8.864M9.106 25.864l11.736-19.25M25.653 14.789c-3.040-1.899-4.234-3.384-2.278-6.592l-9.626-6.015-11.736 19.25 14.185 8.864 9.454-15.507z">
      </path>
    </symbol>
    <symbol id="icon-spoon" viewBox="0 0 32 32">
      <path fill="#fd9222" style="fill: var(--color1, #fd9222)"
        d="M15.373 13.835c-0.894-1.086-1.345-2.418-1.345-3.751 0-4.941 5.921-9.877 11.842-9.877 3.269 0 5.921 2.653 5.921 5.922 0 5.922-4.934 11.845-9.881 11.845-1.332 0-2.665-0.45-3.75-1.345l-14.581 14.584c-0.771 0.771-2.023 0.771-2.794 0s-0.771-2.024 0-2.795l14.587-14.584z">
      </path>
    </symbol>
    <symbol id="icon-chocolate" viewBox="0 0 32 32">
      <path fill="#000" style="fill: var(--color2, #000)"
        d="M13.511 0.472l8.602 8.613 0.091-0.091c0.18-0.176 0.422-0.276 0.674-0.279s0.496 0.092 0.68 0.264l0.998 0.998c0.349 0.349 0.36 0.88 0.095 1.25l-0.005 0.008-0.163 0.219 7.040 7.040c0.629 0.629 0.629 1.634 0 2.263l-10.777 10.777c-0.629 0.629-1.634 0.629-2.263 0l-5.082-5.082c-0.084 0.106-0.19 0.194-0.311 0.256s-0.253 0.099-0.389 0.106c-0.136 0.008-0.271-0.014-0.398-0.062s-0.242-0.123-0.338-0.22l-2.971-2.971c-0.176-0.18-0.276-0.421-0.279-0.674s0.092-0.496 0.264-0.68l0.007-0.008 0.088-0.087-8.602-8.602c-0.629-0.629-0.629-1.634 0-2.263l10.777-10.777c0.629-0.629 1.634-0.629 2.263 0v0.001zM21.033 10.163l-2.007-2.006c-0.063-0.065-0.139-0.117-0.222-0.152s-0.173-0.053-0.264-0.053c-0.091 0-0.18 0.018-0.264 0.053s-0.159 0.087-0.222 0.152l-4.091 4.091c-0.065 0.064-0.116 0.141-0.151 0.225s-0.053 0.175-0.053 0.266 0.018 0.182 0.053 0.266c0.035 0.084 0.086 0.161 0.151 0.225l1.999 1.999 0.697-0.697-1.789-1.789 3.669-3.68 1.793 1.799 0.701-0.701zM15.232 15.96l-2.005-2.005c-0.063-0.065-0.139-0.117-0.222-0.152s-0.173-0.053-0.264-0.053c-0.091 0-0.18 0.018-0.264 0.053s-0.159 0.087-0.222 0.152l-4.103 4.103c-0.274 0.263-0.274 0.697 0 0.971l2.002 2.002 0.704-0.704-1.794-1.787 3.68-3.669 1.787 1.786 0.699-0.698zM7.797 7.078l4.091 4.091c0.274 0.274 0.709 0.274 0.971-0.011l4.091-4.091c0.065-0.062 0.117-0.136 0.152-0.219s0.054-0.171 0.054-0.261h0.011c0-0.171-0.069-0.354-0.206-0.491l-4.091-4.091c-0.064-0.065-0.141-0.117-0.225-0.152s-0.175-0.053-0.266-0.053c-0.091 0-0.182 0.018-0.266 0.053s-0.161 0.087-0.225 0.152l-4.091 4.103c-0.274 0.263-0.274 0.697 0 0.971zM2.002 12.872l4.091 4.091c0.274 0.274 0.709 0.274 0.971 0l4.091-4.091c0.066-0.063 0.119-0.14 0.154-0.224s0.053-0.176 0.051-0.267h0.011c0-0.183-0.069-0.354-0.206-0.491l-4.091-4.091c-0.063-0.065-0.139-0.117-0.222-0.152s-0.173-0.053-0.264-0.053c-0.091 0-0.18 0.018-0.264 0.053s-0.159 0.087-0.222 0.152l-4.103 4.103c-0.274 0.263-0.274 0.697 0 0.971zM9.926 22.877l2.699 2.701 11.013-14.903-0.749-0.749-12.963 12.951z">
      </path>
      <path fill="#fd9222" style="fill: var(--color1, #fd9222)"
        d="M13.511 0.472l8.602 8.613 0.091-0.091c0.18-0.176 0.422-0.276 0.674-0.279s0.496 0.092 0.68 0.264l0.998 0.998c0.349 0.349 0.36 0.88 0.095 1.25l-0.005 0.008-0.163 0.219 7.040 7.040c0.629 0.629 0.629 1.634 0 2.263l-10.777 10.777c-0.629 0.629-1.634 0.629-2.263 0l-5.082-5.082c-0.084 0.106-0.19 0.194-0.311 0.256s-0.253 0.099-0.389 0.106c-0.136 0.008-0.271-0.014-0.398-0.062s-0.242-0.123-0.338-0.22l-2.971-2.971c-0.176-0.18-0.276-0.421-0.279-0.674s0.092-0.496 0.264-0.68l0.007-0.008 0.088-0.087-8.602-8.602c-0.629-0.629-0.629-1.634 0-2.263l10.777-10.777c0.629-0.629 1.634-0.629 2.263 0v0.001zM21.033 10.163l-2.007-2.006c-0.063-0.065-0.139-0.117-0.222-0.152s-0.173-0.053-0.264-0.053c-0.091 0-0.18 0.018-0.264 0.053s-0.159 0.087-0.222 0.152l-4.091 4.091c-0.065 0.064-0.116 0.141-0.151 0.225s-0.053 0.175-0.053 0.266 0.018 0.182 0.053 0.266c0.035 0.084 0.086 0.161 0.151 0.225l1.999 1.999 0.697-0.697-1.789-1.789 3.669-3.68 1.793 1.799 0.701-0.701zM15.232 15.96l-2.005-2.005c-0.063-0.065-0.139-0.117-0.222-0.152s-0.173-0.053-0.264-0.053c-0.091 0-0.18 0.018-0.264 0.053s-0.159 0.087-0.222 0.152l-4.103 4.103c-0.274 0.263-0.274 0.697 0 0.971l2.002 2.002 0.704-0.704-1.794-1.787 3.68-3.669 1.787 1.786 0.699-0.698zM7.797 7.078l4.091 4.091c0.274 0.274 0.709 0.274 0.971-0.011l4.091-4.091c0.065-0.062 0.117-0.136 0.152-0.219s0.054-0.171 0.054-0.261h0.011c0-0.171-0.069-0.354-0.206-0.491l-4.091-4.091c-0.064-0.065-0.141-0.117-0.225-0.152s-0.175-0.053-0.266-0.053c-0.091 0-0.182 0.018-0.266 0.053s-0.161 0.087-0.225 0.152l-4.091 4.103c-0.274 0.263-0.274 0.697 0 0.971zM2.002 12.872l4.091 4.091c0.274 0.274 0.709 0.274 0.971 0l4.091-4.091c0.066-0.063 0.119-0.14 0.154-0.224s0.053-0.176 0.051-0.267h0.011c0-0.183-0.069-0.354-0.206-0.491l-4.091-4.091c-0.063-0.065-0.139-0.117-0.222-0.152s-0.173-0.053-0.264-0.053c-0.091 0-0.18 0.018-0.264 0.053s-0.159 0.087-0.222 0.152l-4.103 4.103c-0.274 0.263-0.274 0.697 0 0.971zM9.926 22.877l2.699 2.701 11.013-14.903-0.749-0.749-12.963 12.951z">
      </path>
    </symbol>
    <symbol id="icon-close-button" viewBox="0 0 32 32">
      <path fill="none" stroke="#fff" style="stroke: var(--color1, #fff)" stroke-linejoin="round" stroke-linecap="round"
        stroke-miterlimit="4" stroke-width="2.2857" d="M22.667 9.333l-13.333 13.333M9.333 9.333l13.333 13.333"></path>
    </symbol>
    <symbol id="icon-dollar_sign" viewBox="0 0 32 32">
      <path fill="#fd9222" style="fill: var(--color1, #fd9222)"
        d="M16 0.762c-8.381 0-15.238 6.857-15.238 15.238s6.857 15.238 15.238 15.238c8.381 0 15.238-6.857 15.238-15.238s-6.857-15.238-15.238-15.238zM16 28.191c-6.705 0-12.19-5.486-12.19-12.19s5.486-12.191 12.19-12.191c6.705 0 12.19 5.486 12.19 12.191s-5.486 12.19-12.191 12.19z">
      </path>
      <path fill="#fd9222" style="fill: var(--color1, #fd9222)"
        d="M17.981 14.476h-3.962c-0.762 0-1.371-0.61-1.371-1.371s0.61-1.371 1.371-1.371h5.638c0.914 0 1.524-0.61 1.524-1.524s-0.61-1.524-1.524-1.524h-2.133v-1.371c0-0.914-0.61-1.524-1.524-1.524s-1.524 0.61-1.524 1.524v1.371h-0.457c-2.438 0-4.419 1.981-4.419 4.419s1.981 4.419 4.419 4.419h3.809c0.762 0 1.371 0.61 1.371 1.371s-0.61 1.371-1.371 1.371h-5.638c-0.914 0-1.524 0.61-1.524 1.524s0.61 1.524 1.524 1.524h2.286v1.371c0 0.914 0.61 1.524 1.524 1.524s1.524-0.61 1.524-1.524v-1.371h0.457c2.438 0 4.419-1.981 4.419-4.419s-1.981-4.419-4.419-4.419z">
      </path>
    </symbol>
    <symbol id="icon-twitter_mobile" viewBox="0 0 36 32">
      <path stroke-linejoin="round" stroke-linecap="round" stroke-miterlimit="4" stroke-width="2.6667"
        d="M34.074 2.667c-1.419 1.001-2.989 1.766-4.652 2.267-0.892-1.026-2.078-1.753-3.397-2.083s-2.708-0.247-3.978 0.238-2.361 1.348-3.125 2.473c-0.764 1.125-1.163 2.457-1.145 3.817v1.481c-2.604 0.068-5.183-0.51-7.51-1.681s-4.327-3.492-5.824-5.623c0 0-5.926 13.926 7.407 19.852-3.051 2.071-6.686 3.11-10.37 2.963 13.333 7.407 29.63 0 29.63-17.037-0.001-0.413-0.041-0.824-0.119-1.23 1.512-1.491 2.579-3.374 3.081-5.437z">
      </path>
    </symbol>
    <symbol id="icon-twitter_desktop_tablet" viewBox="0 0 32 32">
      <path stroke-linejoin="round" stroke-linecap="round" stroke-miterlimit="4" stroke-width="2.6667"
        d="M30.667 4c-1.277 0.901-2.691 1.589-4.187 2.040-0.803-0.923-1.87-1.578-3.057-1.875s-2.437-0.222-3.58 0.214c-1.143 0.436-2.125 1.213-2.812 2.226s-1.047 2.212-1.031 3.435v1.333c-2.343 0.061-4.665-0.459-6.759-1.513s-4.561-3.563-5.908-5.481c0 0-4.667 12.954 7.333 18.287-2.746 1.864-6.017 2.799-9.333 2.667 12 6.667 26.667 0 26.667-15.333-0.001-0.371-0.037-0.742-0.107-1.107 1.361-1.342 2.321-3.036 2.773-4.893z">
      </path>
    </symbol>
  </defs>
</svg>