<svg aria-hidden="true" style="position: absolute; width: 0; height: 0; overflow: hidden;" version="1.1" xmlns="http://www.w3.org/2000/svg" xmlns:xlink="http://www.w3.org/1999/xlink">
<defs>
<symbol id="mail-envelope" viewBox="0 0 20 20">
<path d="M16.667 3.333h-13.333c-0.889 0-1.667 0.778-1.667 1.667v10c0 0.889 0.778 1.667 1.667 1.667h13.333c0.889 0 1.667-0.778 1.667-1.667v-10c0-0.889-0.778-1.667-1.667-1.667zM16.333 6.889l-5.889 3.667c-0.222 0.222-0.667 0.222-0.889 0l-5.889-3.667c-0.176-0.124-0.289-0.327-0.289-0.556 0-0.375 0.304-0.678 0.678-0.678 0.146 0 0.281 0.046 0.391 0.124l-0.002-0.001 5.556 3.333 5.556-3.333c0.108-0.077 0.243-0.123 0.389-0.123 0.375 0 0.678 0.304 0.678 0.678 0 0.229-0.113 0.431-0.287 0.554l-0.002 0.001z"></path>
</symbol>
<symbol id="person" viewBox="0 0 20 20">
<path d="M10 10c1.841 0 3.333-1.492 3.333-3.333s-1.492-3.333-3.333-3.333v0c-1.841 0-3.333 1.492-3.333 3.333s1.492 3.333 3.333 3.333v0zM10 11.667c-2.222 0-6.667 1.111-6.667 3.333v0.889c0 0.444 0.333 0.778 0.889 0.778h11.556c0.556 0 0.889-0.333 0.889-0.889v-0.778c0-2.222-4.444-3.333-6.667-3.333z"></path>
</symbol>
<symbol id="phone" viewBox="0 0 20 20">
<path d="M15.556 12.333l-2-0.222c-0.556 0-1.111 0.111-1.333 0.444l-1.556 1.556c-2.222-1.111-4.111-3.111-5.222-5.333l1.444-1.556c0.333-0.333 0.556-0.778 0.444-1.222l-0.222-2.111c0-0.778-0.778-1.333-1.556-1.333h-1.444c-0.889 0-1.667 0.667-1.556 1.667 0.444 6.778 5.889 12.222 12.778 12.778 0.889 0 1.667-0.778 1.667-1.667v-1.333c0-0.889-0.667-1.556-1.444-1.667z"></path>
</symbol>
<symbol id="close-black" viewBox="0 0 20 20">
<path d="M16.667 4.564l-1.231-1.231-4.88 4.88-4.88-4.88-1.231 1.231 4.88 4.88-4.88 4.88 1.231 1.231 4.88-4.88 4.88 4.88 1.231-1.231-4.88-4.88 4.88-4.88z"></path>
</symbol>
<symbol id="icon-check" viewBox="0 0 21 20">
<path  d="M2.667 0h16c1.473 0 2.667 1.194 2.667 2.667v14.667c0 1.473-1.194 2.667-2.667 2.667h-16c-1.473 0-2.667-1.194-2.667-2.667v-14.667c0-1.473 1.194-2.667 2.667-2.667z"></path>
<path  d="M5.276 10.336l-0.092-0.088-1.378 1.305 4.855 4.631 10.199-9.729-1.369-1.306-8.83 8.416-3.385-3.229z"></path>
</symbol>
<symbol id="home" viewBox="0 0 20 20">
<path d="M20 11.875l-3.75-3.75v-5.625h-2.5v3.125l-3.75-3.75-10 10v0.625h2.5v6.25h6.25v-3.75h2.5v3.75h6.25v-6.25h2.5z"></path>
</symbol>

</defs>
</svg>
