<svg aria-hidden="true" style="position: absolute; width: 0; height: 0; overflow: hidden;" version="1.1" xmlns="http://www.w3.org/2000/svg" xmlns:xlink="http://www.w3.org/1999/xlink">
<defs>
<symbol id="icon-heart" viewBox="0 0 30 32">
<path d="M6.92 0.029c-0.172 0.008-0.323 0.034-0.336 0.050s-0.197 0.067-0.407 0.109c-0.214 0.038-0.39 0.088-0.39 0.105s-0.071 0.046-0.155 0.063c-0.201 0.038-0.533 0.147-0.558 0.189-0.013 0.017-0.117 0.063-0.239 0.101-0.117 0.042-0.222 0.084-0.231 0.101-0.017 0.038-0.386 0.218-0.449 0.218-0.025 0-0.046 0.021-0.046 0.042 0 0.025-0.067 0.075-0.147 0.113s-0.147 0.084-0.147 0.101c0 0.017-0.075 0.067-0.168 0.117-0.088 0.046-0.201 0.117-0.243 0.159s-0.147 0.13-0.226 0.193c-0.319 0.247-1.179 1.132-1.325 1.371-0.038 0.059-0.092 0.122-0.122 0.138s-0.055 0.059-0.055 0.092c0 0.034-0.025 0.075-0.059 0.092-0.029 0.017-0.088 0.096-0.126 0.168-0.038 0.075-0.084 0.138-0.101 0.138-0.021 0-0.067 0.092-0.109 0.21-0.042 0.113-0.092 0.21-0.117 0.21-0.021 0-0.059 0.055-0.080 0.126-0.025 0.067-0.059 0.126-0.080 0.126-0.017 0-0.055 0.088-0.084 0.193s-0.076 0.214-0.105 0.239c-0.025 0.029-0.080 0.159-0.122 0.289-0.042 0.134-0.088 0.243-0.109 0.243-0.017 0-0.055 0.117-0.084 0.26-0.029 0.147-0.071 0.277-0.092 0.289-0.017 0.013-0.067 0.18-0.105 0.377-0.038 0.193-0.084 0.361-0.101 0.373-0.071 0.050-0.138 1.057-0.138 2.076 0 1.011 0.071 2.068 0.138 2.118 0.013 0.013 0.059 0.218 0.101 0.461 0.038 0.239 0.088 0.445 0.109 0.461 0.021 0.013 0.063 0.138 0.088 0.281 0.029 0.147 0.067 0.264 0.080 0.264 0.017 0 0.055 0.113 0.084 0.256 0.034 0.138 0.084 0.277 0.113 0.31 0.034 0.029 0.059 0.075 0.059 0.096 0 0.088 0.147 0.495 0.197 0.545 0.029 0.029 0.055 0.092 0.055 0.134s0.025 0.105 0.059 0.138c0.034 0.034 0.080 0.134 0.105 0.231 0.029 0.096 0.071 0.197 0.101 0.226 0.034 0.029 0.092 0.143 0.134 0.256 0.042 0.109 0.088 0.197 0.105 0.197s0.055 0.075 0.084 0.168 0.071 0.168 0.092 0.168c0.021 0 0.067 0.071 0.105 0.155 0.034 0.088 0.088 0.176 0.122 0.193s0.059 0.063 0.059 0.092c0 0.034 0.034 0.096 0.075 0.138 0.038 0.038 0.109 0.151 0.151 0.252 0.042 0.096 0.096 0.176 0.117 0.176s0.055 0.046 0.075 0.105 0.055 0.105 0.071 0.105c0.021 0 0.071 0.067 0.113 0.147 0.046 0.080 0.096 0.147 0.117 0.147s0.055 0.046 0.075 0.105 0.071 0.117 0.105 0.13c0.034 0.017 0.063 0.050 0.063 0.084 0 0.029 0.046 0.088 0.105 0.126s0.105 0.088 0.105 0.113c0 0.025 0.038 0.084 0.080 0.134 0.046 0.046 0.168 0.176 0.273 0.285 0.105 0.113 0.193 0.214 0.193 0.226 0 0.017 0.231 0.252 0.512 0.524 0.285 0.273 0.667 0.646 0.856 0.826s0.394 0.365 0.461 0.407c0.063 0.046 0.185 0.151 0.268 0.235 0.080 0.088 0.168 0.159 0.197 0.159 0.025 0 0.084 0.046 0.126 0.096 0.042 0.055 0.117 0.122 0.168 0.147 0.050 0.029 0.117 0.076 0.147 0.101 0.096 0.092 0.323 0.243 0.356 0.243 0.021 0 0.059 0.038 0.088 0.084s0.080 0.084 0.113 0.084c0.034 0 0.075 0.025 0.092 0.050 0.038 0.063 0.155 0.138 0.298 0.201 0.050 0.021 0.092 0.055 0.092 0.076s0.075 0.071 0.168 0.113c0.092 0.042 0.168 0.088 0.168 0.101 0 0.017 0.096 0.071 0.21 0.126 0.117 0.055 0.21 0.113 0.21 0.13s0.084 0.063 0.189 0.109c0.105 0.042 0.189 0.088 0.189 0.101s0.101 0.067 0.222 0.126c0.117 0.055 0.226 0.113 0.239 0.126s0.101 0.059 0.197 0.105c0.101 0.046 0.18 0.096 0.18 0.113 0 0.013 0.096 0.059 0.21 0.096 0.117 0.038 0.21 0.084 0.21 0.101s0.122 0.076 0.273 0.13 0.273 0.113 0.273 0.126 0.084 0.050 0.193 0.080c0.105 0.029 0.21 0.080 0.239 0.105 0.063 0.059 0.478 0.235 0.558 0.235 0.034 0 0.059 0.017 0.059 0.034s0.092 0.067 0.21 0.109 0.21 0.092 0.21 0.109 0.038 0.042 0.084 0.055c0.084 0.021 0.084 0.059 0.084 4.366v4.345h2.139v-7.989h0.839v7.989h2.139v-4.362c0-4.332 0-4.362 0.084-4.362 0.046 0 0.084-0.017 0.084-0.034s0.092-0.067 0.21-0.109c0.113-0.042 0.21-0.088 0.21-0.105 0-0.013 0.113-0.063 0.256-0.105 0.138-0.042 0.277-0.101 0.302-0.13 0.029-0.025 0.159-0.084 0.294-0.126 0.13-0.042 0.239-0.088 0.239-0.105s0.117-0.076 0.264-0.13c0.143-0.050 0.268-0.109 0.281-0.126s0.105-0.063 0.21-0.105 0.21-0.096 0.231-0.122c0.025-0.029 0.109-0.076 0.189-0.109 0.080-0.029 0.18-0.088 0.222-0.126s0.147-0.092 0.239-0.122c0.092-0.029 0.168-0.071 0.168-0.088 0-0.021 0.071-0.067 0.155-0.101 0.088-0.038 0.168-0.084 0.18-0.101 0.013-0.021 0.109-0.076 0.222-0.126 0.109-0.050 0.197-0.105 0.197-0.122 0-0.021 0.067-0.067 0.147-0.105s0.147-0.084 0.147-0.105 0.067-0.063 0.151-0.092c0.084-0.034 0.172-0.092 0.201-0.126 0.025-0.038 0.113-0.101 0.197-0.138s0.164-0.101 0.18-0.134c0.013-0.034 0.046-0.063 0.076-0.063s0.13-0.067 0.222-0.147c0.092-0.080 0.18-0.147 0.193-0.147 0.017 0 0.101-0.067 0.189-0.147 0.092-0.080 0.176-0.147 0.193-0.147s0.113-0.084 0.218-0.189c0.109-0.105 0.21-0.189 0.226-0.189 0.021 0 0.243-0.201 0.499-0.453 0.256-0.247 0.646-0.625 0.868-0.835 0.222-0.214 0.403-0.403 0.403-0.424 0-0.017 0.050-0.080 0.117-0.138 0.063-0.059 0.189-0.197 0.281-0.31 0.092-0.109 0.206-0.239 0.252-0.289s0.117-0.143 0.159-0.21c0.088-0.13 0.185-0.256 0.294-0.369 0.038-0.042 0.071-0.092 0.071-0.113 0-0.025 0.034-0.067 0.076-0.096 0.038-0.029 0.109-0.13 0.155-0.222s0.096-0.172 0.113-0.18c0.017-0.008 0.063-0.080 0.101-0.159s0.084-0.143 0.105-0.143 0.038-0.025 0.038-0.055c0-0.029 0.034-0.092 0.076-0.138 0.038-0.042 0.109-0.155 0.155-0.247s0.096-0.176 0.113-0.189c0.013-0.013 0.059-0.105 0.101-0.21s0.101-0.214 0.13-0.243c0.029-0.029 0.055-0.080 0.055-0.109s0.038-0.096 0.080-0.147c0.042-0.050 0.105-0.176 0.134-0.277 0.029-0.105 0.067-0.189 0.084-0.189 0.013 0 0.059-0.105 0.101-0.231 0.038-0.126 0.084-0.231 0.101-0.231s0.059-0.105 0.088-0.231c0.029-0.126 0.067-0.231 0.084-0.231s0.063-0.147 0.109-0.327c0.042-0.176 0.088-0.331 0.105-0.344 0.034-0.029 0.164-0.612 0.164-0.738 0-0.055 0.017-0.101 0.038-0.101s0.059-0.185 0.088-0.411c0.029-0.222 0.067-0.415 0.088-0.428 0.017-0.013 0.055-0.424 0.084-0.91 0.038-0.688 0.038-1.061 0-1.657-0.029-0.419-0.063-0.776-0.084-0.788-0.017-0.013-0.059-0.197-0.088-0.411-0.029-0.21-0.067-0.386-0.080-0.386-0.017 0-0.063-0.18-0.109-0.398-0.042-0.218-0.088-0.398-0.105-0.398-0.013 0-0.059-0.122-0.105-0.273-0.042-0.151-0.088-0.273-0.105-0.273s-0.055-0.084-0.084-0.189-0.067-0.189-0.084-0.189c-0.021 0-0.067-0.096-0.109-0.21-0.042-0.117-0.088-0.21-0.105-0.21-0.013 0-0.059-0.084-0.096-0.189-0.042-0.105-0.088-0.189-0.109-0.189-0.017 0-0.055-0.059-0.088-0.13-0.029-0.075-0.096-0.18-0.151-0.239s-0.096-0.126-0.096-0.151c0-0.025-0.038-0.071-0.084-0.101s-0.084-0.080-0.084-0.113c0-0.034-0.038-0.080-0.084-0.105s-0.084-0.071-0.084-0.101c0-0.034-0.046-0.088-0.105-0.126s-0.105-0.088-0.105-0.113c0-0.025-0.117-0.155-0.26-0.294-0.147-0.138-0.34-0.327-0.436-0.415-0.092-0.092-0.18-0.168-0.197-0.168-0.013 0-0.071-0.042-0.126-0.096-0.159-0.147-0.289-0.243-0.436-0.315-0.076-0.038-0.138-0.080-0.138-0.096 0-0.021-0.071-0.067-0.155-0.109-0.088-0.038-0.176-0.092-0.201-0.122-0.021-0.025-0.13-0.080-0.239-0.122-0.113-0.042-0.201-0.088-0.201-0.101 0-0.017-0.092-0.063-0.21-0.105-0.113-0.042-0.21-0.092-0.21-0.113s-0.021-0.038-0.050-0.038c-0.076 0-0.637-0.18-0.663-0.21-0.029-0.038-0.65-0.168-0.797-0.168-0.071 0-0.126-0.021-0.126-0.042 0-0.025-0.491-0.042-1.384-0.042s-1.384 0.017-1.384 0.042c0 0.021-0.071 0.042-0.155 0.042-0.201 0-0.906 0.126-0.935 0.168-0.013 0.017-0.206 0.071-0.428 0.126-0.226 0.050-0.411 0.105-0.411 0.126 0 0.017-0.13 0.067-0.294 0.109-0.159 0.042-0.294 0.088-0.294 0.105s-0.126 0.071-0.281 0.126c-0.159 0.050-0.294 0.105-0.306 0.126-0.013 0.017-0.105 0.063-0.21 0.105s-0.197 0.088-0.21 0.105c-0.013 0.013-0.113 0.071-0.231 0.122-0.113 0.050-0.218 0.109-0.231 0.122-0.013 0.017-0.092 0.063-0.176 0.101-0.088 0.042-0.159 0.088-0.159 0.109 0 0.017-0.067 0.063-0.147 0.101s-0.147 0.088-0.147 0.109-0.055 0.059-0.117 0.084c-0.067 0.029-0.193 0.117-0.285 0.197-0.13 0.117-0.189 0.143-0.289 0.122-0.067-0.013-0.155-0.055-0.189-0.096-0.075-0.084-0.189-0.159-0.323-0.218-0.055-0.021-0.096-0.059-0.096-0.080 0-0.025-0.071-0.075-0.155-0.117-0.088-0.038-0.189-0.105-0.231-0.147s-0.105-0.075-0.138-0.075c-0.029 0-0.075-0.025-0.092-0.055-0.029-0.050-0.394-0.239-0.453-0.239-0.013 0-0.063-0.038-0.113-0.084-0.046-0.042-0.143-0.092-0.206-0.105-0.067-0.017-0.122-0.042-0.122-0.063 0-0.017-0.13-0.076-0.294-0.13-0.159-0.050-0.294-0.109-0.294-0.126s-0.126-0.063-0.281-0.105c-0.159-0.042-0.294-0.088-0.31-0.109-0.013-0.017-0.21-0.076-0.44-0.126-0.226-0.050-0.424-0.105-0.436-0.117-0.025-0.034-0.969-0.168-1.162-0.168-0.071 0-0.138-0.021-0.147-0.042-0.013-0.046-1.707-0.088-2.256-0.055zM8.845 2.059c0.268 0.025 0.495 0.063 0.507 0.080s0.117 0.042 0.231 0.059c0.361 0.050 0.692 0.126 0.692 0.155 0 0.017 0.071 0.042 0.159 0.055 0.235 0.046 0.612 0.164 0.663 0.214 0.025 0.025 0.126 0.071 0.222 0.105 0.092 0.029 0.172 0.067 0.172 0.084s0.075 0.055 0.168 0.084 0.201 0.088 0.247 0.13c0.046 0.042 0.126 0.088 0.185 0.101 0.059 0.017 0.143 0.063 0.189 0.109 0.050 0.042 0.164 0.117 0.256 0.168 0.096 0.050 0.172 0.101 0.172 0.117 0 0.013 0.063 0.050 0.138 0.084 0.071 0.029 0.155 0.080 0.176 0.105 0.050 0.055 0.302 0.235 0.331 0.235 0.013 0 0.113 0.092 0.226 0.205s0.243 0.218 0.294 0.231c0.050 0.017 0.092 0.046 0.092 0.067s0.063 0.071 0.138 0.109c0.071 0.038 0.147 0.092 0.164 0.117 0.038 0.059 0.738 0.063 0.78 0.004 0.017-0.025 0.109-0.080 0.21-0.122 0.096-0.046 0.176-0.096 0.176-0.113 0-0.021 0.055-0.063 0.117-0.096s0.193-0.134 0.285-0.222c0.197-0.185 0.415-0.348 0.474-0.348 0.021 0 0.046-0.029 0.063-0.063 0.013-0.034 0.071-0.084 0.13-0.105s0.105-0.059 0.105-0.084c0-0.021 0.088-0.080 0.201-0.13 0.109-0.050 0.206-0.105 0.218-0.126 0.013-0.017 0.096-0.067 0.189-0.105s0.185-0.092 0.21-0.122c0.021-0.029 0.143-0.088 0.264-0.13 0.117-0.042 0.218-0.088 0.218-0.101 0-0.017 0.113-0.063 0.252-0.105s0.252-0.088 0.252-0.105c0-0.017 0.172-0.075 0.377-0.13 0.206-0.050 0.377-0.109 0.377-0.126 0-0.013 0.176-0.063 0.39-0.101 0.21-0.042 0.394-0.088 0.407-0.105 0.046-0.059 0.814-0.126 1.418-0.126s1.262 0.059 1.309 0.117c0.013 0.017 0.151 0.063 0.315 0.105 0.159 0.042 0.302 0.088 0.315 0.109 0.013 0.017 0.126 0.063 0.252 0.105s0.252 0.096 0.273 0.122c0.025 0.029 0.117 0.088 0.21 0.134s0.176 0.092 0.189 0.105c0.038 0.038 0.185 0.126 0.285 0.168 0.050 0.021 0.092 0.059 0.092 0.084s0.034 0.055 0.076 0.071c0.038 0.017 0.143 0.096 0.231 0.176 0.369 0.348 0.726 0.713 0.805 0.818 0.046 0.063 0.117 0.151 0.159 0.197 0.038 0.042 0.071 0.092 0.071 0.109 0 0.021 0.046 0.088 0.105 0.155 0.055 0.063 0.126 0.172 0.155 0.239s0.067 0.122 0.080 0.122c0.013 0 0.059 0.084 0.096 0.189 0.042 0.105 0.088 0.189 0.109 0.189 0.017 0 0.067 0.113 0.109 0.252s0.088 0.252 0.105 0.252c0.017 0 0.055 0.101 0.080 0.218 0.029 0.122 0.067 0.231 0.084 0.243 0.038 0.025 0.168 0.637 0.168 0.797 0 0.067 0.017 0.126 0.038 0.134 0.096 0.034 0.172 1.556 0.084 1.724-0.059 0.109-0.206 0.235-0.277 0.239-0.025 0-0.076 0.025-0.105 0.055-0.029 0.034-0.168 0.092-0.306 0.134s-0.264 0.096-0.277 0.113c-0.013 0.021-0.164 0.075-0.336 0.122-0.172 0.050-0.319 0.105-0.331 0.122s-0.147 0.063-0.302 0.105c-0.159 0.042-0.285 0.092-0.285 0.109 0 0.021-0.034 0.038-0.071 0.038-0.113 0-0.658 0.134-0.684 0.172-0.013 0.017-0.302 0.071-0.65 0.126-0.344 0.050-0.637 0.109-0.65 0.122-0.021 0.029-1.233 0.168-1.455 0.168-0.076 0-0.138 0.017-0.138 0.038 0 0.017-0.159 0.046-0.357 0.063-0.604 0.050-1.153 0.147-1.22 0.214-0.038 0.034-0.088 0.063-0.117 0.063-0.076 0-0.277 0.101-0.277 0.138 0 0.017-0.042 0.050-0.092 0.071-0.147 0.063-0.243 0.134-0.398 0.294-0.239 0.252-0.264 0.277-0.264 0.319 0 0.025-0.034 0.080-0.076 0.126-0.084 0.088-0.218 0.537-0.218 0.726 0 0.067-0.021 0.13-0.050 0.138-0.034 0.013-0.055 0.545-0.076 2.001-0.017 1.090-0.046 1.996-0.067 2.009-0.021 0.017-0.059 0.067-0.084 0.109-0.101 0.189-0.528 0.147-0.633-0.059-0.029-0.059-0.055-0.243-0.055-0.411 0-0.164-0.017-0.302-0.038-0.302s-0.046-0.906-0.059-2.131c-0.017-2.026-0.050-2.621-0.155-2.693-0.017-0.013-0.055-0.092-0.080-0.18-0.029-0.084-0.071-0.155-0.092-0.155s-0.038-0.025-0.038-0.059c0-0.109-0.432-0.516-0.65-0.612-0.113-0.050-0.218-0.109-0.231-0.122-0.013-0.017-0.096-0.063-0.189-0.105-0.092-0.046-0.176-0.092-0.189-0.109-0.013-0.013-0.105-0.059-0.21-0.101s-0.197-0.088-0.21-0.105c-0.013-0.017-0.134-0.075-0.273-0.13s-0.26-0.113-0.273-0.126c-0.013-0.017-0.109-0.063-0.218-0.105-0.113-0.042-0.201-0.088-0.201-0.101 0-0.017-0.122-0.075-0.273-0.13s-0.273-0.113-0.273-0.13c0-0.013-0.084-0.059-0.189-0.105-0.105-0.042-0.189-0.088-0.189-0.101 0-0.017-0.105-0.071-0.231-0.122-0.126-0.055-0.231-0.109-0.231-0.126s-0.084-0.063-0.189-0.105c-0.105-0.046-0.189-0.096-0.189-0.113 0-0.021-0.084-0.075-0.189-0.122s-0.189-0.101-0.189-0.122-0.034-0.046-0.071-0.063c-0.113-0.034-0.235-0.122-0.298-0.205-0.029-0.038-0.080-0.071-0.113-0.071s-0.084-0.034-0.113-0.075c-0.063-0.080-0.185-0.168-0.294-0.201-0.042-0.017-0.075-0.042-0.075-0.063s-0.042-0.059-0.092-0.080c-0.143-0.063-0.26-0.138-0.298-0.201-0.017-0.025-0.059-0.050-0.092-0.050s-0.084-0.034-0.113-0.075c-0.029-0.038-0.143-0.117-0.252-0.172-0.113-0.055-0.201-0.113-0.201-0.13s-0.075-0.063-0.168-0.109c-0.092-0.042-0.168-0.092-0.168-0.109s-0.084-0.071-0.189-0.117c-0.105-0.046-0.189-0.101-0.189-0.117 0-0.021-0.080-0.071-0.176-0.113-0.101-0.042-0.197-0.101-0.222-0.126-0.021-0.029-0.109-0.075-0.189-0.105s-0.164-0.075-0.189-0.105c-0.021-0.025-0.13-0.084-0.239-0.126-0.113-0.042-0.201-0.088-0.201-0.101 0-0.017-0.092-0.063-0.21-0.105-0.113-0.042-0.21-0.088-0.21-0.105 0-0.013-0.151-0.071-0.336-0.126-0.185-0.059-0.336-0.117-0.336-0.134s-0.143-0.063-0.315-0.105-0.315-0.088-0.315-0.105-0.231-0.071-0.512-0.126c-0.285-0.055-0.524-0.109-0.537-0.126-0.013-0.013-0.281-0.063-0.596-0.105-0.319-0.042-0.579-0.088-0.579-0.105s-0.151-0.042-0.336-0.059c-0.327-0.029-0.449-0.080-0.319-0.13 0.038-0.013 0.067-0.050 0.067-0.075 0-0.029 0.042-0.092 0.096-0.138 0.050-0.050 0.205-0.214 0.34-0.365 0.138-0.151 0.268-0.277 0.294-0.277s0.109-0.067 0.189-0.147 0.164-0.147 0.193-0.147 0.063-0.029 0.080-0.063c0.013-0.034 0.096-0.096 0.193-0.134 0.092-0.042 0.168-0.088 0.168-0.109 0-0.017 0.067-0.063 0.147-0.096s0.147-0.075 0.147-0.096c0-0.021 0.134-0.080 0.294-0.13 0.164-0.050 0.294-0.109 0.294-0.126s0.155-0.063 0.348-0.105c0.189-0.042 0.352-0.092 0.365-0.113 0.071-0.101 1.342-0.143 2.093-0.071zM3.682 6.421c0.327 0.029 0.596 0.067 0.596 0.084 0 0.021 0.042 0.038 0.096 0.038 0.143-0.004 0.969 0.138 0.994 0.172 0.013 0.013 0.193 0.071 0.398 0.122 0.21 0.055 0.386 0.113 0.398 0.126 0.013 0.017 0.138 0.063 0.285 0.105 0.143 0.042 0.26 0.092 0.26 0.109 0 0.013 0.113 0.071 0.252 0.122s0.252 0.109 0.252 0.126c0 0.017 0.080 0.055 0.172 0.084 0.096 0.034 0.197 0.080 0.222 0.105 0.055 0.055 0.424 0.231 0.482 0.231 0.021 0 0.046 0.029 0.063 0.063 0.013 0.034 0.046 0.063 0.080 0.063 0.029 0 0.092 0.038 0.143 0.080 0.046 0.046 0.164 0.122 0.26 0.168 0.092 0.050 0.172 0.105 0.172 0.126s0.034 0.050 0.075 0.063c0.138 0.055 0.26 0.13 0.26 0.164 0 0.017 0.042 0.050 0.096 0.071 0.143 0.063 0.252 0.138 0.315 0.218 0.029 0.042 0.080 0.075 0.113 0.075s0.075 0.025 0.092 0.050c0.038 0.059 0.155 0.138 0.289 0.197 0.050 0.021 0.101 0.071 0.113 0.105 0.017 0.038 0.050 0.067 0.080 0.067s0.122 0.059 0.201 0.126 0.168 0.126 0.197 0.126 0.075 0.034 0.105 0.075 0.126 0.109 0.214 0.147c0.084 0.042 0.155 0.088 0.155 0.105s0.075 0.067 0.168 0.109c0.092 0.046 0.168 0.092 0.168 0.109s0.096 0.071 0.21 0.122c0.117 0.050 0.21 0.105 0.21 0.126 0 0.017 0.084 0.067 0.189 0.113 0.105 0.042 0.189 0.088 0.189 0.101 0 0.017 0.105 0.071 0.231 0.122 0.126 0.055 0.231 0.109 0.231 0.126s0.096 0.063 0.21 0.105c0.117 0.042 0.21 0.088 0.21 0.105s0.105 0.063 0.235 0.109c0.13 0.046 0.26 0.101 0.285 0.126 0.025 0.021 0.151 0.075 0.277 0.122 0.126 0.042 0.239 0.092 0.252 0.105 0.013 0.017 0.143 0.075 0.294 0.13s0.281 0.113 0.294 0.126c0.013 0.017 0.080 0.055 0.147 0.088 0.113 0.055 0.13 0.084 0.151 0.31 0.017 0.138 0.029 1.057 0.034 2.042 0.004 1.166 0.021 1.795 0.046 1.795s0.042 0.155 0.042 0.377c0 0.415 0.075 1.007 0.13 1.007 0.017 0 0.063 0.101 0.096 0.226 0.038 0.126 0.096 0.235 0.13 0.252 0.034 0.013 0.063 0.050 0.063 0.084 0 0.055 0.382 0.457 0.616 0.654 0.105 0.088 0.365 0.21 0.449 0.21 0.038 0 0.067 0.017 0.067 0.038 0 0.063 0.382 0.134 0.839 0.159 0.432 0.025 1.116-0.067 1.174-0.151 0.013-0.021 0.092-0.059 0.18-0.092 0.092-0.029 0.18-0.092 0.201-0.13 0.021-0.042 0.067-0.076 0.096-0.076 0.059 0 0.57-0.495 0.57-0.554 0-0.021 0.050-0.088 0.117-0.151 0.122-0.122 0.26-0.528 0.26-0.78 0-0.080 0.021-0.151 0.046-0.159 0.038-0.013 0.055-0.503 0.067-1.774 0.017-1.975 0.046-2.29 0.206-2.365 0.059-0.025 0.143-0.046 0.185-0.046 0.046 0 0.084-0.017 0.084-0.038 0-0.017 0.193-0.046 0.432-0.063 0.688-0.046 1.682-0.155 1.707-0.189 0.013-0.017 0.268-0.063 0.566-0.105 0.302-0.042 0.554-0.092 0.566-0.109s0.247-0.071 0.524-0.126 0.512-0.109 0.524-0.126c0.013-0.013 0.172-0.059 0.357-0.101s0.344-0.092 0.357-0.105c0.013-0.017 0.185-0.075 0.39-0.13 0.201-0.050 0.365-0.109 0.365-0.13 0-0.038 0.247-0.096 0.277-0.067s-0.076 0.365-0.113 0.365c-0.017 0-0.055 0.105-0.084 0.235s-0.076 0.256-0.101 0.285c-0.025 0.025-0.080 0.155-0.126 0.285-0.042 0.134-0.092 0.243-0.109 0.243-0.013 0-0.059 0.105-0.101 0.231-0.038 0.126-0.084 0.231-0.101 0.231s-0.059 0.075-0.088 0.168c-0.029 0.092-0.071 0.168-0.088 0.168s-0.063 0.092-0.105 0.21c-0.042 0.113-0.088 0.21-0.101 0.21-0.017 0-0.063 0.075-0.105 0.168s-0.092 0.168-0.113 0.168c-0.017 0-0.034 0.025-0.034 0.055s-0.034 0.092-0.071 0.138c-0.042 0.042-0.113 0.151-0.159 0.235-0.046 0.088-0.096 0.159-0.109 0.159-0.017 0-0.059 0.067-0.096 0.147s-0.088 0.147-0.105 0.147c-0.017 0-0.055 0.050-0.084 0.113s-0.088 0.138-0.134 0.172c-0.042 0.029-0.080 0.075-0.080 0.101s-0.042 0.088-0.092 0.143c-0.055 0.055-0.143 0.155-0.201 0.226-0.289 0.352-1.124 1.212-1.367 1.405-0.084 0.067-0.214 0.18-0.289 0.252-0.071 0.067-0.206 0.18-0.294 0.252-0.092 0.067-0.214 0.176-0.268 0.239-0.059 0.067-0.13 0.117-0.159 0.117-0.025 0-0.067 0.025-0.084 0.059s-0.105 0.101-0.189 0.151c-0.088 0.050-0.159 0.105-0.159 0.122 0 0.013-0.071 0.063-0.155 0.109-0.088 0.046-0.185 0.117-0.214 0.155-0.029 0.042-0.080 0.076-0.105 0.076-0.029 0-0.101 0.046-0.168 0.101-0.063 0.055-0.172 0.122-0.239 0.151-0.071 0.029-0.126 0.067-0.126 0.088s-0.084 0.076-0.189 0.122c-0.105 0.046-0.189 0.101-0.189 0.122s-0.084 0.071-0.189 0.117c-0.105 0.042-0.189 0.088-0.189 0.105 0 0.013-0.088 0.067-0.197 0.122-0.113 0.050-0.21 0.105-0.222 0.117-0.013 0.017-0.101 0.063-0.197 0.109-0.101 0.046-0.18 0.096-0.18 0.113 0 0.013-0.092 0.059-0.21 0.096-0.113 0.038-0.222 0.092-0.239 0.122-0.021 0.029-0.126 0.088-0.243 0.13-0.113 0.046-0.218 0.092-0.231 0.105-0.013 0.017-0.143 0.071-0.294 0.126s-0.281 0.113-0.294 0.13c-0.013 0.017-0.117 0.063-0.231 0.105-0.117 0.038-0.218 0.084-0.231 0.096-0.013 0.017-0.159 0.076-0.323 0.126-0.168 0.055-0.306 0.113-0.306 0.134s-0.025 0.038-0.059 0.038c-0.076 0-0.503 0.134-0.528 0.168-0.013 0.017-0.189 0.071-0.398 0.122-0.206 0.050-0.39 0.117-0.407 0.143-0.038 0.063-0.491 0.063-0.528 0.004-0.017-0.025-0.206-0.088-0.415-0.147-0.214-0.055-0.39-0.113-0.39-0.126 0-0.017-0.126-0.063-0.281-0.105-0.159-0.042-0.294-0.088-0.306-0.105s-0.159-0.071-0.323-0.122c-0.168-0.050-0.306-0.105-0.306-0.122s-0.113-0.063-0.252-0.105-0.252-0.092-0.252-0.109c0-0.017-0.13-0.076-0.294-0.126-0.159-0.050-0.294-0.109-0.294-0.126s-0.088-0.063-0.197-0.105c-0.113-0.042-0.21-0.088-0.222-0.101-0.013-0.017-0.122-0.076-0.239-0.13-0.122-0.059-0.222-0.117-0.222-0.134 0-0.013-0.055-0.038-0.122-0.055-0.063-0.013-0.155-0.059-0.197-0.096-0.046-0.038-0.18-0.117-0.298-0.172-0.122-0.059-0.222-0.117-0.222-0.134s-0.055-0.046-0.117-0.071c-0.067-0.021-0.147-0.067-0.18-0.105-0.034-0.034-0.143-0.101-0.239-0.151s-0.176-0.105-0.176-0.122c0-0.017-0.075-0.063-0.168-0.105-0.092-0.038-0.168-0.088-0.168-0.113 0-0.021-0.084-0.076-0.185-0.122s-0.193-0.113-0.21-0.151c-0.013-0.034-0.050-0.063-0.084-0.063-0.038 0-0.096-0.046-0.134-0.105s-0.092-0.105-0.117-0.105c-0.055 0-0.268-0.168-0.449-0.348-0.063-0.063-0.13-0.113-0.151-0.113-0.025 0-0.147-0.105-0.277-0.231s-0.247-0.231-0.264-0.231c-0.017 0-0.096-0.067-0.18-0.147-0.742-0.713-0.885-0.856-0.885-0.889 0-0.017-0.092-0.117-0.21-0.218-0.113-0.101-0.21-0.206-0.21-0.235 0-0.025-0.059-0.088-0.126-0.138-0.071-0.055-0.126-0.109-0.126-0.13 0-0.017-0.084-0.126-0.189-0.239-0.105-0.109-0.189-0.222-0.189-0.252 0-0.025-0.029-0.059-0.063-0.075-0.034-0.013-0.084-0.071-0.105-0.13s-0.059-0.105-0.080-0.105-0.059-0.059-0.088-0.126c-0.029-0.071-0.067-0.126-0.088-0.126-0.017 0-0.067-0.067-0.105-0.147s-0.080-0.147-0.096-0.147c-0.017 0-0.063-0.084-0.105-0.189-0.046-0.105-0.096-0.189-0.117-0.189s-0.059-0.059-0.080-0.126c-0.025-0.071-0.059-0.126-0.075-0.126s-0.063-0.096-0.105-0.21c-0.042-0.117-0.092-0.21-0.109-0.21s-0.067-0.096-0.109-0.21c-0.042-0.117-0.088-0.21-0.109-0.21-0.017 0-0.050-0.075-0.075-0.168s-0.063-0.168-0.084-0.168c-0.025 0-0.042-0.021-0.042-0.050 0-0.092-0.143-0.537-0.176-0.537-0.013 0-0.059-0.147-0.101-0.327-0.038-0.176-0.084-0.331-0.096-0.344-0.038-0.025-0.13-0.436-0.13-0.566 0-0.055-0.017-0.105-0.038-0.113-0.038-0.013-0.172-0.86-0.172-1.099 0-0.084-0.017-0.151-0.042-0.151s-0.042-0.285-0.042-0.776 0.017-0.776 0.042-0.776 0.042-0.113 0.042-0.252c0-0.331 0.122-1.191 0.172-1.208 0.021-0.008 0.038-0.050 0.038-0.092 0-0.134 0.034-0.134 1.25-0.038z"></path>
</symbol>
<symbol id="icon-milk" viewBox="0 0 21 32">
<path d="M2.333 0.144c-0.349 0.188-0.552 0.563-0.552 1.006 0.006 0.813 0.209 1.556 0.614 2.2l0.178 0.294-0.338 0.381c-0.381 0.425-0.473 0.581-0.644 1.088-0.141 0.412-0.154 1.162-0.031 1.581 0.429 1.437 1.854 2.269 3.247 1.9 0.473-0.125 0.762-0.282 1.203-0.657l0.375-0.312 0.35 0.175c0.196 0.1 0.528 0.243 0.742 0.324l0.381 0.138v0.7c0 1.106 0.227 1.763 0.81 2.356s1.498 0.9 2.291 0.762c0.564-0.1 1.117-0.381 1.491-0.762 0.584-0.594 0.811-1.251 0.811-2.356v-0.7l0.387-0.138c0.209-0.081 0.541-0.225 0.737-0.325l0.349-0.175 0.374 0.312c0.442 0.375 0.731 0.531 1.203 0.657 1.394 0.369 2.819-0.463 3.248-1.9 0.123-0.419 0.111-1.169-0.031-1.581-0.172-0.507-0.264-0.663-0.644-1.088l-0.337-0.381 0.178-0.294c0.405-0.643 0.608-1.388 0.614-2.2 0-0.444-0.204-0.819-0.553-1.006l-0.264-0.144h-15.926l-0.264 0.144zM17.069 2.099c0 0.019-0.179 0.313-0.399 0.662-0.651 1.032-0.626 1.256 0.239 2.17 0.314 0.331 0.602 0.662 0.645 0.737 0.233 0.463-0.234 1.038-0.749 0.919-0.124-0.026-0.394-0.243-0.787-0.631-0.786-0.775-1.056-0.863-1.658-0.518-0.694 0.399-1.578 0.806-2.008 0.924-0.608 0.175-0.817 0.307-0.976 0.637-0.129 0.256-0.141 0.363-0.141 1.363 0 1.231-0.050 1.431-0.399 1.6-0.252 0.125-0.301 0.125-0.553 0-0.35-0.169-0.399-0.369-0.399-1.6 0-1-0.013-1.107-0.135-1.363-0.166-0.324-0.374-0.462-0.982-0.637-0.528-0.15-1.308-0.493-1.738-0.774-0.405-0.262-0.762-0.363-1.043-0.313-0.185 0.038-0.369 0.181-0.86 0.662-0.405 0.394-0.694 0.625-0.817 0.65-0.509 0.119-0.976-0.463-0.742-0.919 0.043-0.075 0.332-0.406 0.644-0.737 0.865-0.913 0.89-1.137 0.239-2.169-0.221-0.349-0.399-0.643-0.399-0.662 0-0.025 2.929-0.037 6.508-0.037s6.508 0.013 6.508 0.037zM0.485 13.206c-0.314 0.212-0.485 0.512-0.485 0.844 0 0.225 3.119 16.925 3.229 17.275 0.055 0.194 0.282 0.425 0.522 0.55 0.227 0.125 0.387 0.125 6.809 0.125s6.582 0 6.809-0.125c0.239-0.125 0.467-0.356 0.522-0.55 0.111-0.35 3.229-17.050 3.229-17.275 0-0.331-0.172-0.631-0.485-0.844l-0.209-0.144h-19.732l-0.209 0.144zM18.695 15.481c-0.061 0.5-0.418 1.587-0.682 2.081-1.283 2.375-3.715 3.819-6.729 3.987-2.278 0.132-4.205-0.331-5.82-1.393-0.94-0.625-1.704-1.443-2.247-2.402l-0.018-0.035c-0.307-0.544-0.712-1.713-0.774-2.238l-0.043-0.356h16.356l-0.043 0.356zM4.39 21.919c2.634 1.775 6.569 2.244 9.885 1.169 1.105-0.356 2.235-0.956 3.18-1.687 0.276-0.219 0.294-0.219 0.264-0.082-0.019 0.081-0.381 1.994-0.804 4.244s-0.78 4.156-0.798 4.232l-0.031 0.143h-11.052l-0.031-0.143c-0.018-0.075-0.374-1.981-0.798-4.232s-0.786-4.163-0.804-4.243c-0.031-0.138-0.013-0.138 0.264 0.081 0.16 0.125 0.491 0.356 0.724 0.518z"></path>
</symbol>
<symbol id="icon-fruits" viewBox="0 0 32 32">
<path d="M29.626 21.411c-1.292-0.458-2.381-0.344-3.242 0.018 0.145-0.877 0.47-1.832 1.169-2.481 0.214-0.195 0.348-0.476 0.348-0.787 0-0.588-0.477-1.065-1.065-1.065-0.283 0-0.541 0.111-0.731 0.291l0-0c-1.229 1.14-1.706 2.749-1.874 4.081-0.307-0.142-0.662-0.25-1.035-0.308l-0.023-0.003 1.89-9.83c0.012-0.061 0.019-0.13 0.019-0.202 0-0.588-0.477-1.064-1.064-1.064-0 0-0 0-0 0h-0.205c0.094-0.5 0.141-0.997 0.138-1.47-0.016-1.994-0.903-3.495-2.374-4.017-1.409-0.5-2.589-0.35-3.507 0.066 0.146-0.976 0.495-2.063 1.282-2.794 0.214-0.195 0.348-0.476 0.348-0.787 0-0.588-0.477-1.065-1.065-1.065-0.283 0-0.541 0.111-0.731 0.291l0-0c-1.32 1.226-1.815 2.966-1.981 4.387-0.735-0.348-1.644-0.526-2.709-0.33-1.094-1.571-2.612-2.295-4.090-1.941-1.451 0.348-2.358 1.115-2.9 1.962-0.41-0.899-0.712-2.001-0.452-3.036 0.018-0.073 0.028-0.157 0.028-0.244 0-0.588-0.477-1.065-1.065-1.065-0.49 0-0.903 0.331-1.027 0.781l-0.002 0.007c-0.439 1.746 0.095 3.475 0.73 4.758-1.016 0.138-2.118 0.65-3.049 1.866-0.578 0.755-0.773 1.698-0.596 2.7-0.408 0.155-0.692 0.543-0.692 0.997 0 0.071 0.007 0.14 0.020 0.207l-0.001-0.007 3.809 19.809c0.096 0.502 0.535 0.864 1.046 0.864h15.237c0.51 0 0.949-0.362 1.046-0.864l0.037-0.195c0.287 0.198 0.595 0.364 0.927 0.486 1.267 0.472 2.447 0.278 3.044 0.118 0.316 0.084 0.795 0.179 1.364 0.179 0.506 0 1.084-0.075 1.68-0.297 2.36-0.879 3.615-3.839 3.596-6.178-0.015-1.904-0.865-3.34-2.275-3.839zM22.675 12.191c-0.491 4.705-4.452 7.909-9.971 7.909s-9.481-3.204-9.971-7.909h19.942zM16.032 7.515c0.184 0.349 0.536 0.567 0.931 0.567s0.746-0.218 0.931-0.567c0.203-0.312 0.46-0.572 0.76-0.771l0.010-0.006c0.629-0.408 1.35-0.46 2.203-0.157 0.851 0.301 0.952 1.518 0.956 2.027 0.004 0.463-0.064 0.961-0.19 1.453h-7.126c0.236-1.19 0.094-2.492-0.289-3.669 0.392 0.022 0.751 0.149 1.055 0.351l-0.008-0.005c0.31 0.205 0.567 0.465 0.763 0.767l0.006 0.010zM3.077 8.724c0.55-0.719 1.183-1.069 1.933-1.069h0.002c0.57 0 1.016 0.207 1.066 0.232 0.341 0.189 0.749 0.172 1.078-0.037 0.332-0.211 0.51-0.592 0.481-0.983-0.006-0.077-0.115-1.894 1.983-2.397 0.877-0.211 1.626 0.754 1.906 1.178 0.808 1.221 1.222 3.108 0.777 4.413h-9.348c-0.141-0.443-0.179-0.943 0.122-1.336zM5.852 29.87l-2.111-10.977c0.138 0.132 0.28 0.262 0.428 0.388 2.208 1.901 5.239 2.948 8.535 2.948s6.328-1.047 8.535-2.948c0.051-0.044 0.102-0.090 0.152-0.134l-0.431 2.243c-0.020 0.006-0.040 0.013-0.061 0.020-1.411 0.5-2.261 1.935-2.276 3.839-0.010 1.165 0.297 2.483 0.898 3.622l-0.192 0.998h-13.477zM27.562 29.432c-0.943 0.351-1.881 0.017-1.916 0.004-0.114-0.046-0.246-0.073-0.384-0.073s-0.27 0.027-0.391 0.076l0.007-0.003c-0.010 0.004-0.96 0.352-1.917-0.004-1.338-0.499-2.223-2.556-2.21-4.166 0.004-0.465 0.095-1.578 0.858-1.849 0.279-0.107 0.601-0.17 0.937-0.175l0.002-0c1.107 0 1.658 0.812 1.782 1.024 0.184 0.35 0.535 0.57 0.931 0.57s0.748-0.22 0.931-0.57c0.156-0.265 0.977-1.468 2.721-0.849 0.763 0.271 0.854 1.383 0.858 1.85 0.013 1.609-0.872 3.667-2.21 4.165z"></path>
</symbol>
<symbol id="icon-arrow" viewBox="0 0 26 32">
<path fill="none" stroke="#d41443" style="stroke: var(--color1, #d41443)" stroke-linejoin="round" stroke-linecap="round" stroke-miterlimit="4" stroke-width="6.4" d="M3.542 3.2l16.826 12.8-16.826 12.8"></path>
</symbol>
<symbol id="icon-modal-logo_how-its-made" viewBox="0 0 127 32">
<path fill="#fff" style="fill: var(--color1, #fff)" d="M31.36 16.32c0 8.66-6.877 15.68-15.36 15.68s-15.36-7.020-15.36-15.68c0-8.66 6.877-15.68 15.36-15.68s15.36 7.020 15.36 15.68z"></path>
<path fill="#d41443" style="fill: var(--color2, #d41443)" d="M11.849 0.561c-7.405 2.243-11.849 8.074-11.849 15.442 0 6.022 3.091 11.277 8.179 13.904 2.64 1.345 3.027 0.384 0.579-1.474-1.738-1.409-2.061-2.050-2.061-4.421 0-1.666-0.386-3.011-0.966-3.524-1.158-0.961-1.288-3.46-0.128-4.357 0.45-0.384 0.901-1.666 0.965-2.819 0.323-4.228 4.895-8.201 9.467-8.201s9.144 3.972 9.466 8.201c0.064 1.153 0.515 2.435 0.966 2.819 1.158 0.897 1.030 3.396-0.129 4.357-0.579 0.513-0.966 1.858-0.966 3.524 0 2.371-0.321 3.012-2.060 4.421-2.705 2.115-1.932 2.883 1.094 1.025 4.251-2.627 7.406-8.33 7.406-13.391 0-10.124-10.561-18.325-19.964-15.506z"></path>
<path fill="#d41443" style="fill: var(--color2, #d41443)" d="M12.687 7.994c-1.16 0.513-2.125 1.154-2.125 1.538 0 0.705 3.478 1.987 5.474 1.987s5.474-1.281 5.474-1.987c0-0.768-3.993-2.499-5.603-2.499-0.644 0.064-2.125 0.448-3.22 0.961zM45.851 11.326c-0.966 0.256-1.158 1.089-1.158 5.702v5.382h4.572l-0.193-5.574c-0.193-5.83-0.451-6.28-3.22-5.51zM53.386 11.646c-2.125 1.154-2.898 2.563-2.898 5.318 0 3.78 2.061 5.574 5.86 5.318 2.576-0.192 2.833-0.385 3.027-1.987s0.064-1.73-1.932-1.602c-2.061 0.192-2.125 0.064-2.125-2.051s0.129-2.243 1.997-2.050c1.545 0.128 2.125-0.128 2.382-1.089 0.129-0.641 0-1.538-0.387-1.923-0.901-0.897-4.25-0.897-5.924 0.064zM61.050 11.71c-0.194 0.513-0.258 3.012-0.129 5.638l0.193 4.742h4.186c3.864 0 4.186-0.128 4.379-1.474 0.193-1.217-0.064-1.409-2.060-1.409-1.288 0-2.319-0.32-2.319-0.641 0-0.385 0.902-0.641 1.932-0.641 1.481 0 1.932-0.256 1.932-1.281s-0.451-1.281-1.932-1.281c-1.030 0-1.932-0.32-1.932-0.641 0-0.385 0.837-0.641 1.868-0.641 1.804 0 3.027-1.409 2.254-2.627-0.58-0.961-7.985-0.705-8.371 0.256zM73.993 11.518c-2.125 0.833-2.962 2.307-3.027 4.998-0.065 4.613 1.803 6.215 6.633 5.766 1.868-0.128 2.189-0.448 2.189-1.794 0-1.409-0.257-1.602-2.061-1.409-1.546 0.128-2.125-0.064-2.447-1.089-0.58-1.987 0.644-3.588 2.705-3.588 1.224 0 1.868-0.384 1.996-1.217 0.451-2.051-2.833-3.011-5.989-1.666zM81.914 11.262c-0.323 0.256-0.515 2.883-0.515 5.83v5.382l2.060-0.192c1.61-0.128 2.19-0.577 2.512-1.795l0.386-1.602 0.515 1.73c0.387 1.474 0.837 1.795 2.512 1.795 2.769 0 3.091-0.449 1.932-2.691-0.708-1.41-0.837-2.115-0.322-2.627 0.837-0.833 0.902-3.652 0.129-4.87-0.644-1.025-8.371-1.858-9.208-0.961zM87.194 14.722c0 0.705-0.257 1.281-0.644 1.281-0.322 0-0.644-0.576-0.644-1.281s0.322-1.282 0.644-1.282c0.387 0 0.644 0.577 0.644 1.282zM93.441 11.326c-0.258 0.192-0.451 2.819-0.451 5.766v5.318h4.186c4.057 0 4.186-0.064 4.186-1.602 0-1.346-0.322-1.602-1.932-1.602-1.030 0-1.932-0.32-1.932-0.641 0-0.385 0.708-0.641 1.61-0.641 1.159 0 1.61-0.321 1.61-1.282s-0.451-1.281-1.61-1.281c-0.902 0-1.61-0.32-1.61-0.641 0-0.384 0.902-0.641 1.932-0.641 1.61 0 1.932-0.256 1.932-1.602 0-1.538-0.193-1.602-3.735-1.602-2.061 0-3.992 0.192-4.186 0.448zM106.45 11.262c-1.16 0.32-4.122 8.842-3.542 10.252 0.515 1.281 3.413 1.153 4.186-0.192 0.579-1.089 0.644-1.089 1.803 0 1.482 1.281 4.701 1.474 4.701 0.256 0-0.384-0.644-2.947-1.482-5.574-1.288-4.228-1.674-4.805-3.027-4.933-0.902 0-2.061 0.064-2.64 0.192zM108.253 17.092c-0.193 0.641-0.322 0.256-0.322-0.769 0-1.089 0.129-1.538 0.322-1.153 0.129 0.448 0.129 1.345 0 1.922zM115.723 11.326c-0.58 0.192-0.837 1.986-0.837 5.702v5.382h1.868c1.61 0 1.932-0.321 2.189-1.795 0.257-1.666 0.257-1.666 0.772-0.32 0.258 0.833 0.902 1.474 1.352 1.474 0.515 0 1.224-0.641 1.546-1.474 0.515-1.346 0.58-1.346 0.58 0.384 0.065 1.602 0.257 1.795 2.061 1.602l1.996-0.192 0.065-5.318c0.129-4.933 0.064-5.318-1.288-5.638-2.061-0.512-3.799 0.705-4.379 3.076l-0.451 2.115-0.708-2.243c-0.902-3.012-2.254-3.78-4.765-2.755zM9.016 11.967c-0.193 0.256-0.387 1.089-0.387 1.922 0 1.474 0.064 1.474 7.406 1.474 7.341 0 7.405 0 7.405-1.474 0-2.179-0.579-2.435-2.64-1.409-2.319 1.217-7.213 1.217-9.531 0-1.030-0.513-1.997-0.705-2.254-0.513zM7.148 17.669c-1.030 1.089 0.708 1.538 5.731 1.538h5.409v2.243c0 1.217 0.322 2.243 0.644 2.243 0.386 0 0.644-0.961 0.644-2.179 0-2.115 0.129-2.243 2.576-2.435 1.416-0.128 2.576-0.512 2.576-0.832 0-0.705-16.872-1.282-17.581-0.577z"></path>
<path fill="#d41443" style="fill: var(--color2, #d41443)" d="M8.629 23.308c0 3.524 1.224 4.229 7.406 4.229s7.405-0.705 7.405-4.229c0-1.538-0.322-2.179-0.966-2.179-0.579 0-0.965 0.577-0.965 1.538 0 3.588-4.895 3.908-5.603 0.384-0.322-1.858-0.515-1.922-3.799-1.922h-3.478v2.179zM12.622 30.548c0.387 2.051 6.955 1.859 6.955-0.128 0-0.705-0.837-0.961-3.606-0.961-3.027 0-3.542 0.192-3.348 1.089z"></path>
</symbol>
</defs>
</svg>
