<svg width="40" height="40" fill="none" xmlns="http://www.w3.org/2000/svg"><g clip-path="url(#clip0)"><path d="M39.3152 7.15454c-.3641-3.41125-3.0582-6.10596-6.4697-6.46973-8.5553-.91308-17.1357-.91308-25.69065 0C3.74329 1.0489 1.04889 3.7433.68481 7.15454c-.91308 8.55496-.91308 17.13566 0 25.69066.36408 3.4115 3.05848 6.1059 6.46973 6.47 8.55496.9131 17.13566.9131 25.69096 0 3.4115-.3641 6.1056-3.0585 6.4697-6.47.9131-8.555.9131-17.1354 0-25.69066z" fill="url(#paint0_radial)"/><path d="M37.1394 8.60117c-.3229-3.02704-2.7136-5.4181-5.741-5.74128-7.5915-.80993-15.2057-.80993-22.79723 0-3.02704.32318-5.4181 2.71424-5.74128 5.74128-.80993 7.59153-.80993 15.20573 0 22.79693.32318 3.0273 2.71424 5.4184 5.74128 5.7413 7.59153.8102 15.20573.8102 22.79693 0 3.0273-.3229 5.4184-2.714 5.7413-5.7413.8102-7.5912.8102-15.2054 0-22.79693z" fill="url(#paint1_linear)"/><path d="M.5996 32.0161c.02748.2765.05586.553.08546.8295.36407 3.4112 3.05847 6.1056 6.47003 6.4697 8.55501.9131 17.13561.9131 25.69061 0 3.4116-.3641 6.1057-3.0585 6.4697-6.4697.0296-.2765.058-.553.0858-.8295H.5996z" fill="url(#paint2_linear)"/><path d="M39.315 32.8453c.4907-4.5969.7172-9.2011.6805-13.8046l-9.143-9.14311c-1.1423-1.30402-2.8107-2.11792-4.7711-2.18842-4.0317-.14526-8.0762-.13794-12.1085.00061-3.349.11536-5.69092 2.36632-6.2915 5.67472-.1059.5841-.16938 1.1759-.25269 1.7642v9.6991c.04608.3144.11383.6272.13489.9433.13428 2.0124.9613 3.736 2.28546 4.9021l9.30424 9.3039c4.566.032 9.1323-.195 13.692-.6818 3.4115-.3641 6.1056-3.0585 6.4697-6.47z" fill="url(#paint3_linear)"/><path d="M39.3154 32.8457c-.3638 3.411-3.0588 6.106-6.4698 6.4697-4.559.4865-9.1262.7138-13.6917.6818L9.86377 30.707c1.07693.9427 2.48073 1.5168 4.10983 1.5781 4.0313.1514 8.0768.1474 12.1081.0021 3.6463-.1318 6.2848-2.8305 6.3986-6.4767.1215-3.8715.1215-7.753 0-11.6245-.0518-1.6821-.6423-3.1622-1.6214-4.28219l9.1373 9.13729c.036 4.6029-.1904 9.2077-.6808 13.8046z" fill="url(#paint4_linear)"/><path d="M24.72 15.6688c-1.1713-1.2754-2.8519-2.0755-4.7199-2.0755-3.5382 0-6.4068 2.8686-6.4068 6.4068 0 1.868.8001 3.5486 2.0755 4.7199l14.8233 14.8233c.7846-.0684 1.5692-.1444 2.3532-.228 3.4115-.3641 6.1059-3.0585 6.47-6.47.0836-.784.1596-1.5686.228-2.3532L24.72 15.6688z" fill="url(#paint5_linear)"/><path d="M39.9227 24.3089l-11.93-11.9296c-.2783-.3653-.7168-.6024-1.2115-.6024-.8417 0-1.5244.6823-1.5244 1.5243 0 .4947.2372.9332.6025 1.2116l13.8501 13.8504c.0939-1.3511.1651-2.7027.2133-4.0543z" fill="url(#paint6_linear)"/><path d="M7.42871 15.1487c.08331-.5883.14679-1.1801.25269-1.7642.60028-3.3084 2.9425-5.55936 6.2915-5.67472 4.0323-.13855 8.0768-.14587 12.1085-.00061 3.645.13123 6.2847 2.83023 6.3986 6.47643.1211 3.8718.1211 7.753 0 11.6248-.1139 3.6462-2.7527 6.3449-6.3983 6.4764-4.0317.1456-8.0771.1492-12.1085-.0021-3.6456-.1371-6.16577-2.8421-6.4096-6.4939-.02106-.3158-.08881-.6289-.13489-.9433v-9.6988zM20.0032 30.1259c1.8451 0 3.692.0552 5.5346-.0129 2.8891-.1071 4.6662-1.8313 4.7336-4.7177.0836-3.5965.0836-7.1978 0-10.7946-.0674-2.8858-1.8457-4.65032-4.7336-4.71166-3.6654-.07751-7.3349-.0769-11.0003 0-2.8659.06012-4.64816 1.78896-4.72598 4.64296a201.50564 201.50564 0 000 10.9323c.07782 2.8537 1.86008 4.5425 4.72628 4.6487 1.8194.0678 3.6435.0129 5.4654.0129z" fill="url(#paint7_linear)"/><path d="M7.42871 15.1487c.08331-.5883.14679-1.1801.25269-1.7642.60028-3.3084 2.9425-5.55936 6.2915-5.67472 4.0323-.13855 8.0768-.14587 12.1085-.00061 3.645.13123 6.2847 2.83023 6.3986 6.47643.1211 3.8718.1211 7.753 0 11.6248-.1139 3.6462-2.7527 6.3449-6.3983 6.4764-4.0317.1456-8.0771.1492-12.1085-.0021-3.6456-.1371-6.16577-2.8421-6.4096-6.4939-.02106-.3158-.08881-.6289-.13489-.9433v-9.6988zM20.0032 30.1259c1.8451 0 3.692.0552 5.5346-.0129 2.8891-.1071 4.6662-1.8313 4.7336-4.7177.0836-3.5965.0836-7.1978 0-10.7946-.0674-2.8858-1.8457-4.65032-4.7336-4.71166-3.6654-.07751-7.3349-.0769-11.0003 0-2.8659.06012-4.64816 1.78896-4.72598 4.64296a201.50564 201.50564 0 000 10.9323c.07782 2.8537 1.86008 4.5425 4.72628 4.6487 1.8194.0678 3.6435.0129 5.4654.0129z" fill="#fff"/><path d="M19.9996 13.5933c-3.5382 0-6.4068 2.8683-6.4068 6.4065 0 3.5385 2.8686 6.4069 6.4068 6.4069 3.5385 0 6.4069-2.8684 6.4069-6.4069 0-3.5382-2.8684-6.4065-6.4069-6.4065zm0 10.6076c-2.3202 0-4.201-1.8808-4.201-4.2011 0-2.3202 1.8808-4.201 4.201-4.201 2.3203 0 4.2011 1.8808 4.2011 4.201 0 2.3203-1.8808 4.2011-4.2011 4.2011zM28.3047 13.3012c0 .8417-.6823 1.5241-1.524 1.5241s-1.5244-.6824-1.5244-1.5241c0-.842.6827-1.5243 1.5244-1.5243s1.524.6823 1.524 1.5243z" fill="#fff"/></g><defs><linearGradient id="paint1_linear" x1="15.3414" y1="17.3794" x2="-52.4233" y2="-20.7382" gradientUnits="userSpaceOnUse"><stop stop-color="#A1B5D8" stop-opacity="0"/><stop offset=".3094" stop-color="#90A2BD" stop-opacity=".3098"/><stop offset=".7554" stop-color="#7C8B9C" stop-opacity=".75686"/><stop offset="1" stop-color="#748290"/></linearGradient><linearGradient id="paint2_linear" x1="20.0003" y1="35.31" x2="20.0003" y2="41.545" gradientUnits="userSpaceOnUse"><stop stop-color="#FAE100" stop-opacity="0"/><stop offset=".3068" stop-color="#FCA800" stop-opacity=".30588"/><stop offset=".6275" stop-color="#FE7300" stop-opacity=".62745"/><stop offset=".8685" stop-color="#FF5200" stop-opacity=".86667"/><stop offset="1" stop-color="#FF4500"/></linearGradient><linearGradient id="paint3_linear" x1="17.7242" y1="17.6679" x2="7.82487" y2="7.76858" gradientUnits="userSpaceOnUse"><stop stop-color="#833AB4" stop-opacity="0"/><stop offset="1" stop-color="#833AB4"/></linearGradient><linearGradient id="paint4_linear" x1="27.4142" y1="36.5852" x2="22.4733" y2="13.2922" gradientUnits="userSpaceOnUse"><stop stop-color="#833AB4" stop-opacity="0"/><stop offset="1" stop-color="#833AB4"/></linearGradient><linearGradient id="paint5_linear" x1="29.2943" y1="29.2943" x2="9.44864" y2="9.44863" gradientUnits="userSpaceOnUse"><stop stop-color="#833AB4" stop-opacity="0"/><stop offset="1" stop-color="#833AB4"/></linearGradient><linearGradient id="paint6_linear" x1="30.7663" y1="17.2863" x2="24.2038" y2="10.7237" gradientUnits="userSpaceOnUse"><stop stop-color="#833AB4" stop-opacity="0"/><stop offset="1" stop-color="#833AB4"/></linearGradient><linearGradient id="paint7_linear" x1="27.9419" y1="12.1134" x2="11.761" y2="28.2943" gradientUnits="userSpaceOnUse"><stop stop-color="#833AB4"/><stop offset=".0922" stop-color="#9C3495"/><stop offset=".2927" stop-color="#DC2546"/><stop offset=".392" stop-color="#FD1D1D"/><stop offset=".5589" stop-color="#FC6831"/><stop offset=".6887" stop-color="#FC9B40"/><stop offset=".7521" stop-color="#FCAF45"/><stop offset=".7806" stop-color="#FDB750"/><stop offset=".8656" stop-color="#FECB6A"/><stop offset=".9415" stop-color="#FFD87A"/><stop offset="1" stop-color="#FFDC80"/></linearGradient><radialGradient id="paint0_radial" cx="0" cy="0" r="1" gradientUnits="userSpaceOnUse" gradientTransform="translate(8.19977 34.9568) scale(44.113)"><stop stop-color="#FAE100"/><stop offset=".0544" stop-color="#FADC04"/><stop offset=".1167" stop-color="#FBCE0E"/><stop offset=".1829" stop-color="#FCB720"/><stop offset=".2514" stop-color="#FE9838"/><stop offset=".3054" stop-color="#FF7950"/><stop offset=".4922" stop-color="#FF1C74"/><stop offset="1" stop-color="#6C1CD1"/></radialGradient><clipPath id="clip0"><path fill="#fff" d="M0 0h40v40H0z"/></clipPath></defs></svg>