<svg width="44" height="44" viewBox="0 0 44 44" fill="none" xmlns="http://www.w3.org/2000/svg">
<path d="M44 22C44 28.0751 41.5376 33.5751 37.5564 37.5563C33.5751 41.5375 28.0751 44 22 44C15.9249 44 10.4249 41.5375 6.44365 37.5563C2.46243 33.5751 0 28.0751 0 22C0 15.9248 2.46243 10.4248 6.44365 6.44362C10.4249 2.4624 15.9249 -3.05176e-05 22 -3.05176e-05C28.0751 -3.05176e-05 33.5751 2.4624 37.5564 6.44362C41.5376 10.4248 44 15.9248 44 22Z" fill="white"/>
<g clip-path="url(#clip0)">
<path d="M31.9804 17.8801C31.9336 16.8174 31.7617 16.0868 31.5155 15.4537C31.2616 14.7818 30.8709 14.1801 30.359 13.68C29.8589 13.1721 29.2533 12.7774 28.5891 12.5274C27.9524 12.2813 27.2256 12.1094 26.1629 12.0626C25.0923 12.0118 24.7524 12 22.0371 12C19.3217 12 18.9818 12.0118 17.9152 12.0586C16.8525 12.1055 16.1219 12.2775 15.489 12.5235C14.8169 12.7774 14.2153 13.1681 13.7151 13.68C13.2072 14.1801 12.8127 14.7857 12.5626 15.4499C12.3164 16.0868 12.1446 16.8134 12.0977 17.8761C12.0469 18.9467 12.0351 19.2866 12.0351 22.002C12.0351 24.7173 12.0469 25.0572 12.0937 26.1239C12.1406 27.1865 12.3126 27.9171 12.5588 28.5502C12.8127 29.2221 13.2072 29.8238 13.7151 30.3239C14.2153 30.8318 14.8209 31.2265 15.485 31.4765C16.1219 31.7226 16.8485 31.8945 17.9114 31.9413C18.9779 31.9883 19.3179 31.9999 22.0333 31.9999C24.7486 31.9999 25.0885 31.9883 26.1552 31.9413C27.2178 31.8945 27.9484 31.7226 28.5813 31.4765C29.9254 30.9568 30.9881 29.8941 31.5078 28.5502C31.7538 27.9133 31.9258 27.1865 31.9726 26.1239C32.0195 25.0572 32.0312 24.7173 32.0312 22.002C32.0312 19.2866 32.0273 18.9467 31.9804 17.8801ZM30.1794 26.0457C30.1363 27.0225 29.9723 27.5499 29.8355 27.9015C29.4995 28.7728 28.8079 29.4643 27.9367 29.8004C27.585 29.9372 27.0538 30.1012 26.0808 30.1441C25.0259 30.1911 24.7096 30.2027 22.041 30.2027C19.3725 30.2027 19.0522 30.1911 18.0011 30.1441C17.0243 30.1012 16.4969 29.9372 16.1453 29.8004C15.7117 29.6402 15.317 29.3862 14.9967 29.0541C14.6646 28.7298 14.4106 28.3391 14.2504 27.9055C14.1136 27.5539 13.9496 27.0225 13.9067 26.0497C13.8597 24.9948 13.8481 24.6783 13.8481 22.0097C13.8481 19.3412 13.8597 19.0209 13.9067 17.9699C13.9496 16.9932 14.1136 16.4657 14.2504 16.1141C14.4106 15.6804 14.6646 15.2859 15.0006 14.9654C15.3248 14.6333 15.7155 14.3793 16.1492 14.2192C16.5009 14.0825 17.0323 13.9184 18.0051 13.8754C19.06 13.8285 19.3765 13.8168 22.0449 13.8168C24.7173 13.8168 25.0337 13.8285 26.0848 13.8754C27.0615 13.9184 27.589 14.0825 27.9406 14.2192C28.3742 14.3793 28.7689 14.6333 29.0892 14.9654C29.4213 15.2897 29.6753 15.6804 29.8355 16.1141C29.9723 16.4657 30.1363 16.997 30.1794 17.9699C30.2262 19.0248 30.238 19.3412 30.238 22.0097C30.238 24.6783 30.2262 24.9908 30.1794 26.0457Z" fill="#303030"/>
<path d="M22.0371 16.8642C19.2007 16.8642 16.8994 19.1654 16.8994 22.0019C16.8994 24.8385 19.2007 27.1396 22.0371 27.1396C24.8736 27.1396 27.1748 24.8385 27.1748 22.0019C27.1748 19.1654 24.8736 16.8642 22.0371 16.8642ZM22.0371 25.3346C20.197 25.3346 18.7044 23.8422 18.7044 22.0019C18.7044 20.1617 20.197 18.6692 22.0371 18.6692C23.8774 18.6692 25.3698 20.1617 25.3698 22.0019C25.3698 23.8422 23.8774 25.3346 22.0371 25.3346Z" fill="#303030"/>
<path d="M28.5775 16.6611C28.5775 17.3235 28.0405 17.8605 27.3779 17.8605C26.7156 17.8605 26.1785 17.3235 26.1785 16.6611C26.1785 15.9986 26.7156 15.4617 27.3779 15.4617C28.0405 15.4617 28.5775 15.9986 28.5775 16.6611Z" fill="#303030"/>
</g>
<defs>
<clipPath id="clip0">
<rect width="20" height="20" fill="white" transform="translate(12 12)"/>
</clipPath>
</defs>
</svg>
