<svg width="20" height="20" fill="none" xmlns="http://www.w3.org/2000/svg"><g clip-path="url(#clip0)" fill="#303030"><path d="M19.98 5.88c-.046-1.063-.218-1.793-.465-2.426A4.88 4.88 0 0018.36 1.68a4.922 4.922 0 00-1.77-1.153C15.952.281 15.226.11 14.163.063 13.093.012 12.753 0 10.037 0 7.322 0 6.982.012 5.915.059 4.852.105 4.122.277 3.49.523A4.88 4.88 0 001.715 1.68 4.924 4.924 0 00.563 3.45C.316 4.087.145 4.813.098 5.876c-.051 1.07-.063 1.41-.063 4.126 0 2.715.012 3.055.059 4.122.047 1.063.219 1.793.465 2.426a4.932 4.932 0 001.156 1.774c.5.508 1.106.902 1.77 1.152.637.247 1.364.419 2.426.465 1.067.047 1.407.059 4.122.059 2.716 0 3.056-.012 4.122-.059 1.063-.046 1.793-.218 2.426-.464a5.116 5.116 0 002.927-2.927c.246-.637.418-1.364.465-2.426.047-1.067.058-1.407.058-4.122s-.004-3.055-.05-4.122zm-1.8 8.166c-.044.977-.208 1.504-.345 1.856a3.318 3.318 0 01-1.898 1.898c-.352.137-.883.301-1.856.344-1.055.047-1.371.059-4.04.059-2.668 0-2.989-.012-4.04-.059-.977-.043-1.504-.207-1.856-.344a3.077 3.077 0 01-1.148-.746 3.11 3.11 0 01-.747-1.148c-.136-.352-.3-.883-.343-1.856-.047-1.055-.059-1.372-.059-4.04 0-2.669.012-2.99.059-4.04.043-.977.207-1.504.343-1.856A3.04 3.04 0 013 2.965a3.105 3.105 0 011.15-.746c.35-.137.882-.3 1.855-.344 1.055-.046 1.371-.058 4.04-.058 2.672 0 2.989.012 4.04.058.976.043 1.504.207 1.856.344.433.16.828.414 1.148.746.332.325.586.715.747 1.15.136.35.3.882.343 1.855.047 1.055.059 1.371.059 4.04 0 2.668-.012 2.98-.059 4.036z"/><path d="M10.037 4.864A5.139 5.139 0 004.9 10.002a5.139 5.139 0 105.138-5.138zm0 8.47a3.333 3.333 0 11.001-6.666 3.333 3.333 0 010 6.667zM16.578 4.661a1.2 1.2 0 11-2.4 0 1.2 1.2 0 012.4 0z"/></g><defs><clipPath id="clip0"><path fill="#fff" d="M0 0h20v20H0z"/></clipPath></defs></svg>