<svg viewBox="0 0 48 48" fill="none" xmlns="http://www.w3.org/2000/svg">
<g clip-path="url(#clip0)" filter="url(#filter0_d)">
<path d="M43.3152 7.15454C42.9511 3.74329 40.257 1.04858 36.8455 0.684814C28.2902 -0.228271 19.7098 -0.228271 11.1548 0.684814C7.74329 1.04889 5.04889 3.74329 4.68481 7.15454C3.77173 15.7095 3.77173 24.2902 4.68481 32.8452C5.04889 36.2567 7.74329 38.9511 11.1545 39.3152C19.7095 40.2283 28.2902 40.2283 36.8455 39.3152C40.257 38.9511 42.9511 36.2567 43.3152 32.8452C44.2283 24.2902 44.2283 15.7098 43.3152 7.15454Z" fill="url(#paint0_radial)"/>
<path d="M41.1394 8.60117C40.8165 5.57413 38.4258 3.18307 35.3984 2.85989C27.8069 2.04996 20.1927 2.04996 12.6012 2.85989C9.57413 3.18307 7.18307 5.57413 6.85989 8.60117C6.04996 16.1927 6.04996 23.8069 6.85989 31.3981C7.18307 34.4254 9.57413 36.8165 12.6012 37.1394C20.1927 37.9496 27.8069 37.9496 35.3981 37.1394C38.4254 36.8165 40.8165 34.4254 41.1394 31.3981C41.9496 23.8069 41.9496 16.1927 41.1394 8.60117Z" fill="url(#paint1_linear)"/>
<path d="M4.59961 32.0161C4.62708 32.2926 4.65546 32.5691 4.68506 32.8456C5.04913 36.2568 7.74353 38.9512 11.1551 39.3153C19.7101 40.2284 28.2907 40.2284 36.8457 39.3153C40.2573 38.9512 42.9514 36.2568 43.3154 32.8456C43.345 32.5691 43.3734 32.2926 43.4012 32.0161H4.59961Z" fill="url(#paint2_linear)"/>
<path d="M43.315 32.8453C43.8057 28.2484 44.0322 23.6442 43.9955 19.0407L34.8525 9.89759C33.7102 8.59357 32.0418 7.77967 30.0814 7.70917C26.0497 7.56391 22.0052 7.57123 17.9729 7.70978C14.6239 7.82514 12.282 10.0761 11.6814 13.3845C11.5755 13.9686 11.512 14.5604 11.4287 15.1487V24.8478C11.4748 25.1622 11.5425 25.475 11.5636 25.7911C11.6979 27.8035 12.5249 29.5271 13.8491 30.6932L23.1533 39.9971C27.7193 40.0291 32.2856 39.8021 36.8453 39.3153C40.2568 38.9512 42.9509 36.2568 43.315 32.8453Z" fill="url(#paint3_linear)"/>
<path d="M43.3154 32.8457C42.9516 36.2567 40.2566 38.9517 36.8456 39.3154C32.2866 39.8019 27.7194 40.0292 23.1539 39.9972L13.8638 30.707C14.9407 31.6497 16.3445 32.2238 17.9736 32.2851C22.0049 32.4365 26.0504 32.4325 30.0817 32.2872C33.728 32.1554 36.3665 29.4567 36.4803 25.8105C36.6018 21.939 36.6018 18.0575 36.4803 14.186C36.4285 12.5039 35.838 11.0238 34.8589 9.90381L43.9962 19.0411C44.0322 23.644 43.8058 28.2488 43.3154 32.8457Z" fill="url(#paint4_linear)"/>
<path d="M28.72 15.6688C27.5487 14.3934 25.8681 13.5933 24.0001 13.5933C20.4619 13.5933 17.5933 16.4619 17.5933 20.0001C17.5933 21.8681 18.3934 23.5487 19.6688 24.72L34.4921 39.5433C35.2767 39.4749 36.0613 39.3989 36.8453 39.3153C40.2568 38.9512 42.9512 36.2568 43.3153 32.8453C43.3989 32.0613 43.4749 31.2767 43.5433 30.4921L28.72 15.6688Z" fill="url(#paint5_linear)"/>
<path d="M43.9227 24.3089L31.9927 12.3793C31.7144 12.014 31.2759 11.7769 30.7812 11.7769C29.9395 11.7769 29.2568 12.4592 29.2568 13.3012C29.2568 13.7959 29.494 14.2344 29.8593 14.5128L43.7094 28.3632C43.8033 27.0121 43.8745 25.6605 43.9227 24.3089Z" fill="url(#paint6_linear)"/>
<path d="M11.4287 15.1487C11.512 14.5604 11.5755 13.9686 11.6814 13.3845C12.2817 10.0761 14.6239 7.82514 17.9729 7.70978C22.0052 7.57123 26.0497 7.56391 30.0814 7.70917C33.7264 7.8404 36.3661 10.5394 36.48 14.1856C36.6011 18.0574 36.6011 21.9386 36.48 25.8104C36.3661 29.4566 33.7273 32.1553 30.0817 32.2868C26.05 32.4324 22.0046 32.436 17.9732 32.2847C14.3276 32.1476 11.8074 29.4426 11.5636 25.7908C11.5425 25.475 11.4748 25.1619 11.4287 24.8475C11.4287 21.6145 11.4287 18.3815 11.4287 15.1487ZM24.0032 30.1259C25.8483 30.1259 27.6952 30.1811 29.5378 30.113C32.4269 30.0059 34.204 28.2817 34.2714 25.3953C34.355 21.7988 34.355 18.1975 34.2714 14.6007C34.204 11.7149 32.4257 9.95038 29.5378 9.88904C25.8724 9.81153 22.2029 9.81214 18.5375 9.88904C15.6716 9.94916 13.8893 11.678 13.8115 14.532C13.7126 18.174 13.7126 21.8223 13.8115 25.4643C13.8893 28.318 15.6716 30.0068 18.5378 30.113C20.3572 30.1808 22.1813 30.1259 24.0032 30.1259Z" fill="url(#paint7_linear)"/>
<path d="M11.4287 15.1487C11.512 14.5604 11.5755 13.9686 11.6814 13.3845C12.2817 10.0761 14.6239 7.82514 17.9729 7.70978C22.0052 7.57123 26.0497 7.56391 30.0814 7.70917C33.7264 7.8404 36.3661 10.5394 36.48 14.1856C36.6011 18.0574 36.6011 21.9386 36.48 25.8104C36.3661 29.4566 33.7273 32.1553 30.0817 32.2868C26.05 32.4324 22.0046 32.436 17.9732 32.2847C14.3276 32.1476 11.8074 29.4426 11.5636 25.7908C11.5425 25.475 11.4748 25.1619 11.4287 24.8475C11.4287 21.6145 11.4287 18.3815 11.4287 15.1487ZM24.0032 30.1259C25.8483 30.1259 27.6952 30.1811 29.5378 30.113C32.4269 30.0059 34.204 28.2817 34.2714 25.3953C34.355 21.7988 34.355 18.1975 34.2714 14.6007C34.204 11.7149 32.4257 9.95038 29.5378 9.88904C25.8724 9.81153 22.2029 9.81214 18.5375 9.88904C15.6716 9.94916 13.8893 11.678 13.8115 14.532C13.7126 18.174 13.7126 21.8223 13.8115 25.4643C13.8893 28.318 15.6716 30.0068 18.5378 30.113C20.3572 30.1808 22.1813 30.1259 24.0032 30.1259Z" fill="white"/>
<path d="M23.9996 13.5933C20.4614 13.5933 17.5928 16.4616 17.5928 19.9998C17.5928 23.5383 20.4614 26.4067 23.9996 26.4067C27.5381 26.4067 30.4065 23.5383 30.4065 19.9998C30.4065 16.4616 27.5381 13.5933 23.9996 13.5933ZM23.9996 24.2009C21.6794 24.2009 19.7986 22.3201 19.7986 19.9998C19.7986 17.6796 21.6794 15.7988 23.9996 15.7988C26.3199 15.7988 28.2007 17.6796 28.2007 19.9998C28.2007 22.3201 26.3199 24.2009 23.9996 24.2009Z" fill="white"/>
<path d="M32.3047 13.3012C32.3047 14.1429 31.6224 14.8253 30.7807 14.8253C29.939 14.8253 29.2563 14.1429 29.2563 13.3012C29.2563 12.4592 29.939 11.7769 30.7807 11.7769C31.6224 11.7769 32.3047 12.4592 32.3047 13.3012Z" fill="white"/>
</g>
<defs>
<filter id="filter0_d" x="0" y="0" width="48" height="48" filterUnits="userSpaceOnUse" color-interpolation-filters="sRGB">
<feFlood flood-opacity="0" result="BackgroundImageFix"/>
<feColorMatrix in="SourceAlpha" type="matrix" values="0 0 0 0 0 0 0 0 0 0 0 0 0 0 0 0 0 0 127 0"/>
<feOffset dy="4"/>
<feGaussianBlur stdDeviation="2"/>
<feColorMatrix type="matrix" values="0 0 0 0 0 0 0 0 0 0 0 0 0 0 0 0 0 0 0.25 0"/>
<feBlend mode="normal" in2="BackgroundImageFix" result="effect1_dropShadow"/>
<feBlend mode="normal" in="SourceGraphic" in2="effect1_dropShadow" result="shape"/>
</filter>
<radialGradient id="paint0_radial" cx="0" cy="0" r="1" gradientUnits="userSpaceOnUse" gradientTransform="translate(12.1998 34.9568) scale(44.113)">
<stop stop-color="#FAE100"/>
<stop offset="0.0544" stop-color="#FADC04"/>
<stop offset="0.1167" stop-color="#FBCE0E"/>
<stop offset="0.1829" stop-color="#FCB720"/>
<stop offset="0.2514" stop-color="#FE9838"/>
<stop offset="0.3054" stop-color="#FF7950"/>
<stop offset="0.4922" stop-color="#FF1C74"/>
<stop offset="1" stop-color="#6C1CD1"/>
</radialGradient>
<linearGradient id="paint1_linear" x1="19.3414" y1="17.3794" x2="-48.4233" y2="-20.7382" gradientUnits="userSpaceOnUse">
<stop stop-color="#A1B5D8" stop-opacity="0"/>
<stop offset="0.3094" stop-color="#90A2BD" stop-opacity="0.309804"/>
<stop offset="0.7554" stop-color="#7C8B9C" stop-opacity="0.756863"/>
<stop offset="1" stop-color="#748290"/>
</linearGradient>
<linearGradient id="paint2_linear" x1="24.0003" y1="35.31" x2="24.0003" y2="41.545" gradientUnits="userSpaceOnUse">
<stop stop-color="#FAE100" stop-opacity="0"/>
<stop offset="0.3068" stop-color="#FCA800" stop-opacity="0.305882"/>
<stop offset="0.6275" stop-color="#FE7300" stop-opacity="0.627451"/>
<stop offset="0.8685" stop-color="#FF5200" stop-opacity="0.866667"/>
<stop offset="1" stop-color="#FF4500"/>
</linearGradient>
<linearGradient id="paint3_linear" x1="21.7242" y1="17.6679" x2="11.8249" y2="7.76858" gradientUnits="userSpaceOnUse">
<stop stop-color="#833AB4" stop-opacity="0"/>
<stop offset="1" stop-color="#833AB4"/>
</linearGradient>
<linearGradient id="paint4_linear" x1="31.4142" y1="36.5852" x2="26.4733" y2="13.2922" gradientUnits="userSpaceOnUse">
<stop stop-color="#833AB4" stop-opacity="0"/>
<stop offset="1" stop-color="#833AB4"/>
</linearGradient>
<linearGradient id="paint5_linear" x1="33.2943" y1="29.2943" x2="13.4486" y2="9.44863" gradientUnits="userSpaceOnUse">
<stop stop-color="#833AB4" stop-opacity="0"/>
<stop offset="1" stop-color="#833AB4"/>
</linearGradient>
<linearGradient id="paint6_linear" x1="34.7663" y1="17.2863" x2="28.2038" y2="10.7237" gradientUnits="userSpaceOnUse">
<stop stop-color="#833AB4" stop-opacity="0"/>
<stop offset="1" stop-color="#833AB4"/>
</linearGradient>
<linearGradient id="paint7_linear" x1="31.9419" y1="12.1134" x2="15.761" y2="28.2943" gradientUnits="userSpaceOnUse">
<stop stop-color="#833AB4"/>
<stop offset="0.0922" stop-color="#9C3495"/>
<stop offset="0.2927" stop-color="#DC2546"/>
<stop offset="0.392" stop-color="#FD1D1D"/>
<stop offset="0.5589" stop-color="#FC6831"/>
<stop offset="0.6887" stop-color="#FC9B40"/>
<stop offset="0.7521" stop-color="#FCAF45"/>
<stop offset="0.7806" stop-color="#FDB750"/>
<stop offset="0.8656" stop-color="#FECB6A"/>
<stop offset="0.9415" stop-color="#FFD87A"/>
<stop offset="1" stop-color="#FFDC80"/>
</linearGradient>
<clipPath id="clip0">
<rect width="40" height="40" fill="white" transform="translate(4)"/>
</clipPath>
</defs>
</svg>
