<svg width="44" height="44" viewBox="0 0 44 44" fill="none" xmlns="http://www.w3.org/2000/svg">
<path d="M44 22C44 28.0751 41.5376 33.5751 37.5564 37.5564C33.5751 41.5376 28.0751 44 22 44C15.9249 44 10.4249 41.5376 6.44365 37.5564C2.46243 33.5751 0 28.0751 0 22C0 15.9249 2.46243 10.4249 6.44365 6.44365C10.4249 2.46243 15.9249 0 22 0C28.0751 0 33.5751 2.46243 37.5564 6.44365C41.5376 10.4249 44 15.9249 44 22Z" fill="white"/>
<g clip-path="url(#clip0)">
<path d="M31.9951 32.0001V31.9993H32.0001V24.6643C32.0001 21.0759 31.2276 18.3118 27.0326 18.3118C25.0159 18.3118 23.6626 19.4184 23.1101 20.4676H23.0517V18.6468H19.0742V31.9993H23.2159V25.3876C23.2159 23.6468 23.5459 21.9634 25.7017 21.9634C27.8259 21.9634 27.8576 23.9501 27.8576 25.4993V32.0001H31.9951Z" fill="#303030"/>
<path d="M12.3301 18.6475H16.4767V32H12.3301V18.6475Z" fill="#303030"/>
<path d="M14.4017 12C13.0758 12 12 13.0758 12 14.4017C12 15.7275 13.0758 16.8258 14.4017 16.8258C15.7275 16.8258 16.8033 15.7275 16.8033 14.4017C16.8025 13.0758 15.7267 12 14.4017 12V12Z" fill="#303030"/>
</g>
<defs>
<clipPath id="clip0">
<rect width="20" height="20" fill="white" transform="translate(12 12)"/>
</clipPath>
</defs>
</svg>
