<svg width="52" height="52" viewBox="0 0 52 52" fill="none" xmlns="http://www.w3.org/2000/svg">
<path d="M52 26C52 40.3594 40.3594 52 26 52C11.6406 52 0 40.3594 0 26C0 11.6406 11.6406 0 26 0C40.3594 0 52 11.6406 52 26Z" fill="#D41443"/>
<path fill-rule="evenodd" clip-rule="evenodd" d="M17.786 50.7752L17.3729 47.426C13.7942 46.7924 11.0716 43.7398 11.0716 40.0781V34.1434C9.28404 33.5266 8 31.8658 8 29.918C8 28.0428 9.19005 26.4326 10.8739 25.7649C10.8198 25.249 10.7926 24.7304 10.7926 24.2128C10.7926 15.8244 17.8074 9 26.4297 9C35.052 9 42.0668 15.8244 42.0668 24.2129C42.0668 24.7311 42.0396 25.2499 41.9858 25.7652C43.6695 26.4329 44.8594 28.0431 44.8594 29.918C44.8594 31.8658 43.5753 33.5266 41.7878 34.1434V40.0781C41.7878 43.7398 39.0652 46.7924 35.4863 47.426L35.1173 50.4178C34.0768 50.789 33.006 51.0991 31.9095 51.3435L32.3776 47.5488H20.4818L20.9762 51.5568C19.8882 51.359 18.8233 51.0971 17.786 50.7752ZM35.8599 16.1432C33.5554 13.5975 30.1823 11.9883 26.4297 11.9883C22.6771 11.9883 19.304 13.5975 16.9996 16.1432C22.4471 20.5489 30.4123 20.5489 35.8599 16.1432ZM26.4297 22.4473C22.3179 22.4473 18.4176 21.0995 15.2586 18.62C14.368 20.2969 13.8643 22.1986 13.8643 24.2128C13.8643 24.6205 13.8854 25.0291 13.9271 25.4355H38.9327C38.9742 25.0296 38.9952 24.6211 38.9952 24.2128C38.9952 22.1986 38.4915 20.2969 37.6008 18.62C34.4418 21.0995 30.5415 22.4473 26.4297 22.4473ZM34.1087 44.5605C36.6493 44.5605 38.7161 42.5497 38.7161 40.0781V34.4004H35.6445V37.0898C35.6445 39.5615 33.5776 41.5723 31.0371 41.5723C28.4966 41.5723 26.4297 39.5615 26.4297 37.0898V34.4004H14.1432V40.0781C14.1432 42.5497 16.2101 44.5605 18.7507 44.5605H34.1087ZM32.5729 31.4121H40.252C41.0988 31.4121 41.7878 30.7418 41.7878 29.918C41.7878 29.0946 41.0993 28.4243 40.253 28.4238H40.1715H12.6067C11.7604 28.4241 11.0716 29.0944 11.0716 29.918C11.0716 30.7418 11.7606 31.4121 12.6074 31.4121H29.5013V37.0898C29.5013 37.9137 30.1903 38.584 31.0371 38.584C31.884 38.584 32.5729 37.9137 32.5729 37.0898V31.4121Z" fill="white"/>
</svg>
