<svg id="icon"  viewBox="0 0 14 14" fill="none" xmlns="http://www.w3.org/2000/svg">
<path d="M12.3069 8.12152L9.35468 1.35916L8.71097 0.912911L7.95628 0.672624L6.93522 0.39801L5.73659 0.912911L4.9375 1.35916L7.95628 8.12152H12.3069Z" fill="url(#paint0_linear_74_754)"/>
<path d="M1.71169 5.86039L4.66387 12.6386L5.30758 13.0859L6.06228 13.3267L7.08333 13.602L8.28197 13.0859L9.08105 12.6386L6.06228 5.86039L1.71169 5.86039Z" fill="url(#paint1_linear_74_754)"/>
<path d="M4.77909 1.4476L0.195951 8.07234L4.77909 8.12145L8.09213 1.4476C8.32475 0.764855 9.05256 1.16312 9.38739 1.4476C7.95644 -1.17414 5.71896 0.355207 4.77909 1.4476Z" fill="white"/>
<path d="M9.22091 12.5524L13.804 5.92766L9.22091 5.87855L5.90787 12.5524C5.67525 13.2351 4.94744 12.8369 4.61261 12.5524C6.04356 15.1741 8.28104 13.6448 9.22091 12.5524Z" fill="white"/>
<defs>
<linearGradient id="paint0_linear_74_754" x1="11.5434" y1="8.12152" x2="8.04222" y2="1.57156" gradientUnits="userSpaceOnUse">
<stop/>
<stop offset="0.494792" stop-color="white"/>
<stop offset="1" stop-color="white"/>
</linearGradient>
<linearGradient id="paint1_linear_74_754" x1="2.47518" y1="5.86039" x2="5.98909" y2="12.4189" gradientUnits="userSpaceOnUse">
<stop stop-color="#0C0C0C"/>
<stop offset="0.494792" stop-color="white"/>
<stop offset="1" stop-color="white"/>
</linearGradient>
</defs>
</svg>
