<svg width="61" height="63" fill="none" xmlns="http://www.w3.org/2000/svg"><g clip-path="url(#clip0)"><path d="M13.872 51.198h33.48c.166-3.818-.107-10.153-2.455-13.168l-.085-.108-5.13-2.576c.112-.375.167-.72.189-.972a1.785 1.785 0 00-.125-.848c-.846-2.025-2.637-3.09-3.622-3.545.3-.604.493-1.254.587-1.917a1.646 1.646 0 001.153-1.189l.599-2.432c.106-.43.04-.874-.189-1.253a1.64 1.64 0 00-.367-.418c1.688-3.834-1.14-7.45-1.293-7.64-3.063-3.311-6.931-2.692-7.135-2.655-5.583 1.168-7.738 5.447-6.521 10.465-.36.399-.512.955-.378 1.5l.601 2.436c.146.585.591 1.025 1.145 1.184a6.265 6.265 0 001.44 3.2v1.928c-8.01 4.102-2.935 1.485-9.355 4.733-.013.06-3.012 3.248-2.567 12.698l.028.577zm32.317-1.212h-5.51v-2.314l3.644-8.343c1.826 3.03 1.894 8.816 1.866 10.657zm-7.52-15.715c-.213 2.442-1.553 1.704-2.38 3.586-.65-.715-.846-1.573-.67-2.491.315-1.686-.714-2.186-.46-3.957l.039-.041v-.006c.022-.024.225-.266.283-.342 2.18.95 3.23 2.718 3.188 3.25zm-11.696-1.92a6.207 6.207 0 006.969.093c.14 1.392.684 1.671.49 2.696-.036.19-.055.377-.067.562l-3.753 4.23-4.797-5.409 1.158-.605V32.35zm-1.508-5.177V24.83v-4.12c.584-1.08 1.38-1.863 2.37-2.333 2.65 1.5 5.7 3.737 7.745 5.99-.002 2.868.009 2.875-.01 3.111l-.002.015c-.16 2.604-2.3 4.763-5.047 4.763-2.67 0-4.886-2.096-5.047-4.789a3.398 3.398 0 01-.01-.292zm-.748 7.934l5.895 6.646 3.958-4.461c.09.26.218.507.363.744l-4.32 5.403-6.443-8.057.547-.275zm12.07-8.909v-1.872l.45-.516c.025.948.128-.171-.45 2.388zm-7.085-12.531c.24.015 3.456-.49 5.999 2.255.1.126 2.17 2.792 1.338 5.71-.285-1.299-.78-2.962-1.565-3.756l-.856.854c.773.784 1.282 3.171 1.476 4.409-3.55-3.716-8.131-6.067-8.194-6.107-.23.143-2.168.512-3.575 3.247l-.067.131v2.01l-.178.002c-.894-4.318.819-7.748 5.622-8.755zm-5.75 10.001l.305 1.235V26.2l-.506-2.05c-.074-.305.152-.42.202-.482zm-.887 12.268l7.547 9.439 5.106-6.386c.556.497.823.567 2 1.173l-.397-1.348c-.1-.342.299-.89.54-1.142a3.652 3.652 0 001.322-1.222l4.166 2.091-3.877 8.876v2.568h-17.72v-2.569l-3.878-8.874 5.192-2.606zM16.9 39.331l3.645 8.34v2.315h-5.51c-.028-1.84.04-7.624 1.865-10.655z" fill="#FF6B09"/></g><path d="M59.824 9.735V1.5H1v60h58.824v-8.235" stroke="#FF6B09" stroke-width="2"/><defs><clipPath id="clip0"><path fill="#fff" transform="translate(14 11.5)" d="M0 0h33.191v40H0z"/></clipPath></defs></svg>