<svg aria-hidden="true" style="position: absolute; width: 0; height: 0; overflow: hidden;" version="1.1" xmlns="http://www.w3.org/2000/svg" xmlns:xlink="http://www.w3.org/1999/xlink">
  <defs>
    <symbol id="icon-arrow-down" viewBox="0 0 30 32">
      <path fill="" style="" d="M29.867 4.587l-4.425-4.42v22.123l-22.123-22.125-3.319 3.317 22.123 22.123h-22.123l4.425 4.427h25.442v-25.444z"></path>
    </symbol>

    <symbol id="icon-close" viewBox="0 0 32 32">
      <path stroke-linejoin="round" stroke-linecap="round" stroke-miterlimit="4" stroke-width="2.6667" d="M24 8l-16 16M8 8l16 16"></path>
    </symbol>

    <symbol id="icon-modals-check" viewBox="0 0 32 32">
      <path fill="" style="" d="M26.152 1.404c0.586-0.829 1.541-1.363 2.62-1.363 1.767 0 3.2 1.433 3.2 3.2 0 0.653-0.196 1.26-0.531 1.767l0.007-0.012-17.356 25.6c-0.584 0.852-1.551 1.403-2.648 1.403s-2.064-0.552-2.641-1.392l-0.007-0.011-8.244-12.16c-0.363-0.512-0.58-1.149-0.58-1.837 0-1.767 1.433-3.2 3.2-3.2 1.114 0 2.096 0.57 2.669 1.433l0.007 0.012 5.596 8.252 14.708-21.692z"></path>
    </symbol>
  </defs>
</svg>
