<svg width="69" height="48" viewBox="0 0 69 48" fill="none" xmlns="http://www.w3.org/2000/svg">
<path d="M30.3999 6.9118H9.94043V8.44372H30.3999V6.9118Z" fill="white"/>
<path d="M30.4 12.6236H13.0044V14.1555H30.4V12.6236Z" fill="white"/>
<path d="M30.3999 18.3358H9.94043V19.8678H30.3999V18.3358Z" fill="white"/>
<path d="M30.4 24.0476H13.0044V25.5795H30.4V24.0476Z" fill="white"/>
<path d="M30.3999 29.7594H9.94043V31.2913H30.3999V29.7594Z" fill="white"/>
<path d="M30.4 35.4716H13.0044V37.0036H30.4V35.4716Z" fill="white"/>
<path d="M58.4848 6.9118H38.0254V8.44372H58.4848V6.9118Z" fill="white"/>
<path d="M55.421 12.6236H38.0254V14.1555H55.421V12.6236Z" fill="white"/>
<path d="M58.4848 18.3358H38.0254V19.8678H58.4848V18.3358Z" fill="white"/>
<path d="M55.421 24.0476H38.0254V25.5795H55.421V24.0476Z" fill="white"/>
<path d="M58.4848 29.7594H38.0254V31.2913H58.4848V29.7594Z" fill="white"/>
<path d="M55.421 35.4716H38.0254V37.0036H55.421V35.4716Z" fill="white"/>
<path d="M65.8722 5.16795H63.0637V0.949704C63.0637 0.526831 62.7206 0.183746 62.2978 0.183746H39.4008C37.1664 0.183746 35.2297 1.39171 34.2133 3.19995C33.1969 1.39153 31.259 0.183746 29.0245 0.183746H6.12754C5.70466 0.183746 5.36158 0.526831 5.36158 0.949704V5.16795H2.55307C2.13019 5.16795 1.78711 5.51104 1.78711 5.93391V47.0503C1.78711 47.4731 2.13019 47.8162 2.55307 47.8162C10.2433 47.8162 58.1545 47.8162 65.8722 47.8162C66.2951 47.8162 66.6382 47.4731 66.6382 47.0503V5.93391C66.6382 5.51104 66.2951 5.16795 65.8722 5.16795ZM39.4008 1.71566H61.5318C61.5318 8.57484 61.5318 26.6435 61.5318 42.7408H37.7667C36.7132 42.7408 35.6599 43.185 34.9786 43.761V6.12789C34.9786 3.68263 36.9363 1.71566 39.4008 1.71566ZM6.89349 1.71566H29.0245C31.4196 1.71566 33.3579 3.57969 33.4372 5.95934C33.4382 5.99226 33.4412 6.09548 33.4467 6.12789V6.13388V6.13537V43.758C32.7672 43.1843 31.7252 42.7408 30.6686 42.7408H6.89349C6.89349 26.6489 6.89349 8.57265 6.89349 1.71566ZM3.31902 6.69987H5.36158V43.5067C5.36158 43.9296 5.70466 44.2727 6.12754 44.2727H30.6686C31.8362 44.2727 32.9646 45.0386 33.3258 46.2843H3.31902V6.69987ZM65.1063 46.2843H35.1C35.4636 45.0326 36.5807 44.2727 37.7667 44.2727H62.2978C62.7206 44.2727 63.0637 43.9296 63.0637 43.5067V6.69987H65.1063V46.2843Z" fill="white"/>
</svg>
