<svg width="185" height="161" viewBox="0 0 185 161" fill="none" xmlns="http://www.w3.org/2000/svg">
<path d="M64.9761 78.0741L62.902 76V86.3704L52.5316 76L50.9761 77.5556L61.3464 87.9259H50.9761L53.0501 90H64.9761V78.0741Z" fill="white"/>
<g filter="url(#filter0_d_89_126)">
<path d="M77.9158 84.9075C76.974 85.1423 76.0979 85.1395 75.2877 84.899C74.4774 84.6586 73.7816 84.2212 73.2003 83.587C72.6167 82.9438 72.2041 82.1377 71.9625 81.1687C71.7209 80.1997 71.7078 79.2987 71.9234 78.4658C72.1367 77.6239 72.5447 76.9065 73.1472 76.3138C73.7497 75.7211 74.5218 75.3074 75.4637 75.0726C76.4055 74.8377 77.2816 74.8406 78.0918 75.081C78.902 75.3215 79.5944 75.7645 80.169 76.41C80.7504 77.0442 81.1618 77.8458 81.4034 78.8148C81.645 79.7838 81.6592 80.6892 81.4459 81.5312C81.2393 82.3618 80.8348 83.0735 80.2323 83.6662C79.6298 84.2589 78.8576 84.6727 77.9158 84.9075ZM77.594 83.617C78.2461 83.4544 78.776 83.1684 79.1837 82.7589C79.6005 82.3472 79.8769 81.8358 80.0132 81.2247C80.1494 80.6136 80.1238 79.9322 79.9363 79.1805C79.7489 78.4289 79.4517 77.8153 79.0445 77.3396C78.6373 76.864 78.1531 76.5422 77.5918 76.3744C77.0396 76.2043 76.4375 76.2005 75.7854 76.3631C75.1334 76.5256 74.599 76.8128 74.1822 77.2245C73.7654 77.6362 73.4889 78.1476 73.3527 78.7587C73.2256 79.3676 73.2557 80.0478 73.4431 80.7995C73.6305 81.5511 73.9233 82.1659 74.3214 82.6438C74.7286 83.1194 75.2128 83.4412 75.7741 83.609C76.3353 83.7769 76.942 83.7796 77.594 83.617ZM83.6496 83.3047L81.2787 73.7958L84.5525 72.9796C85.3042 72.7922 85.9516 72.7654 86.4948 72.8993C87.0471 73.031 87.4951 73.2848 87.8389 73.6608C88.1805 74.0277 88.4168 74.4738 88.5478 74.9991C88.6945 75.5877 88.6693 76.1615 88.472 76.7205C88.2837 77.2773 87.885 77.7422 87.2759 78.1153L90.3058 81.6452L88.635 82.0617L85.8324 78.6916L84.1344 79.115L85.0895 82.9457L83.6496 83.3047ZM83.8634 78.0283L85.6158 77.5914C86.2678 77.4288 86.7038 77.1518 86.9236 76.7603C87.1525 76.3666 87.2037 75.9161 87.0772 75.409C86.9508 74.9018 86.7009 74.5361 86.3275 74.3118C85.9519 74.0784 85.429 74.0452 84.7589 74.2123L83.0201 74.6458L83.8634 78.0283ZM91.3708 81.3796L89 71.8707L92.0836 71.1019C93.1975 70.8242 94.1607 70.7908 94.9732 71.0019C95.7948 71.2106 96.4668 71.6298 96.9893 72.2595C97.5186 72.8778 97.9052 73.676 98.1491 74.654C98.3907 75.623 98.4241 76.5093 98.2492 77.3128C98.0812 78.105 97.6835 78.7861 97.0561 79.3561C96.4355 79.9148 95.5683 80.3331 94.4544 80.6108L91.3708 81.3796ZM92.5059 79.798L94.0952 79.4018C94.9556 79.1873 95.5998 78.8776 96.0279 78.4726C96.465 78.0654 96.7268 77.5721 96.8132 76.9927C96.9086 76.411 96.8649 75.7534 96.682 75.0198C96.4991 74.2863 96.2278 73.6806 95.8682 73.2027C95.5176 72.7226 95.0538 72.4054 94.4767 72.2511C93.9063 72.0855 93.191 72.1099 92.3307 72.3244L90.7413 72.7207L92.5059 79.798ZM100.379 79.1337L98.0079 69.6248L104.053 68.1176L104.344 69.2859L99.7391 70.434L100.477 73.3954L104.675 72.3488L104.959 73.4899L100.762 74.5364L101.527 77.6064L106.132 76.4583L106.424 77.6265L100.379 79.1337ZM107.596 77.3343L105.225 67.8254L108.499 67.0091C109.25 66.8217 109.898 66.795 110.441 66.9289C110.993 67.0605 111.441 67.3143 111.785 67.6903C112.127 68.0572 112.363 68.5033 112.494 69.0286C112.641 69.6172 112.616 70.191 112.418 70.75C112.23 71.3068 111.831 71.7717 111.222 72.1448L114.252 75.6747L112.581 76.0913L109.779 72.7212L108.081 73.1445L109.036 76.9753L107.596 77.3343ZM107.81 72.0578L109.562 71.6209C110.214 71.4583 110.65 71.1813 110.87 70.7898C111.099 70.3961 111.15 69.9456 111.024 69.4385C110.897 68.9314 110.647 68.5656 110.274 68.3413C109.898 68.1079 109.375 68.0747 108.705 68.2418L106.966 68.6753L107.81 72.0578Z" fill="white"/>
</g>
<defs>
<filter id="filter0_d_89_126" x="0.736328" y="0.00268555" width="183.556" height="160.083" filterUnits="userSpaceOnUse" color-interpolation-filters="sRGB">
<feFlood flood-opacity="0" result="BackgroundImageFix"/>
<feColorMatrix in="SourceAlpha" type="matrix" values="0 0 0 0 0 0 0 0 0 0 0 0 0 0 0 0 0 0 127 0" result="hardAlpha"/>
<feOffset dy="4"/>
<feGaussianBlur stdDeviation="35"/>
<feComposite in2="hardAlpha" operator="out"/>
<feColorMatrix type="matrix" values="0 0 0 0 0 0 0 0 0 0 0 0 0 0 0 0 0 0 0.1 0"/>
<feBlend mode="normal" in2="BackgroundImageFix" result="effect1_dropShadow_89_126"/>
<feBlend mode="normal" in="SourceGraphic" in2="effect1_dropShadow_89_126" result="shape"/>
</filter>
</defs>
</svg>
