<svg width="20" height="20" fill="none" xmlns="http://www.w3.org/2000/svg"><path d="M2.91.002a1.252 1.252 0 00-.87.407L.42 2.19c.002-.005-.006-.004-.052.06a.394.394 0 00-.057.11c-.66 2.103-.217 4.416.86 6.616 1.078 2.2 2.798 4.304 4.771 6.032 1.974 1.727 4.201 3.079 6.325 3.749 2.123.67 4.182.662 5.708-.445a.407.407 0 00.046-.041c.04-.04.042-.045.035-.039l.006-.008 1.614-1.775a1.263 1.263 0 00-.083-1.774l-3.829-3.482a1.263 1.263 0 00-1.775.083l-1.732 1.905c-1.406-.408-2.608-1.098-3.765-2.15C7.335 9.982 6.534 8.85 5.996 7.488l1.732-1.905a1.262 1.262 0 00-.084-1.775L3.816.325A1.253 1.253 0 002.91 0zm.037.78a.469.469 0 01.338.126L7.113 4.39a.46.46 0 01.032.663L5.23 7.157a.394.394 0 00-.078.4c.581 1.585 1.519 2.886 2.808 4.059 1.29 1.173 2.672 1.984 4.306 2.412a.395.395 0 00.39-.116l1.916-2.104a.46.46 0 01.662-.031l3.83 3.482a.46.46 0 01.03.662l-1.6 1.76c-1.253.898-3.017.949-4.992.325-1.983-.626-4.136-1.922-6.041-3.59-1.906-1.668-3.564-3.704-4.583-5.784-1.009-2.058-1.375-4.14-.82-5.974L2.622.94a.468.468 0 01.325-.157z" fill="#FF6B09"/></svg>