<svg width="20" height="20" fill="none" xmlns="http://www.w3.org/2000/svg"><path d="M2.91049.00152c-.32197.01527-.63812.15218-.86997.40706L.41895 2.19115c.00227-.00529-.00635-.00452-.0523.06049a.3937.3937 0 00-.05639.11022C-.34978 4.46434.09268 6.77711 1.1705 8.9768c1.07784 2.1997 2.79708 4.3047 4.7709 6.0321 1.97382 1.7273 4.20091 3.0788 6.32431 3.7491 2.1234.6703 4.1823.6615 5.7081-.4455a.40738.40738 0 00.0466-.0405c.04-.04.0413-.0451.0349-.039l.0061-.0077 1.6139-1.7749c.4637-.5098.4263-1.3111-.0836-1.7749l-3.8286-3.482c-.5098-.4637-1.3111-.4267-1.7749.0831l-1.7323 1.905c-1.4061-.4072-2.60831-1.0974-3.76447-2.1491-1.15638-1.05187-1.95749-2.1839-2.4957-3.54567L7.72751 5.5818c.46376-.50982.42686-1.31114-.08305-1.77489L3.81587.32491c-.25491-.23187-.58289-.33872-.9049-.32348l-.00048.00009zm.0364.7813c.1186-.00529.23927.03592.33784.12561l3.82859 3.482c.19724.17937.21064.46571.03128.66289L5.23026 7.1573a.39374.39374 0 00-.07792.39939C5.73333 9.1422 6.67057 10.4429 7.96023 11.616c1.28965 1.173 2.67207 1.9835 4.30537 2.4121a.39467.39467 0 00.2118-.0033.39419.39419 0 00.1794-.1126l1.9148-2.1045c.1793-.1971.4652-.2102.6624-.0308l3.8291 3.482c.1972.1794.2101.4652.0307.6624l-1.6005 1.7594c-1.2521.8988-3.016.9492-4.9913.3256-1.9831-.626-4.13591-1.9227-6.04132-3.5903-1.90541-1.6675-3.56357-3.7039-4.58276-5.78386C.86924 6.5735.50331 4.49235 1.05814 2.65799L2.62181.9395c.08967-.09857.20643-.15137.32503-.15689l.00005.00021z" fill="#FF6B09"/></svg>