<svg aria-hidden="true" style="position:absolute;width:0;height:0" xmlns="http://www.w3.org/2000/svg" overflow="hidden"><defs><symbol id="icon-Group" viewBox="0 0 33 32"><path  d="M2 12.56v2.83c0 .15.06.3.18.39a11.1 11.1 0 009.04 2.14 12.01 12.01 0 009.78 0 11 11 0 009.05-2.14.5.5 0 00.19-.4v-2.82c0-.42-.21-.8-.58-1.03L25.8 9.35a7.85 7.85 0 001.59-3.9 4.19 4.19 0 00-7.11-3.43l-.09.08-.06.08-.05.05a4.37 4.37 0 00-4.41-2.2h-.03c-.1 0-.29.02-.4.05L15.2.1a4.48 4.48 0 00-3.02 2.15A4.18 4.18 0 009 .8C5.1.8 3.36 5.4 6.45 9.38l-3.9 2.16c-.35.22-.56.6-.56 1.02zm19 4.27l-.26.12a11 11 0 01-9.25 0c-.71-.32-1.4-.73-2.05-1.22v-2.87c0-.1.05-.18.1-.22l4.55-2.53c.56.48 1.28.84 2.03.84.72 0 1.5-.36 2.05-.85l4.49 2.52c.08.06.13.14.13.24v2.87c-.57.43-1.17.8-1.8 1.1zm8.15-4.45c.06.04.1.1.1.18v2.58a9.99 9.99 0 01-6.74 1.98c.37-.23.77-.51 1.08-.76a.5.5 0 00.2-.39v-3.1c0-.44-.23-.84-.62-1.1l-2.38-1.34.58-.32c.7.58 1.3.75 1.85.75.66 0 1.36-.33 1.87-.76l4.06 2.28zm-5.93-10.6c1.38 0 2.59.91 3.02 2.15A3.7 3.7 0 0124 2.79a.5.5 0 00-.79.08 3.68 3.68 0 01-2.55 1.76 4.79 4.79 0 00-.16-1.33c.56-.9 1.61-1.51 2.71-1.51zm-2.66 3.86a4.64 4.64 0 003.16-1.76 4.68 4.68 0 002.7 1.06c0 1.79-1.47 4.92-3.2 4.92-1.34 0-2.48-1.9-2.9-3.23.1-.34.18-.67.24-.99zm.1 3.73l-.89.5-.9-.5c.34-.42.64-.9.9-1.42.25.52.55 1 .89 1.42zm-1.34-2.9c-.48 1.42-1.7 3.49-3.2 3.49-1.74 0-3.22-2.87-3.5-4.7.07-.02 2.42.13 4.04-2a5.17 5.17 0 003.01 1.19 6.3 6.3 0 01-.35 2.01zM16.15.98c2.78 0 3.3 2.4 3.35 2.44-1-.1-1.93-.6-2.56-1.27a.5.5 0 00-.79.09 4.07 4.07 0 01-3.58 2.02A3.51 3.51 0 0116.15.99zm-3.69 6.95c.26.51.56 1 .91 1.44l-.87.48-.9-.5c.34-.44.63-.94.86-1.42zM9.01 1.79c1.12 0 2.15.57 2.73 1.51l-.12.55A3.68 3.68 0 019.8 2.79a.5.5 0 00-.8.08A3.71 3.71 0 015.84 4.7a3.2 3.2 0 013.18-2.9zM5.88 5.68a4.71 4.71 0 003.64-1.8c.6.5 1.3.81 2.05.96.03.58.18 1.28.35 1.8a6.8 6.8 0 01-1.45 2.5h-.01c-.4.44-.99.73-1.45.73-1.59 0-2.84-2.51-3.13-4.2zm-2.9 6.88c0-.08.04-.14.07-.16l4.12-2.29c.24.2.3.23.35.27.48.32.93.48 1.53.48.65 0 1.24-.27 1.75-.7l.1-.06.58.33-2.45 1.36c-.36.23-.58.63-.58 1.07v3.11c0 .15.07.3.19.4.32.24.73.53 1.08.75-2.43.17-4.8-.52-6.74-1.98v-2.58z"/><path  d="M31.26 20.78a2.06 2.06 0 00-2-.1l-6.13 2.95a2.11 2.11 0 00-2.1-2.07h-3.51a9.8 9.8 0 00-5.96-2.48 251.9 251.9 0 00-4.59-.06v-1H0v11.52h6.97v-1.38C8.88 29.26 13.91 32 16.3 32h.15c4.2-.24 14.1-7.2 14.75-7.66a2.08 2.08 0 00.06-3.56zM5.98 28.54H.99v-9.53h4.99v9.53zm24.7-5.06a.3.3 0 00-.04.03c-.1.07-10.28 7.27-14.24 7.5h-.12c-2.1 0-7.2-2.75-9.3-4v-7c.82 0 2.59.02 4.56.06 1.84.05 3.88.93 5.46 2.35l.14.13h3.88a1.12 1.12 0 010 2.24h-7.14v.99h7.14a2.1 2.1 0 001.68-.84l6.98-3.37c.35-.17.73-.15 1.05.05s.5.54.5.92c0 .4-.2.75-.54.95zM16.61 12.16h-.99v.92h1v-.92zM16.61 14h-.99v.91h1V14zM16.61 15.83h-.99v.92h1v-.92z"/></symbol><symbol id="icon-female_student" viewBox="0 0 27 32"><path d="M-.1 31.76h26.78c.13-3.06-.08-8.12-1.96-10.54l-.07-.08-4.1-2.06c.08-.3.13-.58.15-.78.02-.24-.02-.47-.1-.68a5.69 5.69 0 00-2.9-2.83c.24-.49.4-1 .47-1.54.44-.12.8-.48.92-.95l.48-1.95a1.31 1.31 0 00-.44-1.33c1.35-3.07-.92-5.96-1.04-6.11A6.6 6.6 0 0012.4.78c-4.47.94-6.2 4.36-5.22 8.37-.3.32-.41.77-.3 1.2l.47 1.95c.12.47.48.82.92.95.14.97.55 1.85 1.15 2.56v1.54c-6.4 3.28-2.35 1.19-7.48 3.79-.01.04-2.41 2.6-2.05 10.16l.02.46zm25.85-.97h-4.4v-1.85l2.9-6.68c1.47 2.43 1.52 7.05 1.5 8.53zm-6.02-12.57c-.17 1.95-1.24 1.36-1.9 2.87a2.22 2.22 0 01-.53-2c.25-1.35-.57-1.75-.37-3.16l.03-.04.23-.27c1.74.76 2.58 2.17 2.55 2.6zm-9.35-1.54a4.96 4.96 0 005.57.07c.12 1.12.55 1.34.4 2.16l-.06.45-3 3.39-3.84-4.33.93-.49v-1.25zm-1.2-4.14v-1.88-3.3a4.2 4.2 0 011.89-1.86 26.67 26.67 0 016.2 4.8l-.01 2.48v.01a4.05 4.05 0 01-8.09-.25zm-.6 6.35l4.71 5.31 3.17-3.57c.07.21.17.4.29.6l-3.46 4.32-5.15-6.45.43-.22zm9.65-7.13v-1.5l.36-.41c.02.76.1-.14-.36 1.9zM12.56 1.73c.2.02 2.77-.39 4.8 1.8.08.1 1.74 2.24 1.07 4.58-.23-1.04-.62-2.37-1.25-3l-.69.67c.62.63 1.03 2.54 1.19 3.53-2.84-2.97-6.5-4.85-6.56-4.88-.18.11-1.73.4-2.86 2.6l-.05.1v1.6h-.15c-.71-3.45.66-6.19 4.5-7zm-4.6 8l.25 1v1.03l-.4-1.64c-.07-.24.11-.33.15-.38zm-.7 9.82l6.03 7.55 4.08-5.1c.45.39.66.45 1.6.93l-.31-1.08c-.09-.27.23-.71.43-.91.43-.23.79-.57 1.05-.98l3.34 1.68-3.1 7.1v2.05H6.2v-2.05l-3.1-7.1 4.15-2.09zm-4.94 2.71l2.92 6.68v1.85H.83c-.02-1.47.03-6.1 1.49-8.52z"/></symbol><symbol id="icon-mobile_learning" viewBox="0 0 33 32"><path d="M30.18-.13H14.43c-1.03 0-1.86.84-1.86 1.86v6.52l-11.7 4.9a.39.39 0 00-.05.68l1.5.9v9.51c-.77.18-1.34.86-1.34 1.68v.92c0 .2.17.38.38.38h2.67c.21 0 .38-.17.38-.38v-.92c0-.82-.57-1.5-1.33-1.67v-9.06l1.18.7c-.04.27 0-.47-.02 4.43 0 1.61 4.13 2.48 8.33 2.53v7.42a1.86 1.86 0 001.86 1.86h15.74c1.03 0 1.86-.84 1.86-1.86V1.73c0-1.01-.84-1.86-1.86-1.86zM3.64 25.92v.53h-1.9v-.53a.96.96 0 111.9 0zm26.53 5.44H14.43a1.1 1.1 0 01-1.1-1.09V27.7h17.94v2.57c0 .6-.5 1.1-1.1 1.1zm1.09-4.43H13.33v-4.08c2.05-.02 8.34-.48 8.34-2.53l-.01-4.43 3.42-2.05a.38.38 0 00-.05-.68l-11.7-4.91V5.07h17.94v21.86zM12.95 17.8c-2.11 0-6.18.28-7.95 1.43.01-3.53-.12-3.3.31-3.6 1.1-.81 4.24-1.37 7.64-1.37 1.48 0 7.96.4 7.96 1.77v3.2c-1.79-1.17-5.84-1.43-7.96-1.43zm.38-16.06c0-.6.5-1.1 1.1-1.1h15.74c.6 0 1.1.5 1.1 1.1v2.58H13.33V1.73zm-.38 7.18l11.1 4.66-2.76 1.64c-1.46-1.45-6.3-1.73-8.34-1.73-2.05 0-6.88.29-8.34 1.73l-2.75-1.64 11.1-4.66zM5 20.32c0-.62 2.73-1.77 7.95-1.77 5.22 0 7.96 1.16 7.96 1.77s-2.74 1.77-7.96 1.77S5 20.94 5 20.32z"/><path d="M22.3 28.27a1.26 1.26 0 100 2.52 1.26 1.26 0 000-2.52zm0 1.76a.5.5 0 110-1 .5.5 0 010 1zM23.75 2.09h-2.9v.76h2.9V2.1z"/></symbol><symbol id="icon-audio_Book" viewBox="0 0 39 32"><path d="M3.05 29.45h12.23a3.74 3.74 0 003.38 2.12h.77c1.47 0 2.76-.83 3.38-2.12h12.24a2.29 2.29 0 002.28-2.28V5.27a2.29 2.29 0 00-2.28-2.3H33.8V1.96c0-.84-.68-1.52-1.52-1.52H5.79c-.83 0-1.52.68-1.52 1.52v1.03H3.05A2.29 2.29 0 00.76 5.26v21.9a2.29 2.29 0 002.29 2.3zm29.24-4.7H19.8V7.05a5.9 5.9 0 015.12 5.83v.68l-.18-.04c-.2-.04-.4 0-.57.1s-.3.29-.34.49l-1.21 5.51c-.1.41.17.82.58.91l2.62.58a1.96 1.96 0 002.32-1.5l.7-3.18a1.95 1.95 0 00-1.48-2.33l-.92-.2v-1.02a7.42 7.42 0 00-6.64-7.37V1.96H32.3v22.8zm-7.12-9.57l1.87.4c.23.06.37.28.32.52l-.7 3.19a.45.45 0 01-.5.33l-1.88-.41.88-4.03zM5.8 1.96h12.48V5.5a7.42 7.42 0 00-6.65 7.37v1.02l-.91.2a1.94 1.94 0 00-1.48 2.32l.7 3.2a1.96 1.96 0 002.32 1.49l2.61-.58c.41-.1.67-.5.58-.9l-1.21-5.53a.76.76 0 00-.9-.58l-.18.04v-.69a5.9 5.9 0 015.12-5.83v17.7H5.8V1.96zm7.12 13.22l.88 4.03-1.86.4a.43.43 0 01-.51-.32l-.7-3.2a.42.42 0 01.32-.5l1.87-.42zM2.29 5.26c0-.42.34-.76.76-.76h1.22v20.25c0 .84.69 1.53 1.53 1.53h26.49c.84 0 1.52-.69 1.52-1.53V4.5h1.24c.42 0 .76.34.76.76v21.9c0 .43-.34.77-.76.77H22.29a.76.76 0 00-.72.54 2.22 2.22 0 01-2.14 1.57h-.77c-.98 0-1.84-.63-2.14-1.58a.76.76 0 00-.72-.53H3.05a.76.76 0 01-.76-.76V5.27z"/></symbol><symbol id="icon-open_book" viewBox="0 0 46 32"><path d="M20.27 4.6H6.63v1.03h13.64V4.6zM20.27 8.42H8.67v1.02h11.6V8.42zM20.27 12.22H6.63v1.02h13.64v-1.02zM20.27 16.03H8.67v1.02h11.6v-1.02zM20.27 19.84H6.63v1.02h13.64v-1.02zM20.27 23.65H8.67v1.02h11.6v-1.02zM38.99 4.6H25.35v1.03h13.64V4.6zM36.95 8.42h-11.6v1.02h11.6V8.42zM38.99 12.22H25.35v1.02h13.64v-1.02zM36.95 16.03h-11.6v1.02h11.6v-1.02zM38.99 19.84H25.35v1.02h13.64v-1.02zM36.95 23.65h-11.6v1.02h11.6v-1.02z"/><path d="M43.91 3.44h-1.87V.65a.51.51 0 00-.5-.52H26.26c-1.5 0-2.78.8-3.46 2.01a3.95 3.95 0 00-3.46-2H4.08a.51.51 0 00-.5.5v2.81H1.7a.51.51 0 00-.5.52v27.4c0 .29.22.52.5.52h42.21c.29 0 .52-.23.52-.51V3.96a.51.51 0 00-.51-.52zm-17.64-2.3h14.75V28.5H25.18a3 3 0 00-1.86.68V4.08c0-1.62 1.3-2.94 2.95-2.94zm-21.67 0h14.75c1.6 0 2.89 1.25 2.94 2.83v25.21a3 3 0 00-1.84-.69H4.6V1.14zM2.2 4.47h1.37V29c0 .28.22.5.5.5h16.37c.78 0 1.53.52 1.77 1.35h-20V4.46zm41.2 26.39H23.4c.24-.84.99-1.34 1.78-1.34h16.35c.28 0 .51-.23.51-.52V4.47h1.37v26.39z"/></symbol><symbol id="icon-study_program" viewBox="0 0 31 32"><path d="M30.15 4.96a.32.32 0 00-.06-.1l-4.8-4.8a.26.26 0 00-.05-.03L25.2 0 25.19 0a.28.28 0 00-.1-.02H3.9a.28.28 0 00-.28.28v29.37l.01.02v.03l.02.03.02.02c0 .02.02.03.03.04l2.17 2.17c.1.11.29.11.4 0l1.96-1.96 1.97 1.96c.05.06.13.08.2.08s.14-.02.2-.08l1.96-1.96 1.97 1.96c.1.11.29.11.4 0l1.96-1.96 1.97 1.96c.1.11.29.11.4 0l1.96-1.96 1.97 1.96c.05.06.12.08.2.08s.14-.02.2-.08l1.96-1.96 1.97 1.96c.1.11.29.11.4 0l2.16-2.16.01-.02.03-.03.01-.03.01-.02.01-.03v-.02l.01-.06V5.07a.3.3 0 00-.02-.1zM25.37.95l3.83 3.83h-3.83V.95zm4.23 28.5l-1.88 1.89-1.96-1.97a.28.28 0 00-.4 0l-1.96 1.97-1.97-1.97a.28.28 0 00-.4 0l-1.97 1.97-1.96-1.97a.28.28 0 00-.4 0l-1.96 1.97-1.97-1.97a.28.28 0 00-.4 0l-1.96 1.97-1.97-1.97a.28.28 0 00-.4 0l-1.96 1.97-1.88-1.88V.55h20.6v4.52c0 .16.13.28.28.28h4.52v24.1z"/><path d="M6.31 3.23h9.3a.28.28 0 100-.56h-9.3a.28.28 0 100 .56zM6.31 5h14.92a.28.28 0 100-.58H6.31a.28.28 0 100 .57zM6.03 6.57v9.2c0 .15.13.28.28.28H27.5c.15 0 .28-.13.28-.28v-9.2a.28.28 0 00-.28-.29H6.3a.28.28 0 00-.28.29zm6.28.28h14.9V9.3H12.3V6.85zm0 3.02h14.9v2.44H12.3V9.87zm0 3h14.9v2.61H12.3v-2.6zM6.6 6.86h5.14V9.3H6.6V6.85zm0 3.02h5.14v2.44H6.6V9.87zm0 3h5.14v2.61H6.6v-2.6zM27.49 17.33H6.3a.28.28 0 00-.28.28v9.2a.28.28 0 10.57 0v-2.89h5.14v2.9a.28.28 0 10.57 0v-2.9h14.9v2.9a.28.28 0 10.56 0v-9.2a.28.28 0 00-.28-.3zm-15.75 6.02H6.6v-2.44h5.14v2.44zm0-3H6.6V17.9h5.14v2.44zm15.46 3H12.3v-2.44h14.9v2.44zm0-3H12.3V17.9h14.9v2.44zM2.28-.02A.28.28 0 002 .26v29.31a.28.28 0 10.56 0V.27a.28.28 0 00-.28-.3zM.72-.02a.28.28 0 00-.29.28v29.31a.28.28 0 10.57 0V.27a.28.28 0 00-.28-.3z"/></symbol></defs></svg>