<svg width="61" height="40" viewBox="0 0 61 40" fill="none"  xmlns="http://www.w3.org/2000/svg">
<path id="&#226;&#128;&#156;" d="M44.7258 2.59234e-06C47.4201 2.80309e-06 49.9648 0.650413 52.3597 1.95122C54.7547 3.25204 56.7006 5.12196 58.1974 7.56098C59.6344 10 60.3529 12.8726 60.3529 16.1789C60.3529 19.4851 59.4548 22.71 57.6586 25.8537C57.0598 26.9919 55.9821 28.4553 54.4254 30.2439C52.8088 32.0325 51.3119 33.5772 49.9348 34.878L44.2768 40L40.2353 33.9837C43.0493 32.4119 45.5341 30.4607 47.6896 28.1301C49.845 25.8537 50.9228 23.7669 50.9228 21.8699C50.9228 20.8943 50.6833 20.1084 50.2043 19.5122C48.1087 20.8672 45.7736 21.5447 43.199 21.5447C41.3429 21.5447 39.5766 21.0298 37.9002 20C36.1638 19.0244 34.7867 17.7236 33.7689 16.0976C32.6911 14.5257 32.1523 12.8997 32.1523 11.2195C32.1523 9.32249 32.781 7.50678 34.0383 5.77236C35.2358 4.03794 36.8224 2.62873 38.7983 1.54472C40.7143 0.51491 42.6901 2.43311e-06 44.7258 2.59234e-06ZM12.4837 7.03486e-08C15.178 2.811e-07 17.7227 0.65041 20.1176 1.95122C22.5126 3.25203 24.4585 5.12195 25.9553 7.56098C27.3923 10 28.1108 12.8726 28.1108 16.1789C28.1108 18.5095 27.7815 20.5962 27.1229 22.439C26.4643 24.336 25.3266 26.3144 23.71 28.374C22.1533 30.3252 20.6864 31.9512 19.3093 33.252C17.9322 34.607 15.5373 36.8564 12.1244 40L8.08295 33.9837C10.897 32.4119 13.3818 30.4607 15.5373 28.1301C17.6927 25.8537 18.7704 23.7669 18.7704 21.8699C18.7704 20.8943 18.531 20.1084 18.052 19.5122C15.9564 20.8672 13.6213 21.5447 11.0467 21.5447C9.19062 21.5447 7.42434 21.0298 5.74787 20C4.01152 19.0244 2.63442 17.7236 1.61656 16.0976C0.538832 14.5257 -3.16844e-05 12.8997 -3.15202e-05 11.2195C-3.13348e-05 9.32249 0.598708 7.50677 1.79619 5.77236C2.99367 4.03794 4.58033 2.62873 6.55617 1.54472C8.47213 0.514908 10.448 -8.8886e-08 12.4837 7.03486e-08Z" fill="#E1E1E1"/>
</svg>
