<svg xmlns="http://www.w3.org/2000/svg" width="54" height="40" fill="none">
  <path fill="#E1E1E1" d="M40.02 0c2.4 0 4.69.65 6.83 1.95a14.6 14.6 0 0 1 5.22 5.61A18.23 18.23 0 0 1 54 16.18c0 3.3-.8 6.53-2.41 9.67a25.6 25.6 0 0 1-2.9 4.4 79.27 79.27 0 0 1-4.01 4.63L39.62 40 36 33.98a27.55 27.55 0 0 0 6.67-5.85c1.93-2.28 2.9-4.36 2.9-6.26 0-.98-.22-1.76-.65-2.36a10.45 10.45 0 0 1-6.27 2.03A8.24 8.24 0 0 1 33.91 20a10.7 10.7 0 0 1-3.7-3.9 9.2 9.2 0 0 1-1.44-4.88c0-1.9.56-3.71 1.69-5.45a12.78 12.78 0 0 1 4.25-4.23A10.17 10.17 0 0 1 40.01 0ZM11.17 0c2.41 0 4.69.65 6.83 1.95a14.6 14.6 0 0 1 5.22 5.61 18.23 18.23 0 0 1 1.93 8.62c0 2.33-.3 4.42-.88 6.26-.6 1.9-1.6 3.87-3.06 5.93a46.03 46.03 0 0 1-3.93 4.88c-1.24 1.36-3.38 3.6-6.43 6.75l-3.62-6.02a27.55 27.55 0 0 0 6.67-5.85c1.93-2.28 2.9-4.36 2.9-6.26 0-.98-.22-1.76-.65-2.36a10.45 10.45 0 0 1-6.27 2.03A8.24 8.24 0 0 1 5.14 20a10.7 10.7 0 0 1-3.7-3.9A9.2 9.2 0 0 1 0 11.22c0-1.9.54-3.71 1.6-5.45a12.78 12.78 0 0 1 4.27-4.23A10.17 10.17 0 0 1 11.17 0Z"/>
</svg>
