<svg width="12" height="12" viewBox="0 0 12 12" fill="none" xmlns="http://www.w3.org/2000/svg">
<g id="Frame 2">
<g id="home 1">
<path id="Vector" d="M11.8497 5.79095C12.0672 5.58873 12.0462 5.2788 11.8028 5.09887L6.43981 1.13251C6.19638 0.952581 5.80611 0.95635 5.56781 1.14101L0.186634 5.31034C-0.0516656 5.495 -0.0633615 5.80454 0.160739 6.00143L0.295652 6.12019C0.519479 6.31708 0.88127 6.34055 1.10322 6.17246L1.50538 5.86805V10.3247C1.50538 10.5981 1.7675 10.8195 2.09076 10.8195H4.18836C4.51162 10.8195 4.77374 10.5981 4.77374 10.3247V7.20683H7.44925V10.3247C7.4446 10.5979 7.6759 10.8193 7.99916 10.8193H10.2221C10.5453 10.8193 10.8075 10.5979 10.8075 10.3245V5.9308C10.8075 5.9308 10.9186 6.01306 11.0556 6.11486C11.1924 6.21647 11.4797 6.135 11.6972 5.93259L11.8497 5.79095Z" fill="#D31342"/>
</g>
</g>
</svg>
