<svg width="18" height="18" viewBox="0 0 18 18" fill="none" xmlns="http://www.w3.org/2000/svg">
<path fill-rule="evenodd" clip-rule="evenodd" d="M16.9995 13.0028V15.4163C17.0013 15.8693 16.8121 16.3021 16.4783 16.6084C16.1444 16.9147 15.6969 17.066 15.2457 17.0252C12.7702 16.7562 10.3923 15.9103 8.30312 14.5555C6.35937 13.3203 4.71141 11.6724 3.47627 9.72863C2.11669 7.62992 1.2706 5.24046 1.00654 2.75383C0.965888 2.30403 1.11616 1.85785 1.42065 1.52429C1.72514 1.19073 2.1558 1.0005 2.60744 1.00008H5.02087C5.82845 0.992131 6.51679 1.5841 6.62982 2.38378C6.73168 3.15613 6.92059 3.91447 7.19295 4.64435C7.41397 5.23232 7.2726 5.89515 6.83093 6.34179L5.80925 7.36348C6.95447 9.37752 8.62206 11.0451 10.6361 12.1903L11.6578 11.1686C12.1044 10.727 12.7673 10.5856 13.3552 10.8066C14.0851 11.079 14.8435 11.2679 15.6158 11.3698C16.4248 11.4839 17.0198 12.1861 16.9995 13.0028Z" stroke="#9DA4BD" stroke-linecap="round" stroke-linejoin="round"/>
</svg>
