<svg id="Capa_1" enable-background="new 0 0 512 512" height="16" viewBox="0 0 512 512" width="16" xmlns="http://www.w3.org/2000/svg"><g><path d="m330.358 440.278-14.53 27.908c-5.81 11.151-14.471 20.232-24.832 26.521-1.689 1.025-3.418 1.972-5.195 2.842l-115.36-221.669h74.359z" fill="#ddbeff"/><path d="m415.917 275.879-48.384 92.97-48.385-92.97z" fill="#ddbeff"/><path d="m285.802 497.548c-9.111 4.492-19.276 6.952-29.802 6.952-25.154 0-48.218-14.003-59.828-36.315l-100.089-192.306h74.358z" fill="#b98eff"/><path d="m367.533 368.849-37.175 71.429-85.558-164.399h74.348z" fill="#b98eff"/><path d="m96.086 218.381h319.828c3.806 0 7.437.747 10.762 2.09-2.52-92.1-77.967-165.988-170.676-165.988-92.709 0-168.156 73.889-170.675 165.989 3.324-1.344 6.955-2.091 10.761-2.091z" fill="#ff63ed"/><circle cx="307.957" cy="150.186" fill="#e207b9" r="11.024"/><g><path d="m279.343 187.398h-46.686c-4.143 0-7.5-3.358-7.5-7.5s3.357-7.5 7.5-7.5h46.686c4.143 0 7.5 3.358 7.5 7.5s-3.357 7.5-7.5 7.5z" fill="#e207b9"/></g><circle cx="204.043" cy="150.186" fill="#e207b9" r="11.024"/><path d="m158.034 85.375-46.289-71.19c-4.419-6.796-13.511-8.724-20.308-4.304l-12.227 7.95c-6.796 4.419-8.724 13.511-4.304 20.308l50.294 77.35c9.579-11.406 20.618-21.541 32.834-30.114z" fill="#b98eff"/><g><path d="m125.207 122.989c-2.453 0-4.857-1.202-6.295-3.412l-50.293-77.35c-3.229-4.966-4.331-10.893-3.103-16.689 1.228-5.795 4.64-10.765 9.605-13.995l12.228-7.95c4.967-3.229 10.893-4.331 16.688-3.103 5.796 1.229 10.766 4.64 13.995 9.607l46.289 71.19c2.258 3.473 1.272 8.118-2.2 10.376-3.471 2.257-8.118 1.273-10.376-2.199l-46.289-71.19c-1.045-1.608-2.653-2.712-4.529-3.11-1.877-.398-3.794-.041-5.402 1.005l-12.227 7.95c-1.606 1.045-2.711 2.654-3.108 4.53s-.041 3.794 1.004 5.401l50.294 77.351c2.258 3.472 1.272 8.118-2.2 10.376-1.262.819-2.68 1.212-4.081 1.212z" fill="#6d00ca"/></g><g><path d="m426.672 227.971c-4.047 0-7.382-3.224-7.493-7.295-1.166-42.641-18.658-82.547-49.254-112.366-30.654-29.875-71.112-46.327-113.925-46.327s-83.272 16.453-113.925 46.328c-30.596 29.819-48.088 69.725-49.254 112.366-.113 4.14-3.517 7.407-7.702 7.292-4.141-.113-7.405-3.562-7.292-7.702 1.273-46.564 20.372-90.139 53.779-122.698 33.471-32.621 77.648-50.586 124.394-50.586 46.747 0 90.924 17.965 124.394 50.586 33.407 32.559 52.505 76.134 53.779 122.698.113 4.14-3.151 7.589-7.292 7.702-.071.002-.14.002-.209.002z" fill="#e207b9"/></g><path d="m415.914 218.381h-319.828c-15.878 0-28.75 12.872-28.75 28.75 0 15.878 12.872 28.75 28.75 28.75h319.828c15.878 0 28.75-12.872 28.75-28.75 0-15.878-12.872-28.75-28.75-28.75z" fill="#9448f5"/><path d="m452.163 247.131c0-19.988-16.262-36.25-36.25-36.25h-319.827c-19.988 0-36.25 16.262-36.25 36.25 0 18.388 13.766 33.611 31.531 35.933l98.15 188.583c12.954 24.891 38.428 40.353 66.483 40.353 27.569 0 53.397-15.242 66.481-40.352 90.645-174.159-84.625 162.615 98.151-188.584 17.766-2.321 31.531-17.544 31.531-35.933zm-84.63 105.471-36.025-69.221h72.049zm-37.175 71.43-73.199-140.65h57.438l44.48 85.467zm-127.534 40.691-94.381-181.341h57.448l109.489 210.386c-6.23 2.126-12.812 3.232-19.38 3.232-22.44 0-42.815-12.367-53.176-32.277zm86.04 22.462-106.062-203.804h57.447l81.654 156.896-12.725 24.442c-4.753 9.122-11.751 16.853-20.314 22.466zm127.075-218.805c-.007 0-.015-.001-.022-.001-64.73 0-255.182 0-319.833 0-.007 0-.015.001-.022.001-11.706-.014-21.225-9.54-21.225-21.249 0-11.717 9.532-21.25 21.25-21.25h319.828c11.718 0 21.25 9.533 21.25 21.25-.001 11.709-9.52 21.235-21.226 21.249z" fill="#6d00ca"/></g></svg>