<svg aria-hidden="true" style="position: absolute; width: 0; height: 0; overflow: hidden;" version="1.1" xmlns="http://www.w3.org/2000/svg" xmlns:xlink="http://www.w3.org/1999/xlink">
<defs>
<symbol id="icon-Group" viewBox="0 0 32 32">
<path fill="#9da4bd" style="fill: var(--color1, #9da4bd)" d="M15.808 11.424c2.048 0.096 2.576 1.84 2.608 2.656h2.864c-0.128-3.168-2.384-5.104-5.52-5.104-3.536 0-6.16 2.224-6.16 7.248 0 3.104 1.488 6.784 6.144 6.784 3.552 0 5.456-2.64 5.504-4.72h-2.864c-0.048 0.944-0.72 2.208-2.608 2.304-2.096-0.064-2.976-1.696-2.976-4.368 0-4.624 2.048-4.768 3.008-4.8zM16 0c-8.832 0-16 7.168-16 16s7.168 16 16 16 16-7.168 16-16-7.168-16-16-16zM16 28.8c-7.066-0.009-12.791-5.734-12.8-12.799v-0.001c0-7.056 5.744-12.8 12.8-12.8s12.8 5.744 12.8 12.8-5.744 12.8-12.8 12.8z"></path>
</symbol>
<symbol id="icon-phone" viewBox="0 0 32 32">
<path fill="none" stroke="#9da4bd" style="stroke: var(--color1, #9da4bd)" stroke-linejoin="round" stroke-linecap="round" stroke-miterlimit="4" stroke-width="1.3333" d="M26.667 21.337v3.217c0 0.003 0 0.006 0 0.009 0 1.186-0.961 2.147-2.147 2.147-0.068 0-0.134-0.003-0.2-0.009l0.008 0.001c-3.481-0.388-6.626-1.563-9.338-3.343l0.081 0.050c-2.608-1.675-4.761-3.828-6.386-6.353l-0.050-0.083c-1.736-2.644-2.912-5.804-3.285-9.205l-0.008-0.095c-0.006-0.058-0.009-0.125-0.009-0.193 0-1.185 0.96-2.145 2.145-2.145h3.219c0.006-0 0.013-0 0.020-0 1.079 0 1.972 0.797 2.123 1.834l0.001 0.012c0.136 1.029 0.387 2.040 0.751 3.013 0.295 0.784 0.107 1.668-0.483 2.264l-1.363 1.361c1.555 2.7 3.736 4.881 6.353 6.392l0.083 0.044 1.363-1.361c0.388-0.383 0.92-0.619 1.509-0.619 0.271 0 0.53 0.050 0.769 0.142l-0.015-0.005c0.973 0.363 1.984 0.613 3.013 0.751 1.050 0.151 1.847 1.045 1.847 2.125 0 0.019-0 0.037-0.001 0.056l0-0.003z"></path>
</symbol>
<symbol id="icon-map-pin" viewBox="0 0 32 32">
<path fill="none" stroke="#9da4bd" style="stroke: var(--color1, #9da4bd)" stroke-linejoin="round" stroke-linecap="round" stroke-miterlimit="4" stroke-width="1.3333" d="M26.667 13.819c0 7.635-10.667 14.181-10.667 14.181s-10.667-6.547-10.667-14.181c0-5.423 4.776-9.819 10.667-9.819s10.667 4.396 10.667 9.819v0z"></path>
<path fill="none" stroke="#9da4bd" style="stroke: var(--color1, #9da4bd)" stroke-linejoin="round" stroke-linecap="round" stroke-miterlimit="4" stroke-width="1.3333" d="M16 18.667c2.209 0 4-1.791 4-4s-1.791-4-4-4v0c-2.209 0-4 1.791-4 4s1.791 4 4 4v0z"></path>
</symbol>
<symbol id="icon-mail" viewBox="0 0 32 32">
<path fill="none" stroke="#9da4bd" style="stroke: var(--color1, #9da4bd)" stroke-linejoin="round" stroke-linecap="round" stroke-miterlimit="4" stroke-width="1.3333" d="M6.4 6.667h19.2c1.32 0 2.4 1.049 2.4 2.333v14c0 1.283-1.080 2.333-2.4 2.333h-19.2c-1.32 0-2.4-1.051-2.4-2.333v-14c0-1.284 1.080-2.333 2.4-2.333z"></path>
<path fill="none" stroke="#9da4bd" style="stroke: var(--color1, #9da4bd)" stroke-linejoin="round" stroke-linecap="round" stroke-miterlimit="4" stroke-width="1.3333" d="M26.667 9.333l-10.667 8-10.667-8"></path>
</symbol>
<symbol id="icon-linkedin" viewBox="0 0 32 32">
<path d="M31.992 32h0.008v-11.738c0-5.741-1.235-10.163-7.947-10.163-3.227 0-5.392 1.77-6.277 3.45h-0.093v-2.914h-6.365v21.363h6.627v-10.578c0-2.786 0.528-5.48 3.978-5.48 3.398 0 3.45 3.179 3.45 5.658v10.402h6.619zM0.528 10.635h6.635v21.365h-6.635v-21.365zM3.843 0c-2.123 0-3.843 1.721-3.843 3.843v0c0 2.12 1.722 3.878 3.843 3.878 2.12 0 3.842-1.757 3.842-3.878s-1.72-3.841-3.841-3.843h-0z"></path>
</symbol>
<symbol id="icon-facebook" viewBox="0 0 32 32">
<path d="M21.328 5.312h2.923v-5.088c-1.232-0.143-2.66-0.224-4.107-0.224-0.052 0-0.104 0-0.157 0l0.008-0c-4.213 0-7.099 2.65-7.099 7.52v4.48h-4.646v5.688h4.646v14.312h5.698v-14.31h4.461l0.707-5.688h-5.168v-3.922c0-1.643 0.443-2.768 2.734-2.768z"></path>
</symbol>
<symbol id="icon-twitter" viewBox="0 0 32 32">
<path d="M32 6.078c-1.1 0.493-2.376 0.857-3.713 1.028l-0.068 0.007c1.36-0.817 2.382-2.078 2.873-3.579l0.013-0.046c-1.197 0.722-2.591 1.273-4.076 1.573l-0.084 0.014c-1.2-1.279-2.9-2.076-4.787-2.076-3.622 0-6.558 2.936-6.558 6.558 0 0.001 0 0.003 0 0.004v-0c0 0.52 0.043 1.021 0.152 1.496-5.454-0.266-10.28-2.88-13.522-6.861-0.564 0.949-0.899 2.092-0.902 3.313v0.001c0 2.272 1.171 4.286 2.914 5.451-1.091-0.030-2.107-0.325-2.994-0.823l0.033 0.017v0.072c0.003 3.165 2.236 5.807 5.213 6.44l0.043 0.008c-0.499 0.136-1.071 0.215-1.662 0.215-0.020 0-0.041-0-0.061-0l0.003 0c-0.419 0-0.843-0.024-1.242-0.112 0.85 2.598 3.261 4.509 6.13 4.57-2.215 1.746-5.045 2.8-8.122 2.8-0.004 0-0.008 0-0.013 0h0.001c-0.018 0-0.040 0-0.062 0-0.531 0-1.055-0.034-1.569-0.099l0.061 0.006c2.826 1.846 6.287 2.944 10.004 2.944 0.021 0 0.042-0 0.063-0h-0.003c12.072 0 18.672-10 18.672-18.669 0-0.288-0.010-0.57-0.024-0.848 1.299-0.936 2.39-2.064 3.258-3.355l0.030-0.047z"></path>
</symbol>
<symbol id="icon-instagram" viewBox="0 0 32 32">
<path d="M31.968 9.408c-0.074-1.701-0.349-2.869-0.742-3.882-0.424-1.111-1.054-2.059-1.85-2.837l-0.001-0.001c-0.78-0.792-1.724-1.419-2.778-1.827l-0.054-0.018c-1.019-0.394-2.181-0.667-3.882-0.742-1.712-0.082-2.256-0.101-6.602-0.101-4.344 0-4.888 0.019-6.595 0.094-1.699 0.074-2.869 0.349-3.88 0.742-1.112 0.424-2.060 1.054-2.839 1.85l-0.001 0.001c-0.791 0.78-1.418 1.724-1.825 2.778l-0.018 0.054c-0.395 1.019-0.669 2.181-0.744 3.882-0.082 1.712-0.101 2.256-0.101 6.602 0 4.344 0.019 4.888 0.094 6.595 0.075 1.701 0.35 2.869 0.744 3.882 0.426 1.11 1.055 2.057 1.849 2.837l0.001 0.001c0.8 0.813 1.77 1.443 2.832 1.843 1.019 0.395 2.182 0.67 3.882 0.744 1.707 0.075 2.251 0.094 6.595 0.094 4.346 0 4.89-0.019 6.595-0.094 1.701-0.074 2.869-0.349 3.882-0.742 2.157-0.85 3.833-2.526 4.664-4.628l0.019-0.055c0.394-1.019 0.669-2.182 0.744-3.882 0.075-1.707 0.093-2.251 0.093-6.595s-0.006-4.888-0.080-6.595zM29.088 22.474c-0.070 1.563-0.333 2.406-0.55 2.97-0.552 1.399-1.64 2.486-3.004 3.024l-0.036 0.012c-0.56 0.219-1.411 0.482-2.968 0.55-1.688 0.075-2.194 0.094-6.464 0.094-4.269 0-4.782-0.019-6.464-0.094-1.563-0.069-2.406-0.331-2.97-0.55-0.721-0.269-1.334-0.676-1.836-1.192l-0.001-0.001c-0.517-0.503-0.924-1.117-1.184-1.803l-0.011-0.034c-0.218-0.563-0.48-1.413-0.549-2.97-0.075-1.688-0.094-2.195-0.094-6.464 0-4.27 0.019-4.784 0.094-6.464 0.069-1.563 0.331-2.406 0.549-2.97 0.269-0.722 0.678-1.337 1.198-1.837l0.002-0.002c0.504-0.517 1.119-0.923 1.806-1.182l0.034-0.011c0.56-0.219 1.411-0.48 2.968-0.55 1.688-0.074 2.195-0.093 6.464-0.093 4.275 0 4.782 0.019 6.464 0.093 1.563 0.069 2.406 0.331 2.97 0.55 0.693 0.256 1.325 0.662 1.837 1.194 0.531 0.52 0.938 1.144 1.195 1.84 0.218 0.56 0.48 1.411 0.549 2.968 0.075 1.688 0.094 2.194 0.094 6.464 0 4.269-0.019 4.768-0.094 6.458z"></path>
<path d="M16.059 7.782c-4.539 0.002-8.218 3.682-8.219 8.221v0c0.091 4.471 3.737 8.060 8.221 8.060s8.13-3.589 8.221-8.052l0-0.009c-0.001-4.54-3.681-8.22-8.221-8.221h-0zM16.059 21.334c-2.945-0-5.332-2.388-5.332-5.333s2.388-5.333 5.333-5.333c0 0 0.001 0 0.001 0h-0c2.946 0 5.334 2.388 5.334 5.334s-2.388 5.334-5.334 5.334v0zM26.525 7.458c0 1.060-0.86 1.92-1.92 1.92s-1.92-0.86-1.92-1.92v0c0-1.060 0.86-1.92 1.92-1.92s1.92 0.86 1.92 1.92v0z"></path>
</symbol>
<symbol id="icon-100" viewBox="0 0 47 32">
<path fill="#f7f7f7" style="fill: var(--color2, #f7f7f7)" d="M0 0h46.677v32h-46.677z"></path>
<path fill="#303030" style="fill: var(--color3, #303030)" d="M16.543 15.639h-1.524v-4.174l0.015-0.686 0.025-0.75c-0.253 0.253-0.429 0.419-0.528 0.498l-0.829 0.666-0.735-0.918 2.324-1.85h1.253v7.214zM24.055 12.032c0 1.26-0.207 2.192-0.622 2.798-0.411 0.605-1.046 0.908-1.904 0.908-0.832 0-1.46-0.313-1.885-0.937-0.421-0.625-0.631-1.548-0.631-2.768 0-1.273 0.205-2.211 0.617-2.813 0.411-0.605 1.044-0.908 1.9-0.908 0.832 0 1.46 0.316 1.885 0.947 0.428 0.632 0.641 1.556 0.641 2.773zM20.527 12.032c0 0.885 0.076 1.52 0.227 1.905 0.154 0.382 0.413 0.572 0.775 0.572 0.355 0 0.612-0.194 0.77-0.582s0.237-1.020 0.237-1.895c0-0.885-0.081-1.52-0.242-1.905-0.158-0.388-0.413-0.582-0.765-0.582-0.358 0-0.615 0.194-0.77 0.582-0.154 0.385-0.232 1.020-0.232 1.905zM30.334 12.032c0 1.26-0.207 2.192-0.622 2.798-0.411 0.605-1.046 0.908-1.905 0.908-0.832 0-1.461-0.313-1.885-0.937-0.421-0.625-0.632-1.548-0.632-2.768 0-1.273 0.205-2.211 0.617-2.813 0.411-0.605 1.044-0.908 1.9-0.908 0.832 0 1.46 0.316 1.885 0.947 0.428 0.632 0.641 1.556 0.641 2.773zM26.806 12.032c0 0.885 0.076 1.52 0.227 1.905 0.154 0.382 0.413 0.572 0.775 0.572 0.355 0 0.612-0.194 0.77-0.582s0.237-1.020 0.237-1.895c0-0.885-0.081-1.52-0.242-1.905-0.158-0.388-0.413-0.582-0.765-0.582-0.359 0-0.615 0.194-0.77 0.582-0.154 0.385-0.232 1.020-0.232 1.905z"></path>
<path fill="#ff6c00" style="fill: var(--color4, #ff6c00)" d="M32.912 9.397h-0.748v-0.334h0.748v-0.767h0.338v0.767h0.75v0.334h-0.75v0.763h-0.338v-0.763z"></path>
<path fill="#303030" style="fill: var(--color3, #303030)" d="M9.756 22.857h-0.31v-1.624h-0.833v1.624h-0.309v-1.889h1.453v1.889zM11.491 22.14c0 0.233-0.060 0.416-0.18 0.547s-0.286 0.196-0.5 0.196c-0.134 0-0.252-0.030-0.354-0.090-0.103-0.062-0.184-0.15-0.235-0.256l-0.002-0.004c-0.055-0.113-0.083-0.244-0.083-0.393 0-0.232 0.059-0.413 0.179-0.543s0.286-0.195 0.503-0.195c0.207 0 0.371 0.067 0.491 0.2s0.181 0.312 0.181 0.538zM10.45 22.14c0 0.33 0.122 0.495 0.366 0.495 0.241 0 0.362-0.165 0.362-0.495 0-0.326-0.121-0.49-0.364-0.49-0.128 0-0.22 0.042-0.278 0.127s-0.085 0.205-0.085 0.363zM13.212 23.362h-0.283v-0.505h-0.979v0.505h-0.281v-0.741h0.116c0.102-0.146 0.182-0.321 0.242-0.527 0.060-0.207 0.096-0.429 0.107-0.667h0.868v1.194h0.209v0.741zM12.704 22.622v-0.961h-0.308c-0.018 0.194-0.055 0.373-0.108 0.543l0.005-0.019c-0.052 0.172-0.115 0.318-0.19 0.437h0.601zM14.371 22.857l-0.061-0.199h-0.010c-0.069 0.087-0.138 0.147-0.208 0.178s-0.16 0.046-0.269 0.046c-0.14 0-0.25-0.038-0.33-0.114s-0.118-0.183-0.118-0.322c0-0.147 0.055-0.258 0.164-0.333s0.276-0.116 0.5-0.123l0.247-0.008v-0.076c0-0.091-0.022-0.159-0.065-0.204s-0.108-0.069-0.198-0.069c-0.073 0-0.143 0.011-0.211 0.032-0.077 0.025-0.142 0.051-0.203 0.080l0.010-0.004-0.098-0.217c0.073-0.039 0.158-0.070 0.248-0.091l0.007-0.001c0.092-0.022 0.179-0.032 0.261-0.032 0.182 0 0.319 0.040 0.411 0.119 0.093 0.079 0.14 0.204 0.14 0.374v0.963h-0.217zM13.919 22.65c0.11 0 0.198-0.031 0.265-0.091 0.067-0.062 0.101-0.149 0.101-0.26v-0.124l-0.184 0.008c-0.143 0.005-0.247 0.029-0.313 0.072-0.064 0.042-0.097 0.107-0.097 0.195 0 0.064 0.019 0.113 0.057 0.149s0.095 0.052 0.171 0.052zM15.737 22.883c-0.181 0-0.321-0.065-0.421-0.195h-0.018c0.012 0.12 0.018 0.194 0.018 0.22v0.585h-0.304v-2.065h0.245c0.007 0.026 0.021 0.090 0.043 0.191h0.015c0.095-0.145 0.237-0.217 0.427-0.217 0.178 0 0.317 0.065 0.416 0.194s0.15 0.31 0.15 0.544c0 0.233-0.051 0.416-0.153 0.547s-0.24 0.196-0.419 0.196zM15.663 21.65c-0.121 0-0.209 0.035-0.265 0.106s-0.083 0.184-0.083 0.339v0.045c0 0.174 0.028 0.3 0.083 0.379s0.145 0.116 0.27 0.116c0.105 0 0.186-0.043 0.243-0.129s0.085-0.209 0.085-0.368c0-0.16-0.028-0.282-0.085-0.363-0.056-0.083-0.139-0.124-0.248-0.124zM17.548 21.428h0.333l-0.591 0.689 0.641 0.741h-0.349l-0.618-0.725v0.725h-0.304v-1.429h0.304v0.694l0.583-0.694zM19.436 22.14c0 0.233-0.060 0.416-0.18 0.547s-0.286 0.196-0.5 0.196c-0.134 0-0.251-0.030-0.354-0.090-0.103-0.062-0.184-0.15-0.235-0.256l-0.002-0.004c-0.055-0.113-0.083-0.244-0.083-0.393 0-0.232 0.059-0.413 0.178-0.543s0.286-0.195 0.503-0.195c0.207 0 0.37 0.067 0.491 0.2s0.181 0.312 0.181 0.538zM18.395 22.14c0 0.33 0.122 0.495 0.366 0.495 0.241 0 0.362-0.165 0.362-0.495 0-0.326-0.122-0.49-0.364-0.49-0.128 0-0.22 0.042-0.278 0.127s-0.085 0.205-0.085 0.363zM21.026 21.793c0 0.169-0.099 0.271-0.296 0.307v0.010c0.11 0.013 0.195 0.048 0.253 0.105s0.088 0.13 0.088 0.221c0 0.135-0.052 0.24-0.155 0.313s-0.252 0.108-0.448 0.108h-0.682v-1.429h0.68c0.374 0 0.561 0.122 0.561 0.366zM20.76 22.418c0-0.069-0.027-0.118-0.080-0.146s-0.134-0.044-0.241-0.044h-0.35v0.404h0.358c0.208 0 0.313-0.071 0.313-0.214zM20.723 21.819c0-0.057-0.022-0.098-0.067-0.123-0.044-0.026-0.11-0.039-0.198-0.039h-0.368v0.344h0.323c0.102 0 0.179-0.013 0.231-0.038 0.053-0.027 0.079-0.075 0.079-0.144zM23.323 21.428v1.429h-0.305v-1.189h-0.641v1.189h-0.304v-1.429h1.25zM25.026 22.14c0 0.233-0.060 0.416-0.18 0.547s-0.287 0.196-0.5 0.196c-0.134 0-0.251-0.030-0.354-0.090-0.103-0.062-0.184-0.15-0.235-0.256l-0.002-0.004c-0.055-0.113-0.083-0.244-0.083-0.393 0-0.232 0.059-0.413 0.178-0.543s0.287-0.195 0.503-0.195c0.207 0 0.37 0.067 0.491 0.2s0.181 0.312 0.181 0.538zM23.986 22.14c0 0.33 0.122 0.495 0.366 0.495 0.241 0 0.362-0.165 0.362-0.495 0-0.326-0.122-0.49-0.364-0.49-0.128 0-0.22 0.042-0.278 0.127s-0.085 0.205-0.085 0.363zM25.953 22.883c-0.216 0-0.381-0.063-0.494-0.189s-0.168-0.308-0.168-0.544c0-0.24 0.058-0.425 0.176-0.554s0.288-0.194 0.511-0.194c0.151 0 0.286 0.028 0.407 0.084l-0.092 0.244c-0.128-0.050-0.234-0.075-0.318-0.075-0.247 0-0.371 0.164-0.371 0.492 0 0.16 0.031 0.281 0.092 0.362s0.153 0.12 0.271 0.12c0.135 0 0.263-0.034 0.384-0.101v0.265c-0.050 0.030-0.108 0.054-0.17 0.068l-0.004 0.001c-0.062 0.013-0.133 0.021-0.205 0.021-0.006 0-0.013-0-0.019-0h0.001zM27.761 21.428v0.238h-0.465v1.191h-0.305v-1.191h-0.465v-0.238h1.236zM29.304 22.14c0 0.233-0.060 0.416-0.18 0.547s-0.286 0.196-0.5 0.196c-0.134 0-0.252-0.030-0.354-0.090-0.103-0.062-0.184-0.15-0.235-0.256l-0.002-0.004c-0.055-0.113-0.083-0.244-0.083-0.393 0-0.232 0.060-0.413 0.179-0.543s0.286-0.195 0.503-0.195c0.207 0 0.371 0.067 0.491 0.2s0.181 0.312 0.181 0.538zM28.263 22.14c0 0.33 0.122 0.495 0.366 0.495 0.241 0 0.362-0.165 0.362-0.495 0-0.326-0.122-0.49-0.364-0.49-0.128 0-0.22 0.042-0.278 0.127s-0.085 0.205-0.085 0.363zM29.8 22.857h-0.34l0.398-0.585c-0.096-0.028-0.172-0.077-0.227-0.147-0.055-0.072-0.083-0.16-0.083-0.265 0-0.135 0.048-0.241 0.145-0.316 0.096-0.077 0.228-0.115 0.395-0.115h0.651v1.429h-0.305v-0.55h-0.288l-0.346 0.55zM29.844 21.862c0 0.073 0.028 0.128 0.083 0.166s0.131 0.054 0.225 0.054h0.283v-0.424h-0.331c-0.083 0-0.147 0.018-0.193 0.053s-0.067 0.086-0.067 0.151zM31.477 21.428v0.574h0.673v-0.574h0.304v1.429h-0.304v-0.616h-0.673v0.616h-0.304v-1.429h0.304zM33.193 21.428v0.574h0.673v-0.574h0.304v1.429h-0.304v-0.616h-0.673v0.616h-0.304v-1.429h0.304zM34.91 21.999h0.289c0.2 0 0.348 0.034 0.443 0.103s0.143 0.172 0.143 0.31c0 0.148-0.050 0.259-0.15 0.333-0.099 0.074-0.245 0.111-0.437 0.111h-0.593v-1.429h0.304v0.571zM35.485 22.42c0-0.071-0.027-0.121-0.080-0.15s-0.128-0.043-0.227-0.043h-0.268v0.404h0.229c0.122 0 0.211-0.017 0.265-0.052s0.081-0.088 0.081-0.16zM36.316 22.857h-0.305v-1.429h0.305v1.429zM37.572 22.566l0.017-0.062c0.035-0.128 0.066-0.227 0.092-0.296l0.32-0.78h0.405v1.429h-0.281v-1.154l-0.023 0.077c-0.039 0.139-0.071 0.241-0.098 0.306l-0.313 0.77h-0.23l-0.313-0.775c-0.040-0.099-0.080-0.225-0.114-0.354l-0.005-0.024v1.154h-0.278v-1.429h0.402l0.31 0.757c0.028 0.070 0.064 0.197 0.108 0.381zM17.881 25.037h0.334l-0.591 0.689 0.641 0.741h-0.349l-0.618-0.725v0.725h-0.304v-1.429h0.304v0.694l0.583-0.694zM19.676 26.466h-0.306v-1.191h-0.394c-0.024 0.307-0.057 0.546-0.098 0.718s-0.094 0.298-0.16 0.378c-0.058 0.073-0.147 0.119-0.247 0.119-0.003 0-0.006-0-0.009-0h0c-0.066 0-0.122-0.010-0.166-0.028v-0.238c0.032 0.012 0.064 0.018 0.096 0.018 0.088 0 0.157-0.099 0.207-0.296s0.090-0.501 0.119-0.908h0.96v1.429zM20.402 25.037v0.733c0 0.085-0.007 0.211-0.021 0.376l0.717-1.109h0.371v1.429h-0.292v-0.72c0-0.039 0.002-0.104 0.006-0.192 0.005-0.089 0.010-0.153 0.013-0.194l-0.715 1.106h-0.371v-1.429h0.291zM22.527 26.492c-0.222 0-0.396-0.064-0.522-0.194s-0.187-0.309-0.187-0.536c0-0.234 0.058-0.417 0.174-0.55s0.276-0.2 0.48-0.2c0.189 0 0.338 0.057 0.447 0.172s0.164 0.272 0.164 0.473v0.164h-0.952c0.004 0.139 0.042 0.246 0.112 0.32s0.17 0.111 0.299 0.111c0.084 0 0.163-0.008 0.235-0.023s0.152-0.043 0.235-0.080v0.247c-0.074 0.035-0.149 0.060-0.225 0.075-0.074 0.014-0.158 0.022-0.245 0.022-0.005 0-0.010-0-0.016-0h0.001zM22.471 25.241c-0.096 0-0.174 0.031-0.233 0.092s-0.092 0.15-0.103 0.267h0.649c-0.002-0.118-0.030-0.207-0.085-0.267-0.055-0.061-0.131-0.092-0.227-0.092zM23.731 25.037v0.574h0.673v-0.574h0.304v1.429h-0.304v-0.616h-0.673v0.616h-0.304v-1.429h0.304zM26.218 25.037v0.238h-0.465v1.191h-0.305v-1.191h-0.465v-0.238h1.236zM27.387 26.466l-0.061-0.199h-0.010c-0.069 0.087-0.138 0.147-0.208 0.178s-0.159 0.046-0.269 0.046c-0.14 0-0.25-0.038-0.329-0.114s-0.118-0.183-0.118-0.322c0-0.147 0.055-0.258 0.164-0.333s0.276-0.116 0.5-0.123l0.247-0.008v-0.076c0-0.091-0.022-0.159-0.065-0.204s-0.108-0.069-0.198-0.069c-0.073 0-0.143 0.011-0.211 0.032s-0.132 0.047-0.194 0.076l-0.098-0.217c0.073-0.039 0.158-0.071 0.248-0.091l0.007-0.001c0.078-0.020 0.168-0.031 0.261-0.032h0.001c0.182 0 0.319 0.040 0.411 0.119 0.093 0.079 0.14 0.204 0.14 0.374v0.963h-0.217zM26.935 26.259c0.11 0 0.198-0.031 0.265-0.092s0.101-0.148 0.101-0.26v-0.124l-0.184 0.008c-0.143 0.005-0.247 0.029-0.313 0.072s-0.097 0.107-0.097 0.195c0 0.064 0.019 0.113 0.057 0.149s0.095 0.052 0.171 0.052zM28.849 26.176l0.017-0.062c0.035-0.128 0.066-0.227 0.092-0.296l0.32-0.78h0.404v1.429h-0.281v-1.154l-0.023 0.077c-0.033 0.126-0.067 0.228-0.105 0.327l0.007-0.021-0.313 0.77h-0.23l-0.313-0.775c-0.043-0.112-0.083-0.238-0.119-0.378v1.154h-0.278v-1.429h0.402l0.31 0.757c0.028 0.070 0.064 0.197 0.108 0.381z"></path>
</symbol>
<symbol id="icon-20" viewBox="0 0 46 32">
<path fill="#f7f7f7" style="fill: var(--color2, #f7f7f7)" d="M0 0h46.436v32h-46.436z"></path>
<path fill="#303030" style="fill: var(--color3, #303030)" d="M20.956 15.639h-5.043v-1.061l1.811-1.831c0.536-0.549 0.886-0.929 1.051-1.14 0.165-0.214 0.283-0.411 0.355-0.592 0.069-0.166 0.108-0.358 0.108-0.56 0-0.001 0-0.002 0-0.003v0c0-0.289-0.080-0.505-0.242-0.646-0.158-0.141-0.37-0.212-0.637-0.212-0.28 0-0.551 0.064-0.814 0.192s-0.538 0.311-0.824 0.548l-0.829-0.982c0.355-0.303 0.65-0.516 0.883-0.641s0.488-0.22 0.765-0.286c0.276-0.069 0.585-0.103 0.927-0.103 0.451 0 0.849 0.082 1.194 0.247s0.614 0.395 0.804 0.691c0.191 0.296 0.286 0.635 0.286 1.017 0 0.332-0.059 0.645-0.178 0.938-0.115 0.289-0.296 0.587-0.543 0.893-0.244 0.306-0.674 0.742-1.293 1.308l-0.928 0.873v0.069h3.143v1.283zM27.194 12.032c0 1.26-0.207 2.192-0.622 2.798-0.411 0.605-1.046 0.908-1.905 0.908-0.832 0-1.46-0.313-1.885-0.937-0.421-0.625-0.632-1.548-0.632-2.768 0-1.273 0.205-2.211 0.617-2.813 0.411-0.605 1.044-0.908 1.9-0.908 0.832 0 1.46 0.316 1.885 0.947 0.428 0.632 0.641 1.556 0.641 2.773zM23.667 12.032c0 0.885 0.076 1.52 0.227 1.905 0.154 0.382 0.413 0.572 0.775 0.572 0.355 0 0.612-0.194 0.77-0.582s0.237-1.020 0.237-1.895c0-0.885-0.081-1.52-0.242-1.905-0.158-0.388-0.413-0.582-0.765-0.582-0.359 0-0.615 0.194-0.77 0.582-0.154 0.385-0.232 1.020-0.232 1.905zM12.965 22.857h-0.309v-1.624h-0.537c-0.068 0.551-0.123 0.926-0.164 1.126s-0.098 0.338-0.172 0.416c-0.074 0.077-0.172 0.115-0.295 0.112-0.001 0-0.001 0-0.002 0-0.064 0-0.125-0.012-0.181-0.034l0.003 0.001v-0.257c0.049 0.022 0.097 0.032 0.143 0.032 0.062 0 0.11-0.037 0.145-0.111s0.074-0.24 0.115-0.495c0.042-0.255 0.092-0.607 0.15-1.056h1.104v1.889zM13.216 21.428h0.331l0.291 0.81c0.044 0.116 0.073 0.224 0.088 0.326h0.010c0.008-0.047 0.022-0.105 0.043-0.172s0.13-0.389 0.328-0.964h0.328l-0.611 1.619c-0.111 0.297-0.297 0.446-0.556 0.446-0.067 0-0.133-0.007-0.197-0.022v-0.24c0.046 0.010 0.098 0.016 0.156 0.016 0.147 0 0.249-0.085 0.309-0.255l0.053-0.134-0.574-1.429zM15.119 21.428v0.522c0 0.146 0.076 0.22 0.227 0.22 0.073 0 0.145-0.010 0.215-0.030s0.145-0.053 0.225-0.098v-0.614h0.304v1.429h-0.304v-0.606c-0.070 0.045-0.15 0.084-0.235 0.113l-0.008 0.002c-0.077 0.024-0.162 0.036-0.254 0.036-0.149 0-0.265-0.038-0.349-0.115s-0.126-0.186-0.126-0.324v-0.535h0.305zM18.549 22.857h-2.025v-1.429h0.304v1.189h0.557v-1.189h0.304v1.189h0.556v-1.189h0.305v1.429zM19.275 21.428v0.733c0 0.085-0.007 0.211-0.021 0.376l0.717-1.109h0.371v1.429h-0.292v-0.72c0-0.039 0.002-0.104 0.006-0.192s0.010-0.153 0.013-0.194l-0.714 1.106h-0.371v-1.429h0.291zM21.094 22.127l-0.479-0.699h0.346l0.326 0.5 0.328-0.5h0.344l-0.481 0.699 0.505 0.73h-0.344l-0.353-0.535-0.352 0.535h-0.344l0.503-0.73zM23.742 22.566l0.017-0.062c0.035-0.128 0.066-0.227 0.092-0.296l0.32-0.78h0.404v1.429h-0.28v-1.154l-0.023 0.077c-0.039 0.139-0.071 0.241-0.098 0.306l-0.313 0.77h-0.23l-0.313-0.775c-0.043-0.112-0.083-0.238-0.119-0.378v1.154h-0.278v-1.429h0.402l0.31 0.757c0.027 0.070 0.064 0.197 0.108 0.381zM25.904 22.857l-0.061-0.199h-0.010c-0.069 0.087-0.138 0.147-0.208 0.178s-0.159 0.046-0.269 0.046c-0.14 0-0.25-0.038-0.329-0.114s-0.118-0.183-0.118-0.322c0-0.147 0.055-0.258 0.164-0.333s0.276-0.116 0.5-0.123l0.247-0.008v-0.076c0-0.091-0.021-0.159-0.064-0.204s-0.108-0.069-0.198-0.069c-0.073 0-0.143 0.011-0.211 0.032s-0.132 0.047-0.194 0.076l-0.098-0.217c0.073-0.039 0.158-0.070 0.248-0.091l0.007-0.001c0.092-0.022 0.179-0.032 0.261-0.032 0.182 0 0.319 0.040 0.411 0.119 0.093 0.079 0.14 0.204 0.14 0.374v0.963h-0.217zM25.451 22.65c0.11 0 0.198-0.031 0.265-0.091 0.067-0.062 0.101-0.149 0.101-0.26v-0.124l-0.184 0.008c-0.143 0.005-0.247 0.029-0.313 0.072s-0.097 0.107-0.097 0.195c0 0.064 0.019 0.113 0.057 0.149s0.095 0.052 0.171 0.052zM27.121 22.883c-0.216 0-0.381-0.063-0.494-0.189-0.112-0.127-0.168-0.308-0.168-0.544 0-0.24 0.059-0.425 0.176-0.554s0.288-0.194 0.51-0.194c0.151 0 0.287 0.028 0.407 0.084l-0.092 0.244c-0.128-0.050-0.234-0.075-0.318-0.075-0.247 0-0.371 0.164-0.371 0.492 0 0.16 0.031 0.281 0.092 0.362s0.153 0.12 0.271 0.12c0.135 0 0.263-0.034 0.384-0.101v0.265c-0.050 0.030-0.108 0.054-0.17 0.068l-0.004 0.001c-0.062 0.013-0.133 0.021-0.205 0.021-0.006 0-0.013-0-0.019-0h0.001zM28.929 21.428v0.238h-0.465v1.191h-0.305v-1.191h-0.465v-0.238h1.235zM29.828 22.883c-0.222 0-0.396-0.064-0.522-0.194s-0.187-0.309-0.187-0.537c0-0.233 0.058-0.417 0.174-0.55s0.276-0.2 0.48-0.2c0.189 0 0.338 0.057 0.447 0.172s0.164 0.272 0.164 0.473v0.164h-0.952c0.004 0.139 0.042 0.246 0.112 0.321 0.071 0.074 0.17 0.111 0.299 0.111 0.084 0 0.163-0.008 0.235-0.023s0.152-0.043 0.235-0.080v0.247c-0.074 0.035-0.149 0.060-0.225 0.075s-0.162 0.022-0.26 0.022zM29.773 21.632c-0.096 0-0.174 0.031-0.233 0.092s-0.092 0.15-0.103 0.267h0.649c-0.002-0.118-0.030-0.207-0.085-0.267s-0.131-0.092-0.227-0.092zM31.454 22.883c-0.181 0-0.321-0.065-0.421-0.195h-0.018c0.012 0.121 0.018 0.194 0.018 0.22v0.586h-0.304v-2.065h0.246c0.007 0.026 0.021 0.090 0.043 0.191h0.015c0.095-0.145 0.237-0.217 0.427-0.217 0.178 0 0.317 0.065 0.416 0.194 0.1 0.129 0.15 0.31 0.15 0.544s-0.051 0.416-0.152 0.547c-0.101 0.131-0.24 0.196-0.419 0.196zM31.38 21.65c-0.121 0-0.209 0.035-0.265 0.106s-0.083 0.184-0.083 0.339v0.045c0 0.174 0.028 0.3 0.083 0.379s0.145 0.116 0.27 0.116c0.105 0 0.186-0.043 0.243-0.129s0.085-0.209 0.085-0.368c0-0.16-0.028-0.282-0.085-0.363s-0.139-0.124-0.248-0.124zM33.646 22.14c0 0.233-0.060 0.416-0.18 0.547s-0.286 0.196-0.5 0.196c-0.134 0-0.252-0.030-0.354-0.090-0.103-0.062-0.184-0.15-0.235-0.256l-0.002-0.004c-0.055-0.113-0.083-0.244-0.083-0.393 0-0.232 0.059-0.413 0.179-0.543s0.286-0.195 0.503-0.195c0.207 0 0.371 0.067 0.491 0.2s0.181 0.312 0.181 0.538zM32.605 22.14c0 0.33 0.122 0.495 0.366 0.495 0.241 0 0.362-0.165 0.362-0.495 0-0.326-0.121-0.49-0.364-0.49-0.128 0-0.22 0.042-0.278 0.127s-0.085 0.205-0.085 0.363zM35.237 21.793c0 0.169-0.099 0.271-0.296 0.307v0.010c0.11 0.013 0.195 0.048 0.253 0.105s0.088 0.13 0.088 0.221c0 0.135-0.052 0.24-0.155 0.313s-0.252 0.108-0.448 0.108h-0.682v-1.429h0.68c0.374 0 0.561 0.122 0.561 0.366zM34.97 22.418c0-0.069-0.027-0.118-0.080-0.146s-0.134-0.044-0.24-0.044h-0.35v0.404h0.358c0.209 0 0.313-0.071 0.313-0.214zM34.933 21.819c0-0.057-0.022-0.098-0.067-0.123s-0.11-0.039-0.198-0.039h-0.368v0.344h0.323c0.102 0 0.179-0.013 0.231-0.038 0.052-0.027 0.079-0.075 0.079-0.144zM20.962 26.466h-0.363l-0.778-0.958v0.958h-0.309v-1.889h0.309v0.915l0.765-0.915h0.339l-0.763 0.912 0.8 0.977zM21.471 25.037v0.733c0 0.085-0.007 0.211-0.021 0.376l0.717-1.109h0.371v1.429h-0.292v-0.72c0-0.039 0.002-0.104 0.006-0.192 0.005-0.089 0.010-0.153 0.013-0.194l-0.715 1.106h-0.371v-1.429h0.291zM23.596 26.492c-0.222 0-0.396-0.064-0.522-0.194s-0.187-0.309-0.187-0.536c0-0.234 0.058-0.417 0.174-0.55s0.276-0.2 0.48-0.2c0.189 0 0.338 0.057 0.447 0.172s0.164 0.272 0.164 0.473v0.164h-0.952c0.004 0.139 0.042 0.246 0.112 0.32s0.17 0.111 0.298 0.111c0.085 0 0.163-0.008 0.236-0.023s0.152-0.043 0.235-0.080v0.247c-0.074 0.035-0.149 0.060-0.225 0.075-0.074 0.014-0.158 0.022-0.245 0.022-0.005 0-0.010-0-0.016-0h0.001zM23.54 25.241c-0.096 0-0.174 0.031-0.233 0.092s-0.092 0.15-0.103 0.267h0.649c-0.002-0.118-0.030-0.207-0.085-0.267-0.055-0.061-0.131-0.092-0.227-0.092zM25.737 25.403c0 0.169-0.099 0.271-0.296 0.306v0.010c0.11 0.013 0.195 0.048 0.253 0.105s0.088 0.13 0.088 0.221c0 0.135-0.052 0.239-0.155 0.313s-0.252 0.108-0.448 0.108h-0.682v-1.429h0.68c0.374 0 0.561 0.122 0.561 0.366zM25.471 26.027c0-0.069-0.027-0.118-0.080-0.146s-0.134-0.044-0.24-0.044h-0.35v0.404h0.358c0.209 0 0.313-0.071 0.313-0.214zM25.433 25.428c0-0.057-0.023-0.098-0.067-0.123s-0.11-0.039-0.198-0.039h-0.368v0.344h0.323c0.102 0 0.179-0.013 0.231-0.039s0.079-0.075 0.079-0.143zM26.99 26.466l-0.061-0.199h-0.010c-0.069 0.087-0.138 0.147-0.208 0.178s-0.16 0.046-0.269 0.046c-0.14 0-0.25-0.038-0.329-0.114s-0.118-0.183-0.118-0.322c0-0.147 0.055-0.258 0.164-0.333s0.276-0.116 0.5-0.123l0.247-0.008v-0.076c0-0.091-0.022-0.159-0.065-0.204s-0.108-0.069-0.198-0.069c-0.073 0-0.143 0.011-0.211 0.032s-0.132 0.047-0.194 0.076l-0.098-0.217c0.073-0.039 0.158-0.071 0.248-0.091l0.007-0.001c0.078-0.020 0.168-0.031 0.261-0.032h0.001c0.182 0 0.319 0.040 0.411 0.119 0.093 0.079 0.14 0.204 0.14 0.374v0.963h-0.217zM26.538 26.259c0.11 0 0.198-0.031 0.265-0.092s0.101-0.148 0.101-0.26v-0.124l-0.184 0.008c-0.143 0.005-0.247 0.029-0.313 0.072s-0.097 0.107-0.097 0.195c0 0.064 0.019 0.113 0.057 0.149s0.095 0.052 0.171 0.052z"></path>
<path fill="#ff6c00" style="fill: var(--color4, #ff6c00)" d="M29.543 9.397h-0.748v-0.334h0.748v-0.767h0.338v0.767h0.75v0.334h-0.75v0.763h-0.338v-0.763z"></path>
</symbol>
<symbol id="icon-50" viewBox="0 0 47 32">
<path fill="#f7f7f7" style="fill: var(--color2, #f7f7f7)" d="M0 0h46.677v32h-46.677z"></path>
<path fill="#303030" style="fill: var(--color3, #303030)" d="M18.538 11.031c0.697 0 1.252 0.196 1.663 0.587 0.415 0.391 0.622 0.928 0.622 1.609 0 0.806-0.249 1.426-0.745 1.86s-1.207 0.651-2.132 0.651c-0.802 0-1.451-0.13-1.944-0.39v-1.317c0.26 0.138 0.563 0.251 0.908 0.34 0.346 0.085 0.673 0.128 0.982 0.128 0.931 0 1.396-0.382 1.396-1.145 0-0.727-0.482-1.090-1.446-1.090-0.174 0-0.367 0.018-0.577 0.054-0.21 0.033-0.381 0.069-0.513 0.108l-0.607-0.326 0.271-3.676h3.913v1.293h-2.575l-0.133 1.416 0.173-0.034c0.201-0.046 0.449-0.069 0.745-0.069zM27.194 12.032c0 1.26-0.207 2.192-0.622 2.798-0.411 0.605-1.046 0.908-1.905 0.908-0.832 0-1.46-0.313-1.885-0.937-0.421-0.625-0.632-1.548-0.632-2.768 0-1.273 0.205-2.211 0.617-2.813 0.411-0.605 1.044-0.908 1.9-0.908 0.832 0 1.46 0.316 1.885 0.947 0.428 0.632 0.641 1.556 0.641 2.773zM23.667 12.032c0 0.885 0.076 1.52 0.227 1.905 0.154 0.382 0.413 0.572 0.775 0.572 0.355 0 0.612-0.194 0.77-0.582s0.237-1.020 0.237-1.895c0-0.885-0.081-1.52-0.242-1.905-0.158-0.388-0.413-0.582-0.765-0.582-0.359 0-0.615 0.194-0.77 0.582-0.154 0.385-0.232 1.020-0.232 1.905zM11.317 22.857h-0.31v-0.852h-0.871v0.852h-0.309v-1.889h0.309v0.773h0.871v-0.773h0.31v1.889zM12.677 22.857l-0.061-0.199h-0.010c-0.069 0.087-0.138 0.147-0.208 0.178s-0.159 0.046-0.269 0.046c-0.14 0-0.25-0.038-0.33-0.114-0.078-0.076-0.117-0.183-0.117-0.322 0-0.147 0.055-0.258 0.164-0.333s0.276-0.116 0.5-0.123l0.247-0.008v-0.076c0-0.091-0.022-0.159-0.064-0.204s-0.108-0.069-0.198-0.069c-0.073 0-0.143 0.011-0.211 0.032-0.077 0.025-0.141 0.051-0.203 0.080l0.010-0.004-0.098-0.217c0.073-0.039 0.158-0.070 0.248-0.091l0.007-0.001c0.092-0.022 0.179-0.032 0.261-0.032 0.182 0 0.319 0.040 0.411 0.119s0.14 0.204 0.14 0.374v0.963h-0.217zM12.224 22.65c0.11 0 0.199-0.031 0.265-0.091 0.067-0.062 0.101-0.149 0.101-0.26v-0.124l-0.184 0.008c-0.143 0.005-0.247 0.029-0.313 0.072s-0.097 0.107-0.097 0.195c0 0.064 0.019 0.113 0.057 0.149s0.095 0.052 0.171 0.052zM14.242 21.428v0.238h-0.62v1.191h-0.304v-1.429h0.924zM15.242 22.883c-0.181 0-0.321-0.065-0.421-0.195h-0.018c0.012 0.12 0.018 0.194 0.018 0.22v0.585h-0.304v-2.065h0.245c0.007 0.026 0.021 0.090 0.043 0.191h0.015c0.095-0.145 0.237-0.217 0.427-0.217 0.178 0 0.317 0.065 0.416 0.194s0.15 0.31 0.15 0.544c0 0.233-0.051 0.416-0.153 0.547s-0.24 0.196-0.419 0.196zM15.168 21.65c-0.121 0-0.209 0.035-0.265 0.106s-0.083 0.184-0.083 0.339v0.045c0 0.174 0.028 0.3 0.083 0.379s0.145 0.116 0.27 0.116c0.105 0 0.186-0.043 0.243-0.129s0.085-0.209 0.085-0.368c0-0.16-0.029-0.282-0.085-0.363s-0.139-0.124-0.248-0.124zM17.060 22.857l-0.061-0.199h-0.010c-0.069 0.087-0.138 0.147-0.208 0.178s-0.159 0.046-0.269 0.046c-0.14 0-0.25-0.038-0.33-0.114s-0.118-0.183-0.118-0.322c0-0.147 0.055-0.258 0.164-0.333s0.276-0.116 0.5-0.123l0.247-0.008v-0.076c0-0.091-0.022-0.159-0.064-0.204s-0.108-0.069-0.198-0.069c-0.073 0-0.143 0.011-0.211 0.032-0.077 0.025-0.141 0.051-0.203 0.080l0.010-0.004-0.098-0.217c0.073-0.039 0.158-0.070 0.248-0.091l0.007-0.001c0.092-0.022 0.179-0.032 0.261-0.032 0.182 0 0.319 0.040 0.411 0.119s0.14 0.204 0.14 0.374v0.963h-0.217zM16.608 22.65c0.11 0 0.199-0.031 0.265-0.091 0.067-0.062 0.101-0.149 0.101-0.26v-0.124l-0.184 0.008c-0.143 0.005-0.247 0.029-0.313 0.072s-0.097 0.107-0.097 0.195c0 0.064 0.019 0.113 0.057 0.149s0.095 0.052 0.171 0.052zM19.072 23.362h-0.283v-0.505h-0.98v0.505h-0.28v-0.741h0.116c0.102-0.146 0.182-0.321 0.242-0.527 0.060-0.207 0.096-0.429 0.107-0.667h0.869v1.194h0.209v0.741zM18.565 22.622v-0.961h-0.308c-0.018 0.194-0.055 0.373-0.108 0.543l0.005-0.019c-0.052 0.172-0.115 0.318-0.19 0.437h0.601zM20.34 21.999c0.139 0 0.241-0.015 0.306-0.045 0.065-0.031 0.098-0.078 0.098-0.142 0-0.116-0.103-0.174-0.31-0.174-0.138 0-0.279 0.031-0.422 0.093l-0.098-0.226c0.166-0.068 0.35-0.102 0.55-0.102 0.177 0 0.315 0.033 0.413 0.098s0.148 0.158 0.148 0.279c0 0.16-0.092 0.265-0.275 0.315v0.010c0.115 0.031 0.196 0.075 0.245 0.133s0.075 0.129 0.075 0.215c0 0.131-0.058 0.236-0.173 0.314s-0.275 0.116-0.481 0.116c-0.225 0-0.397-0.030-0.516-0.089v-0.262c0.143 0.070 0.312 0.111 0.49 0.111h0c0.121 0 0.215-0.017 0.28-0.051s0.1-0.086 0.1-0.156c0-0.071-0.033-0.124-0.1-0.158s-0.169-0.051-0.308-0.051h-0.174v-0.229h0.151zM22.294 22.857l-0.061-0.199h-0.010c-0.069 0.087-0.138 0.147-0.208 0.178s-0.159 0.046-0.269 0.046c-0.14 0-0.25-0.038-0.33-0.114s-0.118-0.183-0.118-0.322c0-0.147 0.055-0.258 0.164-0.333s0.276-0.116 0.5-0.123l0.247-0.008v-0.076c0-0.091-0.022-0.159-0.065-0.204s-0.108-0.069-0.198-0.069c-0.073 0-0.144 0.011-0.211 0.032-0.077 0.025-0.141 0.051-0.203 0.080l0.010-0.004-0.098-0.217c0.073-0.039 0.158-0.070 0.248-0.091l0.007-0.001c0.092-0.022 0.179-0.032 0.261-0.032 0.182 0 0.319 0.040 0.411 0.119 0.093 0.079 0.14 0.204 0.14 0.374v0.963h-0.217zM21.842 22.65c0.11 0 0.199-0.031 0.265-0.091 0.067-0.062 0.101-0.149 0.101-0.26v-0.124l-0.184 0.008c-0.143 0.005-0.247 0.029-0.313 0.072s-0.097 0.107-0.097 0.195c0 0.064 0.019 0.113 0.057 0.149s0.095 0.052 0.171 0.052zM24.89 22.14c0 0.233-0.060 0.416-0.18 0.547s-0.286 0.196-0.5 0.196c-0.134 0-0.251-0.030-0.354-0.090-0.103-0.062-0.184-0.15-0.235-0.256l-0.002-0.004c-0.055-0.113-0.083-0.244-0.083-0.393 0-0.232 0.059-0.413 0.178-0.543s0.287-0.195 0.503-0.195c0.207 0 0.37 0.067 0.491 0.2s0.181 0.312 0.181 0.538zM23.85 22.14c0 0.33 0.122 0.495 0.366 0.495 0.241 0 0.362-0.165 0.362-0.495 0-0.326-0.122-0.49-0.364-0.49-0.128 0-0.22 0.042-0.278 0.127s-0.085 0.205-0.085 0.363zM26.315 21.428v0.238h-0.465v1.191h-0.305v-1.191h-0.465v-0.238h1.236zM27.764 22.857h-0.306v-1.191h-0.394c-0.024 0.307-0.057 0.546-0.098 0.718s-0.094 0.298-0.16 0.378c-0.065 0.079-0.151 0.119-0.256 0.119-0.066 0-0.122-0.010-0.167-0.028v-0.238c0.032 0.012 0.064 0.018 0.096 0.018 0.088 0 0.157-0.099 0.207-0.296s0.090-0.501 0.119-0.908h0.96v1.429zM28.491 21.428v0.733c0 0.085-0.007 0.211-0.021 0.376l0.717-1.109h0.371v1.429h-0.292v-0.72c0-0.039 0.002-0.104 0.006-0.192s0.009-0.153 0.013-0.194l-0.715 1.106h-0.371v-1.429h0.291zM30.259 21.428v0.522c0 0.146 0.076 0.22 0.228 0.22 0.073 0 0.145-0.010 0.214-0.030s0.145-0.053 0.225-0.098v-0.614h0.304v1.429h-0.304v-0.606c-0.070 0.045-0.15 0.084-0.235 0.113l-0.008 0.002c-0.077 0.024-0.162 0.036-0.255 0.036-0.149 0-0.265-0.038-0.349-0.115s-0.125-0.186-0.125-0.324v-0.535h0.305zM31.967 21.428v0.574h0.673v-0.574h0.304v1.429h-0.304v-0.616h-0.673v0.616h-0.304v-1.429h0.304zM33.683 21.999h0.289c0.2 0 0.348 0.034 0.443 0.103s0.143 0.172 0.143 0.31c0 0.148-0.050 0.259-0.15 0.333s-0.245 0.111-0.437 0.111h-0.593v-1.429h0.304v0.571zM34.258 22.42c0-0.071-0.027-0.121-0.080-0.15s-0.128-0.043-0.228-0.043h-0.267v0.404h0.229c0.122 0 0.211-0.017 0.265-0.052s0.082-0.088 0.082-0.16zM35.089 22.857h-0.305v-1.429h0.305v1.429zM35.815 21.428v0.733c0 0.085-0.007 0.211-0.021 0.376l0.717-1.109h0.371v1.429h-0.292v-0.72c0-0.039 0.002-0.104 0.006-0.192 0.005-0.089 0.010-0.153 0.013-0.194l-0.715 1.106h-0.371v-1.429h0.291zM36.194 21.254c-0.183 0-0.317-0.033-0.402-0.098s-0.131-0.177-0.141-0.331h0.275c0.005 0.062 0.017 0.11 0.035 0.145s0.046 0.059 0.080 0.075c0.035 0.015 0.089 0.022 0.16 0.022 0.084 0 0.149-0.019 0.192-0.056s0.071-0.1 0.080-0.186h0.281c-0.013 0.148-0.065 0.257-0.156 0.326s-0.226 0.103-0.404 0.103zM19.539 26.492c-0.216 0-0.381-0.063-0.494-0.189s-0.168-0.308-0.168-0.544c0-0.24 0.058-0.425 0.176-0.554s0.288-0.194 0.511-0.194c0.151 0 0.286 0.028 0.407 0.084l-0.092 0.244c-0.128-0.050-0.234-0.075-0.318-0.075-0.247 0-0.371 0.164-0.371 0.492 0 0.16 0.031 0.281 0.092 0.362s0.153 0.12 0.271 0.12c0.135 0 0.263-0.034 0.384-0.101v0.265c-0.050 0.030-0.109 0.054-0.17 0.068l-0.004 0.001c-0.062 0.013-0.133 0.021-0.206 0.021-0.006 0-0.013-0-0.019-0h0.001zM20.897 26.492c-0.222 0-0.396-0.064-0.522-0.194s-0.187-0.309-0.187-0.536c0-0.234 0.058-0.417 0.174-0.55s0.276-0.2 0.48-0.2c0.189 0 0.338 0.057 0.447 0.172s0.164 0.272 0.164 0.473v0.164h-0.953c0.004 0.139 0.042 0.246 0.112 0.32s0.17 0.111 0.299 0.111c0.084 0 0.163-0.008 0.235-0.023s0.152-0.043 0.235-0.080v0.247c-0.074 0.035-0.149 0.060-0.225 0.075-0.074 0.014-0.158 0.022-0.245 0.022-0.005 0-0.010-0-0.016-0h0.001zM20.842 25.241c-0.096 0-0.174 0.031-0.233 0.092s-0.092 0.15-0.103 0.267h0.649c-0.002-0.118-0.030-0.207-0.085-0.267-0.055-0.061-0.131-0.092-0.227-0.092zM22.523 26.492c-0.181 0-0.321-0.065-0.421-0.195h-0.018c0.012 0.121 0.018 0.194 0.018 0.22v0.586h-0.304v-2.065h0.245c0.007 0.027 0.021 0.090 0.043 0.191h0.016c0.095-0.145 0.237-0.217 0.426-0.217 0.179 0 0.317 0.065 0.416 0.194s0.15 0.311 0.15 0.544-0.051 0.416-0.153 0.547c-0.101 0.131-0.24 0.196-0.419 0.196zM22.449 25.259c-0.121 0-0.209 0.035-0.265 0.106s-0.083 0.184-0.083 0.339v0.045c0 0.174 0.027 0.3 0.083 0.379s0.145 0.116 0.27 0.116c0.105 0 0.186-0.043 0.243-0.129s0.085-0.209 0.085-0.368c0-0.16-0.028-0.281-0.085-0.363s-0.139-0.124-0.248-0.124zM24.687 25.403c0 0.169-0.099 0.271-0.296 0.306v0.010c0.11 0.013 0.195 0.048 0.253 0.105s0.088 0.13 0.088 0.221c0 0.135-0.052 0.239-0.155 0.313s-0.252 0.108-0.448 0.108h-0.682v-1.429h0.68c0.374 0 0.561 0.122 0.561 0.366zM24.421 26.027c0-0.069-0.027-0.118-0.080-0.146s-0.134-0.044-0.24-0.044h-0.35v0.404h0.358c0.209 0 0.313-0.071 0.313-0.214zM24.384 25.428c0-0.057-0.022-0.098-0.067-0.123s-0.11-0.039-0.198-0.039h-0.368v0.344h0.323c0.102 0 0.179-0.013 0.231-0.039s0.079-0.075 0.079-0.143zM25.337 25.037v0.733c0 0.085-0.007 0.211-0.021 0.376l0.717-1.109h0.371v1.429h-0.292v-0.72c0-0.039 0.002-0.104 0.006-0.192s0.009-0.153 0.013-0.194l-0.715 1.106h-0.371v-1.429h0.291zM27.414 26.492c-0.216 0-0.381-0.063-0.493-0.189s-0.168-0.308-0.168-0.544c0-0.24 0.059-0.425 0.176-0.554s0.288-0.194 0.51-0.194c0.004-0 0.010-0 0.015-0 0.142 0 0.277 0.031 0.398 0.087l-0.006-0.002-0.092 0.244c-0.128-0.050-0.234-0.075-0.318-0.075-0.247 0-0.371 0.164-0.371 0.492 0 0.16 0.031 0.281 0.092 0.362s0.152 0.12 0.271 0.12c0.135 0 0.263-0.034 0.384-0.101v0.265c-0.050 0.030-0.108 0.053-0.17 0.068l-0.004 0.001c-0.062 0.013-0.133 0.021-0.206 0.021-0.006 0-0.013-0-0.019-0h0.001z"></path>
<path fill="#ff6c00" style="fill: var(--color4, #ff6c00)" d="M29.543 9.397h-0.748v-0.334h0.748v-0.767h0.338v0.767h0.75v0.334h-0.75v0.763h-0.338v-0.763z"></path>
</symbol>
<symbol id="icon-600" viewBox="0 0 46 32">
<path fill="#f7f7f7" style="fill: var(--color2, #f7f7f7)" d="M0 0h46.436v32h-46.436z"></path>
<path fill="#303030" style="fill: var(--color3, #303030)" d="M14.529 12.575c0-1.428 0.301-2.49 0.903-3.188 0.605-0.697 1.51-1.046 2.714-1.046 0.411 0 0.733 0.025 0.967 0.074v1.219c-0.261-0.062-0.56-0.098-0.868-0.099h-0c-0.523 0-0.951 0.079-1.283 0.237-0.329 0.158-0.576 0.391-0.74 0.701s-0.262 0.748-0.291 1.318h0.064c0.326-0.559 0.847-0.839 1.564-0.839 0.645 0 1.15 0.202 1.515 0.607s0.548 0.964 0.548 1.678c0 0.77-0.217 1.38-0.651 1.831-0.434 0.448-1.036 0.671-1.806 0.671-0.533 0-0.998-0.124-1.396-0.37-0.395-0.247-0.701-0.607-0.918-1.081-0.214-0.474-0.321-1.044-0.321-1.712zM17.134 14.519c0.326 0 0.576-0.108 0.75-0.326 0.174-0.22 0.262-0.533 0.262-0.937 0-0.352-0.082-0.628-0.247-0.829-0.161-0.204-0.406-0.306-0.735-0.306-0.309 0-0.574 0.1-0.794 0.301-0.217 0.201-0.326 0.435-0.326 0.701 0 0.391 0.102 0.722 0.306 0.992 0.207 0.27 0.469 0.405 0.784 0.405zM25.86 12.032c0 1.26-0.207 2.192-0.621 2.798-0.411 0.605-1.046 0.908-1.905 0.908-0.832 0-1.46-0.313-1.885-0.937-0.421-0.625-0.631-1.548-0.631-2.768 0-1.273 0.205-2.211 0.617-2.813 0.411-0.605 1.044-0.908 1.9-0.908 0.832 0 1.461 0.316 1.885 0.947 0.428 0.632 0.641 1.556 0.641 2.773zM22.332 12.032c0 0.885 0.076 1.52 0.227 1.905 0.154 0.382 0.413 0.572 0.775 0.572 0.355 0 0.612-0.194 0.77-0.582s0.237-1.020 0.237-1.895c0-0.885-0.081-1.52-0.242-1.905-0.158-0.388-0.413-0.582-0.765-0.582-0.358 0-0.615 0.194-0.77 0.582-0.154 0.385-0.232 1.020-0.232 1.905zM32.138 12.032c0 1.26-0.207 2.192-0.622 2.798-0.411 0.605-1.046 0.908-1.905 0.908-0.832 0-1.461-0.313-1.885-0.937-0.421-0.625-0.632-1.548-0.632-2.768 0-1.273 0.205-2.211 0.617-2.813 0.411-0.605 1.044-0.908 1.9-0.908 0.832 0 1.46 0.316 1.885 0.947 0.428 0.632 0.641 1.556 0.641 2.773zM28.61 12.032c0 0.885 0.076 1.52 0.227 1.905 0.154 0.382 0.413 0.572 0.775 0.572 0.355 0 0.612-0.194 0.77-0.582s0.237-1.020 0.237-1.895c0-0.885-0.081-1.52-0.242-1.905-0.158-0.388-0.413-0.582-0.765-0.582-0.359 0-0.615 0.194-0.77 0.582-0.154 0.385-0.232 1.020-0.232 1.905zM9.013 22.592h0.146c0.121-0.219 0.228-0.474 0.307-0.741l0.007-0.028c0.084-0.284 0.139-0.57 0.163-0.856h0.976v1.625h0.244v0.786h-0.297v-0.521h-1.248v0.521h-0.298v-0.786zM9.895 21.235c-0.019 0.196-0.067 0.423-0.145 0.681s-0.166 0.483-0.265 0.676h0.818v-1.357h-0.409zM12.398 22.14c0 0.233-0.060 0.416-0.18 0.547s-0.286 0.196-0.5 0.196c-0.134 0-0.251-0.030-0.354-0.090-0.103-0.062-0.184-0.15-0.235-0.256l-0.002-0.004c-0.055-0.113-0.083-0.244-0.083-0.393 0-0.232 0.059-0.413 0.178-0.543s0.286-0.195 0.503-0.195c0.207 0 0.371 0.067 0.491 0.2s0.181 0.312 0.181 0.538zM11.358 22.14c0 0.33 0.122 0.495 0.366 0.495 0.241 0 0.362-0.165 0.362-0.495 0-0.326-0.121-0.49-0.364-0.49-0.128 0-0.22 0.042-0.278 0.127s-0.085 0.205-0.085 0.363zM13.989 21.793c0 0.169-0.099 0.271-0.296 0.307v0.010c0.11 0.013 0.195 0.048 0.253 0.105s0.088 0.13 0.088 0.221c0 0.135-0.052 0.24-0.155 0.313s-0.252 0.108-0.448 0.108h-0.682v-1.429h0.68c0.374 0 0.561 0.122 0.561 0.366zM13.722 22.418c0-0.069-0.027-0.118-0.080-0.146s-0.134-0.044-0.241-0.044h-0.35v0.404h0.358c0.208 0 0.313-0.071 0.313-0.214zM13.685 21.819c0-0.057-0.022-0.098-0.067-0.123-0.044-0.026-0.11-0.039-0.198-0.039h-0.368v0.344h0.323c0.102 0 0.179-0.013 0.231-0.038 0.053-0.027 0.079-0.075 0.079-0.144zM15.616 22.14c0 0.233-0.060 0.416-0.18 0.547s-0.286 0.196-0.5 0.196c-0.134 0-0.251-0.030-0.354-0.090-0.103-0.062-0.184-0.15-0.235-0.256l-0.002-0.004c-0.055-0.113-0.083-0.244-0.083-0.393 0-0.232 0.059-0.413 0.178-0.543s0.286-0.195 0.503-0.195c0.207 0 0.371 0.067 0.491 0.2s0.181 0.312 0.181 0.538zM14.575 22.14c0 0.33 0.122 0.495 0.366 0.495 0.241 0 0.362-0.165 0.362-0.495 0-0.326-0.121-0.49-0.364-0.49-0.128 0-0.22 0.042-0.278 0.127s-0.085 0.205-0.085 0.363zM17.14 22.857h-0.306v-1.191h-0.394c-0.024 0.307-0.057 0.546-0.098 0.718s-0.094 0.298-0.16 0.378c-0.065 0.079-0.151 0.119-0.256 0.119-0.066 0-0.122-0.010-0.166-0.028v-0.238c0.032 0.012 0.064 0.018 0.096 0.018 0.088 0 0.157-0.099 0.207-0.296s0.090-0.501 0.119-0.908h0.96v1.429zM17.88 21.999h0.358c0.399 0 0.598 0.138 0.598 0.413 0 0.146-0.051 0.256-0.153 0.332s-0.25 0.113-0.446 0.113h-0.662v-1.429h0.304v0.571zM18.531 22.42c0-0.071-0.027-0.121-0.081-0.15s-0.131-0.043-0.23-0.043h-0.34v0.404h0.345c0.1 0 0.176-0.018 0.227-0.054s0.079-0.089 0.079-0.158zM19.477 21.428v0.574h0.673v-0.574h0.304v1.429h-0.304v-0.616h-0.673v0.616h-0.303v-1.429h0.304zM21.193 21.999h0.289c0.2 0 0.348 0.034 0.443 0.103s0.144 0.172 0.144 0.31c0 0.148-0.050 0.259-0.15 0.333s-0.245 0.111-0.437 0.111h-0.593v-1.429h0.304v0.571zM21.768 22.42c0-0.071-0.026-0.121-0.080-0.15-0.052-0.028-0.128-0.043-0.227-0.043h-0.268v0.404h0.229c0.123 0 0.211-0.017 0.265-0.052s0.081-0.088 0.081-0.16zM22.599 22.857h-0.305v-1.429h0.305v1.429zM23.353 22.127l-0.48-0.699h0.346l0.326 0.5 0.328-0.5h0.344l-0.481 0.699 0.505 0.73h-0.344l-0.353-0.535-0.351 0.535h-0.344l0.503-0.73zM26.066 21.428h0.333l-0.59 0.689 0.641 0.741h-0.349l-0.618-0.725v0.725h-0.304v-1.429h0.304v0.694l0.583-0.694zM27.861 22.857h-0.306v-1.191h-0.394c-0.024 0.307-0.057 0.546-0.098 0.718s-0.094 0.298-0.16 0.378c-0.065 0.079-0.151 0.119-0.256 0.119-0.066 0-0.122-0.010-0.167-0.028v-0.238c0.032 0.012 0.064 0.018 0.096 0.018 0.088 0 0.157-0.099 0.207-0.296s0.090-0.501 0.119-0.908h0.96v1.429zM28.588 21.428v0.733c0 0.085-0.007 0.211-0.021 0.376l0.717-1.109h0.371v1.429h-0.292v-0.72c0-0.039 0.002-0.104 0.006-0.192s0.009-0.153 0.013-0.194l-0.715 1.106h-0.371v-1.429h0.291zM30.712 22.883c-0.222 0-0.396-0.064-0.522-0.194s-0.187-0.309-0.187-0.537c0-0.233 0.058-0.417 0.174-0.55s0.276-0.2 0.48-0.2c0.189 0 0.338 0.057 0.447 0.172s0.164 0.272 0.164 0.473v0.164h-0.952c0.004 0.139 0.042 0.246 0.112 0.321 0.070 0.074 0.17 0.111 0.299 0.111 0.084 0 0.163-0.008 0.235-0.023s0.152-0.043 0.235-0.080v0.247c-0.074 0.035-0.149 0.060-0.225 0.075-0.074 0.014-0.159 0.022-0.245 0.022-0.005 0-0.010-0-0.015-0h0.001zM30.657 21.632c-0.097 0-0.174 0.031-0.233 0.092s-0.092 0.15-0.103 0.267h0.649c-0.002-0.118-0.030-0.207-0.085-0.267s-0.131-0.092-0.227-0.092zM31.916 21.428v0.574h0.673v-0.574h0.304v1.429h-0.304v-0.616h-0.673v0.616h-0.304v-1.429h0.304zM34.403 21.428v0.238h-0.465v1.191h-0.305v-1.191h-0.465v-0.238h1.235zM35.946 22.14c0 0.233-0.060 0.416-0.179 0.547s-0.287 0.196-0.5 0.196c-0.134 0-0.251-0.030-0.354-0.090-0.103-0.062-0.184-0.15-0.235-0.256l-0.002-0.004c-0.055-0.113-0.083-0.244-0.083-0.393 0-0.232 0.059-0.413 0.178-0.543s0.287-0.195 0.503-0.195c0.207 0 0.371 0.067 0.491 0.2s0.181 0.312 0.181 0.538zM34.906 22.14c0 0.33 0.122 0.495 0.366 0.495 0.241 0 0.362-0.165 0.362-0.495 0-0.326-0.121-0.49-0.364-0.49-0.128 0-0.22 0.042-0.278 0.127s-0.085 0.205-0.085 0.363zM37.537 21.793c0 0.169-0.099 0.271-0.296 0.307v0.010c0.11 0.013 0.195 0.048 0.253 0.105s0.088 0.13 0.088 0.221c0 0.135-0.052 0.24-0.155 0.313s-0.252 0.108-0.448 0.108h-0.682v-1.429h0.68c0.374 0 0.561 0.122 0.561 0.366zM37.271 22.418c0-0.069-0.027-0.118-0.080-0.146s-0.134-0.044-0.24-0.044h-0.35v0.404h0.358c0.208 0 0.313-0.071 0.313-0.214zM37.233 21.819c0-0.057-0.022-0.098-0.067-0.123s-0.11-0.039-0.198-0.039h-0.368v0.344h0.323c0.102 0 0.179-0.013 0.231-0.038 0.053-0.027 0.079-0.075 0.079-0.144zM20.415 25.403c0 0.169-0.099 0.271-0.296 0.306v0.010c0.11 0.013 0.195 0.048 0.253 0.105s0.088 0.13 0.088 0.221c0 0.135-0.052 0.239-0.155 0.313s-0.252 0.108-0.448 0.108h-0.682v-1.429h0.68c0.374 0 0.561 0.122 0.561 0.366zM20.149 26.027c0-0.069-0.026-0.118-0.080-0.146s-0.134-0.044-0.24-0.044h-0.35v0.404h0.358c0.209 0 0.313-0.071 0.313-0.214zM20.111 25.428c0-0.057-0.022-0.098-0.067-0.123s-0.11-0.039-0.198-0.039h-0.368v0.344h0.323c0.102 0 0.179-0.013 0.231-0.039s0.079-0.075 0.079-0.143zM22.833 26.971h-0.283v-0.505h-0.98v0.505h-0.28v-0.741h0.116c0.102-0.146 0.182-0.321 0.242-0.527s0.096-0.429 0.107-0.667h0.869v1.194h0.209v0.741zM22.325 26.231v-0.961h-0.308c-0.018 0.194-0.055 0.373-0.108 0.543l0.005-0.019c-0.052 0.172-0.115 0.318-0.19 0.437h0.601zM23.722 26.492c-0.222 0-0.396-0.064-0.522-0.194s-0.187-0.309-0.187-0.536c0-0.234 0.058-0.417 0.174-0.55s0.276-0.2 0.479-0.2c0.189 0 0.338 0.057 0.447 0.172s0.164 0.272 0.164 0.473v0.164h-0.953c0.004 0.139 0.042 0.246 0.113 0.32s0.17 0.111 0.298 0.111c0.084 0 0.163-0.008 0.235-0.023 0.090-0.021 0.168-0.049 0.243-0.083l-0.008 0.003v0.247c-0.074 0.035-0.149 0.060-0.225 0.075-0.074 0.014-0.158 0.022-0.245 0.022-0.005 0-0.010-0-0.016-0h0.001zM23.667 25.241c-0.097 0-0.174 0.031-0.233 0.092s-0.092 0.15-0.103 0.267h0.649c-0.002-0.118-0.030-0.207-0.085-0.267-0.055-0.061-0.131-0.092-0.228-0.092zM24.927 25.037v0.574h0.673v-0.574h0.304v1.429h-0.304v-0.616h-0.673v0.616h-0.304v-1.429h0.304zM26.643 25.608h0.358c0.399 0 0.598 0.138 0.598 0.413 0 0.146-0.051 0.256-0.152 0.332-0.102 0.075-0.25 0.112-0.446 0.112h-0.662v-1.429h0.304v0.571zM27.294 26.029c0-0.072-0.027-0.122-0.081-0.15s-0.131-0.043-0.23-0.043h-0.34v0.404h0.345c0.1 0 0.176-0.018 0.227-0.054s0.079-0.089 0.079-0.158z"></path>
<path fill="#ff6c00" style="fill: var(--color4, #ff6c00)" d="M34.836 9.397h-0.748v-0.334h0.748v-0.767h0.338v0.767h0.75v0.334h-0.75v0.763h-0.338v-0.763z"></path>
</symbol>
<symbol id="icon-close-menu" viewBox="0 0 32 32">
<path d="M31.439 3.166l-3.166-3.166-12.554 12.552-12.552-12.552-3.166 3.166 12.552 12.552-12.552 12.554 3.166 3.166 12.552-12.554 12.554 12.554 3.166-3.166-12.554-12.554 12.554-12.552z"></path>
</symbol>
<symbol id="icon-burger-menu" viewBox="0 0 48 32">
<path fill="#fff" style="fill: var(--color5, #fff)" d="M0 5.334v-5.334h48v5.334h-48zM0 18.666h48v-5.332h-48v5.332zM0 32h48v-5.334h-48v5.334z"></path>
</symbol>
</defs>
</svg>
