<svg aria-hidden="true" style="position: absolute; width: 0; height: 0; overflow: hidden;" version="1.1" xmlns="http://www.w3.org/2000/svg" xmlns:xlink="http://www.w3.org/1999/xlink">
<defs>

<symbol id="icon-arrow_left" viewBox="0 0 54 32">
<path fill="#ff6b09" style="fill: var(--color1, #ff6b09)" d="M52 14c1.105 0 2 0.895 2 2s-0.895 2-2 2v-4zM0.586 17.414c-0.781-0.781-0.781-2.047 0-2.828l12.728-12.728c0.781-0.781 2.047-0.781 2.828 0s0.781 2.047 0 2.828l-11.314 11.314 11.314 11.314c0.781 0.781 0.781 2.047 0 2.828s-2.047 0.781-2.828 0l-12.728-12.728zM52 18h-50v-4h50v4z"></path>
</symbol>

<symbol id="icon-arrow_right" viewBox="0 0 54 32">
<path fill="#ff6b09" style="fill: var(--color1, #ff6b09)" d="M2 14c-1.105 0-2 0.895-2 2s0.895 2 2 2v-4zM53.414 17.414c0.781-0.781 0.781-2.047 0-2.828l-12.728-12.728c-0.781-0.781-2.047-0.781-2.828 0s-0.781 2.047 0 2.828l11.314 11.314-11.314 11.314c-0.781 0.781-0.781 2.047 0 2.828s2.047 0.781 2.828 0l12.728-12.728zM2 18h50v-4h-50v4z"></path>
</symbol>

<symbol id="icon-audiobook" viewBox="0 0 37 32">
<path d="M2.381 29.453h12.23c0.62 1.285 1.917 2.116 3.38 2.116h0.772c1.465 0 2.761-0.83 3.381-2.116h12.237c1.26 0 2.286-1.025 2.286-2.286v-21.905c0-1.26-1.025-2.286-2.286-2.286h-1.234v-1.021c0-0.84-0.684-1.524-1.524-1.524h-26.491c-0.84 0-1.524 0.683-1.524 1.524v1.021h-1.227c-1.26 0-2.286 1.025-2.286 2.286v21.905c0 1.26 1.025 2.286 2.286 2.286zM31.621 24.752h-12.478v-17.705c2.884 0.377 5.121 2.845 5.121 5.831v0.687l-0.181-0.040c-0.196-0.042-0.403-0.007-0.574 0.102s-0.291 0.281-0.334 0.478l-1.213 5.519c-0.090 0.41 0.17 0.816 0.58 0.907l2.621 0.578c0.135 0.029 0.273 0.043 0.411 0.043 0.922 0 1.707-0.631 1.908-1.535l0.702-3.192c0.231-1.048-0.433-2.090-1.484-2.324l-0.912-0.201v-1.023c0-3.827-2.917-6.986-6.644-7.37v-3.551h12.48l-0.002 22.796zM24.499 15.177l1.871 0.412c0.234 0.052 0.376 0.275 0.325 0.508l-0.702 3.191c-0.051 0.231-0.306 0.374-0.507 0.331l-1.874-0.413 0.886-4.030zM5.132 1.956h12.487v3.55c-3.731 0.381-6.652 3.541-6.652 7.371v1.022l-0.914 0.202c-0.509 0.113-0.943 0.416-1.222 0.854-0.281 0.439-0.373 0.961-0.26 1.468l0.7 3.188c0.19 0.892 0.993 1.54 1.909 1.54 0.138 0 0.275-0.015 0.416-0.045l2.61-0.577c0.41-0.091 0.67-0.496 0.58-0.907l-1.213-5.519c-0.043-0.198-0.164-0.37-0.334-0.478s-0.378-0.144-0.574-0.102l-0.174 0.038v-0.686c0-2.988 2.24-5.458 5.128-5.832v17.706h-12.487v-22.796zM12.249 15.177l0.887 4.029-1.863 0.411c-0.229 0.052-0.463-0.1-0.512-0.328l-0.702-3.196c-0.025-0.111-0.005-0.224 0.055-0.319 0.061-0.096 0.157-0.162 0.268-0.187l1.867-0.412zM1.619 5.262c0-0.42 0.342-0.762 0.762-0.762h1.227v20.252c0 0.84 0.684 1.524 1.524 1.524h26.491c0.84 0 1.524-0.683 1.524-1.524v-20.252h1.234c0.42 0 0.762 0.342 0.762 0.762v21.905c0 0.42-0.342 0.762-0.762 0.762h-12.754c-0.335 0-0.63 0.218-0.728 0.538-0.289 0.943-1.147 1.577-2.135 1.577h-0.772c-0.984 0-1.841-0.631-2.138-1.586-0.101-0.315-0.394-0.529-0.725-0.529h-12.747c-0.42 0-0.762-0.342-0.762-0.762v-21.905z"></path>
</symbol>

<symbol id="icon-background_instagram" viewBox="0 0 32 32">
<path d="M31.452 5.724c-0.291-2.729-2.447-4.885-5.176-5.176-6.844-0.73-13.709-0.73-20.553 0-2.729 0.291-4.885 2.447-5.176 5.176-0.73 6.844-0.73 13.709 0 20.553 0.291 2.729 2.447 4.885 5.176 5.176 6.844 0.73 13.709 0.73 20.553 0 2.729-0.291 4.884-2.447 5.176-5.176 0.73-6.844 0.73-13.708 0-20.553z"></path>
</symbol>

<symbol id="icon-check_mark" viewBox="0 0 41 32">
<path fill="#ff6b09" style="fill: var(--color1, #ff6b09)" d="M34.457 1.514c-1.484 0.664-2.907 1.475-4.265 2.379-2.731 1.797-5.228 3.936-7.57 6.218-2.341 2.287-4.52 4.735-6.581 7.28-0.515 0.636-2.823 3.47-2.823 3.47l-9.596-14.38-3.623 10.042 12.977 15.477c1.26-2.551 2.473-5.070 3.662-7.258 0.296-0.556 0.605-1.080 0.901-1.612 0 0 1.523-2.677 1.923-3.352 1.602-2.697 3.333-5.325 5.239-7.821 1.908-2.491 3.983-4.87 6.335-6.961 1.17-1.052 2.416-2.025 3.751-2.872 1.332-0.848 2.747-1.591 4.261-2.125-1.575 0.31-3.111 0.848-4.592 1.514z"></path>
</symbol>

<symbol id="icon-close" viewBox="0 0 32 32">
<path fill="none" stroke="#fff" style="stroke: var(--color2, #fff)" stroke-linejoin="miter" stroke-linecap="butt" stroke-miterlimit="4" stroke-width="3.7647" d="M1.882 29.168l27.286-27.286"></path>
<path fill="none" stroke="#fff" style="stroke: var(--color2, #fff)" stroke-linejoin="miter" stroke-linecap="butt" stroke-miterlimit="4" stroke-width="3.7647" d="M29.168 29.168l-27.286-27.286"></path>
</symbol>

<symbol id="icon-dash_dott_line" viewBox="0 0 1 32">
<path fill="none" stroke="#b9b9b9" style="stroke: var(--color3, #b9b9b9)" stroke-linejoin="miter" stroke-linecap="butt" stroke-miterlimit="4" stroke-width="0.4706" d="M0.471 0v32"></path>
</symbol>

<symbol id="icon-ellipse" viewBox="0 0 32 32">
<path fill="#ff6b09" style="fill: var(--color1, #ff6b09)" d="M16 32c-8.837 0-16-7.163-16-16s7.163-16 16-16c8.837 0 16 7.163 16 16s-7.163 16-16 16z"></path>
</symbol>

<symbol id="icon-fire" viewBox="0 0 24 32">
<path fill="#ff6b09" style="fill: var(--color1, #ff6b09)" d="M21.041 16.080c-0.275-0.615-0.654-1.222-1.208-1.922-1.398-1.757-1.824-5.676-1.829-5.714-0.019-0.188-0.152-0.343-0.327-0.399-0.18-0.056-0.374-0.005-0.502 0.136-1.668 1.865-0.967 4.746-0.588 5.897 0.104 0.315 0.218 0.686 0.298 1.062 0.616 3.040-0.573 4.417-0.853 4.694-0.27 0.075-0.455 0.038-0.625-0.146-0.588-0.644-0.782-2.753-0.507-5.502 0.057-0.559 0.043-1.062-0.038-1.532-0.58-3.379-2.704-5.546-3.245-6.306-1.488-2.199-1.639-5.859-1.644-5.892-0.005-0.174-0.104-0.329-0.261-0.404-0.152-0.075-0.336-0.066-0.479 0.033-2.483 1.687-2.269 5.751-1.924 8.021 0.081 0.526 0.237 1.062 0.507 1.739 0.962 2.42-0.19 5.544-0.199 5.573s-0.019 0.052-0.024 0.080c-0.147 0.771-0.393 1.231-0.668 1.231-0.028 0-0.057-0.005-0.090-0.014-0.336-0.070-0.512-0.428-0.516-0.738-0.019-4.008-4.041-5.357-4.084-5.371-0.18-0.056-0.379-0.005-0.502 0.141-0.128 0.146-0.152 0.348-0.066 0.517 0.047 0.099 0.199 0.531 0.095 2.058-0.090 1.372-0.341 2.73-0.744 4.032-0.957 3.12-0.805 6.076-0.796 6.216 0.736 8.002 12.245 9.404 19.075 4.896 0.748-0.493 1.36-1.057 1.81-1.677 2.521-3.477 1.038-8.199-0.066-10.708zM3.535 23.725c0.014 0.258-0.185 0.479-0.445 0.493h-0.028c-0.251 0-0.46-0.193-0.474-0.442-0.043-0.686-0.033-1.405 0.019-2.185 0.019-0.258 0.246-0.451 0.507-0.437 0.261 0.019 0.46 0.244 0.441 0.503-0.052 0.742-0.062 1.419-0.019 2.068zM3.767 19.562c-0.028 0.24-0.232 0.414-0.469 0.414-0.019 0-0.038 0-0.062-0.005-0.256-0.033-0.441-0.263-0.412-0.521l0.227-1.814c0.033-0.254 0.265-0.437 0.531-0.409 0.261 0.033 0.445 0.268 0.412 0.526l-0.227 1.809z"></path>
</symbol>

<symbol id="icon-instagram" viewBox="0 0 32 32">
<path fill="#000" style="fill: var(--color4, #000)" d="M31.452 5.724c-0.291-2.729-2.447-4.885-5.176-5.176-6.844-0.73-13.709-0.73-20.553 0-2.729 0.291-4.885 2.447-5.176 5.176-0.73 6.844-0.73 13.709 0 20.553 0.291 2.729 2.447 4.885 5.176 5.176 6.844 0.73 13.709 0.73 20.553 0 2.729-0.291 4.884-2.447 5.176-5.176 0.73-6.844 0.73-13.708 0-20.553z"></path>
<path fill="#000" style="fill: var(--color4, #000)" d="M29.712 6.881c-0.258-2.422-2.171-4.334-4.593-4.593-6.073-0.648-12.165-0.648-18.238 0-2.422 0.259-4.334 2.171-4.593 4.593-0.648 6.073-0.648 12.165 0 18.238 0.259 2.422 2.171 4.335 4.593 4.593 6.073 0.648 12.165 0.648 18.238 0 2.422-0.258 4.335-2.171 4.593-4.593 0.648-6.073 0.648-12.164 0-18.238z"></path>
<path fill="#000" style="fill: var(--color4, #000)" d="M0.48 25.613c0.022 0.221 0.045 0.442 0.068 0.664 0.291 2.729 2.447 4.884 5.176 5.176 6.844 0.73 13.709 0.73 20.552 0 2.729-0.291 4.885-2.447 5.176-5.176 0.024-0.221 0.046-0.442 0.069-0.664h-31.041z"></path>
<path fill="#000" style="fill: var(--color4, #000)" d="M31.452 26.276c0.393-3.678 0.574-7.361 0.544-11.044l-7.314-7.314c-0.914-1.043-2.249-1.694-3.817-1.751-3.225-0.116-6.461-0.11-9.687 0-2.679 0.092-4.553 1.893-5.033 4.54-0.085 0.467-0.136 0.941-0.202 1.411v7.759c0.037 0.252 0.091 0.502 0.108 0.755 0.107 1.61 0.769 2.989 1.828 3.922l7.443 7.443c3.653 0.026 7.306-0.156 10.954-0.545 2.729-0.291 4.884-2.447 5.176-5.176z"></path>
<path fill="#000" style="fill: var(--color4, #000)" d="M31.452 26.277c-0.291 2.729-2.447 4.885-5.176 5.176-3.647 0.389-7.301 0.571-10.953 0.545l-7.432-7.432c0.862 0.754 1.985 1.213 3.288 1.262 3.225 0.121 6.461 0.118 9.686 0.002 2.917-0.105 5.028-2.264 5.119-5.181 0.097-3.097 0.097-6.202 0-9.3-0.041-1.346-0.514-2.53-1.297-3.426l7.31 7.31c0.029 3.682-0.152 7.366-0.545 11.044z"></path>
<path fill="#000" style="fill: var(--color4, #000)" d="M19.776 12.535c-0.937-1.020-2.282-1.66-3.776-1.66-2.831 0-5.125 2.295-5.125 5.125 0 1.494 0.64 2.839 1.66 3.776l11.859 11.859c0.628-0.055 1.255-0.116 1.883-0.182 2.729-0.291 4.885-2.447 5.176-5.176 0.067-0.627 0.128-1.255 0.182-1.883l-11.859-11.859z"></path>
<path fill="#000" style="fill: var(--color4, #000)" d="M31.938 19.447l-9.544-9.544c-0.223-0.292-0.573-0.482-0.969-0.482-0.673 0-1.22 0.546-1.22 1.219 0 0.396 0.19 0.747 0.482 0.969l11.080 11.080c0.075-1.081 0.132-2.162 0.171-3.243z"></path>
<path fill="#000" style="fill: var(--color4, #000)" d="M5.943 12.119c0.067-0.471 0.117-0.944 0.202-1.411 0.48-2.647 2.354-4.447 5.033-4.54 3.226-0.111 6.461-0.117 9.687-0 2.916 0.105 5.028 2.264 5.119 5.181 0.097 3.097 0.097 6.202 0 9.3-0.091 2.917-2.202 5.076-5.119 5.181-3.225 0.116-6.462 0.119-9.687-0.002-2.916-0.11-4.933-2.274-5.128-5.195-0.017-0.253-0.071-0.503-0.108-0.755 0-2.586 0-5.173 0-7.759zM16.003 24.101c1.476 0 2.954 0.044 4.428-0.010 2.311-0.086 3.733-1.465 3.787-3.774 0.067-2.877 0.067-5.758 0-8.636-0.054-2.309-1.477-3.72-3.787-3.769-2.932-0.062-5.868-0.062-8.8 0-2.293 0.048-3.719 1.431-3.781 3.714-0.079 2.914-0.079 5.832 0 8.746 0.062 2.283 1.488 3.634 3.781 3.719 1.456 0.054 2.915 0.010 4.372 0.010z"></path>
<path fill="#fff" style="fill: var(--color2, #fff)" d="M5.943 12.119c0.067-0.471 0.117-0.944 0.202-1.411 0.48-2.647 2.354-4.447 5.033-4.54 3.226-0.111 6.461-0.117 9.687-0 2.916 0.105 5.028 2.264 5.119 5.181 0.097 3.097 0.097 6.202 0 9.3-0.091 2.917-2.202 5.076-5.119 5.181-3.225 0.116-6.462 0.119-9.687-0.002-2.916-0.11-4.933-2.274-5.128-5.195-0.017-0.253-0.071-0.503-0.108-0.755 0-2.586 0-5.173 0-7.759zM16.003 24.101c1.476 0 2.954 0.044 4.428-0.010 2.311-0.086 3.733-1.465 3.787-3.774 0.067-2.877 0.067-5.758 0-8.636-0.054-2.309-1.477-3.72-3.787-3.769-2.932-0.062-5.868-0.062-8.8 0-2.293 0.048-3.719 1.431-3.781 3.714-0.079 2.914-0.079 5.832 0 8.746 0.062 2.283 1.488 3.634 3.781 3.719 1.456 0.054 2.915 0.010 4.372 0.010z"></path>
<path fill="#fff" style="fill: var(--color2, #fff)" d="M16 10.875c-2.831 0-5.125 2.295-5.125 5.125s2.295 5.126 5.125 5.126c2.831 0 5.126-2.295 5.126-5.126s-2.295-5.125-5.126-5.125zM16 19.361c-1.856 0-3.361-1.505-3.361-3.361s1.505-3.361 3.361-3.361c1.856 0 3.361 1.505 3.361 3.361s-1.505 3.361-3.361 3.361z"></path>
<path fill="#fff" style="fill: var(--color2, #fff)" d="M22.644 10.641c0 0.673-0.546 1.219-1.219 1.219s-1.22-0.546-1.22-1.219c0-0.674 0.546-1.219 1.22-1.219s1.219 0.546 1.219 1.219z"></path>
</symbol>

<symbol id="icon-instagram_2vers" viewBox="0 0 32 32">
<path fill="#fff" style="fill: var(--color2, #fff)" d="M0.528 10.029c0.103-0.724 0.181-1.452 0.311-2.171 0.739-4.072 3.622-6.842 7.743-6.984 4.963-0.171 9.941-0.18 14.903-0.001 4.486 0.161 7.735 3.483 7.875 7.971 0.149 4.765 0.149 9.542 0 14.307-0.14 4.488-3.388 7.809-7.875 7.971-4.962 0.179-9.941 0.184-14.903-0.003-4.487-0.169-7.589-3.498-7.889-7.992-0.026-0.389-0.109-0.774-0.166-1.161 0-3.979 0-7.958 0-11.937zM16.004 28.463c2.271 0 4.544 0.068 6.812-0.016 3.556-0.132 5.743-2.254 5.826-5.806 0.103-4.426 0.103-8.859 0-13.286-0.083-3.552-2.272-5.723-5.826-5.799-4.511-0.095-9.028-0.095-13.539 0-3.527 0.074-5.721 2.202-5.817 5.714-0.122 4.482-0.122 8.973 0 13.455 0.096 3.512 2.289 5.591 5.817 5.721 2.239 0.083 4.484 0.016 6.727 0.016z"></path>
<path fill="#fff" style="fill: var(--color2, #fff)" d="M16 8.115c-4.355 0-7.885 3.53-7.885 7.885s3.531 7.885 7.885 7.885c4.355 0 7.885-3.53 7.885-7.885s-3.53-7.885-7.885-7.885zM16 21.17c-2.856 0-5.171-2.315-5.171-5.171s2.315-5.17 5.171-5.17 5.17 2.315 5.17 5.171c0 2.856-2.315 5.171-5.17 5.171z"></path>
<path fill="#fff" style="fill: var(--color2, #fff)" d="M26.222 7.755c0 1.036-0.84 1.876-1.876 1.876s-1.876-0.84-1.876-1.876c0-1.036 0.84-1.876 1.876-1.876s1.876 0.84 1.876 1.876z"></path>
</symbol>

<symbol id="icon-insurance" viewBox="0 0 27 32">
<path fill="#ff6b09" style="fill: var(--color1, #ff6b09)" d="M0.529 13.797c0 0.348-0.529 0.348-0.529 0 0-7.403 6.004-13.407 13.407-13.407 7.406 0 13.407 6.004 13.407 13.407 0 0.348-0.525 0.348-0.525 0 0-5.004-8.223-5.007-8.223 0 0 0.348-0.541 0.348-0.541 0 0-4.991-8.235-4.991-8.235 0 0 0.348-0.541 0.348-0.541 0 0-4.982-8.219-5.017-8.219 0zM8.796 11.854c0.142-2.88 0.595-5.463 1.253-7.435 0.525-1.567 1.19-2.757 1.943-3.425-5.653 0.617-10.229 4.903-11.252 10.46 1.946-2.807 6.441-2.583 8.055 0.399zM17.483 11.724c-0.146-2.769-0.586-5.248-1.218-7.137-1.633-4.89-4.083-4.89-5.716 0-0.633 1.889-1.070 4.368-1.219 7.137 1.757-2.985 6.396-2.985 8.153 0zM26.073 11.455c-1.019-5.558-5.596-9.843-11.252-10.46 0.756 0.668 1.418 1.858 1.943 3.425 0.658 1.972 1.111 4.554 1.253 7.435 1.624-2.997 6.131-3.175 8.055-0.399z"></path>
<path fill="#ff6b09" style="fill: var(--color1, #ff6b09)" d="M11.647 19.932v-2.722c-0.491 0.326-0.877 0.829-0.877 1.444 0 0.598 0.393 0.994 0.877 1.279zM12.176 20.777c-0.94-0.431-1.931-0.934-1.931-2.124 0-1.228 0.934-1.842 1.931-2.301v4.426z"></path>
<path fill="#ff6b09" style="fill: var(--color1, #ff6b09)" d="M15.167 24.039v2.754c0.497-0.329 0.886-0.835 0.886-1.45 0-0.605-0.399-1.013-0.886-1.304zM14.641 23.191c0.943 0.437 1.94 0.956 1.94 2.152 0 1.231-0.94 1.845-1.94 2.301v-4.453z"></path>
<path fill="#ff6b09" style="fill: var(--color1, #ff6b09)" d="M15.167 14.111c2.165 0.5 4.39 2.121 4.39 4.542 0 2.073-3.504 1.997-3.504 0 0-0.617-0.389-1.124-0.886-1.45v3.874c2.003 0.655 4.396 1.829 4.396 4.267 0 2.424-2.225 4.042-4.396 4.539-0.010 2.307-3.513 2.304-3.519-0.003-1.234-0.285-2.307-0.861-3.083-1.624-0.813-0.804-1.295-1.814-1.295-2.912 0-2.042 3.5-2.042 3.5 0 0 0.611 0.386 1.114 0.877 1.44v-3.871c-1.988-0.643-4.393-1.852-4.393-4.267 0-2.424 2.225-4.042 4.393-4.539 0.009-2.307 3.513-2.304 3.519 0.003zM12.176 14.117v0.421c-2.060 0.408-4.396 1.728-4.396 4.108 0 2.288 2.564 3.314 4.396 3.88v5.115c-0.991-0.453-1.931-1.064-1.931-2.298 0-1.348-2.45-1.348-2.45 0 0 0.953 0.424 1.833 1.139 2.535 0.908 0.899 2.010 1.326 3.241 1.57v0.424c0 1.624 2.466 1.624 2.466 0v-0.421c2.067-0.411 4.393-1.731 4.393-4.108 0-2.31-2.557-3.304-4.393-3.884v-5.112c0.994 0.453 1.94 1.063 1.94 2.304 0 1.313 2.447 1.367 2.447 0 0-2.377-2.323-3.7-4.387-4.111v-0.424c0-1.624-2.466-1.624-2.466 0z"></path>
</symbol>


<symbol id="icon-menu" viewBox="0 0 21 14">
<path d="M0 1H20.5" stroke="black" stroke-width="2"/>
<path d="M0 7H20.5" stroke="black" stroke-width="2"/>
<path d="M0 13H20.5" stroke="black" stroke-width="2"/>
</symbol>

<symbol id="icon-mobile_learning" viewBox="0 0 32 32">
<path d="M29.457 0.256h-15.371c-1.001 0-1.815 0.814-1.815 1.815v6.363l-11.419 4.793c-0.129 0.054-0.217 0.176-0.227 0.316s0.059 0.274 0.18 0.346l1.456 0.872v9.288c-0.745 0.17-1.304 0.836-1.304 1.634v0.895c0 0.205 0.167 0.372 0.372 0.372h2.608c0.205 0 0.372-0.167 0.372-0.372v-0.895c0-0.796-0.559-1.462-1.304-1.633v-8.844l1.151 0.689c-0.035 0.266-0.004-0.463-0.016 4.324 0 1.574 4.031 2.417 8.132 2.465v7.249c0 0.374 0.115 0.723 0.311 1.012 0.326 0.482 0.878 0.8 1.503 0.8h15.371c1 0 1.813-0.814 1.813-1.813 0 0.050-0.002-1.535 0-27.86 0-0.987-0.816-1.815-1.812-1.815zM3.565 25.682v0.523h-1.864v-0.523c0-0.515 0.417-0.935 0.93-0.935 0.515 0 0.934 0.419 0.934 0.935zM29.457 30.998h-15.371c-0.369 0-0.695-0.187-0.887-0.47-0.115-0.171-0.183-0.376-0.183-0.597v-2.513h17.508v2.514c0 0.582-0.485 1.066-1.066 1.066zM30.523 26.675h-17.508v-3.989c2.002-0.023 8.137-0.464 8.137-2.467-0.002-3.007 0.005-4.227-0.009-4.33l3.339-2c0.12-0.072 0.19-0.206 0.18-0.346s-0.098-0.262-0.227-0.316l-11.419-4.793v-3.106h17.508v21.347zM12.643 17.75c-2.063 0-6.034 0.266-7.76 1.393 0.011-3.446-0.12-3.222 0.305-3.514 1.072-0.789 4.137-1.34 7.455-1.34 1.447 0 7.765 0.398 7.765 1.735v3.119c-1.742-1.137-5.693-1.394-7.765-1.394zM13.015 2.071c0-0.59 0.48-1.069 1.069-1.069h15.371c0.59 0 1.067 0.486 1.067 1.069v2.513h-17.508v-2.513zM12.643 9.084l10.826 4.544-2.683 1.605c-1.426-1.414-6.144-1.689-8.143-1.689-2.002 0-6.72 0.275-8.143 1.689l-2.683-1.606 10.827-4.544zM4.883 20.219c0-0.602 2.665-1.725 7.76-1.725 5.098 0 7.765 1.123 7.765 1.725s-2.667 1.726-7.765 1.726c-5.095 0-7.76-1.123-7.76-1.726z"></path>
<path d="M21.77 27.979c-0.678 0-1.23 0.551-1.23 1.23s0.552 1.23 1.23 1.23c0.678 0 1.23-0.552 1.23-1.23s-0.552-1.23-1.23-1.23zM21.77 29.696c-0.268 0-0.486-0.218-0.486-0.487s0.218-0.486 0.486-0.486c0.268 0 0.486 0.218 0.486 0.486s-0.218 0.487-0.486 0.487z"></path>
<path d="M23.189 2.421h-2.837v0.744h2.837v-0.744z"></path>
</symbol>

<symbol id="icon-openbook" viewBox="0 0 44 32">
<path d="M19.6 4.608h-13.64v1.021h13.64v-1.021z"></path>
<path d="M19.6 8.416h-11.597v1.021h11.597v-1.021z"></path>
<path d="M19.6 12.224h-13.64v1.021h13.64v-1.021z"></path>
<path d="M19.6 16.032h-11.597v1.021h11.597v-1.021z"></path>
<path d="M19.6 19.84h-13.64v1.021h13.64v-1.021z"></path>
<path d="M19.6 23.648h-11.597v1.021h11.597v-1.021z"></path>
<path d="M38.323 4.608h-13.64v1.021h13.64v-1.021z"></path>
<path d="M36.281 8.416h-11.597v1.021h11.597v-1.021z"></path>
<path d="M38.323 12.224h-13.64v1.021h13.64v-1.021z"></path>
<path d="M36.281 16.032h-11.597v1.021h11.597v-1.021z"></path>
<path d="M38.323 19.84h-13.64v1.021h13.64v-1.021z"></path>
<path d="M36.281 23.648h-11.597v1.021h11.597v-1.021z"></path>
<path d="M43.248 3.445h-1.872v-2.812c0-0.282-0.229-0.511-0.511-0.511h-15.265c-1.49 0-2.781 0.805-3.458 2.011-0.678-1.206-1.97-2.011-3.459-2.011h-15.265c-0.282 0-0.511 0.229-0.511 0.511v2.812h-1.872c-0.282 0-0.511 0.229-0.511 0.511v27.411c0 0.282 0.229 0.511 0.511 0.511 5.127 0 37.068 0 42.213 0 0.282 0 0.511-0.229 0.511-0.511v-27.411c0-0.282-0.229-0.511-0.511-0.511zM25.601 1.144h14.754c0 4.573 0 16.619 0 27.35h-15.843c-0.702 0-1.405 0.296-1.859 0.68v-25.089c0-1.63 1.305-2.942 2.948-2.942zM3.929 1.144h14.754c1.597 0 2.889 1.243 2.942 2.829 0.001 0.022 0.003 0.091 0.006 0.112v25.087c-0.453-0.382-1.148-0.678-1.852-0.678h-15.85c0-10.728 0-22.779 0-27.35zM1.546 4.467h1.362v24.538c0 0.282 0.229 0.511 0.511 0.511h16.361c0.778 0 1.531 0.511 1.771 1.341h-20.005v-26.39zM42.738 30.856h-20.004c0.242-0.834 0.987-1.341 1.778-1.341h16.354c0.282 0 0.511-0.229 0.511-0.511v-24.538h1.362v26.39z"></path>
</symbol>

<symbol id="icon-psychology_support" viewBox="0 0 33 32">
<path d="M1.993 12.558v2.831c0 0.152 0.070 0.295 0.189 0.39 1.935 1.523 4.363 2.362 6.837 2.362 0.74 0 1.482-0.077 2.206-0.224 1.544 0.683 3.188 1.032 4.89 1.032 1.707 0 3.351-0.349 4.89-1.032 3.091 0.624 6.384-0.046 9.042-2.138 0.12-0.094 0.189-0.238 0.189-0.39v-2.831c0-0.416-0.206-0.794-0.575-1.027l-3.867-2.176c0.846-1.073 1.476-2.602 1.586-3.913 0.321-2.256-1.518-4.646-4.165-4.646-1.113 0-2.171 0.458-2.948 1.227-0.027 0.027-0.058 0.049-0.084 0.076-0.024 0.025-0.043 0.054-0.067 0.080-0.016 0.017-0.029 0.036-0.044 0.053-0.757-1.38-2.211-2.232-3.924-2.232-0.166 0-0.33 0.011-0.492 0.028-0.010-0.001-0.018-0.006-0.028-0.006-0.092 0-0.287 0.024-0.391 0.054-0.015 0.004-0.026 0.015-0.041 0.021-1.279 0.259-2.363 1.034-3.013 2.156-0.781-0.911-1.93-1.457-3.179-1.457-3.908 0-5.642 4.612-2.557 8.581l-3.903 2.167c-0.346 0.219-0.553 0.598-0.553 1.014zM20.996 16.828c-0.084 0.041-0.167 0.085-0.251 0.123l-0 0c-0.001 0-0.001 0.001-0.002 0.001-1.452 0.667-3.009 1.006-4.627 1.006-1.613 0-3.17-0.338-4.629-1.007-0.71-0.323-1.397-0.734-2.045-1.221v-2.87c0-0.098 0.047-0.184 0.102-0.221l4.542-2.524c0.565 0.48 1.287 0.832 2.035 0.832 0.721 0 1.499-0.357 2.052-0.843l4.487 2.52c0.083 0.053 0.13 0.139 0.13 0.237v2.87c-0.571 0.429-1.173 0.795-1.794 1.098zM29.154 12.382c0.059 0.037 0.092 0.101 0.092 0.176v2.587c-1.969 1.477-4.337 2.148-6.737 1.98 0.369-0.23 0.771-0.516 1.083-0.76 0.12-0.094 0.19-0.238 0.19-0.39v-3.114c0-0.435-0.218-0.835-0.61-1.087l-2.383-1.339 0.58-0.321c0.703 0.573 1.307 0.744 1.848 0.744 0.662 0 1.36-0.325 1.878-0.759l4.060 2.284zM23.216 1.788c1.38 0 2.593 0.902 3.021 2.142-0.833-0.099-1.647-0.51-2.237-1.142-0.107-0.114-0.258-0.173-0.415-0.155-0.155 0.016-0.293 0.105-0.373 0.239-0.566 0.948-1.493 1.58-2.548 1.76 0-0.001-0-0.002-0-0.003 0.005-0.216-0.008-0.434-0.033-0.653-0.003-0.022-0.005-0.044-0.007-0.067-0.032-0.248-0.107-0.559-0.122-0.609 0.563-0.902 1.609-1.513 2.713-1.513zM20.556 5.644c1.253-0.137 2.386-0.767 3.164-1.762 0.767 0.629 1.74 1.010 2.702 1.056-0.007 1.792-1.471 4.927-3.206 4.927-1.337 0-2.479-1.912-2.905-3.238 0.108-0.341 0.187-0.669 0.245-0.983zM20.657 9.373l-0.886 0.491-0.895-0.502c0.332-0.413 0.636-0.893 0.896-1.413 0.25 0.526 0.55 1.010 0.884 1.425zM19.32 6.465c-0.478 1.427-1.705 3.49-3.199 3.49-1.742 0-3.226-2.864-3.509-4.696 0.075-0.019 2.43 0.126 4.050-2.001 0.822 0.688 1.932 1.143 3.011 1.188 0.013 0.647-0.144 1.406-0.352 2.018zM16.15 0.992c2.78 0 3.309 2.392 3.352 2.442-1.008-0.102-1.928-0.596-2.563-1.276-0.107-0.114-0.262-0.171-0.416-0.154-0.155 0.017-0.293 0.106-0.373 0.241-0.551 0.932-1.414 1.589-2.414 1.868-0.386 0.108-0.803 0.157-1.166 0.154 0.136-1.822 1.596-3.274 3.58-3.274zM12.461 7.938c0.257 0.515 0.563 1.006 0.913 1.438l-0.875 0.487-0.907-0.51c0.344-0.438 0.636-0.929 0.87-1.415zM9.006 1.788c1.125 0 2.155 0.571 2.729 1.514-0.029 0.1-0.106 0.498-0.117 0.548-0.69-0.165-1.324-0.533-1.821-1.062-0.107-0.114-0.258-0.17-0.416-0.154-0.155 0.017-0.293 0.106-0.372 0.24-0.663 1.119-1.881 1.815-3.177 1.815 0.158-1.627 1.518-2.9 3.174-2.9zM5.876 5.678c1.425-0.014 2.77-0.686 3.643-1.796 0.596 0.491 1.303 0.813 2.055 0.961 0.029 0.575 0.179 1.273 0.35 1.789-0.274 0.84-0.799 1.841-1.451 2.505-0.004 0.004-0.010 0.006-0.014 0.010-0.408 0.43-0.988 0.719-1.444 0.719-1.594 0-2.841-2.508-3.14-4.188zM2.985 12.558c0-0.075 0.033-0.139 0.067-0.162l4.116-2.284c0.247 0.206 0.304 0.229 0.353 0.265l-0 0c0.484 0.322 0.928 0.482 1.534 0.482 0.645 0 1.232-0.273 1.749-0.694 0.029-0.023 0.060-0.045 0.088-0.068l0.587 0.33-2.446 1.361c-0.366 0.236-0.584 0.636-0.584 1.071v3.114c0 0.152 0.070 0.296 0.19 0.39 0.317 0.249 0.727 0.539 1.083 0.761-2.434 0.166-4.803-0.528-6.737-1.98v-2.587z"></path>
<path d="M31.259 20.781c-0.61-0.383-1.361-0.423-2.007-0.11l-6.119 2.956c-0.021-1.145-0.956-2.071-2.107-2.071l-3.509 0.001c-1.73-1.504-3.941-2.425-5.952-2.473-1.983-0.047-3.763-0.060-4.593-0.064v-1.002h-6.972v11.517h6.972v-1.379c1.912 1.097 6.939 3.845 9.325 3.845 0.054 0 0.107-0.001 0.158-0.004 4.196-0.235 14.091-7.198 14.743-7.661 0.638-0.37 1.034-1.056 1.034-1.796 0-0.719-0.364-1.376-0.973-1.758zM5.98 28.542h-4.988v-9.533h4.988v9.533zM30.687 23.484c-0.015 0.008-0.030 0.017-0.044 0.028-0.102 0.073-10.281 7.271-14.244 7.494-0.039 0.002-0.079 0.003-0.121 0.003-2.092 0-7.194-2.753-9.307-4.001v-6.997c0.827 0.004 2.597 0.017 4.569 0.064 1.837 0.044 3.876 0.921 5.456 2.346l0.141 0.128 3.887-0.001c0.617 0 1.119 0.502 1.119 1.119s-0.502 1.119-1.119 1.119h-7.142v0.992h7.142c0.684 0 1.288-0.333 1.674-0.839l6.984-3.373c0.343-0.167 0.725-0.146 1.049 0.057s0.508 0.537 0.508 0.918c0 0.391-0.212 0.753-0.553 0.945z"></path>
<path d="M16.612 12.159h-0.992v0.92h0.992v-0.92z"></path>
<path d="M16.612 13.992h-0.992v0.92h0.992v-0.92z"></path>
<path d="M16.612 15.826h-0.992v0.92h0.992v-0.92z"></path>
</symbol>

<symbol id="icon-rectangle" viewBox="0 0 31 32">
<path fill="none" stroke="#ff6b09" style="stroke: var(--color1, #ff6b09)" stroke-linejoin="miter" stroke-linecap="butt" stroke-miterlimit="4" stroke-width="1.0159" d="M30.387 4.945v-4.183h-29.879v30.476h29.879v-4.183"></path>
</symbol>

<symbol id="icon-student" viewBox="0 0 27 32">
<path d="M-0.103 31.359c3.441 0 23.348 0 26.785 0 0.133-3.054-0.086-8.122-1.964-10.535l-0.068-0.087-4.104-2.060c0.089-0.301 0.133-0.576 0.151-0.778 0.020-0.243-0.013-0.471-0.1-0.678-0.677-1.62-2.11-2.472-2.898-2.836 0.24-0.484 0.395-1.003 0.47-1.534 0.446-0.126 0.805-0.479 0.922-0.951l0.479-1.946c0.085-0.343 0.032-0.699-0.151-1.002-0.078-0.13-0.18-0.24-0.294-0.334 1.351-3.068-0.911-5.96-1.035-6.113-2.45-2.649-5.544-2.153-5.708-2.124-4.466 0.935-6.19 4.358-5.217 8.372-0.288 0.319-0.409 0.764-0.302 1.2l0.481 1.948c0.117 0.468 0.473 0.82 0.916 0.948 0.137 0.972 0.548 1.851 1.152 2.559v1.543c-6.409 3.282-2.348 1.188-7.484 3.786-0.010 0.048-2.41 2.599-2.053 10.159l0.022 0.462zM25.751 30.389h-4.408v-1.852l2.916-6.674c1.461 2.424 1.515 7.053 1.493 8.526zM19.735 17.816c-0.17 1.954-1.242 1.363-1.903 2.869-0.52-0.572-0.677-1.258-0.537-1.993 0.253-1.348-0.57-1.749-0.367-3.166l0.031-0.032v-0.004c0.017-0.020 0.18-0.213 0.227-0.274 1.744 0.76 2.584 2.174 2.55 2.6zM10.379 16.28c0.81 0.562 1.787 0.893 2.838 0.893 0.99 0 1.93-0.288 2.736-0.819 0.112 1.114 0.547 1.337 0.393 2.157-0.029 0.152-0.045 0.302-0.054 0.45l-3.002 3.384-3.838-4.327 0.926-0.484v-1.254zM9.172 12.14v-1.876c0-0.691 0-3.432 0-3.296 0.467-0.864 1.104-1.491 1.896-1.866 2.12 1.2 4.56 2.99 6.197 4.791-0.002 2.294 0.006 2.301-0.009 2.489l-0.001 0.012c-0.128 2.084-1.841 3.811-4.038 3.811-2.136 0-3.909-1.677-4.037-3.831-0.007-0.077-0.008-0.155-0.008-0.233zM8.574 18.486l4.716 5.317 3.166-3.568c0.072 0.208 0.174 0.405 0.29 0.595l-3.456 4.322-5.154-6.446 0.438-0.22zM18.23 11.359v-1.498c0.042-0.049 0.402-0.461 0.36-0.413 0.020 0.758 0.102-0.137-0.36 1.911zM12.561 1.334c0.192 0.012 2.765-0.391 4.799 1.804 0.080 0.1 1.736 2.234 1.071 4.567-0.228-1.038-0.625-2.369-1.252-3.004l-0.686 0.683c0.619 0.627 1.026 2.537 1.181 3.527-2.84-2.972-6.504-4.853-6.555-4.885-0.184 0.114-1.734 0.409-2.86 2.598l-0.054 0.105v1.607c-0.048 0.001-0.19 0.002-0.142 0.002-0.716-3.454 0.655-6.198 4.497-7.004zM7.962 9.336l0.244 0.987v1.038l-0.405-1.639c-0.059-0.244 0.122-0.337 0.161-0.386zM7.252 19.15l6.037 7.551 4.085-5.109c0.444 0.398 0.658 0.454 1.6 0.939l-0.318-1.078c-0.081-0.274 0.239-0.713 0.431-0.914 0.43-0.234 0.789-0.566 1.058-0.978l3.333 1.674-3.101 7.1v2.055h-14.176v-2.055l-3.103-7.099 4.153-2.085zM2.32 21.865l2.916 6.673v1.852h-4.408c-0.022-1.473 0.033-6.099 1.492-8.524z"></path>
</symbol>

<symbol id="icon-study_program" viewBox="0 0 31 32">
<path d="M30.151 4.961c0-0.001-0.001-0.001-0.001-0.002-0.007-0.016-0.015-0.031-0.024-0.045-0.001-0.001-0.002-0.002-0.002-0.003-0.010-0.015-0.021-0.029-0.034-0.042l-4.806-4.806c-0.013-0.013-0.026-0.023-0.041-0.033-0.003-0.002-0.006-0.004-0.009-0.006-0.012-0.007-0.024-0.014-0.036-0.019-0.004-0.002-0.007-0.003-0.011-0.005-0.031-0.013-0.065-0.019-0.099-0.020-0.002 0-0.004-0-0.005-0h-21.172c-0.157 0-0.284 0.127-0.284 0.284v29.311c0 0.019 0.002 0.037 0.006 0.056 0.002 0.008 0.005 0.015 0.007 0.023 0.003 0.010 0.006 0.020 0.009 0.030 0.004 0.009 0.009 0.017 0.014 0.026 0.004 0.007 0.008 0.016 0.013 0.023 0.010 0.014 0.021 0.028 0.033 0.040 0.001 0.001 0.001 0.002 0.003 0.003l2.165 2.164c0.111 0.111 0.29 0.111 0.402 0l1.965-1.963 1.964 1.963c0.055 0.056 0.128 0.083 0.201 0.083s0.145-0.027 0.201-0.083l1.964-1.963 1.964 1.963c0.111 0.111 0.291 0.111 0.402 0l1.964-1.963 1.963 1.963c0.111 0.111 0.291 0.111 0.401 0l1.965-1.963 1.963 1.963c0.055 0.056 0.128 0.083 0.201 0.083s0.145-0.027 0.201-0.083l1.963-1.963 1.965 1.963c0.111 0.111 0.291 0.111 0.401 0l2.165-2.164c0.004-0.004 0.007-0.009 0.011-0.014 0.008-0.009 0.017-0.019 0.024-0.029 0.007-0.009 0.011-0.020 0.016-0.030 0.003-0.007 0.007-0.012 0.009-0.019 0.006-0.013 0.009-0.026 0.012-0.039 0.001-0.005 0.003-0.009 0.004-0.013 0.004-0.020 0.006-0.038 0.006-0.058v-24.503c-0.001-0.037-0.008-0.074-0.023-0.109zM25.367 0.949l3.836 3.835h-3.836v-3.835zM29.604 29.456l-1.88 1.88-1.965-1.963c-0.111-0.111-0.29-0.111-0.401 0l-1.963 1.963-1.963-1.963c-0.111-0.111-0.291-0.111-0.402 0l-1.965 1.963-1.963-1.962c0-0-0-0.001-0-0.001-0.055-0.055-0.128-0.083-0.201-0.083s-0.145 0.028-0.201 0.083c-0 0-0 0-0 0l-1.963 1.963-1.964-1.963c-0.111-0.111-0.29-0.111-0.402 0l-1.963 1.963-1.964-1.963c-0.111-0.111-0.29-0.111-0.402 0l-1.965 1.963-1.88-1.88v-28.909h20.603v4.522c0 0.157 0.127 0.284 0.284 0.284h4.521l0 24.103z"></path>
<path d="M6.314 3.234h9.303c0.157 0 0.284-0.127 0.284-0.284s-0.127-0.284-0.284-0.284h-9.303c-0.157 0-0.284 0.127-0.284 0.284s0.127 0.284 0.284 0.284z"></path>
<path d="M6.314 4.991h14.919c0.157 0 0.284-0.127 0.284-0.284s-0.127-0.284-0.284-0.284h-14.919c-0.157 0-0.284 0.127-0.284 0.284s0.127 0.284 0.284 0.284z"></path>
<path d="M6.030 6.568v9.199c0 0.157 0.127 0.284 0.284 0.284h21.172c0.157 0 0.284-0.127 0.284-0.284v-9.199c0-0.157-0.127-0.284-0.284-0.284h-21.172c-0.157 0-0.284 0.127-0.284 0.284zM12.308 6.852h14.893v2.445h-14.893v-2.445zM12.308 9.865h14.893v2.444h-14.893v-2.444zM12.308 12.877h14.893v2.605h-14.893v-2.605zM6.598 6.852h5.142v2.445h-5.142v-2.445zM6.598 9.865h5.142v2.444h-5.142v-2.444zM6.598 12.877h5.142v2.605h-5.142v-2.605z"></path>
<path d="M27.486 17.329h-21.172c-0.157 0-0.284 0.127-0.284 0.284v9.198c0 0.157 0.127 0.284 0.284 0.284s0.284-0.127 0.284-0.284v-2.889h5.142v2.889c0 0.157 0.127 0.284 0.284 0.284s0.284-0.127 0.284-0.284v-2.889h14.893v2.889c0 0.157 0.127 0.284 0.284 0.284s0.284-0.127 0.284-0.284v-9.198c0.001-0.157-0.126-0.284-0.283-0.284zM11.74 23.354h-5.142v-2.443h5.142v2.443zM11.74 20.342h-5.142v-2.444h5.142v2.444zM27.201 23.354h-14.893v-2.443h14.893v2.443zM27.201 20.342h-14.893v-2.444h14.893v2.444z"></path>
<path d="M2.281-0.021c-0.157 0-0.284 0.127-0.284 0.284v29.311c0 0.157 0.127 0.284 0.284 0.284s0.284-0.127 0.284-0.284v-29.311c0-0.157-0.127-0.284-0.284-0.284z"></path>
<path d="M0.718-0.021c-0.157 0-0.284 0.127-0.284 0.284v29.311c0 0.157 0.127 0.284 0.284 0.284s0.284-0.127 0.284-0.284v-29.311c0-0.157-0.127-0.284-0.284-0.284z"></path>
</symbol>

<symbol id="icon-tel" viewBox="0 0 32 32">
<path fill="#ff6b09" style="fill: var(--color1, #ff6b09)" d="M4.657 0.002c-0.515 0.024-1.021 0.243-1.392 0.651l-2.595 2.852c0.004-0.008-0.010-0.007-0.084 0.097-0.039 0.054-0.070 0.113-0.090 0.176-1.056 3.364-0.348 7.064 1.376 10.584s4.475 6.888 7.633 9.651c3.158 2.764 6.721 4.926 10.119 5.999s6.692 1.058 9.133-0.713c0.026-0.020 0.051-0.041 0.075-0.065 0.064-0.064 0.066-0.072 0.056-0.062l0.010-0.012 2.582-2.84c0.742-0.816 0.682-2.098-0.134-2.84l-6.126-5.571c-0.816-0.742-2.098-0.683-2.84 0.133l-2.772 3.048c-2.25-0.652-4.173-1.756-6.023-3.439s-3.132-3.494-3.993-5.673l2.771-3.048c0.742-0.816 0.683-2.098-0.133-2.84l-6.126-5.571c-0.408-0.371-0.933-0.542-1.448-0.518l-0.001 0zM4.715 1.253c0.19-0.008 0.383 0.057 0.541 0.201l6.126 5.571c0.316 0.287 0.337 0.745 0.050 1.061l-3.063 3.366c-0.077 0.085-0.129 0.19-0.151 0.302s-0.013 0.229 0.027 0.337c0.93 2.537 2.429 4.618 4.493 6.495s4.275 3.174 6.889 3.859c0.111 0.029 0.228 0.027 0.339-0.005s0.21-0.095 0.287-0.18l3.064-3.367c0.287-0.315 0.744-0.336 1.060-0.049l6.127 5.571c0.316 0.287 0.336 0.744 0.049 1.060l-2.561 2.815c-2.003 1.438-4.826 1.519-7.986 0.521-3.173-1.002-6.617-3.076-9.666-5.744s-5.702-5.926-7.332-9.254c-1.614-3.294-2.199-6.624-1.312-9.559l2.502-2.75c0.143-0.158 0.33-0.242 0.52-0.251l0 0z"></path>
</symbol>

<symbol id="icon-vk" viewBox="0 0 32 32">
<path fill="#436eab" style="fill: var(--color5, #436eab)" d="M27.541 18.46c1.061 1.036 2.182 2.011 3.134 3.152 0.421 0.507 0.819 1.030 1.123 1.619 0.432 0.836 0.041 1.757-0.709 1.807l-4.662-0.002c-1.202 0.1-2.162-0.384-2.968-1.206-0.645-0.657-1.243-1.357-1.864-2.037-0.255-0.278-0.521-0.539-0.839-0.746-0.636-0.413-1.189-0.287-1.552 0.377-0.37 0.675-0.454 1.423-0.491 2.175-0.050 1.098-0.382 1.386-1.484 1.437-2.357 0.111-4.593-0.245-6.671-1.434-1.832-1.048-3.252-2.528-4.489-4.203-2.407-3.261-4.25-6.845-5.907-10.53-0.373-0.83-0.1-1.276 0.816-1.291 1.521-0.030 3.041-0.027 4.564-0.002 0.618 0.009 1.027 0.364 1.266 0.947 0.823 2.023 1.83 3.948 3.093 5.732 0.337 0.475 0.68 0.95 1.168 1.284 0.541 0.37 0.952 0.248 1.207-0.355 0.161-0.382 0.232-0.793 0.268-1.202 0.121-1.407 0.136-2.812-0.075-4.214-0.13-0.875-0.623-1.442-1.496-1.607-0.446-0.084-0.379-0.25-0.164-0.505 0.375-0.439 0.727-0.712 1.43-0.712h5.269c0.829 0.164 1.014 0.536 1.127 1.371l0.004 5.852c-0.009 0.323 0.161 1.282 0.743 1.496 0.466 0.152 0.773-0.22 1.052-0.516 1.261-1.339 2.162-2.921 2.966-4.559 0.357-0.72 0.664-1.469 0.961-2.216 0.22-0.555 0.566-0.828 1.191-0.816l5.071 0.005c0.15 0 0.302 0.002 0.448 0.027 0.855 0.146 1.089 0.513 0.825 1.348-0.416 1.309-1.225 2.4-2.016 3.496-0.846 1.17-1.75 2.3-2.589 3.477-0.77 1.075-0.709 1.617 0.248 2.55z"></path>
</symbol>

<symbol id="logo" viewBox="0 0 91 32">
<path fill="#111518" style="fill: var(--color2, #111518)" d="M13.608 4.836v12.942h-3.661v-5.047h-4.992v5.047h-3.661v-12.942h3.661v4.863h4.992v-4.863h3.661zM27.006 12.786c0 0.025-0.018 0.314-0.055 0.869h-7.285c0.148 0.518 0.431 0.918 0.851 1.202 0.431 0.271 0.968 0.407 1.609 0.407 0.481 0 0.894-0.068 1.239-0.203 0.357-0.136 0.715-0.357 1.072-0.666l1.849 1.923c-0.974 1.085-2.397 1.627-4.271 1.627-1.171 0-2.2-0.222-3.088-0.666s-1.578-1.060-2.071-1.849c-0.481-0.789-0.721-1.683-0.721-2.681 0-0.986 0.234-1.867 0.703-2.644 0.481-0.789 1.14-1.405 1.978-1.849s1.781-0.666 2.829-0.666c0.998 0 1.904 0.21 2.718 0.629 0.814 0.407 1.454 1.005 1.923 1.793 0.481 0.777 0.721 1.701 0.721 2.773zM21.663 10.086c-0.542 0-0.998 0.154-1.368 0.462-0.357 0.308-0.586 0.727-0.684 1.257h4.105c-0.099-0.53-0.333-0.949-0.703-1.257-0.357-0.308-0.807-0.462-1.35-0.462zM29.365 4.059h3.513v13.719h-3.513v-13.719zM35.901 4.059h3.513v13.719h-3.513v-13.719z"></path>
<path fill="#ff6b09" style="fill: var(--color1, #ff6b09)" d="M4.614 29.724h-1.849l-0.353 0.853h-0.944l1.775-3.982h0.91l1.781 3.982h-0.967l-0.353-0.853zM4.324 29.025l-0.631-1.525-0.631 1.525h1.263zM11.626 29.827v1.576h-0.853v-0.825h-2.81v0.825h-0.853l0.006-1.576h0.159c0.239-0.008 0.408-0.182 0.506-0.523s0.159-0.829 0.182-1.462l0.045-1.246h3.061v3.231h0.557zM8.776 27.927c-0.019 0.474-0.059 0.872-0.119 1.195-0.061 0.319-0.154 0.554-0.279 0.705h1.781v-2.48h-1.365l-0.017 0.58zM15.154 30.646c-0.406 0-0.774-0.087-1.104-0.262-0.326-0.178-0.584-0.423-0.774-0.734-0.186-0.315-0.279-0.669-0.279-1.064s0.093-0.747 0.279-1.058c0.19-0.315 0.448-0.559 0.774-0.734 0.33-0.178 0.7-0.267 1.109-0.267 0.345 0 0.656 0.061 0.933 0.182 0.281 0.121 0.516 0.296 0.705 0.523l-0.592 0.546c-0.269-0.311-0.603-0.466-1.001-0.466-0.246 0-0.466 0.055-0.66 0.165-0.193 0.106-0.345 0.256-0.455 0.449-0.106 0.193-0.159 0.413-0.159 0.66s0.053 0.466 0.159 0.66c0.11 0.193 0.262 0.345 0.455 0.455 0.193 0.106 0.413 0.159 0.66 0.159 0.398 0 0.732-0.157 1.001-0.472l0.592 0.546c-0.19 0.231-0.425 0.408-0.705 0.529s-0.594 0.182-0.939 0.182zM19.964 28.974h-0.637v1.604h-0.916v-3.982h0.916v1.61h0.66l1.047-1.61h0.973l-1.303 1.923 1.343 2.059h-1.047l-1.035-1.604zM23.502 26.596h0.916v2.594l1.9-2.594h0.865v3.982h-0.91v-2.588l-1.9 2.588h-0.87v-3.982zM29.198 26.596h0.916v2.594l1.9-2.594h0.865v3.982h-0.91v-2.588l-1.9 2.588h-0.87v-3.982zM31.036 26.34c-0.728 0-1.096-0.29-1.104-0.87h0.631c0.008 0.277 0.165 0.415 0.472 0.415 0.152 0 0.267-0.034 0.347-0.102 0.080-0.072 0.121-0.176 0.125-0.313h0.631c-0.004 0.284-0.097 0.501-0.279 0.649s-0.457 0.222-0.825 0.222z"></path>
<path fill="#111518" style="fill: var(--color2, #111518)" d="M40.226 29.724h-1.849l-0.353 0.853h-0.944l1.775-3.982h0.91l1.781 3.982h-0.967l-0.353-0.853zM39.936 29.025l-0.631-1.525-0.631 1.525h1.263zM46.75 26.596v3.982h-0.922v-1.633h-1.809v1.633h-0.922v-3.982h0.922v1.57h1.809v-1.57h0.922zM51.577 27.346h-1.894l0.006 3.231h-0.916v-3.982h2.81l-0.006 0.751zM56.224 26.596v3.982h-0.91v-3.231h-1.365l-0.028 0.831c-0.019 0.565-0.065 1.024-0.137 1.377-0.072 0.349-0.193 0.618-0.364 0.808-0.167 0.186-0.402 0.279-0.705 0.279-0.125 0-0.277-0.021-0.455-0.063l0.057-0.779c0.049 0.015 0.104 0.023 0.165 0.023 0.22 0 0.374-0.129 0.461-0.387 0.087-0.262 0.142-0.669 0.165-1.223l0.057-1.616h3.061zM58.242 26.596h0.916v2.594l1.9-2.594h0.865v3.982h-0.91v-2.588l-1.9 2.588h-0.87v-3.982zM63.938 26.596h0.916v2.594l1.9-2.594h0.865v3.982h-0.91v-2.588l-1.9 2.588h-0.87v-3.982zM65.776 26.34c-0.728 0-1.096-0.29-1.104-0.87h0.631c0.008 0.277 0.165 0.415 0.472 0.415 0.152 0 0.267-0.034 0.347-0.102 0.080-0.072 0.121-0.176 0.125-0.313h0.631c-0.004 0.284-0.097 0.501-0.279 0.649s-0.457 0.222-0.825 0.222zM71.518 30.646c-0.406 0-0.774-0.087-1.104-0.262-0.326-0.178-0.584-0.423-0.774-0.734-0.186-0.315-0.279-0.669-0.279-1.064s0.093-0.747 0.279-1.058c0.19-0.315 0.448-0.559 0.774-0.734 0.33-0.178 0.7-0.267 1.109-0.267 0.345 0 0.656 0.061 0.933 0.182 0.28 0.121 0.516 0.296 0.705 0.523l-0.592 0.546c-0.269-0.311-0.603-0.466-1.001-0.466-0.247 0-0.467 0.055-0.66 0.165-0.193 0.106-0.345 0.256-0.455 0.449-0.106 0.193-0.159 0.413-0.159 0.66s0.053 0.466 0.159 0.66c0.11 0.193 0.262 0.345 0.455 0.455 0.193 0.106 0.413 0.159 0.66 0.159 0.398 0 0.732-0.157 1.001-0.472l0.592 0.546c-0.19 0.231-0.425 0.408-0.705 0.529s-0.594 0.182-0.939 0.182zM76.329 28.974h-0.637v1.604h-0.916v-3.982h0.916v1.61h0.66l1.047-1.61h0.973l-1.303 1.923 1.343 2.059h-1.047l-1.035-1.604zM79.866 26.596h0.916v2.594l1.9-2.594h0.865v3.982h-0.91v-2.588l-1.9 2.588h-0.87v-3.982zM85.562 26.596h0.916v2.594l1.9-2.594h0.865v3.982h-0.91v-2.588l-1.9 2.588h-0.87v-3.982zM87.4 26.34c-0.728 0-1.096-0.29-1.104-0.87h0.631c0.008 0.277 0.165 0.415 0.472 0.415 0.151 0 0.267-0.034 0.347-0.102 0.080-0.072 0.122-0.176 0.125-0.313h0.631c-0.004 0.284-0.097 0.501-0.279 0.649s-0.457 0.222-0.825 0.222z"></path>
<path fill="#111518" style="fill: var(--color2, #111518)" d="M74.263 14.949v2.829h-10.391v-12.942h10.15v2.829h-6.527v2.182h5.75v2.736h-5.75v2.367h6.767zM89.348 4.836v12.942h-3.014l-5.713-6.896v6.896h-3.587v-12.942h3.014l5.713 6.896v-6.896h3.587z"></path>
<path fill="#ff6b09" style="fill: var(--color1, #ff6b09)" d="M58.695 11.062c-0.189-0.423-0.45-0.84-0.831-1.322-0.962-1.209-1.255-3.905-1.258-3.931-0.013-0.129-0.104-0.236-0.225-0.275-0.124-0.039-0.258-0.003-0.346 0.094-1.147 1.283-0.665 3.265-0.404 4.057 0.072 0.217 0.15 0.472 0.205 0.731 0.424 2.091-0.394 3.038-0.587 3.229-0.186 0.052-0.313 0.026-0.43-0.1-0.404-0.443-0.538-1.894-0.349-3.785 0.039-0.385 0.029-0.731-0.026-1.054-0.399-2.324-1.86-3.815-2.233-4.338-1.023-1.513-1.128-4.031-1.131-4.053-0.003-0.12-0.072-0.226-0.179-0.278-0.104-0.052-0.231-0.045-0.329 0.023-1.708 1.16-1.561 3.956-1.323 5.518 0.055 0.362 0.163 0.731 0.349 1.196 0.662 1.665-0.13 3.814-0.137 3.834s-0.013 0.036-0.016 0.055c-0.101 0.53-0.27 0.847-0.46 0.847-0.020 0-0.039-0.003-0.062-0.010-0.231-0.048-0.352-0.294-0.355-0.507-0.013-2.757-2.78-3.685-2.81-3.694-0.124-0.039-0.261-0.003-0.345 0.097-0.088 0.1-0.104 0.239-0.046 0.356 0.033 0.068 0.137 0.365 0.065 1.416-0.062 0.944-0.235 1.878-0.512 2.773-0.658 2.146-0.554 4.179-0.548 4.276 0.506 5.505 8.423 6.469 13.122 3.368 0.515-0.339 0.935-0.727 1.245-1.154 1.734-2.392 0.714-5.64-0.046-7.366zM46.652 16.321c0.010 0.178-0.127 0.33-0.306 0.339h-0.020c-0.173 0-0.316-0.132-0.326-0.304-0.029-0.472-0.023-0.966 0.013-1.503 0.013-0.178 0.169-0.31 0.349-0.301 0.179 0.013 0.316 0.168 0.303 0.346-0.036 0.511-0.042 0.976-0.013 1.422zM46.811 13.457c-0.020 0.165-0.16 0.284-0.323 0.284-0.013 0-0.026 0-0.042-0.003-0.176-0.023-0.303-0.181-0.284-0.359l0.156-1.248c0.023-0.175 0.182-0.301 0.365-0.281 0.179 0.023 0.306 0.184 0.284 0.362l-0.156 1.244z"></path>
<path fill="#ff6b09" style="fill: var(--color1, #ff6b09)" d="M56.49 4.422c-0.178-0.027-0.3-0.192-0.272-0.368 0.020-0.131 0.138-0.804 0.458-1.142 0.123-0.13 0.329-0.137 0.461-0.015s0.138 0.327 0.015 0.457c-0.135 0.143-0.25 0.553-0.289 0.798-0.027 0.174-0.191 0.297-0.372 0.27z"></path>
<path fill="#ff6b09" style="fill: var(--color1, #ff6b09)" d="M44.608 6.032c-0.062-0.24-0.217-0.637-0.366-0.766-0.135-0.118-0.149-0.322-0.030-0.456s0.324-0.148 0.46-0.030c0.351 0.305 0.535 0.963 0.568 1.092 0.045 0.173-0.060 0.349-0.235 0.393-0.178 0.044-0.352-0.063-0.397-0.232z"></path>
</symbol>

<symbol id="logo--mobile" viewBox="0 0 88 32">
<path fill="#111518" style="fill: var(--color2, #111518)" d="M12.345 4.848v12.975h-3.67v-5.060h-5.005v5.060h-3.67v-12.975h3.67v4.875h5.005v-4.875h3.67z"></path>
<path fill="#111518" style="fill: var(--color2, #111518)" d="M25.777 12.818c0 0.025-0.019 0.315-0.056 0.871h-7.303c0.148 0.519 0.433 0.921 0.853 1.205 0.433 0.272 0.97 0.408 1.613 0.408 0.482 0 0.896-0.068 1.242-0.204 0.358-0.136 0.717-0.358 1.075-0.667l1.854 1.928c-0.976 1.087-2.403 1.631-4.282 1.631-1.174 0-2.206-0.222-3.096-0.667s-1.582-1.063-2.076-1.854c-0.482-0.791-0.723-1.687-0.723-2.688 0-0.989 0.235-1.872 0.704-2.651 0.482-0.791 1.143-1.409 1.983-1.854s1.786-0.667 2.836-0.667c1.001 0 1.909 0.21 2.725 0.63 0.816 0.408 1.458 1.007 1.928 1.798 0.482 0.778 0.723 1.705 0.723 2.78zM20.42 10.112c-0.544 0-1.001 0.154-1.372 0.463-0.358 0.309-0.587 0.729-0.686 1.26h4.115c-0.099-0.531-0.334-0.951-0.704-1.26-0.358-0.309-0.809-0.463-1.353-0.463z"></path>
<path fill="#111518" style="fill: var(--color2, #111518)" d="M28.142 4.069h3.522v13.753h-3.522v-13.753z"></path>
<path fill="#111518" style="fill: var(--color2, #111518)" d="M34.694 4.069h3.522v13.753h-3.522v-13.753z"></path>
<path fill="#111518" style="fill: var(--color2, #111518)" d="M3.328 29.8h-1.854l-0.354 0.855h-0.947l1.779-3.992h0.913l1.785 3.992h-0.97l-0.354-0.855zM3.037 29.098l-0.633-1.528-0.633 1.528h1.266z"></path>
<path fill="#111518" style="fill: var(--color2, #111518)" d="M10.358 29.902v1.58h-0.855v-0.827h-2.817v0.827h-0.856l0.006-1.58h0.16c0.24-0.008 0.409-0.183 0.508-0.525s0.16-0.831 0.183-1.466l0.046-1.249h3.068v3.239h0.559zM7.501 27.997c-0.019 0.475-0.059 0.874-0.12 1.198-0.061 0.319-0.154 0.555-0.279 0.707h1.785v-2.487h-1.369l-0.017 0.582z"></path>
<path fill="#111518" style="fill: var(--color2, #111518)" d="M13.895 30.724c-0.407 0-0.776-0.087-1.106-0.262-0.327-0.179-0.585-0.424-0.776-0.736-0.186-0.316-0.28-0.671-0.28-1.066s0.093-0.749 0.28-1.061c0.19-0.316 0.449-0.561 0.776-0.736 0.331-0.179 0.702-0.268 1.112-0.268 0.346 0 0.658 0.061 0.935 0.183 0.281 0.122 0.517 0.297 0.707 0.525l-0.593 0.548c-0.27-0.312-0.604-0.468-1.004-0.468-0.247 0-0.468 0.055-0.662 0.165-0.194 0.106-0.346 0.257-0.456 0.451-0.106 0.194-0.16 0.414-0.16 0.662s0.053 0.468 0.16 0.662c0.11 0.194 0.262 0.346 0.456 0.456 0.194 0.106 0.414 0.16 0.662 0.16 0.399 0 0.734-0.158 1.004-0.473l0.593 0.548c-0.19 0.232-0.426 0.409-0.707 0.53s-0.595 0.183-0.941 0.183z"></path>
<path fill="#111518" style="fill: var(--color2, #111518)" d="M18.717 29.047h-0.639v1.608h-0.918v-3.992h0.918v1.614h0.662l1.049-1.614h0.975l-1.306 1.928 1.346 2.065h-1.049l-1.038-1.608z"></path>
<path fill="#111518" style="fill: var(--color2, #111518)" d="M22.264 26.663h0.918v2.601l1.905-2.601h0.867v3.992h-0.913v-2.595l-1.905 2.595h-0.873v-3.992z"></path>
<path fill="#111518" style="fill: var(--color2, #111518)" d="M27.975 26.663h0.918v2.601l1.905-2.601h0.867v3.992h-0.913v-2.595l-1.905 2.595h-0.873v-3.992zM29.817 26.406c-0.73 0-1.099-0.291-1.106-0.873h0.633c0.008 0.278 0.165 0.416 0.473 0.416 0.152 0 0.268-0.034 0.348-0.103 0.080-0.072 0.122-0.177 0.126-0.314h0.633c-0.004 0.285-0.097 0.502-0.279 0.65s-0.458 0.222-0.827 0.222z"></path>
<path fill="#111518" style="fill: var(--color2, #111518)" d="M39.031 29.8h-1.854l-0.354 0.855h-0.947l1.779-3.992h0.912l1.785 3.992h-0.969l-0.354-0.855zM38.74 29.098l-0.633-1.528-0.633 1.528h1.266z"></path>
<path fill="#111518" style="fill: var(--color2, #111518)" d="M45.571 26.663v3.992h-0.924v-1.637h-1.814v1.637h-0.924v-3.992h0.924v1.574h1.814v-1.574h0.924z"></path>
<path fill="#111518" style="fill: var(--color2, #111518)" d="M50.41 27.416h-1.899l0.006 3.239h-0.918v-3.992h2.817l-0.006 0.753z"></path>
<path fill="#111518" style="fill: var(--color2, #111518)" d="M55.069 26.663v3.992h-0.913v-3.239h-1.369l-0.028 0.833c-0.019 0.567-0.065 1.027-0.137 1.38-0.072 0.35-0.194 0.62-0.365 0.81-0.167 0.186-0.403 0.279-0.707 0.279-0.125 0-0.278-0.021-0.456-0.063l0.057-0.781c0.049 0.015 0.105 0.023 0.165 0.023 0.221 0 0.374-0.129 0.462-0.388 0.087-0.262 0.143-0.671 0.165-1.226l0.057-1.62h3.068z"></path>
<path fill="#111518" style="fill: var(--color2, #111518)" d="M57.092 26.663h0.918v2.601l1.905-2.601h0.867v3.992h-0.913v-2.595l-1.905 2.595h-0.873v-3.992z"></path>
<path fill="#111518" style="fill: var(--color2, #111518)" d="M62.803 26.663h0.918v2.601l1.905-2.601h0.867v3.992h-0.913v-2.595l-1.905 2.595h-0.873v-3.992zM64.645 26.406c-0.73 0-1.099-0.291-1.107-0.873h0.633c0.007 0.278 0.165 0.416 0.473 0.416 0.152 0 0.268-0.034 0.348-0.103 0.080-0.072 0.122-0.177 0.125-0.314h0.633c-0.004 0.285-0.097 0.502-0.279 0.65s-0.458 0.222-0.827 0.222z"></path>
<path fill="#111518" style="fill: var(--color2, #111518)" d="M70.401 30.724c-0.407 0-0.776-0.087-1.106-0.262-0.327-0.179-0.586-0.424-0.776-0.736-0.186-0.316-0.279-0.671-0.279-1.066s0.093-0.749 0.279-1.061c0.19-0.316 0.449-0.561 0.776-0.736 0.331-0.179 0.701-0.268 1.112-0.268 0.346 0 0.658 0.061 0.935 0.183 0.281 0.122 0.517 0.297 0.707 0.525l-0.593 0.548c-0.27-0.312-0.605-0.468-1.004-0.468-0.247 0-0.468 0.055-0.662 0.165-0.194 0.106-0.346 0.257-0.456 0.451-0.106 0.194-0.16 0.414-0.16 0.662s0.053 0.468 0.16 0.662c0.11 0.194 0.262 0.346 0.456 0.456 0.194 0.106 0.414 0.16 0.662 0.16 0.399 0 0.734-0.158 1.004-0.473l0.593 0.548c-0.19 0.232-0.426 0.409-0.707 0.53s-0.595 0.183-0.941 0.183z"></path>
<path fill="#111518" style="fill: var(--color2, #111518)" d="M75.224 29.047h-0.639v1.608h-0.918v-3.992h0.918v1.614h0.662l1.049-1.614h0.975l-1.306 1.928 1.346 2.065h-1.049l-1.038-1.608z"></path>
<path fill="#111518" style="fill: var(--color2, #111518)" d="M78.771 26.663h0.918v2.601l1.905-2.601h0.867v3.992h-0.913v-2.595l-1.905 2.595h-0.873v-3.992z"></path>
<path fill="#111518" style="fill: var(--color2, #111518)" d="M84.481 26.663h0.918v2.601l1.905-2.601h0.867v3.992h-0.913v-2.595l-1.905 2.595h-0.873v-3.992zM86.324 26.406c-0.73 0-1.099-0.291-1.106-0.873h0.633c0.008 0.278 0.165 0.416 0.473 0.416 0.152 0 0.268-0.034 0.348-0.103 0.080-0.072 0.122-0.177 0.125-0.314h0.633c-0.004 0.285-0.097 0.502-0.279 0.65s-0.458 0.222-0.827 0.222z"></path>
<path fill="#111518" style="fill: var(--color2, #111518)" d="M73.153 14.987v2.836h-10.417v-12.975h10.176v2.836h-6.543v2.187h5.765v2.743h-5.765v2.373h6.784z"></path>
<path fill="#111518" style="fill: var(--color2, #111518)" d="M88.276 4.848v12.975h-3.021l-5.728-6.914v6.914h-3.596v-12.975h3.021l5.728 6.914v-6.914h3.596z"></path>
<path fill="#ff6b09" style="fill: var(--color1, #ff6b09)" d="M57.546 11.090c-0.189-0.424-0.451-0.842-0.833-1.325-0.964-1.212-1.258-3.915-1.261-3.94-0.013-0.13-0.105-0.237-0.225-0.275-0.124-0.039-0.258-0.003-0.346 0.094-1.15 1.286-0.667 3.273-0.405 4.067 0.072 0.217 0.15 0.473 0.206 0.732 0.425 2.097-0.395 3.046-0.588 3.237-0.186 0.052-0.314 0.026-0.431-0.101-0.405-0.444-0.539-1.899-0.35-3.795 0.039-0.386 0.029-0.732-0.026-1.056-0.4-2.33-1.865-3.825-2.238-4.349-1.026-1.517-1.131-4.041-1.134-4.064-0.003-0.12-0.072-0.227-0.18-0.279-0.105-0.052-0.232-0.045-0.33 0.023-1.712 1.163-1.565 3.966-1.327 5.532 0.056 0.363 0.163 0.732 0.35 1.199 0.663 1.669-0.131 3.824-0.137 3.843s-0.013 0.036-0.016 0.055c-0.101 0.531-0.271 0.849-0.461 0.849-0.020 0-0.039-0.003-0.062-0.010-0.232-0.049-0.353-0.295-0.356-0.509-0.013-2.764-2.787-3.694-2.817-3.704-0.124-0.039-0.261-0.003-0.346 0.097-0.088 0.1-0.105 0.24-0.046 0.356 0.033 0.068 0.137 0.366 0.065 1.419-0.062 0.946-0.235 1.883-0.513 2.78-0.66 2.152-0.555 4.19-0.549 4.287 0.507 5.519 8.444 6.486 13.155 3.377 0.516-0.34 0.938-0.729 1.248-1.157 1.738-2.398 0.716-5.655-0.046-7.385zM45.472 16.362c0.010 0.178-0.127 0.33-0.307 0.34h-0.020c-0.173 0-0.317-0.133-0.327-0.305-0.029-0.473-0.023-0.969 0.013-1.507 0.013-0.178 0.17-0.311 0.35-0.301 0.18 0.013 0.317 0.168 0.304 0.347-0.036 0.512-0.042 0.979-0.013 1.426zM45.632 13.491c-0.020 0.165-0.16 0.285-0.323 0.285-0.013 0-0.026 0-0.042-0.003-0.176-0.023-0.304-0.181-0.284-0.36l0.157-1.251c0.023-0.175 0.183-0.301 0.366-0.282 0.18 0.023 0.307 0.185 0.284 0.363l-0.157 1.248z"></path>
<path fill="#ff6b09" style="fill: var(--color1, #ff6b09)" d="M55.335 4.433c-0.178-0.027-0.3-0.193-0.273-0.369 0.020-0.132 0.138-0.806 0.459-1.145 0.123-0.131 0.33-0.138 0.462-0.015s0.138 0.327 0.015 0.458c-0.136 0.144-0.251 0.554-0.29 0.8-0.028 0.175-0.192 0.298-0.373 0.271z"></path>
<path fill="#ff6b09" style="fill: var(--color1, #ff6b09)" d="M43.423 6.048c-0.063-0.241-0.218-0.638-0.367-0.768-0.136-0.118-0.149-0.323-0.030-0.457s0.325-0.149 0.461-0.030c0.352 0.306 0.536 0.966 0.569 1.094 0.045 0.173-0.061 0.35-0.235 0.394-0.178 0.045-0.353-0.063-0.398-0.233z"></path>
</symbol>

<symbol id="logo--mobile-menu" viewBox="0 0 88 32">
<path fill="#fff" style="fill: var(--color3, #fff)" d="M12.345 4.848v12.975h-3.67v-5.060h-5.005v5.060h-3.67v-12.975h3.67v4.875h5.005v-4.875h3.67z"></path>
<path fill="#fff" style="fill: var(--color3, #fff)" d="M25.777 12.818c0 0.025-0.019 0.315-0.056 0.871h-7.303c0.148 0.519 0.433 0.921 0.853 1.205 0.433 0.272 0.97 0.408 1.613 0.408 0.482 0 0.896-0.068 1.242-0.204 0.358-0.136 0.717-0.358 1.075-0.667l1.854 1.928c-0.976 1.087-2.403 1.631-4.282 1.631-1.174 0-2.206-0.222-3.096-0.667s-1.582-1.063-2.076-1.854c-0.482-0.791-0.723-1.687-0.723-2.688 0-0.989 0.235-1.872 0.704-2.651 0.482-0.791 1.143-1.409 1.983-1.854s1.786-0.667 2.836-0.667c1.001 0 1.909 0.21 2.725 0.63 0.816 0.408 1.458 1.007 1.928 1.798 0.482 0.778 0.723 1.705 0.723 2.78zM20.42 10.112c-0.544 0-1.001 0.154-1.372 0.463-0.358 0.309-0.587 0.729-0.686 1.26h4.115c-0.099-0.531-0.334-0.951-0.704-1.26-0.358-0.309-0.809-0.463-1.353-0.463z"></path>
<path fill="#fff" style="fill: var(--color3, #fff)" d="M28.142 4.069h3.522v13.753h-3.522v-13.753z"></path>
<path fill="#fff" style="fill: var(--color3, #fff)" d="M34.694 4.069h3.522v13.753h-3.522v-13.753z"></path>
<path fill="#fff" style="fill: var(--color3, #fff)" d="M3.328 29.8h-1.854l-0.354 0.855h-0.947l1.779-3.992h0.913l1.785 3.992h-0.97l-0.354-0.855zM3.037 29.098l-0.633-1.528-0.633 1.528h1.266z"></path>
<path fill="#fff" style="fill: var(--color3, #fff)" d="M10.358 29.902v1.58h-0.855v-0.827h-2.817v0.827h-0.856l0.006-1.58h0.16c0.24-0.008 0.409-0.183 0.508-0.525s0.16-0.831 0.183-1.466l0.046-1.249h3.068v3.239h0.559zM7.501 27.997c-0.019 0.475-0.059 0.874-0.12 1.198-0.061 0.319-0.154 0.555-0.279 0.707h1.785v-2.487h-1.369l-0.017 0.582z"></path>
<path fill="#fff" style="fill: var(--color3, #fff)" d="M13.895 30.724c-0.407 0-0.776-0.087-1.106-0.262-0.327-0.179-0.585-0.424-0.776-0.736-0.186-0.316-0.28-0.671-0.28-1.066s0.093-0.749 0.28-1.061c0.19-0.316 0.449-0.561 0.776-0.736 0.331-0.179 0.702-0.268 1.112-0.268 0.346 0 0.658 0.061 0.935 0.183 0.281 0.122 0.517 0.297 0.707 0.525l-0.593 0.548c-0.27-0.312-0.604-0.468-1.004-0.468-0.247 0-0.468 0.055-0.662 0.165-0.194 0.106-0.346 0.257-0.456 0.451-0.106 0.194-0.16 0.414-0.16 0.662s0.053 0.468 0.16 0.662c0.11 0.194 0.262 0.346 0.456 0.456 0.194 0.106 0.414 0.16 0.662 0.16 0.399 0 0.734-0.158 1.004-0.473l0.593 0.548c-0.19 0.232-0.426 0.409-0.707 0.53s-0.595 0.183-0.941 0.183z"></path>
<path fill="#fff" style="fill: var(--color3, #fff)" d="M18.717 29.047h-0.639v1.608h-0.918v-3.992h0.918v1.614h0.662l1.049-1.614h0.975l-1.306 1.928 1.346 2.065h-1.049l-1.038-1.608z"></path>
<path fill="#fff" style="fill: var(--color3, #fff)" d="M22.264 26.663h0.918v2.601l1.905-2.601h0.867v3.992h-0.913v-2.595l-1.905 2.595h-0.873v-3.992z"></path>
<path fill="#fff" style="fill: var(--color3, #fff)" d="M27.975 26.663h0.918v2.601l1.905-2.601h0.867v3.992h-0.913v-2.595l-1.905 2.595h-0.873v-3.992zM29.817 26.406c-0.73 0-1.099-0.291-1.106-0.873h0.633c0.008 0.278 0.165 0.416 0.473 0.416 0.152 0 0.268-0.034 0.348-0.103 0.080-0.072 0.122-0.177 0.126-0.314h0.633c-0.004 0.285-0.097 0.502-0.279 0.65s-0.458 0.222-0.827 0.222z"></path>
<path fill="#fff" style="fill: var(--color3, #fff)" d="M39.031 29.8h-1.854l-0.354 0.855h-0.947l1.779-3.992h0.912l1.785 3.992h-0.969l-0.354-0.855zM38.74 29.098l-0.633-1.528-0.633 1.528h1.266z"></path>
<path fill="#fff" style="fill: var(--color3, #fff)" d="M45.571 26.663v3.992h-0.924v-1.637h-1.814v1.637h-0.924v-3.992h0.924v1.574h1.814v-1.574h0.924z"></path>
<path fill="#fff" style="fill: var(--color3, #fff)" d="M50.41 27.416h-1.899l0.006 3.239h-0.918v-3.992h2.817l-0.006 0.753z"></path>
<path fill="#fff" style="fill: var(--color3, #fff)" d="M55.069 26.663v3.992h-0.913v-3.239h-1.369l-0.028 0.833c-0.019 0.567-0.065 1.027-0.137 1.38-0.072 0.35-0.194 0.62-0.365 0.81-0.167 0.186-0.403 0.279-0.707 0.279-0.125 0-0.278-0.021-0.456-0.063l0.057-0.781c0.049 0.015 0.105 0.023 0.165 0.023 0.221 0 0.374-0.129 0.462-0.388 0.087-0.262 0.143-0.671 0.165-1.226l0.057-1.62h3.068z"></path>
<path fill="#fff" style="fill: var(--color3, #fff)" d="M57.092 26.663h0.918v2.601l1.905-2.601h0.867v3.992h-0.913v-2.595l-1.905 2.595h-0.873v-3.992z"></path>
<path fill="#fff" style="fill: var(--color3, #fff)" d="M62.803 26.663h0.918v2.601l1.905-2.601h0.867v3.992h-0.913v-2.595l-1.905 2.595h-0.873v-3.992zM64.645 26.406c-0.73 0-1.099-0.291-1.107-0.873h0.633c0.007 0.278 0.165 0.416 0.473 0.416 0.152 0 0.268-0.034 0.348-0.103 0.080-0.072 0.122-0.177 0.125-0.314h0.633c-0.004 0.285-0.097 0.502-0.279 0.65s-0.458 0.222-0.827 0.222z"></path>
<path fill="#fff" style="fill: var(--color3, #fff)" d="M70.401 30.724c-0.407 0-0.776-0.087-1.106-0.262-0.327-0.179-0.586-0.424-0.776-0.736-0.186-0.316-0.279-0.671-0.279-1.066s0.093-0.749 0.279-1.061c0.19-0.316 0.449-0.561 0.776-0.736 0.331-0.179 0.701-0.268 1.112-0.268 0.346 0 0.658 0.061 0.935 0.183 0.281 0.122 0.517 0.297 0.707 0.525l-0.593 0.548c-0.27-0.312-0.605-0.468-1.004-0.468-0.247 0-0.468 0.055-0.662 0.165-0.194 0.106-0.346 0.257-0.456 0.451-0.106 0.194-0.16 0.414-0.16 0.662s0.053 0.468 0.16 0.662c0.11 0.194 0.262 0.346 0.456 0.456 0.194 0.106 0.414 0.16 0.662 0.16 0.399 0 0.734-0.158 1.004-0.473l0.593 0.548c-0.19 0.232-0.426 0.409-0.707 0.53s-0.595 0.183-0.941 0.183z"></path>
<path fill="#fff" style="fill: var(--color3, #fff)" d="M75.224 29.047h-0.639v1.608h-0.918v-3.992h0.918v1.614h0.662l1.049-1.614h0.975l-1.306 1.928 1.346 2.065h-1.049l-1.038-1.608z"></path>
<path fill="#fff" style="fill: var(--color3, #fff)" d="M78.771 26.663h0.918v2.601l1.905-2.601h0.867v3.992h-0.913v-2.595l-1.905 2.595h-0.873v-3.992z"></path>
<path fill="#fff" style="fill: var(--color3, #fff)" d="M84.481 26.663h0.918v2.601l1.905-2.601h0.867v3.992h-0.913v-2.595l-1.905 2.595h-0.873v-3.992zM86.324 26.406c-0.73 0-1.099-0.291-1.106-0.873h0.633c0.008 0.278 0.165 0.416 0.473 0.416 0.152 0 0.268-0.034 0.348-0.103 0.080-0.072 0.122-0.177 0.125-0.314h0.633c-0.004 0.285-0.097 0.502-0.279 0.65s-0.458 0.222-0.827 0.222z"></path>
<path fill="#fff" style="fill: var(--color3, #fff)" d="M73.153 14.987v2.836h-10.417v-12.975h10.176v2.836h-6.543v2.187h5.765v2.743h-5.765v2.373h6.784z"></path>
<path fill="#fff" style="fill: var(--color3, #fff)" d="M88.276 4.848v12.975h-3.021l-5.728-6.914v6.914h-3.596v-12.975h3.021l5.728 6.914v-6.914h3.596z"></path>
<path fill="#ff6b09" style="fill: var(--color1, #ff6b09)" d="M57.546 11.090c-0.189-0.424-0.451-0.842-0.833-1.325-0.964-1.212-1.258-3.915-1.261-3.94-0.013-0.13-0.105-0.237-0.225-0.275-0.124-0.039-0.258-0.003-0.346 0.094-1.15 1.286-0.667 3.273-0.405 4.067 0.072 0.217 0.15 0.473 0.206 0.732 0.425 2.097-0.395 3.046-0.588 3.237-0.186 0.052-0.314 0.026-0.431-0.101-0.405-0.444-0.539-1.899-0.35-3.795 0.039-0.386 0.029-0.732-0.026-1.056-0.4-2.33-1.865-3.825-2.238-4.349-1.026-1.517-1.131-4.041-1.134-4.064-0.003-0.12-0.072-0.227-0.18-0.279-0.105-0.052-0.232-0.045-0.33 0.023-1.712 1.163-1.565 3.966-1.327 5.532 0.056 0.363 0.163 0.732 0.35 1.199 0.663 1.669-0.131 3.824-0.137 3.843s-0.013 0.036-0.016 0.055c-0.101 0.531-0.271 0.849-0.461 0.849-0.020 0-0.039-0.003-0.062-0.010-0.232-0.049-0.353-0.295-0.356-0.509-0.013-2.764-2.787-3.694-2.817-3.704-0.124-0.039-0.261-0.003-0.346 0.097-0.088 0.1-0.105 0.24-0.046 0.356 0.033 0.068 0.137 0.366 0.065 1.419-0.062 0.946-0.235 1.883-0.513 2.78-0.66 2.152-0.555 4.19-0.549 4.287 0.507 5.519 8.444 6.486 13.155 3.377 0.516-0.34 0.938-0.729 1.248-1.157 1.738-2.398 0.716-5.655-0.046-7.385zM45.472 16.362c0.010 0.178-0.127 0.33-0.307 0.34h-0.020c-0.173 0-0.317-0.133-0.327-0.305-0.029-0.473-0.023-0.969 0.013-1.507 0.013-0.178 0.17-0.311 0.35-0.301 0.18 0.013 0.317 0.168 0.304 0.347-0.036 0.512-0.042 0.979-0.013 1.426zM45.632 13.491c-0.020 0.165-0.16 0.285-0.323 0.285-0.013 0-0.026 0-0.042-0.003-0.176-0.023-0.304-0.181-0.284-0.36l0.157-1.251c0.023-0.175 0.183-0.301 0.366-0.282 0.18 0.023 0.307 0.185 0.284 0.363l-0.157 1.248z"></path>
<path fill="#ff6b09" style="fill: var(--color1, #ff6b09)" d="M55.335 4.433c-0.178-0.027-0.3-0.193-0.273-0.369 0.020-0.132 0.138-0.806 0.459-1.145 0.123-0.131 0.33-0.138 0.462-0.015s0.138 0.327 0.015 0.458c-0.136 0.144-0.251 0.554-0.29 0.8-0.028 0.175-0.192 0.298-0.373 0.271z"></path>
<path fill="#ff6b09" style="fill: var(--color1, #ff6b09)" d="M43.423 6.048c-0.063-0.241-0.218-0.638-0.367-0.768-0.136-0.118-0.149-0.323-0.030-0.457s0.325-0.149 0.461-0.030c0.352 0.306 0.536 0.966 0.569 1.094 0.045 0.173-0.061 0.35-0.235 0.394-0.178 0.045-0.353-0.063-0.398-0.233z"></path>
</symbol>

<symbol id="logo--tablet-menu" viewBox="0 0 91 32">
<path fill="#fff" style="fill: var(--color3, #fff)" d="M13.608 4.836v12.942h-3.661v-5.047h-4.992v5.047h-3.661v-12.942h3.661v4.863h4.992v-4.863h3.661zM27.006 12.786c0 0.025-0.018 0.314-0.055 0.869h-7.285c0.148 0.518 0.431 0.918 0.851 1.202 0.431 0.271 0.968 0.407 1.609 0.407 0.481 0 0.894-0.068 1.239-0.203 0.357-0.136 0.715-0.357 1.072-0.666l1.849 1.923c-0.974 1.085-2.397 1.627-4.271 1.627-1.171 0-2.2-0.222-3.088-0.666s-1.578-1.060-2.071-1.849c-0.481-0.789-0.721-1.683-0.721-2.681 0-0.986 0.234-1.867 0.703-2.644 0.481-0.789 1.14-1.405 1.978-1.849s1.781-0.666 2.829-0.666c0.998 0 1.904 0.21 2.718 0.629 0.814 0.407 1.454 1.005 1.923 1.793 0.481 0.777 0.721 1.701 0.721 2.773zM21.663 10.086c-0.542 0-0.998 0.154-1.368 0.462-0.357 0.308-0.586 0.727-0.684 1.257h4.105c-0.099-0.53-0.333-0.949-0.703-1.257-0.357-0.308-0.807-0.462-1.35-0.462zM29.365 4.059h3.513v13.719h-3.513v-13.719zM35.901 4.059h3.513v13.719h-3.513v-13.719z"></path>
<path fill="#ff6b09" style="fill: var(--color1, #ff6b09)" d="M4.614 29.724h-1.849l-0.353 0.853h-0.944l1.775-3.982h0.91l1.781 3.982h-0.967l-0.353-0.853zM4.324 29.025l-0.631-1.525-0.631 1.525h1.263zM11.626 29.827v1.576h-0.853v-0.825h-2.81v0.825h-0.853l0.006-1.576h0.159c0.239-0.008 0.408-0.182 0.506-0.523s0.159-0.829 0.182-1.462l0.045-1.246h3.061v3.231h0.557zM8.776 27.927c-0.019 0.474-0.059 0.872-0.119 1.195-0.061 0.319-0.154 0.554-0.279 0.705h1.781v-2.48h-1.365l-0.017 0.58zM15.154 30.646c-0.406 0-0.774-0.087-1.104-0.262-0.326-0.178-0.584-0.423-0.774-0.734-0.186-0.315-0.279-0.669-0.279-1.064s0.093-0.747 0.279-1.058c0.19-0.315 0.448-0.559 0.774-0.734 0.33-0.178 0.7-0.267 1.109-0.267 0.345 0 0.656 0.061 0.933 0.182 0.281 0.121 0.516 0.296 0.705 0.523l-0.592 0.546c-0.269-0.311-0.603-0.466-1.001-0.466-0.246 0-0.466 0.055-0.66 0.165-0.193 0.106-0.345 0.256-0.455 0.449-0.106 0.193-0.159 0.413-0.159 0.66s0.053 0.466 0.159 0.66c0.11 0.193 0.262 0.345 0.455 0.455 0.193 0.106 0.413 0.159 0.66 0.159 0.398 0 0.732-0.157 1.001-0.472l0.592 0.546c-0.19 0.231-0.425 0.408-0.705 0.529s-0.594 0.182-0.939 0.182zM19.964 28.974h-0.637v1.604h-0.916v-3.982h0.916v1.61h0.66l1.047-1.61h0.973l-1.303 1.923 1.343 2.059h-1.047l-1.035-1.604zM23.502 26.596h0.916v2.594l1.9-2.594h0.865v3.982h-0.91v-2.588l-1.9 2.588h-0.87v-3.982zM29.198 26.596h0.916v2.594l1.9-2.594h0.865v3.982h-0.91v-2.588l-1.9 2.588h-0.87v-3.982zM31.036 26.34c-0.728 0-1.096-0.29-1.104-0.87h0.631c0.008 0.277 0.165 0.415 0.472 0.415 0.152 0 0.267-0.034 0.347-0.102 0.080-0.072 0.121-0.176 0.125-0.313h0.631c-0.004 0.284-0.097 0.501-0.279 0.649s-0.457 0.222-0.825 0.222z"></path>
<path fill="#fff" style="fill: var(--color3, #fff)" d="M40.226 29.724h-1.849l-0.353 0.853h-0.944l1.775-3.982h0.91l1.781 3.982h-0.967l-0.353-0.853zM39.936 29.025l-0.631-1.525-0.631 1.525h1.263zM46.75 26.596v3.982h-0.922v-1.633h-1.809v1.633h-0.922v-3.982h0.922v1.57h1.809v-1.57h0.922zM51.577 27.346h-1.894l0.006 3.231h-0.916v-3.982h2.81l-0.006 0.751zM56.224 26.596v3.982h-0.91v-3.231h-1.365l-0.028 0.831c-0.019 0.565-0.065 1.024-0.137 1.377-0.072 0.349-0.193 0.618-0.364 0.808-0.167 0.186-0.402 0.279-0.705 0.279-0.125 0-0.277-0.021-0.455-0.063l0.057-0.779c0.049 0.015 0.104 0.023 0.165 0.023 0.22 0 0.374-0.129 0.461-0.387 0.087-0.262 0.142-0.669 0.165-1.223l0.057-1.616h3.061zM58.242 26.596h0.916v2.594l1.9-2.594h0.865v3.982h-0.91v-2.588l-1.9 2.588h-0.87v-3.982zM63.938 26.596h0.916v2.594l1.9-2.594h0.865v3.982h-0.91v-2.588l-1.9 2.588h-0.87v-3.982zM65.776 26.34c-0.728 0-1.096-0.29-1.104-0.87h0.631c0.008 0.277 0.165 0.415 0.472 0.415 0.152 0 0.267-0.034 0.347-0.102 0.080-0.072 0.121-0.176 0.125-0.313h0.631c-0.004 0.284-0.097 0.501-0.279 0.649s-0.457 0.222-0.825 0.222zM71.518 30.646c-0.406 0-0.774-0.087-1.104-0.262-0.326-0.178-0.584-0.423-0.774-0.734-0.186-0.315-0.279-0.669-0.279-1.064s0.093-0.747 0.279-1.058c0.19-0.315 0.448-0.559 0.774-0.734 0.33-0.178 0.7-0.267 1.109-0.267 0.345 0 0.656 0.061 0.933 0.182 0.28 0.121 0.516 0.296 0.705 0.523l-0.592 0.546c-0.269-0.311-0.603-0.466-1.001-0.466-0.247 0-0.467 0.055-0.66 0.165-0.193 0.106-0.345 0.256-0.455 0.449-0.106 0.193-0.159 0.413-0.159 0.66s0.053 0.466 0.159 0.66c0.11 0.193 0.262 0.345 0.455 0.455 0.193 0.106 0.413 0.159 0.66 0.159 0.398 0 0.732-0.157 1.001-0.472l0.592 0.546c-0.19 0.231-0.425 0.408-0.705 0.529s-0.594 0.182-0.939 0.182zM76.329 28.974h-0.637v1.604h-0.916v-3.982h0.916v1.61h0.66l1.047-1.61h0.973l-1.303 1.923 1.343 2.059h-1.047l-1.035-1.604zM79.866 26.596h0.916v2.594l1.9-2.594h0.865v3.982h-0.91v-2.588l-1.9 2.588h-0.87v-3.982zM85.562 26.596h0.916v2.594l1.9-2.594h0.865v3.982h-0.91v-2.588l-1.9 2.588h-0.87v-3.982zM87.4 26.34c-0.728 0-1.096-0.29-1.104-0.87h0.631c0.008 0.277 0.165 0.415 0.472 0.415 0.151 0 0.267-0.034 0.347-0.102 0.080-0.072 0.122-0.176 0.125-0.313h0.631c-0.004 0.284-0.097 0.501-0.279 0.649s-0.457 0.222-0.825 0.222z"></path>
<path fill="#fff" style="fill: var(--color3, #fff)" d="M74.263 14.949v2.829h-10.391v-12.942h10.15v2.829h-6.527v2.182h5.75v2.736h-5.75v2.367h6.767zM89.348 4.836v12.942h-3.014l-5.713-6.896v6.896h-3.587v-12.942h3.014l5.713 6.896v-6.896h3.587z"></path>
<path fill="#ff6b09" style="fill: var(--color1, #ff6b09)" d="M58.695 11.062c-0.189-0.423-0.45-0.84-0.831-1.322-0.962-1.209-1.255-3.905-1.258-3.931-0.013-0.129-0.104-0.236-0.225-0.275-0.124-0.039-0.257-0.003-0.345 0.094-1.147 1.283-0.665 3.265-0.404 4.057 0.072 0.217 0.15 0.472 0.205 0.731 0.424 2.091-0.394 3.038-0.587 3.229-0.186 0.052-0.313 0.026-0.43-0.1-0.404-0.443-0.538-1.894-0.349-3.785 0.039-0.385 0.029-0.731-0.026-1.054-0.399-2.324-1.86-3.815-2.233-4.338-1.023-1.513-1.128-4.031-1.131-4.053-0.003-0.12-0.072-0.226-0.179-0.278-0.104-0.052-0.231-0.045-0.329 0.023-1.708 1.16-1.561 3.956-1.323 5.518 0.055 0.362 0.163 0.731 0.349 1.196 0.662 1.665-0.13 3.814-0.137 3.834s-0.013 0.036-0.016 0.055c-0.101 0.53-0.27 0.847-0.46 0.847-0.020 0-0.039-0.003-0.062-0.010-0.231-0.048-0.352-0.294-0.355-0.507-0.013-2.757-2.78-3.685-2.81-3.694-0.124-0.039-0.261-0.003-0.345 0.097-0.088 0.1-0.104 0.239-0.046 0.356 0.033 0.068 0.137 0.365 0.065 1.416-0.062 0.944-0.235 1.878-0.512 2.773-0.658 2.146-0.554 4.179-0.548 4.276 0.506 5.505 8.423 6.469 13.122 3.368 0.515-0.339 0.935-0.727 1.245-1.154 1.734-2.392 0.714-5.64-0.046-7.366zM46.652 16.321c0.010 0.178-0.127 0.33-0.306 0.339h-0.020c-0.173 0-0.316-0.132-0.326-0.304-0.029-0.472-0.023-0.966 0.013-1.503 0.013-0.178 0.169-0.31 0.349-0.301 0.179 0.013 0.316 0.168 0.303 0.346-0.036 0.511-0.042 0.976-0.013 1.422zM46.811 13.457c-0.020 0.165-0.16 0.284-0.323 0.284-0.013 0-0.026 0-0.042-0.003-0.176-0.023-0.303-0.181-0.284-0.359l0.156-1.248c0.023-0.175 0.182-0.301 0.365-0.281 0.179 0.023 0.306 0.184 0.284 0.362l-0.156 1.244z"></path>
<path fill="#ff6b09" style="fill: var(--color1, #ff6b09)" d="M56.489 4.422c-0.178-0.027-0.3-0.192-0.272-0.368 0.020-0.131 0.138-0.804 0.458-1.142 0.123-0.13 0.329-0.137 0.461-0.015s0.138 0.327 0.015 0.457c-0.135 0.143-0.251 0.553-0.289 0.798-0.028 0.174-0.192 0.297-0.372 0.27z"></path>
<path fill="#ff6b09" style="fill: var(--color1, #ff6b09)" d="M44.608 6.032c-0.062-0.24-0.217-0.637-0.366-0.766-0.135-0.118-0.149-0.322-0.030-0.456s0.324-0.148 0.46-0.030c0.351 0.305 0.535 0.963 0.568 1.092 0.045 0.173-0.060 0.349-0.235 0.393-0.178 0.044-0.353-0.063-0.397-0.232z"></path>
</symbol>

<symbol id="fire" viewBox="0 0 22 30">
<path d="M20.5392 15.5558C20.2734 14.9604 19.9067 14.374 19.3705 13.6967C18.0184 11.9967 17.6059 8.20581 17.6013 8.16945C17.583 7.98763 17.4547 7.83763 17.2851 7.78309C17.1109 7.72854 16.923 7.77854 16.7992 7.9149C15.1859 9.71945 15.8642 12.5058 16.2309 13.6194C16.3317 13.924 16.4417 14.2831 16.5196 14.6467C17.1154 17.5876 15.965 18.9194 15.6946 19.1876C15.4334 19.2604 15.2546 19.224 15.0896 19.0467C14.5213 18.424 14.3334 16.3831 14.5992 13.724C14.6542 13.1831 14.6404 12.6967 14.5625 12.2422C14.0019 8.97386 11.9463 6.8774 11.4229 6.14218C9.98378 4.0149 9.83711 0.473994 9.83253 0.442176C9.82794 0.273994 9.73169 0.123994 9.58044 0.0512668C9.43378 -0.0214604 9.25503 -0.0123695 9.11753 0.083085C6.71586 1.7149 6.92211 5.64672 7.25669 7.84218C7.33461 8.35127 7.48586 8.86945 7.74711 9.524C8.67753 11.8649 7.56378 14.8876 7.55461 14.9149C7.54544 14.9422 7.53628 14.9649 7.53169 14.9922C7.38961 15.7376 7.15128 16.1831 6.88544 16.1831C6.85794 16.1831 6.83044 16.1785 6.79836 16.1694C6.47294 16.1013 6.30336 15.7558 6.29878 15.4558C6.28044 11.5785 2.38919 10.274 2.34794 10.2604C2.17378 10.2058 1.98128 10.2558 1.86211 10.3967C1.73836 10.5376 1.71544 10.7331 1.79794 10.8967C1.84378 10.9922 1.99044 11.4104 1.88961 12.8876C1.80253 14.2149 1.55961 15.5285 1.17003 16.7876C0.244194 19.8058 0.39086 22.6649 0.400027 22.8013C1.11196 30.5425 12.2451 31.899 18.8525 27.5376C19.5767 27.0604 20.1679 26.5149 20.6034 25.9149C23.0417 22.5513 21.6072 17.9831 20.5392 15.5558ZM3.60382 22.9513C3.61757 23.2013 3.42507 23.4149 3.17299 23.4285H3.14549C2.90257 23.4285 2.70091 23.2422 2.68716 23.0013C2.64591 22.3376 2.65507 21.6422 2.70549 20.8876C2.72382 20.6376 2.94382 20.4513 3.19591 20.4649C3.44799 20.483 3.64049 20.7012 3.62216 20.9512C3.57169 21.6695 3.56257 22.324 3.60382 22.9513ZM3.82836 18.924C3.80086 19.1558 3.60378 19.324 3.37461 19.324C3.35628 19.324 3.33794 19.324 3.31503 19.3195C3.06753 19.2876 2.88878 19.0649 2.91628 18.8149L3.13628 17.0604C3.16836 16.8149 3.39294 16.6376 3.64961 16.6649C3.90169 16.6967 4.08044 16.924 4.04836 17.174L3.82836 18.924Z"/>
<path d="M17.4384 6.21861C17.1884 6.1802 17.017 5.94851 17.0555 5.70061C17.0841 5.51592 17.2497 4.57047 17.6991 4.09506C17.8721 3.91174 18.1617 3.9022 18.347 4.07442C18.5316 4.24597 18.541 4.53365 18.3678 4.71697C18.1776 4.91829 18.0156 5.49442 17.9614 5.83915C17.9228 6.08442 17.6921 6.25656 17.4384 6.21861Z"/>
<path d="M0.72939 8.48281C0.641665 8.14476 0.423681 7.58726 0.214452 7.40526C0.0240147 7.23967 0.00499382 6.95249 0.171919 6.76385C0.338431 6.57476 0.627777 6.55544 0.818673 6.72167C1.31257 7.15113 1.57061 8.07599 1.61741 8.25685C1.68006 8.4999 1.53239 8.74713 1.28755 8.80972C1.0373 8.87213 0.791769 8.72181 0.72939 8.48281Z"/>
</symbol>

<symbol id="letters" viewBox="0 0 128 45">
<path d="M19.136 6.8V25H13.988V17.902H6.968V25H1.82V6.8H6.968V13.638H13.988V6.8H19.136ZM37.9773 17.98C37.9773 18.0147 37.9513 18.422 37.8993 19.202H27.6553C27.8633 19.93 28.2619 20.4933 28.8513 20.892C29.4579 21.2733 30.2119 21.464 31.1133 21.464C31.7893 21.464 32.3699 21.3687 32.8553 21.178C33.3579 20.9873 33.8606 20.6753 34.3633 20.242L36.9633 22.946C35.5939 24.4713 33.5919 25.234 30.9573 25.234C29.3106 25.234 27.8633 24.922 26.6153 24.298C25.3673 23.674 24.3966 22.8073 23.7033 21.698C23.0273 20.5887 22.6893 19.332 22.6893 17.928C22.6893 16.5413 23.0186 15.302 23.6773 14.21C24.3533 13.1007 25.2806 12.234 26.4593 11.61C27.6379 10.986 28.9639 10.674 30.4373 10.674C31.8413 10.674 33.1153 10.9687 34.2593 11.558C35.4033 12.13 36.3046 12.9707 36.9633 14.08C37.6393 15.172 37.9773 16.472 37.9773 17.98ZM30.4633 14.184C29.7006 14.184 29.0593 14.4007 28.5393 14.834C28.0366 15.2673 27.7159 15.8567 27.5773 16.602H33.3493C33.2106 15.8567 32.8813 15.2673 32.3613 14.834C31.8586 14.4007 31.2259 14.184 30.4633 14.184ZM41.2949 5.708H46.2349V25H41.2949V5.708ZM50.4853 5.708H55.4253V25H50.4853V5.708Z" fill="#111518"/>
<path d="M6.488 41.8H3.888L3.392 43H2.064L4.56 37.4H5.84L8.344 43H6.984L6.488 41.8ZM6.08 40.816L5.192 38.672L4.304 40.816H6.08ZM16.3495 41.944V44.16H15.1495V43H11.1975V44.16H9.9975L10.0055 41.944H10.2295C10.5655 41.9333 10.8028 41.688 10.9415 41.208C11.0802 40.728 11.1655 40.0427 11.1975 39.152L11.2615 37.4H15.5655V41.944H16.3495ZM12.3415 39.272C12.3148 39.9387 12.2588 40.4987 12.1735 40.952C12.0882 41.4 11.9575 41.7307 11.7815 41.944H14.2855V38.456H12.3655L12.3415 39.272ZM21.3099 43.096C20.7393 43.096 20.2219 42.9733 19.7579 42.728C19.2993 42.4773 18.9366 42.1333 18.6699 41.696C18.4086 41.2533 18.2779 40.7547 18.2779 40.2C18.2779 39.6453 18.4086 39.1493 18.6699 38.712C18.9366 38.2693 19.2993 37.9253 19.7579 37.68C20.2219 37.4293 20.7419 37.304 21.3179 37.304C21.8033 37.304 22.2406 37.3893 22.6299 37.56C23.0246 37.7307 23.3553 37.976 23.6219 38.296L22.7899 39.064C22.4113 38.6267 21.9419 38.408 21.3819 38.408C21.0353 38.408 20.7259 38.4853 20.4539 38.64C20.1819 38.7893 19.9686 39 19.8139 39.272C19.6646 39.544 19.5899 39.8533 19.5899 40.2C19.5899 40.5467 19.6646 40.856 19.8139 41.128C19.9686 41.4 20.1819 41.6133 20.4539 41.768C20.7259 41.9173 21.0353 41.992 21.3819 41.992C21.9419 41.992 22.4113 41.7707 22.7899 41.328L23.6219 42.096C23.3553 42.4213 23.0246 42.6693 22.6299 42.84C22.2353 43.0107 21.7953 43.096 21.3099 43.096ZM28.0746 40.744H27.1786V43H25.8906V37.4H27.1786V39.664H28.1066L29.5786 37.4H30.9466L29.1146 40.104L31.0026 43H29.5306L28.0746 40.744ZM33.0498 37.4H34.3378V41.048L37.0098 37.4H38.2258V43H36.9458V39.36L34.2738 43H33.0498V37.4ZM41.0601 37.4H42.3481V41.048L45.0201 37.4H46.2361V43H44.9561V39.36L42.2841 43H41.0601V37.4ZM43.6441 37.04C42.6201 37.04 42.1027 36.632 42.0921 35.816H42.9801C42.9907 36.2053 43.2121 36.4 43.6441 36.4C43.8574 36.4 44.0201 36.352 44.1321 36.256C44.2441 36.1547 44.3027 36.008 44.3081 35.816H45.1961C45.1907 36.216 45.0601 36.52 44.8041 36.728C44.5481 36.936 44.1614 37.04 43.6441 37.04Z" fill="#FF6B09"/>
<path d="M56.568 41.8H53.968L53.472 43H52.144L54.64 37.4H55.92L58.424 43H57.064L56.568 41.8ZM56.16 40.816L55.272 38.672L54.384 40.816H56.16ZM65.7426 37.4V43H64.4466V40.704H61.9026V43H60.6066V37.4H61.9026V39.608H64.4466V37.4H65.7426ZM72.5297 38.456H69.8657L69.8737 43H68.5857V37.4H72.5377L72.5297 38.456ZM79.0646 37.4V43H77.7846V38.456H75.8646L75.8246 39.624C75.7979 40.4187 75.7339 41.064 75.6326 41.56C75.5312 42.0507 75.3606 42.4293 75.1206 42.696C74.8859 42.9573 74.5552 43.088 74.1286 43.088C73.9526 43.088 73.7392 43.0587 73.4886 43L73.5686 41.904C73.6379 41.9253 73.7152 41.936 73.8006 41.936C74.1099 41.936 74.3259 41.7547 74.4486 41.392C74.5712 41.024 74.6486 40.4507 74.6806 39.672L74.7606 37.4H79.0646ZM81.9032 37.4H83.1912V41.048L85.8632 37.4H87.0792V43H85.7992V39.36L83.1272 43H81.9032V37.4ZM89.9135 37.4H91.2015V41.048L93.8735 37.4H95.0895V43H93.8095V39.36L91.1375 43H89.9135V37.4ZM92.4975 37.04C91.4735 37.04 90.9562 36.632 90.9455 35.816H91.8335C91.8442 36.2053 92.0655 36.4 92.4975 36.4C92.7108 36.4 92.8735 36.352 92.9855 36.256C93.0975 36.1547 93.1562 36.008 93.1615 35.816H94.0495C94.0442 36.216 93.9135 36.52 93.6575 36.728C93.4015 36.936 93.0148 37.04 92.4975 37.04ZM100.572 43.096C100.001 43.096 99.4838 42.9733 99.0198 42.728C98.5611 42.4773 98.1985 42.1333 97.9318 41.696C97.6705 41.2533 97.5398 40.7547 97.5398 40.2C97.5398 39.6453 97.6705 39.1493 97.9318 38.712C98.1985 38.2693 98.5611 37.9253 99.0198 37.68C99.4838 37.4293 100.004 37.304 100.58 37.304C101.065 37.304 101.502 37.3893 101.892 37.56C102.286 37.7307 102.617 37.976 102.884 38.296L102.052 39.064C101.673 38.6267 101.204 38.408 100.644 38.408C100.297 38.408 99.9878 38.4853 99.7158 38.64C99.4438 38.7893 99.2305 39 99.0758 39.272C98.9265 39.544 98.8518 39.8533 98.8518 40.2C98.8518 40.5467 98.9265 40.856 99.0758 41.128C99.2305 41.4 99.4438 41.6133 99.7158 41.768C99.9878 41.9173 100.297 41.992 100.644 41.992C101.204 41.992 101.673 41.7707 102.052 41.328L102.884 42.096C102.617 42.4213 102.286 42.6693 101.892 42.84C101.497 43.0107 101.057 43.096 100.572 43.096ZM107.337 40.744H106.441V43H105.153V37.4H106.441V39.664H107.369L108.841 37.4H110.209L108.377 40.104L110.265 43H108.793L107.337 40.744ZM112.312 37.4H113.6V41.048L116.272 37.4H117.488V43H116.208V39.36L113.536 43H112.312V37.4ZM120.322 37.4H121.61V41.048L124.282 37.4H125.498V43H124.218V39.36L121.546 43H120.322V37.4ZM122.906 37.04C121.882 37.04 121.365 36.632 121.354 35.816H122.242C122.253 36.2053 122.474 36.4 122.906 36.4C123.119 36.4 123.282 36.352 123.394 36.256C123.506 36.1547 123.565 36.008 123.57 35.816H124.458C124.453 36.216 124.322 36.52 124.066 36.728C123.81 36.936 123.423 37.04 122.906 37.04Z" fill="#111518"/>
<path d="M104.432 21.022V25H89.82V6.8H104.094V10.778H94.916V13.846H103.002V17.694H94.916V21.022H104.432ZM125.645 6.8V25H121.407L113.373 15.302V25H108.329V6.8H112.567L120.601 16.498V6.8H125.645Z" fill="#111518"/>
</symbol>

<symbol id="letters-tablet-menu" viewBox="0 0 128 45">
<path d="M19.136 6.8V25H13.988V17.902H6.968V25H1.82V6.8H6.968V13.638H13.988V6.8H19.136ZM37.9773 17.98C37.9773 18.0147 37.9513 18.422 37.8993 19.202H27.6553C27.8633 19.93 28.2619 20.4933 28.8513 20.892C29.4579 21.2733 30.2119 21.464 31.1133 21.464C31.7893 21.464 32.3699 21.3687 32.8553 21.178C33.3579 20.9873 33.8606 20.6753 34.3633 20.242L36.9633 22.946C35.5939 24.4713 33.5919 25.234 30.9573 25.234C29.3106 25.234 27.8633 24.922 26.6153 24.298C25.3673 23.674 24.3966 22.8073 23.7033 21.698C23.0273 20.5887 22.6893 19.332 22.6893 17.928C22.6893 16.5413 23.0186 15.302 23.6773 14.21C24.3533 13.1007 25.2806 12.234 26.4593 11.61C27.6379 10.986 28.9639 10.674 30.4373 10.674C31.8413 10.674 33.1153 10.9687 34.2593 11.558C35.4033 12.13 36.3046 12.9707 36.9633 14.08C37.6393 15.172 37.9773 16.472 37.9773 17.98ZM30.4633 14.184C29.7006 14.184 29.0593 14.4007 28.5393 14.834C28.0366 15.2673 27.7159 15.8567 27.5773 16.602H33.3493C33.2106 15.8567 32.8813 15.2673 32.3613 14.834C31.8586 14.4007 31.2259 14.184 30.4633 14.184ZM41.2949 5.708H46.2349V25H41.2949V5.708ZM50.4853 5.708H55.4253V25H50.4853V5.708Z" fill="white"/>
<path d="M6.488 41.8H3.888L3.392 43H2.064L4.56 37.4H5.84L8.344 43H6.984L6.488 41.8ZM6.08 40.816L5.192 38.672L4.304 40.816H6.08ZM16.3495 41.944V44.16H15.1495V43H11.1975V44.16H9.9975L10.0055 41.944H10.2295C10.5655 41.9333 10.8028 41.688 10.9415 41.208C11.0802 40.728 11.1655 40.0427 11.1975 39.152L11.2615 37.4H15.5655V41.944H16.3495ZM12.3415 39.272C12.3148 39.9387 12.2588 40.4987 12.1735 40.952C12.0882 41.4 11.9575 41.7307 11.7815 41.944H14.2855V38.456H12.3655L12.3415 39.272ZM21.3099 43.096C20.7393 43.096 20.2219 42.9733 19.7579 42.728C19.2993 42.4773 18.9366 42.1333 18.6699 41.696C18.4086 41.2533 18.2779 40.7547 18.2779 40.2C18.2779 39.6453 18.4086 39.1493 18.6699 38.712C18.9366 38.2693 19.2993 37.9253 19.7579 37.68C20.2219 37.4293 20.7419 37.304 21.3179 37.304C21.8033 37.304 22.2406 37.3893 22.6299 37.56C23.0246 37.7307 23.3553 37.976 23.6219 38.296L22.7899 39.064C22.4113 38.6267 21.9419 38.408 21.3819 38.408C21.0353 38.408 20.7259 38.4853 20.4539 38.64C20.1819 38.7893 19.9686 39 19.8139 39.272C19.6646 39.544 19.5899 39.8533 19.5899 40.2C19.5899 40.5467 19.6646 40.856 19.8139 41.128C19.9686 41.4 20.1819 41.6133 20.4539 41.768C20.7259 41.9173 21.0353 41.992 21.3819 41.992C21.9419 41.992 22.4113 41.7707 22.7899 41.328L23.6219 42.096C23.3553 42.4213 23.0246 42.6693 22.6299 42.84C22.2353 43.0107 21.7953 43.096 21.3099 43.096ZM28.0746 40.744H27.1786V43H25.8906V37.4H27.1786V39.664H28.1066L29.5786 37.4H30.9466L29.1146 40.104L31.0026 43H29.5306L28.0746 40.744ZM33.0498 37.4H34.3378V41.048L37.0098 37.4H38.2258V43H36.9458V39.36L34.2738 43H33.0498V37.4ZM41.0601 37.4H42.3481V41.048L45.0201 37.4H46.2361V43H44.9561V39.36L42.2841 43H41.0601V37.4ZM43.6441 37.04C42.6201 37.04 42.1027 36.632 42.0921 35.816H42.9801C42.9907 36.2053 43.2121 36.4 43.6441 36.4C43.8574 36.4 44.0201 36.352 44.1321 36.256C44.2441 36.1547 44.3027 36.008 44.3081 35.816H45.1961C45.1907 36.216 45.0601 36.52 44.8041 36.728C44.5481 36.936 44.1614 37.04 43.6441 37.04Z" fill="#FF6B09"/>
<path d="M56.568 41.8H53.968L53.472 43H52.144L54.64 37.4H55.92L58.424 43H57.064L56.568 41.8ZM56.16 40.816L55.272 38.672L54.384 40.816H56.16ZM65.7426 37.4V43H64.4466V40.704H61.9026V43H60.6066V37.4H61.9026V39.608H64.4466V37.4H65.7426ZM72.5297 38.456H69.8657L69.8737 43H68.5857V37.4H72.5377L72.5297 38.456ZM79.0646 37.4V43H77.7846V38.456H75.8646L75.8246 39.624C75.7979 40.4187 75.7339 41.064 75.6326 41.56C75.5312 42.0507 75.3606 42.4293 75.1206 42.696C74.8859 42.9573 74.5552 43.088 74.1286 43.088C73.9526 43.088 73.7392 43.0587 73.4886 43L73.5686 41.904C73.6379 41.9253 73.7152 41.936 73.8006 41.936C74.1099 41.936 74.3259 41.7547 74.4486 41.392C74.5712 41.024 74.6486 40.4507 74.6806 39.672L74.7606 37.4H79.0646ZM81.9032 37.4H83.1912V41.048L85.8632 37.4H87.0792V43H85.7992V39.36L83.1272 43H81.9032V37.4ZM89.9135 37.4H91.2015V41.048L93.8735 37.4H95.0895V43H93.8095V39.36L91.1375 43H89.9135V37.4ZM92.4975 37.04C91.4735 37.04 90.9562 36.632 90.9455 35.816H91.8335C91.8442 36.2053 92.0655 36.4 92.4975 36.4C92.7108 36.4 92.8735 36.352 92.9855 36.256C93.0975 36.1547 93.1562 36.008 93.1615 35.816H94.0495C94.0442 36.216 93.9135 36.52 93.6575 36.728C93.4015 36.936 93.0148 37.04 92.4975 37.04ZM100.572 43.096C100.001 43.096 99.4838 42.9733 99.0198 42.728C98.5611 42.4773 98.1985 42.1333 97.9318 41.696C97.6705 41.2533 97.5398 40.7547 97.5398 40.2C97.5398 39.6453 97.6705 39.1493 97.9318 38.712C98.1985 38.2693 98.5611 37.9253 99.0198 37.68C99.4838 37.4293 100.004 37.304 100.58 37.304C101.065 37.304 101.502 37.3893 101.892 37.56C102.286 37.7307 102.617 37.976 102.884 38.296L102.052 39.064C101.673 38.6267 101.204 38.408 100.644 38.408C100.297 38.408 99.9878 38.4853 99.7158 38.64C99.4438 38.7893 99.2305 39 99.0758 39.272C98.9265 39.544 98.8518 39.8533 98.8518 40.2C98.8518 40.5467 98.9265 40.856 99.0758 41.128C99.2305 41.4 99.4438 41.6133 99.7158 41.768C99.9878 41.9173 100.297 41.992 100.644 41.992C101.204 41.992 101.673 41.7707 102.052 41.328L102.884 42.096C102.617 42.4213 102.286 42.6693 101.892 42.84C101.497 43.0107 101.057 43.096 100.572 43.096ZM107.337 40.744H106.441V43H105.153V37.4H106.441V39.664H107.369L108.841 37.4H110.209L108.377 40.104L110.265 43H108.793L107.337 40.744ZM112.312 37.4H113.6V41.048L116.272 37.4H117.488V43H116.208V39.36L113.536 43H112.312V37.4ZM120.322 37.4H121.61V41.048L124.282 37.4H125.498V43H124.218V39.36L121.546 43H120.322V37.4ZM122.906 37.04C121.882 37.04 121.365 36.632 121.354 35.816H122.242C122.253 36.2053 122.474 36.4 122.906 36.4C123.119 36.4 123.282 36.352 123.394 36.256C123.506 36.1547 123.565 36.008 123.57 35.816H124.458C124.453 36.216 124.322 36.52 124.066 36.728C123.81 36.936 123.423 37.04 122.906 37.04Z" fill="white"/>
<path d="M104.432 21.022V25H89.82V6.8H104.094V10.778H94.916V13.846H103.002V17.694H94.916V21.022H104.432ZM125.645 6.8V25H121.407L113.373 15.302V25H108.329V6.8H112.567L120.601 16.498V6.8H125.645Z" fill="white"/>
</symbol>

<symbol id="letters-mobile" viewBox="0 0 80 26">
<path d="M11.1874 1.39338V13.1519H7.86144V8.56611H3.326V13.1519H0V1.39338H3.326V5.81124H7.86144V1.39338H11.1874Z" fill="#111518"/>
<path d="M23.3603 8.6165C23.3603 8.6389 23.3435 8.90207 23.3099 9.406H16.6915C16.8259 9.87635 17.0835 10.2403 17.4642 10.4979C17.8562 10.7442 18.3433 10.8674 18.9257 10.8674C19.3624 10.8674 19.7376 10.8058 20.0511 10.6826C20.3759 10.5595 20.7006 10.3579 21.0254 10.0779L22.7052 11.8249C21.8205 12.8104 20.5271 13.3031 18.8249 13.3031C17.761 13.3031 16.8259 13.1016 16.0196 12.6984C15.2133 12.2953 14.5862 11.7353 14.1382 11.0186C13.7015 10.3019 13.4831 9.49 13.4831 8.58291C13.4831 7.68701 13.6959 6.88631 14.1214 6.1808C14.5582 5.46408 15.1573 4.90415 15.9188 4.501C16.6803 4.09785 17.537 3.89628 18.4889 3.89628C19.396 3.89628 20.2191 4.08665 20.9582 4.46741C21.6973 4.83696 22.2796 5.3801 22.7052 6.09681C23.1419 6.80232 23.3603 7.64222 23.3603 8.6165ZM18.5057 6.164C18.013 6.164 17.5986 6.30398 17.2627 6.58395C16.9379 6.86391 16.7307 7.24467 16.6411 7.72621H20.3703C20.2807 7.24467 20.0679 6.86391 19.732 6.58395C19.4072 6.30398 18.9984 6.164 18.5057 6.164Z" fill="#111518"/>
<path d="M25.5038 0.687866H28.6954V13.1519H25.5038V0.687866Z" fill="#111518"/>
<path d="M31.4414 0.687866H34.6331V13.1519H31.4414V0.687866Z" fill="#111518"/>
<path d="M3.01595 24.0059H1.33616L1.0157 24.7812H0.157715L1.77032 21.1632H2.5973L4.21507 24.7812H3.3364L3.01595 24.0059ZM2.75235 23.3701L2.17864 21.985L1.60492 23.3701H2.75235Z" fill="#111518"/>
<path d="M9.38722 24.0989V25.5306H8.61193V24.7812H6.05864V25.5306H5.28335L5.28852 24.0989H5.43324C5.65032 24.092 5.80366 23.9335 5.89325 23.6234C5.98284 23.3133 6.03797 22.8705 6.05864 22.2951L6.09999 21.1632H8.8807V24.0989H9.38722ZM6.79775 22.3726C6.78052 22.8033 6.74434 23.1651 6.68921 23.458C6.63408 23.7475 6.54966 23.9611 6.43595 24.0989H8.05372V21.8454H6.81326L6.79775 22.3726Z" fill="#111518"/>
<path d="M12.592 24.8432C12.2233 24.8432 11.8891 24.7639 11.5893 24.6054C11.293 24.4435 11.0587 24.2212 10.8864 23.9387C10.7176 23.6527 10.6331 23.3305 10.6331 22.9722C10.6331 22.6138 10.7176 22.2934 10.8864 22.0108C11.0587 21.7248 11.293 21.5026 11.5893 21.3441C11.8891 21.1821 12.2251 21.1011 12.5972 21.1011C12.9108 21.1011 13.1933 21.1563 13.4449 21.2665C13.6998 21.3768 13.9135 21.5353 14.0858 21.742L13.5482 22.2382C13.3036 21.9557 13.0004 21.8144 12.6386 21.8144C12.4146 21.8144 12.2147 21.8644 12.039 21.9643C11.8633 22.0608 11.7254 22.1969 11.6255 22.3726C11.529 22.5483 11.4808 22.7482 11.4808 22.9722C11.4808 23.1961 11.529 23.396 11.6255 23.5717C11.7254 23.7475 11.8633 23.8853 12.039 23.9852C12.2147 24.0817 12.4146 24.1299 12.6386 24.1299C13.0004 24.1299 13.3036 23.9869 13.5482 23.7009L14.0858 24.1971C13.9135 24.4073 13.6998 24.5675 13.4449 24.6778C13.1899 24.7881 12.9056 24.8432 12.592 24.8432Z" fill="#111518"/>
<path d="M16.9625 23.3236H16.3837V24.7812H15.5515V21.1632H16.3837V22.6259H16.9832L17.9342 21.1632H18.8181L17.6345 22.9101L18.8542 24.7812H17.9032L16.9625 23.3236Z" fill="#111518"/>
<path d="M20.1768 21.1632H21.009V23.52L22.7353 21.1632H23.5209V24.7812H22.6939V22.4295L20.9676 24.7812H20.1768V21.1632Z" fill="#111518"/>
<path d="M25.3521 21.1632H26.1842V23.52L27.9106 21.1632H28.6962V24.7812H27.8692V22.4295L26.1429 24.7812H25.3521V21.1632ZM27.0216 20.9306C26.36 20.9306 26.0257 20.667 26.0189 20.1398H26.5926C26.5995 20.3913 26.7425 20.5171 27.0216 20.5171C27.1594 20.5171 27.2645 20.4861 27.3368 20.424C27.4092 20.3586 27.4471 20.2638 27.4506 20.1398H28.0243C28.0208 20.3982 27.9364 20.5946 27.771 20.729C27.6056 20.8634 27.3558 20.9306 27.0216 20.9306Z" fill="#111518"/>
<path d="M35.3714 24.0059H33.6916L33.3711 24.7812H32.5132L34.1258 21.1632H34.9527L36.5705 24.7812H35.6919L35.3714 24.0059ZM35.1078 23.3701L34.5341 21.985L33.9604 23.3701H35.1078Z" fill="#111518"/>
<path d="M41.2989 21.1632V24.7812H40.4616V23.2978H38.818V24.7812H37.9807V21.1632H38.818V22.5897H40.4616V21.1632H41.2989Z" fill="#111518"/>
<path d="M45.6838 21.8454H43.9627L43.9679 24.7812H43.1357V21.1632H45.689L45.6838 21.8454Z" fill="#111518"/>
<path d="M49.9059 21.1632V24.7812H49.0789V21.8454H47.8384L47.8126 22.6C47.7954 23.1134 47.754 23.5304 47.6885 23.8508C47.6231 24.1678 47.5128 24.4125 47.3577 24.5848C47.2061 24.7536 46.9925 24.838 46.7168 24.838C46.6031 24.838 46.4653 24.8191 46.3034 24.7812L46.355 24.0731C46.3998 24.0869 46.4498 24.0938 46.5049 24.0938C46.7048 24.0938 46.8443 23.9766 46.9236 23.7423C47.0028 23.5045 47.0528 23.1341 47.0735 22.631L47.1252 21.1632H49.9059Z" fill="#111518"/>
<path d="M51.7398 21.1632H52.572V23.52L54.2983 21.1632H55.0839V24.7812H54.2569V22.4295L52.5306 24.7812H51.7398V21.1632Z" fill="#111518"/>
<path d="M56.9151 21.1632H57.7472V23.52L59.4736 21.1632H60.2592V24.7812H59.4322V22.4295L57.7059 24.7812H56.9151V21.1632ZM58.5846 20.9306C57.923 20.9306 57.5887 20.667 57.5818 20.1398H58.1556C58.1624 20.3913 58.3054 20.5171 58.5846 20.5171C58.7224 20.5171 58.8275 20.4861 58.8998 20.424C58.9722 20.3586 59.0101 20.2638 59.0135 20.1398H59.5873C59.5838 20.3982 59.4994 20.5946 59.334 20.729C59.1686 20.8634 58.9188 20.9306 58.5846 20.9306Z" fill="#111518"/>
<path d="M63.8012 24.8432C63.4325 24.8432 63.0982 24.7639 62.7985 24.6054C62.5021 24.4435 62.2678 24.2212 62.0955 23.9387C61.9267 23.6527 61.8423 23.3305 61.8423 22.9722C61.8423 22.6138 61.9267 22.2934 62.0955 22.0108C62.2678 21.7248 62.5021 21.5026 62.7985 21.3441C63.0982 21.1821 63.4342 21.1011 63.8063 21.1011C64.1199 21.1011 64.4025 21.1563 64.654 21.2665C64.909 21.3768 65.1226 21.5353 65.2949 21.742L64.7574 22.2382C64.5127 21.9557 64.2095 21.8144 63.8477 21.8144C63.6237 21.8144 63.4239 21.8644 63.2481 21.9643C63.0724 22.0608 62.9346 22.1969 62.8346 22.3726C62.7382 22.5483 62.6899 22.7482 62.6899 22.9722C62.6899 23.1961 62.7382 23.396 62.8346 23.5717C62.9346 23.7475 63.0724 23.8853 63.2481 23.9852C63.4239 24.0817 63.6237 24.1299 63.8477 24.1299C64.2095 24.1299 64.5127 23.9869 64.7574 23.7009L65.2949 24.1971C65.1226 24.4073 64.909 24.5675 64.654 24.6778C64.399 24.7881 64.1147 24.8432 63.8012 24.8432Z" fill="#111518"/>
<path d="M68.1717 23.3236H67.5928V24.7812H66.7606V21.1632H67.5928V22.6259H68.1923L69.1434 21.1632H70.0272L68.8436 22.9101L70.0634 24.7812H69.1124L68.1717 23.3236Z" fill="#111518"/>
<path d="M71.386 21.1632H72.2181V23.52L73.9444 21.1632H74.7301V24.7812H73.9031V22.4295L72.1768 24.7812H71.386V21.1632Z" fill="#111518"/>
<path d="M76.5612 21.1632H77.3934V23.52L79.1197 21.1632H79.9053V24.7812H79.0783V22.4295L77.352 24.7812H76.5612V21.1632ZM78.2307 20.9306C77.5691 20.9306 77.2349 20.667 77.228 20.1398H77.8017C77.8086 20.3913 77.9516 20.5171 78.2307 20.5171C78.3685 20.5171 78.4736 20.4861 78.546 20.424C78.6183 20.3586 78.6562 20.2638 78.6597 20.1398H79.2334C79.23 20.3982 79.1455 20.5946 78.9801 20.729C78.8147 20.8634 78.5649 20.9306 78.2307 20.9306Z" fill="#111518"/>
<path d="M66.2949 10.5817V13.1518H56.8545V1.39319H66.0766V3.96328H60.1469V5.94543H65.3711V8.43153H60.1469V10.5817H66.2949Z" fill="#111518"/>
<path d="M80 1.39319V13.1518H77.2619L72.0713 6.88612V13.1518H68.8125V1.39319H71.5506L76.7412 7.65882V1.39319H80Z" fill="#111518"/>
</symbol>

<symbol id="letters-mobile-menu" viewBox="0 0 80 26">
<path d="M11.1874 1.39338V13.1519H7.86144V8.56611H3.326V13.1519H0V1.39338H3.326V5.81124H7.86144V1.39338H11.1874Z" fill="white"/>
<path d="M23.3603 8.6165C23.3603 8.6389 23.3435 8.90207 23.3099 9.406H16.6915C16.8259 9.87635 17.0835 10.2403 17.4642 10.4979C17.8562 10.7442 18.3433 10.8674 18.9257 10.8674C19.3624 10.8674 19.7376 10.8058 20.0511 10.6826C20.3759 10.5595 20.7006 10.3579 21.0254 10.0779L22.7052 11.8249C21.8205 12.8104 20.5271 13.3031 18.8249 13.3031C17.761 13.3031 16.8259 13.1016 16.0196 12.6984C15.2133 12.2953 14.5862 11.7353 14.1382 11.0186C13.7015 10.3019 13.4831 9.49 13.4831 8.58291C13.4831 7.68701 13.6959 6.88631 14.1214 6.1808C14.5582 5.46408 15.1573 4.90415 15.9188 4.501C16.6803 4.09785 17.537 3.89628 18.4889 3.89628C19.396 3.89628 20.2191 4.08665 20.9582 4.46741C21.6973 4.83696 22.2796 5.3801 22.7052 6.09681C23.1419 6.80232 23.3603 7.64222 23.3603 8.6165ZM18.5057 6.164C18.013 6.164 17.5986 6.30398 17.2627 6.58395C16.9379 6.86391 16.7307 7.24467 16.6411 7.72621H20.3703C20.2807 7.24467 20.0679 6.86391 19.732 6.58395C19.4072 6.30398 18.9984 6.164 18.5057 6.164Z" fill="white"/>
<path d="M25.5038 0.687866H28.6954V13.1519H25.5038V0.687866Z" fill="white"/>
<path d="M31.4414 0.687866H34.6331V13.1519H31.4414V0.687866Z" fill="white"/>
<path d="M3.01595 24.0059H1.33616L1.0157 24.7812H0.157715L1.77032 21.1632H2.5973L4.21507 24.7812H3.3364L3.01595 24.0059ZM2.75235 23.3701L2.17864 21.985L1.60492 23.3701H2.75235Z" fill="white"/>
<path d="M9.38722 24.0989V25.5306H8.61193V24.7812H6.05864V25.5306H5.28335L5.28852 24.0989H5.43324C5.65032 24.092 5.80366 23.9335 5.89325 23.6234C5.98284 23.3133 6.03797 22.8705 6.05864 22.2951L6.09999 21.1632H8.8807V24.0989H9.38722ZM6.79775 22.3726C6.78052 22.8033 6.74434 23.1651 6.68921 23.458C6.63408 23.7475 6.54966 23.9611 6.43595 24.0989H8.05372V21.8454H6.81326L6.79775 22.3726Z" fill="white"/>
<path d="M12.592 24.8432C12.2233 24.8432 11.8891 24.7639 11.5893 24.6054C11.293 24.4435 11.0587 24.2212 10.8864 23.9387C10.7176 23.6527 10.6331 23.3305 10.6331 22.9722C10.6331 22.6138 10.7176 22.2934 10.8864 22.0108C11.0587 21.7248 11.293 21.5026 11.5893 21.3441C11.8891 21.1821 12.2251 21.1011 12.5972 21.1011C12.9108 21.1011 13.1933 21.1563 13.4449 21.2665C13.6998 21.3768 13.9135 21.5353 14.0858 21.742L13.5482 22.2382C13.3036 21.9557 13.0004 21.8144 12.6386 21.8144C12.4146 21.8144 12.2147 21.8644 12.039 21.9643C11.8633 22.0608 11.7254 22.1969 11.6255 22.3726C11.529 22.5483 11.4808 22.7482 11.4808 22.9722C11.4808 23.1961 11.529 23.396 11.6255 23.5717C11.7254 23.7475 11.8633 23.8853 12.039 23.9852C12.2147 24.0817 12.4146 24.1299 12.6386 24.1299C13.0004 24.1299 13.3036 23.9869 13.5482 23.7009L14.0858 24.1971C13.9135 24.4073 13.6998 24.5675 13.4449 24.6778C13.1899 24.7881 12.9056 24.8432 12.592 24.8432Z" fill="white"/>
<path d="M16.9625 23.3236H16.3837V24.7812H15.5515V21.1632H16.3837V22.6259H16.9832L17.9342 21.1632H18.8181L17.6345 22.9101L18.8542 24.7812H17.9032L16.9625 23.3236Z" fill="white"/>
<path d="M20.1768 21.1632H21.009V23.52L22.7353 21.1632H23.5209V24.7812H22.6939V22.4295L20.9676 24.7812H20.1768V21.1632Z" fill="white"/>
<path d="M25.3521 21.1632H26.1842V23.52L27.9106 21.1632H28.6962V24.7812H27.8692V22.4295L26.1429 24.7812H25.3521V21.1632ZM27.0216 20.9306C26.36 20.9306 26.0257 20.667 26.0189 20.1398H26.5926C26.5995 20.3913 26.7425 20.5171 27.0216 20.5171C27.1594 20.5171 27.2645 20.4861 27.3368 20.424C27.4092 20.3586 27.4471 20.2638 27.4506 20.1398H28.0243C28.0208 20.3982 27.9364 20.5946 27.771 20.729C27.6056 20.8634 27.3558 20.9306 27.0216 20.9306Z" fill="white"/>
<path d="M35.3714 24.0059H33.6916L33.3711 24.7812H32.5132L34.1258 21.1632H34.9527L36.5705 24.7812H35.6919L35.3714 24.0059ZM35.1078 23.3701L34.5341 21.985L33.9604 23.3701H35.1078Z" fill="white"/>
<path d="M41.2989 21.1632V24.7812H40.4616V23.2978H38.818V24.7812H37.9807V21.1632H38.818V22.5897H40.4616V21.1632H41.2989Z" fill="white"/>
<path d="M45.6838 21.8454H43.9627L43.9679 24.7812H43.1357V21.1632H45.689L45.6838 21.8454Z" fill="white"/>
<path d="M49.9059 21.1632V24.7812H49.0789V21.8454H47.8384L47.8126 22.6C47.7954 23.1134 47.754 23.5304 47.6885 23.8508C47.6231 24.1678 47.5128 24.4125 47.3577 24.5848C47.2061 24.7536 46.9925 24.838 46.7168 24.838C46.6031 24.838 46.4653 24.8191 46.3034 24.7812L46.355 24.0731C46.3998 24.0869 46.4498 24.0938 46.5049 24.0938C46.7048 24.0938 46.8443 23.9766 46.9236 23.7423C47.0028 23.5045 47.0528 23.1341 47.0735 22.631L47.1252 21.1632H49.9059Z" fill="white"/>
<path d="M51.7398 21.1632H52.572V23.52L54.2983 21.1632H55.0839V24.7812H54.2569V22.4295L52.5306 24.7812H51.7398V21.1632Z" fill="white"/>
<path d="M56.9151 21.1632H57.7472V23.52L59.4736 21.1632H60.2592V24.7812H59.4322V22.4295L57.7059 24.7812H56.9151V21.1632ZM58.5846 20.9306C57.923 20.9306 57.5887 20.667 57.5818 20.1398H58.1556C58.1624 20.3913 58.3054 20.5171 58.5846 20.5171C58.7224 20.5171 58.8275 20.4861 58.8998 20.424C58.9722 20.3586 59.0101 20.2638 59.0135 20.1398H59.5873C59.5838 20.3982 59.4994 20.5946 59.334 20.729C59.1686 20.8634 58.9188 20.9306 58.5846 20.9306Z" fill="white"/>
<path d="M63.8012 24.8432C63.4325 24.8432 63.0982 24.7639 62.7985 24.6054C62.5021 24.4435 62.2678 24.2212 62.0955 23.9387C61.9267 23.6527 61.8423 23.3305 61.8423 22.9722C61.8423 22.6138 61.9267 22.2934 62.0955 22.0108C62.2678 21.7248 62.5021 21.5026 62.7985 21.3441C63.0982 21.1821 63.4342 21.1011 63.8063 21.1011C64.1199 21.1011 64.4025 21.1563 64.654 21.2665C64.909 21.3768 65.1226 21.5353 65.2949 21.742L64.7574 22.2382C64.5127 21.9557 64.2095 21.8144 63.8477 21.8144C63.6237 21.8144 63.4239 21.8644 63.2481 21.9643C63.0724 22.0608 62.9346 22.1969 62.8346 22.3726C62.7382 22.5483 62.6899 22.7482 62.6899 22.9722C62.6899 23.1961 62.7382 23.396 62.8346 23.5717C62.9346 23.7475 63.0724 23.8853 63.2481 23.9852C63.4239 24.0817 63.6237 24.1299 63.8477 24.1299C64.2095 24.1299 64.5127 23.9869 64.7574 23.7009L65.2949 24.1971C65.1226 24.4073 64.909 24.5675 64.654 24.6778C64.399 24.7881 64.1147 24.8432 63.8012 24.8432Z" fill="white"/>
<path d="M68.1717 23.3236H67.5928V24.7812H66.7606V21.1632H67.5928V22.6259H68.1923L69.1434 21.1632H70.0272L68.8436 22.9101L70.0634 24.7812H69.1124L68.1717 23.3236Z" fill="white"/>
<path d="M71.386 21.1632H72.2181V23.52L73.9444 21.1632H74.7301V24.7812H73.9031V22.4295L72.1768 24.7812H71.386V21.1632Z" fill="white"/>
<path d="M76.5612 21.1632H77.3934V23.52L79.1197 21.1632H79.9053V24.7812H79.0783V22.4295L77.352 24.7812H76.5612V21.1632ZM78.2307 20.9306C77.5691 20.9306 77.2349 20.667 77.228 20.1398H77.8017C77.8086 20.3913 77.9516 20.5171 78.2307 20.5171C78.3685 20.5171 78.4736 20.4861 78.546 20.424C78.6183 20.3586 78.6562 20.2638 78.6597 20.1398H79.2334C79.23 20.3982 79.1455 20.5946 78.9801 20.729C78.8147 20.8634 78.5649 20.9306 78.2307 20.9306Z" fill="white"/>
<path d="M66.2949 10.5817V13.1518H56.8545V1.39319H66.0766V3.96328H60.1469V5.94543H65.3711V8.43153H60.1469V10.5817H66.2949Z" fill="white"/>
<path d="M80 1.39319V13.1518H77.2619L72.0713 6.88612V13.1518H68.8125V1.39319H71.5506L76.7412 7.65882V1.39319H80Z" fill="white"/>
</symbol>

</defs>
</svg>
