<svg aria-hidden="true" style="position: absolute; width: 0; height: 0; overflow: hidden;" version="1.1" xmlns="http://www.w3.org/2000/svg" xmlns:xlink="http://www.w3.org/1999/xlink">
<defs>
<symbol id="arrow-right-icon" viewBox="0 0 32 32">
<path d="M31.489 14.757l-11.556-11.557c-0.315-0.315-0.75-0.511-1.231-0.511-0.003 0-0.005 0-0.008 0h0c-0.002 0-0.005-0-0.007-0-0.481 0-0.916 0.195-1.231 0.511l-1.050 1.050c-0.316 0.315-0.511 0.75-0.511 1.231 0 0.002 0 0.005 0 0.007v-0c0 0.468 0.182 0.924 0.511 1.253l6.742 6.757h-21.419c-0.006-0-0.013-0-0.020-0-0.944 0-1.709 0.765-1.709 1.709 0 0.004 0 0.009 0 0.013v-0.001 1.484c0 0.966 0.763 1.798 1.729 1.798h21.496l-6.818 6.795c-0.316 0.311-0.511 0.743-0.511 1.221 0 0.002 0 0.004 0 0.006v-0c0 0.468 0.181 0.903 0.511 1.233l1.049 1.046c0.314 0.315 0.749 0.51 1.229 0.51 0.003 0 0.006 0 0.010-0h-0c0.469 0 0.909-0.182 1.238-0.512l11.556-11.557c0.316-0.315 0.511-0.75 0.511-1.232 0-0.004 0-0.007-0-0.011v0.001c0-0.004 0-0.008 0-0.012 0-0.481-0.195-0.917-0.511-1.232l-0-0z"></path>
</symbol>
<symbol id="comments-icon-3circles" viewBox="0 0 32 32">
<path style="fill: var(--color1, #c7133e)" d="M18 16c0 1.105-0.895 2-2 2s-2-0.895-2-2c0-1.105 0.895-2 2-2s2 0.895 2 2z"></path>
<path style="fill: var(--color1, #c7133e)" d="M4 16c0 1.105-0.895 2-2 2s-2-0.895-2-2c0-1.105 0.895-2 2-2s2 0.895 2 2z"></path>
<path style="fill: var(--color1, #c7133e)" d="M32 16c0 1.105-0.895 2-2 2s-2-0.895-2-2c0-1.105 0.895-2 2-2s2 0.895 2 2z"></path>
</symbol>
<symbol id="comments-icon-circle" viewBox="0 0 32 32">
<path fill="#d9d9d9" style="fill: var(--color2, #d9d9d9)" d="M32 16c0 8.837-7.163 16-16 16s-16-7.163-16-16c0-8.837 7.163-16 16-16s16 7.163 16 16z"></path>
</symbol>
<symbol id="comments-icon-house" viewBox="0 0 32 32">
<path fill="#d31342" style="fill: var(--color3, #d31342)" d="M31.606 15.631c0.233-0.26 0.375-0.605 0.375-0.984 0-0.428-0.182-0.813-0.473-1.083l-0.001-0.001-13.637-11.938c-0.295-0.243-0.677-0.391-1.093-0.391-0.43 0-0.823 0.157-1.125 0.418l0.002-0.002-13.686 12.554c-0.29 0.266-0.471 0.647-0.471 1.070 0 0.387 0.151 0.738 0.397 0.998l-0.001-0.001 0.345 0.369c0.566 0.591 1.477 0.665 2.043 0.148l1.034-0.911v13.415c0 0.812 0.665 1.477 1.477 1.477h5.342c0.816 0 1.477-0.661 1.477-1.477v0-9.378h6.818v9.354c0 0.837 0.566 1.502 1.403 1.502h5.662c0.816 0 1.477-0.661 1.477-1.477v0-13.218l0.615 0.542c0.369 0.295 1.083 0.074 1.649-0.542l0.369-0.443z"></path>
</symbol>
<symbol id="footer-icon-1" viewBox="0 0 32 32">
<path fill="#fea5bb" style="fill: var(--color4, #fea5bb)" d="M32 16c0 8.837-7.163 16-16 16s-16-7.163-16-16c0-8.837 7.163-16 16-16s16 7.163 16 16z"></path>
<path fill="#fff" style="fill: var(--color5, #fff)" d="M16 6.588c-5.176 0-9.412 4.235-9.412 9.412 0 4.414 3.096 8.414 7.209 9.412v-3.106c-0.156 0.037-0.335 0.059-0.519 0.059-0.865 0-1.619-0.474-2.016-1.177l-0.006-0.012c-0.216-0.376-0.593-0.753-0.988-0.734l-0.094-1.092c0.847-0.075 1.591 0.518 2.024 1.252 0.198 0.329 0.424 0.527 0.715 0.612 0.282 0.075 0.574 0.038 0.922-0.085 0.094-0.696 0.405-0.96 0.649-1.318v-0.009c-2.447-0.367-3.426-1.666-3.821-2.692-0.161-0.435-0.254-0.937-0.254-1.461 0-1.017 0.351-1.951 0.939-2.689l-0.007 0.009c0.019-0.019 0.047-0.075 0.038-0.113-0.424-1.261 0.094-2.306 0.104-2.409 0.48 0.141 0.565-0.151 2.089 0.781l0.264 0.16c0.113 0.066 0.075 0.028 0.188 0.019 0.64-0.169 1.318-0.264 1.976-0.282 0.668 0.019 1.336 0.113 2.005 0.282l0.085 0.019 0.075-0.038c1.911-1.158 1.845-0.781 2.353-0.941 0.019 0.104 0.518 1.167 0.104 2.409-0.056 0.169 1.656 1.732 0.715 4.254-0.395 1.026-1.365 2.325-3.821 2.692 0.311 0.48 0.696 0.734 0.687 1.722v3.887c4.113-0.998 7.209-4.998 7.209-9.412 0-5.176-4.235-9.412-9.412-9.412z"></path>
</symbol>
<symbol id="footer-icon-2" viewBox="0 0 32 32">
<path fill="#fea5bb" style="fill: var(--color4, #fea5bb)" d="M32 16c0 8.837-7.163 16-16 16s-16-7.163-16-16c0-8.837 7.163-16 16-16s16 7.163 16 16z"></path>
<path fill="#fff" style="fill: var(--color5, #fff)" d="M12.866 18.372l-0.32 4.169c0.461 0 0.659-0.179 0.894-0.395l2.127-1.901 4.424 3.012c0.8 0.424 1.374 0.207 1.591-0.687l2.889-12.687c0.254-1.12-0.433-1.553-1.224-1.28l-17.035 6.089c-1.158 0.414-1.139 1.026-0.188 1.299l4.348 1.261 10.118-5.901c0.471-0.301 0.904-0.132 0.546 0.16l-8.179 6.852z"></path>
</symbol>
<symbol id="footer-icon-3" viewBox="0 0 32 32">
<path fill="#fea5bb" style="fill: var(--color4, #fea5bb)" d="M16 32c8.837 0 16-7.163 16-16s-7.163-16-16-16v0c-8.837 0-16 7.163-16 16s7.163 16 16 16v0z"></path>
<path fill="#fff" style="fill: var(--color5, #fff)" d="M20.442 15.981h-2.607v9.619h-3.953v-9.619h-1.882v-3.388h1.882v-2.184c0-1.562 0.734-4.009 3.991-4.009l2.927 0.009v3.285h-2.127c-0.348 0-0.838 0.179-0.838 0.922v1.986h2.955l-0.348 3.379z"></path>
</symbol>
<symbol id="header-burger-icon" viewBox="0 0 32 32">
<path fill="none" stroke="#d41443" style="stroke: var(--color6, #d41443)" stroke-linejoin="miter" stroke-linecap="butt" stroke-miterlimit="4" stroke-width="1.6" d="M0 6.4h32M0 16h32M0 25.6h32"></path>
</symbol>
<symbol id="product-icon-1" viewBox="0 0 32 32">
<path fill="#000000" style="fill: var(--color5, #fff)" d="M19.692 16c0 2.039-1.653 3.692-3.692 3.692s-3.692-1.653-3.692-3.692c0-2.039 1.653-3.692 3.692-3.692s3.692 1.653 3.692 3.692z"></path>
<path fill="#000000" style="fill: var(--color5, #fff)" d="M7.385 16c0 2.039-1.653 3.692-3.692 3.692s-3.692-1.653-3.692-3.692c0-2.039 1.653-3.692 3.692-3.692s3.692 1.653 3.692 3.692z"></path>
<path fill="#000000" style="fill: var(--color5, #fff)" d="M32 16c0 2.039-1.653 3.692-3.692 3.692s-3.692-1.653-3.692-3.692c0-2.039 1.653-3.692 3.692-3.692s3.692 1.653 3.692 3.692z"></path>
</symbol>
<symbol id="header-close-icon" viewBox="0 0 16 16">
<path d="M1.25928 1L14.7408 15" stroke="white"></path>
<path d="M1 14.7407L15 1.25924" stroke="white"></path>
</symbol>
<symbol id="button-greater-icon" viewBox="0 0 8 10" fill="none">
<path d="M1.10693 1L6.3648 5L1.10693 9" stroke="#D41443" stroke-width="2" stroke-linecap="round" stroke-linejoin="round"></path>
</symbol>
</defs>
</svg>

