<svg aria-hidden="true" style="position:absolute;width:0;height:0" xmlns="http://www.w3.org/2000/svg" overflow="hidden"><defs>
<symbol id="icon-close" viewBox="0 0 32 32">
<path d="M31.439 3.166L28.273 0 15.719 12.552 3.167 0 .001 
3.166l12.552 12.552L.001 28.272l3.166 3.166 12.552-12.554 12.554 12.554 
3.166-3.166-12.554-12.554L31.439 3.166z"/></symbol>
<symbol id="icon-facebook" viewBox="0 0 32 32">
<path d="M21.328 5.312h2.923V.224A36.478 36.478 0 0020.144 
0h-.157.008c-4.213 0-7.099 2.65-7.099 7.52V12H8.25v5.688h4.646V32h5.698V17.69h4.461l.707-5.688h-5.168V8.08c0-1.643.443-2.768 2.734-2.768z"/>
</symbol><symbol id="icon-Group" viewBox="0 0 32 32">
<path d="M15.808 11.424c2.048.096 2.576 1.84 2.608 
2.656h2.864c-.128-3.168-2.384-5.104-5.52-5.104-3.536 0-6.16 2.224-6.16 7.248 0 
3.104 1.488 6.784 6.144 6.784 3.552 0 5.456-2.64 5.504-4.72h-2.864c-.048.944-.72 
2.208-2.608 2.304-2.096-.064-2.976-1.696-2.976-4.368 0-4.624 2.048-4.768 3.008-4.8zM16 
0C7.168 0 0 7.168 0 16s7.168 16 16 16 16-7.168 16-16S24.832 0 16 0zm0 
28.8c-7.066-.009-12.791-5.734-12.8-12.799V16C3.2 8.944 8.944 3.2 16 3.2S28.8 8.944 
28.8 16 23.056 28.8 16 28.8z"/></symbol>
<symbol id="icon-instagram" viewBox="0 0 32 32"><path  d="M31.968 9.408c-.074-1.701-.349-2.869-.742-3.882a7.839 7.839 0 00-1.85-2.837l-.001-.001A7.906 7.906 0 0026.597.861l-.054-.018C25.524.449 24.362.176 22.661.101 20.949.019 20.405 0 16.059 0c-4.344 0-4.888.019-6.595.094-1.699.074-2.869.349-3.88.742a7.847 7.847 0 00-2.839 1.85l-.001.001A7.9 7.9 0 00.919 5.465l-.018.054C.506 6.538.232 7.7.157 9.401c-.082 1.712-.101 2.256-.101 6.602 0 4.344.019 4.888.094 6.595.075 1.701.35 2.869.744 3.882a7.915 7.915 0 001.849 2.837l.001.001c.8.813 1.77 1.443 2.832 1.843 1.019.395 2.182.67 3.882.744 1.707.075 2.251.094 6.595.094 4.346 0 4.89-.019 6.595-.094 1.701-.074 2.869-.349 3.882-.742a8.237 8.237 0 004.664-4.628l.019-.055c.394-1.019.669-2.182.744-3.882.075-1.707.093-2.251.093-6.595s-.006-4.888-.08-6.595zm-2.88 13.066c-.07 1.563-.333 2.406-.55 2.97a5.341 5.341 0 01-3.004 3.024l-.036.012c-.56.219-1.411.482-2.968.55-1.688.075-2.194.094-6.464.094-4.269 0-4.782-.019-6.464-.094-1.563-.069-2.406-.331-2.97-.55a4.953 4.953 0 01-1.836-1.192l-.001-.001a4.978 4.978 0 01-1.184-1.803L3.6 25.45c-.218-.563-.48-1.413-.549-2.97-.075-1.688-.094-2.195-.094-6.464 0-4.27.019-4.784.094-6.464.069-1.563.331-2.406.549-2.97a4.897 4.897 0 011.198-1.837l.002-.002a4.972 4.972 0 011.806-1.182l.034-.011c.56-.219 1.411-.48 2.968-.55 1.688-.074 2.195-.093 6.464-.093 4.275 0 4.782.019 6.464.093 1.563.069 2.406.331 2.97.55a4.91 4.91 0 011.837 1.194c.531.52.938 1.144 1.195 1.84.218.56.48 1.411.549 2.968.075 1.688.094 2.194.094 6.464 0 4.269-.019 4.768-.094 6.458z"/><path d="M16.059 7.782a8.223 8.223 0 00-8.219 8.221v.002a8.222 8.222 0 1016.444 0 8.222 8.222 0 00-8.222-8.222h-.002zm0 13.552a5.333 5.333 0 01.001-10.666h.001a5.334 5.334 0 110 10.668zM26.525 7.458a1.92 1.92 0 01-3.84 0 1.92 1.92 0 013.84 0z"/></symbol>
<symbol id="icon-linkedin" viewBox="0 0 32 32">
<path d="M31.992 32H32V20.262c0-5.741-1.235-10.163-7.947-10.163-3.227 0-5.392 1.77-6.277 
3.45h-.093v-2.914h-6.365v21.363h6.627V21.42c0-2.786.528-5.48 3.978-5.48 3.398 0 3.45 3.179 
3.45 5.658V32h6.619zM.528 10.635h6.635V32H.528V10.635zM3.843 0A3.843 3.843 0 000 3.843c0 
2.12 1.722 3.878 3.843 3.878 2.12 0 3.842-1.757 3.842-3.878S5.965.002 3.844 0z"/></symbol>
<symbol id="icon-mail" viewBox="0 0 32 32">
<path fill="none" stroke="var(--color1, #9da4bd)" 
stroke-linejoin="round" stroke-linecap="round" stroke-width="1.333" 
d="M6.4 6.667h19.2C26.92 6.667 28 7.716 28 9v14c0 1.283-1.08 2.333-2.4 2.333H6.4C5.08 25.333 
4 24.282 4 23V9c0-1.284 1.08-2.333 2.4-2.333z"/>
<path fill="none" stroke="var(--color1, #9da4bd)" stroke-linejoin="round" 
stroke-linecap="round" stroke-width="1.333" d="M26.667 9.333l-10.667 8-10.667-8"/></symbol>
<symbol id="icon-map-pin" viewBox="0 0 32 32">
<path fill="none" stroke="var(--color1, #9da4bd)" stroke-linejoin="round" stroke-linecap="round" stroke-width="1.333" 
d="M26.667 13.819C26.667 21.454 16 28 16 28S5.333 21.453 5.333 13.819C5.333 8.396 10.109 4 16 
4s10.667 4.396 10.667 9.819v0z"/>
<path fill="none" stroke="var(--color1, #9da4bd)" stroke-linejoin="round" 
stroke-linecap="round" stroke-width="1.333" d="M16 18.667a4 4 0 000-8v0a4 4 0 000 8v0z"/></symbol>
<symbol id="icon-menu" viewBox="0 0 32 32">
<path d="M0 8.889V5.333h32v3.556H0zm0 8.888h32v-3.555H0v3.555zm0 8.89h32v-3.556H0v3.556z"/></symbol>
<symbol id="icon-phone" viewBox="0 0 32 32">
<path fill="none" stroke="var(--color1, #9da4bd)" 
stroke-linejoin="round" stroke-linecap="round" stroke-width="1.333" 
d="M26.667 21.337v3.226a2.147 2.147 0 01-2.347 2.138l.008.001c-3.481-.388-6.626-1.563-9.338-3.343l.081.05a21.113 
21.113 0 01-6.386-6.353l-.05-.083A20.982 20.982 0 015.35 7.768l-.008-.095a2.145 2.145 0 
012.136-2.338h3.239c1.079 0 1.972.797 2.123 1.834l.001.012c.136 1.029.387 2.04.751 
3.013a2.144 2.144 0 01-.483 2.264l-1.363 1.361c1.555 2.7 3.736 4.881 6.353 6.392l.083.044 
1.363-1.361a2.14 2.14 0 012.278-.477l-.015-.005c.973.363 1.984.613 3.013.751a2.148 2.148 0 
011.847 2.125l-.001.056v-.003z"/></symbol>
<symbol id="icon-twitter" viewBox="0 0 32 32">
<path d="M32 6.078c-1.1.493-2.376.857-3.713 1.028l-.068.007a6.556 6.556 0 002.873-3.579l.013-.046a12.88 
12.88 0 01-4.076 1.573l-.084.014A6.558 6.558 0 0015.6 9.557v.004c0 .52.043 1.021.152 
1.496-5.454-.266-10.28-2.88-13.522-6.861a6.524 6.524 0 00-.902 3.313v.001a6.57 6.57 0 002.914 
5.451 6.453 6.453 0 01-2.994-.823l.033.017v.072a6.592 6.592 0 005.213 6.44l.043.008a6.403 
6.403 0 01-1.662.215h-.061.003c-.419 0-.843-.024-1.242-.112.85 2.598 3.261 4.509 6.13 
4.57a13.093 13.093 0 01-8.122 2.8H1.57h.001-.062c-.531 0-1.055-.034-1.569-.099l.061.006c2.826 
1.846 6.287 2.944 10.004 2.944h.063-.003c12.072 0 18.672-10 18.672-18.669 0-.288-.01-.57-.024-.848a13.203 
13.203 0 003.258-3.355l.03-.047z"/></symbol></defs></svg>
<svg width="69" height="56" fill="none" xmlns="http://www.w3.org/2000/svg">
<g clip-path="url(#clip0)" fill="#303030"><path d="M39.15 16.87l-1.31-1a1 1 0 00-1.4.14L18.31 
36.83l.28.31L23.08 33a.69.69 0 01.27-1.33.68.68 0 01.65.48l5.92-5.49a.51.51 0 01.64 0l.3.22a.5.5 
0 00.67-.08l7.74-8.68a.83.83 0 00-.12-1.25z"/><path d="M47.67 22.73a40.449 40.449 0 01-13.12 6.15A71.154 71.154 0 0120.28 31c.097.71.271 1.408.52 2.08 2.72 2.46 23.2-1.74 27.2-6.6.85-1.01-.33-3.75-.33-3.75zM23.35 33a.68.68 0 11.68-.68.669.669 0 01-.68.68zM4 21.29l.16-.69 2.6.59c.215.396.347.831.39 1.28.05.475.02.955-.09 1.42a3.76 3.76 0 01-.86 1.74 3.43 3.43 0 01-1.54 1 3.65 3.65 0 01-1.89.07 3.51 3.51 0 01-1.67-.88 3.3 3.3 0 01-.95-1.57 3.78 3.78 0 010-2c.107-.49.3-.957.57-1.38a2.92 2.92 0 011-.93l.36.55a2.86 2.86 0 00-1.32 1.94A3.12 3.12 0 00.79 24c.134.486.4.926.77 1.27.38.367.854.62 1.37.73.5.14 1.03.14 1.53 0 .48-.158.91-.437 1.25-.81.35-.403.59-.888.7-1.41a3.07 3.07 0 00-.12-1.91L4 21.29zM9.66 15l-2.33 3.11 1 1.79-.46.62-3.7-6.75.43-.59 7.53 1.62-.47.62-2-.42zM9 14.84l-4-.9 2 3.59 2-2.69zM9 8.55l.6-.45 3.81 5.1 3.14-2.35.38.51-3.73 2.79L9 8.55zM15.3 4.38l.67-.3 2.64 5.78 3.57-1.62.26.58-4.24 1.93-2.9-6.37zM28.48 6.68l.15.63-4.82 1.13-1.6-6.82L26.89.53l.14.62-4 .93.57 2.42 3.52-.83.15.62-3.53.82.6 2.53 4.14-.96zM35.35 6.93l-1.67-2.2c-.187.01-.373.01-.56 0l-1.88.06.07 2.22h-.74l-.23-7L33 0a3.16 3.16 0 012.12.57 2.2 2.2 0 01.82 1.74c.03.494-.1.985-.37 1.4a2.33 2.33 0 01-1.16.85l1.75 2.34-.81.03zm-.7-3.29a1.59 1.59 0 00.51-1.31 1.608 1.608 0 00-.59-1.28A2.43 2.43 0 0033 .64l-1.9.07.12 3.5 1.86-.06a2.4 2.4 0 001.57-.51zM40.64 5.07l-.36 2.39-.73-.11.37-2.35-2.07-5 .78.12 1.77 4.26 3-3.53.7.15-3.46 4.07zM50.53 4.65l.87 1.13-.38.3-.87-1.16-.55 1.31-.42-.18.56-1.31-1.44.19v-.48l1.42-.16-.88-1.13.39-.3L50 4l.54-1.32.43.18-.51 1.34L51.9 4v.49l-1.37.16zM53.87 12.71a2.77 2.77 0 01-.43-1.21l.59-.26c.044.396.174.778.38 1.12.223.383.515.722.86 1a2.35 2.35 0 001.3.63 1.09 1.09 0 00.94-.39.9.9 0 00.23-.68 1.841 1.841 0 00-.24-.69 10.48 10.48 0 00-.61-.89 9.087 9.087 0 01-.72-1.1 2 2 0 01-.26-.94c0-.37.139-.728.39-1a1.83 1.83 0 01.83-.57 2 2 0 011.11 0 3.68 3.68 0 011.27.72c.308.256.58.552.81.88.212.304.371.642.47 1l-.57.3a3.52 3.52 0 00-.44-.94 3.611 3.611 0 00-.67-.69 2.22 2.22 0 00-1.29-.61 1.08 1.08 0 00-.94.41.86.86 0 00-.23.68c.023.252.106.495.24.71.14.23.34.53.61.89.268.34.508.702.72 1.08a2 2 0 01.27.94c0 .37-.139.728-.39 1a1.78 1.78 0 01-.84.57 1.92 1.92 0 01-1.11 0 3.71 3.71 0 01-1.28-.72 4.549 4.549 0 01-1-1.24zM63.93 14.17l-1.41-2 .52-.37 3.25 4.64-.52.37-1.41-2-5.22 3.65-.42-.61 5.21-3.68zM61.69 22.39a3.319 3.319 0 011-1.56 3.55 3.55 0 011.64-.83 3.62 3.62 0 011.88.07 3.56 3.56 0 011.53 1 3.75 3.75 0 01.85 1.74 3.811 3.811 0 010 1.93 3.421 3.421 0 01-1 1.56 3.71 3.71 0 01-3.57.78 3.35 3.35 0 01-1.53-1 3.76 3.76 0 01-.85-1.73 3.849 3.849 0 01.05-1.96zM63 25.57c.334.38.767.66 1.25.81a3.1 3.1 0 002.9-.64c.37-.34.642-.77.79-1.25a3.22 3.22 0 00-.65-2.94 2.85 2.85 0 00-1.29-.81 3 3 0 00-1.54 0 2.76 2.76 0 00-1.36.69 2.79 2.79 0 00-.79 1.26 3 3 0 000 1.55 2.9 2.9 0 00.69 1.33zM60.93 34l2.59-1c0-.18.06-.36.11-.55l.49-1.81-2.12-.55.19-.71 6.76 1.81-.68 2.53a3.17 3.17 0 01-1.16 1.86 2.161 2.161 0 01-1.9.28 2.17 2.17 0 01-1.71-2.11l-2.76 1 .19-.75zm3.35.28a1.8 1.8 0 002.51.67 2.39 2.39 0 00.85-1.41l.48-1.8-3.39-.91-.48 1.8a2.41 2.41 0 00.03 1.65zM57.34 40.44l-.51-.39 3-3.95 5.58 4.23-2.9 3.83-.51-.39 2.45-3.23-2-1.51-2.19 2.89-.5-.38L62 38.65l-2.07-1.57-2.59 3.36zM55 48.41l-1.43.08v-.48L55 48l-.77-1.19.39-.25.76 1.2.62-1.34.43.23-.68 1.26 1.43-.08v.49h-1.45l.77 1.19-.39.25-.76-1.2-.66 1.3-.42-.24.73-1.21zM42 47.61l1.21.67a3.109 3.109 0 012-1.58 3.16 3.16 0 011.23-.13 2 2 0 011 .36c.266.2.463.48.56.8.12.395.1.82-.06 1.2a5 5 0 01-1 1.39c.33.177.636.395.91.65.189.195.329.431.41.69a1.332 1.332 0 01-.26 1.17 1.92 1.92 0 01-1.12.77c-.4.152-.84.152-1.24 0a1.25 1.25 0 01-.72-.85 1.36 1.36 0 01.07-1 4.8 4.8 0 01.89-1.23l-2.41-1.34c-.092.47-.112.953-.06 1.43h-.61a4.778 4.778 0 01.2-1.74l-1.26-.7.26-.56zm1.74 1l2.65 1.47a4.18 4.18 0 00.85-1.15c.11-.29.11-.61 0-.9a1.08 1.08 0 00-.7-.75 2 2 0 00-1.28 0 2.4 2.4 0 00-1.56 1.3l.04.03zm3.76 4a.9.9 0 00.08-.74 1.23 1.23 0 00-.32-.52 4.322 4.322 0 00-.83-.55 5.22 5.22 0 00-.79 1 1 1 0 00-.08.74.84.84 0 00.44.53c.255.096.535.096.79 0a1.19 1.19 0 00.67-.47l.04.01zM29.81 55.32l.14-7h.71l-.11 5.6 2.84-4.66h.35L36.4 54l.1-5.57h.71l-.13 7h-.61l-2.94-5.23-3.11 5.13-.61-.01zM26.33 48a3.41 3.41 0 01.91 3.46 3.56 3.56 0 01-.95 1.63 3.36 3.36 0 01-1.61.88 3.88 3.88 0 01-1.94-.06 3.76 3.76 0 01-1.68-.91 3.36 3.36 0 01-.93-1.58 3.69 3.69 0 011-3.52 3.45 3.45 0 011.58-.9 3.85 3.85 0 011.93.06 3.77 3.77 0 011.69.94zm-3.41-.35a2.67 2.67 0 00-1.29.72 2.89 2.89 0 00-.76 1.33c-.14.5-.14 1.03 0 1.53.118.487.371.93.73 1.28a3.07 3.07 0 001.35.77 3.14 3.14 0 001.55 0c.49-.12.938-.369 1.3-.72a2.94 2.94 0 00.76-1.33 2.88 2.88 0 000-1.54 2.81 2.81 0 00-.74-1.28 3 3 0 00-1.36-.76 2.89 2.89 0 00-1.54 0zM15.35 43l.27 2.75c.171.073.339.157.5.25l1.63.94 1.1-1.94.65.37L16 51.4l-2.28-1.31a3.18 3.18 0 01-1.5-1.6 2.2 2.2 0 01.22-1.9c.232-.438.6-.79 1.05-1a2.32 2.32 0 011.44-.11l-.29-2.94.71.46zm-1.14 3.16a1.802 1.802 0 00-1.29 2.25c.234.518.64.938 1.15 1.19l1.61.93 1.75-3-1.61-.93a2.47 2.47 0 00-1.61-.49v.05zM9.43 38.31l.45-.45 3.45 3.55-5 4.88L5 42.85l.46-.45 2.83 2.91L10 43.58 7.52 41l.48-.46 2.53 2.6 1.86-1.81-2.96-3.02zM2 34.38L2.24 33l.47.07-.27 1.42L3.77 34l.16.44-1.35.46 1.11.94-.32.36-1.07-1-.25 1.42-.48-.09.28-1.42-1.34.48-.15-.39 1.34-.47-1.11-.93.33-.36 1.08.94z"/></g><defs><clipPath id="clip0"><path fill="#fff" d="M0 0h68.93v55.46H0z"/></clipPath></defs></svg>