<svg aria-hidden="true" style="position: absolute; width: 0; height: 0; overflow: hidden;" version="1.1" xmlns="http://www.w3.org/2000/svg" xmlns:xlink="http://www.w3.org/1999/xlink">
<defs>
<symbol id="vector-right-white" viewBox="0 0 19 32">
<path fill="none" stroke="#fff" style="stroke: var(--color1, #fff)" stroke-linejoin="round" stroke-linecap="round" stroke-miterlimit="4" stroke-width="6.4" d="M3.2 3.2l11.552 12.8-11.552 12.8"></path>
</symbol>
<symbol id="vector-right-red" viewBox="0 0 26 32">
<path fill="none" stroke="#d41443" style="stroke: var(--color2, #d41443)" stroke-linejoin="round" stroke-linecap="round" stroke-miterlimit="4" stroke-width="6.4" d="M3.542 3.2l16.826 12.8-16.826 12.8"></path>
</symbol>

<symbol id="telegram" viewBox="0 0 46 32">
<path fill="#fff" style="fill: var(--color1, #fff)" d="M17.342 21.048l-0.674 8.86c0.966 0 1.384-0.388 1.886-0.852l4.526-4.040 9.38 6.414c1.72 0.894 2.934 0.422 3.4-1.478l6.156-26.932c0.548-2.374-0.92-3.302-2.594-2.72l-36.194 12.934c-2.47 0.896-2.434 2.18-0.42 2.766l9.252 2.684 21.494-12.552c1.012-0.626 1.932-0.28 1.176 0.346l-17.39 14.57z"></path>
</symbol>

<symbol id="home" viewBox="0 0 35 32">
<path fill="#d31342" style="fill: var(--color3, #d31342)" d="M32.64 15.4c0.256-0.274 0.413-0.644 0.413-1.050 0-0.47-0.21-0.89-0.541-1.173l-0.002-0.002-14.773-12.749c-0.319-0.265-0.733-0.425-1.184-0.425-0.466 0-0.892 0.171-1.218 0.454l0.002-0.002-14.821 13.403c-0.316 0.282-0.515 0.69-0.515 1.145 0 0.42 0.169 0.8 0.443 1.077l-0-0 0.373 0.381c0.613 0.635 1.611 0.709 2.224 0.168l1.107-0.979v14.328c0.006 0.879 0.72 1.589 1.6 1.589 0.005 0 0.009-0 0.014-0h5.775c0.004 0 0.009 0 0.013 0 0.88 0 1.594-0.71 1.6-1.589v-10.025h7.371v10.024c-0.013 0.88 0.624 1.589 1.515 1.589h6.123c0.003 0 0.007 0 0.011 0 0.88 0 1.594-0.71 1.6-1.589v-14.126l0.685 0.592c0.376 0.325 1.168 0.064 1.765-0.587l0.421-0.453z"></path>
</symbol>
<symbol id="github" viewBox="0 0 32 32">
<path fill="#fff" style="fill: var(--color1, #fff)" d="M16 0.941c-8.272 0-15.059 6.789-15.059 15.059 0 7.059 4.954 13.47 11.53 15.059v-4.982c-0.651 0.144-1.251 0.147-1.915-0.048-0.89-0.264-1.613-0.856-2.149-1.76-0.342-0.576-0.949-1.203-1.581-1.157l-0.155-1.758c1.368-0.117 2.55 0.834 3.253 2.014 0.312 0.525 0.672 0.832 1.133 0.968 0.445 0.131 0.923 0.069 1.482-0.128 0.139-1.117 0.651-1.536 1.037-2.123-3.922-0.586-5.485-2.667-6.106-4.309-0.822-2.181-0.381-4.906 1.072-6.627 0.029-0.032 0.080-0.122 0.061-0.182-0.667-2.014 0.144-3.68 0.176-3.856 0.768 0.227 0.893-0.229 3.341 1.258l0.422 0.254c0.176 0.106 0.122 0.045 0.299 0.032 0.943-0.266 2.029-0.428 3.15-0.445l0.010-0c1.147 0.018 2.247 0.183 3.294 0.478l-0.090-0.022 0.138 0.014c-0.013-0.002 0.037-0.010 0.12-0.059 3.056-1.851 2.947-1.246 3.766-1.512 0.030 0.176 0.832 1.869 0.171 3.856-0.088 0.275 2.651 2.784 1.133 6.811-0.621 1.643-2.184 3.723-6.106 4.309 0.502 0.768 1.107 1.174 1.104 2.755v6.219c6.576-1.589 11.53-8 11.53-15.059 0-8.272-6.787-15.059-15.059-15.059z"></path>
</symbol>
<symbol id="facebook" viewBox="0 0 16 32">
<path fill="#fff" style="fill: var(--color1, #fff)" d="M14.266 15.97h-4.176v15.39h-6.328v-15.392h-3.008v-5.408h3.008v-3.498c0-2.504 1.184-6.422 6.384-6.422l4.688 0.019v5.25h-3.402c-0.557 0-1.342 0.282-1.342 1.475v3.184h4.73l-0.554 5.4z"></path>
</symbol>
<symbol id="close" viewBox="0 0 32 32">
<path fill="none" stroke="#fff" style="stroke: var(--color1, #fff)" stroke-linejoin="miter" stroke-linecap="butt" stroke-miterlimit="4" stroke-width="2" d="M2.52 2l26.96 28M2 29.48l28-26.96"></path>
</symbol>
<symbol id="burger" viewBox="0 0 46 32">
<path fill="none" stroke="#d41443" style="stroke: var(--color2, #d41443)" stroke-linejoin="miter" stroke-linecap="butt" stroke-miterlimit="4" stroke-width="2.2857" d="M0 2.286h45.714M0 16h45.714M0 29.714h45.714"></path>
</symbol>
<symbol id="untitled" viewBox="0 0 43 32">
<path fill="#e1e1e1" style="fill: var(--color4, #e1e1e1)" d="M32.014 0c1.928 0 3.75 0.52 5.464 1.561s3.107 2.537 4.178 4.488c1.029 1.951 1.543 4.25 1.543 6.894s-0.643 5.225-1.928 7.74c-0.429 0.91-1.2 2.081-2.315 3.512-1.157 1.43-2.228 2.666-3.214 3.707l-4.050 4.098-2.893-4.813c2.063-1.302 3.824-2.855 5.306-4.646l0.030-0.037c1.542-1.821 2.314-3.49 2.314-5.008 0-0.781-0.171-1.41-0.514-1.886-1.5 1.084-3.172 1.626-5.014 1.626-1.328 0-2.593-0.412-3.793-1.236-1.237-0.782-2.237-1.834-2.935-3.078l-0.022-0.043c-0.771-1.258-1.157-2.558-1.157-3.902 0-1.518 0.45-2.97 1.35-4.358 0.866-1.389 2.011-2.526 3.364-3.356l0.044-0.025c1.37-0.824 2.784-1.236 4.242-1.236zM8.936 0c1.928 0 3.75 0.52 5.464 1.561s3.107 2.536 4.178 4.488c1.029 1.951 1.543 4.25 1.543 6.894 0 1.864-0.236 3.534-0.707 5.008-0.472 1.518-1.286 3.1-2.443 4.748-1.114 1.561-2.164 2.862-3.15 3.902-0.986 1.084-2.7 2.883-5.143 5.398l-2.893-4.813c2.063-1.302 3.824-2.855 5.306-4.646l0.030-0.037c1.542-1.821 2.314-3.49 2.314-5.008 0-0.781-0.172-1.41-0.514-1.886-1.5 1.084-3.172 1.626-5.014 1.626-1.328 0-2.593-0.412-3.793-1.236-1.237-0.782-2.237-1.834-2.935-3.078l-0.022-0.043c-0.771-1.258-1.157-2.558-1.157-3.902 0-1.518 0.429-2.97 1.286-4.358 0.866-1.389 2.011-2.526 3.364-3.356l0.045-0.025c1.37-0.824 2.784-1.236 4.242-1.236z"></path>
</symbol>
<symbol id="arrow-right" viewBox="0 0 32 32">
<path d="M19.414 27.414l10-10c0.781-0.781 0.781-2.047 0-2.828l-10-10c-0.781-0.781-2.047-0.781-2.828 0s-0.781 2.047 0 2.828l6.586 6.586h-19.172c-1.105 0-2 0.895-2 2s0.895 2 2 2h19.172l-6.586 6.586c-0.39 0.39-0.586 0.902-0.586 1.414s0.195 1.024 0.586 1.414c0.781 0.781 2.047 0.781 2.828 0z"></path>
</symbol>
</defs>
</svg>
