<svg aria-hidden="true" style="position:absolute;width:0;height:0;overflow:hidden" xmlns="http://www.w3.org/2000/svg">
  <defs>
  <symbol id="icon-keyboard_arrow_right" viewBox="0 0 24 24">
<path d="M8.578 16.594l4.594-4.594-4.594-4.594 1.406-1.406 6 6-6 6z"></path>
</symbol>
  <symbol id="icon-facebook" viewBox="0 0 33 32">
    <circle cx="16" cy="16" r="16" fill="#F8D24E"/>
      <path d="M21.7235 16.9804H18.9502V27.2001H14.7484V16.9804H12.75V13.3888H14.7484V11.0646C14.7484 9.40261 15.5333 6.80005 18.9876 6.80005L22.1 6.81315V10.2994H19.8417C19.4713 10.2994 18.9505 10.4856 18.9505 11.2784V13.3922H22.0906L21.7235 16.9804Z" />
  </symbol>
  <symbol id="icon-telegram" viewBox="0 0 32 32">
    <circle cx="16" cy="16" r="16" fill="#F8D24E"/>
    <path d="M13.6713 19.5238L13.3338 23.9538C13.8167 23.9538 14.0258 23.7602 14.2765 23.5278L16.5401 21.5088L21.2305 24.7146C22.0907 25.162 22.6968 24.9264 22.9289 23.976L26.0076 10.5116L26.0085 10.5108C26.2813 9.32401 25.5486 8.85991 24.7105 9.15106L6.61358 15.6175C5.3785 16.0649 5.3972 16.7075 6.40362 16.9987L11.0303 18.3418L21.7771 12.0658C22.2829 11.7532 22.7427 11.9261 22.3645 12.2387L13.6713 19.5238Z" />
  </symbol>
  <symbol id="icon-github" viewBox="0 0 32 32">
  <circle cx="16" cy="16" r="16" fill="#F8D24E"/>
   <path d="M17 7C11.5074 7 7 11.5074 7 17C7 21.687 10.2889 25.9447 14.6562 27V23.6916C14.2235 23.7863 13.8253 23.7891 13.3847 23.6592C12.7938 23.4848 12.3136 23.0912 11.9571 22.4909C11.7299 22.1076 11.3272 21.6919 10.9072 21.7224L10.8042 20.5551C11.7125 20.4773 12.4984 21.1086 12.9648 21.8923C13.172 22.2408 13.4105 22.4451 13.7166 22.5354C14.0125 22.6226 14.3302 22.5807 14.7003 22.45C14.7933 21.7089 15.1328 21.4315 15.3893 21.0408V21.0402C12.7846 20.6517 11.7466 19.2699 11.3346 18.1792C10.7886 16.731 11.0816 14.9218 12.047 13.7784C12.0658 13.7561 12.0996 13.6978 12.0865 13.6571C11.6439 12.32 12.1833 11.2139 12.2031 11.0965C12.714 11.2476 12.797 10.9445 14.4222 11.9319L14.7031 12.1007C14.8206 12.1707 14.7837 12.1308 14.9012 12.1219C15.5797 11.9376 16.295 11.8358 16.9998 11.8267C17.71 11.8358 18.4207 11.9376 19.1274 12.1294L19.2183 12.1385C19.2104 12.1373 19.243 12.1328 19.2978 12.1001C21.328 10.8704 21.2551 11.2723 21.7995 11.0953C21.8192 11.2128 22.3514 12.3369 21.9135 13.6571C21.8544 13.839 23.6736 15.5048 22.6653 18.1787C22.2533 19.2699 21.2154 20.6517 18.6107 21.0402V21.0408C18.9446 21.5497 19.3457 21.8204 19.3436 22.8702V27C23.7111 25.9447 26.9998 21.687 26.9998 17C27 11.5074 22.4926 7 17 7V7Z"/>
  </symbol>
  
  <symbol id="icon-arrow-right-bold" viewBox="0 0 32 32">
    <path d="M10.586 3.272a2 2 0 0 0 0 2.828l9.9 9.9-9.9 9.9a1.998 1.998 0 0 0 .025 2.804 2.001 2.001 0 0 0 2.804.025l11.314-11.314a2 2 0 0 0 0-2.828L13.415 3.273a2 2 0 0 0-2.828 0z"/>
  </symbol>

  <symbol id="icon-icecream" viewBox="0 0 32 32">
    <path d="M27.9285 25.6984C30.802 18.0114 24.8514 13.8036 20.907 11.0381C20.1528 10.4731 19.3986 9.94528 18.7877 9.46205C17.6959 8.55396 16.8916 7.35591 16.4705 6.01035C16.0493 4.66479 16.029 3.22833 16.412 1.87173C16.4513 1.72979 16.4503 1.57992 16.4091 1.4385C16.3679 1.29707 16.2881 1.16952 16.1784 1.06978C16.0686 0.970041 15.9332 0.901949 15.7869 0.872938C15.6405 0.843928 15.4889 0.855115 15.3486 0.905279C14.0202 1.42333 12.7851 2.14878 11.6907 3.05377C10.6392 3.85289 9.78727 4.87876 9.20028 6.05272C8.6133 7.22667 8.30682 8.51753 8.30438 9.82633C7.56064 10.4043 6.90308 11.0825 6.35102 11.841C5.33683 13.2057 4.82834 14.872 4.9105 16.5617C3.70244 17.6555 2.8027 19.0393 2.29908 20.5781C1.79546 22.1169 1.70516 23.7581 2.03702 25.3415C1.55642 25.6278 1.18442 26.0616 0.978136 26.5764C0.771855 27.0912 0.74269 27.6585 0.895139 28.1912C1.04759 28.7239 1.37323 29.1925 1.82203 29.5252C2.27082 29.8578 2.81798 30.036 3.37949 30.0325H3.43228V34.4038C3.43228 34.8474 3.61106 35.2729 3.9293 35.5866C4.24753 35.9003 4.67917 36.0765 5.12922 36.0765H6.44906L8.59853 54.439C8.64321 54.8478 8.83972 55.2258 9.15022 55.5003C9.46073 55.7748 9.86327 55.9264 10.2804 55.9258H19.2251C19.6426 55.9249 20.0452 55.7731 20.3566 55.499C20.668 55.2249 20.8665 54.8478 20.9145 54.439L23.064 36.0765H24.3838C24.8339 36.0765 25.2655 35.9003 25.5837 35.5866C25.902 35.2729 26.0808 34.8474 26.0808 34.4038V30.0325H26.1336C26.8156 30.0325 27.4698 29.7654 27.9521 29.29C28.4344 28.8146 28.7053 28.1698 28.7053 27.4974C28.7088 27.1619 28.6438 26.8291 28.5142 26.5187C28.3847 26.2084 28.1932 25.9269 27.9511 25.6909L27.9285 25.6984ZM8.56835 11.7518C9.65439 15.7737 13.8477 17.3572 17.6715 18.7697C17.7743 18.8321 17.8898 18.8713 18.0097 18.8848C18.1297 18.8982 18.2511 18.8854 18.3655 18.8473C18.4798 18.8092 18.5843 18.7468 18.6714 18.6644C18.7585 18.5821 18.8262 18.4818 18.8696 18.3707C18.9129 18.2597 18.931 18.1406 18.9224 18.0219C18.9138 17.9032 18.8788 17.7879 18.8198 17.684C18.7609 17.5802 18.6795 17.4904 18.5814 17.421C18.4833 17.3517 18.3709 17.3045 18.2522 17.2828C14.1343 15.744 10.2502 14.3092 9.95607 10.198C9.88714 9.06795 10.1023 7.93856 10.5826 6.91014C11.0628 5.88172 11.7932 4.98607 12.7089 4.30271C13.2826 3.8322 13.8985 3.41416 14.5491 3.05377C14.5072 3.56838 14.5072 4.08547 14.5491 4.60008C14.6364 5.77815 14.9631 6.92689 15.5099 7.97797C16.0567 9.02905 16.8123 9.96101 17.7318 10.7184C18.3578 11.2463 19.1346 11.789 19.9944 12.3688C21.9779 13.7739 24.233 15.3425 25.6659 17.4687C26.4305 18.5591 26.9062 19.8207 27.0498 21.1386C27.1934 22.4565 27.0002 23.7889 26.488 25.0144H26.1713H23.1545C16.2838 25.0144 8.38735 23.141 6.82616 17.8924C6.51646 16.8127 6.51899 15.6691 6.83348 14.5906C7.14798 13.5122 7.76192 12.5418 8.60605 11.789L8.56835 11.7518ZM14.7527 37.095L17.2718 39.578L14.7527 42.0611L12.2337 39.5632L14.7527 37.095ZM20.5299 43.6148L18.4483 45.6667L15.9293 43.1836L18.4483 40.708L20.6355 42.8565L20.5299 43.6148ZM14.7527 49.3094L12.2337 46.8264L14.7527 44.3433L17.2718 46.8264L14.7527 49.3094ZM13.5988 43.1985L11.0798 45.6815L8.98315 43.6148L8.89265 42.8714L11.0798 40.7229L13.5988 43.1985ZM9.91837 46.8264L9.41305 47.3245L9.28482 46.1945L9.91837 46.8264ZM9.65439 49.3689L11.0798 47.9638L13.8477 50.7145C13.8619 50.77 13.8795 50.8246 13.9005 50.878H9.82784L9.65439 49.3689ZM18.4332 47.9638L19.8587 49.3689L19.6852 50.8557H15.4994L18.4332 47.9638ZM20.0924 47.3245L19.5871 46.8264L20.2282 46.1945L20.0924 47.3245ZM20.8466 40.827L19.5871 39.5632L21.186 37.9871L20.8466 40.827ZM18.4257 38.4332L16.0349 36.084H20.8165L18.4257 38.4332ZM11.0723 38.4332L8.68148 36.084H13.4631L11.0723 38.4332ZM19.2176 54.3126H10.2804C10.2669 54.3111 10.2544 54.3051 10.2448 54.2956C10.2353 54.2862 10.2292 54.2738 10.2276 54.2606L10.0164 52.4764H19.4891L19.2855 54.2606C19.2836 54.275 19.2764 54.2883 19.2653 54.2979C19.2542 54.3075 19.2399 54.3127 19.2251 54.3126H19.2176ZM26.1336 28.4118H23.509C23.3949 28.401 23.2798 28.4139 23.171 28.4495C23.0623 28.4851 22.9623 28.5427 22.8775 28.6187C22.7927 28.6946 22.7249 28.7872 22.6786 28.8905C22.6322 28.9938 22.6082 29.1055 22.6082 29.2185C22.6082 29.3314 22.6322 29.4431 22.6786 29.5464C22.7249 29.6497 22.7927 29.7423 22.8775 29.8182C22.9623 29.8942 23.0623 29.9518 23.171 29.9874C23.2798 30.0231 23.3949 30.0359 23.509 30.0251H24.4441V34.3964C24.4423 34.4108 24.4352 34.4241 24.424 34.4337C24.4129 34.4433 24.3986 34.4485 24.3838 34.4484H5.09905C5.08427 34.4485 5.06996 34.4433 5.05884 34.4337C5.04772 34.4241 5.04057 34.4108 5.03872 34.3964V30.0251H19.9793C20.1828 30.0058 20.3717 29.9125 20.5091 29.7633C20.6466 29.6142 20.7227 29.42 20.7227 29.2185C20.7227 29.017 20.6466 28.8227 20.5091 28.6736C20.3717 28.5244 20.1828 28.4311 19.9793 28.4118H3.38703C3.25767 28.4233 3.1273 28.4081 3.00423 28.3672C2.88116 28.3263 2.76807 28.2605 2.6722 28.1742C2.57632 28.0878 2.49976 27.9827 2.44738 27.8655C2.39499 27.7484 2.36792 27.6218 2.36792 27.4937C2.36792 27.3657 2.39499 27.2391 2.44738 27.1219C2.49976 27.0048 2.57632 26.8996 2.6722 26.8133C2.76807 26.7269 2.88116 26.6612 3.00423 26.6202C3.1273 26.5793 3.25767 26.5641 3.38703 26.5756H5.09905C5.30252 26.5563 5.49141 26.463 5.62886 26.3139C5.76631 26.1647 5.84247 25.9705 5.84247 25.769C5.84247 25.5675 5.76631 25.3732 5.62886 25.2241C5.49141 25.075 5.30252 24.9817 5.09905 24.9624H3.59066C3.37462 23.8312 3.40972 22.6674 3.69354 21.5509C3.97736 20.4344 4.50317 19.3917 5.2348 18.4946C5.76273 20.1153 7.12029 22.3307 10.5142 24.0926C13.7044 25.7355 17.9279 26.5756 23.064 26.5756H26.0808C26.2101 26.5641 26.3405 26.5793 26.4636 26.6202C26.5866 26.6612 26.6997 26.7269 26.7956 26.8133C26.8914 26.8996 26.968 27.0048 27.0204 27.1219C27.0728 27.2391 27.0998 27.3657 27.0998 27.4937C27.0998 27.6218 27.0728 27.7484 27.0204 27.8655C26.968 27.9827 26.8914 28.0878 26.7956 28.1742C26.6997 28.2605 26.5866 28.3263 26.4636 28.3672C26.3405 28.4081 26.2101 28.4233 26.0808 28.4118H26.1336Z"/>
  </symbol>

  <symbol id="icon-cow" viewBox="0 0 36 36">
  <path d="M6.93937 0.216297C6.64615 0.469917 5.80724 2.21992 5.50588 3.17524C5.14751 4.35881 5.02534 5.24649 5.07421 6.47234C5.13937 8.22233 5.57919 9.54963 6.54842 10.9361C6.80091 11.2996 7.00453 11.6124 7.00453 11.6378C7.00453 11.6547 6.84977 11.6716 6.6543 11.6716C5.81538 11.6716 4.24344 11.9506 3.03801 12.3141C1.12398 12.889 0 13.895 0 15.0194C0 15.4168 0.358371 16.0931 0.741176 16.4397C1.48235 17.1076 3.10317 17.7417 4.84615 18.046C5.44887 18.1559 7.24072 18.3419 7.63982 18.3504C7.71312 18.3504 7.73756 18.7392 7.73756 20.0158C7.73756 21.1148 7.77828 21.9687 7.85973 22.4929C8.15294 24.3697 9.06516 26.3564 10.2706 27.7598L10.686 28.2417L10.409 28.6897C10.0018 29.3238 9.84706 29.8057 9.79819 30.5243C9.67602 32.2489 10.7511 33.7791 12.8281 34.8528C16.7864 36.9071 22.9357 36.104 25.2407 33.2296C26.3647 31.8262 26.495 30.2199 25.6072 28.7658L25.3303 28.3177L25.8272 27.7175C26.7557 26.6016 27.3584 25.4856 27.8145 24.0738C28.1973 22.8733 28.3439 21.7151 28.3439 19.8805C28.3439 19.0436 28.3683 18.3504 28.4091 18.3504C28.7837 18.3419 30.5837 18.1475 31.1538 18.046C32.905 17.7417 34.4932 17.1161 35.2588 16.4397C35.6416 16.0931 36 15.4168 36 15.0194C36 13.7682 34.7294 12.7537 32.3674 12.145C31.5937 11.9421 30.1357 11.697 29.4272 11.6547L29.0932 11.6293L29.4597 11.1221C29.9158 10.5049 30.486 9.30446 30.7059 8.51823C31.3249 6.24407 30.9421 3.59794 29.6145 1.07016C29.0606 0.0218506 28.6778 -0.223316 28.2299 0.190933C28.0588 0.351562 27.9855 0.571369 27.8226 1.36605C27.3176 3.89383 26.381 5.89746 25.0127 7.37692L24.41 8.03634H17.9674H11.5249L10.9873 7.45301C9.65158 5.982 8.68235 3.90229 8.17738 1.36605C8.01448 0.571369 7.94118 0.351562 7.77014 0.190933C7.50136 -0.0542336 7.24072 -0.0457802 6.93937 0.216297ZM7.9819 5.22958C8.41358 6.17644 8.95113 7.06412 9.58643 7.88417L10.0914 8.53514L9.56199 8.93248C9.06516 9.31291 8.60091 9.85398 8.24253 10.4711L8.08778 10.7501L7.69683 10.2175C6.36109 8.37451 6.02715 6.11726 6.73575 3.77547C7.07783 2.64263 7.06968 2.65108 7.37919 3.63176C7.52579 4.10519 7.80272 4.82378 7.9819 5.22958ZM29.1828 3.44577C29.5167 4.45181 29.6471 5.25494 29.6471 6.2948C29.6471 7.83345 29.2398 9.13538 28.3846 10.302L28.0018 10.8262L27.7167 10.3443C27.3828 9.75253 26.8127 9.13538 26.2914 8.78031C26.0715 8.63659 25.9005 8.49287 25.9005 8.47596C25.9005 8.4506 26.0552 8.25615 26.2507 8.0448C27.1548 7.03876 28.124 5.22958 28.6045 3.67403C28.7511 3.19214 28.8977 2.7948 28.9222 2.7948C28.9466 2.7948 29.0688 3.09069 29.1828 3.44577ZM25.0208 9.62572C25.9249 10.0062 26.7882 11.0967 26.9267 12.0182C27 12.5255 27.171 12.8467 27.391 12.8975C27.4887 12.9144 28.1647 12.9735 28.8896 13.0243C31.4634 13.1933 33.4914 13.7429 34.3548 14.4953C34.7538 14.8504 34.7131 15.1462 34.2326 15.5098C33.2715 16.2368 31.1946 16.7863 29.0769 16.8793C27.676 16.9385 27.3828 16.9808 27.1955 17.1752C27.057 17.319 27.0407 17.4711 27.0407 19.0013C27.0407 21.0726 26.9348 22.2646 26.6742 23.2284C26.3077 24.5388 25.5828 25.9337 24.7357 26.9228L24.3855 27.3286L23.6606 26.8974C22.781 26.3733 21.9584 26.0351 20.9729 25.8069C17.886 25.0714 14.4733 25.5194 12.1765 26.9651L11.6471 27.3032L11.3131 26.9059C10.857 26.3733 10.1403 25.232 9.8552 24.5895C9.22806 23.1354 9.04072 21.9518 9.04072 19.3479C9.04072 16.8202 9.17104 17.0061 7.29774 16.9047C4.90317 16.7779 3.07873 16.3467 1.93032 15.6197C1.08326 15.0786 1.22172 14.5967 2.40271 14.0303C3.53484 13.4808 5.0905 13.1511 7.24887 13.0158C8.9267 12.9059 8.96742 12.8805 9.12217 12.069C9.35023 10.8431 10.2543 9.82862 11.3946 9.50736C11.6796 9.42282 13.276 9.40591 18.1629 9.41436L24.5566 9.43127L25.0208 9.62572ZM20.4434 27.1257C22.4389 27.616 23.9294 28.5291 24.5729 29.6619C24.7276 29.924 24.7928 30.1945 24.8253 30.6088C24.8579 31.1245 24.8335 31.2513 24.638 31.674C23.7339 33.5931 20.4109 34.8612 17.0308 34.5738C12.9665 34.2356 10.295 31.9699 11.3457 29.7465C11.9158 28.546 13.8462 27.3962 15.8824 27.0581C16.2163 27.0074 16.5502 26.9482 16.6154 26.9313C16.6805 26.9144 17.4136 26.9144 18.2443 26.9313C19.3765 26.9566 19.9222 27.0074 20.4434 27.1257Z" fill="#131313"/>
<path d="M12.364 13.8613C11.859 14.0304 11.5169 14.2502 11.0608 14.7067C10.6617 15.0871 10.6291 15.5352 10.9631 15.8057C11.2726 16.0593 11.5658 16.0255 11.9404 15.6958C12.4128 15.2816 12.7793 15.1125 13.2355 15.1125C13.6916 15.104 14.0418 15.2647 14.5305 15.6958C14.9051 16.0255 15.1983 16.0593 15.5079 15.8057C15.6707 15.6705 15.7196 15.5606 15.7196 15.3069C15.7196 15.0449 15.6626 14.9265 15.3775 14.6391C14.5712 13.8275 13.3739 13.5147 12.364 13.8613Z" fill="#131313"/>
<path d="M21.8606 13.8525C21.3393 14.047 20.6714 14.4866 20.4026 14.8163C20.142 15.1376 20.1339 15.5011 20.4026 15.7716C20.6714 16.0591 20.9972 16.0422 21.3882 15.7209C22.3492 14.9262 23.066 14.9009 23.9538 15.6364C24.1818 15.8308 24.4425 15.983 24.5239 15.983C24.923 15.983 25.2488 15.6279 25.2488 15.2052C25.2488 14.9347 24.5728 14.3091 23.9619 14.0132C23.2859 13.6835 22.4796 13.6243 21.8606 13.8525Z" fill="#131313"/>
<path d="M13.5448 29.5016C13.3086 29.7298 13.2272 30.0595 13.3493 30.3216C13.4389 30.533 13.5774 30.6175 14.1394 30.7697C14.3919 30.8373 14.4978 30.9218 14.5874 31.1332C14.7014 31.4122 14.7095 31.4122 15.3367 31.4375L15.9638 31.4629V31.2262C15.9557 30.888 15.7683 30.3977 15.524 30.0595C15.2389 29.6706 14.7421 29.417 14.1801 29.3663C13.7973 29.3325 13.6996 29.3494 13.5448 29.5016Z" fill="#131313"/>
<path d="M21.3233 29.4419C20.916 29.5518 20.3296 30.1013 20.1667 30.5325C20.0934 30.7269 20.0201 31.0735 20.012 31.3018C19.9957 31.6653 20.0282 31.7499 20.2237 31.9274C20.7043 32.3501 21.3396 32.0204 21.3396 31.3441C21.3396 31.0143 21.5839 30.7861 22.0156 30.7015C22.4717 30.617 22.6346 30.431 22.6427 29.9999C22.6427 29.4334 22.1377 29.2136 21.3233 29.4419Z" fill="#131313"/>

 </symbol>

  <symbol id="icon-bell" viewBox="0 0 36 36">
  <path d="M15.9495 0.615261C11.4785 1.27831 7.79691 3.76068 6.4423 7.0112C6.01016 8.03811 5.89381 8.66881 5.89381 9.90595C5.90212 10.8197 5.93536 11.1593 6.07664 11.6525C6.36751 12.6228 6.57527 13.1161 7.00742 13.8114L7.40632 14.4583L6.95755 15.0082C3.40897 19.423 3.01837 25.633 5.97691 30.525C7.08221 32.3605 8.88559 34.1636 10.6474 35.2148L11.171 35.5221L18.3346 35.4655L25.5066 35.4008L25.8473 35.2148C27.0357 34.5437 28.7144 33.0478 29.6535 31.8349C31.0663 29.9913 31.9888 27.8405 32.3794 25.5117C32.5123 24.6789 32.5123 22.2127 32.3711 21.4284C31.9472 19.0107 31.0414 16.9407 29.612 15.1052C29.3377 14.7575 29.1217 14.4664 29.1217 14.4421C29.1217 14.426 29.2712 14.1753 29.4458 13.8923C29.853 13.2454 30.2186 12.4126 30.4181 11.6849C30.6425 10.8763 30.6425 8.85479 30.4181 8.0462C29.6203 5.17571 27.2269 2.78228 23.8445 1.46428C22.8971 1.09233 21.2765 0.696121 20.2294 0.566746C19.2571 0.453545 16.8554 0.477802 15.9495 0.615261ZM21.0106 1.93326C25.4484 2.79845 28.6978 5.51531 29.2962 8.86287C29.4291 9.61486 29.346 10.8924 29.1217 11.604C28.8973 12.2994 28.4818 13.1161 27.9914 13.8114C27.792 14.0944 27.6258 14.4179 27.6258 14.523C27.6258 14.6281 27.8003 14.903 28.0496 15.178C30.1272 17.4824 31.2242 20.3691 31.2242 23.4903C31.2159 27.04 29.853 30.153 27.2269 32.595C26.7781 33.0154 26.1382 33.541 25.7975 33.7674L25.1742 34.1879L18.3014 34.2121L11.4369 34.2445L10.905 33.9049C8.977 32.6516 7.24011 30.5816 6.27609 28.3822C5.06276 25.6007 4.9381 22.3744 5.92705 19.4797C6.45061 17.9757 7.14869 16.7466 8.21244 15.4529C8.64458 14.9354 8.84404 14.6281 8.84404 14.4826C8.84404 14.3613 8.62796 13.9651 8.34541 13.5527C7.34815 12.1053 6.94093 10.4962 7.18194 8.97608C7.43125 7.43976 8.12933 6.17836 9.41746 4.92504C11.0962 3.29978 13.4397 2.22435 16.1905 1.82006C17.3291 1.65026 19.8471 1.71494 21.0106 1.93326Z" />
<path d="M16.3233 3.35635C12.916 3.91428 10.2484 5.80638 9.37576 8.28875C9.17631 8.84668 9.14307 9.065 9.14307 9.8655C9.14307 10.666 9.17631 10.8843 9.37576 11.4422C9.50042 11.798 9.73311 12.2913 9.89101 12.5419C10.3232 13.2373 10.5143 13.2616 11.3703 12.7441C12.6501 11.9597 14.1211 11.3856 15.6502 11.0703C16.6807 10.8601 18.6586 10.7792 19.7805 10.9086C21.534 11.1107 23.4371 11.7414 24.9579 12.639C25.3901 12.8896 25.8306 13.0999 25.9386 13.0999C26.5702 13.0999 27.3763 11.2805 27.3763 9.8655C27.3763 6.72009 24.3679 4.02748 20.1046 3.35635C19.1988 3.21081 17.1959 3.21081 16.3233 3.35635ZM20.437 4.6501C21.8664 4.95736 23.1795 5.53955 24.1685 6.30771C25.4981 7.33461 26.2128 8.76582 26.0965 10.1485C26.0549 10.6983 25.8472 11.4422 25.7225 11.5231C25.6893 11.5393 25.2239 11.3452 24.692 11.0865C23.5867 10.5528 22.3318 10.1242 21.0603 9.84933C20.2874 9.68761 19.9633 9.66335 18.2348 9.67144C16.5311 9.67144 16.1737 9.6957 15.4341 9.84933C14.1543 10.1242 13.157 10.4639 11.9271 11.046C10.6888 11.6363 10.7553 11.6444 10.5309 10.9167C10.2401 9.97062 10.4229 8.7173 10.988 7.77125C11.2872 7.26993 12.1099 6.43708 12.7083 6.0247C13.8468 5.24037 14.8441 4.88459 16.9882 4.49646C17.4286 4.41561 19.8719 4.52881 20.437 4.6501Z" />
<path d="M19.0827 15.0808C18.85 15.3719 18.85 15.6468 19.091 15.8813C19.2489 16.0349 19.4068 16.0754 19.9802 16.1158C21.0938 16.1967 22.1576 16.5201 23.1133 17.0699C23.7947 17.4742 24.8335 18.4526 25.2989 19.1561C25.9887 20.1668 26.4624 21.6142 26.4624 22.6815C26.4624 23.0535 26.4956 23.1667 26.6702 23.3284C26.9361 23.5953 27.2851 23.5953 27.5428 23.3284C27.7256 23.1424 27.7339 23.0939 27.684 22.3015C27.4513 18.3879 24.1022 15.1212 20.0966 14.9029L19.2655 14.8544L19.0827 15.0808Z" />

  </symbol>

  <symbol id="icon-cone" viewBox="0 0 36 36">
  <path d="M18.1219 0.120502C18.2123 0.361507 18.393 1.52887 18.393 1.89038C18.393 2.78661 18.0616 3.62259 17.4516 4.27782C16.947 4.82008 16.4424 5.12134 15.2298 5.61088C13.8817 6.16067 13.3244 6.49205 12.6918 7.11716C12.0516 7.75732 11.675 8.45774 11.5395 9.27866C11.3888 10.1749 11.5395 10.8075 11.9989 11.169L12.2324 11.3498L11.8633 11.5833C11.1177 12.0728 9.76206 13.2251 9.52859 13.5791C9.07671 14.2569 9.1219 14.8895 9.63403 15.1456L9.87504 15.2661L9.60391 15.5222C9.19721 15.9063 9.11437 16.1699 9.17462 16.8628C9.21227 17.3222 9.19721 17.5707 9.09177 17.9473C8.96374 18.4368 8.96374 18.4444 9.12943 18.7908C9.29512 19.1297 9.76206 19.559 10.1838 19.7397C10.3872 19.8301 10.3947 19.8603 10.4399 20.5531C10.4625 20.9523 10.5001 22.2251 10.5303 23.3849C10.5529 24.5448 10.6056 25.6067 10.6508 25.7347C10.6884 25.8703 10.8315 26.051 10.9596 26.1414C11.3964 26.4427 11.6976 26.7665 11.8934 27.1431C12.1119 27.5724 12.3529 28.6268 13.0834 32.272L13.5955 34.8326L13.9119 35.1339C14.5144 35.7289 15.6667 36 17.5646 36C19.47 36 20.6073 35.7364 21.2098 35.1414L21.5336 34.8326L22.0006 32.4603C23.0324 27.2711 23.1227 26.9849 23.9286 26.3448C24.1771 26.1414 24.4181 25.8929 24.4633 25.7799C24.516 25.6519 24.5688 24.6653 24.6064 23.1741C24.6365 21.8485 24.6817 20.5381 24.7119 20.2594L24.757 19.7548L25.2466 19.3858C25.8642 18.9113 26.1052 18.482 26.1052 17.8192C26.0976 17.036 25.5855 16.1774 24.6516 15.4092L24.2073 15.0477L24.4257 14.7389C25.337 13.4812 24.7646 11.7414 23.07 10.5816L22.5579 10.2276L22.7462 10.0318C23.5821 9.13556 23.7177 6.46193 23.0173 4.60167C22.5955 3.49456 21.6315 2.28954 20.4491 1.40084C19.8692 0.964016 18.2725 0 18.1294 0C18.0993 0 18.0993 0.0527191 18.1219 0.120502ZM20.2909 2.74895C20.6901 3.14059 21.1721 3.67531 21.3604 3.94644C22.4826 5.51297 22.7688 7.47866 22.0909 8.92469C21.8198 9.51213 21.0064 10.3858 20.2533 10.9054C19.101 11.7038 16.5102 13.0444 14.7027 13.7824C11.7955 14.9649 10.1085 15.1908 9.91269 14.4151C9.83738 14.1213 10.0558 13.8879 10.9821 13.2703C11.8181 12.6979 15.5688 9.9113 15.6365 9.79833C15.6591 9.7682 15.275 9.94142 14.793 10.1824C13.1587 11.0109 12.383 10.8527 12.4206 9.70042C12.4432 8.86444 13.0457 7.91548 13.8817 7.37322C14.0926 7.23766 14.7478 6.9364 15.3503 6.6954C17.3311 5.89707 17.9336 5.49038 18.6039 4.4887C19.0031 3.89372 19.4399 2.79414 19.47 2.3272C19.4775 2.16151 19.5077 2.03347 19.5303 2.03347C19.5529 2.03347 19.8918 2.35732 20.2909 2.74895ZM22.347 11.3046C22.8968 11.6134 23.4692 12.1406 23.7177 12.5548C24.1545 13.3004 23.9286 14.046 22.9872 14.995C21.9629 16.0343 20.2156 17.0285 18.2951 17.6611C16.5252 18.241 14.8307 18.5121 12.4056 18.595L10.8993 18.6477L11.8784 18.708C13.1437 18.7908 15.5914 18.7155 16.5403 18.5649C19.0633 18.1657 21.2098 17.3674 22.7462 16.2678C23.0926 16.0192 23.4541 15.8159 23.552 15.8159C23.8006 15.8159 24.8851 16.8552 25.1035 17.292C25.224 17.5406 25.2541 17.7213 25.2315 17.9623C25.1185 18.964 23.8985 19.4987 20.9537 19.8527C17.3537 20.282 12.6466 19.8603 10.6357 18.9339C9.68675 18.4971 9.52859 18.2485 9.7696 17.5858C9.84491 17.3749 9.85997 17.1264 9.82985 16.7724C9.79219 16.3054 9.79972 16.2452 9.96541 16.072C10.342 15.6653 10.9746 15.4318 13.2943 14.8444C14.1077 14.6335 15.2148 14.3021 15.742 14.1063C17.0223 13.6393 19.4248 12.4268 20.5395 11.6812C21.5863 10.9883 21.737 10.9582 22.347 11.3046ZM12.3453 20.523C13.9269 20.9824 15.3278 21.118 17.9336 21.0653C19.8918 21.0276 21.0968 20.9071 22.8365 20.5983C23.1905 20.5381 23.4993 20.4854 23.537 20.4854C23.6198 20.4854 23.5972 23.3774 23.5068 24.1381C23.4089 24.9439 23.1905 25.569 22.957 25.7197C22.716 25.8778 21.511 26.0435 19.8993 26.1339C16.593 26.3146 13.1964 26.1339 12.142 25.7121C11.5696 25.4787 11.5093 25.1774 11.5018 22.3833C11.5018 20.523 11.5169 20.2669 11.6148 20.3046C11.675 20.3272 12.0064 20.4251 12.3453 20.523ZM14.1303 26.9247C14.6725 26.9925 15.26 27.0603 15.4407 27.0828L15.7646 27.1205L15.4784 27.4368C15.1093 27.836 14.5445 28.6343 14.3411 29.041C14.1077 29.5079 14.0324 29.5381 13.6859 29.3498L13.3922 29.1841L13.2265 28.1598C13.1361 27.6025 13.0382 27.0678 13.0156 26.9774C12.9478 26.7816 12.8801 26.7816 14.1303 26.9247ZM22.1587 26.8418C22.1587 26.8569 22.1211 27.0527 22.0834 27.2711C22.0382 27.4971 21.8499 28.7247 21.6616 30.005C21.2775 32.6787 21.0215 33.9364 20.788 34.3582C20.4642 34.923 19.6884 35.2544 18.4307 35.3598C17.9411 35.3975 16.465 35.2996 16.3821 35.2243C16.3219 35.1565 17.6173 33.5523 17.8206 33.4469C18.0089 33.3414 18.0616 33.3565 18.7018 33.6879C19.4474 34.0795 19.824 34.1397 19.824 33.8912C19.824 33.6427 19.6282 33.4017 19.1462 33.0703C18.7018 32.754 18.5437 32.5732 18.5437 32.3623C18.5437 32.3021 18.7621 31.9632 19.0257 31.6092C19.2893 31.2552 19.6734 30.6904 19.8692 30.3515L20.2382 29.7414L20.5771 29.7866C21.2625 29.8845 21.4432 29.877 21.4206 29.7264C21.4056 29.651 21.2775 29.4326 21.1344 29.2519C20.9914 29.0636 20.8784 28.8753 20.8784 28.8377C20.8784 28.6946 21.5788 27.3766 21.8047 27.0979C22.0006 26.8569 22.1587 26.7364 22.1587 26.8418ZM17.4516 27.4444C17.8282 27.6929 19.2441 28.9205 19.3344 29.0711C19.3721 29.1389 17.9185 31.4134 17.6324 31.7372C17.6022 31.7749 17.4441 31.6996 17.2859 31.5791C17.1278 31.451 16.5403 31.0444 15.9755 30.6753L14.9587 30.005L15.5688 28.9732C16.6533 27.1582 16.6307 27.1883 16.8642 27.1883C16.9847 27.1883 17.2483 27.3013 17.4516 27.4444ZM20.306 27.7155C20.0424 28.0393 19.824 28.2427 19.7336 28.2427C19.5378 28.2427 19.2215 28.0695 18.6868 27.6778L18.2424 27.354L19.1311 27.3013C19.6131 27.2787 20.0801 27.2485 20.1629 27.2335C20.7654 27.1356 20.7654 27.1431 20.306 27.7155ZM14.6123 31.3381C15.3052 31.6092 16.4801 32.2494 16.819 32.5356C17.06 32.7314 17.06 32.7464 16.9621 32.9874C16.9018 33.123 16.6985 33.4845 16.4951 33.7933C16.2993 34.0946 16.0734 34.4711 15.9905 34.6293C15.7495 35.0962 15.6742 35.1339 15.1771 34.9983C14.6424 34.8402 14.3562 34.569 14.2056 34.0795C14.0022 33.3941 13.6784 31.4586 13.716 31.1573C13.7311 31.0444 14.0474 31.1121 14.6123 31.3381Z" />
  </symbol>

<symbol id="close-icon" viewBox="0 0 32 32">
<path d="M18.148 16l12.632-12.632c0.25-0.292 0.38-0.666 0.365-1.050s-0.174-0.747-0.445-1.019c-0.271-0.271-0.635-0.43-1.018-0.445s-0.759 0.116-1.050 0.365l-12.632 12.632-12.632-12.648c-0.287-0.287-0.676-0.448-1.082-0.448s-0.795 0.161-1.082 0.448c-0.287 0.287-0.448 0.676-0.448 1.082s0.161 0.795 0.448 1.082l12.648 12.632-12.648 12.632c-0.159 0.137-0.289 0.305-0.381 0.494s-0.143 0.395-0.151 0.605c-0.008 0.21 0.027 0.419 0.104 0.615s0.193 0.373 0.341 0.522 0.326 0.265 0.522 0.341c0.196 0.077 0.405 0.112 0.615 0.104s0.416-0.060 0.605-0.151 0.357-0.221 0.494-0.381l12.648-12.632 12.632 12.632c0.291 0.25 0.666 0.38 1.050 0.365s0.747-0.174 1.018-0.445c0.272-0.272 0.43-0.635 0.445-1.019s-0.116-0.758-0.365-1.050l-12.632-12.632z"></path>
</symbol>


<symbol id="menu-hamburger" width="32" height="22" viewBox="0 0 32 22" fill="none">
<g clip-path="url(#clip0_297053_2156)">
<path d="M1.34766 20.0431H30.8861M1.34766 10.7354H30.8861M1.34766 1.42773H30.8861" stroke-width="3" stroke-linecap="round" stroke-linejoin="round"/>
</g>
<defs>
<clipPath>
<rect width="32" height="22"/>
</clipPath>
</defs>
</symbol>

<symbol id="eva_menu-fill" width="32" height="32" viewBox="0 0 32 32" fill="none">
<rect width="32" height="32"/>
<g clip-path="url(#clip0_0_1)">
<rect width="320" height="6603" transform="translate(-268 -17)"/>
<g id="&#209;&#129;&#209;&#130;&#208;&#176;&#209;&#128;&#209;&#130;&#208;&#190;&#208;&#178;&#208;&#176; &#209;&#129;&#209;&#130;&#208;&#190;&#209;&#128;&#209;&#150;&#208;&#189;&#208;&#186;&#208;&#176;">
<rect id="Rectangle 2" x="-268" y="-17" width="320" height="502"/>
<g id="header">
<g id="eva:menu-fill">
<path id="Vector" d="M26.7333 14H5.26667C4.56711 14 4 14.4253 4 14.95V15.05C4 15.5747 4.56711 16 5.26667 16H26.7333C27.4329 16 28 15.5747 28 15.05V14.95C28 14.4253 27.4329 14 26.7333 14Z"/>
<path id="Vector_2" d="M26.7333 20H5.26667C4.56711 20 4 20.4253 4 20.95V21.05C4 21.5747 4.56711 22 5.26667 22H26.7333C27.4329 22 28 21.5747 28 21.05V20.95C28 20.4253 27.4329 20 26.7333 20Z"/>
<path id="Vector_3" d="M26.7333 8H5.26667C4.56711 8 4 8.42533 4 8.95V9.05C4 9.57467 4.56711 10 5.26667 10H26.7333C27.4329 10 28 9.57467 28 9.05V8.95C28 8.42533 27.4329 8 26.7333 8Z"/>
</g>
</g>
</g>
</g>
<defs>
<clipPath id="clip0_0_1">
<rect width="320" height="6603" transform="translate(-268 -17)"/>
</clipPath>
</defs>
</symbol>




  </defs>
</svg>