<svg aria-hidden="true" style="position: absolute; width: 0; height: 0; overflow: hidden;" version="1.1" xmlns="http://www.w3.org/2000/svg" xmlns:xlink="http://www.w3.org/1999/xlink">
<defs>
<symbol id="arrow" viewBox="0 0 54 32">
<path fill="#ff6b09" style="fill: var(--color1, #ff6b09)" d="M2 14c-1.105 0-2 0.895-2 2s0.895 2 2 2v-4zM53.414 17.414c0.781-0.781 0.781-2.047 0-2.828l-12.728-12.728c-0.781-0.781-2.047-0.781-2.828 0s-0.781 2.047 0 2.828l11.314 11.314-11.314 11.314c-0.781 0.781-0.781 2.047 0 2.828s2.047 0.781 2.828 0l12.728-12.728zM2 18h50v-4h-50v4z"></path>
</symbol>
<symbol id="book" viewBox="0 0 44 32">
<path fill="#fff" style="fill: var(--color2, #fff)" d="M19.6 4.608h-13.64v1.021h13.64v-1.021z"></path>
<path fill="#fff" style="fill: var(--color2, #fff)" d="M19.6 8.416h-11.597v1.021h11.597v-1.021z"></path>
<path fill="#fff" style="fill: var(--color2, #fff)" d="M19.6 12.224h-13.64v1.021h13.64v-1.021z"></path>
<path fill="#fff" style="fill: var(--color2, #fff)" d="M19.6 16.032h-11.597v1.021h11.597v-1.021z"></path>
<path fill="#fff" style="fill: var(--color2, #fff)" d="M19.6 19.84h-13.64v1.021h13.64v-1.021z"></path>
<path fill="#fff" style="fill: var(--color2, #fff)" d="M19.6 23.648h-11.597v1.021h11.597v-1.021z"></path>
<path fill="#fff" style="fill: var(--color2, #fff)" d="M38.323 4.608h-13.64v1.021h13.64v-1.021z"></path>
<path fill="#fff" style="fill: var(--color2, #fff)" d="M36.281 8.416h-11.597v1.021h11.597v-1.021z"></path>
<path fill="#fff" style="fill: var(--color2, #fff)" d="M38.323 12.224h-13.64v1.021h13.64v-1.021z"></path>
<path fill="#fff" style="fill: var(--color2, #fff)" d="M36.281 16.032h-11.597v1.021h11.597v-1.021z"></path>
<path fill="#fff" style="fill: var(--color2, #fff)" d="M38.323 19.84h-13.64v1.021h13.64v-1.021z"></path>
<path fill="#fff" style="fill: var(--color2, #fff)" d="M36.281 23.648h-11.597v1.021h11.597v-1.021z"></path>
<path fill="#fff" style="fill: var(--color2, #fff)" d="M43.248 3.445h-1.872v-2.812c0-0.282-0.229-0.511-0.511-0.511h-15.265c-1.49 0-2.781 0.805-3.458 2.011-0.678-1.206-1.97-2.011-3.459-2.011h-15.265c-0.282 0-0.511 0.229-0.511 0.511v2.812h-1.872c-0.282 0-0.511 0.229-0.511 0.511v27.411c0 0.282 0.229 0.511 0.511 0.511 5.127 0 37.068 0 42.213 0 0.282 0 0.511-0.229 0.511-0.511v-27.411c0-0.282-0.229-0.511-0.511-0.511zM25.601 1.144h14.754c0 4.573 0 16.619 0 27.35h-15.843c-0.702 0-1.405 0.296-1.859 0.68v-25.089c0-1.63 1.305-2.942 2.948-2.942zM3.929 1.144h14.754c1.597 0 2.889 1.243 2.942 2.829 0.001 0.022 0.003 0.091 0.006 0.112v25.087c-0.453-0.383-1.148-0.678-1.852-0.678h-15.85c0-10.728 0-22.779 0-27.35zM1.546 4.467h1.362v24.538c0 0.282 0.229 0.511 0.511 0.511h16.361c0.778 0 1.531 0.511 1.771 1.341h-20.005v-26.39zM42.738 30.856h-20.004c0.242-0.834 0.987-1.341 1.778-1.341h16.354c0.282 0 0.511-0.229 0.511-0.511v-24.538h1.362v26.39z"></path>
</symbol>
<symbol id="btn_close_modal" viewBox="0 0 34 32">
<path fill="none" stroke="#fff" style="stroke: var(--color2, #fff)" stroke-linejoin="miter" stroke-linecap="butt" stroke-miterlimit="4" stroke-width="4" d="M2.004 30.496l28.991-28.991"></path>
<path fill="none" stroke="#fff" style="stroke: var(--color2, #fff)" stroke-linejoin="miter" stroke-linecap="butt" stroke-miterlimit="4" stroke-width="4" d="M30.996 30.496l-28.991-28.991"></path>
</symbol>
<symbol id="btn_open_modal" viewBox="0 0 48 32">
<path stroke-linejoin="miter" stroke-linecap="butt" stroke-miterlimit="4" stroke-width="4.5714" d="M0 2.286h46.857"></path>
<path stroke-linejoin="miter" stroke-linecap="butt" stroke-miterlimit="4" stroke-width="4.5714" d="M0 16h46.857"></path>
<path stroke-linejoin="miter" stroke-linecap="butt" stroke-miterlimit="4" stroke-width="4.5714" d="M0 29.714h46.857"></path>
</symbol>
<symbol id="check_mark_tablet_mobile" viewBox="0 0 41 32">
<path fill="#ff6b09" style="fill: var(--color1, #ff6b09)" d="M34.457 1.514c-1.484 0.664-2.907 1.475-4.265 2.379-2.731 1.797-5.228 3.936-7.57 6.218-2.341 2.287-4.52 4.735-6.581 7.28-0.515 0.636-2.823 3.47-2.823 3.47l-9.596-14.38-3.623 10.042 12.977 15.477c1.26-2.551 2.473-5.070 3.662-7.258 0.296-0.556 0.605-1.080 0.901-1.612 0 0 1.523-2.677 1.923-3.352 1.602-2.697 3.333-5.325 5.239-7.821 1.908-2.491 3.983-4.87 6.335-6.961 1.17-1.052 2.416-2.025 3.751-2.872 1.332-0.848 2.747-1.591 4.261-2.125-1.575 0.31-3.111 0.848-4.592 1.514z"></path>
</symbol>
<symbol id="check_mark" viewBox="0 0 40 32">
<path fill="#ff6b09" style="fill: var(--color1, #ff6b09)" d="M34.457 1.514c-1.484 0.664-2.907 1.475-4.265 2.379-2.731 1.797-5.228 3.936-7.57 6.218-2.341 2.287-4.52 4.735-6.581 7.28-0.515 0.636-2.823 3.47-2.823 3.47l-9.596-14.38-3.623 10.042 12.977 15.477c1.26-2.551 2.473-5.070 3.662-7.258 0.296-0.556 0.605-1.080 0.901-1.612 0 0 1.523-2.677 1.924-3.352 1.601-2.697 3.332-5.325 5.239-7.821 1.908-2.491 3.983-4.87 6.335-6.961 1.17-1.052 2.416-2.025 3.751-2.872 1.332-0.848 2.747-1.591 4.261-2.125-1.575 0.31-3.111 0.848-4.592 1.514z"></path>
</symbol>
<symbol id="education_tablet_mobile" viewBox="0 0 32 32">
<path fill="#ff6b09" style="fill: var(--color1, #ff6b09)" d="M29.457 0.256h-15.371c-1.001 0-1.815 0.814-1.815 1.815v6.363l-11.419 4.793c-0.129 0.054-0.217 0.176-0.227 0.316s0.059 0.274 0.18 0.346l1.456 0.872v9.288c-0.745 0.17-1.304 0.836-1.304 1.634v0.895c0 0.205 0.167 0.372 0.372 0.372h2.608c0.205 0 0.372-0.167 0.372-0.372v-0.895c0-0.796-0.559-1.462-1.304-1.633v-8.844l1.151 0.689c-0.035 0.266-0.004-0.463-0.016 4.324 0 1.574 4.031 2.417 8.132 2.465v7.249c0 0.374 0.115 0.723 0.311 1.012 0.326 0.482 0.878 0.8 1.503 0.8h15.371c1 0 1.813-0.814 1.813-1.813 0 0.050-0.002-1.535 0-27.86 0-0.987-0.816-1.815-1.812-1.815zM3.565 25.682v0.523h-1.864v-0.523c0-0.515 0.417-0.935 0.93-0.935 0.515 0 0.934 0.419 0.934 0.935zM29.457 30.998h-15.371c-0.369 0-0.695-0.187-0.887-0.47-0.115-0.171-0.183-0.376-0.183-0.597v-2.513h17.508v2.514c0 0.582-0.485 1.066-1.066 1.066zM30.523 26.675h-17.508v-3.989c2.002-0.023 8.137-0.464 8.137-2.467-0.002-3.007 0.005-4.227-0.009-4.33l3.339-2c0.12-0.072 0.19-0.206 0.18-0.346s-0.098-0.262-0.227-0.316l-11.419-4.793v-3.106h17.508v21.347zM12.643 17.75c-2.063 0-6.034 0.266-7.76 1.393 0.011-3.446-0.12-3.222 0.305-3.514 1.072-0.789 4.137-1.34 7.455-1.34 1.447 0 7.765 0.398 7.765 1.735v3.119c-1.742-1.137-5.693-1.394-7.765-1.394zM13.015 2.071c0-0.59 0.48-1.069 1.069-1.069h15.371c0.59 0 1.067 0.486 1.067 1.069v2.513h-17.508v-2.513zM12.643 9.084l10.826 4.544-2.683 1.605c-1.426-1.414-6.144-1.689-8.143-1.689-2.002 0-6.72 0.275-8.143 1.689l-2.683-1.606 10.827-4.544zM4.883 20.219c0-0.602 2.665-1.725 7.76-1.725 5.098 0 7.765 1.123 7.765 1.725s-2.667 1.726-7.765 1.726c-5.095 0-7.76-1.123-7.76-1.726z"></path>
<path fill="#ff6b09" style="fill: var(--color1, #ff6b09)" d="M21.77 27.979c-0.678 0-1.23 0.551-1.23 1.23s0.552 1.23 1.23 1.23c0.678 0 1.23-0.552 1.23-1.23s-0.552-1.23-1.23-1.23zM21.77 29.696c-0.268 0-0.486-0.218-0.486-0.487s0.218-0.486 0.486-0.486c0.268 0 0.486 0.218 0.486 0.486s-0.218 0.487-0.486 0.487z"></path>
<path fill="#ff6b09" style="fill: var(--color1, #ff6b09)" d="M23.189 2.421h-2.837v0.744h2.837v-0.744z"></path>
</symbol>
<symbol id="education" viewBox="0 0 33 32">
<path fill="#ff6b09" style="fill: var(--color1, #ff6b09)" d="M30.175-0.128h-15.746c-1.025 0-1.859 0.834-1.859 1.859v6.518l-11.698 4.91c-0.132 0.056-0.222 0.181-0.233 0.324s0.061 0.28 0.184 0.354l1.492 0.893v9.515c-0.763 0.174-1.335 0.857-1.335 1.674v0.917c0 0.21 0.171 0.381 0.381 0.381h2.671c0.21 0 0.381-0.171 0.381-0.381v-0.917c0-0.816-0.573-1.498-1.336-1.673v-9.060l1.18 0.706c-0.036 0.272-0.005-0.474-0.017 4.43 0 1.612 4.129 2.476 8.33 2.525v7.425c0 0.384 0.117 0.74 0.318 1.036 0.334 0.494 0.9 0.82 1.54 0.82h15.746c1.024 0 1.857-0.833 1.857-1.857 0 0.051-0.002-1.573 0-28.54 0-1.011-0.836-1.859-1.856-1.859zM3.652 25.918v0.536h-1.909v-0.536c0-0.528 0.427-0.957 0.952-0.957 0.528 0 0.957 0.43 0.957 0.957zM30.175 31.364h-15.746c-0.378 0-0.712-0.191-0.909-0.482-0.118-0.175-0.187-0.385-0.187-0.612v-2.574h17.935v2.575c0 0.597-0.497 1.092-1.092 1.092zM31.267 26.935h-17.935v-4.086c2.051-0.023 8.335-0.475 8.335-2.527-0.002-3.081 0.005-4.33-0.010-4.436l3.421-2.049c0.123-0.074 0.194-0.211 0.184-0.354s-0.1-0.268-0.233-0.324l-11.698-4.91v-3.182h17.935v21.868zM12.951 17.792c-2.113 0-6.182 0.273-7.949 1.427 0.011-3.53-0.122-3.3 0.312-3.6 1.098-0.809 4.238-1.373 7.637-1.373 1.482 0 7.954 0.408 7.954 1.778v3.195c-1.784-1.165-5.832-1.428-7.954-1.428zM13.333 1.731c0-0.604 0.491-1.095 1.095-1.095h15.746c0.604 0 1.093 0.498 1.093 1.095v2.574h-17.935v-2.574zM12.951 8.915l11.090 4.655-2.748 1.644c-1.461-1.449-6.294-1.73-8.342-1.73-2.051 0-6.884 0.282-8.342 1.73l-2.749-1.645 11.091-4.655zM5.002 20.321c0-0.617 2.73-1.767 7.949-1.767 5.222 0 7.954 1.151 7.954 1.767s-2.732 1.768-7.954 1.768c-5.219 0-7.949-1.151-7.949-1.768z"></path>
<path fill="#ff6b09" style="fill: var(--color1, #ff6b09)" d="M22.301 28.271c-0.695 0-1.26 0.565-1.26 1.26s0.565 1.26 1.26 1.26c0.695 0 1.26-0.565 1.26-1.26s-0.565-1.26-1.26-1.26zM22.301 30.030c-0.275 0-0.498-0.224-0.498-0.499s0.223-0.498 0.498-0.498c0.275 0 0.498 0.223 0.498 0.498s-0.223 0.499-0.498 0.499z"></path>
<path fill="#ff6b09" style="fill: var(--color1, #ff6b09)" d="M23.754 2.090h-2.906v0.762h2.906v-0.762z"></path>
</symbol>
<symbol id="finance_tablet_mobile" viewBox="0 0 27 32">
<path fill="#ff6b09" style="fill: var(--color1, #ff6b09)" d="M0.529 13.797c0 0.348-0.529 0.348-0.529 0 0-7.403 6.004-13.407 13.407-13.407 7.406 0 13.407 6.004 13.407 13.407 0 0.348-0.525 0.348-0.525 0 0-5.004-8.223-5.007-8.223 0 0 0.348-0.541 0.348-0.541 0 0-4.991-8.235-4.991-8.235 0 0 0.348-0.541 0.348-0.541 0 0-4.982-8.219-5.017-8.219 0zM8.796 11.854c0.142-2.88 0.595-5.463 1.253-7.435 0.525-1.567 1.19-2.757 1.943-3.425-5.653 0.617-10.229 4.903-11.252 10.46 1.946-2.807 6.441-2.583 8.055 0.399zM17.483 11.724c-0.146-2.769-0.586-5.248-1.218-7.137-1.633-4.89-4.083-4.89-5.716 0-0.633 1.889-1.070 4.368-1.219 7.137 1.757-2.985 6.396-2.985 8.153 0zM26.073 11.455c-1.019-5.558-5.596-9.843-11.252-10.46 0.756 0.668 1.418 1.858 1.943 3.425 0.658 1.972 1.111 4.554 1.253 7.435 1.624-2.997 6.131-3.175 8.055-0.399z"></path>
<path fill="#ff6b09" style="fill: var(--color1, #ff6b09)" d="M11.647 19.932v-2.722c-0.491 0.326-0.877 0.829-0.877 1.444 0 0.598 0.393 0.994 0.877 1.279zM12.176 20.777c-0.94-0.431-1.931-0.934-1.931-2.124 0-1.228 0.934-1.842 1.931-2.301v4.426z"></path>
<path fill="#ff6b09" style="fill: var(--color1, #ff6b09)" d="M15.167 24.039v2.754c0.497-0.329 0.886-0.835 0.886-1.45 0-0.605-0.399-1.013-0.886-1.304zM14.641 23.191c0.943 0.437 1.94 0.956 1.94 2.152 0 1.231-0.94 1.845-1.94 2.301v-4.453z"></path>
<path fill="#ff6b09" style="fill: var(--color1, #ff6b09)" d="M15.167 14.111c2.165 0.5 4.39 2.121 4.39 4.542 0 2.073-3.504 1.997-3.504 0 0-0.617-0.389-1.124-0.886-1.45v3.874c2.003 0.655 4.396 1.829 4.396 4.267 0 2.424-2.225 4.042-4.396 4.539-0.010 2.307-3.513 2.304-3.519-0.003-1.234-0.285-2.307-0.861-3.083-1.624-0.813-0.804-1.295-1.814-1.295-2.912 0-2.042 3.5-2.042 3.5 0 0 0.611 0.386 1.114 0.877 1.44v-3.871c-1.988-0.643-4.393-1.852-4.393-4.267 0-2.424 2.225-4.042 4.393-4.539 0.009-2.307 3.513-2.304 3.519 0.003zM12.176 14.117v0.421c-2.060 0.408-4.396 1.728-4.396 4.108 0 2.288 2.564 3.314 4.396 3.88v5.115c-0.991-0.453-1.931-1.064-1.931-2.298 0-1.348-2.45-1.348-2.45 0 0 0.953 0.424 1.833 1.139 2.535 0.908 0.899 2.010 1.326 3.241 1.57v0.424c0 1.624 2.466 1.624 2.466 0v-0.421c2.067-0.411 4.393-1.731 4.393-4.108 0-2.31-2.557-3.304-4.393-3.884v-5.112c0.994 0.453 1.94 1.063 1.94 2.304 0 1.313 2.447 1.367 2.447 0 0-2.377-2.323-3.7-4.387-4.111v-0.424c0-1.624-2.466-1.624-2.466 0z"></path>
</symbol>
<symbol id="finance" viewBox="0 0 28 32">
<path fill="#ff6b09" style="fill: var(--color1, #ff6b09)" d="M0.542 13.742c0 0.357-0.542 0.357-0.542 0 0-7.588 6.154-13.742 13.742-13.742 7.591 0 13.742 6.154 13.742 13.742 0 0.357-0.539 0.357-0.539 0 0-5.129-8.428-5.132-8.428 0 0 0.357-0.555 0.357-0.555 0 0-5.116-8.441-5.116-8.441 0 0 0.357-0.555 0.357-0.555 0 0-5.106-8.425-5.142-8.425 0zM9.015 11.75c0.146-2.952 0.61-5.599 1.285-7.62 0.539-1.606 1.22-2.826 1.992-3.51-5.794 0.633-10.485 5.025-11.533 10.722 1.995-2.878 6.602-2.647 8.256 0.409zM17.921 11.617c-0.149-2.839-0.6-5.379-1.249-7.316-1.674-5.012-4.185-5.012-5.859 0-0.649 1.937-1.097 4.477-1.249 7.316 1.8-3.059 6.556-3.059 8.357 0zM26.725 11.341c-1.045-5.697-5.736-10.089-11.533-10.722 0.775 0.684 1.453 1.904 1.992 3.51 0.675 2.021 1.139 4.668 1.285 7.62 1.664-3.072 6.284-3.254 8.256-0.409z"></path>
<path fill="#ff6b09" style="fill: var(--color1, #ff6b09)" d="M11.938 20.030v-2.791c-0.503 0.334-0.899 0.85-0.899 1.48 0 0.613 0.402 1.019 0.899 1.311zM12.48 20.896c-0.964-0.441-1.979-0.957-1.979-2.177 0-1.259 0.957-1.888 1.979-2.359v4.536z"></path>
<path fill="#ff6b09" style="fill: var(--color1, #ff6b09)" d="M15.546 24.24v2.822c0.509-0.337 0.908-0.856 0.908-1.486 0-0.62-0.409-1.038-0.908-1.337zM15.007 23.371c0.967 0.448 1.989 0.98 1.989 2.206 0 1.262-0.963 1.891-1.989 2.358v-4.564z"></path>
<path fill="#ff6b09" style="fill: var(--color1, #ff6b09)" d="M15.546 14.063c2.219 0.513 4.5 2.174 4.5 4.655 0 2.125-3.591 2.047-3.591 0 0-0.633-0.399-1.152-0.908-1.486v3.971c2.054 0.672 4.506 1.875 4.506 4.373 0 2.485-2.281 4.143-4.506 4.652-0.010 2.365-3.601 2.362-3.607-0.003-1.265-0.292-2.365-0.882-3.16-1.664-0.834-0.824-1.327-1.859-1.327-2.985 0-2.093 3.588-2.093 3.588 0 0 0.626 0.396 1.142 0.899 1.476v-3.968c-2.037-0.659-4.503-1.898-4.503-4.373 0-2.485 2.281-4.143 4.503-4.652 0.010-2.365 3.601-2.362 3.607 0.003zM12.48 14.070v0.431c-2.112 0.419-4.506 1.771-4.506 4.211 0 2.346 2.628 3.397 4.506 3.977v5.243c-1.015-0.464-1.979-1.090-1.979-2.355 0-1.382-2.511-1.382-2.511 0 0 0.976 0.435 1.878 1.168 2.599 0.931 0.921 2.060 1.359 3.322 1.609v0.435c0 1.664 2.527 1.664 2.527 0v-0.431c2.118-0.422 4.503-1.775 4.503-4.211 0-2.368-2.621-3.387-4.503-3.981v-5.239c1.019 0.464 1.989 1.090 1.989 2.362 0 1.346 2.508 1.401 2.508 0 0-2.436-2.381-3.792-4.496-4.214v-0.435c0-1.664-2.527-1.664-2.527 0z"></path>
</symbol>
<symbol id="fire_icon" viewBox="0 0 23 32">
<path fill="#ff6b09" style="fill: var(--color1, #ff6b09)" d="M21.908 16.593c-0.284-0.635-0.675-1.261-1.247-1.983-1.442-1.813-1.882-5.857-1.887-5.896-0.020-0.194-0.156-0.354-0.337-0.412-0.186-0.058-0.386-0.005-0.518 0.141-1.721 1.925-0.997 4.897-0.606 6.085 0.108 0.325 0.225 0.708 0.308 1.096 0.636 3.137-0.592 4.558-0.88 4.844-0.279 0.078-0.469 0.039-0.645-0.15-0.606-0.664-0.807-2.841-0.523-5.678 0.059-0.577 0.044-1.096-0.039-1.581-0.598-3.486-2.791-5.722-3.349-6.507-1.535-2.269-1.691-6.046-1.696-6.080-0.005-0.179-0.108-0.339-0.269-0.417-0.156-0.078-0.347-0.068-0.494 0.034-2.562 1.741-2.342 5.935-1.985 8.276 0.083 0.543 0.244 1.096 0.523 1.794 0.992 2.497-0.196 5.721-0.205 5.75s-0.020 0.053-0.024 0.082c-0.152 0.795-0.406 1.27-0.689 1.27-0.029 0-0.059-0.005-0.093-0.015-0.347-0.073-0.528-0.441-0.533-0.761-0.020-4.136-4.17-5.527-4.214-5.542-0.186-0.058-0.391-0.005-0.518 0.145-0.132 0.15-0.156 0.359-0.068 0.533 0.049 0.102 0.205 0.548 0.098 2.124-0.093 1.416-0.352 2.817-0.768 4.16-0.988 3.219-0.831 6.269-0.821 6.415 0.759 8.257 12.635 9.704 19.683 5.052 0.772-0.509 1.403-1.091 1.868-1.731 2.601-3.588 1.071-8.461-0.068-11.050zM3.844 24.481c0.015 0.267-0.191 0.494-0.46 0.509h-0.029c-0.259 0-0.474-0.199-0.489-0.456-0.044-0.708-0.034-1.45 0.020-2.255 0.020-0.267 0.254-0.465 0.523-0.451 0.269 0.019 0.474 0.252 0.455 0.519-0.054 0.766-0.064 1.464-0.020 2.133zM4.084 20.186c-0.029 0.247-0.24 0.427-0.484 0.427-0.020 0-0.039 0-0.064-0.005-0.264-0.034-0.455-0.272-0.425-0.538l0.235-1.871c0.034-0.262 0.274-0.451 0.548-0.422 0.269 0.034 0.46 0.276 0.425 0.543l-0.235 1.867z"></path>
</symbol>
<symbol id="fire_tablet_mobile" viewBox="0 0 24 32">
<path fill="#ff6b09" style="fill: var(--color1, #ff6b09)" d="M21.908 16.593c-0.284-0.635-0.675-1.261-1.247-1.983-1.442-1.813-1.882-5.857-1.887-5.896-0.020-0.194-0.156-0.354-0.337-0.412-0.186-0.058-0.386-0.005-0.518 0.141-1.721 1.925-0.997 4.897-0.606 6.085 0.108 0.325 0.225 0.708 0.308 1.096 0.636 3.137-0.592 4.558-0.88 4.844-0.279 0.078-0.469 0.039-0.645-0.15-0.606-0.664-0.807-2.841-0.523-5.678 0.059-0.577 0.044-1.096-0.039-1.581-0.598-3.486-2.791-5.722-3.349-6.507-1.535-2.269-1.692-6.046-1.696-6.080-0.005-0.179-0.108-0.339-0.269-0.417-0.156-0.078-0.347-0.068-0.494 0.034-2.562 1.741-2.342 5.935-1.985 8.276 0.083 0.543 0.244 1.096 0.523 1.794 0.992 2.497-0.196 5.721-0.205 5.75s-0.020 0.053-0.024 0.082c-0.152 0.795-0.406 1.27-0.689 1.27-0.029 0-0.059-0.005-0.093-0.015-0.347-0.073-0.528-0.441-0.533-0.761-0.020-4.136-4.17-5.527-4.214-5.542-0.186-0.058-0.391-0.005-0.518 0.145-0.132 0.15-0.156 0.359-0.068 0.533 0.049 0.102 0.205 0.548 0.098 2.124-0.093 1.416-0.352 2.817-0.768 4.16-0.988 3.219-0.831 6.269-0.821 6.415 0.759 8.257 12.635 9.704 19.683 5.052 0.772-0.509 1.403-1.091 1.868-1.731 2.601-3.588 1.071-8.46-0.068-11.050zM3.844 24.481c0.015 0.267-0.191 0.495-0.46 0.509h-0.029c-0.259 0-0.474-0.199-0.489-0.456-0.044-0.708-0.034-1.45 0.020-2.255 0.020-0.267 0.254-0.465 0.523-0.451 0.269 0.019 0.474 0.252 0.455 0.519-0.054 0.766-0.064 1.464-0.020 2.133zM4.083 20.185c-0.029 0.247-0.24 0.427-0.484 0.427-0.020 0-0.039 0-0.064-0.005-0.264-0.034-0.455-0.272-0.425-0.538l0.235-1.872c0.034-0.262 0.274-0.451 0.548-0.422 0.269 0.034 0.46 0.276 0.425 0.543l-0.235 1.867z"></path>
</symbol>
<symbol id="listen_english" viewBox="0 0 37 32">
<path fill="#ff6b09" style="fill: var(--color1, #ff6b09)" d="M2.381 29.453h12.23c0.62 1.285 1.917 2.116 3.38 2.116h0.772c1.465 0 2.761-0.83 3.381-2.116h12.237c1.26 0 2.286-1.025 2.286-2.286v-21.905c0-1.26-1.025-2.286-2.286-2.286h-1.234v-1.021c0-0.84-0.684-1.524-1.524-1.524h-26.491c-0.84 0-1.524 0.683-1.524 1.524v1.021h-1.227c-1.26 0-2.286 1.025-2.286 2.286v21.905c0 1.26 1.025 2.286 2.286 2.286zM31.621 24.752h-12.478v-17.705c2.884 0.377 5.121 2.845 5.121 5.831v0.687l-0.181-0.040c-0.196-0.042-0.403-0.007-0.574 0.102s-0.291 0.281-0.334 0.478l-1.213 5.519c-0.090 0.41 0.17 0.816 0.58 0.907l2.621 0.578c0.135 0.029 0.273 0.043 0.411 0.043 0.922 0 1.707-0.631 1.908-1.535l0.702-3.192c0.231-1.048-0.433-2.090-1.484-2.324l-0.912-0.201v-1.023c0-3.827-2.917-6.986-6.644-7.37v-3.551h12.48l-0.001 22.796zM24.499 15.177l1.871 0.412c0.234 0.052 0.376 0.275 0.325 0.508l-0.702 3.191c-0.051 0.231-0.306 0.374-0.507 0.331l-1.874-0.413 0.886-4.030zM5.132 1.956h12.487v3.55c-3.731 0.381-6.652 3.541-6.652 7.371v1.022l-0.914 0.202c-0.509 0.113-0.943 0.416-1.222 0.854-0.28 0.439-0.373 0.961-0.26 1.468l0.7 3.188c0.19 0.892 0.993 1.54 1.909 1.54 0.138 0 0.275-0.015 0.416-0.045l2.61-0.577c0.41-0.091 0.67-0.496 0.58-0.907l-1.213-5.519c-0.043-0.198-0.164-0.37-0.334-0.478s-0.378-0.144-0.574-0.102l-0.174 0.038v-0.686c0-2.988 2.24-5.458 5.128-5.832v17.706h-12.487v-22.796zM12.249 15.177l0.887 4.029-1.863 0.411c-0.229 0.052-0.463-0.1-0.512-0.328l-0.702-3.196c-0.025-0.111-0.005-0.224 0.055-0.319 0.061-0.096 0.157-0.162 0.268-0.187l1.867-0.412zM1.619 5.262c0-0.42 0.341-0.762 0.762-0.762h1.227v20.252c0 0.84 0.684 1.524 1.524 1.524h26.491c0.84 0 1.524-0.683 1.524-1.524v-20.252h1.234c0.42 0 0.762 0.342 0.762 0.762v21.905c0 0.42-0.342 0.762-0.762 0.762h-12.754c-0.335 0-0.63 0.218-0.728 0.538-0.289 0.943-1.147 1.577-2.135 1.577h-0.772c-0.984 0-1.841-0.631-2.138-1.586-0.101-0.315-0.394-0.529-0.725-0.529h-12.747c-0.42 0-0.762-0.342-0.762-0.762v-21.905z"></path>
</symbol>
<symbol id="logo_mobile" viewBox="0 0 88 32">
<path fill="#111518" style="fill: var(--color3, #111518)" d="M12.345 4.848v12.975h-3.67v-5.060h-5.005v5.060h-3.67v-12.975h3.67v4.875h5.005v-4.875h3.67z"></path>
<path fill="#111518" style="fill: var(--color3, #111518)" d="M25.777 12.818c0 0.025-0.019 0.315-0.056 0.871h-7.303c0.148 0.519 0.433 0.921 0.853 1.205 0.433 0.272 0.97 0.408 1.613 0.408 0.482 0 0.896-0.068 1.242-0.204 0.358-0.136 0.717-0.358 1.075-0.667l1.854 1.928c-0.976 1.087-2.403 1.631-4.282 1.631-1.174 0-2.206-0.222-3.096-0.667s-1.582-1.063-2.076-1.854c-0.482-0.791-0.723-1.687-0.723-2.688 0-0.989 0.235-1.872 0.704-2.651 0.482-0.791 1.143-1.409 1.983-1.854s1.786-0.667 2.836-0.667c1.001 0 1.909 0.21 2.725 0.63 0.816 0.408 1.458 1.007 1.928 1.798 0.482 0.778 0.723 1.705 0.723 2.78zM20.42 10.112c-0.544 0-1.001 0.154-1.372 0.463-0.358 0.309-0.587 0.729-0.686 1.26h4.115c-0.099-0.531-0.334-0.951-0.704-1.26-0.358-0.309-0.809-0.463-1.353-0.463z"></path>
<path fill="#111518" style="fill: var(--color3, #111518)" d="M28.142 4.069h3.522v13.753h-3.522v-13.753z"></path>
<path fill="#111518" style="fill: var(--color3, #111518)" d="M34.694 4.069h3.522v13.753h-3.522v-13.753z"></path>
<path fill="#111518" style="fill: var(--color3, #111518)" d="M3.328 29.8h-1.854l-0.354 0.855h-0.947l1.779-3.992h0.913l1.785 3.992h-0.97l-0.354-0.855zM3.037 29.098l-0.633-1.528-0.633 1.528h1.266z"></path>
<path fill="#111518" style="fill: var(--color3, #111518)" d="M10.358 29.902v1.58h-0.855v-0.827h-2.817v0.827h-0.856l0.006-1.58h0.16c0.24-0.008 0.409-0.183 0.508-0.525s0.16-0.831 0.183-1.466l0.046-1.249h3.068v3.239h0.559zM7.501 27.997c-0.019 0.475-0.059 0.874-0.12 1.198-0.061 0.319-0.154 0.555-0.279 0.707h1.785v-2.487h-1.369l-0.017 0.582z"></path>
<path fill="#111518" style="fill: var(--color3, #111518)" d="M13.895 30.724c-0.407 0-0.776-0.087-1.106-0.262-0.327-0.179-0.585-0.424-0.776-0.736-0.186-0.316-0.28-0.671-0.28-1.066s0.093-0.749 0.28-1.061c0.19-0.316 0.449-0.561 0.776-0.736 0.331-0.179 0.702-0.268 1.112-0.268 0.346 0 0.658 0.061 0.935 0.183 0.281 0.122 0.517 0.297 0.707 0.525l-0.593 0.548c-0.27-0.312-0.604-0.468-1.004-0.468-0.247 0-0.468 0.055-0.662 0.165-0.194 0.106-0.346 0.257-0.456 0.451-0.106 0.194-0.16 0.414-0.16 0.662s0.053 0.468 0.16 0.662c0.11 0.194 0.262 0.346 0.456 0.456 0.194 0.106 0.414 0.16 0.662 0.16 0.399 0 0.734-0.158 1.004-0.473l0.593 0.548c-0.19 0.232-0.426 0.409-0.707 0.53s-0.595 0.183-0.941 0.183z"></path>
<path fill="#111518" style="fill: var(--color3, #111518)" d="M18.717 29.047h-0.639v1.608h-0.918v-3.992h0.918v1.614h0.662l1.049-1.614h0.975l-1.306 1.928 1.346 2.065h-1.049l-1.038-1.608z"></path>
<path fill="#111518" style="fill: var(--color3, #111518)" d="M22.264 26.663h0.918v2.601l1.905-2.601h0.867v3.992h-0.913v-2.595l-1.905 2.595h-0.873v-3.992z"></path>
<path fill="#111518" style="fill: var(--color3, #111518)" d="M27.975 26.663h0.918v2.601l1.905-2.601h0.867v3.992h-0.913v-2.595l-1.905 2.595h-0.873v-3.992zM29.817 26.406c-0.73 0-1.099-0.291-1.106-0.873h0.633c0.008 0.278 0.165 0.416 0.473 0.416 0.152 0 0.268-0.034 0.348-0.103 0.080-0.072 0.122-0.177 0.126-0.314h0.633c-0.004 0.285-0.097 0.502-0.279 0.65s-0.458 0.222-0.827 0.222z"></path>
<path fill="#111518" style="fill: var(--color3, #111518)" d="M39.031 29.8h-1.854l-0.354 0.855h-0.947l1.779-3.992h0.912l1.785 3.992h-0.969l-0.354-0.855zM38.74 29.098l-0.633-1.528-0.633 1.528h1.266z"></path>
<path fill="#111518" style="fill: var(--color3, #111518)" d="M45.571 26.663v3.992h-0.924v-1.637h-1.814v1.637h-0.924v-3.992h0.924v1.574h1.814v-1.574h0.924z"></path>
<path fill="#111518" style="fill: var(--color3, #111518)" d="M50.41 27.416h-1.899l0.006 3.239h-0.918v-3.992h2.817l-0.006 0.753z"></path>
<path fill="#111518" style="fill: var(--color3, #111518)" d="M55.069 26.663v3.992h-0.913v-3.239h-1.369l-0.028 0.833c-0.019 0.567-0.065 1.027-0.137 1.38-0.072 0.35-0.194 0.62-0.365 0.81-0.167 0.186-0.403 0.279-0.707 0.279-0.125 0-0.278-0.021-0.456-0.063l0.057-0.781c0.049 0.015 0.105 0.023 0.165 0.023 0.221 0 0.374-0.129 0.462-0.388 0.087-0.262 0.143-0.671 0.165-1.226l0.057-1.62h3.068z"></path>
<path fill="#111518" style="fill: var(--color3, #111518)" d="M57.092 26.663h0.918v2.601l1.905-2.601h0.867v3.992h-0.913v-2.595l-1.905 2.595h-0.873v-3.992z"></path>
<path fill="#111518" style="fill: var(--color3, #111518)" d="M62.803 26.663h0.918v2.601l1.905-2.601h0.867v3.992h-0.913v-2.595l-1.905 2.595h-0.873v-3.992zM64.645 26.406c-0.73 0-1.099-0.291-1.107-0.873h0.633c0.007 0.278 0.165 0.416 0.473 0.416 0.152 0 0.268-0.034 0.348-0.103 0.080-0.072 0.122-0.177 0.125-0.314h0.633c-0.004 0.285-0.097 0.502-0.279 0.65s-0.458 0.222-0.827 0.222z"></path>
<path fill="#111518" style="fill: var(--color3, #111518)" d="M70.401 30.724c-0.407 0-0.776-0.087-1.106-0.262-0.327-0.179-0.586-0.424-0.776-0.736-0.186-0.316-0.279-0.671-0.279-1.066s0.093-0.749 0.279-1.061c0.19-0.316 0.449-0.561 0.776-0.736 0.331-0.179 0.701-0.268 1.112-0.268 0.346 0 0.658 0.061 0.935 0.183 0.281 0.122 0.517 0.297 0.707 0.525l-0.593 0.548c-0.27-0.312-0.605-0.468-1.004-0.468-0.247 0-0.468 0.055-0.662 0.165-0.194 0.106-0.346 0.257-0.456 0.451-0.106 0.194-0.16 0.414-0.16 0.662s0.053 0.468 0.16 0.662c0.11 0.194 0.262 0.346 0.456 0.456 0.194 0.106 0.414 0.16 0.662 0.16 0.399 0 0.734-0.158 1.004-0.473l0.593 0.548c-0.19 0.232-0.426 0.409-0.707 0.53s-0.595 0.183-0.941 0.183z"></path>
<path fill="#111518" style="fill: var(--color3, #111518)" d="M75.224 29.047h-0.639v1.608h-0.918v-3.992h0.918v1.614h0.662l1.049-1.614h0.975l-1.306 1.928 1.346 2.065h-1.049l-1.038-1.608z"></path>
<path fill="#111518" style="fill: var(--color3, #111518)" d="M78.771 26.663h0.918v2.601l1.905-2.601h0.867v3.992h-0.913v-2.595l-1.905 2.595h-0.873v-3.992z"></path>
<path fill="#111518" style="fill: var(--color3, #111518)" d="M84.481 26.663h0.918v2.601l1.905-2.601h0.867v3.992h-0.913v-2.595l-1.905 2.595h-0.873v-3.992zM86.324 26.406c-0.73 0-1.099-0.291-1.106-0.873h0.633c0.008 0.278 0.165 0.416 0.473 0.416 0.152 0 0.268-0.034 0.348-0.103 0.080-0.072 0.122-0.177 0.125-0.314h0.633c-0.004 0.285-0.097 0.502-0.279 0.65s-0.458 0.222-0.827 0.222z"></path>
<path fill="#111518" style="fill: var(--color3, #111518)" d="M73.153 14.987v2.836h-10.417v-12.975h10.176v2.836h-6.543v2.187h5.765v2.743h-5.765v2.373h6.784z"></path>
<path fill="#111518" style="fill: var(--color3, #111518)" d="M88.276 4.848v12.975h-3.021l-5.728-6.914v6.914h-3.596v-12.975h3.021l5.728 6.914v-6.914h3.596z"></path>
<path fill="#ff6b09" style="fill: var(--color1, #ff6b09)" d="M57.546 11.090c-0.189-0.424-0.451-0.842-0.833-1.325-0.964-1.212-1.258-3.915-1.261-3.94-0.013-0.13-0.105-0.237-0.225-0.275-0.124-0.039-0.258-0.003-0.346 0.094-1.15 1.286-0.667 3.273-0.405 4.067 0.072 0.217 0.15 0.473 0.206 0.732 0.425 2.097-0.395 3.046-0.588 3.237-0.186 0.052-0.314 0.026-0.431-0.101-0.405-0.444-0.539-1.899-0.35-3.795 0.039-0.386 0.029-0.732-0.026-1.056-0.4-2.33-1.865-3.825-2.238-4.349-1.026-1.517-1.131-4.041-1.134-4.064-0.003-0.12-0.072-0.227-0.18-0.279-0.105-0.052-0.232-0.045-0.33 0.023-1.712 1.163-1.565 3.966-1.327 5.532 0.056 0.363 0.163 0.732 0.35 1.199 0.663 1.669-0.131 3.824-0.137 3.843s-0.013 0.036-0.016 0.055c-0.101 0.531-0.271 0.849-0.461 0.849-0.020 0-0.039-0.003-0.062-0.010-0.232-0.049-0.353-0.295-0.356-0.509-0.013-2.764-2.787-3.694-2.817-3.704-0.124-0.039-0.261-0.003-0.346 0.097-0.088 0.1-0.105 0.24-0.046 0.356 0.033 0.068 0.137 0.366 0.065 1.419-0.062 0.946-0.235 1.883-0.513 2.78-0.66 2.152-0.555 4.19-0.549 4.287 0.507 5.519 8.444 6.486 13.155 3.377 0.516-0.34 0.938-0.729 1.248-1.157 1.738-2.398 0.716-5.655-0.046-7.385zM45.472 16.362c0.010 0.178-0.127 0.33-0.307 0.34h-0.020c-0.173 0-0.317-0.133-0.327-0.305-0.029-0.473-0.023-0.969 0.013-1.507 0.013-0.178 0.17-0.311 0.35-0.301 0.18 0.013 0.317 0.168 0.304 0.347-0.036 0.512-0.042 0.979-0.013 1.426zM45.632 13.491c-0.020 0.165-0.16 0.285-0.323 0.285-0.013 0-0.026 0-0.042-0.003-0.176-0.023-0.304-0.181-0.284-0.36l0.157-1.251c0.023-0.175 0.183-0.301 0.366-0.282 0.18 0.023 0.307 0.185 0.284 0.363l-0.157 1.248z"></path>
<path fill="#ff6b09" style="fill: var(--color1, #ff6b09)" d="M55.335 4.433c-0.178-0.027-0.3-0.193-0.273-0.369 0.020-0.132 0.138-0.806 0.459-1.145 0.123-0.131 0.33-0.138 0.462-0.015s0.138 0.327 0.015 0.458c-0.136 0.144-0.251 0.554-0.29 0.8-0.028 0.175-0.192 0.298-0.373 0.271z"></path>
<path fill="#ff6b09" style="fill: var(--color1, #ff6b09)" d="M43.423 6.048c-0.063-0.241-0.218-0.638-0.367-0.768-0.136-0.118-0.149-0.323-0.030-0.457s0.325-0.149 0.461-0.030c0.352 0.306 0.536 0.966 0.569 1.094 0.045 0.173-0.061 0.35-0.235 0.394-0.178 0.045-0.353-0.063-0.398-0.233z"></path>
</symbol>
<symbol id="logo" viewBox="0 0 91 32">
<path fill="#111518" style="fill: var(--color3, #111518)" d="M13.608 4.836v12.942h-3.661v-5.047h-4.992v5.047h-3.661v-12.942h3.661v4.863h4.992v-4.863h3.661zM27.006 12.786c0 0.025-0.018 0.314-0.055 0.869h-7.285c0.148 0.518 0.431 0.918 0.851 1.202 0.431 0.271 0.968 0.407 1.609 0.407 0.481 0 0.894-0.068 1.239-0.203 0.357-0.136 0.715-0.357 1.072-0.666l1.849 1.923c-0.974 1.085-2.397 1.627-4.271 1.627-1.171 0-2.2-0.222-3.088-0.666s-1.578-1.060-2.071-1.849c-0.481-0.789-0.721-1.683-0.721-2.681 0-0.986 0.234-1.867 0.703-2.644 0.481-0.789 1.14-1.405 1.978-1.849s1.781-0.666 2.829-0.666c0.998 0 1.904 0.21 2.718 0.629 0.814 0.407 1.454 1.005 1.923 1.793 0.481 0.777 0.721 1.701 0.721 2.773zM21.663 10.086c-0.542 0-0.998 0.154-1.368 0.462-0.357 0.308-0.586 0.727-0.684 1.257h4.105c-0.099-0.53-0.333-0.949-0.703-1.257-0.357-0.308-0.807-0.462-1.35-0.462zM29.365 4.059h3.513v13.719h-3.513v-13.719zM35.901 4.059h3.513v13.719h-3.513v-13.719z"></path>
<path fill="#ff6b09" style="fill: var(--color1, #ff6b09)" d="M4.614 29.724h-1.849l-0.353 0.853h-0.944l1.775-3.982h0.91l1.781 3.982h-0.967l-0.353-0.853zM4.324 29.025l-0.631-1.525-0.631 1.525h1.263zM11.626 29.827v1.576h-0.853v-0.825h-2.81v0.825h-0.853l0.006-1.576h0.159c0.239-0.008 0.408-0.182 0.506-0.523s0.159-0.829 0.182-1.462l0.045-1.246h3.061v3.231h0.557zM8.776 27.927c-0.019 0.474-0.059 0.872-0.119 1.195-0.061 0.319-0.154 0.554-0.279 0.705h1.781v-2.48h-1.365l-0.017 0.58zM15.154 30.646c-0.406 0-0.774-0.087-1.104-0.262-0.326-0.178-0.584-0.423-0.774-0.734-0.186-0.315-0.279-0.669-0.279-1.064s0.093-0.747 0.279-1.058c0.19-0.315 0.448-0.559 0.774-0.734 0.33-0.178 0.7-0.267 1.109-0.267 0.345 0 0.656 0.061 0.933 0.182 0.281 0.121 0.516 0.296 0.705 0.523l-0.592 0.546c-0.269-0.311-0.603-0.466-1.001-0.466-0.246 0-0.466 0.055-0.66 0.165-0.193 0.106-0.345 0.256-0.455 0.449-0.106 0.193-0.159 0.413-0.159 0.66s0.053 0.466 0.159 0.66c0.11 0.193 0.262 0.345 0.455 0.455 0.193 0.106 0.413 0.159 0.66 0.159 0.398 0 0.732-0.157 1.001-0.472l0.592 0.546c-0.19 0.231-0.425 0.408-0.705 0.529s-0.594 0.182-0.939 0.182zM19.964 28.974h-0.637v1.604h-0.916v-3.982h0.916v1.61h0.66l1.047-1.61h0.973l-1.303 1.923 1.343 2.059h-1.047l-1.035-1.604zM23.502 26.596h0.916v2.594l1.9-2.594h0.865v3.982h-0.91v-2.588l-1.9 2.588h-0.87v-3.982zM29.198 26.596h0.916v2.594l1.9-2.594h0.865v3.982h-0.91v-2.588l-1.9 2.588h-0.87v-3.982zM31.036 26.34c-0.728 0-1.096-0.29-1.104-0.87h0.631c0.008 0.277 0.165 0.415 0.472 0.415 0.152 0 0.267-0.034 0.347-0.102 0.080-0.072 0.121-0.176 0.125-0.313h0.631c-0.004 0.284-0.097 0.501-0.279 0.649s-0.457 0.222-0.825 0.222z"></path>
<path fill="#111518" style="fill: var(--color3, #111518)" d="M40.226 29.724h-1.849l-0.353 0.853h-0.944l1.775-3.982h0.91l1.781 3.982h-0.967l-0.353-0.853zM39.936 29.025l-0.631-1.525-0.631 1.525h1.263zM46.75 26.596v3.982h-0.922v-1.633h-1.809v1.633h-0.922v-3.982h0.922v1.57h1.809v-1.57h0.922zM51.577 27.346h-1.894l0.006 3.231h-0.916v-3.982h2.81l-0.006 0.751zM56.224 26.596v3.982h-0.91v-3.231h-1.365l-0.028 0.831c-0.019 0.565-0.065 1.024-0.137 1.377-0.072 0.349-0.193 0.618-0.364 0.808-0.167 0.186-0.402 0.279-0.705 0.279-0.125 0-0.277-0.021-0.455-0.063l0.057-0.779c0.049 0.015 0.104 0.023 0.165 0.023 0.22 0 0.374-0.129 0.461-0.387 0.087-0.262 0.142-0.669 0.165-1.223l0.057-1.616h3.061zM58.242 26.596h0.916v2.594l1.9-2.594h0.865v3.982h-0.91v-2.588l-1.9 2.588h-0.87v-3.982zM63.938 26.596h0.916v2.594l1.9-2.594h0.865v3.982h-0.91v-2.588l-1.9 2.588h-0.87v-3.982zM65.776 26.34c-0.728 0-1.096-0.29-1.104-0.87h0.631c0.008 0.277 0.165 0.415 0.472 0.415 0.152 0 0.267-0.034 0.347-0.102 0.080-0.072 0.121-0.176 0.125-0.313h0.631c-0.004 0.284-0.097 0.501-0.279 0.649s-0.457 0.222-0.825 0.222zM71.518 30.646c-0.406 0-0.774-0.087-1.104-0.262-0.326-0.178-0.584-0.423-0.774-0.734-0.186-0.315-0.279-0.669-0.279-1.064s0.093-0.747 0.279-1.058c0.19-0.315 0.448-0.559 0.774-0.734 0.33-0.178 0.7-0.267 1.109-0.267 0.345 0 0.656 0.061 0.933 0.182 0.28 0.121 0.516 0.296 0.705 0.523l-0.592 0.546c-0.269-0.311-0.603-0.466-1.001-0.466-0.247 0-0.467 0.055-0.66 0.165-0.193 0.106-0.345 0.256-0.455 0.449-0.106 0.193-0.159 0.413-0.159 0.66s0.053 0.466 0.159 0.66c0.11 0.193 0.262 0.345 0.455 0.455 0.193 0.106 0.413 0.159 0.66 0.159 0.398 0 0.732-0.157 1.001-0.472l0.592 0.546c-0.19 0.231-0.425 0.408-0.705 0.529s-0.594 0.182-0.939 0.182zM76.329 28.974h-0.637v1.604h-0.916v-3.982h0.916v1.61h0.66l1.047-1.61h0.973l-1.303 1.923 1.343 2.059h-1.047l-1.035-1.604zM79.866 26.596h0.916v2.594l1.9-2.594h0.865v3.982h-0.91v-2.588l-1.9 2.588h-0.87v-3.982zM85.562 26.596h0.916v2.594l1.9-2.594h0.865v3.982h-0.91v-2.588l-1.9 2.588h-0.87v-3.982zM87.4 26.34c-0.728 0-1.096-0.29-1.104-0.87h0.631c0.008 0.277 0.165 0.415 0.472 0.415 0.151 0 0.267-0.034 0.347-0.102 0.080-0.072 0.122-0.176 0.125-0.313h0.631c-0.004 0.284-0.097 0.501-0.279 0.649s-0.457 0.222-0.825 0.222z"></path>
<path fill="#111518" style="fill: var(--color3, #111518)" d="M74.263 14.949v2.829h-10.391v-12.942h10.15v2.829h-6.527v2.182h5.75v2.736h-5.75v2.367h6.767zM89.348 4.836v12.942h-3.014l-5.713-6.896v6.896h-3.587v-12.942h3.014l5.713 6.896v-6.896h3.587z"></path>
<path fill="#ff6b09" style="fill: var(--color1, #ff6b09)" d="M58.695 11.062c-0.189-0.423-0.45-0.84-0.831-1.322-0.962-1.209-1.255-3.905-1.258-3.931-0.013-0.129-0.104-0.236-0.225-0.275-0.124-0.039-0.258-0.003-0.346 0.094-1.147 1.283-0.665 3.265-0.404 4.057 0.072 0.217 0.15 0.472 0.205 0.731 0.424 2.091-0.394 3.038-0.587 3.229-0.186 0.052-0.313 0.026-0.43-0.1-0.404-0.443-0.538-1.894-0.349-3.785 0.039-0.385 0.029-0.731-0.026-1.054-0.399-2.324-1.86-3.815-2.233-4.338-1.023-1.513-1.128-4.031-1.131-4.053-0.003-0.12-0.072-0.226-0.179-0.278-0.104-0.052-0.231-0.045-0.329 0.023-1.708 1.16-1.561 3.956-1.323 5.518 0.055 0.362 0.163 0.731 0.349 1.196 0.662 1.665-0.13 3.814-0.137 3.834s-0.013 0.036-0.016 0.055c-0.101 0.53-0.27 0.847-0.46 0.847-0.020 0-0.039-0.003-0.062-0.010-0.231-0.048-0.352-0.294-0.355-0.507-0.013-2.757-2.78-3.685-2.81-3.694-0.124-0.039-0.261-0.003-0.345 0.097-0.088 0.1-0.104 0.239-0.046 0.356 0.033 0.068 0.137 0.365 0.065 1.416-0.062 0.944-0.235 1.878-0.512 2.773-0.658 2.146-0.554 4.179-0.548 4.276 0.506 5.505 8.423 6.469 13.122 3.368 0.515-0.339 0.935-0.727 1.245-1.154 1.734-2.392 0.714-5.64-0.046-7.366zM46.652 16.321c0.010 0.178-0.127 0.33-0.306 0.339h-0.020c-0.173 0-0.316-0.132-0.326-0.304-0.029-0.472-0.023-0.966 0.013-1.503 0.013-0.178 0.169-0.31 0.349-0.301 0.179 0.013 0.316 0.168 0.303 0.346-0.036 0.511-0.042 0.976-0.013 1.422zM46.811 13.457c-0.020 0.165-0.16 0.284-0.323 0.284-0.013 0-0.026 0-0.042-0.003-0.176-0.023-0.303-0.181-0.284-0.359l0.156-1.248c0.023-0.175 0.182-0.301 0.365-0.281 0.179 0.023 0.306 0.184 0.284 0.362l-0.156 1.244z"></path>
<path fill="#ff6b09" style="fill: var(--color1, #ff6b09)" d="M56.49 4.422c-0.178-0.027-0.3-0.192-0.272-0.368 0.020-0.131 0.138-0.804 0.458-1.142 0.123-0.13 0.329-0.137 0.461-0.015s0.138 0.327 0.015 0.457c-0.135 0.143-0.25 0.553-0.289 0.798-0.027 0.174-0.191 0.297-0.372 0.27z"></path>
<path fill="#ff6b09" style="fill: var(--color1, #ff6b09)" d="M44.608 6.032c-0.062-0.24-0.217-0.637-0.366-0.766-0.135-0.118-0.149-0.322-0.030-0.456s0.324-0.148 0.46-0.030c0.351 0.305 0.535 0.963 0.568 1.092 0.045 0.173-0.060 0.349-0.235 0.393-0.178 0.044-0.352-0.063-0.397-0.232z"></path>
</symbol>
<symbol id="outline_tablet_mobile" viewBox="0 0 31 32">
<path fill="none" stroke="#ff6b09" style="stroke: var(--color1, #ff6b09)" stroke-linejoin="miter" stroke-linecap="butt" stroke-miterlimit="4" stroke-width="1.0159" d="M30.387 4.945v-4.183h-29.879v30.476h29.879v-4.183"></path>
</symbol>
<symbol id="outline" viewBox="0 0 31 32">
<path fill="none" stroke="#ff6b09" style="stroke: var(--color1, #ff6b09)" stroke-linejoin="miter" stroke-linecap="butt" stroke-miterlimit="4" stroke-width="0.6154" d="M31.077 4.615v-4.308h-30.769v31.385h30.769v-4.308"></path>
</symbol>
<symbol id="person_tablet_mobile" viewBox="0 0 27 32">
<path fill="#ff6b09" style="fill: var(--color1, #ff6b09)" d="M-0.102 31.359c3.441 0 23.348 0 26.785 0 0.133-3.054-0.086-8.122-1.964-10.535l-0.068-0.087-4.104-2.060c0.089-0.301 0.133-0.576 0.151-0.778 0.020-0.243-0.013-0.471-0.1-0.678-0.677-1.62-2.11-2.472-2.898-2.836 0.24-0.484 0.395-1.003 0.47-1.534 0.446-0.126 0.805-0.479 0.923-0.951l0.479-1.946c0.085-0.343 0.032-0.699-0.151-1.002-0.079-0.13-0.18-0.24-0.294-0.334 1.35-3.068-0.911-5.96-1.035-6.113-2.45-2.649-5.544-2.153-5.708-2.124-4.466 0.935-6.19 4.358-5.217 8.372-0.288 0.319-0.409 0.764-0.302 1.2l0.481 1.948c0.117 0.468 0.473 0.82 0.916 0.948 0.137 0.972 0.548 1.851 1.152 2.559v1.543c-6.409 3.282-2.348 1.188-7.484 3.786-0.010 0.048-2.41 2.599-2.053 10.159l0.022 0.462zM25.752 30.389h-4.408v-1.852l2.916-6.674c1.461 2.424 1.515 7.053 1.493 8.526zM19.735 17.816c-0.17 1.954-1.242 1.363-1.903 2.869-0.52-0.572-0.677-1.258-0.537-1.993 0.253-1.348-0.57-1.749-0.367-3.166l0.031-0.032v-0.004c0.018-0.020 0.18-0.213 0.227-0.274 1.744 0.76 2.584 2.174 2.55 2.6zM10.379 16.28c0.81 0.562 1.787 0.893 2.838 0.893 0.99 0 1.93-0.288 2.737-0.819 0.112 1.114 0.547 1.337 0.393 2.157-0.029 0.152-0.045 0.302-0.054 0.45l-3.002 3.384-3.838-4.327 0.926-0.484v-1.254zM9.172 12.14v-1.876c0-0.691 0-3.432 0-3.296 0.467-0.864 1.104-1.491 1.896-1.866 2.12 1.2 4.56 2.99 6.197 4.791-0.002 2.294 0.006 2.301-0.009 2.489l-0.001 0.012c-0.128 2.084-1.841 3.811-4.038 3.811-2.136 0-3.909-1.677-4.037-3.831-0.007-0.077-0.008-0.155-0.008-0.233zM8.574 18.486l4.716 5.317 3.166-3.568c0.072 0.208 0.174 0.405 0.29 0.595l-3.456 4.322-5.154-6.446 0.438-0.22zM18.23 11.359v-1.498c0.042-0.049 0.402-0.461 0.36-0.413 0.020 0.758 0.102-0.137-0.36 1.911zM12.562 1.334c0.192 0.012 2.765-0.391 4.799 1.804 0.080 0.1 1.736 2.234 1.071 4.567-0.228-1.038-0.624-2.369-1.252-3.004l-0.686 0.683c0.619 0.627 1.026 2.537 1.181 3.527-2.84-2.972-6.504-4.853-6.555-4.885-0.184 0.114-1.734 0.409-2.86 2.598l-0.054 0.105v1.607c-0.048 0.001-0.19 0.002-0.142 0.002-0.715-3.454 0.655-6.198 4.497-7.004zM7.963 9.336l0.244 0.987v1.038l-0.405-1.639c-0.059-0.244 0.122-0.337 0.161-0.386zM7.253 19.15l6.037 7.551 4.085-5.109c0.444 0.398 0.658 0.454 1.6 0.939l-0.318-1.078c-0.081-0.274 0.239-0.713 0.431-0.914 0.43-0.234 0.789-0.566 1.058-0.978l3.333 1.674-3.101 7.1v2.055h-14.176v-2.055l-3.103-7.099 4.153-2.085zM2.32 21.865l2.916 6.673v1.852h-4.408c-0.022-1.473 0.033-6.099 1.492-8.524z"></path>
</symbol>
<symbol id="person" viewBox="0 0 27 32">
<path fill="#ff6b09" style="fill: var(--color1, #ff6b09)" d="M-0.105 31.754c3.514 0 23.845 0 27.355 0 0.136-3.12-0.088-8.295-2.006-10.759l-0.069-0.088-4.191-2.104c0.091-0.307 0.136-0.588 0.154-0.795 0.021-0.248-0.013-0.481-0.102-0.692-0.691-1.655-2.155-2.525-2.959-2.896 0.245-0.494 0.403-1.025 0.48-1.567 0.456-0.128 0.822-0.489 0.942-0.971l0.489-1.987c0.087-0.351 0.032-0.714-0.154-1.023-0.080-0.133-0.184-0.246-0.3-0.341 1.379-3.133-0.931-6.087-1.057-6.243-2.502-2.705-5.662-2.199-5.829-2.169-4.561 0.955-6.321 4.451-5.328 8.55-0.294 0.326-0.418 0.78-0.309 1.226l0.492 1.99c0.119 0.478 0.483 0.838 0.935 0.968 0.14 0.993 0.56 1.89 1.177 2.614v1.576c-6.545 3.352-2.398 1.213-7.643 3.867-0.010 0.049-2.461 2.654-2.097 10.375l0.022 0.472zM26.299 30.763h-4.502v-1.891l2.978-6.817c1.492 2.476 1.547 7.203 1.524 8.708zM20.155 17.923c-0.174 1.996-1.268 1.393-1.944 2.93-0.531-0.584-0.691-1.285-0.548-2.035 0.258-1.377-0.583-1.786-0.375-3.233l0.031-0.033v-0.005c0.018-0.020 0.184-0.217 0.232-0.28 1.781 0.776 2.639 2.221 2.604 2.656zM10.6 16.354c0.827 0.573 1.825 0.912 2.899 0.912 1.011 0 1.971-0.294 2.795-0.836 0.114 1.138 0.559 1.365 0.401 2.203-0.030 0.155-0.046 0.308-0.055 0.459l-3.066 3.456-3.919-4.419 0.946-0.494v-1.281zM9.367 12.125v-1.916c0-0.706 0-3.504 0-3.366 0.477-0.883 1.128-1.522 1.936-1.906 2.165 1.225 4.657 3.053 6.329 4.893-0.002 2.343 0.007 2.35-0.009 2.542l-0.001 0.012c-0.13 2.128-1.88 3.892-4.124 3.892-2.181 0-3.992-1.713-4.123-3.913-0.007-0.079-0.008-0.158-0.008-0.238zM8.756 18.607l4.816 5.43 3.234-3.644c0.074 0.213 0.178 0.414 0.296 0.608l-3.53 4.414-5.264-6.583 0.447-0.224zM18.618 11.329v-1.53c0.043-0.050 0.411-0.471 0.368-0.421 0.020 0.775 0.104-0.14-0.368 1.951zM12.829 1.090c0.196 0.012 2.824-0.4 4.901 1.843 0.082 0.103 1.773 2.281 1.093 4.665-0.233-1.061-0.638-2.42-1.278-3.068l-0.7 0.697c0.632 0.641 1.048 2.591 1.206 3.602-2.901-3.035-6.643-4.957-6.694-4.989-0.188 0.117-1.771 0.418-2.921 2.653l-0.055 0.107v1.642c-0.049 0.001-0.194 0.002-0.145 0.002-0.731-3.528 0.669-6.33 4.593-7.153zM8.132 9.262l0.249 1.008v1.060l-0.414-1.674c-0.061-0.25 0.124-0.344 0.165-0.394zM7.407 19.285l6.166 7.712 4.172-5.218c0.454 0.406 0.672 0.464 1.634 0.959l-0.325-1.101c-0.082-0.279 0.244-0.728 0.441-0.934 0.44-0.238 0.806-0.578 1.080-0.998l3.404 1.709-3.167 7.251v2.099h-14.477v-2.099l-3.169-7.25 4.242-2.129zM2.37 22.058l2.978 6.815v1.891h-4.502c-0.023-1.504 0.033-6.229 1.524-8.706z"></path>
</symbol>
<symbol id="phone_mobile" viewBox="0 0 32 32">
<path fill="#ff6b09" style="fill: var(--color1, #ff6b09)" d="M4.657 0.002c-0.515 0.024-1.021 0.243-1.392 0.651l-2.595 2.852c0.004-0.008-0.010-0.007-0.084 0.097-0.039 0.054-0.070 0.113-0.090 0.176-1.056 3.364-0.348 7.064 1.376 10.584s4.475 6.888 7.633 9.651c3.158 2.764 6.721 4.926 10.119 5.999s6.692 1.058 9.133-0.713c0.026-0.020 0.051-0.041 0.075-0.065 0.064-0.064 0.066-0.072 0.056-0.062l0.010-0.012 2.582-2.84c0.742-0.816 0.682-2.098-0.134-2.84l-6.126-5.571c-0.816-0.742-2.098-0.683-2.84 0.133l-2.772 3.048c-2.25-0.652-4.173-1.756-6.023-3.439s-3.132-3.494-3.993-5.673l2.771-3.048c0.742-0.816 0.683-2.098-0.133-2.84l-6.126-5.571c-0.408-0.371-0.933-0.542-1.448-0.518l-0.001 0zM4.715 1.253c0.19-0.008 0.383 0.057 0.541 0.201l6.126 5.571c0.316 0.287 0.337 0.745 0.050 1.061l-3.063 3.366c-0.077 0.085-0.129 0.19-0.151 0.302s-0.013 0.229 0.027 0.337c0.93 2.537 2.429 4.618 4.493 6.495s4.275 3.174 6.889 3.859c0.111 0.029 0.228 0.027 0.339-0.005s0.21-0.095 0.287-0.18l3.064-3.367c0.287-0.315 0.744-0.336 1.060-0.049l6.127 5.571c0.316 0.287 0.336 0.744 0.049 1.060l-2.561 2.815c-2.003 1.438-4.826 1.519-7.986 0.521-3.173-1.002-6.617-3.076-9.666-5.744s-5.702-5.926-7.332-9.254c-1.614-3.294-2.199-6.624-1.312-9.559l2.502-2.75c0.143-0.158 0.33-0.242 0.52-0.251l0 0z"></path>
</symbol>
<symbol id="phone_tablet" viewBox="0 0 32 32">
<path fill="#ff6b09" style="fill: var(--color1, #ff6b09)" d="M4.657 0.002c-0.515 0.024-1.021 0.243-1.392 0.651l-2.595 2.852c0.004-0.008-0.010-0.007-0.084 0.097-0.039 0.054-0.070 0.113-0.090 0.176-1.056 3.364-0.348 7.064 1.376 10.584s4.475 6.887 7.633 9.651c3.158 2.764 6.721 4.926 10.119 5.999s6.692 1.058 9.133-0.713c0.027-0.020 0.051-0.041 0.075-0.065 0.064-0.064 0.066-0.072 0.056-0.062l0.010-0.012 2.582-2.84c0.742-0.816 0.682-2.098-0.134-2.84l-6.126-5.571c-0.816-0.742-2.098-0.683-2.84 0.133l-2.772 3.048c-2.25-0.651-4.173-1.756-6.023-3.439s-3.132-3.494-3.993-5.673l2.771-3.048c0.742-0.816 0.683-2.098-0.133-2.84l-6.126-5.571c-0.408-0.371-0.933-0.542-1.448-0.518l-0.001 0zM4.715 1.253c0.19-0.008 0.383 0.057 0.541 0.201l6.126 5.571c0.316 0.287 0.337 0.745 0.050 1.061l-3.063 3.366c-0.077 0.085-0.129 0.19-0.151 0.302s-0.013 0.229 0.027 0.337c0.93 2.537 2.429 4.618 4.493 6.495s4.275 3.174 6.889 3.859c0.111 0.029 0.228 0.027 0.339-0.005s0.21-0.095 0.287-0.18l3.064-3.367c0.287-0.315 0.744-0.336 1.060-0.049l6.127 5.571c0.316 0.287 0.336 0.744 0.049 1.060l-2.561 2.815c-2.003 1.438-4.825 1.519-7.986 0.521-3.173-1.002-6.617-3.076-9.666-5.745s-5.702-5.926-7.332-9.254c-1.614-3.294-2.199-6.624-1.312-9.559l2.502-2.75c0.143-0.158 0.33-0.242 0.52-0.251l0 0z"></path>
</symbol>
<symbol id="phone" viewBox="0 0 33 32">
<path fill="#ff6b09" style="fill: var(--color1, #ff6b09)" d="M4.817 0.003c-0.533 0.025-1.056 0.252-1.44 0.674l-2.684 2.95c0.004-0.009-0.010-0.007-0.087 0.1-0.041 0.055-0.072 0.117-0.093 0.182-1.092 3.48-0.36 7.308 1.424 10.949s4.63 7.125 7.897 9.984c3.267 2.859 6.953 5.096 10.468 6.205s6.922 1.095 9.448-0.737c0.027-0.020 0.053-0.043 0.077-0.067 0.066-0.066 0.068-0.075 0.058-0.065l0.010-0.013 2.671-2.938c0.768-0.844 0.706-2.17-0.138-2.938l-6.337-5.763c-0.844-0.768-2.17-0.706-2.938 0.137l-2.867 3.153c-2.327-0.674-4.317-1.816-6.231-3.557s-3.24-3.615-4.131-5.869l2.866-3.153c0.768-0.844 0.706-2.17-0.137-2.938l-6.337-5.763c-0.422-0.384-0.965-0.561-1.498-0.535l-0.001 0zM4.878 1.296c0.196-0.009 0.396 0.059 0.559 0.208l6.337 5.763c0.326 0.297 0.349 0.771 0.052 1.097l-3.169 3.482c-0.080 0.088-0.134 0.196-0.156 0.313s-0.013 0.237 0.027 0.348c0.962 2.624 2.513 4.777 4.648 6.719s4.423 3.283 7.126 3.992c0.115 0.030 0.236 0.028 0.35-0.006s0.217-0.098 0.297-0.186l3.169-3.483c0.297-0.326 0.77-0.348 1.096-0.051l6.338 5.763c0.326 0.297 0.348 0.77 0.051 1.096l-2.649 2.912c-2.072 1.488-4.992 1.571-8.262 0.539-3.282-1.036-6.846-3.182-9.999-5.942s-5.898-6.131-7.585-9.573c-1.67-3.407-2.275-6.852-1.357-9.888l2.588-2.844c0.148-0.163 0.342-0.251 0.538-0.26l0 0z"></path>
</symbol>
<symbol id="programm_bho" viewBox="0 0 31 32">
<path fill="#ff6b09" style="fill: var(--color1, #ff6b09)" d="M30.151 4.961c0-0.001-0.001-0.001-0.001-0.002-0.007-0.016-0.015-0.031-0.024-0.045-0.001-0.001-0.002-0.002-0.002-0.003-0.010-0.015-0.021-0.029-0.034-0.042l-4.806-4.806c-0.013-0.013-0.026-0.023-0.041-0.033-0.003-0.002-0.006-0.004-0.009-0.006-0.012-0.007-0.024-0.014-0.036-0.019-0.004-0.002-0.007-0.003-0.011-0.005-0.031-0.013-0.065-0.019-0.099-0.020-0.002 0-0.004-0-0.005-0h-21.171c-0.157 0-0.284 0.127-0.284 0.284v29.311c0 0.019 0.002 0.037 0.006 0.056 0.002 0.008 0.005 0.015 0.007 0.023 0.003 0.010 0.006 0.020 0.009 0.030 0.004 0.009 0.009 0.017 0.014 0.026 0.004 0.007 0.008 0.016 0.013 0.023 0.010 0.014 0.021 0.028 0.033 0.040 0.001 0.001 0.001 0.002 0.003 0.003l2.165 2.164c0.111 0.111 0.29 0.111 0.402 0l1.964-1.963 1.964 1.963c0.055 0.056 0.128 0.083 0.201 0.083s0.145-0.027 0.201-0.083l1.963-1.963 1.965 1.963c0.111 0.111 0.291 0.111 0.402 0l1.963-1.963 1.963 1.963c0.111 0.111 0.291 0.111 0.401 0l1.965-1.963 1.964 1.963c0.055 0.056 0.128 0.083 0.201 0.083s0.145-0.027 0.201-0.083l1.963-1.963 1.965 1.963c0.111 0.111 0.291 0.111 0.401 0l2.165-2.164c0.004-0.004 0.007-0.009 0.011-0.014 0.008-0.009 0.017-0.019 0.024-0.029 0.007-0.009 0.011-0.020 0.016-0.030 0.003-0.007 0.007-0.012 0.009-0.019 0.006-0.013 0.009-0.026 0.012-0.039 0.001-0.005 0.003-0.009 0.005-0.013 0.004-0.020 0.006-0.038 0.006-0.058v-24.503c-0.001-0.037-0.008-0.074-0.023-0.109zM25.367 0.949l3.836 3.835h-3.836v-3.835zM29.604 29.456l-1.88 1.88-1.965-1.963c-0.111-0.111-0.29-0.111-0.401 0l-1.963 1.963-1.964-1.963c-0.111-0.111-0.291-0.111-0.402 0l-1.965 1.963-1.963-1.962c0-0-0-0.001-0-0.001-0.055-0.055-0.128-0.083-0.201-0.083s-0.145 0.028-0.201 0.083c-0 0-0 0-0 0l-1.963 1.963-1.965-1.963c-0.111-0.111-0.29-0.111-0.402 0l-1.963 1.963-1.964-1.963c-0.111-0.111-0.29-0.111-0.402 0l-1.965 1.963-1.88-1.88v-28.909h20.603v4.522c0 0.157 0.127 0.284 0.284 0.284h4.521l0 24.103z"></path>
<path fill="#ff6b09" style="fill: var(--color1, #ff6b09)" d="M6.314 3.234h9.303c0.157 0 0.284-0.127 0.284-0.284s-0.127-0.284-0.284-0.284h-9.303c-0.157 0-0.284 0.127-0.284 0.284s0.127 0.284 0.284 0.284z"></path>
<path fill="#ff6b09" style="fill: var(--color1, #ff6b09)" d="M6.314 4.991h14.919c0.157 0 0.284-0.127 0.284-0.284s-0.127-0.284-0.284-0.284h-14.919c-0.157 0-0.284 0.127-0.284 0.284s0.127 0.284 0.284 0.284z"></path>
<path fill="#ff6b09" style="fill: var(--color1, #ff6b09)" d="M6.030 6.568v9.199c0 0.157 0.127 0.284 0.284 0.284h21.172c0.157 0 0.284-0.127 0.284-0.284v-9.199c0-0.157-0.127-0.284-0.284-0.284h-21.172c-0.157 0-0.284 0.127-0.284 0.284zM12.308 6.852h14.893v2.445h-14.893v-2.445zM12.308 9.865h14.893v2.444h-14.893v-2.444zM12.308 12.877h14.893v2.605h-14.893v-2.605zM6.598 6.852h5.142v2.445h-5.142v-2.445zM6.598 9.865h5.142v2.444h-5.142v-2.444zM6.598 12.877h5.142v2.605h-5.142v-2.605z"></path>
<path fill="#ff6b09" style="fill: var(--color1, #ff6b09)" d="M27.486 17.329h-21.172c-0.157 0-0.284 0.127-0.284 0.284v9.198c0 0.157 0.127 0.284 0.284 0.284s0.284-0.127 0.284-0.284v-2.889h5.142v2.889c0 0.157 0.127 0.284 0.284 0.284s0.284-0.127 0.284-0.284v-2.889h14.893v2.889c0 0.157 0.127 0.284 0.284 0.284s0.284-0.127 0.284-0.284v-9.198c0.001-0.157-0.126-0.284-0.283-0.284zM11.74 23.354h-5.142v-2.443h5.142v2.443zM11.74 20.342h-5.142v-2.444h5.142v2.444zM27.201 23.354h-14.893v-2.443h14.893v2.443zM27.201 20.342h-14.893v-2.444h14.893v2.444z"></path>
<path fill="#ff6b09" style="fill: var(--color1, #ff6b09)" d="M2.281-0.021c-0.157 0-0.284 0.127-0.284 0.284v29.311c0 0.157 0.127 0.284 0.284 0.284s0.284-0.127 0.284-0.284v-29.311c0-0.157-0.127-0.284-0.284-0.284z"></path>
<path fill="#ff6b09" style="fill: var(--color1, #ff6b09)" d="M0.718-0.021c-0.157 0-0.284 0.127-0.284 0.284v29.311c0 0.157 0.127 0.284 0.284 0.284s0.284-0.127 0.284-0.284v-29.311c0-0.157-0.127-0.284-0.284-0.284z"></path>
</symbol>
<symbol id="psy_support" viewBox="0 0 33 32">
<path fill="#ff6b09" style="fill: var(--color1, #ff6b09)" d="M1.993 12.558v2.831c0 0.152 0.070 0.295 0.189 0.39 1.935 1.523 4.363 2.362 6.837 2.362 0.74 0 1.482-0.077 2.206-0.224 1.544 0.683 3.188 1.032 4.89 1.032 1.707 0 3.351-0.349 4.89-1.032 3.091 0.624 6.384-0.046 9.042-2.138 0.12-0.094 0.189-0.238 0.189-0.39v-2.831c0-0.416-0.206-0.794-0.575-1.027l-3.867-2.176c0.846-1.073 1.476-2.602 1.586-3.913 0.321-2.256-1.518-4.646-4.166-4.646-1.113 0-2.171 0.458-2.948 1.227-0.027 0.027-0.058 0.049-0.084 0.076-0.024 0.025-0.043 0.054-0.067 0.080-0.016 0.017-0.029 0.036-0.044 0.053-0.757-1.38-2.211-2.232-3.924-2.232-0.166 0-0.33 0.011-0.492 0.028-0.010-0.001-0.018-0.006-0.028-0.006-0.092 0-0.287 0.024-0.391 0.054-0.015 0.004-0.026 0.015-0.041 0.021-1.279 0.259-2.363 1.034-3.013 2.156-0.781-0.911-1.93-1.457-3.179-1.457-3.908 0-5.642 4.612-2.557 8.581l-3.903 2.167c-0.346 0.219-0.553 0.598-0.553 1.014zM20.996 16.828c-0.084 0.041-0.167 0.085-0.251 0.123l-0 0c-0.001 0-0.001 0.001-0.002 0.001-1.452 0.667-3.009 1.006-4.627 1.006-1.614 0-3.17-0.338-4.629-1.007-0.71-0.323-1.397-0.734-2.045-1.221v-2.87c0-0.098 0.047-0.184 0.102-0.221l4.542-2.524c0.565 0.48 1.287 0.832 2.035 0.832 0.721 0 1.499-0.357 2.052-0.843l4.487 2.52c0.083 0.053 0.13 0.139 0.13 0.237v2.87c-0.571 0.429-1.173 0.795-1.794 1.098zM29.154 12.382c0.059 0.037 0.092 0.101 0.092 0.176v2.587c-1.968 1.477-4.337 2.148-6.737 1.98 0.369-0.23 0.771-0.516 1.083-0.76 0.12-0.094 0.19-0.238 0.19-0.39v-3.114c0-0.435-0.218-0.835-0.61-1.087l-2.383-1.339 0.58-0.321c0.703 0.573 1.307 0.744 1.848 0.744 0.663 0 1.36-0.325 1.878-0.759l4.060 2.284zM23.216 1.788c1.38 0 2.593 0.902 3.021 2.142-0.833-0.099-1.647-0.51-2.237-1.142-0.107-0.114-0.258-0.173-0.415-0.155-0.155 0.016-0.293 0.105-0.373 0.239-0.566 0.948-1.493 1.58-2.548 1.76 0-0.001-0-0.002-0-0.003 0.005-0.216-0.008-0.434-0.033-0.653-0.003-0.022-0.005-0.044-0.007-0.067-0.032-0.248-0.107-0.559-0.122-0.609 0.563-0.902 1.609-1.513 2.713-1.513zM20.556 5.644c1.253-0.137 2.386-0.767 3.164-1.762 0.767 0.629 1.74 1.010 2.702 1.056-0.007 1.792-1.471 4.927-3.206 4.927-1.337 0-2.479-1.912-2.905-3.238 0.108-0.341 0.187-0.669 0.245-0.983zM20.657 9.373l-0.886 0.491-0.895-0.502c0.332-0.413 0.636-0.893 0.896-1.413 0.25 0.526 0.55 1.010 0.884 1.425zM19.32 6.465c-0.478 1.427-1.705 3.49-3.199 3.49-1.742 0-3.226-2.864-3.509-4.696 0.075-0.019 2.43 0.126 4.049-2.001 0.822 0.688 1.932 1.143 3.011 1.188 0.013 0.647-0.144 1.406-0.352 2.018zM16.15 0.992c2.78 0 3.309 2.392 3.352 2.442-1.008-0.102-1.928-0.596-2.563-1.276-0.107-0.114-0.262-0.171-0.416-0.154-0.155 0.017-0.293 0.106-0.373 0.241-0.551 0.932-1.414 1.589-2.414 1.868-0.386 0.108-0.803 0.157-1.166 0.154 0.136-1.822 1.596-3.274 3.58-3.274zM12.461 7.938c0.257 0.515 0.563 1.006 0.913 1.438l-0.875 0.487-0.907-0.51c0.344-0.438 0.636-0.929 0.87-1.415zM9.006 1.788c1.125 0 2.155 0.571 2.729 1.514-0.029 0.1-0.106 0.498-0.117 0.548-0.69-0.165-1.324-0.533-1.821-1.062-0.107-0.114-0.258-0.17-0.416-0.154-0.155 0.017-0.293 0.106-0.372 0.24-0.663 1.119-1.881 1.815-3.177 1.815 0.158-1.627 1.518-2.9 3.174-2.9zM5.876 5.678c1.425-0.014 2.77-0.686 3.643-1.796 0.596 0.491 1.304 0.813 2.055 0.961 0.029 0.575 0.179 1.273 0.35 1.789-0.274 0.84-0.799 1.841-1.451 2.505-0.004 0.004-0.010 0.006-0.014 0.010-0.408 0.43-0.988 0.719-1.444 0.719-1.594 0-2.841-2.508-3.14-4.188zM2.985 12.558c0-0.075 0.033-0.139 0.067-0.162l4.116-2.284c0.247 0.206 0.304 0.229 0.353 0.265l-0 0c0.484 0.322 0.928 0.482 1.534 0.482 0.645 0 1.232-0.273 1.749-0.694 0.029-0.023 0.060-0.045 0.088-0.068l0.587 0.33-2.446 1.361c-0.366 0.236-0.584 0.636-0.584 1.071v3.114c0 0.152 0.070 0.296 0.19 0.39 0.317 0.249 0.727 0.539 1.083 0.761-2.434 0.166-4.803-0.528-6.737-1.98v-2.587z"></path>
<path fill="#ff6b09" style="fill: var(--color1, #ff6b09)" d="M31.259 20.781c-0.61-0.383-1.361-0.423-2.007-0.11l-6.119 2.956c-0.021-1.145-0.956-2.072-2.107-2.072l-3.509 0.001c-1.73-1.504-3.941-2.425-5.952-2.473-1.983-0.047-3.763-0.060-4.593-0.064v-1.002h-6.972v11.517h6.972v-1.379c1.912 1.097 6.939 3.845 9.325 3.845 0.054 0 0.107-0.001 0.158-0.004 4.196-0.235 14.091-7.198 14.743-7.661 0.638-0.37 1.034-1.056 1.034-1.796 0-0.719-0.364-1.376-0.973-1.758zM5.98 28.542h-4.988v-9.533h4.988v9.533zM30.687 23.484c-0.015 0.008-0.030 0.017-0.044 0.028-0.102 0.073-10.281 7.271-14.244 7.494-0.039 0.002-0.079 0.003-0.121 0.003-2.092 0-7.194-2.753-9.307-4.001v-6.997c0.827 0.004 2.597 0.017 4.569 0.064 1.837 0.044 3.876 0.921 5.456 2.346l0.141 0.128 3.887-0.001c0.617 0 1.119 0.502 1.119 1.119s-0.502 1.119-1.119 1.119h-7.142v0.992h7.142c0.684 0 1.288-0.333 1.674-0.839l6.984-3.373c0.343-0.167 0.725-0.146 1.049 0.057s0.508 0.537 0.508 0.918c0 0.391-0.212 0.753-0.553 0.945z"></path>
<path fill="#ff6b09" style="fill: var(--color1, #ff6b09)" d="M16.612 12.158h-0.992v0.92h0.992v-0.92z"></path>
<path fill="#ff6b09" style="fill: var(--color1, #ff6b09)" d="M16.612 13.992h-0.992v0.92h0.992v-0.92z"></path>
<path fill="#ff6b09" style="fill: var(--color1, #ff6b09)" d="M16.612 15.826h-0.992v0.92h0.992v-0.92z"></path>
</symbol>
<symbol id="vk" viewBox="0 0 32 32">
<path fill="#436eab" style="fill: var(--color4, #436eab)" d="M27.541 18.46c1.061 1.036 2.182 2.011 3.134 3.152 0.421 0.507 0.819 1.030 1.123 1.619 0.432 0.836 0.041 1.757-0.709 1.807l-4.662-0.002c-1.202 0.1-2.162-0.384-2.968-1.206-0.645-0.657-1.243-1.357-1.864-2.037-0.255-0.278-0.521-0.539-0.839-0.746-0.636-0.413-1.189-0.287-1.552 0.377-0.37 0.675-0.454 1.423-0.491 2.175-0.050 1.098-0.382 1.386-1.484 1.437-2.357 0.111-4.593-0.245-6.671-1.434-1.832-1.048-3.252-2.528-4.489-4.203-2.407-3.261-4.25-6.845-5.907-10.53-0.373-0.83-0.1-1.276 0.816-1.291 1.521-0.030 3.041-0.027 4.564-0.002 0.618 0.009 1.027 0.364 1.266 0.947 0.823 2.023 1.83 3.948 3.093 5.732 0.337 0.475 0.68 0.95 1.168 1.284 0.541 0.37 0.952 0.248 1.207-0.355 0.161-0.382 0.232-0.793 0.268-1.202 0.121-1.407 0.136-2.812-0.075-4.214-0.13-0.875-0.623-1.442-1.496-1.607-0.446-0.084-0.379-0.25-0.164-0.505 0.375-0.439 0.727-0.712 1.43-0.712h5.269c0.829 0.164 1.014 0.536 1.127 1.371l0.004 5.852c-0.009 0.323 0.161 1.282 0.743 1.496 0.466 0.152 0.773-0.22 1.052-0.516 1.261-1.339 2.162-2.921 2.966-4.559 0.357-0.72 0.664-1.469 0.961-2.216 0.22-0.555 0.566-0.828 1.191-0.816l5.071 0.005c0.15 0 0.302 0.002 0.448 0.027 0.855 0.146 1.089 0.513 0.825 1.348-0.416 1.309-1.225 2.4-2.016 3.496-0.846 1.17-1.75 2.3-2.589 3.477-0.77 1.075-0.709 1.617 0.248 2.55z"></path>
</symbol>
</defs>
</svg>
<svg id="instagram" width="40" height="40" fill="none" xmlns="http://www.w3.org/2000/svg"><g clip-path="url(#clip0)"><path d="M39.315 7.155a7.283 7.283 0 00-6.47-6.47 120.815 120.815 0 00-25.69 0 7.283 7.283 0 00-6.47 6.47 120.815 120.815 0 000 25.69 7.283 7.283 0 006.47 6.47c8.555.913 17.135.913 25.69 0a7.283 7.283 0 006.47-6.47c.913-8.555.913-17.135 0-25.69z" fill="url(#paint0_radial)"/><path d="M37.14 8.601a6.463 6.463 0 00-5.741-5.741 107.25 107.25 0 00-22.798 0A6.464 6.464 0 002.861 8.6c-.81 7.592-.81 15.206 0 22.797A6.463 6.463 0 008.6 37.14c7.592.81 15.206.81 22.797 0a6.463 6.463 0 005.742-5.74c.81-7.592.81-15.206 0-22.798z" fill="url(#paint1_linear)"/><path d="M.6 32.016c.027.277.055.553.085.83a7.283 7.283 0 006.47 6.47c8.555.912 17.136.912 25.69 0a7.283 7.283 0 006.47-6.47c.03-.277.058-.553.086-.83H.599z" fill="url(#paint2_linear)"/><path d="M39.315 32.845c.491-4.597.717-9.2.68-13.804l-9.142-9.143c-1.143-1.304-2.81-2.118-4.771-2.189a172.253 172.253 0 00-12.109 0c-3.349.116-5.69 2.367-6.291 5.675-.106.585-.17 1.176-.253 1.765v9.699c.046.314.114.627.135.943.134 2.012.961 3.736 2.285 4.902l9.305 9.304c4.566.032 9.132-.195 13.692-.682a7.283 7.283 0 006.47-6.47z" fill="url(#paint3_linear)"/><path d="M39.315 32.846a7.283 7.283 0 01-6.47 6.47c-4.559.486-9.126.713-13.691.681l-9.29-9.29c1.076.943 2.48 1.517 4.11 1.578 4.03.152 8.076.148 12.107.002 3.647-.132 6.285-2.83 6.4-6.476.12-3.872.12-7.753 0-11.625-.053-1.682-.643-3.162-1.622-4.282l9.137 9.137c.036 4.603-.19 9.208-.68 13.805z" fill="url(#paint4_linear)"/><path d="M24.72 15.669a6.407 6.407 0 10-9.051 9.051l14.823 14.823c.785-.068 1.57-.144 2.353-.228a7.284 7.284 0 006.47-6.47c.084-.784.16-1.568.228-2.353L24.72 15.67z" fill="url(#paint5_linear)"/><path d="M39.922 24.309l-11.93-11.93a1.524 1.524 0 10-2.133 2.133l13.85 13.851c.094-1.35.165-2.703.213-4.054z" fill="url(#paint6_linear)"/><path d="M7.429 15.149c.083-.589.147-1.18.253-1.764.6-3.309 2.942-5.56 6.291-5.675 4.032-.139 8.077-.146 12.109 0 3.645.13 6.284 2.83 6.398 6.476.121 3.871.121 7.753 0 11.624-.114 3.647-2.752 6.345-6.398 6.477-4.032.145-8.077.149-12.109-.002-3.645-.137-6.165-2.842-6.41-6.494-.02-.316-.088-.63-.134-.944V15.15zm12.574 14.977c1.846 0 3.692.055 5.535-.013 2.89-.107 4.666-1.831 4.734-4.718.083-3.596.083-7.197 0-10.794-.068-2.886-1.846-4.65-4.734-4.712a261.257 261.257 0 00-11 0c-2.866.06-4.648 1.789-4.726 4.643-.1 3.642-.1 7.29 0 10.932.078 2.854 1.86 4.543 4.726 4.649 1.82.068 3.643.013 5.465.013z" fill="url(#paint7_linear)"/><path d="M7.429 15.149c.083-.589.147-1.18.253-1.764.6-3.309 2.942-5.56 6.291-5.675 4.032-.139 8.077-.146 12.109 0 3.645.13 6.284 2.83 6.398 6.476.121 3.871.121 7.753 0 11.624-.114 3.647-2.752 6.345-6.398 6.477-4.032.145-8.077.149-12.109-.002-3.645-.137-6.165-2.842-6.41-6.494-.02-.316-.088-.63-.134-.944V15.15zm12.574 14.977c1.846 0 3.692.055 5.535-.013 2.89-.107 4.666-1.831 4.734-4.718.083-3.596.083-7.197 0-10.794-.068-2.886-1.846-4.65-4.734-4.712a261.257 261.257 0 00-11 0c-2.866.06-4.648 1.789-4.726 4.643-.1 3.642-.1 7.29 0 10.932.078 2.854 1.86 4.543 4.726 4.649 1.82.068 3.643.013 5.465.013z" fill="#fff"/><path d="M20 13.593a6.407 6.407 0 100 12.814 6.407 6.407 0 000-12.814zm0 10.608a4.201 4.201 0 110-8.402 4.201 4.201 0 010 8.402zM28.305 13.301a1.524 1.524 0 11-3.048 0 1.524 1.524 0 013.048 0z" fill="#fff"/></g><defs><linearGradient id="paint1_linear" x1="15.342" y1="17.379" x2="-52.423" y2="-20.738" gradientUnits="userSpaceOnUse"><stop stop-color="#A1B5D8" stop-opacity="0"/><stop offset=".309" stop-color="#90A2BD" stop-opacity=".31"/><stop offset=".755" stop-color="#7C8B9C" stop-opacity=".757"/><stop offset="1" stop-color="#748290"/></linearGradient><linearGradient id="paint2_linear" x1="20" y1="35.31" x2="20" y2="41.545" gradientUnits="userSpaceOnUse"><stop stop-color="#FAE100" stop-opacity="0"/><stop offset=".307" stop-color="#FCA800" stop-opacity=".306"/><stop offset=".627" stop-color="#FE7300" stop-opacity=".627"/><stop offset=".869" stop-color="#FF5200" stop-opacity=".867"/><stop offset="1" stop-color="#FF4500"/></linearGradient><linearGradient id="paint3_linear" x1="17.724" y1="17.668" x2="7.825" y2="7.769" gradientUnits="userSpaceOnUse"><stop stop-color="#833AB4" stop-opacity="0"/><stop offset="1" stop-color="#833AB4"/></linearGradient><linearGradient id="paint4_linear" x1="27.414" y1="36.585" x2="22.473" y2="13.292" gradientUnits="userSpaceOnUse"><stop stop-color="#833AB4" stop-opacity="0"/><stop offset="1" stop-color="#833AB4"/></linearGradient><linearGradient id="paint5_linear" x1="29.294" y1="29.294" x2="9.449" y2="9.449" gradientUnits="userSpaceOnUse"><stop stop-color="#833AB4" stop-opacity="0"/><stop offset="1" stop-color="#833AB4"/></linearGradient><linearGradient id="paint6_linear" x1="30.766" y1="17.286" x2="24.203" y2="10.724" gradientUnits="userSpaceOnUse"><stop stop-color="#833AB4" stop-opacity="0"/><stop offset="1" stop-color="#833AB4"/></linearGradient><linearGradient id="paint7_linear" x1="27.942" y1="12.113" x2="11.761" y2="28.294" gradientUnits="userSpaceOnUse"><stop stop-color="#833AB4"/><stop offset=".092" stop-color="#9C3495"/><stop offset=".293" stop-color="#DC2546"/><stop offset=".392" stop-color="#FD1D1D"/><stop offset=".559" stop-color="#FC6831"/><stop offset=".689" stop-color="#FC9B40"/><stop offset=".752" stop-color="#FCAF45"/><stop offset=".781" stop-color="#FDB750"/><stop offset=".866" stop-color="#FECB6A"/><stop offset=".942" stop-color="#FFD87A"/><stop offset="1" stop-color="#FFDC80"/></linearGradient><radialGradient id="paint0_radial" cx="0" cy="0" r="1" gradientUnits="userSpaceOnUse" gradientTransform="translate(8.2 34.957) scale(44.113)"><stop stop-color="#FAE100"/><stop offset=".054" stop-color="#FADC04"/><stop offset=".117" stop-color="#FBCE0E"/><stop offset=".183" stop-color="#FCB720"/><stop offset=".251" stop-color="#FE9838"/><stop offset=".305" stop-color="#FF7950"/><stop offset=".492" stop-color="#FF1C74"/><stop offset="1" stop-color="#6C1CD1"/></radialGradient><clipPath id="clip0"><path fill="#fff" d="M0 0h40v40H0z"/></clipPath></defs></svg>
