<svg aria-hidden="true" style="position: absolute; width: 0; height: 0; overflow: hidden;" version="1.1" xmlns="http://www.w3.org/2000/svg" xmlns:xlink="http://www.w3.org/1999/xlink">
<defs>
<symbol id="close" viewBox="0 0 32 32">
<path d="M31.502 0.635c-0.329-0.329-0.862-0.329-1.191 0l-14.242 14.242-14.242-14.242c-0.329-0.329-0.862-0.329-1.191 0s-0.329 0.862 0 1.191l14.242 14.242-14.242 14.242c-0.329 0.329-0.329 0.862 0 1.191s0.862 0.329 1.191 0l14.242-14.242 14.242 14.242c0.329 0.329 0.862 0.329 1.191 0s0.329-0.862 0-1.191l-14.242-14.242 14.243-14.242c0.329-0.329 0.329-0.862 0-1.191z"></path>
</symbol>
<symbol id="dots" viewBox="0 0 139 32">
<path d="M85.333 16c0 8.837-7.163 16-16 16s-16-7.163-16-16c0-8.837 7.163-16 16-16s16 7.163 16 16z"></path>
<path d="M32 16c0 8.837-7.163 16-16 16s-16-7.163-16-16c0-8.837 7.163-16 16-16s16 7.163 16 16z"></path>
<path d="M138.667 16c0 8.837-7.163 16-16 16s-16-7.163-16-16c0-8.837 7.163-16 16-16s16 7.163 16 16z"></path>
</symbol>
<symbol id="facebook" viewBox="0 0 16 32">
<path d="M14.266 15.97h-4.176v15.39h-6.327v-15.39h-3.009v-5.409h3.009v-3.5c0-2.503 1.182-6.422 6.384-6.422l4.687 0.020v5.25h-3.401c-0.558 0-1.342 0.28-1.342 1.474v3.183h4.729l-0.553 5.403z"></path>
</symbol>
<symbol id="telegram" viewBox="0 0 40 32">
<path d="M16.205 20.751l-0.635 8.339c0.909 0 1.302-0.364 1.774-0.802l4.261-3.801 8.829 6.035c1.619 0.842 2.76 0.399 3.197-1.39l5.797-25.346c0.514-2.234-0.866-3.108-2.443-2.56l-34.065 12.172c-2.325 0.842-2.29 2.052-0.395 2.6l8.709 2.528 20.229-11.814c0.952-0.588 1.818-0.263 1.106 0.326l-16.364 13.713z"></path>
</symbol>
<symbol id="github" viewBox="0 0 32 32">
<path d="M16 0.941c-8.271 0-15.059 6.788-15.059 15.059 0 7.058 4.953 13.47 11.529 15.059v-4.982c-0.652 0.143-1.251 0.147-1.915-0.049-0.89-0.263-1.613-0.856-2.15-1.76-0.342-0.577-0.949-1.203-1.581-1.157l-0.155-1.758c1.368-0.117 2.551 0.833 3.254 2.013 0.312 0.525 0.671 0.832 1.132 0.969 0.446 0.131 0.924 0.068 1.481-0.129 0.14-1.116 0.651-1.534 1.037-2.122v-0.001c-3.922-0.585-5.486-2.666-6.106-4.308-0.822-2.181-0.381-4.905 1.073-6.627 0.028-0.034 0.079-0.121 0.060-0.183-0.667-2.014 0.146-3.679 0.176-3.856 0.769 0.228 0.894-0.229 3.342 1.258l0.423 0.254c0.177 0.105 0.121 0.045 0.298 0.032 1.022-0.278 2.099-0.431 3.16-0.445 1.069 0.014 2.14 0.167 3.204 0.456l0.137 0.014c-0.012-0.002 0.037-0.009 0.12-0.058 3.057-1.852 2.947-1.247 3.767-1.513 0.030 0.177 0.831 1.87 0.172 3.858-0.089 0.274 2.65 2.782 1.132 6.809-0.62 1.643-2.184 3.724-6.106 4.309v0.001c0.503 0.766 1.107 1.174 1.104 2.755v6.219c6.577-1.589 11.529-8.001 11.529-15.059 0-8.271-6.787-15.059-15.059-15.059v0z"></path>
</symbol>
<symbol id="point" viewBox="0 0 35 32">
<path d="M33.053 16c0 8.837-7.163 16-16 16s-16-7.163-16-16c0-8.837 7.163-16 16-16s16 7.163 16 16z"></path>
</symbol>
<symbol id="heart" viewBox="0 0 32 32">
<path d="M13.885 3.822c-1.415-2.547-5.741-3.139-8.418 0.048-1.55 1.845-1.918 3.884-1.539 5.924 0.085 0.456 0.207 0.912 0.362 1.366 0.022 0.058 0.041 0.114 0.059 0.167 0.067 0.185 0.139 0.37 0.216 0.554 0.059 0.043 0.211 0.098 0.667 0.098 0.793 0 1.114-0.214 1.27-0.442 0.178-0.261 0.211-0.63 0.231-1.109l0.003-0.067c0.008-0.206 0.017-0.429 0.046-0.64 0.032-0.236 0.091-0.481 0.217-0.702 0.271-0.477 0.785-0.732 1.618-0.732 0.499 0 0.903 0.093 1.222 0.28 0.324 0.189 0.537 0.459 0.674 0.768 0.258 0.579 0.257 1.327 0.257 1.988v0.041c0 0.714 0.006 1.332 0.204 1.779 0.093 0.21 0.226 0.373 0.422 0.487 0.199 0.116 0.488 0.196 0.912 0.196 0.427 0 0.718-0.076 0.919-0.187 0.196-0.108 0.327-0.26 0.418-0.454 0.195-0.415 0.201-0.991 0.201-1.667v-0.042c-0-0.622-0-1.334 0.26-1.887 0.14-0.297 0.355-0.553 0.678-0.731 0.318-0.175 0.72-0.263 1.216-0.263s0.898 0.088 1.216 0.263c0.323 0.178 0.538 0.434 0.678 0.731 0.26 0.553 0.26 1.266 0.26 1.887v0.042c0 0.676 0.006 1.252 0.201 1.667 0.091 0.194 0.222 0.346 0.418 0.454 0.201 0.111 0.492 0.187 0.919 0.187 0.424 0 0.713-0.080 0.912-0.196 0.195-0.114 0.329-0.277 0.422-0.487 0.199-0.447 0.204-1.065 0.204-1.779v-0.041c-0-0.661-0-1.408 0.257-1.988 0.137-0.309 0.35-0.579 0.674-0.768 0.32-0.187 0.724-0.28 1.222-0.28 0.833 0 1.347 0.256 1.618 0.732 0.126 0.221 0.185 0.466 0.217 0.702 0.029 0.211 0.038 0.434 0.046 0.64l0.003 0.067c0.020 0.479 0.053 0.848 0.231 1.109 0.155 0.228 0.476 0.442 1.27 0.442 0.456 0 0.608-0.055 0.667-0.098 0.077-0.184 0.149-0.369 0.216-0.554 0.017-0.053 0.037-0.11 0.059-0.167 0.155-0.454 0.277-0.91 0.362-1.366 0.379-2.040 0.011-4.079-1.539-5.924-2.677-3.187-7.004-2.595-8.418-0.048-0.021 0.037-0.041 0.075-0.062 0.113l-0 0c-0.171 0.313-0.348 0.634-0.625 0.867-0.332 0.279-0.772 0.409-1.428 0.409s-1.096-0.13-1.428-0.409c-0.277-0.233-0.454-0.554-0.625-0.867l-0-0c-0.021-0.038-0.041-0.076-0.062-0.113zM16 4.596c0.575 0 0.852-0.114 1.032-0.265 0.184-0.154 0.302-0.369 0.488-0.705l0.057-0.102c1.662-2.992 6.525-3.504 9.428-0.048 1.681 2.001 2.082 4.232 1.673 6.432-0.101 0.545-0.252 1.087-0.445 1.623-0.020 0.061-0.037 0.118-0.053 0.175-0.011 0.037-0.022 0.073-0.033 0.111-0.038 0.125-0.088 0.273-0.184 0.401-0.588 1.374-1.436 2.7-2.415 3.917-1.52 1.891-3.37 3.536-5.096 4.711-0.863 0.587-1.7 1.061-2.453 1.388-0.748 0.325-1.437 0.516-1.999 0.516s-1.251-0.192-1.999-0.516c-0.754-0.327-1.59-0.8-2.453-1.388-1.725-1.175-3.575-2.82-5.095-4.711-0.978-1.216-1.826-2.542-2.415-3.917-0.096-0.129-0.146-0.277-0.184-0.401-0.011-0.037-0.022-0.074-0.033-0.111v0c-0.017-0.057-0.034-0.115-0.053-0.175-0.193-0.537-0.343-1.079-0.445-1.623-0.409-2.2-0.008-4.431 1.673-6.432 2.902-3.455 7.765-2.943 9.428 0.048l0.057 0.102c0.186 0.336 0.305 0.551 0.488 0.705 0.18 0.151 0.457 0.265 1.032 0.265zM16 22.134c0.439 0 1.037-0.155 1.754-0.466 0.71-0.308 1.513-0.761 2.352-1.332 1.678-1.143 3.482-2.747 4.962-4.588 0.806-1.003 1.512-2.070 2.049-3.165-0.107 0.008-0.223 0.012-0.348 0.012-0.899 0-1.463-0.247-1.778-0.711-0.293-0.431-0.318-0.985-0.337-1.43l-0.003-0.064c-0.009-0.212-0.017-0.404-0.041-0.585-0.027-0.197-0.071-0.355-0.142-0.481-0.123-0.216-0.378-0.421-1.084-0.421-0.424 0-0.713 0.080-0.912 0.196-0.195 0.114-0.329 0.277-0.422 0.487-0.199 0.447-0.204 1.065-0.204 1.779v0.041c0 0.661 0 1.408-0.257 1.988-0.137 0.309-0.35 0.579-0.674 0.768-0.32 0.187-0.724 0.28-1.222 0.28-0.496 0-0.898-0.088-1.216-0.263-0.323-0.178-0.538-0.434-0.678-0.731-0.26-0.553-0.26-1.266-0.26-1.887v-0.042c0-0.676-0.006-1.252-0.201-1.667-0.091-0.194-0.222-0.346-0.418-0.454-0.201-0.111-0.492-0.187-0.919-0.187s-0.718 0.076-0.919 0.187c-0.196 0.108-0.327 0.26-0.418 0.454-0.195 0.415-0.201 0.991-0.201 1.667v0.042c0 0.622 0 1.334-0.26 1.887-0.14 0.297-0.355 0.553-0.678 0.731-0.318 0.175-0.72 0.263-1.216 0.263-0.499 0-0.903-0.093-1.222-0.28-0.324-0.189-0.537-0.459-0.674-0.768-0.258-0.579-0.257-1.327-0.257-1.988v-0.041c0-0.714-0.006-1.332-0.204-1.779-0.093-0.21-0.226-0.373-0.422-0.487-0.199-0.116-0.488-0.196-0.912-0.196-0.705 0-0.961 0.206-1.084 0.421-0.071 0.125-0.115 0.284-0.142 0.481-0.025 0.18-0.032 0.373-0.041 0.585v0l-0.003 0.064c-0.019 0.444-0.043 0.999-0.337 1.43-0.316 0.464-0.879 0.712-1.778 0.712-0.124 0-0.24-0.003-0.348-0.012 0.537 1.095 1.243 2.162 2.049 3.165 1.48 1.84 3.284 3.445 4.962 4.587 0.839 0.571 1.642 1.024 2.352 1.332 0.716 0.311 1.315 0.466 1.754 0.466z"></path>
<path d="M5.466 3.871v0zM13.885 3.822v0zM3.928 9.794v0zM4.29 11.16l-0.582 0.199 0.003 0.009 0.003 0.009 0.576-0.217zM4.348 11.328l-0.585 0.191 0.003 0.009 0.003 0.009 0.579-0.208zM4.564 11.882l-0.568 0.238 0.067 0.159 0.14 0.101 0.361-0.498zM6.5 11.538v0zM6.731 10.429v0zM6.734 10.362v0zM6.78 9.722v0zM6.997 9.020v0zM9.838 8.568v0zM10.512 9.336v0zM10.769 11.324v0zM10.769 11.365v0zM10.973 13.144v0zM11.395 13.63v0zM13.227 13.64v0zM13.645 13.186v0zM13.846 11.519v0zM13.846 11.477v0zM14.106 9.59v0zM14.784 8.859v0zM17.216 8.859v0zM17.894 9.59v0zM18.154 11.477v0zM18.154 11.519v0zM18.355 13.186v0zM18.773 13.64v0zM20.605 13.63v0zM21.027 13.144v0zM21.231 11.365v0zM21.231 11.324v0zM21.488 9.336v0zM22.162 8.568v0zM25.003 9.020v0zM25.22 9.722v0zM25.266 10.362v0zM25.269 10.429v0zM25.5 11.538v0zM27.436 11.882l0.361 0.498 0.14-0.101 0.067-0.159-0.568-0.238zM27.652 11.328l0.579 0.208 0.003-0.009 0.003-0.009-0.585-0.191zM27.71 11.16l0.576 0.217 0.003-0.009 0.003-0.009-0.582-0.199zM28.073 9.794v0zM26.534 3.871v0zM18.115 3.822v0zM18.053 3.935l-0.54-0.296-0 0.001 0.54 0.295zM18.053 3.935l0.54 0.296 0-0.001-0.54-0.295zM17.428 4.802v0zM14.572 4.802v0zM13.947 3.935l-0.54 0.295 0 0.001 0.54-0.296zM13.947 3.935l0.54-0.295-0-0.001-0.54 0.296zM17.032 4.331v0zM17.521 3.625v0zM17.577 3.523l-0.538-0.299-0 0.001 0.538 0.298zM27.005 3.475v0zM28.678 9.907v0zM28.233 11.53l-0.579-0.208-0.003 0.009-0.003 0.009 0.586 0.189zM28.18 11.706v0zM28.146 11.817v0zM27.962 12.218l-0.493-0.369-0.044 0.059-0.029 0.068 0.566 0.242zM25.547 16.135v0zM20.452 20.845v0zM17.999 22.233v0zM14.001 22.233v0zM11.548 20.845v0zM6.453 16.135v0zM4.038 12.218l0.566-0.242-0.029-0.068-0.044-0.059-0.493 0.369zM3.854 11.817v0zM3.82 11.706l-0.591 0.17 0.001 0.004 0.59-0.174zM3.82 11.706l0.591-0.17-0.003-0.010-0.003-0.010-0.585 0.19zM3.82 11.706l-0.59 0.174 0.002 0.008 0.003 0.008 0.585-0.19zM3.767 11.53l0.586-0.189-0.003-0.009-0.003-0.009-0.579 0.208zM3.322 9.907v0zM4.995 3.475v0zM14.423 3.523l0.538-0.298-0-0.001-0.538 0.299zM14.479 3.625v0zM14.968 4.331v0zM17.754 21.669v0zM20.106 20.337v0zM25.068 15.749v0zM27.117 12.584l0.552 0.271 0.475-0.968-1.075 0.083 0.048 0.614zM24.991 11.884v0zM24.654 10.455v0zM24.651 10.39v0zM24.61 9.805v0zM24.468 9.325v0zM22.472 9.099v0zM22.050 9.586v0zM21.846 11.365v0zM21.846 11.406v0zM21.589 13.394v0zM20.915 14.162v0zM18.477 14.179v0zM17.799 13.448v0zM17.538 11.561v0zM17.538 11.519v0zM17.337 9.852v0zM16.919 9.398v0zM15.081 9.398v0zM14.663 9.852v0zM14.462 11.519v0zM14.462 11.561v0zM14.201 13.448v0zM13.523 14.179v0zM11.085 14.162v0zM10.411 13.394v0zM10.154 11.406v0zM10.154 11.365v0zM9.95 9.586v0zM9.528 9.099v0zM7.532 9.325v0zM7.39 9.805v0zM7.349 10.39l-0.615-0.025-0 0.003 0.615 0.022zM7.349 10.39l0.615 0.025 0-0.003-0.615-0.022zM7.346 10.455v0zM7.009 11.884v0zM4.883 12.584l0.048-0.614-1.075-0.083 0.475 0.968 0.553-0.271zM6.932 15.749v0zM11.894 20.337v0zM14.246 21.669v0zM5.938 4.266c2.45-2.917 6.241-2.249 7.409-0.145l1.076-0.598c-1.661-2.99-6.524-3.506-9.428-0.048l0.942 0.792zM4.533 9.682c-0.349-1.879-0.014-3.726 1.405-5.415l-0.942-0.792c-1.681 2.001-2.082 4.231-1.673 6.432l1.21-0.225zM4.872 10.962c-0.146-0.428-0.261-0.856-0.339-1.28l-1.21 0.225c0.091 0.488 0.221 0.973 0.385 1.453l1.165-0.398zM4.933 11.137c-0.020-0.060-0.042-0.126-0.068-0.194l-1.151 0.435c0.018 0.048 0.034 0.095 0.049 0.141l1.17-0.382zM5.132 11.645c-0.073-0.175-0.141-0.35-0.204-0.525l-1.158 0.417c0.070 0.195 0.146 0.39 0.227 0.584l1.135-0.475zM5.231 11.365c-0.207 0-0.318-0.013-0.369-0.022-0.054-0.010-0.009-0.011 0.063 0.042l-0.722 0.996c0.131 0.095 0.282 0.143 0.432 0.172 0.153 0.029 0.347 0.043 0.596 0.043v-1.231zM5.992 11.192c-0.010 0.014-0.033 0.048-0.122 0.084-0.101 0.042-0.293 0.089-0.639 0.089v1.231c0.901 0 1.463-0.248 1.778-0.712l-1.017-0.692zM6.116 10.403c-0.022 0.517-0.062 0.697-0.125 0.788l1.017 0.692c0.294-0.432 0.318-0.988 0.337-1.43l-1.23-0.051zM6.119 10.337l-0.003 0.067 1.23 0.050 0.003-0.067-1.23-0.050zM6.17 9.639c-0.033 0.245-0.043 0.497-0.051 0.698l1.23 0.050c0.009-0.211 0.017-0.404 0.041-0.582l-1.22-0.166zM6.462 8.716c-0.181 0.317-0.255 0.649-0.292 0.924l1.22 0.166c0.027-0.197 0.071-0.355 0.142-0.481l-1.070-0.609zM8.615 7.673c-0.96 0-1.732 0.304-2.153 1.043l1.070 0.609c0.122-0.214 0.377-0.421 1.084-0.421v-1.231zM10.148 8.036c-0.44-0.257-0.96-0.364-1.532-0.364v1.231c0.425 0 0.713 0.080 0.912 0.196l0.62-1.063zM11.074 9.086c-0.181-0.408-0.474-0.786-0.926-1.050l-0.62 1.063c0.195 0.114 0.329 0.276 0.422 0.487l1.125-0.5zM11.385 11.324c0-0.624 0.011-1.515-0.31-2.238l-1.125 0.5c0.194 0.437 0.204 1.040 0.204 1.738l1.231 0zM11.385 11.365v-0.041l-1.231-0v0.041l1.231 0zM11.536 12.894c-0.060-0.134-0.102-0.324-0.126-0.593s-0.025-0.575-0.025-0.936h-1.231c0 0.353 0.001 0.712 0.030 1.043s0.088 0.673 0.227 0.986l1.125-0.5zM11.705 13.099c-0.067-0.039-0.12-0.094-0.17-0.205l-1.125 0.5c0.137 0.309 0.351 0.579 0.674 0.768l0.62-1.063zM12.308 13.211c-0.35 0-0.523-0.066-0.602-0.112l-0.62 1.063c0.32 0.186 0.724 0.28 1.222 0.28v-1.231zM12.93 13.101c-0.084 0.046-0.264 0.11-0.622 0.11v1.231c0.496 0 0.898-0.088 1.216-0.263l-0.594-1.078zM13.088 12.924c-0.043 0.091-0.089 0.139-0.158 0.177l0.594 1.078c0.323-0.178 0.538-0.434 0.678-0.731l-1.114-0.524zM13.231 11.519c0 0.343-0.002 0.627-0.025 0.875s-0.064 0.415-0.118 0.53l1.114 0.524c0.141-0.3 0.201-0.628 0.23-0.941s0.030-0.655 0.030-0.988h-1.231zM13.231 11.477v0.042l1.231-0v-0.042l-1.231 0zM13.549 9.328c-0.33 0.702-0.319 1.565-0.319 2.149l1.231-0c-0-0.659 0.011-1.221 0.201-1.625l-1.114-0.524zM14.487 8.32c-0.45 0.248-0.75 0.608-0.938 1.008l1.114 0.524c0.091-0.194 0.222-0.346 0.418-0.454l-0.594-1.078zM16 7.98c-0.565 0-1.077 0.099-1.513 0.339l0.594 1.078c0.201-0.111 0.492-0.187 0.919-0.187v-1.231zM16 9.211c0.427 0 0.718 0.076 0.919 0.187l0.594-1.078c-0.436-0.24-0.948-0.339-1.513-0.339v1.231zM16.919 9.398c0.196 0.108 0.327 0.26 0.418 0.454l1.114-0.524c-0.188-0.4-0.488-0.76-0.938-1.008l-0.594 1.078zM17.337 9.852c0.19 0.405 0.202 0.966 0.201 1.625l1.231 0c0-0.584 0.012-1.447-0.319-2.149l-1.114 0.524zM17.538 11.477v0.042l1.231 0v-0.042l-1.231-0zM17.538 11.519c0 0.334 0.001 0.675 0.030 0.988s0.089 0.641 0.23 0.941l1.114-0.524c-0.054-0.115-0.095-0.282-0.118-0.53s-0.025-0.532-0.025-0.875h-1.231zM17.799 13.448c0.14 0.297 0.355 0.553 0.678 0.731l0.594-1.078c-0.069-0.038-0.116-0.087-0.158-0.177l-1.114 0.524zM18.477 14.179c0.318 0.175 0.72 0.263 1.216 0.263v-1.231c-0.358 0-0.538-0.064-0.622-0.11l-0.594 1.078zM19.692 14.442c0.499 0 0.903-0.093 1.222-0.28l-0.62-1.063c-0.079 0.046-0.252 0.112-0.602 0.112v1.231zM20.915 14.162c0.324-0.189 0.537-0.459 0.674-0.768l-1.125-0.5c-0.049 0.111-0.102 0.166-0.17 0.205l0.62 1.063zM21.589 13.394c0.139-0.313 0.198-0.656 0.227-0.986s0.030-0.691 0.030-1.043h-1.231c0 0.361-0.002 0.668-0.025 0.936s-0.066 0.459-0.126 0.593l1.125 0.5zM21.846 11.365v-0.041l-1.231 0v0.041l1.231-0zM21.846 11.324c-0-0.697 0.010-1.301 0.204-1.738l-1.125-0.5c-0.321 0.722-0.31 1.614-0.31 2.238l1.231-0zM22.050 9.586c0.093-0.21 0.227-0.373 0.422-0.487l-0.62-1.063c-0.452 0.264-0.745 0.642-0.926 1.050l1.125 0.5zM22.472 9.099c0.199-0.116 0.488-0.196 0.912-0.196v-1.231c-0.573 0-1.092 0.107-1.532 0.364l0.62 1.063zM23.385 8.903c0.707 0 0.961 0.207 1.084 0.421l1.070-0.609c-0.421-0.739-1.193-1.043-2.153-1.043v1.231zM24.468 9.325c0.071 0.125 0.115 0.284 0.142 0.481l1.22-0.166c-0.037-0.275-0.112-0.607-0.292-0.924l-1.070 0.609zM24.61 9.805c0.024 0.177 0.032 0.37 0.041 0.582l1.23-0.050c-0.008-0.201-0.018-0.453-0.051-0.698l-1.22 0.166zM24.651 10.387l0.003 0.067 1.23-0.050-0.003-0.067-1.23 0.050zM24.654 10.455c0.018 0.441 0.043 0.998 0.337 1.43l1.017-0.692c-0.062-0.091-0.103-0.272-0.125-0.788l-1.23 0.051zM24.991 11.884c0.315 0.463 0.878 0.712 1.778 0.712v-1.231c-0.346 0-0.538-0.047-0.639-0.089-0.088-0.037-0.112-0.070-0.122-0.084l-1.017 0.692zM26.769 12.596c0.249 0 0.442-0.015 0.596-0.043 0.151-0.028 0.302-0.077 0.432-0.172l-0.722-0.996c0.072-0.052 0.117-0.052 0.063-0.042-0.051 0.010-0.162 0.022-0.369 0.022v1.231zM28.004 12.12c0.081-0.194 0.157-0.388 0.227-0.584l-1.158-0.417c-0.063 0.175-0.131 0.35-0.204 0.525l1.135 0.475zM28.237 11.519c0.015-0.046 0.032-0.094 0.049-0.141l-1.151-0.435c-0.026 0.068-0.048 0.133-0.068 0.194l1.17 0.382zM28.293 11.359c0.164-0.48 0.294-0.965 0.385-1.453l-1.21-0.225c-0.079 0.424-0.193 0.851-0.339 1.28l1.165 0.398zM28.677 9.907c0.409-2.201 0.008-4.431-1.673-6.432l-0.942 0.792c1.419 1.689 1.755 3.536 1.405 5.415l1.21 0.225zM27.005 3.475c-2.904-3.457-7.767-2.941-9.428 0.048l1.076 0.598c1.169-2.104 4.959-2.771 7.409 0.145l0.942-0.792zM17.577 3.523c-0.022 0.039-0.043 0.078-0.064 0.116l1.079 0.592c0.021-0.038 0.041-0.074 0.061-0.11l-1.076-0.598zM17.513 3.64v0zM17.513 3.639c-0.182 0.331-0.307 0.546-0.481 0.691l0.791 0.943c0.381-0.319 0.608-0.749 0.769-1.042l-1.079-0.592zM17.032 4.331c-0.18 0.151-0.457 0.265-1.032 0.265v1.231c0.735 0 1.339-0.147 1.823-0.553l-0.791-0.943zM14.177 5.274c0.484 0.406 1.088 0.553 1.823 0.553v-1.231c-0.576 0-0.852-0.114-1.032-0.265l-0.791 0.943zM13.408 4.231c0.161 0.294 0.389 0.723 0.769 1.042l0.791-0.943c-0.174-0.146-0.299-0.36-0.481-0.691l-1.079 0.592zM13.407 4.23v0zM13.347 4.121c0.020 0.036 0.040 0.072 0.061 0.11l1.079-0.592c-0.021-0.038-0.042-0.077-0.064-0.116l-1.076 0.598zM16 5.211c0.656 0 1.096-0.131 1.428-0.409l-0.791-0.943c-0.029 0.024-0.142 0.121-0.637 0.121v1.231zM17.428 4.802c0.29-0.243 0.463-0.575 0.631-0.879l-1.077-0.596c-0.204 0.369-0.268 0.467-0.345 0.532l0.791 0.943zM18.059 3.924l0.057-0.102-1.077-0.596-0.057 0.102 1.077 0.596zM18.115 3.822c1.414-2.545 5.74-3.14 8.418 0.048l0.942-0.792c-3.126-3.722-8.526-3.294-10.437 0.145l1.076 0.598zM26.534 3.871c1.55 1.845 1.918 3.884 1.539 5.924l1.21 0.225c0.439-2.361 0.006-4.783-1.806-6.94l-0.942 0.792zM28.073 9.794c-0.095 0.509-0.236 1.019-0.419 1.528l1.158 0.416c0.203-0.565 0.363-1.139 0.47-1.719l-1.21-0.225zM27.647 11.341c-0.022 0.069-0.042 0.135-0.058 0.191l1.181 0.347c0.017-0.058 0.032-0.108 0.049-0.16l-1.171-0.378zM27.589 11.532c-0.011 0.037-0.021 0.071-0.031 0.104l1.177 0.361c0.013-0.041 0.024-0.081 0.035-0.118l-1.181-0.347zM27.558 11.636c-0.018 0.058-0.032 0.101-0.048 0.138-0.016 0.037-0.029 0.060-0.041 0.075l0.985 0.737c0.166-0.222 0.24-0.46 0.28-0.59l-1.177-0.361zM27.396 11.976c-0.561 1.312-1.377 2.59-2.328 3.773l0.959 0.771c1.005-1.249 1.885-2.623 2.501-4.060l-1.131-0.484zM25.068 15.749c-1.48 1.84-3.284 3.445-4.962 4.588l0.693 1.017c1.773-1.207 3.668-2.893 5.229-4.834l-0.959-0.771zM20.106 20.337c-0.839 0.571-1.642 1.024-2.352 1.332l0.49 1.129c0.797-0.346 1.668-0.84 2.554-1.444l-0.693-1.017zM17.754 21.669c-0.716 0.311-1.315 0.466-1.754 0.466v1.231c0.684 0 1.464-0.229 2.244-0.567l-0.49-1.129zM13.756 22.798c0.78 0.339 1.56 0.567 2.244 0.567v-1.231c-0.439 0-1.038-0.155-1.754-0.466l-0.49 1.129zM11.202 21.354c0.887 0.604 1.758 1.098 2.554 1.444l0.49-1.129c-0.71-0.308-1.513-0.761-2.352-1.332l-0.693 1.017zM5.973 16.52c1.561 1.941 3.456 3.627 5.229 4.834l0.693-1.017c-1.678-1.143-3.482-2.747-4.962-4.588l-0.959 0.771zM3.472 12.46c0.615 1.437 1.496 2.811 2.501 4.060l0.959-0.771c-0.952-1.184-1.767-2.462-2.328-3.773l-1.131 0.484zM3.265 11.997c0.040 0.129 0.114 0.368 0.28 0.59l0.985-0.737c-0.011-0.015-0.025-0.038-0.041-0.075-0.016-0.038-0.030-0.081-0.048-0.138l-1.177 0.361zM3.23 11.879c0.011 0.036 0.022 0.076 0.035 0.118l1.177-0.361c-0.010-0.033-0.020-0.067-0.031-0.104l-1.181 0.347zM3.229 11.876v0 0zM3.235 11.896v0zM3.182 11.719c0.017 0.052 0.031 0.102 0.049 0.16l1.181-0.347c-0.017-0.056-0.036-0.121-0.058-0.191l-1.171 0.378zM2.717 10.019c0.108 0.58 0.268 1.154 0.47 1.719l1.158-0.416c-0.183-0.509-0.324-1.019-0.419-1.528l-1.21 0.225zM4.524 3.079c-1.812 2.157-2.245 4.58-1.806 6.94l1.21-0.225c-0.379-2.040-0.011-4.079 1.539-5.924l-0.942-0.792zM14.961 3.224c-1.911-3.439-7.311-3.867-10.437-0.145l0.942 0.792c2.679-3.189 7.005-2.593 8.418-0.048l1.076-0.598zM15.018 3.327l-0.057-0.102-1.077 0.596 0.057 0.102 1.077-0.596zM15.363 3.859c-0.077-0.065-0.141-0.162-0.345-0.532l-1.077 0.596c0.168 0.304 0.342 0.636 0.631 0.879l0.791-0.943zM16 3.98c-0.495 0-0.608-0.097-0.637-0.121l-0.791 0.943c0.332 0.278 0.772 0.409 1.428 0.409v-1.231zM16 22.75c0.561 0 1.251-0.192 1.999-0.516l-0.49-1.129c-0.684 0.297-1.193 0.415-1.509 0.415v1.231zM17.999 22.233c0.754-0.327 1.59-0.8 2.453-1.388l-0.693-1.017c-0.815 0.555-1.584 0.987-2.251 1.276l0.49 1.129zM20.452 20.845c1.725-1.175 3.575-2.82 5.095-4.711l-0.959-0.771c-1.439 1.79-3.198 3.354-4.829 4.464l0.693 1.017zM25.547 16.135c0.829-1.031 1.561-2.136 2.122-3.28l-1.105-0.542c-0.514 1.047-1.193 2.076-1.976 3.050l0.959 0.771zM27.069 11.971c-0.087 0.007-0.186 0.010-0.3 0.010v1.231c0.135 0 0.267-0.004 0.395-0.013l-0.095-1.227zM26.769 11.98c-0.795 0-1.115-0.215-1.27-0.442l-1.017 0.692c0.477 0.701 1.284 0.981 2.287 0.981v-1.231zM25.5 11.538c-0.178-0.262-0.211-0.632-0.231-1.109l-1.23 0.051c0.017 0.412 0.035 1.15 0.443 1.75l1.017-0.692zM25.269 10.429l-0.003-0.064-1.23 0.051 0.003 0.064 1.23-0.051zM25.266 10.365c-0.008-0.205-0.017-0.428-0.046-0.643l-1.22 0.166c0.020 0.146 0.027 0.308 0.036 0.527l1.23-0.050zM25.22 9.722c-0.032-0.236-0.091-0.481-0.217-0.702l-1.070 0.609c0.017 0.029 0.046 0.101 0.067 0.259l1.22-0.166zM25.003 9.020c-0.118-0.208-0.304-0.407-0.597-0.544-0.277-0.13-0.615-0.188-1.021-0.188v1.231c0.299 0 0.441 0.045 0.499 0.072 0.042 0.020 0.045 0.031 0.050 0.039l1.070-0.609zM23.385 8.288c-0.499 0-0.903 0.093-1.222 0.28l0.62 1.063c0.079-0.046 0.252-0.112 0.602-0.112v-1.231zM22.162 8.568c-0.324 0.189-0.537 0.459-0.674 0.768l1.125 0.5c0.049-0.111 0.102-0.166 0.17-0.205l-0.62-1.063zM21.488 9.336c-0.139 0.313-0.198 0.656-0.227 0.986s-0.030 0.691-0.030 1.043h1.231c0-0.361 0.002-0.668 0.025-0.936s0.066-0.459 0.126-0.593l-1.125-0.5zM21.231 11.365v0.041l1.231-0v-0.041l-1.231 0zM21.231 11.406c0 0.697-0.010 1.301-0.204 1.738l1.125 0.5c0.321-0.722 0.31-1.614 0.31-2.238l-1.231 0zM21.027 13.144c-0.093 0.21-0.227 0.373-0.422 0.487l0.62 1.063c0.452-0.264 0.745-0.642 0.926-1.050l-1.125-0.5zM20.605 13.63c-0.199 0.116-0.488 0.196-0.912 0.196v1.231c0.573 0 1.092-0.107 1.532-0.364l-0.62-1.063zM19.692 13.826c-0.427 0-0.718-0.076-0.919-0.187l-0.594 1.078c0.436 0.24 0.948 0.339 1.513 0.339v-1.231zM18.773 13.64c-0.196-0.108-0.327-0.26-0.418-0.454l-1.114 0.524c0.188 0.4 0.488 0.76 0.938 1.008l0.594-1.078zM18.355 13.186c-0.19-0.405-0.202-0.966-0.201-1.625l-1.231-0c-0 0.584-0.012 1.447 0.319 2.149l1.114-0.524zM18.154 11.561v-0.042l-1.231-0v0.042l1.231 0zM18.154 11.519c0-0.334-0.001-0.675-0.030-0.988s-0.089-0.641-0.23-0.941l-1.114 0.524c0.054 0.115 0.095 0.282 0.118 0.53s0.025 0.532 0.025 0.875h1.231zM17.894 9.59c-0.14-0.297-0.355-0.553-0.678-0.731l-0.594 1.078c0.069 0.038 0.116 0.087 0.158 0.177l1.114-0.524zM17.216 8.859c-0.318-0.175-0.72-0.263-1.216-0.263v1.231c0.358 0 0.538 0.064 0.622 0.11l0.594-1.078zM15.378 9.937c0.084-0.046 0.264-0.11 0.622-0.11v-1.231c-0.496 0-0.898 0.088-1.216 0.263l0.594 1.078zM15.22 10.114c0.043-0.091 0.089-0.139 0.158-0.177l-0.594-1.078c-0.323 0.178-0.538 0.434-0.678 0.731l1.114 0.524zM15.077 11.519c0-0.343 0.002-0.627 0.025-0.875s0.064-0.415 0.118-0.53l-1.114-0.524c-0.141 0.3-0.201 0.628-0.23 0.941s-0.030 0.655-0.030 0.988h1.231zM15.077 11.561v-0.042l-1.231 0v0.042l1.231-0zM14.758 13.71c0.33-0.702 0.319-1.565 0.319-2.149l-1.231 0c0 0.659-0.011 1.221-0.201 1.625l1.114 0.524zM13.82 14.718c0.45-0.248 0.75-0.608 0.938-1.008l-1.114-0.524c-0.091 0.194-0.222 0.346-0.418 0.454l0.594 1.078zM12.308 15.057c0.565 0 1.077-0.099 1.513-0.339l-0.594-1.078c-0.201 0.111-0.492 0.187-0.919 0.187v1.231zM10.775 14.694c0.44 0.257 0.96 0.364 1.532 0.364v-1.231c-0.425 0-0.713-0.080-0.912-0.196l-0.62 1.063zM9.849 13.644c0.181 0.408 0.474 0.786 0.926 1.050l0.62-1.063c-0.195-0.114-0.329-0.276-0.422-0.487l-1.125 0.5zM9.538 11.406c-0 0.624-0.011 1.515 0.31 2.238l1.125-0.5c-0.194-0.437-0.204-1.040-0.204-1.738l-1.231-0zM9.538 11.365v0.041l1.231 0v-0.041l-1.231-0zM9.387 9.836c0.060 0.134 0.102 0.324 0.126 0.593s0.025 0.575 0.025 0.936h1.231c0-0.353-0.001-0.712-0.030-1.043s-0.088-0.673-0.227-0.986l-1.125 0.5zM9.218 9.631c0.067 0.039 0.12 0.094 0.17 0.205l1.125-0.5c-0.137-0.309-0.351-0.579-0.674-0.768l-0.62 1.063zM8.615 9.519c0.35 0 0.523 0.066 0.602 0.112l0.62-1.063c-0.32-0.186-0.724-0.28-1.222-0.28v1.231zM8.067 9.629c0.005-0.008 0.008-0.019 0.050-0.039 0.058-0.027 0.2-0.072 0.499-0.072v-1.231c-0.407 0-0.745 0.058-1.021 0.188-0.293 0.137-0.479 0.337-0.597 0.544l1.070 0.609zM7.999 9.888c0.022-0.158 0.051-0.23 0.067-0.259l-1.070-0.609c-0.126 0.221-0.185 0.467-0.217 0.702l1.22 0.166zM7.963 10.415c0.009-0.218 0.016-0.381 0.036-0.527l-1.22-0.166c-0.029 0.215-0.038 0.438-0.046 0.643l1.23 0.050zM7.963 10.412v0zM7.961 10.48l0.003-0.064-1.23-0.051-0.003 0.064 1.23 0.051zM7.518 12.23c0.408-0.6 0.426-1.339 0.443-1.75l-1.23-0.051c-0.020 0.477-0.052 0.847-0.231 1.109l1.017 0.692zM5.231 13.211c1.003 0 1.81-0.28 2.287-0.981l-1.017-0.692c-0.155 0.228-0.475 0.442-1.27 0.442v1.231zM4.835 13.198c0.128 0.010 0.261 0.013 0.395 0.013v-1.231c-0.114 0-0.213-0.003-0.3-0.010l-0.095 1.227zM7.412 15.363c-0.783-0.974-1.462-2.003-1.976-3.050l-1.105 0.542c0.561 1.143 1.293 2.248 2.122 3.28l0.959-0.771zM12.241 19.828c-1.631-1.111-3.39-2.674-4.829-4.464l-0.959 0.771c1.52 1.891 3.37 3.536 5.095 4.711l0.693-1.017zM14.492 21.104c-0.667-0.29-1.436-0.721-2.251-1.276l-0.693 1.017c0.863 0.587 1.7 1.061 2.453 1.388l0.49-1.129zM16 21.519c-0.316 0-0.824-0.117-1.508-0.415l-0.49 1.129c0.748 0.325 1.437 0.516 1.999 0.516v-1.231z"></path>
<path d="M13.538 21.815v9.723h4.923v-9.723c-0.561 0.299-1.455 0.492-2.462 0.492s-1.9-0.193-2.462-0.492zM14.769 29.692v-6.154h2.462v6.154h-2.462z"></path>
</symbol>
<symbol id="udder" viewBox="0 0 32 32">
<path d="M8.801 0.923h-0.308v0.308c0 0.116-0.006 0.234-0.012 0.359v0l-0.005 0.095c-0.007 0.155-0.013 0.323-0.002 0.481 0.021 0.309 0.114 0.688 0.496 0.879 0.269 0.134 0.578 0.393 0.695 0.715 0.103 0.283 0.087 0.7-0.467 1.254-0.947 0.947-0.907 2.052-0.346 2.709 0.274 0.32 0.67 0.526 1.106 0.522 0.442-0.004 0.88-0.222 1.236-0.667 0.523-0.654 1.298-0.784 1.953-0.522s1.191 0.92 1.191 1.868c0 0.892 0.189 1.553 0.527 2.001s0.802 0.65 1.283 0.664v0.001l0.016-0 0.016 0v-0.001c0.481-0.014 0.945-0.217 1.283-0.664s0.527-1.109 0.527-2.001c0-0.949 0.537-1.606 1.191-1.868s1.43-0.132 1.953 0.522c0.356 0.445 0.794 0.663 1.236 0.667 0.436 0.004 0.832-0.202 1.106-0.522 0.562-0.657 0.602-1.761-0.346-2.709-0.554-0.554-0.57-0.972-0.467-1.254 0.117-0.321 0.426-0.58 0.695-0.715 0.382-0.191 0.474-0.569 0.496-0.879 0.011-0.159 0.005-0.326-0.002-0.481l-0.005-0.095c-0.006-0.125-0.012-0.243-0.012-0.359v-0.308h-15.038zM16.975 10.553c-0.216 0.286-0.499 0.411-0.808 0.42-0.309-0.009-0.592-0.134-0.808-0.42-0.229-0.303-0.403-0.815-0.403-1.63 0-1.205-0.694-2.086-1.578-2.439s-1.955-0.176-2.662 0.709c-0.26 0.325-0.534 0.434-0.761 0.436-0.233 0.002-0.463-0.108-0.633-0.306-0.325-0.38-0.439-1.122 0.313-1.874 0.677-0.677 0.815-1.336 0.61-1.9-0.191-0.525-0.651-0.881-0.998-1.055-0.079-0.039-0.14-0.122-0.157-0.371-0.008-0.12-0.005-0.256 0.003-0.411l0.004-0.086 0.004-0.088h14.132l0.004 0.088 0.004 0.086c0.007 0.155 0.011 0.291 0.003 0.411-0.017 0.248-0.078 0.332-0.157 0.371-0.347 0.173-0.807 0.53-0.998 1.055-0.205 0.564-0.066 1.223 0.61 1.9 0.752 0.752 0.638 1.494 0.313 1.874-0.17 0.198-0.399 0.309-0.633 0.306-0.227-0.002-0.501-0.111-0.761-0.436-0.708-0.885-1.779-1.062-2.662-0.709s-1.578 1.234-1.578 2.44c0 0.815-0.174 1.327-0.403 1.63zM6.163 14.658l3.424 15.692c0.093 0.424 0.468 0.726 0.902 0.726h11.308c0.44 0 0.819-0.311 0.905-0.742l3.138-15.692c0.114-0.571-0.323-1.104-0.905-1.104h-17.87c-0.589 0-1.027 0.544-0.902 1.12zM10.188 30.219l-3.326-15.246c1.028 2.957 2.461 5.036 4.107 6.35 1.782 1.422 3.796 1.934 5.764 1.699 3.283-0.392 6.391-2.85 8.106-6.512l-2.741 13.704c-0.029 0.144-0.155 0.247-0.302 0.247h-11.308c-0.145 0-0.27-0.101-0.301-0.242zM24.935 14.154c0.042 0 0.081 0.008 0.117 0.023-1.316 4.658-4.797 7.805-8.392 8.234-1.805 0.216-3.655-0.249-5.307-1.569-1.641-1.31-3.102-3.475-4.114-6.689h17.696z"></path>
<path d="M8.494 0.923v-0.615h-0.615v0.615h0.615zM8.482 1.589l-0.615-0.030-0.001 0.015v0.015h0.615zM8.482 1.589l0.615 0.029 0.001-0.015v-0.015h-0.615zM8.477 1.684l-0.615-0.029-0 0.001 0.615 0.028zM8.476 2.166v0zM8.972 3.044v0zM9.666 3.759v0zM9.199 5.013v0zM8.853 7.722v0zM9.959 8.244v0zM11.196 7.577v0zM13.149 7.055v0zM14.867 10.924v0zM16.15 11.588l0.615-0.007-0.007-0.591-0.591-0.017-0.017 0.615zM16.15 11.588l-0.615 0.007 0.007 0.618 0.618-0.009-0.009-0.615zM16.167 11.588l0.009-0.615-0.009-0-0.009 0 0.009 0.615zM16.183 11.588l-0.009 0.615 0.618 0.009 0.007-0.618-0.615-0.007zM16.183 11.588l-0.017-0.615-0.591 0.017-0.007 0.591 0.615 0.007zM17.466 10.924v0zM19.184 7.055v0zM21.138 7.577v0zM22.374 8.244v0zM23.48 7.722v0zM23.134 5.013v0zM22.667 3.759v0zM23.362 3.044v0zM23.858 2.166v0zM23.856 1.684l0.615-0.028-0-0.001-0.615 0.029zM23.851 1.589h-0.615v0.015l0.001 0.015 0.615-0.029zM23.851 1.589h0.615v-0.015l-0.001-0.015-0.615 0.030zM23.839 0.923h0.615v-0.615h-0.615v0.615zM16.167 10.972l-0.018 0.615 0.018 0.001 0.018-0.001-0.018-0.615zM16.975 10.553v0zM15.358 10.553v0zM13.377 6.484v0zM10.715 7.192v0zM9.954 7.628v0zM9.321 7.322v0zM9.634 5.448v0zM10.244 3.549v0zM9.247 2.494v0zM9.089 2.123v0zM9.092 1.713l-0.615-0.030-0 0.001 0.615 0.028zM9.096 1.626v0zM9.1 1.538v-0.615h-0.587l-0.028 0.586 0.615 0.030zM23.233 1.538l0.615-0.030-0.028-0.586h-0.586v0.615zM23.237 1.626v0zM23.241 1.713l0.615-0.028-0-0.001-0.615 0.030zM23.244 2.123v0zM23.086 2.494v0zM22.089 3.549v0zM22.699 5.448v0zM23.012 7.322v0zM22.379 7.628v0zM21.618 7.192v0zM18.956 6.484v0zM6.163 14.658v0zM25.84 14.643v0zM22.702 30.335v0zM9.587 30.351v0zM6.862 14.973l0.581-0.202-1.183 0.333 0.601-0.131zM10.188 30.219v0zM10.969 21.323v0zM16.733 23.022v0zM24.839 16.511l0.603 0.121-1.161-0.382 0.557 0.261zM22.098 30.214v0zM25.052 14.177l0.592 0.167 0.149-0.528-0.507-0.209-0.234 0.569zM16.66 22.411v0zM11.353 20.842v0zM7.239 14.154v-0.615h-0.839l0.252 0.8 0.587-0.185zM8.494 1.538h0.308v-1.231h-0.308v1.231zM9.109 1.231v-0.308h-1.231v0.308h1.231zM9.097 1.619c0.006-0.122 0.013-0.255 0.013-0.389h-1.231c0 0.098-0.005 0.201-0.011 0.329l1.229 0.060zM9.097 1.589v0 0zM9.092 1.714l0.005-0.095-1.229-0.059-0.005 0.095 1.229 0.059zM9.089 2.123c-0.008-0.12-0.005-0.256 0.003-0.411l-1.229-0.057c-0.007 0.156-0.015 0.355-0.001 0.552l1.228-0.085zM9.247 2.494c-0.051-0.025-0.078-0.057-0.101-0.105-0.028-0.061-0.048-0.148-0.056-0.265l-1.228 0.085c0.025 0.367 0.148 1.043 0.835 1.387l0.55-1.101zM10.244 3.549c-0.191-0.524-0.651-0.881-0.998-1.055l-0.55 1.101c0.082 0.041 0.173 0.103 0.251 0.178 0.079 0.076 0.122 0.146 0.14 0.196l1.157-0.421zM9.634 5.448c0.327-0.327 0.539-0.657 0.636-0.994 0.1-0.347 0.065-0.655-0.026-0.906l-1.157 0.421c0.012 0.032 0.021 0.073 0 0.144-0.024 0.081-0.097 0.238-0.324 0.464l0.87 0.87zM9.321 7.322c-0.324-0.379-0.44-1.12 0.313-1.874l-0.87-0.87c-1.141 1.141-1.178 2.609-0.378 3.544l0.935-0.8zM9.954 7.628c-0.233 0.002-0.463-0.108-0.633-0.306l-0.935 0.8c0.377 0.441 0.941 0.743 1.579 0.737l-0.011-1.231zM10.715 7.192c-0.26 0.325-0.534 0.434-0.761 0.436l0.011 1.231c0.657-0.006 1.26-0.334 1.711-0.898l-0.961-0.769zM13.377 6.484c-0.884-0.354-1.955-0.175-2.662 0.709l0.961 0.769c0.339-0.424 0.818-0.505 1.244-0.335l0.457-1.143zM14.955 8.923c0-1.205-0.694-2.086-1.578-2.439l-0.457 1.143c0.425 0.17 0.804 0.605 0.804 1.297h1.231zM15.358 10.553c-0.229-0.303-0.403-0.815-0.403-1.63h-1.231c0 0.968 0.204 1.779 0.652 2.372l0.982-0.742zM16.168 10.972c-0.309-0.009-0.593-0.133-0.81-0.42l-0.982 0.742c0.459 0.607 1.103 0.889 1.757 0.908l0.035-1.23zM16.766 11.581v-0.001l-1.231 0.014 1.231-0.014zM16.157 10.973l-0.016 0 0.019 1.231 0.016-0-0.019-1.231zM16.192 10.973l-0.016-0-0.019 1.231 0.016 0 0.019-1.231zM15.567 11.581v0.001l1.231 0.013-1.231-0.014zM16.975 10.553c-0.217 0.287-0.501 0.411-0.81 0.42l0.035 1.23c0.654-0.019 1.298-0.301 1.757-0.908l-0.982-0.742zM17.378 8.923c0 0.815-0.174 1.327-0.403 1.63l0.982 0.742c0.447-0.592 0.652-1.403 0.652-2.372h-1.231zM18.956 6.484c-0.884 0.354-1.578 1.234-1.578 2.44h1.231c0-0.692 0.379-1.127 0.804-1.297l-0.457-1.143zM21.618 7.192c-0.707-0.884-1.778-1.063-2.662-0.709l0.457 1.143c0.426-0.17 0.905-0.089 1.244 0.335l0.961-0.769zM22.379 7.628c-0.227-0.002-0.501-0.111-0.761-0.436l-0.961 0.769c0.451 0.564 1.055 0.892 1.711 0.898l0.011-1.231zM23.012 7.322c-0.17 0.199-0.4 0.309-0.633 0.306l-0.011 1.231c0.639 0.006 1.202-0.296 1.579-0.737l-0.935-0.8zM22.699 5.448c0.753 0.753 0.637 1.495 0.313 1.874l0.935 0.8c0.799-0.935 0.763-2.402-0.378-3.544l-0.87 0.87zM22.089 3.549c-0.091 0.251-0.126 0.559-0.026 0.906 0.097 0.336 0.309 0.666 0.636 0.994l0.87-0.87c-0.227-0.227-0.3-0.383-0.324-0.464-0.021-0.071-0.012-0.112 0-0.144l-1.157-0.421zM23.086 2.494c-0.347 0.174-0.807 0.53-0.998 1.055l1.157 0.421c0.018-0.050 0.062-0.12 0.14-0.196 0.078-0.075 0.169-0.138 0.251-0.178l-0.55-1.101zM23.244 2.123c-0.008 0.117-0.028 0.205-0.056 0.265-0.023 0.049-0.050 0.080-0.101 0.105l0.55 1.101c0.687-0.343 0.809-1.020 0.835-1.387l-1.228-0.085zM23.241 1.713c0.007 0.155 0.011 0.29 0.003 0.411l1.228 0.085c0.014-0.198 0.006-0.396-0.001-0.552l-1.229 0.057zM23.237 1.619l0.005 0.095 1.229-0.059-0.005-0.095-1.229 0.059zM23.236 1.589v0 0zM23.224 1.231c0 0.133 0.007 0.266 0.013 0.389l1.229-0.060c-0.006-0.128-0.011-0.231-0.011-0.329h-1.231zM23.224 0.923v0.308h1.231v-0.308h-1.231zM23.532 1.538h0.308v-1.231h-0.308v1.231zM16.186 1.538h7.346v-1.231h-7.346v1.231zM16.147 1.538h0.039v-1.231h-0.039v1.231zM8.801 1.538h7.346v-1.231h-7.346v1.231zM16.184 11.587c0.483-0.014 0.945-0.219 1.281-0.664l-0.982-0.742c-0.096 0.127-0.2 0.171-0.335 0.175l0.036 1.23zM14.867 10.924c0.336 0.445 0.799 0.65 1.281 0.664l0.036-1.23c-0.135-0.004-0.239-0.048-0.335-0.175l-0.982 0.742zM14.34 8.923c0 0.892 0.189 1.553 0.527 2.001l0.982-0.742c-0.119-0.158-0.279-0.521-0.279-1.259h-1.231zM13.149 7.055c0.655 0.262 1.191 0.92 1.191 1.868h1.231c0-1.462-0.852-2.566-1.965-3.011l-0.457 1.143zM11.196 7.577c0.523-0.653 1.298-0.784 1.953-0.522l0.457-1.143c-1.111-0.445-2.479-0.22-3.371 0.896l0.961 0.769zM9.959 8.244c0.441-0.004 0.88-0.222 1.236-0.667l-0.961-0.769c-0.085 0.106-0.155 0.156-0.199 0.179-0.043 0.023-0.072 0.026-0.087 0.026l0.011 1.231zM8.853 7.722c0.274 0.321 0.671 0.526 1.106 0.522l-0.011-1.231c-0.032 0-0.095-0.015-0.16-0.091l-0.935 0.8zM9.199 5.013c-0.46 0.461-0.701 0.966-0.739 1.465-0.038 0.493 0.127 0.933 0.393 1.244l0.935-0.8c-0.059-0.069-0.114-0.19-0.101-0.351 0.012-0.155 0.091-0.396 0.382-0.688l-0.87-0.87zM9.666 3.759c0.102 0.281 0.088 0.699-0.467 1.254l0.87 0.87c0.798-0.798 1.061-1.7 0.753-2.545l-1.157 0.421zM8.972 3.044c0.269 0.135 0.578 0.393 0.695 0.715l1.157-0.421c-0.265-0.728-0.877-1.183-1.301-1.395l-0.55 1.101zM8.476 2.166c0.011 0.16 0.039 0.331 0.115 0.488 0.088 0.183 0.223 0.312 0.381 0.391l0.55-1.101c0.031 0.016 0.069 0.040 0.106 0.077s0.059 0.073 0.072 0.099c0.012 0.025 0.014 0.038 0.012 0.030s-0.005-0.029-0.008-0.070l-1.228 0.085zM8.477 1.684c-0.007 0.155-0.013 0.323-0.002 0.481l1.228-0.085c-0.006-0.081-0.004-0.186 0.003-0.34l-1.229-0.057zM8.482 1.597l-0.004 0.086 1.229 0.059 0.004-0.086-1.229-0.059zM8.486 1.509l-0.004 0.088 1.229 0.059 0.004-0.088-1.229-0.059zM16.147 0.923h-7.047v1.231h7.047v-1.231zM16.186 0.923h-0.039v1.231h0.039v-1.231zM23.233 0.923h-7.047v1.231h7.047v-1.231zM23.852 1.597l-0.004-0.088-1.229 0.059 0.004 0.088 1.229-0.059zM23.856 1.683l-0.004-0.086-1.229 0.059 0.004 0.086 1.229-0.059zM23.858 2.166c0.011-0.159 0.005-0.326-0.002-0.481l-1.229 0.057c0.007 0.154 0.009 0.258 0.003 0.34l1.228 0.085zM23.362 3.044c0.158-0.079 0.293-0.208 0.381-0.391 0.076-0.157 0.104-0.328 0.115-0.488l-1.228-0.085c-0.003 0.041-0.007 0.062-0.008 0.070s0-0.005 0.012-0.030c0.013-0.027 0.035-0.063 0.072-0.099s0.075-0.062 0.106-0.077l0.55 1.101zM22.667 3.759c0.117-0.321 0.425-0.58 0.695-0.715l-0.55-1.101c-0.424 0.212-1.036 0.667-1.301 1.395l1.157 0.421zM23.134 5.013c-0.555-0.555-0.569-0.973-0.467-1.254l-1.157-0.421c-0.307 0.846-0.044 1.747 0.753 2.545l0.87-0.87zM23.48 7.722c0.266-0.311 0.431-0.751 0.393-1.244-0.038-0.499-0.278-1.004-0.739-1.465l-0.87 0.87c0.291 0.291 0.37 0.533 0.382 0.688 0.012 0.161-0.042 0.282-0.101 0.351l0.935 0.8zM22.374 8.244c0.435 0.004 0.832-0.201 1.106-0.522l-0.935-0.8c-0.065 0.076-0.128 0.091-0.16 0.091l-0.011 1.231zM21.138 7.577c0.356 0.445 0.795 0.663 1.236 0.667l0.011-1.231c-0.015-0-0.044-0.003-0.087-0.026-0.044-0.023-0.114-0.073-0.199-0.179l-0.961 0.769zM19.184 7.055c0.655-0.262 1.43-0.132 1.953 0.522l0.961-0.769c-0.892-1.116-2.26-1.34-3.371-0.896l0.457 1.143zM17.993 8.923c0-0.949 0.536-1.606 1.191-1.868l-0.457-1.143c-1.113 0.445-1.965 1.549-1.965 3.011h1.231zM17.466 10.924c0.338-0.447 0.527-1.109 0.527-2.001h-1.231c0 0.737-0.159 1.101-0.279 1.259l0.982 0.742zM7.065 12.923c-0.982 0-1.712 0.907-1.503 1.866l1.202-0.262c-0.042-0.192 0.104-0.373 0.301-0.373v-1.231zM24.935 12.923h-17.87v1.231h17.87v-1.231zM26.444 14.763c0.19-0.952-0.538-1.84-1.509-1.84v1.231c0.194 0 0.34 0.178 0.302 0.368l1.207 0.241zM23.305 30.456l3.138-15.692-1.207-0.241-3.138 15.692 1.207 0.241zM21.797 31.692c0.733 0 1.365-0.518 1.509-1.237l-1.207-0.241c-0.029 0.144-0.155 0.247-0.302 0.247v1.231zM10.489 31.692h11.308v-1.231h-11.308v1.231zM8.986 30.482c0.154 0.707 0.78 1.211 1.503 1.211v-1.231c-0.145 0-0.27-0.101-0.301-0.242l-1.202 0.262zM5.562 14.789l3.424 15.692 1.202-0.262-3.424-15.692-1.202 0.262zM6.261 15.105l3.326 15.246 1.203-0.262-3.326-15.246-1.202 0.262zM11.353 20.842c-1.533-1.224-2.91-3.195-3.91-6.071l-1.163 0.404c1.056 3.037 2.546 5.225 4.304 6.629l0.768-0.962zM16.66 22.411c-1.805 0.216-3.655-0.249-5.307-1.569l-0.768 0.962c1.911 1.525 4.090 2.083 6.221 1.829l-0.146-1.222zM24.282 16.25c-1.645 3.513-4.593 5.8-7.622 6.161l0.146 1.222c3.538-0.423 6.806-3.051 8.59-6.862l-1.115-0.522zM22.702 30.335l2.741-13.704-1.207-0.241-2.741 13.704 1.207 0.241zM21.797 31.077c0.44 0 0.819-0.311 0.905-0.742l-1.207-0.241c0.029-0.144 0.155-0.247 0.302-0.247v1.231zM10.489 31.077h11.308v-1.231h-11.308v1.231zM9.587 30.351c0.093 0.424 0.468 0.726 0.902 0.726v-1.231c0.145 0 0.27 0.101 0.301 0.242l-1.203 0.262zM25.286 13.608c-0.109-0.045-0.228-0.069-0.351-0.069v1.231c-0.040 0-0.080-0.008-0.117-0.023l0.468-1.138zM16.733 23.022c3.895-0.465 7.543-3.837 8.911-8.678l-1.184-0.335c-1.265 4.475-4.578 7.397-7.873 7.79l0.146 1.222zM10.969 21.323c1.782 1.422 3.796 1.934 5.764 1.699l-0.146-1.222c-1.642 0.196-3.327-0.222-4.85-1.438l-0.768 0.962zM6.652 14.339c1.038 3.296 2.556 5.579 4.317 6.985l0.768-0.962c-1.521-1.214-2.925-3.262-3.911-6.393l-1.174 0.37zM24.935 13.538h-17.696v1.231h17.696v-1.231z"></path>
</symbol>
<symbol id="logo" viewBox="0 0 32 32">
<path d="M21.538 31.015c6.107-2.253 10.462-8.126 10.462-15.015 0-8.837-7.163-16-16-16s-16 7.163-16 16c0 7.119 4.649 13.152 11.077 15.228v-2.442c-2.466-0.56-4.308-2.765-4.308-5.401v-2.619c-1.076-0.38-1.846-1.406-1.846-2.612s0.771-2.232 1.846-2.612v-2.004c0-4.758 3.857-8.615 8.615-8.615h1.231c4.758 0 8.615 3.857 8.615 8.615v2.313c0.742 0.497 1.231 1.343 1.231 2.303s-0.489 1.806-1.231 2.303v2.928c0 2.412-1.541 4.463-3.692 5.223v2.408zM19.692 31.572v-2.649h-6.769v2.781c0.996 0.194 2.024 0.296 3.077 0.296 1.271 0 2.507-0.148 3.692-0.428zM23.385 13.415v1.969h-14.769v-1.969c0-0.667 0.089-1.314 0.255-1.929 2.168 0.925 4.734 1.429 7.373 1.437 2.46 0.008 4.862-0.415 6.944-1.211 0.129 0.547 0.197 1.117 0.197 1.704zM21.538 20.923h1.846v2.462c0 2.039-1.653 3.692-3.692 3.692h-7.385c-2.039 0-3.692-1.653-3.692-3.692v-2.462h7.385v0.923c0 1.529 1.24 2.769 2.769 2.769s2.769-1.24 2.769-2.769v-0.923zM9.588 9.75c1.88 0.97 4.235 1.504 6.669 1.511 2.263 0.007 4.465-0.442 6.286-1.275-1.235-2.352-3.701-3.956-6.542-3.956-2.745 0-5.139 1.497-6.412 3.719zM21.538 19.077h2.343c0.51 0 0.923-0.413 0.923-0.923s-0.413-0.923-0.923-0.923h-16.379c-0.51 0-0.923 0.413-0.923 0.923s0.413 0.923 0.923 0.923h10.343v2.769c0 0.51 0.413 0.923 0.923 0.923s0.923-0.413 0.923-0.923v-2.769h1.846z"></path>
</symbol>
<symbol id="apples" viewBox="0 0 32 32">
<path d="M16.706 3.994c0.33-1.149 0.933-2.292 1.777-2.908l0.363 0.497c-0.685 0.5-1.235 1.49-1.549 2.581-0.291 1.012-0.357 2.036-0.185 2.728 0.669-1.292 1.714-1.866 2.735-1.874 1.119-0.009 2.174 0.671 2.536 1.729 0.67 1.957 0.488 3.551-0.091 4.781h0.094c0.583 0 1.019 0.533 0.905 1.104l-1.682 8.411c0.013-0 0.025-0 0.038-0 1.002 0 2.031 0.545 2.711 1.781-0.198-0.81-0.104-1.919 0.191-2.947 0.315-1.096 0.882-2.187 1.675-2.773l0.366 0.495c-0.634 0.469-1.15 1.408-1.449 2.449s-0.355 2.094-0.152 2.752l-0.554 0.171c0.067 0.133 0.131 0.273 0.19 0.421 0.031 0.078 0.054 0.093 0.056 0.095l0 0c0.002 0.001 0.021 0.014 0.095 0.014 0.027 0 0.041-0.003 0.047-0.006s0.008-0.003 0.011-0.006c0.007-0.006 0.029-0.028 0.057-0.098 0.655-1.637 1.834-2.347 2.978-2.347 1.119 0 2.169 0.688 2.523 1.749 0.934 2.803 0.134 4.841-1.046 6.131-0.584 0.638-1.258 1.090-1.85 1.363-0.296 0.137-0.578 0.231-0.824 0.281-0.235 0.048-0.476 0.063-0.669-0.001l-0.069-0.023-0.051-0.051c-0.282-0.282-0.503-0.405-0.67-0.463s-0.305-0.058-0.457-0.058-0.287 0.001-0.453 0.058c-0.166 0.057-0.385 0.181-0.668 0.463l-0.051 0.051-0.069 0.023c-0.193 0.064-0.434 0.049-0.669 0.001-0.246-0.050-0.528-0.145-0.824-0.281-0.593-0.273-1.266-0.725-1.85-1.363-0.038-0.041-0.075-0.083-0.112-0.126l-0.324 1.62c-0.086 0.431-0.465 0.742-0.905 0.742h-12.829c-0.434 0-0.809-0.302-0.902-0.726l-3.88-17.784c-0.123-0.562 0.292-1.094 0.86-1.119-0.245-0.518-0.442-1.108-0.579-1.778-0.224-1.095 0.341-2.216 1.31-2.776 0.991-0.572 2.367-0.547 3.753 0.544 0.066 0.052 0.094 0.054 0.096 0.054h0c0.003 0 0.026 0.002 0.090-0.035 0.023-0.013 0.034-0.023 0.038-0.028s0.005-0.007 0.006-0.010c0.003-0.009 0.011-0.038 0-0.113-0.014-0.094-0.024-0.187-0.033-0.278l-0.301 0.33c-0.665-0.608-1.209-1.735-1.491-2.902s-0.325-2.464 0.104-3.419l0.561 0.252c-0.348 0.775-0.336 1.913-0.068 3.022 0.246 1.019 0.69 1.939 1.177 2.462-0.058-1.459 0.568-2.478 1.455-2.99 0.969-0.56 2.223-0.489 3.059 0.253 0.46 0.408 0.839 0.825 1.147 1.246 0.631-0.319 1.399-0.4 2.138-0.146 0.833 0.286 1.593 0.986 2.080 2.174 0.032 0.078 0.055 0.093 0.057 0.094l0 0c0.002 0.001 0.021 0.014 0.096 0.013 0.027-0 0.041-0.004 0.047-0.006s0.008-0.004 0.011-0.006c0.007-0.006 0.028-0.028 0.056-0.098 0.040-0.102 0.082-0.2 0.125-0.295l-0.442 0.145c-0.279-0.853-0.196-2.095 0.134-3.244zM12.748 5.881c0.536 0.9 0.77 1.804 0.801 2.656 0.042 1.161-0.294 2.206-0.723 2.991h8.778c0.608-1.11 0.869-2.623 0.199-4.582-0.268-0.783-1.069-1.32-1.949-1.313-0.856 0.007-1.827 0.535-2.391 1.979-0.046 0.118-0.116 0.248-0.235 0.347-0.126 0.105-0.279 0.153-0.446 0.154-0.141 0.001-0.295-0.021-0.436-0.113s-0.23-0.228-0.291-0.377c-0.431-1.054-1.073-1.606-1.71-1.825-0.548-0.188-1.118-0.139-1.595 0.082zM12.111 11.528c0.463-0.723 0.866-1.782 0.823-2.969-0.045-1.238-0.574-2.643-2.084-3.982-0.619-0.549-1.581-0.621-2.343-0.181-0.741 0.428-1.325 1.366-1.104 2.901 0.018 0.126 0.021 0.273-0.033 0.418-0.058 0.154-0.168 0.271-0.312 0.354-0.122 0.070-0.267 0.127-0.435 0.117s-0.313-0.085-0.439-0.184c-1.219-0.959-2.323-0.922-3.064-0.495-0.763 0.44-1.181 1.308-1.015 2.12 0.152 0.745 0.382 1.373 0.664 1.9h9.343zM19.565 28.131c-0.81-1.277-1.201-3.055-0.439-5.339 0.28-0.84 0.997-1.447 1.84-1.663l1.53-7.651c-1.814 4.727-5.585 7.944-9.581 8.425-2.22 0.267-4.493-0.314-6.504-1.933-1.73-1.392-3.254-3.542-4.394-6.555l3.684 16.886c0.031 0.141 0.156 0.242 0.301 0.242h12.829c0.147 0 0.273-0.104 0.302-0.247l0.433-2.165zM2.221 12.143c1.144 3.504 2.762 5.888 4.575 7.348 1.881 1.515 3.988 2.049 6.044 1.801 4.018-0.484 7.904-3.972 9.461-9.149h-20.080zM21.648 21.658c-0.881 0-1.677 0.543-1.939 1.328-0.86 2.58-0.121 4.387 0.916 5.521 0.525 0.573 1.13 0.978 1.654 1.22 0.262 0.121 0.498 0.198 0.689 0.237 0.142 0.029 0.239 0.032 0.298 0.027 0.306-0.292 0.581-0.457 0.835-0.545 0.266-0.092 0.488-0.092 0.643-0.092h0.023c0.155-0 0.379-0 0.646 0.092 0.256 0.088 0.532 0.253 0.839 0.545 0.059 0.005 0.156 0.002 0.298-0.027 0.19-0.039 0.427-0.116 0.689-0.237 0.524-0.242 1.129-0.646 1.654-1.22 1.038-1.134 1.776-2.941 0.916-5.521-0.262-0.785-1.058-1.328-1.939-1.328-0.856 0-1.831 0.521-2.407 1.96-0.047 0.118-0.118 0.247-0.238 0.345-0.127 0.104-0.281 0.15-0.448 0.15-0.141 0-0.295-0.024-0.435-0.116s-0.228-0.23-0.288-0.379c-0.576-1.44-1.551-1.96-2.407-1.96z"></path>
<path d="M18.484 1.086l0.497-0.363-0.363-0.497-0.497 0.363 0.363 0.497zM16.706 3.994v0zM18.846 1.583l0.363 0.497 0.497-0.363-0.363-0.497-0.497 0.363zM17.298 4.164v0zM17.113 6.892l-0.597 0.148 0.393 1.583 0.75-1.448-0.546-0.283zM19.848 5.018v0zM22.384 6.747v0zM22.293 11.528l-0.557-0.262-0.413 0.877h0.97v-0.615zM23.292 12.632v0zM21.61 21.043l-0.603-0.121-0.149 0.747 0.761-0.011-0.009-0.615zM24.36 22.823l-0.539 0.297 1.137-0.443-0.598 0.147zM24.551 19.876v0zM26.226 17.103l0.495-0.366-0.366-0.495-0.495 0.366 0.366 0.495zM26.592 17.598l0.366 0.495 0.495-0.366-0.366-0.495-0.495 0.366zM25.142 20.046v0zM24.991 22.798l0.182 0.588 0.588-0.182-0.182-0.588-0.588 0.182zM24.437 22.969l-0.182-0.588-0.697 0.215 0.329 0.651 0.549-0.278zM24.626 23.39v0zM24.683 23.484l0.346-0.509-0.005-0.003-0.005-0.003-0.335 0.516zM24.683 23.484l-0.346 0.509 0.004 0.003 0.341-0.512zM24.683 23.484v0zM24.825 23.493v0zM24.836 23.487v0zM24.892 23.39v0zM27.87 21.042v0zM30.393 22.791v0zM29.347 28.922v0zM27.497 30.285v0zM26.673 30.567v0zM26.004 30.565v0zM25.935 30.542l-0.435 0.435 0.103 0.103 0.138 0.046 0.195-0.584zM25.884 30.491v0zM25.213 30.028v0zM24.303 30.027v0zM23.635 30.491v0zM23.584 30.542l0.195 0.584 0.138-0.046 0.103-0.103-0.435-0.435zM23.515 30.565v0zM22.846 30.567v0zM22.022 30.285v0zM20.172 28.922v0zM20.060 28.796l0.466-0.402-0.822-0.953-0.247 1.234 0.603 0.121zM19.736 30.416v0zM5.1 30.432v0zM1.219 12.648v0zM2.080 11.529l0.027 0.615 0.925-0.040-0.396-0.837-0.556 0.263zM1.501 9.751v0zM2.811 6.975v0zM6.564 7.519v0zM6.66 7.573l0.036-0.614-0.003-0-0.033 0.615zM6.66 7.573l0.039-0.614-0.003-0-0.036 0.614zM6.66 7.573l0.039-0.614-0-0-0.039 0.614zM6.75 7.537v0zM6.787 7.509v0zM6.794 7.499v0zM6.794 7.386v0zM6.761 7.108l0.613-0.056-0.127-1.389-0.94 1.029 0.454 0.415zM6.46 7.438l-0.415 0.454 0.454 0.415 0.415-0.454-0.454-0.415zM4.969 4.536v0zM5.073 1.117l0.252-0.561-0.561-0.252-0.252 0.561 0.561 0.252zM5.634 1.37l0.561 0.252 0.252-0.561-0.561-0.252-0.252 0.561zM5.567 4.391v0zM6.744 6.854l-0.45 0.419 1.132 1.216-0.066-1.66-0.615 0.025zM8.199 3.864v0zM11.258 4.117v0zM12.405 5.363l-0.496 0.364 0.308 0.421 0.466-0.235-0.278-0.549zM14.543 5.217v0zM16.623 7.391v0zM16.68 7.485l-0.332 0.518 0.001 0 0.331-0.519zM16.68 7.485l0.336-0.515-0.005-0.003-0.331 0.519zM16.68 7.485l0.337-0.515-0.001-0.001-0.336 0.515zM16.775 7.498v0zM16.822 7.493v0zM16.833 7.487v0zM16.889 7.389v0zM17.014 7.094l0.559 0.258 0.592-1.282-1.342 0.439 0.192 0.585zM16.572 7.238l-0.585 0.191 0.191 0.585 0.585-0.191-0.192-0.585zM12.748 5.881l-0.259-0.558-0.619 0.287 0.349 0.586 0.529-0.315zM13.549 8.537v0zM12.826 11.528l-0.54-0.295-0.499 0.911h1.038v-0.615zM21.603 11.528v0.615h0.365l0.175-0.32-0.54-0.296zM21.802 6.946v0zM19.853 5.633v0zM17.462 7.613v0zM17.227 7.96v0zM16.78 8.114v0zM16.344 8.001v0zM16.053 7.624v0zM14.343 5.799v0zM2.768 11.528l-0.543 0.29 0.174 0.325h0.369v-0.615zM12.111 11.528v0.615h0.337l0.182-0.283-0.518-0.332zM2.103 9.628v0zM3.119 7.508v0zM6.183 8.003v0zM6.622 8.187v0zM7.057 8.070v0zM7.37 7.716v0zM7.403 7.298v0zM8.507 4.397v0zM10.85 4.578v0zM12.934 8.559v0zM19.126 22.791v0zM19.565 28.131l0.603 0.121 0.048-0.242-0.132-0.208-0.52 0.329zM20.965 21.129l0.153 0.596 0.375-0.096 0.076-0.379-0.603-0.121zM22.496 13.478l0.603 0.121-1.178-0.341 0.575 0.22zM12.915 21.903v0zM6.411 19.97v0zM2.017 13.415l0.576-0.218-1.177 0.349 0.601-0.131zM5.701 30.301v0zM19.132 30.295v0zM22.302 12.143l0.589 0.177 0.238-0.793h-0.828v0.615zM2.221 12.143v-0.615h-0.848l0.263 0.806 0.585-0.191zM12.841 21.292v0zM6.797 19.491v0zM19.71 22.986v0zM21.648 21.658v0zM20.626 28.507v0zM22.28 29.727v0zM22.968 29.963v0zM23.267 29.991l0.051 0.613 0.216-0.018 0.157-0.15-0.425-0.445zM24.102 29.446v0zM24.744 29.354l0-0.615h-0l-0 0.615zM24.756 29.354l-0 0.615h0l-0-0.615zM24.768 29.354v0zM25.413 29.446v0zM26.252 29.991l-0.425 0.445 0.157 0.15 0.216 0.018 0.052-0.613zM26.55 29.963l-0.122-0.603h-0l0.122 0.603zM27.239 29.727v0zM28.893 28.507v0zM29.809 22.986v0zM27.87 21.658v0zM25.464 23.618v0zM25.226 23.964v0zM24.343 23.998v0zM24.055 23.618v0zM18.121 0.589c-1.004 0.732-1.659 2.028-2.006 3.235l1.183 0.34c0.314-1.091 0.863-2.081 1.549-2.581l-0.725-0.994zM19.343 1.221l-0.363-0.497-0.994 0.725 0.363 0.497 0.994-0.725zM17.889 4.334c0.297-1.033 0.794-1.87 1.32-2.254l-0.725-0.994c-0.845 0.616-1.447 1.759-1.777 2.908l1.183 0.34zM17.71 6.743c-0.137-0.55-0.095-1.457 0.179-2.409l-1.183-0.34c-0.308 1.073-0.398 2.213-0.191 3.046l1.194-0.297zM19.843 4.402c-1.273 0.010-2.514 0.733-3.277 2.206l1.093 0.566c0.575-1.11 1.423-1.536 2.194-1.542l-0.010-1.231zM22.967 6.547c-0.456-1.333-1.766-2.156-3.124-2.145l0.010 1.231c0.881-0.007 1.681 0.53 1.949 1.313l1.165-0.398zM22.85 11.79c0.651-1.384 0.834-3.145 0.116-5.242l-1.165 0.398c0.621 1.816 0.44 3.244-0.066 4.32l1.114 0.524zM22.293 12.143h0.094v-1.231h-0.094v1.231zM22.387 12.143c0.194 0 0.34 0.178 0.302 0.368l1.207 0.241c0.19-0.952-0.538-1.84-1.509-1.84v1.231zM22.689 12.511l-1.682 8.411 1.207 0.241 1.682-8.411-1.207-0.241zM21.619 21.658c0.010-0 0.020-0 0.030-0v-1.231c-0.016 0-0.031 0-0.047 0l0.017 1.231zM21.648 21.658c0.757 0 1.59 0.404 2.172 1.462l1.078-0.593c-0.778-1.413-2.003-2.099-3.25-2.099v1.231zM24.957 22.677c-0.164-0.668-0.094-1.66 0.185-2.631l-1.183-0.34c-0.312 1.086-0.431 2.312-0.197 3.263l1.195-0.293zM25.142 20.046c0.299-1.041 0.815-1.98 1.449-2.449l-0.732-0.99c-0.951 0.703-1.57 1.948-1.901 3.098l1.183 0.34zM25.731 17.469l0.366 0.495 0.99-0.732-0.366-0.495-0.99 0.732zM26.226 17.103c-0.793 0.586-1.36 1.678-1.675 2.773l1.183 0.34c0.283-0.986 0.748-1.772 1.224-2.124l-0.732-0.99zM24.551 19.876c-0.315 1.096-0.401 2.284-0.148 3.103l1.176-0.363c-0.153-0.496-0.127-1.416 0.155-2.4l-1.183-0.34zM24.809 22.21l-0.554 0.171 0.363 1.176 0.554-0.171-0.363-1.176zM23.888 23.247c0.059 0.116 0.115 0.24 0.167 0.371l1.143-0.457c-0.066-0.164-0.136-0.321-0.212-0.47l-1.098 0.556zM24.055 23.618c0.057 0.143 0.144 0.286 0.293 0.382l0.67-1.032c0.027 0.017 0.057 0.040 0.086 0.068 0.026 0.025 0.046 0.049 0.060 0.069 0.027 0.037 0.036 0.061 0.034 0.056l-1.143 0.457zM24.337 23.994v0zM24.341 23.996v0zM24.342 23.997c0.143 0.095 0.3 0.117 0.437 0.117v-1.231c-0.004 0 0.022-0.001 0.066 0.010 0.023 0.005 0.053 0.014 0.086 0.029 0.017 0.007 0.035 0.016 0.052 0.026 0.009 0.005 0.017 0.010 0.025 0.015 0.004 0.002 0.007 0.005 0.010 0.007 0.001 0.001 0.003 0.002 0.004 0.002s0.002 0.001 0.002 0.001l-0.682 1.024zM24.778 24.114c0.081 0 0.162-0.011 0.239-0.036l-0.383-1.169c0.065-0.021 0.116-0.025 0.145-0.025v1.231zM25.017 24.078c0.078-0.026 0.148-0.064 0.209-0.114l-0.78-0.952c0.018-0.015 0.049-0.038 0.090-0.060 0.039-0.021 0.074-0.035 0.098-0.043l0.383 1.169zM25.226 23.964c0.12-0.098 0.191-0.228 0.238-0.345l-1.143-0.457c-0.003 0.007 0.003-0.008 0.019-0.034s0.050-0.070 0.106-0.116l0.78 0.952zM25.464 23.618c0.576-1.44 1.552-1.96 2.407-1.96v-1.231c-1.434 0-2.816 0.9-3.549 2.734l1.143 0.457zM27.87 21.658c0.881 0 1.677 0.543 1.939 1.328l1.168-0.389c-0.445-1.336-1.749-2.17-3.106-2.17v1.231zM29.809 22.986c0.86 2.58 0.121 4.387-0.916 5.521l0.908 0.831c1.323-1.446 2.184-3.715 1.176-6.741l-1.168 0.389zM28.893 28.507c-0.525 0.573-1.13 0.978-1.654 1.22l0.515 1.118c0.661-0.305 1.403-0.803 2.047-1.507l-0.908-0.831zM27.239 29.727c-0.262 0.121-0.498 0.198-0.689 0.237l0.245 1.206c0.301-0.061 0.629-0.173 0.959-0.325l-0.515-1.118zM26.55 29.963c-0.201 0.041-0.314 0.031-0.352 0.018l-0.389 1.168c0.347 0.116 0.718 0.075 0.986 0.021l-0.245-1.206zM26.198 29.981l-0.069-0.023-0.389 1.168 0.069 0.023 0.389-1.168zM26.37 30.107l-0.051-0.051-0.87 0.87 0.051 0.051 0.87-0.87zM26.319 30.056c-0.333-0.333-0.631-0.516-0.906-0.61l-0.4 1.164c0.061 0.021 0.205 0.086 0.435 0.316l0.87-0.87zM25.413 29.446c-0.274-0.094-0.503-0.092-0.657-0.092v1.231c0.151 0 0.196 0.004 0.257 0.025l0.4-1.164zM24.756 29.354c-0.154 0-0.381-0.003-0.655 0.092l0.403 1.163c0.059-0.020 0.1-0.024 0.252-0.024v-1.231zM24.102 29.446c-0.273 0.094-0.569 0.277-0.901 0.61l0.87 0.87c0.232-0.232 0.375-0.296 0.434-0.317l-0.403-1.163zM23.2 30.056l-0.051 0.051 0.87 0.87 0.051-0.051-0.87-0.87zM23.389 29.958l-0.069 0.023 0.389 1.168 0.069-0.023-0.389-1.168zM23.32 29.981c-0.038 0.013-0.151 0.023-0.352-0.018l-0.245 1.206c0.268 0.054 0.639 0.095 0.986-0.021l-0.389-1.168zM22.968 29.963c-0.19-0.039-0.426-0.116-0.689-0.237l-0.515 1.118c0.33 0.152 0.658 0.264 0.959 0.325l0.245-1.206zM22.28 29.727c-0.524-0.242-1.129-0.646-1.654-1.22l-0.908 0.831c0.644 0.703 1.386 1.202 2.047 1.507l0.515-1.118zM20.626 28.507c-0.034-0.037-0.067-0.075-0.1-0.113l-0.932 0.804c0.041 0.047 0.082 0.094 0.124 0.14l0.908-0.831zM19.456 28.675l-0.324 1.62 1.207 0.241 0.324-1.62-1.207-0.241zM19.132 30.295c-0.029 0.144-0.155 0.247-0.302 0.247v1.231c0.733 0 1.365-0.518 1.509-1.237l-1.207-0.241zM18.83 30.543h-12.829v1.231h12.829v-1.231zM6.001 30.543c-0.145 0-0.27-0.101-0.301-0.242l-1.202 0.262c0.154 0.707 0.78 1.211 1.503 1.211v-1.231zM5.701 30.301l-3.88-17.784-1.202 0.262 3.88 17.784 1.202-0.262zM1.821 12.517c-0.041-0.187 0.097-0.365 0.286-0.373l-0.054-1.23c-0.947 0.041-1.639 0.928-1.435 1.865l1.202-0.262zM2.636 11.266c-0.222-0.47-0.405-1.013-0.533-1.638l-1.206 0.247c0.146 0.714 0.358 1.352 0.626 1.917l1.113-0.526zM2.103 9.628c-0.166-0.811 0.252-1.679 1.015-2.12l-0.615-1.066c-1.176 0.679-1.888 2.052-1.605 3.432l1.206-0.247zM3.119 7.508c0.741-0.428 1.845-0.465 3.064 0.495l0.761-0.967c-1.552-1.221-3.199-1.31-4.441-0.593l0.615 1.066zM6.183 8.003c0.121 0.095 0.268 0.175 0.444 0.185l0.065-1.229c-0 0 0.001 0 0.002 0s0.003 0 0.005 0 0.009 0.001 0.013 0.001 0.020 0.002 0.030 0.003 0.040 0.007 0.057 0.011c0.035 0.009 0.064 0.020 0.086 0.029 0.042 0.019 0.062 0.035 0.057 0.032l-0.761 0.967zM6.623 8.187h0l0.072-1.229h-0l-0.072 1.229zM6.621 8.187h0l0.078-1.228h-0l-0.078 1.228zM6.62 8.187c0.171 0.011 0.319-0.048 0.437-0.117l-0.615-1.066c-0.003 0.002 0.019-0.012 0.062-0.025 0.023-0.007 0.053-0.014 0.089-0.018 0.018-0.002 0.038-0.004 0.058-0.004 0.010-0 0.020-0 0.029 0 0.005 0 0.009 0 0.012 0.001 0.002 0 0.003 0 0.004 0s0.002 0 0.002 0l-0.079 1.228zM7.057 8.070c0.070-0.041 0.134-0.090 0.189-0.151l-0.917-0.821c0.045-0.051 0.088-0.080 0.113-0.094l0.615 1.066zM7.246 7.92c0.055-0.061 0.096-0.13 0.124-0.203l-1.151-0.435c0.008-0.022 0.023-0.057 0.047-0.097 0.023-0.038 0.046-0.067 0.064-0.086l0.917 0.821zM7.37 7.716c0.055-0.145 0.051-0.293 0.033-0.418l-1.218 0.175c0.001 0.007-0.002-0.008-0-0.039s0.008-0.086 0.034-0.153l1.151 0.435zM7.403 7.298c-0.012-0.084-0.022-0.166-0.029-0.246l-1.226 0.112c0.009 0.102 0.021 0.205 0.037 0.31l1.218-0.176zM6.307 6.693l-0.301 0.33 0.909 0.83 0.301-0.33-0.909-0.83zM6.875 6.983c-0.537-0.491-1.040-1.483-1.308-2.592l-1.196 0.289c0.296 1.225 0.881 2.487 1.674 3.211l0.83-0.909zM5.567 4.391c-0.268-1.109-0.281-2.247 0.068-3.022l-1.123-0.505c-0.51 1.135-0.438 2.59-0.141 3.816l1.196-0.289zM4.821 1.679l0.561 0.252 0.505-1.123-0.561-0.252-0.505 1.123zM5.073 1.117c-0.429 0.955-0.387 2.251-0.104 3.419l1.196-0.289c-0.254-1.051-0.237-2.030 0.031-2.625l-1.123-0.505zM4.969 4.536c0.261 1.080 0.741 2.11 1.325 2.737l0.901-0.838c-0.391-0.42-0.798-1.23-1.030-2.188l-1.196 0.289zM7.359 6.829c-0.050-1.255 0.479-2.046 1.148-2.432l-0.615-1.066c-1.105 0.638-1.829 1.884-1.762 3.547l1.23-0.049zM8.507 4.397c0.763-0.441 1.724-0.368 2.343 0.181l0.817-0.921c-1.054-0.935-2.599-1.005-3.775-0.326l0.615 1.066zM10.85 4.578c0.43 0.381 0.778 0.766 1.059 1.149l0.993-0.727c-0.336-0.458-0.745-0.908-1.235-1.343l-0.817 0.921zM14.743 4.635c-0.904-0.311-1.844-0.211-2.616 0.179l0.555 1.098c0.49-0.248 1.087-0.311 1.66-0.114l0.4-1.164zM17.192 7.158c-0.541-1.322-1.421-2.169-2.449-2.523l-0.4 1.164c0.637 0.219 1.279 0.771 1.71 1.825l1.139-0.466zM17.011 6.966c-0 0 0.001 0.001 0.002 0.001s0.003 0.002 0.004 0.003 0.007 0.005 0.011 0.008 0.016 0.011 0.024 0.018 0.031 0.025 0.044 0.038c0.027 0.025 0.046 0.049 0.061 0.068 0.027 0.037 0.036 0.061 0.034 0.056l-1.139 0.466c0.058 0.143 0.147 0.285 0.295 0.38l0.663-1.037zM17.011 6.966v0zM17.016 6.97v0zM16.771 6.883c-0.004 0 0.022-0.001 0.067 0.009 0.023 0.005 0.053 0.014 0.087 0.028 0.017 0.007 0.035 0.016 0.053 0.025 0.009 0.005 0.017 0.010 0.025 0.015 0.004 0.002 0.007 0.005 0.010 0.006 0.001 0.001 0.003 0.002 0.004 0.002s0.002 0.001 0.002 0.001l-0.674 1.030c0.144 0.094 0.301 0.115 0.438 0.114l-0.010-1.231zM16.626 6.909c0.065-0.022 0.116-0.026 0.145-0.026l0.010 1.231c0.081-0.001 0.161-0.012 0.238-0.038l-0.393-1.166zM16.439 7.014c0.018-0.015 0.048-0.038 0.089-0.061 0.039-0.022 0.073-0.035 0.098-0.043l0.393 1.166c0.078-0.026 0.147-0.065 0.208-0.116l-0.787-0.946zM16.316 7.165c-0.003 0.007 0.002-0.008 0.019-0.034s0.049-0.071 0.105-0.117l0.788 0.946c0.119-0.099 0.189-0.229 0.235-0.347l-1.146-0.448zM16.455 6.836c-0.049 0.106-0.096 0.216-0.14 0.329l1.146 0.448c0.035-0.091 0.073-0.178 0.111-0.261l-1.117-0.516zM16.764 7.823l0.442-0.145-0.383-1.17-0.442 0.145 0.383 1.17zM16.115 3.824c-0.347 1.206-0.461 2.587-0.127 3.606l1.17-0.383c-0.225-0.688-0.173-1.792 0.141-2.883l-1.183-0.34zM12.22 6.196c0.482 0.808 0.687 1.611 0.714 2.364l1.23-0.044c-0.034-0.952-0.296-1.958-0.887-2.949l-1.057 0.63zM12.934 8.559c0.037 1.031-0.262 1.967-0.648 2.673l1.080 0.591c0.472-0.863 0.845-2.017 0.798-3.308l-1.23 0.044zM12.826 12.143h8.778v-1.231h-8.778v1.231zM21.22 7.145c0.617 1.805 0.364 3.137-0.156 4.087l1.080 0.591c0.695-1.269 0.965-2.963 0.241-5.077l-1.165 0.398zM19.858 6.249c0.641-0.005 1.188 0.387 1.362 0.896l1.165-0.398c-0.362-1.057-1.416-1.738-2.536-1.729l0.010 1.231zM18.035 7.837c0.487-1.246 1.255-1.584 1.823-1.588l-0.010-1.231c-1.144 0.009-2.317 0.728-2.959 2.371l1.146 0.448zM17.62 8.433c0.232-0.193 0.35-0.43 0.415-0.596l-1.146-0.448c-0.027 0.070-0.049 0.092-0.056 0.098l0.788 0.946zM16.785 8.729c0.285-0.002 0.582-0.086 0.835-0.296l-0.788-0.946c-0.003 0.002-0.005 0.004-0.010 0.006s-0.021 0.006-0.047 0.006l0.010 1.231zM16.009 8.517c0.28 0.182 0.57 0.214 0.776 0.213l-0.010-1.231c-0.075 0.001-0.094-0.013-0.096-0.014l-0.671 1.032zM15.484 7.857c0.089 0.218 0.243 0.476 0.525 0.66l0.671-1.032c-0.001-0.001-0.024-0.015-0.057-0.094l-1.139 0.466zM14.143 6.381c0.441 0.152 0.964 0.557 1.341 1.476l1.139-0.466c-0.486-1.188-1.247-1.888-2.080-2.174l-0.4 1.164zM13.007 6.439c0.34-0.158 0.746-0.192 1.136-0.058l0.4-1.164c-0.706-0.243-1.44-0.179-2.054 0.105l0.517 1.117zM2.768 12.143h9.343v-1.231h-9.343v1.231zM1.501 9.751c0.163 0.798 0.412 1.483 0.725 2.067l1.085-0.58c-0.252-0.471-0.463-1.041-0.604-1.733l-1.206 0.247zM2.811 6.975c-0.97 0.56-1.534 1.681-1.31 2.776l1.206-0.247c-0.108-0.528 0.165-1.143 0.72-1.463l-0.615-1.066zM6.564 7.519c-1.386-1.091-2.762-1.116-3.753-0.544l0.615 1.066c0.492-0.284 1.325-0.382 2.376 0.445l0.761-0.967zM6.66 7.573c-0.001-0-0.028-0.001-0.096-0.054l-0.761 0.967c0.185 0.146 0.446 0.295 0.782 0.315l0.075-1.229zM6.75 7.537c-0.065 0.038-0.088 0.035-0.090 0.035l-0.075 1.228c0.334 0.020 0.602-0.095 0.78-0.198l-0.615-1.066zM6.794 7.499c-0.001 0.003-0.003 0.006-0.006 0.010s-0.015 0.015-0.038 0.029l0.615 1.066c0.247-0.142 0.464-0.362 0.58-0.67l-1.152-0.435zM6.794 7.386c0.011 0.075 0.003 0.104-0 0.113l1.151 0.435c0.106-0.282 0.092-0.546 0.067-0.723l-1.218 0.175zM8.199 3.864c-0.99 0.572-1.657 1.776-1.405 3.522l1.218-0.175c-0.191-1.324 0.311-1.997 0.803-2.28l-0.615-1.066zM11.258 4.117c-0.836-0.741-2.089-0.813-3.059-0.253l0.615 1.066c0.555-0.321 1.224-0.249 1.627 0.108l0.817-0.921zM13.549 8.537c-0.051-1.416-0.663-2.976-2.291-4.42l-0.817 0.921c1.391 1.234 1.839 2.483 1.877 3.543l1.23-0.044zM12.629 11.86c0.517-0.807 0.968-1.987 0.92-3.323l-1.23 0.044c0.037 1.038-0.317 1.975-0.726 2.614l1.036 0.664zM18.542 22.597c-0.819 2.456-0.408 4.426 0.503 5.864l1.040-0.659c-0.708-1.117-1.080-2.701-0.375-4.815l-1.168-0.389zM20.813 20.533c-1.023 0.262-1.918 1.005-2.271 2.064l1.168 0.389c0.207-0.621 0.746-1.091 1.409-1.261l-0.305-1.192zM21.892 13.357l-1.53 7.651 1.207 0.241 1.53-7.651-1.207-0.241zM12.988 22.514c4.273-0.515 8.206-3.927 10.082-8.816l-1.149-0.441c-1.752 4.566-5.36 7.587-9.080 8.035l0.147 1.222zM6.025 20.45c2.14 1.723 4.578 2.352 6.963 2.064l-0.147-1.222c-2.056 0.248-4.163-0.287-6.044-1.801l-0.772 0.959zM1.441 13.633c1.17 3.090 2.75 5.34 4.584 6.816l0.772-0.959c-1.625-1.308-3.093-3.358-4.205-6.293l-1.151 0.436zM6.302 30.17l-3.684-16.886-1.202 0.262 3.684 16.885 1.202-0.262zM6.001 29.927c0.145 0 0.27 0.101 0.301 0.242l-1.202 0.262c0.093 0.424 0.468 0.726 0.902 0.726v-1.231zM18.83 29.927h-12.829v1.231h12.829v-1.231zM18.529 30.175c0.029-0.144 0.155-0.247 0.302-0.247v1.231c0.44 0 0.819-0.311 0.905-0.742l-1.207-0.241zM18.962 28.010l-0.433 2.165 1.207 0.241 0.433-2.165-1.207-0.241zM22.302 11.528h-20.080v1.231h20.080v-1.231zM12.915 21.903c4.315-0.52 8.367-4.23 9.976-9.583l-1.179-0.354c-1.503 5-5.225 8.267-8.945 8.715l0.147 1.222zM6.411 19.97c2.011 1.619 4.283 2.2 6.504 1.933l-0.147-1.222c-1.891 0.228-3.832-0.259-5.585-1.67l-0.772 0.959zM1.636 12.334c1.17 3.585 2.845 6.082 4.775 7.636l0.772-0.959c-1.697-1.366-3.259-3.636-4.376-7.059l-1.17 0.382zM20.293 23.18c0.17-0.511 0.714-0.907 1.355-0.907v-1.231c-1.12 0-2.169 0.689-2.523 1.749l1.168 0.389zM21.080 28.092c-0.895-0.978-1.572-2.554-0.786-4.911l-1.168-0.389c-0.934 2.803-0.134 4.841 1.046 6.131l0.908-0.831zM22.537 29.168c-0.456-0.21-0.992-0.568-1.458-1.076l-0.908 0.831c0.584 0.638 1.258 1.090 1.85 1.363l0.515-1.118zM23.091 29.36c-0.135-0.027-0.325-0.087-0.553-0.193l-0.515 1.118c0.296 0.137 0.578 0.231 0.824 0.281l0.245-1.206zM23.215 29.377c0.009-0.001 0.004 0-0.019-0.001s-0.057-0.006-0.105-0.016l-0.245 1.206c0.183 0.037 0.341 0.048 0.472 0.037l-0.103-1.226zM23.9 28.864c-0.354 0.123-0.702 0.341-1.058 0.681l0.85 0.89c0.256-0.244 0.457-0.355 0.611-0.409l-0.403-1.163zM24.745 28.739c-0.164-0-0.475-0.002-0.845 0.126l0.403 1.163c0.162-0.056 0.295-0.058 0.441-0.058l0-1.231zM24.756 28.739h-0.012l-0.001 1.231h0.012l0-1.231zM24.767 28.739h-0.012l0 1.231h0.012l-0-1.231zM25.613 28.864c-0.37-0.127-0.682-0.125-0.846-0.125l0 1.231c0.146-0 0.282 0.002 0.445 0.058l0.4-1.164zM26.677 29.545c-0.358-0.341-0.709-0.56-1.064-0.682l-0.4 1.164c0.157 0.054 0.359 0.165 0.614 0.408l0.849-0.891zM26.428 29.36c-0.049 0.010-0.084 0.014-0.105 0.016s-0.028 0.001-0.019 0.001l-0.103 1.226c0.131 0.011 0.29-0 0.472-0.037l-0.245-1.206zM26.982 29.168c-0.228 0.105-0.419 0.165-0.553 0.193l0.245 1.206c0.246-0.050 0.528-0.145 0.824-0.281l-0.515-1.118zM28.439 28.092c-0.465 0.509-1.002 0.866-1.458 1.076l0.515 1.118c0.593-0.273 1.266-0.725 1.85-1.363l-0.908-0.831zM29.226 23.18c0.786 2.357 0.109 3.933-0.786 4.911l0.908 0.831c1.18-1.29 1.98-3.329 1.046-6.131l-1.168 0.389zM27.87 22.273c0.641 0 1.185 0.396 1.355 0.907l1.168-0.389c-0.353-1.060-1.403-1.749-2.523-1.749v1.231zM26.035 23.847c0.497-1.242 1.268-1.574 1.835-1.574v-1.231c-1.144 0-2.323 0.71-2.978 2.347l1.143 0.457zM25.616 24.44c0.233-0.191 0.353-0.427 0.419-0.593l-1.143-0.457c-0.028 0.070-0.049 0.092-0.057 0.098l0.78 0.952zM24.778 24.729c0.285 0 0.583-0.081 0.838-0.29l-0.78-0.952c-0.003 0.002-0.005 0.004-0.010 0.005-0.006 0.002-0.021 0.006-0.047 0.006v1.231zM24.004 24.511c0.279 0.185 0.569 0.219 0.775 0.219v-1.231c-0.075 0-0.094-0.013-0.095-0.014l-0.679 1.026zM23.484 23.847c0.087 0.219 0.239 0.478 0.52 0.664l0.679-1.026c-0.001-0.001-0.024-0.015-0.056-0.095l-1.143 0.457zM21.648 22.273c0.568 0 1.338 0.332 1.835 1.574l1.143-0.457c-0.655-1.638-1.834-2.347-2.978-2.347v1.231z"></path>
</symbol>
<symbol id="right" viewBox="0 0 35 32">
<path d="M27.113 13.29l-9.168-9.168c-0.826-0.826-0.826-2.165 0-2.99s2.165-0.826 2.99 0l13.094 13.094c0.652 0.652 0.789 1.625 0.411 2.411-0.071 0.417-0.267 0.817-0.59 1.139l-13.094 13.094c-0.826 0.826-2.165 0.826-2.99 0s-0.826-2.165 0-2.99l9.168-9.168h-24.216c-1.497 0-2.71-1.213-2.71-2.71s1.213-2.71 2.71-2.71h24.394z"></path>
</symbol>
<symbol id="quotes" viewBox="0 0 43 32">
<path d="M32.008 0c1.929 0 3.75 0.52 5.464 1.561s3.107 2.537 4.179 4.488c1.029 1.951 1.543 4.249 1.543 6.894s-0.643 5.225-1.929 7.74c-0.429 0.911-1.2 2.081-2.314 3.512-1.157 1.431-2.229 2.667-3.214 3.707l-4.050 4.098-2.893-4.813c2.014-1.257 3.793-2.818 5.336-4.683 1.543-1.821 2.314-3.491 2.314-5.008 0-0.78-0.171-1.409-0.514-1.886-1.5 1.084-3.171 1.626-5.014 1.626-1.329 0-2.593-0.412-3.793-1.236-1.243-0.78-2.229-1.821-2.957-3.122-0.771-1.258-1.157-2.558-1.157-3.902 0-1.518 0.45-2.97 1.35-4.358 0.857-1.388 1.993-2.515 3.407-3.382 1.371-0.824 2.786-1.236 4.243-1.236zM8.929 0c1.929 0 3.75 0.52 5.464 1.561s3.107 2.537 4.179 4.488c1.029 1.951 1.543 4.249 1.543 6.894 0 1.864-0.236 3.534-0.707 5.008-0.471 1.518-1.286 3.1-2.443 4.748-1.114 1.561-2.164 2.862-3.15 3.902-0.986 1.084-2.7 2.884-5.143 5.398l-2.893-4.813c2.014-1.257 3.793-2.818 5.336-4.683 1.543-1.821 2.314-3.491 2.314-5.008 0-0.78-0.171-1.409-0.514-1.886-1.5 1.084-3.171 1.626-5.014 1.626-1.329 0-2.593-0.412-3.793-1.236-1.243-0.78-2.229-1.821-2.957-3.122-0.771-1.258-1.157-2.558-1.157-3.902 0-1.518 0.429-2.97 1.286-4.358s1.993-2.515 3.407-3.382c1.371-0.824 2.786-1.236 4.243-1.236z"></path>
</symbol>
<symbol id="minr" viewBox="0 0 21 32">
<path d="M1.929 1.412c-1.209 1.209-1.209 3.17 0 4.379l10.208 10.208-10.208 10.208c-1.209 1.209-1.209 3.17 0 4.379s3.17 1.209 4.38 0l12.18-12.18c0.079-0.065 0.155-0.134 0.229-0.208 0.607-0.607 0.91-1.404 0.907-2.2 0.003-0.796-0.3-1.593-0.907-2.2-0.074-0.074-0.15-0.143-0.229-0.208l-12.18-12.18c-1.209-1.209-3.17-1.209-4.38 0z"></path>
</symbol>
<symbol id="home" viewBox="0 0 35 32">
<path d="M32.64 15.401c0.599-0.65 0.541-1.646-0.129-2.225l-14.772-12.75c-0.671-0.578-1.745-0.566-2.402 0.027l-14.822 13.403c-0.656 0.594-0.689 1.589-0.071 2.222l0.372 0.382c0.617 0.633 1.613 0.708 2.224 0.168l1.108-0.979v14.326c0 0.879 0.722 1.591 1.612 1.591h5.778c0.89 0 1.612-0.712 1.612-1.591v-10.023h7.37v10.023c-0.013 0.878 0.624 1.59 1.515 1.59h6.123c0.89 0 1.613-0.711 1.613-1.59v-14.124c0 0 0.306 0.264 0.683 0.592s1.168 0.065 1.767-0.586l0.42-0.455z"></path>
</symbol>
<symbol id="burgermenu" viewBox="0 0 32 32">
<path d="M0.011 7.801c0 0.453 0.367 0.82 0.82 0.82h30.337c0.453 0 0.82-0.367 0.82-0.82s-0.367-0.82-0.82-0.82h-30.337c-0.453 0-0.82 0.367-0.82 0.82zM0.831 16.82c-0.453 0-0.82-0.367-0.82-0.82s0.367-0.82 0.82-0.82h30.337c0.453 0 0.82 0.367 0.82 0.82s-0.367 0.82-0.82 0.82h-30.337zM0.831 25.019c-0.453 0-0.82-0.367-0.82-0.82s0.367-0.82 0.82-0.82h30.337c0.453 0 0.82 0.367 0.82 0.82s-0.367 0.82-0.82 0.82h-30.337z"></path>
</symbol>
</defs>
</svg>
