<svg aria-hidden="true" style="position:absolute;width:0;height:0" xmlns="http://www.w3.org/2000/svg" overflow="hidden">
    <defs>
        <symbol id="home" viewBox="0 0 35 32">
            <path
                d="M34.253 15.613a1.576 1.576 0 00-.129-2.255L19.352.432c-.671-.586-1.745-.574-2.402.028L2.128 14.047a1.567 1.567 0 00-.071 2.252l.372.387c.617.642 1.613.718 2.224.17l1.108-.992v14.523c0 .891.722 1.613 1.612 1.613h5.778c.89 0 1.612-.721 1.612-1.613v-10.16h7.37v10.16c-.013.89.624 1.612 1.515 1.612h6.123c.89 0 1.613-.722 1.613-1.613V16.068l.683.6c.377.332 1.168.066 1.767-.594l.42-.462z" />
        </symbol>
        <symbol id="telegram" viewBox="0 0 44 32">
            <path
                d="M17.343 21.048l-.675 8.86c.966 0 1.384-.387 1.885-.852l4.527-4.038 9.381 6.412c1.72.895 2.933.424 3.397-1.477l6.159-26.93c.546-2.374-.92-3.302-2.596-2.72L3.227 13.236c-2.47.895-2.433 2.18-.42 2.762l9.253 2.686L33.554 6.132c1.012-.625 1.931-.279 1.175.346l-17.386 14.57z" />
        </symbol>
        <symbol id="git" viewBox="0 0 32 32">
            <path
                d="M16 0C7.212 0 0 7.212 0 16c0 7.499 5.262 14.312 12.25 16v-5.293c-.692.152-1.33.156-2.034-.052-.946-.279-1.714-.909-2.284-1.869-.364-.613-1.008-1.278-1.68-1.23l-.165-1.868c1.453-.124 2.711.886 3.457 2.14.332.558.713.884 1.203 1.029.473.14.982.072 1.574-.137.149-1.186.692-1.63 1.102-2.255v-.001c-4.167-.622-5.828-2.832-6.488-4.578-.874-2.317-.405-5.212 1.14-7.041.03-.036.084-.129.063-.194-.708-2.139.155-3.909.187-4.097.817.242.95-.243 3.551 1.337l.449.27c.188.112.129.048.317.034A13.544 13.544 0 0116 7.723c1.136.015 2.273.178 3.404.484l.145.015c-.013-.002.04-.009.127-.062 3.248-1.968 3.132-1.324 4.003-1.608.032.188.883 1.987.182 4.099-.095.291 2.816 2.956 1.203 7.235-.659 1.746-2.32 3.957-6.487 4.578v.001c.534.814 1.176 1.247 1.173 2.927V32C26.738 30.312 32 23.499 32 16c0-8.788-7.212-16-16-16z" />
        </symbol>
        <symbol id="facebook" viewBox="0 0 16 32">
            <path
                d="M14.143 15.972h-4.034v14.865H3.997V15.972H1.09v-5.224h2.907V7.367c0-2.418 1.142-6.203 6.166-6.203l4.527.019v5.071h-3.285c-.539 0-1.296.271-1.296 1.424v3.075h4.567l-.534 5.219z" />
        </symbol>
        <symbol id="arrow-to-left" viewBox="0 0 32 32">
            <path
                d="M7.536 14.416L21.295.657a2.241 2.241 0 013.169 3.169L12.289 16.001l12.175 12.174a2.241 2.241 0 01-3.169 3.169L7.536 17.585a2.236 2.236 0 010-3.168z" />
        </symbol>
        <symbol id="arrow-to-right" viewBox="0 0 32 32">
            <path
                d="M24.464 17.584L10.705 31.343a2.241 2.241 0 01-3.169-3.169l12.175-12.175L7.536 3.825A2.241 2.241 0 0110.705.656l13.759 13.759a2.236 2.236 0 010 3.168z" />
        </symbol>
        <symbol id="menu" viewBox="0 0 48 32">
            <path d="M0 5.333V0h48v5.333H0zm0 13.334h48v-5.333H0v5.333zM0 32h48v-5.333H0V32z" />
        </symbol>
        <symbol id="close-menu" viewBox="0 0 32 32">
            <path
                d="M28.571 5.55l-2.578-2.578-10.222 10.222L5.549 2.972 2.971 5.55l10.222 10.222L2.971 25.994l2.578 2.578L15.771 18.35l10.222 10.222 2.578-2.578-10.222-10.222L28.571 5.55z" />
        </symbol>
        <symbol id="arrow-right" viewBox="0 0 32 32">
            <path
                d="M19.414 27.414l10-10a2 2 0 000-2.828l-10-10a2 2 0 10-2.828 2.828L23.172 14H4a2 2 0 100 4h19.172l-6.586 6.586c-.39.39-.586.902-.586 1.414s.195 1.024.586 1.414a2 2 0 002.828 0z" />
        </symbol>
        <symbol id="arrow-left" viewBox="0 0 32 32">
            <path
                d="M12.586 4.586l-10 10a2 2 0 000 2.828l10 10a2 2 0 102.828-2.828L8.828 18H28a2 2 0 100-4H8.828l6.586-6.586a1.996 1.996 0 000-2.828 2 2 0 00-2.828 0z" />
        </symbol>
        <symbol id="arrow-right-tablet" viewBox="0 0 32 32">
            <path
                d="M17.879 22.281l5.503-5.503a1.1 1.1 0 000-1.556l-5.503-5.503a1.1 1.1 0 10-1.556 1.556l3.624 3.624H9.398a1.101 1.101 0 000 2.202h10.549l-3.624 3.624a1.097 1.097 0 000 1.556 1.1 1.1 0 001.556 0z" />
        </symbol>

    </defs>

</svg>
