<svg aria-hidden="true" style="position: absolute; width: 0; height: 0; overflow: hidden;" version="1.1" xmlns="http://www.w3.org/2000/svg" xmlns:xlink="http://www.w3.org/1999/xlink">
<defs>
<symbol id="mastercard" viewBox="10 0 41 32">
<path fill="#000" style="fill: var(--color1, #000)" d="M7.484 31.841v-2.118c0-0.812-0.494-1.341-1.341-1.341-0.424 0-0.883 0.141-1.2 0.6-0.247-0.388-0.6-0.6-1.13-0.6-0.353 0-0.706 0.106-0.988 0.494v-0.424h-0.741v3.389h0.741v-1.871c0-0.6 0.318-0.883 0.812-0.883s0.741 0.318 0.741 0.883v1.871h0.741v-1.871c0-0.6 0.353-0.883 0.812-0.883 0.494 0 0.741 0.318 0.741 0.883v1.871h0.812zM18.462 28.452h-1.2v-1.024h-0.741v1.024h-0.671v0.671h0.671v1.553c0 0.777 0.318 1.236 1.165 1.236 0.318 0 0.671-0.106 0.918-0.247l-0.212-0.635c-0.212 0.141-0.459 0.177-0.635 0.177-0.353 0-0.494-0.212-0.494-0.565v-1.518h1.2v-0.671zM24.746 28.382c-0.424 0-0.706 0.212-0.883 0.494v-0.424h-0.741v3.389h0.741v-1.906c0-0.565 0.247-0.883 0.706-0.883 0.141 0 0.318 0.035 0.459 0.071l0.212-0.706c-0.141-0.035-0.353-0.035-0.494-0.035v0 0zM15.25 28.735c-0.353-0.247-0.847-0.353-1.377-0.353-0.847 0-1.412 0.424-1.412 1.094 0 0.565 0.424 0.883 1.165 0.988l0.353 0.035c0.388 0.071 0.6 0.177 0.6 0.353 0 0.247-0.282 0.424-0.777 0.424s-0.883-0.177-1.13-0.353l-0.353 0.565c0.388 0.282 0.918 0.424 1.447 0.424 0.988 0 1.553-0.459 1.553-1.094 0-0.6-0.459-0.918-1.165-1.024l-0.353-0.035c-0.318-0.035-0.565-0.106-0.565-0.318 0-0.247 0.247-0.388 0.635-0.388 0.424 0 0.847 0.177 1.059 0.282l0.318-0.6zM34.947 28.382c-0.424 0-0.706 0.212-0.883 0.494v-0.424h-0.741v3.389h0.741v-1.906c0-0.565 0.247-0.883 0.706-0.883 0.141 0 0.318 0.035 0.459 0.071l0.212-0.706c-0.141-0.035-0.353-0.035-0.494-0.035v0 0zM25.487 30.147c0 1.024 0.706 1.765 1.8 1.765 0.494 0 0.847-0.106 1.2-0.388l-0.353-0.6c-0.282 0.212-0.565 0.318-0.883 0.318-0.6 0-1.024-0.424-1.024-1.094 0-0.635 0.424-1.059 1.024-1.094 0.318 0 0.6 0.106 0.883 0.318l0.353-0.6c-0.353-0.282-0.706-0.388-1.2-0.388-1.094 0-1.8 0.741-1.8 1.765v0 0zM32.335 30.147v-1.694h-0.741v0.424c-0.247-0.318-0.6-0.494-1.059-0.494-0.953 0-1.694 0.741-1.694 1.765s0.741 1.765 1.694 1.765c0.494 0 0.847-0.177 1.059-0.494v0.424h0.741v-1.694zM29.617 30.147c0-0.6 0.388-1.094 1.024-1.094 0.6 0 1.024 0.459 1.024 1.094 0 0.6-0.424 1.094-1.024 1.094-0.635-0.035-1.024-0.494-1.024-1.094v0zM20.757 28.382c-0.988 0-1.694 0.706-1.694 1.765s0.706 1.765 1.73 1.765c0.494 0 0.988-0.141 1.377-0.459l-0.353-0.529c-0.282 0.212-0.635 0.353-0.988 0.353-0.459 0-0.918-0.212-1.024-0.812h2.506v-0.282c0.035-1.094-0.6-1.8-1.553-1.8v0 0zM20.757 29.017c0.459 0 0.777 0.282 0.847 0.812h-1.765c0.071-0.459 0.388-0.812 0.918-0.812v0zM39.148 30.147v-3.036h-0.741v1.765c-0.247-0.318-0.6-0.494-1.059-0.494-0.953 0-1.694 0.741-1.694 1.765s0.741 1.765 1.694 1.765c0.494 0 0.847-0.177 1.059-0.494v0.424h0.741v-1.694zM36.43 30.147c0-0.6 0.388-1.094 1.024-1.094 0.6 0 1.024 0.459 1.024 1.094 0 0.6-0.424 1.094-1.024 1.094-0.635-0.035-1.024-0.494-1.024-1.094v0zM11.649 30.147v-1.694h-0.741v0.424c-0.247-0.318-0.6-0.494-1.059-0.494-0.953 0-1.694 0.741-1.694 1.765s0.741 1.765 1.694 1.765c0.494 0 0.847-0.177 1.059-0.494v0.424h0.741v-1.694zM8.896 30.147c0-0.6 0.388-1.094 1.024-1.094 0.6 0 1.024 0.459 1.024 1.094 0 0.6-0.424 1.094-1.024 1.094-0.635-0.035-1.024-0.494-1.024-1.094z"></path>
<path fill="#ff5f00" style="fill: var(--color2, #ff5f00)" d="M15.003 2.718h11.12v19.98h-11.12v-19.98z"></path>
<path fill="#eb001b" style="fill: var(--color3, #eb001b)" d="M15.709 12.708c0-4.060 1.906-7.66 4.836-9.99-2.153-1.694-4.871-2.718-7.837-2.718-7.025 0-12.708 5.683-12.708 12.708s5.683 12.708 12.708 12.708c2.965 0 5.683-1.024 7.837-2.718-2.93-2.295-4.836-5.93-4.836-9.99z"></path>
<path fill="#f79e1b" style="fill: var(--color4, #f79e1b)" d="M41.125 12.708c0 7.025-5.683 12.708-12.708 12.708-2.965 0-5.683-1.024-7.837-2.718 2.965-2.33 4.836-5.93 4.836-9.99s-1.906-7.66-4.836-9.99c2.153-1.694 4.871-2.718 7.837-2.718 7.025 0 12.708 5.719 12.708 12.708z"></path>
</symbol>
<symbol id="paypal" viewBox="0 0 120 32">
<path fill="#369" style="fill: var(--color5, #369)" d="M91.527 19.206c-0.405 0.255-0.833 0.474-1.282 0.66-0.603 0.243-1.174 0.371-1.703 0.371-0.811 0-1.435-0.115-1.857-0.36-0.422-0.233-0.643-0.637-0.636-1.216 0-0.669 0.154-1.187 0.474-1.594 0.322-0.391 0.8-0.706 1.393-0.941 0.59-0.2 1.315-0.364 2.152-0.483 0.744-0.094 2.216-0.264 2.404-0.265s0.313-0.105 0.229 0.396c-0.037 0.218-0.462 1.962-0.657 2.756-0.057 0.238-0.373 0.584-0.518 0.677zM97.303 6.945c-1.24-0.692-3.178-1.041-5.831-1.041-1.312 0-2.631 0.105-3.953 0.311-0.971 0.149-1.071 0.173-1.674 0.305-1.241 0.27-1.433 1.513-1.433 1.513l-0.399 1.639c-0.226 1.048 0.371 1.005 0.637 0.924 0.542-0.164 0.835-0.326 1.941-0.576 1.057-0.24 2.173-0.419 3.064-0.412 1.306 0 2.3 0.143 2.96 0.419 0.661 0.288 0.988 0.779 0.988 1.481 0.002 0.167 0.007 0.324-0.054 0.462-0.054 0.128-0.159 0.252-0.471 0.295-1.865 0.111-3.203 0.281-4.815 0.516-1.59 0.224-2.982 0.608-4.145 1.139-1.24 0.55-2.168 1.286-2.807 2.219-0.623 0.937-0.935 2.072-0.937 3.408 0 1.263 0.454 2.293 1.332 3.093 0.889 0.789 2.045 1.18 3.444 1.18 0.874-0.006 1.558-0.069 2.048-0.192 0.485-0.122 1.014-0.296 1.573-0.538 0.418-0.175 0.868-0.427 1.344-0.744 0.476-0.318 0.806-0.543 1.23-0.821l0.015 0.026-0.119 0.525c-0.001 0.005-0.008 0.008-0.008 0.013l0.004 0.010c-0.136 0.633 0.244 1.159 0.871 1.221l0.008 0.011h0.055l0.002 0.003c0.416 0 1.844-0.001 2.512-0.003h0.466c0.031 0 0.034-0.009 0.046-0.016 0.64-0.078 1.254-0.6 1.398-1.226l2.384-10.29c0.055-0.242 0.098-0.521 0.124-0.843 0.030-0.325 0.065-0.592 0.054-0.786 0.005-1.456-0.62-2.533-1.857-3.225z"></path>
<path fill="#1c3664" style="fill: var(--color6, #1c3664)" d="M56.289 6.132c-0.699 0-1.617 0.566-2.051 1.25 0 0-4.678 8.020-5.138 8.822-0.25 0.431-0.503 0.157-0.545-0.003-0.034-0.195-1.45-8.765-1.45-8.765-0.159-0.69-0.88-1.282-1.781-1.28l-2.917 0.004c-0.703 0-1.142 0.563-0.985 1.244 0 0 2.23 12.639 2.665 15.611 0.217 1.644-0.023 1.936-0.023 1.936l-2.891 5.040c-0.423 0.683-0.192 1.243 0.508 1.243l3.38-0.003c0.7 0 1.627-0.557 2.044-1.242l13.004-21.994c0 0 1.244-1.879 0.097-1.863-0.782 0.011-3.918 0-3.918 0z"></path>
<path fill="#1c3664" style="fill: var(--color6, #1c3664)" d="M22.285 4.075c-0.406-0.792-1.014-1.434-1.79-1.92-0.805-0.497-1.742-0.839-2.834-1.046-1.098-0.197-2.381-0.294-3.853-0.307l-6.815 0.005c-0.708 0.008-1.402 0.564-1.566 1.244l-4.595 19.977c-0.158 0.683 0.284 1.248 0.99 1.248h3.265c0.706 0 1.405-0.55 1.564-1.248l1.125-4.848c0.15-0.678 0.848-1.239 1.556-1.239h0.933c3.992-0.004 7.089-0.821 9.314-2.455 2.222-1.631 3.334-3.794 3.328-6.469 0.006-1.175-0.198-2.158-0.622-2.943zM15.236 10.602c-0.984 0.72-2.348 1.080-4.119 1.080h-0.8c-0.705 0-1.151-0.559-0.995-1.247l0.983-4.235c0.15-0.682 0.854-1.248 1.559-1.242l1.068-0.007c1.248 0 2.196 0.214 2.836 0.638 0.631 0.413 0.951 1.066 0.94 1.944 0.019 1.322-0.483 2.345-1.472 3.067z"></path>
<path fill="#369" style="fill: var(--color5, #369)" d="M81.555 4.148c-0.407-0.792-1.021-1.429-1.798-1.925-0.796-0.495-1.743-0.84-2.839-1.042-1.084-0.19-2.372-0.299-3.84-0.302l-6.83 0.003c-0.703 0.012-1.393 0.564-1.556 1.244l-4.592 19.983c-0.167 0.679 0.289 1.245 0.98 1.241l3.277-0.006c0.695 0.006 1.403-0.556 1.567-1.235l1.108-4.849c0.155-0.68 0.862-1.249 1.568-1.239h0.932c3.997 0 7.097-0.821 9.316-2.456 2.214-1.643 3.328-3.798 3.328-6.479-0.007-1.17-0.206-2.156-0.623-2.939zM74.509 10.684c-0.978 0.711-2.351 1.068-4.118 1.068h-0.812c-0.703 0.008-1.157-0.56-0.99-1.241l0.979-4.241c0.146-0.671 0.859-1.242 1.552-1.236l1.073-0.005c1.253 0.005 2.19 0.215 2.837 0.632 0.636 0.422 0.945 1.075 0.95 1.947 0.003 1.328-0.489 2.349-1.471 3.077z"></path>
<path fill="#1c3664" style="fill: var(--color6, #1c3664)" d="M32.245 19.191c-0.405 0.255-0.833 0.473-1.281 0.659-0.603 0.242-1.177 0.371-1.704 0.371-0.809 0-1.434-0.115-1.857-0.36-0.422-0.233-0.644-0.638-0.637-1.218 0-0.667 0.156-1.187 0.475-1.594 0.322-0.392 0.798-0.708 1.391-0.942 0.591-0.201 1.319-0.363 2.153-0.481 0.744-0.094 2.218-0.263 2.405-0.266 0.187-0.001 0.312-0.105 0.228 0.396-0.036 0.218-0.462 1.964-0.657 2.756-0.059 0.239-0.375 0.585-0.518 0.677zM38.021 6.929c-1.239-0.692-3.178-1.041-5.831-1.041-1.313 0-2.631 0.104-3.954 0.31-0.973 0.148-1.070 0.173-1.674 0.304-1.242 0.271-1.433 1.513-1.433 1.513l-0.399 1.64c-0.226 1.048 0.372 1.005 0.637 0.923 0.541-0.164 0.836-0.326 1.942-0.577 1.055-0.239 2.173-0.418 3.063-0.412 1.308 0 2.3 0.143 2.96 0.418 0.661 0.288 0.987 0.78 0.987 1.482 0.004 0.167 0.008 0.325-0.051 0.462-0.055 0.13-0.161 0.253-0.473 0.295-1.863 0.113-3.2 0.282-4.815 0.517-1.59 0.224-2.981 0.608-4.145 1.139-1.24 0.55-2.167 1.287-2.805 2.219-0.625 0.936-0.937 2.071-0.938 3.408 0 1.263 0.455 2.293 1.332 3.093 0.889 0.789 2.044 1.181 3.443 1.181 0.874-0.006 1.558-0.070 2.050-0.192 0.485-0.123 1.014-0.296 1.571-0.538 0.419-0.175 0.869-0.428 1.345-0.744 0.475-0.317 0.807-0.543 1.232-0.82l0.013 0.026-0.119 0.525c-0.001 0.005-0.008 0.008-0.008 0.014l0.005 0.008c-0.136 0.635 0.243 1.16 0.871 1.221l0.008 0.012h0.055l0.002 0.004c0.417 0 1.846-0.002 2.512-0.004h0.467c0.031 0 0.036-0.010 0.046-0.017 0.642-0.081 1.253-0.601 1.399-1.225l2.384-10.291c0.054-0.242 0.098-0.521 0.122-0.842 0.032-0.327 0.066-0.593 0.057-0.786 0.005-1.457-0.621-2.534-1.857-3.226z"></path>
<path fill="#369" style="fill: var(--color5, #369)" d="M108.559 1.043h-2.921c-0.002 0-0.003 0.001-0.004 0.001l-0.002-0.001c-0.669 0-1.347 0.512-1.537 1.164-0.008 0.026-0.021 0.052-0.027 0.079 0 0-0.070 0.318-0.19 0.867l-4.012 18.186c-0.093 0.411-0.155 0.679-0.173 0.749l0.008 0.010c-0.139 0.636 0.243 1.162 0.871 1.22l0.008 0.012h3.032c0.664 0 1.338-0.507 1.534-1.151 0.009-0.031 0.024-0.060 0.031-0.092l4.377-19.804-0.007-0.002c0.149-0.677-0.288-1.24-0.987-1.24z"></path>
<path fill="#369" style="fill: var(--color5, #369)" d="M114.089 5.075c-0.099 0.026-0.208 0.048-0.327 0.065s-0.225 0.026-0.317 0.026c-0.326 0-0.572-0.088-0.741-0.262s-0.253-0.455-0.253-0.839v-1.689h-0.362v-0.45h0.362v-0.913h0.534v0.913h1.103v0.45h-1.103v1.448c0 0.166 0.005 0.297 0.012 0.391 0.008 0.094 0.035 0.182 0.080 0.263 0.041 0.076 0.098 0.131 0.172 0.166s0.185 0.053 0.335 0.053c0.087 0 0.178-0.013 0.273-0.039 0.094-0.025 0.162-0.047 0.204-0.064h0.027v0.481z"></path>
<path fill="#369" style="fill: var(--color5, #369)" d="M119.373 5.103h-0.534v-1.809c0-0.136-0.007-0.268-0.019-0.395s-0.040-0.228-0.079-0.305c-0.044-0.081-0.106-0.143-0.188-0.184s-0.199-0.063-0.352-0.063c-0.15 0-0.299 0.037-0.45 0.113s-0.299 0.17-0.449 0.285c0.005 0.044 0.010 0.094 0.014 0.153s0.006 0.115 0.006 0.172v2.034h-0.534v-1.809c0-0.141-0.007-0.273-0.019-0.4s-0.039-0.227-0.078-0.302c-0.044-0.082-0.107-0.143-0.189-0.184s-0.199-0.061-0.352-0.061c-0.146 0-0.291 0.036-0.439 0.108s-0.293 0.164-0.44 0.276v2.373h-0.535v-3.177h0.535v0.352c0.167-0.138 0.334-0.246 0.5-0.324 0.167-0.077 0.342-0.116 0.53-0.116 0.216 0 0.4 0.046 0.551 0.136 0.15 0.092 0.263 0.217 0.337 0.379 0.216-0.182 0.413-0.314 0.592-0.394s0.368-0.121 0.571-0.121c0.349 0 0.607 0.106 0.772 0.317 0.166 0.212 0.249 0.507 0.249 0.887v2.062z"></path>
</symbol>
<symbol id="visa" viewBox="0 0 99 32">
<path d="M51.045 10.189c-0.056 4.44 3.957 6.917 6.98 8.39 3.106 1.512 4.149 2.481 4.137 3.832-0.024 2.069-2.478 2.982-4.775 3.017-4.007 0.062-6.337-1.082-8.189-1.947l-1.443 6.754c1.858 0.857 5.299 1.603 8.868 1.636 8.376 0 13.856-4.134 13.885-10.545 0.033-8.136-11.253-8.586-11.176-12.223 0.027-1.102 1.079-2.279 3.385-2.578 1.141-0.151 4.291-0.267 7.863 1.378l1.402-6.535c-1.921-0.699-4.389-1.369-7.463-1.369-7.884 0-13.429 4.191-13.473 10.189zM85.451 0.563c-1.529 0-2.819 0.892-3.394 2.261l-11.965 28.568h8.37l1.666-4.603h10.228l0.966 4.603h7.377l-6.437-30.829h-6.811zM86.621 8.891l2.415 11.576h-6.615l4.2-11.576zM40.897 0.563l-6.597 30.829h7.975l6.594-30.829h-7.972zM29.098 0.563l-8.301 20.983-3.358-17.842c-0.394-1.992-1.95-3.142-3.678-3.142h-13.571l-0.19 0.895c2.786 0.605 5.951 1.58 7.869 2.623 1.174 0.637 1.509 1.194 1.894 2.709l6.36 24.602h8.429l12.922-30.829h-8.376z"></path>
</symbol>
</defs>
</svg>
