<svg aria-hidden="true" style="position: absolute; width: 0; height: 0; overflow: hidden;" version="1.1" xmlns="http://www.w3.org/2000/svg" xmlns:xlink="http://www.w3.org/1999/xlink">
<defs>
<symbol id="icon-comma" viewBox="0 0 54 40">
<path d="M40.018 0c2.41 0 4.687.65 6.83 1.951 2.143 1.301 3.884 3.171 5.223 5.61C53.357 10 54 12.873 54 16.179s-.804 6.531-2.41 9.675c-.536 1.138-1.5 2.601-2.894 4.39-1.446 1.788-2.785 3.333-4.017 4.634L39.616 40 36 33.984a27.548 27.548 0 006.67-5.854c1.928-2.276 2.892-4.363 2.892-6.26 0-.976-.214-1.762-.642-2.358-1.875 1.355-3.965 2.033-6.268 2.033-1.66 0-3.241-.515-4.741-1.545a10.708 10.708 0 01-3.697-3.902c-.964-1.572-1.446-3.198-1.446-4.878 0-1.898.562-3.713 1.687-5.448a12.784 12.784 0 014.26-4.227C36.428.515 38.195 0 40.017 0zM11.17 0c2.41 0 4.687.65 6.83 1.951 2.143 1.301 3.884 3.17 5.223 5.61 1.286 2.439 1.929 5.312 1.929 8.618 0 2.33-.295 4.417-.884 6.26-.59 1.897-1.607 3.875-3.054 5.935-1.393 1.951-2.705 3.577-3.937 4.878-1.232 1.355-3.375 3.604-6.429 6.748l-3.616-6.016a27.551 27.551 0 006.67-5.854c1.928-2.276 2.893-4.363 2.893-6.26 0-.976-.215-1.762-.643-2.358-1.875 1.355-3.965 2.033-6.268 2.033-1.66 0-3.241-.515-4.741-1.545a10.708 10.708 0 01-3.697-3.902C.482 14.526 0 12.9 0 11.22c0-1.898.536-3.713 1.607-5.448a12.784 12.784 0 014.26-4.227C7.58.515 9.347 0 11.17 0z" fill="#E1E1E1"></path>
</symbol>
<symbol id="icon-arrow-right-s" viewBox="0 0 32 32">
<path d="M0 0h32v32h-32v-32z"></path>
</symbol>
<symbol id="icon-arrow-right-l" viewBox="0 0 32 32">
<path d="M0 0h32v32h-32v-32z"></path>
</symbol>
<symbol id="icon-burger" viewBox="0 0 20 14">
<path d="M0 1h20M0 7h20M0 13h20" stroke="#D41443"></path>
</symbol>
<symbol id="icon-close" viewBox="0 0 16 16">
<path d="M1.26 1l13.48 14M1 14.74L15 1.26" stroke="#fff"></path>
</symbol>

<symbol id="icon-ellipse-grow" viewBox="0 0 13 12">
<circle cx="6.395" cy="6" r="6"></circle>

</symbol>
<symbol id="icon-group-white" viewBox="0 0 32 32">
<path fill="#fff" style="fill: var(--color3, #fff)" d="M19.692 16c0 2.039-1.653 3.692-3.692 3.692s-3.692-1.653-3.692-3.692c0-2.039 1.653-3.692 3.692-3.692s3.692 1.653 3.692 3.692z"></path>
<path fill="#fff" style="fill: var(--color3, #fff)" d="M7.385 16c0 2.039-1.653 3.692-3.692 3.692s-3.692-1.653-3.692-3.692c0-2.039 1.653-3.692 3.692-3.692s3.692 1.653 3.692 3.692z"></path>
<path fill="#fff" style="fill: var(--color3, #fff)" d="M32 16c0 2.039-1.653 3.692-3.692 3.692s-3.692-1.653-3.692-3.692c0-2.039 1.653-3.692 3.692-3.692s3.692 1.653 3.692 3.692z"></path>
</symbol>
<symbol id="icon-group-red" viewBox="0 0 32 32">
<path fill="#c7133e" style="fill: var(--color5, #c7133e)" d="M18 16c0 1.105-0.895 2-2 2s-2-0.895-2-2c0-1.105 0.895-2 2-2s2 0.895 2 2z"></path>
<path fill="#c7133e" style="fill: var(--color5, #c7133e)" d="M4 16c0 1.105-0.895 2-2 2s-2-0.895-2-2c0-1.105 0.895-2 2-2s2 0.895 2 2z"></path>
<path fill="#c7133e" style="fill: var(--color5, #c7133e)" d="M32 16c0 1.105-0.895 2-2 2s-2-0.895-2-2c0-1.105 0.895-2 2-2s2 0.895 2 2z"></path>
</symbol>
<symbol id="icon-icon1" viewBox="0 0 21 32">
<path d="M0 0h21.12v32h-21.12v-32z"></path>
</symbol>
<symbol id="icon-icon2" viewBox="0 0 32 32">
<path d="M0 0h32v32h-32v-32z"></path>
</symbol>
<symbol id="icon-icon3" viewBox="0 0 28 32">
<path d="M0 0h28.16v32h-28.16v-32z"></path>
</symbol>
<symbol id="icon-telegram" viewBox="0 0 22 16">
<path d="M8.672 10.524l-.338 4.43c.483 0 .692-.194.943-.426l2.263-2.02 4.69 3.207c.861.447 1.467.211 1.7-.739l3.078-13.464V1.51c.274-1.187-.46-1.651-1.297-1.36L1.614 6.617C.379 7.065.397 7.707 1.404 8L6.03 9.342l10.746-6.276c.506-.313.966-.14.588.173l-8.693 7.285z" fill="#fff"></path>
</symbol>

<symbol id="icon-home" viewBox="0 0 13 12">
<path d="M12.24 5.775a.578.578 0 00-.049-.834L6.651.16a.698.698 0 00-.9.01L.193 5.196a.574.574 0 00-.027.833l.14.143c.23.238.604.266.834.063l.415-.367v5.373a.6.6 0 00.605.596h2.166a.6.6 0 00.605-.596V7.482h2.764v3.759c-.005.33.234.596.568.596h2.296a.6.6 0 00.604-.596V5.944l.257.222c.141.122.438.024.662-.22l.158-.17z"></path>

</symbol>
<symbol id="icon-git-hub" viewBox="0 0 20 20">
<path d="M10 0C4.507 0 0 4.507 0 10c0 4.687 3.289 8.945 7.656 10v-3.308a2.446 2.446 0 01-1.271-.033c-.591-.174-1.071-.568-1.428-1.168-.227-.383-.63-.8-1.05-.769l-.103-1.167c.909-.078 1.694.554 2.16 1.337.208.349.447.553.753.643.295.088.613.046.983-.085.093-.741.433-1.018.69-1.41-2.605-.388-3.643-1.77-4.055-2.86-.546-1.449-.253-3.258.712-4.402.019-.022.053-.08.04-.12-.443-1.338.096-2.444.116-2.561.511.15.594-.152 2.22.835l.28.169c.118.07.08.03.198.02A8.487 8.487 0 0110 4.828c.71.009 1.42.11 2.127.302l.091.01c-.008-.002.025-.006.08-.039 2.03-1.23 1.957-.828 2.502-1.005.02.118.551 1.242.114 2.562-.06.182 1.76 1.848.751 4.522-.412 1.09-1.45 2.473-4.054 2.861.334.51.735.78.733 1.83V20C16.71 18.945 20 14.687 20 10c0-5.493-4.507-10-10-10z" fill="#fff"></path>
</symbol>
<symbol id="icon-facebook" viewBox="0 0 11 22">
<path d="M9.723 10.98H6.95V21.2H2.748V10.98H.75V7.39h1.998V5.065C2.748 3.403 3.533.8 6.988.8L10.1.813V4.3H7.842c-.37 0-.892.187-.892.98v2.113h3.14l-.367 3.588z" fill="#fff"></path>
</symbol>
<symbol id="icon-arrow" viewBox="0 0 6 10">
<path d="M1 1l4 4-4 4" stroke="#D41443" stroke-width="2" stroke-linecap="round" stroke-linejoin="round"></path>
</symbol>
<symbol id="icon-vectord" viewBox="0 0 813 1">
<path fill="none" stroke="#E1E1E1" d="M0 .5h813"></path>
</symbol>
<symbol id="icon-vectorm" viewBox="0 0 180 2">
<path fill="none" stroke="#E1E1E1" d="M0 1h180"></path>
</symbol>
<symbol id="icon-vectord" viewBox="0 0 524 2">
<path fill="none" stroke="#E1E1E1" d="M0 1h524"></path>
</symbol>

<symbol id="icon-vector-contacts" viewBox="0 0 22 32">
<path fill="none" stroke="#d41443" style="stroke: var(--color1, #fff)" stroke-linejoin="round" stroke-linecap="round" stroke-miterlimit="4" stroke-width="6.4" d="M4.488 3.2l13.7 12.8-13.7 12.8"></path>
</symbol>
<symbol id="vector-contacts" viewBox="0 0 22 32">
<path fill="none" stroke="#d41443" style="stroke: var(--color1, #d41443)" stroke-linejoin="round" stroke-linecap="round" stroke-miterlimit="4" stroke-width="6.4" d="M3.471 3.2l13.7 12.8-13.7 12.8"></path>
</symbol>
</defs>
</svg>
