<svg aria-hidden="true" style="position:absolute;width:0;height:0" xmlns="http://www.w3.org/2000/svg" overflow="hidden">
<defs>
<symbol id="gray-lines" viewBox="0 0 26 32"><path fill="var(--color8, #d9d9d9)" d="M33.053 16c0 8.837-7.163 16-16 16s-16-7.163-16-16 7.163-16 16-16 16 7.163 16 16z"/>
</symbol>
<symbol id="home" viewBox="0 0 35 32"><path fill="var(--color1, #d31342)" d="M32.64 15.4a1.539 1.539 0 00-.128-2.223l-.002-.002L17.737.426a1.849 1.849 0 00-1.184-.425c-.466 0-.892.171-1.218.454l.002-.002L.516 13.856a1.53 1.53 0 00-.072 2.222l.373.381c.613.635 1.611.709 2.224.168l1.107-.979v14.328a1.6 1.6 0 001.6 1.589H11.55a1.6 1.6 0 001.6-1.589V19.951h7.371v10.024c-.013.88.624 1.589 1.515 1.589h6.134a1.6 1.6 0 001.6-1.589V15.849l.685.592c.376.325 1.168.064 1.765-.587l.421-.453z"/>
</symbol>
<symbol id="skavichki" viewBox="0 0 43 32"><path fill="var(--color2, #e1e1e1)" d="M32.014 0c1.928 0 3.75.52 5.464 1.561s3.107 2.536 4.178 4.488c1.029 1.951 1.543 4.25 1.543 6.894s-.643 5.225-1.928 7.74c-.429.91-1.2 2.081-2.315 3.512a63.65 63.65 0 01-3.214 3.707L31.692 32l-2.893-4.813a22.225 22.225 0 005.306-4.646l.03-.037c1.542-1.821 2.314-3.49 2.314-5.008 0-.781-.171-1.41-.514-1.886a8.361 8.361 0 01-5.014 1.626c-1.328 0-2.593-.412-3.793-1.236a8.638 8.638 0 01-2.935-3.078l-.022-.043c-.771-1.258-1.157-2.558-1.157-3.902 0-1.518.45-2.97 1.35-4.358a10.313 10.313 0 013.364-3.356l.044-.025C29.142.414 30.556.002 32.014.002zM8.936 0c1.928 0 3.75.52 5.464 1.561s3.107 2.536 4.178 4.488c1.029 1.951 1.543 4.25 1.543 6.894 0 1.864-.236 3.534-.707 5.008-.472 1.518-1.286 3.1-2.443 4.748-1.114 1.561-2.164 2.862-3.15 3.902-.986 1.084-2.7 2.883-5.143 5.398l-2.893-4.813a22.225 22.225 0 005.306-4.646l.03-.037c1.542-1.821 2.314-3.49 2.314-5.008 0-.781-.172-1.41-.514-1.886a8.361 8.361 0 01-5.014 1.626c-1.328 0-2.593-.412-3.793-1.236a8.638 8.638 0 01-2.935-3.078l-.022-.043C.386 11.62 0 10.32 0 8.976c0-1.518.429-2.97 1.286-4.358A10.313 10.313 0 014.65 1.262l.045-.025C6.065.413 7.479.001 8.937.001z"/>
</symbol>
<symbol id="long-line" viewBox="0 0 8384 32"><path fill="none" stroke="var(--color2, #e1e1e1)" stroke-width="16" d="M0 16h8384"/>
</symbol>
<symbol id="read-more-button" viewBox="0 0 26 32"><path fill="none" stroke="var(--color3, #d41443)" stroke-linejoin="round" stroke-linecap="round" stroke-width="6.4" d="M5.171 3.2L19.341 16 5.171 28.8"/>
</symbol>
<symbol id="red-dots" viewBox="0 0 256 32"><path fill="var(--color4, #c7133e)" d="M144 16c0 8.837-7.163 16-16 16s-16-7.163-16-16 7.163-16 16-16 16 7.163 16 16zM32 16c0 8.837-7.163 16-16 16S0 24.837 0 16 7.163 0 16 0s16 7.163 16 16zM256 16c0 8.837-7.163 16-16 16s-16-7.163-16-16 7.163-16 16-16 16 7.163 16 16z"/>
</symbol>
<symbol id="pink-cicrle" viewBox="0 0 32 32"><path fill="var(--color5, #ffa5ba)" d="M32 16c0 8.837-7.163 16-16 16S0 24.837 0 16 7.163 0 16 0s16 7.163 16 16z"/>
</symbol>
<symbol id="short-line" viewBox="0 0 2864 32"><path fill="none" stroke="var(--color2, #e1e1e1)" stroke-width="16" d="M0 16h2864"/>
</symbol>
<symbol id="group-circle" viewBox="0 0 139 32"><path fill="var(--color6, #fff)" d="M85.333 16c0 8.837-7.163 16-16 16s-16-7.163-16-16 7.163-16 16-16 16 7.163 16 16zM32 16c0 8.837-7.163 16-16 16S0 24.837 0 16 7.163 0 16 0s16 7.163 16 16zM138.667 16c0 8.837-7.163 16-16 16s-16-7.163-16-16 7.163-16 16-16 16 7.163 16 16z"/>
</symbol>
<symbol id="white-circle" viewBox="0 0 32 32"><path fill="var(--color6, #fff)" d="M32 16c0 8.837-7.163 16-16 16S0 24.837 0 16 7.163 0 16 0s16 7.163 16 16z"/>
</symbol>
<symbol id="burger" viewBox="0 0 46 32"><path stroke-width="2.286" d="M0 2.286h45.714M0 16h45.714M0 29.714h45.714"/>
</symbol>
<symbol id="buy-now-button" viewBox="0 0 19 32"><path fill="none" stroke="var(--color3, #d41443)" stroke-linejoin="round" stroke-linecap="round" stroke-width="6.4" d="M3.2 3.2L16 16 3.2 28.8"/>
</symbol>
<symbol id="close" viewBox="0 0 32 32"><path stroke-width="2" d="M2.52 2l26.96 28M2 29.48L30 2.52"/>
</symbol>
<symbol id="gray-circle" viewBox="0 0 35 32"><path fill="var(--color8, #d9d9d9)" d="M33.053 16c0 8.837-7.163 16-16 16s-16-7.163-16-16 7.163-16 16-16 16 7.163 16 16z"/>
</symbol>
<symbol id="medium-line" viewBox="0 0 8384 32">
<path fill="none" stroke="#e1e1e1" style="stroke: var(--color1, #e1e1e1)" stroke-linejoin="miter" stroke-linecap="butt" stroke-miterlimit="4" stroke-width="16" d="M0 16h8384"></path>
</symbol>
<symbol id="facebook" viewBox="0 0 16 32"><path fill="var(--color1, #fff)" d="M14.143 15.971H10.11v14.865H3.998V15.971H1.092v-5.222h2.906V7.367c0-2.417 1.142-6.204 6.167-6.204l4.527.019v5.072h-3.284c-.538 0-1.297.272-1.297 1.425v3.073h4.567l-.534 5.219z"/>
</symbol>
<symbol id="github" viewBox="0 0 32 32"><path fill="var(--color1, #fff)" d="M16 0C7.211 0 0 7.211 0 16c0 7.499 5.262 14.312 12.25 16v-5.293a3.921 3.921 0 01-2.062-.06l.028.007c-.946-.278-1.714-.909-2.285-1.869-.363-.613-1.008-1.28-1.68-1.23l-.165-1.867c1.454-.125 2.71.886 3.456 2.139.333.558.715.885 1.205 1.029.472.141.981.074 1.573-.136.149-1.186.693-1.629 1.104-2.256-4.168-.621-5.829-2.832-6.488-4.576-.874-2.318-.405-5.213 1.139-7.043.03-.035.085-.128.064-.192-.709-2.141.154-3.91.186-4.098.818.24.95-.243 3.552 1.336l.448.27c.189.112.128.048.317.032a13.246 13.246 0 013.349-.469h.01c1.136.014 2.272.176 3.403.483l.146.016c-.013-.003.04-.01.128-.062 3.248-1.968 3.131-1.325 4.003-1.608.032.189.882 1.987.182 4.099-.096.291 2.816 2.957 1.202 7.235-.659 1.744-2.32 3.957-6.486 4.578.534.816 1.176 1.248 1.173 2.928v6.606c6.986-1.688 12.25-8.501 12.25-16 0-8.789-7.211-16-16-16z"/>
</symbol>
<symbol id="telegram" viewBox="0 0 44 32"><path fill="var(--color1, #fff)" d="M17.342 21.048l-.674 8.86c.966 0 1.384-.388 1.886-.852l4.526-4.04 9.38 6.414c1.72.894 2.934.422 3.4-1.478L42.016 3.02c.548-2.374-.92-3.302-2.594-2.72L3.228 13.234c-2.47.896-2.434 2.18-.42 2.766l9.252 2.684L33.554 6.132c1.012-.626 1.932-.28 1.176.346l-17.39 14.57z"/>
</symbol>
<symbol id="white-arrow" viewBox="0 0 26 32">
<path fill="none" stroke="#fff" style="stroke: var(--color1, #fff)" stroke-linejoin="round" stroke-linecap="round" stroke-miterlimit="4" stroke-width="6.4" d="M5.172 3.2l14.169 12.8-14.169 12.8"></path>
</symbol>
<symbol id="icon-products-link" viewBox="0 0 32 32">
<path d="M31.008 13.773l-10-9.002c-1.232-1.108-3.13-1.012-4.238 0.224-1.108 1.23-1.008 3.128 0.224 4.236l4.186 3.77h-18.18c-1.658 0-3 1.342-3 3s1.342 3 3 3h18.184l-4.192 3.77c-1.232 1.11-1.332 3.006-0.224 4.236 0.594 0.658 1.412 0.994 2.232 0.994 0.716 0 1.434-0.254 2.006-0.77l10-8.998c0.632-0.568 0.994-1.38 0.994-2.23s-0.362-1.662-0.992-2.23z"></path>
</symbol>
<symbol id="up" viewBox="0 0 192.701 192.701">
<path d="M20.746 104.169l75.61-74.528 75.61 74.54c4.74 4.704 12.439 4.704 17.179 0s4.74-12.319 0-17.011l-84.2-82.997c-4.559-4.511-12.608-4.535-17.191 0l-84.2 83.009c-4.74 4.692-4.74 12.319 0 17.011 4.753 4.68 12.452 4.68 17.192-.024z"/>
<path d="M104.946 88.373c-4.559-4.511-12.608-4.535-17.191 0l-84.2 82.997c-4.74 4.704-4.74 12.319 0 17.011 4.74 4.704 12.439 4.704 17.179 0l75.622-74.528 75.61 74.54c4.74 4.704 12.439 4.704 17.179 0s4.74-12.319 0-17.011l-84.199-83.009z"/>
</symbol>
</defs>
</svg>