<svg aria-hidden="true" style="position: absolute; width: 0; height: 0; overflow: hidden;" version="1.1" xmlns="http://www.w3.org/2000/svg" xmlns:xlink="http://www.w3.org/1999/xlink">
<defs>
<symbol id="icon-arrow-left" viewBox="0 0 54 32">
<path fill="#ff6b09" style="fill: var(--color1, #ff6b09)" d="M52 14c1.105 0 2 0.895 2 2s-0.895 2-2 2v0-4zM0.586 17.414c-0.362-0.362-0.586-0.862-0.586-1.414s0.224-1.052 0.586-1.414l12.728-12.728c0.357-0.335 0.838-0.541 1.368-0.541 1.105 0 2 0.895 2 2 0 0.53-0.206 1.012-0.543 1.37l0.001-0.001-11.312 11.314 11.314 11.314c0.377 0.364 0.611 0.874 0.611 1.439 0 1.105-0.895 2-2 2-0.565 0-1.074-0.234-1.438-0.61l-0.001-0.001-12.728-12.728zM52 18h-50v-4h50v4z"></path>
</symbol>
<symbol id="icon-arrow-right" viewBox="0 0 54 32">
<path fill="#ff6b09" style="fill: var(--color1, #ff6b09)" d="M2 14c-1.105 0-2 0.895-2 2s0.895 2 2 2v0-4zM53.414 17.414c0.362-0.362 0.586-0.862 0.586-1.414s-0.224-1.052-0.586-1.414l-12.728-12.728c-0.364-0.377-0.874-0.611-1.439-0.611-1.105 0-2 0.895-2 2 0 0.565 0.234 1.074 0.61 1.438l0.001 0.001 11.314 11.314-11.314 11.314c-0.347 0.359-0.561 0.849-0.561 1.389 0 1.105 0.895 2 2 2 0.54 0 1.030-0.214 1.39-0.562l-0.001 0.001 12.728-12.728zM2 18h50v-4h-50v4z"></path>
</symbol>
<symbol id="icon-check" viewBox="0 0 41 32">
<path fill="#ff6b09" style="fill: var(--color1, #ff6b09)" d="M34.457 1.513c-1.486 0.663-2.907 1.477-4.265 2.379-2.731 1.797-5.227 3.936-7.57 6.217-2.29 2.257-4.442 4.632-6.455 7.124l-0.125 0.16-2.823 3.467-9.595-14.379-3.623 10.041 12.978 15.477c1.257-2.551 2.471-5.070 3.662-7.257 0.297-0.558 0.606-1.081 0.901-1.614 0 0 1.522-2.674 1.925-3.351 1.787-3.021 3.516-5.573 5.381-8.016l-0.144 0.196c1.909-2.491 3.984-4.869 6.336-6.962 1.17-1.051 2.416-2.025 3.749-2.871 1.226-0.81 2.634-1.526 4.121-2.079l0.145-0.047c-1.741 0.366-3.276 0.888-4.722 1.568l0.13-0.055z"></path>
</symbol>
<symbol id="icon-flame" viewBox="0 0 24 32">
<path fill="#ff6b09" style="fill: var(--color1, #ff6b09)" d="M21.909 16.592c-0.285-0.635-0.675-1.259-1.248-1.982-1.44-1.813-1.882-5.856-1.886-5.896-0.022-0.194-0.155-0.352-0.333-0.41l-0.003-0.001c-0.045-0.015-0.098-0.024-0.152-0.024-0.146 0-0.277 0.063-0.367 0.163l-0 0c-1.72 1.925-0.997 4.898-0.606 6.085 0.109 0.326 0.226 0.709 0.309 1.096 0.635 3.136-0.592 4.558-0.88 4.845-0.278 0.077-0.469 0.038-0.645-0.15-0.608-0.664-0.808-2.842-0.523-5.678 0.058-0.576 0.043-1.096-0.040-1.581-0.598-3.486-2.79-5.722-3.349-6.506-1.536-2.27-1.691-6.048-1.696-6.080-0.010-0.261-0.225-0.469-0.488-0.469-0.103 0-0.198 0.032-0.277 0.086l0.002-0.001c-2.56 1.741-2.341 5.936-1.984 8.277 0.083 0.544 0.243 1.096 0.523 1.794 0.992 2.496-0.197 5.722-0.206 5.75s-0.019 0.053-0.024 0.083c-0.152 0.795-0.406 1.27-0.688 1.27-0.034-0.001-0.066-0.007-0.097-0.017l0.002 0.001c-0.347-0.072-0.528-0.44-0.533-0.76-0.019-4.136-4.17-5.528-4.214-5.542s-0.096-0.024-0.15-0.024c-0.147 0-0.279 0.065-0.368 0.169l-0.001 0.001c-0.075 0.084-0.121 0.195-0.121 0.317 0 0.079 0.019 0.153 0.053 0.219l-0.001-0.003c0.050 0.102 0.206 0.549 0.099 2.125-0.093 1.414-0.352 2.816-0.768 4.16-0.528 1.721-0.832 3.698-0.832 5.747 0 0.234 0.004 0.468 0.012 0.7l-0.001-0.034c0.758 8.256 12.634 9.704 19.682 5.051 0.732-0.471 1.35-1.047 1.854-1.713l0.013-0.018c2.602-3.587 1.072-8.459-0.067-11.050zM3.845 24.48c0.014 0.267-0.192 0.496-0.461 0.51h-0.029c-0.001 0-0.003 0-0.004 0-0.258 0-0.469-0.201-0.485-0.455l-0-0.001c-0.043-0.707-0.034-1.45 0.019-2.256 0.023-0.253 0.234-0.449 0.491-0.449 0.011 0 0.023 0 0.034 0.001l-0.002-0c0.256 0.017 0.457 0.228 0.457 0.487 0 0.010-0 0.021-0.001 0.031l0-0.001c-0.054 0.768-0.064 1.464-0.021 2.134zM4.085 20.186c-0.030 0.242-0.234 0.427-0.481 0.427-0.001 0-0.002 0-0.004 0h0c-0.021 0-0.040 0-0.064-0.005-0.243-0.031-0.429-0.237-0.429-0.486 0-0.019 0.001-0.037 0.003-0.056l-0 0.002 0.235-1.872c0.035-0.241 0.24-0.424 0.488-0.424 0.021 0 0.041 0.001 0.062 0.004l-0.002-0c0.243 0.029 0.429 0.235 0.429 0.483 0 0.021-0.001 0.043-0.004 0.063l0-0.002-0.235 1.866zM18.602 6.632c-0.236-0.035-0.415-0.237-0.415-0.48 0-0.026 0.002-0.051 0.006-0.075l-0 0.003c0.032-0.197 0.208-1.205 0.688-1.712 0.090-0.094 0.216-0.153 0.356-0.153 0.129 0 0.246 0.050 0.334 0.131l-0-0c0.197 0.182 0.208 0.49 0.022 0.685-0.203 0.216-0.376 0.83-0.432 1.197-0.038 0.234-0.24 0.411-0.482 0.411-0.028 0-0.055-0.002-0.081-0.007l0.003 0zM0.778 9.048c-0.093-0.36-0.326-0.955-0.549-1.149-0.103-0.089-0.168-0.219-0.168-0.365 0-0.123 0.046-0.235 0.122-0.32l-0 0c0.090-0.102 0.222-0.166 0.368-0.166 0.124 0 0.237 0.046 0.324 0.122l-0.001-0c0.526 0.459 0.8 1.445 0.851 1.638 0.009 0.036 0.015 0.076 0.015 0.119 0 0.226-0.154 0.416-0.363 0.469l-0.003 0.001c-0.037 0.010-0.079 0.015-0.122 0.015-0.226 0-0.416-0.153-0.472-0.361l-0.001-0.003z"></path>
</symbol>
<symbol id="icon-vk" viewBox="0 0 32 32">
<path fill="#436eab" style="fill: var(--color1, #436eab)" d="M27.541 18.46c1.060 1.037 2.181 2.012 3.133 3.152 0.421 0.508 0.819 1.030 1.123 1.619 0.432 0.836 0.042 1.757-0.709 1.807l-4.661-0.002c-1.202 0.099-2.161-0.384-2.969-1.206-0.645-0.658-1.243-1.358-1.863-2.037-0.246-0.281-0.521-0.527-0.824-0.736l-0.015-0.010c-0.637-0.413-1.189-0.287-1.553 0.377-0.37 0.676-0.454 1.423-0.491 2.176-0.050 1.098-0.382 1.387-1.485 1.436-2.356 0.112-4.593-0.245-6.67-1.434-1.833-1.049-3.253-2.528-4.489-4.203-2.407-3.262-4.251-6.845-5.907-10.529-0.373-0.831-0.1-1.276 0.815-1.292 1.521-0.030 3.042-0.028 4.564-0.002 0.619 0.009 1.027 0.363 1.266 0.947 0.822 2.023 1.829 3.948 3.093 5.732 0.336 0.475 0.679 0.949 1.168 1.284 0.541 0.37 0.953 0.247 1.206-0.354 0.162-0.382 0.233-0.794 0.269-1.202 0.121-1.408 0.137-2.812-0.075-4.213-0.13-0.876-0.623-1.442-1.495-1.609-0.446-0.084-0.38-0.25-0.164-0.505 0.374-0.437 0.727-0.711 1.429-0.711h5.269c0.829 0.164 1.013 0.537 1.127 1.371l0.004 5.853c-0.010 0.323 0.161 1.282 0.743 1.495 0.465 0.153 0.772-0.22 1.052-0.515 1.262-1.339 2.162-2.922 2.965-4.56 0.357-0.72 0.665-1.469 0.962-2.215 0.221-0.555 0.565-0.828 1.191-0.816l5.070 0.004c0.151 0 0.303 0.002 0.448 0.028 0.855 0.145 1.089 0.512 0.826 1.347-0.416 1.309-1.225 2.4-2.016 3.495-0.846 1.17-1.749 2.301-2.589 3.477-0.77 1.075-0.709 1.617 0.247 2.55z"></path>
</symbol>
<symbol id="icon-desh" viewBox="0 0 213 32">
<path fill="#ff6b09" style="fill: var(--color2, #ff6b09)" d="M0 4.267h213.333v20.693h-213.333v-20.693z"></path>
</symbol>
<symbol id="icon-dotted-line" viewBox="0 0 1 32">
<path fill="none" stroke="#b9b9b9" style="stroke: var(--color1, #b9b9b9)" stroke-linejoin="miter" stroke-linecap="butt" stroke-miterlimit="4" stroke-width="0.4706" d="M0.471 0v32"></path>
</symbol>
</defs>
</svg>
