<svg aria-hidden="true" style="position: absolute; width: 0; height: 0; overflow: hidden;" version="1.1" xmlns="http://www.w3.org/2000/svg" xmlns:xlink="http://www.w3.org/1999/xlink">
<defs>
<symbol id="icon-arrow-right" viewBox="0 0 32 32">
<path d="M0 0h32v32h-32v-32z"></path>
</symbol>
<symbol id="icon-facebook" viewBox="0 0 32 32">
<path d="M15.972 31.515c8.569 0 15.515-6.946 15.515-15.515s-6.946-15.515-15.515-15.515c-8.569 0-15.515 6.946-15.515 15.515s6.946 15.515 15.515 15.515z"></path>
<path  d="M20.282 15.982h-2.531v9.327h-3.835v-9.327h-1.824v-3.278h1.824v-2.121c0-1.517 0.716-3.892 3.869-3.892l2.841 0.012v3.182h-2.061c-0.338 0-0.813 0.17-0.813 0.893v1.929h2.866l-0.335 3.275z"></path>
</symbol>
<symbol id="icon-github" viewBox="0 0 32 32">
<path  d="M32 16c0 8.837-7.163 16-16 16s-16-7.163-16-16c0-8.837 7.163-16 16-16s16 7.163 16 16z"></path>
<path  d="M16 6.588c-5.169 0-9.412 4.242-9.412 9.412 0 4.411 3.095 8.419 7.206 9.412v-3.114c-0.407 0.089-0.782 0.092-1.197-0.030-0.556-0.164-1.008-0.535-1.344-1.1-0.214-0.361-0.593-0.752-0.988-0.723l-0.097-1.099c0.855-0.073 1.595 0.521 2.034 1.258 0.195 0.328 0.419 0.52 0.708 0.605 0.278 0.082 0.577 0.043 0.926-0.081 0.088-0.698 0.407-0.959 0.649-1.326v-0.001c-2.451-0.366-3.428-1.666-3.816-2.693-0.514-1.363-0.238-3.066 0.671-4.142 0.018-0.021 0.050-0.076 0.037-0.114-0.417-1.258 0.091-2.3 0.11-2.41 0.481 0.142 0.559-0.143 2.088 0.786l0.264 0.159c0.111 0.066 0.076 0.028 0.186 0.020 0.639-0.174 1.312-0.269 1.975-0.278 0.668 0.009 1.337 0.104 2.002 0.285l0.086 0.009c-0.008-0.001 0.023-0.005 0.075-0.036 1.911-1.157 1.842-0.779 2.354-0.946 0.018 0.111 0.519 1.169 0.107 2.411-0.056 0.171 1.657 1.739 0.708 4.256-0.388 1.027-1.365 2.328-3.816 2.693v0.001c0.314 0.479 0.692 0.734 0.69 1.722v3.887c4.111-0.993 7.206-5 7.206-9.412 0-5.169-4.242-9.412-9.412-9.412v0z"></path>
</symbol>
<symbol id="icon-home-1-button" viewBox="0 0 32 32">
<path fill="#d31342" style="fill: var(--color3, #d31342)" d="M30.129 15.447c0.553-0.6 0.5-1.52-0.119-2.054l-13.636-11.77c-0.619-0.534-1.611-0.523-2.217 0.025l-13.682 12.372c-0.606 0.548-0.636 1.466-0.066 2.051l0.343 0.352c0.569 0.584 1.489 0.654 2.053 0.155l1.023-0.903v13.224c0 0.811 0.667 1.468 1.488 1.468h5.333c0.822 0 1.488-0.657 1.488-1.468v-9.252h6.803v9.252c-0.012 0.811 0.576 1.468 1.398 1.468h5.652c0.822 0 1.488-0.657 1.488-1.468v-13.038c0 0 0.282 0.244 0.631 0.546s1.078 0.060 1.631-0.541l0.388-0.42z"></path>
</symbol>
<symbol id="icon-icon1-about" viewBox="0 0 21 32">
<path d="M0 0h21.12v32h-21.12v-32z"></path>
</symbol>
<symbol id="icon-icon2-about" viewBox="0 0 32 32">
<path d="M0 0h32v32h-32v-32z"></path>
</symbol>
<symbol id="icon-icon3-about" viewBox="0 0 28 32">
<path d="M0 0h28.16v32h-28.16v-32z"></path>
</symbol>
<symbol id="icon-telegram" viewBox="0 0 32 32">
<path d="M31.258 16c0 8.569-6.946 15.515-15.515 15.515s-15.515-6.946-15.515-15.515c0-8.569 6.946-15.515 15.515-15.515s15.515 6.946 15.515 15.515z"></path>
<path  d="M12.705 18.303l-0.308 4.043c0.441 0 0.631-0.177 0.86-0.389l2.066-1.843 4.281 2.926c0.785 0.408 1.338 0.193 1.55-0.674l2.811-12.289c0.249-1.083-0.42-1.507-1.185-1.241l-16.516 5.902c-1.127 0.408-1.11 0.995-0.192 1.261l4.223 1.226 9.808-5.728c0.462-0.285 0.881-0.127 0.536 0.158l-7.934 6.649z"></path>
</symbol>
</defs>
</svg>
