<svg aria-hidden="true" style="position: absolute; width: 0; height: 0; overflow: hidden;" version="1.1" xmlns="http://www.w3.org/2000/svg" xmlns:xlink="http://www.w3.org/1999/xlink">
    <defs>
        <symbol id="icon-arrow-right" viewBox="0 0 29 32">
            <path d="M17.791 12.394l-5.373-7.642h7.737l7.57 10.77-7.57 10.77h-7.737l5.373-7.642h-15.666v-6.257h15.666z"></path>
        </symbol>
        <symbol id="icon-telegram" viewBox="0 0 44 32">
            <path fill="#fff" style="fill: var(--color1, #fff)" d="M17.342 21.048l-0.674 8.86c0.966 0 1.384-0.388 1.886-0.852l4.526-4.040 9.38 6.414c1.72 0.894 2.934 0.422 3.4-1.478l6.156-26.932c0.548-2.374-0.92-3.302-2.594-2.72l-36.194 12.934c-2.47 0.896-2.434 2.18-0.42 2.766l9.252 2.684 21.494-12.552c1.012-0.626 1.932-0.28 1.176 0.346l-17.39 14.57z"></path>
        </symbol>
        <symbol id="icon-facebook" viewBox="0 0 16 32">
            <path fill="#fff" style="fill: var(--color1, #fff)" d="M14.143 15.971h-4.033v14.865h-6.112v-14.865h-2.906v-5.222h2.906v-3.382c0-2.417 1.142-6.204 6.167-6.204l4.527 0.019v5.072h-3.284c-0.538 0-1.297 0.272-1.297 1.425v3.073h4.567l-0.534 5.219z"></path>
        </symbol>
        <symbol id="icon-Vector-right" viewBox="0 0 26 32">
            <path fill="none" stroke="#fff" style="stroke: var(--color1, #fff)" stroke-linejoin="round" stroke-linecap="round" stroke-miterlimit="4" stroke-width="6.4" d="M5.171 3.2l14.17 12.8-14.17 12.8"></path>
        </symbol>
        <symbol id="icon-Vector-right1" viewBox="0 0 19 32">
            <path fill="none" stroke="#d41443" style="stroke: var(--color2, #d41443)" stroke-linejoin="round" stroke-linecap="round" stroke-miterlimit="4" stroke-width="6.4" d="M3.2 3.2l12.8 12.8-12.8 12.8"></path>
        </symbol>
        <symbol id="icon-home" viewBox="0 0 35 32">
            <path fill="#d31342" style="fill: var(--color3, #d31342)" d="M34.253 15.613c0.257-0.279 0.414-0.654 0.414-1.064 0-0.475-0.21-0.901-0.543-1.19l-0.002-0.002-14.773-12.925c-0.318-0.269-0.732-0.432-1.184-0.432-0.467 0-0.893 0.174-1.217 0.46l0.002-0.002-14.821 13.589c-0.316 0.288-0.513 0.701-0.513 1.16 0 0.424 0.168 0.809 0.442 1.091l-0-0 0.373 0.387c0.613 0.64 1.611 0.72 2.224 0.171l1.107-0.992v14.523c0 0.893 0.72 1.613 1.613 1.613h5.773c0.891 0 1.613-0.72 1.613-1.613v-10.16h7.373v10.16c-0.013 0.891 0.624 1.613 1.515 1.613h6.123c0.891 0 1.611-0.72 1.611-1.613v-14.32l0.685 0.603c0.376 0.331 1.168 0.064 1.765-0.595l0.421-0.461z"></path>
        </symbol>
        <symbol id="icon-Ellipse" viewBox="0 0 32 32">
            <path fill="#c7133e" style="fill: var(--color4, #c7133e)" d="M32 16c0 8.837-7.163 16-16 16s-16-7.163-16-16c0-8.837 7.163-16 16-16s16 7.163 16 16z"></path>
        </symbol>
        <symbol id="icon-close" viewBox="0 0 32 32">
            <path fill="none" stroke="#fff" style="stroke: var(--color1, #fff)" stroke-linejoin="miter" stroke-linecap="butt" stroke-miterlimit="4" stroke-width="2" d="M2.52 2l26.96 28M2 29.48l28-26.96"></path>
        </symbol>
        <symbol id="icon-Burger" viewBox="0 0 46 32">
            <path fill="none" stroke="#d41443" style="stroke: var(--color2, #d41443)" stroke-linejoin="miter" stroke-linecap="butt" stroke-miterlimit="4" stroke-width="2.2857" d="M0 2.286h45.714M0 16h45.714M0 29.714h45.714"></path>
        </symbol>
        <symbol id="icon-arrow" viewBox="0 0 32 32">
            <path d="M20.679 13.611l-2.645-2.677c-0.427-0.434-0.691-1.031-0.691-1.689s0.264-1.255 0.692-1.689l-0 0c0.425-0.432 1.015-0.699 1.669-0.699s1.244 0.268 1.668 0.699l0 0 8.343 8.443-8.343 8.443c-0.425 0.432-1.015 0.699-1.669 0.699s-1.244-0.267-1.668-0.699l-0-0c-0.427-0.434-0.691-1.031-0.691-1.689s0.264-1.255 0.692-1.689l-0 0 2.645-2.677h-16.034c-1.303 0-2.359-1.070-2.359-2.389s1.056-2.389 2.359-2.389h16.034z"></path>
        </symbol>
        <symbol id="icon-arrow_right" viewBox="0 0 32 32">
            <path d="M20.232 14.672l-4.327-4.327c-0.232-0.24-0.374-0.566-0.374-0.926 0-0.736 0.597-1.333 1.333-1.333 0.36 0 0.687 0.143 0.927 0.375l7.542 7.542-7.543 7.543c-0.243 0.251-0.583 0.407-0.959 0.407-0.736 0-1.333-0.597-1.333-1.333 0-0.376 0.156-0.716 0.407-0.959l4.32-4.322h-12.225c-0.736 0-1.333-0.597-1.333-1.333s0.597-1.333 1.333-1.333v0h12.232z"></path>
        </symbol>
        <symbol id="icon-person" viewBox="0 0 32 32">
            <path d="M16 16a5.333 5.333 0 100-10.666A5.333 5.333 0 1016 16zm0 2.667c-3.561 0-10.667 1.787-10.667 5.333v1.333c0 .732.599 1.333 1.333 1.333h18.667c.732 0 1.333-.601 1.333-1.333V24c0-3.547-7.108-5.333-10.667-5.333z"/>
        </symbol>
        <symbol id="icon-phone-black" viewBox="0 0 32 32">
            <path d="M24.882 19.774l-3.268-.373a2.552 2.552 0 00-2.11.732l-2.368 2.368c-3.669-1.894-6.585-4.81-8.427-8.372l-.051-.108 2.382-2.377a2.552 2.552 0 00.731-2.122l.001.012-.373-3.243a2.578 2.578 0 00-2.557-2.276H6.613c-1.454 0-2.663 1.209-2.574 2.661.683 10.987 9.47 19.762 20.444 20.444 1.452.089 2.663-1.12 2.663-2.574V22.32v-.012a2.549 2.549 0 00-2.253-2.532l-.012-.001z"/>
        </symbol>
        <symbol id="icon-email-black" viewBox="0 0 32 32">
            <path d="M26.667 5.333H5.334A2.662 2.662 0 002.682 8l-.014 16c0 1.467 1.2 2.667 2.667 2.667h21.333c1.467 0 2.667-1.2 2.667-2.667V8c0-1.467-1.2-2.667-2.667-2.667zm-.534 5.668l-9.426 5.892a1.343 1.343 0 01-1.421-.004l.006.003L5.866 11A1.133 1.133 0 117.07 9.083l-.004-.003 8.933 5.586 8.933-5.588a1.132 1.132 0 111.204 1.916l-.005.003z"/>
        </symbol>
        <symbol id="icon-send" viewBox="0 0 32 32">
            <path fill="var(--color1, #fff)" d="M32 0L0 18l10.227 3.787L26 7 14.003 23.187l.009.003-.012-.003V32l5.735-6.691L27.002 28l4.999-28z"/>
        </symbol>
        <symbol id="icon-check" viewBox="0 0 34 32">
            <path fill="var(--color1, #fff)" stroke="var(--color1, #fff)" stroke-width=".427" d="M8.442 16.538l-.147-.141-.147.139-2.057 1.95.162.156 7.605 7.253.147-.141 16.171-15.426-.162-.154-2.029-1.935-.147.141-13.98 13.325-5.417-5.167z"/>
        </symbol>
        <symbol id="icon-uncheck" viewBox="0 0 34 32">
            <path d="M30.34 3.556v24.887H3.793V3.556H30.34zm0-3.556H3.793C1.707 0 0 1.6 0 3.556v24.887c0 1.956 1.707 3.556 3.793 3.556H30.34c2.086 0 3.793-1.6 3.793-3.556V3.556C34.133 1.6 32.426 0 30.34 0z"/>
        </symbol>
        <symbol id="icon-github" viewBox="0 0 32 32">
            <path d="M16 0c-8.789 0-16 7.211-16 16 0 7.499 5.262 14.312 12.25 16v-5.293c-0.276 0.070-0.593 0.109-0.919 0.109-0.398 0-0.781-0.059-1.143-0.169l0.028 0.007c-0.946-0.278-1.714-0.909-2.285-1.869-0.363-0.613-1.008-1.28-1.68-1.23l-0.165-1.867c1.454-0.125 2.71 0.886 3.456 2.139 0.333 0.558 0.715 0.885 1.205 1.029 0.472 0.141 0.981 0.074 1.573-0.136 0.149-1.186 0.693-1.629 1.104-2.256-4.168-0.621-5.829-2.832-6.488-4.576-0.874-2.318-0.405-5.213 1.139-7.043 0.030-0.035 0.085-0.128 0.064-0.192-0.709-2.141 0.154-3.91 0.186-4.098 0.818 0.24 0.95-0.243 3.552 1.336l0.448 0.27c0.189 0.112 0.128 0.048 0.317 0.032 1.003-0.282 2.157-0.452 3.349-0.469l0.010-0c1.136 0.014 2.272 0.176 3.403 0.483l0.146 0.016c-0.013-0.003 0.040-0.010 0.128-0.062 3.248-1.968 3.131-1.325 4.003-1.608 0.032 0.189 0.882 1.987 0.182 4.099-0.096 0.291 2.816 2.957 1.202 7.235-0.659 1.744-2.32 3.957-6.486 4.578 0.534 0.816 1.176 1.248 1.173 2.928v6.606c6.986-1.688 12.25-8.501 12.25-16 0-8.789-7.211-16-16-16z"/>
        </symbol>
        <symbol id="icon-Vector-right3" viewBox="0 0 26 32">
            <path fill="none" style="stroke: var(--color1, #fff)" stroke-linejoin="round" stroke-linecap="round" stroke-miterlimit="4" stroke-width="6.4" d="M5.171 3.2l14.17 12.8-14.17 12.8"></path>
        </symbol>
        <symbol id="icon-cross" viewBox="0 0 32 32"><path d="M32 3.223l-3.223-3.223-12.777 12.777-12.777-12.777-3.223 3.223 12.777 12.777-12.777 12.777 3.223 3.223 12.777-12.777 12.777 12.777 3.223-3.223-12.777-12.777 12.777-12.777z"></path></symbol>
        <symbol id="icon-check" viewBox="0 0 34 32"><path fill="var(--color1, #fff)" stroke="var(--color1, #fff)" stroke-width=".427" d="M8.442 16.538l-.147-.141-.147.139-2.057 1.95.162.156 7.605 7.253.147-.141 16.171-15.426-.162-.154-2.029-1.935-.147.141-13.98 13.325-5.417-5.167z"/></symbol>
        <symbol id="icon-uncheck" viewBox="0 0 34 32"><path d="M30.34 3.556v24.887H3.793V3.556H30.34zm0-3.556H3.793C1.707 0 0 1.6 0 3.556v24.887c0 1.956 1.707 3.556 3.793 3.556H30.34c2.086 0 3.793-1.6 3.793-3.556V3.556C34.133 1.6 32.426 0 30.34 0z"/></symbol>
    </defs>
</svg>