<svg aria-hidden="true" style="position:absolute;width:0;height:0" xmlns="http://www.w3.org/2000/svg" overflow="hidden"><defs><symbol id="icon-arrow-btn-right-red" viewBox="0 0 19 32"><path fill="none" stroke="var(--color1, #d41443)" stroke-linejoin="round" stroke-linecap="round" stroke-width="6.4" d="M3.2 3.2L16 16 3.2 28.8"/></symbol><symbol id="icon-arrow-btn-right-white" viewBox="0 0 19 32"><path fill="none" stroke="var(--color1, #fff)" stroke-linejoin="round" stroke-linecap="round" stroke-width="6.4" d="M3.2 3.2L16 16 3.2 28.8"/></symbol><symbol id="icon-arrow-right" viewBox="0 0 28 32"><path d="M11.906 4.181l1.387-1.388a1.495 1.495 0 012.119 0l12.15 12.144a1.495 1.495 0 010 2.119l-12.15 12.15a1.495 1.495 0 01-2.119 0l-1.387-1.387a1.502 1.502 0 01.025-2.144l7.531-7.175H1.5C.669 18.5 0 17.831 0 17v-2c0-.831.669-1.5 1.5-1.5h17.962l-7.531-7.175a1.49 1.49 0 01-.025-2.144z"/></symbol><symbol id="icon-burger-btn-close" viewBox="0 0 16 16"><path d="M1.26 1l13.48 14M1 14.74L15 1.26" stroke="#fff"/></symbol><symbol id="icon-burger-btn-open" viewBox="0 0 46 32"><path fill="none" stroke="var(--color1, #d41443)" stroke-width="2.286" d="M0 2.286h45.714M0 16h45.714M0 29.714h45.714"/></symbol><symbol id="icon-icon-fb" viewBox="0 0 16 32"><path d="M14.143 15.972h-4.034v14.865H3.997V15.972H1.09v-5.224h2.907V7.367c0-2.418 1.142-6.203 6.166-6.203l4.527.019v5.071h-3.285c-.539 0-1.296.271-1.296 1.424v3.075h4.567l-.534 5.219z"/></symbol><symbol id="icon-icon-github" viewBox="0 0 32 32"><path d="M16 0C7.212 0 0 7.212 0 16c0 7.499 5.262 14.312 12.25 16v-5.293c-.692.152-1.33.156-2.034-.052-.946-.279-1.714-.909-2.284-1.869-.364-.613-1.008-1.278-1.68-1.23l-.165-1.868c1.453-.124 2.711.886 3.457 2.14.332.558.713.884 1.203 1.029.473.14.982.072 1.574-.137.149-1.186.692-1.63 1.102-2.255v-.001c-4.167-.622-5.828-2.832-6.488-4.578-.874-2.317-.405-5.212 1.14-7.041.03-.036.084-.129.063-.194-.708-2.139.155-3.909.187-4.097.817.242.95-.243 3.551 1.337l.449.27c.188.112.129.048.317.034A13.544 13.544 0 0116 7.723c1.136.015 2.273.178 3.404.484l.145.015c-.013-.002.04-.009.127-.062 3.248-1.968 3.132-1.324 4.003-1.608.032.188.883 1.987.182 4.099-.095.291 2.816 2.956 1.203 7.235-.659 1.746-2.32 3.957-6.487 4.578v.001c.534.814 1.176 1.247 1.173 2.927V32C26.738 30.312 32 23.499 32 16c0-8.788-7.212-16-16-16z"/></symbol><symbol id="icon-slider-home" viewBox="0 0 35 32"><path d="M32.64 15.401a1.541 1.541 0 00-.129-2.225L17.739.426c-.671-.578-1.745-.566-2.402.027L.515 13.856a1.532 1.532 0 00-.071 2.222l.372.382c.617.633 1.613.708 2.224.168l1.108-.979v14.326c0 .879.722 1.591 1.612 1.591h5.778c.89 0 1.612-.712 1.612-1.591V19.952h7.37v10.023c-.013.878.624 1.59 1.515 1.59h6.123c.89 0 1.613-.711 1.613-1.59V15.851l.683.592c.377.328 1.168.065 1.767-.586l.42-.455z"/></symbol><symbol id="icon-telegram" viewBox="0 0 44 32"><path d="M17.343 21.048l-.675 8.86c.966 0 1.384-.387 1.885-.852l4.527-4.038 9.381 6.412c1.72.895 2.933.424 3.397-1.477l6.157-26.929.002-.002c.546-2.374-.92-3.302-2.596-2.72L3.227 13.235c-2.47.895-2.433 2.18-.42 2.762l9.253 2.686L33.554 6.131c1.011-.625 1.931-.279 1.175.346l-17.386 14.57z"/></symbol><symbol id="icon-quote" viewBox="0 0 43 32"><path d="M32.014 0c1.929 0 3.75.52 5.464 1.561s3.107 2.537 4.179 4.488C42.686 8 43.2 10.298 43.2 12.943s-.643 5.225-1.929 7.74c-.429.911-1.2 2.081-2.314 3.512a63.368 63.368 0 01-3.214 3.707L31.693 32 28.8 27.187a22.03 22.03 0 005.336-4.683c1.543-1.821 2.314-3.491 2.314-5.008 0-.78-.171-1.409-.514-1.886a8.359 8.359 0 01-5.014 1.626c-1.329 0-2.593-.412-3.793-1.236a8.555 8.555 0 01-2.957-3.122c-.771-1.258-1.157-2.558-1.157-3.902 0-1.518.45-2.97 1.35-4.358a10.222 10.222 0 013.407-3.382C29.143.412 30.558 0 32.015 0zM8.936 0c1.929 0 3.75.52 5.464 1.561s3.107 2.537 4.179 4.488c1.029 1.951 1.543 4.249 1.543 6.894 0 1.864-.236 3.534-.707 5.008-.471 1.518-1.286 3.1-2.443 4.748-1.114 1.561-2.164 2.862-3.15 3.902-.986 1.084-2.7 2.884-5.143 5.398l-2.893-4.813a22.03 22.03 0 005.336-4.683c1.543-1.821 2.314-3.491 2.314-5.008 0-.78-.171-1.409-.514-1.886a8.359 8.359 0 01-5.014 1.626c-1.329 0-2.593-.412-3.793-1.236a8.555 8.555 0 01-2.957-3.122C.387 11.619.001 10.319.001 8.975c0-1.518.429-2.97 1.286-4.358S3.28 2.102 4.694 1.235C6.065.411 7.48-.001 8.937-.001z"/></symbol><symbol id="icon-slider-left" viewBox="0 0 32 32"><path d="M12.918 16.007L24.889 4.035c.33-.329.511-.769.511-1.237s-.181-.909-.511-1.238L23.84.512c-.329-.33-.769-.511-1.238-.511s-.908.182-1.238.511L7.11 14.765a1.73 1.73 0 00-.51 1.241c-.001.471.179.912.51 1.243l14.24 14.239c.329.33.769.511 1.238.511s.908-.182 1.238-.511l1.049-1.048a1.753 1.753 0 000-2.475L12.917 16.007z"/></symbol><symbol id="icon-slider-right" viewBox="0 0 32 32"><path d="M24.889 14.751L10.649.511C10.32.181 9.88 0 9.411 0s-.908.182-1.238.511L7.124 1.559a1.754 1.754 0 000 2.476l11.958 11.958L7.111 27.964c-.329.33-.511.769-.511 1.238s.182.908.511 1.238l1.049 1.048c.33.33.769.511 1.238.511s.908-.182 1.238-.511L24.89 17.235c.33-.331.511-.772.51-1.242a1.742 1.742 0 00-.51-1.243z"/></symbol></defs></svg>