<svg aria-hidden="true" style="position: absolute; width: 0; height: 0; overflow: hidden;" version="1.1" xmlns="http://www.w3.org/2000/svg" xmlns:xlink="http://www.w3.org/1999/xlink">
<defs>
<symbol id="icon-menu_40px" viewBox="0 0 32 32">
<path d="M6.4 11.733v-2.133h19.2v2.133h-19.2zM6.4 17.067h19.2v-2.133h-19.2v2.133zM6.4 22.4h19.2v-2.133h-19.2v2.133z"></path>
</symbol>
<symbol id="icon-Group-1" viewBox="0 0 31 32">
<path fill="#ff6b09" style="fill: var(--color1, #ff6b09)" d="M7.046 26.006c2.185 0 14.824 0 17.006 0 0.084-1.939-0.055-5.157-1.247-6.689l-0.043-0.055-2.606-1.308c0.057-0.191 0.084-0.366 0.096-0.494 0.013-0.154-0.008-0.299-0.063-0.43-0.43-1.029-1.339-1.57-1.84-1.8 0.152-0.307 0.251-0.637 0.298-0.974 0.283-0.080 0.511-0.304 0.586-0.604l0.304-1.236c0.054-0.218 0.020-0.444-0.096-0.636-0.050-0.083-0.114-0.153-0.187-0.212 0.858-1.948-0.579-3.784-0.657-3.881-1.555-1.682-3.52-1.367-3.624-1.349-2.836 0.594-3.93 2.767-3.312 5.316-0.183 0.203-0.26 0.485-0.192 0.762l0.306 1.237c0.074 0.297 0.3 0.521 0.581 0.602 0.087 0.617 0.348 1.175 0.732 1.625v0.979c-4.069 2.084-1.491 0.754-4.752 2.404-0.006 0.031-1.53 1.65-1.304 6.45l0.014 0.293zM23.461 25.39h-2.799v-1.176l1.851-4.238c0.927 1.539 0.962 4.478 0.948 5.413zM19.641 17.407c-0.108 1.241-0.788 0.866-1.208 1.822-0.33-0.363-0.43-0.799-0.341-1.265 0.16-0.856-0.362-1.11-0.233-2.010l0.020-0.021v-0.003c0.011-0.012 0.114-0.135 0.144-0.174 1.107 0.483 1.64 1.381 1.619 1.651zM13.701 16.432c0.514 0.357 1.135 0.567 1.802 0.567 0.629 0 1.226-0.183 1.737-0.52 0.071 0.707 0.347 0.849 0.249 1.369-0.018 0.097-0.028 0.192-0.034 0.285l-1.906 2.148-2.437-2.747 0.588-0.307v-0.796zM12.934 13.803v-1.191c0-0.439 0-2.179 0-2.093 0.297-0.549 0.701-0.947 1.204-1.185 1.346 0.762 2.896 1.898 3.935 3.042-0.001 1.457 0.004 1.461-0.006 1.58l-0.001 0.008c-0.081 1.323-1.169 2.419-2.564 2.419-1.356 0-2.482-1.065-2.563-2.433-0.004-0.049-0.005-0.098-0.005-0.148zM12.555 17.833l2.994 3.376 2.010-2.266c0.046 0.132 0.11 0.257 0.184 0.378l-2.194 2.744-3.272-4.093 0.278-0.14zM18.686 13.307v-0.951c0.027-0.031 0.256-0.293 0.229-0.262 0.013 0.482 0.065-0.087-0.229 1.213zM15.087 6.942c0.122 0.008 1.756-0.249 3.047 1.146 0.051 0.064 1.102 1.418 0.68 2.9-0.145-0.659-0.397-1.504-0.795-1.907l-0.435 0.434c0.393 0.398 0.651 1.611 0.75 2.24-1.803-1.887-4.13-3.082-4.162-3.102-0.117 0.073-1.101 0.26-1.816 1.649l-0.034 0.066v1.021c-0.031 0-0.121 0.001-0.090 0.001-0.454-2.193 0.416-3.936 2.855-4.447zM12.167 12.023l0.155 0.627v0.659l-0.257-1.041c-0.038-0.155 0.077-0.214 0.102-0.245zM11.716 18.254l3.833 4.794 2.594-3.244c0.282 0.253 0.418 0.288 1.016 0.596l-0.202-0.684c-0.051-0.174 0.151-0.452 0.274-0.58 0.273-0.148 0.501-0.36 0.671-0.621l2.116 1.063-1.969 4.508v1.305h-9v-1.305l-1.97-4.507 2.637-1.324zM8.584 19.978l1.851 4.237v1.176h-2.799c-0.014-0.935 0.021-3.872 0.947-5.412z"></path>
<path fill="none" stroke="#ff6b09" style="stroke: var(--color1, #ff6b09)" stroke-linejoin="miter" stroke-linecap="butt" stroke-miterlimit="4" stroke-width="1.0159" d="M30.387 4.945v-4.183h-29.879v30.476h29.879v-4.183"></path>
</symbol>
<symbol id="icon-Group-1-1" viewBox="0 0 31 32">
<path fill="#ff6b09" style="fill: var(--color1, #ff6b09)" d="M24.717 5.25h-10.247c-0.667 0-1.21 0.543-1.21 1.21v4.242l-7.613 3.195c-0.086 0.036-0.145 0.117-0.151 0.211s0.040 0.182 0.12 0.23l0.971 0.581v6.192c-0.497 0.113-0.869 0.558-0.869 1.089v0.597c0 0.137 0.111 0.248 0.248 0.248h1.739c0.137 0 0.248-0.111 0.248-0.248v-0.597c0-0.531-0.373-0.975-0.87-1.089v-5.896l0.768 0.459c-0.024 0.177-0.003-0.309-0.011 2.883 0 1.049 2.687 1.611 5.421 1.643v4.832c0 0.25 0.076 0.482 0.207 0.674 0.217 0.322 0.585 0.534 1.002 0.534h10.247c0.666 0 1.209-0.542 1.209-1.209 0 0.033-0.001-1.024 0-18.573 0-0.658-0.544-1.21-1.208-1.21zM7.456 22.201v0.349h-1.243v-0.349c0-0.344 0.278-0.623 0.62-0.623 0.343 0 0.623 0.28 0.623 0.623zM24.717 25.745h-10.247c-0.246 0-0.463-0.125-0.592-0.313-0.077-0.114-0.122-0.251-0.122-0.398v-1.675h11.672v1.676c0 0.388-0.324 0.711-0.711 0.711zM25.428 22.862h-11.672v-2.659c1.335-0.015 5.424-0.309 5.424-1.645-0.001-2.005 0.004-2.818-0.006-2.887l2.226-1.334c0.080-0.048 0.126-0.137 0.12-0.23s-0.065-0.175-0.151-0.211l-7.613-3.195v-2.071h11.672v14.232zM13.508 16.912c-1.375 0-4.023 0.178-5.173 0.929 0.007-2.297-0.080-2.148 0.203-2.343 0.715-0.526 2.758-0.894 4.97-0.894 0.965 0 5.176 0.265 5.176 1.157v2.080c-1.161-0.758-3.795-0.929-5.176-0.929zM13.756 6.46c0-0.393 0.32-0.713 0.713-0.713h10.247c0.393 0 0.712 0.324 0.712 0.713v1.675h-11.672v-1.675zM13.508 11.135l7.217 3.029-1.788 1.070c-0.951-0.943-4.096-1.126-5.429-1.126-1.335 0-4.48 0.183-5.429 1.126l-1.789-1.070 7.218-3.029zM8.335 18.558c0-0.401 1.777-1.15 5.173-1.15 3.399 0 5.176 0.749 5.176 1.15s-1.778 1.15-5.176 1.15c-3.396 0-5.173-0.749-5.173-1.15z"></path>
<path fill="#ff6b09" style="fill: var(--color1, #ff6b09)" d="M19.593 23.732c-0.452 0-0.82 0.368-0.82 0.82s0.368 0.82 0.82 0.82c0.452 0 0.82-0.368 0.82-0.82s-0.368-0.82-0.82-0.82zM19.593 24.877c-0.179 0-0.324-0.146-0.324-0.324s0.145-0.324 0.324-0.324c0.179 0 0.324 0.145 0.324 0.324s-0.145 0.324-0.324 0.324z"></path>
<path fill="#ff6b09" style="fill: var(--color1, #ff6b09)" d="M20.538 6.693h-1.891v0.496h1.891v-0.496z"></path>
<path fill="none" stroke="#ff6b09" style="stroke: var(--color1, #ff6b09)" stroke-linejoin="miter" stroke-linecap="butt" stroke-miterlimit="4" stroke-width="1.0159" d="M30.387 4.945v-4.183h-29.879v30.476h29.879v-4.183"></path>
</symbol>
<symbol id="icon-Group-1-2" viewBox="0 0 31 32">
<path fill="#ff6b09" style="fill: var(--color1, #ff6b09)" d="M6.947 14.566c0 0.227-0.344 0.227-0.344 0 0-4.818 3.907-8.725 8.725-8.725 4.82 0 8.725 3.907 8.725 8.725 0 0.227-0.342 0.227-0.342 0 0-3.256-5.351-3.258-5.351 0 0 0.227-0.352 0.227-0.352 0 0-3.248-5.36-3.248-5.36 0 0 0.227-0.352 0.227-0.352 0 0-3.242-5.349-3.265-5.349 0zM12.327 13.302c0.093-1.874 0.387-3.555 0.816-4.838 0.342-1.020 0.774-1.794 1.265-2.229-3.679 0.402-6.657 3.191-7.322 6.808 1.267-1.827 4.192-1.681 5.242 0.26zM17.981 13.217c-0.095-1.802-0.381-3.415-0.793-4.645-1.063-3.182-2.657-3.182-3.72 0-0.412 1.23-0.696 2.842-0.793 4.645 1.143-1.942 4.163-1.942 5.306 0zM23.571 13.042c-0.663-3.617-3.642-6.406-7.322-6.808 0.492 0.435 0.923 1.209 1.265 2.229 0.428 1.283 0.723 2.964 0.816 4.838 1.057-1.951 3.99-2.066 5.242-0.26z"></path>
<path fill="#ff6b09" style="fill: var(--color1, #ff6b09)" d="M14.183 18.559v-1.772c-0.319 0.212-0.571 0.54-0.571 0.939 0 0.389 0.255 0.647 0.571 0.832zM14.527 19.109c-0.612-0.28-1.256-0.608-1.256-1.382 0-0.799 0.608-1.199 1.256-1.498v2.88z"></path>
<path fill="#ff6b09" style="fill: var(--color1, #ff6b09)" d="M16.474 21.232v1.792c0.323-0.214 0.577-0.544 0.577-0.943 0-0.393-0.26-0.659-0.577-0.849zM16.132 20.68c0.614 0.284 1.263 0.622 1.263 1.401 0 0.801-0.612 1.201-1.263 1.497v-2.898z"></path>
<path fill="#ff6b09" style="fill: var(--color1, #ff6b09)" d="M16.474 14.77c1.409 0.325 2.857 1.38 2.857 2.956 0 1.349-2.28 1.3-2.28 0 0-0.402-0.253-0.731-0.577-0.943v2.521c1.304 0.426 2.861 1.191 2.861 2.777 0 1.578-1.448 2.63-2.861 2.954-0.006 1.502-2.286 1.5-2.29-0.002-0.803-0.185-1.502-0.56-2.006-1.057-0.529-0.523-0.842-1.18-0.842-1.895 0-1.329 2.278-1.329 2.278 0 0 0.398 0.251 0.725 0.571 0.937v-2.519c-1.294-0.418-2.859-1.205-2.859-2.777 0-1.578 1.448-2.63 2.859-2.954 0.006-1.502 2.286-1.5 2.29 0.002zM14.527 14.774v0.274c-1.341 0.266-2.861 1.125-2.861 2.674 0 1.489 1.668 2.157 2.861 2.525v3.329c-0.645-0.295-1.256-0.692-1.256-1.495 0-0.878-1.594-0.878-1.594 0 0 0.62 0.276 1.193 0.742 1.65 0.591 0.585 1.308 0.863 2.109 1.022v0.276c0 1.057 1.605 1.057 1.605 0v-0.274c1.345-0.268 2.859-1.127 2.859-2.674 0-1.504-1.664-2.15-2.859-2.527v-3.327c0.647 0.295 1.263 0.692 1.263 1.5 0 0.855 1.592 0.89 1.592 0 0-1.547-1.512-2.408-2.855-2.676v-0.276c0-1.057-1.605-1.057-1.605 0z"></path>
<path fill="none" stroke="#ff6b09" style="stroke: var(--color1, #ff6b09)" stroke-linejoin="miter" stroke-linecap="butt" stroke-miterlimit="4" stroke-width="1.0159" d="M30.387 4.945v-4.183h-29.879v30.476h29.879v-4.183"></path>
</symbol>
<symbol id="icon-Group-56" viewBox="0 0 32 32">
<path fill="none" stroke="#fff" style="stroke: var(--color2, #fff)" stroke-linejoin="miter" stroke-linecap="butt" stroke-miterlimit="4" stroke-width="3.7647" d="M1.882 29.168l27.286-27.286"></path>
<path fill="none" stroke="#fff" style="stroke: var(--color2, #fff)" stroke-linejoin="miter" stroke-linecap="butt" stroke-miterlimit="4" stroke-width="3.7647" d="M29.168 29.168l-27.286-27.286"></path>
</symbol>
<symbol id="icon-logo" viewBox="0 0 88 32">
<path fill="#111518" style="fill: var(--color3, #111518)" d="M12.345 4.848v12.975h-3.67v-5.060h-5.005v5.060h-3.67v-12.975h3.67v4.875h5.005v-4.875h3.67z"></path>
<path fill="#111518" style="fill: var(--color3, #111518)" d="M25.777 12.818c0 0.025-0.019 0.315-0.056 0.871h-7.303c0.148 0.519 0.433 0.921 0.853 1.205 0.433 0.272 0.97 0.408 1.613 0.408 0.482 0 0.896-0.068 1.242-0.204 0.358-0.136 0.717-0.358 1.075-0.667l1.854 1.928c-0.976 1.087-2.403 1.631-4.282 1.631-1.174 0-2.206-0.222-3.096-0.667s-1.582-1.063-2.076-1.854c-0.482-0.791-0.723-1.687-0.723-2.688 0-0.989 0.235-1.872 0.704-2.651 0.482-0.791 1.143-1.409 1.983-1.854s1.786-0.667 2.836-0.667c1.001 0 1.909 0.21 2.725 0.63 0.816 0.408 1.458 1.007 1.928 1.798 0.482 0.778 0.723 1.705 0.723 2.78zM20.42 10.112c-0.544 0-1.001 0.154-1.372 0.463-0.358 0.309-0.587 0.729-0.686 1.26h4.115c-0.099-0.531-0.334-0.951-0.704-1.26-0.358-0.309-0.809-0.463-1.353-0.463z"></path>
<path fill="#111518" style="fill: var(--color3, #111518)" d="M28.142 4.069h3.522v13.753h-3.522v-13.753z"></path>
<path fill="#111518" style="fill: var(--color3, #111518)" d="M34.694 4.069h3.522v13.753h-3.522v-13.753z"></path>
<path fill="#111518" style="fill: var(--color3, #111518)" d="M3.328 29.8h-1.854l-0.354 0.855h-0.947l1.779-3.992h0.913l1.785 3.992h-0.97l-0.354-0.855zM3.037 29.098l-0.633-1.528-0.633 1.528h1.266z"></path>
<path fill="#111518" style="fill: var(--color3, #111518)" d="M10.358 29.902v1.58h-0.855v-0.827h-2.817v0.827h-0.856l0.006-1.58h0.16c0.24-0.008 0.409-0.183 0.508-0.525s0.16-0.831 0.183-1.466l0.046-1.249h3.068v3.239h0.559zM7.501 27.997c-0.019 0.475-0.059 0.874-0.12 1.198-0.061 0.319-0.154 0.555-0.279 0.707h1.785v-2.487h-1.369l-0.017 0.582z"></path>
<path fill="#111518" style="fill: var(--color3, #111518)" d="M13.895 30.724c-0.407 0-0.776-0.087-1.106-0.262-0.327-0.179-0.585-0.424-0.776-0.736-0.186-0.316-0.28-0.671-0.28-1.066s0.093-0.749 0.28-1.061c0.19-0.316 0.449-0.561 0.776-0.736 0.331-0.179 0.702-0.268 1.112-0.268 0.346 0 0.658 0.061 0.935 0.183 0.281 0.122 0.517 0.297 0.707 0.525l-0.593 0.548c-0.27-0.312-0.604-0.468-1.004-0.468-0.247 0-0.468 0.055-0.662 0.165-0.194 0.106-0.346 0.257-0.456 0.451-0.106 0.194-0.16 0.414-0.16 0.662s0.053 0.468 0.16 0.662c0.11 0.194 0.262 0.346 0.456 0.456 0.194 0.106 0.414 0.16 0.662 0.16 0.399 0 0.734-0.158 1.004-0.473l0.593 0.548c-0.19 0.232-0.426 0.409-0.707 0.53s-0.595 0.183-0.941 0.183z"></path>
<path fill="#111518" style="fill: var(--color3, #111518)" d="M18.717 29.047h-0.639v1.608h-0.918v-3.992h0.918v1.614h0.662l1.049-1.614h0.975l-1.306 1.928 1.346 2.065h-1.049l-1.038-1.608z"></path>
<path fill="#111518" style="fill: var(--color3, #111518)" d="M22.264 26.663h0.918v2.601l1.905-2.601h0.867v3.992h-0.913v-2.595l-1.905 2.595h-0.873v-3.992z"></path>
<path fill="#111518" style="fill: var(--color3, #111518)" d="M27.975 26.663h0.918v2.601l1.905-2.601h0.867v3.992h-0.913v-2.595l-1.905 2.595h-0.873v-3.992zM29.817 26.406c-0.73 0-1.099-0.291-1.106-0.873h0.633c0.008 0.278 0.165 0.416 0.473 0.416 0.152 0 0.268-0.034 0.348-0.103 0.080-0.072 0.122-0.177 0.126-0.314h0.633c-0.004 0.285-0.097 0.502-0.279 0.65s-0.458 0.222-0.827 0.222z"></path>
<path fill="#111518" style="fill: var(--color3, #111518)" d="M39.031 29.8h-1.854l-0.354 0.855h-0.947l1.779-3.992h0.912l1.785 3.992h-0.969l-0.354-0.855zM38.74 29.098l-0.633-1.528-0.633 1.528h1.266z"></path>
<path fill="#111518" style="fill: var(--color3, #111518)" d="M45.571 26.663v3.992h-0.924v-1.637h-1.814v1.637h-0.924v-3.992h0.924v1.574h1.814v-1.574h0.924z"></path>
<path fill="#111518" style="fill: var(--color3, #111518)" d="M50.41 27.416h-1.899l0.006 3.239h-0.918v-3.992h2.817l-0.006 0.753z"></path>
<path fill="#111518" style="fill: var(--color3, #111518)" d="M55.069 26.663v3.992h-0.913v-3.239h-1.369l-0.028 0.833c-0.019 0.567-0.065 1.027-0.137 1.38-0.072 0.35-0.194 0.62-0.365 0.81-0.167 0.186-0.403 0.279-0.707 0.279-0.125 0-0.278-0.021-0.456-0.063l0.057-0.781c0.049 0.015 0.105 0.023 0.165 0.023 0.221 0 0.374-0.129 0.462-0.388 0.087-0.262 0.143-0.671 0.165-1.226l0.057-1.62h3.068z"></path>
<path fill="#111518" style="fill: var(--color3, #111518)" d="M57.092 26.663h0.918v2.601l1.905-2.601h0.867v3.992h-0.913v-2.595l-1.905 2.595h-0.873v-3.992z"></path>
<path fill="#111518" style="fill: var(--color3, #111518)" d="M62.803 26.663h0.918v2.601l1.905-2.601h0.867v3.992h-0.913v-2.595l-1.905 2.595h-0.873v-3.992zM64.645 26.406c-0.73 0-1.099-0.291-1.107-0.873h0.633c0.007 0.278 0.165 0.416 0.473 0.416 0.152 0 0.268-0.034 0.348-0.103 0.080-0.072 0.122-0.177 0.125-0.314h0.633c-0.004 0.285-0.097 0.502-0.279 0.65s-0.458 0.222-0.827 0.222z"></path>
<path fill="#111518" style="fill: var(--color3, #111518)" d="M70.401 30.724c-0.407 0-0.776-0.087-1.106-0.262-0.327-0.179-0.586-0.424-0.776-0.736-0.186-0.316-0.279-0.671-0.279-1.066s0.093-0.749 0.279-1.061c0.19-0.316 0.449-0.561 0.776-0.736 0.331-0.179 0.701-0.268 1.112-0.268 0.346 0 0.658 0.061 0.935 0.183 0.281 0.122 0.517 0.297 0.707 0.525l-0.593 0.548c-0.27-0.312-0.605-0.468-1.004-0.468-0.247 0-0.468 0.055-0.662 0.165-0.194 0.106-0.346 0.257-0.456 0.451-0.106 0.194-0.16 0.414-0.16 0.662s0.053 0.468 0.16 0.662c0.11 0.194 0.262 0.346 0.456 0.456 0.194 0.106 0.414 0.16 0.662 0.16 0.399 0 0.734-0.158 1.004-0.473l0.593 0.548c-0.19 0.232-0.426 0.409-0.707 0.53s-0.595 0.183-0.941 0.183z"></path>
<path fill="#111518" style="fill: var(--color3, #111518)" d="M75.224 29.047h-0.639v1.608h-0.918v-3.992h0.918v1.614h0.662l1.049-1.614h0.975l-1.306 1.928 1.346 2.065h-1.049l-1.038-1.608z"></path>
<path fill="#111518" style="fill: var(--color3, #111518)" d="M78.771 26.663h0.918v2.601l1.905-2.601h0.867v3.992h-0.913v-2.595l-1.905 2.595h-0.873v-3.992z"></path>
<path fill="#111518" style="fill: var(--color3, #111518)" d="M84.481 26.663h0.918v2.601l1.905-2.601h0.867v3.992h-0.913v-2.595l-1.905 2.595h-0.873v-3.992zM86.324 26.406c-0.73 0-1.099-0.291-1.106-0.873h0.633c0.008 0.278 0.165 0.416 0.473 0.416 0.152 0 0.268-0.034 0.348-0.103 0.080-0.072 0.122-0.177 0.125-0.314h0.633c-0.004 0.285-0.097 0.502-0.279 0.65s-0.458 0.222-0.827 0.222z"></path>
<path fill="#111518" style="fill: var(--color3, #111518)" d="M73.153 14.987v2.836h-10.417v-12.975h10.176v2.836h-6.543v2.187h5.765v2.743h-5.765v2.373h6.784z"></path>
<path fill="#111518" style="fill: var(--color3, #111518)" d="M88.276 4.848v12.975h-3.021l-5.728-6.914v6.914h-3.596v-12.975h3.021l5.728 6.914v-6.914h3.596z"></path>
<path fill="#ff6b09" style="fill: var(--color1, #ff6b09)" d="M57.546 11.090c-0.189-0.424-0.451-0.842-0.833-1.325-0.964-1.212-1.258-3.915-1.261-3.94-0.013-0.13-0.105-0.237-0.225-0.275-0.124-0.039-0.258-0.003-0.346 0.094-1.15 1.286-0.667 3.273-0.405 4.067 0.072 0.217 0.15 0.473 0.206 0.732 0.425 2.097-0.395 3.046-0.588 3.237-0.186 0.052-0.314 0.026-0.431-0.101-0.405-0.444-0.539-1.899-0.35-3.795 0.039-0.386 0.029-0.732-0.026-1.056-0.4-2.33-1.865-3.825-2.238-4.349-1.026-1.517-1.131-4.041-1.134-4.064-0.003-0.12-0.072-0.227-0.18-0.279-0.105-0.052-0.232-0.045-0.33 0.023-1.712 1.163-1.565 3.966-1.327 5.532 0.056 0.363 0.163 0.732 0.35 1.199 0.663 1.669-0.131 3.824-0.137 3.843s-0.013 0.036-0.016 0.055c-0.101 0.531-0.271 0.849-0.461 0.849-0.020 0-0.039-0.003-0.062-0.010-0.232-0.049-0.353-0.295-0.356-0.509-0.013-2.764-2.787-3.694-2.817-3.704-0.124-0.039-0.261-0.003-0.346 0.097-0.088 0.1-0.105 0.24-0.046 0.356 0.033 0.068 0.137 0.366 0.065 1.419-0.062 0.946-0.235 1.883-0.513 2.78-0.66 2.152-0.555 4.19-0.549 4.287 0.507 5.519 8.444 6.486 13.155 3.377 0.516-0.34 0.938-0.729 1.248-1.157 1.738-2.398 0.716-5.655-0.046-7.385zM45.472 16.362c0.010 0.178-0.127 0.33-0.307 0.34h-0.020c-0.173 0-0.317-0.133-0.327-0.305-0.029-0.473-0.023-0.969 0.013-1.507 0.013-0.178 0.17-0.311 0.35-0.301 0.18 0.013 0.317 0.168 0.304 0.347-0.036 0.512-0.042 0.979-0.013 1.426zM45.632 13.491c-0.020 0.165-0.16 0.285-0.323 0.285-0.013 0-0.026 0-0.042-0.003-0.176-0.023-0.304-0.181-0.284-0.36l0.157-1.251c0.023-0.175 0.183-0.301 0.366-0.282 0.18 0.023 0.307 0.185 0.284 0.363l-0.157 1.248z"></path>
<path fill="#ff6b09" style="fill: var(--color1, #ff6b09)" d="M55.335 4.433c-0.178-0.027-0.3-0.193-0.273-0.369 0.020-0.132 0.138-0.806 0.459-1.145 0.123-0.131 0.33-0.138 0.462-0.015s0.138 0.327 0.015 0.458c-0.136 0.144-0.251 0.554-0.29 0.8-0.028 0.175-0.192 0.298-0.373 0.271z"></path>
<path fill="#ff6b09" style="fill: var(--color1, #ff6b09)" d="M43.423 6.048c-0.063-0.241-0.218-0.638-0.367-0.768-0.136-0.118-0.149-0.323-0.030-0.457s0.325-0.149 0.461-0.030c0.352 0.306 0.536 0.966 0.569 1.094 0.045 0.173-0.061 0.35-0.235 0.394-0.178 0.045-0.353-0.063-0.398-0.233z"></path>
</symbol>
</defs>
</svg>
