<svg aria-hidden="true" style="position: absolute; width: 0; height: 0; overflow: hidden;" version="1.1" xmlns="http://www.w3.org/2000/svg" xmlns:xlink="http://www.w3.org/1999/xlink">
<defs>

<symbol id="advantages-icon1" viewBox="0 0 32 32">
<path d="M26.538 13.421c-0.198-0.239-0.492-0.378-0.802-0.378h-19.471c-0.31 0-0.604 0.139-0.802 0.378s-0.278 0.554-0.219 0.859l3.245 16.877c0.094 0.49 0.523 0.844 1.021 0.844h12.981c0.499 0 0.927-0.354 1.021-0.844l3.245-16.877c0.059-0.305-0.022-0.62-0.219-0.859zM24.344 15.123c-0.478 3.857-3.774 6.473-8.344 6.473s-7.866-2.616-8.344-6.473h16.688zM21.631 29.92h-11.263l-1.684-8.758c1.847 1.583 4.388 2.514 7.315 2.514s5.468-0.931 7.315-2.514l-1.684 8.758z"></path>
<path d="M7.53 7.891c0.521 0.521 1.213 0.807 1.949 0.807s1.428-0.287 1.949-0.807l0.287-0.287c0.488 0.267 0.999 0.488 1.529 0.659v1.111c0 1.52 1.236 2.756 2.756 2.756s2.756-1.236 2.756-2.756v-1.111c0.53-0.171 1.041-0.391 1.529-0.659l0.287 0.287c0.521 0.521 1.213 0.807 1.949 0.807s1.428-0.287 1.949-0.807c1.075-1.075 1.075-2.823 0-3.898l-0.347-0.347c0.503-0.732 0.811-1.256 0.811-2.606 0-0.574-0.466-1.040-1.040-1.040h-15.789c-0.574 0-1.040 0.466-1.040 1.040 0 1.35 0.308 1.874 0.811 2.606l-0.347 0.347c-1.075 1.075-1.075 2.823-0 3.898zM9.001 5.464l0.942-0.942c0.336-0.336 0.402-0.857 0.159-1.266-0.192-0.323-0.364-0.574-0.503-0.776-0.11-0.16-0.195-0.284-0.26-0.399h13.322c-0.065 0.116-0.15 0.239-0.26 0.399-0.139 0.201-0.311 0.452-0.503 0.776-0.243 0.409-0.177 0.93 0.159 1.266l0.942 0.942c0.128 0.128 0.198 0.297 0.198 0.478s-0.070 0.35-0.198 0.478c-0.128 0.128-0.297 0.198-0.478 0.198s-0.35-0.070-0.478-0.198l-0.866-0.866c-0.354-0.354-0.909-0.405-1.322-0.124-0.719 0.49-1.514 0.834-2.365 1.023-0.476 0.106-0.815 0.528-0.815 1.015v1.905c0 0.373-0.303 0.676-0.676 0.676s-0.676-0.303-0.676-0.676v-1.905c0-0.488-0.339-0.91-0.815-1.015-0.851-0.189-1.647-0.533-2.365-1.023-0.178-0.121-0.382-0.181-0.586-0.181-0.268 0-0.535 0.104-0.736 0.305l-0.866 0.866c-0.128 0.128-0.297 0.198-0.478 0.198s-0.35-0.070-0.478-0.198c-0.128-0.128-0.198-0.297-0.198-0.478s0.070-0.351 0.198-0.478z"></path>
</symbol>

<symbol id="advantages-icon2" viewBox="0 0 32 32">
<path d="M29.626 21.411c-1.292-0.458-2.382-0.344-3.242 0.018 0.145-0.877 0.47-1.832 1.17-2.481 0.431-0.4 0.456-1.074 0.056-1.505s-1.074-0.456-1.505-0.056c-1.229 1.14-1.706 2.748-1.874 4.081-0.32-0.144-0.673-0.253-1.058-0.311l1.89-9.83c0.060-0.312-0.022-0.634-0.225-0.879s-0.503-0.387-0.821-0.387h-0.204c0.094-0.5 0.141-0.997 0.137-1.47-0.016-1.994-0.903-3.495-2.374-4.017-1.41-0.5-2.59-0.35-3.507 0.066 0.145-0.976 0.494-2.063 1.282-2.794 0.431-0.4 0.456-1.074 0.056-1.505s-1.074-0.456-1.505-0.056c-1.32 1.225-1.815 2.965-1.982 4.386-0.735-0.348-1.644-0.527-2.708-0.33-1.094-1.571-2.613-2.296-4.089-1.942-1.451 0.349-2.358 1.115-2.901 1.962-0.41-0.899-0.712-2.001-0.452-3.036 0.143-0.57-0.203-1.149-0.773-1.292s-1.149 0.203-1.292 0.773c-0.439 1.746 0.095 3.476 0.729 4.758-1.016 0.137-2.117 0.65-3.049 1.866-0.578 0.755-0.773 1.698-0.596 2.7-0.173 0.065-0.329 0.173-0.449 0.318-0.202 0.245-0.285 0.567-0.225 0.879l3.809 19.809c0.096 0.501 0.535 0.864 1.046 0.864h15.237c0.511 0 0.949-0.362 1.046-0.864l0.038-0.195c0.287 0.198 0.596 0.363 0.927 0.487 1.266 0.471 2.447 0.278 3.044 0.118 0.316 0.085 0.795 0.179 1.364 0.179 0.506 0 1.084-0.075 1.68-0.297 2.36-0.879 3.614-3.839 3.596-6.178-0.015-1.904-0.866-3.339-2.276-3.839zM22.674 12.191c-0.49 4.705-4.452 7.91-9.971 7.91s-9.481-3.204-9.971-7.91h19.942zM16.032 7.515c0.184 0.349 0.536 0.567 0.93 0.567s0.746-0.218 0.93-0.567c0.029-0.048 0.29-0.466 0.769-0.777 0.629-0.408 1.35-0.46 2.203-0.157 0.851 0.302 0.952 1.518 0.956 2.027 0.004 0.463-0.064 0.962-0.191 1.453h-7.126c0.236-1.19 0.094-2.492-0.289-3.669 0.377 0.022 0.724 0.137 1.047 0.346 0.479 0.311 0.74 0.729 0.769 0.777zM3.078 8.724c0.55-0.719 1.182-1.068 1.932-1.069h0.002c0.57 0 1.016 0.208 1.066 0.232 0.341 0.19 0.749 0.172 1.079-0.037 0.331-0.211 0.51-0.591 0.481-0.983-0.006-0.077-0.115-1.893 1.983-2.397 0.876-0.211 1.625 0.754 1.906 1.178 0.807 1.22 1.221 3.108 0.777 4.413h-9.349c-0.141-0.443-0.179-0.943 0.122-1.336zM5.852 29.87l-2.111-10.978c0.138 0.133 0.281 0.263 0.427 0.389 2.208 1.901 5.239 2.948 8.535 2.948s6.328-1.047 8.535-2.948c0.052-0.044 0.102-0.090 0.152-0.135l-0.431 2.243c-0.020 0.007-0.041 0.013-0.061 0.021-1.41 0.5-2.261 1.935-2.276 3.839-0.009 1.164 0.297 2.483 0.898 3.622l-0.192 0.999h-13.477zM27.562 29.432c-0.943 0.351-1.881 0.017-1.916 0.005-0.25-0.097-0.518-0.099-0.768-0-0.009 0.004-0.96 0.352-1.917-0.005-1.338-0.498-2.223-2.556-2.21-4.165 0.004-0.466 0.095-1.578 0.858-1.849 0.349-0.124 0.661-0.175 0.939-0.175 1.107 0 1.657 0.812 1.782 1.024 0.184 0.35 0.535 0.569 0.931 0.569s0.747-0.219 0.931-0.569c0.156-0.265 0.977-1.468 2.721-0.849 0.763 0.271 0.854 1.383 0.858 1.849 0.013 1.609-0.872 3.667-2.21 4.166z"></path>
</symbol>

<symbol id="advantages-icon3" viewBox="0 0 32 32">
<path d="M28.010 2.507c-1.395-1.616-3.33-2.507-5.448-2.507-2.313 0-4.332 1.073-5.839 3.102-0.169 0.227-0.433 0.358-0.723 0.358s-0.555-0.13-0.723-0.358c-1.507-2.029-3.526-3.102-5.839-3.102-2.118 0-4.053 0.89-5.448 2.507-1.323 1.533-2.052 3.579-2.052 5.76 0 2.476 0.953 4.868 2.912 7.312 1.831 2.284 4.56 4.627 8.338 7.159v9.262h5.625v-9.262c3.778-2.532 6.507-4.875 8.338-7.159 1.96-2.444 2.912-4.836 2.912-7.312 0-2.181-0.729-4.227-2.052-5.76zM16.938 30.125h-1.875v-6.564c0.309 0.062 0.623 0.094 0.938 0.094s0.628-0.032 0.938-0.094v6.564zM17.6 21.294c-0.972 0.647-2.228 0.647-3.2 0-4.43-2.951-7.408-5.649-9.049-8.234 1.263-0.276 2.211-1.403 2.211-2.747 0-0.517 0.421-0.938 0.938-0.938s0.938 0.421 0.938 0.938v1.875c0 1.551 1.262 2.813 2.813 2.813s2.813-1.262 2.813-2.813v-1.875c0-0.517 0.421-0.938 0.937-0.938s0.938 0.421 0.938 0.938v1.875c0 1.551 1.262 2.813 2.813 2.813s2.813-1.262 2.813-2.813v-1.875c0-0.517 0.421-0.938 0.938-0.938s0.938 0.421 0.938 0.938c0 1.344 0.948 2.471 2.211 2.747-1.641 2.585-4.619 5.283-9.049 8.234zM27.25 11.25c-0.517 0-0.938-0.421-0.938-0.938 0-1.551-1.262-2.813-2.813-2.813s-2.813 1.262-2.813 2.813v1.875c0 0.517-0.421 0.938-0.938 0.938s-0.938-0.421-0.938-0.938v-1.875c0-1.551-1.262-2.813-2.813-2.813s-2.813 1.262-2.813 2.813v1.875c0 0.517-0.421 0.938-0.938 0.938s-0.938-0.421-0.938-0.938v-1.875c0-1.551-1.262-2.813-2.813-2.813s-2.813 1.262-2.813 2.813c0 0.517-0.421 0.938-0.938 0.938-0.128 0-0.252-0.025-0.367-0.074-0.382-0.979-0.571-1.945-0.571-2.909 0-3.644 2.418-6.392 5.625-6.392 1.72 0 3.178 0.789 4.334 2.345 0.526 0.709 1.339 1.115 2.229 1.115s1.703-0.406 2.229-1.115c1.155-1.556 2.613-2.345 4.334-2.345 3.207 0 5.625 2.748 5.625 6.392 0 0.963-0.188 1.93-0.571 2.909-0.115 0.049-0.239 0.074-0.367 0.074z"></path>
</symbol>

<symbol id="bracket2" viewBox="0 0 32 32">
<path d="M24.889 14.751l-14.24-14.24c-0.329-0.33-0.769-0.511-1.238-0.511s-0.908 0.182-1.238 0.511l-1.049 1.048c-0.682 0.683-0.682 1.794 0 2.476l11.958 11.958-11.971 11.971c-0.329 0.33-0.511 0.769-0.511 1.238s0.182 0.908 0.511 1.238l1.049 1.048c0.33 0.33 0.769 0.511 1.238 0.511s0.908-0.182 1.238-0.511l14.254-14.253c0.33-0.331 0.511-0.772 0.51-1.242 0.001-0.471-0.18-0.912-0.51-1.243z"></path>
</symbol>

<symbol id="fb" viewBox="0 0 32 32">
<path d="M22.143 15.971h-4.033v14.865h-6.112v-14.865h-2.906v-5.222h2.906v-3.382c0-2.417 1.142-6.204 6.167-6.204l4.527 0.019v5.072h-3.284c-0.538 0-1.297 0.272-1.297 1.425v3.073h4.567l-0.534 5.219z"></path>
</symbol>

<symbol id="github" viewBox="0 0 32 32">
<path d="M16 0c-8.789 0-16 7.211-16 16 0 7.499 5.262 14.312 12.25 16v-5.293c-0.276 0.070-0.593 0.109-0.919 0.109-0.398 0-0.781-0.059-1.143-0.169l0.028 0.007c-0.946-0.278-1.714-0.909-2.285-1.869-0.363-0.613-1.008-1.28-1.68-1.23l-0.165-1.867c1.454-0.125 2.71 0.886 3.456 2.139 0.333 0.558 0.715 0.885 1.205 1.029 0.472 0.141 0.981 0.074 1.573-0.136 0.149-1.186 0.693-1.629 1.104-2.256-4.168-0.621-5.829-2.832-6.488-4.576-0.874-2.318-0.405-5.213 1.139-7.043 0.030-0.035 0.085-0.128 0.064-0.192-0.709-2.141 0.154-3.91 0.186-4.098 0.818 0.24 0.95-0.243 3.552 1.336l0.448 0.27c0.189 0.112 0.128 0.048 0.317 0.032 1.003-0.282 2.157-0.452 3.349-0.469l0.010-0c1.136 0.014 2.272 0.176 3.403 0.483l0.146 0.016c-0.013-0.003 0.040-0.010 0.128-0.062 3.248-1.968 3.131-1.325 4.003-1.608 0.032 0.189 0.882 1.987 0.182 4.099-0.096 0.291 2.816 2.957 1.202 7.235-0.659 1.744-2.32 3.957-6.486 4.578 0.534 0.816 1.176 1.248 1.173 2.928v6.606c6.986-1.688 12.25-8.501 12.25-16 0-8.789-7.211-16-16-16z"></path>
</symbol>

<symbol id="home" viewBox="0 0 32 32">
<path d="M31.618 15.643c0.237-0.258 0.382-0.603 0.382-0.983 0-0.438-0.194-0.832-0.501-1.098l-0.002-0.002-13.637-11.931c-0.293-0.248-0.676-0.399-1.093-0.399-0.431 0-0.824 0.16-1.124 0.425l0.002-0.002-13.681 12.544c-0.292 0.266-0.474 0.647-0.474 1.071 0 0.391 0.155 0.746 0.408 1.007l-0-0 0.345 0.357c0.566 0.591 1.487 0.665 2.053 0.158l1.022-0.916v13.406c0 0.825 0.665 1.489 1.489 1.489h5.329c0.822 0 1.489-0.665 1.489-1.489v-9.378h6.806v9.378c-0.012 0.822 0.576 1.489 1.398 1.489h5.652c0.822 0 1.487-0.665 1.487-1.489v-13.218l0.633 0.556c0.347 0.305 1.078 0.059 1.63-0.549l0.389-0.426z"></path>
</symbol>

<symbol id="quotes" viewBox="0 0 32 32">
<path d="M23.714 4.148c1.428 0 2.777 0.385 4.047 1.156s2.302 1.879 3.095 3.324c0.762 1.445 1.143 3.148 1.143 5.107s-0.476 3.87-1.428 5.733c-0.318 0.674-0.889 1.541-1.715 2.601-0.857 1.060-1.65 1.975-2.38 2.746l-3 3.035-2.143-3.565c1.528-0.964 2.832-2.115 3.931-3.442l0.022-0.027c1.143-1.349 1.714-2.585 1.714-3.71 0-0.578-0.127-1.044-0.38-1.397-1.111 0.803-2.35 1.205-3.714 1.205-0.984 0-1.921-0.305-2.809-0.916-0.917-0.579-1.657-1.359-2.174-2.28l-0.016-0.032c-0.571-0.932-0.857-1.895-0.857-2.891 0-1.125 0.333-2.2 1-3.228 0.641-1.029 1.489-1.871 2.491-2.486l0.033-0.019c1.015-0.61 2.062-0.916 3.142-0.916zM6.619 4.148c1.428 0 2.777 0.385 4.047 1.156s2.302 1.879 3.095 3.324c0.762 1.445 1.143 3.148 1.143 5.107 0 1.381-0.175 2.617-0.524 3.71-0.35 1.124-0.952 2.296-1.81 3.517-0.825 1.156-1.603 2.12-2.333 2.891-0.73 0.803-2 2.136-3.81 3.999l-2.143-3.565c1.528-0.964 2.832-2.115 3.931-3.442l0.022-0.027c1.143-1.349 1.714-2.585 1.714-3.71 0-0.578-0.127-1.044-0.381-1.397-1.111 0.803-2.35 1.205-3.714 1.205-0.984 0-1.921-0.305-2.809-0.916-0.917-0.579-1.657-1.359-2.174-2.28l-0.016-0.032c-0.571-0.932-0.857-1.895-0.857-2.891 0-1.125 0.318-2.2 0.952-3.228 0.641-1.029 1.489-1.871 2.491-2.486l0.033-0.019c1.015-0.61 2.062-0.916 3.143-0.916z"></path>
</symbol>

<symbol id="telegram" viewBox="0 0 32 32">
<path d="M12.612 19.671l-0.49 6.444c0.703 0 1.007-0.282 1.372-0.62l3.292-2.938 6.822 4.665c1.251 0.65 2.134 0.307 2.471-1.075l4.479-19.587c0.399-1.727-0.669-2.401-1.887-1.978l-26.323 9.407c-1.796 0.652-1.77 1.585-0.305 2.012l6.729 1.952 15.632-9.129c0.736-0.455 1.405-0.204 0.855 0.252l-12.647 10.596z"></path>
</symbol>

<symbol id="right-arrow" viewBox="0 0 32 32">
<path d="M31.489 14.757l-11.556-11.557c-0.33-0.33-0.77-0.511-1.238-0.511s-0.909 0.181-1.239 0.511l-1.049 1.050c-0.33 0.329-0.511 0.769-0.511 1.238s0.182 0.924 0.511 1.253l6.742 6.757h-21.419c-0.966 0-1.729 0.756-1.729 1.722v1.484c0 0.966 0.763 1.798 1.729 1.798h21.495l-6.818 6.794c-0.33 0.33-0.511 0.758-0.511 1.227s0.182 0.903 0.511 1.232l1.049 1.046c0.33 0.33 0.769 0.51 1.239 0.51s0.908-0.182 1.238-0.512l11.556-11.556c0.331-0.331 0.513-0.773 0.511-1.242 0.001-0.471-0.181-0.913-0.511-1.244z"></path>
</symbol>

<symbol id="ice-cream" viewBox="0 0 32 32">
<path d="M16.814 8.962c0.622 1.258 1.89 1.988 3.207 1.988 0.531 0 1.070-0.119 1.577-0.37 1.765-0.873 2.491-3.019 1.618-4.784-0.262-0.53-0.642-0.976-1.108-1.313 0.569-0.815 1.307-1.511 2.168-2.034 0.368-0.224 0.486-0.703 0.262-1.072s-0.704-0.486-1.072-0.262c-1.142 0.693-2.106 1.638-2.821 2.748-0.749-0.136-1.519-0.029-2.214 0.315-0.855 0.423-1.494 1.153-1.8 2.057s-0.241 1.872 0.182 2.727zM18.11 6.735c0.172-0.509 0.532-0.92 1.013-1.158 0-0 0-0 0-0 0.237-0.117 0.49-0.186 0.746-0.204-0.036 0.092-0.071 0.184-0.104 0.277-0.145 0.406 0.067 0.852 0.473 0.997s0.852-0.067 0.997-0.473c0.036-0.101 0.074-0.2 0.114-0.299 0.192 0.17 0.35 0.377 0.467 0.613 0.491 0.994 0.083 2.202-0.911 2.694s-2.202 0.083-2.694-0.911c-0.238-0.481-0.274-1.027-0.102-1.535zM22.841 17.418c0.059 0.427-0.239 0.821-0.666 0.88-0.142 0.020-0.289 0.035-0.436 0.045-0.019 0.001-0.037 0.002-0.055 0.002-0.406 0-0.749-0.314-0.777-0.726-0.030-0.43 0.294-0.803 0.724-0.833 0.112-0.008 0.223-0.019 0.331-0.034 0.427-0.059 0.821 0.239 0.88 0.666zM25.328 9.967c0.056 0.274 0.088 0.565 0.096 0.863 0 0.007 0 0.014 0 0.020 0 1.7-0.907 2.999-2.554 3.657-0.76 0.303-1.665 0.456-2.635 0.457-0.773 0-1.586-0.097-2.4-0.293-1.887-0.453-3.553-1.363-4.692-2.561-1.744-1.835-2.099-4.163-0.999-6.558 0.18-0.392 0.643-0.563 1.035-0.383s0.563 0.643 0.383 1.035c-0.839 1.826-0.6 3.452 0.712 4.831 1.394 1.466 3.848 2.375 5.967 2.375 0.745 0 1.449-0.112 2.050-0.353 1.040-0.415 1.569-1.155 1.573-2.198-0.006-0.204-0.028-0.4-0.065-0.583-0.086-0.422 0.187-0.834 0.609-0.92s0.834 0.187 0.92 0.609zM25.877 14.083c-0.357-0.241-0.842-0.147-1.083 0.21s-0.147 0.842 0.21 1.083c0.705 0.475 1.125 1.262 1.125 2.103 0 1.398-1.137 2.534-2.534 2.534h-13.78c-0.004-0-0.007-0-0.010-0-2.169 0-3.933-1.764-3.933-3.933 0-1.126 0.49-2.202 1.343-2.953 0.324-0.284 0.355-0.778 0.071-1.101s-0.778-0.355-1.101-0.071c-1.191 1.047-1.873 2.55-1.873 4.124 0 2.266 1.379 4.216 3.343 5.055 0.013 0.027 0.028 0.053 0.044 0.078l4.231 6.629c0.143 0.225 0.391 0.36 0.658 0.36h3.181v2.235h-3.181c-0.431 0-0.78 0.349-0.78 0.78s0.349 0.78 0.78 0.78h3.942c0.006 0 0.013 0 0.019 0s0.013-0 0.019-0h3.942c0.431 0 0.78-0.349 0.78-0.78s-0.349-0.78-0.78-0.78h-3.181v-2.235h3.181c0.266 0 0.514-0.136 0.658-0.36l4.231-6.629c0.017-0.026 0.031-0.053 0.045-0.080 1.333-0.676 2.249-2.060 2.249-3.655 0-1.361-0.678-2.63-1.813-3.396zM20.080 26.644h-7.067l-3.235-5.069h13.537l-3.235 5.069zM10.076 14.637c-1.683-1.859-2.643-4.273-2.634-6.625 0.008-2.027 0.742-3.909 2.066-5.3 1.468-1.542 3.633-2.478 6.263-2.709 0.236-0.021 0.47 0.068 0.634 0.24s0.24 0.41 0.207 0.646c-0.115 0.818-0.062 1.495 0.162 2.069 0.157 0.401-0.042 0.854-0.443 1.010s-0.854-0.042-1.010-0.443c-0.22-0.564-0.329-1.177-0.328-1.853-4.38 0.727-5.979 3.691-5.99 6.345-0.015 3.797 3.003 8.123 8.626 8.661 0.429 0.041 0.743 0.422 0.702 0.851-0.039 0.404-0.378 0.706-0.776 0.706-0.025 0-0.050-0.001-0.075-0.004-3.754-0.359-6.098-2.153-7.404-3.595zM10.529 18.134c-0.127 0.294-0.415 0.47-0.716 0.47-0.104 0-0.209-0.021-0.31-0.065-1.074-0.465-1.898-1.374-2.263-2.494-0.133-0.41 0.091-0.85 0.5-0.983s0.85 0.091 0.983 0.5c0.226 0.695 0.736 1.258 1.4 1.545 0.395 0.171 0.577 0.631 0.406 1.026z"></path>
</symbol>

<symbol id="icon-close" viewBox="0 0 32 32">
<path d="M3.738 0l26.929 26.929-3.738 3.738-26.929-26.929z"></path>
<path d="M1.156 27.21l26.929-26.929 3.738 3.738-26.929 26.929z"></path>
</symbol>

<symbol id="burger" viewBox="0 0 48 32">
<path d="M0 5.333v-5.333h48v5.333h-48zM0 18.667h48v-5.333h-48v5.333zM0 32h48v-5.333h-48v5.333z"></path>
</symbol>

<symbol id="form-email" viewBox="0 0 32 32">
<path d="M26.667 5.333h-21.333c-1.467 0-2.653 1.2-2.653 2.667l-0.013 16c0 1.467 1.2 2.667 2.667 2.667h21.333c1.467 0 2.667-1.2 2.667-2.667v-16c0-1.467-1.2-2.667-2.667-2.667zM26.133 11l-9.427 5.893c-0.427 0.267-0.987 0.267-1.413 0l-9.427-5.893c-0.333-0.213-0.533-0.573-0.533-0.96 0-0.893 0.973-1.427 1.733-0.96l8.933 5.587 8.933-5.587c0.76-0.467 1.733 0.067 1.733 0.96 0 0.387-0.2 0.747-0.533 0.96z"></path>
</symbol>

<symbol id="form-person" viewBox="0 0 32 32">
<path d="M16 16c2.947 0 5.333-2.387 5.333-5.333s-2.387-5.333-5.333-5.333c-2.947 0-5.333 2.387-5.333 5.333s2.387 5.333 5.333 5.333zM16 18.667c-3.56 0-10.667 1.787-10.667 5.333v1.333c0 0.733 0.6 1.333 1.333 1.333h18.667c0.733 0 1.333-0.6 1.333-1.333v-1.333c0-3.547-7.107-5.333-10.667-5.333z"></path>
</symbol>

<symbol id="form-phone" viewBox="0 0 32 32">
<path d="M24.882 19.773l-3.268-0.373c-0.785-0.090-1.557 0.18-2.11 0.733l-2.367 2.367c-3.641-1.853-6.626-4.825-8.478-8.478l2.38-2.38c0.553-0.553 0.823-1.325 0.733-2.11l-0.373-3.242c-0.154-1.299-1.248-2.277-2.56-2.277h-2.226c-1.454 0-2.663 1.209-2.573 2.663 0.682 10.987 9.469 19.761 20.443 20.443 1.454 0.090 2.663-1.119 2.663-2.573v-2.226c0.013-1.3-0.965-2.393-2.264-2.547z"></path>
</symbol>

</defs>
</svg>

