<svg aria-hidden="true" style="position: absolute; width: 0; height: 0; overflow: hidden;" version="1.1" xmlns="http://www.w3.org/2000/svg" xmlns:xlink="http://www.w3.org/1999/xlink">
<defs>


<symbol id="icon-dashed-line" viewBox="0 0 2 32">
<path   stroke-linejoin="miter" stroke-linecap="butt" stroke-miterlimit="4" stroke-width="0.8" d="M0.8 0v32"></path>
</symbol>

<symbol id="icon-vertical-grey-line" viewBox="0 0 2 32">
<path   stroke-linejoin="miter" stroke-linecap="butt" stroke-miterlimit="4" stroke-width="0.8" d="M0.8 0v32"></path>
</symbol>

<symbol id="icon-arrow2" viewBox="0 0 54 32">
<path  d="M2 14c-1.105 0-2 0.895-2 2s0.895 2 2 2v-4zM53.414 17.414c0.781-0.781 0.781-2.047 0-2.828l-12.728-12.728c-0.781-0.781-2.047-0.781-2.828 0s-0.781 2.047 0 2.828l11.314 11.314-11.314 11.314c-0.781 0.781-0.781 2.047 0 2.828s2.047 0.781 2.828 0l12.728-12.728zM2 18h50v-4h-50v4z"></path>
</symbol>
<symbol id="icon-arrow1" viewBox="0 0 54 32">
<path  d="M52 14c1.105 0 2 0.895 2 2s-0.895 2-2 2v-4zM0.586 17.414c-0.781-0.781-0.781-2.047 0-2.828l12.728-12.728c0.781-0.781 2.047-0.781 2.828 0s0.781 2.047 0 2.828l-11.314 11.314 11.314 11.314c0.781 0.781 0.781 2.047 0 2.828s-2.047 0.781-2.828 0l-12.728-12.728zM52 18h-50v-4h50v4z"></path>
</symbol>

<symbol id="icon-opened_book" viewBox="0 0 46 32">
<path d="M20.267 4.608h-13.64v1.021h13.64v-1.021z"></path>
<path d="M20.267 8.416h-11.597v1.021h11.597v-1.021z"></path>
<path d="M20.267 12.224h-13.64v1.021h13.64v-1.021z"></path>
<path d="M20.267 16.032h-11.597v1.021h11.597v-1.021z"></path>
<path d="M20.267 19.84h-13.64v1.021h13.64v-1.021z"></path>
<path d="M20.267 23.648h-11.597v1.021h11.597v-1.021z"></path>
<path d="M38.99 4.608h-13.64v1.021h13.64v-1.021z"></path>
<path d="M36.947 8.416h-11.597v1.021h11.597v-1.021z"></path>
<path d="M38.99 12.224h-13.64v1.021h13.64v-1.021z"></path>
<path d="M36.947 16.032h-11.597v1.021h11.597v-1.021z"></path>
<path d="M38.99 19.84h-13.64v1.021h13.64v-1.021z"></path>
<path d="M36.947 23.648h-11.597v1.021h11.597v-1.021z"></path>
<path d="M43.915 3.445h-1.872v-2.812c0-0.282-0.229-0.511-0.511-0.511h-15.265c-1.49 0-2.781 0.805-3.458 2.011-0.678-1.206-1.97-2.011-3.459-2.011h-15.265c-0.282 0-0.511 0.229-0.511 0.511v2.812h-1.872c-0.282 0-0.511 0.229-0.511 0.511v27.411c0 0.282 0.229 0.511 0.511 0.511 5.127 0 37.068 0 42.213 0 0.282 0 0.511-0.229 0.511-0.511v-27.411c0-0.282-0.229-0.511-0.511-0.511zM26.267 1.144h14.754c0 4.573 0 16.619 0 27.35h-15.843c-0.702 0-1.405 0.296-1.859 0.68v-25.089c0-1.63 1.305-2.942 2.948-2.942zM4.596 1.144h14.754c1.597 0 2.889 1.243 2.942 2.829 0.001 0.022 0.003 0.091 0.006 0.112v25.087c-0.453-0.383-1.148-0.678-1.852-0.678h-15.85c0-10.728 0-22.779 0-27.35zM2.213 4.467h1.362v24.538c0 0.282 0.229 0.511 0.511 0.511h16.361c0.778 0 1.531 0.511 1.771 1.341h-20.005v-26.39zM43.404 30.856h-20.004c0.242-0.834 0.987-1.341 1.778-1.341h16.354c0.282 0 0.511-0.229 0.511-0.511v-24.538h1.362v26.39z"></path>
</symbol>

<symbol id="icon-smartphone" viewBox="0 0 33 32">
<path  d="M30.175-0.128h-15.746c-1.025 0-1.859 0.834-1.859 1.859v6.518l-11.698 4.91c-0.132 0.056-0.222 0.181-0.233 0.324s0.061 0.28 0.184 0.354l1.492 0.893v9.515c-0.763 0.174-1.335 0.857-1.335 1.674v0.917c0 0.21 0.171 0.381 0.381 0.381h2.671c0.21 0 0.381-0.171 0.381-0.381v-0.917c0-0.816-0.573-1.498-1.336-1.673v-9.060l1.18 0.706c-0.036 0.272-0.005-0.474-0.017 4.43 0 1.612 4.129 2.476 8.33 2.525v7.425c0 0.384 0.117 0.74 0.318 1.036 0.334 0.494 0.9 0.82 1.54 0.82h15.746c1.024 0 1.857-0.833 1.857-1.857 0 0.051-0.002-1.573 0-28.54 0-1.011-0.836-1.859-1.856-1.859zM3.652 25.918v0.536h-1.909v-0.536c0-0.528 0.427-0.957 0.952-0.957 0.528 0 0.957 0.43 0.957 0.957zM30.175 31.364h-15.746c-0.378 0-0.712-0.191-0.909-0.482-0.118-0.175-0.187-0.385-0.187-0.612v-2.574h17.935v2.575c0 0.597-0.497 1.092-1.092 1.092zM31.267 26.935h-17.935v-4.086c2.051-0.023 8.335-0.475 8.335-2.527-0.002-3.081 0.005-4.33-0.010-4.436l3.421-2.049c0.123-0.074 0.194-0.211 0.184-0.354s-0.1-0.268-0.233-0.324l-11.698-4.91v-3.182h17.935v21.868zM12.951 17.792c-2.113 0-6.182 0.273-7.949 1.427 0.011-3.53-0.122-3.3 0.312-3.6 1.098-0.809 4.238-1.373 7.637-1.373 1.482 0 7.954 0.408 7.954 1.778v3.195c-1.784-1.165-5.832-1.428-7.954-1.428zM13.333 1.731c0-0.604 0.491-1.095 1.095-1.095h15.746c0.604 0 1.093 0.498 1.093 1.095v2.574h-17.935v-2.574zM12.951 8.915l11.090 4.655-2.748 1.644c-1.461-1.449-6.294-1.73-8.342-1.73-2.051 0-6.884 0.282-8.342 1.73l-2.749-1.645 11.091-4.655zM5.002 20.321c0-0.617 2.73-1.767 7.949-1.767 5.222 0 7.954 1.151 7.954 1.767s-2.732 1.768-7.954 1.768c-5.219 0-7.949-1.151-7.949-1.768z"></path>
</symbol>

<symbol id="icon-phone" viewBox="0 0 33 32">
<path  d="M4.817 0.003c-0.533 0.025-1.056 0.252-1.44 0.674l-2.684 2.95c0.004-0.009-0.010-0.007-0.087 0.1-0.041 0.055-0.072 0.117-0.093 0.182-1.092 3.48-0.36 7.308 1.424 10.949s4.63 7.125 7.897 9.984c3.267 2.859 6.953 5.096 10.468 6.205s6.922 1.095 9.448-0.737c0.027-0.020 0.053-0.043 0.077-0.067 0.066-0.066 0.068-0.075 0.058-0.065l0.010-0.013 2.671-2.938c0.768-0.844 0.706-2.17-0.138-2.938l-6.337-5.763c-0.844-0.768-2.17-0.706-2.938 0.137l-2.867 3.153c-2.327-0.674-4.317-1.816-6.231-3.557s-3.24-3.615-4.131-5.869l2.866-3.153c0.768-0.844 0.706-2.17-0.137-2.938l-6.337-5.763c-0.422-0.384-0.965-0.561-1.498-0.535l-0.001 0zM4.878 1.296c0.196-0.009 0.396 0.059 0.559 0.208l6.337 5.763c0.326 0.297 0.349 0.771 0.052 1.097l-3.169 3.482c-0.080 0.088-0.134 0.196-0.156 0.313s-0.013 0.237 0.027 0.348c0.962 2.624 2.513 4.777 4.648 6.719s4.423 3.283 7.126 3.992c0.115 0.030 0.236 0.028 0.35-0.006s0.217-0.098 0.297-0.186l3.169-3.483c0.297-0.326 0.77-0.348 1.096-0.051l6.338 5.763c0.326 0.297 0.348 0.77 0.051 1.096l-2.649 2.912c-2.072 1.488-4.992 1.571-8.262 0.539-3.282-1.036-6.846-3.182-9.999-5.942s-5.898-6.131-7.585-9.573c-1.67-3.407-2.275-6.852-1.357-9.888l2.588-2.844c0.148-0.163 0.342-0.251 0.538-0.26l0 0z"></path>
</symbol>

<symbol id="icon-vkontakte" viewBox="0 0 53 32">
<path  d="M45.901 20.1c1.769 1.727 3.636 3.352 5.223 5.254 0.701 0.845 1.364 1.717 1.872 2.698 0.719 1.394 0.068 2.928-1.182 3.011l-7.77-0.004c-2.004 0.166-3.603-0.64-4.947-2.011-1.076-1.096-2.072-2.262-3.106-3.395-0.424-0.463-0.868-0.898-1.398-1.243-1.061-0.689-1.981-0.478-2.587 0.628-0.617 1.125-0.758 2.371-0.818 3.625-0.083 1.829-0.636 2.311-2.474 2.394-3.928 0.185-7.655-0.409-11.118-2.39-3.053-1.747-5.42-4.213-7.481-7.004-4.012-5.436-7.084-11.409-9.845-17.549-0.622-1.383-0.167-2.126 1.359-2.152 2.535-0.049 5.069-0.046 7.607-0.004 1.030 0.015 1.712 0.606 2.11 1.579 1.371 3.372 3.049 6.58 5.156 9.554 0.561 0.792 1.133 1.583 1.947 2.141 0.901 0.617 1.587 0.412 2.011-0.591 0.269-0.636 0.387-1.322 0.447-2.004 0.201-2.345 0.227-4.686-0.125-7.023-0.216-1.458-1.038-2.403-2.493-2.679-0.743-0.141-0.632-0.417-0.273-0.841 0.625-0.731 1.212-1.186 2.383-1.186h8.781c1.382 0.273 1.689 0.894 1.879 2.285l0.007 9.754c-0.015 0.538 0.269 2.136 1.239 2.493 0.776 0.254 1.288-0.367 1.754-0.86 2.102-2.231 3.603-4.868 4.943-7.599 0.595-1.201 1.106-2.448 1.602-3.694 0.367-0.924 0.944-1.379 1.985-1.359l8.451 0.008c0.251 0 0.504 0.004 0.747 0.045 1.424 0.243 1.814 0.855 1.375 2.246-0.693 2.182-2.041 4-3.36 5.827-1.409 1.95-2.917 3.834-4.314 5.795-1.284 1.792-1.182 2.695 0.413 4.251z"></path>
</symbol>

<symbol id="icon-fire" viewBox="0 0 23 32">
<path  d="M21.908 16.593c-0.284-0.635-0.675-1.261-1.247-1.983-1.442-1.813-1.882-5.857-1.887-5.896-0.020-0.194-0.156-0.354-0.337-0.412-0.186-0.058-0.386-0.005-0.518 0.141-1.721 1.925-0.997 4.897-0.606 6.085 0.108 0.325 0.225 0.708 0.308 1.096 0.636 3.137-0.592 4.558-0.88 4.844-0.279 0.078-0.469 0.039-0.645-0.15-0.606-0.664-0.807-2.841-0.523-5.678 0.059-0.577 0.044-1.096-0.039-1.581-0.598-3.486-2.791-5.722-3.349-6.507-1.535-2.269-1.691-6.046-1.696-6.080-0.005-0.179-0.108-0.339-0.269-0.417-0.156-0.078-0.347-0.068-0.494 0.034-2.562 1.741-2.342 5.935-1.985 8.276 0.083 0.543 0.244 1.096 0.523 1.794 0.992 2.497-0.196 5.721-0.205 5.75s-0.020 0.053-0.024 0.082c-0.152 0.795-0.406 1.27-0.689 1.27-0.029 0-0.059-0.005-0.093-0.015-0.347-0.073-0.528-0.441-0.533-0.761-0.020-4.136-4.17-5.527-4.214-5.542-0.186-0.058-0.391-0.005-0.518 0.145-0.132 0.15-0.156 0.359-0.068 0.533 0.049 0.102 0.205 0.548 0.098 2.124-0.093 1.416-0.352 2.817-0.768 4.16-0.988 3.219-0.831 6.269-0.821 6.415 0.759 8.257 12.635 9.704 19.683 5.052 0.772-0.509 1.403-1.091 1.868-1.731 2.601-3.588 1.071-8.461-0.068-11.050zM3.844 24.481c0.015 0.267-0.191 0.494-0.46 0.509h-0.029c-0.259 0-0.474-0.199-0.489-0.456-0.044-0.708-0.034-1.45 0.020-2.255 0.020-0.267 0.254-0.465 0.523-0.451 0.269 0.019 0.474 0.252 0.455 0.519-0.054 0.766-0.064 1.464-0.020 2.133zM4.084 20.186c-0.029 0.247-0.24 0.427-0.484 0.427-0.020 0-0.039 0-0.064-0.005-0.264-0.034-0.455-0.272-0.425-0.538l0.235-1.871c0.034-0.262 0.274-0.451 0.548-0.422 0.269 0.034 0.46 0.276 0.425 0.543l-0.235 1.867z"></path>
<path  d="M18.601 6.633c-0.267-0.041-0.45-0.288-0.408-0.553 0.030-0.197 0.207-1.205 0.686-1.713 0.185-0.196 0.493-0.206 0.691-0.022s0.207 0.49 0.022 0.685c-0.203 0.215-0.376 0.829-0.433 1.197-0.041 0.262-0.287 0.445-0.558 0.405z"></path>
<path  d="M0.778 9.048c-0.094-0.361-0.326-0.955-0.549-1.149-0.203-0.177-0.223-0.483-0.045-0.684s0.486-0.222 0.69-0.045c0.527 0.458 0.802 1.445 0.852 1.638 0.067 0.259-0.091 0.523-0.352 0.59-0.267 0.067-0.529-0.094-0.595-0.349z"></path>
</symbol>

<symbol id="icon-orange-line" viewBox="0 0 213 32">
<path  d="M0 4.267h213.333v20.693h-213.333v-20.693z"></path>
</symbol>

<symbol id="icon-checked" viewBox="0 0 40 32">
<path  d="M34.457 1.514c-1.484 0.664-2.907 1.475-4.265 2.379-2.731 1.797-5.228 3.936-7.57 6.218-2.341 2.287-4.52 4.735-6.581 7.28-0.515 0.636-2.823 3.47-2.823 3.47l-9.596-14.38-3.623 10.042 12.977 15.477c1.26-2.551 2.473-5.070 3.662-7.258 0.296-0.556 0.605-1.080 0.901-1.612 0 0 1.523-2.677 1.924-3.352 1.601-2.697 3.332-5.325 5.239-7.821 1.908-2.491 3.983-4.87 6.335-6.961 1.17-1.052 2.416-2.025 3.751-2.872 1.332-0.848 2.747-1.591 4.261-2.125-1.575 0.31-3.111 0.848-4.592 1.514z"></path>
</symbol>

<symbol id="icon-files" viewBox="0 0 31 32">
<path  d="M30.151 4.961c0-0.001-0.001-0.001-0.001-0.002-0.007-0.016-0.015-0.031-0.024-0.045-0.001-0.001-0.002-0.002-0.002-0.003-0.010-0.015-0.021-0.029-0.034-0.042l-4.806-4.806c-0.013-0.013-0.026-0.023-0.041-0.033-0.003-0.002-0.006-0.004-0.009-0.006-0.012-0.007-0.024-0.014-0.036-0.019-0.004-0.002-0.007-0.003-0.011-0.005-0.031-0.013-0.065-0.019-0.099-0.020-0.002 0-0.004-0-0.005-0h-21.171c-0.157 0-0.284 0.127-0.284 0.284v29.311c0 0.019 0.002 0.037 0.006 0.056 0.002 0.008 0.005 0.015 0.007 0.023 0.003 0.010 0.006 0.020 0.009 0.030 0.004 0.009 0.009 0.017 0.014 0.026 0.004 0.007 0.008 0.016 0.013 0.023 0.010 0.014 0.021 0.028 0.033 0.040 0.001 0.001 0.001 0.002 0.003 0.003l2.165 2.164c0.111 0.111 0.29 0.111 0.402 0l1.964-1.963 1.964 1.963c0.055 0.056 0.128 0.083 0.201 0.083s0.145-0.027 0.201-0.083l1.963-1.963 1.965 1.963c0.111 0.111 0.291 0.111 0.402 0l1.963-1.963 1.963 1.963c0.111 0.111 0.291 0.111 0.401 0l1.965-1.963 1.964 1.963c0.055 0.056 0.128 0.083 0.201 0.083s0.145-0.027 0.201-0.083l1.963-1.963 1.965 1.963c0.111 0.111 0.291 0.111 0.401 0l2.165-2.164c0.004-0.004 0.007-0.009 0.011-0.014 0.008-0.009 0.017-0.019 0.024-0.029 0.007-0.009 0.011-0.020 0.016-0.030 0.003-0.007 0.007-0.012 0.009-0.019 0.006-0.013 0.009-0.026 0.012-0.039 0.001-0.005 0.003-0.009 0.005-0.013 0.004-0.020 0.006-0.038 0.006-0.058v-24.503c-0.001-0.037-0.008-0.074-0.023-0.109zM25.367 0.949l3.836 3.835h-3.836v-3.835zM29.604 29.456l-1.88 1.88-1.965-1.963c-0.111-0.111-0.29-0.111-0.401 0l-1.963 1.963-1.964-1.963c-0.111-0.111-0.291-0.111-0.402 0l-1.965 1.963-1.963-1.962c0-0-0-0.001-0-0.001-0.055-0.055-0.128-0.083-0.201-0.083s-0.145 0.028-0.201 0.083c-0 0-0 0-0 0l-1.963 1.963-1.965-1.963c-0.111-0.111-0.29-0.111-0.402 0l-1.963 1.963-1.964-1.963c-0.111-0.111-0.29-0.111-0.402 0l-1.965 1.963-1.88-1.88v-28.909h20.603v4.522c0 0.157 0.127 0.284 0.284 0.284h4.521l0 24.103z"></path>
<path  d="M6.314 3.234h9.303c0.157 0 0.284-0.127 0.284-0.284s-0.127-0.284-0.284-0.284h-9.303c-0.157 0-0.284 0.127-0.284 0.284s0.127 0.284 0.284 0.284z"></path>
<path  d="M6.314 4.991h14.919c0.157 0 0.284-0.127 0.284-0.284s-0.127-0.284-0.284-0.284h-14.919c-0.157 0-0.284 0.127-0.284 0.284s0.127 0.284 0.284 0.284z"></path>
<path  d="M6.030 6.568v9.199c0 0.157 0.127 0.284 0.284 0.284h21.172c0.157 0 0.284-0.127 0.284-0.284v-9.199c0-0.157-0.127-0.284-0.284-0.284h-21.172c-0.157 0-0.284 0.127-0.284 0.284zM12.308 6.852h14.893v2.445h-14.893v-2.445zM12.308 9.865h14.893v2.444h-14.893v-2.444zM12.308 12.877h14.893v2.605h-14.893v-2.605zM6.598 6.852h5.142v2.445h-5.142v-2.445zM6.598 9.865h5.142v2.444h-5.142v-2.444zM6.598 12.877h5.142v2.605h-5.142v-2.605z"></path>
<path  d="M27.486 17.329h-21.172c-0.157 0-0.284 0.127-0.284 0.284v9.198c0 0.157 0.127 0.284 0.284 0.284s0.284-0.127 0.284-0.284v-2.889h5.142v2.889c0 0.157 0.127 0.284 0.284 0.284s0.284-0.127 0.284-0.284v-2.889h14.893v2.889c0 0.157 0.127 0.284 0.284 0.284s0.284-0.127 0.284-0.284v-9.198c0.001-0.157-0.126-0.284-0.283-0.284zM11.74 23.354h-5.142v-2.443h5.142v2.443zM11.74 20.342h-5.142v-2.444h5.142v2.444zM27.201 23.354h-14.893v-2.443h14.893v2.443zM27.201 20.342h-14.893v-2.444h14.893v2.444z"></path>
<path  d="M2.281-0.021c-0.157 0-0.284 0.127-0.284 0.284v29.311c0 0.157 0.127 0.284 0.284 0.284s0.284-0.127 0.284-0.284v-29.311c0-0.157-0.127-0.284-0.284-0.284z"></path>
<path  d="M0.718-0.021c-0.157 0-0.284 0.127-0.284 0.284v29.311c0 0.157 0.127 0.284 0.284 0.284s0.284-0.127 0.284-0.284v-29.311c0-0.157-0.127-0.284-0.284-0.284z"></path>
</symbol>

<symbol id="icon-people" viewBox="0 0 33 32">
<path  d="M1.993 12.558v2.831c0 0.152 0.070 0.295 0.189 0.39 1.935 1.523 4.363 2.362 6.837 2.362 0.74 0 1.482-0.077 2.206-0.224 1.544 0.683 3.188 1.032 4.89 1.032 1.707 0 3.351-0.349 4.89-1.032 3.091 0.624 6.384-0.046 9.042-2.138 0.12-0.094 0.189-0.238 0.189-0.39v-2.831c0-0.416-0.206-0.794-0.575-1.027l-3.867-2.176c0.846-1.073 1.476-2.602 1.586-3.913 0.321-2.256-1.518-4.646-4.166-4.646-1.113 0-2.171 0.458-2.948 1.227-0.027 0.027-0.058 0.049-0.084 0.076-0.024 0.025-0.043 0.054-0.067 0.080-0.016 0.017-0.029 0.036-0.044 0.053-0.757-1.38-2.211-2.232-3.924-2.232-0.166 0-0.33 0.011-0.492 0.028-0.010-0.001-0.018-0.006-0.028-0.006-0.092 0-0.287 0.024-0.391 0.054-0.015 0.004-0.026 0.015-0.041 0.021-1.279 0.259-2.363 1.034-3.013 2.156-0.781-0.911-1.93-1.457-3.179-1.457-3.908 0-5.642 4.612-2.557 8.581l-3.903 2.167c-0.346 0.219-0.553 0.598-0.553 1.014zM20.996 16.828c-0.084 0.041-0.167 0.085-0.251 0.123l-0 0c-0.001 0-0.001 0.001-0.002 0.001-1.452 0.667-3.009 1.006-4.627 1.006-1.614 0-3.17-0.338-4.629-1.007-0.71-0.323-1.397-0.734-2.045-1.221v-2.87c0-0.098 0.047-0.184 0.102-0.221l4.542-2.524c0.565 0.48 1.287 0.832 2.035 0.832 0.721 0 1.499-0.357 2.052-0.843l4.487 2.52c0.083 0.053 0.13 0.139 0.13 0.237v2.87c-0.571 0.429-1.173 0.795-1.794 1.098zM29.154 12.382c0.059 0.037 0.092 0.101 0.092 0.176v2.587c-1.968 1.477-4.337 2.148-6.737 1.98 0.369-0.23 0.771-0.516 1.083-0.76 0.12-0.094 0.19-0.238 0.19-0.39v-3.114c0-0.435-0.218-0.835-0.61-1.087l-2.383-1.339 0.58-0.321c0.703 0.573 1.307 0.744 1.848 0.744 0.663 0 1.36-0.325 1.878-0.759l4.060 2.284zM23.216 1.788c1.38 0 2.593 0.902 3.021 2.142-0.833-0.099-1.647-0.51-2.237-1.142-0.107-0.114-0.258-0.173-0.415-0.155-0.155 0.016-0.293 0.105-0.373 0.239-0.566 0.948-1.493 1.58-2.548 1.76 0-0.001-0-0.002-0-0.003 0.005-0.216-0.008-0.434-0.033-0.653-0.003-0.022-0.005-0.044-0.007-0.067-0.032-0.248-0.107-0.559-0.122-0.609 0.563-0.902 1.609-1.513 2.713-1.513zM20.556 5.644c1.253-0.137 2.386-0.767 3.164-1.762 0.767 0.629 1.74 1.010 2.702 1.056-0.007 1.792-1.471 4.927-3.206 4.927-1.337 0-2.479-1.912-2.905-3.238 0.108-0.341 0.187-0.669 0.245-0.983zM20.657 9.373l-0.886 0.491-0.895-0.502c0.332-0.413 0.636-0.893 0.896-1.413 0.25 0.526 0.55 1.010 0.884 1.425zM19.32 6.465c-0.478 1.427-1.705 3.49-3.199 3.49-1.742 0-3.226-2.864-3.509-4.696 0.075-0.019 2.43 0.126 4.049-2.001 0.822 0.688 1.932 1.143 3.011 1.188 0.013 0.647-0.144 1.406-0.352 2.018zM16.15 0.992c2.78 0 3.309 2.392 3.352 2.442-1.008-0.102-1.928-0.596-2.563-1.276-0.107-0.114-0.262-0.171-0.416-0.154-0.155 0.017-0.293 0.106-0.373 0.241-0.551 0.932-1.414 1.589-2.414 1.868-0.386 0.108-0.803 0.157-1.166 0.154 0.136-1.822 1.596-3.274 3.58-3.274zM12.461 7.938c0.257 0.515 0.563 1.006 0.913 1.438l-0.875 0.487-0.907-0.51c0.344-0.438 0.636-0.929 0.87-1.415zM9.006 1.788c1.125 0 2.155 0.571 2.729 1.514-0.029 0.1-0.106 0.498-0.117 0.548-0.69-0.165-1.324-0.533-1.821-1.062-0.107-0.114-0.258-0.17-0.416-0.154-0.155 0.017-0.293 0.106-0.372 0.24-0.663 1.119-1.881 1.815-3.177 1.815 0.158-1.627 1.518-2.9 3.174-2.9zM5.876 5.678c1.425-0.014 2.77-0.686 3.643-1.796 0.596 0.491 1.304 0.813 2.055 0.961 0.029 0.575 0.179 1.273 0.35 1.789-0.274 0.84-0.799 1.841-1.451 2.505-0.004 0.004-0.010 0.006-0.014 0.010-0.408 0.43-0.988 0.719-1.444 0.719-1.594 0-2.841-2.508-3.14-4.188zM2.985 12.558c0-0.075 0.033-0.139 0.067-0.162l4.116-2.284c0.247 0.206 0.304 0.229 0.353 0.265l-0 0c0.484 0.322 0.928 0.482 1.534 0.482 0.645 0 1.232-0.273 1.749-0.694 0.029-0.023 0.060-0.045 0.088-0.068l0.587 0.33-2.446 1.361c-0.366 0.236-0.584 0.636-0.584 1.071v3.114c0 0.152 0.070 0.296 0.19 0.39 0.317 0.249 0.727 0.539 1.083 0.761-2.434 0.166-4.803-0.528-6.737-1.98v-2.587z"></path>
<path  d="M31.259 20.781c-0.61-0.383-1.361-0.423-2.007-0.11l-6.119 2.956c-0.021-1.145-0.956-2.072-2.107-2.072l-3.509 0.001c-1.73-1.504-3.941-2.425-5.952-2.473-1.983-0.047-3.763-0.060-4.593-0.064v-1.002h-6.972v11.517h6.972v-1.379c1.912 1.097 6.939 3.845 9.325 3.845 0.054 0 0.107-0.001 0.158-0.004 4.196-0.235 14.091-7.198 14.743-7.661 0.638-0.37 1.034-1.056 1.034-1.796 0-0.719-0.364-1.376-0.973-1.758zM5.98 28.542h-4.988v-9.533h4.988v9.533zM30.687 23.484c-0.015 0.008-0.030 0.017-0.044 0.028-0.102 0.073-10.281 7.271-14.244 7.494-0.039 0.002-0.079 0.003-0.121 0.003-2.092 0-7.194-2.753-9.307-4.001v-6.997c0.827 0.004 2.597 0.017 4.569 0.064 1.837 0.044 3.876 0.921 5.456 2.346l0.141 0.128 3.887-0.001c0.617 0 1.119 0.502 1.119 1.119s-0.502 1.119-1.119 1.119h-7.142v0.992h7.142c0.684 0 1.288-0.333 1.674-0.839l6.984-3.373c0.343-0.167 0.725-0.146 1.049 0.057s0.508 0.537 0.508 0.918c0 0.391-0.212 0.753-0.553 0.945z"></path>
<path  d="M16.612 12.158h-0.992v0.92h0.992v-0.92z"></path>
<path  d="M16.612 13.992h-0.992v0.92h0.992v-0.92z"></path>
<path  d="M16.612 15.826h-0.992v0.92h0.992v-0.92z"></path>
</symbol>

<symbol id="icon-audio-book" viewBox="0 0 39 32">
<path  d="M3.048 29.453h12.23c0.62 1.285 1.917 2.116 3.38 2.116h0.772c1.465 0 2.761-0.83 3.381-2.116h12.237c1.26 0 2.286-1.025 2.286-2.286v-21.905c0-1.26-1.025-2.286-2.286-2.286h-1.234v-1.021c0-0.84-0.684-1.524-1.524-1.524h-26.491c-0.84 0-1.524 0.683-1.524 1.524v1.021h-1.227c-1.26 0-2.286 1.025-2.286 2.286v21.905c0 1.26 1.025 2.286 2.286 2.286zM32.288 24.752h-12.478v-17.705c2.884 0.377 5.121 2.845 5.121 5.831v0.687l-0.181-0.040c-0.196-0.042-0.403-0.007-0.574 0.102s-0.291 0.281-0.334 0.478l-1.213 5.519c-0.090 0.41 0.17 0.816 0.58 0.907l2.621 0.578c0.135 0.029 0.273 0.043 0.411 0.043 0.922 0 1.707-0.631 1.908-1.535l0.702-3.192c0.231-1.048-0.433-2.090-1.484-2.324l-0.912-0.201v-1.023c0-3.827-2.917-6.986-6.644-7.37v-3.551h12.48l-0.001 22.796zM25.166 15.177l1.871 0.412c0.234 0.052 0.376 0.275 0.325 0.508l-0.702 3.191c-0.051 0.231-0.306 0.374-0.507 0.331l-1.874-0.413 0.886-4.030zM5.798 1.956h12.487v3.55c-3.731 0.381-6.652 3.541-6.652 7.371v1.022l-0.914 0.202c-0.509 0.113-0.943 0.416-1.222 0.854-0.28 0.439-0.373 0.961-0.26 1.468l0.7 3.188c0.19 0.892 0.993 1.54 1.909 1.54 0.138 0 0.275-0.015 0.416-0.045l2.61-0.577c0.41-0.091 0.67-0.496 0.58-0.907l-1.213-5.519c-0.043-0.198-0.164-0.37-0.334-0.478s-0.378-0.144-0.574-0.102l-0.174 0.038v-0.686c0-2.988 2.24-5.458 5.128-5.832v17.706h-12.487v-22.796zM12.916 15.177l0.887 4.029-1.863 0.411c-0.229 0.052-0.463-0.1-0.512-0.328l-0.702-3.196c-0.025-0.111-0.005-0.224 0.055-0.319 0.061-0.096 0.157-0.162 0.268-0.187l1.867-0.412zM2.286 5.262c0-0.42 0.341-0.762 0.762-0.762h1.227v20.252c0 0.84 0.684 1.524 1.524 1.524h26.491c0.84 0 1.524-0.683 1.524-1.524v-20.252h1.234c0.42 0 0.762 0.342 0.762 0.762v21.905c0 0.42-0.342 0.762-0.762 0.762h-12.754c-0.335 0-0.63 0.218-0.728 0.538-0.289 0.943-1.147 1.577-2.135 1.577h-0.772c-0.984 0-1.841-0.631-2.138-1.586-0.101-0.315-0.394-0.529-0.725-0.529h-12.747c-0.42 0-0.762-0.342-0.762-0.762v-21.905z"></path>
</symbol>

<symbol id="icon-money_insurance" viewBox="0 0 28 32">
<path  d="M0.542 13.742c0 0.357-0.542 0.357-0.542 0 0-7.588 6.154-13.742 13.742-13.742 7.591 0 13.742 6.154 13.742 13.742 0 0.357-0.539 0.357-0.539 0 0-5.129-8.428-5.132-8.428 0 0 0.357-0.555 0.357-0.555 0 0-5.116-8.441-5.116-8.441 0 0 0.357-0.555 0.357-0.555 0 0-5.106-8.425-5.142-8.425 0zM9.015 11.75c0.146-2.952 0.61-5.599 1.285-7.62 0.539-1.606 1.22-2.826 1.992-3.51-5.794 0.633-10.485 5.025-11.533 10.722 1.995-2.878 6.602-2.647 8.256 0.409zM17.921 11.617c-0.149-2.839-0.6-5.379-1.249-7.316-1.674-5.012-4.185-5.012-5.859 0-0.649 1.937-1.097 4.477-1.249 7.316 1.8-3.059 6.556-3.059 8.357 0zM26.725 11.341c-1.045-5.697-5.736-10.089-11.533-10.722 0.775 0.684 1.453 1.904 1.992 3.51 0.675 2.021 1.139 4.668 1.285 7.62 1.664-3.072 6.284-3.254 8.256-0.409z"></path>
<path  d="M11.938 20.030v-2.791c-0.503 0.334-0.899 0.85-0.899 1.48 0 0.613 0.402 1.019 0.899 1.311zM12.48 20.896c-0.964-0.441-1.979-0.957-1.979-2.177 0-1.259 0.957-1.888 1.979-2.359v4.536z"></path>
<path  d="M15.546 24.24v2.822c0.509-0.337 0.908-0.856 0.908-1.486 0-0.62-0.409-1.038-0.908-1.337zM15.007 23.371c0.967 0.448 1.989 0.98 1.989 2.206 0 1.262-0.963 1.891-1.989 2.358v-4.564z"></path>
<path  d="M15.546 14.063c2.219 0.513 4.5 2.174 4.5 4.655 0 2.125-3.591 2.047-3.591 0 0-0.633-0.399-1.152-0.908-1.486v3.971c2.054 0.672 4.506 1.875 4.506 4.373 0 2.485-2.281 4.143-4.506 4.652-0.010 2.365-3.601 2.362-3.607-0.003-1.265-0.292-2.365-0.882-3.16-1.664-0.834-0.824-1.327-1.859-1.327-2.985 0-2.093 3.588-2.093 3.588 0 0 0.626 0.396 1.142 0.899 1.476v-3.968c-2.037-0.659-4.503-1.898-4.503-4.373 0-2.485 2.281-4.143 4.503-4.652 0.010-2.365 3.601-2.362 3.607 0.003zM12.48 14.070v0.431c-2.112 0.419-4.506 1.771-4.506 4.211 0 2.346 2.628 3.397 4.506 3.977v5.243c-1.015-0.464-1.979-1.090-1.979-2.355 0-1.382-2.511-1.382-2.511 0 0 0.976 0.435 1.878 1.168 2.599 0.931 0.921 2.060 1.359 3.322 1.609v0.435c0 1.664 2.527 1.664 2.527 0v-0.431c2.118-0.422 4.503-1.775 4.503-4.211 0-2.368-2.621-3.387-4.503-3.981v-5.239c1.019 0.464 1.989 1.090 1.989 2.362 0 1.346 2.508 1.401 2.508 0 0-2.436-2.381-3.792-4.496-4.214v-0.435c0-1.664-2.527-1.664-2.527 0z"></path>
</symbol>

<symbol id="icon-rectangle" viewBox="0 0 31 32">
<path  stroke-linejoin="miter" stroke-linecap="butt" stroke-miterlimit="4" stroke-width="0.6154" d="M31.077 4.615v-4.308h-30.769v31.385h30.769v-4.308"></path>
</symbol>

<symbol id="icon-female" viewBox="0 0 27 32">
<path  d="M-0.103 31.759c3.441 0 23.348 0 26.785 0 0.133-3.055-0.086-8.122-1.964-10.535l-0.068-0.087-4.104-2.060c0.089-0.301 0.133-0.576 0.151-0.778 0.020-0.243-0.013-0.471-0.1-0.678-0.677-1.62-2.11-2.472-2.898-2.836 0.24-0.484 0.395-1.003 0.47-1.534 0.446-0.126 0.805-0.479 0.923-0.951l0.479-1.946c0.085-0.343 0.032-0.699-0.151-1.002-0.078-0.131-0.18-0.24-0.294-0.334 1.351-3.068-0.911-5.96-1.035-6.113-2.45-2.649-5.544-2.153-5.708-2.124-4.466 0.935-6.19 4.358-5.217 8.372-0.288 0.319-0.409 0.764-0.302 1.2l0.481 1.948c0.117 0.468 0.473 0.82 0.916 0.948 0.137 0.972 0.548 1.851 1.152 2.559v1.543c-6.409 3.282-2.348 1.188-7.484 3.786-0.010 0.048-2.41 2.599-2.053 10.159l0.022 0.462zM25.751 30.789h-4.408v-1.852l2.916-6.675c1.461 2.424 1.515 7.053 1.493 8.526zM19.735 18.216c-0.17 1.954-1.242 1.364-1.903 2.869-0.52-0.572-0.677-1.258-0.537-1.993 0.253-1.349-0.57-1.749-0.367-3.166l0.031-0.032v-0.005c0.018-0.020 0.18-0.213 0.227-0.274 1.744 0.76 2.584 2.174 2.55 2.6zM10.379 16.68c0.81 0.562 1.787 0.893 2.838 0.893 0.99 0 1.93-0.288 2.737-0.819 0.112 1.114 0.547 1.337 0.393 2.157-0.029 0.152-0.045 0.302-0.054 0.45l-3.002 3.384-3.838-4.327 0.926-0.484v-1.254zM9.172 12.54v-1.876c0-0.691 0-3.431 0-3.296 0.467-0.864 1.104-1.491 1.896-1.866 2.12 1.2 4.56 2.99 6.197 4.791-0.002 2.294 0.006 2.301-0.009 2.489l-0.001 0.012c-0.128 2.083-1.841 3.811-4.038 3.811-2.136 0-3.909-1.677-4.037-3.831-0.007-0.077-0.008-0.155-0.008-0.233zM8.574 18.886l4.716 5.317 3.166-3.569c0.072 0.208 0.174 0.405 0.29 0.595l-3.456 4.322-5.154-6.446 0.438-0.22zM18.23 11.759v-1.498c0.042-0.049 0.402-0.461 0.36-0.413 0.020 0.758 0.102-0.137-0.36 1.911zM12.562 1.734c0.192 0.012 2.765-0.391 4.799 1.804 0.080 0.1 1.736 2.234 1.071 4.567-0.228-1.038-0.625-2.369-1.252-3.004l-0.686 0.683c0.619 0.627 1.026 2.537 1.181 3.527-2.84-2.972-6.504-4.853-6.555-4.885-0.184 0.114-1.734 0.409-2.86 2.598l-0.054 0.105v1.607c-0.048 0.001-0.19 0.002-0.142 0.002-0.716-3.454 0.655-6.198 4.497-7.004zM7.962 9.736l0.244 0.987v1.038l-0.405-1.639c-0.059-0.244 0.122-0.337 0.161-0.386zM7.252 19.55l6.038 7.551 4.085-5.109c0.444 0.398 0.658 0.454 1.6 0.939l-0.318-1.078c-0.081-0.274 0.239-0.713 0.431-0.914 0.43-0.233 0.789-0.566 1.057-0.977l3.333 1.674-3.101 7.1v2.055h-14.176v-2.055l-3.103-7.099 4.153-2.085zM2.32 22.265l2.916 6.673v1.852h-4.408c-0.022-1.473 0.033-6.099 1.492-8.524z"></path>
</symbol>


<symbol id="logo-black" viewBox="0 0 91 32">
<path fill="#111518" style="fill: var(--color1, #111518)" d="M13.608 4.836v12.942h-3.661v-5.047h-4.992v5.047h-3.661v-12.942h3.661v4.863h4.992v-4.863h3.661zM27.006 12.786c0 0.025-0.018 0.314-0.055 0.869h-7.285c0.148 0.518 0.431 0.918 0.851 1.202 0.431 0.271 0.968 0.407 1.609 0.407 0.481 0 0.894-0.068 1.239-0.203 0.357-0.136 0.715-0.357 1.072-0.666l1.849 1.923c-0.974 1.085-2.397 1.627-4.271 1.627-1.171 0-2.2-0.222-3.088-0.666s-1.578-1.060-2.071-1.849c-0.481-0.789-0.721-1.683-0.721-2.681 0-0.986 0.234-1.867 0.703-2.644 0.481-0.789 1.14-1.405 1.978-1.849s1.781-0.666 2.829-0.666c0.998 0 1.904 0.21 2.718 0.629 0.814 0.407 1.454 1.005 1.923 1.793 0.481 0.777 0.721 1.701 0.721 2.773zM21.663 10.086c-0.542 0-0.998 0.154-1.368 0.462-0.357 0.308-0.586 0.727-0.684 1.257h4.105c-0.099-0.53-0.333-0.949-0.703-1.257-0.357-0.308-0.807-0.462-1.35-0.462zM29.365 4.059h3.513v13.719h-3.513v-13.719zM35.901 4.059h3.513v13.719h-3.513v-13.719z"></path>
<path fill="#ff6b09" style="fill: var(--color2, #ff6b09)" d="M4.614 29.724h-1.849l-0.353 0.853h-0.944l1.775-3.982h0.91l1.781 3.982h-0.967l-0.353-0.853zM4.324 29.025l-0.631-1.525-0.631 1.525h1.263zM11.626 29.827v1.576h-0.853v-0.825h-2.81v0.825h-0.853l0.006-1.576h0.159c0.239-0.008 0.408-0.182 0.506-0.523s0.159-0.829 0.182-1.462l0.045-1.246h3.061v3.231h0.557zM8.776 27.927c-0.019 0.474-0.059 0.872-0.119 1.195-0.061 0.319-0.154 0.554-0.279 0.705h1.781v-2.48h-1.365l-0.017 0.58zM15.154 30.646c-0.406 0-0.774-0.087-1.104-0.262-0.326-0.178-0.584-0.423-0.774-0.734-0.186-0.315-0.279-0.669-0.279-1.064s0.093-0.747 0.279-1.058c0.19-0.315 0.448-0.559 0.774-0.734 0.33-0.178 0.7-0.267 1.109-0.267 0.345 0 0.656 0.061 0.933 0.182 0.281 0.121 0.516 0.296 0.705 0.523l-0.592 0.546c-0.269-0.311-0.603-0.466-1.001-0.466-0.246 0-0.466 0.055-0.66 0.165-0.193 0.106-0.345 0.256-0.455 0.449-0.106 0.193-0.159 0.413-0.159 0.66s0.053 0.466 0.159 0.66c0.11 0.193 0.262 0.345 0.455 0.455 0.193 0.106 0.413 0.159 0.66 0.159 0.398 0 0.732-0.157 1.001-0.472l0.592 0.546c-0.19 0.231-0.425 0.408-0.705 0.529s-0.594 0.182-0.939 0.182zM19.964 28.974h-0.637v1.604h-0.916v-3.982h0.916v1.61h0.66l1.047-1.61h0.973l-1.303 1.923 1.343 2.059h-1.047l-1.035-1.604zM23.502 26.596h0.916v2.594l1.9-2.594h0.865v3.982h-0.91v-2.588l-1.9 2.588h-0.87v-3.982zM29.198 26.596h0.916v2.594l1.9-2.594h0.865v3.982h-0.91v-2.588l-1.9 2.588h-0.87v-3.982zM31.036 26.34c-0.728 0-1.096-0.29-1.104-0.87h0.631c0.008 0.277 0.165 0.415 0.472 0.415 0.152 0 0.267-0.034 0.347-0.102 0.080-0.072 0.121-0.176 0.125-0.313h0.631c-0.004 0.284-0.097 0.501-0.279 0.649s-0.457 0.222-0.825 0.222z"></path>
<path fill="#111518" style="fill: var(--color1, #111518)" d="M40.226 29.724h-1.849l-0.353 0.853h-0.944l1.775-3.982h0.91l1.781 3.982h-0.967l-0.353-0.853zM39.936 29.025l-0.631-1.525-0.631 1.525h1.263zM46.75 26.596v3.982h-0.922v-1.633h-1.809v1.633h-0.922v-3.982h0.922v1.57h1.809v-1.57h0.922zM51.577 27.346h-1.894l0.006 3.231h-0.916v-3.982h2.81l-0.006 0.751zM56.224 26.596v3.982h-0.91v-3.231h-1.365l-0.028 0.831c-0.019 0.565-0.065 1.024-0.137 1.377-0.072 0.349-0.193 0.618-0.364 0.808-0.167 0.186-0.402 0.279-0.705 0.279-0.125 0-0.277-0.021-0.455-0.063l0.057-0.779c0.049 0.015 0.104 0.023 0.165 0.023 0.22 0 0.374-0.129 0.461-0.387 0.087-0.262 0.142-0.669 0.165-1.223l0.057-1.616h3.061zM58.242 26.596h0.916v2.594l1.9-2.594h0.865v3.982h-0.91v-2.588l-1.9 2.588h-0.87v-3.982zM63.938 26.596h0.916v2.594l1.9-2.594h0.865v3.982h-0.91v-2.588l-1.9 2.588h-0.87v-3.982zM65.776 26.34c-0.728 0-1.096-0.29-1.104-0.87h0.631c0.008 0.277 0.165 0.415 0.472 0.415 0.152 0 0.267-0.034 0.347-0.102 0.080-0.072 0.121-0.176 0.125-0.313h0.631c-0.004 0.284-0.097 0.501-0.279 0.649s-0.457 0.222-0.825 0.222zM71.518 30.646c-0.406 0-0.774-0.087-1.104-0.262-0.326-0.178-0.584-0.423-0.774-0.734-0.186-0.315-0.279-0.669-0.279-1.064s0.093-0.747 0.279-1.058c0.19-0.315 0.448-0.559 0.774-0.734 0.33-0.178 0.7-0.267 1.109-0.267 0.345 0 0.656 0.061 0.933 0.182 0.28 0.121 0.516 0.296 0.705 0.523l-0.592 0.546c-0.269-0.311-0.603-0.466-1.001-0.466-0.247 0-0.467 0.055-0.66 0.165-0.193 0.106-0.345 0.256-0.455 0.449-0.106 0.193-0.159 0.413-0.159 0.66s0.053 0.466 0.159 0.66c0.11 0.193 0.262 0.345 0.455 0.455 0.193 0.106 0.413 0.159 0.66 0.159 0.398 0 0.732-0.157 1.001-0.472l0.592 0.546c-0.19 0.231-0.425 0.408-0.705 0.529s-0.594 0.182-0.939 0.182zM76.329 28.974h-0.637v1.604h-0.916v-3.982h0.916v1.61h0.66l1.047-1.61h0.973l-1.303 1.923 1.343 2.059h-1.047l-1.035-1.604zM79.866 26.596h0.916v2.594l1.9-2.594h0.865v3.982h-0.91v-2.588l-1.9 2.588h-0.87v-3.982zM85.562 26.596h0.916v2.594l1.9-2.594h0.865v3.982h-0.91v-2.588l-1.9 2.588h-0.87v-3.982zM87.4 26.34c-0.728 0-1.096-0.29-1.104-0.87h0.631c0.008 0.277 0.165 0.415 0.472 0.415 0.151 0 0.267-0.034 0.347-0.102 0.080-0.072 0.122-0.176 0.125-0.313h0.631c-0.004 0.284-0.097 0.501-0.279 0.649s-0.457 0.222-0.825 0.222z"></path>
<path fill="#111518" style="fill: var(--color1, #111518)" d="M74.263 14.949v2.829h-10.391v-12.942h10.15v2.829h-6.527v2.182h5.75v2.736h-5.75v2.367h6.767zM89.348 4.836v12.942h-3.014l-5.713-6.896v6.896h-3.587v-12.942h3.014l5.713 6.896v-6.896h3.587z"></path>
<path fill="#ff6b09" style="fill: var(--color2, #ff6b09)" d="M58.695 11.062c-0.189-0.423-0.45-0.84-0.831-1.322-0.962-1.209-1.255-3.905-1.258-3.931-0.013-0.129-0.104-0.236-0.225-0.275-0.124-0.039-0.257-0.003-0.345 0.094-1.147 1.283-0.665 3.265-0.404 4.057 0.072 0.217 0.15 0.472 0.205 0.731 0.424 2.091-0.394 3.038-0.587 3.229-0.186 0.052-0.313 0.026-0.43-0.1-0.404-0.443-0.538-1.894-0.349-3.785 0.039-0.385 0.029-0.731-0.026-1.054-0.399-2.324-1.86-3.815-2.233-4.338-1.023-1.513-1.128-4.031-1.131-4.053-0.003-0.12-0.072-0.226-0.179-0.278-0.104-0.052-0.231-0.045-0.329 0.023-1.708 1.16-1.561 3.956-1.323 5.518 0.055 0.362 0.163 0.731 0.349 1.196 0.662 1.665-0.13 3.814-0.137 3.834s-0.013 0.036-0.016 0.055c-0.101 0.53-0.27 0.847-0.46 0.847-0.020 0-0.039-0.003-0.062-0.010-0.231-0.048-0.352-0.294-0.355-0.507-0.013-2.757-2.78-3.685-2.81-3.694-0.124-0.039-0.261-0.003-0.345 0.097-0.088 0.1-0.104 0.239-0.046 0.356 0.033 0.068 0.137 0.365 0.065 1.416-0.062 0.944-0.235 1.878-0.512 2.773-0.658 2.146-0.554 4.179-0.548 4.276 0.506 5.505 8.423 6.469 13.122 3.368 0.515-0.339 0.935-0.727 1.245-1.154 1.734-2.392 0.714-5.64-0.046-7.366zM46.652 16.321c0.010 0.178-0.127 0.33-0.306 0.339h-0.020c-0.173 0-0.316-0.132-0.326-0.304-0.029-0.472-0.023-0.966 0.013-1.503 0.013-0.178 0.169-0.31 0.349-0.301 0.179 0.013 0.316 0.168 0.303 0.346-0.036 0.511-0.042 0.976-0.013 1.422zM46.811 13.457c-0.020 0.165-0.16 0.284-0.323 0.284-0.013 0-0.026 0-0.042-0.003-0.176-0.023-0.303-0.181-0.284-0.359l0.156-1.248c0.023-0.175 0.182-0.301 0.365-0.281 0.179 0.023 0.306 0.184 0.284 0.362l-0.156 1.244z"></path>
<path fill="#ff6b09" style="fill: var(--color2, #ff6b09)" d="M56.489 4.422c-0.178-0.027-0.3-0.192-0.272-0.368 0.020-0.131 0.138-0.804 0.458-1.142 0.123-0.13 0.329-0.137 0.461-0.015s0.138 0.327 0.015 0.457c-0.135 0.143-0.251 0.553-0.289 0.798-0.028 0.174-0.192 0.297-0.372 0.27z"></path>
<path fill="#ff6b09" style="fill: var(--color2, #ff6b09)" d="M44.608 6.032c-0.062-0.24-0.217-0.637-0.366-0.766-0.135-0.118-0.149-0.322-0.030-0.456s0.324-0.148 0.46-0.030c0.351 0.305 0.535 0.963 0.568 1.092 0.045 0.173-0.060 0.349-0.235 0.393-0.178 0.044-0.353-0.063-0.397-0.232z"></path>
</symbol>
<symbol id="logo-white" viewBox="0 0 91 32">
<path fill="#fff" style="fill: var(--color3, #fff)" d="M13.608 4.836v12.942h-3.661v-5.047h-4.992v5.047h-3.661v-12.942h3.661v4.863h4.992v-4.863h3.661zM27.006 12.786c0 0.025-0.018 0.314-0.055 0.869h-7.285c0.148 0.518 0.431 0.918 0.851 1.202 0.431 0.271 0.968 0.407 1.609 0.407 0.481 0 0.894-0.068 1.239-0.203 0.357-0.136 0.715-0.357 1.072-0.666l1.849 1.923c-0.974 1.085-2.397 1.627-4.271 1.627-1.171 0-2.2-0.222-3.088-0.666s-1.578-1.060-2.071-1.849c-0.481-0.789-0.721-1.683-0.721-2.681 0-0.986 0.234-1.867 0.703-2.644 0.481-0.789 1.14-1.405 1.978-1.849s1.781-0.666 2.829-0.666c0.998 0 1.904 0.21 2.718 0.629 0.814 0.407 1.454 1.005 1.923 1.793 0.481 0.777 0.721 1.701 0.721 2.773zM21.663 10.086c-0.542 0-0.998 0.154-1.368 0.462-0.357 0.308-0.586 0.727-0.684 1.257h4.105c-0.099-0.53-0.333-0.949-0.703-1.257-0.357-0.308-0.807-0.462-1.35-0.462zM29.365 4.059h3.513v13.719h-3.513v-13.719zM35.901 4.059h3.513v13.719h-3.513v-13.719z"></path>
<path fill="#ff6b09" style="fill: var(--color2, #ff6b09)" d="M4.614 29.724h-1.849l-0.353 0.853h-0.944l1.775-3.982h0.91l1.781 3.982h-0.967l-0.353-0.853zM4.324 29.025l-0.631-1.525-0.631 1.525h1.263zM11.626 29.827v1.576h-0.853v-0.825h-2.81v0.825h-0.853l0.006-1.576h0.159c0.239-0.008 0.408-0.182 0.506-0.523s0.159-0.829 0.182-1.462l0.045-1.246h3.061v3.231h0.557zM8.776 27.927c-0.019 0.474-0.059 0.872-0.119 1.195-0.061 0.319-0.154 0.554-0.279 0.705h1.781v-2.48h-1.365l-0.017 0.58zM15.154 30.646c-0.406 0-0.774-0.087-1.104-0.262-0.326-0.178-0.584-0.423-0.774-0.734-0.186-0.315-0.279-0.669-0.279-1.064s0.093-0.747 0.279-1.058c0.19-0.315 0.448-0.559 0.774-0.734 0.33-0.178 0.7-0.267 1.109-0.267 0.345 0 0.656 0.061 0.933 0.182 0.281 0.121 0.516 0.296 0.705 0.523l-0.592 0.546c-0.269-0.311-0.603-0.466-1.001-0.466-0.246 0-0.466 0.055-0.66 0.165-0.193 0.106-0.345 0.256-0.455 0.449-0.106 0.193-0.159 0.413-0.159 0.66s0.053 0.466 0.159 0.66c0.11 0.193 0.262 0.345 0.455 0.455 0.193 0.106 0.413 0.159 0.66 0.159 0.398 0 0.732-0.157 1.001-0.472l0.592 0.546c-0.19 0.231-0.425 0.408-0.705 0.529s-0.594 0.182-0.939 0.182zM19.964 28.974h-0.637v1.604h-0.916v-3.982h0.916v1.61h0.66l1.047-1.61h0.973l-1.303 1.923 1.343 2.059h-1.047l-1.035-1.604zM23.502 26.596h0.916v2.594l1.9-2.594h0.865v3.982h-0.91v-2.588l-1.9 2.588h-0.87v-3.982zM29.198 26.596h0.916v2.594l1.9-2.594h0.865v3.982h-0.91v-2.588l-1.9 2.588h-0.87v-3.982zM31.036 26.34c-0.728 0-1.096-0.29-1.104-0.87h0.631c0.008 0.277 0.165 0.415 0.472 0.415 0.152 0 0.267-0.034 0.347-0.102 0.080-0.072 0.121-0.176 0.125-0.313h0.631c-0.004 0.284-0.097 0.501-0.279 0.649s-0.457 0.222-0.825 0.222z"></path>
<path fill="#fff" style="fill: var(--color3, #fff)" d="M40.226 29.724h-1.849l-0.353 0.853h-0.944l1.775-3.982h0.91l1.781 3.982h-0.967l-0.353-0.853zM39.936 29.025l-0.631-1.525-0.631 1.525h1.263zM46.75 26.596v3.982h-0.922v-1.633h-1.809v1.633h-0.922v-3.982h0.922v1.57h1.809v-1.57h0.922zM51.577 27.346h-1.894l0.006 3.231h-0.916v-3.982h2.81l-0.006 0.751zM56.224 26.596v3.982h-0.91v-3.231h-1.365l-0.028 0.831c-0.019 0.565-0.065 1.024-0.137 1.377-0.072 0.349-0.193 0.618-0.364 0.808-0.167 0.186-0.402 0.279-0.705 0.279-0.125 0-0.277-0.021-0.455-0.063l0.057-0.779c0.049 0.015 0.104 0.023 0.165 0.023 0.22 0 0.374-0.129 0.461-0.387 0.087-0.262 0.142-0.669 0.165-1.223l0.057-1.616h3.061zM58.242 26.596h0.916v2.594l1.9-2.594h0.865v3.982h-0.91v-2.588l-1.9 2.588h-0.87v-3.982zM63.938 26.596h0.916v2.594l1.9-2.594h0.865v3.982h-0.91v-2.588l-1.9 2.588h-0.87v-3.982zM65.776 26.34c-0.728 0-1.096-0.29-1.104-0.87h0.631c0.008 0.277 0.165 0.415 0.472 0.415 0.152 0 0.267-0.034 0.347-0.102 0.080-0.072 0.121-0.176 0.125-0.313h0.631c-0.004 0.284-0.097 0.501-0.279 0.649s-0.457 0.222-0.825 0.222zM71.518 30.646c-0.406 0-0.774-0.087-1.104-0.262-0.326-0.178-0.584-0.423-0.774-0.734-0.186-0.315-0.279-0.669-0.279-1.064s0.093-0.747 0.279-1.058c0.19-0.315 0.448-0.559 0.774-0.734 0.33-0.178 0.7-0.267 1.109-0.267 0.345 0 0.656 0.061 0.933 0.182 0.28 0.121 0.516 0.296 0.705 0.523l-0.592 0.546c-0.269-0.311-0.603-0.466-1.001-0.466-0.247 0-0.467 0.055-0.66 0.165-0.193 0.106-0.345 0.256-0.455 0.449-0.106 0.193-0.159 0.413-0.159 0.66s0.053 0.466 0.159 0.66c0.11 0.193 0.262 0.345 0.455 0.455 0.193 0.106 0.413 0.159 0.66 0.159 0.398 0 0.732-0.157 1.001-0.472l0.592 0.546c-0.19 0.231-0.425 0.408-0.705 0.529s-0.594 0.182-0.939 0.182zM76.329 28.974h-0.637v1.604h-0.916v-3.982h0.916v1.61h0.66l1.047-1.61h0.973l-1.303 1.923 1.343 2.059h-1.047l-1.035-1.604zM79.866 26.596h0.916v2.594l1.9-2.594h0.865v3.982h-0.91v-2.588l-1.9 2.588h-0.87v-3.982zM85.562 26.596h0.916v2.594l1.9-2.594h0.865v3.982h-0.91v-2.588l-1.9 2.588h-0.87v-3.982zM87.4 26.34c-0.728 0-1.096-0.29-1.104-0.87h0.631c0.008 0.277 0.165 0.415 0.472 0.415 0.151 0 0.267-0.034 0.347-0.102 0.080-0.072 0.122-0.176 0.125-0.313h0.631c-0.004 0.284-0.097 0.501-0.279 0.649s-0.457 0.222-0.825 0.222z"></path>
<path fill="#fff" style="fill: var(--color3, #fff)" d="M74.263 14.949v2.829h-10.391v-12.942h10.15v2.829h-6.527v2.182h5.75v2.736h-5.75v2.367h6.767zM89.348 4.836v12.942h-3.014l-5.713-6.896v6.896h-3.587v-12.942h3.014l5.713 6.896v-6.896h3.587z"></path>
<path fill="#ff6b09" style="fill: var(--color2, #ff6b09)" d="M58.695 11.062c-0.189-0.423-0.45-0.84-0.831-1.322-0.962-1.209-1.255-3.905-1.258-3.931-0.013-0.129-0.104-0.236-0.225-0.275-0.124-0.039-0.257-0.003-0.345 0.094-1.147 1.283-0.665 3.265-0.404 4.057 0.072 0.217 0.15 0.472 0.205 0.731 0.424 2.091-0.394 3.038-0.587 3.229-0.186 0.052-0.313 0.026-0.43-0.1-0.404-0.443-0.538-1.894-0.349-3.785 0.039-0.385 0.029-0.731-0.026-1.054-0.399-2.324-1.86-3.815-2.233-4.338-1.023-1.513-1.128-4.031-1.131-4.053-0.003-0.12-0.072-0.226-0.179-0.278-0.104-0.052-0.231-0.045-0.329 0.023-1.708 1.16-1.561 3.956-1.323 5.518 0.055 0.362 0.163 0.731 0.349 1.196 0.662 1.665-0.13 3.814-0.137 3.834s-0.013 0.036-0.016 0.055c-0.101 0.53-0.27 0.847-0.46 0.847-0.020 0-0.039-0.003-0.062-0.010-0.231-0.048-0.352-0.294-0.355-0.507-0.013-2.757-2.78-3.685-2.81-3.694-0.124-0.039-0.261-0.003-0.345 0.097-0.088 0.1-0.104 0.239-0.046 0.356 0.033 0.068 0.137 0.365 0.065 1.416-0.062 0.944-0.235 1.878-0.512 2.773-0.658 2.146-0.554 4.179-0.548 4.276 0.506 5.505 8.423 6.469 13.122 3.368 0.515-0.339 0.935-0.727 1.245-1.154 1.734-2.392 0.714-5.64-0.046-7.366zM46.652 16.321c0.010 0.178-0.127 0.33-0.306 0.339h-0.020c-0.173 0-0.316-0.132-0.326-0.304-0.029-0.472-0.023-0.966 0.013-1.503 0.013-0.178 0.169-0.31 0.349-0.301 0.179 0.013 0.316 0.168 0.303 0.346-0.036 0.511-0.042 0.976-0.013 1.422zM46.811 13.457c-0.020 0.165-0.16 0.284-0.323 0.284-0.013 0-0.026 0-0.042-0.003-0.176-0.023-0.303-0.181-0.284-0.359l0.156-1.248c0.023-0.175 0.182-0.301 0.365-0.281 0.179 0.023 0.306 0.184 0.284 0.362l-0.156 1.244z"></path>
<path fill="#ff6b09" style="fill: var(--color2, #ff6b09)" d="M56.489 4.422c-0.178-0.027-0.3-0.192-0.272-0.368 0.020-0.131 0.138-0.804 0.458-1.142 0.123-0.13 0.329-0.137 0.461-0.015s0.138 0.327 0.015 0.457c-0.135 0.143-0.251 0.553-0.289 0.798-0.028 0.174-0.192 0.297-0.372 0.27z"></path>
<path fill="#ff6b09" style="fill: var(--color2, #ff6b09)" d="M44.608 6.032c-0.062-0.24-0.217-0.637-0.366-0.766-0.135-0.118-0.149-0.322-0.030-0.456s0.324-0.148 0.46-0.030c0.351 0.305 0.535 0.963 0.568 1.092 0.045 0.173-0.060 0.349-0.235 0.393-0.178 0.044-0.353-0.063-0.397-0.232z"></path>
</symbol>

<symbol id="icon-instagram" viewBox="0 0 32 32">
<path fill="#ff6b09" style="fill: var(--color2, #ff6b09)" d="M0.528 10.029c0.103-0.724 0.181-1.452 0.311-2.171 0.739-4.072 3.622-6.842 7.743-6.984 4.963-0.171 9.941-0.18 14.903-0.001 4.486 0.161 7.735 3.483 7.875 7.971 0.149 4.765 0.149 9.542 0 14.307-0.14 4.488-3.388 7.809-7.875 7.971-4.962 0.179-9.941 0.184-14.903-0.003-4.487-0.169-7.589-3.498-7.889-7.992-0.026-0.389-0.109-0.774-0.166-1.161 0-3.979 0-7.958 0-11.937zM16.004 28.463c2.271 0 4.544 0.068 6.812-0.016 3.556-0.132 5.743-2.254 5.826-5.806 0.103-4.426 0.103-8.859 0-13.286-0.083-3.552-2.272-5.723-5.826-5.799-4.511-0.095-9.028-0.095-13.539 0-3.527 0.074-5.721 2.202-5.817 5.714-0.122 4.482-0.122 8.973 0 13.455 0.096 3.512 2.289 5.591 5.817 5.721 2.239 0.083 4.484 0.016 6.727 0.016z"></path>
<path fill="#ff6b09" style="fill: var(--color2, #ff6b09)" d="M16 8.115c-4.355 0-7.885 3.53-7.885 7.885s3.531 7.885 7.885 7.885c4.355 0 7.885-3.53 7.885-7.885s-3.53-7.885-7.885-7.885zM16 21.17c-2.856 0-5.171-2.315-5.171-5.171s2.315-5.17 5.171-5.17 5.17 2.315 5.17 5.171c0 2.856-2.315 5.171-5.17 5.171z"></path>
<path fill="#ff6b09" style="fill: var(--color2, #ff6b09)" d="M26.222 7.755c0 1.036-0.84 1.876-1.876 1.876s-1.876-0.84-1.876-1.876c0-1.036 0.84-1.876 1.876-1.876s1.876 0.84 1.876 1.876z"></path>
</symbol>

<symbol id="icon-menu" viewBox="10 9 14 14">
<path d="M6.4 11.733v-2.133h19.2v2.133h-19.2zM6.4 17.067h19.2v-2.133h-19.2v2.133zM6.4 22.4h19.2v-2.133h-19.2v2.133z"></path>
</symbol>

<symbol id="icon-cross" viewBox="2 1 30 30">
<path   d="M32 3.223l-3.223-3.223-12.777 12.777-12.777-12.777-3.223 3.223 12.777 12.777-12.777 12.777 3.223 3.223 12.777-12.777 12.777 12.777 3.223-3.223-12.777-12.777 12.777-12.777z"></path>
</symbol>

</defs>
</svg>
