<svg aria-hidden="true" style="position: absolute; width: 0; height: 0; overflow: hidden;" version="1.1" xmlns="http://www.w3.org/2000/svg" xmlns:xlink="http://www.w3.org/1999/xlink">
<defs>
<symbol id="icon-favorite" viewBox="0 0 32 32">
<path fill="#ff6b08" style="fill: var(--color1, #ff6b08)" d="M16 30.144l-2.24-2.218c-8.32-7.287-13.76-12.198-13.76-18.218 0-4.911 3.84-8.713 8.8-8.713 2.72 0 5.44 1.267 7.2 3.327 1.76-2.059 4.48-3.327 7.2-3.327 4.96 0 8.8 3.802 8.8 8.713 0 6.020-5.44 10.931-13.76 18.218l-2.24 2.218z"></path>
</symbol>
<symbol id="icon-search-2" viewBox="0 0 32 32">
<path fill="none" stroke="#fff" style="stroke: var(--color2, #fff)" stroke-linejoin="round" stroke-linecap="round" stroke-miterlimit="4" stroke-width="2.6667" d="M14.667 25.333c5.891 0 10.667-4.776 10.667-10.667s-4.776-10.667-10.667-10.667c-5.891 0-10.667 4.776-10.667 10.667s4.776 10.667 10.667 10.667z"></path>
<path fill="none" stroke="#fff" style="stroke: var(--color2, #fff)" stroke-linejoin="round" stroke-linecap="round" stroke-miterlimit="4" stroke-width="2.6667" d="M28 28l-5.8-5.8"></path>
</symbol>
<symbol id="icon-film" viewBox="0 0 32 32">
<path fill="none" stroke="#818181" style="stroke: var(--color3, #818181)" stroke-linejoin="round" stroke-linecap="round" stroke-miterlimit="4" stroke-width="2.6667" d="M26.427 2.667h-20.853c-1.605 0-2.907 1.301-2.907 2.907v20.853c0 1.605 1.301 2.907 2.907 2.907h20.853c1.605 0 2.907-1.301 2.907-2.907v-20.853c0-1.605-1.301-2.907-2.907-2.907z"></path>
<path fill="none" stroke="#818181" style="stroke: var(--color3, #818181)" stroke-linejoin="round" stroke-linecap="round" stroke-miterlimit="4" stroke-width="2.6667" d="M9.333 2.667v26.667"></path>
<path fill="none" stroke="#818181" style="stroke: var(--color3, #818181)" stroke-linejoin="round" stroke-linecap="round" stroke-miterlimit="4" stroke-width="2.6667" d="M22.667 2.667v26.667"></path>
<path fill="none" stroke="#818181" style="stroke: var(--color3, #818181)" stroke-linejoin="round" stroke-linecap="round" stroke-miterlimit="4" stroke-width="2.6667" d="M2.667 16h26.667"></path>
<path fill="none" stroke="#818181" style="stroke: var(--color3, #818181)" stroke-linejoin="round" stroke-linecap="round" stroke-miterlimit="4" stroke-width="2.6667" d="M2.667 9.333h6.667"></path>
<path fill="none" stroke="#818181" style="stroke: var(--color3, #818181)" stroke-linejoin="round" stroke-linecap="round" stroke-miterlimit="4" stroke-width="2.6667" d="M2.667 22.667h6.667"></path>
<path fill="none" stroke="#818181" style="stroke: var(--color3, #818181)" stroke-linejoin="round" stroke-linecap="round" stroke-miterlimit="4" stroke-width="2.6667" d="M22.667 22.667h6.667"></path>
<path fill="none" stroke="#818181" style="stroke: var(--color3, #818181)" stroke-linejoin="round" stroke-linecap="round" stroke-miterlimit="4" stroke-width="2.6667" d="M22.667 9.333h6.667"></path>
</symbol>
<symbol id="icon-close-black" viewBox="0 0 32 32"><path d="M26.667 7.303l-1.97-1.97-7.808 7.808-7.808-7.808-1.97 1.97 7.808 7.808-7.808 7.808 1.97 1.97 7.808-7.808 7.808 7.808 1.97-1.97-7.808-7.808 7.808-7.808z"/></symbol>
</defs>
</svg>
