<svg aria-hidden="true" style="position: absolute; width: 0; height: 0; overflow: hidden;" version="1.1" xmlns="http://www.w3.org/2000/svg" xmlns:xlink="http://www.w3.org/1999/xlink">
<defs>
<symbol id="icon-parentheses" viewBox="0 0 32 32">
<path d="M23.714 4.148c1.428 0 2.777 0.385 4.047 1.156s2.302 1.879 3.095 3.324c0.762 1.445 1.143 3.148 1.143 5.107s-0.476 3.87-1.428 5.733c-0.318 0.674-0.889 1.541-1.715 2.601-0.857 1.060-1.65 1.975-2.38 2.746l-3 3.035-2.143-3.565c1.528-0.964 2.832-2.115 3.931-3.442l0.022-0.027c1.143-1.349 1.714-2.585 1.714-3.71 0-0.578-0.127-1.044-0.38-1.397-1.111 0.803-2.35 1.205-3.714 1.205-0.984 0-1.921-0.305-2.809-0.916-0.917-0.579-1.657-1.359-2.174-2.28l-0.016-0.032c-0.571-0.932-0.857-1.895-0.857-2.891 0-1.125 0.333-2.2 1-3.228 0.641-1.029 1.489-1.871 2.491-2.486l0.033-0.019c1.015-0.61 2.062-0.916 3.142-0.916zM6.619 4.148c1.428 0 2.777 0.385 4.047 1.156s2.302 1.879 3.095 3.324c0.762 1.445 1.143 3.148 1.143 5.107 0 1.381-0.175 2.617-0.524 3.71-0.35 1.124-0.952 2.296-1.81 3.517-0.825 1.156-1.603 2.12-2.333 2.891-0.73 0.803-2 2.136-3.81 3.999l-2.143-3.565c1.528-0.964 2.832-2.115 3.931-3.442l0.022-0.027c1.143-1.349 1.714-2.585 1.714-3.71 0-0.578-0.127-1.044-0.381-1.397-1.111 0.803-2.35 1.205-3.714 1.205-0.984 0-1.921-0.305-2.809-0.916-0.917-0.579-1.657-1.359-2.174-2.28l-0.016-0.032c-0.571-0.932-0.857-1.895-0.857-2.891 0-1.125 0.318-2.2 0.952-3.228 0.641-1.029 1.489-1.871 2.491-2.486l0.033-0.019c1.015-0.61 2.062-0.916 3.143-0.916z"></path>
</symbol>
<symbol id="icon-arrow" viewBox="0 0 32 32">
<path d="M27.354 16.354l-9 9c-0.090 0.087-0.212 0.14-0.347 0.14-0.276 0-0.5-0.224-0.5-0.5 0-0.135 0.053-0.258 0.14-0.348l8.146-8.146h-20.793c-0.276 0-0.5-0.224-0.5-0.5s0.224-0.5 0.5-0.5v0h20.793l-8.146-8.146c-0.087-0.090-0.14-0.212-0.14-0.347 0-0.276 0.224-0.5 0.5-0.5 0.135 0 0.258 0.053 0.348 0.141l9 9c0.090 0.090 0.146 0.215 0.146 0.353s-0.056 0.263-0.146 0.354v0z"></path>
</symbol>
<symbol id="icon-home" viewBox="0 0 32 32">
<path d="M31.618 15.643c0.237-0.258 0.382-0.603 0.382-0.983 0-0.438-0.194-0.832-0.501-1.098l-0.002-0.002-13.637-11.931c-0.293-0.248-0.676-0.399-1.093-0.399-0.431 0-0.824 0.16-1.124 0.425l0.002-0.002-13.681 12.544c-0.292 0.266-0.474 0.647-0.474 1.071 0 0.391 0.155 0.746 0.408 1.007l-0-0 0.345 0.357c0.566 0.591 1.487 0.665 2.053 0.158l1.022-0.916v13.406c0 0.825 0.665 1.489 1.489 1.489h5.329c0.822 0 1.489-0.665 1.489-1.489v-9.378h6.806v9.378c-0.012 0.822 0.576 1.489 1.398 1.489h5.652c0.822 0 1.487-0.665 1.487-1.489v-13.218l0.633 0.556c0.347 0.305 1.078 0.059 1.63-0.549l0.389-0.426z"></path>
</symbol>
<symbol id="icon-telegram" viewBox="0 0 32 32">
<path d="M12.612 19.671l-0.49 6.444c0.703 0 1.007-0.282 1.372-0.62l3.292-2.938 6.822 4.665c1.251 0.65 2.134 0.307 2.473-1.075l4.477-19.587c0.399-1.727-0.669-2.401-1.887-1.978l-26.323 9.407c-1.796 0.652-1.77 1.585-0.305 2.012l6.729 1.952 15.632-9.129c0.736-0.455 1.405-0.204 0.855 0.252l-12.647 10.596z"></path>
</symbol>
<symbol id="icon-facebook" viewBox="0 0 32 32">
<path d="M22.143 15.971h-4.033v14.865h-6.112v-14.865h-2.906v-5.222h2.906v-3.382c0-2.417 1.142-6.204 6.167-6.204l4.527 0.019v5.072h-3.284c-0.538 0-1.297 0.272-1.297 1.425v3.073h4.567l-0.534 5.219z"></path>
</symbol>
<symbol id="icon-git" viewBox="0 0 32 32">
<path d="M16 0c-8.789 0-16 7.211-16 16 0 7.499 5.262 14.312 12.25 16v-5.293c-0.276 0.070-0.593 0.109-0.919 0.109-0.398 0-0.781-0.059-1.143-0.169l0.028 0.007c-0.946-0.278-1.714-0.909-2.285-1.869-0.363-0.613-1.008-1.28-1.68-1.23l-0.165-1.867c1.454-0.125 2.71 0.886 3.456 2.139 0.333 0.558 0.715 0.885 1.205 1.029 0.472 0.141 0.981 0.074 1.573-0.136 0.149-1.186 0.693-1.629 1.104-2.256-4.168-0.621-5.829-2.832-6.488-4.576-0.874-2.318-0.405-5.213 1.139-7.043 0.030-0.035 0.085-0.128 0.064-0.192-0.709-2.141 0.154-3.91 0.186-4.098 0.818 0.24 0.95-0.243 3.552 1.336l0.448 0.27c0.189 0.112 0.128 0.048 0.317 0.032 1.003-0.282 2.157-0.452 3.349-0.469l0.010-0c1.136 0.014 2.272 0.176 3.403 0.483l0.146 0.016c-0.013-0.003 0.040-0.010 0.128-0.062 3.248-1.968 3.131-1.325 4.003-1.608 0.032 0.189 0.882 1.987 0.182 4.099-0.096 0.291 2.816 2.957 1.202 7.235-0.659 1.744-2.32 3.957-6.486 4.578 0.534 0.816 1.176 1.248 1.173 2.928v6.606c6.986-1.688 12.25-8.501 12.25-16 0-8.789-7.211-16-16-16z"></path>
</symbol>
<symbol id="icon-close" viewBox="0 0 32 32">
<path fill="none" stroke="" stroke-linejoin="miter" stroke-linecap="butt" stroke-miterlimit="4" stroke-width="2" d="M2.519 2l26.963 28"></path>
<path fill="none" stroke="" stroke-linejoin="miter" stroke-linecap="butt" stroke-miterlimit="4" stroke-width="2" d="M2 29.481l28-26.963"></path>
</symbol>
<symbol id="icon-burger" viewBox="0 0 46 32">
<path stroke-linejoin="miter" stroke-linecap="butt" stroke-miterlimit="4" stroke-width="2.2857" d="M0 2.286h45.714"></path>
<path stroke-linejoin="miter" stroke-linecap="butt" stroke-miterlimit="4" stroke-width="2.2857" d="M0 16h45.714"></path>
<path stroke-linejoin="miter" stroke-linecap="butt" stroke-miterlimit="4" stroke-width="2.2857" d="M0 29.714h45.714"></path>
</symbol>
<symbol id="icon-arrow-more" viewBox="0 0 26 32">
<path fill="none" stroke="" stroke-linejoin="round" stroke-linecap="round" stroke-miterlimit="4" stroke-width="6.4" d="M5.172 3.2l14.169 12.8-14.169 12.8"></path>
</symbol>
</defs>
</svg>