<svg aria-hidden="true" style="position: absolute; width: 0; height: 0; overflow: hidden;" version="1.1"
    xmlns="http://www.w3.org/2000/svg"
    xmlns:xlink="http://www.w3.org/1999/xlink">
    <defs>
        <symbol id="vector-right-white" viewBox="0 0 19 32">
            <path fill="none" stroke="#fff" style="stroke: var(--color1, #fff)" stroke-linejoin="round" stroke-linecap="round" stroke-miterlimit="4" stroke-width="6.4" d="M3.2 3.2l11.552 12.8-11.552 12.8"></path>
        </symbol>
        <symbol id="vector-right-red" viewBox="0 0 26 32">
            <path fill="none" stroke="#d41443" style="stroke: var(--color2, #d41443)" stroke-linejoin="round" stroke-linecap="round" stroke-miterlimit="4" stroke-width="6.4" d="M3.542 3.2l16.826 12.8-16.826 12.8"></path>
        </symbol>

        <symbol id="telegram" viewBox="0 0 46 32">
            <path fill="#fff" style="fill: var(--color1, #fff)" d="M17.342 21.048l-0.674 8.86c0.966 0 1.384-0.388 1.886-0.852l4.526-4.040 9.38 6.414c1.72 0.894 2.934 0.422 3.4-1.478l6.156-26.932c0.548-2.374-0.92-3.302-2.594-2.72l-36.194 12.934c-2.47 0.896-2.434 2.18-0.42 2.766l9.252 2.684 21.494-12.552c1.012-0.626 1.932-0.28 1.176 0.346l-17.39 14.57z"></path>
        </symbol>

        <symbol id="home" viewBox="0 0 35 32">
            <path fill="#d31342" style="fill: var(--color3, #d31342)" d="M32.64 15.4c0.256-0.274 0.413-0.644 0.413-1.050 0-0.47-0.21-0.89-0.541-1.173l-0.002-0.002-14.773-12.749c-0.319-0.265-0.733-0.425-1.184-0.425-0.466 0-0.892 0.171-1.218 0.454l0.002-0.002-14.821 13.403c-0.316 0.282-0.515 0.69-0.515 1.145 0 0.42 0.169 0.8 0.443 1.077l-0-0 0.373 0.381c0.613 0.635 1.611 0.709 2.224 0.168l1.107-0.979v14.328c0.006 0.879 0.72 1.589 1.6 1.589 0.005 0 0.009-0 0.014-0h5.775c0.004 0 0.009 0 0.013 0 0.88 0 1.594-0.71 1.6-1.589v-10.025h7.371v10.024c-0.013 0.88 0.624 1.589 1.515 1.589h6.123c0.003 0 0.007 0 0.011 0 0.88 0 1.594-0.71 1.6-1.589v-14.126l0.685 0.592c0.376 0.325 1.168 0.064 1.765-0.587l0.421-0.453z"></path>
        </symbol>
        <symbol id="github" viewBox="0 0 32 32">
            <path fill="#fff" style="fill: var(--color1, #fff)" d="M16 0.941c-8.272 0-15.059 6.789-15.059 15.059 0 7.059 4.954 13.47 11.53 15.059v-4.982c-0.651 0.144-1.251 0.147-1.915-0.048-0.89-0.264-1.613-0.856-2.149-1.76-0.342-0.576-0.949-1.203-1.581-1.157l-0.155-1.758c1.368-0.117 2.55 0.834 3.253 2.014 0.312 0.525 0.672 0.832 1.133 0.968 0.445 0.131 0.923 0.069 1.482-0.128 0.139-1.117 0.651-1.536 1.037-2.123-3.922-0.586-5.485-2.667-6.106-4.309-0.822-2.181-0.381-4.906 1.072-6.627 0.029-0.032 0.080-0.122 0.061-0.182-0.667-2.014 0.144-3.68 0.176-3.856 0.768 0.227 0.893-0.229 3.341 1.258l0.422 0.254c0.176 0.106 0.122 0.045 0.299 0.032 0.943-0.266 2.029-0.428 3.15-0.445l0.010-0c1.147 0.018 2.247 0.183 3.294 0.478l-0.090-0.022 0.138 0.014c-0.013-0.002 0.037-0.010 0.12-0.059 3.056-1.851 2.947-1.246 3.766-1.512 0.030 0.176 0.832 1.869 0.171 3.856-0.088 0.275 2.651 2.784 1.133 6.811-0.621 1.643-2.184 3.723-6.106 4.309 0.502 0.768 1.107 1.174 1.104 2.755v6.219c6.576-1.589 11.53-8 11.53-15.059 0-8.272-6.787-15.059-15.059-15.059z"></path>
        </symbol>
        <symbol id="facebook" viewBox="0 0 16 32">
            <path fill="#fff" style="fill: var(--color1, #fff)" d="M14.266 15.97h-4.176v15.39h-6.328v-15.392h-3.008v-5.408h3.008v-3.498c0-2.504 1.184-6.422 6.384-6.422l4.688 0.019v5.25h-3.402c-0.557 0-1.342 0.282-1.342 1.475v3.184h4.73l-0.554 5.4z"></path>
        </symbol>
        <symbol id="close" viewBox="0 0 32 32">
            <path fill="none" stroke="#fff" style="stroke: var(--color1, #fff)" stroke-linejoin="miter" stroke-linecap="butt" stroke-miterlimit="4" stroke-width="2" d="M2.52 2l26.96 28M2 29.48l28-26.96"></path>
        </symbol>
        <symbol id="burger" viewBox="0 0 46 32">
            <path fill="none" stroke="#d41443" style="stroke: var(--color2, #d41443)" stroke-linejoin="miter" stroke-linecap="butt" stroke-miterlimit="4" stroke-width="2.2857" d="M0 2.286h45.714M0 16h45.714M0 29.714h45.714"></path>
        </symbol>
        <symbol id="untitled" viewBox="0 0 43 32">
            <path fill="#e1e1e1" style="fill: var(--color4, #e1e1e1)" d="M32.014 0c1.928 0 3.75 0.52 5.464 1.561s3.107 2.537 4.178 4.488c1.029 1.951 1.543 4.25 1.543 6.894s-0.643 5.225-1.928 7.74c-0.429 0.91-1.2 2.081-2.315 3.512-1.157 1.43-2.228 2.666-3.214 3.707l-4.050 4.098-2.893-4.813c2.063-1.302 3.824-2.855 5.306-4.646l0.030-0.037c1.542-1.821 2.314-3.49 2.314-5.008 0-0.781-0.171-1.41-0.514-1.886-1.5 1.084-3.172 1.626-5.014 1.626-1.328 0-2.593-0.412-3.793-1.236-1.237-0.782-2.237-1.834-2.935-3.078l-0.022-0.043c-0.771-1.258-1.157-2.558-1.157-3.902 0-1.518 0.45-2.97 1.35-4.358 0.866-1.389 2.011-2.526 3.364-3.356l0.044-0.025c1.37-0.824 2.784-1.236 4.242-1.236zM8.936 0c1.928 0 3.75 0.52 5.464 1.561s3.107 2.536 4.178 4.488c1.029 1.951 1.543 4.25 1.543 6.894 0 1.864-0.236 3.534-0.707 5.008-0.472 1.518-1.286 3.1-2.443 4.748-1.114 1.561-2.164 2.862-3.15 3.902-0.986 1.084-2.7 2.883-5.143 5.398l-2.893-4.813c2.063-1.302 3.824-2.855 5.306-4.646l0.030-0.037c1.542-1.821 2.314-3.49 2.314-5.008 0-0.781-0.172-1.41-0.514-1.886-1.5 1.084-3.172 1.626-5.014 1.626-1.328 0-2.593-0.412-3.793-1.236-1.237-0.782-2.237-1.834-2.935-3.078l-0.022-0.043c-0.771-1.258-1.157-2.558-1.157-3.902 0-1.518 0.429-2.97 1.286-4.358 0.866-1.389 2.011-2.526 3.364-3.356l0.045-0.025c1.37-0.824 2.784-1.236 4.242-1.236z"></path>
        </symbol>
        <symbol id="arrow-right" viewBox="0 0 32 32">
            <path d="M19.414 27.414l10-10c0.781-0.781 0.781-2.047 0-2.828l-10-10c-0.781-0.781-2.047-0.781-2.828 0s-0.781 2.047 0 2.828l6.586 6.586h-19.172c-1.105 0-2 0.895-2 2s0.895 2 2 2h19.172l-6.586 6.586c-0.39 0.39-0.586 0.902-0.586 1.414s0.195 1.024 0.586 1.414c0.781 0.781 2.047 0.781 2.828 0z"></path>
        </symbol>


        <svg id="logotype" width="199" height="50" viewBox="0 0 199 50" fill="none"
            xmlns="http://www.w3.org/2000/svg">
            <path d="M75.975 33.4C75.975 33.5833 75.4667 33.7333 74.45 33.85C73.4333 33.95 72.4083 34 71.375 34C70.3583 34 69.7083 33.9583 69.425 33.875C69.1417 33.775 69 33.6167 69 33.4V17.85C69 17.4833 69.4833 17.125 70.45 16.775C71.4167 16.4083 72.5 16.225 73.7 16.225C74.7667 16.225 75.4667 16.45 75.8 16.9C75.9167 17.0667 75.975 17.2333 75.975 17.4V33.4ZM90.5094 33.825C89.8427 33.975 89.1594 34.075 88.4594 34.125C87.776 34.1917 87.101 34.225 86.4344 34.225C85.7844 34.225 85.276 34.2083 84.9094 34.175C84.5594 34.1417 84.0927 34.0583 83.5094 33.925C82.926 33.7917 82.3927 33.6083 81.9094 33.375C81.426 33.1417 80.9094 32.8 80.3594 32.35C79.826 31.9 79.376 31.3667 79.0094 30.75C78.1594 29.3167 77.7344 27.4667 77.7344 25.2C77.7344 23.6833 77.9677 22.3417 78.4344 21.175C78.9177 20.0083 79.4927 19.1083 80.1594 18.475C80.8427 17.8417 81.6177 17.3333 82.4844 16.95C83.8844 16.3167 85.2927 16 86.7094 16C88.7427 16 90.201 16.1667 91.0844 16.5C91.4844 16.65 91.8427 16.8833 92.1594 17.2C92.476 17.5167 92.6344 17.975 92.6344 18.575C92.6344 19.175 92.4844 19.9333 92.1844 20.85C91.901 21.7667 91.4844 22.225 90.9344 22.225C90.7677 22.225 90.151 22.0917 89.0844 21.825C88.0177 21.5583 87.2927 21.425 86.9094 21.425C86.326 21.425 85.826 21.75 85.4094 22.4C85.0094 23.05 84.8094 23.975 84.8094 25.175C84.8094 26.375 84.9844 27.3083 85.3344 27.975C85.701 28.6417 86.176 28.975 86.7594 28.975C87.176 28.975 87.926 28.8083 89.0094 28.475C90.1094 28.125 90.751 27.95 90.9344 27.95C91.451 27.95 91.851 28.425 92.1344 29.375C92.4344 30.325 92.5844 31.0917 92.5844 31.675C92.5844 32.2583 92.401 32.725 92.0344 33.075C91.6844 33.4083 91.176 33.6583 90.5094 33.825ZM107.066 34H96.4656C95.649 34 95.099 33.9417 94.8156 33.825C94.5323 33.7083 94.3906 33.525 94.3906 33.275V17.45C94.3906 17.0167 94.5823 16.7083 94.9656 16.525C95.3656 16.3417 96.074 16.25 97.0906 16.25H107.141C107.491 16.25 107.666 16.8333 107.666 18C107.666 19.15 107.591 20.0333 107.441 20.65C107.291 21.25 107.091 21.55 106.841 21.55C105.757 21.55 103.932 21.4417 101.366 21.225V22.9C103.832 22.8 105.441 22.75 106.191 22.75C106.641 22.75 106.866 23.275 106.866 24.325C106.866 25.375 106.774 26.175 106.591 26.725C106.424 27.2583 106.191 27.525 105.891 27.525L101.366 27.425V29.025C104.266 28.8083 106.266 28.7 107.366 28.7C107.716 28.7 107.891 29.2833 107.891 30.45C107.891 31.6167 107.816 32.5 107.666 33.1C107.516 33.7 107.316 34 107.066 34ZM122.174 33.825C121.508 33.975 120.824 34.075 120.124 34.125C119.441 34.1917 118.766 34.225 118.099 34.225C117.449 34.225 116.941 34.2083 116.574 34.175C116.224 34.1417 115.758 34.0583 115.174 33.925C114.591 33.7917 114.058 33.6083 113.574 33.375C113.091 33.1417 112.574 32.8 112.024 32.35C111.491 31.9 111.041 31.3667 110.674 30.75C109.824 29.3167 109.399 27.4667 109.399 25.2C109.399 23.6833 109.633 22.3417 110.099 21.175C110.583 20.0083 111.158 19.1083 111.824 18.475C112.508 17.8417 113.283 17.3333 114.149 16.95C115.549 16.3167 116.958 16 118.374 16C120.408 16 121.866 16.1667 122.749 16.5C123.149 16.65 123.508 16.8833 123.824 17.2C124.141 17.5167 124.299 17.975 124.299 18.575C124.299 19.175 124.149 19.9333 123.849 20.85C123.566 21.7667 123.149 22.225 122.599 22.225C122.433 22.225 121.816 22.0917 120.749 21.825C119.683 21.5583 118.958 21.425 118.574 21.425C117.991 21.425 117.491 21.75 117.074 22.4C116.674 23.05 116.474 23.975 116.474 25.175C116.474 26.375 116.649 27.3083 116.999 27.975C117.366 28.6417 117.841 28.975 118.424 28.975C118.841 28.975 119.591 28.8083 120.674 28.475C121.774 28.125 122.416 27.95 122.599 27.95C123.116 27.95 123.516 28.425 123.799 29.375C124.099 30.325 124.249 31.0917 124.249 31.675C124.249 32.2583 124.066 32.725 123.699 33.075C123.349 33.4083 122.841 33.6583 122.174 33.825ZM133.056 33.275C133.056 33.4917 132.547 33.6667 131.531 33.8C130.514 33.9333 129.489 34 128.456 34C127.439 34 126.781 33.9417 126.481 33.825C126.197 33.7083 126.056 33.525 126.056 33.275V17.2C126.056 16.7667 126.597 16.4583 127.681 16.275C128.781 16.0917 130.164 16 131.831 16C133.497 16 134.572 16.0083 135.056 16.025C135.556 16.025 136.139 16.05 136.806 16.1C137.472 16.15 137.997 16.2333 138.381 16.35C138.781 16.4667 139.214 16.6167 139.681 16.8C140.164 16.9833 140.539 17.225 140.806 17.525C141.072 17.8083 141.331 18.15 141.581 18.55C142.031 19.2667 142.256 20.2917 142.256 21.625C142.256 22.9417 142.031 24.0583 141.581 24.975C141.147 25.875 140.564 26.5583 139.831 27.025C141.747 30.0417 142.706 31.9583 142.706 32.775C142.706 33.5917 141.064 34 137.781 34C136.831 34 136.172 33.9583 135.806 33.875C135.439 33.7917 135.206 33.6083 135.106 33.325L133.481 28.175L133.056 28.15V33.275ZM133.056 24.3H133.706C134.672 24.3 135.156 23.55 135.156 22.05C135.156 21.2833 135.022 20.7417 134.756 20.425C134.506 20.1083 134.214 19.95 133.881 19.95H133.056V24.3ZM156.626 34H146.026C145.21 34 144.66 33.9417 144.376 33.825C144.093 33.7083 143.951 33.525 143.951 33.275V17.45C143.951 17.0167 144.143 16.7083 144.526 16.525C144.926 16.3417 145.635 16.25 146.651 16.25H156.701C157.051 16.25 157.226 16.8333 157.226 18C157.226 19.15 157.151 20.0333 157.001 20.65C156.851 21.25 156.651 21.55 156.401 21.55C155.318 21.55 153.493 21.4417 150.926 21.225V22.9C153.393 22.8 155.001 22.75 155.751 22.75C156.201 22.75 156.426 23.275 156.426 24.325C156.426 25.375 156.335 26.175 156.151 26.725C155.985 27.2583 155.751 27.525 155.451 27.525L150.926 27.425V29.025C153.826 28.8083 155.826 28.7 156.926 28.7C157.276 28.7 157.451 29.2833 157.451 30.45C157.451 31.6167 157.376 32.5 157.226 33.1C157.076 33.7 156.876 34 156.626 34ZM166.11 32.725C166.077 33.2083 165.818 33.5417 165.335 33.725C164.868 33.9083 164.018 34 162.785 34C161.552 34 160.518 33.8917 159.685 33.675C158.868 33.4417 158.46 33.15 158.46 32.8C158.46 32.4 159.202 29.85 160.685 25.15C162.168 20.4333 163.018 17.7167 163.235 17C163.318 16.7833 163.985 16.6083 165.235 16.475C166.502 16.325 167.852 16.25 169.285 16.25C170.735 16.25 171.535 16.5 171.685 17C174.835 27.4667 176.41 32.7833 176.41 32.95C176.41 33.1167 176.31 33.2833 176.11 33.45C175.643 33.8167 174.718 34 173.335 34C170.385 34 168.877 33.65 168.81 32.95L168.635 31.325H166.235L166.11 32.725ZM168.11 26.575L167.735 22.075H167.185L166.76 26.575H168.11ZM181.517 34C181.1 34 180.492 34 179.692 34C178.909 34 178.375 33.9417 178.092 33.825C177.809 33.7083 177.667 33.525 177.667 33.275V17.5C177.667 17.1167 178.175 16.8167 179.192 16.6C180.225 16.3667 181.325 16.25 182.492 16.25C183.659 16.25 184.492 16.4 184.992 16.7C185.492 17 185.784 17.3167 185.867 17.65L187.567 24.25H187.792L189.392 17.95C189.509 17.5 190.05 17.1083 191.017 16.775C192 16.425 193.075 16.25 194.242 16.25C195.409 16.25 196.267 16.3417 196.817 16.525C197.384 16.7083 197.667 16.9417 197.667 17.225V33.275C197.667 33.4917 197.192 33.6667 196.242 33.8C195.292 33.9333 194.134 34 192.767 34C191.4 34 190.717 33.7583 190.717 33.275C190.717 31.9583 190.859 29.6167 191.142 26.25H190.917L189.617 32.775C189.567 33.025 189.359 33.2083 188.992 33.325C188.642 33.4417 188.109 33.5 187.392 33.5C186.675 33.5 186.234 33.45 186.067 33.35C185.917 33.25 185.817 33.0583 185.767 32.775L184.417 26.25H184.192C184.492 29.6833 184.642 32.025 184.642 33.275C184.642 33.7083 183.6 33.95 181.517 34Z" fill="#D41442"/>
            <circle cx="25" cy="25" r="25" fill="#D41442"/>
            <path d="M12 32.6486V37C12 40.866 15.134 44 19 44H32C35.866 44 39 40.866 39 37V35.25V30.875M12 25.5541V22.5C12 15.0442 18.0442 9 25.5 9C32.9558 9 39 15.0442 39 22.5V26.5L12 25.5541Z" stroke="white" stroke-width="3"/>
            <path d="M35.4998 14.0007C35.4998 18.0007 29 19.5 25.5 19.5C22 19.5 15.5 18 15.5 14" stroke="white" stroke-width="3"/>
            <path fill-rule="evenodd" clip-rule="evenodd" d="M12.5 23.5C9.73858 23.5 7.5 25.7386 7.5 28.5C7.5 31.2614 9.73858 33.5 12.5 33.5H25.5V36C25.5 38.4853 27.5147 40.5 30 40.5C32.4853 40.5 34.5 38.4853 34.5 36V33.5H38.5C41.2614 33.5 43.5 31.2614 43.5 28.5C43.5 25.7386 41.2614 23.5 38.5 23.5H12.5ZM31.5 31V30.5H38.5C39.6046 30.5 40.5 29.6046 40.5 28.5C40.5 27.3954 39.6046 26.5 38.5 26.5H12.5C11.3954 26.5 10.5 27.3954 10.5 28.5C10.5 29.6046 11.3954 30.5 12.5 30.5H28.5V31V33.5V36C28.5 36.8284 29.1716 37.5 30 37.5C30.8284 37.5 31.5 36.8284 31.5 36V33.5V31Z" fill="white"/>
            <mask id="mask0" mask-type="alpha" maskUnits="userSpaceOnUse" x="0" y="0" width="50" height="50">
                <path d="M25 50C38.8071 50 50 38.8071 50 25C50 11.1929 38.8071 0 25 0C11.1929 0 0 11.1929 0 25C0 38.8071 11.1929 50 25 50Z" fill="white"/>
            </mask>
            <g mask="url(#mask0)">
                <path d="M32.5 50V43M18.5 50V43V50Z" stroke="white" stroke-width="3"/>
            </g>
        </svg>
    </defs>
</svg>

