<svg aria-hidden="true" style="position: absolute; width: 0; height: 0; overflow: hidden;" version="1.1" xmlns="http://www.w3.org/2000/svg" xmlns:xlink="http://www.w3.org/1999/xlink">
<defs>
<symbol id="icon-menu_40px" viewBox="0 0 32 32">
<path d="M6.4 11.733v-2.133h19.2v2.133h-19.2zM6.4 17.067h19.2v-2.133h-19.2v2.133zM6.4 22.4h19.2v-2.133h-19.2v2.133z"></path>
</symbol>
<symbol id="icon-Group-1" viewBox="0 0 31 32">
<path fill="#ff6b09" style="fill: var(--color1, #ff6b09)" d="M7.046 26.006c2.185 0 14.824 0 17.006 0 0.084-1.939-0.055-5.157-1.247-6.689l-0.043-0.055-2.606-1.308c0.057-0.191 0.084-0.366 0.096-0.494 0.013-0.154-0.008-0.299-0.063-0.43-0.43-1.029-1.339-1.57-1.84-1.8 0.152-0.307 0.251-0.637 0.298-0.974 0.283-0.080 0.511-0.304 0.586-0.604l0.304-1.236c0.054-0.218 0.020-0.444-0.096-0.636-0.050-0.083-0.114-0.153-0.187-0.212 0.858-1.948-0.579-3.784-0.657-3.881-1.555-1.682-3.52-1.367-3.624-1.349-2.836 0.594-3.93 2.767-3.312 5.316-0.183 0.203-0.26 0.485-0.192 0.762l0.306 1.237c0.074 0.297 0.3 0.521 0.581 0.602 0.087 0.617 0.348 1.175 0.732 1.625v0.979c-4.069 2.084-1.491 0.754-4.752 2.404-0.006 0.031-1.53 1.65-1.304 6.45l0.014 0.293zM23.461 25.39h-2.799v-1.176l1.851-4.238c0.927 1.539 0.962 4.478 0.948 5.413zM19.641 17.407c-0.108 1.241-0.788 0.866-1.208 1.822-0.33-0.363-0.43-0.799-0.341-1.265 0.16-0.856-0.362-1.11-0.233-2.010l0.020-0.021v-0.003c0.011-0.012 0.114-0.135 0.144-0.174 1.107 0.483 1.64 1.381 1.619 1.651zM13.701 16.432c0.514 0.357 1.135 0.567 1.802 0.567 0.629 0 1.226-0.183 1.737-0.52 0.071 0.707 0.347 0.849 0.249 1.369-0.018 0.097-0.028 0.192-0.034 0.285l-1.906 2.148-2.437-2.747 0.588-0.307v-0.796zM12.934 13.803v-1.191c0-0.439 0-2.179 0-2.093 0.297-0.549 0.701-0.947 1.204-1.185 1.346 0.762 2.896 1.898 3.935 3.042-0.001 1.457 0.004 1.461-0.006 1.58l-0.001 0.008c-0.081 1.323-1.169 2.419-2.564 2.419-1.356 0-2.482-1.065-2.563-2.433-0.004-0.049-0.005-0.098-0.005-0.148zM12.555 17.833l2.994 3.376 2.010-2.266c0.046 0.132 0.11 0.257 0.184 0.378l-2.194 2.744-3.272-4.093 0.278-0.14zM18.686 13.307v-0.951c0.027-0.031 0.256-0.293 0.229-0.262 0.013 0.482 0.065-0.087-0.229 1.213zM15.087 6.942c0.122 0.008 1.756-0.249 3.047 1.146 0.051 0.064 1.102 1.418 0.68 2.9-0.145-0.659-0.397-1.504-0.795-1.907l-0.435 0.434c0.393 0.398 0.651 1.611 0.75 2.24-1.803-1.887-4.13-3.082-4.162-3.102-0.117 0.073-1.101 0.26-1.816 1.649l-0.034 0.066v1.021c-0.031 0-0.121 0.001-0.090 0.001-0.454-2.193 0.416-3.936 2.855-4.447zM12.167 12.023l0.155 0.627v0.659l-0.257-1.041c-0.038-0.155 0.077-0.214 0.102-0.245zM11.716 18.254l3.833 4.794 2.594-3.244c0.282 0.253 0.418 0.288 1.016 0.596l-0.202-0.684c-0.051-0.174 0.151-0.452 0.274-0.58 0.273-0.148 0.501-0.36 0.671-0.621l2.116 1.063-1.969 4.508v1.305h-9v-1.305l-1.97-4.507 2.637-1.324zM8.584 19.978l1.851 4.237v1.176h-2.799c-0.014-0.935 0.021-3.872 0.947-5.412z"></path>
<path fill="none" stroke="#ff6b09" style="stroke: var(--color1, #ff6b09)" stroke-linejoin="miter" stroke-linecap="butt" stroke-miterlimit="4" stroke-width="1.0159" d="M30.387 4.945v-4.183h-29.879v30.476h29.879v-4.183"></path>
</symbol>
<symbol id="icon-Group-1-1" viewBox="0 0 31 32">
<path fill="#ff6b09" style="fill: var(--color1, #ff6b09)" d="M24.717 5.25h-10.247c-0.667 0-1.21 0.543-1.21 1.21v4.242l-7.613 3.195c-0.086 0.036-0.145 0.117-0.151 0.211s0.040 0.182 0.12 0.23l0.971 0.581v6.192c-0.497 0.113-0.869 0.558-0.869 1.089v0.597c0 0.137 0.111 0.248 0.248 0.248h1.739c0.137 0 0.248-0.111 0.248-0.248v-0.597c0-0.531-0.373-0.975-0.87-1.089v-5.896l0.768 0.459c-0.024 0.177-0.003-0.309-0.011 2.883 0 1.049 2.687 1.611 5.421 1.643v4.832c0 0.25 0.076 0.482 0.207 0.674 0.217 0.322 0.585 0.534 1.002 0.534h10.247c0.666 0 1.209-0.542 1.209-1.209 0 0.033-0.001-1.024 0-18.573 0-0.658-0.544-1.21-1.208-1.21zM7.456 22.201v0.349h-1.243v-0.349c0-0.344 0.278-0.623 0.62-0.623 0.343 0 0.623 0.28 0.623 0.623zM24.717 25.745h-10.247c-0.246 0-0.463-0.125-0.592-0.313-0.077-0.114-0.122-0.251-0.122-0.398v-1.675h11.672v1.676c0 0.388-0.324 0.711-0.711 0.711zM25.428 22.862h-11.672v-2.659c1.335-0.015 5.424-0.309 5.424-1.645-0.001-2.005 0.004-2.818-0.006-2.887l2.226-1.334c0.080-0.048 0.126-0.137 0.12-0.23s-0.065-0.175-0.151-0.211l-7.613-3.195v-2.071h11.672v14.232zM13.508 16.912c-1.375 0-4.023 0.178-5.173 0.929 0.007-2.297-0.080-2.148 0.203-2.343 0.715-0.526 2.758-0.894 4.97-0.894 0.965 0 5.176 0.265 5.176 1.157v2.080c-1.161-0.758-3.795-0.929-5.176-0.929zM13.756 6.46c0-0.393 0.32-0.713 0.713-0.713h10.247c0.393 0 0.712 0.324 0.712 0.713v1.675h-11.672v-1.675zM13.508 11.135l7.217 3.029-1.788 1.070c-0.951-0.943-4.096-1.126-5.429-1.126-1.335 0-4.48 0.183-5.429 1.126l-1.789-1.070 7.218-3.029zM8.335 18.558c0-0.401 1.777-1.15 5.173-1.15 3.399 0 5.176 0.749 5.176 1.15s-1.778 1.15-5.176 1.15c-3.396 0-5.173-0.749-5.173-1.15z"></path>
<path fill="#ff6b09" style="fill: var(--color1, #ff6b09)" d="M19.593 23.732c-0.452 0-0.82 0.368-0.82 0.82s0.368 0.82 0.82 0.82c0.452 0 0.82-0.368 0.82-0.82s-0.368-0.82-0.82-0.82zM19.593 24.877c-0.179 0-0.324-0.146-0.324-0.324s0.145-0.324 0.324-0.324c0.179 0 0.324 0.145 0.324 0.324s-0.145 0.324-0.324 0.324z"></path>
<path fill="#ff6b09" style="fill: var(--color1, #ff6b09)" d="M20.538 6.693h-1.891v0.496h1.891v-0.496z"></path>
<path fill="none" stroke="#ff6b09" style="stroke: var(--color1, #ff6b09)" stroke-linejoin="miter" stroke-linecap="butt" stroke-miterlimit="4" stroke-width="1.0159" d="M30.387 4.945v-4.183h-29.879v30.476h29.879v-4.183"></path>
</symbol>
<symbol id="icon-Group-1-2" viewBox="0 0 31 32">
<path fill="#ff6b09" style="fill: var(--color1, #ff6b09)" d="M6.947 14.566c0 0.227-0.344 0.227-0.344 0 0-4.818 3.907-8.725 8.725-8.725 4.82 0 8.725 3.907 8.725 8.725 0 0.227-0.342 0.227-0.342 0 0-3.256-5.351-3.258-5.351 0 0 0.227-0.352 0.227-0.352 0 0-3.248-5.36-3.248-5.36 0 0 0.227-0.352 0.227-0.352 0 0-3.242-5.349-3.265-5.349 0zM12.327 13.302c0.093-1.874 0.387-3.555 0.816-4.838 0.342-1.020 0.774-1.794 1.265-2.229-3.679 0.402-6.657 3.191-7.322 6.808 1.267-1.827 4.192-1.681 5.242 0.26zM17.981 13.217c-0.095-1.802-0.381-3.415-0.793-4.645-1.063-3.182-2.657-3.182-3.72 0-0.412 1.23-0.696 2.842-0.793 4.645 1.143-1.942 4.163-1.942 5.306 0zM23.571 13.042c-0.663-3.617-3.642-6.406-7.322-6.808 0.492 0.435 0.923 1.209 1.265 2.229 0.428 1.283 0.723 2.964 0.816 4.838 1.057-1.951 3.99-2.066 5.242-0.26z"></path>
<path fill="#ff6b09" style="fill: var(--color1, #ff6b09)" d="M14.183 18.559v-1.772c-0.319 0.212-0.571 0.54-0.571 0.939 0 0.389 0.255 0.647 0.571 0.832zM14.527 19.109c-0.612-0.28-1.256-0.608-1.256-1.382 0-0.799 0.608-1.199 1.256-1.498v2.88z"></path>
<path fill="#ff6b09" style="fill: var(--color1, #ff6b09)" d="M16.474 21.232v1.792c0.323-0.214 0.577-0.544 0.577-0.943 0-0.393-0.26-0.659-0.577-0.849zM16.132 20.68c0.614 0.284 1.263 0.622 1.263 1.401 0 0.801-0.612 1.201-1.263 1.497v-2.898z"></path>
<path fill="#ff6b09" style="fill: var(--color1, #ff6b09)" d="M16.474 14.77c1.409 0.325 2.857 1.38 2.857 2.956 0 1.349-2.28 1.3-2.28 0 0-0.402-0.253-0.731-0.577-0.943v2.521c1.304 0.426 2.861 1.191 2.861 2.777 0 1.578-1.448 2.63-2.861 2.954-0.006 1.502-2.286 1.5-2.29-0.002-0.803-0.185-1.502-0.56-2.006-1.057-0.529-0.523-0.842-1.18-0.842-1.895 0-1.329 2.278-1.329 2.278 0 0 0.398 0.251 0.725 0.571 0.937v-2.519c-1.294-0.418-2.859-1.205-2.859-2.777 0-1.578 1.448-2.63 2.859-2.954 0.006-1.502 2.286-1.5 2.29 0.002zM14.527 14.774v0.274c-1.341 0.266-2.861 1.125-2.861 2.674 0 1.489 1.668 2.157 2.861 2.525v3.329c-0.645-0.295-1.256-0.692-1.256-1.495 0-0.878-1.594-0.878-1.594 0 0 0.62 0.276 1.193 0.742 1.65 0.591 0.585 1.308 0.863 2.109 1.022v0.276c0 1.057 1.605 1.057 1.605 0v-0.274c1.345-0.268 2.859-1.127 2.859-2.674 0-1.504-1.664-2.15-2.859-2.527v-3.327c0.647 0.295 1.263 0.692 1.263 1.5 0 0.855 1.592 0.89 1.592 0 0-1.547-1.512-2.408-2.855-2.676v-0.276c0-1.057-1.605-1.057-1.605 0z"></path>
<path fill="none" stroke="#ff6b09" style="stroke: var(--color1, #ff6b09)" stroke-linejoin="miter" stroke-linecap="butt" stroke-miterlimit="4" stroke-width="1.0159" d="M30.387 4.945v-4.183h-29.879v30.476h29.879v-4.183"></path>
</symbol>
<symbol id="icon-Group-56" viewBox="0 0 32 32">
<path fill="none" stroke="#fff" style="stroke: var(--color2, #fff)" stroke-linejoin="miter" stroke-linecap="butt" stroke-miterlimit="4" stroke-width="3.7647" d="M1.882 29.168l27.286-27.286"></path>
<path fill="none" stroke="#fff" style="stroke: var(--color2, #fff)" stroke-linejoin="miter" stroke-linecap="butt" stroke-miterlimit="4" stroke-width="3.7647" d="M29.168 29.168l-27.286-27.286"></path>
</symbol>
<symbol id="icon-logo" viewBox="0 0 88 32">
<path d="M25.777 12.818c0 0.025-0.019 0.315-0.056 0.871h-7.303c0.148 0.519 0.433 0.921 0.853 1.205 0.433 0.272 0.97 0.408 1.613 0.408 0.482 0 0.896-0.068 1.242-0.204 0.358-0.136 0.717-0.358 1.075-0.667l1.854 1.928c-0.976 1.087-2.403 1.631-4.282 1.631-1.174 0-2.206-0.222-3.096-0.667s-1.582-1.063-2.076-1.854c-0.482-0.791-0.723-1.687-0.723-2.688 0-0.989 0.235-1.872 0.704-2.651 0.482-0.791 1.143-1.409 1.983-1.854s1.786-0.667 2.836-0.667c1.001 0 1.909 0.21 2.725 0.63 0.816 0.408 1.458 1.007 1.928 1.798 0.482 0.778 0.723 1.705 0.723 2.78zM20.42 10.112c-0.544 0-1.001 0.154-1.372 0.463-0.358 0.309-0.587 0.729-0.686 1.26h4.115c-0.099-0.531-0.334-0.951-0.704-1.26-0.358-0.309-0.809-0.463-1.353-0.463z"></path>
<path d="M12.345 4.848v12.975h-3.67v-5.060h-5.005v5.060h-3.67v-12.975h3.67v4.875h5.005v-4.875h3.67z"></path>
<path d="M28.142 4.069h3.522v13.753h-3.522v-13.753z"></path>
<path d="M34.694 4.069h3.522v13.753h-3.522v-13.753z"></path>
<path d="M3.328 29.8h-1.854l-0.354 0.855h-0.947l1.779-3.992h0.913l1.785 3.992h-0.97l-0.354-0.855zM3.037 29.098l-0.633-1.528-0.633 1.528h1.266z"></path>
<path d="M10.358 29.902v1.58h-0.855v-0.827h-2.817v0.827h-0.856l0.006-1.58h0.16c0.24-0.008 0.409-0.183 0.508-0.525s0.16-0.831 0.183-1.466l0.046-1.249h3.068v3.239h0.559zM7.501 27.997c-0.019 0.475-0.059 0.874-0.12 1.198-0.061 0.319-0.154 0.555-0.279 0.707h1.785v-2.487h-1.369l-0.017 0.582z"></path>
<path d="M13.895 30.724c-0.407 0-0.776-0.087-1.106-0.262-0.327-0.179-0.585-0.424-0.776-0.736-0.186-0.316-0.28-0.671-0.28-1.066s0.093-0.749 0.28-1.061c0.19-0.316 0.449-0.561 0.776-0.736 0.331-0.179 0.702-0.268 1.112-0.268 0.346 0 0.658 0.061 0.935 0.183 0.281 0.122 0.517 0.297 0.707 0.525l-0.593 0.548c-0.27-0.312-0.604-0.468-1.004-0.468-0.247 0-0.468 0.055-0.662 0.165-0.194 0.106-0.346 0.257-0.456 0.451-0.106 0.194-0.16 0.414-0.16 0.662s0.053 0.468 0.16 0.662c0.11 0.194 0.262 0.346 0.456 0.456 0.194 0.106 0.414 0.16 0.662 0.16 0.399 0 0.734-0.158 1.004-0.473l0.593 0.548c-0.19 0.232-0.426 0.409-0.707 0.53s-0.595 0.183-0.941 0.183z"></path>
<path d="M18.717 29.047h-0.639v1.608h-0.918v-3.992h0.918v1.614h0.662l1.049-1.614h0.975l-1.306 1.928 1.346 2.065h-1.049l-1.038-1.608z"></path>
<path d="M22.264 26.663h0.918v2.601l1.905-2.601h0.867v3.992h-0.913v-2.595l-1.905 2.595h-0.873v-3.992z"></path>
<path d="M27.975 26.663h0.918v2.601l1.905-2.601h0.867v3.992h-0.913v-2.595l-1.905 2.595h-0.873v-3.992zM29.817 26.406c-0.73 0-1.099-0.291-1.106-0.873h0.633c0.008 0.278 0.165 0.416 0.473 0.416 0.152 0 0.268-0.034 0.348-0.103 0.080-0.072 0.122-0.177 0.126-0.314h0.633c-0.004 0.285-0.097 0.502-0.279 0.65s-0.458 0.222-0.827 0.222z"></path>
<path d="M39.031 29.8h-1.854l-0.354 0.855h-0.947l1.779-3.992h0.912l1.785 3.992h-0.969l-0.354-0.855zM38.74 29.098l-0.633-1.528-0.633 1.528h1.266z"></path>
<path d="M45.571 26.663v3.992h-0.924v-1.637h-1.814v1.637h-0.924v-3.992h0.924v1.574h1.814v-1.574h0.924z"></path>
<path d="M50.41 27.416h-1.899l0.006 3.239h-0.918v-3.992h2.817l-0.006 0.753z"></path>
<path d="M55.069 26.663v3.992h-0.913v-3.239h-1.369l-0.028 0.833c-0.019 0.567-0.065 1.027-0.137 1.38-0.072 0.35-0.194 0.62-0.365 0.81-0.167 0.186-0.403 0.279-0.707 0.279-0.125 0-0.278-0.021-0.456-0.063l0.057-0.781c0.049 0.015 0.105 0.023 0.165 0.023 0.221 0 0.374-0.129 0.462-0.388 0.087-0.262 0.143-0.671 0.165-1.226l0.057-1.62h3.068z"></path>
<path d="M57.092 26.663h0.918v2.601l1.905-2.601h0.867v3.992h-0.913v-2.595l-1.905 2.595h-0.873v-3.992z"></path>
<path d="M62.803 26.663h0.918v2.601l1.905-2.601h0.867v3.992h-0.913v-2.595l-1.905 2.595h-0.873v-3.992zM64.645 26.406c-0.73 0-1.099-0.291-1.107-0.873h0.633c0.007 0.278 0.165 0.416 0.473 0.416 0.152 0 0.268-0.034 0.348-0.103 0.080-0.072 0.122-0.177 0.125-0.314h0.633c-0.004 0.285-0.097 0.502-0.279 0.65s-0.458 0.222-0.827 0.222z"></path>
<path d="M70.401 30.724c-0.407 0-0.776-0.087-1.106-0.262-0.327-0.179-0.586-0.424-0.776-0.736-0.186-0.316-0.279-0.671-0.279-1.066s0.093-0.749 0.279-1.061c0.19-0.316 0.449-0.561 0.776-0.736 0.331-0.179 0.701-0.268 1.112-0.268 0.346 0 0.658 0.061 0.935 0.183 0.281 0.122 0.517 0.297 0.707 0.525l-0.593 0.548c-0.27-0.312-0.605-0.468-1.004-0.468-0.247 0-0.468 0.055-0.662 0.165-0.194 0.106-0.346 0.257-0.456 0.451-0.106 0.194-0.16 0.414-0.16 0.662s0.053 0.468 0.16 0.662c0.11 0.194 0.262 0.346 0.456 0.456 0.194 0.106 0.414 0.16 0.662 0.16 0.399 0 0.734-0.158 1.004-0.473l0.593 0.548c-0.19 0.232-0.426 0.409-0.707 0.53s-0.595 0.183-0.941 0.183z"></path>
<path d="M75.224 29.047h-0.639v1.608h-0.918v-3.992h0.918v1.614h0.662l1.049-1.614h0.975l-1.306 1.928 1.346 2.065h-1.049l-1.038-1.608z"></path>
<path d="M78.771 26.663h0.918v2.601l1.905-2.601h0.867v3.992h-0.913v-2.595l-1.905 2.595h-0.873v-3.992z"></path>
<path d="M84.481 26.663h0.918v2.601l1.905-2.601h0.867v3.992h-0.913v-2.595l-1.905 2.595h-0.873v-3.992zM86.324 26.406c-0.73 0-1.099-0.291-1.106-0.873h0.633c0.008 0.278 0.165 0.416 0.473 0.416 0.152 0 0.268-0.034 0.348-0.103 0.080-0.072 0.122-0.177 0.125-0.314h0.633c-0.004 0.285-0.097 0.502-0.279 0.65s-0.458 0.222-0.827 0.222z"></path>
<path d="M73.153 14.987v2.836h-10.417v-12.975h10.176v2.836h-6.543v2.187h5.765v2.743h-5.765v2.373h6.784z"></path>
<path d="M88.276 4.848v12.975h-3.021l-5.728-6.914v6.914h-3.596v-12.975h3.021l5.728 6.914v-6.914h3.596z"></path>
<path fill="#ff6b09" style="fill: var(--color1, #ff6b09)" d="M57.546 11.090c-0.189-0.424-0.451-0.842-0.833-1.325-0.964-1.212-1.258-3.915-1.261-3.94-0.013-0.13-0.105-0.237-0.225-0.275-0.124-0.039-0.258-0.003-0.346 0.094-1.15 1.286-0.667 3.273-0.405 4.067 0.072 0.217 0.15 0.473 0.206 0.732 0.425 2.097-0.395 3.046-0.588 3.237-0.186 0.052-0.314 0.026-0.431-0.101-0.405-0.444-0.539-1.899-0.35-3.795 0.039-0.386 0.029-0.732-0.026-1.056-0.4-2.33-1.865-3.825-2.238-4.349-1.026-1.517-1.131-4.041-1.134-4.064-0.003-0.12-0.072-0.227-0.18-0.279-0.105-0.052-0.232-0.045-0.33 0.023-1.712 1.163-1.565 3.966-1.327 5.532 0.056 0.363 0.163 0.732 0.35 1.199 0.663 1.669-0.131 3.824-0.137 3.843s-0.013 0.036-0.016 0.055c-0.101 0.531-0.271 0.849-0.461 0.849-0.020 0-0.039-0.003-0.062-0.010-0.232-0.049-0.353-0.295-0.356-0.509-0.013-2.764-2.787-3.694-2.817-3.704-0.124-0.039-0.261-0.003-0.346 0.097-0.088 0.1-0.105 0.24-0.046 0.356 0.033 0.068 0.137 0.366 0.065 1.419-0.062 0.946-0.235 1.883-0.513 2.78-0.66 2.152-0.555 4.19-0.549 4.287 0.507 5.519 8.444 6.486 13.155 3.377 0.516-0.34 0.938-0.729 1.248-1.157 1.738-2.398 0.716-5.655-0.046-7.385zM45.472 16.362c0.010 0.178-0.127 0.33-0.307 0.34h-0.020c-0.173 0-0.317-0.133-0.327-0.305-0.029-0.473-0.023-0.969 0.013-1.507 0.013-0.178 0.17-0.311 0.35-0.301 0.18 0.013 0.317 0.168 0.304 0.347-0.036 0.512-0.042 0.979-0.013 1.426zM45.632 13.491c-0.020 0.165-0.16 0.285-0.323 0.285-0.013 0-0.026 0-0.042-0.003-0.176-0.023-0.304-0.181-0.284-0.36l0.157-1.251c0.023-0.175 0.183-0.301 0.366-0.282 0.18 0.023 0.307 0.185 0.284 0.363l-0.157 1.248z"></path>
<path fill="#ff6b09" style="fill: var(--color1, #ff6b09)" d="M55.335 4.433c-0.178-0.027-0.3-0.193-0.273-0.369 0.020-0.132 0.138-0.806 0.459-1.145 0.123-0.131 0.33-0.138 0.462-0.015s0.138 0.327 0.015 0.458c-0.136 0.144-0.251 0.554-0.29 0.8-0.028 0.175-0.192 0.298-0.373 0.271z"></path>
<path fill="#ff6b09" style="fill: var(--color1, #ff6b09)" d="M43.423 6.048c-0.063-0.241-0.218-0.638-0.367-0.768-0.136-0.118-0.149-0.323-0.030-0.457s0.325-0.149 0.461-0.030c0.352 0.306 0.536 0.966 0.569 1.094 0.045 0.173-0.061 0.35-0.235 0.394-0.178 0.045-0.353-0.063-0.398-0.233z"></path>
</symbol>
<symbol id="icon-logo-tablet" viewBox="0 0 128 45">
<path d="M19.136 6.8V25H13.988V17.902H6.968V25H1.82V6.8H6.968V13.638H13.988V6.8H19.136ZM37.9773 17.98C37.9773 18.0147 37.9513 18.422 37.8993 19.202H27.6553C27.8633 19.93 28.2619 20.4933 28.8513 20.892C29.4579 21.2733 30.2119 21.464 31.1133 21.464C31.7893 21.464 32.3699 21.3687 32.8553 21.178C33.3579 20.9873 33.8606 20.6753 34.3633 20.242L36.9633 22.946C35.5939 24.4713 33.5919 25.234 30.9573 25.234C29.3106 25.234 27.8633 24.922 26.6153 24.298C25.3673 23.674 24.3966 22.8073 23.7033 21.698C23.0273 20.5887 22.6893 19.332 22.6893 17.928C22.6893 16.5413 23.0186 15.302 23.6773 14.21C24.3533 13.1007 25.2806 12.234 26.4593 11.61C27.6379 10.986 28.9639 10.674 30.4373 10.674C31.8413 10.674 33.1153 10.9687 34.2593 11.558C35.4033 12.13 36.3046 12.9707 36.9633 14.08C37.6393 15.172 37.9773 16.472 37.9773 17.98ZM30.4633 14.184C29.7006 14.184 29.0593 14.4007 28.5393 14.834C28.0366 15.2673 27.7159 15.8567 27.5773 16.602H33.3493C33.2106 15.8567 32.8813 15.2673 32.3613 14.834C31.8586 14.4007 31.2259 14.184 30.4633 14.184ZM41.2949 5.708H46.2349V25H41.2949V5.708ZM50.4853 5.708H55.4253V25H50.4853V5.708Z" fill="#111518"/>
<path d="M6.488 41.8H3.888L3.392 43H2.064L4.56 37.4H5.84L8.344 43H6.984L6.488 41.8ZM6.08 40.816L5.192 38.672L4.304 40.816H6.08ZM16.3495 41.944V44.16H15.1495V43H11.1975V44.16H9.9975L10.0055 41.944H10.2295C10.5655 41.9333 10.8028 41.688 10.9415 41.208C11.0802 40.728 11.1655 40.0427 11.1975 39.152L11.2615 37.4H15.5655V41.944H16.3495ZM12.3415 39.272C12.3148 39.9387 12.2588 40.4987 12.1735 40.952C12.0882 41.4 11.9575 41.7307 11.7815 41.944H14.2855V38.456H12.3655L12.3415 39.272ZM21.3099 43.096C20.7393 43.096 20.2219 42.9733 19.7579 42.728C19.2993 42.4773 18.9366 42.1333 18.6699 41.696C18.4086 41.2533 18.2779 40.7547 18.2779 40.2C18.2779 39.6453 18.4086 39.1493 18.6699 38.712C18.9366 38.2693 19.2993 37.9253 19.7579 37.68C20.2219 37.4293 20.7419 37.304 21.3179 37.304C21.8033 37.304 22.2406 37.3893 22.6299 37.56C23.0246 37.7307 23.3553 37.976 23.6219 38.296L22.7899 39.064C22.4113 38.6267 21.9419 38.408 21.3819 38.408C21.0353 38.408 20.7259 38.4853 20.4539 38.64C20.1819 38.7893 19.9686 39 19.8139 39.272C19.6646 39.544 19.5899 39.8533 19.5899 40.2C19.5899 40.5467 19.6646 40.856 19.8139 41.128C19.9686 41.4 20.1819 41.6133 20.4539 41.768C20.7259 41.9173 21.0353 41.992 21.3819 41.992C21.9419 41.992 22.4113 41.7707 22.7899 41.328L23.6219 42.096C23.3553 42.4213 23.0246 42.6693 22.6299 42.84C22.2353 43.0107 21.7953 43.096 21.3099 43.096ZM28.0746 40.744H27.1786V43H25.8906V37.4H27.1786V39.664H28.1066L29.5786 37.4H30.9466L29.1146 40.104L31.0026 43H29.5306L28.0746 40.744ZM33.0498 37.4H34.3378V41.048L37.0098 37.4H38.2258V43H36.9458V39.36L34.2738 43H33.0498V37.4ZM41.0601 37.4H42.3481V41.048L45.0201 37.4H46.2361V43H44.9561V39.36L42.2841 43H41.0601V37.4ZM43.6441 37.04C42.6201 37.04 42.1027 36.632 42.0921 35.816H42.9801C42.9907 36.2053 43.2121 36.4 43.6441 36.4C43.8574 36.4 44.0201 36.352 44.1321 36.256C44.2441 36.1547 44.3027 36.008 44.3081 35.816H45.1961C45.1907 36.216 45.0601 36.52 44.8041 36.728C44.5481 36.936 44.1614 37.04 43.6441 37.04Z" fill="#FF6B09"/>
<path d="M56.568 41.8H53.968L53.472 43H52.144L54.64 37.4H55.92L58.424 43H57.064L56.568 41.8ZM56.16 40.816L55.272 38.672L54.384 40.816H56.16ZM65.7426 37.4V43H64.4466V40.704H61.9026V43H60.6066V37.4H61.9026V39.608H64.4466V37.4H65.7426ZM72.5297 38.456H69.8657L69.8737 43H68.5857V37.4H72.5377L72.5297 38.456ZM79.0646 37.4V43H77.7846V38.456H75.8646L75.8246 39.624C75.7979 40.4187 75.7339 41.064 75.6326 41.56C75.5312 42.0507 75.3606 42.4293 75.1206 42.696C74.8859 42.9573 74.5552 43.088 74.1286 43.088C73.9526 43.088 73.7392 43.0587 73.4886 43L73.5686 41.904C73.6379 41.9253 73.7152 41.936 73.8006 41.936C74.1099 41.936 74.3259 41.7547 74.4486 41.392C74.5712 41.024 74.6486 40.4507 74.6806 39.672L74.7606 37.4H79.0646ZM81.9032 37.4H83.1912V41.048L85.8632 37.4H87.0792V43H85.7992V39.36L83.1272 43H81.9032V37.4ZM89.9135 37.4H91.2015V41.048L93.8735 37.4H95.0895V43H93.8095V39.36L91.1375 43H89.9135V37.4ZM92.4975 37.04C91.4735 37.04 90.9562 36.632 90.9455 35.816H91.8335C91.8442 36.2053 92.0655 36.4 92.4975 36.4C92.7108 36.4 92.8735 36.352 92.9855 36.256C93.0975 36.1547 93.1562 36.008 93.1615 35.816H94.0495C94.0442 36.216 93.9135 36.52 93.6575 36.728C93.4015 36.936 93.0148 37.04 92.4975 37.04ZM100.572 43.096C100.001 43.096 99.4838 42.9733 99.0198 42.728C98.5611 42.4773 98.1985 42.1333 97.9318 41.696C97.6705 41.2533 97.5398 40.7547 97.5398 40.2C97.5398 39.6453 97.6705 39.1493 97.9318 38.712C98.1985 38.2693 98.5611 37.9253 99.0198 37.68C99.4838 37.4293 100.004 37.304 100.58 37.304C101.065 37.304 101.502 37.3893 101.892 37.56C102.286 37.7307 102.617 37.976 102.884 38.296L102.052 39.064C101.673 38.6267 101.204 38.408 100.644 38.408C100.297 38.408 99.9878 38.4853 99.7158 38.64C99.4438 38.7893 99.2305 39 99.0758 39.272C98.9265 39.544 98.8518 39.8533 98.8518 40.2C98.8518 40.5467 98.9265 40.856 99.0758 41.128C99.2305 41.4 99.4438 41.6133 99.7158 41.768C99.9878 41.9173 100.297 41.992 100.644 41.992C101.204 41.992 101.673 41.7707 102.052 41.328L102.884 42.096C102.617 42.4213 102.286 42.6693 101.892 42.84C101.497 43.0107 101.057 43.096 100.572 43.096ZM107.337 40.744H106.441V43H105.153V37.4H106.441V39.664H107.369L108.841 37.4H110.209L108.377 40.104L110.265 43H108.793L107.337 40.744ZM112.312 37.4H113.6V41.048L116.272 37.4H117.488V43H116.208V39.36L113.536 43H112.312V37.4ZM120.322 37.4H121.61V41.048L124.282 37.4H125.498V43H124.218V39.36L121.546 43H120.322V37.4ZM122.906 37.04C121.882 37.04 121.365 36.632 121.354 35.816H122.242C122.253 36.2053 122.474 36.4 122.906 36.4C123.119 36.4 123.282 36.352 123.394 36.256C123.506 36.1547 123.565 36.008 123.57 35.816H124.458C124.453 36.216 124.322 36.52 124.066 36.728C123.81 36.936 123.423 37.04 122.906 37.04Z" fill="#111518"/>
<path d="M104.432 21.022V25H89.82V6.8H104.094V10.778H94.916V13.846H103.002V17.694H94.916V21.022H104.432ZM125.645 6.8V25H121.407L113.373 15.302V25H108.329V6.8H112.567L120.601 16.498V6.8H125.645Z" fill="#111518"/>
<path d="M82.5392 15.5558C82.2734 14.9604 81.9067 14.374 81.3705 13.6967C80.0184 11.9967 79.6059 8.20581 79.6013 8.16945C79.583 7.98763 79.4547 7.83763 79.2851 7.78309C79.1109 7.72854 78.923 7.77854 78.7992 7.9149C77.1859 9.71945 77.8642 12.5058 78.2309 13.6194C78.3317 13.924 78.4417 14.2831 78.5196 14.6467C79.1154 17.5876 77.965 18.9194 77.6946 19.1876C77.4334 19.2604 77.2546 19.224 77.0896 19.0467C76.5213 18.424 76.3334 16.3831 76.5992 13.724C76.6542 13.1831 76.6404 12.6967 76.5625 12.2422C76.0019 8.97386 73.9463 6.8774 73.4229 6.14218C71.9838 4.0149 71.8371 0.473994 71.8325 0.442176C71.8279 0.273994 71.7317 0.123994 71.5804 0.0512668C71.4338 -0.0214604 71.255 -0.0123695 71.1175 0.083085C68.7159 1.7149 68.9221 5.64672 69.2567 7.84218C69.3346 8.35127 69.4859 8.86945 69.7471 9.524C70.6775 11.8649 69.5638 14.8876 69.5546 14.9149C69.5454 14.9422 69.5363 14.9649 69.5317 14.9922C69.3896 15.7376 69.1513 16.1831 68.8854 16.1831C68.8579 16.1831 68.8304 16.1785 68.7984 16.1694C68.4729 16.1013 68.3034 15.7558 68.2988 15.4558C68.2804 11.5785 64.3892 10.274 64.3479 10.2604C64.1738 10.2058 63.9813 10.2558 63.8621 10.3967C63.7384 10.5376 63.7154 10.7331 63.7979 10.8967C63.8438 10.9922 63.9904 11.4104 63.8896 12.8876C63.8025 14.2149 63.5596 15.5285 63.17 16.7876C62.2442 19.8058 62.3909 22.6649 62.4 22.8013C63.112 30.5425 74.2451 31.899 80.8525 27.5376C81.5767 27.0604 82.1679 26.5149 82.6034 25.9149C85.0417 22.5513 83.6072 17.9831 82.5392 15.5558ZM65.6038 22.9513C65.6176 23.2013 65.4251 23.4149 65.173 23.4285H65.1455C64.9026 23.4285 64.7009 23.2422 64.6872 23.0013C64.6459 22.3376 64.6551 21.6422 64.7055 20.8876C64.7238 20.6376 64.9438 20.4513 65.1959 20.4649C65.448 20.483 65.6405 20.7012 65.6222 20.9512C65.5717 21.6695 65.5626 22.324 65.6038 22.9513ZM65.8284 18.924C65.8009 19.1558 65.6038 19.324 65.3746 19.324C65.3563 19.324 65.3379 19.324 65.315 19.3195C65.0675 19.2876 64.8888 19.0649 64.9163 18.8149L65.1363 17.0604C65.1684 16.8149 65.3929 16.6376 65.6496 16.6649C65.9017 16.6967 66.0804 16.924 66.0484 17.174L65.8284 18.924Z" fill="#FF6B09"/>
<path d="M79.4384 6.21861C79.1884 6.1802 79.017 5.94851 79.0555 5.70061C79.0841 5.51592 79.2497 4.57047 79.6991 4.09506C79.8721 3.91174 80.1617 3.9022 80.347 4.07442C80.5316 4.24597 80.541 4.53365 80.3678 4.71697C80.1776 4.91829 80.0156 5.49442 79.9614 5.83915C79.9228 6.08442 79.6921 6.25656 79.4384 6.21861Z" fill="#FF6B09"/>
<path d="M62.7294 8.48281C62.6417 8.14476 62.4237 7.58726 62.2145 7.40526C62.024 7.23967 62.005 6.95249 62.1719 6.76385C62.3384 6.57476 62.6278 6.55544 62.8187 6.72167C63.3126 7.15113 63.5706 8.07599 63.6174 8.25685C63.6801 8.4999 63.5324 8.74713 63.2875 8.80972C63.0373 8.87213 62.7918 8.72181 62.7294 8.48281Z" fill="#FF6B09"/>
</symbol>
</defs>
</svg>
