<svg aria-hidden="true" style="position: absolute; width: 0; height: 0; overflow: hidden;" version="1.1" xmlns="http://www.w3.org/2000/svg" xmlns:xlink="http://www.w3.org/1999/xlink">
<defs>
<symbol id="icon-apples" viewBox="0 0 32 32">
<path d="M29.626 21.411c-1.292-0.458-2.382-0.344-3.242 0.018 0.145-0.877 0.47-1.832 1.17-2.481 0.431-0.4 0.456-1.074 0.056-1.505s-1.074-0.456-1.505-0.056c-1.229 1.14-1.706 2.748-1.874 4.081-0.32-0.144-0.673-0.253-1.058-0.311l1.89-9.83c0.060-0.312-0.022-0.634-0.225-0.879s-0.503-0.387-0.821-0.387h-0.204c0.094-0.5 0.141-0.997 0.137-1.47-0.016-1.994-0.903-3.495-2.374-4.017-1.41-0.5-2.59-0.35-3.507 0.066 0.145-0.976 0.494-2.063 1.282-2.794 0.431-0.4 0.456-1.074 0.056-1.505s-1.074-0.456-1.505-0.056c-1.32 1.225-1.815 2.965-1.982 4.386-0.735-0.348-1.644-0.527-2.708-0.33-1.094-1.571-2.613-2.296-4.089-1.942-1.451 0.349-2.358 1.115-2.901 1.962-0.41-0.899-0.712-2.001-0.452-3.036 0.143-0.57-0.203-1.149-0.773-1.292s-1.149 0.203-1.292 0.773c-0.439 1.746 0.095 3.476 0.729 4.758-1.016 0.137-2.117 0.65-3.049 1.866-0.578 0.755-0.773 1.698-0.596 2.7-0.173 0.065-0.329 0.173-0.449 0.318-0.202 0.245-0.285 0.567-0.225 0.879l3.809 19.809c0.096 0.501 0.535 0.864 1.046 0.864h15.237c0.511 0 0.949-0.362 1.046-0.864l0.038-0.195c0.287 0.198 0.596 0.363 0.927 0.487 1.266 0.471 2.447 0.278 3.044 0.118 0.316 0.085 0.795 0.179 1.364 0.179 0.506 0 1.084-0.075 1.68-0.297 2.36-0.879 3.614-3.839 3.596-6.178-0.015-1.904-0.866-3.339-2.276-3.839zM22.674 12.191c-0.49 4.705-4.452 7.91-9.971 7.91s-9.481-3.204-9.971-7.91h19.942zM16.032 7.515c0.184 0.349 0.536 0.567 0.93 0.567s0.746-0.218 0.93-0.567c0.029-0.048 0.29-0.466 0.769-0.777 0.629-0.408 1.35-0.46 2.203-0.157 0.851 0.302 0.952 1.518 0.956 2.027 0.004 0.463-0.064 0.962-0.191 1.453h-7.126c0.236-1.19 0.094-2.492-0.289-3.669 0.377 0.022 0.724 0.137 1.047 0.346 0.479 0.311 0.74 0.729 0.769 0.777zM3.078 8.724c0.55-0.719 1.182-1.068 1.932-1.069h0.002c0.57 0 1.016 0.208 1.066 0.232 0.341 0.19 0.749 0.172 1.079-0.037 0.331-0.211 0.51-0.591 0.481-0.983-0.006-0.077-0.115-1.893 1.983-2.397 0.876-0.211 1.625 0.754 1.906 1.178 0.807 1.22 1.221 3.108 0.777 4.413h-9.349c-0.141-0.443-0.179-0.943 0.122-1.336zM5.852 29.87l-2.111-10.978c0.138 0.133 0.281 0.263 0.427 0.389 2.208 1.901 5.239 2.948 8.535 2.948s6.328-1.047 8.535-2.948c0.052-0.044 0.102-0.090 0.152-0.135l-0.431 2.243c-0.020 0.007-0.041 0.013-0.061 0.021-1.41 0.5-2.261 1.935-2.276 3.839-0.009 1.164 0.297 2.483 0.898 3.622l-0.192 0.999h-13.477zM27.562 29.432c-0.943 0.351-1.881 0.017-1.916 0.005-0.25-0.097-0.518-0.099-0.768-0-0.009 0.004-0.96 0.352-1.917-0.005-1.338-0.498-2.223-2.556-2.21-4.165 0.004-0.466 0.095-1.578 0.858-1.849 0.349-0.124 0.661-0.175 0.939-0.175 1.107 0 1.657 0.812 1.782 1.024 0.184 0.35 0.535 0.569 0.931 0.569s0.747-0.219 0.931-0.569c0.156-0.265 0.977-1.468 2.721-0.849 0.763 0.271 0.854 1.383 0.858 1.849 0.013 1.609-0.872 3.667-2.21 4.166z"></path>
</symbol>
<symbol id="icon-menu" viewBox="0 0 32 32">
<path stroke-linejoin="miter" stroke-linecap="butt" stroke-miterlimit="4" stroke-width="1.6" d="M0 6.4h32"></path>
<path stroke-linejoin="miter" stroke-linecap="butt" stroke-miterlimit="4" stroke-width="1.6" d="M0 16h32"></path>
<path stroke-linejoin="miter" stroke-linecap="butt" stroke-miterlimit="4" stroke-width="1.6" d="M0 25.6h32"></path>
</symbol>
<symbol id="icon-close" viewBox="0 0 32 32">
<path stroke-linejoin="miter" stroke-linecap="butt" stroke-miterlimit="4" stroke-width="2" d="M2.519 2l26.963 28"></path>
<path stroke-linejoin="miter" stroke-linecap="butt" stroke-miterlimit="4" stroke-width="2" d="M2 29.481l28-26.963"></path>
</symbol>
<symbol id="icon-facebook" viewBox="0 0 34 34">
<path d="M17 34C26.3888 34 34 26.3888 34 17C34 7.61116 26.3888 0 17 0C7.61116 0 0 7.61116 0 17C0 26.3888 7.61116 34 17 34Z"/>
<path d="M21.7235 16.9804H18.9502V27.2001H14.7484V16.9804H12.75V13.3888H14.7484V11.0646C14.7484 9.40261 15.5333 6.80005 18.9876 6.80005L22.1 6.81315V10.2994H19.8417C19.4713 10.2994 18.9505 10.4856 18.9505 11.2784V13.3922H22.0906L21.7235 16.9804Z" fill="white"/>
</symbol>
<symbol id="icon-github" viewBox="0 0 34 34">
<circle cx="17" cy="17" r="17"/>
<path d="M17 7C11.5074 7 7 11.5074 7 17C7 21.687 10.2889 25.9447 14.6562 27V23.6916C14.2235 23.7863 13.8253 23.7891 13.3847 23.6592C12.7938 23.4848 12.3136 23.0912 11.9571 22.4909C11.7299 22.1076 11.3272 21.6919 10.9072 21.7224L10.8042 20.5551C11.7125 20.4773 12.4984 21.1086 12.9648 21.8923C13.172 22.2408 13.4105 22.4451 13.7166 22.5354C14.0125 22.6226 14.3302 22.5807 14.7003 22.45C14.7933 21.7089 15.1328 21.4315 15.3893 21.0408V21.0402C12.7846 20.6517 11.7466 19.2699 11.3346 18.1792C10.7886 16.731 11.0816 14.9218 12.047 13.7784C12.0658 13.7561 12.0996 13.6978 12.0865 13.6571C11.6439 12.32 12.1833 11.2139 12.2031 11.0965C12.714 11.2476 12.797 10.9445 14.4222 11.9319L14.7031 12.1007C14.8206 12.1707 14.7837 12.1308 14.9012 12.1219C15.5797 11.9376 16.295 11.8358 16.9998 11.8267C17.71 11.8358 18.4207 11.9376 19.1274 12.1294L19.2183 12.1385C19.2104 12.1373 19.243 12.1328 19.2978 12.1001C21.328 10.8704 21.2551 11.2723 21.7995 11.0953C21.8192 11.2128 22.3514 12.3369 21.9135 13.6571C21.8544 13.839 23.6736 15.5048 22.6653 18.1787C22.2533 19.2699 21.2154 20.6517 18.6107 21.0402V21.0408C18.9446 21.5497 19.3457 21.8204 19.3436 22.8702V27C23.7111 25.9447 26.9998 21.687 26.9998 17C27 11.5074 22.4926 7 17 7V7Z" fill="white"/>
</symbol>
<symbol id="icon-house" viewBox="0 0 32 32">
<path d="M30.129 15.447c0.553-0.6 0.5-1.52-0.119-2.054l-13.636-11.77c-0.619-0.534-1.611-0.523-2.217 0.025l-13.682 12.372c-0.606 0.548-0.636 1.466-0.066 2.051l0.343 0.352c0.569 0.584 1.489 0.654 2.053 0.155l1.023-0.903v13.224c0 0.811 0.667 1.468 1.488 1.468h5.333c0.822 0 1.488-0.657 1.488-1.468v-9.252h6.803v9.252c-0.012 0.811 0.576 1.468 1.398 1.468h5.652c0.822 0 1.488-0.657 1.488-1.468v-13.038c0 0 0.282 0.244 0.631 0.546s1.078 0.060 1.631-0.541l0.388-0.42z"></path>
</symbol>
<symbol id="icon-icecream" viewBox="0 0 32 32">
<path d="M28.010 2.507c-1.395-1.616-3.33-2.507-5.448-2.507-2.313 0-4.332 1.073-5.839 3.102-0.169 0.227-0.433 0.358-0.723 0.358s-0.555-0.13-0.723-0.358c-1.507-2.029-3.526-3.102-5.839-3.102-2.118 0-4.053 0.89-5.448 2.507-1.323 1.533-2.052 3.579-2.052 5.76 0 2.476 0.953 4.868 2.912 7.312 1.831 2.284 4.56 4.627 8.338 7.159v9.262h5.625v-9.262c3.778-2.532 6.507-4.875 8.338-7.159 1.96-2.444 2.912-4.836 2.912-7.312 0-2.181-0.729-4.227-2.052-5.76zM16.938 30.125h-1.875v-6.564c0.309 0.062 0.623 0.094 0.938 0.094s0.628-0.032 0.938-0.094v6.564zM17.6 21.294c-0.972 0.647-2.228 0.647-3.2 0-4.43-2.951-7.408-5.649-9.049-8.234 1.263-0.276 2.211-1.403 2.211-2.747 0-0.517 0.421-0.938 0.938-0.938s0.938 0.421 0.938 0.938v1.875c0 1.551 1.262 2.813 2.813 2.813s2.813-1.262 2.813-2.813v-1.875c0-0.517 0.421-0.938 0.937-0.938s0.938 0.421 0.938 0.938v1.875c0 1.551 1.262 2.813 2.813 2.813s2.813-1.262 2.813-2.813v-1.875c0-0.517 0.421-0.938 0.938-0.938s0.938 0.421 0.938 0.938c0 1.344 0.948 2.471 2.211 2.747-1.641 2.585-4.619 5.283-9.049 8.234zM27.25 11.25c-0.517 0-0.938-0.421-0.938-0.938 0-1.551-1.262-2.813-2.813-2.813s-2.813 1.262-2.813 2.813v1.875c0 0.517-0.421 0.938-0.938 0.938s-0.938-0.421-0.938-0.938v-1.875c0-1.551-1.262-2.813-2.813-2.813s-2.813 1.262-2.813 2.813v1.875c0 0.517-0.421 0.938-0.938 0.938s-0.938-0.421-0.938-0.938v-1.875c0-1.551-1.262-2.813-2.813-2.813s-2.813 1.262-2.813 2.813c0 0.517-0.421 0.938-0.938 0.938-0.128 0-0.252-0.025-0.367-0.074-0.382-0.979-0.571-1.945-0.571-2.909 0-3.644 2.418-6.392 5.625-6.392 1.72 0 3.178 0.789 4.334 2.345 0.526 0.709 1.339 1.115 2.229 1.115s1.703-0.406 2.229-1.115c1.155-1.556 2.613-2.345 4.334-2.345 3.207 0 5.625 2.748 5.625 6.392 0 0.963-0.188 1.93-0.571 2.909-0.115 0.049-0.239 0.074-0.367 0.074z"></path>
</symbol>
<symbol id="icon-logo" viewBox="0 0 52 52">
<path d="M52 26C52 40.3594 40.3594 52 26 52C11.6406 52 0 40.3594 0 26C0 11.6406 11.6406 0 26 0C40.3594 0 52 11.6406 52 26Z" fill="#D41443"/>
<path fill-rule="evenodd" clip-rule="evenodd" d="M17.786 50.7752L17.3729 47.426C13.7942 46.7924 11.0716 43.7398 11.0716 40.0781V34.1434C9.28404 33.5266 8 31.8658 8 29.918C8 28.0428 9.19005 26.4326 10.8739 25.7649C10.8198 25.249 10.7926 24.7304 10.7926 24.2128C10.7926 15.8244 17.8074 9 26.4297 9C35.052 9 42.0668 15.8244 42.0668 24.2129C42.0668 24.7311 42.0396 25.2499 41.9858 25.7652C43.6695 26.4329 44.8594 28.0431 44.8594 29.918C44.8594 31.8658 43.5753 33.5266 41.7878 34.1434V40.0781C41.7878 43.7398 39.0652 46.7924 35.4863 47.426L35.1173 50.4178C34.0768 50.789 33.006 51.0991 31.9095 51.3435L32.3776 47.5488H20.4818L20.9762 51.5568C19.8882 51.359 18.8233 51.0971 17.786 50.7752ZM35.8599 16.1432C33.5554 13.5975 30.1823 11.9883 26.4297 11.9883C22.6771 11.9883 19.304 13.5975 16.9996 16.1432C22.4471 20.5489 30.4123 20.5489 35.8599 16.1432ZM26.4297 22.4473C22.3179 22.4473 18.4176 21.0995 15.2586 18.62C14.368 20.2969 13.8643 22.1986 13.8643 24.2128C13.8643 24.6205 13.8854 25.0291 13.9271 25.4355H38.9327C38.9742 25.0296 38.9952 24.6211 38.9952 24.2128C38.9952 22.1986 38.4915 20.2969 37.6008 18.62C34.4418 21.0995 30.5415 22.4473 26.4297 22.4473ZM34.1087 44.5605C36.6493 44.5605 38.7161 42.5497 38.7161 40.0781V34.4004H35.6445V37.0898C35.6445 39.5615 33.5776 41.5723 31.0371 41.5723C28.4966 41.5723 26.4297 39.5615 26.4297 37.0898V34.4004H14.1432V40.0781C14.1432 42.5497 16.2101 44.5605 18.7507 44.5605H34.1087ZM32.5729 31.4121H40.252C41.0988 31.4121 41.7878 30.7418 41.7878 29.918C41.7878 29.0946 41.0993 28.4243 40.253 28.4238H40.1715H12.6067C11.7604 28.4241 11.0716 29.0944 11.0716 29.918C11.0716 30.7418 11.7606 31.4121 12.6074 31.4121H29.5013V37.0898C29.5013 37.9137 30.1903 38.584 31.0371 38.584C31.884 38.584 32.5729 37.9137 32.5729 37.0898V31.4121Z" fill="white"/>
</symbol>
<symbol id="icon-milk" viewBox="0 0 32 32">
<path d="M26.538 13.421c-0.198-0.239-0.492-0.378-0.802-0.378h-19.471c-0.31 0-0.604 0.139-0.802 0.378s-0.278 0.554-0.219 0.859l3.245 16.877c0.094 0.49 0.523 0.844 1.021 0.844h12.981c0.499 0 0.927-0.354 1.021-0.844l3.245-16.877c0.059-0.305-0.022-0.62-0.219-0.859zM24.344 15.123c-0.478 3.857-3.774 6.473-8.344 6.473s-7.866-2.616-8.344-6.473h16.688zM21.631 29.92h-11.263l-1.684-8.758c1.847 1.583 4.388 2.514 7.315 2.514s5.468-0.931 7.315-2.514l-1.684 8.758z"></path>
<path d="M7.53 7.891c0.521 0.521 1.213 0.807 1.949 0.807s1.428-0.287 1.949-0.807l0.287-0.287c0.488 0.267 0.999 0.488 1.529 0.659v1.111c0 1.52 1.236 2.756 2.756 2.756s2.756-1.236 2.756-2.756v-1.111c0.53-0.171 1.041-0.391 1.529-0.659l0.287 0.287c0.521 0.521 1.213 0.807 1.949 0.807s1.428-0.287 1.949-0.807c1.075-1.075 1.075-2.823 0-3.898l-0.347-0.347c0.503-0.732 0.811-1.256 0.811-2.606 0-0.574-0.466-1.040-1.040-1.040h-15.789c-0.574 0-1.040 0.466-1.040 1.040 0 1.35 0.308 1.874 0.811 2.606l-0.347 0.347c-1.075 1.075-1.075 2.823-0 3.898zM9.001 5.464l0.942-0.942c0.336-0.336 0.402-0.857 0.159-1.266-0.192-0.323-0.364-0.574-0.503-0.776-0.11-0.16-0.195-0.284-0.26-0.399h13.322c-0.065 0.116-0.15 0.239-0.26 0.399-0.139 0.201-0.311 0.452-0.503 0.776-0.243 0.409-0.177 0.93 0.159 1.266l0.942 0.942c0.128 0.128 0.198 0.297 0.198 0.478s-0.070 0.35-0.198 0.478c-0.128 0.128-0.297 0.198-0.478 0.198s-0.35-0.070-0.478-0.198l-0.866-0.866c-0.354-0.354-0.909-0.405-1.322-0.124-0.719 0.49-1.514 0.834-2.365 1.023-0.476 0.106-0.815 0.528-0.815 1.015v1.905c0 0.373-0.303 0.676-0.676 0.676s-0.676-0.303-0.676-0.676v-1.905c0-0.488-0.339-0.91-0.815-1.015-0.851-0.189-1.647-0.533-2.365-1.023-0.178-0.121-0.382-0.181-0.586-0.181-0.268 0-0.535 0.104-0.736 0.305l-0.866 0.866c-0.128 0.128-0.297 0.198-0.478 0.198s-0.35-0.070-0.478-0.198c-0.128-0.128-0.198-0.297-0.198-0.478s0.070-0.351 0.198-0.478z"></path>
</symbol>
<symbol id="icon-telegram" viewBox="0 0 34 34">
<circle cx="17" cy="17" r="17"/>
<path d="M13.6715 19.5238L13.334 23.9538C13.8168 23.9538 14.0259 23.7602 14.2767 23.5278L16.5403 21.5088L21.2307 24.7146C22.0909 25.162 22.697 24.9264 22.9291 23.976L26.0078 10.5116L26.0087 10.5108C26.2815 9.32401 25.5488 8.85991 24.7107 9.15106L6.61376 15.6175C5.37868 16.0649 5.39738 16.7075 6.40381 16.9987L11.0305 18.3418L21.7773 12.0658C22.283 11.7532 22.7429 11.9261 22.3646 12.2387L13.6715 19.5238Z" fill="white"/>
</symbol>
<symbol id="icon-vector" viewBox="0 0 32 32">
<path stroke-linejoin="round" stroke-linecap="round" stroke-miterlimit="4" stroke-width="6.4" d="M8.372 3.2l14.169 12.8-14.169 12.8"></path>
</symbol>
</defs>
</svg>
