<svg aria-hidden="true" style="position: absolute; width: 0; height: 0; overflow: hidden;" version="1.1" xmlns="http://www.w3.org/2000/svg" xmlns:xlink="http://www.w3.org/1999/xlink">
<defs>
<symbol id="logo-dark-them" viewBox="0 0 88 32">
<path fill="#fff" style="fill: var(--color1, #fff)" d="M12.345 4.848v12.975h-3.67v-5.060h-5.005v5.060h-3.67v-12.975h3.67v4.875h5.005v-4.875h3.67z"></path>
<path fill="#fff" style="fill: var(--color1, #fff)" d="M25.777 12.818c0 0.025-0.019 0.315-0.056 0.871h-7.303c0.148 0.519 0.433 0.921 0.853 1.205 0.433 0.272 0.97 0.408 1.613 0.408 0.482 0 0.896-0.068 1.242-0.204 0.358-0.136 0.717-0.358 1.075-0.667l1.854 1.928c-0.976 1.087-2.403 1.631-4.282 1.631-1.174 0-2.206-0.222-3.096-0.667s-1.582-1.063-2.076-1.854c-0.482-0.791-0.723-1.687-0.723-2.688 0-0.989 0.235-1.872 0.704-2.651 0.482-0.791 1.143-1.409 1.983-1.854s1.786-0.667 2.836-0.667c1.001 0 1.909 0.21 2.725 0.63 0.816 0.408 1.458 1.007 1.928 1.798 0.482 0.778 0.723 1.705 0.723 2.78zM20.42 10.112c-0.544 0-1.001 0.154-1.372 0.463-0.358 0.309-0.587 0.729-0.686 1.26h4.115c-0.099-0.531-0.334-0.951-0.704-1.26-0.358-0.309-0.809-0.463-1.353-0.463z"></path>
<path fill="#fff" style="fill: var(--color1, #fff)" d="M28.142 4.069h3.522v13.753h-3.522v-13.753z"></path>
<path fill="#fff" style="fill: var(--color1, #fff)" d="M34.694 4.069h3.522v13.753h-3.522v-13.753z"></path>
<path fill="#fff" style="fill: var(--color1, #fff)" d="M3.328 29.8h-1.854l-0.354 0.855h-0.947l1.779-3.992h0.913l1.785 3.992h-0.97l-0.354-0.855zM3.037 29.098l-0.633-1.528-0.633 1.528h1.266z"></path>
<path fill="#fff" style="fill: var(--color1, #fff)" d="M10.358 29.902v1.58h-0.855v-0.827h-2.817v0.827h-0.856l0.006-1.58h0.16c0.24-0.008 0.409-0.183 0.508-0.525s0.16-0.831 0.183-1.466l0.046-1.249h3.068v3.239h0.559zM7.501 27.997c-0.019 0.475-0.059 0.874-0.12 1.198-0.061 0.319-0.154 0.555-0.279 0.707h1.785v-2.487h-1.369l-0.017 0.582z"></path>
<path fill="#fff" style="fill: var(--color1, #fff)" d="M13.895 30.724c-0.407 0-0.776-0.087-1.106-0.262-0.327-0.179-0.585-0.424-0.776-0.736-0.186-0.316-0.28-0.671-0.28-1.066s0.093-0.749 0.28-1.061c0.19-0.316 0.449-0.561 0.776-0.736 0.331-0.179 0.702-0.268 1.112-0.268 0.346 0 0.658 0.061 0.935 0.183 0.281 0.122 0.517 0.297 0.707 0.525l-0.593 0.548c-0.27-0.312-0.604-0.468-1.004-0.468-0.247 0-0.468 0.055-0.662 0.165-0.194 0.106-0.346 0.257-0.456 0.451-0.106 0.194-0.16 0.414-0.16 0.662s0.053 0.468 0.16 0.662c0.11 0.194 0.262 0.346 0.456 0.456 0.194 0.106 0.414 0.16 0.662 0.16 0.399 0 0.734-0.158 1.004-0.473l0.593 0.548c-0.19 0.232-0.426 0.409-0.707 0.53s-0.595 0.183-0.941 0.183z"></path>
<path fill="#fff" style="fill: var(--color1, #fff)" d="M18.717 29.047h-0.639v1.608h-0.918v-3.992h0.918v1.614h0.662l1.049-1.614h0.975l-1.306 1.928 1.346 2.065h-1.049l-1.038-1.608z"></path>
<path fill="#fff" style="fill: var(--color1, #fff)" d="M22.264 26.663h0.918v2.601l1.905-2.601h0.867v3.992h-0.913v-2.595l-1.905 2.595h-0.873v-3.992z"></path>
<path fill="#fff" style="fill: var(--color1, #fff)" d="M27.975 26.663h0.918v2.601l1.905-2.601h0.867v3.992h-0.913v-2.595l-1.905 2.595h-0.873v-3.992zM29.817 26.406c-0.73 0-1.099-0.291-1.106-0.873h0.633c0.008 0.278 0.165 0.416 0.473 0.416 0.152 0 0.268-0.034 0.348-0.103 0.080-0.072 0.122-0.177 0.126-0.314h0.633c-0.004 0.285-0.097 0.502-0.279 0.65s-0.458 0.222-0.827 0.222z"></path>
<path fill="#fff" style="fill: var(--color1, #fff)" d="M39.031 29.8h-1.854l-0.354 0.855h-0.947l1.779-3.992h0.912l1.785 3.992h-0.969l-0.354-0.855zM38.74 29.098l-0.633-1.528-0.633 1.528h1.266z"></path>
<path fill="#fff" style="fill: var(--color1, #fff)" d="M45.571 26.663v3.992h-0.924v-1.637h-1.814v1.637h-0.924v-3.992h0.924v1.574h1.814v-1.574h0.924z"></path>
<path fill="#fff" style="fill: var(--color1, #fff)" d="M50.41 27.416h-1.899l0.006 3.239h-0.918v-3.992h2.817l-0.006 0.753z"></path>
<path fill="#fff" style="fill: var(--color1, #fff)" d="M55.069 26.663v3.992h-0.913v-3.239h-1.369l-0.028 0.833c-0.019 0.567-0.065 1.027-0.137 1.38-0.072 0.35-0.194 0.62-0.365 0.81-0.167 0.186-0.403 0.279-0.707 0.279-0.125 0-0.278-0.021-0.456-0.063l0.057-0.781c0.049 0.015 0.105 0.023 0.165 0.023 0.221 0 0.374-0.129 0.462-0.388 0.087-0.262 0.143-0.671 0.165-1.226l0.057-1.62h3.068z"></path>
<path fill="#fff" style="fill: var(--color1, #fff)" d="M57.092 26.663h0.918v2.601l1.905-2.601h0.867v3.992h-0.913v-2.595l-1.905 2.595h-0.873v-3.992z"></path>
<path fill="#fff" style="fill: var(--color1, #fff)" d="M62.803 26.663h0.918v2.601l1.905-2.601h0.867v3.992h-0.913v-2.595l-1.905 2.595h-0.873v-3.992zM64.645 26.406c-0.73 0-1.099-0.291-1.107-0.873h0.633c0.007 0.278 0.165 0.416 0.473 0.416 0.152 0 0.268-0.034 0.348-0.103 0.080-0.072 0.122-0.177 0.125-0.314h0.633c-0.004 0.285-0.097 0.502-0.279 0.65s-0.458 0.222-0.827 0.222z"></path>
<path fill="#fff" style="fill: var(--color1, #fff)" d="M70.401 30.724c-0.407 0-0.776-0.087-1.106-0.262-0.327-0.179-0.586-0.424-0.776-0.736-0.186-0.316-0.279-0.671-0.279-1.066s0.093-0.749 0.279-1.061c0.19-0.316 0.449-0.561 0.776-0.736 0.331-0.179 0.701-0.268 1.112-0.268 0.346 0 0.658 0.061 0.935 0.183 0.281 0.122 0.517 0.297 0.707 0.525l-0.593 0.548c-0.27-0.312-0.605-0.468-1.004-0.468-0.247 0-0.468 0.055-0.662 0.165-0.194 0.106-0.346 0.257-0.456 0.451-0.106 0.194-0.16 0.414-0.16 0.662s0.053 0.468 0.16 0.662c0.11 0.194 0.262 0.346 0.456 0.456 0.194 0.106 0.414 0.16 0.662 0.16 0.399 0 0.734-0.158 1.004-0.473l0.593 0.548c-0.19 0.232-0.426 0.409-0.707 0.53s-0.595 0.183-0.941 0.183z"></path>
<path fill="#fff" style="fill: var(--color1, #fff)" d="M75.224 29.047h-0.639v1.608h-0.918v-3.992h0.918v1.614h0.662l1.049-1.614h0.975l-1.306 1.928 1.346 2.065h-1.049l-1.038-1.608z"></path>
<path fill="#fff" style="fill: var(--color1, #fff)" d="M78.771 26.663h0.918v2.601l1.905-2.601h0.867v3.992h-0.913v-2.595l-1.905 2.595h-0.873v-3.992z"></path>
<path fill="#fff" style="fill: var(--color1, #fff)" d="M84.481 26.663h0.918v2.601l1.905-2.601h0.867v3.992h-0.913v-2.595l-1.905 2.595h-0.873v-3.992zM86.324 26.406c-0.73 0-1.099-0.291-1.106-0.873h0.633c0.008 0.278 0.165 0.416 0.473 0.416 0.152 0 0.268-0.034 0.348-0.103 0.080-0.072 0.122-0.177 0.125-0.314h0.633c-0.004 0.285-0.097 0.502-0.279 0.65s-0.458 0.222-0.827 0.222z"></path>
<path fill="#fff" style="fill: var(--color1, #fff)" d="M73.153 14.987v2.836h-10.417v-12.975h10.176v2.836h-6.543v2.187h5.765v2.743h-5.765v2.373h6.784z"></path>
<path fill="#fff" style="fill: var(--color1, #fff)" d="M88.276 4.848v12.975h-3.021l-5.728-6.914v6.914h-3.596v-12.975h3.021l5.728 6.914v-6.914h3.596z"></path>
<path fill="#ff6b09" style="fill: var(--color2, #ff6b09)" d="M57.546 11.090c-0.189-0.424-0.451-0.842-0.833-1.325-0.964-1.212-1.258-3.915-1.261-3.94-0.013-0.13-0.105-0.237-0.225-0.275-0.124-0.039-0.258-0.003-0.346 0.094-1.15 1.286-0.667 3.273-0.405 4.067 0.072 0.217 0.15 0.473 0.206 0.732 0.425 2.097-0.395 3.046-0.588 3.237-0.186 0.052-0.314 0.026-0.431-0.101-0.405-0.444-0.539-1.899-0.35-3.795 0.039-0.386 0.029-0.732-0.026-1.056-0.4-2.33-1.865-3.825-2.238-4.349-1.026-1.517-1.131-4.041-1.134-4.064-0.003-0.12-0.072-0.227-0.18-0.279-0.105-0.052-0.232-0.045-0.33 0.023-1.712 1.163-1.565 3.966-1.327 5.532 0.056 0.363 0.163 0.732 0.35 1.199 0.663 1.669-0.131 3.824-0.137 3.843s-0.013 0.036-0.016 0.055c-0.101 0.531-0.271 0.849-0.461 0.849-0.020 0-0.039-0.003-0.062-0.010-0.232-0.049-0.353-0.295-0.356-0.509-0.013-2.764-2.787-3.694-2.817-3.704-0.124-0.039-0.261-0.003-0.346 0.097-0.088 0.1-0.105 0.24-0.046 0.356 0.033 0.068 0.137 0.366 0.065 1.419-0.062 0.946-0.235 1.883-0.513 2.78-0.66 2.152-0.555 4.19-0.549 4.287 0.507 5.519 8.444 6.486 13.155 3.377 0.516-0.34 0.938-0.729 1.248-1.157 1.738-2.398 0.716-5.655-0.046-7.385zM45.472 16.362c0.010 0.178-0.127 0.33-0.307 0.34h-0.020c-0.173 0-0.317-0.133-0.327-0.305-0.029-0.473-0.023-0.969 0.013-1.507 0.013-0.178 0.17-0.311 0.35-0.301 0.18 0.013 0.317 0.168 0.304 0.347-0.036 0.512-0.042 0.979-0.013 1.426zM45.632 13.491c-0.020 0.165-0.16 0.285-0.323 0.285-0.013 0-0.026 0-0.042-0.003-0.176-0.023-0.304-0.181-0.284-0.36l0.157-1.251c0.023-0.175 0.183-0.301 0.366-0.282 0.18 0.023 0.307 0.185 0.284 0.363l-0.157 1.248z"></path>
<path fill="#ff6b09" style="fill: var(--color2, #ff6b09)" d="M55.335 4.433c-0.178-0.027-0.3-0.193-0.273-0.369 0.020-0.132 0.138-0.806 0.459-1.145 0.123-0.131 0.33-0.138 0.462-0.015s0.138 0.327 0.015 0.458c-0.136 0.144-0.251 0.554-0.29 0.8-0.028 0.175-0.192 0.298-0.373 0.271z"></path>
<path fill="#ff6b09" style="fill: var(--color2, #ff6b09)" d="M43.423 6.048c-0.063-0.241-0.218-0.638-0.367-0.768-0.136-0.118-0.149-0.323-0.030-0.457s0.325-0.149 0.461-0.030c0.352 0.306 0.536 0.966 0.569 1.094 0.045 0.173-0.061 0.35-0.235 0.394-0.178 0.045-0.353-0.063-0.398-0.233z"></path>
</symbol>
<symbol id="logo-fire" viewBox="0 0 26 32">
<path fill="#ff6b09" style="fill: var(--color2, #ff6b09)" d="M22.641 16.080c-0.275-0.615-0.654-1.222-1.208-1.922-1.398-1.757-1.824-5.676-1.829-5.714-0.019-0.188-0.152-0.343-0.327-0.399-0.18-0.056-0.374-0.005-0.502 0.136-1.668 1.865-0.967 4.746-0.588 5.897 0.104 0.315 0.218 0.686 0.298 1.062 0.616 3.040-0.573 4.417-0.853 4.694-0.27 0.075-0.455 0.038-0.625-0.146-0.587-0.644-0.782-2.753-0.507-5.502 0.057-0.559 0.043-1.062-0.038-1.532-0.58-3.379-2.704-5.546-3.245-6.306-1.488-2.199-1.639-5.859-1.644-5.892-0.005-0.174-0.104-0.329-0.261-0.404-0.152-0.075-0.336-0.066-0.479 0.033-2.483 1.687-2.269 5.751-1.924 8.021 0.081 0.526 0.237 1.062 0.507 1.739 0.962 2.42-0.19 5.544-0.199 5.573s-0.019 0.052-0.024 0.080c-0.147 0.771-0.393 1.231-0.668 1.231-0.028 0-0.057-0.005-0.090-0.014-0.336-0.070-0.512-0.428-0.516-0.738-0.019-4.008-4.041-5.357-4.084-5.371-0.18-0.056-0.379-0.005-0.502 0.141-0.128 0.146-0.152 0.348-0.066 0.517 0.047 0.099 0.199 0.531 0.095 2.058-0.090 1.372-0.341 2.73-0.744 4.032-0.957 3.12-0.805 6.076-0.796 6.216 0.736 8.002 12.245 9.404 19.075 4.896 0.748-0.493 1.36-1.057 1.81-1.677 2.521-3.477 1.038-8.199-0.066-10.708zM5.135 23.725c0.014 0.258-0.185 0.479-0.445 0.493h-0.028c-0.251 0-0.46-0.193-0.474-0.442-0.043-0.686-0.033-1.405 0.019-2.185 0.019-0.258 0.246-0.451 0.507-0.437 0.261 0.019 0.46 0.244 0.441 0.503-0.052 0.742-0.062 1.419-0.019 2.068zM5.367 19.562c-0.028 0.24-0.232 0.414-0.469 0.414-0.019 0-0.038 0-0.062-0.005-0.256-0.033-0.441-0.263-0.412-0.521l0.227-1.814c0.033-0.254 0.265-0.437 0.531-0.409 0.261 0.033 0.445 0.268 0.412 0.526l-0.227 1.809z"></path>
<path fill="#ff6b09" style="fill: var(--color2, #ff6b09)" d="M19.436 6.428c-0.259-0.040-0.436-0.279-0.396-0.535 0.030-0.191 0.201-1.168 0.665-1.66 0.179-0.189 0.478-0.199 0.67-0.021s0.2 0.475 0.021 0.664c-0.196 0.208-0.364 0.804-0.42 1.16-0.040 0.254-0.278 0.431-0.541 0.392z"></path>
<path fill="#ff6b09" style="fill: var(--color2, #ff6b09)" d="M2.163 8.769c-0.091-0.349-0.316-0.926-0.532-1.114-0.197-0.171-0.217-0.468-0.044-0.663s0.471-0.215 0.669-0.044c0.511 0.444 0.777 1.4 0.826 1.587 0.065 0.251-0.088 0.507-0.341 0.572-0.259 0.065-0.513-0.091-0.577-0.338z"></path>
</symbol>
<symbol id="logo-light-them" viewBox="0 0 88 32">
<path fill="#111518" style="fill: var(--color3, #111518)" d="M12.345 4.848v12.975h-3.67v-5.060h-5.005v5.060h-3.67v-12.975h3.67v4.875h5.005v-4.875h3.67z"></path>
<path fill="#111518" style="fill: var(--color3, #111518)" d="M25.777 12.818c0 0.025-0.019 0.315-0.056 0.871h-7.303c0.148 0.519 0.433 0.921 0.853 1.205 0.433 0.272 0.97 0.408 1.613 0.408 0.482 0 0.896-0.068 1.242-0.204 0.358-0.136 0.717-0.358 1.075-0.667l1.854 1.928c-0.976 1.087-2.403 1.631-4.282 1.631-1.174 0-2.206-0.222-3.096-0.667s-1.582-1.063-2.076-1.854c-0.482-0.791-0.723-1.687-0.723-2.688 0-0.989 0.235-1.872 0.704-2.651 0.482-0.791 1.143-1.409 1.983-1.854s1.786-0.667 2.836-0.667c1.001 0 1.909 0.21 2.725 0.63 0.816 0.408 1.458 1.007 1.928 1.798 0.482 0.778 0.723 1.705 0.723 2.78zM20.42 10.112c-0.544 0-1.001 0.154-1.372 0.463-0.358 0.309-0.587 0.729-0.686 1.26h4.115c-0.099-0.531-0.334-0.951-0.704-1.26-0.358-0.309-0.809-0.463-1.353-0.463z"></path>
<path fill="#111518" style="fill: var(--color3, #111518)" d="M28.142 4.069h3.522v13.753h-3.522v-13.753z"></path>
<path fill="#111518" style="fill: var(--color3, #111518)" d="M34.694 4.069h3.522v13.753h-3.522v-13.753z"></path>
<path fill="#111518" style="fill: var(--color3, #111518)" d="M3.328 29.8h-1.854l-0.354 0.855h-0.947l1.779-3.992h0.913l1.785 3.992h-0.97l-0.354-0.855zM3.037 29.098l-0.633-1.528-0.633 1.528h1.266z"></path>
<path fill="#111518" style="fill: var(--color3, #111518)" d="M10.358 29.902v1.58h-0.855v-0.827h-2.817v0.827h-0.856l0.006-1.58h0.16c0.24-0.008 0.409-0.183 0.508-0.525s0.16-0.831 0.183-1.466l0.046-1.249h3.068v3.239h0.559zM7.501 27.997c-0.019 0.475-0.059 0.874-0.12 1.198-0.061 0.319-0.154 0.555-0.279 0.707h1.785v-2.487h-1.369l-0.017 0.582z"></path>
<path fill="#111518" style="fill: var(--color3, #111518)" d="M13.895 30.724c-0.407 0-0.776-0.087-1.106-0.262-0.327-0.179-0.585-0.424-0.776-0.736-0.186-0.316-0.28-0.671-0.28-1.066s0.093-0.749 0.28-1.061c0.19-0.316 0.449-0.561 0.776-0.736 0.331-0.179 0.702-0.268 1.112-0.268 0.346 0 0.658 0.061 0.935 0.183 0.281 0.122 0.517 0.297 0.707 0.525l-0.593 0.548c-0.27-0.312-0.604-0.468-1.004-0.468-0.247 0-0.468 0.055-0.662 0.165-0.194 0.106-0.346 0.257-0.456 0.451-0.106 0.194-0.16 0.414-0.16 0.662s0.053 0.468 0.16 0.662c0.11 0.194 0.262 0.346 0.456 0.456 0.194 0.106 0.414 0.16 0.662 0.16 0.399 0 0.734-0.158 1.004-0.473l0.593 0.548c-0.19 0.232-0.426 0.409-0.707 0.53s-0.595 0.183-0.941 0.183z"></path>
<path fill="#111518" style="fill: var(--color3, #111518)" d="M18.717 29.047h-0.639v1.608h-0.918v-3.992h0.918v1.614h0.662l1.049-1.614h0.975l-1.306 1.928 1.346 2.065h-1.049l-1.038-1.608z"></path>
<path fill="#111518" style="fill: var(--color3, #111518)" d="M22.264 26.663h0.918v2.601l1.905-2.601h0.867v3.992h-0.913v-2.595l-1.905 2.595h-0.873v-3.992z"></path>
<path fill="#111518" style="fill: var(--color3, #111518)" d="M27.975 26.663h0.918v2.601l1.905-2.601h0.867v3.992h-0.913v-2.595l-1.905 2.595h-0.873v-3.992zM29.817 26.406c-0.73 0-1.099-0.291-1.106-0.873h0.633c0.008 0.278 0.165 0.416 0.473 0.416 0.152 0 0.268-0.034 0.348-0.103 0.080-0.072 0.122-0.177 0.126-0.314h0.633c-0.004 0.285-0.097 0.502-0.279 0.65s-0.458 0.222-0.827 0.222z"></path>
<path fill="#111518" style="fill: var(--color3, #111518)" d="M39.031 29.8h-1.854l-0.354 0.855h-0.947l1.779-3.992h0.912l1.785 3.992h-0.969l-0.354-0.855zM38.74 29.098l-0.633-1.528-0.633 1.528h1.266z"></path>
<path fill="#111518" style="fill: var(--color3, #111518)" d="M45.571 26.663v3.992h-0.924v-1.637h-1.814v1.637h-0.924v-3.992h0.924v1.574h1.814v-1.574h0.924z"></path>
<path fill="#111518" style="fill: var(--color3, #111518)" d="M50.41 27.416h-1.899l0.006 3.239h-0.918v-3.992h2.817l-0.006 0.753z"></path>
<path fill="#111518" style="fill: var(--color3, #111518)" d="M55.069 26.663v3.992h-0.913v-3.239h-1.369l-0.028 0.833c-0.019 0.567-0.065 1.027-0.137 1.38-0.072 0.35-0.194 0.62-0.365 0.81-0.167 0.186-0.403 0.279-0.707 0.279-0.125 0-0.278-0.021-0.456-0.063l0.057-0.781c0.049 0.015 0.105 0.023 0.165 0.023 0.221 0 0.374-0.129 0.462-0.388 0.087-0.262 0.143-0.671 0.165-1.226l0.057-1.62h3.068z"></path>
<path fill="#111518" style="fill: var(--color3, #111518)" d="M57.092 26.663h0.918v2.601l1.905-2.601h0.867v3.992h-0.913v-2.595l-1.905 2.595h-0.873v-3.992z"></path>
<path fill="#111518" style="fill: var(--color3, #111518)" d="M62.803 26.663h0.918v2.601l1.905-2.601h0.867v3.992h-0.913v-2.595l-1.905 2.595h-0.873v-3.992zM64.645 26.406c-0.73 0-1.099-0.291-1.107-0.873h0.633c0.007 0.278 0.165 0.416 0.473 0.416 0.152 0 0.268-0.034 0.348-0.103 0.080-0.072 0.122-0.177 0.125-0.314h0.633c-0.004 0.285-0.097 0.502-0.279 0.65s-0.458 0.222-0.827 0.222z"></path>
<path fill="#111518" style="fill: var(--color3, #111518)" d="M70.401 30.724c-0.407 0-0.776-0.087-1.106-0.262-0.327-0.179-0.586-0.424-0.776-0.736-0.186-0.316-0.279-0.671-0.279-1.066s0.093-0.749 0.279-1.061c0.19-0.316 0.449-0.561 0.776-0.736 0.331-0.179 0.701-0.268 1.112-0.268 0.346 0 0.658 0.061 0.935 0.183 0.281 0.122 0.517 0.297 0.707 0.525l-0.593 0.548c-0.27-0.312-0.605-0.468-1.004-0.468-0.247 0-0.468 0.055-0.662 0.165-0.194 0.106-0.346 0.257-0.456 0.451-0.106 0.194-0.16 0.414-0.16 0.662s0.053 0.468 0.16 0.662c0.11 0.194 0.262 0.346 0.456 0.456 0.194 0.106 0.414 0.16 0.662 0.16 0.399 0 0.734-0.158 1.004-0.473l0.593 0.548c-0.19 0.232-0.426 0.409-0.707 0.53s-0.595 0.183-0.941 0.183z"></path>
<path fill="#111518" style="fill: var(--color3, #111518)" d="M75.224 29.047h-0.639v1.608h-0.918v-3.992h0.918v1.614h0.662l1.049-1.614h0.975l-1.306 1.928 1.346 2.065h-1.049l-1.038-1.608z"></path>
<path fill="#111518" style="fill: var(--color3, #111518)" d="M78.771 26.663h0.918v2.601l1.905-2.601h0.867v3.992h-0.913v-2.595l-1.905 2.595h-0.873v-3.992z"></path>
<path fill="#111518" style="fill: var(--color3, #111518)" d="M84.481 26.663h0.918v2.601l1.905-2.601h0.867v3.992h-0.913v-2.595l-1.905 2.595h-0.873v-3.992zM86.324 26.406c-0.73 0-1.099-0.291-1.106-0.873h0.633c0.008 0.278 0.165 0.416 0.473 0.416 0.152 0 0.268-0.034 0.348-0.103 0.080-0.072 0.122-0.177 0.125-0.314h0.633c-0.004 0.285-0.097 0.502-0.279 0.65s-0.458 0.222-0.827 0.222z"></path>
<path fill="#111518" style="fill: var(--color3, #111518)" d="M73.153 14.987v2.836h-10.417v-12.975h10.176v2.836h-6.543v2.187h5.765v2.743h-5.765v2.373h6.784z"></path>
<path fill="#111518" style="fill: var(--color3, #111518)" d="M88.276 4.848v12.975h-3.021l-5.728-6.914v6.914h-3.596v-12.975h3.021l5.728 6.914v-6.914h3.596z"></path>
<path fill="#ff6b09" style="fill: var(--color2, #ff6b09)" d="M57.546 11.090c-0.189-0.424-0.451-0.842-0.833-1.325-0.964-1.212-1.258-3.915-1.261-3.94-0.013-0.13-0.105-0.237-0.225-0.275-0.124-0.039-0.258-0.003-0.346 0.094-1.15 1.286-0.667 3.273-0.405 4.067 0.072 0.217 0.15 0.473 0.206 0.732 0.425 2.097-0.395 3.046-0.588 3.237-0.186 0.052-0.314 0.026-0.431-0.101-0.405-0.444-0.539-1.899-0.35-3.795 0.039-0.386 0.029-0.732-0.026-1.056-0.4-2.33-1.865-3.825-2.238-4.349-1.026-1.517-1.131-4.041-1.134-4.064-0.003-0.12-0.072-0.227-0.18-0.279-0.105-0.052-0.232-0.045-0.33 0.023-1.712 1.163-1.565 3.966-1.327 5.532 0.056 0.363 0.163 0.732 0.35 1.199 0.663 1.669-0.131 3.824-0.137 3.843s-0.013 0.036-0.016 0.055c-0.101 0.531-0.271 0.849-0.461 0.849-0.020 0-0.039-0.003-0.062-0.010-0.232-0.049-0.353-0.295-0.356-0.509-0.013-2.764-2.787-3.694-2.817-3.704-0.124-0.039-0.261-0.003-0.346 0.097-0.088 0.1-0.105 0.24-0.046 0.356 0.033 0.068 0.137 0.366 0.065 1.419-0.062 0.946-0.235 1.883-0.513 2.78-0.66 2.152-0.555 4.19-0.549 4.287 0.507 5.519 8.444 6.486 13.155 3.377 0.516-0.34 0.938-0.729 1.248-1.157 1.738-2.398 0.716-5.655-0.046-7.385zM45.472 16.362c0.010 0.178-0.127 0.33-0.307 0.34h-0.020c-0.173 0-0.317-0.133-0.327-0.305-0.029-0.473-0.023-0.969 0.013-1.507 0.013-0.178 0.17-0.311 0.35-0.301 0.18 0.013 0.317 0.168 0.304 0.347-0.036 0.512-0.042 0.979-0.013 1.426zM45.632 13.491c-0.020 0.165-0.16 0.285-0.323 0.285-0.013 0-0.026 0-0.042-0.003-0.176-0.023-0.304-0.181-0.284-0.36l0.157-1.251c0.023-0.175 0.183-0.301 0.366-0.282 0.18 0.023 0.307 0.185 0.284 0.363l-0.157 1.248z"></path>
<path fill="#ff6b09" style="fill: var(--color2, #ff6b09)" d="M55.335 4.433c-0.178-0.027-0.3-0.193-0.273-0.369 0.020-0.132 0.138-0.806 0.459-1.145 0.123-0.131 0.33-0.138 0.462-0.015s0.138 0.327 0.015 0.458c-0.136 0.144-0.251 0.554-0.29 0.8-0.028 0.175-0.192 0.298-0.373 0.271z"></path>
<path fill="#ff6b09" style="fill: var(--color2, #ff6b09)" d="M43.423 6.048c-0.063-0.241-0.218-0.638-0.367-0.768-0.136-0.118-0.149-0.323-0.030-0.457s0.325-0.149 0.461-0.030c0.352 0.306 0.536 0.966 0.569 1.094 0.045 0.173-0.061 0.35-0.235 0.394-0.178 0.045-0.353-0.063-0.398-0.233z"></path>
</symbol>
<symbol id="menu_mobile" viewBox="0 0 48 32">
<path d="M0 5.333v-5.333h48v5.333h-48zM0 18.667h48v-5.333h-48v5.333zM0 32h48v-5.333h-48v5.333z"></path>
</symbol>
<symbol id="close_mobile" viewBox="0 0 32 32">
<path d="M26.667 7.303l-1.97-1.97-7.808 7.808-7.808-7.808-1.97 1.97 7.808 7.808-7.808 7.808 1.97 1.97 7.808-7.808 7.808 7.808 1.97-1.97-7.808-7.808 7.808-7.808z"></path>
</symbol>
<symbol id="study-program" viewBox="0 0 31 32">
<path fill="#ff6b09" style="fill: var(--color1, #ff6b09)" d="M30.151 4.961c0-0.001-0.001-0.001-0.001-0.002-0.007-0.016-0.015-0.031-0.024-0.045-0.001-0.001-0.002-0.002-0.002-0.003-0.010-0.015-0.021-0.029-0.034-0.042l-4.806-4.806c-0.013-0.013-0.026-0.023-0.041-0.033-0.003-0.002-0.006-0.004-0.009-0.006-0.012-0.007-0.024-0.014-0.036-0.019-0.004-0.002-0.007-0.003-0.011-0.005-0.031-0.013-0.065-0.019-0.099-0.020-0.002 0-0.004-0-0.005-0h-21.171c-0.157 0-0.284 0.127-0.284 0.284v29.311c0 0.019 0.002 0.037 0.006 0.056 0.002 0.008 0.005 0.015 0.007 0.023 0.003 0.010 0.006 0.020 0.009 0.030 0.004 0.009 0.009 0.017 0.014 0.026 0.004 0.007 0.008 0.016 0.013 0.023 0.010 0.014 0.021 0.028 0.033 0.040 0.001 0.001 0.001 0.002 0.003 0.003l2.165 2.164c0.111 0.111 0.29 0.111 0.402 0l1.964-1.963 1.964 1.963c0.055 0.056 0.128 0.083 0.201 0.083s0.145-0.027 0.201-0.083l1.963-1.963 1.965 1.963c0.111 0.111 0.291 0.111 0.402 0l1.963-1.963 1.963 1.963c0.111 0.111 0.291 0.111 0.401 0l1.965-1.963 1.964 1.963c0.055 0.056 0.128 0.083 0.201 0.083s0.145-0.027 0.201-0.083l1.963-1.963 1.965 1.963c0.111 0.111 0.291 0.111 0.401 0l2.165-2.164c0.004-0.004 0.007-0.009 0.011-0.014 0.008-0.009 0.017-0.019 0.024-0.029s0.011-0.020 0.016-0.030c0.003-0.007 0.007-0.012 0.009-0.019 0.006-0.013 0.009-0.026 0.012-0.039 0.001-0.004 0.003-0.009 0.005-0.013 0.004-0.019 0.006-0.038 0.006-0.058v-24.503c-0.001-0.037-0.008-0.074-0.023-0.109zM25.367 0.949l3.836 3.835h-3.836v-3.835zM29.604 29.456l-1.88 1.88-1.965-1.963c-0.111-0.111-0.29-0.111-0.401 0l-1.963 1.963-1.963-1.963c-0.111-0.111-0.291-0.111-0.402 0l-1.965 1.963-1.963-1.962c0-0-0-0.001-0-0.001-0.055-0.055-0.128-0.083-0.201-0.083s-0.145 0.028-0.201 0.083c-0 0-0 0-0 0l-1.963 1.963-1.965-1.963c-0.111-0.111-0.29-0.111-0.402 0l-1.963 1.963-1.964-1.963c-0.111-0.111-0.29-0.111-0.402 0l-1.965 1.963-1.88-1.88v-28.909h20.603v4.522c0 0.157 0.127 0.284 0.284 0.284h4.521l0 24.103z"></path>
<path fill="#ff6b09" style="fill: var(--color1, #ff6b09)" d="M6.314 3.234h9.303c0.157 0 0.284-0.127 0.284-0.284s-0.127-0.284-0.284-0.284h-9.303c-0.157 0-0.284 0.127-0.284 0.284s0.127 0.284 0.284 0.284z"></path>
<path fill="#ff6b09" style="fill: var(--color1, #ff6b09)" d="M6.314 4.991h14.919c0.157 0 0.284-0.127 0.284-0.284s-0.127-0.284-0.284-0.284h-14.919c-0.157 0-0.284 0.127-0.284 0.284s0.127 0.284 0.284 0.284z"></path>
<path fill="#ff6b09" style="fill: var(--color1, #ff6b09)" d="M6.030 6.568v9.199c0 0.157 0.127 0.284 0.284 0.284h21.172c0.157 0 0.284-0.127 0.284-0.284v-9.199c0-0.157-0.127-0.284-0.284-0.284h-21.172c-0.157 0-0.284 0.127-0.284 0.284zM12.308 6.852h14.893v2.445h-14.893v-2.445zM12.308 9.865h14.893v2.444h-14.893v-2.444zM12.308 12.877h14.893v2.605h-14.893v-2.605zM6.598 6.852h5.142v2.445h-5.142v-2.445zM6.598 9.865h5.142v2.444h-5.142v-2.444zM6.598 12.877h5.142v2.605h-5.142v-2.605z"></path>
<path fill="#ff6b09" style="fill: var(--color1, #ff6b09)" d="M27.486 17.329h-21.172c-0.157 0-0.284 0.127-0.284 0.284v9.198c0 0.157 0.127 0.284 0.284 0.284s0.284-0.127 0.284-0.284v-2.889h5.142v2.889c0 0.157 0.127 0.284 0.284 0.284s0.284-0.127 0.284-0.284v-2.889h14.893v2.889c0 0.157 0.127 0.284 0.284 0.284s0.284-0.127 0.284-0.284v-9.198c0.001-0.157-0.126-0.284-0.283-0.284zM11.74 23.354h-5.142v-2.444h5.142v2.444zM11.74 20.342h-5.142v-2.444h5.142v2.444zM27.201 23.354h-14.893v-2.444h14.893v2.444zM27.201 20.342h-14.893v-2.444h14.893v2.444z"></path>
<path fill="#ff6b09" style="fill: var(--color1, #ff6b09)" d="M2.281-0.021c-0.157 0-0.284 0.127-0.284 0.284v29.311c0 0.157 0.127 0.284 0.284 0.284s0.284-0.127 0.284-0.284v-29.311c0-0.157-0.127-0.284-0.284-0.284z"></path>
<path fill="#ff6b09" style="fill: var(--color1, #ff6b09)" d="M0.718-0.021c-0.157 0-0.284 0.127-0.284 0.284v29.311c0 0.157 0.127 0.284 0.284 0.284s0.284-0.127 0.284-0.284v-29.311c0-0.157-0.127-0.284-0.284-0.284z"></path>
</symbol>
<symbol id="vk" viewBox="0 0 32 32">
<path  d="M27.541 18.46c1.061 1.036 2.182 2.011 3.134 3.152 0.421 0.507 0.819 1.030 1.123 1.619 0.432 0.836 0.041 1.757-0.709 1.807l-4.662-0.002c-1.202 0.1-2.162-0.384-2.968-1.206-0.645-0.657-1.243-1.357-1.864-2.037-0.255-0.278-0.521-0.539-0.839-0.746-0.636-0.413-1.189-0.287-1.552 0.377-0.37 0.675-0.454 1.423-0.491 2.175-0.050 1.098-0.382 1.386-1.484 1.437-2.357 0.111-4.593-0.245-6.671-1.434-1.832-1.048-3.252-2.528-4.489-4.203-2.407-3.261-4.25-6.845-5.907-10.53-0.373-0.83-0.1-1.276 0.816-1.291 1.521-0.030 3.041-0.027 4.564-0.002 0.618 0.009 1.027 0.364 1.266 0.947 0.823 2.023 1.83 3.948 3.093 5.732 0.337 0.475 0.68 0.95 1.168 1.284 0.541 0.37 0.952 0.248 1.207-0.355 0.161-0.382 0.232-0.793 0.268-1.202 0.121-1.407 0.136-2.812-0.075-4.214-0.13-0.875-0.623-1.442-1.496-1.607-0.446-0.084-0.379-0.25-0.164-0.505 0.375-0.439 0.727-0.712 1.43-0.712h5.269c0.829 0.164 1.014 0.536 1.127 1.371l0.004 5.852c-0.009 0.323 0.161 1.282 0.743 1.496 0.466 0.152 0.773-0.22 1.052-0.516 1.261-1.339 2.162-2.921 2.966-4.559 0.357-0.72 0.664-1.469 0.961-2.216 0.22-0.555 0.566-0.828 1.191-0.816l5.071 0.005c0.15 0 0.302 0.002 0.448 0.027 0.855 0.146 1.089 0.513 0.825 1.348-0.416 1.309-1.225 2.4-2.016 3.496-0.846 1.17-1.75 2.3-2.589 3.477-0.77 1.075-0.709 1.617 0.248 2.55z"></path>
</symbol>
<symbol id="phone" viewBox="0 0 32 32">
<path fill="#ff6b09" style="fill: var(--color1, #ff6b09)" d="M4.657 0.002c-0.515 0.024-1.021 0.243-1.392 0.651l-2.595 2.852c0.004-0.008-0.010-0.007-0.084 0.097-0.039 0.054-0.070 0.113-0.090 0.176-1.056 3.364-0.348 7.064 1.376 10.584s4.475 6.887 7.633 9.651c3.158 2.764 6.721 4.926 10.119 5.999s6.692 1.058 9.133-0.713c0.027-0.020 0.051-0.041 0.075-0.065 0.064-0.064 0.066-0.072 0.056-0.062l0.010-0.012 2.582-2.84c0.742-0.816 0.682-2.098-0.134-2.84l-6.126-5.571c-0.816-0.742-2.098-0.683-2.84 0.133l-2.772 3.048c-2.25-0.651-4.173-1.756-6.023-3.439s-3.132-3.494-3.993-5.673l2.771-3.048c0.742-0.816 0.683-2.098-0.133-2.84l-6.126-5.571c-0.408-0.371-0.933-0.542-1.448-0.518l-0.001 0zM4.715 1.253c0.19-0.008 0.383 0.057 0.541 0.201l6.126 5.571c0.316 0.287 0.337 0.745 0.050 1.061l-3.063 3.366c-0.077 0.085-0.129 0.19-0.151 0.302s-0.013 0.229 0.027 0.337c0.93 2.537 2.429 4.618 4.493 6.495s4.275 3.174 6.889 3.859c0.111 0.029 0.228 0.027 0.339-0.005s0.21-0.095 0.287-0.18l3.064-3.367c0.287-0.315 0.744-0.336 1.060-0.049l6.127 5.571c0.316 0.287 0.336 0.744 0.049 1.060l-2.561 2.815c-2.003 1.438-4.825 1.519-7.986 0.521-3.173-1.002-6.617-3.076-9.666-5.745s-5.702-5.926-7.332-9.254c-1.614-3.294-2.199-6.624-1.312-9.559l2.502-2.75c0.143-0.158 0.33-0.242 0.52-0.251l0 0z"></path>
</symbol>
<symbol id="group" viewBox="0 0 33 32">
<path fill="#ff6b09" style="fill: var(--color1, #ff6b09)" d="M1.993 12.558v2.831c0 0.152 0.070 0.295 0.189 0.39 1.935 1.523 4.363 2.362 6.837 2.362 0.74 0 1.482-0.077 2.206-0.224 1.544 0.683 3.188 1.032 4.89 1.032 1.707 0 3.351-0.349 4.89-1.032 3.091 0.624 6.384-0.046 9.042-2.138 0.12-0.094 0.189-0.238 0.189-0.39v-2.831c0-0.416-0.206-0.794-0.575-1.027l-3.867-2.176c0.846-1.073 1.476-2.602 1.586-3.913 0.321-2.256-1.518-4.646-4.165-4.646-1.113 0-2.171 0.458-2.948 1.227-0.027 0.027-0.058 0.049-0.084 0.076-0.024 0.025-0.043 0.054-0.067 0.080-0.016 0.017-0.029 0.036-0.044 0.053-0.757-1.38-2.211-2.232-3.924-2.232-0.166 0-0.33 0.011-0.492 0.028-0.010-0.001-0.018-0.006-0.028-0.006-0.092 0-0.287 0.024-0.391 0.054-0.015 0.004-0.026 0.015-0.041 0.021-1.279 0.259-2.363 1.034-3.013 2.156-0.781-0.911-1.93-1.457-3.179-1.457-3.908 0-5.642 4.612-2.557 8.581l-3.903 2.167c-0.346 0.219-0.553 0.598-0.553 1.014zM20.996 16.828c-0.084 0.041-0.167 0.085-0.251 0.123l-0 0c-0.001 0-0.001 0.001-0.002 0.001-1.452 0.667-3.009 1.006-4.627 1.006-1.613 0-3.17-0.338-4.629-1.007-0.71-0.323-1.397-0.734-2.045-1.221v-2.87c0-0.098 0.047-0.184 0.102-0.221l4.542-2.524c0.565 0.48 1.287 0.832 2.035 0.832 0.721 0 1.499-0.357 2.052-0.843l4.487 2.52c0.083 0.053 0.13 0.139 0.13 0.237v2.87c-0.571 0.429-1.173 0.795-1.794 1.098zM29.154 12.382c0.059 0.037 0.092 0.101 0.092 0.176v2.587c-1.969 1.477-4.337 2.148-6.737 1.98 0.369-0.23 0.771-0.516 1.083-0.76 0.12-0.094 0.19-0.238 0.19-0.39v-3.114c0-0.435-0.218-0.835-0.61-1.087l-2.383-1.339 0.58-0.321c0.703 0.573 1.307 0.744 1.848 0.744 0.662 0 1.36-0.325 1.878-0.759l4.060 2.284zM23.216 1.788c1.38 0 2.593 0.902 3.021 2.142-0.833-0.099-1.647-0.51-2.237-1.142-0.107-0.114-0.258-0.173-0.415-0.155-0.155 0.016-0.293 0.105-0.373 0.239-0.566 0.948-1.493 1.58-2.548 1.76 0-0.001-0-0.002-0-0.003 0.005-0.216-0.008-0.434-0.033-0.653-0.003-0.022-0.005-0.044-0.007-0.067-0.032-0.248-0.107-0.559-0.122-0.609 0.563-0.902 1.609-1.513 2.713-1.513zM20.556 5.644c1.253-0.137 2.386-0.767 3.164-1.762 0.767 0.629 1.74 1.010 2.702 1.056-0.007 1.792-1.471 4.927-3.206 4.927-1.337 0-2.479-1.912-2.905-3.238 0.108-0.341 0.187-0.669 0.245-0.983zM20.657 9.373l-0.886 0.491-0.895-0.502c0.332-0.413 0.636-0.893 0.896-1.413 0.25 0.526 0.55 1.010 0.884 1.425zM19.32 6.465c-0.478 1.427-1.705 3.49-3.199 3.49-1.742 0-3.226-2.864-3.509-4.696 0.075-0.019 2.43 0.126 4.050-2.001 0.822 0.688 1.932 1.143 3.011 1.188 0.013 0.647-0.144 1.406-0.352 2.018zM16.15 0.992c2.78 0 3.309 2.392 3.352 2.442-1.008-0.102-1.928-0.596-2.563-1.276-0.107-0.114-0.262-0.171-0.416-0.154-0.155 0.017-0.293 0.106-0.373 0.241-0.551 0.932-1.414 1.589-2.414 1.868-0.386 0.108-0.803 0.157-1.166 0.154 0.136-1.822 1.596-3.274 3.58-3.274zM12.461 7.938c0.257 0.515 0.563 1.006 0.913 1.438l-0.875 0.487-0.907-0.51c0.344-0.438 0.636-0.929 0.87-1.415zM9.006 1.788c1.125 0 2.155 0.571 2.729 1.514-0.029 0.1-0.106 0.498-0.117 0.548-0.69-0.165-1.324-0.533-1.821-1.062-0.107-0.114-0.258-0.17-0.416-0.154-0.155 0.017-0.293 0.106-0.372 0.24-0.663 1.119-1.881 1.815-3.177 1.815 0.158-1.627 1.518-2.9 3.174-2.9zM5.876 5.678c1.425-0.014 2.77-0.686 3.643-1.796 0.596 0.491 1.303 0.813 2.055 0.961 0.029 0.575 0.179 1.273 0.35 1.789-0.274 0.84-0.799 1.841-1.451 2.505-0.004 0.004-0.010 0.006-0.014 0.010-0.408 0.43-0.988 0.719-1.444 0.719-1.594 0-2.841-2.508-3.14-4.188zM2.985 12.558c0-0.075 0.033-0.139 0.067-0.162l4.116-2.284c0.247 0.206 0.304 0.229 0.353 0.265l-0 0c0.484 0.322 0.928 0.482 1.534 0.482 0.645 0 1.232-0.273 1.749-0.694 0.029-0.023 0.060-0.045 0.088-0.068l0.587 0.33-2.446 1.361c-0.366 0.236-0.584 0.636-0.584 1.071v3.114c0 0.152 0.070 0.296 0.19 0.39 0.317 0.249 0.727 0.539 1.083 0.761-2.434 0.166-4.803-0.528-6.737-1.98v-2.587z"></path>
<path fill="#ff6b09" style="fill: var(--color1, #ff6b09)" d="M31.259 20.781c-0.61-0.383-1.361-0.423-2.007-0.11l-6.119 2.956c-0.021-1.145-0.956-2.072-2.107-2.072l-3.509 0.001c-1.73-1.504-3.941-2.425-5.952-2.473-1.983-0.047-3.763-0.060-4.593-0.064v-1.002h-6.972v11.517h6.972v-1.379c1.912 1.097 6.939 3.845 9.325 3.845 0.054 0 0.107-0.001 0.158-0.004 4.196-0.235 14.091-7.198 14.743-7.661 0.638-0.37 1.034-1.056 1.034-1.796 0-0.719-0.364-1.376-0.973-1.758zM5.98 28.542h-4.988v-9.533h4.988v9.533zM30.687 23.484c-0.015 0.008-0.030 0.017-0.044 0.028-0.102 0.073-10.281 7.271-14.244 7.494-0.039 0.002-0.079 0.003-0.121 0.003-2.092 0-7.194-2.753-9.307-4.001v-6.997c0.827 0.004 2.597 0.017 4.569 0.064 1.837 0.044 3.876 0.921 5.456 2.346l0.141 0.128 3.887-0.001c0.617 0 1.119 0.502 1.119 1.119s-0.502 1.119-1.119 1.119h-7.142v0.992h7.142c0.684 0 1.288-0.333 1.674-0.839l6.984-3.373c0.343-0.167 0.725-0.146 1.049 0.057s0.508 0.537 0.508 0.918c0 0.391-0.212 0.753-0.553 0.945z"></path>
<path fill="#ff6b09" style="fill: var(--color1, #ff6b09)" d="M16.612 12.158h-0.992v0.92h0.992v-0.92z"></path>
<path fill="#ff6b09" style="fill: var(--color1, #ff6b09)" d="M16.612 13.992h-0.992v0.92h0.992v-0.92z"></path>
<path fill="#ff6b09" style="fill: var(--color1, #ff6b09)" d="M16.612 15.826h-0.992v0.92h0.992v-0.92z"></path>
</symbol>
<symbol id="instagram" viewBox="0 0 32 32">
<path fill="#fff" style="fill: var(--color3, #fff)" d="M0.528 10.029c0.103-0.724 0.181-1.452 0.311-2.171 0.739-4.072 3.622-6.842 7.743-6.984 4.963-0.171 9.941-0.18 14.903-0.001 4.486 0.161 7.735 3.483 7.875 7.971 0.149 4.765 0.149 9.542 0 14.307-0.14 4.488-3.388 7.809-7.875 7.971-4.962 0.179-9.941 0.184-14.903-0.003-4.487-0.169-7.589-3.498-7.889-7.992-0.026-0.389-0.109-0.774-0.166-1.161 0-3.979 0-7.958 0-11.937zM16.004 28.463c2.271 0 4.544 0.068 6.812-0.016 3.556-0.132 5.743-2.254 5.826-5.806 0.103-4.426 0.103-8.859 0-13.286-0.083-3.552-2.272-5.723-5.826-5.799-4.511-0.095-9.028-0.095-13.539 0-3.527 0.074-5.721 2.202-5.817 5.714-0.122 4.482-0.122 8.973 0 13.455 0.096 3.512 2.289 5.591 5.817 5.721 2.239 0.083 4.484 0.016 6.727 0.016z"></path>
<path fill="#fff" style="fill: var(--color3, #fff)" d="M16 8.115c-4.355 0-7.885 3.53-7.885 7.885s3.531 7.885 7.885 7.885c4.355 0 7.885-3.53 7.885-7.885s-3.53-7.885-7.885-7.885zM16 21.17c-2.856 0-5.171-2.315-5.171-5.171s2.315-5.17 5.171-5.17c2.856 0 5.171 2.315 5.171 5.171s-2.315 5.171-5.171 5.171z"></path>
<path fill="#fff" style="fill: var(--color3, #fff)" d="M26.222 7.755c0 1.036-0.84 1.876-1.876 1.876s-1.876-0.84-1.876-1.876c0-1.036 0.84-1.876 1.876-1.876s1.876 0.84 1.876 1.876z"></path>
</symbol>
<symbol id="line" viewBox="0 0 213 32">
<path fill="#ff6b09" style="fill: var(--color1, #ff6b09)" d="M0 4.267h213.333v20.693h-213.333v-20.693z"></path>
</symbol>
<symbol id="open-book" viewBox="0 0 46 32">
<path fill="#ff6b09" style="fill: var(--color1, #ff6b09)" d="M20.267 4.608h-13.64v1.021h13.64v-1.021z"></path>
<path fill="#ff6b09" style="fill: var(--color1, #ff6b09)" d="M20.267 8.416h-11.597v1.021h11.597v-1.021z"></path>
<path fill="#ff6b09" style="fill: var(--color1, #ff6b09)" d="M20.267 12.224h-13.64v1.021h13.64v-1.021z"></path>
<path fill="#ff6b09" style="fill: var(--color1, #ff6b09)" d="M20.267 16.032h-11.597v1.021h11.597v-1.021z"></path>
<path fill="#ff6b09" style="fill: var(--color1, #ff6b09)" d="M20.267 19.84h-13.64v1.021h13.64v-1.021z"></path>
<path fill="#ff6b09" style="fill: var(--color1, #ff6b09)" d="M20.267 23.648h-11.597v1.021h11.597v-1.021z"></path>
<path fill="#ff6b09" style="fill: var(--color1, #ff6b09)" d="M38.99 4.608h-13.64v1.021h13.64v-1.021z"></path>
<path fill="#ff6b09" style="fill: var(--color1, #ff6b09)" d="M36.947 8.416h-11.597v1.021h11.597v-1.021z"></path>
<path fill="#ff6b09" style="fill: var(--color1, #ff6b09)" d="M38.99 12.224h-13.64v1.021h13.64v-1.021z"></path>
<path fill="#ff6b09" style="fill: var(--color1, #ff6b09)" d="M36.947 16.032h-11.597v1.021h11.597v-1.021z"></path>
<path fill="#ff6b09" style="fill: var(--color1, #ff6b09)" d="M38.99 19.84h-13.64v1.021h13.64v-1.021z"></path>
<path fill="#ff6b09" style="fill: var(--color1, #ff6b09)" d="M36.947 23.648h-11.597v1.021h11.597v-1.021z"></path>
<path fill="#ff6b09" style="fill: var(--color1, #ff6b09)" d="M43.915 3.445h-1.872v-2.812c0-0.282-0.229-0.511-0.511-0.511h-15.265c-1.49 0-2.781 0.805-3.458 2.011-0.678-1.206-1.97-2.011-3.459-2.011h-15.265c-0.282 0-0.511 0.229-0.511 0.511v2.812h-1.872c-0.282 0-0.511 0.229-0.511 0.511v27.411c0 0.282 0.229 0.511 0.511 0.511 5.127 0 37.068 0 42.213 0 0.282 0 0.511-0.229 0.511-0.511v-27.411c0-0.282-0.229-0.511-0.511-0.511zM26.267 1.144h14.754c0 4.573 0 16.619 0 27.35h-15.843c-0.702 0-1.404 0.296-1.859 0.68v-25.089c0-1.63 1.305-2.942 2.948-2.942zM4.596 1.144h14.754c1.597 0 2.889 1.243 2.942 2.829 0.001 0.022 0.003 0.091 0.006 0.112v25.087c-0.453-0.382-1.148-0.678-1.852-0.678h-15.85c0-10.728 0-22.779 0-27.35zM2.213 4.467h1.362v24.538c0 0.282 0.229 0.511 0.511 0.511h16.361c0.778 0 1.531 0.511 1.771 1.341h-20.005v-26.39zM43.404 30.856h-20.004c0.242-0.834 0.987-1.341 1.778-1.341h16.354c0.282 0 0.511-0.229 0.511-0.511v-24.538h1.362v26.39z"></path>
</symbol>
<symbol id="ellipse" viewBox="0 0 32 32">
<path fill="#ff6b09" style="fill: var(--color1, #ff6b09)" d="M16 32c-8.837 0-16-7.163-16-16s7.163-16 16-16c8.837 0 16 7.163 16 16s-7.163 16-16 16z"></path>
</symbol>
<symbol id="arrow-1" viewBox="0 0 54 32">
<path fill="#ff6b09" style="fill: var(--color1, #ff6b09)" d="M52 14c1.105 0 2 0.895 2 2s-0.895 2-2 2v-4zM0.586 17.414c-0.781-0.781-0.781-2.047 0-2.828l12.728-12.728c0.781-0.781 2.047-0.781 2.828 0s0.781 2.047 0 2.828l-11.314 11.314 11.314 11.314c0.781 0.781 0.781 2.047 0 2.828s-2.047 0.781-2.828 0l-12.728-12.728zM52 18h-50v-4h50v4z"></path>
</symbol>
<symbol id="arrow-2" viewBox="0 0 54 32">
<path fill="#ff6b09" style="fill: var(--color1, #ff6b09)" d="M2 14c-1.105 0-2 0.895-2 2s0.895 2 2 2v-4zM53.414 17.414c0.781-0.781 0.781-2.047 0-2.828l-12.728-12.728c-0.781-0.781-2.047-0.781-2.828 0s-0.781 2.047 0 2.828l11.314 11.314-11.314 11.314c-0.781 0.781-0.781 2.047 0 2.828s2.047 0.781 2.828 0l12.728-12.728zM2 18h50v-4h-50v4z"></path>
</symbol>
<symbol id="audio-book" viewBox="0 0 39 32">
<path fill="#ff6b09" style="fill: var(--color1, #ff6b09)" d="M3.048 29.453h12.23c0.62 1.285 1.917 2.116 3.38 2.116h0.772c1.465 0 2.761-0.83 3.381-2.116h12.237c1.26 0 2.286-1.025 2.286-2.286v-21.905c0-1.26-1.025-2.286-2.286-2.286h-1.234v-1.021c0-0.84-0.684-1.524-1.524-1.524h-26.491c-0.84 0-1.524 0.683-1.524 1.524v1.021h-1.227c-1.26 0-2.286 1.025-2.286 2.286v21.905c0 1.26 1.025 2.286 2.286 2.286zM32.288 24.752h-12.478v-17.705c2.884 0.377 5.121 2.845 5.121 5.831v0.687l-0.181-0.040c-0.196-0.042-0.403-0.007-0.574 0.102s-0.291 0.281-0.334 0.478l-1.213 5.519c-0.090 0.41 0.17 0.816 0.58 0.907l2.621 0.578c0.135 0.029 0.273 0.044 0.411 0.044 0.922 0 1.707-0.631 1.908-1.535l0.702-3.192c0.231-1.048-0.433-2.090-1.484-2.324l-0.912-0.201v-1.023c0-3.827-2.917-6.986-6.644-7.37v-3.551h12.48l-0.001 22.796zM25.166 15.177l1.871 0.412c0.234 0.052 0.376 0.275 0.325 0.508l-0.702 3.191c-0.051 0.231-0.306 0.374-0.507 0.331l-1.874-0.413 0.886-4.030zM5.798 1.956h12.487v3.55c-3.731 0.381-6.652 3.541-6.652 7.371v1.022l-0.914 0.202c-0.509 0.113-0.943 0.416-1.222 0.854-0.28 0.439-0.373 0.961-0.26 1.468l0.7 3.188c0.19 0.892 0.993 1.54 1.909 1.54 0.138 0 0.275-0.015 0.416-0.045l2.61-0.577c0.41-0.091 0.67-0.496 0.58-0.907l-1.213-5.519c-0.043-0.198-0.164-0.37-0.334-0.478s-0.378-0.144-0.574-0.102l-0.174 0.038v-0.686c0-2.988 2.24-5.458 5.128-5.832v17.706h-12.487v-22.796zM12.916 15.177l0.887 4.029-1.863 0.411c-0.229 0.052-0.463-0.1-0.512-0.328l-0.702-3.196c-0.025-0.111-0.005-0.224 0.055-0.319 0.061-0.096 0.157-0.162 0.268-0.187l1.867-0.412zM2.286 5.262c0-0.42 0.341-0.762 0.762-0.762h1.227v20.252c0 0.84 0.684 1.524 1.524 1.524h26.491c0.84 0 1.524-0.683 1.524-1.524v-20.252h1.234c0.42 0 0.762 0.342 0.762 0.762v21.905c0 0.42-0.342 0.762-0.762 0.762h-12.754c-0.335 0-0.63 0.218-0.728 0.538-0.289 0.943-1.147 1.577-2.135 1.577h-0.772c-0.984 0-1.841-0.631-2.138-1.586-0.101-0.315-0.394-0.529-0.725-0.529h-12.747c-0.42 0-0.762-0.342-0.762-0.762v-21.905z"></path>
</symbol>
<symbol id="campfire" viewBox="0 0 24 32">
<path fill="#ff6b09" style="fill: var(--color1, #ff6b09)" d="M21.909 16.593c-0.284-0.635-0.675-1.261-1.247-1.983-1.442-1.813-1.882-5.857-1.887-5.896-0.020-0.194-0.156-0.354-0.337-0.412-0.186-0.058-0.386-0.005-0.518 0.141-1.721 1.925-0.997 4.897-0.606 6.085 0.108 0.325 0.225 0.708 0.308 1.096 0.636 3.137-0.592 4.557-0.88 4.844-0.279 0.078-0.469 0.039-0.645-0.15-0.606-0.664-0.807-2.841-0.523-5.678 0.059-0.577 0.044-1.096-0.039-1.581-0.598-3.486-2.791-5.722-3.349-6.507-1.535-2.269-1.692-6.046-1.696-6.080-0.005-0.179-0.108-0.339-0.269-0.417-0.156-0.078-0.347-0.068-0.494 0.034-2.562 1.741-2.342 5.935-1.985 8.276 0.083 0.543 0.244 1.096 0.523 1.794 0.992 2.497-0.196 5.721-0.205 5.75s-0.020 0.053-0.024 0.082c-0.152 0.795-0.406 1.27-0.689 1.27-0.029 0-0.059-0.005-0.093-0.015-0.347-0.073-0.528-0.441-0.533-0.761-0.020-4.136-4.17-5.527-4.214-5.542-0.186-0.058-0.391-0.005-0.518 0.145-0.132 0.15-0.156 0.359-0.068 0.533 0.049 0.102 0.205 0.548 0.098 2.124-0.093 1.416-0.352 2.817-0.768 4.16-0.988 3.22-0.831 6.269-0.821 6.415 0.759 8.257 12.635 9.704 19.683 5.052 0.772-0.509 1.403-1.091 1.868-1.731 2.601-3.588 1.071-8.461-0.068-11.050zM3.844 24.481c0.015 0.267-0.191 0.495-0.46 0.509h-0.029c-0.259 0-0.474-0.199-0.489-0.456-0.044-0.708-0.034-1.45 0.020-2.255 0.020-0.267 0.254-0.465 0.523-0.451 0.269 0.019 0.474 0.252 0.455 0.519-0.054 0.766-0.064 1.464-0.020 2.133zM4.084 20.186c-0.029 0.247-0.24 0.427-0.484 0.427-0.020 0-0.039 0-0.064-0.005-0.264-0.034-0.455-0.272-0.425-0.538l0.235-1.872c0.034-0.262 0.274-0.451 0.548-0.422 0.269 0.034 0.46 0.276 0.425 0.543l-0.235 1.867z"></path>
<path fill="#ff6b09" style="fill: var(--color1, #ff6b09)" d="M18.601 6.633c-0.267-0.041-0.45-0.288-0.408-0.553 0.031-0.197 0.207-1.205 0.687-1.713 0.184-0.196 0.493-0.206 0.691-0.022s0.207 0.49 0.022 0.685c-0.203 0.215-0.376 0.829-0.433 1.197-0.041 0.262-0.287 0.445-0.558 0.405z"></path>
<path fill="#ff6b09" style="fill: var(--color1, #ff6b09)" d="M0.778 9.048c-0.094-0.361-0.326-0.955-0.549-1.149-0.203-0.177-0.223-0.483-0.045-0.684s0.486-0.222 0.69-0.045c0.527 0.458 0.802 1.445 0.852 1.638 0.067 0.259-0.091 0.523-0.352 0.59-0.267 0.067-0.529-0.094-0.595-0.349z"></path>
</symbol>
<symbol id="check-mark" viewBox="0 0 41 32">
<path fill="#ff6b09" style="fill: var(--color1, #ff6b09)" d="M34.457 1.514c-1.484 0.664-2.907 1.475-4.265 2.379-2.731 1.797-5.228 3.936-7.57 6.218-2.341 2.287-4.52 4.735-6.581 7.28-0.515 0.636-2.823 3.47-2.823 3.47l-9.596-14.38-3.623 10.042 12.977 15.477c1.26-2.551 2.473-5.070 3.662-7.258 0.296-0.556 0.605-1.080 0.901-1.612 0 0 1.523-2.677 1.923-3.352 1.602-2.697 3.333-5.325 5.239-7.821 1.908-2.491 3.983-4.87 6.335-6.961 1.17-1.052 2.416-2.025 3.751-2.872 1.332-0.848 2.747-1.591 4.261-2.125-1.575 0.31-3.111 0.848-4.592 1.514z"></path>
</symbol>
<symbol id="rectangle" viewBox="0 0 31 32">
<path fill="none" stroke="#ff6b09" style="stroke: var(--color1, #ff6b09)" stroke-linejoin="miter" stroke-linecap="butt" stroke-miterlimit="4" stroke-width="0.6154" d="M31.077 4.615v-4.308h-30.769v31.385h30.769v-4.308"></path>
</symbol>
<symbol id="doted-line" viewBox="0 0 2 32">
<path fill="none" stroke="#b9b9b9" style="stroke: var(--color1, #b9b9b9)" stroke-linejoin="miter" stroke-linecap="butt" stroke-miterlimit="4" stroke-width="0.8" d="M0.8 0v32"></path>
</symbol>
<symbol id="desctop-female-student" viewBox="0 0 31 32">
<path fill="#ff6b09" style="fill: var(--color1, #ff6b09)" d="M7.953 23.273c1.588 0 10.776 0 12.362 0 0.061-1.41-0.040-3.749-0.907-4.862l-0.031-0.040-1.894-0.951c0.041-0.139 0.061-0.266 0.069-0.359 0.009-0.112-0.006-0.217-0.046-0.313-0.312-0.748-0.974-1.141-1.337-1.309 0.111-0.223 0.182-0.463 0.217-0.708 0.206-0.058 0.372-0.221 0.426-0.439l0.221-0.898c0.039-0.158 0.015-0.323-0.070-0.463-0.036-0.060-0.083-0.111-0.136-0.154 0.623-1.416-0.421-2.751-0.478-2.821-1.131-1.222-2.559-0.994-2.634-0.98-2.061 0.432-2.857 2.011-2.408 3.864-0.133 0.147-0.189 0.353-0.14 0.554l0.222 0.899c0.054 0.216 0.218 0.379 0.423 0.437 0.063 0.449 0.253 0.854 0.532 1.181v0.712c-2.958 1.515-1.084 0.548-3.454 1.748-0.005 0.022-1.112 1.2-0.948 4.689l0.010 0.213zM19.885 22.826h-2.035v-0.855l1.346-3.081c0.674 1.119 0.699 3.255 0.689 3.935zM17.108 17.023c-0.079 0.902-0.573 0.629-0.878 1.324-0.24-0.264-0.312-0.581-0.248-0.92 0.117-0.622-0.263-0.807-0.169-1.461l0.014-0.015v-0.002c0.008-0.009 0.083-0.098 0.105-0.126 0.805 0.351 1.193 1.003 1.177 1.2zM12.79 16.314c0.374 0.259 0.825 0.412 1.31 0.412 0.457 0 0.891-0.133 1.263-0.378 0.052 0.514 0.253 0.617 0.181 0.995-0.013 0.070-0.021 0.139-0.025 0.207l-1.386 1.562-1.771-1.997 0.428-0.223v-0.579zM12.233 14.403v-0.866c0-0.319 0-1.584 0-1.521 0.216-0.399 0.51-0.688 0.875-0.861 0.979 0.554 2.105 1.38 2.86 2.211-0.001 1.059 0.003 1.062-0.004 1.149l-0 0.006c-0.059 0.962-0.85 1.759-1.864 1.759-0.986 0-1.804-0.774-1.863-1.768-0.003-0.036-0.004-0.071-0.004-0.108zM11.957 17.332l2.177 2.454 1.461-1.647c0.033 0.096 0.080 0.187 0.134 0.275l-1.595 1.995-2.379-2.975 0.202-0.101zM16.414 14.043v-0.691c0.020-0.022 0.186-0.213 0.166-0.191 0.009 0.35 0.047-0.063-0.166 0.882zM13.798 9.416c0.088 0.005 1.276-0.181 2.215 0.833 0.037 0.046 0.801 1.031 0.494 2.108-0.105-0.479-0.288-1.093-0.578-1.387l-0.316 0.315c0.286 0.289 0.474 1.171 0.545 1.628-1.311-1.372-3.002-2.24-3.025-2.255-0.085 0.053-0.8 0.189-1.32 1.199l-0.025 0.048v0.742c-0.022 0-0.088 0.001-0.066 0.001-0.33-1.594 0.302-2.861 2.076-3.233zM11.675 13.109l0.113 0.456v0.479l-0.187-0.757c-0.027-0.113 0.056-0.156 0.074-0.178zM11.347 17.638l2.787 3.485 1.885-2.358c0.205 0.184 0.304 0.21 0.739 0.433l-0.147-0.497c-0.037-0.126 0.11-0.329 0.199-0.422 0.199-0.108 0.364-0.261 0.488-0.451l1.538 0.772-1.431 3.277v0.948h-6.543v-0.949l-1.432-3.277 1.917-0.962zM9.071 18.891l1.346 3.080v0.855h-2.035c-0.010-0.68 0.015-2.815 0.689-3.934z"></path>
<path fill="none" stroke="#ff6b09" style="stroke: var(--color1, #ff6b09)" stroke-linejoin="miter" stroke-linecap="butt" stroke-miterlimit="4" stroke-width="0.6154" d="M31.077 4.615v-4.308h-30.769v31.385h30.769v-4.308"></path>
</symbol>
<symbol id="desctop-insurance" viewBox="0 0 31 32">
<path fill="#ff6b09" style="fill: var(--color1, #ff6b09)" d="M7.942 14.958c0 0.165-0.25 0.165-0.25 0 0-3.502 2.84-6.342 6.343-6.342 3.504 0 6.343 2.84 6.343 6.343 0 0.165-0.249 0.165-0.249 0 0-2.367-3.89-2.369-3.89 0 0 0.165-0.256 0.165-0.256 0 0-2.361-3.896-2.361-3.896 0 0 0.165-0.256 0.165-0.256 0 0-2.357-3.888-2.373-3.888 0zM11.853 14.039c0.067-1.363 0.281-2.584 0.593-3.517 0.249-0.741 0.563-1.304 0.919-1.62-2.674 0.292-4.839 2.319-5.323 4.949 0.921-1.328 3.047-1.222 3.811 0.189zM15.963 13.977c-0.069-1.31-0.277-2.482-0.576-3.376-0.773-2.313-1.931-2.313-2.704 0-0.299 0.894-0.506 2.066-0.576 3.376 0.831-1.412 3.026-1.412 3.857 0zM20.027 13.85c-0.482-2.629-2.647-4.657-5.323-4.949 0.358 0.316 0.671 0.879 0.919 1.62 0.311 0.933 0.526 2.155 0.593 3.517 0.768-1.418 2.9-1.502 3.811-0.189z"></path>
<path fill="#ff6b09" style="fill: var(--color1, #ff6b09)" d="M13.202 17.86v-1.288c-0.232 0.154-0.415 0.392-0.415 0.683 0 0.283 0.186 0.47 0.415 0.605zM13.452 18.26c-0.445-0.204-0.913-0.442-0.913-1.005 0-0.581 0.442-0.872 0.913-1.089v2.094z"></path>
<path fill="#ff6b09" style="fill: var(--color1, #ff6b09)" d="M14.867 19.803v1.303c0.235-0.156 0.419-0.395 0.419-0.686 0-0.286-0.189-0.479-0.419-0.617zM14.619 19.402c0.446 0.207 0.918 0.452 0.918 1.018 0 0.582-0.445 0.873-0.918 1.089v-2.107z"></path>
<path fill="#ff6b09" style="fill: var(--color1, #ff6b09)" d="M14.867 15.106c1.024 0.237 2.077 1.003 2.077 2.149 0 0.981-1.658 0.945-1.658 0 0-0.292-0.184-0.532-0.419-0.686v1.833c0.948 0.31 2.080 0.865 2.080 2.018 0 1.147-1.053 1.912-2.080 2.147-0.005 1.092-1.662 1.090-1.665-0.001-0.584-0.135-1.092-0.407-1.458-0.768-0.385-0.38-0.612-0.858-0.612-1.378 0-0.966 1.656-0.966 1.656 0 0 0.289 0.183 0.527 0.415 0.681v-1.831c-0.94-0.304-2.078-0.876-2.078-2.018 0-1.147 1.053-1.912 2.078-2.147 0.005-1.092 1.662-1.090 1.665 0.001zM13.452 15.109v0.199c-0.975 0.193-2.080 0.818-2.080 1.944 0 1.083 1.213 1.568 2.080 1.836v2.42c-0.469-0.214-0.913-0.503-0.913-1.087 0-0.638-1.159-0.638-1.159 0 0 0.451 0.201 0.867 0.539 1.199 0.43 0.425 0.951 0.627 1.533 0.743v0.201c0 0.768 1.166 0.768 1.166 0v-0.199c0.978-0.195 2.078-0.819 2.078-1.944 0-1.093-1.21-1.563-2.078-1.837v-2.418c0.47 0.214 0.918 0.503 0.918 1.090 0 0.621 1.157 0.647 1.157 0 0-1.125-1.099-1.75-2.075-1.945v-0.201c0-0.768-1.166-0.768-1.166 0z"></path>
<path fill="none" stroke="#ff6b09" style="stroke: var(--color1, #ff6b09)" stroke-linejoin="miter" stroke-linecap="butt" stroke-miterlimit="4" stroke-width="0.6154" d="M31.077 4.615v-4.308h-30.769v31.385h30.769v-4.308"></path>
</symbol>
<symbol id="desctop-mobile-learning" viewBox="0 0 31 32">
<path fill="#ff6b09" style="fill: var(--color1, #ff6b09)" d="M20.406 8.558h-7.116c-0.463 0-0.84 0.377-0.84 0.84v2.946l-5.287 2.219c-0.060 0.025-0.101 0.082-0.105 0.146s0.027 0.127 0.083 0.16l0.674 0.403v4.3c-0.345 0.079-0.603 0.387-0.603 0.756v0.414c0 0.095 0.077 0.172 0.172 0.172h1.207c0.095 0 0.172-0.077 0.172-0.172v-0.414c0-0.369-0.259-0.677-0.604-0.756v-4.094l0.533 0.319c-0.016 0.123-0.002-0.214-0.008 2.002 0 0.729 1.866 1.119 3.765 1.141v3.356c0 0.173 0.053 0.335 0.144 0.468 0.151 0.223 0.407 0.37 0.696 0.37h7.116c0.463 0 0.839-0.377 0.839-0.839 0 0.023-0.001-0.711 0-12.898 0-0.457-0.378-0.84-0.839-0.84zM8.419 20.328v0.242h-0.863v-0.242c0-0.239 0.193-0.433 0.43-0.433 0.239 0 0.433 0.194 0.433 0.433zM20.406 22.79h-7.116c-0.171 0-0.322-0.086-0.411-0.218-0.053-0.079-0.085-0.174-0.085-0.276v-1.163h8.105v1.164c0 0.27-0.225 0.494-0.494 0.494zM20.9 20.788h-8.105v-1.847c0.927-0.011 3.767-0.215 3.767-1.142-0.001-1.392 0.002-1.957-0.004-2.005l1.546-0.926c0.056-0.033 0.088-0.095 0.083-0.16s-0.045-0.121-0.105-0.146l-5.286-2.219v-1.438h8.105v9.883zM12.622 16.656c-0.955 0-2.794 0.123-3.592 0.645 0.005-1.595-0.055-1.491 0.141-1.627 0.496-0.365 1.915-0.62 3.451-0.62 0.67 0 3.595 0.184 3.595 0.803v1.444c-0.806-0.526-2.636-0.645-3.595-0.645zM12.795 9.398c0-0.273 0.222-0.495 0.495-0.495h7.116c0.273 0 0.494 0.225 0.494 0.495v1.163h-8.105v-1.163zM12.622 12.644l5.012 2.104-1.242 0.743c-0.66-0.655-2.844-0.782-3.77-0.782-0.927 0-3.111 0.127-3.77 0.782l-1.242-0.743 5.012-2.104zM9.030 17.799c0-0.279 1.234-0.799 3.592-0.799 2.36 0 3.595 0.52 3.595 0.799s-1.235 0.799-3.595 0.799c-2.359 0-3.592-0.52-3.592-0.799z"></path>
<path fill="#ff6b09" style="fill: var(--color1, #ff6b09)" d="M16.848 21.392c-0.314 0-0.569 0.255-0.569 0.569s0.255 0.57 0.569 0.57c0.314 0 0.569-0.256 0.569-0.57s-0.255-0.569-0.569-0.569zM16.848 22.187c-0.124 0-0.225-0.101-0.225-0.225s0.101-0.225 0.225-0.225c0.124 0 0.225 0.101 0.225 0.225s-0.101 0.225-0.225 0.225z"></path>
<path fill="#ff6b09" style="fill: var(--color1, #ff6b09)" d="M17.504 9.56h-1.313v0.344h1.313v-0.344z"></path>
<path fill="none" stroke="#ff6b09" style="stroke: var(--color1, #ff6b09)" stroke-linejoin="miter" stroke-linecap="butt" stroke-miterlimit="4" stroke-width="0.6154" d="M31.077 4.615v-4.308h-30.769v31.385h30.769v-4.308"></path>
</symbol>
<symbol id="female-student" viewBox="0 0 31 32">
<path fill="#ff6b09" style="fill: var(--color1, #ff6b09)" d="M7.046 26.006c2.185 0 14.824 0 17.006 0 0.084-1.939-0.055-5.157-1.247-6.689l-0.043-0.055-2.606-1.308c0.057-0.191 0.084-0.366 0.096-0.494 0.013-0.154-0.008-0.299-0.063-0.43-0.43-1.029-1.339-1.57-1.84-1.8 0.152-0.307 0.251-0.637 0.298-0.974 0.283-0.080 0.511-0.304 0.586-0.604l0.304-1.236c0.054-0.218 0.020-0.444-0.096-0.636-0.050-0.083-0.114-0.153-0.187-0.212 0.858-1.948-0.579-3.784-0.657-3.881-1.555-1.682-3.52-1.367-3.624-1.349-2.836 0.594-3.93 2.767-3.312 5.316-0.183 0.203-0.26 0.485-0.192 0.762l0.306 1.237c0.074 0.297 0.3 0.521 0.581 0.602 0.087 0.617 0.348 1.175 0.732 1.625v0.979c-4.069 2.084-1.491 0.754-4.752 2.404-0.006 0.031-1.53 1.65-1.304 6.45l0.014 0.293zM23.461 25.39h-2.799v-1.176l1.851-4.238c0.927 1.539 0.962 4.478 0.948 5.413zM19.641 17.407c-0.108 1.241-0.788 0.866-1.208 1.822-0.33-0.363-0.43-0.799-0.341-1.265 0.16-0.856-0.362-1.11-0.233-2.010l0.020-0.021v-0.003c0.011-0.012 0.114-0.135 0.144-0.174 1.107 0.483 1.64 1.381 1.619 1.651zM13.701 16.432c0.514 0.357 1.135 0.567 1.802 0.567 0.629 0 1.226-0.183 1.737-0.52 0.071 0.707 0.347 0.849 0.249 1.369-0.018 0.097-0.028 0.192-0.034 0.285l-1.906 2.148-2.437-2.747 0.588-0.307v-0.796zM12.934 13.803v-1.191c0-0.439 0-2.179 0-2.093 0.297-0.549 0.701-0.947 1.204-1.185 1.346 0.762 2.896 1.898 3.935 3.042-0.001 1.457 0.004 1.461-0.006 1.58l-0.001 0.008c-0.081 1.323-1.169 2.419-2.564 2.419-1.356 0-2.482-1.065-2.563-2.433-0.004-0.049-0.005-0.098-0.005-0.148zM12.555 17.833l2.994 3.376 2.010-2.266c0.046 0.132 0.11 0.257 0.184 0.378l-2.194 2.744-3.272-4.093 0.278-0.14zM18.686 13.307v-0.951c0.027-0.031 0.256-0.293 0.229-0.262 0.013 0.482 0.065-0.087-0.229 1.213zM15.087 6.942c0.122 0.008 1.756-0.249 3.047 1.146 0.051 0.064 1.102 1.418 0.68 2.9-0.145-0.659-0.397-1.504-0.795-1.907l-0.435 0.434c0.393 0.398 0.651 1.611 0.75 2.24-1.803-1.887-4.13-3.082-4.162-3.102-0.117 0.073-1.101 0.26-1.816 1.649l-0.034 0.066v1.021c-0.031 0-0.121 0.001-0.090 0.001-0.454-2.193 0.416-3.936 2.855-4.447zM12.167 12.023l0.155 0.627v0.659l-0.257-1.041c-0.038-0.155 0.077-0.214 0.102-0.245zM11.716 18.254l3.833 4.794 2.594-3.244c0.282 0.253 0.418 0.288 1.016 0.596l-0.202-0.684c-0.051-0.174 0.151-0.452 0.274-0.58 0.273-0.148 0.501-0.36 0.671-0.621l2.116 1.063-1.969 4.508v1.305h-9v-1.305l-1.97-4.507 2.637-1.324zM8.584 19.978l1.851 4.237v1.176h-2.799c-0.014-0.935 0.021-3.872 0.947-5.412z"></path>
<path fill="none" stroke="#ff6b09" style="stroke: var(--color1, #ff6b09)" stroke-linejoin="miter" stroke-linecap="butt" stroke-miterlimit="4" stroke-width="1.0159" d="M30.387 4.945v-4.183h-29.879v30.476h29.879v-4.183"></path>
</symbol>
<symbol id="insurance" viewBox="0 0 31 32">
<path fill="#ff6b09" style="fill: var(--color1, #ff6b09)" d="M6.947 14.566c0 0.227-0.344 0.227-0.344 0 0-4.818 3.907-8.725 8.725-8.725 4.82 0 8.725 3.907 8.725 8.725 0 0.227-0.342 0.227-0.342 0 0-3.256-5.351-3.258-5.351 0 0 0.227-0.352 0.227-0.352 0 0-3.248-5.36-3.248-5.36 0 0 0.227-0.352 0.227-0.352 0 0-3.242-5.349-3.265-5.349 0zM12.327 13.302c0.093-1.874 0.387-3.555 0.816-4.838 0.342-1.020 0.774-1.794 1.265-2.229-3.679 0.402-6.657 3.191-7.322 6.808 1.267-1.827 4.192-1.681 5.242 0.26zM17.981 13.217c-0.095-1.802-0.381-3.415-0.793-4.645-1.063-3.182-2.657-3.182-3.72 0-0.412 1.23-0.696 2.842-0.793 4.645 1.143-1.942 4.163-1.942 5.306 0zM23.571 13.042c-0.663-3.617-3.642-6.406-7.322-6.808 0.492 0.435 0.923 1.209 1.265 2.229 0.428 1.283 0.723 2.964 0.816 4.838 1.057-1.951 3.99-2.066 5.242-0.26z"></path>
<path fill="#ff6b09" style="fill: var(--color1, #ff6b09)" d="M14.183 18.559v-1.772c-0.319 0.212-0.571 0.54-0.571 0.939 0 0.389 0.255 0.647 0.571 0.832zM14.527 19.109c-0.612-0.28-1.256-0.608-1.256-1.382 0-0.799 0.608-1.199 1.256-1.498v2.88z"></path>
<path fill="#ff6b09" style="fill: var(--color1, #ff6b09)" d="M16.474 21.232v1.792c0.323-0.214 0.577-0.544 0.577-0.943 0-0.393-0.26-0.659-0.577-0.849zM16.132 20.68c0.614 0.284 1.263 0.622 1.263 1.401 0 0.801-0.612 1.201-1.263 1.497v-2.898z"></path>
<path fill="#ff6b09" style="fill: var(--color1, #ff6b09)" d="M16.474 14.77c1.409 0.325 2.857 1.38 2.857 2.956 0 1.349-2.28 1.3-2.28 0 0-0.402-0.253-0.731-0.577-0.943v2.521c1.304 0.426 2.861 1.191 2.861 2.777 0 1.578-1.448 2.63-2.861 2.954-0.006 1.502-2.286 1.5-2.29-0.002-0.803-0.185-1.502-0.56-2.006-1.057-0.529-0.523-0.842-1.18-0.842-1.895 0-1.329 2.278-1.329 2.278 0 0 0.398 0.251 0.725 0.571 0.937v-2.519c-1.294-0.418-2.859-1.205-2.859-2.777 0-1.578 1.448-2.63 2.859-2.954 0.006-1.502 2.286-1.5 2.29 0.002zM14.527 14.774v0.274c-1.341 0.266-2.861 1.125-2.861 2.674 0 1.489 1.668 2.157 2.861 2.525v3.329c-0.645-0.295-1.256-0.692-1.256-1.495 0-0.878-1.594-0.878-1.594 0 0 0.62 0.276 1.193 0.742 1.65 0.591 0.585 1.308 0.863 2.109 1.022v0.276c0 1.057 1.605 1.057 1.605 0v-0.274c1.345-0.268 2.859-1.127 2.859-2.674 0-1.504-1.664-2.15-2.859-2.527v-3.327c0.647 0.295 1.263 0.692 1.263 1.5 0 0.855 1.592 0.89 1.592 0 0-1.547-1.512-2.408-2.855-2.676v-0.276c0-1.057-1.605-1.057-1.605 0z"></path>
<path fill="none" stroke="#ff6b09" style="stroke: var(--color1, #ff6b09)" stroke-linejoin="miter" stroke-linecap="butt" stroke-miterlimit="4" stroke-width="1.0159" d="M30.387 4.945v-4.183h-29.879v30.476h29.879v-4.183"></path>
</symbol>
<symbol id="mobile-learning" viewBox="0 0 31 32">
<path fill="#ff6b09" style="fill: var(--color1, #ff6b09)" d="M24.717 5.25h-10.247c-0.667 0-1.21 0.543-1.21 1.21v4.242l-7.613 3.195c-0.086 0.036-0.145 0.117-0.151 0.211s0.040 0.182 0.12 0.23l0.971 0.581v6.192c-0.497 0.113-0.869 0.558-0.869 1.089v0.597c0 0.137 0.111 0.248 0.248 0.248h1.739c0.137 0 0.248-0.111 0.248-0.248v-0.597c0-0.531-0.373-0.975-0.87-1.089v-5.896l0.768 0.459c-0.024 0.177-0.003-0.309-0.011 2.883 0 1.049 2.687 1.611 5.421 1.643v4.832c0 0.25 0.076 0.482 0.207 0.674 0.217 0.322 0.585 0.534 1.002 0.534h10.247c0.666 0 1.209-0.542 1.209-1.209 0 0.033-0.001-1.024 0-18.573 0-0.658-0.544-1.21-1.208-1.21zM7.456 22.201v0.349h-1.243v-0.349c0-0.344 0.278-0.623 0.62-0.623 0.343 0 0.623 0.28 0.623 0.623zM24.717 25.745h-10.247c-0.246 0-0.463-0.125-0.592-0.313-0.077-0.114-0.122-0.251-0.122-0.398v-1.675h11.672v1.676c0 0.388-0.324 0.711-0.711 0.711zM25.428 22.862h-11.672v-2.659c1.335-0.015 5.424-0.309 5.424-1.645-0.001-2.005 0.004-2.818-0.006-2.887l2.226-1.334c0.080-0.048 0.126-0.137 0.12-0.23s-0.065-0.175-0.151-0.211l-7.613-3.195v-2.071h11.672v14.232zM13.508 16.912c-1.375 0-4.023 0.178-5.173 0.929 0.007-2.297-0.080-2.148 0.203-2.343 0.715-0.526 2.758-0.894 4.97-0.894 0.965 0 5.176 0.265 5.176 1.157v2.080c-1.161-0.758-3.795-0.929-5.176-0.929zM13.756 6.46c0-0.393 0.32-0.713 0.713-0.713h10.247c0.393 0 0.712 0.324 0.712 0.713v1.675h-11.672v-1.675zM13.508 11.135l7.217 3.029-1.788 1.070c-0.951-0.943-4.096-1.126-5.429-1.126-1.335 0-4.48 0.183-5.429 1.126l-1.789-1.070 7.218-3.029zM8.335 18.558c0-0.401 1.777-1.15 5.173-1.15 3.399 0 5.176 0.749 5.176 1.15s-1.778 1.15-5.176 1.15c-3.396 0-5.173-0.749-5.173-1.15z"></path>
<path fill="#ff6b09" style="fill: var(--color1, #ff6b09)" d="M19.593 23.732c-0.452 0-0.82 0.368-0.82 0.82s0.368 0.82 0.82 0.82c0.452 0 0.82-0.368 0.82-0.82s-0.368-0.82-0.82-0.82zM19.593 24.877c-0.179 0-0.324-0.146-0.324-0.324s0.145-0.324 0.324-0.324c0.179 0 0.324 0.145 0.324 0.324s-0.145 0.324-0.324 0.324z"></path>
<path fill="#ff6b09" style="fill: var(--color1, #ff6b09)" d="M20.538 6.693h-1.891v0.496h1.891v-0.496z"></path>
<path fill="none" stroke="#ff6b09" style="stroke: var(--color1, #ff6b09)" stroke-linejoin="miter" stroke-linecap="butt" stroke-miterlimit="4" stroke-width="1.0159" d="M30.387 4.945v-4.183h-29.879v30.476h29.879v-4.183"></path>
</symbol>
</defs>
</svg>
