<svg aria-hidden="true" style="position:absolute;width:0;height:0" xmlns="http://www.w3.org/2000/svg" overflow="hidden"><defs><symbol id="icon-Vector-4" viewBox="0 0 1 32"><path stroke="var(--color1, #b9b9b9)" stroke-width=".471" d="M.471 0v32"/></symbol><symbol id="icon-fire" viewBox="0 0 23 32"><path d="M21.909 16.593c-.285-.636-.675-1.261-1.248-1.984-1.442-1.813-1.882-5.856-1.887-5.895a.49.49 0 00-.334-.411l-.003-.001a.493.493 0 00-.518.141c-1.721 1.924-.997 4.896-.606 6.084.107.325.224.708.308 1.097.635 3.136-.592 4.557-.88 4.843-.279.078-.469.039-.645-.149-.607-.665-.807-2.842-.523-5.678a5.936 5.936 0 00-.044-1.615l.005.034c-.598-3.486-2.791-5.723-3.349-6.507-1.536-2.269-1.692-6.046-1.696-6.08A.488.488 0 009.725.09l.002-.001C7.165 1.831 7.385 6.025 7.742 8.366c.083.544.244 1.095.523 1.794.992 2.496-.195 5.722-.205 5.749-.011.03-.02.053-.025.083-.151.796-.405 1.27-.69 1.27a.332.332 0 01-.095-.016l.002.001c-.347-.073-.528-.441-.533-.761-.019-4.135-4.17-5.527-4.213-5.542s-.096-.023-.149-.023a.49.49 0 00-.369.169l-.001.001a.474.474 0 00-.067.536l-.001-.003c.049.101.205.547.098 2.123a18.128 18.128 0 01-.803 4.288l.035-.128c-.988 3.221-.832 6.271-.821 6.416.759 8.258 12.635 9.705 19.682 5.053.773-.51 1.404-1.091 1.868-1.731 2.602-3.588 1.071-8.461-.068-11.051zM3.843 24.48l.001.025a.484.484 0 01-.459.484h-.034a.486.486 0 01-.485-.454v-.001c-.044-.707-.034-1.45.019-2.254a.494.494 0 01.524-.451h-.001a.488.488 0 01.456.487l-.001.032v-.001a15.615 15.615 0 00-.019 2.133zm.239-4.295a.485.485 0 01-.482.427h-.002c-.02 0-.039 0-.064-.005a.49.49 0 01-.425-.54v.002l.235-1.872a.495.495 0 01.551-.421h-.002a.486.486 0 01.425.543l-.235 1.867zM18.601 6.634a.486.486 0 01-.408-.555v.003c.032-.197.208-1.205.687-1.713a.488.488 0 01.691-.021.48.48 0 01.021.685c-.203.214-.374.829-.433 1.197a.49.49 0 01-.56.405h.003zM.779 9.049c-.095-.361-.327-.956-.551-1.15a.481.481 0 01-.044-.684.49.49 0 01.691-.045H.874c.527.458.802 1.444.851 1.637a.484.484 0 01-.349.589l-.003.001a.49.49 0 01-.594-.346l-.001-.003z"/></symbol></defs></svg>