<svg aria-hidden="true" style="position: absolute; width: 0; height: 0; overflow: hidden;" version="1.1" xmlns="http://www.w3.org/2000/svg" xmlns:xlink="http://www.w3.org/1999/xlink">
<defs>
<symbol id="right-arrow" viewBox="0 0 32 32">
<path d="M31.489 14.757l-11.556-11.557c-0.33-0.33-0.77-0.511-1.238-0.511s-0.909 0.181-1.239 0.511l-1.049 1.050c-0.33 0.329-0.511 0.769-0.511 1.238s0.182 0.924 0.511 1.253l6.742 6.757h-21.419c-0.966 0-1.729 0.756-1.729 1.722v1.484c0 0.966 0.763 1.798 1.729 1.798h21.495l-6.818 6.794c-0.33 0.33-0.511 0.758-0.511 1.227s0.182 0.903 0.511 1.232l1.049 1.046c0.33 0.33 0.769 0.51 1.239 0.51s0.908-0.182 1.238-0.512l11.556-11.556c0.331-0.331 0.513-0.773 0.511-1.242 0.001-0.471-0.181-0.913-0.511-1.244z"></path>
</symbol>
<symbol id="brackets" viewBox="0 0 42 32">
<path d="M31.233 0.39c1.882 0 3.659 0.508 5.331 1.523s3.031 2.475 4.077 4.378c1.003 1.904 1.505 4.146 1.505 6.726s-0.627 5.097-1.882 7.551c-0.418 0.888-1.171 2.031-2.258 3.427-1.129 1.396-2.174 2.602-3.136 3.617l-3.951 3.998-2.822-4.696c1.965-1.227 3.7-2.75 5.206-4.569 1.505-1.777 2.258-3.405 2.258-4.886 0-0.761-0.167-1.375-0.502-1.84-1.463 1.058-3.094 1.586-4.892 1.586-1.296 0-2.53-0.402-3.7-1.206-1.213-0.761-2.174-1.777-2.885-3.046-0.753-1.227-1.129-2.496-1.129-3.807 0-1.481 0.439-2.898 1.317-4.251 0.836-1.354 1.944-2.454 3.324-3.3 1.338-0.804 2.718-1.206 4.139-1.206zM8.718 0.39c1.882 0 3.659 0.508 5.331 1.523s3.031 2.475 4.077 4.378c1.003 1.904 1.505 4.146 1.505 6.726 0 1.819-0.23 3.448-0.69 4.886-0.46 1.481-1.254 3.025-2.383 4.632-1.087 1.523-2.112 2.792-3.073 3.807-0.962 1.058-2.634 2.813-5.017 5.267l-2.822-4.696c1.965-1.227 3.7-2.75 5.206-4.569 1.505-1.777 2.258-3.405 2.258-4.886 0-0.761-0.167-1.375-0.502-1.84-1.463 1.058-3.094 1.586-4.892 1.586-1.296 0-2.53-0.402-3.7-1.206-1.213-0.761-2.174-1.777-2.885-3.046-0.753-1.227-1.129-2.496-1.129-3.807 0-1.481 0.418-2.898 1.254-4.251s1.944-2.454 3.324-3.3c1.338-0.804 2.718-1.206 4.139-1.206z"></path>
</symbol>
<symbol id="ellipse" viewBox="0 0 32 32">
<path d="M32 16c0 8.837-7.163 16-16 16s-16-7.163-16-16c0-8.837 7.163-16 16-16s16 7.163 16 16z"></path>
<symbol id="facebook" viewBox="0 0 16 32">
<path d="M14.143 15.972h-4.034v14.865h-6.112v-14.865h-2.907v-5.224h2.907v-3.381c0-2.418 1.142-6.203 6.166-6.203l4.527 0.019v5.071h-3.285c-0.539 0-1.296 0.271-1.296 1.424v3.075h4.567l-0.534 5.219z"></path>
</symbol>
<symbol id="github" viewBox="0 0 32 32">
<path d="M16 0c-8.788 0-16 7.212-16 16 0 7.499 5.262 14.312 12.25 16v-5.293c-0.692 0.152-1.33 0.156-2.034-0.052-0.946-0.279-1.714-0.909-2.284-1.869-0.364-0.613-1.008-1.278-1.68-1.23l-0.165-1.868c1.453-0.124 2.711 0.886 3.457 2.14 0.332 0.558 0.713 0.884 1.203 1.029 0.473 0.14 0.982 0.072 1.574-0.137 0.149-1.186 0.692-1.63 1.102-2.255v-0.001c-4.167-0.622-5.828-2.832-6.488-4.578-0.874-2.317-0.405-5.212 1.14-7.041 0.030-0.036 0.084-0.129 0.063-0.194-0.708-2.139 0.155-3.909 0.187-4.097 0.817 0.242 0.95-0.243 3.551 1.337l0.449 0.27c0.188 0.112 0.129 0.048 0.317 0.034 1.086-0.295 2.23-0.458 3.358-0.472 1.136 0.015 2.273 0.178 3.404 0.484l0.145 0.015c-0.013-0.002 0.040-0.009 0.127-0.062 3.248-1.968 3.132-1.324 4.003-1.608 0.032 0.188 0.883 1.987 0.182 4.099-0.095 0.291 2.816 2.956 1.203 7.235-0.659 1.746-2.32 3.957-6.487 4.578v0.001c0.534 0.814 1.176 1.247 1.173 2.927v6.608c6.988-1.688 12.25-8.501 12.25-16 0-8.788-7.212-16-16-16v0z"></path>
</symbol>
<symbol id="dots" viewBox="0 0 139 32">
<path d="M85.333 16c0 8.837-7.163 16-16 16s-16-7.163-16-16c0-8.837 7.163-16 16-16s16 7.163 16 16z"></path>
<path d="M32 16c0 8.837-7.163 16-16 16s-16-7.163-16-16c0-8.837 7.163-16 16-16s16 7.163 16 16z"></path>
<path d="M138.667 16c0 8.837-7.163 16-16 16s-16-7.163-16-16c0-8.837 7.163-16 16-16s16 7.163 16 16z"></path>
</symbol>
<symbol id="telegram" viewBox="0 0 44 32">
<path d="M17.343 21.048l-0.675 8.86c0.966 0 1.384-0.387 1.885-0.852l4.527-4.038 9.381 6.412c1.72 0.895 2.933 0.424 3.397-1.477l6.157-26.929 0.002-0.002c0.546-2.374-0.92-3.302-2.596-2.72l-36.194 12.933c-2.47 0.895-2.433 2.18-0.42 2.762l9.253 2.686 21.494-12.552c1.011-0.625 1.931-0.279 1.175 0.346l-17.386 14.57z"></path>
</symbol>
<symbol id="house" viewBox="0 0 32 32">
<path d="M31.618 15.643c0.553-0.608 0.5-1.541-0.119-2.082l-13.636-11.931c-0.619-0.541-1.611-0.53-2.217 0.026l-13.682 12.542c-0.606 0.556-0.636 1.487-0.066 2.079l0.343 0.357c0.569 0.592 1.489 0.663 2.053 0.157l1.023-0.916v13.406c0 0.823 0.666 1.488 1.488 1.488h5.333c0.822 0 1.488-0.666 1.488-1.488v-9.379h6.803v9.379c-0.012 0.822 0.576 1.488 1.398 1.488h5.652c0.822 0 1.488-0.666 1.488-1.488v-13.217c0 0 0.282 0.247 0.631 0.554s1.078 0.061 1.631-0.548l0.388-0.426z"></path>
</symbol>

<symbol id="logo" viewBox="0 0 127 32">
<path fill="#D41443" d="M12.16 0.576c-7.36 2.24-11.776 8.064-11.776 15.424 0 6.016 3.072 11.264 8.128 13.888 2.624 1.344 3.008 0.384 0.576-1.472-1.728-1.408-2.048-2.048-2.048-4.416 0-1.664-0.384-3.008-0.96-3.52-1.152-0.96-1.28-3.456-0.128-4.352 0.448-0.384 0.896-1.664 0.96-2.816 0.32-4.224 4.864-8.192 9.408-8.192s9.088 3.968 9.408 8.192c0.064 1.152 0.512 2.432 0.96 2.816 1.152 0.896 1.024 3.392-0.128 4.352-0.576 0.512-0.96 1.856-0.96 3.52 0 2.368-0.32 3.008-2.048 4.416-2.688 2.112-1.92 2.88 1.088 1.024 4.224-2.624 7.36-8.32 7.36-13.376 0-10.112-10.496-18.304-19.84-15.488z"></path>
<path fill="#D41443" d="M12.992 8c-1.152 0.512-2.112 1.152-2.112 1.536 0 0.704 3.456 1.984 5.44 1.984s5.44-1.28 5.44-1.984c0-0.768-3.968-2.496-5.568-2.496-0.64 0.064-2.112 0.448-3.2 0.96z"></path>
<path fill="#D41443" d="M45.952 11.328c-0.96 0.256-1.152 1.088-1.152 5.696v5.376h4.544l-0.192-5.568c-0.192-5.824-0.448-6.272-3.2-5.504z"></path>
<path fill="#D41443" d="M53.44 11.648c-2.112 1.152-2.88 2.56-2.88 5.312 0 3.776 2.048 5.568 5.824 5.312 2.56-0.192 2.816-0.384 3.008-1.984s0.064-1.728-1.92-1.6c-2.048 0.192-2.112 0.064-2.112-2.048s0.128-2.24 1.984-2.048c1.536 0.128 2.112-0.128 2.368-1.088 0.128-0.64 0-1.536-0.384-1.92-0.896-0.896-4.224-0.896-5.888 0.064z"></path>
<path fill="#D41443" d="M61.056 11.712c-0.192 0.512-0.256 3.008-0.128 5.632l0.192 4.736h4.16c3.84 0 4.16-0.128 4.352-1.472 0.192-1.216-0.064-1.408-2.048-1.408-1.28 0-2.304-0.32-2.304-0.64 0-0.384 0.896-0.64 1.92-0.64 1.472 0 1.92-0.256 1.92-1.28s-0.448-1.28-1.92-1.28c-1.024 0-1.92-0.32-1.92-0.64 0-0.384 0.832-0.64 1.856-0.64 1.792 0 3.008-1.408 2.24-2.624-0.576-0.96-7.936-0.704-8.32 0.256z"></path>
<path fill="#D41443" d="M74.24 11.328c-2.368 0.896-3.2 2.304-3.2 5.44 0 4.224 1.536 5.76 5.632 5.504 2.752-0.192 3.008-0.32 3.008-1.792 0-1.408-0.256-1.6-2.048-1.408-1.536 0.128-2.112-0.064-2.432-1.088-0.576-1.984 0.64-3.584 2.688-3.584 1.984 0 2.88-1.984 1.344-2.944-0.896-0.64-3.52-0.64-4.992-0.128z"></path>
<path fill="#D41443" d="M81.792 11.264c-0.32 0.256-0.512 2.88-0.512 5.824v5.376l2.048-0.192c1.6-0.128 2.176-0.576 2.496-1.792l0.384-1.6 0.512 1.728c0.384 1.472 0.832 1.792 2.496 1.792 2.752 0 3.072-0.448 1.92-2.688-0.704-1.408-0.832-2.112-0.32-2.624 0.832-0.832 0.896-3.648 0.128-4.864-0.64-1.024-8.32-1.856-9.152-0.96zM87.040 14.72c0 0.704-0.256 1.28-0.64 1.28-0.32 0-0.64-0.576-0.64-1.28s0.32-1.28 0.64-1.28c0.384 0 0.64 0.576 0.64 1.28z"></path>
<path fill="#D41443" d="M93.248 11.328c-0.256 0.192-0.448 2.816-0.448 5.76v5.312h4.16c4.032 0 4.16-0.064 4.16-1.6 0-1.344-0.32-1.6-1.92-1.6-1.024 0-1.92-0.32-1.92-0.64 0-0.384 0.704-0.64 1.6-0.64 1.152 0 1.6-0.32 1.6-1.28s-0.448-1.28-1.6-1.28c-0.896 0-1.6-0.32-1.6-0.64 0-0.384 0.896-0.64 1.92-0.64 1.6 0 1.92-0.256 1.92-1.6 0-1.536-0.192-1.6-3.712-1.6-2.048 0-3.968 0.192-4.16 0.448z"></path>
<path fill="#D41443" d="M106.176 11.264c-1.152 0.32-4.096 8.832-3.52 10.24 0.512 1.28 3.392 1.152 4.16-0.192 0.576-1.088 0.64-1.088 1.792 0 1.472 1.28 4.672 1.472 4.672 0.256 0-0.384-0.64-2.944-1.472-5.568-1.28-4.224-1.664-4.8-3.008-4.928-0.896 0-2.048 0.064-2.624 0.192zM107.968 17.088c-0.192 0.64-0.32 0.256-0.32-0.768 0-1.088 0.128-1.536 0.32-1.152 0.128 0.448 0.128 1.344 0 1.92z"></path>
<path fill="#D41443" d="M115.392 11.328c-0.576 0.192-0.832 1.984-0.832 5.696v5.376h1.92c1.728 0 1.92-0.192 1.984-2.112l0.064-2.048 0.704 1.728c0.832 2.176 2.176 2.304 3.008 0.32 0.512-1.344 0.576-1.344 0.576 0.384 0.064 1.6 0.256 1.792 2.048 1.6l1.984-0.192 0.064-5.312c0.128-4.928 0.064-5.312-1.28-5.632-2.048-0.512-3.776 0.704-4.352 3.072l-0.448 2.112-0.704-2.24c-0.896-3.008-2.24-3.776-4.736-2.752z"></path>
<path fill="#D41443" d="M9.344 11.968c-0.192 0.256-0.384 1.088-0.384 1.92 0 1.472 0.064 1.472 7.36 1.472s7.36 0 7.36-1.472c0-2.176-0.576-2.432-2.624-1.408-2.304 1.216-7.168 1.216-9.472 0-1.024-0.512-1.984-0.704-2.24-0.512z"></path>
<path fill="#D41443" d="M7.488 17.664c-1.024 1.088 0.704 1.536 5.696 1.536h5.376v2.24c0 1.216 0.32 2.24 0.64 2.24 0.384 0 0.64-0.96 0.64-2.176 0-2.112 0.128-2.24 2.56-2.432 1.408-0.128 2.56-0.512 2.56-0.832 0-0.704-16.768-1.28-17.472-0.576z"></path>
<path fill="#D41443" d="M8.96 23.296c0 3.52 1.216 4.224 7.36 4.224s7.36-0.704 7.36-4.224c0-1.536-0.32-2.176-0.96-2.176-0.576 0-0.96 0.576-0.96 1.536 0 3.584-4.864 3.904-5.568 0.384-0.32-1.856-0.512-1.92-3.776-1.92h-3.456v2.176z"></path>
<path fill="#D41443" d="M12.928 30.528c0.384 2.048 6.912 1.856 6.912-0.128 0-0.704-0.832-0.96-3.584-0.96-3.008 0-3.52 0.192-3.328 1.088z"></path>
</symbol>

<symbol id="burger" viewBox="0 0 46 32">
<path fill="none" stroke="#d41443" style="stroke: var(--color1, #d41443)" stroke-linejoin="miter" stroke-linecap="butt" stroke-miterlimit="4" stroke-width="2.2857" d="M0 2.286h45.714"></path>
<path fill="none" stroke="#d41443" style="stroke: var(--color1, #d41443)" stroke-linejoin="miter" stroke-linecap="butt" stroke-miterlimit="4" stroke-width="2.2857" d="M0 16h45.714"></path>
<path fill="none" stroke="#d41443" style="stroke: var(--color1, #d41443)" stroke-linejoin="miter" stroke-linecap="butt" stroke-miterlimit="4" stroke-width="2.2857" d="M0 29.714h45.714"></path>
</symbol>

<svg id="close-menu" width="16" height="16" viewBox="0 0 16 16" fill="none" xmlns="http://www.w3.org/2000/svg">
<path d="M1.25928 1L14.7408 15" stroke="white"/>
<path d="M1 14.7407L15 1.25924" stroke="white"/>
</svg>

<symbol id="arrow-right" viewBox="0 0 22 32">
<path fill="none" style="stroke: var(--color1, #ffffff)" stroke-linejoin="round" stroke-linecap="round" stroke-miterlimit="4" stroke-width="6.4" d="M5.575 3.2l12.88 12.8-12.88 12.8"></path>
</symbol>
<symbol id="arrow-right-red" viewBox="0 0 22 32">
<path fill="none" style="stroke: var(--color1, #d41443)" stroke-linejoin="round" stroke-linecap="round" stroke-miterlimit="4" stroke-width="6.4" d="M5.575 3.2l12.88 12.8-12.88 12.8"></path>
</symbol>

</defs>
</defs>
</svg>
