<svg aria-hidden="true" style="position:absolute;width:0;height:0" xmlns="http://www.w3.org/2000/svg" overflow="hidden"><defs><symbol id="icon-logo" viewBox="0 0 39 32"><path d="M22.371 9.64l-.749-.571a.57.57 0 00-.8.079l-.001.001-10.36 11.897.16.177 2.566-2.366a.395.395 0 01.147-.76h.007c.174 0 .321.114.371.272l.001.003 3.383-3.137a.291.291 0 01.366 0h-.001l.171.126a.285.285 0 00.382-.046l4.423-4.96a.473.473 0 00-.067-.714l-.001-.001z"/><path d="M27.24 12.989a22.87 22.87 0 01-7.335 3.477l-.162.037c-2.401.638-5.193 1.072-8.063 1.208l-.092.003c.055.406.155.805.297 1.189 1.554 1.406 13.257-.994 15.543-3.771.486-.577-.189-2.143-.189-2.143zm-13.897 5.868a.389.389 0 11.389-.389v.006a.382.382 0 01-.382.382h-.007zM2.286 12.166l.091-.394 1.486.337c.123.226.198.475.223.731a2.43 2.43 0 01-.051.811 2.157 2.157 0 01-.493.997l.002-.002a1.97 1.97 0 01-.866.568l-.014.004a2.109 2.109 0 01-1.095.038l.014.003a2.001 2.001 0 01-.955-.504l.001.001a1.883 1.883 0 01-.54-.884l-.003-.013a2.15 2.15 0 01.004-1.158l-.004.015c.061-.28.171-.547.326-.789.147-.22.339-.399.563-.527l.008-.004.206.314a1.64 1.64 0 00-.753 1.099l-.002.01a1.792 1.792 0 00.02.91l-.003-.013c.077.278.229.529.44.726.217.21.488.354.783.417.286.08.589.08.874 0 .274-.09.52-.25.714-.463.2-.23.337-.507.4-.806a1.755 1.755 0 00-.073-1.103l.004.012-1.309-.331zM5.52 8.571l-1.331 1.777.571 1.023-.263.354-2.114-3.857.246-.337 4.303.926-.269.354-1.143-.24zm-.377-.091l-2.286-.514L4 10.017 5.143 8.48zm0-3.594l.343-.257 2.177 2.914L9.457 6.2l.217.291-2.131 1.594-2.4-3.2zm3.6-2.383l.383-.171 1.509 3.303 2.04-.926.149.331-2.423 1.103-1.657-3.64zm7.531 1.314l.086.36-2.754.646-.914-3.897 2.674-.623.08.354-2.286.531.326 1.383 2.011-.474.086.354-2.017.469.343 1.446 2.366-.549zm3.926.143l-.954-1.257a2.847 2.847 0 01-.32 0l-1.074.034.04 1.269h-.423l-.131-4L18.858 0a1.8 1.8 0 011.217.329L20.07.325c.287.232.469.585.469.979v.016-.001c.017.282-.057.563-.211.8a1.34 1.34 0 01-.653.483l-.009.003 1 1.337-.463.017zm-.4-1.88a.909.909 0 00.291-.752v-.016a.916.916 0 00-.336-.71l-.002-.001a1.373 1.373 0 00-.902-.234h.005l-1.086.04.069 2 1.063-.034a1.36 1.36 0 00.9-.294l-.003.002zm3.423.817l-.206 1.366L22.6 4.2l.211-1.343L21.628 0l.446.069 1.011 2.434L24.799.486l.4.086-1.977 2.326zm5.651-.24l.497.646-.217.171-.497-.663-.314.749-.24-.103.32-.749-.823.109v-.274l.811-.091-.503-.646.223-.171.44.651.309-.754.246.103-.291.766.823-.114v.28l-.783.091zm1.909 4.606a1.565 1.565 0 01-.245-.684l-.001-.007.337-.149c.025.226.099.445.217.64.127.219.294.413.491.571.197.189.452.318.736.359l.007.001a.62.62 0 00.536-.221l.001-.001a.51.51 0 00.133-.345l-.002-.045v.002a1.054 1.054 0 00-.14-.399l.003.005a5.935 5.935 0 00-.359-.523l.01.014a4.995 4.995 0 01-.398-.603l-.013-.026a1.133 1.133 0 01-.149-.536v-.001a.84.84 0 01.223-.571c.123-.148.283-.261.467-.324l.007-.002a1.125 1.125 0 01.642.002l-.008-.002c.28.093.522.234.728.414l-.002-.002c.176.146.331.315.463.503.121.174.212.367.269.571l-.326.171a2.006 2.006 0 00-.256-.544l.005.007a2.1 2.1 0 00-.379-.391l-.004-.003a1.265 1.265 0 00-.731-.348l-.006-.001a.616.616 0 00-.536.233l-.001.001a.49.49 0 00-.131.39v-.002a.934.934 0 00.137.406c.08.131.194.303.349.509.153.194.29.401.411.617.091.154.148.338.154.535v.002a.84.84 0 01-.223.571 1.02 1.02 0 01-.473.324l-.007.002a1.093 1.093 0 01-.642-.002l.008.002a2.115 2.115 0 01-.734-.414l.003.002a2.626 2.626 0 01-.565-.695l-.007-.013zm5.748.834l-.806-1.143.297-.211 1.857 2.651-.297.211-.806-1.143-2.983 2.086-.24-.349 2.977-2.103zm-1.28 4.697c.107-.357.306-.659.569-.89l.002-.002c.256-.23.573-.396.924-.472l.013-.002a2.086 2.086 0 011.089.044l-.015-.004c.348.117.642.314.873.57l.002.002c.238.272.409.609.483.981l.002.014a2.21 2.21 0 01-.003 1.118l.004-.015a1.975 1.975 0 01-.569.89l-.002.002a2.111 2.111 0 01-2.055.441l.015.004a1.912 1.912 0 01-.872-.569l-.002-.002a2.137 2.137 0 01-.483-.975l-.002-.014a2.187 2.187 0 01.033-1.136l-.004.016zM36 14.611a1.575 1.575 0 001.207.533c.446 0 .854-.165 1.166-.438l-.002.002c.211-.194.367-.44.451-.714a1.835 1.835 0 00-.374-1.683l.002.003a1.63 1.63 0 00-.726-.46l-.012-.003a1.697 1.697 0 00-.892.003l.012-.003c-.303.06-.568.199-.778.395l.001-.001a1.594 1.594 0 00-.448.709l-.003.011a1.705 1.705 0 00.003.898l-.003-.012c.067.296.205.553.395.761l-.001-.001zm-1.183 4.818l1.48-.571c0-.103.034-.206.063-.314l.28-1.034-1.211-.314.109-.406 3.863 1.034-.389 1.446c-.092.435-.33.803-.659 1.06l-.004.003a1.226 1.226 0 01-1.094.157l.009.003a1.242 1.242 0 01-.977-1.205l-1.577.571.109-.429zm1.914.16a1.03 1.03 0 001.439.38l-.004.003c.246-.199.421-.478.484-.797l.001-.009.274-1.029-1.937-.52-.274 1.029a1.366 1.366 0 00.02.952l-.003-.009zm-3.965 3.52l-.291-.223 1.714-2.257 3.189 2.417-1.657 2.189-.291-.223 1.4-1.846-1.143-.863-1.251 1.651-.286-.217 1.28-1.651-1.183-.897-1.48 1.92zm-1.337 4.554l-.817.046v-.274l.817-.006-.44-.68.223-.143.434.686.354-.766.246.131-.389.72.817-.046v.28h-.829l.44.68-.223.143-.434-.686-.377.743-.24-.137.417-.691zM24 27.206l.691.383a1.781 1.781 0 011.131-.9l.012-.003a1.77 1.77 0 01.711-.074l-.007-.001c.216.017.411.092.575.208l-.003-.002a.894.894 0 01.32.457c.069.226.057.469-.034.686-.151.307-.342.57-.571.794.189.101.363.226.52.371a.983.983 0 01.234.394.758.758 0 01-.15.67l.001-.001a1.1 1.1 0 01-.632.438l-.008.002a.996.996 0 01-.709 0 .716.716 0 01-.41-.481l-.001-.005a.78.78 0 01.042-.576l-.002.005a2.76 2.76 0 01.509-.703l-1.377-.766a2.7 2.7 0 00-.034.817h-.349a2.73 2.73 0 01.119-1.014l-.005.019-.72-.4.149-.32zm.994.571l1.514.84c.194-.186.357-.403.479-.644l.006-.014a.723.723 0 000-.514.618.618 0 00-.396-.427l-.004-.001a1.123 1.123 0 00-.74.003l.008-.002a1.376 1.376 0 00-.888.735l-.004.008.023.017zm2.149 2.286a.509.509 0 00.045-.427l.001.004a.703.703 0 00-.183-.297 2.479 2.479 0 00-.46-.308l-.014-.006a2.999 2.999 0 00-.444.559l-.007.013a.566.566 0 00-.045.426l-.001-.004a.483.483 0 00.249.302l.003.001a.637.637 0 00.451 0 .68.68 0 00.381-.266l.001-.002.023.006zm-10.109 1.548l.08-4h.406l-.063 3.2 1.623-2.663h.2l1.52 2.709.057-3.183h.406l-.074 4h-.349l-1.68-2.989-1.777 2.931-.349-.006zm-1.988-4.182a1.943 1.943 0 01.516 1.991l.004-.014c-.1.367-.289.682-.543.931a1.91 1.91 0 01-.907.5l-.013.003a2.189 2.189 0 01-1.124-.039l.016.004a2.15 2.15 0 01-.961-.521l.001.001a1.918 1.918 0 01-.528-.889l-.003-.013a2.1 2.1 0 01.572-2.011c.242-.242.548-.421.889-.511l.014-.003a2.202 2.202 0 011.118.038l-.016-.004c.378.098.704.285.966.538l-.001-.001zm-1.949-.2a1.523 1.523 0 00-.737.411 1.652 1.652 0 00-.432.748l-.003.012c-.08.286-.08.589 0 .874.067.278.212.531.417.731.209.204.469.357.759.437l.012.003a1.796 1.796 0 00.898-.003l-.012.003a1.63 1.63 0 00.743-.411 1.68 1.68 0 00.432-.748l.003-.012a1.645 1.645 0 00-.003-.892l.003.012a1.613 1.613 0 00-.423-.731 1.718 1.718 0 00-.765-.432l-.012-.003a1.645 1.645 0 00-.892.003l.012-.003zm-4.326-2.658l.154 1.571c.098.042.194.09.286.143l.931.537.629-1.109.371.211-2 3.446-1.303-.749a1.826 1.826 0 01-.853-.903l-.005-.012a1.256 1.256 0 01.128-1.091l-.003.005c.133-.25.343-.451.6-.571a1.299 1.299 0 01.832-.061l-.009-.002-.166-1.68.406.263zm-.651 1.806a1.03 1.03 0 00-.735 1.293l-.002-.007c.134.296.366.536.657.68l.92.531 1-1.714-.92-.531a1.401 1.401 0 00-.923-.28h.004v.029zm-2.731-4.486l.257-.257 1.971 2.029-2.857 2.789-1.903-1.966.263-.257 1.617 1.663.977-.989-1.417-1.474.274-.263 1.446 1.486 1.063-1.034-1.691-1.726zm-4.246-2.245l.137-.789.269.04-.154.811.76-.28.091.251-.771.263.634.537-.183.206-.611-.571-.143.811-.274-.051.16-.811-.766.274-.086-.223.766-.269-.634-.531.189-.206.617.537z"/></symbol><symbol id="icon-close" viewBox="0 0 32 32"><path d="M31.439 3.166L28.273 0 15.719 12.552 3.167 0 .001 3.166l12.552 12.552L.001 28.272l3.166 3.166 12.552-12.554 12.554 12.554 3.166-3.166-12.554-12.554L31.439 3.166z"/></symbol><symbol id="icon-menu" viewBox="0 0 48 32"><path d="M0 5.334V0h48v5.334H0zm0 13.332h48v-5.332H0v5.332zM0 32h48v-5.334H0V32z"/></symbol><symbol id="icon-plus" viewBox="0 0 32 32"><path d="M13.476 17.973H2.418v-4.942h11.058V1.692h4.996v11.332h11.083v4.942H18.476v11.282h-4.999V17.973z"/></symbol><symbol id="icon-instagram" viewBox="0 0 32 32"><path d="M31.968 9.408c-.074-1.701-.349-2.869-.744-3.882a7.84 7.84 0 00-1.847-2.837l-.001-.001A7.906 7.906 0 0026.598.861l-.054-.018C25.523.449 24.362.176 22.661.101 20.949.019 20.405 0 16.059 0c-4.344 0-4.888.019-6.595.094-1.701.074-2.869.349-3.88.742a7.847 7.847 0 00-2.839 1.85l-.001.001A7.9 7.9 0 00.919 5.465l-.018.054C.506 6.538.232 7.7.157 9.401c-.082 1.712-.101 2.256-.101 6.602 0 4.344.019 4.888.094 6.595.075 1.701.35 2.869.744 3.882a7.915 7.915 0 001.849 2.837l.001.001c.8.813 1.77 1.443 2.832 1.843 1.019.395 2.182.67 3.882.744 1.707.075 2.251.094 6.595.094 4.346 0 4.89-.019 6.595-.094 1.701-.074 2.869-.349 3.882-.742a8.237 8.237 0 004.664-4.628l.019-.055c.394-1.019.669-2.182.744-3.882.075-1.707.093-2.251.093-6.595s-.006-4.888-.08-6.595zm-2.88 13.066c-.07 1.563-.333 2.406-.552 2.97a5.336 5.336 0 01-3.001 3.024l-.036.013c-.563.219-1.413.482-2.97.55-1.688.075-2.194.094-6.464.094-4.269 0-4.782-.019-6.464-.094-1.563-.069-2.406-.331-2.97-.55a4.953 4.953 0 01-1.836-1.192l-.001-.001a4.978 4.978 0 01-1.184-1.803l-.011-.034c-.218-.563-.48-1.413-.549-2.97-.075-1.688-.094-2.195-.094-6.464 0-4.27.019-4.784.094-6.464.069-1.563.331-2.406.549-2.97a4.897 4.897 0 011.198-1.837l.002-.002a4.972 4.972 0 011.806-1.182l.034-.011c.56-.219 1.411-.48 2.968-.55 1.688-.074 2.194-.093 6.464-.093 4.275 0 4.782.019 6.464.093 1.562.069 2.406.331 2.97.55a4.91 4.91 0 011.837 1.194c.531.52.938 1.144 1.195 1.84.218.56.48 1.411.549 2.968.075 1.688.094 2.194.094 6.464 0 4.269-.019 4.768-.094 6.458z"/><path d="M16.059 7.782a8.223 8.223 0 00-8.219 8.221v.002a8.222 8.222 0 1016.444 0 8.222 8.222 0 00-8.222-8.222h-.002zm0 13.552a5.333 5.333 0 01.001-10.666h.001a5.334 5.334 0 110 10.668zM26.525 7.458a1.92 1.92 0 01-3.84 0 1.92 1.92 0 013.84 0z"/></symbol><symbol id="icon-twitter" viewBox="0 0 32 32"><path d="M32 6.078c-1.1.493-2.376.857-3.713 1.028l-.068.007a6.556 6.556 0 002.873-3.579l.013-.046a12.88 12.88 0 01-4.076 1.573l-.084.014A6.558 6.558 0 0015.6 9.557v.004c0 .52.043 1.021.152 1.496-5.454-.266-10.28-2.88-13.522-6.861a6.524 6.524 0 00-.902 3.313v.001a6.57 6.57 0 002.914 5.451 6.453 6.453 0 01-2.994-.823l.033.017v.072a6.592 6.592 0 005.213 6.44l.043.008a6.403 6.403 0 01-1.662.215h-.061.003c-.419 0-.843-.024-1.242-.112.85 2.598 3.261 4.509 6.13 4.57a13.093 13.093 0 01-8.122 2.8H1.57h.001-.062c-.531 0-1.055-.034-1.569-.099l.061.006c2.826 1.846 6.287 2.944 10.004 2.944h.063-.003c12.072 0 18.672-10 18.672-18.669 0-.288-.01-.57-.024-.848a13.203 13.203 0 003.258-3.355l.03-.047z"/></symbol><symbol id="icon-facebook" viewBox="0 0 32 32"><path d="M21.328 5.312h2.923V.224A36.483 36.483 0 0020.143 0h-.156.008c-4.213 0-7.099 2.65-7.099 7.52V12H8.25v5.688h4.646V32h5.699V17.69h4.459l.707-5.688h-5.168V8.08c0-1.643.443-2.768 2.734-2.768z"/></symbol><symbol id="icon-linkedin" viewBox="0 0 32 32"><path d="M31.992 32H32V20.262c0-5.741-1.237-10.163-7.947-10.163-3.227 0-5.392 1.77-6.277 3.45h-.093v-2.914h-6.365v21.363h6.627V21.42c0-2.786.528-5.48 3.978-5.48 3.398 0 3.448 3.179 3.448 5.658V32h6.621zM.528 10.635h6.635V32H.528V10.635zM3.843 0A3.843 3.843 0 000 3.843c0 2.12 1.722 3.878 3.843 3.878 2.12 0 3.842-1.757 3.842-3.878S5.965.002 3.844 0z"/></symbol><symbol id="icon-map-pin" viewBox="0 0 32 32"><path stroke-linejoin="round" stroke-linecap="round" stroke-width="1.333" d="M26.667 13.819C26.667 21.454 16 28 16 28S5.333 21.453 5.333 13.819C5.333 8.396 10.109 4 16 4s10.667 4.396 10.667 9.819v0z"/><path stroke-linejoin="round" stroke-linecap="round" stroke-width="1.333" d="M16 18.667a4 4 0 000-8v0a4 4 0 000 8v0z"/></symbol><symbol id="icon-phone" viewBox="0 0 32 32"><path stroke-linejoin="round" stroke-linecap="round" stroke-width="1.333" d="M26.667 21.337v3.227A2.145 2.145 0 0124.32 26.7l.009.001c-3.481-.388-6.626-1.563-9.338-3.343l.081.05a21.09 21.09 0 01-6.386-6.353l-.05-.083a20.982 20.982 0 01-3.285-9.205l-.008-.095a2.145 2.145 0 012.136-2.338h3.239c1.079 0 1.972.797 2.123 1.834l.001.012c.136 1.029.387 2.04.751 3.013a2.144 2.144 0 01-.483 2.264l-1.363 1.361c1.555 2.7 3.736 4.881 6.353 6.392l.083.044 1.363-1.361a2.14 2.14 0 012.278-.477l-.015-.005c.973.363 1.984.613 3.013.751a2.148 2.148 0 011.847 2.125l-.001.056v-.003z"/></symbol><symbol id="icon-mail" viewBox="0 0 32 32"><path stroke-linejoin="round" stroke-linecap="round" stroke-width="1.333" d="M6.4 6.667h19.2C26.92 6.667 28 7.716 28 9v14c0 1.283-1.08 2.333-2.4 2.333H6.4C5.08 25.333 4 24.282 4 23V9c0-1.284 1.08-2.333 2.4-2.333z"/><path stroke-linejoin="round" stroke-linecap="round" stroke-width="1.333" d="M26.667 9.333l-10.667 8-10.667-8"/></symbol></defs></svg>