<svg aria-hidden="true" style="position: absolute; width: 0; height: 0; overflow: hidden;" version="1.1" xmlns="http://www.w3.org/2000/svg" xmlns:xlink="http://www.w3.org/1999/xlink">
<defs>
<symbol id="icon-cancel" viewBox="0 0 32 32">
<path d="M17.768 16l13.866-13.866c0.488-0.488 0.488-1.28 0-1.768s-1.28-0.488-1.768 0l-13.866 13.866-13.866-13.866c-0.488-0.488-1.28-0.488-1.768 0s-0.488 1.28 0 1.768l13.866 13.866-13.866 13.866c-0.488 0.488-0.488 1.28 0 1.768 0.244 0.244 0.564 0.366 0.884 0.366s0.64-0.122 0.884-0.366l13.866-13.866 13.866 13.866c0.244 0.244 0.564 0.366 0.884 0.366s0.64-0.122 0.884-0.366c0.488-0.488 0.488-1.28 0-1.768l-13.866-13.866z"></path>
</symbol>
<symbol id="icon-facebook" viewBox="0 0 32 32">
<path d="M22.143 15.972h-4.034v14.865h-6.112v-14.865h-2.907v-5.224h2.907v-3.381c0-2.418 1.142-6.203 6.166-6.203l4.527 0.019v5.071h-3.285c-0.539 0-1.296 0.271-1.296 1.424v3.075h4.567l-0.534 5.219z"></path>
</symbol>
<symbol id="icon-github" viewBox="0 0 32 32">
<path d="M16 0c-8.788 0-16 7.212-16 16 0 7.499 5.262 14.312 12.25 16v-5.293c-0.692 0.152-1.33 0.156-2.034-0.052-0.946-0.279-1.714-0.909-2.284-1.869-0.364-0.613-1.008-1.278-1.68-1.23l-0.165-1.868c1.453-0.124 2.711 0.886 3.457 2.14 0.332 0.558 0.713 0.884 1.203 1.029 0.473 0.14 0.982 0.072 1.574-0.137 0.149-1.186 0.692-1.63 1.102-2.255v-0.001c-4.167-0.622-5.828-2.832-6.488-4.578-0.874-2.317-0.405-5.212 1.14-7.041 0.030-0.036 0.084-0.129 0.063-0.194-0.708-2.139 0.155-3.909 0.187-4.097 0.817 0.242 0.95-0.243 3.551 1.337l0.449 0.27c0.188 0.112 0.129 0.048 0.317 0.034 1.086-0.295 2.23-0.458 3.358-0.472 1.136 0.015 2.273 0.178 3.404 0.484l0.145 0.015c-0.013-0.002 0.040-0.009 0.127-0.062 3.248-1.968 3.132-1.324 4.003-1.608 0.032 0.188 0.883 1.987 0.182 4.099-0.095 0.291 2.816 2.956 1.203 7.235-0.659 1.746-2.32 3.957-6.487 4.578v0.001c0.534 0.814 1.176 1.247 1.173 2.927v6.608c6.988-1.688 12.25-8.501 12.25-16 0-8.788-7.212-16-16-16v0z"></path>
</symbol>
<symbol id="icon-home1" viewBox="0 0 32 32">
<path d="M31.618 15.643c0.553-0.608 0.5-1.541-0.119-2.082l-13.636-11.931c-0.619-0.541-1.611-0.53-2.217 0.026l-13.682 12.542c-0.606 0.556-0.636 1.487-0.066 2.079l0.343 0.357c0.569 0.592 1.489 0.663 2.053 0.157l1.023-0.916v13.406c0 0.823 0.666 1.488 1.488 1.488h5.333c0.822 0 1.488-0.666 1.488-1.488v-9.379h6.803v9.379c-0.012 0.822 0.576 1.488 1.398 1.488h5.652c0.822 0 1.488-0.666 1.488-1.488v-13.217c0 0 0.282 0.247 0.631 0.554s1.078 0.061 1.631-0.548l0.388-0.426z"></path>
</symbol>
<symbol id="icon-home-point" viewBox="0 0 32 32">
<path d="M32 16c0 8.837-7.163 16-16 16s-16-7.163-16-16c0-8.837 7.163-16 16-16s16 7.163 16 16z"></path>
</symbol>
<symbol id="icon-menu" viewBox="0 0 32 32">
<path d="M30.667 1.333h-29.333c-0.736 0-1.333 0.597-1.333 1.333s0.597 1.333 1.333 1.333h29.333c0.736 0 1.333-0.597 1.333-1.333s-0.597-1.333-1.333-1.333z"></path>
<path d="M30.667 14.667h-29.333c-0.736 0-1.333 0.597-1.333 1.333s0.597 1.333 1.333 1.333h29.333c0.736 0 1.333-0.597 1.333-1.333s-0.597-1.333-1.333-1.333z"></path>
<path d="M30.667 28h-29.333c-0.736 0-1.333 0.597-1.333 1.333s0.597 1.333 1.333 1.333h29.333c0.736 0 1.333-0.597 1.333-1.333s-0.597-1.333-1.333-1.333z"></path>
</symbol>
<symbol id="icon-quotes" viewBox="0 0 32 32">
<path d="M23.714 4.148c1.429 0 2.778 0.385 4.048 1.156s2.302 1.879 3.095 3.324c0.762 1.445 1.143 3.148 1.143 5.107s-0.476 3.87-1.429 5.733c-0.317 0.674-0.889 1.542-1.714 2.602-0.857 1.060-1.651 1.975-2.381 2.746l-3 3.035-2.143-3.565c1.492-0.931 2.81-2.088 3.952-3.469 1.143-1.349 1.714-2.586 1.714-3.71 0-0.578-0.127-1.044-0.381-1.397-1.111 0.803-2.349 1.204-3.714 1.204-0.984 0-1.921-0.305-2.81-0.915-0.921-0.578-1.651-1.349-2.19-2.313-0.571-0.931-0.857-1.895-0.857-2.891 0-1.124 0.333-2.2 1-3.228 0.635-1.028 1.476-1.863 2.524-2.505 1.016-0.61 2.063-0.915 3.143-0.915zM6.619 4.148c1.429 0 2.778 0.385 4.048 1.156s2.302 1.879 3.095 3.324c0.762 1.445 1.143 3.148 1.143 5.107 0 1.381-0.175 2.618-0.524 3.71-0.349 1.124-0.952 2.297-1.81 3.517-0.825 1.156-1.603 2.12-2.333 2.891-0.73 0.803-2 2.136-3.81 3.999l-2.143-3.565c1.492-0.931 2.81-2.088 3.952-3.469 1.143-1.349 1.714-2.586 1.714-3.71 0-0.578-0.127-1.044-0.381-1.397-1.111 0.803-2.349 1.204-3.714 1.204-0.984 0-1.921-0.305-2.81-0.915-0.921-0.578-1.651-1.349-2.19-2.313-0.571-0.931-0.857-1.895-0.857-2.891 0-1.124 0.317-2.2 0.952-3.228s1.476-1.863 2.524-2.505c1.016-0.61 2.063-0.915 3.143-0.915z"></path>
</symbol>
<symbol id="icon-red-poin" viewBox="0 0 32 32">
<path d="M4 16c0 1.105-0.895 2-2 2s-2-0.895-2-2c0-1.105 0.895-2 2-2s2 0.895 2 2z"></path>
<path d="M18 16c0 1.105-0.895 2-2 2s-2-0.895-2-2c0-1.105 0.895-2 2-2s2 0.895 2 2z"></path>
<path d="M32 16c0 1.105-0.895 2-2 2s-2-0.895-2-2c0-1.105 0.895-2 2-2s2 0.895 2 2z"></path>
</symbol>
<symbol id="icon-right-arrow" viewBox="0 0 32 32">
<path d="M24.889 14.751l-14.24-14.24c-0.329-0.33-0.769-0.511-1.238-0.511s-0.908 0.182-1.238 0.511l-1.049 1.048c-0.682 0.683-0.682 1.794 0 2.476l11.958 11.958-11.971 11.971c-0.329 0.33-0.511 0.769-0.511 1.238s0.182 0.908 0.511 1.238l1.049 1.048c0.33 0.33 0.769 0.511 1.238 0.511s0.908-0.182 1.238-0.511l14.254-14.253c0.33-0.331 0.511-0.772 0.51-1.242 0.001-0.471-0.18-0.912-0.51-1.243z"></path>
</symbol>
<symbol id="icon-telegram" viewBox="0 0 32 32">
<path d="M12.613 19.671l-0.491 6.444c0.702 0 1.006-0.282 1.371-0.62l3.293-2.937 6.822 4.663c1.251 0.651 2.133 0.308 2.47-1.074l4.478-19.585 0.001-0.001c0.397-1.726-0.669-2.401-1.888-1.978l-26.323 9.406c-1.796 0.651-1.769 1.585-0.305 2.009l6.73 1.954 15.632-9.129c0.736-0.455 1.404-0.203 0.854 0.252l-12.645 10.597z"></path>
</symbol>
<symbol id="icon-white-poin" viewBox="0 0 32 32">
<path d="M19.692 16c0 2.039-1.653 3.692-3.692 3.692s-3.692-1.653-3.692-3.692c0-2.039 1.653-3.692 3.692-3.692s3.692 1.653 3.692 3.692z"></path>
<path d="M7.385 16c0 2.039-1.653 3.692-3.692 3.692s-3.692-1.653-3.692-3.692c0-2.039 1.653-3.692 3.692-3.692s3.692 1.653 3.692 3.692z"></path>
<path d="M32 16c0 2.039-1.653 3.692-3.692 3.692s-3.692-1.653-3.692-3.692c0-2.039 1.653-3.692 3.692-3.692s3.692 1.653 3.692 3.692z"></path>
</symbol>
<symbol id="icon-burger-menu" viewBox="0 0 32 32">
<path d="M6.4 11.733v-2.133h19.2v2.133h-19.2zM6.4 17.067h19.2v-2.133h-19.2v2.133zM6.4 22.4h19.2v-2.133h-19.2v2.133z"></path>
</symbol>
</defs>
</svg>
