<svg aria-hidden="true" style="position: absolute; width: 0; height: 0; overflow: hidden;" version="1.1" xmlns="http://www.w3.org/2000/svg" xmlns:xlink="http://www.w3.org/1999/xlink">
<defs>
<symbol id="icon-close" viewBox="0 0 32 32">
<path d="M23.734 10.304l-1.504-1.504-5.963 5.962-5.962-5.962-1.504 1.504 5.962 5.962-5.962 5.963 1.504 1.504 5.962-5.963 5.963 5.963 1.504-1.504-5.963-5.963 5.963-5.962z"></path>
</symbol>
<symbol id="icon-facebook" viewBox="0 0 32 32">
<path d="M18.422 11.142h1.329v-2.313c-0.56-0.065-1.21-0.102-1.867-0.102-0.024 0-0.047 0-0.071 0h0.004c-1.915 0-3.226 1.204-3.226 3.418v2.036h-2.113v2.585h2.113v6.505h2.59v-6.505h2.028l0.321-2.585h-2.349v-1.782c0-0.747 0.201-1.258 1.243-1.258z"></path>
</symbol>
<symbol id="icon-instagram" viewBox="0 0 32 32">
<path d="M23.258 13.004c-0.033-0.773-0.159-1.304-0.337-1.764-0.193-0.505-0.479-0.936-0.841-1.29l-0.001-0.001c-0.354-0.36-0.784-0.645-1.263-0.83l-0.024-0.008c-0.463-0.179-0.991-0.304-1.764-0.337-0.778-0.037-1.025-0.046-3.001-0.046s-2.222 0.009-2.998 0.043c-0.773 0.033-1.304 0.159-1.764 0.338-0.505 0.193-0.936 0.479-1.29 0.84l-0.001 0.001c-0.36 0.354-0.645 0.784-0.83 1.263l-0.008 0.024c-0.18 0.463-0.304 0.991-0.338 1.764-0.037 0.778-0.046 1.025-0.046 3.001s0.009 2.222 0.043 2.998c0.034 0.773 0.159 1.304 0.338 1.764 0.194 0.505 0.48 0.935 0.84 1.29l0.001 0c0.364 0.369 0.804 0.656 1.287 0.838 0.463 0.18 0.992 0.305 1.764 0.338 0.776 0.034 1.023 0.043 2.998 0.043s2.222-0.009 2.998-0.043c0.773-0.033 1.304-0.159 1.764-0.337 0.981-0.386 1.742-1.148 2.12-2.104l0.009-0.025c0.179-0.463 0.304-0.992 0.338-1.764 0.034-0.776 0.042-1.023 0.042-2.998s-0.003-2.222-0.036-2.998zM21.949 18.943c-0.032 0.711-0.151 1.094-0.25 1.349-0.251 0.637-0.745 1.131-1.365 1.376l-0.016 0.006c-0.255 0.099-0.641 0.218-1.349 0.249-0.767 0.034-0.997 0.043-2.938 0.043s-2.174-0.009-2.938-0.043c-0.711-0.031-1.094-0.151-1.35-0.25-0.328-0.122-0.606-0.307-0.834-0.542l-0.001-0.001c-0.235-0.229-0.42-0.508-0.538-0.819l-0.005-0.016c-0.099-0.256-0.218-0.642-0.249-1.35-0.034-0.767-0.043-0.998-0.043-2.938s0.009-2.175 0.043-2.938c0.031-0.711 0.151-1.094 0.249-1.35 0.122-0.328 0.308-0.608 0.545-0.835l0.001-0.001c0.229-0.235 0.509-0.42 0.821-0.537l0.016-0.005c0.255-0.099 0.641-0.218 1.349-0.25 0.767-0.033 0.998-0.042 2.938-0.042 1.943 0 2.174 0.008 2.938 0.042 0.711 0.031 1.094 0.151 1.35 0.25 0.315 0.116 0.602 0.301 0.835 0.543 0.241 0.236 0.426 0.52 0.543 0.836 0.099 0.255 0.218 0.641 0.249 1.349 0.034 0.767 0.043 0.997 0.043 2.938s-0.009 2.167-0.043 2.935z"></path>
<path d="M16.027 12.265c-0 0-0 0-0.001 0-2.064 0-3.737 1.673-3.737 3.737s1.673 3.737 3.737 3.737c2.064 0 3.737-1.673 3.737-3.737 0-0 0-0 0-0.001v0c-0-2.064-1.673-3.736-3.737-3.737h-0zM16.027 18.425c-1.339-0-2.424-1.085-2.424-2.424s1.085-2.424 2.424-2.424c0 0 0 0 0 0h-0c1.339 0 2.424 1.085 2.424 2.424s-1.085 2.424-2.424 2.424v0zM20.784 12.117c0 0.482-0.391 0.873-0.873 0.873s-0.873-0.391-0.873-0.873v0c0-0.482 0.391-0.873 0.873-0.873s0.873 0.391 0.873 0.873v0z"></path>
</symbol>
<symbol id="icon-linkedin" viewBox="0 0 32 32">
<path d="M23.269 23.273h0.004v-5.335c0-2.609-0.561-4.62-3.612-4.62-1.467 0-2.451 0.804-2.853 1.567h-0.042v-1.324h-2.893v9.711h3.012v-4.808c0-1.266 0.24-2.491 1.808-2.491 1.545 0 1.568 1.445 1.568 2.572v4.728h3.009zM8.967 13.562h3.016v9.711h-3.016v-9.711zM10.474 8.727c-0.965 0-1.747 0.782-1.747 1.747v0c0 0.964 0.783 1.763 1.747 1.763s1.746-0.799 1.746-1.763c-0-0.964-0.782-1.746-1.746-1.747h-0z"></path>
</symbol>
<symbol id="icon-mail" viewBox="0 0 32 32">
<path fill="none" stroke="#9da4bd" style="stroke: var(--color1, #9da4bd)" stroke-linejoin="round" stroke-linecap="round" stroke-miterlimit="4" stroke-width="1.3333" d="M6.4 6.667h19.2c1.32 0 2.4 1.049 2.4 2.333v14c0 1.283-1.080 2.333-2.4 2.333h-19.2c-1.32 0-2.4-1.051-2.4-2.333v-14c0-1.284 1.080-2.333 2.4-2.333z"></path>
<path fill="none" stroke="#9da4bd" style="stroke: var(--color1, #9da4bd)" stroke-linejoin="round" stroke-linecap="round" stroke-miterlimit="4" stroke-width="1.3333" d="M26.667 9.333l-10.667 8-10.667-8"></path>
</symbol>
<symbol id="icon-map-pin" viewBox="0 0 32 32">
<path fill="none" stroke="#9da4bd" style="stroke: var(--color1, #9da4bd)" stroke-linejoin="round" stroke-linecap="round" stroke-miterlimit="4" stroke-width="1.3333" d="M26.667 13.819c0 7.635-10.667 14.181-10.667 14.181s-10.667-6.547-10.667-14.181c0-5.423 4.776-9.819 10.667-9.819s10.667 4.396 10.667 9.819v0z"></path>
<path fill="none" stroke="#9da4bd" style="stroke: var(--color1, #9da4bd)" stroke-linejoin="round" stroke-linecap="round" stroke-miterlimit="4" stroke-width="1.3333" d="M16 18.667c2.209 0 4-1.791 4-4s-1.791-4-4-4v0c-2.209 0-4 1.791-4 4s1.791 4 4 4v0z"></path>
</symbol>
<symbol id="icon-menu" viewBox="0 0 32 32">
<path d="M6.4 11.734v-2.134h19.2v2.134h-19.2zM6.4 17.066h19.2v-2.133h-19.2v2.133zM6.4 22.4h19.2v-2.134h-19.2v2.134z"></path>
</symbol>
<symbol id="icon-phone" viewBox="0 0 32 32">
<path fill="none" stroke="#9da4bd" style="stroke: var(--color1, #9da4bd)" stroke-linejoin="round" stroke-linecap="round" stroke-miterlimit="4" stroke-width="1.3333" d="M26.667 21.337v3.217c0 0.003 0 0.006 0 0.009 0 1.186-0.961 2.147-2.147 2.147-0.068 0-0.134-0.003-0.2-0.009l0.008 0.001c-3.481-0.388-6.626-1.563-9.338-3.343l0.081 0.050c-2.608-1.675-4.761-3.828-6.386-6.353l-0.050-0.083c-1.736-2.644-2.912-5.804-3.285-9.205l-0.008-0.095c-0.006-0.058-0.009-0.125-0.009-0.193 0-1.185 0.96-2.145 2.145-2.145h3.219c0.006-0 0.013-0 0.020-0 1.079 0 1.972 0.797 2.123 1.834l0.001 0.012c0.136 1.029 0.387 2.040 0.751 3.013 0.295 0.784 0.107 1.668-0.483 2.264l-1.363 1.361c1.555 2.7 3.736 4.881 6.353 6.392l0.083 0.044 1.363-1.361c0.388-0.383 0.92-0.619 1.509-0.619 0.271 0 0.53 0.050 0.769 0.142l-0.015-0.005c0.973 0.363 1.984 0.613 3.013 0.751 1.050 0.151 1.847 1.045 1.847 2.125 0 0.019-0 0.037-0.001 0.056l0-0.003z"></path>
</symbol>
<symbol id="icon-twitter" viewBox="0 0 32 32">
<path d="M23.273 11.49c-0.5 0.224-1.080 0.39-1.688 0.467l-0.031 0.003c0.618-0.371 1.083-0.945 1.306-1.627l0.006-0.021c-0.544 0.328-1.178 0.579-1.853 0.715l-0.038 0.006c-0.545-0.582-1.319-0.945-2.177-0.945-1.646 0-2.981 1.335-2.981 2.981 0 0.001 0 0.002 0 0.003v-0c0 0.236 0.020 0.464 0.070 0.68-2.479-0.121-4.673-1.309-6.147-3.119-0.256 0.432-0.407 0.952-0.407 1.508v0c0 1.033 0.531 1.948 1.324 2.478-0.496-0.014-0.958-0.148-1.362-0.375l0.015 0.008v0.033c0.001 1.439 1.017 2.64 2.37 2.927l0.020 0.003c-0.227 0.062-0.487 0.098-0.756 0.098-0.009 0-0.018-0-0.028-0h0.001c-0.014 0-0.030 0-0.047 0-0.183 0-0.362-0.019-0.534-0.054l0.017 0.003c0.386 1.181 1.483 2.049 2.786 2.078-1.006 0.793-2.292 1.271-3.69 1.271-0.003 0-0.005 0-0.008 0h0c-0.012 0-0.026 0-0.039 0-0.238 0-0.472-0.015-0.701-0.044l0.027 0.003c1.285 0.839 2.858 1.338 4.547 1.338 0.010 0 0.019-0 0.029-0h-0.002c5.487 0 8.487-4.545 8.487-8.486 0-0.131-0.004-0.259-0.011-0.385 0.59-0.425 1.087-0.938 1.481-1.526l0.014-0.021z"></path>
</symbol>
<symbol id="icon-plus" viewBox="0 0 32 32">
<path d="M13.472 17.972h-11.056v-4.944h11.056v-11.333h5v11.333h11.083v4.944h-11.083v11.278h-5v-11.278z"></path>
</symbol>
<symbol id="logo-barbershop" viewBox="0 0 39 32">
<path d="M22.371 9.64l-0.749-0.571c-0.117-0.095-0.267-0.139-0.416-0.124s-0.288 0.088-0.384 0.204l-10.36 11.897 0.16 0.177 2.566-2.366c-0.085-0.034-0.156-0.098-0.2-0.179s-0.058-0.175-0.039-0.265c0.018-0.090 0.068-0.171 0.14-0.229s0.162-0.088 0.254-0.087c0.083 0 0.164 0.027 0.231 0.076s0.116 0.119 0.141 0.198l3.383-3.137c0.052-0.042 0.116-0.064 0.183-0.064s0.131 0.023 0.183 0.064l0.171 0.126c0.058 0.042 0.129 0.060 0.2 0.052s0.136-0.043 0.183-0.097l4.423-4.96c0.047-0.049 0.083-0.108 0.105-0.172s0.030-0.133 0.024-0.2c-0.006-0.068-0.027-0.133-0.062-0.192s-0.080-0.11-0.136-0.149z"></path>
<path d="M27.24 12.989c-2.267 1.613-4.807 2.804-7.497 3.514-2.67 0.679-5.402 1.085-8.154 1.211 0.055 0.406 0.155 0.804 0.297 1.189 1.554 1.406 13.257-0.994 15.543-3.771 0.486-0.577-0.189-2.143-0.189-2.143zM13.343 18.857c-0.077 0-0.152-0.023-0.216-0.066s-0.114-0.103-0.143-0.174-0.037-0.149-0.022-0.224c0.015-0.075 0.052-0.145 0.106-0.199s0.124-0.091 0.199-0.106c0.075-0.015 0.153-0.007 0.225 0.022s0.132 0.079 0.174 0.143 0.066 0.139 0.066 0.216c0.001 0.051-0.009 0.102-0.028 0.15s-0.048 0.091-0.084 0.127c-0.036 0.036-0.079 0.065-0.127 0.084s-0.098 0.029-0.15 0.028z"></path>
<path d="M2.286 12.166l0.091-0.394 1.486 0.337c0.123 0.226 0.198 0.475 0.223 0.731 0.028 0.271 0.011 0.546-0.051 0.811-0.074 0.369-0.243 0.712-0.491 0.994-0.236 0.267-0.54 0.464-0.88 0.571-0.35 0.108-0.723 0.122-1.080 0.040-0.358-0.077-0.688-0.251-0.954-0.503-0.262-0.242-0.45-0.553-0.543-0.897-0.103-0.374-0.103-0.769 0-1.143 0.061-0.28 0.172-0.547 0.326-0.789 0.146-0.22 0.342-0.402 0.571-0.531l0.206 0.314c-0.197 0.121-0.366 0.282-0.496 0.473s-0.218 0.408-0.258 0.635c-0.071 0.296-0.065 0.604 0.017 0.897 0.077 0.278 0.229 0.529 0.44 0.726 0.217 0.21 0.488 0.354 0.783 0.417 0.286 0.080 0.588 0.080 0.874 0 0.274-0.090 0.52-0.25 0.714-0.463 0.2-0.23 0.337-0.507 0.4-0.806 0.094-0.362 0.070-0.744-0.069-1.091l-1.309-0.331z"></path>
<path d="M5.52 8.571l-1.331 1.777 0.571 1.023-0.263 0.354-2.114-3.857 0.246-0.337 4.303 0.926-0.269 0.354-1.143-0.24zM5.143 8.48l-2.286-0.514 1.143 2.051 1.143-1.537z"></path>
<path d="M5.143 4.886l0.343-0.257 2.177 2.914 1.794-1.343 0.217 0.291-2.131 1.594-2.4-3.2z"></path>
<path d="M8.743 2.503l0.383-0.171 1.509 3.303 2.040-0.926 0.149 0.331-2.423 1.103-1.657-3.64z"></path>
<path d="M16.274 3.817l0.086 0.36-2.754 0.646-0.914-3.897 2.674-0.623 0.080 0.354-2.286 0.531 0.326 1.383 2.011-0.474 0.086 0.354-2.017 0.469 0.343 1.446 2.366-0.549z"></path>
<path d="M20.2 3.96l-0.954-1.257c-0.107 0.006-0.213 0.006-0.32 0l-1.074 0.034 0.040 1.269h-0.423l-0.131-4 1.52-0.006c0.43-0.040 0.86 0.076 1.211 0.326 0.148 0.119 0.268 0.271 0.349 0.443s0.122 0.361 0.12 0.551c0.017 0.282-0.057 0.563-0.211 0.8-0.164 0.228-0.396 0.398-0.663 0.486l1 1.337-0.463 0.017zM19.8 2.080c0.103-0.094 0.182-0.211 0.233-0.34s0.070-0.269 0.058-0.408c0.003-0.139-0.026-0.278-0.084-0.405s-0.145-0.238-0.253-0.327c-0.263-0.179-0.58-0.261-0.897-0.234l-1.086 0.040 0.069 2 1.063-0.034c0.324 0.012 0.642-0.091 0.897-0.291z"></path>
<path d="M23.223 2.897l-0.206 1.366-0.417-0.063 0.211-1.343-1.183-2.857 0.446 0.069 1.011 2.434 1.714-2.017 0.4 0.086-1.977 2.326z"></path>
<path d="M28.874 2.657l0.497 0.646-0.217 0.171-0.497-0.663-0.314 0.749-0.24-0.103 0.32-0.749-0.823 0.109v-0.274l0.811-0.091-0.503-0.646 0.223-0.171 0.44 0.651 0.309-0.754 0.246 0.103-0.291 0.766 0.823-0.114v0.28l-0.783 0.091z"></path>
<path d="M30.783 7.263c-0.135-0.208-0.219-0.445-0.246-0.691l0.337-0.149c0.025 0.226 0.099 0.445 0.217 0.64 0.128 0.219 0.294 0.412 0.491 0.571 0.204 0.195 0.464 0.321 0.743 0.36 0.101 0.009 0.203-0.006 0.296-0.045s0.176-0.1 0.241-0.178c0.047-0.052 0.084-0.114 0.106-0.181s0.031-0.138 0.025-0.208c-0.019-0.139-0.066-0.273-0.137-0.394-0.107-0.175-0.224-0.345-0.349-0.509-0.152-0.199-0.29-0.409-0.411-0.629-0.093-0.164-0.144-0.349-0.149-0.537-0-0.212 0.079-0.416 0.223-0.571 0.124-0.151 0.289-0.264 0.474-0.326 0.207-0.060 0.427-0.060 0.634 0 0.267 0.087 0.514 0.227 0.726 0.411 0.176 0.146 0.332 0.315 0.463 0.503 0.121 0.174 0.212 0.367 0.269 0.571l-0.326 0.171c-0.057-0.19-0.142-0.372-0.251-0.537-0.109-0.148-0.238-0.281-0.383-0.394-0.201-0.194-0.46-0.317-0.737-0.349-0.102-0.009-0.204 0.008-0.298 0.049s-0.176 0.104-0.239 0.185c-0.049 0.051-0.086 0.113-0.108 0.18s-0.031 0.138-0.023 0.209c0.013 0.144 0.060 0.283 0.137 0.406 0.080 0.131 0.194 0.303 0.349 0.509 0.153 0.195 0.291 0.401 0.411 0.617 0.095 0.164 0.148 0.348 0.154 0.537 0 0.212-0.079 0.416-0.223 0.571-0.125 0.153-0.292 0.266-0.48 0.326-0.207 0.062-0.428 0.062-0.634 0-0.269-0.087-0.517-0.227-0.731-0.411-0.231-0.201-0.424-0.441-0.571-0.709z"></path>
<path d="M36.531 8.097l-0.806-1.143 0.297-0.211 1.857 2.651-0.297 0.211-0.806-1.143-2.983 2.086-0.24-0.349 2.977-2.103z"></path>
<path d="M35.251 12.794c0.102-0.345 0.3-0.655 0.571-0.891 0.265-0.238 0.589-0.401 0.937-0.474 0.355-0.082 0.726-0.068 1.074 0.040 0.336 0.111 0.638 0.308 0.874 0.571 0.246 0.283 0.414 0.626 0.486 0.994 0.095 0.361 0.095 0.741 0 1.103-0.105 0.344-0.303 0.652-0.571 0.891-0.273 0.244-0.604 0.413-0.961 0.491s-0.729 0.062-1.079-0.046c-0.339-0.106-0.642-0.304-0.874-0.571-0.245-0.282-0.412-0.622-0.486-0.989-0.087-0.37-0.078-0.755 0.029-1.12zM36 14.611c0.191 0.217 0.438 0.377 0.714 0.463 0.285 0.083 0.586 0.092 0.875 0.028s0.558-0.199 0.782-0.394c0.211-0.194 0.367-0.441 0.451-0.714 0.080-0.289 0.087-0.593 0.023-0.886s-0.2-0.565-0.394-0.794c-0.199-0.218-0.454-0.378-0.737-0.463-0.288-0.077-0.592-0.077-0.88 0-0.291 0.056-0.56 0.192-0.777 0.394-0.213 0.195-0.369 0.444-0.451 0.72-0.078 0.29-0.078 0.596 0 0.886 0.063 0.284 0.199 0.546 0.394 0.76z"></path>
<path d="M34.817 19.428l1.48-0.571c0-0.103 0.034-0.206 0.063-0.314l0.28-1.034-1.211-0.314 0.109-0.406 3.863 1.034-0.389 1.446c-0.088 0.422-0.323 0.799-0.663 1.063-0.156 0.109-0.336 0.18-0.524 0.207s-0.381 0.012-0.562-0.047c-0.276-0.060-0.523-0.212-0.7-0.431s-0.275-0.492-0.277-0.775l-1.577 0.571 0.109-0.429zM36.731 19.588c0.067 0.121 0.158 0.228 0.267 0.314s0.235 0.148 0.368 0.184c0.134 0.036 0.274 0.044 0.411 0.024s0.269-0.067 0.388-0.139c0.252-0.203 0.424-0.488 0.486-0.806l0.274-1.029-1.937-0.52-0.274 1.029c-0.105 0.306-0.099 0.64 0.017 0.943z"></path>
<path d="M32.766 23.109l-0.291-0.223 1.714-2.257 3.189 2.417-1.657 2.189-0.291-0.223 1.4-1.846-1.143-0.863-1.251 1.651-0.286-0.217 1.28-1.651-1.183-0.897-1.48 1.92z"></path>
<path d="M31.429 27.663l-0.817 0.046v-0.274l0.817-0.006-0.44-0.68 0.223-0.143 0.434 0.686 0.354-0.766 0.246 0.131-0.389 0.72 0.817-0.046v0.28h-0.829l0.44 0.68-0.223 0.143-0.434-0.686-0.377 0.743-0.24-0.137 0.417-0.691z"></path>
<path d="M24 27.206l0.691 0.383c0.116-0.223 0.278-0.418 0.475-0.574s0.425-0.268 0.668-0.329c0.227-0.071 0.466-0.096 0.703-0.074 0.206 0.016 0.403 0.087 0.571 0.206 0.152 0.115 0.264 0.275 0.32 0.457 0.069 0.226 0.057 0.468-0.034 0.686-0.143 0.296-0.337 0.564-0.571 0.794 0.188 0.101 0.363 0.226 0.52 0.371 0.108 0.111 0.188 0.246 0.234 0.394 0.029 0.115 0.031 0.236 0.005 0.352s-0.078 0.224-0.154 0.317c-0.153 0.22-0.38 0.376-0.64 0.44-0.228 0.087-0.48 0.087-0.709 0-0.102-0.044-0.191-0.11-0.263-0.194s-0.122-0.184-0.149-0.291c-0.060-0.189-0.046-0.393 0.040-0.571 0.131-0.26 0.303-0.497 0.509-0.703l-1.377-0.766c-0.053 0.269-0.064 0.545-0.034 0.817h-0.349c-0.023-0.336 0.015-0.673 0.114-0.994l-0.72-0.4 0.149-0.32zM24.994 27.777l1.514 0.84c0.198-0.189 0.363-0.412 0.486-0.657 0.063-0.166 0.063-0.349 0-0.514-0.026-0.099-0.076-0.19-0.146-0.265s-0.157-0.131-0.254-0.164c-0.237-0.080-0.494-0.080-0.731 0-0.194 0.051-0.374 0.144-0.528 0.273s-0.278 0.289-0.363 0.47l0.023 0.017zM27.143 30.063c0.037-0.063 0.061-0.134 0.069-0.206s0-0.147-0.023-0.216c-0.035-0.113-0.098-0.215-0.183-0.297-0.145-0.123-0.305-0.228-0.474-0.314-0.173 0.171-0.325 0.363-0.451 0.571-0.069 0.13-0.085 0.281-0.046 0.423 0.018 0.065 0.050 0.126 0.093 0.178s0.097 0.095 0.158 0.124c0.145 0.055 0.306 0.055 0.451 0 0.155-0.041 0.291-0.137 0.383-0.269l0.023 0.006z"></path>
<path d="M17.034 31.611l0.080-4h0.406l-0.063 3.2 1.623-2.663h0.2l1.52 2.709 0.057-3.183h0.406l-0.074 4h-0.349l-1.68-2.989-1.777 2.931-0.349-0.006z"></path>
<path d="M15.046 27.429c0.261 0.249 0.448 0.566 0.54 0.915s0.085 0.717-0.020 1.062c-0.094 0.354-0.281 0.675-0.543 0.931-0.254 0.25-0.573 0.424-0.92 0.503-0.366 0.083-0.748 0.071-1.109-0.034-0.359-0.088-0.69-0.267-0.96-0.52-0.257-0.246-0.441-0.558-0.531-0.903-0.088-0.356-0.081-0.729 0.019-1.082s0.291-0.673 0.553-0.93c0.25-0.249 0.561-0.427 0.903-0.514 0.365-0.082 0.744-0.071 1.103 0.034 0.363 0.092 0.696 0.277 0.966 0.537zM13.097 27.229c-0.28 0.065-0.535 0.208-0.737 0.411-0.21 0.21-0.361 0.472-0.434 0.76-0.080 0.286-0.080 0.588 0 0.874 0.067 0.278 0.212 0.532 0.417 0.731 0.215 0.21 0.481 0.362 0.771 0.44 0.291 0.074 0.595 0.074 0.886 0 0.28-0.069 0.536-0.211 0.743-0.411 0.209-0.21 0.359-0.473 0.434-0.76 0.080-0.288 0.080-0.592 0-0.88-0.073-0.277-0.219-0.53-0.423-0.731-0.216-0.211-0.484-0.36-0.777-0.434-0.288-0.080-0.592-0.080-0.88 0z"></path>
<path d="M8.771 24.571l0.154 1.571c0.098 0.042 0.193 0.090 0.286 0.143l0.931 0.537 0.629-1.109 0.371 0.211-2 3.446-1.303-0.749c-0.385-0.193-0.689-0.517-0.857-0.914-0.062-0.179-0.083-0.369-0.061-0.557s0.086-0.369 0.187-0.529c0.133-0.25 0.343-0.451 0.6-0.571 0.261-0.108 0.549-0.13 0.823-0.063l-0.166-1.68 0.406 0.263zM8.12 26.377c-0.134 0.034-0.26 0.094-0.371 0.178s-0.203 0.188-0.271 0.308c-0.069 0.12-0.113 0.253-0.129 0.39s-0.005 0.277 0.034 0.41c0.134 0.296 0.366 0.536 0.657 0.68l0.92 0.531 1-1.714-0.92-0.531c-0.264-0.198-0.59-0.297-0.92-0.28v0.029z"></path>
<path d="M5.389 21.892l0.257-0.257 1.971 2.029-2.857 2.789-1.903-1.966 0.263-0.257 1.617 1.663 0.977-0.989-1.417-1.474 0.274-0.263 1.446 1.486 1.063-1.034-1.691-1.726z"></path>
<path d="M1.143 19.646l0.137-0.789 0.269 0.040-0.154 0.811 0.76-0.28 0.091 0.251-0.771 0.263 0.634 0.537-0.183 0.206-0.611-0.571-0.143 0.811-0.274-0.051 0.16-0.811-0.766 0.274-0.086-0.223 0.766-0.269-0.634-0.531 0.189-0.206 0.617 0.537z"></path>
</symbol>
</defs>
</svg>
