<svg aria-hidden="true" style="position:absolute;width:0;height:0" xmlns="http://www.w3.org/2000/svg" overflow="hidden">
    <defs>
        <symbol id="icon-home" viewBox="0 0 35 32">
            <path fill="var(--color4, #d31342)" d="M32.64 15.401a1.541 1.541 0 00-.129-2.225L17.739.426c-.671-.578-1.745-.566-2.402.027L.515 13.856a1.532 1.532 0 00-.071 2.222l.372.382c.617.633 1.613.708 2.224.168l1.108-.979v14.326c0 .879.722 1.591 1.612 1.591h5.778c.89 0 1.612-.712 1.612-1.591V19.952h7.37v10.023c-.013.878.624 1.59 1.515 1.59h6.123c.89 0 1.613-.711 1.613-1.59V15.851l.683.592c.377.328 1.168.065 1.767-.586l.42-.455z"/>
        </symbol>
        <symbol id="icon-burger" viewBox="0 0 46 32">
            <path fill="none" stroke="var(--color1, #d41443)" stroke-width="2.286" d="M0 2.286h45.714M0 16h45.714M0 29.714h45.714"/>
        </symbol>
        <symbol id="icon-ellipsis" viewBox="0 0 139 32">
            <path fill="var(--color2, #fff)" d="M85.333 16c0 8.837-7.163 16-16 16s-16-7.163-16-16 7.163-16 16-16 16 7.163 16 16zM32 16c0 8.837-7.163 16-16 16S0 24.837 0 16 7.163 0 16 0s16 7.163 16 16zM138.667 16c0 8.837-7.163 16-16 16s-16-7.163-16-16 7.163-16 16-16 16 7.163 16 16z"/>
        </symbol>
        <symbol id="icon-ellipsis-reviews" viewBox="0 0 256 32">
            <path fill="var(--color3, #c7133e)" d="M144 16c0 8.837-7.163 16-16 16s-16-7.163-16-16 7.163-16 16-16 16 7.163 16 16zM32 16c0 8.837-7.163 16-16 16S0 24.837 0 16 7.163 0 16 0s16 7.163 16 16zM256 16c0 8.837-7.163 16-16 16s-16-7.163-16-16 7.163-16 16-16 16 7.163 16 16z"/>
        </symbol>
        <symbol id="icon-facebook" viewBox="0 0 32 32">
            <path d="M21.329 5.313h2.921V.225C23.746.156 22.013 0 19.994 0c-4.212 0-7.097 2.649-7.097 7.519V12H8.249v5.688h4.648V32h5.699V17.689h4.46l.708-5.688h-5.169V8.082c.001-1.644.444-2.769 2.735-2.769z"/>
        </symbol>
        <symbol id="icon-github" viewBox="0 0 20 20">
            
        <path d="M10 0C4.50745 0 0 4.50745 0 10C0 14.687 3.28888 18.9447 7.65625 20V16.6916C7.22351 16.7863 6.82526 16.7891 6.38474 16.6592C5.79376 16.4848 5.31357 16.0912 4.95712 15.4909C4.72992 15.1076 4.32724 14.6919 3.90717 14.7224L3.80417 13.5551C4.71252 13.4773 5.49835 14.1086 5.96481 14.8923C6.17203 15.2408 6.41052 15.4451 6.71661 15.5354C7.01248 15.6226 7.33017 15.5807 7.70035 15.45C7.79327 14.7089 8.13278 14.4315 8.38928 14.0408V14.0402C5.78461 13.6517 4.74655 12.2699 4.33456 11.1792C3.7886 9.73099 4.08157 7.92175 5.047 6.77841C5.06577 6.75613 5.09964 6.69785 5.08652 6.6571C4.64386 5.31998 5.18326 4.21387 5.20309 4.09653C5.71396 4.24759 5.79697 3.94455 7.42218 4.93195L7.70309 5.10071C7.82059 5.17075 7.78366 5.13077 7.90115 5.12192C8.57971 4.93759 9.29504 4.83582 9.99985 4.82666C10.71 4.83582 11.4207 4.93759 12.1274 5.12939L12.2183 5.13855C12.2104 5.13733 12.243 5.13275 12.2978 5.1001C14.328 3.87039 14.2551 4.27231 14.7995 4.09531C14.8192 4.2128 15.3514 5.33691 14.9135 6.6571C14.8544 6.83899 16.6736 8.50479 15.6653 11.1787C15.2533 12.2699 14.2154 13.6517 11.6107 14.0402V14.0408C11.9446 14.5497 12.3457 14.8204 12.3436 15.8702V20C16.7111 18.9447 19.9998 14.687 19.9998 10C20 4.50745 15.4926 0 10 0V0Z" fill="white"/>
 
        </symbol>
        <symbol id="icon-close" viewBox="0 0 32 32">
            <path fill="none" stroke="var(--color2, #fff)" stroke-width="2" d="M2.519 2l26.963 28M2 29.481L30 2.518"/>
        </symbol>
        <symbol id="icon-quotes" viewBox="0 0 43 32">
            <path fill="var(--color5, #e1e1e1)" d="M32.014 0c1.929 0 3.75.52 5.464 1.561s3.107 2.537 4.179 4.488C42.686 8 43.2 10.298 43.2 12.943s-.643 5.225-1.929 7.74c-.429.911-1.2 2.081-2.314 3.512a63.368 63.368 0 01-3.214 3.707L31.693 32 28.8 27.187a22.03 22.03 0 005.336-4.683c1.543-1.821 2.314-3.491 2.314-5.008 0-.78-.171-1.409-.514-1.886a8.359 8.359 0 01-5.014 1.626c-1.329 0-2.593-.412-3.793-1.236a8.555 8.555 0 01-2.957-3.122c-.771-1.258-1.157-2.558-1.157-3.902 0-1.518.45-2.97 1.35-4.358a10.222 10.222 0 013.407-3.382C29.143.412 30.558 0 32.015 0zM8.936 0c1.929 0 3.75.52 5.464 1.561s3.107 2.537 4.179 4.488c1.029 1.951 1.543 4.249 1.543 6.894 0 1.864-.236 3.534-.707 5.008-.471 1.518-1.286 3.1-2.443 4.748-1.114 1.561-2.164 2.862-3.15 3.902-.986 1.084-2.7 2.884-5.143 5.398l-2.893-4.813a22.03 22.03 0 005.336-4.683c1.543-1.821 2.314-3.491 2.314-5.008 0-.78-.171-1.409-.514-1.886a8.359 8.359 0 01-5.014 1.626c-1.329 0-2.593-.412-3.793-1.236a8.555 8.555 0 01-2.957-3.122C.387 11.619.001 10.319.001 8.975c0-1.518.429-2.97 1.286-4.358S3.28 2.102 4.694 1.235C6.065.411 7.48-.001 8.937-.001z"/>
        </symbol>
        <symbol id="icon-telegram" viewBox="0 0 20 16">
            <path d="M8.67145 10.5238L8.33399 14.9538C8.8168 14.9538 9.02591 14.7602 9.27666 14.5278L11.5403 12.5088L16.2307 15.7146C17.0909 16.162 17.697 15.9264 17.929 14.976L21.0078 1.51162L21.0086 1.51083C21.2815 0.324011 20.5488 -0.140087 19.7107 0.151065L1.61373 6.61749C0.378651 7.06493 0.397351 7.70753 1.40378 7.99868L6.03044 9.34178L16.7772 3.06576C17.283 2.75319 17.7429 2.92613 17.3646 3.2387L8.67145 10.5238Z" fill="white"/>
        <symbol id="icon-vector" viewBox="0 0 6 10" fill="none">
            <path d="M1 1l4 4-4 4" stroke-width="2" stroke-linecap="round" stroke-linejoin="round"/>
        </symbol>
        <symbol id="icon-untitled" viewBox="0 0 43 32">
            <path fill="var(--color1, #e1e1e1)" d="M32.014 0c1.929 0 3.75.52 5.464 1.561s3.107 2.537 4.179 4.488C42.686 8 43.2 10.298 43.2 12.943s-.643 5.225-1.929 7.74c-.429.911-1.2 2.081-2.314 3.512a63.368 63.368 0 01-3.214 3.707L31.693 32 28.8 27.187a22.03 22.03 0 005.336-4.683c1.543-1.821 2.314-3.491 2.314-5.008 0-.78-.171-1.409-.514-1.886a8.359 8.359 0 01-5.014 1.626c-1.329 0-2.593-.412-3.793-1.236a8.555 8.555 0 01-2.957-3.122c-.771-1.258-1.157-2.558-1.157-3.902 0-1.518.45-2.97 1.35-4.358a10.222 10.222 0 013.407-3.382C29.143.412 30.558 0 32.015 0zM8.936 0c1.929 0 3.75.52 5.464 1.561s3.107 2.537 4.179 4.488c1.029 1.951 1.543 4.249 1.543 6.894 0 1.864-.236 3.534-.707 5.008-.471 1.518-1.286 3.1-2.443 4.748-1.114 1.561-2.164 2.862-3.15 3.902-.986 1.084-2.7 2.884-5.143 5.398l-2.893-4.813a22.03 22.03 0 005.336-4.683c1.543-1.821 2.314-3.491 2.314-5.008 0-.78-.171-1.409-.514-1.886a8.359 8.359 0 01-5.014 1.626c-1.329 0-2.593-.412-3.793-1.236a8.555 8.555 0 01-2.957-3.122C.387 11.619.001 10.319.001 8.975c0-1.518.429-2.97 1.286-4.358S3.28 2.102 4.694 1.235C6.065.411 7.48-.001 8.937-.001z"/>
        </symbol>
        <symbol id="icon-group-36" viewBox="0 0 26 32">
            <path fill="var(--color1, #e1e1e1)" d="M32.014 0c1.929 0 3.75.52 5.464 1.561s3.107 2.537 4.179 4.488C42.686 8 43.2 10.298 43.2 12.943s-.643 5.225-1.929 7.74c-.429.911-1.2 2.081-2.314 3.512a63.368 63.368 0 01-3.214 3.707L31.693 32 28.8 27.187a22.03 22.03 0 005.336-4.683c1.543-1.821 2.314-3.491 2.314-5.008 0-.78-.171-1.409-.514-1.886a8.359 8.359 0 01-5.014 1.626c-1.329 0-2.593-.412-3.793-1.236a8.555 8.555 0 01-2.957-3.122c-.771-1.258-1.157-2.558-1.157-3.902 0-1.518.45-2.97 1.35-4.358a10.222 10.222 0 013.407-3.382C29.143.412 30.558 0 32.015 0zM8.936 0c1.929 0 3.75.52 5.464 1.561s3.107 2.537 4.179 4.488c1.029 1.951 1.543 4.249 1.543 6.894 0 1.864-.236 3.534-.707 5.008-.471 1.518-1.286 3.1-2.443 4.748-1.114 1.561-2.164 2.862-3.15 3.902-.986 1.084-2.7 2.884-5.143 5.398l-2.893-4.813a22.03 22.03 0 005.336-4.683c1.543-1.821 2.314-3.491 2.314-5.008 0-.78-.171-1.409-.514-1.886a8.359 8.359 0 01-5.014 1.626c-1.329 0-2.593-.412-3.793-1.236a8.555 8.555 0 01-2.957-3.122C.387 11.619.001 10.319.001 8.975c0-1.518.429-2.97 1.286-4.358S3.28 2.102 4.694 1.235C6.065.411 7.48-.001 8.937-.001z"/>
        </symbol>
        <symbol id="icon-arrow-right" viewBox="0 0 32 32">
            <path d="M15.057 7.609l7.057 7.057H6.666a1.333 1.333 0 000 2.666h15.448l-7.057 7.057a1.333 1.333 0 001.886 1.886l9.333-9.333c.239-.242.387-.575.387-.943s-.148-.701-.387-.943l-9.333-9.333a1.333 1.333 0 00-1.886 1.886z"/>
        </symbol>
        <symbol id="icon-arrow-right2" viewBox="0 0 32 32">
            <path d="M19.414 27.414l10-10c.362-.362.586-.862.586-1.414s-.224-1.052-.586-1.414l-10-10a2 2 0 10-2.829 2.827l.001.001L23.172 14H4a2 2 0 100 4h19.172l-6.586 6.586c-.39.39-.586.902-.586 1.414s.195 1.024.586 1.414c.362.362.862.586 1.414.586s1.052-.224 1.414-.586z"/>
        </symbol>
        <symbol id="icon-further" viewBox="0 0 19 32">
            <path fill="none" stroke="var(--color2, #d41443)" stroke-linejoin="round" stroke-linecap="round" stroke-width="6.4" d="M3.2 3.2L16 16 3.2 28.8"/>
        </symbol>
        <symbol id="ellipse" viewBox="0 0 284 344">
             <ellipse cx="173" cy="172" rx="173" ry="172" fill="#FFA5BA"/>
        </symbol>
        <symbol id="icon-modal-close" viewBox="0 0 32 32">
        <path  d="M 32 3.222656 L 28.777344 0 L 16 12.777344 L 3.222656 0 L 0 3.222656 L 12.777344 16 L 0 28.777344 L 3.222656 32 L 16 19.222656 L 28.777344 32 L 32 28.777344 L 19.222656 16 Z M 32 3.222656 "/>
        </symbol>
        <symbol id="icon-contact-us-name" viewBox="0 0 12 12">
        <path d="M6 6C7.6575 6 9 4.6575 9 3C9 1.3425 7.6575 0 6 0C4.3425 0 3 1.3425 3 3C3 4.6575 4.3425 6 6 6ZM6 7.5C3.9975 7.5 0 8.505 0 10.5V11.25C0 11.6625 0.3375 12 0.75 12H11.25C11.6625 12 12 11.6625 12 11.25V10.5C12 8.505 8.0025 7.5 6 7.5Z" />
        </symbol>
        <symbol id="icon-contact-us-phone" viewBox="0 0 14 14">
        <path d="M11.996 9.12256L10.1579 8.91269C9.71641 8.86203 9.2822 9.01401 8.97102 9.32519L7.63945 10.6568C5.59144 9.61466 3.91251 7.94296 2.87041 5.8877L4.20922 4.54888C4.5204 4.2377 4.67237 3.80349 4.62171 3.36205L4.41185 1.53836C4.325 0.807445 3.70988 0.257446 2.97173 0.257446H1.71976C0.902004 0.257446 0.221746 0.937708 0.272403 1.75547C0.655953 7.93572 5.59868 12.8712 11.7717 13.2548C12.5894 13.3054 13.2697 12.6252 13.2697 11.8074V10.5555C13.2769 9.82453 12.7269 9.2094 11.996 9.12256Z" />
        </symbol>
        <symbol id="icon-contact-us-email" viewBox="0 0 16 12">
        <path d="M14 0H2C1.175 0 0.5075 0.675 0.5075 1.5L0.5 10.5C0.5 11.325 1.175 12 2 12H14C14.825 12 15.5 11.325 15.5 10.5V1.5C15.5 0.675 14.825 0 14 0ZM13.7 3.1875L8.3975 6.5025C8.1575 6.6525 7.8425 6.6525 7.6025 6.5025L2.3 3.1875C2.1125 3.0675 2 2.865 2 2.6475C2 2.145 2.5475 1.845 2.975 2.1075L8 5.25L13.025 2.1075C13.4525 1.845 14 2.145 14 2.6475C14 2.865 13.8875 3.0675 13.7 3.1875Z" />
        </symbol>
        <symbol id="icon-Ellipsis" viewBox="0 0 139 32">
        <path d="M85.333 16c0 8.837-7.163 16-16 16s-16-7.163-16-16c0-8.837 7.163-16 16-16s16 7.163 16 16z"></path>
        <path d="M32 16c0 8.837-7.163 16-16 16s-16-7.163-16-16c0-8.837 7.163-16 16-16s16 7.163 16 16z"></path>
        <path d="M138.667 16c0 8.837-7.163 16-16 16s-16-7.163-16-16c0-8.837 7.163-16 16-16s16 7.163 16 16z"></path>
        </symbol>
    </defs>
</svg>

