<svg aria-hidden="true" style="position:absolute;width:0;height:0" xmlns="http://www.w3.org/2000/svg" overflow="hidden"><defs>
<symbol id="guar-vert-line" viewBox="0 0 2 32"><path fill="none" stroke="var(--color1)" stroke-width=".8" d="M.8 0v32"/></symbol>
<symbol id="vk" viewBox="0 0 32 32"><path fill="var(--color2)" d="M27.541 18.46c1.061 1.036 2.182 2.011 3.134 3.152.421.507.819 1.03 1.123 1.619.432.836.041 1.757-.709 1.807l-4.662-.002c-1.202.1-2.162-.384-2.968-1.206-.645-.657-1.243-1.357-1.864-2.037-.255-.278-.521-.539-.839-.746-.636-.413-1.189-.287-1.552.377-.37.675-.454 1.423-.491 2.175-.05 1.098-.382 1.386-1.484 1.437-2.357.111-4.593-.245-6.671-1.434-1.832-1.048-3.252-2.528-4.489-4.203-2.407-3.261-4.25-6.845-5.907-10.53-.373-.83-.1-1.276.816-1.291 1.521-.03 3.041-.027 4.564-.002.618.009 1.027.364 1.266.947.823 2.023 1.83 3.948 3.093 5.732.337.475.68.95 1.168 1.284.541.37.952.248 1.207-.355.161-.382.232-.793.268-1.202.121-1.407.136-2.812-.075-4.214-.13-.875-.623-1.442-1.496-1.607-.446-.084-.379-.25-.164-.505.375-.439.727-.712 1.43-.712h5.269c.829.164 1.014.536 1.127 1.371l.004 5.852c-.009.323.161 1.282.743 1.496.466.152.773-.22 1.052-.516 1.261-1.339 2.162-2.921 2.966-4.559.357-.72.664-1.469.961-2.216.22-.555.566-.828 1.191-.816l5.071.005c.15 0 .302.002.448.027.855.146 1.089.513.825 1.348-.416 1.309-1.225 2.4-2.016 3.496-.846 1.17-1.75 2.3-2.589 3.477-.77 1.075-.709 1.617.248 2.55z"/></symbol><symbol id="hero-1-tabl" viewBox="0 0 31 32"><path fill="var(--color3)" d="M7.046 26.006h17.006c.084-1.939-.055-5.157-1.247-6.689l-.043-.055-2.606-1.308c.057-.191.084-.366.096-.494a.892.892 0 00-.064-.43c-.43-1.029-1.339-1.57-1.84-1.8.152-.307.251-.637.298-.974a.837.837 0 00.586-.604l.304-1.236a.834.834 0 00-.283-.848c.857-1.948-.579-3.784-.657-3.881-1.555-1.682-3.52-1.367-3.624-1.349-2.836.594-3.93 2.767-3.312 5.316a.836.836 0 00-.192.762l.306 1.237c.074.297.3.521.581.602.087.617.348 1.175.732 1.625v.979c-4.069 2.084-1.491.754-4.752 2.404-.006.031-1.53 1.65-1.304 6.45l.014.293zm16.415-.616h-2.799v-1.176l1.851-4.238c.927 1.539.962 4.478.948 5.413zm-3.82-7.983c-.108 1.241-.788.866-1.208 1.822-.33-.363-.43-.799-.341-1.265.16-.856-.362-1.11-.233-2.01l.02-.021v-.003a6.52 6.52 0 00.144-.174c1.107.483 1.64 1.381 1.619 1.651zm-5.94-.975a3.15 3.15 0 003.54.047c.071.707.347.849.249 1.369a2.402 2.402 0 00-.034.285l-1.906 2.148-2.437-2.747.588-.307v-.796zm-.767-2.629v-1.191-2.093c.297-.549.701-.947 1.204-1.185 1.346.762 2.896 1.898 3.935 3.042-.001 1.457.004 1.461-.006 1.58l-.001.008a2.571 2.571 0 01-2.564 2.419 2.577 2.577 0 01-2.568-2.581zm-.379 4.03l2.994 3.376 2.01-2.266c.046.132.11.257.184.378l-2.194 2.744-3.272-4.093.278-.14zm6.131-4.526v-.951l.229-.262c.013.482.065-.087-.229 1.213zm-3.599-6.365c.122.008 1.756-.249 3.047 1.146.051.064 1.102 1.418.68 2.9-.145-.659-.396-1.504-.795-1.907l-.435.434c.393.398.651 1.611.75 2.24-1.803-1.887-4.13-3.082-4.162-3.102-.117.073-1.101.26-1.816 1.649l-.034.066v1.021l-.09.001c-.454-2.193.416-3.936 2.856-4.447zm-2.92 5.081l.155.627v.659l-.257-1.041c-.038-.155.077-.214.102-.245zm-.451 6.231l3.833 4.794 2.594-3.244c.282.253.418.288 1.016.596l-.202-.684c-.051-.174.151-.452.274-.58.273-.148.501-.36.671-.621l2.116 1.063-1.969 4.508v1.305h-9v-1.305l-1.97-4.507 2.637-1.324zm-3.132 1.724l1.851 4.237v1.176H7.636c-.014-.935.021-3.872.947-5.412z"/><path fill="none" stroke="var(--color3)" stroke-width="1.016" d="M30.387 4.945V.762H.508v30.476h29.879v-4.183"/></symbol><symbol id="hero-2-tabl" viewBox="0 0 31 32"><path fill="var(--color3)" d="M24.717 5.25H14.47c-.667 0-1.21.543-1.21 1.21v4.242l-7.613 3.195a.248.248 0 00-.031.441l.971.581v6.192a1.118 1.118 0 00-.869 1.089v.597c0 .137.111.248.248.248h1.739a.248.248 0 00.248-.248V22.2a1.12 1.12 0 00-.87-1.089v-5.896l.768.459c-.024.177-.003-.309-.011 2.883 0 1.049 2.687 1.611 5.421 1.643v4.832a1.207 1.207 0 001.209 1.208h10.247a1.21 1.21 0 001.209-1.209V6.458c0-.658-.544-1.21-1.208-1.21zM7.456 22.201v.349H6.213v-.349a.622.622 0 111.243 0zm17.261 3.544H14.47a.709.709 0 01-.714-.711v-1.675h11.672v1.676a.718.718 0 01-.711.711zm.711-2.883H13.756v-2.659c1.335-.015 5.424-.309 5.424-1.645-.001-2.005.004-2.818-.006-2.887l2.226-1.334a.247.247 0 00-.031-.441l-7.613-3.195V8.63h11.672v14.232zm-11.92-5.95c-1.375 0-4.023.178-5.173.929.007-2.297-.08-2.148.203-2.343.715-.526 2.758-.894 4.97-.894.965 0 5.176.265 5.176 1.157v2.08c-1.161-.758-3.795-.929-5.176-.929zm.248-10.452c0-.393.32-.713.713-.713h10.247c.393 0 .712.324.712.713v1.675H13.756V6.46zm-.248 4.675l7.217 3.029-1.788 1.07c-.951-.943-4.096-1.126-5.429-1.126-1.335 0-4.48.183-5.429 1.126l-1.789-1.07 7.218-3.029zm-5.173 7.423c0-.401 1.777-1.15 5.173-1.15 3.399 0 5.176.749 5.176 1.15s-1.778 1.15-5.176 1.15c-3.396 0-5.173-.749-5.173-1.15z"/><path fill="var(--color3)" d="M19.593 23.732a.821.821 0 000 1.64.821.821 0 000-1.64zm0 1.145a.325.325 0 11.001-.65.325.325 0 01-.001.65zM20.538 6.693h-1.891v.496h1.891v-.496z"/><path fill="none" stroke="var(--color3)" stroke-width="1.016" d="M30.387 4.945V.762H.508v30.476h29.879v-4.183"/></symbol>
<symbol id="hero-3-tabl" viewBox="0 0 31 32"><path fill="var(--color3)" d="M6.947 14.566c0 .227-.344.227-.344 0a8.726 8.726 0 0117.45 0c0 .227-.342.227-.342 0 0-3.256-5.351-3.258-5.351 0 0 .227-.352.227-.352 0 0-3.248-5.36-3.248-5.36 0 0 .227-.352.227-.352 0 0-3.242-5.349-3.265-5.349 0zm5.38-1.264c.093-1.874.387-3.555.816-4.838.342-1.02.774-1.794 1.265-2.229a8.387 8.387 0 00-7.322 6.808c1.267-1.827 4.192-1.681 5.242.26zm5.654-.085c-.095-1.802-.381-3.415-.793-4.645-1.063-3.182-2.657-3.182-3.72 0-.412 1.23-.696 2.842-.793 4.645 1.143-1.942 4.163-1.942 5.306 0zm5.59-.175a8.384 8.384 0 00-7.322-6.808c.492.435.923 1.209 1.265 2.229.428 1.283.723 2.964.816 4.838 1.057-1.951 3.99-2.066 5.242-.26zM14.183 18.559v-1.772c-.319.212-.571.54-.571.939 0 .389.255.647.571.832zm.344.55c-.612-.28-1.256-.608-1.256-1.382 0-.799.608-1.199 1.256-1.498v2.88zM16.474 21.232v1.792c.323-.214.577-.544.577-.943 0-.393-.259-.659-.577-.849zm-.342-.552c.614.284 1.263.622 1.263 1.401 0 .801-.612 1.201-1.263 1.497V20.68z"/><path fill="var(--color3)" d="M16.474 14.77c1.409.325 2.857 1.38 2.857 2.956 0 1.349-2.28 1.3-2.28 0 0-.402-.253-.731-.577-.943v2.521c1.304.426 2.861 1.191 2.861 2.777 0 1.578-1.448 2.63-2.861 2.954-.006 1.502-2.286 1.5-2.29-.002-.803-.185-1.502-.56-2.006-1.057-.529-.523-.842-1.18-.842-1.895 0-1.329 2.278-1.329 2.278 0 0 .398.251.725.571.937v-2.519c-1.294-.418-2.859-1.205-2.859-2.777 0-1.578 1.448-2.63 2.859-2.954.006-1.502 2.286-1.5 2.29.002zm-1.947.004v.274c-1.341.266-2.861 1.125-2.861 2.674 0 1.489 1.668 2.157 2.861 2.525v3.329c-.645-.295-1.256-.692-1.256-1.495 0-.878-1.594-.878-1.594 0 0 .62.276 1.193.742 1.65.591.585 1.308.863 2.109 1.022v.276c0 1.057 1.605 1.057 1.605 0v-.274c1.345-.268 2.859-1.127 2.859-2.674 0-1.504-1.664-2.15-2.859-2.527v-3.327c.647.295 1.263.692 1.263 1.5 0 .855 1.592.89 1.592 0 0-1.547-1.512-2.408-2.855-2.676v-.276c0-1.057-1.605-1.057-1.605 0z"/><path fill="none" stroke="var(--color3)" stroke-width="1.016" d="M30.387 4.945V.762H.508v30.476h29.879v-4.183"/></symbol>
<symbol id="phone" viewBox="0 0 33 32"><path fill="var(--color3)" d="M4.817.003a2.072 2.072 0 00-1.44.674L.693 3.627c.004-.009-.01-.007-.087.1a.627.627 0 00-.093.182c-1.092 3.48-.36 7.308 1.424 10.949s4.63 7.125 7.897 9.984c3.267 2.859 6.953 5.096 10.468 6.205s6.922 1.095 9.448-.737a.697.697 0 00.077-.067c.066-.066.068-.075.058-.065l.01-.013 2.671-2.938a2.09 2.09 0 00-.138-2.938l-6.337-5.763a2.09 2.09 0 00-2.938.137l-2.867 3.153c-2.327-.674-4.317-1.816-6.231-3.557s-3.24-3.615-4.131-5.869l2.866-3.153a2.09 2.09 0 00-.137-2.938L6.316.536A2.07 2.07 0 004.818.001h-.001zm.061 1.293a.772.772 0 01.559.208l6.337 5.763a.762.762 0 01.052 1.097l-3.169 3.482a.664.664 0 00-.129.661c.962 2.624 2.513 4.777 4.648 6.719s4.423 3.283 7.126 3.992a.65.65 0 00.647-.192l3.169-3.483a.76.76 0 011.096-.051l6.338 5.763a.76.76 0 01.051 1.096l-2.649 2.912c-2.072 1.488-4.992 1.571-8.262.539-3.282-1.036-6.846-3.182-9.999-5.942s-5.898-6.131-7.585-9.573C1.438 10.88.833 7.435 1.751 4.399l2.588-2.844a.775.775 0 01.538-.26z"/></symbol>
<symbol id="arrow-left" viewBox="0 0 54 32"><path fill="var(--color3)" d="M52 14a2 2 0 110 4v-4zM.586 17.414a2 2 0 010-2.828L13.314 1.858a2 2 0 112.828 2.828L4.828 16l11.314 11.314a2 2 0 11-2.828 2.828L.586 17.414zM52 18H2v-4h50v4z"/></symbol>
<symbol id="arrow-right" viewBox="0 0 54 32"><path fill="var(--color3)" d="M2 14a2 2 0 100 4v-4zm51.414 3.414a2 2 0 000-2.828L40.686 1.858a2 2 0 10-2.828 2.828L49.172 16 37.858 27.314a2 2 0 102.828 2.828l12.728-12.728zM2 18h50v-4H2v4z"/></symbol>
<symbol id="yes" viewBox="0 0 40 32"><path fill="var(--color3)" d="M34.457 1.514a29.389 29.389 0 00-4.265 2.379c-2.731 1.797-5.228 3.936-7.57 6.218-2.341 2.287-4.52 4.735-6.581 7.28-.515.636-2.823 3.47-2.823 3.47L3.622 6.481-.001 16.523 12.976 32c1.26-2.551 2.473-5.07 3.662-7.258.296-.556.605-1.08.901-1.612 0 0 1.523-2.677 1.924-3.352 1.601-2.697 3.332-5.325 5.239-7.821 1.908-2.491 3.983-4.87 6.335-6.961a28.328 28.328 0 013.751-2.872c1.332-.848 2.747-1.591 4.261-2.125-1.575.31-3.111.848-4.592 1.514z"/></symbol>
<symbol id="ellipse" viewBox="0 0 36 32"><path fill="var(--color3)" d="M34.286 16c0 8.837-7.675 16-17.143 16S0 24.837 0 16 7.675 0 17.143 0s17.143 7.163 17.143 16z"/></symbol>
<symbol id="about-3" viewBox="0 0 44 32"><path fill="var(--color4)" d="M19.6 4.608H5.96v1.021H19.6V4.608zM19.6 8.416H8.003v1.021H19.6V8.416zM19.6 12.224H5.96v1.021H19.6v-1.021zM19.6 16.032H8.003v1.021H19.6v-1.021zM19.6 19.84H5.96v1.021H19.6V19.84zM19.6 23.648H8.003v1.021H19.6v-1.021zM38.323 4.608h-13.64v1.021h13.64V4.608zM36.281 8.416H24.684v1.021h11.597V8.416zM38.323 12.224h-13.64v1.021h13.64v-1.021zM36.281 16.032H24.684v1.021h11.597v-1.021zM38.323 19.84h-13.64v1.021h13.64V19.84zM36.281 23.648H24.684v1.021h11.597v-1.021z"/><path fill="var(--color4)" d="M43.248 3.445h-1.872V.633a.511.511 0 00-.511-.511H25.6c-1.49 0-2.781.805-3.458 2.011A3.95 3.95 0 0018.683.122H3.418a.511.511 0 00-.511.511v2.812H1.035a.511.511 0 00-.511.511v27.411c0 .282.229.511.511.511h42.213a.511.511 0 00.511-.511V3.956a.511.511 0 00-.511-.511zM25.601 1.144h14.754v27.35H24.512a3.01 3.01 0 00-1.859.68V4.085a2.932 2.932 0 012.948-2.942zm-21.672 0h14.754a2.924 2.924 0 012.942 2.829c.001.022.003.091.006.112v25.087a2.987 2.987 0 00-1.852-.678H3.929V1.144zM1.546 4.467h1.362v24.538c0 .282.229.511.511.511H19.78c.778 0 1.531.511 1.771 1.341H1.546V4.467zm41.192 26.389H22.734a1.845 1.845 0 011.778-1.341h16.354a.511.511 0 00.511-.511V4.466h1.362v26.39z"/></symbol>
<symbol id="about-6" viewBox="0 0 37 32"><path fill="var(--color3)" d="M2.381 29.453h12.23a3.738 3.738 0 003.38 2.116h.772c1.465 0 2.761-.83 3.381-2.116h12.237a2.289 2.289 0 002.286-2.286V5.262a2.289 2.289 0 00-2.286-2.286h-1.234V1.955c0-.84-.684-1.524-1.524-1.524H5.132c-.84 0-1.524.683-1.524 1.524v1.021H2.381A2.289 2.289 0 00.095 5.262v21.905a2.289 2.289 0 002.286 2.286zm29.24-4.701H19.143V7.047c2.884.377 5.121 2.845 5.121 5.831v.687l-.181-.04a.759.759 0 00-.908.58l-1.213 5.519c-.09.41.17.816.58.907l2.621.578a1.946 1.946 0 002.319-1.492l.702-3.192a1.954 1.954 0 00-1.484-2.324l-.912-.201v-1.023c0-3.827-2.917-6.986-6.644-7.37V1.956h12.48l-.001 22.796zm-7.122-9.575l1.871.412a.422.422 0 01.325.508l-.702 3.191a.45.45 0 01-.507.331l-1.874-.413.886-4.03zM5.132 1.956h12.487v3.55c-3.731.381-6.652 3.541-6.652 7.371v1.022l-.914.202a1.935 1.935 0 00-1.222.854c-.28.439-.373.961-.26 1.468l.7 3.188a1.96 1.96 0 002.325 1.495l2.61-.577a.762.762 0 00.58-.907l-1.213-5.519c-.043-.198-.164-.37-.334-.478s-.378-.144-.574-.102l-.174.038v-.686c0-2.988 2.24-5.458 5.128-5.832v17.706H5.132V1.953zm7.117 13.221l.887 4.029-1.863.411a.433.433 0 01-.512-.328l-.702-3.196a.42.42 0 01.323-.506l1.867-.412zM1.619 5.262c0-.42.341-.762.762-.762h1.227v20.252c0 .84.684 1.524 1.524 1.524h26.491c.84 0 1.524-.683 1.524-1.524V4.5h1.234c.42 0 .762.342.762.762v21.905c0 .42-.342.762-.762.762H21.627a.76.76 0 00-.728.538 2.22 2.22 0 01-2.135 1.577h-.772a2.229 2.229 0 01-2.138-1.586.762.762 0 00-.725-.529H2.382a.763.763 0 01-.762-.762V5.262z"/></symbol>
<symbol id="about-5" viewBox="0 0 27 32"><path fill="var(--color3)" d="M-.105 31.754H27.25c.136-3.12-.088-8.295-2.006-10.759l-.069-.088-4.191-2.104c.091-.307.136-.588.154-.795a1.449 1.449 0 00-.102-.692c-.691-1.655-2.155-2.525-2.959-2.896a5.158 5.158 0 00.48-1.567c.456-.128.822-.489.942-.971l.489-1.987a1.329 1.329 0 00-.454-1.364c1.379-3.133-.931-6.087-1.057-6.243C15.975-.417 12.815.089 12.648.119c-4.561.955-6.321 4.451-5.328 8.55-.294.326-.418.78-.309 1.226l.492 1.99c.119.478.483.838.935.968.14.993.56 1.89 1.177 2.614v1.576c-6.545 3.352-2.398 1.213-7.643 3.867-.01.049-2.461 2.654-2.097 10.375l.022.472zm26.404-.991h-4.502v-1.891l2.978-6.817c1.492 2.476 1.547 7.203 1.524 8.708zm-6.144-12.84c-.174 1.996-1.268 1.393-1.944 2.93-.531-.584-.691-1.285-.548-2.035.258-1.377-.583-1.786-.375-3.233l.031-.033v-.005c.018-.02.184-.217.232-.28 1.781.776 2.639 2.221 2.604 2.656zM10.6 16.354a5.075 5.075 0 005.694.076c.114 1.138.559 1.365.401 2.203a3.5 3.5 0 00-.055.459l-3.066 3.456-3.919-4.419.946-.494v-1.281zm-1.233-4.229v-1.916-3.366c.477-.883 1.128-1.522 1.936-1.906 2.165 1.225 4.657 3.053 6.329 4.893-.002 2.343.007 2.35-.009 2.542l-.001.012c-.13 2.128-1.88 3.892-4.124 3.892-2.181 0-3.992-1.713-4.123-3.913a2.69 2.69 0 01-.008-.238zm-.611 6.482l4.816 5.43 3.234-3.644c.074.213.178.414.296.608l-3.53 4.414-5.264-6.583.447-.224zm9.862-7.278v-1.53l.368-.421c.02.775.104-.14-.368 1.951zM12.829 1.09c.196.012 2.824-.4 4.901 1.843.082.103 1.773 2.281 1.093 4.665-.233-1.061-.638-2.42-1.278-3.068l-.7.697c.632.641 1.048 2.591 1.206 3.602-2.901-3.035-6.643-4.957-6.694-4.989-.188.117-1.771.418-2.921 2.653l-.055.107v1.642l-.145.002c-.731-3.528.669-6.33 4.593-7.153zM8.132 9.262l.249 1.008v1.06l-.414-1.674c-.061-.25.124-.344.165-.394zm-.725 10.023l6.166 7.712 4.172-5.218c.454.406.672.464 1.634.959l-.325-1.101c-.082-.279.244-.728.441-.934.44-.238.806-.578 1.08-.998l3.404 1.709-3.167 7.251v2.099H6.335v-2.099l-3.169-7.25 4.242-2.129zM2.37 22.058l2.978 6.815v1.891H.846c-.023-1.504.033-6.229 1.524-8.706z"/></symbol>
<symbol id="about-2" viewBox="0 0 33 32"><path fill="var(--color3)" d="M30.175-.128H14.429a1.861 1.861 0 00-1.859 1.859v6.518L.872 13.159a.38.38 0 00-.049.678l1.492.893v9.515A1.719 1.719 0 00.98 25.919v.917c0 .21.171.381.381.381h2.671c.21 0 .381-.171.381-.381v-.917a1.72 1.72 0 00-1.336-1.673v-9.06l1.18.706c-.036.272-.005-.474-.017 4.43 0 1.612 4.129 2.476 8.33 2.525v7.425a1.858 1.858 0 001.858 1.856h15.746a1.859 1.859 0 001.857-1.857c0 .051-.002-1.573 0-28.54a1.87 1.87 0 00-1.856-1.859zM3.652 25.918v.536H1.743v-.536a.955.955 0 111.909 0zm26.523 5.446H14.429a1.096 1.096 0 01-1.096-1.094v-2.574h17.935v2.575c0 .597-.497 1.092-1.092 1.092zm1.092-4.429H13.332v-4.086c2.051-.023 8.335-.475 8.335-2.527-.002-3.081.005-4.33-.01-4.436l3.421-2.049a.382.382 0 00-.049-.678l-11.698-4.91V5.067h17.935v21.868zm-18.316-9.143c-2.113 0-6.182.273-7.949 1.427.011-3.53-.122-3.3.312-3.6 1.098-.809 4.238-1.373 7.637-1.373 1.482 0 7.954.408 7.954 1.778v3.195c-1.784-1.165-5.832-1.428-7.954-1.428zm.382-16.061c0-.604.491-1.095 1.095-1.095h15.746c.604 0 1.093.498 1.093 1.095v2.574H13.332V1.731zm-.382 7.184l11.09 4.655-2.748 1.644c-1.461-1.449-6.294-1.73-8.342-1.73-2.051 0-6.884.282-8.342 1.73L1.86 13.569l11.091-4.655zM5.002 20.321c0-.617 2.73-1.767 7.949-1.767 5.222 0 7.954 1.151 7.954 1.767s-2.732 1.768-7.954 1.768c-5.219 0-7.949-1.151-7.949-1.768z"/><path fill="var(--color3)" d="M22.301 28.271a1.261 1.261 0 000 2.52 1.261 1.261 0 000-2.52zm0 1.759a.499.499 0 11.002-.998.499.499 0 01-.002.998zM23.754 2.09h-2.906v.762h2.906V2.09z"/></symbol>
<symbol id="about-4" viewBox="0 0 33 32"><path fill="var(--color3)" d="M1.993 12.558v2.831a.5.5 0 00.189.39 11.099 11.099 0 006.837 2.362c.74 0 1.482-.077 2.206-.224a12.01 12.01 0 004.89 1.032c1.707 0 3.351-.349 4.89-1.032 3.091.624 6.384-.046 9.042-2.138a.495.495 0 00.189-.39v-2.831a1.2 1.2 0 00-.575-1.027l-3.867-2.176c.846-1.073 1.476-2.602 1.586-3.913.321-2.256-1.518-4.646-4.166-4.646a4.208 4.208 0 00-2.948 1.227c-.027.027-.058.049-.084.076-.024.025-.043.054-.067.08-.016.017-.029.036-.044.053C19.314.852 17.86 0 16.147 0c-.166 0-.33.011-.492.028-.01-.001-.018-.006-.028-.006-.092 0-.287.024-.391.054-.015.004-.026.015-.041.021a4.485 4.485 0 00-3.013 2.156A4.176 4.176 0 009.003.796c-3.908 0-5.642 4.612-2.557 8.581l-3.903 2.167a1.192 1.192 0 00-.553 1.014zm19.003 4.27c-.084.041-.167.085-.251.123l-.002.001a11.007 11.007 0 01-4.627 1.006 11.023 11.023 0 01-6.674-2.228v-2.87c0-.098.047-.184.102-.221l4.542-2.524c.565.48 1.287.832 2.035.832.721 0 1.499-.357 2.052-.843l4.487 2.52c.083.053.13.139.13.237v2.87c-.571.429-1.173.795-1.794 1.098zm8.158-4.446a.201.201 0 01.092.176v2.587a9.986 9.986 0 01-6.737 1.98c.369-.23.771-.516 1.083-.76a.496.496 0 00.19-.39v-3.114c0-.435-.218-.835-.61-1.087l-2.383-1.339.58-.321c.703.573 1.307.744 1.848.744.663 0 1.36-.325 1.878-.759l4.06 2.284zM23.216 1.788c1.38 0 2.593.902 3.021 2.142A3.703 3.703 0 0124 2.788a.494.494 0 00-.788.084 3.684 3.684 0 01-2.548 1.76v-.003a4.786 4.786 0 00-.162-1.329c.563-.902 1.609-1.513 2.713-1.513zm-2.66 3.856a4.642 4.642 0 003.164-1.762 4.684 4.684 0 002.702 1.056c-.007 1.792-1.471 4.927-3.206 4.927-1.337 0-2.479-1.912-2.905-3.238a8.15 8.15 0 00.245-.983zm.101 3.729l-.886.491-.895-.502c.332-.413.636-.893.896-1.413.25.526.55 1.01.884 1.425zM19.32 6.465c-.478 1.427-1.705 3.49-3.199 3.49-1.742 0-3.226-2.864-3.509-4.696.075-.019 2.43.126 4.049-2.001.822.688 1.932 1.143 3.011 1.188.013.647-.144 1.406-.352 2.018zM16.15.992c2.78 0 3.309 2.392 3.352 2.442a4.123 4.123 0 01-2.563-1.276.497.497 0 00-.789.087 4.073 4.073 0 01-3.58 2.022c.136-1.822 1.596-3.274 3.58-3.274zm-3.689 6.946c.257.515.563 1.006.913 1.438l-.875.487-.907-.51a7.76 7.76 0 00.87-1.415zm-3.455-6.15c1.125 0 2.155.571 2.729 1.514-.029.1-.106.498-.117.548a3.675 3.675 0 01-1.821-1.062.496.496 0 00-.788.086 3.712 3.712 0 01-3.177 1.815c.158-1.627 1.518-2.9 3.174-2.9zm-3.13 3.89a4.711 4.711 0 003.643-1.796 4.629 4.629 0 002.055.961c.029.575.179 1.273.35 1.789-.274.84-.799 1.841-1.451 2.505l-.014.01c-.408.43-.988.719-1.444.719-1.594 0-2.841-2.508-3.14-4.188zm-2.891 6.88c0-.075.033-.139.067-.162l4.116-2.284c.247.206.304.229.353.265.484.322.928.482 1.534.482.645 0 1.232-.273 1.749-.694.029-.023.06-.045.088-.068l.587.33-2.446 1.361a1.269 1.269 0 00-.584 1.071v3.114c0 .152.07.296.19.39.317.249.727.539 1.083.761a10.024 10.024 0 01-6.737-1.98v-2.587z"/><path fill="var(--color3)" d="M31.259 20.781a2.063 2.063 0 00-2.007-.11l-6.119 2.956a2.111 2.111 0 00-2.107-2.072l-3.509.001c-1.73-1.504-3.941-2.425-5.952-2.473-1.983-.047-3.763-.06-4.593-.064v-1.002H0v11.517h6.972v-1.379C8.884 29.252 13.911 32 16.297 32c.054 0 .107-.001.158-.004 4.196-.235 14.091-7.198 14.743-7.661a2.08 2.08 0 001.034-1.796c0-.719-.364-1.376-.973-1.758zM5.98 28.542H.992v-9.533H5.98v9.533zm24.707-5.058a.296.296 0 00-.044.028c-.102.073-10.281 7.271-14.244 7.494a2.354 2.354 0 01-.121.003c-2.092 0-7.194-2.753-9.307-4.001v-6.997c.827.004 2.597.017 4.569.064 1.837.044 3.876.921 5.456 2.346l.141.128 3.887-.001c.617 0 1.119.502 1.119 1.119s-.502 1.119-1.119 1.119h-7.142v.992h7.142c.684 0 1.288-.333 1.674-.839l6.984-3.373c.343-.167.725-.146 1.049.057s.508.537.508.918c0 .391-.212.753-.553.945zM16.612 12.158h-.992v.92h.992v-.92zM16.612 13.992h-.992v.92h.992v-.92zM16.612 15.826h-.992v.92h.992v-.92z"/></symbol>
<symbol id="about-1" viewBox="0 0 31 32"><path fill="var(--color3)" d="M30.151 4.961l-.001-.002a.32.32 0 00-.06-.09L25.284.063a.258.258 0 00-.041-.033l-.009-.006c-.012-.007-.024-.014-.036-.019L25.187 0a.277.277 0 00-.099-.02H3.912a.284.284 0 00-.284.284v29.311c0 .019.002.037.006.056l.007.023.009.03.014.026.013.023c.01.014.021.028.033.04l.003.003 2.165 2.164c.111.111.29.111.402 0l1.964-1.963 1.964 1.963c.055.056.128.083.201.083s.145-.027.201-.083l1.963-1.963 1.965 1.963a.284.284 0 00.402 0l1.963-1.963 1.963 1.963a.283.283 0 00.401 0l1.965-1.963 1.964 1.963c.055.056.128.083.201.083s.145-.027.201-.083l1.963-1.963 1.965 1.963a.283.283 0 00.401 0l2.165-2.164.011-.014.024-.029c.007-.009.011-.02.016-.03.003-.007.007-.012.009-.019.006-.013.009-.026.012-.039l.005-.013a.286.286 0 00.006-.058V5.071a.296.296 0 00-.023-.109zM25.367.949l3.836 3.835h-3.836V.949zm4.237 28.507l-1.88 1.88-1.965-1.963a.283.283 0 00-.401 0l-1.963 1.963-1.964-1.963a.284.284 0 00-.402 0l-1.965 1.963-1.963-1.962v-.001a.284.284 0 00-.402 0l-1.963 1.963-1.965-1.963a.284.284 0 00-.402 0l-1.963 1.963-1.964-1.963a.284.284 0 00-.402 0l-1.965 1.963-1.88-1.88V.547h20.603v4.522c0 .157.127.284.284.284h4.521v24.103z"/><path fill="var(--color3)" d="M6.314 3.234h9.303a.284.284 0 100-.568H6.314a.284.284 0 100 .568zM6.314 4.991h14.919a.284.284 0 100-.568H6.314a.284.284 0 100 .568zM6.03 6.568v9.199c0 .157.127.284.284.284h21.172a.284.284 0 00.284-.284V6.568a.284.284 0 00-.284-.284H6.314a.284.284 0 00-.284.284zm6.278.284h14.893v2.445H12.308V6.852zm0 3.013h14.893v2.444H12.308V9.865zm0 3.012h14.893v2.605H12.308v-2.605zm-5.71-6.025h5.142v2.445H6.598V6.852zm0 3.013h5.142v2.444H6.598V9.865zm0 3.012h5.142v2.605H6.598v-2.605zM27.486 17.329H6.314a.284.284 0 00-.284.284v9.198a.284.284 0 10.568 0v-2.889h5.142v2.889a.284.284 0 10.568 0v-2.889h14.893v2.889a.284.284 0 10.568 0v-9.198a.282.282 0 00-.283-.284zM11.74 23.354H6.598v-2.443h5.142v2.443zm0-3.012H6.598v-2.444h5.142v2.444zm15.461 3.012H12.308v-2.443h14.893v2.443zm0-3.012H12.308v-2.444h14.893v2.444zM2.281-.021a.284.284 0 00-.284.284v29.311a.284.284 0 10.568 0V.263a.284.284 0 00-.284-.284zM.718-.021a.284.284 0 00-.284.284v29.311a.284.284 0 10.568 0V.263a.284.284 0 00-.284-.284z"/></symbol>
<symbol id="hero-1" viewBox="0 0 31 32"><path fill="var(--color3)" d="M7.953 23.273h12.362c.061-1.41-.04-3.749-.907-4.862l-.031-.04-1.894-.951c.041-.139.061-.266.069-.359a.666.666 0 00-.046-.313c-.312-.748-.974-1.141-1.337-1.309.111-.223.182-.463.217-.708a.607.607 0 00.426-.439l.221-.898a.607.607 0 00-.206-.617c.623-1.416-.421-2.751-.478-2.821-1.131-1.222-2.559-.994-2.634-.98-2.061.432-2.857 2.011-2.408 3.864a.61.61 0 00-.14.554l.222.899a.605.605 0 00.423.437c.063.449.253.854.532 1.181v.712c-2.958 1.515-1.084.548-3.454 1.748-.005.022-1.112 1.2-.948 4.689l.01.213zm11.932-.447H17.85v-.855l1.346-3.081c.674 1.119.699 3.255.689 3.935zm-2.777-5.803c-.079.902-.573.629-.878 1.324a1.025 1.025 0 01-.248-.92c.117-.622-.263-.807-.169-1.461l.014-.015v-.002c.008-.009.083-.098.105-.126.805.351 1.193 1.003 1.177 1.2zm-4.318-.709a2.294 2.294 0 002.573.034c.052.514.253.617.181.995-.013.07-.021.139-.025.207l-1.386 1.562-1.771-1.997.428-.223v-.579zm-.557-1.911v-.866-1.521c.216-.399.51-.688.875-.861.979.554 2.105 1.38 2.86 2.211-.001 1.059.003 1.062-.004 1.149v.006A1.87 1.87 0 0114.1 16.28a1.873 1.873 0 01-1.867-1.876zm-.276 2.929l2.177 2.454 1.461-1.647c.033.096.08.187.134.275l-1.595 1.995-2.379-2.975.202-.101zm4.457-3.289v-.691l.166-.191c.009.35.047-.063-.166.882zm-2.616-4.627c.088.005 1.276-.181 2.215.833.037.046.801 1.031.494 2.108-.105-.479-.288-1.093-.578-1.387l-.316.315c.286.289.474 1.171.545 1.628-1.311-1.372-3.002-2.24-3.025-2.255-.085.053-.8.189-1.32 1.199l-.025.048v.742l-.066.001c-.33-1.594.302-2.861 2.076-3.233zm-2.123 3.693l.113.456v.479l-.187-.757c-.027-.113.056-.156.074-.178zm-.328 4.529l2.787 3.485 1.885-2.358c.205.184.304.21.739.433l-.147-.497c-.037-.126.11-.329.199-.422.199-.108.364-.261.488-.451l1.538.772-1.431 3.277v.948h-6.543v-.949L9.43 18.599l1.917-.962zm-2.276 1.253l1.346 3.08v.855H8.382c-.01-.68.015-2.815.689-3.934z"/><path fill="none" stroke="var(--color3)" stroke-width=".615" d="M31.077 4.615V.307H.308v31.385h30.769v-4.308"/></symbol>
<symbol id="hero-2" viewBox="0 0 31 32"><path fill="var(--color3)" d="M20.406 8.558H13.29a.841.841 0 00-.84.84v2.946l-5.287 2.219c-.06.025-.101.082-.105.146s.027.127.083.16l.674.403v4.3a.776.776 0 00-.603.756v.414c0 .095.077.172.172.172h1.207a.172.172 0 00.172-.172v-.414a.777.777 0 00-.604-.756v-4.094l.533.319c-.016.123-.002-.214-.008 2.002 0 .729 1.866 1.119 3.765 1.141v3.356a.84.84 0 00.84.838h7.116a.84.84 0 00.839-.839V9.397a.846.846 0 00-.839-.84zM8.419 20.328v.242h-.863v-.242a.432.432 0 11.863 0zm11.987 2.462H13.29a.494.494 0 01-.496-.494v-1.163h8.105v1.164c0 .27-.225.494-.494.494zm.494-2.002h-8.105v-1.847c.927-.011 3.767-.215 3.767-1.142-.001-1.392.002-1.957-.004-2.005l1.546-.926a.171.171 0 00-.022-.306l-5.286-2.219v-1.438h8.105v9.883zm-8.278-4.132c-.955 0-2.794.123-3.592.645.005-1.595-.055-1.491.141-1.627.496-.365 1.915-.62 3.451-.62.67 0 3.595.184 3.595.803v1.444c-.806-.526-2.636-.645-3.595-.645zm.173-7.258c0-.273.222-.495.495-.495h7.116c.273 0 .494.225.494.495v1.163h-8.105V9.398zm-.173 3.246l5.012 2.104-1.242.743c-.66-.655-2.844-.782-3.77-.782-.927 0-3.111.127-3.77.782l-1.242-.743 5.012-2.104zM9.03 17.799c0-.279 1.234-.799 3.592-.799 2.36 0 3.595.52 3.595.799s-1.235.799-3.595.799c-2.359 0-3.592-.52-3.592-.799z"/><path fill="var(--color3)" d="M16.848 21.392a.57.57 0 100 1.139.57.57 0 000-1.139zm0 .795a.225.225 0 110-.45.225.225 0 010 .45zM17.504 9.56h-1.313v.344h1.313V9.56z"/><path fill="none" stroke="var(--color3)" stroke-width=".615" d="M31.077 4.615V.307H.308v31.385h30.769v-4.308"/></symbol>
<symbol id="hero-3" viewBox="0 0 31 32"><path fill="var(--color3)" d="M7.942 14.958c0 .165-.25.165-.25 0a6.343 6.343 0 0112.686.001c0 .165-.249.165-.249 0 0-2.367-3.89-2.369-3.89 0 0 .165-.256.165-.256 0 0-2.361-3.896-2.361-3.896 0 0 .165-.256.165-.256 0 0-2.357-3.888-2.373-3.888 0zm3.911-.919c.067-1.363.281-2.584.593-3.517.249-.741.563-1.304.919-1.62a6.097 6.097 0 00-5.323 4.949c.921-1.328 3.047-1.222 3.811.189zm4.11-.062c-.069-1.31-.277-2.482-.576-3.376-.773-2.313-1.931-2.313-2.704 0-.299.894-.506 2.066-.576 3.376.831-1.412 3.026-1.412 3.857 0zm4.064-.127a6.094 6.094 0 00-5.323-4.949c.358.316.671.879.919 1.62.311.933.526 2.155.593 3.517.768-1.418 2.9-1.502 3.811-.189zM13.202 17.86v-1.288c-.232.154-.415.392-.415.683 0 .283.186.47.415.605zm.25.4c-.445-.204-.913-.442-.913-1.005 0-.581.442-.872.913-1.089v2.094zM14.867 19.803v1.303c.235-.156.419-.395.419-.686 0-.286-.189-.479-.419-.617zm-.248-.401c.446.207.918.452.918 1.018 0 .582-.445.873-.918 1.089v-2.107z"/><path fill="var(--color3)" d="M14.867 15.106c1.024.237 2.077 1.003 2.077 2.149 0 .981-1.658.945-1.658 0 0-.292-.184-.532-.419-.686v1.833c.948.31 2.08.865 2.08 2.018 0 1.147-1.053 1.912-2.08 2.147-.005 1.092-1.662 1.09-1.665-.001-.584-.135-1.092-.407-1.458-.768-.385-.38-.612-.858-.612-1.378 0-.966 1.656-.966 1.656 0 0 .289.183.527.415.681V19.27c-.94-.304-2.078-.876-2.078-2.018 0-1.147 1.053-1.912 2.078-2.147.005-1.092 1.662-1.09 1.665.001zm-1.415.003v.199c-.975.193-2.08.818-2.08 1.944 0 1.083 1.213 1.568 2.08 1.836v2.42c-.469-.214-.913-.503-.913-1.087 0-.638-1.159-.638-1.159 0 0 .451.201.867.539 1.199.43.425.951.627 1.533.743v.201c0 .768 1.166.768 1.166 0v-.199c.978-.195 2.078-.819 2.078-1.944 0-1.093-1.21-1.563-2.078-1.837v-2.418c.47.214.918.503.918 1.09 0 .621 1.157.647 1.157 0 0-1.125-1.099-1.75-2.075-1.945v-.201c0-.768-1.166-.768-1.166 0z"/><path fill="none" stroke="var(--color3)" stroke-width=".615" d="M31.077 4.615V.307H.308v31.385h30.769v-4.308"/></symbol>
<symbol id="fire" viewBox="0 0 23 32"><path d="M21.908 16.593c-.284-.635-.675-1.261-1.247-1.983-1.442-1.813-1.882-5.857-1.887-5.896a.488.488 0 00-.337-.412.495.495 0 00-.518.141c-1.721 1.925-.997 4.897-.606 6.085.108.325.225.708.308 1.096.636 3.137-.592 4.558-.88 4.844-.279.078-.469.039-.645-.15-.606-.664-.807-2.841-.523-5.678a5.797 5.797 0 00-.039-1.581c-.598-3.486-2.791-5.722-3.349-6.507C10.65 4.283 10.494.506 10.489.472a.487.487 0 00-.763-.383C7.164 1.83 7.384 6.024 7.741 8.365c.083.543.244 1.096.523 1.794.992 2.497-.196 5.721-.205 5.75s-.02.053-.024.082c-.152.795-.406 1.27-.689 1.27a.327.327 0 01-.093-.015c-.347-.073-.528-.441-.533-.761-.02-4.136-4.17-5.527-4.214-5.542a.487.487 0 00-.586.678c.049.102.205.548.098 2.124a18.09 18.09 0 01-.768 4.16C.262 21.124.419 24.174.429 24.32c.759 8.257 12.635 9.704 19.683 5.052.772-.509 1.403-1.091 1.868-1.731 2.601-3.588 1.071-8.461-.068-11.05zM3.844 24.481a.484.484 0 01-.46.509h-.029a.487.487 0 01-.489-.456c-.044-.708-.034-1.45.02-2.255a.49.49 0 01.978.068 15.622 15.622 0 00-.02 2.133zm.24-4.295a.485.485 0 01-.484.427c-.02 0-.039 0-.064-.005a.489.489 0 01-.425-.538l.235-1.871a.494.494 0 01.548-.422c.269.034.46.276.425.543l-.235 1.867z"/></symbol></defs></svg>