<svg aria-hidden="true" style="position:absolute;width:0;height:0" xmlns="http://www.w3.org/2000/svg" overflow="hidden">
<defs>
<symbol id="Logo" viewBox="0 0 39 32"><path d="M22.372 9.64l-.749-.571a.57.57 0 00-.8.08l-10.36 11.897.16.177 2.566-2.366a.393.393 0 01-.099-.673.397.397 0 01.626.187l3.383-3.137a.295.295 0 01.366 0l.171.126a.285.285 0 00.383-.045l4.423-4.96a.47.47 0 00.067-.564.473.473 0 00-.136-.149z"/><path d="M27.24 12.989a23.103 23.103 0 01-7.497 3.514 40.623 40.623 0 01-8.154 1.211c.055.406.155.804.297 1.189 1.554 1.406 13.257-.994 15.543-3.771.486-.577-.189-2.143-.189-2.143zm-13.897 5.868a.387.387 0 01-.381-.464.39.39 0 01.305-.305c.075-.015.153-.007.225.022s.132.079.174.143a.395.395 0 01-.046.493.375.375 0 01-.277.112zM2.286 12.166l.091-.394 1.486.337c.123.226.198.475.223.731.028.271.011.546-.051.811a2.143 2.143 0 01-.491.994c-.236.267-.54.464-.88.571-.35.108-.723.122-1.08.04a1.998 1.998 0 01-.954-.503 1.894 1.894 0 01-.543-.897 2.153 2.153 0 010-1.143c.061-.28.172-.547.326-.789.146-.22.342-.402.571-.531l.206.314a1.634 1.634 0 00-.754 1.108c-.071.296-.065.604.017.897.077.278.229.529.44.726.217.21.488.354.783.417.286.08.588.08.874 0 .274-.09.52-.25.714-.463.2-.23.337-.507.4-.806a1.75 1.75 0 00-.069-1.091l-1.309-.331zM5.52 8.571l-1.331 1.777.571 1.023-.263.354-2.114-3.857.246-.337 4.303.926-.269.354-1.143-.24zm-.377-.091l-2.286-.514L4 10.017 5.143 8.48zM5.143 4.886l.343-.257 2.177 2.914L9.457 6.2l.217.291-2.131 1.594-2.4-3.2zM8.743 2.503l.383-.171 1.509 3.303 2.04-.926.149.331-2.423 1.103-1.657-3.64zM16.274 3.817l.086.36-2.754.646-.914-3.897 2.674-.623.08.354-2.286.531.326 1.383 2.011-.474.086.354-2.017.469.343 1.446 2.366-.549zM20.2 3.96l-.954-1.257a2.847 2.847 0 01-.32 0l-1.074.034.04 1.269h-.423l-.131-4L18.858 0a1.8 1.8 0 011.211.326 1.257 1.257 0 01.469.994c.017.282-.057.563-.211.8a1.329 1.329 0 01-.663.486l1 1.337-.463.017zm-.4-1.88a.915.915 0 00.291-.748.929.929 0 00-.337-.732 1.385 1.385 0 00-.897-.234l-1.086.04.069 2 1.063-.034c.324.012.642-.091.897-.291zM23.223 2.897l-.206 1.366L22.6 4.2l.211-1.343L21.628 0l.446.069 1.011 2.434L24.799.486l.4.086-1.977 2.326zM28.874 2.657l.497.646-.217.171-.497-.663-.314.749-.24-.103.32-.749-.823.109v-.274l.811-.091-.503-.646.223-.171.44.651.309-.754.246.103-.291.766.823-.114v.28l-.783.091zM30.783 7.263a1.588 1.588 0 01-.246-.691l.337-.149c.025.226.099.445.217.64.128.219.294.412.491.571.204.195.464.321.743.36a.623.623 0 00.537-.223.509.509 0 00.131-.389 1.064 1.064 0 00-.137-.394 6.03 6.03 0 00-.349-.509 5.034 5.034 0 01-.411-.629 1.152 1.152 0 01-.149-.537c0-.212.079-.416.223-.571.125-.151.289-.264.474-.326.207-.06.427-.06.634 0 .267.087.514.227.726.411.176.146.332.315.463.503.121.174.212.367.269.571l-.326.171a2.04 2.04 0 00-.251-.537 2.014 2.014 0 00-.383-.394 1.272 1.272 0 00-.737-.349.61.61 0 00-.537.234.493.493 0 00-.131.389c.013.144.06.283.137.406.08.131.194.303.349.509.153.195.291.401.411.617.095.164.148.348.154.537a.838.838 0 01-.223.571 1.02 1.02 0 01-.48.326 1.104 1.104 0 01-.634 0 2.123 2.123 0 01-.731-.411 2.591 2.591 0 01-.571-.709zM36.531 8.097l-.806-1.143.297-.211 1.857 2.651-.297.211-.806-1.143-2.983 2.086-.24-.349 2.977-2.103zM35.251 12.794c.102-.345.3-.655.571-.891.265-.238.589-.401.937-.474a2.06 2.06 0 011.074.04c.336.111.638.308.874.571.246.283.414.626.486.994a2.17 2.17 0 010 1.103 1.962 1.962 0 01-.571.891 2.122 2.122 0 01-2.04.445 1.916 1.916 0 01-.874-.571 2.155 2.155 0 01-.486-.989 2.192 2.192 0 01.029-1.12zM36 14.611c.191.217.438.377.714.463a1.765 1.765 0 001.657-.366c.211-.194.367-.441.451-.714a1.845 1.845 0 00-.371-1.68 1.635 1.635 0 00-.737-.463 1.705 1.705 0 00-.88 0c-.291.056-.56.192-.777.394a1.591 1.591 0 00-.451.72c-.078.29-.078.596 0 .886.063.284.199.546.394.76zM34.817 19.428l1.48-.571c0-.103.034-.206.063-.314l.28-1.034-1.211-.314.109-.406 3.863 1.034-.389 1.446a1.815 1.815 0 01-.663 1.063 1.245 1.245 0 01-1.086.16 1.238 1.238 0 01-.977-1.206l-1.577.571.109-.429zm1.914.16a1.028 1.028 0 001.434.383c.252-.203.424-.488.486-.806l.274-1.029-1.937-.52-.274 1.029c-.105.306-.099.64.017.943zM32.766 23.109l-.291-.223 1.714-2.257 3.189 2.417-1.657 2.189-.291-.223 1.4-1.846-1.143-.863-1.251 1.651-.286-.217 1.28-1.651-1.183-.897-1.48 1.92zM31.428 27.663l-.817.046v-.274l.817-.006-.44-.68.223-.143.434.686.354-.766.246.131-.389.72.817-.046v.28h-.829l.44.68-.223.143-.434-.686-.377.743-.24-.137.417-.691zM24 27.206l.691.383a1.78 1.78 0 011.143-.903c.227-.071.466-.096.703-.074.206.016.403.087.571.206a.908.908 0 01.32.457c.069.226.057.468-.034.686a2.857 2.857 0 01-.571.794c.188.101.363.226.52.371a.983.983 0 01.234.394.761.761 0 01-.149.669c-.153.22-.38.376-.64.44a.996.996 0 01-.709 0 .721.721 0 01-.412-.485.773.773 0 01.04-.571c.131-.26.303-.497.509-.703l-1.377-.766a2.7 2.7 0 00-.034.817h-.349a2.738 2.738 0 01.114-.994l-.72-.4.149-.32zm.994.571l1.514.84c.198-.189.363-.412.486-.657a.723.723 0 000-.514.618.618 0 00-.4-.429 1.143 1.143 0 00-.731 0 1.377 1.377 0 00-.891.743l.023.017zm2.149 2.286a.524.524 0 00.046-.422.7.7 0 00-.183-.297 2.452 2.452 0 00-.474-.314 2.962 2.962 0 00-.451.571.576.576 0 00-.046.423.482.482 0 00.251.302.637.637 0 00.451 0 .68.68 0 00.383-.269l.023.006zM17.034 31.611l.08-4h.406l-.063 3.2 1.623-2.663h.2l1.52 2.709.057-3.183h.406l-.074 4h-.349l-1.68-2.989-1.777 2.931-.349-.006zM15.046 27.429a1.953 1.953 0 01.52 1.977 2.027 2.027 0 01-.543.931 1.92 1.92 0 01-.92.503 2.217 2.217 0 01-1.109-.034 2.155 2.155 0 01-.96-.52 1.92 1.92 0 01-.531-.903 2.111 2.111 0 01.572-2.012c.25-.249.561-.427.903-.514a2.205 2.205 0 011.103.034c.363.092.696.277.966.537zm-1.949-.2c-.28.065-.535.208-.737.411a1.65 1.65 0 00-.434.76c-.08.286-.08.588 0 .874.067.278.212.532.417.731.215.21.481.362.771.44.291.074.595.074.886 0a1.63 1.63 0 00.743-.411c.209-.21.359-.473.434-.76.08-.288.08-.592 0-.88a1.598 1.598 0 00-.423-.731 1.71 1.71 0 00-.777-.434 1.643 1.643 0 00-.88 0zM8.771 24.571l.154 1.571c.098.042.193.09.286.143l.931.537.629-1.109.371.211-2 3.446-1.303-.749a1.813 1.813 0 01-.857-.914 1.255 1.255 0 01.126-1.086c.133-.25.343-.451.6-.571.261-.108.549-.13.823-.063l-.166-1.68.406.263zm-.651 1.806a1.036 1.036 0 00-.642.486 1.021 1.021 0 00-.095.8c.134.296.366.536.657.68l.92.531 1-1.714-.92-.531a1.413 1.413 0 00-.92-.28v.029zM5.389 21.892l.257-.257 1.971 2.029-2.857 2.789-1.903-1.966.263-.257 1.617 1.663.977-.989-1.417-1.474.274-.263 1.446 1.486 1.063-1.034-1.691-1.726zM1.143 19.646l.137-.789.269.04-.154.811.76-.28.091.251-.771.263.634.537-.183.206-.611-.571-.143.811-.274-.051.16-.811-.766.274-.086-.223.766-.269-.634-.531.189-.206.617.537z"/></symbol>
<symbol id="menu" viewBox="0 0 32 32"><path d="M6.4 11.733V9.6h19.2v2.133H6.4zm0 5.334h19.2v-2.133H6.4v2.133zm0 5.333h19.2v-2.133H6.4V22.4z"/></symbol>
<symbol id="close-menu" viewBox="0 0 32 32"><path d="M23.733 10.304L22.229 8.8l-5.963 5.963L10.303 8.8l-1.504 1.504 5.963 5.963-5.963 5.963 1.504 1.504 5.963-5.963 5.963 5.963 1.504-1.504-5.963-5.963 5.963-5.963z"/></symbol>
<symbol id="icon-mail" viewBox="0 0 32 32">
<path fill="none" stroke="#9da4bd" style="stroke: var(--color1, #9da4bd)" stroke-linejoin="round" stroke-linecap="round" stroke-miterlimit="4" stroke-width="1.3333" d="M6.4 6.667h19.2c1.32 0 2.4 1.050 2.4 2.333v14c0 1.283-1.080 2.333-2.4 2.333h-19.2c-1.32 0-2.4-1.050-2.4-2.333v-14c0-1.283 1.080-2.333 2.4-2.333z"></path>
<path fill="none" stroke="#9da4bd" style="stroke: var(--color1, #9da4bd)" stroke-linejoin="round" stroke-linecap="round" stroke-miterlimit="4" stroke-width="1.3333" d="M26.667 9.333l-10.667 8-10.667-8"></path>
</symbol>
<symbol id="icon-map-pin" viewBox="0 0 32 32">
<path fill="none" stroke="#9da4bd" style="stroke: var(--color1, #9da4bd)" stroke-linejoin="round" stroke-linecap="round" stroke-miterlimit="4" stroke-width="1.3333" d="M26.667 13.818c0 7.636-10.667 14.182-10.667 14.182s-10.667-6.545-10.667-14.182c0-5.422 4.776-9.818 10.667-9.818s10.667 4.396 10.667 9.818v0z"></path>
<path fill="none" stroke="#9da4bd" style="stroke: var(--color1, #9da4bd)" stroke-linejoin="round" stroke-linecap="round" stroke-miterlimit="4" stroke-width="1.3333" d="M16 18.667c2.209 0 4-1.791 4-4s-1.791-4-4-4-4 1.791-4 4c0 2.209 1.791 4 4 4z"></path>
</symbol>
<symbol id="icon-phone" viewBox="0 0 32 32">
<path fill="none" stroke="#9da4bd" style="stroke: var(--color1, #9da4bd)" stroke-linejoin="round" stroke-linecap="round" stroke-miterlimit="4" stroke-width="1.3333" d="M26.666 21.337v3.218c0.002 0.604-0.25 1.181-0.695 1.589s-1.042 0.61-1.643 0.556c-3.301-0.359-6.471-1.487-9.257-3.293-2.592-1.647-4.789-3.844-6.436-6.436-1.813-2.798-2.941-5.984-3.293-9.3-0.054-0.6 0.146-1.195 0.552-1.639s0.98-0.698 1.582-0.699h3.218c1.077-0.011 1.995 0.779 2.145 1.845 0.136 1.030 0.388 2.041 0.751 3.014 0.295 0.784 0.106 1.668-0.483 2.263l-1.362 1.362c1.527 2.685 3.75 4.909 6.436 6.436l1.362-1.362c0.596-0.589 1.479-0.777 2.263-0.483 0.973 0.363 1.984 0.615 3.014 0.751 1.079 0.152 1.872 1.088 1.845 2.177z"></path>
</symbol>
<symbol id="icon-facebook-1" viewBox="0 0 32 32">
<path d="M21.329 5.313h2.921v-5.088c-0.504-0.069-2.237-0.225-4.256-0.225-4.212 0-7.097 2.649-7.097 7.519v4.481h-4.648v5.688h4.648v14.312h5.699v-14.311h4.46l0.708-5.688h-5.169v-3.919c0.001-1.644 0.444-2.769 2.735-2.769z"></path>
</symbol>
<symbol id="icon-instagram-1" viewBox="0 0 32 32">
<path d="M31.969 9.408c-0.075-1.7-0.35-2.869-0.744-3.882-0.406-1.075-1.032-2.038-1.851-2.838-0.8-0.813-1.769-1.444-2.832-1.844-1.019-0.394-2.182-0.669-3.882-0.744-1.713-0.081-2.257-0.1-6.601-0.1s-4.888 0.019-6.595 0.094c-1.7 0.075-2.869 0.35-3.882 0.744-1.075 0.406-2.038 1.031-2.838 1.85-0.813 0.8-1.444 1.769-1.844 2.832-0.394 1.019-0.669 2.182-0.744 3.882-0.081 1.713-0.1 2.257-0.1 6.601s0.019 4.888 0.094 6.595c0.075 1.7 0.35 2.869 0.744 3.882 0.406 1.075 1.038 2.038 1.85 2.838 0.8 0.813 1.769 1.444 2.832 1.844 1.019 0.394 2.182 0.669 3.882 0.744 1.706 0.075 2.25 0.094 6.595 0.094s4.888-0.019 6.595-0.094c1.7-0.075 2.869-0.35 3.882-0.744 2.151-0.832 3.851-2.532 4.682-4.682 0.394-1.019 0.669-2.182 0.744-3.882 0.075-1.707 0.094-2.251 0.094-6.595s-0.006-4.888-0.081-6.595zM29.087 22.473c-0.069 1.563-0.331 2.407-0.55 2.969-0.538 1.394-1.644 2.5-3.038 3.038-0.563 0.219-1.413 0.481-2.969 0.55-1.688 0.075-2.194 0.094-6.464 0.094s-4.782-0.019-6.464-0.094c-1.563-0.069-2.407-0.331-2.969-0.55-0.694-0.256-1.325-0.663-1.838-1.194-0.531-0.519-0.938-1.144-1.194-1.838-0.219-0.563-0.481-1.413-0.55-2.969-0.075-1.688-0.094-2.194-0.094-6.464s0.019-4.782 0.094-6.464c0.069-1.563 0.331-2.407 0.55-2.969 0.256-0.694 0.663-1.325 1.2-1.838 0.519-0.531 1.144-0.938 1.838-1.194 0.563-0.219 1.413-0.481 2.969-0.55 1.688-0.075 2.194-0.094 6.464-0.094 4.276 0 4.782 0.019 6.464 0.094 1.563 0.069 2.407 0.331 2.969 0.55 0.694 0.256 1.325 0.662 1.838 1.194 0.531 0.519 0.938 1.144 1.194 1.838 0.219 0.563 0.481 1.413 0.55 2.969 0.075 1.688 0.094 2.194 0.094 6.464s-0.019 4.77-0.094 6.458z"></path>
<path d="M16.059 7.783c-4.538 0-8.22 3.682-8.22 8.22s3.682 8.22 8.22 8.22c4.539 0 8.22-3.682 8.22-8.22s-3.682-8.22-8.22-8.22zM16.059 21.335c-2.944 0-5.332-2.388-5.332-5.332s2.388-5.332 5.332-5.332c2.944 0 5.332 2.388 5.332 5.332s-2.388 5.332-5.332 5.332z"></path>
<path d="M26.524 7.458c0 1.060-0.859 1.919-1.919 1.919s-1.919-0.859-1.919-1.919c0-1.060 0.859-1.919 1.919-1.919s1.919 0.859 1.919 1.919z"></path>
</symbol>
<symbol id="icon-linkedin-1" viewBox="0 0 32 32">
<path d="M31.992 32v-0.001h0.008v-11.736c0-5.741-1.236-10.164-7.948-10.164-3.227 0-5.392 1.771-6.276 3.449h-0.093v-2.913h-6.364v21.364h6.627v-10.579c0-2.785 0.528-5.479 3.977-5.479 3.399 0 3.449 3.179 3.449 5.657v10.401h6.62z"></path>
<path d="M0.528 10.636h6.635v21.364h-6.635v-21.364z"></path>
<path d="M3.843 0c-2.121 0-3.843 1.721-3.843 3.843s1.721 3.879 3.843 3.879c2.121 0 3.843-1.757 3.843-3.879-0.001-2.121-1.723-3.843-3.843-3.843v0z"></path>
</symbol>
<symbol id="icon-twitter-1" viewBox="0 0 32 32">
<path d="M32 6.078c-1.19 0.522-2.458 0.868-3.78 1.036 1.36-0.812 2.398-2.088 2.886-3.626-1.268 0.756-2.668 1.29-4.16 1.588-1.204-1.282-2.92-2.076-4.792-2.076-3.632 0-6.556 2.948-6.556 6.562 0 0.52 0.044 1.020 0.152 1.496-5.454-0.266-10.28-2.88-13.522-6.862-0.566 0.982-0.898 2.106-0.898 3.316 0 2.272 1.17 4.286 2.914 5.452-1.054-0.020-2.088-0.326-2.964-0.808 0 0.020 0 0.046 0 0.072 0 3.188 2.274 5.836 5.256 6.446-0.534 0.146-1.116 0.216-1.72 0.216-0.42 0-0.844-0.024-1.242-0.112 0.85 2.598 3.262 4.508 6.13 4.57-2.232 1.746-5.066 2.798-8.134 2.798-0.538 0-1.054-0.024-1.57-0.090 2.906 1.874 6.35 2.944 10.064 2.944 12.072 0 18.672-10 18.672-18.668 0-0.29-0.010-0.57-0.024-0.848 1.302-0.924 2.396-2.078 3.288-3.406z"></path>
</symbol>
</defs>
</svg>