<svg aria-hidden="true" style="position: absolute; width: 0; height: 0; overflow: hidden;" version="1.1" xmlns="http://www.w3.org/2000/svg" xmlns:xlink="http://www.w3.org/1999/xlink">
<defs>
<symbol id="icon-Arrow_left" viewBox="0 0 54 32">
<path d="M52 14c1.105 0 2 0.895 2 2s-0.895 2-2 2v-4zM0.586 17.414c-0.781-0.781-0.781-2.047 0-2.828l12.728-12.728c0.781-0.781 2.047-0.781 2.828 0s0.781 2.047 0 2.828l-11.314 11.314 11.314 11.314c0.781 0.781 0.781 2.047 0 2.828s-2.047 0.781-2.828 0l-12.728-12.728zM52 18h-50v-4h50v4z"></path>
</symbol>
<symbol id="icon-Arrow_right" viewBox="0 0 54 32">
<path d="M2 14c-1.105 0-2 0.895-2 2s0.895 2 2 2v-4zM53.414 17.414c0.781-0.781 0.781-2.047 0-2.828l-12.728-12.728c-0.781-0.781-2.047-0.781-2.828 0s-0.781 2.047 0 2.828l11.314 11.314-11.314 11.314c-0.781 0.781-0.781 2.047 0 2.828s2.047 0.781 2.828 0l12.728-12.728zM2 18h50v-4h-50v4z"></path>
</symbol>
<symbol id="icon-Audio-Book" viewBox="0 0 39 32">
<path d="M3.048 29.453h12.23c0.62 1.285 1.917 2.116 3.38 2.116h0.772c1.465 0 2.761-0.83 3.381-2.116h12.237c1.26 0 2.286-1.025 2.286-2.286v-21.905c0-1.26-1.025-2.286-2.286-2.286h-1.234v-1.021c0-0.84-0.684-1.524-1.524-1.524h-26.491c-0.84 0-1.524 0.683-1.524 1.524v1.021h-1.227c-1.26 0-2.286 1.025-2.286 2.286v21.905c0 1.26 1.025 2.286 2.286 2.286zM32.288 24.752h-12.478v-17.705c2.884 0.377 5.121 2.845 5.121 5.831v0.687l-0.181-0.040c-0.196-0.042-0.403-0.007-0.574 0.102s-0.291 0.281-0.334 0.478l-1.213 5.519c-0.090 0.41 0.17 0.816 0.58 0.907l2.621 0.578c0.135 0.029 0.273 0.043 0.411 0.043 0.922 0 1.707-0.631 1.908-1.535l0.702-3.192c0.231-1.048-0.433-2.090-1.484-2.324l-0.912-0.201v-1.023c0-3.827-2.917-6.986-6.644-7.37v-3.551h12.48l-0.002 22.796zM25.166 15.177l1.871 0.412c0.234 0.052 0.376 0.275 0.325 0.508l-0.702 3.191c-0.051 0.231-0.306 0.374-0.507 0.331l-1.874-0.413 0.886-4.030zM5.798 1.956h12.487v3.55c-3.731 0.381-6.652 3.541-6.652 7.371v1.022l-0.914 0.202c-0.509 0.113-0.943 0.416-1.222 0.854-0.281 0.439-0.373 0.961-0.26 1.468l0.7 3.188c0.19 0.892 0.993 1.54 1.909 1.54 0.138 0 0.275-0.015 0.416-0.045l2.61-0.577c0.41-0.091 0.67-0.496 0.58-0.907l-1.213-5.519c-0.043-0.198-0.164-0.37-0.334-0.478s-0.378-0.144-0.574-0.102l-0.174 0.038v-0.686c0-2.988 2.24-5.458 5.128-5.832v17.706h-12.487v-22.796zM12.916 15.177l0.887 4.029-1.863 0.411c-0.229 0.052-0.463-0.1-0.512-0.328l-0.702-3.196c-0.025-0.111-0.005-0.224 0.055-0.319 0.061-0.096 0.157-0.162 0.268-0.187l1.867-0.412zM2.286 5.262c0-0.42 0.342-0.762 0.762-0.762h1.227v20.252c0 0.84 0.684 1.524 1.524 1.524h26.491c0.84 0 1.524-0.683 1.524-1.524v-20.252h1.234c0.42 0 0.762 0.342 0.762 0.762v21.905c0 0.42-0.342 0.762-0.762 0.762h-12.754c-0.335 0-0.63 0.218-0.728 0.538-0.289 0.943-1.147 1.577-2.135 1.577h-0.772c-0.984 0-1.841-0.631-2.138-1.586-0.101-0.315-0.394-0.529-0.725-0.529h-12.747c-0.42 0-0.762-0.342-0.762-0.762v-21.905z"></path>
</symbol>
<symbol id="icon-Campfire" viewBox="0 0 24 32">
<path d="M22.611 16.116c-0.275-0.617-0.655-1.224-1.21-1.926-1.4-1.761-1.827-5.689-1.831-5.726-0.019-0.188-0.152-0.344-0.327-0.4-0.18-0.057-0.375-0.005-0.503 0.137-1.67 1.87-0.968 4.756-0.588 5.91 0.104 0.316 0.218 0.688 0.299 1.064 0.617 3.047-0.574 4.427-0.854 4.704-0.27 0.075-0.455 0.038-0.626-0.146-0.588-0.645-0.783-2.76-0.508-5.514 0.057-0.56 0.043-1.064-0.038-1.535-0.58-3.386-2.708-5.558-3.25-6.32-1.49-2.204-1.642-5.872-1.646-5.905-0.005-0.174-0.104-0.33-0.261-0.405-0.152-0.075-0.337-0.066-0.479 0.033-2.486 1.691-2.273 5.764-1.926 8.039 0.081 0.527 0.237 1.064 0.508 1.742 0.963 2.425-0.19 5.557-0.199 5.585s-0.019 0.052-0.024 0.080c-0.147 0.772-0.394 1.234-0.669 1.234-0.028 0-0.057-0.005-0.090-0.014-0.337-0.071-0.512-0.428-0.517-0.739-0.019-4.017-4.047-5.368-4.090-5.383-0.18-0.056-0.38-0.005-0.503 0.141-0.128 0.146-0.152 0.348-0.066 0.518 0.047 0.099 0.199 0.532 0.095 2.063-0.090 1.375-0.342 2.736-0.745 4.040-0.958 3.127-0.807 6.089-0.797 6.23 0.737 8.020 12.262 9.425 19.102 4.907 0.75-0.494 1.362-1.060 1.812-1.681 2.524-3.485 1.039-8.218-0.066-10.732zM5.080 23.778c0.014 0.259-0.185 0.48-0.446 0.494h-0.028c-0.251 0-0.46-0.193-0.474-0.443-0.043-0.688-0.033-1.408 0.019-2.19 0.019-0.259 0.247-0.452 0.508-0.438 0.261 0.019 0.46 0.245 0.441 0.504-0.052 0.744-0.062 1.422-0.019 2.072zM5.312 19.605c-0.028 0.24-0.232 0.414-0.47 0.414-0.019 0-0.038 0-0.062-0.005-0.256-0.033-0.441-0.264-0.413-0.523l0.228-1.818c0.033-0.254 0.266-0.438 0.531-0.41 0.261 0.033 0.446 0.268 0.413 0.528l-0.228 1.813z"></path>
<path d="M19.321 6.438c-0.259-0.040-0.436-0.28-0.396-0.536 0.030-0.191 0.201-1.17 0.666-1.662 0.179-0.19 0.479-0.2 0.671-0.021s0.201 0.475 0.021 0.665c-0.197 0.208-0.365 0.805-0.421 1.162-0.040 0.254-0.279 0.432-0.541 0.393z"></path>
<path d="M2.071 8.782c-0.091-0.35-0.316-0.927-0.533-1.115-0.197-0.171-0.217-0.469-0.044-0.664s0.471-0.216 0.669-0.044c0.511 0.445 0.778 1.402 0.826 1.589 0.065 0.252-0.088 0.508-0.341 0.572-0.259 0.065-0.513-0.091-0.577-0.338z"></path>
</symbol>
<symbol id="icon-close" viewBox="0 0 32 32">
<path stroke-linejoin="miter" stroke-linecap="butt" stroke-miterlimit="4" stroke-width="3.7647" d="M1.882 29.168l27.286-27.286"></path>
<path stroke-linejoin="miter" stroke-linecap="butt" stroke-miterlimit="4" stroke-width="3.7647" d="M29.168 29.168l-27.286-27.286"></path>
</symbol>
<symbol id="icon-Female_Student" viewBox="0 0 27 32">
<path d="M-0.103 31.759c3.441 0 23.348 0 26.785 0 0.133-3.055-0.086-8.122-1.964-10.535l-0.068-0.087-4.104-2.060c0.089-0.301 0.133-0.576 0.151-0.778 0.020-0.243-0.013-0.471-0.1-0.678-0.677-1.62-2.11-2.472-2.898-2.836 0.24-0.484 0.395-1.003 0.47-1.534 0.446-0.126 0.805-0.479 0.923-0.951l0.479-1.946c0.085-0.343 0.032-0.699-0.151-1.002-0.079-0.131-0.18-0.24-0.294-0.334 1.351-3.068-0.911-5.96-1.035-6.113-2.45-2.649-5.545-2.153-5.708-2.124-4.466 0.935-6.19 4.358-5.217 8.372-0.288 0.319-0.409 0.764-0.302 1.2l0.481 1.948c0.117 0.468 0.473 0.82 0.916 0.948 0.137 0.972 0.548 1.851 1.152 2.559v1.543c-6.409 3.282-2.348 1.188-7.484 3.786-0.010 0.048-2.41 2.599-2.053 10.159l0.022 0.462zM25.751 30.789h-4.408v-1.852l2.916-6.675c1.461 2.424 1.515 7.053 1.493 8.526zM19.735 18.216c-0.17 1.954-1.242 1.364-1.903 2.869-0.52-0.572-0.677-1.258-0.537-1.993 0.253-1.349-0.57-1.749-0.367-3.166l0.031-0.032v-0.005c0.017-0.020 0.18-0.213 0.227-0.274 1.744 0.76 2.584 2.174 2.55 2.6zM10.379 16.68c0.81 0.562 1.787 0.893 2.838 0.893 0.99 0 1.93-0.288 2.736-0.819 0.112 1.114 0.547 1.337 0.393 2.157-0.029 0.152-0.045 0.302-0.054 0.45l-3.002 3.384-3.838-4.327 0.926-0.484v-1.254zM9.172 12.54v-1.876c0-0.691 0-3.431 0-3.296 0.467-0.864 1.104-1.491 1.896-1.866 2.12 1.2 4.56 2.99 6.197 4.791-0.002 2.294 0.006 2.301-0.009 2.489l-0.001 0.012c-0.128 2.083-1.841 3.811-4.038 3.811-2.136 0-3.909-1.677-4.037-3.831-0.007-0.077-0.008-0.155-0.008-0.233zM8.574 18.886l4.716 5.317 3.166-3.569c0.072 0.208 0.174 0.405 0.29 0.595l-3.456 4.322-5.154-6.446 0.438-0.22zM18.23 11.759v-1.498c0.042-0.049 0.402-0.461 0.36-0.413 0.020 0.758 0.102-0.137-0.36 1.911zM12.562 1.734c0.192 0.012 2.765-0.391 4.799 1.804 0.080 0.1 1.736 2.234 1.071 4.567-0.228-1.038-0.625-2.369-1.252-3.004l-0.686 0.683c0.619 0.627 1.026 2.537 1.181 3.527-2.84-2.972-6.504-4.853-6.555-4.885-0.184 0.114-1.734 0.409-2.86 2.598l-0.054 0.105v1.607c-0.048 0.001-0.19 0.002-0.142 0.002-0.715-3.454 0.655-6.198 4.497-7.004zM7.962 9.736l0.244 0.987v1.038l-0.405-1.639c-0.059-0.244 0.122-0.337 0.161-0.386zM7.252 19.55l6.037 7.551 4.085-5.109c0.444 0.398 0.658 0.454 1.6 0.939l-0.318-1.078c-0.081-0.274 0.239-0.713 0.431-0.914 0.43-0.233 0.789-0.566 1.058-0.977l3.333 1.674-3.101 7.1v2.055h-14.176v-2.055l-3.103-7.099 4.153-2.085zM2.32 22.265l2.916 6.673v1.852h-4.408c-0.022-1.473 0.033-6.099 1.492-8.524z"></path>
</symbol>
<symbol id="icon-Group" viewBox="0 0 33 32">
<path d="M1.993 12.558v2.831c0 0.152 0.070 0.295 0.189 0.39 1.935 1.523 4.363 2.362 6.837 2.362 0.74 0 1.482-0.077 2.206-0.224 1.544 0.683 3.188 1.032 4.89 1.032 1.707 0 3.351-0.349 4.89-1.032 3.091 0.624 6.384-0.046 9.042-2.138 0.12-0.094 0.189-0.238 0.189-0.39v-2.831c0-0.416-0.206-0.794-0.575-1.027l-3.867-2.176c0.846-1.073 1.476-2.602 1.586-3.913 0.321-2.256-1.518-4.646-4.165-4.646-1.113 0-2.171 0.458-2.948 1.227-0.027 0.027-0.058 0.049-0.084 0.076-0.024 0.025-0.043 0.054-0.067 0.080-0.016 0.017-0.029 0.036-0.044 0.053-0.757-1.38-2.211-2.232-3.924-2.232-0.166 0-0.33 0.011-0.492 0.028-0.010-0.001-0.018-0.006-0.028-0.006-0.092 0-0.287 0.024-0.391 0.054-0.015 0.004-0.026 0.015-0.041 0.021-1.279 0.259-2.363 1.034-3.013 2.156-0.781-0.911-1.93-1.457-3.179-1.457-3.908 0-5.642 4.612-2.557 8.581l-3.903 2.167c-0.346 0.219-0.553 0.598-0.553 1.014zM20.996 16.828c-0.084 0.041-0.167 0.085-0.251 0.123l-0 0c-0.001 0-0.001 0.001-0.002 0.001-1.452 0.667-3.009 1.006-4.627 1.006-1.613 0-3.17-0.338-4.629-1.007-0.71-0.323-1.397-0.734-2.045-1.221v-2.87c0-0.098 0.047-0.184 0.102-0.221l4.542-2.524c0.565 0.48 1.287 0.832 2.035 0.832 0.721 0 1.499-0.357 2.052-0.843l4.487 2.52c0.083 0.053 0.13 0.139 0.13 0.237v2.87c-0.571 0.429-1.173 0.795-1.794 1.098zM29.154 12.382c0.059 0.037 0.092 0.101 0.092 0.176v2.587c-1.969 1.477-4.337 2.148-6.737 1.98 0.369-0.23 0.771-0.516 1.083-0.76 0.12-0.094 0.19-0.238 0.19-0.39v-3.114c0-0.435-0.218-0.835-0.61-1.087l-2.383-1.339 0.58-0.321c0.703 0.573 1.307 0.744 1.848 0.744 0.662 0 1.36-0.325 1.878-0.759l4.060 2.284zM23.216 1.788c1.38 0 2.593 0.902 3.021 2.142-0.833-0.099-1.647-0.51-2.237-1.142-0.107-0.114-0.258-0.173-0.415-0.155-0.155 0.016-0.293 0.105-0.373 0.239-0.566 0.948-1.493 1.58-2.548 1.76 0-0.001-0-0.002-0-0.003 0.005-0.216-0.008-0.434-0.033-0.653-0.003-0.022-0.005-0.044-0.007-0.067-0.032-0.248-0.107-0.559-0.122-0.609 0.563-0.902 1.609-1.513 2.713-1.513zM20.556 5.644c1.253-0.137 2.386-0.767 3.164-1.762 0.767 0.629 1.74 1.010 2.702 1.056-0.007 1.792-1.471 4.927-3.206 4.927-1.337 0-2.479-1.912-2.905-3.238 0.108-0.341 0.187-0.669 0.245-0.983zM20.657 9.373l-0.886 0.491-0.895-0.502c0.332-0.413 0.636-0.893 0.896-1.413 0.25 0.526 0.55 1.010 0.884 1.425zM19.32 6.465c-0.478 1.427-1.705 3.49-3.199 3.49-1.742 0-3.226-2.864-3.509-4.696 0.075-0.019 2.43 0.126 4.050-2.001 0.822 0.688 1.932 1.143 3.011 1.188 0.013 0.647-0.144 1.406-0.352 2.018zM16.15 0.992c2.78 0 3.309 2.392 3.352 2.442-1.008-0.102-1.928-0.596-2.563-1.276-0.107-0.114-0.262-0.171-0.416-0.154-0.155 0.017-0.293 0.106-0.373 0.241-0.551 0.932-1.414 1.589-2.414 1.868-0.386 0.108-0.803 0.157-1.166 0.154 0.136-1.822 1.596-3.274 3.58-3.274zM12.461 7.938c0.257 0.515 0.563 1.006 0.913 1.438l-0.875 0.487-0.907-0.51c0.344-0.438 0.636-0.929 0.87-1.415zM9.006 1.788c1.125 0 2.155 0.571 2.729 1.514-0.029 0.1-0.106 0.498-0.117 0.548-0.69-0.165-1.324-0.533-1.821-1.062-0.107-0.114-0.258-0.17-0.416-0.154-0.155 0.017-0.293 0.106-0.372 0.24-0.663 1.119-1.881 1.815-3.177 1.815 0.158-1.627 1.518-2.9 3.174-2.9zM5.876 5.678c1.425-0.014 2.77-0.686 3.643-1.796 0.596 0.491 1.303 0.813 2.055 0.961 0.029 0.575 0.179 1.273 0.35 1.789-0.274 0.84-0.799 1.841-1.451 2.505-0.004 0.004-0.010 0.006-0.014 0.010-0.408 0.43-0.988 0.719-1.444 0.719-1.594 0-2.841-2.508-3.14-4.188zM2.985 12.558c0-0.075 0.033-0.139 0.067-0.162l4.116-2.284c0.247 0.206 0.304 0.229 0.353 0.265l-0 0c0.484 0.322 0.928 0.482 1.534 0.482 0.645 0 1.232-0.273 1.749-0.694 0.029-0.023 0.060-0.045 0.088-0.068l0.587 0.33-2.446 1.361c-0.366 0.236-0.584 0.636-0.584 1.071v3.114c0 0.152 0.070 0.296 0.19 0.39 0.317 0.249 0.727 0.539 1.083 0.761-2.434 0.166-4.803-0.528-6.737-1.98v-2.587z"></path>
<path d="M31.259 20.781c-0.61-0.383-1.361-0.423-2.007-0.11l-6.119 2.956c-0.021-1.145-0.956-2.071-2.107-2.071l-3.509 0.001c-1.73-1.504-3.941-2.425-5.952-2.473-1.983-0.047-3.763-0.060-4.593-0.064v-1.002h-6.972v11.517h6.972v-1.379c1.912 1.097 6.939 3.845 9.325 3.845 0.054 0 0.107-0.001 0.158-0.004 4.196-0.235 14.091-7.198 14.743-7.661 0.638-0.37 1.034-1.056 1.034-1.796 0-0.719-0.364-1.376-0.973-1.758zM5.98 28.542h-4.988v-9.533h4.988v9.533zM30.687 23.484c-0.015 0.008-0.030 0.017-0.044 0.028-0.102 0.073-10.281 7.271-14.244 7.494-0.039 0.002-0.079 0.003-0.121 0.003-2.092 0-7.194-2.753-9.307-4.001v-6.997c0.827 0.004 2.597 0.017 4.569 0.064 1.837 0.044 3.876 0.921 5.456 2.346l0.141 0.128 3.887-0.001c0.617 0 1.119 0.502 1.119 1.119s-0.502 1.119-1.119 1.119h-7.142v0.992h7.142c0.684 0 1.288-0.333 1.674-0.839l6.984-3.373c0.343-0.167 0.725-0.146 1.049 0.057s0.508 0.537 0.508 0.918c0 0.391-0.212 0.753-0.553 0.945z"></path>
<path d="M16.612 12.159h-0.992v0.92h0.992v-0.92z"></path>
<path d="M16.612 13.992h-0.992v0.92h0.992v-0.92z"></path>
<path d="M16.612 15.826h-0.992v0.92h0.992v-0.92z"></path>
</symbol>
<symbol id="icon-insurance" viewBox="0 0 27 32">
<path d="M0.529 13.797c0 0.348-0.529 0.348-0.529 0 0-7.403 6.004-13.407 13.407-13.407 7.406 0 13.407 6.004 13.407 13.407 0 0.348-0.525 0.348-0.525 0 0-5.004-8.223-5.007-8.223 0 0 0.348-0.541 0.348-0.541 0 0-4.991-8.235-4.991-8.235 0 0 0.348-0.541 0.348-0.541 0 0-4.982-8.219-5.017-8.219 0zM8.796 11.854c0.142-2.88 0.595-5.463 1.253-7.435 0.525-1.567 1.19-2.757 1.943-3.425-5.653 0.617-10.229 4.903-11.252 10.46 1.946-2.807 6.441-2.583 8.055 0.399zM17.483 11.724c-0.146-2.769-0.586-5.248-1.218-7.137-1.633-4.89-4.083-4.89-5.716 0-0.633 1.889-1.070 4.368-1.219 7.137 1.757-2.985 6.396-2.985 8.153 0zM26.073 11.455c-1.019-5.558-5.596-9.843-11.252-10.46 0.756 0.668 1.418 1.858 1.943 3.425 0.658 1.972 1.111 4.554 1.253 7.435 1.624-2.997 6.131-3.175 8.055-0.399z"></path>
<path d="M11.647 19.932v-2.722c-0.491 0.326-0.877 0.829-0.877 1.444 0 0.598 0.393 0.994 0.877 1.279zM12.176 20.777c-0.94-0.431-1.931-0.934-1.931-2.124 0-1.228 0.934-1.842 1.931-2.301v4.426z"></path>
<path d="M15.167 24.039v2.754c0.497-0.329 0.886-0.835 0.886-1.45 0-0.605-0.399-1.013-0.886-1.304zM14.641 23.191c0.943 0.437 1.94 0.956 1.94 2.152 0 1.231-0.94 1.845-1.94 2.301v-4.453z"></path>
<path d="M15.167 14.111c2.165 0.5 4.39 2.121 4.39 4.542 0 2.073-3.504 1.997-3.504 0 0-0.617-0.389-1.124-0.886-1.45v3.874c2.003 0.655 4.396 1.829 4.396 4.267 0 2.424-2.225 4.042-4.396 4.539-0.010 2.307-3.513 2.304-3.519-0.003-1.234-0.285-2.307-0.861-3.083-1.624-0.813-0.804-1.295-1.814-1.295-2.912 0-2.042 3.5-2.042 3.5 0 0 0.611 0.386 1.114 0.877 1.44v-3.871c-1.988-0.643-4.393-1.852-4.393-4.267 0-2.424 2.225-4.042 4.393-4.539 0.009-2.307 3.513-2.304 3.519 0.003zM12.176 14.117v0.421c-2.060 0.408-4.396 1.728-4.396 4.108 0 2.288 2.564 3.314 4.396 3.88v5.115c-0.991-0.453-1.931-1.064-1.931-2.298 0-1.348-2.45-1.348-2.45 0 0 0.953 0.424 1.833 1.139 2.535 0.908 0.899 2.010 1.326 3.241 1.57v0.424c0 1.624 2.466 1.624 2.466 0v-0.421c2.067-0.411 4.393-1.731 4.393-4.108 0-2.31-2.557-3.304-4.393-3.884v-5.112c0.994 0.453 1.94 1.063 1.94 2.304 0 1.313 2.447 1.367 2.447 0 0-2.377-2.323-3.7-4.387-4.111v-0.424c0-1.624-2.466-1.624-2.466 0z"></path>
</symbol>
<symbol id="icon-Mobile_Learning" viewBox="0 0 33 32">
<path d="M30.175-0.128h-15.746c-1.025 0-1.859 0.834-1.859 1.859v6.518l-11.698 4.91c-0.132 0.056-0.222 0.181-0.233 0.324s0.061 0.28 0.184 0.354l1.492 0.893v9.515c-0.763 0.174-1.335 0.857-1.335 1.674v0.917c0 0.21 0.171 0.381 0.381 0.381h2.671c0.21 0 0.381-0.171 0.381-0.381v-0.917c0-0.816-0.573-1.498-1.336-1.673v-9.060l1.18 0.706c-0.036 0.272-0.005-0.474-0.017 4.43 0 1.612 4.129 2.476 8.33 2.525v7.425c0 0.384 0.117 0.74 0.318 1.036 0.334 0.494 0.9 0.82 1.54 0.82h15.746c1.024 0 1.857-0.833 1.857-1.857 0 0.051-0.002-1.573 0-28.54 0-1.011-0.836-1.859-1.856-1.859zM3.651 25.918v0.536h-1.909v-0.536c0-0.528 0.427-0.957 0.952-0.957 0.528 0 0.957 0.43 0.957 0.957zM30.175 31.364h-15.746c-0.378 0-0.712-0.191-0.909-0.482-0.118-0.175-0.187-0.385-0.187-0.612v-2.574h17.935v2.575c0 0.597-0.497 1.092-1.092 1.092zM31.267 26.935h-17.935v-4.086c2.051-0.023 8.335-0.475 8.335-2.527-0.002-3.081 0.005-4.33-0.010-4.436l3.421-2.049c0.123-0.074 0.194-0.211 0.184-0.354s-0.1-0.268-0.233-0.324l-11.698-4.91v-3.182h17.935v21.868zM12.951 17.792c-2.113 0-6.182 0.273-7.949 1.427 0.011-3.53-0.122-3.3 0.312-3.6 1.098-0.809 4.238-1.373 7.637-1.373 1.482 0 7.954 0.408 7.954 1.778v3.195c-1.784-1.165-5.832-1.428-7.954-1.428zM13.333 1.731c0-0.604 0.491-1.095 1.095-1.095h15.746c0.604 0 1.093 0.498 1.093 1.095v2.574h-17.935v-2.574zM12.951 8.915l11.090 4.655-2.748 1.644c-1.461-1.449-6.294-1.73-8.342-1.73-2.051 0-6.884 0.282-8.342 1.73l-2.749-1.645 11.091-4.655zM5.002 20.321c0-0.617 2.73-1.767 7.949-1.767 5.222 0 7.954 1.151 7.954 1.767s-2.732 1.768-7.954 1.768c-5.219 0-7.949-1.151-7.949-1.768z"></path>
<path d="M22.301 28.271c-0.695 0-1.26 0.565-1.26 1.26s0.565 1.26 1.26 1.26c0.695 0 1.26-0.565 1.26-1.26s-0.565-1.26-1.26-1.26zM22.301 30.030c-0.275 0-0.498-0.224-0.498-0.499s0.224-0.498 0.498-0.498c0.275 0 0.498 0.223 0.498 0.498s-0.223 0.499-0.498 0.499z"></path>
<path d="M23.754 2.090h-2.906v0.762h2.906v-0.762z"></path>
</symbol>
<symbol id="icon-open_book" viewBox="0 0 46 32">
<path d="M20.267 4.608h-13.64v1.021h13.64v-1.021z"></path>
<path d="M20.267 8.416h-11.597v1.021h11.597v-1.021z"></path>
<path d="M20.267 12.224h-13.64v1.021h13.64v-1.021z"></path>
<path d="M20.267 16.032h-11.597v1.021h11.597v-1.021z"></path>
<path d="M20.267 19.84h-13.64v1.021h13.64v-1.021z"></path>
<path d="M20.267 23.648h-11.597v1.021h11.597v-1.021z"></path>
<path d="M38.99 4.608h-13.64v1.021h13.64v-1.021z"></path>
<path d="M36.947 8.416h-11.597v1.021h11.597v-1.021z"></path>
<path d="M38.99 12.224h-13.64v1.021h13.64v-1.021z"></path>
<path d="M36.947 16.032h-11.597v1.021h11.597v-1.021z"></path>
<path d="M38.99 19.84h-13.64v1.021h13.64v-1.021z"></path>
<path d="M36.947 23.648h-11.597v1.021h11.597v-1.021z"></path>
<path d="M43.915 3.445h-1.872v-2.812c0-0.282-0.229-0.511-0.511-0.511h-15.265c-1.49 0-2.781 0.805-3.458 2.011-0.678-1.206-1.97-2.011-3.459-2.011h-15.265c-0.282 0-0.511 0.229-0.511 0.511v2.812h-1.872c-0.282 0-0.511 0.229-0.511 0.511v27.411c0 0.282 0.229 0.511 0.511 0.511 5.127 0 37.068 0 42.213 0 0.282 0 0.511-0.229 0.511-0.511v-27.411c0-0.282-0.229-0.511-0.511-0.511zM26.267 1.144h14.754c0 4.573 0 16.619 0 27.35h-15.843c-0.702 0-1.405 0.296-1.859 0.68v-25.089c0-1.63 1.305-2.942 2.948-2.942zM4.596 1.144h14.754c1.597 0 2.889 1.243 2.942 2.829 0.001 0.022 0.003 0.091 0.006 0.112v25.087c-0.453-0.382-1.148-0.678-1.852-0.678h-15.85c0-10.728 0-22.779 0-27.35zM2.213 4.467h1.362v24.538c0 0.282 0.229 0.511 0.511 0.511h16.361c0.778 0 1.531 0.511 1.771 1.341h-20.005v-26.39zM43.404 30.856h-20.004c0.242-0.834 0.987-1.341 1.778-1.341h16.354c0.282 0 0.511-0.229 0.511-0.511v-24.538h1.362v26.39z"></path>
</symbol>
<symbol id="icon-phone" viewBox="0 0 32 32">
<path d="M4.657 0.002c-0.515 0.024-1.021 0.243-1.392 0.651l-2.595 2.852c0.004-0.008-0.010-0.007-0.084 0.097-0.039 0.054-0.070 0.113-0.090 0.176-1.056 3.364-0.348 7.064 1.376 10.584s4.475 6.888 7.633 9.651c3.158 2.764 6.721 4.926 10.119 5.999s6.692 1.058 9.133-0.713c0.026-0.020 0.051-0.041 0.075-0.065 0.064-0.064 0.066-0.072 0.056-0.062l0.010-0.012 2.582-2.84c0.742-0.816 0.682-2.098-0.134-2.84l-6.126-5.571c-0.816-0.742-2.098-0.683-2.84 0.133l-2.772 3.048c-2.25-0.652-4.173-1.756-6.023-3.439s-3.132-3.494-3.993-5.673l2.771-3.048c0.742-0.816 0.683-2.098-0.133-2.84l-6.126-5.571c-0.408-0.371-0.933-0.542-1.448-0.518l-0.001 0zM4.715 1.253c0.19-0.008 0.383 0.057 0.541 0.201l6.126 5.571c0.316 0.287 0.337 0.745 0.050 1.061l-3.063 3.366c-0.077 0.085-0.129 0.19-0.151 0.302s-0.013 0.229 0.027 0.337c0.93 2.537 2.429 4.618 4.493 6.495s4.275 3.174 6.889 3.859c0.111 0.029 0.228 0.027 0.339-0.005s0.21-0.095 0.287-0.18l3.064-3.367c0.287-0.315 0.744-0.336 1.060-0.049l6.127 5.571c0.316 0.287 0.336 0.744 0.049 1.060l-2.561 2.815c-2.003 1.438-4.826 1.519-7.986 0.521-3.173-1.002-6.617-3.076-9.666-5.744s-5.702-5.926-7.332-9.254c-1.614-3.294-2.199-6.624-1.312-9.559l2.502-2.75c0.143-0.158 0.33-0.242 0.52-0.251l0 0z"></path>
</symbol>
<symbol id="icon-study-program" viewBox="0 0 31 32">
<path d="M30.151 4.961c0-0.001-0.001-0.001-0.001-0.002-0.007-0.016-0.015-0.031-0.024-0.045-0.001-0.001-0.002-0.002-0.002-0.003-0.010-0.015-0.021-0.029-0.034-0.042l-4.806-4.806c-0.013-0.013-0.026-0.023-0.041-0.033-0.003-0.002-0.006-0.004-0.009-0.006-0.012-0.007-0.024-0.014-0.036-0.019-0.004-0.002-0.007-0.003-0.011-0.005-0.031-0.013-0.065-0.019-0.099-0.020-0.002 0-0.004-0-0.005-0h-21.172c-0.157 0-0.284 0.127-0.284 0.284v29.311c0 0.019 0.002 0.037 0.006 0.056 0.002 0.008 0.005 0.015 0.007 0.023 0.003 0.010 0.006 0.020 0.009 0.030 0.004 0.009 0.009 0.017 0.014 0.026 0.004 0.007 0.008 0.016 0.013 0.023 0.010 0.014 0.021 0.028 0.033 0.040 0.001 0.001 0.001 0.002 0.003 0.003l2.165 2.164c0.111 0.111 0.29 0.111 0.402 0l1.965-1.963 1.964 1.963c0.055 0.056 0.128 0.083 0.201 0.083s0.145-0.027 0.201-0.083l1.964-1.963 1.964 1.963c0.111 0.111 0.291 0.111 0.402 0l1.964-1.963 1.963 1.963c0.111 0.111 0.291 0.111 0.401 0l1.965-1.963 1.963 1.963c0.055 0.056 0.128 0.083 0.201 0.083s0.145-0.027 0.201-0.083l1.963-1.963 1.965 1.963c0.111 0.111 0.291 0.111 0.401 0l2.165-2.164c0.004-0.004 0.007-0.009 0.011-0.014 0.008-0.009 0.017-0.019 0.024-0.029 0.007-0.009 0.011-0.020 0.016-0.030 0.003-0.007 0.007-0.012 0.009-0.019 0.006-0.013 0.009-0.026 0.012-0.039 0.001-0.005 0.003-0.009 0.004-0.013 0.004-0.020 0.006-0.038 0.006-0.058v-24.503c-0.001-0.037-0.008-0.074-0.023-0.109zM25.367 0.949l3.836 3.835h-3.836v-3.835zM29.604 29.456l-1.88 1.88-1.965-1.963c-0.111-0.111-0.29-0.111-0.401 0l-1.963 1.963-1.963-1.963c-0.111-0.111-0.291-0.111-0.402 0l-1.965 1.963-1.963-1.962c0-0-0-0.001-0-0.001-0.055-0.055-0.128-0.083-0.201-0.083s-0.145 0.028-0.201 0.083c-0 0-0 0-0 0l-1.963 1.963-1.964-1.963c-0.111-0.111-0.29-0.111-0.402 0l-1.963 1.963-1.964-1.963c-0.111-0.111-0.29-0.111-0.402 0l-1.965 1.963-1.88-1.88v-28.909h20.603v4.522c0 0.157 0.127 0.284 0.284 0.284h4.521l0 24.103z"></path>
<path d="M6.314 3.234h9.303c0.157 0 0.284-0.127 0.284-0.284s-0.127-0.284-0.284-0.284h-9.303c-0.157 0-0.284 0.127-0.284 0.284s0.127 0.284 0.284 0.284z"></path>
<path d="M6.314 4.991h14.919c0.157 0 0.284-0.127 0.284-0.284s-0.127-0.284-0.284-0.284h-14.919c-0.157 0-0.284 0.127-0.284 0.284s0.127 0.284 0.284 0.284z"></path>
<path d="M6.030 6.568v9.199c0 0.157 0.127 0.284 0.284 0.284h21.172c0.157 0 0.284-0.127 0.284-0.284v-9.199c0-0.157-0.127-0.284-0.284-0.284h-21.172c-0.157 0-0.284 0.127-0.284 0.284zM12.308 6.852h14.893v2.445h-14.893v-2.445zM12.308 9.865h14.893v2.444h-14.893v-2.444zM12.308 12.877h14.893v2.605h-14.893v-2.605zM6.598 6.852h5.142v2.445h-5.142v-2.445zM6.598 9.865h5.142v2.444h-5.142v-2.444zM6.598 12.877h5.142v2.605h-5.142v-2.605z"></path>
<path d="M27.486 17.329h-21.172c-0.157 0-0.284 0.127-0.284 0.284v9.198c0 0.157 0.127 0.284 0.284 0.284s0.284-0.127 0.284-0.284v-2.889h5.142v2.889c0 0.157 0.127 0.284 0.284 0.284s0.284-0.127 0.284-0.284v-2.889h14.893v2.889c0 0.157 0.127 0.284 0.284 0.284s0.284-0.127 0.284-0.284v-9.198c0.001-0.157-0.126-0.284-0.283-0.284zM11.74 23.354h-5.142v-2.443h5.142v2.443zM11.74 20.342h-5.142v-2.444h5.142v2.444zM27.201 23.354h-14.893v-2.443h14.893v2.443zM27.201 20.342h-14.893v-2.444h14.893v2.444z"></path>
<path d="M2.281-0.021c-0.157 0-0.284 0.127-0.284 0.284v29.311c0 0.157 0.127 0.284 0.284 0.284s0.284-0.127 0.284-0.284v-29.311c0-0.157-0.127-0.284-0.284-0.284z"></path>
<path d="M0.718-0.021c-0.157 0-0.284 0.127-0.284 0.284v29.311c0 0.157 0.127 0.284 0.284 0.284s0.284-0.127 0.284-0.284v-29.311c0-0.157-0.127-0.284-0.284-0.284z"></path>
</symbol>
<symbol id="icon-Vector" viewBox="0 0 41 32">
<path d="M34.457 1.514c-1.484 0.664-2.907 1.475-4.265 2.379-2.731 1.797-5.228 3.936-7.57 6.218-2.341 2.287-4.52 4.735-6.581 7.28-0.515 0.636-2.823 3.47-2.823 3.47l-9.596-14.38-3.623 10.042 12.977 15.477c1.26-2.551 2.473-5.070 3.662-7.258 0.296-0.556 0.605-1.080 0.901-1.612 0 0 1.523-2.677 1.923-3.352 1.602-2.697 3.333-5.325 5.239-7.821 1.908-2.491 3.983-4.87 6.335-6.961 1.17-1.052 2.416-2.025 3.751-2.872 1.332-0.848 2.747-1.591 4.261-2.125-1.575 0.31-3.111 0.848-4.592 1.514z"></path>
</symbol>
<symbol id="icon-menu" viewBox="0 0 32 32">
<path d="M2 6h28v6h-28zM2 14h28v6h-28zM2 22h28v6h-28z"></path>
</symbol>
</defs>
</svg>
