<svg aria-hidden="true" style="position:absolute;width:0;height:0" xmlns="http://www.w3.org/2000/svg" overflow="hidden"><defs><symbol id="icon-facebook" viewBox="0 0 16 32"><path d="M14.143 15.972h-4.034v14.865H3.997V15.972H1.09v-5.224h2.907V7.367c0-2.418 1.142-6.203 6.166-6.203l4.527.019v5.071h-3.285c-.539 0-1.296.271-1.296 1.424v3.075h4.567l-.534 5.219z"/></symbol><symbol id="icon-github" viewBox="0 0 32 32"><path d="M16 0C7.212 0 0 7.212 0 16c0 7.499 5.262 14.312 12.25 16v-5.293c-.692.152-1.33.156-2.034-.052-.946-.279-1.714-.909-2.284-1.869-.364-.613-1.008-1.278-1.68-1.23l-.165-1.868c1.453-.124 2.711.886 3.457 2.14.332.558.713.884 1.203 1.029.473.14.982.072 1.574-.137.149-1.186.692-1.63 1.102-2.255v-.001c-4.167-.622-5.828-2.832-6.488-4.578-.874-2.317-.405-5.212 1.14-7.041.03-.036.084-.129.063-.194-.708-2.139.155-3.909.187-4.097.817.242.95-.243 3.551 1.337l.449.27c.188.112.129.048.317.034A13.544 13.544 0 0116 7.723c1.136.015 2.273.178 3.404.484l.145.015c-.013-.002.04-.009.127-.062 3.248-1.968 3.132-1.324 4.003-1.608.032.188.883 1.987.182 4.099-.095.291 2.816 2.956 1.203 7.235-.659 1.746-2.32 3.957-6.487 4.578v.001c.534.814 1.176 1.247 1.173 2.927V32C26.738 30.312 32 23.499 32 16c0-8.788-7.212-16-16-16z"/></symbol><symbol id="icon-telegram" viewBox="0 0 44 32"><path d="M17.343 21.048l-.675 8.86c.966 0 1.384-.387 1.885-.852l4.527-4.038 9.381 6.412c1.72.895 2.933.424 3.397-1.477l6.157-26.929.002-.002c.546-2.374-.92-3.302-2.596-2.72L3.227 13.235c-2.47.895-2.433 2.18-.42 2.762l9.253 2.686L33.554 6.131c1.011-.625 1.931-.279 1.175.346l-17.386 14.57z"/></symbol></defs></svg>