<svg width="0" height="0" class="hidden">
  <symbol viewBox="0 0 24 24"   id="map-pin">
    <path fill-rule="evenodd" clip-rule="evenodd" d="M20 10.364C20 16.09 12 21 12 21s-8-4.91-8-10.636C4 6.297 7.582 3 12 3s8 3.297 8 7.364z" stroke="#9DA4BD" stroke-linecap="round" stroke-linejoin="round"></path>
    <path fill-rule="evenodd" clip-rule="evenodd" d="M12 14a3 3 0 1 0 0-6 3 3 0 0 0 0 6z" stroke="#9DA4BD" stroke-linecap="round" stroke-linejoin="round"></path>
  </symbol>
  <symbol viewBox="0 0 24 24"  id="phone">
    <path fill-rule="evenodd" clip-rule="evenodd" d="M20 16.003v2.413a1.61 1.61 0 0 1-1.754 1.61 15.921 15.921 0 0 1-6.943-2.47 15.688 15.688 0 0 1-4.827-4.827 15.92 15.92 0 0 1-2.47-6.975A1.609 1.609 0 0 1 5.608 4h2.414A1.609 1.609 0 0 1 9.63 5.384c.102.772.29 1.53.563 2.26a1.61 1.61 0 0 1-.362 1.698l-1.022 1.021a12.872 12.872 0 0 0 4.827 4.827l1.022-1.021a1.61 1.61 0 0 1 1.697-.362c.73.272 1.488.46 2.26.563A1.609 1.609 0 0 1 20 16.003z"
      stroke="#9DA4BD" stroke-linecap="round" stroke-linejoin="round"></path>
  </symbol>
  <symbol viewBox="0 0 24 24"  id="mail">
    <path fill-rule="evenodd" clip-rule="evenodd" d="M4.8 5h14.4c.99 0 1.8.787 1.8 1.75v10.5c0 .962-.81 1.75-1.8 1.75H4.8c-.99 0-1.8-.788-1.8-1.75V6.75C3 5.787 3.81 5 4.8 5z" stroke="#9DA4BD" stroke-linecap="round" stroke-linejoin="round"></path>
    <path d="M20 7l-8 6-8-6" stroke="#9DA4BD" stroke-linecap="round" stroke-linejoin="round"></path>
  </symbol>
</svg>