<svg aria-hidden="true" style="position: absolute; width: 0; height: 0; overflow: hidden;" version="1.1"
    xmlns="http://www.w3.org/2000/svg" xmlns:xlink="http://www.w3.org/1999/xlink">
    <defs>

        <symbol id="icon-right-1" viewBox="0 0 19 32">
            <path d="M3.2 3.2l12.8 12.8-12.8 12.8"></path>
        </symbol>
        <symbol id="icon-close" viewBox="0 0 32 32">
            <path d="M2.519 2l26.963 28"></path>
            <path d="M2 29.481l28-26.963"></path>
        </symbol>
        <symbol id="icon-Burger" viewBox="0 0 46 32">
            <path d="M0 2.286h45.714"></path>
            <path d="M0 16h45.714"></path>
            <path d="M0 29.714h45.714"></path>
        </symbol>
        <symbol id="icon-Ellipse" viewBox="0 0 32 32">
            <path d="M32 16c0 8.837-7.163 16-16 16s-16-7.163-16-16c0-8.837 7.163-16 16-16s16 7.163 16 16z"></path>
        </symbol>
        <symbol id="icon-skobki" viewBox="0 0 54 40">
            <path
                d="M32.014 0c1.929 0 3.75 0.52 5.464 1.561s3.107 2.537 4.179 4.488c1.029 1.951 1.543 4.249 1.543 6.894s-0.643 5.225-1.929 7.74c-0.429 0.911-1.2 2.081-2.314 3.512-1.157 1.431-2.229 2.667-3.214 3.707l-4.050 4.098-2.893-4.813c2.014-1.257 3.793-2.818 5.336-4.683 1.543-1.821 2.314-3.491 2.314-5.008 0-0.78-0.171-1.409-0.514-1.886-1.5 1.084-3.171 1.626-5.014 1.626-1.329 0-2.593-0.412-3.793-1.236-1.243-0.78-2.229-1.821-2.957-3.122-0.771-1.258-1.157-2.558-1.157-3.902 0-1.518 0.45-2.97 1.35-4.358 0.857-1.388 1.993-2.515 3.407-3.382 1.371-0.824 2.786-1.236 4.243-1.236zM8.936 0c1.929 0 3.75 0.52 5.464 1.561s3.107 2.537 4.179 4.488c1.029 1.951 1.543 4.249 1.543 6.894 0 1.864-0.236 3.534-0.707 5.008-0.471 1.518-1.286 3.1-2.443 4.748-1.114 1.561-2.164 2.862-3.15 3.902-0.986 1.084-2.7 2.884-5.143 5.398l-2.893-4.813c2.014-1.257 3.793-2.818 5.336-4.683 1.543-1.821 2.314-3.491 2.314-5.008 0-0.78-0.171-1.409-0.514-1.886-1.5 1.084-3.171 1.626-5.014 1.626-1.329 0-2.593-0.412-3.793-1.236-1.243-0.78-2.229-1.821-2.957-3.122-0.771-1.258-1.157-2.558-1.157-3.902 0-1.518 0.429-2.97 1.286-4.358s1.993-2.515 3.407-3.382c1.371-0.824 2.786-1.236 4.243-1.236z">
            </path>
        </symbol>
        <symbol id="icon-Ellipse-4" viewBox="0 0 32 32">
            <path d="M32 16c0 8.837-7.163 16-16 16s-16-7.163-16-16c0-8.837 7.163-16 16-16s16 7.163 16 16z"></path>
        </symbol>
        <symbol id="icon-Ellipse-7" viewBox="0 0 32 32">
            <path d="M32 16c0 8.837-7.163 16-16 16s-16-7.163-16-16c0-8.837 7.163-16 16-16s16 7.163 16 16z"></path>
        </symbol>
        <symbol id="icon-fb" viewBox="0 0 16 32">
            <path
                d="M14.143 15.972h-4.034v14.865h-6.112v-14.865h-2.907v-5.224h2.907v-3.381c0-2.418 1.142-6.203 6.166-6.203l4.527 0.019v5.071h-3.285c-0.539 0-1.296 0.271-1.296 1.424v3.075h4.567l-0.534 5.219z">
            </path>
        </symbol>
        <symbol id="icon-cat" viewBox="0 0 32 32">
            <path
                d="M16 0c-8.788 0-16 7.212-16 16 0 7.499 5.262 14.312 12.25 16v-5.293c-0.692 0.152-1.33 0.156-2.034-0.052-0.946-0.279-1.714-0.909-2.284-1.869-0.364-0.613-1.008-1.278-1.68-1.23l-0.165-1.868c1.453-0.124 2.711 0.886 3.457 2.14 0.332 0.558 0.713 0.884 1.203 1.029 0.473 0.14 0.982 0.072 1.574-0.137 0.149-1.186 0.692-1.63 1.102-2.255-4.167-0.622-5.828-2.833-6.488-4.579-0.874-2.317-0.405-5.212 1.14-7.041 0.030-0.036 0.084-0.129 0.063-0.194-0.708-2.139 0.155-3.909 0.187-4.097 0.817 0.242 0.95-0.243 3.551 1.337l0.449 0.27c0.188 0.112 0.129 0.048 0.317 0.034 1.086-0.295 2.23-0.458 3.358-0.472 1.136 0.015 2.273 0.178 3.404 0.484l0.145 0.015c-0.013-0.002 0.040-0.009 0.127-0.062 3.248-1.968 3.132-1.324 4.003-1.608 0.032 0.188 0.883 1.987 0.182 4.099-0.095 0.291 2.816 2.956 1.203 7.235-0.659 1.746-2.32 3.957-6.487 4.578 0.534 0.814 1.176 1.248 1.173 2.928v6.608c6.988-1.688 12.25-8.501 12.25-16 0-8.788-7.212-16-16-16z">
            </path>
        </symbol>
        <symbol id="icon-telegram" viewBox="0 0 44 32">
            <path
                d="M17.343 21.048l-0.675 8.86c0.966 0 1.384-0.387 1.885-0.852l4.527-4.038 9.381 6.412c1.72 0.895 2.933 0.424 3.397-1.477l6.157-26.929 0.002-0.002c0.546-2.374-0.92-3.302-2.596-2.72l-36.194 12.933c-2.47 0.895-2.433 2.18-0.42 2.762l9.253 2.686 21.494-12.552c1.011-0.625 1.931-0.279 1.175 0.346l-17.386 14.57z">
            </path>
        </symbol>
        <symbol id="icon-arrow-right2" viewBox="0 0 32 32">
            <path
                d="M19.414 27.414l10-10c0.781-0.781 0.781-2.047 0-2.828l-10-10c-0.781-0.781-2.047-0.781-2.828 0s-0.781 2.047 0 2.828l6.586 6.586h-19.172c-1.105 0-2 0.895-2 2s0.895 2 2 2h19.172l-6.586 6.586c-0.39 0.39-0.586 0.902-0.586 1.414s0.195 1.024 0.586 1.414c0.781 0.781 2.047 0.781 2.828 0z">
            </path>
        </symbol>
        <symbol id="icon-milk" viewBox="0 0 32 32">
            <path
                d="M26.538 13.421c-0.198-0.239-0.492-0.378-0.802-0.378h-19.471c-0.31 0-0.604 0.139-0.802 0.378s-0.278 0.554-0.219 0.859l3.245 16.877c0.094 0.49 0.523 0.844 1.021 0.844h12.981c0.499 0 0.927-0.354 1.021-0.844l3.245-16.877c0.059-0.305-0.022-0.62-0.219-0.859zM24.344 15.123c-0.478 3.857-3.774 6.473-8.344 6.473s-7.866-2.616-8.344-6.473h16.688zM21.631 29.92h-11.263l-1.684-8.758c1.847 1.583 4.388 2.514 7.315 2.514s5.468-0.931 7.315-2.514l-1.684 8.758z">
            </path>
            <path
                d="M7.53 7.891c0.521 0.521 1.213 0.807 1.949 0.807s1.428-0.287 1.949-0.807l0.287-0.287c0.488 0.267 0.999 0.488 1.529 0.659v1.111c0 1.52 1.236 2.756 2.756 2.756s2.756-1.236 2.756-2.756v-1.111c0.53-0.171 1.041-0.391 1.529-0.659l0.287 0.287c0.521 0.521 1.213 0.807 1.949 0.807s1.428-0.287 1.949-0.807c1.075-1.075 1.075-2.823 0-3.898l-0.347-0.347c0.503-0.732 0.811-1.256 0.811-2.606 0-0.574-0.466-1.040-1.040-1.040h-15.789c-0.574 0-1.040 0.466-1.040 1.040 0 1.35 0.308 1.874 0.811 2.606l-0.347 0.347c-1.075 1.075-1.075 2.823-0 3.898zM9.001 5.464l0.942-0.942c0.336-0.336 0.402-0.857 0.159-1.266-0.192-0.323-0.364-0.574-0.503-0.776-0.11-0.16-0.195-0.284-0.26-0.399h13.322c-0.065 0.116-0.15 0.239-0.26 0.399-0.139 0.201-0.311 0.452-0.503 0.776-0.243 0.409-0.177 0.93 0.159 1.266l0.942 0.942c0.128 0.128 0.198 0.297 0.198 0.478s-0.070 0.35-0.198 0.478c-0.128 0.128-0.297 0.198-0.478 0.198s-0.35-0.070-0.478-0.198l-0.866-0.866c-0.354-0.354-0.909-0.405-1.322-0.124-0.719 0.49-1.514 0.834-2.365 1.023-0.476 0.106-0.815 0.528-0.815 1.015v1.905c0 0.373-0.303 0.676-0.676 0.676s-0.676-0.303-0.676-0.676v-1.905c0-0.488-0.339-0.91-0.815-1.015-0.851-0.189-1.647-0.533-2.365-1.023-0.178-0.121-0.382-0.181-0.586-0.181-0.268 0-0.535 0.104-0.736 0.305l-0.866 0.866c-0.128 0.128-0.297 0.198-0.478 0.198s-0.35-0.070-0.478-0.198c-0.128-0.128-0.198-0.297-0.198-0.478s0.070-0.351 0.198-0.478z">
            </path>
        </symbol>
        <symbol id="icon-heart-shaped-ice-cream" viewBox="0 0 32 32">
   <path d="M23.113 9.9c0 0-0.188 0.012-0.225 0.012-2.469 0-4.481-2.025-4.481-4.513 0-0.869 0.281-1.694 0.719-2.444 0.337-0.575 0.444-1.563-0.7-1.913-0.788-0.244-1.606-0.356-2.419-0.356-4.65 0-8.438 3.813-8.438 8.494v13.375c0 0.706 0.569 1.275 1.269 1.275h5.9v6.2c0 0.706 0.569 1.275 1.269 1.275s1.269-0.569 1.269-1.275v-6.2h5.9c0.7 0 1.269-0.569 1.269-1.275v-11.381c0-0.75-0.575-1.363-1.331-1.275zM21.906 21.281h-11.806v-12.1c0-3.344 2.756-6.063 6.106-5.938-0.225 0.694-0.338 1.425-0.338 2.162 0 3.563 2.631 6.512 6.037 6.994v8.881z"></path>
        </symbol>
        <symbol id="icon-apples" viewBox="0 0 32 32">
            <path
                d="M29.626 21.411c-1.292-0.458-2.382-0.344-3.242 0.018 0.145-0.877 0.47-1.832 1.17-2.481 0.431-0.4 0.456-1.074 0.056-1.505s-1.074-0.456-1.505-0.056c-1.229 1.14-1.706 2.748-1.874 4.081-0.32-0.144-0.673-0.253-1.058-0.311l1.89-9.83c0.060-0.312-0.022-0.634-0.225-0.879s-0.503-0.387-0.821-0.387h-0.204c0.094-0.5 0.141-0.997 0.137-1.47-0.016-1.994-0.903-3.495-2.374-4.017-1.41-0.5-2.59-0.35-3.507 0.066 0.145-0.976 0.494-2.063 1.282-2.794 0.431-0.4 0.456-1.074 0.056-1.505s-1.074-0.456-1.505-0.056c-1.32 1.225-1.815 2.965-1.982 4.386-0.735-0.348-1.644-0.527-2.708-0.33-1.094-1.571-2.613-2.296-4.089-1.942-1.451 0.349-2.358 1.115-2.901 1.962-0.41-0.899-0.712-2.001-0.452-3.036 0.143-0.57-0.203-1.149-0.773-1.292s-1.149 0.203-1.292 0.773c-0.439 1.746 0.095 3.476 0.729 4.758-1.016 0.137-2.117 0.65-3.049 1.866-0.578 0.755-0.773 1.698-0.596 2.7-0.173 0.065-0.329 0.173-0.449 0.318-0.202 0.245-0.285 0.567-0.225 0.879l3.809 19.809c0.096 0.501 0.535 0.864 1.046 0.864h15.237c0.511 0 0.949-0.362 1.046-0.864l0.038-0.195c0.287 0.198 0.596 0.363 0.927 0.487 1.266 0.471 2.447 0.278 3.044 0.118 0.316 0.085 0.795 0.179 1.364 0.179 0.506 0 1.084-0.075 1.68-0.297 2.36-0.879 3.614-3.839 3.596-6.178-0.015-1.904-0.866-3.339-2.276-3.839zM22.674 12.191c-0.49 4.705-4.452 7.91-9.971 7.91s-9.481-3.204-9.971-7.91h19.942zM16.032 7.515c0.184 0.349 0.536 0.567 0.93 0.567s0.746-0.218 0.93-0.567c0.029-0.048 0.29-0.466 0.769-0.777 0.629-0.408 1.35-0.46 2.203-0.157 0.851 0.302 0.952 1.518 0.956 2.027 0.004 0.463-0.064 0.962-0.191 1.453h-7.126c0.236-1.19 0.094-2.492-0.289-3.669 0.377 0.022 0.724 0.137 1.047 0.346 0.479 0.311 0.74 0.729 0.769 0.777zM3.078 8.724c0.55-0.719 1.182-1.068 1.932-1.069h0.002c0.57 0 1.016 0.208 1.066 0.232 0.341 0.19 0.749 0.172 1.079-0.037 0.331-0.211 0.51-0.591 0.481-0.983-0.006-0.077-0.115-1.893 1.983-2.397 0.876-0.211 1.625 0.754 1.906 1.178 0.807 1.22 1.221 3.108 0.777 4.413h-9.349c-0.141-0.443-0.179-0.943 0.122-1.336zM5.852 29.87l-2.111-10.978c0.138 0.133 0.281 0.263 0.427 0.389 2.208 1.901 5.239 2.948 8.535 2.948s6.328-1.047 8.535-2.948c0.052-0.044 0.102-0.090 0.152-0.135l-0.431 2.243c-0.020 0.007-0.041 0.013-0.061 0.021-1.41 0.5-2.261 1.935-2.276 3.839-0.009 1.164 0.297 2.483 0.898 3.622l-0.192 0.999h-13.477zM27.562 29.432c-0.943 0.351-1.881 0.017-1.916 0.005-0.25-0.097-0.518-0.099-0.768-0-0.009 0.004-0.96 0.352-1.917-0.005-1.338-0.498-2.223-2.556-2.21-4.165 0.004-0.466 0.095-1.578 0.858-1.849 0.349-0.124 0.661-0.175 0.939-0.175 1.107 0 1.657 0.812 1.782 1.024 0.184 0.35 0.535 0.569 0.931 0.569s0.747-0.219 0.931-0.569c0.156-0.265 0.977-1.468 2.721-0.849 0.763 0.271 0.854 1.383 0.858 1.849 0.013 1.609-0.872 3.667-2.21 4.166z">
            </path>
        </symbol>
        <symbol id="icon-right" viewBox="0 0 19 32">
            <path d="M3.2 3.2l12.8 12.8-12.8 12.8"></path>
        </symbol>
        <symbol id="icon-home" viewBox="0 0 12 12">
            <path
                d="M34.253 15.613c0.599-0.659 0.541-1.669-0.129-2.255l-14.772-12.926c-0.671-0.586-1.745-0.574-2.402 0.028l-14.822 13.587c-0.656 0.602-0.689 1.611-0.071 2.252l0.372 0.387c0.617 0.642 1.613 0.718 2.224 0.17l1.108-0.992v14.523c0 0.891 0.722 1.613 1.612 1.613h5.778c0.89 0 1.612-0.721 1.612-1.613v-10.16h7.37v10.16c-0.013 0.89 0.624 1.612 1.515 1.612h6.123c0.89 0 1.613-0.722 1.613-1.613v-14.318c0 0 0.306 0.268 0.683 0.6s1.168 0.066 1.767-0.594l0.42-0.462z">
            </path>
        </symbol>
        <symbol id="icon-logo" viewBox="0 0 31.5 31.5">
            <path
                d="M14.392.049a15.524 15.524 0 00-7.173 2.49 15.987 15.987 0 00-6.597 8.957 16.446 16.446 0 00-.549 2.821c-.064.567-.091 2.132-.045 2.775a16.404 16.404 0 001.107 4.899c.379.965 1.107 2.314 1.717 3.191 1.868 2.681 4.492 4.726 7.48 5.827.249.091.482.176.522.188l.067.018v-1.186c0-.922-.009-1.186-.036-1.195-.021-.006-.167-.039-.325-.076-1.077-.249-2.111-.971-2.742-1.917a4.62 4.62 0 01-.695-1.614c-.064-.27-.067-.358-.076-2.39l-.012-2.111-.264-.033A2.7 2.7 0 014.517 18.7a2.964 2.964 0 01-.003-1.265c.127-.516.37-.934.758-1.304.449-.431.928-.649 1.617-.737l.143-.018.015-1.219c.015-1.301.036-1.547.173-2.235.261-1.31.807-2.493 1.668-3.609.288-.376 1.086-1.165 1.471-1.459a8.64 8.64 0 014.025-1.717c.476-.073 2.566-.091 3.133-.027a8.349 8.349 0 012.791.807 8.602 8.602 0 014.532 5.49c.231.88.276 1.338.276 2.812 0 1.137.003 1.192.055 1.192.121 0 .549.127.755.224 1.01.479 1.602 1.459 1.547 2.551a2.582 2.582 0 01-.776 1.747c-.367.367-.898.652-1.362.731l-.224.036.021 1.959c.024 2.087.018 2.202-.121 2.76a4.612 4.612 0 01-1.016 1.908c-.673.767-1.671 1.329-2.654 1.492l-.227.039v2.196l.312-.118a15.918 15.918 0 008.993-8.948c1.85-4.629 1.447-9.934-1.08-14.207a16.067 16.067 0 00-5.29-5.426A15.59 15.59 0 0016.96.035c-.555-.045-2.008-.036-2.566.015z" />
            <path
                d="M14.984 6.521a7.125 7.125 0 00-4.875 2.572l-.076.097.115.146c.224.282.828.846 1.189 1.113a7.216 7.216 0 003.024 1.31c.382.067.528.076 1.462.091.698.012 1.159.003 1.395-.021 1.583-.158 2.939-.758 4.134-1.829.234-.209.758-.78.758-.828 0-.052-.516-.616-.746-.819-.595-.522-1.022-.807-1.696-1.134a6.78 6.78 0 00-2.123-.655c-.355-.055-2.102-.085-2.563-.042z" />
            <path
                d="M9.109 10.704a8.38 8.38 0 00-.476 1.489c-.115.582-.14.949-.14 2.114v1.071h15.202l-.015-1.238c-.015-1.341-.033-1.535-.206-2.248a8.972 8.972 0 00-.191-.652c-.121-.331-.322-.777-.352-.777a.483.483 0 00-.115.121 8.183 8.183 0 01-.446.437c-1.392 1.271-3.006 2.011-4.883 2.238-.449.052-2.363.055-2.821 0a8.569 8.569 0 01-5.093-2.436l-.358-.352-.106.231zM6.718 16.895a1.228 1.228 0 00-.716 1.674c.112.24.358.479.601.595l.176.082 3.534.018c1.944.012 4.301.021 5.241.024l1.705.003v1.568c0 1.705.009 1.823.167 2.132.1.197.334.449.534.579.437.279 1.08.282 1.523.006.285-.173.51-.455.634-.786.067-.176.067-.209.079-1.853l.009-1.677 4.926-.015.206-.097c.249-.118.455-.322.582-.573.085-.167.091-.203.091-.513 0-.3-.009-.352-.082-.51a1.407 1.407 0 00-.598-.607l-.2-.097-9.115-.006c-8.93-.006-9.118-.006-9.297.052z" />
            <path
                d="M8.472 22.725c.009 1.723.018 2.038.061 2.208.306 1.238 1.131 2.081 2.378 2.436l.237.067 4.792.009c3.464.006 4.859 0 5.035-.024a3.215 3.215 0 002.687-2.584c.039-.206.046-2.554.009-3.582l-.021-.537h-2.023v.952c0 .743-.009 1.007-.049 1.204a2.818 2.818 0 01-.743 1.435c-.786.831-1.905 1.125-2.985.786-.919-.291-1.623-1.013-1.917-1.972-.079-.264-.082-.285-.097-1.329l-.018-1.062-7.358-.015.012 2.008zM12.369 30.186l-.009 1.283-.485.03.44.1c2.402.543 5.114.5 7.386-.112.188-.052.2-.058.1-.061l-.115-.003v-2.518h-7.31l-.006 1.28z" />
        </symbol>
    </defs>
</svg>