<svg aria-hidden="true" style="position: absolute; width: 0; height: 0; overflow: hidden;" version="1.1" xmlns="http://www.w3.org/2000/svg" xmlns:xlink="http://www.w3.org/1999/xlink">
<defs>
<symbol id="border-icon" viewBox="0 0 31 32">
<path stroke="#ff6b09" style="stroke: var(--color1, #ff6b09)" stroke-linejoin="miter" stroke-linecap="butt" stroke-miterlimit="4" stroke-width="1.0159" d="M30.387 4.945v-4.183h-29.879v30.476h29.879v-4.183"></path>
</symbol>
<symbol id="border-icon-desk" viewBox="0 0 31 32">
<path fill="none" stroke="#ff6b09" style="stroke: var(--color1, #ff6b09)" stroke-linejoin="miter" stroke-linecap="butt" stroke-miterlimit="4" stroke-width="0.6154" d="M31.077 4.615v-4.308h-30.769v31.385h30.769v-4.308"></path>
</symbol>
<symbol id="finance" viewBox="0 0 27 32">
<path fill="#ff6b09" style="fill: var(--color1, #ff6b09)" d="M0.529 13.797c0 0.348-0.529 0.348-0.529 0 0-7.403 6.004-13.407 13.407-13.407 7.406 0 13.407 6.004 13.407 13.407 0 0.348-0.525 0.348-0.525 0 0-5.004-8.223-5.007-8.223 0 0 0.348-0.541 0.348-0.541 0 0-4.991-8.235-4.991-8.235 0 0 0.348-0.541 0.348-0.541 0 0-4.982-8.219-5.017-8.219 0zM8.796 11.854c0.142-2.88 0.595-5.463 1.253-7.435 0.525-1.567 1.19-2.757 1.943-3.425-5.653 0.617-10.229 4.903-11.252 10.46 1.946-2.807 6.441-2.583 8.055 0.399zM17.483 11.724c-0.146-2.769-0.586-5.248-1.218-7.137-1.633-4.89-4.083-4.89-5.716 0-0.633 1.889-1.070 4.368-1.219 7.137 1.757-2.985 6.396-2.985 8.153 0zM26.073 11.455c-1.019-5.558-5.596-9.843-11.252-10.46 0.756 0.668 1.418 1.858 1.943 3.425 0.658 1.972 1.111 4.554 1.253 7.435 1.624-2.997 6.131-3.175 8.055-0.399z"></path>
<path fill="#ff6b09" style="fill: var(--color1, #ff6b09)" d="M11.647 19.932v-2.722c-0.491 0.326-0.877 0.829-0.877 1.444 0 0.598 0.393 0.994 0.877 1.279zM12.176 20.777c-0.94-0.431-1.931-0.934-1.931-2.124 0-1.228 0.934-1.842 1.931-2.301v4.426z"></path>
<path fill="#ff6b09" style="fill: var(--color1, #ff6b09)" d="M15.167 24.039v2.754c0.497-0.329 0.886-0.835 0.886-1.45 0-0.605-0.399-1.013-0.886-1.304zM14.641 23.191c0.943 0.437 1.94 0.956 1.94 2.152 0 1.231-0.94 1.845-1.94 2.301v-4.453z"></path>
<path fill="#ff6b09" style="fill: var(--color1, #ff6b09)" d="M15.167 14.111c2.165 0.5 4.39 2.121 4.39 4.542 0 2.073-3.504 1.997-3.504 0 0-0.617-0.389-1.124-0.886-1.45v3.874c2.003 0.655 4.396 1.829 4.396 4.267 0 2.424-2.225 4.042-4.396 4.539-0.010 2.307-3.513 2.304-3.519-0.003-1.234-0.285-2.307-0.861-3.083-1.624-0.813-0.804-1.295-1.814-1.295-2.912 0-2.042 3.5-2.042 3.5 0 0 0.611 0.386 1.114 0.877 1.44v-3.871c-1.988-0.643-4.393-1.852-4.393-4.267 0-2.424 2.225-4.042 4.393-4.539 0.009-2.307 3.513-2.304 3.519 0.003zM12.176 14.117v0.421c-2.060 0.408-4.396 1.728-4.396 4.108 0 2.288 2.564 3.314 4.396 3.88v5.115c-0.991-0.453-1.931-1.064-1.931-2.298 0-1.348-2.45-1.348-2.45 0 0 0.953 0.424 1.833 1.139 2.535 0.908 0.899 2.010 1.326 3.241 1.57v0.424c0 1.624 2.466 1.624 2.466 0v-0.421c2.067-0.411 4.393-1.731 4.393-4.108 0-2.31-2.557-3.304-4.393-3.884v-5.112c0.994 0.453 1.94 1.063 1.94 2.304 0 1.313 2.447 1.367 2.447 0 0-2.377-2.323-3.7-4.387-4.111v-0.424c0-1.624-2.466-1.624-2.466 0z"></path>
</symbol>
<symbol id="innovation" viewBox="0 0 32 32">
<path fill="#ff6b09" style="fill: var(--color1, #ff6b09)" d="M29.457 0.256h-15.371c-1.001 0-1.815 0.814-1.815 1.815v6.363l-11.419 4.793c-0.129 0.054-0.217 0.176-0.227 0.316s0.059 0.274 0.18 0.346l1.456 0.872v9.288c-0.745 0.17-1.304 0.836-1.304 1.634v0.895c0 0.205 0.167 0.372 0.372 0.372h2.608c0.205 0 0.372-0.167 0.372-0.372v-0.895c0-0.796-0.559-1.462-1.304-1.633v-8.844l1.151 0.689c-0.035 0.266-0.004-0.463-0.016 4.324 0 1.574 4.031 2.417 8.132 2.465v7.249c0 0.374 0.115 0.723 0.311 1.012 0.326 0.482 0.878 0.8 1.503 0.8h15.371c1 0 1.813-0.814 1.813-1.813 0 0.050-0.002-1.535 0-27.86 0-0.987-0.816-1.815-1.812-1.815zM3.565 25.682v0.523h-1.864v-0.523c0-0.515 0.417-0.935 0.93-0.935 0.515 0 0.934 0.419 0.934 0.935zM29.457 30.998h-15.371c-0.369 0-0.695-0.187-0.887-0.47-0.115-0.171-0.183-0.376-0.183-0.597v-2.513h17.508v2.514c0 0.582-0.485 1.066-1.066 1.066zM30.523 26.675h-17.508v-3.989c2.002-0.023 8.137-0.464 8.137-2.467-0.002-3.007 0.005-4.227-0.009-4.33l3.339-2c0.12-0.072 0.19-0.206 0.18-0.346s-0.098-0.262-0.227-0.316l-11.419-4.793v-3.106h17.508v21.347zM12.643 17.75c-2.063 0-6.034 0.266-7.76 1.393 0.011-3.446-0.12-3.222 0.305-3.514 1.072-0.789 4.137-1.34 7.455-1.34 1.447 0 7.765 0.398 7.765 1.735v3.119c-1.742-1.137-5.693-1.394-7.765-1.394zM13.015 2.071c0-0.59 0.48-1.069 1.069-1.069h15.371c0.59 0 1.067 0.486 1.067 1.069v2.513h-17.508v-2.513zM12.643 9.084l10.826 4.544-2.683 1.605c-1.426-1.414-6.144-1.689-8.143-1.689-2.002 0-6.72 0.275-8.143 1.689l-2.683-1.606 10.827-4.544zM4.883 20.219c0-0.602 2.665-1.725 7.76-1.725 5.098 0 7.765 1.123 7.765 1.725s-2.667 1.726-7.765 1.726c-5.095 0-7.76-1.123-7.76-1.726z"></path>
</symbol>
<symbol id="portret" viewBox="0 0 27 32">
<path fill="#ff6b09" style="fill: var(--color1, #ff6b09)" d="M-0.102 31.359c3.441 0 23.348 0 26.785 0 0.133-3.054-0.086-8.122-1.964-10.535l-0.068-0.087-4.104-2.060c0.089-0.301 0.133-0.576 0.151-0.778 0.020-0.243-0.013-0.471-0.1-0.678-0.677-1.62-2.11-2.472-2.898-2.836 0.24-0.484 0.395-1.003 0.47-1.534 0.446-0.126 0.805-0.479 0.923-0.951l0.479-1.946c0.085-0.343 0.032-0.699-0.151-1.002-0.079-0.13-0.18-0.24-0.294-0.334 1.35-3.068-0.911-5.96-1.035-6.113-2.45-2.649-5.544-2.153-5.708-2.124-4.466 0.935-6.19 4.358-5.217 8.372-0.288 0.319-0.409 0.764-0.302 1.2l0.481 1.948c0.117 0.468 0.473 0.82 0.916 0.948 0.137 0.972 0.548 1.851 1.152 2.559v1.543c-6.409 3.282-2.348 1.188-7.484 3.786-0.010 0.048-2.41 2.599-2.053 10.159l0.022 0.462zM25.752 30.389h-4.408v-1.852l2.916-6.674c1.461 2.424 1.515 7.053 1.493 8.526zM19.735 17.816c-0.17 1.954-1.242 1.363-1.903 2.869-0.52-0.572-0.677-1.258-0.537-1.993 0.253-1.348-0.57-1.749-0.367-3.166l0.031-0.032v-0.004c0.018-0.020 0.18-0.213 0.227-0.274 1.744 0.76 2.584 2.174 2.55 2.6zM10.379 16.28c0.81 0.562 1.787 0.893 2.838 0.893 0.99 0 1.93-0.288 2.737-0.819 0.112 1.114 0.547 1.337 0.393 2.157-0.029 0.152-0.045 0.302-0.054 0.45l-3.002 3.384-3.838-4.327 0.926-0.484v-1.254zM9.172 12.14v-1.876c0-0.691 0-3.432 0-3.296 0.467-0.864 1.104-1.491 1.896-1.866 2.12 1.2 4.56 2.99 6.197 4.791-0.002 2.294 0.006 2.301-0.009 2.489l-0.001 0.012c-0.128 2.084-1.841 3.811-4.038 3.811-2.136 0-3.909-1.677-4.037-3.831-0.007-0.077-0.008-0.155-0.008-0.233zM8.574 18.486l4.716 5.317 3.166-3.568c0.072 0.208 0.174 0.405 0.29 0.595l-3.456 4.322-5.154-6.446 0.438-0.22zM18.23 11.359v-1.498c0.042-0.049 0.402-0.461 0.36-0.413 0.020 0.758 0.102-0.137-0.36 1.911zM12.562 1.334c0.192 0.012 2.765-0.391 4.799 1.804 0.080 0.1 1.736 2.234 1.071 4.567-0.228-1.038-0.624-2.369-1.252-3.004l-0.686 0.683c0.619 0.627 1.026 2.537 1.181 3.527-2.84-2.972-6.504-4.853-6.555-4.885-0.184 0.114-1.734 0.409-2.86 2.598l-0.054 0.105v1.607c-0.048 0.001-0.19 0.002-0.142 0.002-0.715-3.454 0.655-6.198 4.497-7.004zM7.963 9.336l0.244 0.987v1.038l-0.405-1.639c-0.059-0.244 0.122-0.337 0.161-0.386zM7.253 19.15l6.037 7.551 4.085-5.109c0.444 0.398 0.658 0.454 1.6 0.939l-0.318-1.078c-0.081-0.274 0.239-0.713 0.431-0.914 0.43-0.234 0.789-0.566 1.058-0.978l3.333 1.674-3.101 7.1v2.055h-14.176v-2.055l-3.103-7.099 4.153-2.085zM2.32 21.865l2.916 6.673v1.852h-4.408c-0.022-1.473 0.033-6.099 1.492-8.524z"></path>
<symbol id="icon-ellipse-3" viewBox="0 0 36 32">
<path fill="#ff6b09" style="fill: var(--color1, #ff6b09)" d="M34.286 16c0 8.837-7.675 16-17.143 16s-17.143-7.163-17.143-16c0-8.837 7.675-16 17.143-16s17.143 7.163 17.143 16z"></path>
</symbol>
</defs>
</svg>
