<svg aria-hidden="true" style="position: absolute; width: 0; height: 0; overflow: hidden;" version="1.1" xmlns="http://www.w3.org/2000/svg" xmlns:xlink="http://www.w3.org/1999/xlink">
<defs>
<symbol id="icon-menu-hamburger" viewBox="0 0 32 32">
<path d="M6.4 11.733v-2.133h19.2v2.133h-19.2zM6.4 17.067h19.2v-2.133h-19.2v2.133zM6.4 22.4h19.2v-2.133h-19.2v2.133z"></path>
</symbol>
<symbol id="icon-chocolate" viewBox="0 0 31 32">
<path   d="M0 0h30.545v32h-30.545v-32z"></path>
<path   d="M-244.364-33.455h545.455v10481.455h-545.455v-10481.455z"></path>
<path   d="M3.765 19.89l10.287-16.632 0.611-0.643 7.862 5.242 0.054 3.163 1.919 3.13-8.476 13.437-12.256-7.696z"></path>
<path fill="none" stroke="#fd9222" style="stroke: var(--color4, #fd9222)" stroke-linejoin="round" stroke-linecap="round" stroke-miterlimit="4" stroke-width="2.6182" d="M20.651 23.521l-13.541-8.461M10.844 8.935l13.541 8.461M10.147 25.416l11.202-18.375M25.941 14.844c-2.902-1.813-4.041-3.23-2.174-6.293l-9.188-5.742-11.202 18.375 13.541 8.461 9.024-14.802z"></path>
</symbol>
<symbol id="icon-scroll-down" viewBox="0 0 32 32">
<path  d="M16 32c8.837 0 16-7.163 16-16s-7.163-16-16-16c-8.837 0-16 7.163-16 16s7.163 16 16 16z"></path>
<path fill="#fd9222" style="fill: var(--color2, #fd9222)" d="M16.541 17.067c-0.071 0.071-0.155 0.128-0.248 0.167s-0.192 0.059-0.293 0.059-0.2-0.020-0.293-0.059c-0.093-0.039-0.177-0.095-0.248-0.167l-3.49-3.497c-0.071-0.071-0.155-0.128-0.248-0.167s-0.192-0.059-0.293-0.059c-0.101 0-0.2 0.020-0.293 0.059s-0.177 0.095-0.248 0.167c-0.142 0.143-0.222 0.336-0.222 0.537s0.080 0.394 0.222 0.537l3.497 3.497c0.429 0.428 1.009 0.668 1.615 0.668s1.187-0.24 1.615-0.668l3.497-3.497c0.141-0.142 0.22-0.334 0.221-0.533 0.001-0.1-0.019-0.2-0.057-0.292s-0.094-0.177-0.164-0.248c-0.071-0.071-0.155-0.128-0.248-0.167s-0.192-0.059-0.293-0.059-0.2 0.020-0.293 0.059c-0.093 0.039-0.177 0.095-0.248 0.167l-3.49 3.497z"></path>
</symbol>
<symbol id="icon-close-btn" viewBox="0 0 32 32">
<path d="M26.667 7.303l-1.97-1.97-7.808 7.808-7.808-7.808-1.97 1.97 7.808 7.808-7.808 7.808 1.97 1.97 7.808-7.808 7.808 7.808 1.97-1.97-7.808-7.808 7.808-7.808z"></path>
</symbol>
<symbol id="icon-twitter" viewBox="0 0 32 32">
<path  stroke-linejoin="round" stroke-linecap="round" stroke-miterlimit="4" stroke-width="2.4" d="M30.667 4c-1.277 0.901-2.69 1.589-4.187 2.040-0.803-0.923-1.87-1.578-3.057-1.875s-2.437-0.222-3.58 0.214c-1.143 0.436-2.125 1.213-2.812 2.226s-1.047 2.212-1.031 3.435v1.333c-2.343 0.061-4.665-0.459-6.759-1.513s-3.894-3.143-5.241-5.061c0 0-5.333 12.533 6.667 17.867-2.746 1.864-6.017 2.799-9.333 2.667 12 6.667 26.667 0 26.667-15.333-0.001-0.371-0.037-0.742-0.107-1.107 1.361-1.342 2.321-3.036 2.773-4.893z"></path>
</symbol>
<symbol id="icon-instagram" viewBox="0 0 32 32">
<path fill="#afb1b8" style="fill: var(--color3, )" d="M31.969 9.408c-0.075-1.7-0.35-2.869-0.744-3.882-0.406-1.075-1.032-2.038-1.851-2.838-0.8-0.813-1.769-1.444-2.832-1.844-1.019-0.394-2.182-0.669-3.882-0.744-1.713-0.081-2.257-0.1-6.601-0.1s-4.888 0.019-6.595 0.094c-1.7 0.075-2.869 0.35-3.882 0.744-1.075 0.406-2.038 1.031-2.838 1.85-0.813 0.8-1.444 1.769-1.844 2.832-0.394 1.019-0.669 2.182-0.744 3.882-0.081 1.713-0.1 2.257-0.1 6.601s0.019 4.888 0.094 6.595c0.075 1.7 0.35 2.869 0.744 3.882 0.406 1.075 1.038 2.038 1.85 2.838 0.8 0.813 1.769 1.444 2.832 1.844 1.019 0.394 2.182 0.669 3.882 0.744 1.706 0.075 2.25 0.094 6.595 0.094s4.888-0.019 6.595-0.094c1.7-0.075 2.869-0.35 3.882-0.744 2.151-0.832 3.851-2.532 4.682-4.682 0.394-1.019 0.669-2.182 0.744-3.882 0.075-1.707 0.094-2.251 0.094-6.595s-0.006-4.888-0.081-6.595zM29.087 22.473c-0.069 1.563-0.331 2.407-0.55 2.969-0.538 1.394-1.644 2.5-3.038 3.038-0.563 0.219-1.413 0.481-2.969 0.55-1.688 0.075-2.194 0.094-6.464 0.094s-4.782-0.019-6.464-0.094c-1.563-0.069-2.407-0.331-2.969-0.55-0.694-0.256-1.325-0.663-1.838-1.194-0.531-0.519-0.938-1.144-1.194-1.838-0.219-0.563-0.481-1.413-0.55-2.969-0.075-1.688-0.094-2.194-0.094-6.464s0.019-4.782 0.094-6.464c0.069-1.563 0.331-2.407 0.55-2.969 0.256-0.694 0.663-1.325 1.2-1.838 0.519-0.531 1.144-0.938 1.838-1.194 0.563-0.219 1.413-0.481 2.969-0.55 1.688-0.075 2.194-0.094 6.464-0.094 4.276 0 4.782 0.019 6.464 0.094 1.563 0.069 2.407 0.331 2.969 0.55 0.694 0.256 1.325 0.662 1.838 1.194 0.531 0.519 0.938 1.144 1.194 1.838 0.219 0.563 0.481 1.413 0.55 2.969 0.075 1.688 0.094 2.194 0.094 6.464s-0.019 4.77-0.094 6.458z"></path>
<path fill="#afb1b8" style="fill: var(--color3, )" d="M16.059 7.783c-4.538 0-8.22 3.682-8.22 8.22s3.682 8.22 8.22 8.22c4.539 0 8.22-3.682 8.22-8.22s-3.682-8.22-8.22-8.22zM16.059 21.335c-2.944 0-5.332-2.388-5.332-5.332s2.388-5.332 5.332-5.332c2.944 0 5.332 2.388 5.332 5.332s-2.388 5.332-5.332 5.332z"></path>
<path fill="#afb1b8" style="fill: var(--color3, )" d="M26.524 7.458c0 1.060-0.859 1.919-1.919 1.919s-1.919-0.859-1.919-1.919c0-1.060 0.859-1.919 1.919-1.919s1.919 0.859 1.919 1.919z"></path>
</symbol>
<symbol id="icon-simply-chocolate" viewBox="0 0 423 32">
<path d="M13.518 30.208c-1.563 0-3.086-0.151-4.567-0.453-1.454-0.274-2.784-0.658-3.991-1.152-1.179-0.494-2.181-1.029-3.003-1.605l2.715-5.143c0.905 0.631 1.865 1.179 2.88 1.646 1.042 0.439 2.126 0.782 3.25 1.029 1.125 0.219 2.249 0.329 3.374 0.329 1.234 0 2.29-0.137 3.168-0.411 0.905-0.274 1.591-0.658 2.057-1.152 0.494-0.494 0.741-1.097 0.741-1.81 0-0.658-0.261-1.193-0.782-1.605s-1.207-0.754-2.057-1.029c-0.823-0.302-1.742-0.59-2.757-0.864s-2.043-0.59-3.086-0.946c-1.015-0.384-1.947-0.85-2.798-1.399-0.823-0.576-1.495-1.303-2.016-2.181s-0.782-1.975-0.782-3.291c0-1.975 0.535-3.689 1.605-5.143 1.097-1.454 2.633-2.578 4.608-3.374 1.975-0.823 4.293-1.234 6.953-1.234 1.947 0 3.785 0.219 5.513 0.658 1.728 0.411 3.209 1.015 4.443 1.81l-2.51 5.102c-1.097-0.741-2.318-1.289-3.662-1.646-1.344-0.384-2.729-0.576-4.155-0.576-1.289 0-2.4 0.151-3.333 0.453-0.905 0.302-1.605 0.727-2.098 1.275-0.466 0.521-0.699 1.125-0.699 1.81s0.247 1.248 0.741 1.687c0.521 0.411 1.207 0.768 2.057 1.070 0.85 0.274 1.783 0.549 2.798 0.823s2.030 0.59 3.045 0.946c1.015 0.357 1.947 0.809 2.798 1.358s1.536 1.248 2.057 2.098c0.521 0.823 0.782 1.865 0.782 3.127 0 1.975-0.549 3.703-1.646 5.184-1.097 1.454-2.647 2.592-4.649 3.415-1.975 0.795-4.306 1.193-6.994 1.193zM28.481 29.714l5.76-28.8h6.706l-5.76 28.8h-6.706zM40.747 29.714l5.76-28.8h5.431l8.187 20.407-2.88-0.041 15.963-20.366h5.719l-5.719 28.8h-6.254l3.826-19.296h1.275l-12.713 16.251h-2.962l-6.789-16.293 1.234 0.123-3.826 19.214h-6.254zM78.807 29.714l5.76-28.8h11.643c3.593 0 6.363 0.795 8.311 2.386 1.975 1.563 2.962 3.758 2.962 6.583 0 2.414-0.562 4.526-1.687 6.336-1.125 1.783-2.743 3.154-4.855 4.114-2.085 0.96-4.567 1.44-7.447 1.44h-9.339l3.538-3.045-2.181 10.985h-6.706zM87.53 19.511l-2.345-3.168h8.599c2.194 0 3.895-0.494 5.102-1.481 1.234-1.015 1.851-2.482 1.851-4.402 0-1.399-0.466-2.427-1.399-3.086-0.933-0.686-2.249-1.029-3.95-1.029h-8.105l3.538-3.25-3.291 16.416zM107.305 29.714l5.76-28.8h6.706l-4.69 23.369h14.441l-1.111 5.431h-21.106zM135.087 29.714l2.345-11.849 0.741 4.197-8.475-21.147h6.665l6.459 16.169-4.032 0.041 13.042-16.21h6.871l-16.869 21.189 2.263-4.238-2.345 11.849h-6.665zM180.919 30.208c-2.222 0-4.293-0.357-6.213-1.070-1.893-0.741-3.538-1.783-4.937-3.127s-2.496-2.921-3.291-4.731c-0.768-1.81-1.152-3.799-1.152-5.966s0.384-4.155 1.152-5.966c0.795-1.81 1.893-3.387 3.291-4.731 1.426-1.344 3.086-2.373 4.978-3.086 1.893-0.741 3.963-1.111 6.213-1.111 2.496 0 4.745 0.439 6.747 1.317 2.030 0.85 3.73 2.112 5.102 3.785l-4.279 3.95c-0.987-1.125-2.085-1.961-3.291-2.51-1.207-0.576-2.523-0.864-3.95-0.864-1.344 0-2.578 0.219-3.703 0.658s-2.098 1.070-2.921 1.893c-0.823 0.823-1.467 1.797-1.934 2.921-0.439 1.125-0.658 2.373-0.658 3.744s0.219 2.619 0.658 3.744c0.466 1.125 1.111 2.098 1.934 2.921s1.797 1.454 2.921 1.893c1.125 0.439 2.359 0.658 3.703 0.658 1.426 0 2.743-0.274 3.95-0.823 1.207-0.576 2.304-1.44 3.291-2.592l4.279 3.95c-1.371 1.673-3.072 2.949-5.102 3.826-2.002 0.878-4.265 1.317-6.789 1.317zM215.825 0.914h6.665v28.8h-6.665v-28.8zM202.742 29.714h-6.665v-28.8h6.665v28.8zM216.319 17.906h-14.071v-5.637h14.071v5.637zM242.057 30.208c-2.277 0-4.389-0.37-6.336-1.111-1.92-0.741-3.593-1.783-5.019-3.127-1.399-1.344-2.495-2.921-3.29-4.731-0.768-1.81-1.152-3.785-1.152-5.925s0.384-4.114 1.152-5.925c0.795-1.81 1.905-3.387 3.331-4.731s3.099-2.386 5.019-3.127c1.92-0.741 4.005-1.111 6.254-1.111 2.277 0 4.361 0.37 6.254 1.111 1.92 0.741 3.579 1.783 4.978 3.127 1.426 1.344 2.537 2.921 3.333 4.731 0.795 1.783 1.193 3.758 1.193 5.925 0 2.139-0.398 4.128-1.193 5.966-0.795 1.81-1.906 3.387-3.333 4.731-1.399 1.317-3.058 2.345-4.978 3.086-1.893 0.741-3.963 1.111-6.213 1.111zM242.016 24.53c1.289 0 2.469-0.219 3.538-0.658 1.097-0.439 2.057-1.070 2.88-1.893s1.454-1.797 1.893-2.921c0.466-1.125 0.699-2.373 0.699-3.744s-0.233-2.619-0.699-3.744c-0.439-1.125-1.070-2.098-1.893-2.921-0.795-0.823-1.742-1.454-2.839-1.893s-2.29-0.658-3.579-0.658c-1.289 0-2.482 0.219-3.579 0.658-1.070 0.439-2.016 1.070-2.839 1.893s-1.467 1.797-1.934 2.921c-0.439 1.125-0.658 2.373-0.658 3.744 0 1.344 0.219 2.592 0.658 3.744 0.466 1.125 1.097 2.098 1.893 2.921 0.823 0.823 1.783 1.454 2.88 1.893s2.29 0.658 3.579 0.658zM275.333 30.208c-2.222 0-4.293-0.357-6.213-1.070-1.893-0.741-3.538-1.783-4.937-3.127s-2.496-2.921-3.291-4.731c-0.768-1.81-1.152-3.799-1.152-5.966s0.384-4.155 1.152-5.966c0.795-1.81 1.893-3.387 3.291-4.731 1.426-1.344 3.086-2.373 4.978-3.086 1.893-0.741 3.963-1.111 6.213-1.111 2.496 0 4.745 0.439 6.747 1.317 2.030 0.85 3.73 2.112 5.102 3.785l-4.279 3.95c-0.987-1.125-2.085-1.961-3.291-2.51-1.207-0.576-2.523-0.864-3.95-0.864-1.344 0-2.578 0.219-3.703 0.658s-2.098 1.070-2.921 1.893c-0.823 0.823-1.467 1.797-1.934 2.921-0.439 1.125-0.658 2.373-0.658 3.744s0.219 2.619 0.658 3.744c0.466 1.125 1.111 2.098 1.934 2.921s1.797 1.454 2.921 1.893c1.125 0.439 2.359 0.658 3.703 0.658 1.426 0 2.743-0.274 3.95-0.823 1.207-0.576 2.304-1.44 3.291-2.592l4.279 3.95c-1.371 1.673-3.072 2.949-5.102 3.826-2.002 0.878-4.265 1.317-6.789 1.317zM303.874 30.208c-2.277 0-4.389-0.37-6.336-1.111-1.92-0.741-3.593-1.783-5.019-3.127-1.399-1.344-2.496-2.921-3.291-4.731-0.768-1.81-1.152-3.785-1.152-5.925s0.384-4.114 1.152-5.925c0.795-1.81 1.906-3.387 3.333-4.731s3.099-2.386 5.019-3.127c1.92-0.741 4.005-1.111 6.254-1.111 2.277 0 4.361 0.37 6.254 1.111 1.92 0.741 3.579 1.783 4.978 3.127 1.426 1.344 2.537 2.921 3.333 4.731 0.795 1.783 1.193 3.758 1.193 5.925 0 2.139-0.398 4.128-1.193 5.966-0.795 1.81-1.906 3.387-3.333 4.731-1.399 1.317-3.058 2.345-4.978 3.086-1.893 0.741-3.963 1.111-6.213 1.111zM303.833 24.53c1.289 0 2.469-0.219 3.538-0.658 1.097-0.439 2.057-1.070 2.88-1.893s1.454-1.797 1.893-2.921c0.466-1.125 0.699-2.373 0.699-3.744s-0.233-2.619-0.699-3.744c-0.439-1.125-1.070-2.098-1.893-2.921-0.795-0.823-1.742-1.454-2.839-1.893s-2.29-0.658-3.579-0.658c-1.289 0-2.482 0.219-3.579 0.658-1.070 0.439-2.016 1.070-2.839 1.893s-1.467 1.797-1.934 2.921c-0.439 1.125-0.658 2.373-0.658 3.744 0 1.344 0.219 2.592 0.658 3.744 0.466 1.125 1.097 2.098 1.893 2.921 0.823 0.823 1.783 1.454 2.88 1.893s2.29 0.658 3.579 0.658zM323.367 29.714v-28.8h6.665v23.369h14.441v5.431h-21.106zM343.339 29.714l12.837-28.8h6.583l12.878 28.8h-6.994l-10.533-25.426h2.633l-10.574 25.426h-6.83zM349.758 23.543l1.769-5.061h14.811l1.81 5.061h-18.391zM381.909 29.714v-23.369h-9.216v-5.431h25.097v5.431h-9.216v23.369h-6.665zM406.272 12.517h13.865v5.184h-13.865v-5.184zM406.766 24.366h15.675v5.349h-22.299v-28.8h21.765v5.349h-15.141v18.103z"></path>
</symbol>
<symbol id="icon-chocolate-2" viewBox="0 0 32 32">
<path fill="#000" style="fill: var(--color1, #000)" d="M13.822 2.413l7.527 7.536 0.080-0.080c0.158-0.154 0.369-0.242 0.589-0.244s0.434 0.080 0.595 0.231l0.873 0.873c0.305 0.305 0.315 0.77 0.083 1.094l-0.004 0.007-0.143 0.192 6.16 6.16c0.55 0.55 0.55 1.43 0 1.98l-9.43 9.43c-0.55 0.55-1.43 0.55-1.98 0l-4.447-4.447c-0.074 0.093-0.167 0.169-0.272 0.224s-0.221 0.086-0.34 0.093c-0.119 0.007-0.237-0.012-0.348-0.054s-0.212-0.108-0.296-0.192l-2.6-2.6c-0.154-0.158-0.242-0.369-0.244-0.589s0.080-0.434 0.231-0.595l0.006-0.007 0.077-0.076-7.527-7.527c-0.55-0.55-0.55-1.43 0-1.98l9.43-9.43c0.55-0.55 1.43-0.55 1.98 0v0.001zM20.404 10.893l-1.756-1.755c-0.055-0.057-0.121-0.102-0.194-0.133s-0.151-0.047-0.231-0.047c-0.079 0-0.158 0.016-0.231 0.047s-0.139 0.076-0.194 0.133l-3.58 3.58c-0.057 0.056-0.102 0.123-0.132 0.197s-0.047 0.153-0.047 0.233 0.016 0.159 0.047 0.233c0.031 0.074 0.076 0.141 0.132 0.197l1.749 1.749 0.61-0.61-1.565-1.565 3.21-3.22 1.569 1.574 0.613-0.613zM15.328 15.965l-1.754-1.754c-0.055-0.057-0.121-0.102-0.194-0.133s-0.152-0.047-0.231-0.047c-0.079 0-0.158 0.016-0.231 0.047s-0.139 0.076-0.194 0.133l-3.59 3.59c-0.24 0.23-0.24 0.61 0 0.85l1.752 1.752 0.616-0.616-1.57-1.564 3.22-3.21 1.564 1.563 0.612-0.611zM8.822 8.193l3.58 3.58c0.24 0.24 0.62 0.24 0.85-0.010l3.58-3.58c0.057-0.054 0.102-0.119 0.133-0.192s0.047-0.15 0.047-0.228h0.010c0-0.15-0.060-0.31-0.18-0.43l-3.58-3.58c-0.056-0.057-0.123-0.102-0.197-0.133s-0.153-0.047-0.233-0.047c-0.080 0-0.159 0.016-0.233 0.047s-0.141 0.076-0.197 0.133l-3.58 3.59c-0.24 0.23-0.24 0.61 0 0.85zM3.752 13.263l3.58 3.58c0.24 0.24 0.62 0.24 0.85 0l3.58-3.58c0.058-0.055 0.104-0.122 0.135-0.196s0.046-0.154 0.045-0.234h0.010c0-0.16-0.060-0.31-0.18-0.43l-3.58-3.58c-0.055-0.057-0.121-0.102-0.194-0.133s-0.151-0.047-0.231-0.047c-0.079 0-0.158 0.016-0.231 0.047s-0.139 0.076-0.194 0.133l-3.59 3.59c-0.24 0.23-0.24 0.61 0 0.85zM10.685 22.017l2.362 2.363 9.636-13.040-0.655-0.655-11.343 11.332z"></path>
<path fill="#fd9222" style="fill: var(--color2, #fd9222)" d="M13.822 2.413l7.527 7.536 0.080-0.080c0.158-0.154 0.369-0.242 0.589-0.244s0.434 0.080 0.595 0.231l0.873 0.873c0.305 0.305 0.315 0.77 0.083 1.094l-0.004 0.007-0.143 0.192 6.16 6.16c0.55 0.55 0.55 1.43 0 1.98l-9.43 9.43c-0.55 0.55-1.43 0.55-1.98 0l-4.447-4.447c-0.074 0.093-0.167 0.169-0.272 0.224s-0.221 0.086-0.34 0.093c-0.119 0.007-0.237-0.012-0.348-0.054s-0.212-0.108-0.296-0.192l-2.6-2.6c-0.154-0.158-0.242-0.369-0.244-0.589s0.080-0.434 0.231-0.595l0.006-0.007 0.077-0.076-7.527-7.527c-0.55-0.55-0.55-1.43 0-1.98l9.43-9.43c0.55-0.55 1.43-0.55 1.98 0v0.001zM20.404 10.893l-1.756-1.755c-0.055-0.057-0.121-0.102-0.194-0.133s-0.151-0.047-0.231-0.047c-0.079 0-0.158 0.016-0.231 0.047s-0.139 0.076-0.194 0.133l-3.58 3.58c-0.057 0.056-0.102 0.123-0.132 0.197s-0.047 0.153-0.047 0.233 0.016 0.159 0.047 0.233c0.031 0.074 0.076 0.141 0.132 0.197l1.749 1.749 0.61-0.61-1.565-1.565 3.21-3.22 1.569 1.574 0.613-0.613zM15.328 15.965l-1.754-1.754c-0.055-0.057-0.121-0.102-0.194-0.133s-0.152-0.047-0.231-0.047c-0.079 0-0.158 0.016-0.231 0.047s-0.139 0.076-0.194 0.133l-3.59 3.59c-0.24 0.23-0.24 0.61 0 0.85l1.752 1.752 0.616-0.616-1.57-1.564 3.22-3.21 1.564 1.563 0.612-0.611zM8.822 8.193l3.58 3.58c0.24 0.24 0.62 0.24 0.85-0.010l3.58-3.58c0.057-0.054 0.102-0.119 0.133-0.192s0.047-0.15 0.047-0.228h0.010c0-0.15-0.060-0.31-0.18-0.43l-3.58-3.58c-0.056-0.057-0.123-0.102-0.197-0.133s-0.153-0.047-0.233-0.047c-0.080 0-0.159 0.016-0.233 0.047s-0.141 0.076-0.197 0.133l-3.58 3.59c-0.24 0.23-0.24 0.61 0 0.85zM3.752 13.263l3.58 3.58c0.24 0.24 0.62 0.24 0.85 0l3.58-3.58c0.058-0.055 0.104-0.122 0.135-0.196s0.046-0.154 0.045-0.234h0.010c0-0.16-0.060-0.31-0.18-0.43l-3.58-3.58c-0.055-0.057-0.121-0.102-0.194-0.133s-0.151-0.047-0.231-0.047c-0.079 0-0.158 0.016-0.231 0.047s-0.139 0.076-0.194 0.133l-3.59 3.59c-0.24 0.23-0.24 0.61 0 0.85zM10.685 22.017l2.362 2.363 9.636-13.040-0.655-0.655-11.343 11.332z"></path>
</symbol>
<symbol id="icon-dollar-sign" viewBox="0 0 32 32">
<path fill="#fd9222" style="fill: var(--color2, #fd9222)" d="M16 2.667c-7.333 0-13.333 6-13.333 13.333s6 13.333 13.333 13.333c7.333 0 13.333-6 13.333-13.333s-6-13.333-13.333-13.333zM16 26.667c-5.867 0-10.667-4.8-10.667-10.667s4.8-10.667 10.667-10.667c5.867 0 10.667 4.8 10.667 10.667s-4.8 10.667-10.667 10.667z"></path>
<path fill="#fd9222" style="fill: var(--color2, #fd9222)" d="M17.733 14.667h-3.467c-0.667 0-1.2-0.533-1.2-1.2s0.533-1.2 1.2-1.2h4.933c0.8 0 1.333-0.533 1.333-1.333s-0.533-1.333-1.333-1.333h-1.867v-1.2c0-0.8-0.533-1.333-1.333-1.333s-1.333 0.533-1.333 1.333v1.2h-0.4c-2.133 0-3.867 1.733-3.867 3.867s1.733 3.867 3.867 3.867h3.333c0.667 0 1.2 0.533 1.2 1.2s-0.533 1.2-1.2 1.2h-4.933c-0.8 0-1.333 0.533-1.333 1.333s0.533 1.333 1.333 1.333h2v1.2c0 0.8 0.533 1.333 1.333 1.333s1.333-0.533 1.333-1.333v-1.2h0.4c2.133 0 3.867-1.733 3.867-3.867s-1.733-3.867-3.867-3.867z"></path>
</symbol>
<symbol id="icon-spoon" viewBox="0 0 32 32">
<path fill="#fd9222" style="fill: var(--color2, #fd9222)" d="M15.451 14.106c-0.783-0.95-1.177-2.116-1.177-3.282 0-4.324 5.181-8.642 10.362-8.642 2.86 0 5.181 2.321 5.181 5.182 0 5.182-4.318 10.364-8.646 10.364-1.166 0-2.331-0.394-3.281-1.177l-12.758 12.761c-0.675 0.675-1.77 0.675-2.445 0s-0.675-1.771 0-2.445l12.764-12.761z"></path>
<symbol id="icon-hamburger-m" viewBox="0 0 32 32">
<path stroke-width="2.2857" stroke-miterlimit="4" stroke-linecap="round" stroke-linejoin="round" d="M4 16h24M4 8h24M4 24h24"></path>
</symbol>
<symbol id="icon-instagram-d-t" viewBox="0 0 32 32">
<path stroke-width="2.6667" stroke-miterlimit="4" stroke-linecap="round" stroke-linejoin="round" d="M22.667 2.667h-13.333c-3.682 0-6.667 2.985-6.667 6.667v13.333c0 3.682 2.985 6.667 6.667 6.667h13.333c3.682 0 6.667-2.985 6.667-6.667v-13.333c0-3.682-2.985-6.667-6.667-6.667z"></path>
<path stroke-width="2.6667" stroke-miterlimit="4" stroke-linecap="round" stroke-linejoin="round" d="M21.334 15.16c0.165 1.11-0.025 2.243-0.542 3.239s-1.334 1.803-2.336 2.307c-1.002 0.504-2.138 0.68-3.245 0.502s-2.131-0.701-2.924-1.494-1.316-1.816-1.494-2.924c-0.178-1.108-0.003-2.243 0.502-3.245s1.312-1.819 2.308-2.336 2.129-0.706 3.239-0.542c1.132 0.168 2.18 0.695 2.989 1.504s1.337 1.857 1.504 2.989z"></path>
<path stroke-width="2.6667" stroke-miterlimit="4" stroke-linecap="round" stroke-linejoin="round" d="M23.333 8.667h0.013"></path>
</symbol>
<symbol id="icon-logo-d" viewBox="0 0 32 32">
<path fill="none" stroke="#fd9222" stroke-width="2.6667" stroke-miterlimit="4" stroke-linecap="round" stroke-linejoin="round" style="stroke: var(--color1, #fd9222)" d="M22.301 23.88l-14.185-8.864M12.028 8.599l14.185 8.864M11.297 25.864l11.736-19.25M27.843 14.789c-3.040-1.899-4.234-3.384-2.278-6.592l-9.626-6.015-11.736 19.25 14.186 8.864 9.454-15.507z"></path>
</symbol>
<symbol id="icon-price" viewBox="0 0 32 32">
<path fill="#fd9222" style="fill: var(--color1, #fd9222)" d="M16 2.667c-7.333 0-13.333 6-13.333 13.333s6 13.333 13.333 13.333c7.333 0 13.333-6 13.333-13.333s-6-13.333-13.333-13.333zM16 26.667c-5.867 0-10.667-4.8-10.667-10.667s4.8-10.667 10.667-10.667c5.867 0 10.667 4.8 10.667 10.667s-4.8 10.667-10.667 10.667z"></path>
<path fill="#fd9222" style="fill: var(--color1, #fd9222)" d="M17.733 14.667h-3.467c-0.667 0-1.2-0.533-1.2-1.2s0.533-1.2 1.2-1.2h4.933c0.8 0 1.333-0.533 1.333-1.333s-0.533-1.333-1.333-1.333h-1.867v-1.2c0-0.8-0.533-1.333-1.333-1.333s-1.333 0.533-1.333 1.333v1.2h-0.4c-2.133 0-3.867 1.733-3.867 3.867s1.733 3.867 3.867 3.867h3.333c0.667 0 1.2 0.533 1.2 1.2s-0.533 1.2-1.2 1.2h-4.933c-0.8 0-1.333 0.533-1.333 1.333s0.533 1.333 1.333 1.333h2v1.2c0 0.8 0.533 1.333 1.333 1.333s1.333-0.533 1.333-1.333v-1.2h0.4c2.133 0 3.867-1.733 3.867-3.867s-1.733-3.867-3.867-3.867z"></path>
</symbol>
<symbol id="icon-production" viewBox="0 0 32 32">
<path fill="#fd9222" style="fill: var(--color1, #fd9222)" d="M15.451 14.106c-0.783-0.95-1.177-2.116-1.177-3.282 0-4.324 5.181-8.642 10.362-8.642 2.86 0 5.181 2.321 5.181 5.182 0 5.182-4.317 10.364-8.646 10.364-1.166 0-2.332-0.394-3.281-1.177l-12.758 12.761c-0.675 0.675-1.77 0.675-2.445 0s-0.675-1.771 0-2.445l12.764-12.761z"></path>
</symbol>
<symbol id="icon-scroll-d-t" viewBox="0 0 32 32">
<path fill="#fd9222" style="fill: var(--color1, #fd9222)" d="M17.489 18.933c-0.195 0.196-0.427 0.352-0.682 0.459s-0.529 0.161-0.806 0.161c-0.277 0-0.55-0.055-0.806-0.161s-0.487-0.262-0.682-0.459l-9.596-9.617c-0.195-0.196-0.426-0.352-0.682-0.459s-0.529-0.161-0.806-0.161c-0.277 0-0.55 0.055-0.806 0.161s-0.487 0.262-0.682 0.459c-0.39 0.393-0.609 0.924-0.609 1.477s0.219 1.085 0.609 1.477l9.617 9.617c1.179 1.177 2.776 1.838 4.442 1.838s3.263-0.661 4.442-1.838l9.617-9.617c0.387-0.39 0.605-0.917 0.608-1.467 0.002-0.276-0.051-0.549-0.156-0.804s-0.258-0.487-0.452-0.683c-0.195-0.196-0.426-0.352-0.682-0.459s-0.529-0.161-0.806-0.161-0.55 0.055-0.806 0.161c-0.255 0.106-0.487 0.262-0.682 0.459l-9.596 9.617z"></path>
</symbol>
<symbol id="icon-taste" viewBox="0 0 32 32">
<path fill="#000" style="fill: var(--color2, #000)" d="M13.511 0.472l8.602 8.613 0.091-0.091c0.18-0.176 0.422-0.276 0.674-0.279s0.496 0.092 0.68 0.264l0.998 0.998c0.349 0.349 0.36 0.88 0.095 1.25l-0.005 0.008-0.163 0.219 7.040 7.040c0.629 0.629 0.629 1.634 0 2.263l-10.777 10.777c-0.629 0.629-1.634 0.629-2.263 0l-5.082-5.082c-0.084 0.106-0.19 0.194-0.311 0.256s-0.253 0.099-0.389 0.106c-0.136 0.008-0.271-0.014-0.398-0.062s-0.242-0.123-0.338-0.22l-2.971-2.971c-0.176-0.18-0.276-0.421-0.279-0.674s0.092-0.496 0.264-0.68l0.007-0.008 0.088-0.087-8.602-8.602c-0.629-0.629-0.629-1.634 0-2.263l10.777-10.777c0.629-0.629 1.634-0.629 2.263 0v0.001zM21.033 10.163l-2.007-2.006c-0.063-0.065-0.139-0.117-0.222-0.152s-0.173-0.053-0.264-0.053c-0.091 0-0.18 0.018-0.264 0.053s-0.159 0.087-0.222 0.152l-4.091 4.091c-0.065 0.064-0.116 0.141-0.151 0.225s-0.053 0.175-0.053 0.266 0.018 0.182 0.053 0.266c0.035 0.084 0.086 0.161 0.151 0.225l1.999 1.999 0.697-0.697-1.789-1.789 3.669-3.68 1.793 1.799 0.701-0.701zM15.232 15.96l-2.005-2.005c-0.063-0.065-0.139-0.117-0.222-0.152s-0.173-0.053-0.264-0.053c-0.091 0-0.18 0.018-0.264 0.053s-0.159 0.087-0.222 0.152l-4.103 4.103c-0.274 0.263-0.274 0.697 0 0.971l2.002 2.002 0.704-0.704-1.794-1.787 3.68-3.669 1.787 1.786 0.699-0.698zM7.797 7.078l4.091 4.091c0.274 0.274 0.709 0.274 0.971-0.011l4.091-4.091c0.065-0.062 0.117-0.136 0.152-0.219s0.054-0.171 0.054-0.261h0.011c0-0.171-0.069-0.354-0.206-0.491l-4.091-4.091c-0.064-0.065-0.141-0.117-0.225-0.152s-0.175-0.053-0.266-0.053c-0.091 0-0.182 0.018-0.266 0.053s-0.161 0.087-0.225 0.152l-4.091 4.103c-0.274 0.263-0.274 0.697 0 0.971zM2.002 12.872l4.091 4.091c0.274 0.274 0.709 0.274 0.971 0l4.091-4.091c0.066-0.063 0.119-0.14 0.154-0.224s0.053-0.176 0.051-0.267h0.011c0-0.183-0.069-0.354-0.206-0.491l-4.091-4.091c-0.063-0.065-0.139-0.117-0.222-0.152s-0.173-0.053-0.264-0.053c-0.091 0-0.18 0.018-0.264 0.053s-0.159 0.087-0.222 0.152l-4.103 4.103c-0.274 0.263-0.274 0.697 0 0.971zM9.926 22.877l2.699 2.701 11.013-14.903-0.749-0.749-12.963 12.951z"></path>
<path fill="#fd9222" style="fill: var(--color1, #fd9222)" d="M13.511 0.472l8.602 8.613 0.091-0.091c0.18-0.176 0.422-0.276 0.674-0.279s0.496 0.092 0.68 0.264l0.998 0.998c0.349 0.349 0.36 0.88 0.095 1.25l-0.005 0.008-0.163 0.219 7.040 7.040c0.629 0.629 0.629 1.634 0 2.263l-10.777 10.777c-0.629 0.629-1.634 0.629-2.263 0l-5.082-5.082c-0.084 0.106-0.19 0.194-0.311 0.256s-0.253 0.099-0.389 0.106c-0.136 0.008-0.271-0.014-0.398-0.062s-0.242-0.123-0.338-0.22l-2.971-2.971c-0.176-0.18-0.276-0.421-0.279-0.674s0.092-0.496 0.264-0.68l0.007-0.008 0.088-0.087-8.602-8.602c-0.629-0.629-0.629-1.634 0-2.263l10.777-10.777c0.629-0.629 1.634-0.629 2.263 0v0.001zM21.033 10.163l-2.007-2.006c-0.063-0.065-0.139-0.117-0.222-0.152s-0.173-0.053-0.264-0.053c-0.091 0-0.18 0.018-0.264 0.053s-0.159 0.087-0.222 0.152l-4.091 4.091c-0.065 0.064-0.116 0.141-0.151 0.225s-0.053 0.175-0.053 0.266 0.018 0.182 0.053 0.266c0.035 0.084 0.086 0.161 0.151 0.225l1.999 1.999 0.697-0.697-1.789-1.789 3.669-3.68 1.793 1.799 0.701-0.701zM15.232 15.96l-2.005-2.005c-0.063-0.065-0.139-0.117-0.222-0.152s-0.173-0.053-0.264-0.053c-0.091 0-0.18 0.018-0.264 0.053s-0.159 0.087-0.222 0.152l-4.103 4.103c-0.274 0.263-0.274 0.697 0 0.971l2.002 2.002 0.704-0.704-1.794-1.787 3.68-3.669 1.787 1.786 0.699-0.698zM7.797 7.078l4.091 4.091c0.274 0.274 0.709 0.274 0.971-0.011l4.091-4.091c0.065-0.062 0.117-0.136 0.152-0.219s0.054-0.171 0.054-0.261h0.011c0-0.171-0.069-0.354-0.206-0.491l-4.091-4.091c-0.064-0.065-0.141-0.117-0.225-0.152s-0.175-0.053-0.266-0.053c-0.091 0-0.182 0.018-0.266 0.053s-0.161 0.087-0.225 0.152l-4.091 4.103c-0.274 0.263-0.274 0.697 0 0.971zM2.002 12.872l4.091 4.091c0.274 0.274 0.709 0.274 0.971 0l4.091-4.091c0.066-0.063 0.119-0.14 0.154-0.224s0.053-0.176 0.051-0.267h0.011c0-0.183-0.069-0.354-0.206-0.491l-4.091-4.091c-0.063-0.065-0.139-0.117-0.222-0.152s-0.173-0.053-0.264-0.053c-0.091 0-0.18 0.018-0.264 0.053s-0.159 0.087-0.222 0.152l-4.103 4.103c-0.274 0.263-0.274 0.697 0 0.971zM9.926 22.877l2.699 2.701 11.013-14.903-0.749-0.749-12.963 12.951z"></path>
</symbol>
<symbol id="icon-twitter-d-t" viewBox="0 0 32 32">
<path stroke-width="2.6667" stroke-miterlimit="4" stroke-linecap="round" stroke-linejoin="round" d="M30.667 4c-1.277 0.901-2.691 1.589-4.187 2.040-0.803-0.923-1.87-1.578-3.057-1.875s-2.437-0.222-3.58 0.214c-1.143 0.436-2.125 1.213-2.812 2.226s-1.047 2.212-1.031 3.435v1.333c-2.343 0.061-4.665-0.459-6.759-1.513s-4.561-3.563-5.908-5.481c0 0-4.667 12.954 7.333 18.287-2.746 1.864-6.017 2.799-9.333 2.667 12 6.667 26.667 0 26.667-15.333-0.001-0.371-0.037-0.742-0.107-1.107 1.361-1.342 2.321-3.036 2.773-4.893z"></path>
</symbol>
<symbol id="icon-x-close" viewBox="0 0 32 32">
<path stroke-width="2.2857" stroke-miterlimit="4" stroke-linecap="round" stroke-linejoin="round" d="M24 8l-16 16"></path>
<path stroke-width="2.2857" stroke-miterlimit="4" stroke-linecap="round" stroke-linejoin="round" d="M8 8l16 16"></path>
</symbol>
<symbol id="icon-x-close-orange" viewBox="0 0 32 32">
<path fill="none" stroke="#fd9222" stroke-width="2.2857" stroke-miterlimit="4" stroke-linecap="round" stroke-linejoin="round" style="stroke: var(--color1, #fd9222)" d="M24 8l-16 16"></path>
<path fill="none" stroke="#fd9222" stroke-width="2.2857" stroke-miterlimit="4" stroke-linecap="round" stroke-linejoin="round" style="stroke: var(--color1, #fd9222)" d="M8 8l16 16"></path>
</symbol>
</defs>
</svg>
