<svg aria-hidden="true" style="position: absolute; width: 0; height: 0; overflow: hidden;" version="1.1" xmlns="http://www.w3.org/2000/svg" xmlns:xlink="http://www.w3.org/1999/xlink">
<defs>
<symbol id="icon-man-technologist-medium-skin-tone-svgrepo-com" viewBox="0 0 32 32">
<path fill="#77b255" style="fill: var(--color1, #77b255)" d="M31.111 32v-4.444c0-2.946-2.388-5.333-5.333-5.333v0h-14.222c-2.946 0-5.333 2.388-5.333 5.333v0 4.444h24.889z"></path>
<path fill="#d5ab88" style="fill: var(--color2, #d5ab88)" d="M14.791 22.316c0 0.795 2.098 1.772 3.876 1.772s3.875-0.977 3.875-1.771v-3.393h-7.751v3.392z"></path>
<path fill="#cc9b7a" style="fill: var(--color3, #cc9b7a)" d="M14.784 20.42c1.081 1.221 2.421 1.552 3.879 1.552s2.796-0.332 3.878-1.552v-3.103h-7.758v3.103z"></path>
<path fill="#d5ab88" style="fill: var(--color2, #d5ab88)" d="M12.839 11.499c0 1.287-0.652 2.331-1.457 2.331s-1.457-1.044-1.457-2.331 0.652-2.332 1.457-2.332c0.804-0.001 1.457 1.044 1.457 2.332zM27.407 11.499c0 1.287-0.652 2.331-1.457 2.331s-1.457-1.044-1.457-2.331 0.652-2.332 1.457-2.332c0.805-0.001 1.457 1.044 1.457 2.332z"></path>
<path fill="#d5ab88" style="fill: var(--color2, #d5ab88)" d="M11.091 12.409c0-4.968 3.392-8.996 7.576-8.996s7.575 4.028 7.575 8.996-3.391 8.996-7.575 8.996c-4.183-0.001-7.576-4.028-7.576-8.996z"></path>
<path fill="#c1694f" style="fill: var(--color4, #c1694f)" d="M18.667 18.491c-2.448 0-3.2-0.627-3.325-0.754-0.112-0.106-0.181-0.256-0.181-0.422 0-0.322 0.261-0.582 0.582-0.582 0.155 0 0.297 0.061 0.401 0.16l-0-0c0.046 0.033 0.641 0.433 2.524 0.433 1.956 0 2.521-0.431 2.526-0.436 0.102-0.102 0.244-0.164 0.399-0.164 0.162 0 0.309 0.068 0.412 0.177l0 0c0.102 0.107 0.164 0.251 0.164 0.411 0 0.166-0.068 0.315-0.177 0.423l-0 0c-0.125 0.127-0.877 0.754-3.325 0.754z"></path>
<path fill="#963b22" style="fill: var(--color5, #963b22)" d="M18.667 0c5.020 0 8.158 4.132 8.158 7.219s-0.628 4.323-1.255 3.087l-1.255-2.469s-3.764 0-5.020-1.236c0 0 1.883 3.705-1.883 0 0 0 0.628 2.47-3.138-0.617 0 0-1.883 1.235-2.51 4.322-0.174 0.857-1.255 0-1.255-3.087s2.509-7.219 8.157-7.219z"></path>
<path fill="#662113" style="fill: var(--color6, #662113)" d="M15.111 12.444c-0.489 0-0.889-0.4-0.889-0.889v-0.889c0-0.489 0.4-0.889 0.889-0.889s0.889 0.4 0.889 0.889v0.889c0 0.489-0.4 0.889-0.889 0.889zM22.222 12.444c-0.489 0-0.889-0.4-0.889-0.889v-0.889c0-0.489 0.4-0.889 0.889-0.889s0.889 0.4 0.889 0.889v0.889c0 0.489-0.4 0.889-0.889 0.889z"></path>
<path fill="#c1694f" style="fill: var(--color4, #c1694f)" d="M19.333 14.889h-1.333c-0.367 0-0.667-0.3-0.667-0.667s0.3-0.667 0.667-0.667h1.333c0.367 0 0.667 0.3 0.667 0.667s-0.3 0.667-0.667 0.667z"></path>
<path fill="#e1e8ed" style="fill: var(--color7, #e1e8ed)" d="M29.333 31.111c0 0.491-0.398 0.889-0.889 0.889v0h-8.889c-0.491 0-0.889-0.398-0.889-0.889s0.398-0.889 0.889-0.889v0h8.889c0.491 0 0.889 0.398 0.889 0.889v0z"></path>
<path fill="#e1e8ed" style="fill: var(--color7, #e1e8ed)" d="M17.991 19.556h-14.65c-1.355 0-3.092 0.685-2.203 3.139l2.731 7.533c0.001 0 0.353 1.772 2.353 1.772h17.778l-3.556-9.991c-0.389-1.175-1.098-2.453-2.453-2.453z"></path>
<path fill="#99aab5" style="fill: var(--color8, #99aab5)" d="M17.102 19.556h-14.65c-1.355 0-3.092 0.685-2.203 3.139l2.731 7.533c0.001 0 0.353 1.772 2.353 1.772h17.778l-3.556-9.991c-0.389-1.175-1.098-2.453-2.453-2.453z"></path>
<path fill="#e1e8ed" style="fill: var(--color7, #e1e8ed)" d="M12.461 26.029c0.466 1.397 0.088 2.782-0.844 3.092s-2.064-0.57-2.53-1.967-0.088-2.782 0.844-3.092c0.932-0.31 2.065 0.57 2.53 1.967zM16.889 22h-14.222c-0.368 0-0.667-0.298-0.667-0.667s0.298-0.667 0.667-0.667v0h14.222c0.368 0 0.667 0.298 0.667 0.667s-0.298 0.667-0.667 0.667v0z"></path>
</symbol>
<symbol id="icon-woman-technologist-medium-skin-tone-svgrepo-com" viewBox="0 0 32 32">
<path fill="#9266cc" style="fill: var(--color9, #9266cc)" d="M31.111 32v-6.222c0-2.947-3.276-4.889-6.222-4.889h-10.667c-2.945 0-6.222 1.942-6.222 4.889v6.222h23.111z"></path>
<path fill="#963b22" style="fill: var(--color5, #963b22)" d="M19.506 1.395c3.65 0 9.732 1.825 9.732 9.732s0 9.732-1.825 9.732c-1.826 0-4.258-1.825-7.908-1.825s-6.030 1.825-7.907 1.825c-2.033 0-1.825-7.299-1.825-9.732 0.002-7.907 6.084-9.732 9.732-9.732z"></path>
<path fill="#d5ab88" style="fill: var(--color2, #d5ab88)" d="M16.292 20.907c0 1.316 1.931 1.76 3.264 1.76s3.253-0.444 3.253-1.76v-2.849h-6.517v2.849z"></path>
<path fill="#cc9b7a" style="fill: var(--color3, #cc9b7a)" d="M16.285 19.27c0.909 1.027 2.036 1.305 3.261 1.305s2.353-0.277 3.262-1.305v-2.61h-6.524v2.61z"></path>
<path fill="#d5ab88" style="fill: var(--color2, #d5ab88)" d="M12.208 10.86c0-5.186 3.268-9.389 7.298-9.389s7.299 4.204 7.299 9.389c0 5.185-3.268 9.143-7.299 9.143s-7.298-3.957-7.298-9.143z"></path>
<path fill="#df1f32" style="fill: var(--color10, #df1f32)" d="M19.506 17.816c-1.427 0-2.174-0.706-2.254-0.787-0.106-0.109-0.171-0.258-0.171-0.422 0-0.336 0.272-0.608 0.608-0.608 0.161 0 0.307 0.063 0.416 0.165l-0-0c0.031 0.028 0.492 0.436 1.401 0.436 0.924 0 1.384-0.42 1.402-0.437 0.109-0.103 0.257-0.166 0.419-0.166 0.171 0 0.326 0.070 0.437 0.184l0 0c0.231 0.239 0.231 0.614-0.004 0.849-0.079 0.081-0.826 0.787-2.254 0.787z"></path>
<path fill="#963b22" style="fill: var(--color5, #963b22)" d="M10.422 13.778c-0.019-0.889-0.039-0.199-0.039-0.413 0-3.042 1.825 0.439 1.825-1.727 0-2.168 1.216-2.385 2.432-3.601 0.609-0.609 1.825-1.801 1.825-1.801s3.041 1.837 5.474 1.837c2.432 0 4.866 1.222 4.866 3.655s1.825-1.408 1.825 1.633c0 0.217-0.020-0.472-0.036 0.417h0.638c0.006-1.778 0.006-1.71 0.006-2.846 0-7.907-6.083-10.851-9.732-10.851s-9.731 2.895-9.731 10.802c0 0.705-0.018 1.117 0.007 2.895h0.639z"></path>
<path fill="#662113" style="fill: var(--color6, #662113)" d="M16.54 12.788c-0.415-0.002-0.751-0.337-0.752-0.752v-0.751c0-0.413 0.339-0.752 0.752-0.752s0.753 0.339 0.753 0.752v0.751c-0.002 0.415-0.338 0.751-0.753 0.752h-0zM22.554 12.788c-0.415-0.002-0.75-0.337-0.752-0.752v-0.751c0-0.413 0.339-0.752 0.752-0.752s0.752 0.339 0.752 0.752v0.751c-0.002 0.415-0.337 0.751-0.752 0.752h-0z"></path>
<path fill="#c1694f" style="fill: var(--color4, #c1694f)" d="M20.3 15.111h-1.503c-0.207-0.001-0.375-0.169-0.376-0.376v-0.136c0-0.207 0.168-0.377 0.376-0.377h1.503c0.206 0 0.376 0.169 0.376 0.377v0.136c-0 0.207-0.169 0.376-0.376 0.376h-0z"></path>
<path fill="#d5ab88" style="fill: var(--color2, #d5ab88)" d="M13.728 11.943c0 1.287-0.652 2.331-1.457 2.331s-1.457-1.044-1.457-2.331 0.652-2.332 1.457-2.332c0.804-0.001 1.457 1.044 1.457 2.332zM28.296 11.943c0 1.287-0.652 2.331-1.457 2.331s-1.457-1.044-1.457-2.331 0.652-2.332 1.457-2.332c0.805-0.001 1.457 1.044 1.457 2.332z"></path>
<path fill="#e1e8ed" style="fill: var(--color7, #e1e8ed)" d="M29.333 31.111c0 0.491-0.398 0.889-0.889 0.889v0h-8.889c-0.491 0-0.889-0.398-0.889-0.889s0.398-0.889 0.889-0.889v0h8.889c0.491 0 0.889 0.398 0.889 0.889v0z"></path>
<path fill="#e1e8ed" style="fill: var(--color7, #e1e8ed)" d="M17.991 19.556h-14.65c-1.355 0-3.092 0.685-2.203 3.139l2.731 7.533c0.001 0 0.353 1.772 2.353 1.772h17.778l-3.556-9.991c-0.389-1.175-1.098-2.453-2.453-2.453z"></path>
<path fill="#99aab5" style="fill: var(--color8, #99aab5)" d="M17.102 19.556h-14.65c-1.355 0-3.092 0.685-2.203 3.139l2.731 7.533c0.001 0 0.353 1.772 2.353 1.772h17.778l-3.556-9.991c-0.389-1.175-1.098-2.453-2.453-2.453z"></path>
<path fill="#e1e8ed" style="fill: var(--color7, #e1e8ed)" d="M12.461 26.029c0.466 1.397 0.089 2.782-0.844 3.092-0.931 0.311-2.064-0.57-2.53-1.967s-0.088-2.782 0.844-3.092c0.932-0.31 2.065 0.57 2.53 1.967zM16.889 22h-14.222c-0.368 0-0.667-0.298-0.667-0.667s0.298-0.667 0.667-0.667v0h14.222c0.368 0 0.667 0.298 0.667 0.667s-0.298 0.667-0.667 0.667v0z"></path>
</symbol>
</defs>
</svg>
