<svg aria-hidden="true" style="position: absolute; width: 0; height: 0; overflow: hidden;" version="1.1" xmlns="http://www.w3.org/2000/svg" xmlns:xlink="http://www.w3.org/1999/xlink">
<defs>
<symbol id="icon-Group-1" viewBox="0 0 31 32">
<path fill="#ff6b09" style="fill: var(--color1, #ff6b09)" d="M7.953 23.273c1.588 0 10.776 0 12.362 0 0.061-1.41-0.040-3.749-0.907-4.862l-0.031-0.040-1.894-0.951c0.041-0.139 0.061-0.266 0.069-0.359 0.009-0.112-0.006-0.217-0.046-0.313-0.312-0.748-0.974-1.141-1.337-1.309 0.111-0.223 0.182-0.463 0.217-0.708 0.206-0.058 0.372-0.221 0.426-0.439l0.221-0.898c0.039-0.158 0.015-0.323-0.070-0.463-0.036-0.060-0.083-0.111-0.136-0.154 0.623-1.416-0.421-2.751-0.478-2.821-1.131-1.222-2.559-0.994-2.634-0.98-2.061 0.432-2.857 2.011-2.408 3.864-0.133 0.147-0.189 0.353-0.14 0.554l0.222 0.899c0.054 0.216 0.218 0.379 0.423 0.437 0.063 0.449 0.253 0.854 0.532 1.181v0.712c-2.958 1.515-1.084 0.548-3.454 1.748-0.005 0.022-1.112 1.2-0.948 4.689l0.010 0.213zM19.885 22.826h-2.035v-0.855l1.346-3.081c0.674 1.119 0.699 3.255 0.689 3.935zM17.108 17.023c-0.079 0.902-0.573 0.629-0.878 1.324-0.24-0.264-0.312-0.581-0.248-0.92 0.117-0.622-0.263-0.807-0.169-1.461l0.014-0.015v-0.002c0.008-0.009 0.083-0.098 0.105-0.126 0.805 0.351 1.193 1.003 1.177 1.2zM12.79 16.314c0.374 0.259 0.825 0.412 1.31 0.412 0.457 0 0.891-0.133 1.263-0.378 0.052 0.514 0.253 0.617 0.181 0.995-0.013 0.070-0.021 0.139-0.025 0.207l-1.386 1.562-1.771-1.997 0.428-0.223v-0.579zM12.233 14.403v-0.866c0-0.319 0-1.584 0-1.521 0.216-0.399 0.51-0.688 0.875-0.861 0.979 0.554 2.105 1.38 2.86 2.211-0.001 1.059 0.003 1.062-0.004 1.149l-0 0.006c-0.059 0.962-0.85 1.759-1.864 1.759-0.986 0-1.804-0.774-1.863-1.768-0.003-0.036-0.004-0.071-0.004-0.108zM11.957 17.332l2.177 2.454 1.461-1.647c0.033 0.096 0.080 0.187 0.134 0.275l-1.595 1.995-2.379-2.975 0.202-0.101zM16.414 14.043v-0.691c0.020-0.022 0.186-0.213 0.166-0.191 0.009 0.35 0.047-0.063-0.166 0.882zM13.798 9.416c0.088 0.005 1.276-0.181 2.215 0.833 0.037 0.046 0.801 1.031 0.494 2.108-0.105-0.479-0.288-1.093-0.578-1.387l-0.316 0.315c0.286 0.289 0.474 1.171 0.545 1.628-1.311-1.372-3.002-2.24-3.025-2.255-0.085 0.053-0.8 0.189-1.32 1.199l-0.025 0.048v0.742c-0.022 0-0.088 0.001-0.066 0.001-0.33-1.594 0.302-2.861 2.076-3.233zM11.675 13.109l0.113 0.456v0.479l-0.187-0.757c-0.027-0.113 0.056-0.156 0.074-0.178zM11.347 17.638l2.787 3.485 1.885-2.358c0.205 0.184 0.304 0.21 0.739 0.433l-0.147-0.497c-0.037-0.126 0.11-0.329 0.199-0.422 0.199-0.108 0.364-0.261 0.488-0.451l1.538 0.772-1.431 3.277v0.948h-6.543v-0.949l-1.432-3.277 1.917-0.962zM9.071 18.891l1.346 3.080v0.855h-2.035c-0.010-0.68 0.015-2.815 0.689-3.934z"></path>
<path fill="none" stroke="#ff6b09" style="stroke: var(--color1, #ff6b09)" stroke-linejoin="miter" stroke-linecap="butt" stroke-miterlimit="4" stroke-width="0.6154" d="M31.077 4.615v-4.308h-30.769v31.385h30.769v-4.308"></path>
</symbol>
<symbol id="icon-Group-2" viewBox="0 0 31 32">
<path fill="#ff6b09" style="fill: var(--color1, #ff6b09)" d="M20.406 8.558h-7.116c-0.463 0-0.84 0.377-0.84 0.84v2.946l-5.287 2.219c-0.060 0.025-0.101 0.082-0.105 0.146s0.027 0.127 0.083 0.16l0.674 0.403v4.3c-0.345 0.079-0.603 0.387-0.603 0.756v0.414c0 0.095 0.077 0.172 0.172 0.172h1.207c0.095 0 0.172-0.077 0.172-0.172v-0.414c0-0.369-0.259-0.677-0.604-0.756v-4.094l0.533 0.319c-0.016 0.123-0.002-0.214-0.008 2.002 0 0.729 1.866 1.119 3.765 1.141v3.356c0 0.173 0.053 0.335 0.144 0.468 0.151 0.223 0.407 0.37 0.696 0.37h7.116c0.463 0 0.839-0.377 0.839-0.839 0 0.023-0.001-0.711 0-12.898 0-0.457-0.378-0.84-0.839-0.84zM8.419 20.328v0.242h-0.863v-0.242c0-0.239 0.193-0.433 0.43-0.433 0.239 0 0.433 0.194 0.433 0.433zM20.406 22.79h-7.116c-0.171 0-0.322-0.086-0.411-0.218-0.053-0.079-0.085-0.174-0.085-0.276v-1.163h8.105v1.164c0 0.27-0.225 0.494-0.494 0.494zM20.9 20.788h-8.105v-1.847c0.927-0.011 3.767-0.215 3.767-1.142-0.001-1.392 0.002-1.957-0.004-2.005l1.546-0.926c0.056-0.033 0.088-0.095 0.083-0.16s-0.045-0.121-0.105-0.146l-5.286-2.219v-1.438h8.105v9.883zM12.622 16.656c-0.955 0-2.794 0.123-3.592 0.645 0.005-1.595-0.055-1.491 0.141-1.627 0.496-0.365 1.915-0.62 3.451-0.62 0.67 0 3.595 0.184 3.595 0.803v1.444c-0.806-0.526-2.636-0.645-3.595-0.645zM12.795 9.398c0-0.273 0.222-0.495 0.495-0.495h7.116c0.273 0 0.494 0.225 0.494 0.495v1.163h-8.105v-1.163zM12.622 12.644l5.012 2.104-1.242 0.743c-0.66-0.655-2.844-0.782-3.77-0.782-0.927 0-3.111 0.127-3.77 0.782l-1.242-0.743 5.012-2.104zM9.030 17.799c0-0.279 1.234-0.799 3.592-0.799 2.36 0 3.595 0.52 3.595 0.799s-1.235 0.799-3.595 0.799c-2.359 0-3.592-0.52-3.592-0.799z"></path>
<path fill="#ff6b09" style="fill: var(--color1, #ff6b09)" d="M16.848 21.392c-0.314 0-0.569 0.255-0.569 0.569s0.255 0.57 0.569 0.57c0.314 0 0.569-0.256 0.569-0.57s-0.255-0.569-0.569-0.569zM16.848 22.187c-0.124 0-0.225-0.101-0.225-0.225s0.101-0.225 0.225-0.225c0.124 0 0.225 0.101 0.225 0.225s-0.101 0.225-0.225 0.225z"></path>
<path fill="#ff6b09" style="fill: var(--color1, #ff6b09)" d="M17.504 9.56h-1.313v0.344h1.313v-0.344z"></path>
<path fill="none" stroke="#ff6b09" style="stroke: var(--color1, #ff6b09)" stroke-linejoin="miter" stroke-linecap="butt" stroke-miterlimit="4" stroke-width="0.6154" d="M31.077 4.615v-4.308h-30.769v31.385h30.769v-4.308"></path>
</symbol>
<symbol id="icon-Group-3" viewBox="0 0 31 32">
<path fill="#ff6b09" style="fill: var(--color1, #ff6b09)" d="M7.942 14.958c0 0.165-0.25 0.165-0.25 0 0-3.502 2.84-6.342 6.343-6.342 3.504 0 6.343 2.84 6.343 6.343 0 0.165-0.249 0.165-0.249 0 0-2.367-3.89-2.369-3.89 0 0 0.165-0.256 0.165-0.256 0 0-2.361-3.896-2.361-3.896 0 0 0.165-0.256 0.165-0.256 0 0-2.357-3.888-2.373-3.888 0zM11.853 14.039c0.067-1.363 0.281-2.584 0.593-3.517 0.249-0.741 0.563-1.304 0.919-1.62-2.674 0.292-4.839 2.319-5.323 4.949 0.921-1.328 3.047-1.222 3.811 0.189zM15.963 13.977c-0.069-1.31-0.277-2.482-0.576-3.376-0.773-2.313-1.931-2.313-2.704 0-0.299 0.894-0.506 2.066-0.576 3.376 0.831-1.412 3.026-1.412 3.857 0zM20.027 13.85c-0.482-2.629-2.647-4.657-5.323-4.949 0.358 0.316 0.671 0.879 0.919 1.62 0.311 0.933 0.526 2.155 0.593 3.517 0.768-1.418 2.9-1.502 3.811-0.189z"></path>
<path fill="#ff6b09" style="fill: var(--color1, #ff6b09)" d="M13.202 17.86v-1.288c-0.232 0.154-0.415 0.392-0.415 0.683 0 0.283 0.186 0.47 0.415 0.605zM13.452 18.26c-0.445-0.204-0.913-0.442-0.913-1.005 0-0.581 0.442-0.872 0.913-1.089v2.094z"></path>
<path fill="#ff6b09" style="fill: var(--color1, #ff6b09)" d="M14.867 19.803v1.303c0.235-0.156 0.419-0.395 0.419-0.686 0-0.286-0.189-0.479-0.419-0.617zM14.619 19.402c0.446 0.207 0.918 0.452 0.918 1.018 0 0.582-0.445 0.873-0.918 1.089v-2.107z"></path>
<path fill="#ff6b09" style="fill: var(--color1, #ff6b09)" d="M14.867 15.106c1.024 0.237 2.077 1.003 2.077 2.149 0 0.981-1.658 0.945-1.658 0 0-0.292-0.184-0.532-0.419-0.686v1.833c0.948 0.31 2.080 0.865 2.080 2.018 0 1.147-1.053 1.912-2.080 2.147-0.005 1.092-1.662 1.090-1.665-0.001-0.584-0.135-1.092-0.407-1.458-0.768-0.385-0.38-0.612-0.858-0.612-1.378 0-0.966 1.656-0.966 1.656 0 0 0.289 0.183 0.527 0.415 0.681v-1.831c-0.94-0.304-2.078-0.876-2.078-2.018 0-1.147 1.053-1.912 2.078-2.147 0.005-1.092 1.662-1.090 1.665 0.001zM13.452 15.109v0.199c-0.975 0.193-2.080 0.818-2.080 1.944 0 1.083 1.213 1.568 2.080 1.836v2.42c-0.469-0.214-0.913-0.503-0.913-1.087 0-0.638-1.159-0.638-1.159 0 0 0.451 0.201 0.867 0.539 1.199 0.43 0.425 0.951 0.627 1.533 0.743v0.201c0 0.768 1.166 0.768 1.166 0v-0.199c0.978-0.195 2.078-0.819 2.078-1.944 0-1.093-1.21-1.563-2.078-1.837v-2.418c0.47 0.214 0.918 0.503 0.918 1.090 0 0.621 1.157 0.647 1.157 0 0-1.125-1.099-1.75-2.075-1.945v-0.201c0-0.768-1.166-0.768-1.166 0z"></path>
<path fill="none" stroke="#ff6b09" style="stroke: var(--color1, #ff6b09)" stroke-linejoin="miter" stroke-linecap="butt" stroke-miterlimit="4" stroke-width="0.6154" d="M31.077 4.615v-4.308h-30.769v31.385h30.769v-4.308"></path>
</symbol>
</defs>
</svg>
