<svg aria-hidden="true" style="position: absolute; width: 0; height: 0; overflow: hidden;" version="1.1" xmlns="http://www.w3.org/2000/svg" xmlns:xlink="http://www.w3.org/1999/xlink">
<defs>
<symbol id="icon-milk-bucket" viewBox="0 0 20 32">
<path d="M4.241 3.099l-0.524-1.179h13.046l-0.546 1.228c-0.233 0.523-0.143 1.134 0.229 1.568l0.708 0.826c0.206 0.24 0.178 0.601-0.062 0.806-0.227 0.194-0.565 0.181-0.776-0.030l-0.648-0.648c-0.462-0.462-1.175-0.562-1.746-0.245l-2.253 1.252c-0.487 0.27-0.788 0.783-0.788 1.34v1.103c0 0.442-0.358 0.8-0.8 0.8s-0.8-0.358-0.8-0.8v-1.121c0-0.53-0.273-1.022-0.722-1.303l-1.947-1.217c-0.543-0.339-1.238-0.31-1.75 0.074l-1.179 0.884c-0.184 0.138-0.444 0.108-0.591-0.069-0.135-0.162-0.133-0.398 0.004-0.558l0.905-1.055c0.394-0.459 0.488-1.104 0.242-1.657zM3.225 0c-1.158 0-1.932 1.192-1.462 2.25l0.634 1.426-0.76 0.886c-0.747 0.872-0.756 2.155-0.021 3.037 0.802 0.962 2.217 1.127 3.218 0.376l0.975-0.731 1.551 0.969v0.908c0 1.502 1.218 2.72 2.72 2.72s2.72-1.218 2.72-2.72v-0.875l1.753-0.974 0.405 0.405c0.921 0.921 2.395 0.977 3.384 0.13 1.045-0.896 1.166-2.469 0.27-3.514l-0.528-0.617 0.634-1.426c0.47-1.058-0.304-2.25-1.462-2.25h-14.030zM0.96 12.16c-0.279 0-0.544 0.121-0.726 0.332s-0.264 0.49-0.224 0.766l2.56 17.6c0.069 0.472 0.473 0.822 0.95 0.822h12.8c0.464 0 0.861-0.332 0.945-0.788l3.2-17.6c0.051-0.28-0.025-0.568-0.207-0.787s-0.452-0.345-0.737-0.345h-18.56zM2.224 14.080h16.069c-0.367 1.19-1.014 2.613-1.994 3.841-1.302 1.63-3.153 2.879-5.738 2.879-3.418 0-5.288-1.17-6.447-2.635-0.947-1.198-1.472-2.65-1.889-4.085zM2.88 19.703c1.57 1.794 3.96 3.029 7.674 3.029 3.010 0 5.238-1.354 6.8-3.084l-1.841 10.124h-11.168l-1.465-10.069z"></path>
</symbol>
<symbol id="icon-close" viewBox="0 0 32 32">
<path d="M3.414 0.586c-0.781-0.781-2.047-0.781-2.828 0s-0.781 2.047 0 2.828l12.586 12.586-12.586 12.586c-0.781 0.781-0.781 2.047 0 2.828s2.047 0.781 2.828 0l12.586-12.586 12.586 12.586c0.781 0.781 2.047 0.781 2.828 0s0.781-2.047 0-2.828l-12.586-12.586 12.586-12.586c0.781-0.781 0.781-2.047 0-2.828s-2.047-0.781-2.828 0l-12.586 12.586-12.586-12.586z"></path>
</symbol>
<symbol id="icon-burger" viewBox="0 0 46 32">
<path d="M0 2.286c0-1.262 1.023-2.286 2.286-2.286h41.143c1.262 0 2.286 1.023 2.286 2.286s-1.023 2.286-2.286 2.286h-41.143c-1.262 0-2.286-1.023-2.286-2.286z"></path>
<path d="M0 16c0-1.262 1.023-2.286 2.286-2.286h41.143c1.262 0 2.286 1.023 2.286 2.286s-1.023 2.286-2.286 2.286h-41.143c-1.262 0-2.286-1.023-2.286-2.286z"></path>
<path d="M2.286 27.429c-1.262 0-2.286 1.023-2.286 2.286s1.023 2.286 2.286 2.286h41.143c1.262 0 2.286-1.023 2.286-2.286s-1.023-2.286-2.286-2.286h-41.143z"></path>
</symbol>
<symbol id="icon-heart-on-stick" viewBox="0 0 29 32">
<path d="M4.111 3.084c-0.988 0.861-1.87 2.412-1.87 5.236 0 0.879 0.143 1.736 0.415 2.576 0.232 0.224 0.35 0.28 0.382 0.292 0.001 0.001 0.003 0.001 0.004 0.002 0.012 0.005 0.022 0.010 0.16 0.010 0.223 0 0.341-0.069 0.472-0.236 0.177-0.224 0.321-0.561 0.509-1.061 0.015-0.040 0.030-0.081 0.046-0.123 0.156-0.419 0.359-0.965 0.654-1.4 0.368-0.54 0.953-1.020 1.839-1.020 0.8 0 1.644 0.208 2.216 0.995 0.508 0.699 0.664 1.684 0.664 2.845 0 0.884 0.153 1.379 0.319 1.627 0.12 0.18 0.281 0.293 0.641 0.293s0.521-0.112 0.641-0.293c0.166-0.249 0.319-0.744 0.319-1.627 0-1.16 0.155-2.145 0.664-2.845 0.573-0.787 1.417-0.995 2.216-0.995s1.644 0.208 2.216 0.995c0.508 0.699 0.664 1.684 0.664 2.845 0 1.080 0.165 1.535 0.296 1.715 0.067 0.093 0.183 0.205 0.664 0.205s0.596-0.112 0.664-0.205c0.132-0.181 0.296-0.636 0.296-1.715 0-1.16 0.155-2.145 0.664-2.845 0.573-0.787 1.417-0.995 2.216-0.995 0.49 0 0.935 0.126 1.319 0.376 0.374 0.244 0.638 0.572 0.83 0.901 0.35 0.6 0.538 1.355 0.686 1.946 0.006 0.022 0.011 0.044 0.016 0.065 0.072 0.286 0.138 0.494 0.199 0.646 0.051 0.125 0.091 0.193 0.115 0.226 0.008 0.001 0.018 0.001 0.029 0.001 0.004-0.001 0.037-0.006 0.103-0.036 0.084-0.038 0.186-0.099 0.299-0.181 0.191-0.139 0.359-0.297 0.47-0.406 0.273-0.841 0.415-1.698 0.415-2.577 0-2.825-0.883-4.376-1.871-5.236-1.017-0.886-2.288-1.164-3.249-1.164-2.311 0-3.849 0.927-5.35 2.45-0.927 0.941-2.454 0.941-3.381 0-1.5-1.524-3.039-2.45-5.35-2.45-0.961 0-2.232 0.278-3.249 1.164zM24.925 13.413c-0.42-0.065-0.822-0.259-1.15-0.658-0.347-0.422-0.547-1.004-0.706-1.642-0.17-0.68-0.301-1.172-0.498-1.509-0.088-0.151-0.164-0.223-0.22-0.259-0.046-0.030-0.121-0.064-0.271-0.064-0.48 0-0.596 0.112-0.664 0.205-0.132 0.181-0.296 0.636-0.296 1.715 0 1.16-0.155 2.145-0.664 2.845-0.573 0.787-1.417 0.995-2.216 0.995s-1.644-0.208-2.216-0.995c-0.508-0.699-0.664-1.684-0.664-2.845 0-1.080-0.165-1.535-0.296-1.715-0.067-0.093-0.183-0.205-0.664-0.205s-0.596 0.112-0.664 0.205c-0.132 0.181-0.296 0.636-0.296 1.715 0 1.036-0.167 1.982-0.641 2.693-0.52 0.78-1.319 1.147-2.239 1.147s-1.719-0.368-2.239-1.147c-0.474-0.711-0.641-1.656-0.641-2.693 0-1.080-0.165-1.535-0.296-1.715-0.067-0.093-0.183-0.205-0.664-0.205-0.074 0-0.129 0-0.251 0.18-0.158 0.233-0.282 0.562-0.468 1.060-0.007 0.019-0.014 0.038-0.021 0.057-0.173 0.46-0.408 1.083-0.801 1.579-0.358 0.452-0.853 0.809-1.51 0.924 0.41 0.68 0.903 1.352 1.47 2.018 1.853 2.173 4.451 4.22 7.415 6.225 1.116 0.755 2.58 0.755 3.696 0 2.963-2.004 5.562-4.051 7.415-6.224 0.475-0.557 0.897-1.118 1.263-1.685zM2.849 1.636c1.463-1.274 3.231-1.636 4.511-1.636 2.979 0 4.981 1.259 6.718 3.023 0.175 0.177 0.47 0.177 0.645 0 1.737-1.764 3.739-3.023 6.718-3.023 1.279 0 3.048 0.362 4.511 1.636 1.492 1.299 2.529 3.428 2.529 6.684 0 2.994-1.329 5.646-3.356 8.024-2.021 2.371-4.79 4.533-7.8 6.569-0.015 0.010-0.029 0.020-0.044 0.029v8.097c0 0.53-0.43 0.96-0.96 0.96h-3.84c-0.53 0-0.96-0.43-0.96-0.96v-8.097c-0.015-0.010-0.029-0.019-0.044-0.029-3.010-2.036-5.779-4.198-7.8-6.569-2.027-2.378-3.356-5.030-3.356-8.024 0-3.255 1.038-5.384 2.53-6.684zM13.44 23.72v6.36h1.92v-6.36c-0.634 0.119-1.286 0.119-1.92 0z"></path>
</symbol>
<symbol id="icon-fruit-bucket" viewBox="0 0 31 32">
<path d="M5.42 0.335c0.497 0.151 0.779 0.676 0.628 1.174-0.266 0.877-0.302 1.916 0.155 3.101 0.219-0.389 0.534-0.757 1.017-1.112 0.728-0.534 1.675-0.806 2.679-0.611 0.994 0.193 1.935 0.822 2.725 1.886 0.473-0.238 0.987-0.35 1.494-0.35 0.668 0 1.218 0.15 1.691 0.364 0.030-0.577 0.145-1.111 0.332-1.601 0.39-1.024 1.067-1.786 1.805-2.339 0.416-0.312 1.006-0.228 1.318 0.188s0.228 1.006-0.188 1.318c-0.517 0.388-0.938 0.88-1.175 1.504-0.113 0.296-0.19 0.637-0.211 1.033 0.469-0.285 1.011-0.466 1.763-0.466 0.865 0 1.752 0.327 2.417 1.048s1.034 1.752 1.034 3.031c0 0.648-0.086 1.27-0.243 1.851h1.184c0.281 0 0.547 0.126 0.726 0.342s0.251 0.502 0.198 0.778c-0.008 0.040-0.016 0.081-0.024 0.122l-1.964 9.818c0.459 0.093 0.854 0.258 1.205 0.45 0.335-1.878 1.244-3.216 2.432-4.107 0.416-0.312 1.006-0.228 1.318 0.188s0.228 1.006-0.188 1.318c-0.66 0.495-1.244 1.222-1.563 2.308 0.366-0.15 0.788-0.238 1.312-0.238 0.865 0 1.752 0.327 2.417 1.048s1.034 1.752 1.034 3.031c0 1.618-0.539 3.078-1.376 4.149-0.827 1.057-2.018 1.812-3.329 1.812h-0.016c-0.169 0-0.478 0-0.843-0.146-0.144-0.058-0.285-0.132-0.425-0.225-0.656 0.368-1.252 0.371-1.539 0.371-0.827 0-1.606-0.3-2.275-0.787l-0.069 0.344c-0.088 0.44-0.474 0.756-0.923 0.756h-15.578c-0.462 0-0.856-0.336-0.929-0.792l-3.116-19.451c-0.044-0.272 0.034-0.55 0.213-0.759s0.441-0.331 0.716-0.331h0.072c-0.098-0.495-0.097-0.979-0.003-1.438 0.179-0.88 0.686-1.592 1.338-2.071 0.73-0.535 1.448-0.737 2.115-0.815-0.92-1.831-0.988-3.554-0.53-5.066 0.151-0.497 0.676-0.779 1.174-0.628zM2.67 12.235h-0.163c0.52 1.739 1.171 3.535 2.393 5.012 1.452 1.754 3.8 3.145 8.038 3.145 3.248 0 5.565-1.503 7.174-3.427 1.272-1.521 2.086-3.291 2.524-4.729h-19.953c-0.005 0-0.009 0-0.014 0zM3.33 18.299l1.843 11.505h14.004l0.163-0.812c0.012-0.060 0.029-0.117 0.051-0.171-0.549-0.964-0.881-2.138-0.881-3.409 0-1.278 0.368-2.309 1.034-3.031 0.375-0.406 0.821-0.688 1.293-0.856l0.655-3.277c-1.888 2.224-4.68 4.026-8.554 4.026-4.719 0-7.63-1.583-9.488-3.827-0.041-0.049-0.081-0.099-0.121-0.149zM3.275 10.353h8.66c0.456-1.115 0.339-2.875-0.804-4.432-0.582-0.793-1.152-1.1-1.592-1.186s-0.861 0.028-1.206 0.281c-0.379 0.278-0.506 0.503-0.6 0.76-0.056 0.153-0.099 0.317-0.161 0.553-0.003 0.012-0.006 0.024-0.009 0.036-0.064 0.242-0.142 0.536-0.261 0.862-0.13 0.357-0.462 0.601-0.842 0.618-0.26 0.012-0.49 0.017-0.697 0.022-0.885 0.020-1.357 0.031-1.989 0.495-0.311 0.228-0.53 0.548-0.607 0.929-0.057 0.278-0.047 0.633 0.108 1.062zM13.91 10.353h6.771c0.213-0.551 0.338-1.177 0.338-1.851 0-0.918-0.259-1.455-0.535-1.754s-0.644-0.442-1.034-0.442c-0.432 0-0.644 0.096-0.85 0.234-0.126 0.084-0.248 0.183-0.428 0.329l-0.026 0.021c-0.184 0.149-0.409 0.33-0.683 0.513-0.316 0.211-0.728 0.211-1.044 0-0.207-0.138-0.387-0.264-0.548-0.376-0.682-0.476-1.032-0.721-1.754-0.721-0.198 0-0.39 0.037-0.568 0.112 0.538 1.326 0.655 2.725 0.36 3.935zM25.99 23.8c-0.184 0.149-0.409 0.33-0.683 0.513-0.316 0.211-0.728 0.211-1.044 0-0.207-0.138-0.387-0.263-0.548-0.376-0.682-0.476-1.032-0.721-1.754-0.721-0.39 0-0.758 0.143-1.034 0.442s-0.535 0.836-0.535 1.754c0 1.205 0.403 2.255 0.977 2.989 0.584 0.747 1.276 1.090 1.847 1.090 0.148 0 0.27-0.003 0.408-0.042 0.128-0.037 0.3-0.114 0.495-0.31 0.367-0.368 0.963-0.368 1.331 0 0.264 0.265 0.395 0.327 0.429 0.341 0.001 0 0.002 0.001 0.004 0.002 0.012 0.005 0.022 0.010 0.157 0.010 0.571 0 1.263-0.343 1.847-1.090 0.574-0.733 0.976-1.783 0.976-2.989 0-0.918-0.259-1.455-0.535-1.754s-0.644-0.442-1.034-0.442c-0.432 0-0.644 0.096-0.85 0.234-0.126 0.084-0.248 0.183-0.428 0.329l-0.026 0.021z"></path>
</symbol>
<symbol id="icon-arrow" viewBox="0 0 39 32">
<path d="M25.905 13.155l-5.613-5.613c-1.389-1.389-1.389-3.64 0-5.028s3.64-1.389 5.028 0l11.708 11.708c1.388 1.389 1.388 3.64 0 5.028l-11.708 11.708c-1.389 1.389-3.64 1.389-5.028 0s-1.389-3.64 0-5.028l5.664-5.664h-22.4c-1.964 0-3.556-1.592-3.556-3.556s1.592-3.556 3.556-3.556h22.349z"></path>
</symbol>
<symbol id="icon-button-arrow" viewBox="0 0 19 32">
<path d="M0.937 0.937c1.25-1.25 3.276-1.25 4.526 0l12.8 12.8c1.25 1.25 1.25 3.276 0 4.525l-12.8 12.8c-1.25 1.25-3.276 1.25-4.526 0s-1.25-3.276 0-4.526l10.537-10.537-10.537-10.537c-1.25-1.25-1.25-3.276 0-4.526z"></path>
</symbol>
<symbol id="icon-github" viewBox="0 0 32 32">
<path d="M16 0c-8.788 0-16 7.212-16 16 0 7.499 5.262 14.312 12.25 16v-5.293c-0.692 0.152-1.33 0.156-2.034-0.052-0.946-0.279-1.714-0.909-2.284-1.869-0.364-0.613-1.008-1.278-1.68-1.23l-0.165-1.868c1.453-0.124 2.711 0.886 3.457 2.14 0.332 0.558 0.713 0.884 1.203 1.029 0.473 0.14 0.982 0.072 1.574-0.137 0.149-1.186 0.692-1.63 1.102-2.255v-0.001c-4.167-0.622-5.828-2.832-6.488-4.578-0.874-2.317-0.405-5.212 1.14-7.041 0.030-0.036 0.084-0.129 0.063-0.194-0.708-2.139 0.155-3.909 0.187-4.097 0.817 0.242 0.95-0.243 3.551 1.337l0.449 0.27c0.188 0.112 0.129 0.048 0.317 0.034 1.086-0.295 2.23-0.458 3.358-0.472 1.136 0.015 2.273 0.178 3.404 0.484l0.145 0.015c-0.013-0.002 0.040-0.009 0.127-0.062 3.248-1.968 3.132-1.324 4.003-1.608 0.032 0.188 0.883 1.987 0.182 4.099-0.095 0.291 2.816 2.956 1.203 7.235-0.659 1.746-2.32 3.957-6.487 4.578v0.001c0.534 0.814 1.176 1.247 1.173 2.927v6.608c6.988-1.688 12.25-8.501 12.25-16 0-8.788-7.212-16-16-16v0z"></path>
</symbol>
<symbol id="icon-facebook" viewBox="0 0 16 32">
<path d="M14.143 15.972h-4.034v14.865h-6.112v-14.865h-2.907v-5.224h2.907v-3.381c0-2.418 1.142-6.203 6.166-6.203l4.527 0.019v5.071h-3.285c-0.539 0-1.296 0.271-1.296 1.424v3.075h4.567l-0.534 5.219z"></path>
</symbol>
<symbol id="icon-telegram" viewBox="0 0 44 32">
<path d="M17.343 21.048l-0.675 8.86c0.966 0 1.384-0.387 1.885-0.852l4.527-4.038 9.381 6.412c1.72 0.895 2.933 0.424 3.397-1.477l6.157-26.929 0.002-0.002c0.546-2.374-0.92-3.302-2.596-2.72l-36.194 12.933c-2.47 0.895-2.433 2.18-0.42 2.762l9.253 2.686 21.494-12.552c1.011-0.625 1.931-0.279 1.175 0.346l-17.386 14.57z"></path>
</symbol>
<symbol id="icon-house" viewBox="0 0 35 32">
<path d="M34.253 15.613c0.599-0.659 0.541-1.669-0.129-2.255l-14.772-12.926c-0.671-0.586-1.745-0.574-2.402 0.028l-14.822 13.587c-0.656 0.602-0.689 1.611-0.071 2.252l0.372 0.387c0.617 0.642 1.613 0.718 2.224 0.17l1.108-0.992v14.523c0 0.891 0.722 1.613 1.612 1.613h5.778c0.89 0 1.612-0.721 1.612-1.613v-10.16h7.37v10.16c-0.013 0.89 0.624 1.612 1.515 1.612h6.123c0.89 0 1.613-0.722 1.613-1.613v-14.318c0 0 0.306 0.268 0.683 0.6s1.168 0.066 1.767-0.594l0.42-0.462z"></path>
</symbol>
<symbol id="icon-instagram" viewBox="0 0 32 32">
<path d="M31.969 9.408c-0.075-1.7-0.35-2.869-0.744-3.882-0.406-1.075-1.031-2.038-1.85-2.838-0.8-0.813-1.769-1.444-2.832-1.844-1.019-0.394-2.182-0.669-3.882-0.744-1.713-0.081-2.257-0.1-6.601-0.1s-4.888 0.019-6.595 0.094c-1.7 0.075-2.869 0.35-3.882 0.744-1.075 0.406-2.038 1.031-2.838 1.85-0.813 0.8-1.444 1.769-1.844 2.832-0.394 1.019-0.669 2.182-0.744 3.882-0.081 1.713-0.1 2.257-0.1 6.601s0.019 4.888 0.094 6.595c0.075 1.7 0.35 2.869 0.744 3.882 0.406 1.075 1.038 2.038 1.85 2.838 0.8 0.813 1.769 1.444 2.832 1.844 1.019 0.394 2.182 0.669 3.882 0.744 1.706 0.075 2.25 0.094 6.595 0.094s4.888-0.019 6.595-0.094c1.7-0.075 2.869-0.35 3.882-0.744 2.151-0.832 3.851-2.532 4.682-4.682 0.394-1.019 0.669-2.182 0.744-3.882 0.075-1.707 0.094-2.251 0.094-6.595s-0.006-4.888-0.081-6.595zM29.087 22.473c-0.069 1.563-0.331 2.407-0.55 2.969-0.538 1.394-1.644 2.5-3.038 3.038-0.563 0.219-1.413 0.481-2.969 0.55-1.688 0.075-2.194 0.094-6.464 0.094s-4.782-0.019-6.464-0.094c-1.563-0.069-2.407-0.331-2.969-0.55-0.694-0.256-1.325-0.663-1.838-1.194-0.531-0.519-0.938-1.144-1.194-1.838-0.219-0.563-0.481-1.413-0.55-2.969-0.075-1.688-0.094-2.194-0.094-6.464s0.019-4.782 0.094-6.464c0.069-1.563 0.331-2.407 0.55-2.969 0.256-0.694 0.663-1.325 1.2-1.838 0.519-0.531 1.144-0.938 1.838-1.194 0.563-0.219 1.413-0.481 2.969-0.55 1.688-0.075 2.194-0.094 6.464-0.094 4.276 0 4.782 0.019 6.464 0.094 1.563 0.069 2.407 0.331 2.969 0.55 0.694 0.256 1.325 0.662 1.838 1.194 0.531 0.519 0.938 1.144 1.194 1.838 0.219 0.563 0.481 1.413 0.55 2.969 0.075 1.688 0.094 2.194 0.094 6.464s-0.019 4.77-0.094 6.458z"></path>
<path d="M16.059 7.783c-4.538 0-8.22 3.682-8.22 8.22s3.682 8.22 8.22 8.22c4.539 0 8.22-3.682 8.22-8.22s-3.682-8.22-8.22-8.22zM16.059 21.335c-2.944 0-5.332-2.388-5.332-5.332s2.388-5.332 5.332-5.332c2.944 0 5.332 2.388 5.332 5.332s-2.388 5.332-5.332 5.332z"></path>
<path d="M26.524 7.458c0 1.060-0.859 1.919-1.919 1.919s-1.919-0.859-1.919-1.919c0-1.060 0.859-1.919 1.919-1.919s1.919 0.859 1.919 1.919z"></path>
</symbol>
</defs>
</svg>
