<svg aria-hidden="true" style="position: absolute; width: 0; height: 0; overflow: hidden;" version="1.1" xmlns="http://www.w3.org/2000/svg" xmlns:xlink="http://www.w3.org/1999/xlink">
<defs>
<symbol id="icon-github" viewBox="0 0 32 32">
<path fill="currentColor" style="fill:currentColor" d="M32 16c0 8.837-7.163 16-16 16s-16-7.163-16-16c0-8.837 7.163-16 16-16s16 7.163 16 16z"></path>
<path fill="#fff" style="fill: var(--color2, #fff)" d="M16 6.59c-5.188 0.023-9.387 4.222-9.41 9.408v0.002c0 4.41 3.1 8.42 7.2 9.41v-3.11c-0.4 0.090-0.78 0.090-1.2-0.030-0.55-0.17-1-0.54-1.34-1.1-0.21-0.36-0.59-0.75-0.98-0.73l-0.1-1.1c0.85-0.070 1.6 0.53 2.030 1.26 0.2 0.33 0.42 0.52 0.71 0.61 0.28 0.080 0.58 0.040 0.93-0.080 0.080-0.7 0.4-0.96 0.64-1.33-2.45-0.36-3.42-1.66-3.81-2.69-0.163-0.436-0.257-0.941-0.257-1.467 0-1.014 0.349-1.946 0.933-2.682l-0.007 0.009c0.020-0.020 0.050-0.080 0.040-0.12-0.42-1.25 0.090-2.3 0.1-2.4 0.49 0.14 0.56-0.15 2.1 0.78l0.26 0.16c0.1 0.060 0.070 0.030 0.18 0.020 0.591-0.168 1.271-0.269 1.974-0.28l0.006-0c0.67 0 1.34 0.1 2 0.29h0.090l0.070-0.030c1.91-1.16 1.84-0.78 2.36-0.95 0.020 0.11 0.52 1.17 0.1 2.41-0.050 0.17 1.66 1.74 0.71 4.26-0.39 1.030-1.36 2.33-3.81 2.7 0.31 0.47 0.69 0.73 0.69 1.71v3.9c4.1-1 7.2-5 7.2-9.42-0.023-5.188-4.222-9.387-9.408-9.41h-0.002z"></path>
</symbol>
<symbol id="icon-telegram" viewBox="0 0 33 32">
<path fill="currentColor" style="fill:currentColor" d="M32.24 16c0 8.837-7.163 16-16 16s-16-7.163-16-16c0-8.837 7.163-16 16-16s16 7.163 16 16z"></path>
<path fill="#fff" style="fill: var(--color2, #fff)" d="M13.1 18.38l-0.32 4.16c0.46 0 0.66-0.18 0.9-0.4l2.12-1.9 4.42 3.020c0.8 0.42 1.38 0.2 1.6-0.7l2.9-12.67c0.25-1.11-0.44-1.55-1.23-1.28l-17.030 6.090c-1.16 0.42-1.14 1.020-0.2 1.3l4.36 1.26 10.11-5.9c0.48-0.3 0.91-0.14 0.55 0.16l-8.18 6.86z"></path>
</symbol>
<symbol id="icon-facebook" viewBox="0 0 33 32">
<path fill="currentColor" style="fill:currentColor" d="M16.47 32c8.837 0 16-7.163 16-16s-7.163-16-16-16c-8.836 0-16 7.163-16 16s7.164 16 16 16z"></path>
<path fill="#fff" style="fill: var(--color2, #fff)" d="M20.916 15.981h-2.61v9.619h-3.955v-9.62h-1.88v-3.38h1.88v-2.187c0-1.565 0.74-4.014 3.99-4.014l2.93 0.012v3.281h-2.126c-0.348 0-0.839 0.176-0.839 0.922v1.99h2.956l-0.346 3.376z"></path>
</symbol>
</defs>
</svg>
