<svg aria-hidden="true" style="position: absolute; width: 0; height: 0; overflow: hidden;" version="1.1" xmlns="http://www.w3.org/2000/svg" xmlns:xlink="http://www.w3.org/1999/xlink">
<defs>
<symbol id="home" viewBox="0 0 35 32">
<path d="M34.472 15.381c0.633-0.649 0.572-1.644-0.136-2.222l-15.601-12.734c-0.708-0.578-1.843-0.566-2.537 0.027l-15.654 13.386c-0.693 0.593-0.727 1.587-0.075 2.219l0.392 0.381c0.651 0.632 1.704 0.707 2.349 0.168l1.17-0.977v14.308c0 0.878 0.763 1.588 1.703 1.588h6.102c0.94 0 1.703-0.711 1.703-1.588v-10.010h7.783v10.010c-0.014 0.877 0.659 1.588 1.6 1.588h6.467c0.94 0 1.703-0.711 1.703-1.588v-14.106c0 0 0.323 0.264 0.722 0.591s1.234 0.065 1.866-0.585l0.444-0.455z"></path>
</symbol>
</defs>
</svg>


