<svg aria-hidden="true" style="position: absolute; width: 0; height: 0; overflow: hidden;" version="1.1" xmlns="http://www.w3.org/2000/svg" xmlns:xlink="http://www.w3.org/1999/xlink">
<defs>
<symbol id="icon-EN" viewBox="0 0 59 32">
<path d="M25.341 23.586v6.326h-23.238v-28.944h22.701v6.326h-14.596v4.879h12.86v6.12h-12.86v5.293h15.134z"></path>
<path d="M59.077 0.968v28.944h-6.74l-12.777-15.423v15.423h-8.022v-28.944h6.74l12.777 15.423v-15.423h8.022z"></path>
</symbol>
<symbol id="icon-Hell" viewBox="0 0 80 32">
<path d="M25.571 3.185v26.877h-7.602v-10.482h-10.367v10.482h-7.602v-26.877h7.602v10.098h10.367v-10.098h7.602z"></path>
<path d="M53.395 19.695c0 0.051-0.038 0.653-0.115 1.805h-15.128c0.307 1.075 0.896 1.907 1.766 2.496 0.896 0.563 2.009 0.845 3.341 0.845 0.998 0 1.856-0.141 2.572-0.422 0.742-0.281 1.485-0.742 2.227-1.382l3.84 3.993c-2.022 2.253-4.979 3.379-8.869 3.379-2.432 0-4.569-0.461-6.412-1.382s-3.276-2.201-4.3-3.84c-0.998-1.638-1.497-3.494-1.497-5.567 0-2.048 0.486-3.878 1.459-5.491 0.998-1.638 2.368-2.918 4.108-3.84s3.699-1.382 5.874-1.382c2.073 0 3.955 0.435 5.644 1.305 1.689 0.845 3.020 2.086 3.993 3.724 0.998 1.613 1.497 3.532 1.497 5.759zM42.299 14.089c-1.126 0-2.073 0.32-2.841 0.96-0.742 0.64-1.216 1.51-1.421 2.611h8.524c-0.205-1.101-0.691-1.971-1.459-2.611-0.742-0.64-1.677-0.96-2.803-0.96z"></path>
<path d="M58.294 1.572h7.295v28.489h-7.295v-28.489z"></path>
<path d="M71.866 1.572h7.295v28.489h-7.295v-28.489z"></path>
</symbol>
<symbol id="icon--" viewBox="0 0 427 32">
<path d="M16.085 21.365h-8.959l-1.709 4.135h-4.576l8.601-19.296h4.411l8.628 19.296h-4.686l-1.709-4.135zM14.679 17.974l-3.060-7.388-3.060 7.388h6.12z"></path>
<path d="M50.065 21.861v7.636h-4.135v-3.997h-13.618v3.997h-4.135l0.028-7.636h0.772c1.158-0.037 1.976-0.882 2.453-2.536s0.772-4.015 0.882-7.084l0.221-6.037h14.83v15.657h2.701zM36.255 12.654c-0.092 2.297-0.285 4.227-0.579 5.789-0.294 1.544-0.744 2.683-1.351 3.418h8.628v-12.019h-6.616l-0.083 2.812z"></path>
<path d="M67.157 25.83c-1.966 0-3.749-0.423-5.348-1.268-1.58-0.864-2.83-2.049-3.749-3.556-0.9-1.525-1.351-3.244-1.351-5.155s0.451-3.62 1.351-5.127c0.919-1.525 2.169-2.711 3.749-3.556 1.599-0.864 3.391-1.296 5.375-1.296 1.673 0 3.179 0.294 4.521 0.882 1.359 0.588 2.499 1.433 3.418 2.536l-2.867 2.646c-1.305-1.507-2.922-2.26-4.851-2.26-1.195 0-2.261 0.266-3.198 0.799-0.937 0.515-1.673 1.24-2.205 2.178-0.515 0.937-0.772 2.003-0.772 3.198s0.257 2.26 0.772 3.198c0.533 0.937 1.268 1.672 2.205 2.205 0.937 0.515 2.003 0.772 3.198 0.772 1.93 0 3.547-0.763 4.851-2.288l2.867 2.646c-0.919 1.121-2.059 1.976-3.418 2.564s-2.876 0.882-4.549 0.882z"></path>
<path d="M90.467 17.726h-3.087v7.774h-4.438v-19.296h4.438v7.801h3.197l5.072-7.801h4.714l-6.313 9.317 6.505 9.979h-5.072l-5.017-7.774z"></path>
<path d="M107.61 6.203h4.438v12.57l9.207-12.57h4.19v19.296h-4.411v-12.542l-9.207 12.542h-4.218v-19.296z"></path>
<path d="M135.211 6.203h4.438v12.57l9.207-12.57h4.19v19.296h-4.411v-12.542l-9.207 12.542h-4.218v-19.296zM144.115 4.963c-3.529 0-5.311-1.406-5.348-4.218h3.060c0.037 1.342 0.799 2.012 2.288 2.012 0.735 0 1.295-0.165 1.681-0.496 0.386-0.349 0.588-0.855 0.607-1.516h3.060c-0.019 1.378-0.469 2.426-1.351 3.143s-2.214 1.075-3.997 1.075z"></path>
<path d="M188.647 21.365h-8.959l-1.709 4.135h-4.575l8.601-19.296h4.41l8.628 19.296h-4.686l-1.709-4.135zM187.242 17.974l-3.060-7.388-3.060 7.388h6.119z"></path>
<path d="M220.261 6.203v19.296h-4.466v-7.911h-8.766v7.911h-4.466v-19.296h4.466v7.608h8.766v-7.608h4.466z"></path>
<path d="M243.647 9.842h-9.179l0.028 15.657h-4.438v-19.296h13.618l-0.028 3.639z"></path>
<path d="M266.165 6.203v19.296h-4.411v-15.657h-6.616l-0.138 4.025c-0.092 2.738-0.313 4.962-0.662 6.671-0.349 1.691-0.937 2.995-1.764 3.914-0.809 0.9-1.948 1.351-3.418 1.351-0.606 0-1.341-0.101-2.205-0.303l0.275-3.776c0.239 0.073 0.506 0.11 0.799 0.11 1.066 0 1.81-0.625 2.233-1.874 0.422-1.268 0.689-3.244 0.799-5.927l0.276-7.829h14.83z"></path>
<path d="M275.946 6.203h4.438v12.57l9.207-12.57h4.19v19.296h-4.411v-12.542l-9.207 12.542h-4.218v-19.296z"></path>
<path d="M303.547 6.203h4.438v12.57l9.207-12.57h4.19v19.296h-4.411v-12.542l-9.207 12.542h-4.218v-19.296zM312.451 4.963c-3.529 0-5.311-1.406-5.348-4.218h3.060c0.036 1.342 0.799 2.012 2.288 2.012 0.735 0 1.295-0.165 1.681-0.496 0.386-0.349 0.588-0.855 0.606-1.516h3.060c-0.019 1.378-0.469 2.426-1.351 3.143s-2.214 1.075-3.997 1.075z"></path>
<path d="M340.273 25.83c-1.966 0-3.749-0.423-5.348-1.268-1.581-0.864-2.83-2.049-3.749-3.556-0.9-1.525-1.35-3.244-1.35-5.155s0.45-3.62 1.35-5.127c0.919-1.525 2.169-2.711 3.749-3.556 1.598-0.864 3.39-1.296 5.375-1.296 1.673 0 3.179 0.294 4.521 0.882 1.36 0.588 2.499 1.433 3.418 2.536l-2.867 2.646c-1.305-1.507-2.922-2.26-4.852-2.26-1.195 0-2.26 0.266-3.198 0.799-0.937 0.515-1.672 1.24-2.205 2.178-0.514 0.937-0.772 2.003-0.772 3.198s0.258 2.26 0.772 3.198c0.533 0.937 1.268 1.672 2.205 2.205 0.938 0.515 2.003 0.772 3.198 0.772 1.93 0 3.547-0.763 4.852-2.288l2.867 2.646c-0.919 1.121-2.058 1.976-3.418 2.564s-2.876 0.882-4.548 0.882z"></path>
<path d="M363.582 17.726h-3.087v7.774h-4.438v-19.296h4.438v7.801h3.197l5.073-7.801h4.714l-6.313 9.317 6.506 9.979h-5.072l-5.017-7.774z"></path>
<path d="M380.725 6.203h4.438v12.57l9.207-12.57h4.19v19.296h-4.411v-12.542l-9.207 12.542h-4.218v-19.296z"></path>
<path d="M408.326 6.203h4.438v12.57l9.207-12.57h4.19v19.296h-4.411v-12.542l-9.207 12.542h-4.218v-19.296zM417.23 4.963c-3.529 0-5.311-1.406-5.348-4.218h3.060c0.037 1.342 0.799 2.012 2.288 2.012 0.735 0 1.295-0.165 1.682-0.496 0.386-0.349 0.588-0.855 0.606-1.516h3.060c-0.019 1.378-0.469 2.426-1.351 3.143s-2.214 1.075-3.997 1.075z"></path>
</symbol>
</defs>
</svg>
