<svg aria-hidden="true" style="position:absolute;width:0;height:0" xmlns="http://www.w3.org/2000/svg" overflow="hidden">
    <defs>
        <symbol id="icon-right-arrow" viewBox="0 0 32 32">
            <path d="M31.5 14.8L19.9 3.2c-.3-.3-.7-.5-1.2-.5s-1 .2-1.2.5l-1 1c-.4.4-.6.8-.6 1.3s.2 1 .5 1.2l6.7 6.8H1.7c-1 0-1.7.8-1.7 1.7v1.5c0 1 .8 1.8 1.7 1.8h21.5l-6.8 6.8c-.3.3-.5.8-.5 1.2s.2 1 .5 1.3l1 1c.4.3.8.5 1.3.5s.9-.2 1.2-.5l11.6-11.6c.3-.3.5-.7.5-1.2s-.2-1-.5-1.2z"/>
        </symbol>
        <symbol id="icon-apple" viewBox="0 0 32 32">
            <path d="M24 14.8a.6.6 0 00-.1-.2.6.6 0 00-.2-.2.6.6 0 00-.2 0 .6.6 0 10.5.4z"/>
            <path d="M28.4 8.6c-.1-1.8-1-2.7-1.6-3.2l-1-.5c.8-1.3.5-3.3.5-3.4 0-.3-.3-.5-.5-.5-.1 0-2.6-.5-4 .8-.8.9-.9 2.2-.9 3a4 4 0 00-2.2.4C18 5.5 17.4 6 17 7h-.2c1-1.4.6-3.4.6-3.5 0-.2-.3-.4-.5-.5-.1 0-2.6-.4-4 .9l-.3.4a4 4 0 00-.4-.2c1-1.3.6-3.3.6-3.4 0-.3-.3-.5-.5-.5-.1 0-2.6-.5-4 .9-.8.8-.9 2-.9 3a4 4 0 00-2.6.6C4.1 5 3.2 6 3.2 7.9v1c-.3.4-.5.8-.5 1.2v.7c0 1.7.3 3.2.8 4.7v.2l2 12.5A4.5 4.5 0 0010 32h12a4.5 4.5 0 004.5-3.8l2-12.5v-.2c.5-1.5.8-3 .8-4.7v-.7c0-.6-.3-1-1-1.5zm-5.6-5.9c.5-.5 1.6-.6 2.3-.6 0 .7 0 1.8-.6 2.4l-.6.4h-.3c-.5.2-1 .2-1.4.1 0-.6 0-1.7.6-2.3zm-3.6 3.6C20 6 20.7 6 21 6.1c.4.2 1 .4 1.5.4s1.1-.2 1.5-.4h.2c.4-.1 1.2-.1 1.9.3.7.5 1 1.3 1 2.4v.6a9.7 9.7 0 010 .4v.1l-.2 1v.1h-.1-.1l-.1.1a13.3 13.3 0 01-1.7.5h-.2l-.1.1h-.4l-.1.1h-.2-.1l-.1.1-.6.1H23h-.1-.2l-.2.1h-.2-.1H21.9l-.1.1h-.2-.1-.2-.1l-.2.1h-.7-.1-.2l-.2.1h-.4V12v-.4-.4-.5-.1-.2-.2-.1c-.1-1.3-.7-2-1.3-2.6.3-.5.6-1 1.2-1.2zm-5.7-1c0-.3.2-.5.4-.6.5-.6 1.6-.7 2.3-.6 0 .6 0 1.7-.6 2.3l-.6.4h-.3L14 7h-.7v-.1-.1c0-.5 0-1 .2-1.5zm.1 3.1h.5a5.8 5.8 0 001.2-.4c.4 0 1.2 0 1.8.3l.1.1h.1v.1a1.7 1.7 0 01.4.3V9l.1.1v.2a1.9 1.9 0 01.2.1 3.2 3.2 0 010 .2v.1l.1.2V10.2l.1.2v.2a4.7 4.7 0 010 .5v1.4l-.1.1h-.7H16.8h-1.3a5.3 5.3 0 01-.6 0h-.4-2l-.4-.1h-.5l-.9-.1-.7-.1h-.2l-.4-.1h-.3v-.2-.3-.3-.2-.3c0-1 .2-1.8.9-2.3a2.5 2.5 0 01.3-.2c.7-.4 1.5-.4 1.8-.3.4.2 1 .4 1.5.4zM9.3 1.8c.5-.5 1.6-.6 2.3-.5 0 .6 0 1.7-.6 2.3l-.6.4H10c-.5.2-1 .2-1.4.2 0-.7 0-1.8.6-2.4zM5.5 5.6c.7-.5 1.7-.5 2-.4.4.2 1 .4 1.5.4s1.1-.2 1.5-.4h.2l1.5.1-.2.9V6.8H12h-.2-.1-.2H11.1h-.2H10.6l-.2.1h-.2l-.1.1-.2.1h-.2l-.1.2h-.2C8.7 8 7.8 9 7.8 10.9v1c-1-.2-2-.5-2.6-.8H5l-.2-.1h-.1l-.1-.4a11.5 11.5 0 010-.4l-.1-.2v-.2-.2l-.1-.1v-.2-1.3c0-1 .3-1.8 1-2.3zM25.2 28a3.2 3.2 0 01-3.2 2.8H10c-1.6 0-3-1.2-3.2-2.8l-1.5-9.2a13.3 13.3 0 0021.4 0L25.2 28zM5.6 16.9c2.4.8 6.2 1.3 10.4 1.3s8-.5 10.4-1.3a12 12 0 01-20.8 0zM27.3 15c-2 1.1-6.4 1.8-11.3 1.8s-9.3-.7-11.3-1.7v-.8c2.2 1 6.5 1.7 11.3 1.7 1.7 0 3.3 0 4.9-.2a.6.6 0 10-.2-1.3c-1.5.2-3 .2-4.7.2a26.7 26.7 0 01-11.6-2l-.2-.9h.1l.2.2h.2a10.7 10.7 0 001.1.5 6.4 6.4 0 00.2 0l.2.1h.4a3.7 3.7 0 00.1.1 19.5 19.5 0 00.7.2l2.3.4a47.6 47.6 0 00.9.1h.4a6.8 6.8 0 00.6.1h1l.2.1h1.6a5.6 5.6 0 01.5 0h.1l.4.1h3.7l.2-.1H20.3l.3-.1h.8l.1-.1h.8v-.1h.5l.2-.1h.4l.4-.1.3-.1h.5l.2-.1.3-.1.4-.1h.2l.1-.1h.2l.1-.1h.2l.2-.1h.1l.1-.1.5-.2h.2V12h.2l.2-.2-.5 3.2z"/>
        </symbol>
        <symbol id="icon-milk" viewBox="0 0 32 32">
            <path d="M25.5 3.3l-1.2-.7.1-1.7c0-.5-.4-.9-.9-.9h-15a1 1 0 00-1 1l.2 1.6-1.2.7a2.8 2.8 0 002.8 4.9l1.2-.7c.8.6 1.7 1.1 2.7 1.5v1.4a2.8 2.8 0 005.6 0V9c1-.4 1.9-.9 2.7-1.5l1.2.7c1.4.8 3 .3 3.9-1s.3-3.1-1-3.9zm-.6 3a1 1 0 01-1.2.3l-1.6-1c-.5-.4-1-.3-1.4 0-.8.9-2 1.5-3.1 1.8a1 1 0 00-.7 1v2a1 1 0 01-1.8 0V8.6v-.2c0-.4-.2-.9-.7-1-1.2-.3-2.3-1-3.1-1.8-.3-.3-1-.4-1.4 0l-1.6 1a1 1 0 01-.9-1.7L9 4c.6-.1.8-.7.7-1.2a8 8 0 01-.2-1h13l-.2 1c-.2.5 0 1 .7 1.2l1.6 1c.4.2.6.8.3 1.2zM26.3 15.1H5.7a1 1 0 000 1.9h1l1.6 12.6A2.8 2.8 0 0011 32h9.8a2.8 2.8 0 002.8-2.4L25.3 17h1a1 1 0 000-1.9zM22 29.3c-.1.5-.5.8-1 .8h-9.8a1 1 0 01-1-.8L8.6 17h14.8l-1.5 12.3z"/>
            <path d="M19.8 18.9a1 1 0 00-1 1v1.8a2.8 2.8 0 01-5.6 0v-1.9a1 1 0 00-1.9 0v1.9a4.7 4.7 0 009.4 0v-1.9c0-.5-.4-1-1-1z"/>
        </symbol>
        <symbol id="icon-ice-cream" viewBox="0 0 32 32">
            <path d="M28 2.5a7.1 7.1 0 00-11.3.6c-.1.2-.4.4-.7.4s-.6-.2-.7-.4A7.1 7.1 0 004 2.5a8.8 8.8 0 00-2 5.8c0 2.4.9 4.8 2.8 7.3a37 37 0 008.4 7.1V32h5.6v-9.3a37 37 0 008.4-7.1c2-2.5 2.9-4.9 2.9-7.3 0-2.2-.8-4.3-2-5.8zM17 30.1h-2v-6.5h2V30zm.6-8.8c-1 .6-2.2.6-3.2 0-4.4-3-7.4-5.7-9-8.2a2.8 2.8 0 002.2-2.8 1 1 0 011.8 0v1.9a2.8 2.8 0 005.7 0v-1.9a1 1 0 011.8 0v1.9a2.8 2.8 0 005.7 0v-1.9a1 1 0 011.8 0c0 1.4 1 2.5 2.3 2.8a30.8 30.8 0 01-9.1 8.2zm9.6-10a1 1 0 01-.9-1 2.8 2.8 0 00-5.6 0v1.9a1 1 0 01-1.9 0v-1.9a2.8 2.8 0 00-5.6 0v1.9a1 1 0 01-1.9 0v-1.9a2.8 2.8 0 00-5.6 0 1 1 0 01-1.3.9 8 8 0 01-.6-3C3.8 4.7 6.2 2 9.4 2c1.8 0 3.2.8 4.4 2.3.5.7 1.3 1.1 2.2 1.1s1.7-.4 2.2-1a5.2 5.2 0 014.4-2.4c3.2 0 5.6 2.7 5.6 6.4 0 1-.2 1.9-.6 2.9a1 1 0 01-.4 0z"/>
        </symbol>
        <symbol id="icon-points-group" viewBox="0 0 256 32">
            <path fill="var(--color1, #c7133e)" d="M144 16a16 16 0 11-32 0 16 16 0 0132 0zM32 16a16 16 0 11-32 0 16 16 0 0132 0zM256 16a16 16 0 11-32 0 16 16 0 0132 0z"/>
        </symbol>
        <symbol id="icon-reserved-mobile" viewBox="0 0 121 32">
            <path fill="var(--color2, #907e82)" d="M6.4 9.2c-1 0-1.7-.2-2.4-.6-.6-.4-1.2-.9-1.5-1.6a5 5 0 01-.6-2.4c0-.8.2-1.6.6-2.3.3-.7.9-1.2 1.5-1.6C4.7.3 5.5 0 6.4 0c.8 0 1.6.2 2.3.6a4 4 0 011.6 1.6c.3.7.5 1.5.5 2.3a5 5 0 01-.5 2.4c-.4.7-1 1.2-1.6 1.6-.7.4-1.5.6-2.3.6zm0-.6a3.6 3.6 0 003.4-1.9c.2-.6.4-1.3.4-2S10 3 9.7 2.5C9.4 2 9 1.5 8.4 1.2a4 4 0 00-2-.5 4 4 0 00-2 .5c-.6.3-1 .8-1.4 1.4-.3.5-.5 1.2-.5 2s.2 1.5.5 2.1c.3.6.8 1 1.3 1.4s1.3.5 2 .5zm0-1a3 3 0 01-1.5-.4c-.4-.2-.7-.6-1-1-.2-.4-.3-1-.3-1.6s0-1 .3-1.5.6-.8 1-1 1-.4 1.5-.4c.6 0 1.2.2 1.7.5.5.4.8.9 1 1.5H7.5L7 3.1c-.2-.2-.5-.3-.8-.3-.4 0-.7.2-1 .5-.2.3-.4.7-.4 1.3s.2 1 .4 1.4c.3.3.6.4 1 .4s.6 0 .8-.2l.5-.7H9C9 6.2 8.6 6.7 8 7c-.4.4-1 .6-1.6.6zM15 9V8a90.8 90.8 0 003-2.7L19 4l.3-1.2c0-.4 0-.7-.3-1-.2-.2-.5-.4-1-.4s-.8.2-1 .5-.4.7-.4 1h-1.6c0-.6.2-1.1.4-1.5.3-.5.7-.8 1.1-1 .5-.3 1-.4 1.6-.4.9 0 1.6.3 2 .8.6.5.8 1.1.8 2 0 .4 0 .9-.3 1.4-.2.4-.5.9-.9 1.3l-1.2 1.3-1.2 1h3.9v1.3H15zm11.1.2c-.8 0-1.5-.2-2-.6-.7-.4-1.1-1-1.5-1.6-.3-.7-.4-1.5-.4-2.4 0-1 .1-1.8.4-2.5A3.7 3.7 0 0126.2 0c.9 0 1.6.2 2.2.6.6.4 1 1 1.3 1.6.3.7.5 1.5.5 2.5 0 .9-.2 1.7-.5 2.4s-.7 1.2-1.3 1.6c-.6.4-1.3.6-2.2.6zm0-1.5c.7 0 1.3-.3 1.7-.8s.6-1.4.6-2.3-.2-1.8-.6-2.4a2 2 0 00-1.7-.8 2 2 0 00-1.6.8c-.4.6-.7 1.4-.7 2.4s.3 1.7.7 2.3c.4.5 1 .8 1.6.8zm6.4 1.3v-7l-1.4.3V1.1l2.1-1h1v9h-1.7zm6.5-9c.6 0 1.2 0 1.7.3s.8.6 1 1c.4.4.6.9.7 1.4l.2 1.6c0 1-.2 1.8-.4 2.6-.3.7-.7 1.3-1.3 1.7a3 3 0 01-1.9.6c-.6 0-1.1-.1-1.6-.4-.4-.2-.7-.5-1-1s-.3-.7-.4-1.2h1.6c0 .4.2.7.5 1s.5.2 1 .2 1-.2 1.3-.7c.4-.6.6-1.4.6-2.4-.2.3-.5.6-1 .8s-.8.4-1.3.4a2.9 2.9 0 01-2.9-3A3 3 0 0137.4.6c.5-.3 1-.5 1.7-.5zm0 1.3c-.4 0-.8.2-1.1.5-.3.3-.5.6-.5 1.1 0 .5.2.9.5 1.2s.7.4 1.2.4c.3 0 .6 0 .8-.2l.6-.6c.2-.2.3-.5.3-.8 0-.4-.2-.8-.5-1.1-.3-.3-.8-.5-1.2-.5zm8 4.7V4.8h5.3V6H47zm10 3v-9h1.6v9H57zm6.4.2c-.7 0-1.2-.1-1.7-.4s-1-.7-1.2-1.2c-.3-.5-.4-1-.4-1.7s.1-1.3.4-1.8c.3-.5.7-.9 1.2-1.1s1-.5 1.7-.5c.8 0 1.5.3 2 .7.6.4 1 1 1 1.7H65c-.1-.3-.3-.5-.6-.7-.2-.2-.5-.3-.8-.3-.5 0-.9.2-1.2.5s-.5.9-.5 1.5.2 1 .5 1.4c.3.3.7.5 1.2.5.3 0 .6 0 .8-.3.3-.1.5-.4.6-.7h1.7c-.2.7-.5 1.3-1 1.7s-1.3.7-2.1.7zm7.6 0A3.1 3.1 0 0167.8 6c0-.6.2-1.2.4-1.7.3-.5.7-1 1.2-1.2a3.3 3.3 0 013.4 0c.5.2.8.6 1.1 1a3 3 0 01.4 2v.3h-4.8c0 .5.2.8.5 1.1.3.3.7.5 1.1.5.3 0 .6-.1.8-.3.3-.1.4-.3.6-.6H74a3 3 0 01-3 2.2zm0-5.3c-.4 0-.7 0-1 .3-.3.2-.5.6-.6 1h3.1c0-.4-.1-.7-.4-1s-.6-.3-1-.3zm8.7 5.3c-1 0-1.7-.2-2.3-.6A4 4 0 0176 7.1c-.4-.7-.6-1.5-.6-2.4s.2-1.7.6-2.4c.3-.7.8-1.3 1.5-1.7s1.4-.6 2.3-.6c1 0 2 .3 2.6.8.7.6 1.1 1.3 1.3 2.3H82c-.1-.5-.3-.9-.7-1.2-.4-.2-.8-.4-1.4-.4-.9 0-1.5.3-2 .9s-.7 1.3-.7 2.3.2 1.7.7 2.3c.5.5 1.1.8 2 .8.6 0 1-.1 1.4-.4.4-.2.6-.6.7-1h1.8c-.2.9-.6 1.6-1.3 2.1-.7.5-1.5.8-2.6.8zm5.3-.2V2.8h1.5l.1 1.2a2.6 2.6 0 012.4-1.4v1.8h-.5l-1 .1-.6.6c-.2.3-.2.7-.2 1.1v3H85zm8 .2A3.1 3.1 0 0189.9 6c0-.6.2-1.2.5-1.7s.7-1 1.1-1.2c.5-.3 1.1-.5 1.8-.5.6 0 1.2.2 1.6.4s.9.7 1.2 1.2a3 3 0 01.3 1.8v.4h-4.8c0 .5.2.8.5 1.1.3.3.7.5 1.2.5.3 0 .6-.1.8-.3.2-.1.4-.3.5-.6h1.7a3 3 0 01-3 2.2zm0-5.3c-.3 0-.7 0-1 .3-.3.2-.5.6-.6 1h3.2c0-.4-.2-.7-.5-1s-.6-.3-1-.3zm6.8 5.3c-.5 0-1 0-1.3-.3-.4-.1-.6-.4-.8-.7s-.3-.6-.3-1c0-.5.3-1 .7-1.4s1.2-.5 2.1-.5h1.6v-.2c0-.4-.1-.7-.3-1s-.6-.2-1-.2c-.3 0-.6 0-.8.2a1 1 0 00-.5.7h-1.6c0-.5.2-.9.5-1.2.2-.3.6-.6 1-.8.4-.2 1-.3 1.4-.3 1 0 1.7.3 2.2.7s.8 1.1.8 2V9h-1.4l-.2-1c-.2.4-.4.6-.8.9-.3.2-.7.3-1.3.3zm.4-1.3c.5 0 .8-.1 1-.4.3-.4.5-.7.6-1.2h-1.4c-.4 0-.8.1-1 .3l-.2.5c0 .3 0 .5.3.6l.7.2zm4.8 1.1V2.8h1.5l.1.9c.2-.4.5-.6.8-.8l1.2-.3c1 0 1.7.4 2 1.2l1-.9c.4-.2.8-.3 1.3-.3.8 0 1.4.3 1.9.8s.7 1.2.7 2.2V9h-1.7V5.7c0-.5 0-1-.3-1.2-.2-.3-.5-.5-1-.5-.4 0-.8.2-1 .5a2 2 0 00-.4 1.4V9h-1.7V5.7c0-.5 0-1-.3-1.2s-.5-.5-1-.5c-.4 0-.8.2-1 .5a2 2 0 00-.4 1.4V9H105zm12.7.1a1 1 0 01-.7-.2 1 1 0 01-.3-.7c0-.3 0-.5.3-.7.2-.2.4-.3.7-.3s.6 0 .7.3c.2.2.3.4.3.7 0 .2 0 .5-.3.6a1 1 0 01-.7.3zM.2 28.3l3.3-9h1.9l3.2 9H7l-.7-2H2.7l-.7 2H.2zm3-3.3h2.5l-1.3-3.7L3.1 25zm6.5 3.3v-9.2h1.7v9.2H9.7zm3.4 0v-9.2h1.6v9.2h-1.6zm6.4 0v-9h3.3c.7 0 1.3.2 1.7.5.5.2.8.5 1 1 .3.3.4.8.4 1.3a2.4 2.4 0 01-1.8 2.5l1.9 3.7h-1.9l-1.6-3.5H21v3.5h-1.6zm1.6-4.7h1.6c.5 0 .9-.1 1.2-.4s.3-.6.3-1c0-.5 0-.8-.3-1-.3-.3-.7-.4-1.3-.4h-1.5v2.8zm7.2-2.6a1 1 0 01-.8-.3l-.2-.6c0-.2 0-.5.2-.7.2-.2.5-.3.8-.3s.5.1.7.3c.2.2.3.4.3.7s0 .5-.3.6a1 1 0 01-.7.3zm-.8 7.3V22H29v6.3h-1.6zm6-1.9h-.9l-.4.4.6.2 1.2.2c.8 0 1.4.2 1.8.6s.6.7.6 1.3c0 .4-.1.7-.3 1-.2.4-.5.7-1 .9-.4.2-1 .3-1.6.3-1 0-1.6-.2-2.2-.5-.6-.3-.8-.8-.8-1.5 0-.6.2-1 .8-1.5l-.4-.2-.4-.3V27l1.1-1.2c-.5-.4-.7-1-.7-1.7 0-.4.1-.8.3-1.1.2-.4.5-.6 1-.9s.8-.3 1.3-.3c.4 0 .7 0 1 .2h2.4v1h-1l.2 1.1c0 .5-.1.9-.3 1.2s-.5.6-1 .8c-.3.2-.8.3-1.3.3zm0-1.2c.3 0 .6-.1.8-.3.2-.2.4-.4.4-.7s-.2-.6-.4-.8c-.2-.2-.5-.3-.8-.3-.3 0-.6.1-.8.3s-.4.4-.4.8c0 .3.1.5.4.7s.4.3.8.3zm-1.5 4c0 .2.1.5.4.6.3.2.7.3 1 .3.5 0 .8-.1 1-.3.3-.1.5-.4.5-.7 0-.2-.1-.4-.3-.5-.1-.2-.5-.3-1-.3l-1-.1-.5.4a1 1 0 00-.1.5zm6.1-.9v-9.2h1.6V23c.3-.4.5-.7.9-.9l1.2-.3c.8 0 1.4.3 1.9.8.4.5.6 1.2.6 2.2v3.5h-1.6V25c0-.5-.1-1-.3-1.2-.3-.3-.6-.5-1-.5-.5 0-1 .2-1.2.5a2 2 0 00-.5 1.4v3.2h-1.6zm10.6 0c-.7 0-1.2-.1-1.6-.4s-.6-1-.6-1.8v-2.7h-1V22h1l.2-1.7h1.5V22h1.7v1.4h-1.7V26l.1.7.7.1h.8v1.4h-1zm5.2.2c-.6 0-1 0-1.5-.3-.4-.2-.8-.4-1-.7s-.4-.7-.5-1.2h1.7c0 .3.2.5.4.7l.9.2c.4 0 .6 0 .8-.2l.2-.5c0-.3-.1-.4-.3-.5l-1-.3a10.8 10.8 0 01-1.7-.6l-.5-.5c-.2-.2-.2-.5-.2-.8 0-.5.2-1 .6-1.4.5-.4 1.1-.6 2-.6.7 0 1.3.2 1.7.6.5.3.7.8.8 1.4h-1.5c-.1-.5-.5-.7-1-.7-.4 0-.6 0-.8.2-.2.1-.3.3-.3.4 0 .2.2.4.4.5l1 .3 1.2.3c.4.2.7.3 1 .6l.2 1c0 .4 0 .8-.3 1s-.5.6-.9.8c-.4.2-.9.3-1.4.3zm7.2-.2v-9h3.3c.7 0 1.3.2 1.7.5.5.2.9.5 1 1 .3.3.4.8.4 1.3a2.4 2.4 0 01-1.8 2.5l2 3.7h-2l-1.6-3.5h-1.4v3.5h-1.6zm1.6-4.7h1.6c.5 0 1-.1 1.2-.4s.4-.6.4-1c0-.5-.2-.8-.4-1-.3-.3-.7-.4-1.2-.4h-1.6v2.8zm9 4.9a3.1 3.1 0 01-3.3-3.3c0-.6.2-1.2.4-1.7.3-.5.7-1 1.2-1.2a3.3 3.3 0 013.4 0c.5.2.8.6 1.1 1a3 3 0 01.4 2v.3H70c0 .5.2.8.5 1.1.3.3.7.5 1.1.5.3 0 .6-.1.8-.3.3-.1.4-.3.6-.6h1.6a3 3 0 01-3 2.2zm0-5.3c-.4 0-.7 0-1 .3-.3.2-.5.6-.6 1h3.1c0-.4-.1-.7-.4-1s-.6-.3-1-.3zm7.2 5.3c-.6 0-1 0-1.5-.3l-1-.7c-.3-.3-.4-.7-.5-1.2h1.7c0 .3.2.5.4.7l.9.2c.4 0 .6 0 .8-.2l.2-.5c0-.3-.1-.4-.3-.5l-1-.3A10.8 10.8 0 0177 25c-.3-.1-.5-.3-.6-.5-.2-.2-.2-.5-.2-.8 0-.5.2-1 .6-1.4.5-.4 1.1-.6 2-.6.7 0 1.3.2 1.7.6.5.3.7.8.8 1.4h-1.5c-.1-.5-.5-.7-1-.7-.4 0-.6 0-.8.2-.2.1-.2.3-.2.4 0 .2 0 .4.3.5l1 .3c.5 0 .9.2 1.2.3.4.2.7.3 1 .6.1.2.3.6.3 1s-.1.8-.3 1-.6.6-1 .8c-.4.2-.8.3-1.4.3zm7.2 0a3.1 3.1 0 01-3.3-3.3c0-.6.1-1.2.4-1.7.3-.5.7-1 1.2-1.2a3.3 3.3 0 013.4 0c.4.2.8.6 1 1a3 3 0 01.5 2v.3h-4.9c0 .5.2.8.5 1.1.4.3.7.5 1.2.5.3 0 .6-.1.8-.3.2-.1.4-.3.5-.6h1.7a3 3 0 01-3 2.2zm0-5.3c-.4 0-.7 0-1 .3-.4.2-.6.6-.6 1h3.1c0-.4-.2-.7-.4-1s-.7-.3-1-.3zm4.6 5.1V22H92l.2 1.2a2.6 2.6 0 012.3-1.4v1.8h-.4l-1 .1c-.3.1-.5.3-.7.6l-.2 1.1v3h-1.6zm6.8 0L95 22h1.7l1.7 4.8L100 22h1.7l-2.4 6.3h-2zm8 .2a3.1 3.1 0 01-3.3-3.3c0-.6.2-1.2.5-1.7s.7-1 1.2-1.2a3.3 3.3 0 013.4 0c.4.2.8.6 1 1a3 3 0 01.5 2v.3h-4.9c0 .5.2.8.5 1.1.3.3.7.5 1.2.5.3 0 .6-.1.8-.3.2-.1.4-.3.5-.6h1.7a3 3 0 01-3 2.2zm.1-5.3c-.4 0-.8 0-1 .3-.4.2-.6.6-.7 1h3.2c0-.4-.2-.7-.5-1s-.6-.3-1-.3zm7.5 5.3a3 3 0 01-2.7-1.6c-.3-.5-.5-1.1-.5-1.7s.2-1.3.5-1.7a3 3 0 012.7-1.7c.4 0 .9.1 1.2.3l.9.8V19h1.6v9.2h-1.4l-.2-.9-.8.8c-.4.2-.8.3-1.3.3zm.3-1.4c.5 0 1-.2 1.3-.6.3-.3.5-.8.5-1.3s-.2-1-.5-1.4c-.3-.3-.8-.5-1.3-.5s-1 .1-1.3.5-.5.8-.5 1.4.2 1 .5 1.3c.4.4.8.6 1.3.6zm5.8 1.3a1 1 0 01-.7-.2 1 1 0 01-.3-.7c0-.3 0-.5.3-.7.2-.2.4-.3.7-.3s.5 0 .7.3c.2.2.3.4.3.7 0 .2 0 .5-.3.6a1 1 0 01-.7.3z"/>
        </symbol>
        <symbol id="icon-close" viewBox="0 0 32 32">
            <path fill="none" stroke="var(--color3, #fff)" stroke-width="2" d="M2.5 2l27 28M2 29.5l28-27"/>
        </symbol>
        <symbol id="icon-burger" viewBox="0 0 46 32">
            <path fill="none" stroke="var(--color4, #d41443)" stroke-width="2.3" d="M0 2.3h45.7M0 16h45.7M0 29.7h45.7"/>
        </symbol>
        <symbol id="icon-reserved-desktop" viewBox="0 0 587 32">
            <path fill="var(--color2, #907e82)" d="M11.7 23.6c-2 0-3.8-.4-5.4-1.3a10 10 0 01-3.7-3.8C1.8 17 1.3 15 1.3 13c0-2.1.5-4 1.3-5.5a9.7 9.7 0 013.7-3.8c1.6-1 3.4-1.4 5.4-1.4 2.1 0 4 .5 5.5 1.4 1.5.9 2.8 2.1 3.6 3.8 1 1.6 1.4 3.4 1.4 5.5 0 2-.5 3.9-1.4 5.5a9.7 9.7 0 01-3.6 3.8c-1.6.9-3.4 1.3-5.5 1.3zm0-1.4c1.9 0 3.5-.3 4.8-1.1s2.4-1.9 3-3.3c.8-1.4 1.2-3 1.2-4.8s-.4-3.5-1.1-5a7.6 7.6 0 00-3-3.1c-1.4-.8-3-1.2-4.9-1.2-1.8 0-3.4.4-4.7 1.2A7.8 7.8 0 003.9 8c-.7 1.4-1 3-1 4.9s.3 3.4 1 4.8 1.8 2.5 3 3.3 3 1.1 4.8 1.1zm0-2.4a7 7 0 01-3.3-.8c-1-.6-1.8-1.4-2.3-2.4-.6-1-.9-2.2-.9-3.6s.3-2.7.9-3.7c.5-1 1.3-1.8 2.3-2.3s2.1-.9 3.4-.9c1.5 0 2.8.4 4 1.3 1 .8 1.8 2 2.1 3.5h-3.3a3 3 0 00-3-2 3 3 0 00-2.3 1c-.6.6-1 1.7-1 3s.4 2.5 1 3.2a3 3 0 002.4 1c.7 0 1.4-.1 1.8-.5s.9-.9 1.1-1.5h3.3c-.3 1.4-1 2.6-2.2 3.4a6.3 6.3 0 01-4 1.3zm21.6 3.7v-2.8a215.4 215.4 0 007-6.2c.9-1 1.7-2 2.2-3 .6-1 .9-1.9.9-2.8 0-.9-.3-1.6-.7-2.3-.5-.6-1.3-1-2.3-1-1.1 0-2 .4-2.5 1.1S37 8.1 37 9.1h-3.7c0-1.5.4-2.8 1-3.8.7-1 1.5-1.8 2.6-2.3a8 8 0 013.6-.8c2 0 3.7.6 5 1.8a6 6 0 011.7 4.5c0 1.1-.3 2.3-.8 3.3-.5 1.1-1.2 2.2-2 3.2s-1.8 2-2.8 2.9l-3 2.4h9.1v3.2H33.3zm26.6.3c-2 0-3.6-.4-5-1.3a9 9 0 01-3.1-3.8c-.8-1.6-1.2-3.5-1.2-5.7 0-2.1.4-4 1.2-5.6a8.8 8.8 0 013.1-3.8c1.4-1 3-1.4 5-1.4A8.6 8.6 0 0168 7.4c.8 1.6 1.2 3.5 1.2 5.6 0 2.2-.4 4-1.2 5.7a8.9 8.9 0 01-3.1 3.8c-1.4.9-3 1.3-5 1.3zm0-3.4c1.6 0 2.9-.7 3.9-2s1.5-3.1 1.5-5.4c0-2.3-.5-4-1.5-5.4s-2.3-2-3.9-2-2.9.7-3.9 2-1.4 3.1-1.4 5.4.4 4.1 1.4 5.4c1 1.3 2.3 2 4 2zm15.5 3V7l-3.4.8V4.8l5-2.2h2.4v20.9h-4zM91 2.3c1.6 0 3 .3 4 .9a8 8 0 014 5.6 17.1 17.1 0 01-.5 9.8 9 9 0 01-2.9 4 7.2 7.2 0 01-4.4 1.3c-1.5 0-2.7-.3-3.7-.8-1-.6-1.8-1.3-2.3-2.3s-1-1.9-1-3h3.5c.2 1 .6 1.7 1.2 2.2s1.4.8 2.3.8c1.3 0 2.4-.6 3.2-1.9.8-1.2 1.3-3 1.3-5.6-.4.8-1.2 1.5-2.1 2a6.7 6.7 0 01-6.5 0c-1-.5-1.8-1.3-2.4-2.3-.7-1-1-2.2-1-3.6a7 7 0 011-3.5A7.1 7.1 0 0191 2.2zm.3 3.3c-1.2 0-2 .3-2.8 1-.7.7-1.1 1.6-1.1 2.6 0 1.1.4 2 1.1 2.7s1.7 1 2.8 1a3.9 3.9 0 003.4-1.8c.3-.5.5-1.1.5-1.8 0-1-.4-2-1.1-2.7a4 4 0 00-2.8-1zm19.6 11v-3.3h12.5v3.2h-12.5zm24.4 7v-21h3.9v21h-3.9zm15.7.3c-1.5 0-2.9-.3-4-1s-2.1-1.5-2.8-2.7c-.6-1.2-1-2.5-1-4s.4-2.9 1-4c.7-1.2 1.6-2.2 2.8-2.8s2.5-1 4-1c1.9 0 3.5.5 4.8 1.5 1.2 1 2 2.3 2.4 4h-4c-.2-.7-.6-1.2-1.2-1.6-.6-.4-1.3-.7-2-.7-1.1 0-2 .4-2.7 1.2s-1.2 2-1.2 3.4.4 2.5 1.2 3.3c.7.8 1.6 1.2 2.6 1.2.8 0 1.5-.2 2.1-.6.6-.4 1-1 1.2-1.7h4c-.3 1.6-1.2 3-2.4 4s-3 1.5-4.8 1.5zm18.4 0c-1.5 0-2.8-.3-4-1s-2-1.5-2.7-2.6a8 8 0 01-1-4c0-1.6.4-3 1-4.1a7 7 0 012.7-2.8c1.1-.7 2.5-1 4-1s2.8.3 3.9 1a7.3 7.3 0 013.5 7v.7h-11.3c.1 1.1.5 2 1.2 2.7.8.7 1.7 1 2.7 1 .8 0 1.4-.2 2-.5.5-.4.9-.8 1.1-1.4h4a7 7 0 01-7 5zm0-12.4a4 4 0 00-2.4.8c-.7.5-1.2 1.3-1.4 2.4h7.4c0-1-.4-1.8-1.1-2.3s-1.5-.9-2.5-.9zm20.8 12.4c-2 0-3.9-.4-5.4-1.3a9.2 9.2 0 01-3.5-3.8c-.8-1.6-1.2-3.5-1.2-5.7s.4-4 1.2-5.6c.8-1.6 2-3 3.5-3.8s3.3-1.4 5.4-1.4c2.5 0 4.6.6 6.2 1.9a8 8 0 013 5.2h-4.2c-.3-1.1-.8-2-1.7-2.6-.8-.7-2-1-3.3-1-2 0-3.5.6-4.6 2s-1.6 3-1.6 5.3.5 4.1 1.6 5.4c1.1 1.3 2.6 2 4.6 2 1.4 0 2.5-.3 3.3-1 .9-.5 1.4-1.4 1.7-2.4h4.2a7.8 7.8 0 01-3 5 9.9 9.9 0 01-6.2 1.8zm13-.3V8.7h3.5l.3 2.7a6.1 6.1 0 015.5-3.1v4h-1c-.9 0-1.6.2-2.3.4s-1.2.7-1.6 1.4c-.3.6-.5 1.5-.5 2.6v6.8h-3.8zm19.5.3c-1.5 0-2.9-.3-4-1s-2-1.5-2.7-2.6a8 8 0 01-1-4c0-1.6.3-3 1-4.1a7 7 0 012.6-2.8c1.2-.7 2.5-1 4-1s2.8.3 4 1 2 1.5 2.5 2.6a7.2 7.2 0 011 4.3v.8h-11.3c0 1.1.5 2 1.2 2.7.7.7 1.6 1 2.6 1 .8 0 1.5-.2 2-.5.5-.4 1-.8 1.2-1.4h3.8a7 7 0 01-7 5zm0-12.4a4 4 0 00-2.5.8c-.7.5-1.2 1.3-1.4 2.4h7.4c0-1-.4-1.8-1-2.3s-1.5-.9-2.5-.9zM239 23.8c-1.3 0-2.3-.2-3.1-.6-.8-.4-1.4-1-1.8-1.6s-.6-1.4-.6-2.3c0-1.3.5-2.4 1.6-3.3s2.7-1.3 4.8-1.3h3.8v-.3c0-1-.3-1.8-.9-2.3s-1.3-.7-2.1-.7-1.5.2-2 .6c-.6.3-1 .9-1.1 1.6h-3.8c.1-1 .5-2 1.1-2.8.6-.8 1.4-1.4 2.4-1.8 1-.5 2.2-.7 3.4-.7 2.1 0 3.8.5 5 1.6s1.8 2.5 1.8 4.5v9h-3.3l-.3-2.3a5.3 5.3 0 01-4.9 2.7zm.9-3c1 0 2-.3 2.5-1 .6-.8 1-1.6 1.2-2.7h-3.3c-1 0-1.7.2-2.1.6-.5.3-.7.8-.7 1.3 0 .6.2 1 .7 1.4s1 .4 1.7.4zm11.8 2.7V8.7h3.4l.3 2c.5-.8 1.2-1.3 2-1.7.7-.5 1.6-.7 2.7-.7 2.3 0 3.9.9 4.8 2.7.6-.9 1.3-1.5 2.2-2 1-.5 2-.7 3-.7 2 0 3.4.6 4.4 1.7 1 1.2 1.6 2.9 1.6 5.1v8.4h-3.8v-8c0-1.3-.3-2.3-.8-3-.5-.6-1.2-1-2.2-1-1 0-1.9.4-2.5 1.2-.7.7-1 1.8-1 3.1v7.7H262v-8c0-1.3-.2-2.3-.7-3-.5-.6-1.3-1-2.3-1a3 3 0 00-2.5 1.2c-.6.7-1 1.8-1 3.1v7.7h-3.8zm30.3.2c-.7 0-1.3-.2-1.8-.7-.4-.4-.6-1-.6-1.6 0-.6.2-1.1.6-1.6.5-.4 1-.6 1.8-.6a2.3 2.3 0 012.3 2.2c0 .7-.2 1.2-.6 1.6-.5.5-1 .7-1.7.7zm12.5-.2l7.7-21h4.3l7.6 21h-4l-1.7-4.9h-8.2l-1.7 4.9h-4zm6.8-7.9h6l-3-8.6-3 8.6zm16 7.9V2h3.9v21.5h-3.9zm8.4 0V2h3.8v21.5h-3.8zm16 0v-21h7.8c1.6 0 3 .3 4 1 1.2.5 2 1.2 2.5 2.2.6 1 .8 2 .8 3.2 0 1.3-.3 2.5-1 3.5-.6 1-1.7 1.8-3 2.3l4.3 8.8h-4.4l-4-8.3h-3v8.3h-3.9zm4-11h3.5c1.3 0 2.2-.4 2.8-1s1-1.4 1-2.5c0-1-.4-1.8-1-2.3-.5-.6-1.5-1-2.8-1h-3.6v6.7zM363 6.3c-.7 0-1.3-.3-1.8-.7-.4-.4-.6-1-.6-1.6s.2-1.1.6-1.5c.5-.4 1-.6 1.8-.6s1.2.2 1.7.6c.4.4.7 1 .7 1.5s-.3 1.2-.7 1.6c-.5.4-1 .7-1.7.7zm-2 17V8.8h3.9v14.8H361zm14.7-4.4a8 8 0 01-2-.2l-1 1.1 1.3.5 2.8.3c2 .2 3.4.7 4.3 1.4s1.4 1.8 1.4 3.2c0 .8-.3 1.7-.8 2.4a5 5 0 01-2.2 2c-1 .4-2.2.7-3.8.7-2.1 0-3.8-.4-5-1.2-1.4-.8-2-2-2-3.5 0-1.4.6-2.5 2-3.5l-1.1-.6-.8-.6v-.7l2.6-2.7a5 5 0 01-1.7-4c0-1 .2-1.8.7-2.6.5-.9 1.2-1.5 2-2s2-.7 3.3-.7c.9 0 1.7.1 2.4.4h5.6V11l-2.6.2c.4.7.6 1.6.6 2.5 0 1-.2 1.9-.7 2.7s-1.1 1.4-2 2c-1 .4-2 .6-3.3.6zm0-2.9c.8 0 1.5-.2 2-.6.5-.4.7-1 .7-1.8s-.2-1.4-.7-1.8c-.5-.4-1.2-.6-2-.6a3 3 0 00-2 .6c-.4.4-.7 1-.7 1.8s.3 1.4.8 1.8a3 3 0 002 .6zm-3.5 9.2c0 .7.3 1.3 1 1.6.7.4 1.5.6 2.5.6s1.7-.2 2.3-.6c.6-.4 1-.9 1-1.6 0-.5-.3-1-.7-1.3-.3-.4-1.1-.6-2.3-.7l-2.2-.2c-.6.3-1 .6-1.3 1l-.3 1.2zm14.9-1.8V2h3.8v9c.5-.9 1.2-1.5 2-2 .9-.5 1.8-.7 3-.7 1.8 0 3.2.6 4.2 1.7 1 1.2 1.5 2.9 1.5 5.1v8.4h-3.8v-8c0-1.3-.3-2.3-.8-3-.5-.6-1.3-1-2.4-1-1 0-2 .4-2.7 1.2-.7.7-1 1.8-1 3.1v7.7H387zm25.3 0c-1.5 0-2.8-.4-3.7-1.2-1-.7-1.4-2-1.4-4v-6.5h-2.5V8.7h2.5l.5-4h3.3v4h4v3.1h-4v6.5c0 .7.2 1.2.5 1.5.3.3.8.4 1.6.4h1.8v3.3h-2.6zm12.7.3c-1.3 0-2.4-.2-3.4-.6-1-.4-1.8-1-2.4-1.8s-1-1.6-1.1-2.6h3.9c0 .6.4 1 1 1.5.4.4 1.1.6 2 .6s1.4-.2 1.8-.5c.4-.4.6-.8.6-1.2 0-.6-.3-1-.8-1.3l-2.4-.7a25.2 25.2 0 01-3.7-1.2c-.6-.3-1-.7-1.4-1.2-.3-.5-.5-1.1-.5-1.8 0-1.4.6-2.5 1.6-3.4 1-.9 2.5-1.3 4.4-1.3 1.8 0 3.2.4 4.2 1.2a5 5 0 011.9 3.4h-3.6c-.3-1.1-1-1.6-2.5-1.6-.7 0-1.3 0-1.7.4-.4.2-.6.6-.6 1 0 .5.3.8 1 1l2.2.8 2.8.8c1 .3 1.6.7 2.1 1.3.6.5.8 1.3.8 2.4 0 .9-.2 1.7-.7 2.5s-1.2 1.3-2.2 1.7-2 .6-3.3.6zm18-.3v-21h7.7c1.7 0 3 .3 4.1 1 1 .5 2 1.2 2.4 2.2a6.3 6.3 0 01-.2 6.7c-.6 1-1.7 1.8-3 2.3l4.3 8.8H454l-4-8.3h-3v8.3H443zm3.8-11h3.6c1.3 0 2.2-.4 2.8-1s1-1.4 1-2.5c0-1-.4-1.8-1-2.3-.5-.6-1.5-1-2.8-1H447v6.7zm21.6 11.3a8 8 0 01-4-1c-1.1-.6-2-1.5-2.7-2.6s-1-2.5-1-4c0-1.6.4-3 1-4.1a7 7 0 012.7-2.8c1.1-.7 2.5-1 4-1s2.8.3 3.9 1a7.2 7.2 0 013.5 7v.7h-11.3c.1 1.1.5 2 1.2 2.7.8.7 1.6 1 2.7 1 .8 0 1.4-.2 2-.5.5-.4.9-.8 1.1-1.4h3.9a7 7 0 01-7 5zm0-12.4a4 4 0 00-2.4.8c-.8.5-1.2 1.3-1.4 2.4h7.4c-.1-1-.5-1.8-1.1-2.3s-1.5-.9-2.5-.9zM486 23.8c-1.3 0-2.5-.2-3.5-.6-1-.4-1.8-1-2.4-1.8s-1-1.6-1-2.6h3.8c.1.6.4 1 1 1.5.5.4 1.2.6 2 .6s1.5-.2 1.8-.5c.4-.4.6-.8.6-1.2 0-.6-.2-1-.8-1.3l-2.3-.7a25.2 25.2 0 01-3.8-1.2c-.5-.3-1-.7-1.3-1.2-.3-.5-.5-1.1-.5-1.8 0-1.4.5-2.5 1.5-3.4 1.1-.9 2.6-1.3 4.5-1.3 1.7 0 3.1.4 4.1 1.2a5 5 0 012 3.4h-3.7c-.2-1.1-1-1.6-2.5-1.6-.7 0-1.2 0-1.6.4-.4.2-.6.6-.6 1 0 .5.3.8.9 1 .5.3 1.3.6 2.3.8l2.8.8c.9.3 1.6.7 2 1.3.6.5.9 1.3.9 2.4 0 .9-.3 1.7-.7 2.5a5 5 0 01-2.2 1.7 8 8 0 01-3.3.6zm17.3 0c-1.4 0-2.8-.3-4-1s-2-1.5-2.6-2.6a8 8 0 01-1-4c0-1.6.3-3 1-4.1a7 7 0 012.6-2.8c1.2-.7 2.5-1 4-1s2.8.3 4 1 2 1.5 2.5 2.6a7.2 7.2 0 011 4.3v.8h-11.3c0 1.1.4 2 1.2 2.7.7.7 1.6 1 2.6 1 .8 0 1.4-.2 2-.5.5-.4.9-.8 1.2-1.4h3.8a7 7 0 01-7 5zm0-12.4a4 4 0 00-2.4.8c-.7.5-1.2 1.3-1.4 2.4h7.4c0-1-.4-1.8-1-2.3s-1.5-.9-2.5-.9zm11.3 12V8.8h3.4l.4 2.7a6.1 6.1 0 015.4-3.1v4h-1c-.9 0-1.6.2-2.3.4s-1.2.7-1.5 1.4c-.4.6-.6 1.5-.6 2.6v6.8h-3.8zm16.4 0l-5.4-14.7h4l3.8 11.2L537 8.7h4l-5.4 14.8h-4.7zm19.6.4a8 8 0 01-4-1c-1.1-.6-2-1.5-2.7-2.6s-1-2.5-1-4c0-1.6.4-3 1-4.1a7 7 0 012.7-2.8c1.1-.7 2.5-1 4-1s2.8.3 3.9 1a7.2 7.2 0 013.5 7v.7h-11.3c.1 1.1.5 2 1.2 2.7.8.7 1.6 1 2.7 1 .8 0 1.4-.2 2-.5.5-.4.9-.8 1.1-1.4h3.9a7 7 0 01-7 5zm0-12.4a4 4 0 00-2.4.8c-.8.5-1.2 1.3-1.4 2.4h7.4c-.1-1-.5-1.8-1.1-2.3s-1.5-.9-2.5-.9zm18 12.4a7 7 0 01-6.3-3.8c-.6-1.1-1-2.5-1-4s.4-2.8 1-4a7 7 0 016.4-3.7c1 0 2 .2 2.9.6s1.5 1 2 1.8V2h3.9v21.5h-3.5l-.4-2.2c-.4.7-1 1.3-1.9 1.8-.8.5-1.8.7-3 .7zm.9-3.3a4 4 0 003-1.2c.8-.9 1.2-2 1.2-3.2s-.4-2.4-1.2-3.2a4 4 0 00-3-1.3 4 4 0 00-3 1.3c-.8.8-1.2 1.8-1.2 3.1s.4 2.4 1.2 3.2a4 4 0 003 1.3zm14 3.2c-.6 0-1.2-.2-1.6-.7-.5-.4-.7-1-.7-1.6 0-.6.2-1.1.7-1.6.4-.4 1-.6 1.7-.6a2.3 2.3 0 012.4 2.2c0 .7-.3 1.2-.7 1.6-.5.5-1 .7-1.7.7z"/>
        </symbol>
        <symbol id="icon-github" viewBox="0 0 32 32">
            <path fill="var(--color3, #fff)" d="M16 0A16 16 0 000 16c0 7.5 5.3 14.3 12.3 16v-5.3c-.7.2-1.4.2-2 0a4 4 0 01-2.4-2c-.3-.5-1-1.2-1.6-1.1l-.2-2c1.4 0 2.7 1 3.4 2.2.4.6.8 1 1.2 1 .5.2 1 .1 1.6 0 .2-1.3.7-1.7 1.1-2.3-4.1-.7-5.8-2.9-6.5-4.6a7.3 7.3 0 011.2-7v-.2c-.7-2.2.2-4 .2-4.1.8.2 1-.3 3.6 1.3l.4.3h.3c1.1-.3 2.3-.5 3.4-.5s2.3.2 3.4.5H19.7c3.2-2 3.1-1.4 4-1.6 0 .1.9 2 .2 4-.1.3 2.8 3 1.2 7.3-.7 1.7-2.4 4-6.5 4.6.5.8 1.2 1.2 1.1 2.9V32c7-1.7 12.3-8.5 12.3-16A16 16 0 0016 0z"/>
        </symbol>
        <symbol id="icon-telegram" viewBox="0 0 44 32">
            <path fill="var(--color3, #fff)" d="M17.3 21l-.6 9c1 0 1.4-.5 1.9-1l4.5-4 9.4 6.4c1.7 1 2.9.5 3.4-1.4L42 3c.6-2.4-.9-3.3-2.6-2.7l-36.2 13C.8 14 .8 15.3 2.8 16l9.3 2.7L33.6 6c1-.6 1.9-.2 1.1.4L17.3 21z"/>
        </symbol>
        <symbol id="icon-facebook" viewBox="0 0 16 32">
            <path fill="var(--color3, #fff)" d="M14.1 16h-4v14.8H4V16H1v-5.3h3V7.4c0-2.5 1.1-6.2 6.2-6.2h4.5v5h-3.3c-.5 0-1.3.3-1.3 1.5v3h4.6L14 16z"/>
        </symbol>
        <symbol id="icon-hulf-arrow" viewBox="0 0 26 32">
            <path fill="none" stroke="var(--color4, #d41443)" stroke-linejoin="round" stroke-linecap="round" stroke-width="6.4" d="M5.2 3.2L19.3 16 5.2 28.8"/>
        </symbol>
        <symbol id="icon-points" viewBox="0 0 139 32">
            <path fill="var(--color3, #fff)" d="M85.3 16a16 16 0 11-32 0 16 16 0 0132 0zM32 16a16 16 0 11-32 0 16 16 0 0132 0zM138.7 16a16 16 0 11-32 0 16 16 0 0132 0z"/>
        </symbol>
        <symbol id="icon-icecream" viewBox="0 0 32 32">
            <path d="M25.5 10.5A9.6 9.6 0 0016 0a9.6 9.6 0 00-9.5 10.5 2.8 2.8 0 00.1 5.3v3.7c0 2.3 1.7 4.2 3.9 4.6l1 7.9h9l1-7.9a4.7 4.7 0 003.9-4.6v-3.7a2.8 2.8 0 00.1-5.3zM16 2c2.3 0 4.3 1 5.8 2.6a9 9 0 01-11.6 0A7.7 7.7 0 0116 1.9zM9.2 6a10.8 10.8 0 0013.6 0 7.6 7.6 0 01.8 4.3H8.4A7.9 7.9 0 019.2 6zm9.7 24.1h-5.8l-.7-6h7.2l-.7 6zm4.6-10.6c0 1.6-1.3 2.8-2.8 2.8h-9.4a2.8 2.8 0 01-2.8-2.8v-3.6H16v1.7a2.8 2.8 0 005.6 0V16h1.9v3.6zm1-5.4h-4.8v3.5a1 1 0 01-1.8 0v-3.5H7.6a1 1 0 010-2h16.8a1 1 0 010 2z"/>
        </symbol>
    </defs>
</svg>