<svg aria-hidden="true" style="position: absolute; width: 0; height: 0; overflow: hidden;" version="1.1" xmlns="http://www.w3.org/2000/svg" xmlns:xlink="http://www.w3.org/1999/xlink">
<defs>
<symbol id="logo-darck" viewBox="0 0 129 32">
<path fill="#fff" style="fill: var(--color1, #fff)" d="M19.136 6.8v18.2h-5.148v-7.098h-7.020v7.098h-5.148v-18.2h5.148v6.838h7.020v-6.838h5.148zM37.977 17.98c0 0.035-0.026 0.442-0.078 1.222h-10.244c0.208 0.728 0.607 1.291 1.196 1.69 0.607 0.381 1.361 0.572 2.262 0.572 0.676 0 1.257-0.095 1.742-0.286 0.503-0.191 1.005-0.503 1.508-0.936l2.6 2.704c-1.369 1.525-3.371 2.288-6.006 2.288-1.647 0-3.094-0.312-4.342-0.936s-2.219-1.491-2.912-2.6c-0.676-1.109-1.014-2.366-1.014-3.77 0-1.387 0.329-2.626 0.988-3.718 0.676-1.109 1.603-1.976 2.782-2.6s2.505-0.936 3.978-0.936c1.404 0 2.678 0.295 3.822 0.884 1.144 0.572 2.045 1.413 2.704 2.522 0.676 1.092 1.014 2.392 1.014 3.9zM30.463 14.184c-0.763 0-1.404 0.217-1.924 0.65-0.503 0.433-0.823 1.023-0.962 1.768h5.772c-0.139-0.745-0.468-1.335-0.988-1.768-0.503-0.433-1.135-0.65-1.898-0.65zM41.295 5.708h4.94v19.292h-4.94v-19.292zM50.485 5.708h4.94v19.292h-4.94v-19.292z"></path>
<path fill="#fff" style="fill: var(--color1, #fff)" d="M104.882 21.022v3.978h-14.612v-18.2h14.274v3.978h-9.178v3.068h8.086v3.848h-8.086v3.328h9.516zM126.095 6.8v18.2h-4.238l-8.034-9.698v9.698h-5.044v-18.2h4.238l8.034 9.698v-9.698h5.044z"></path>
<path fill="#ff6b09" style="fill: var(--color2, #ff6b09)" d="M82.961 15.556c-0.267-0.595-0.636-1.182-1.175-1.859-1.359-1.7-1.774-5.491-1.778-5.527-0.018-0.182-0.147-0.332-0.318-0.386-0.175-0.055-0.364-0.005-0.488 0.132-1.622 1.805-0.94 4.591-0.571 5.705 0.101 0.305 0.212 0.664 0.29 1.027 0.599 2.941-0.557 4.273-0.829 4.541-0.263 0.073-0.442 0.036-0.608-0.141-0.571-0.623-0.76-2.664-0.493-5.323 0.055-0.541 0.041-1.027-0.037-1.482-0.564-3.268-2.63-5.365-3.156-6.1-1.447-2.127-1.594-5.668-1.599-5.7-0.005-0.168-0.101-0.318-0.253-0.391-0.147-0.073-0.327-0.064-0.465 0.032-2.414 1.632-2.207 5.564-1.87 7.759 0.078 0.509 0.23 1.027 0.493 1.682 0.935 2.341-0.184 5.364-0.194 5.391s-0.018 0.050-0.023 0.077c-0.143 0.745-0.382 1.191-0.65 1.191-0.028 0-0.055-0.005-0.088-0.014-0.327-0.068-0.498-0.414-0.502-0.714-0.019-3.877-3.93-5.182-3.971-5.195-0.175-0.055-0.368-0.005-0.488 0.136-0.124 0.141-0.147 0.336-0.064 0.5 0.046 0.095 0.194 0.514 0.092 1.991-0.088 1.327-0.332 2.641-0.723 3.9-0.931 3.018-0.783 5.877-0.774 6.014 0.716 7.741 11.906 9.098 18.547 4.736 0.728-0.477 1.322-1.023 1.76-1.623 2.451-3.364 1.009-7.932-0.064-10.359zM65.939 22.951c0.014 0.25-0.18 0.464-0.433 0.477h-0.028c-0.244 0-0.447-0.186-0.461-0.427-0.041-0.664-0.032-1.359 0.018-2.114 0.018-0.25 0.24-0.436 0.493-0.423 0.253 0.018 0.447 0.236 0.428 0.486-0.051 0.718-0.060 1.373-0.018 2zM66.164 18.924c-0.028 0.232-0.226 0.4-0.456 0.4-0.018 0-0.037 0-0.060-0.005-0.249-0.032-0.428-0.255-0.401-0.505l0.221-1.755c0.032-0.245 0.258-0.423 0.516-0.395 0.253 0.032 0.433 0.259 0.401 0.509l-0.221 1.75z"></path>
<path fill="#ff6b09" style="fill: var(--color2, #ff6b09)" d="M79.845 6.219c-0.251-0.038-0.424-0.27-0.385-0.518 0.029-0.185 0.195-1.13 0.647-1.606 0.174-0.183 0.465-0.193 0.651-0.021s0.195 0.459 0.021 0.643c-0.191 0.201-0.354 0.777-0.409 1.122-0.039 0.245-0.271 0.417-0.526 0.379z"></path>
<path fill="#ff6b09" style="fill: var(--color2, #ff6b09)" d="M63.050 8.483c-0.088-0.338-0.307-0.896-0.518-1.078-0.191-0.166-0.211-0.453-0.043-0.641s0.458-0.208 0.65-0.042c0.496 0.429 0.756 1.354 0.803 1.535 0.063 0.243-0.086 0.49-0.332 0.553-0.252 0.062-0.498-0.088-0.561-0.327z"></path>
</symbol>
<symbol id="logo-light" viewBox="0 0 128 32">
<path fill="#111518" style="fill: var(--color3, #111518)" d="M19.136 6.8v18.2h-5.148v-7.098h-7.020v7.098h-5.148v-18.2h5.148v6.838h7.020v-6.838h5.148zM37.977 17.98c0 0.035-0.026 0.442-0.078 1.222h-10.244c0.208 0.728 0.607 1.291 1.196 1.69 0.607 0.381 1.361 0.572 2.262 0.572 0.676 0 1.257-0.095 1.742-0.286 0.503-0.191 1.005-0.503 1.508-0.936l2.6 2.704c-1.369 1.525-3.371 2.288-6.006 2.288-1.647 0-3.094-0.312-4.342-0.936s-2.219-1.491-2.912-2.6c-0.676-1.109-1.014-2.366-1.014-3.77 0-1.387 0.329-2.626 0.988-3.718 0.676-1.109 1.603-1.976 2.782-2.6s2.505-0.936 3.978-0.936c1.404 0 2.678 0.295 3.822 0.884 1.144 0.572 2.045 1.413 2.704 2.522 0.676 1.092 1.014 2.392 1.014 3.9zM30.463 14.184c-0.763 0-1.404 0.217-1.924 0.65-0.503 0.433-0.823 1.023-0.962 1.768h5.772c-0.139-0.745-0.468-1.335-0.988-1.768-0.503-0.433-1.135-0.65-1.898-0.65zM41.295 5.708h4.94v19.292h-4.94v-19.292zM50.485 5.708h4.94v19.292h-4.94v-19.292z"></path>
<path fill="#111518" style="fill: var(--color3, #111518)" d="M104.432 21.022v3.978h-14.612v-18.2h14.274v3.978h-9.178v3.068h8.086v3.848h-8.086v3.328h9.516zM125.645 6.8v18.2h-4.238l-8.034-9.698v9.698h-5.044v-18.2h4.238l8.034 9.698v-9.698h5.044z"></path>
<path fill="#ff6b09" style="fill: var(--color2, #ff6b09)" d="M82.539 15.556c-0.266-0.595-0.632-1.182-1.169-1.859-1.352-1.7-1.765-5.491-1.769-5.527-0.018-0.182-0.147-0.332-0.316-0.386-0.174-0.055-0.362-0.005-0.486 0.132-1.613 1.805-0.935 4.591-0.568 5.705 0.101 0.305 0.211 0.664 0.289 1.027 0.596 2.941-0.555 4.273-0.825 4.541-0.261 0.073-0.44 0.036-0.605-0.141-0.568-0.623-0.756-2.664-0.49-5.323 0.055-0.541 0.041-1.027-0.037-1.482-0.561-3.268-2.616-5.365-3.14-6.1-1.439-2.127-1.586-5.668-1.59-5.7-0.005-0.168-0.101-0.318-0.252-0.391-0.147-0.073-0.325-0.064-0.463 0.032-2.402 1.632-2.195 5.564-1.861 7.759 0.078 0.509 0.229 1.027 0.49 1.682 0.93 2.341-0.183 5.364-0.192 5.391s-0.018 0.050-0.023 0.077c-0.142 0.745-0.38 1.191-0.646 1.191-0.028 0-0.055-0.005-0.087-0.014-0.326-0.068-0.495-0.414-0.5-0.714-0.018-3.877-3.91-5.182-3.951-5.195-0.174-0.055-0.367-0.005-0.486 0.136-0.124 0.141-0.147 0.336-0.064 0.5 0.046 0.095 0.193 0.514 0.092 1.991-0.087 1.327-0.33 2.641-0.72 3.9-0.926 3.018-0.779 5.877-0.77 6.014 0.712 7.741 11.845 9.098 18.452 4.736 0.724-0.477 1.315-1.023 1.751-1.623 2.438-3.364 1.004-7.932-0.064-10.359zM65.604 22.951c0.014 0.25-0.179 0.464-0.431 0.477h-0.028c-0.243 0-0.445-0.186-0.458-0.427-0.041-0.664-0.032-1.359 0.018-2.114 0.018-0.25 0.238-0.436 0.49-0.423 0.252 0.018 0.445 0.236 0.426 0.486-0.050 0.718-0.060 1.373-0.018 2zM65.828 18.924c-0.028 0.232-0.225 0.4-0.454 0.4-0.018 0-0.037 0-0.060-0.005-0.248-0.032-0.426-0.255-0.399-0.505l0.22-1.755c0.032-0.245 0.257-0.423 0.513-0.395 0.252 0.032 0.431 0.259 0.399 0.509l-0.22 1.75z"></path>
<path fill="#ff6b09" style="fill: var(--color2, #ff6b09)" d="M79.438 6.219c-0.25-0.038-0.421-0.27-0.383-0.518 0.029-0.185 0.194-1.13 0.644-1.606 0.173-0.183 0.463-0.193 0.648-0.021s0.194 0.459 0.021 0.643c-0.19 0.201-0.352 0.777-0.406 1.122-0.039 0.245-0.269 0.417-0.523 0.379z"></path>
<path fill="#ff6b09" style="fill: var(--color2, #ff6b09)" d="M62.729 8.483c-0.088-0.338-0.306-0.896-0.515-1.078-0.191-0.166-0.209-0.453-0.043-0.641s0.456-0.208 0.647-0.042c0.494 0.429 0.752 1.354 0.799 1.535 0.063 0.243-0.085 0.49-0.33 0.553-0.25 0.062-0.496-0.088-0.558-0.327z"></path>
</symbol>
</defs>
</svg>
