<svg aria-hidden="true" style="position: absolute; width: 0; height: 0; overflow: hidden;" version="1.1"
    xmlns="http://www.w3.org/2000/svg" xmlns:xlink="http://www.w3.org/1999/xlink">
    <defs>
        <symbol id="icon-modal-bag" viewBox="0 0 27 32">
            <path fill="#fff" style="fill: var(--color1, #fff)"
                d="M24.222 8.222h-4.667v-1.556c0-0 0-0 0-0 0-1.718-0.696-3.274-1.822-4.4v0c-1.126-1.126-2.682-1.822-4.4-1.822s-3.274 0.696-4.4 1.822v0c-1.126 1.126-1.822 2.682-1.822 4.4v0 1.556h-4.667c0 0-0 0-0 0-0.859 0-1.556 0.696-1.556 1.556 0 0 0 0 0 0v0 17.111c0 1.238 0.492 2.425 1.367 3.3 0.845 0.844 2.011 1.367 3.3 1.367h15.556c1.238 0 2.425-0.492 3.3-1.367 0.844-0.845 1.367-2.011 1.367-3.3 0 0 0-0 0-0v0-17.111c0 0 0-0 0-0 0-0.859-0.696-1.556-1.556-1.556-0 0-0 0-0 0v0zM10.222 6.667c0-0.825 0.328-1.616 0.911-2.2 0.563-0.563 1.341-0.911 2.2-0.911s1.637 0.348 2.2 0.911v0c0.563 0.563 0.911 1.341 0.911 2.2 0 0 0 0 0 0v0 1.556h-6.222v-1.556zM22.667 26.889c0 0.413-0.164 0.808-0.456 1.1-0.282 0.282-0.67 0.456-1.1 0.456h-15.556c-0.413 0-0.808-0.164-1.1-0.456-0.282-0.281-0.456-0.67-0.456-1.1 0-0 0-0 0-0v0-15.556h3.111v1.556c0 0.413 0.164 0.808 0.456 1.1s0.687 0.456 1.1 0.456 0.808-0.164 1.1-0.456c0.281-0.281 0.456-0.67 0.456-1.1 0-0 0-0 0-0v0-1.556h6.222v1.556c0 0.413 0.164 0.808 0.456 1.1s0.687 0.456 1.1 0.456 0.808-0.164 1.1-0.456c0.282-0.281 0.456-0.67 0.456-1.1 0-0 0-0 0-0v0-1.556h3.111v15.556z">
            </path>
        </symbol>
        <symbol id="icon-modal-close" viewBox="0 0 32 32">
            <path fill="none" stroke="#ae1332" style="stroke: var(--color2, #ae1332)" stroke-linejoin="round"
                stroke-linecap="round" stroke-miterlimit="4" stroke-width="2.6667" d="M24 8l-16 16M8 8l16 16"></path>
        </symbol>
        <symbol id="icon-nav-bag" viewBox="0 0 27 32">
            <path fill="#ae1332" style="fill: var(--color2, #ae1332)"
                d="M24.222 8.222h-4.667v-1.556c0-1.718-0.697-3.274-1.823-4.4v0c-1.126-1.126-2.682-1.822-4.4-1.822s-3.274 0.696-4.4 1.822v0c-1.126 1.126-1.822 2.682-1.822 4.4v0 1.556h-4.667c0 0-0 0-0 0-0.859 0-1.556 0.696-1.556 1.556 0 0 0 0 0 0v0 17.111c0 1.238 0.492 2.425 1.367 3.3 0.845 0.844 2.011 1.367 3.3 1.367h15.555c1.238 0 2.425-0.492 3.3-1.367 0.844-0.845 1.367-2.011 1.367-3.3 0 0 0-0 0-0v0-17.111c0 0 0-0 0-0 0-0.859-0.696-1.556-1.555-1.556v0zM10.222 6.667c0-1.718 1.393-3.111 3.111-3.111 0.859 0 1.637 0.348 2.2 0.911v0c0.563 0.563 0.911 1.341 0.911 2.2 0 0 0 0 0 0v0 1.556h-6.222v-1.556zM22.667 26.889c0 0.413-0.164 0.808-0.456 1.1-0.282 0.282-0.67 0.456-1.1 0.456h-15.556c-0.413 0-0.808-0.164-1.1-0.456-0.282-0.281-0.456-0.67-0.456-1.1 0-0 0-0 0-0v0-15.556h3.111v1.556c0 0.413 0.164 0.808 0.456 1.1s0.687 0.456 1.1 0.456 0.808-0.164 1.1-0.456c0.281-0.281 0.456-0.67 0.456-1.1 0-0 0-0 0-0v0-1.556h6.222v1.556c0 0.413 0.164 0.808 0.456 1.1s0.687 0.456 1.1 0.456 0.808-0.164 1.1-0.456c0.282-0.281 0.456-0.67 0.456-1.1 0-0 0-0 0-0v0-1.556h3.111v15.556z">
            </path>
        </symbol>
        <symbol id="icon-nav-cubic" viewBox="0 0 32 32">
            <path 
                d="M29.082 0.314h-4.009c-1.237 0-2.24 0.983-2.24 2.195v3.929c0 1.212 1.003 2.195 2.24 2.195h4.009c1.237 0 2.24-0.983 2.24-2.195v-3.929c0-1.212-1.003-2.195-2.24-2.195zM6.73 23.040h-4.318c-1.332 0-2.412 0.983-2.412 2.195v3.929c0 1.213 1.080 2.195 2.412 2.195h4.318c1.332 0 2.412-0.983 2.412-2.195v-3.929c0-1.212-1.080-2.195-2.412-2.195zM6.25 11.582h-4.009c-1.237 0-2.24 0.983-2.24 2.195v3.929c0 1.212 1.003 2.195 2.24 2.195h4.009c1.237 0 2.24-0.983 2.24-2.195v-3.929c0-1.212-1.003-2.195-2.24-2.195zM17.766 22.978h-4.009c-1.237 0-2.24 0.983-2.24 2.195l-0 3.929c0 1.212 1.003 2.195 2.241 2.195h4.009c1.237 0 2.24-0.983 2.24-2.195v-3.929c0-1.213-1.003-2.195-2.24-2.195zM6.25 0.086h-4.009c-1.237 0-2.24 0.983-2.24 2.195v3.929c0 1.212 1.003 2.195 2.24 2.195h4.009c1.237 0 2.24-0.983 2.24-2.195v-3.929c0-1.212-1.003-2.195-2.24-2.195zM18.076 11.697h-4.009c-1.237 0-2.24 0.983-2.24 2.195v3.929c0 1.212 1.003 2.195 2.24 2.195h4.009c1.237 0 2.24-0.983 2.24-2.195v-3.929c0-1.212-1.003-2.195-2.24-2.195zM29.333 22.978h-4.010c-1.237 0-2.24 0.983-2.24 2.195v3.929c0 1.212 1.003 2.195 2.24 2.195h4.009c1.237 0 2.24-0.983 2.24-2.195v-3.929c0-1.213-1.003-2.195-2.24-2.195zM17.591 0.224h-4.009c-1.237 0-2.24 0.983-2.24 2.195v3.929c0 1.212 1.003 2.195 2.24 2.195h4.009c1.237 0 2.24-0.984 2.24-2.196v-3.929c0-1.212-1.003-2.195-2.24-2.195zM29.044 11.926h-4.010c-1.237 0-2.24 0.983-2.24 2.195v3.929c0 1.212 1.003 2.195 2.24 2.195h4.009c1.237 0 2.24-0.983 2.24-2.195v-3.929c0-1.212-1.003-2.195-2.24-2.195z">
            </path>
        </symbol>
        <symbol id="icon-nav-modal" viewBox="0 0 32 32">
            <path fill="#ae1332" style="fill: var(--color2, #ae1332)"
                d="M0 6.392c0-0.88 0.714-1.592 1.592-1.592h12.816c0.879 0 1.592 0.713 1.592 1.592s-0.713 1.592-1.592 1.592v0h-12.816c-0.879 0-1.592-0.713-1.592-1.592v0zM0 16c0-0.88 0.714-1.592 1.592-1.592h28.816c0 0 0 0 0 0 0.879 0 1.592 0.713 1.592 1.592 0 0 0 0 0 0v0c0 0 0 0 0 0 0 0.879-0.713 1.592-1.592 1.592-0 0-0 0-0 0h-28.816c-0.879 0-1.592-0.713-1.592-1.592v0zM1.592 24.016c0 0-0 0-0 0-0.879 0-1.592 0.713-1.592 1.592 0 0 0 0 0 0v0c0 0 0 0 0 0 0 0.879 0.713 1.592 1.592 1.592 0 0 0 0 0 0h19.216c0.422 0 0.827-0.168 1.126-0.466 0.288-0.288 0.466-0.686 0.466-1.126 0-0 0-0 0-0v0c0-0.422-0.168-0.827-0.466-1.126-0.288-0.288-0.686-0.466-1.126-0.466-0 0-0 0-0 0h-19.216z">
            </path>
        </symbol>


        <symbol id="icon-facebook" viewBox="0 0 32 32">
            <path fill="#ae1332" style="fill: var(--color1, #ae1332)"
                d="M19.52 4.64h0.96v3.6h-1.2c-0.48 0-0.96 0-1.2 0.24s-0.24 0.48-0.24 1.040v1.28h2.64v3.040h-2.64v13.2h-4.080v-13.28h-2.16v-3.040h2.16v-1.040c0-1.76 0.24-3.040 0.72-3.6 0.72-1.040 2.16-1.52 4.32-1.52 0.24 0.080 0.48 0.080 0.72 0.080z">
            </path>
        </symbol>
        <symbol id="icon-instagram" viewBox="0 0 32 32">
            <path fill="#ae1332" style="fill: var(--color1, #ae1332)" opacity="0.8"
                d="M28.718 10.756c-0.016-1.074-0.215-2.14-0.596-3.145-0.667-1.716-2.024-3.073-3.743-3.737-0.994-0.373-2.044-0.573-3.108-0.596-1.368-0.061-1.801-0.078-5.273-0.078s-3.916 0-5.274 0.078c-1.062 0.023-2.113 0.223-3.106 0.596-1.719 0.664-3.078 2.021-3.743 3.737-0.374 0.992-0.576 2.041-0.596 3.101-0.061 1.367-0.080 1.8-0.080 5.265s0 3.909 0.080 5.265c0.021 1.062 0.222 2.109 0.596 3.104 0.682 1.721 2.021 3.057 3.7 3.72l0.044 0.015c0.989 0.386 2.040 0.605 3.106 0.639 1.369 0.061 1.803 0.080 5.274 0.080s3.916 0 5.274-0.080c1.062-0.021 2.112-0.221 3.108-0.595 1.719-0.666 3.076-2.022 3.743-3.737 0.374-0.994 0.574-2.041 0.596-3.104 0.061-1.365 0.080-1.798 0.080-5.265-0.003-3.466-0.003-3.906-0.082-5.264zM15.99 22.531c-3.631 0-6.572-2.936-6.572-6.561s2.941-6.561 6.572-6.561c3.628 0 6.572 2.936 6.572 6.561s-2.944 6.561-6.572 6.561zM22.824 10.696c-0.849 0-1.532-0.684-1.532-1.53s0.684-1.53 1.532-1.53c0.846 0 1.531 0.684 1.531 1.53s-0.685 1.53-1.531 1.53z">
            </path>
            <path fill="#ae1332" style="fill: var(--color1, #ae1332)" opacity="0.8"
                d="M15.992 19.976c2.211 0 4.004-1.793 4.004-4.004s-1.793-4.004-4.004-4.004c-2.211 0-4.004 1.793-4.004 4.004s1.793 4.004 4.004 4.004z">
            </path>
        </symbol>
        <symbol id="icon-youtube" viewBox="0 0 32 32">
            <path fill="#ae1332" style="fill: var(--color1, #ae1332)" opacity="0.8"
                d="M24.24 6c-1.36-0.080-4.16-0.16-8.4-0.16h-0.56c-4.080 0-6.8 0.080-8.16 0.24-1.84 0.16-3.12 0.64-3.84 1.28-0.64 0.56-1.12 1.6-1.28 2.96-0.080 0.88-0.16 2.72-0.16 5.52v0.4c0 2.64 0.080 4.48 0.24 5.36 0.24 1.28 0.64 2.24 1.44 2.8 0.8 0.64 2.16 1.040 4.080 1.2 1.36 0.080 4.16 0.16 8.4 0.16h0.56c4.080 0 6.8-0.080 8.16-0.24 1.84-0.16 3.12-0.64 3.84-1.28 0.64-0.56 1.12-1.6 1.28-2.96 0.080-0.88 0.16-2.72 0.16-5.52v-0.4c0-2.64-0.080-4.48-0.24-5.36-0.24-1.28-0.64-2.24-1.44-2.8-0.8-0.64-2.16-1.040-4.080-1.2zM21.12 15.84l-8.8 5.28v-10.56l8.8 5.28z">
            </path>
        </symbol>
    </defs>
</svg>