<svg aria-hidden="true" style="position: absolute; width: 0; height: 0; overflow: hidden;" version="1.1"
    xmlns="http://www.w3.org/2000/svg" xmlns:xlink="http://www.w3.org/1999/xlink">
    <defs>
        <symbol id="icon-advantages1" viewBox="0 0 31 32">
            <path fill="#ff6b09" style="fill: var(--color1, #ff6b09)"
                d="M7.953 23.273c1.588 0 10.776 0 12.362 0 0.061-1.41-0.040-3.749-0.907-4.862l-0.031-0.040-1.894-0.951c0.041-0.139 0.061-0.266 0.069-0.359 0.009-0.112-0.006-0.217-0.046-0.313-0.312-0.748-0.974-1.141-1.337-1.309 0.111-0.223 0.182-0.463 0.217-0.708 0.206-0.058 0.372-0.221 0.426-0.439l0.221-0.898c0.039-0.158 0.015-0.323-0.070-0.463-0.036-0.060-0.083-0.111-0.136-0.154 0.623-1.416-0.421-2.751-0.478-2.821-1.131-1.222-2.559-0.994-2.634-0.98-2.061 0.432-2.857 2.011-2.408 3.864-0.133 0.147-0.189 0.353-0.14 0.554l0.222 0.899c0.054 0.216 0.218 0.379 0.423 0.437 0.063 0.449 0.253 0.854 0.532 1.181v0.712c-2.958 1.515-1.084 0.548-3.454 1.748-0.005 0.022-1.112 1.2-0.948 4.689l0.010 0.213zM19.885 22.826h-2.035v-0.855l1.346-3.081c0.674 1.119 0.699 3.255 0.689 3.935zM17.108 17.023c-0.079 0.902-0.573 0.629-0.878 1.324-0.24-0.264-0.312-0.581-0.248-0.92 0.117-0.622-0.263-0.807-0.169-1.461l0.014-0.015v-0.002c0.008-0.009 0.083-0.098 0.105-0.126 0.805 0.351 1.193 1.003 1.177 1.2zM12.79 16.314c0.374 0.259 0.825 0.412 1.31 0.412 0.457 0 0.891-0.133 1.263-0.378 0.052 0.514 0.253 0.617 0.181 0.995-0.013 0.070-0.021 0.139-0.025 0.207l-1.386 1.562-1.771-1.997 0.428-0.223v-0.579zM12.233 14.403v-0.866c0-0.319 0-1.584 0-1.521 0.216-0.399 0.51-0.688 0.875-0.861 0.979 0.554 2.105 1.38 2.86 2.211-0.001 1.059 0.003 1.062-0.004 1.149l-0 0.006c-0.059 0.962-0.85 1.759-1.864 1.759-0.986 0-1.804-0.774-1.863-1.768-0.003-0.036-0.004-0.071-0.004-0.108zM11.957 17.332l2.177 2.454 1.461-1.647c0.033 0.096 0.080 0.187 0.134 0.275l-1.595 1.995-2.379-2.975 0.202-0.101zM16.414 14.043v-0.691c0.020-0.022 0.186-0.213 0.166-0.191 0.009 0.35 0.047-0.063-0.166 0.882zM13.798 9.416c0.088 0.005 1.276-0.181 2.215 0.833 0.037 0.046 0.801 1.031 0.494 2.108-0.105-0.479-0.288-1.093-0.578-1.387l-0.316 0.315c0.286 0.289 0.474 1.171 0.545 1.628-1.311-1.372-3.002-2.24-3.025-2.255-0.085 0.053-0.8 0.189-1.32 1.199l-0.025 0.048v0.742c-0.022 0-0.088 0.001-0.066 0.001-0.33-1.594 0.302-2.861 2.076-3.233zM11.675 13.109l0.113 0.456v0.479l-0.187-0.757c-0.027-0.113 0.056-0.156 0.074-0.178zM11.347 17.638l2.787 3.485 1.885-2.358c0.205 0.184 0.304 0.21 0.739 0.433l-0.147-0.497c-0.037-0.126 0.11-0.329 0.199-0.422 0.199-0.108 0.364-0.261 0.488-0.451l1.538 0.772-1.431 3.277v0.948h-6.543v-0.949l-1.432-3.277 1.917-0.962zM9.071 18.891l1.346 3.080v0.855h-2.035c-0.010-0.68 0.015-2.815 0.689-3.934z">
            </path>
            <path fill="none" stroke="#ff6b09" style="stroke: var(--color1, #ff6b09)" stroke-linejoin="miter"
                stroke-linecap="butt" stroke-miterlimit="4" stroke-width="0.6154"
                d="M31.077 4.615v-4.308h-30.769v31.385h30.769v-4.308"></path>
        </symbol>
        <symbol id="icon-advantages2" viewBox="0 0 31 32">
            <path fill="#ff6b09" style="fill: var(--color1, #ff6b09)"
                d="M20.406 8.558h-7.116c-0.463 0-0.84 0.377-0.84 0.84v2.946l-5.287 2.219c-0.060 0.025-0.101 0.082-0.105 0.146s0.027 0.127 0.083 0.16l0.674 0.403v4.3c-0.345 0.079-0.603 0.387-0.603 0.756v0.414c0 0.095 0.077 0.172 0.172 0.172h1.207c0.095 0 0.172-0.077 0.172-0.172v-0.414c0-0.369-0.259-0.677-0.604-0.756v-4.094l0.533 0.319c-0.016 0.123-0.002-0.214-0.008 2.002 0 0.729 1.866 1.119 3.765 1.141v3.356c0 0.173 0.053 0.335 0.144 0.468 0.151 0.223 0.407 0.37 0.696 0.37h7.116c0.463 0 0.839-0.377 0.839-0.839 0 0.023-0.001-0.711 0-12.898 0-0.457-0.378-0.84-0.839-0.84zM8.419 20.328v0.242h-0.863v-0.242c0-0.239 0.193-0.433 0.43-0.433 0.239 0 0.433 0.194 0.433 0.433zM20.406 22.79h-7.116c-0.171 0-0.322-0.086-0.411-0.218-0.053-0.079-0.085-0.174-0.085-0.276v-1.163h8.105v1.164c0 0.27-0.225 0.494-0.494 0.494zM20.9 20.788h-8.105v-1.847c0.927-0.011 3.767-0.215 3.767-1.142-0.001-1.392 0.002-1.957-0.004-2.005l1.546-0.926c0.056-0.033 0.088-0.095 0.083-0.16s-0.045-0.121-0.105-0.146l-5.286-2.219v-1.438h8.105v9.883zM12.622 16.656c-0.955 0-2.794 0.123-3.592 0.645 0.005-1.595-0.055-1.491 0.141-1.627 0.496-0.365 1.915-0.62 3.451-0.62 0.67 0 3.595 0.184 3.595 0.803v1.444c-0.806-0.526-2.636-0.645-3.595-0.645zM12.795 9.398c0-0.273 0.222-0.495 0.495-0.495h7.116c0.273 0 0.494 0.225 0.494 0.495v1.163h-8.105v-1.163zM12.622 12.644l5.012 2.104-1.242 0.743c-0.66-0.655-2.844-0.782-3.77-0.782-0.927 0-3.111 0.127-3.77 0.782l-1.242-0.743 5.012-2.104zM9.030 17.799c0-0.279 1.234-0.799 3.592-0.799 2.36 0 3.595 0.52 3.595 0.799s-1.235 0.799-3.595 0.799c-2.359 0-3.592-0.52-3.592-0.799z">
            </path>
            <path fill="#ff6b09" style="fill: var(--color1, #ff6b09)"
                d="M16.848 21.392c-0.314 0-0.569 0.255-0.569 0.569s0.255 0.57 0.569 0.57c0.314 0 0.569-0.256 0.569-0.57s-0.255-0.569-0.569-0.569zM16.848 22.187c-0.124 0-0.225-0.101-0.225-0.225s0.101-0.225 0.225-0.225c0.124 0 0.225 0.101 0.225 0.225s-0.101 0.225-0.225 0.225z">
            </path>
            <path fill="#ff6b09" style="fill: var(--color1, #ff6b09)" d="M17.504 9.56h-1.313v0.344h1.313v-0.344z">
            </path>
            <path fill="none" stroke="#ff6b09" style="stroke: var(--color1, #ff6b09)" stroke-linejoin="miter"
                stroke-linecap="butt" stroke-miterlimit="4" stroke-width="0.6154"
                d="M31.077 4.615v-4.308h-30.769v31.385h30.769v-4.308"></path>
        </symbol>
        <symbol id="icon-advantages3" viewBox="0 0 31 32">
            <path fill="#ff6b09" style="fill: var(--color1, #ff6b09)"
                d="M7.942 14.958c0 0.165-0.25 0.165-0.25 0 0-3.502 2.84-6.342 6.343-6.342 3.504 0 6.343 2.84 6.343 6.343 0 0.165-0.249 0.165-0.249 0 0-2.367-3.89-2.369-3.89 0 0 0.165-0.256 0.165-0.256 0 0-2.361-3.896-2.361-3.896 0 0 0.165-0.256 0.165-0.256 0 0-2.357-3.888-2.373-3.888 0zM11.853 14.039c0.067-1.363 0.281-2.584 0.593-3.517 0.249-0.741 0.563-1.304 0.919-1.62-2.674 0.292-4.839 2.319-5.323 4.949 0.921-1.328 3.047-1.222 3.811 0.189zM15.963 13.977c-0.069-1.31-0.277-2.482-0.576-3.376-0.773-2.313-1.931-2.313-2.704 0-0.299 0.894-0.506 2.066-0.576 3.376 0.831-1.412 3.026-1.412 3.857 0zM20.027 13.85c-0.482-2.629-2.647-4.657-5.323-4.949 0.358 0.316 0.671 0.879 0.919 1.62 0.311 0.933 0.526 2.155 0.593 3.517 0.768-1.418 2.9-1.502 3.811-0.189z">
            </path>
            <path fill="#ff6b09" style="fill: var(--color1, #ff6b09)"
                d="M13.202 17.86v-1.288c-0.232 0.154-0.415 0.392-0.415 0.683 0 0.283 0.186 0.47 0.415 0.605zM13.452 18.26c-0.445-0.204-0.913-0.442-0.913-1.005 0-0.581 0.442-0.872 0.913-1.089v2.094z">
            </path>
            <path fill="#ff6b09" style="fill: var(--color1, #ff6b09)"
                d="M14.867 19.803v1.303c0.235-0.156 0.419-0.395 0.419-0.686 0-0.286-0.189-0.479-0.419-0.617zM14.619 19.402c0.446 0.207 0.918 0.452 0.918 1.018 0 0.582-0.445 0.873-0.918 1.089v-2.107z">
            </path>
            <path fill="#ff6b09" style="fill: var(--color1, #ff6b09)"
                d="M14.867 15.106c1.024 0.237 2.077 1.003 2.077 2.149 0 0.981-1.658 0.945-1.658 0 0-0.292-0.184-0.532-0.419-0.686v1.833c0.948 0.31 2.080 0.865 2.080 2.018 0 1.147-1.053 1.912-2.080 2.147-0.005 1.092-1.662 1.090-1.665-0.001-0.584-0.135-1.092-0.407-1.458-0.768-0.385-0.38-0.612-0.858-0.612-1.378 0-0.966 1.656-0.966 1.656 0 0 0.289 0.183 0.527 0.415 0.681v-1.831c-0.94-0.304-2.078-0.876-2.078-2.018 0-1.147 1.053-1.912 2.078-2.147 0.005-1.092 1.662-1.090 1.665 0.001zM13.452 15.109v0.199c-0.975 0.193-2.080 0.818-2.080 1.944 0 1.083 1.213 1.568 2.080 1.836v2.42c-0.469-0.214-0.913-0.503-0.913-1.087 0-0.638-1.159-0.638-1.159 0 0 0.451 0.201 0.867 0.539 1.199 0.43 0.425 0.951 0.627 1.533 0.743v0.201c0 0.768 1.166 0.768 1.166 0v-0.199c0.978-0.195 2.078-0.819 2.078-1.944 0-1.093-1.21-1.563-2.078-1.837v-2.418c0.47 0.214 0.918 0.503 0.918 1.090 0 0.621 1.157 0.647 1.157 0 0-1.125-1.099-1.75-2.075-1.945v-0.201c0-0.768-1.166-0.768-1.166 0z">
            </path>
            <path fill="none" stroke="#ff6b09" style="stroke: var(--color1, #ff6b09)" stroke-linejoin="miter"
                stroke-linecap="butt" stroke-miterlimit="4" stroke-width="0.6154"
                d="M31.077 4.615v-4.308h-30.769v31.385h30.769v-4.308"></path>
        </symbol>
        <symbol id="icon-arrowleft" viewBox="0 0 54 32">
            <path fill="#ff6b09" style="fill: var(--color1, #ff6b09)"
                d="M52 14c1.105 0 2 0.895 2 2s-0.895 2-2 2v-4zM0.586 17.414c-0.781-0.781-0.781-2.047 0-2.828l12.728-12.728c0.781-0.781 2.047-0.781 2.828 0s0.781 2.047 0 2.828l-11.314 11.314 11.314 11.314c0.781 0.781 0.781 2.047 0 2.828s-2.047 0.781-2.828 0l-12.728-12.728zM52 18h-50v-4h50v4z">
            </path>
        </symbol>
        <symbol id="icon-arrowright" viewBox="0 0 54 32">
            <path fill="#ff6b09" style="fill: var(--color1, #ff6b09)"
                d="M2 14c-1.105 0-2 0.895-2 2s0.895 2 2 2v-4zM53.414 17.414c0.781-0.781 0.781-2.047 0-2.828l-12.728-12.728c-0.781-0.781-2.047-0.781-2.828 0s-0.781 2.047 0 2.828l11.314 11.314-11.314 11.314c-0.781 0.781-0.781 2.047 0 2.828s2.047 0.781 2.828 0l12.728-12.728zM2 18h50v-4h-50v4z">
            </path>
        </symbol>
        <symbol id="icon-check" viewBox="0 0 40 32">
            <path fill="#ff6b09" style="fill: var(--color1, #ff6b09)"
                d="M34.457 1.514c-1.484 0.664-2.907 1.475-4.265 2.379-2.731 1.797-5.228 3.936-7.57 6.218-2.341 2.287-4.52 4.735-6.581 7.28-0.515 0.636-2.823 3.47-2.823 3.47l-9.596-14.38-3.623 10.042 12.977 15.477c1.26-2.551 2.473-5.070 3.662-7.258 0.296-0.556 0.605-1.080 0.901-1.612 0 0 1.523-2.677 1.924-3.352 1.601-2.697 3.332-5.325 5.239-7.821 1.908-2.491 3.983-4.87 6.335-6.961 1.17-1.052 2.416-2.025 3.751-2.872 1.332-0.848 2.747-1.591 4.261-2.125-1.575 0.31-3.111 0.848-4.592 1.514z">
            </path>
        </symbol>
        <symbol id="icon-cross" viewBox="0 0 34 32">
            <path fill="none" stroke="#fff" style="stroke: var(--color2, #fff)" stroke-linejoin="miter"
                stroke-linecap="butt" stroke-miterlimit="4" stroke-width="4" d="M2.004 30.496l28.991-28.991"></path>
            <path fill="none" stroke="#fff" style="stroke: var(--color2, #fff)" stroke-linejoin="miter"
                stroke-linecap="butt" stroke-miterlimit="4" stroke-width="4" d="M30.996 30.496l-28.991-28.991"></path>
        </symbol>
        <symbol id="icon-fire" viewBox="0 0 23 32">
            <path fill="#ff6b09" style="fill: var(--color1, #ff6b09)"
                d="M21.908 16.593c-0.284-0.635-0.675-1.261-1.247-1.983-1.442-1.813-1.882-5.857-1.887-5.896-0.020-0.194-0.156-0.354-0.337-0.412-0.186-0.058-0.386-0.005-0.518 0.141-1.721 1.925-0.997 4.897-0.606 6.085 0.108 0.325 0.225 0.708 0.308 1.096 0.636 3.137-0.592 4.558-0.88 4.844-0.279 0.078-0.469 0.039-0.645-0.15-0.606-0.664-0.807-2.841-0.523-5.678 0.059-0.577 0.044-1.096-0.039-1.581-0.598-3.486-2.791-5.722-3.349-6.507-1.535-2.269-1.691-6.046-1.696-6.080-0.005-0.179-0.108-0.339-0.269-0.417-0.156-0.078-0.347-0.068-0.494 0.034-2.562 1.741-2.342 5.935-1.985 8.276 0.083 0.543 0.244 1.096 0.523 1.794 0.992 2.497-0.196 5.721-0.205 5.75s-0.020 0.053-0.024 0.082c-0.152 0.795-0.406 1.27-0.689 1.27-0.029 0-0.059-0.005-0.093-0.015-0.347-0.073-0.528-0.441-0.533-0.761-0.020-4.136-4.17-5.527-4.214-5.542-0.186-0.058-0.391-0.005-0.518 0.145-0.132 0.15-0.156 0.359-0.068 0.533 0.049 0.102 0.205 0.548 0.098 2.124-0.093 1.416-0.352 2.817-0.768 4.16-0.988 3.219-0.831 6.269-0.821 6.415 0.759 8.257 12.635 9.704 19.683 5.052 0.772-0.509 1.403-1.091 1.868-1.731 2.601-3.588 1.071-8.461-0.068-11.050zM3.844 24.481c0.015 0.267-0.191 0.494-0.46 0.509h-0.029c-0.259 0-0.474-0.199-0.489-0.456-0.044-0.708-0.034-1.45 0.020-2.255 0.020-0.267 0.254-0.465 0.523-0.451 0.269 0.019 0.474 0.252 0.455 0.519-0.054 0.766-0.064 1.464-0.020 2.133zM4.084 20.186c-0.029 0.247-0.24 0.427-0.484 0.427-0.020 0-0.039 0-0.064-0.005-0.264-0.034-0.455-0.272-0.425-0.538l0.235-1.871c0.034-0.262 0.274-0.451 0.548-0.422 0.269 0.034 0.46 0.276 0.425 0.543l-0.235 1.867z">
            </path>
            <path fill="#ff6b09" style="fill: var(--color1, #ff6b09)"
                d="M18.601 6.633c-0.267-0.041-0.45-0.288-0.408-0.553 0.030-0.197 0.207-1.205 0.686-1.713 0.185-0.196 0.493-0.206 0.691-0.022s0.207 0.49 0.022 0.685c-0.203 0.215-0.376 0.829-0.433 1.197-0.041 0.262-0.287 0.445-0.558 0.405z">
            </path>
            <path fill="#ff6b09" style="fill: var(--color1, #ff6b09)"
                d="M0.778 9.048c-0.094-0.361-0.326-0.955-0.549-1.149-0.203-0.177-0.223-0.483-0.045-0.684s0.486-0.222 0.69-0.045c0.527 0.458 0.802 1.445 0.852 1.638 0.067 0.259-0.091 0.523-0.352 0.59-0.267 0.067-0.529-0.094-0.595-0.349z">
            </path>
        </symbol>
        <symbol id="icon-howwedo1" viewBox="0 0 31 32">
            <path
                d="M28.129 4.252c0-0.001-0.001-0.001-0.001-0.002-0.006-0.013-0.012-0.027-0.021-0.039-0.001-0.001-0.002-0.002-0.002-0.003-0.008-0.013-0.018-0.025-0.029-0.036l-4.119-4.119c-0.011-0.011-0.022-0.020-0.035-0.028-0.002-0.002-0.005-0.003-0.008-0.005-0.010-0.006-0.020-0.012-0.031-0.017-0.003-0.002-0.006-0.003-0.009-0.004-0.027-0.011-0.056-0.016-0.085-0.017-0.002 0-0.003-0-0.004-0h-18.147c-0.134 0-0.243 0.109-0.243 0.244v25.123c0 0.016 0.002 0.032 0.005 0.048 0.002 0.007 0.004 0.013 0.006 0.020 0.003 0.009 0.005 0.017 0.008 0.026s0.007 0.015 0.012 0.022c0.004 0.006 0.007 0.013 0.011 0.020 0.008 0.012 0.018 0.024 0.028 0.034 0.001 0.001 0.001 0.002 0.002 0.003l1.855 1.855c0.095 0.095 0.249 0.095 0.344 0l1.684-1.683 1.683 1.683c0.047 0.048 0.11 0.071 0.172 0.071s0.124-0.024 0.172-0.071l1.683-1.683 1.684 1.683c0.095 0.095 0.249 0.095 0.344 0l1.683-1.683 1.683 1.683c0.095 0.095 0.249 0.095 0.344 0l1.684-1.683 1.683 1.683c0.047 0.048 0.11 0.071 0.172 0.071s0.125-0.024 0.172-0.071l1.683-1.683 1.684 1.683c0.095 0.095 0.249 0.095 0.344 0l1.855-1.855c0.004-0.004 0.006-0.008 0.010-0.012 0.007-0.008 0.014-0.016 0.020-0.025s0.010-0.017 0.014-0.026c0.003-0.006 0.006-0.010 0.008-0.016 0.005-0.011 0.008-0.022 0.010-0.034 0.001-0.004 0.003-0.008 0.004-0.011 0.003-0.017 0.005-0.033 0.005-0.050v-21.002c-0.001-0.032-0.007-0.064-0.020-0.093zM24.029 0.814l3.288 3.288h-3.288v-3.288zM27.661 25.248l-1.611 1.611-1.684-1.683c-0.095-0.095-0.249-0.095-0.344 0l-1.683 1.683-1.683-1.683c-0.095-0.095-0.249-0.095-0.344 0l-1.684 1.683-1.683-1.682c0-0-0-0.001-0-0.001-0.047-0.047-0.11-0.071-0.172-0.071s-0.125 0.024-0.172 0.071c-0 0-0 0-0 0l-1.683 1.683-1.684-1.683c-0.095-0.095-0.249-0.095-0.344 0l-1.683 1.683-1.683-1.683c-0.095-0.095-0.249-0.095-0.344 0l-1.684 1.683-1.612-1.611v-24.779h17.66v3.876c0 0.134 0.109 0.244 0.244 0.244h3.875l0 20.66z">
            </path>
            <path
                d="M7.697 2.772h7.974c0.134 0 0.244-0.109 0.244-0.244s-0.109-0.244-0.244-0.244h-7.974c-0.135 0-0.244 0.109-0.244 0.244s0.109 0.244 0.244 0.244z">
            </path>
            <path
                d="M7.697 4.278h12.787c0.134 0 0.244-0.109 0.244-0.244s-0.109-0.244-0.244-0.244h-12.787c-0.135 0-0.244 0.109-0.244 0.244s0.109 0.244 0.244 0.244z">
            </path>
            <path
                d="M7.454 5.63v7.885c0 0.134 0.109 0.244 0.244 0.244h18.148c0.134 0 0.243-0.109 0.243-0.244v-7.885c0-0.134-0.109-0.244-0.243-0.244h-18.148c-0.135 0-0.244 0.109-0.244 0.244zM12.836 5.873h12.766v2.096h-12.766v-2.096zM12.836 8.456h12.766v2.095h-12.766v-2.095zM12.836 11.038h12.766v2.233h-12.766v-2.233zM7.941 5.873h4.408v2.096h-4.408v-2.096zM7.941 8.456h4.408v2.095h-4.408v-2.095zM7.941 11.038h4.408v2.233h-4.408v-2.233z">
            </path>
            <path
                d="M25.845 14.854h-18.148c-0.135 0-0.244 0.109-0.244 0.244v7.884c0 0.134 0.109 0.243 0.244 0.243s0.243-0.109 0.243-0.243v-2.476h4.408v2.476c0 0.134 0.109 0.243 0.243 0.243s0.244-0.109 0.244-0.243v-2.476h12.766v2.476c0 0.134 0.109 0.243 0.244 0.243s0.243-0.109 0.243-0.243v-7.884c0.001-0.134-0.108-0.244-0.243-0.244zM12.349 20.018h-4.408v-2.094h4.408v2.094zM12.349 17.436h-4.408v-2.095h4.408v2.095zM25.601 20.018h-12.766v-2.094h12.766v2.094zM25.601 17.436h-12.766v-2.095h12.766v2.095z">
            </path>
            <path
                d="M4.241-0.018c-0.134 0-0.244 0.109-0.244 0.244v25.123c0 0.134 0.109 0.243 0.244 0.243s0.244-0.109 0.244-0.243v-25.123c0-0.134-0.109-0.244-0.244-0.244z">
            </path>
            <path
                d="M2.901-0.018c-0.134 0-0.244 0.109-0.244 0.244v25.123c0 0.134 0.109 0.243 0.244 0.243s0.243-0.109 0.243-0.243v-25.123c0-0.134-0.109-0.244-0.243-0.244z">
            </path>
        </symbol>
        <symbol id="icon-howwedo2" viewBox="0 0 33 32">
            <path
                d="M30.175-0.128h-15.746c-1.025 0-1.859 0.834-1.859 1.859v6.518l-11.698 4.91c-0.132 0.056-0.222 0.181-0.233 0.324s0.061 0.28 0.184 0.354l1.492 0.893v9.515c-0.763 0.174-1.335 0.857-1.335 1.674v0.917c0 0.21 0.171 0.381 0.381 0.381h2.671c0.21 0 0.381-0.171 0.381-0.381v-0.917c0-0.816-0.573-1.498-1.336-1.673v-9.060l1.18 0.706c-0.036 0.272-0.005-0.474-0.017 4.43 0 1.612 4.129 2.476 8.33 2.525v7.425c0 0.384 0.117 0.74 0.318 1.036 0.334 0.494 0.9 0.82 1.54 0.82h15.746c1.024 0 1.857-0.833 1.857-1.857 0 0.051-0.002-1.573 0-28.54 0-1.011-0.836-1.859-1.856-1.859zM3.652 25.918v0.536h-1.909v-0.536c0-0.528 0.427-0.957 0.952-0.957 0.528 0 0.957 0.43 0.957 0.957zM30.175 31.364h-15.746c-0.378 0-0.712-0.191-0.909-0.482-0.118-0.175-0.187-0.385-0.187-0.612v-2.574h17.935v2.575c0 0.597-0.497 1.092-1.092 1.092zM31.267 26.935h-17.935v-4.086c2.051-0.023 8.335-0.475 8.335-2.527-0.002-3.081 0.005-4.33-0.010-4.436l3.421-2.049c0.123-0.074 0.194-0.211 0.184-0.354s-0.1-0.268-0.233-0.324l-11.698-4.91v-3.182h17.935v21.868zM12.951 17.792c-2.113 0-6.182 0.273-7.949 1.427 0.011-3.53-0.122-3.3 0.312-3.6 1.098-0.809 4.238-1.373 7.637-1.373 1.482 0 7.954 0.408 7.954 1.778v3.195c-1.784-1.165-5.832-1.428-7.954-1.428zM13.333 1.731c0-0.604 0.491-1.095 1.095-1.095h15.746c0.604 0 1.093 0.498 1.093 1.095v2.574h-17.935v-2.574zM12.951 8.915l11.090 4.655-2.748 1.644c-1.461-1.449-6.294-1.73-8.342-1.73-2.051 0-6.884 0.282-8.342 1.73l-2.749-1.645 11.091-4.655zM5.002 20.321c0-0.617 2.73-1.767 7.949-1.767 5.222 0 7.954 1.151 7.954 1.767s-2.732 1.768-7.954 1.768c-5.219 0-7.949-1.151-7.949-1.768z">
            </path>
            <path
                d="M22.301 28.271c-0.695 0-1.26 0.565-1.26 1.26s0.565 1.26 1.26 1.26c0.695 0 1.26-0.565 1.26-1.26s-0.565-1.26-1.26-1.26zM22.301 30.030c-0.275 0-0.498-0.224-0.498-0.499s0.223-0.498 0.498-0.498c0.275 0 0.498 0.223 0.498 0.498s-0.223 0.499-0.498 0.499z">
            </path>
            <path d="M23.754 2.090h-2.906v0.762h2.906v-0.762z"></path>
        </symbol>
        <symbol id="icon-howwedo3" viewBox="0 0 42 32">
            <path d="M19.086 3.95h-11.691v0.875h11.691v-0.875z"></path>
            <path d="M19.086 7.213h-9.94v0.875h9.94v-0.875z"></path>
            <path d="M19.086 10.478h-11.691v0.875h11.691v-0.875z"></path>
            <path d="M19.086 13.742h-9.94v0.875h9.94v-0.875z"></path>
            <path d="M19.086 17.005h-11.691v0.875h11.691v-0.875z"></path>
            <path d="M19.086 20.27h-9.94v0.875h9.94v-0.875z"></path>
            <path d="M35.134 3.95h-11.691v0.875h11.691v-0.875z"></path>
            <path d="M33.384 7.213h-9.94v0.875h9.94v-0.875z"></path>
            <path d="M35.134 10.478h-11.691v0.875h11.691v-0.875z"></path>
            <path d="M33.384 13.742h-9.94v0.875h9.94v-0.875z"></path>
            <path d="M35.134 17.005h-11.691v0.875h11.691v-0.875z"></path>
            <path d="M33.384 20.27h-9.94v0.875h9.94v-0.875z"></path>
            <path
                d="M39.356 2.953h-1.605v-2.41c0-0.242-0.196-0.438-0.438-0.438h-13.084c-1.277 0-2.384 0.69-2.964 1.724-0.581-1.033-1.688-1.724-2.965-1.724h-13.084c-0.242 0-0.438 0.196-0.438 0.438v2.41h-1.605c-0.242 0-0.438 0.196-0.438 0.438v23.495c0 0.242 0.196 0.438 0.438 0.438 4.394 0 31.772 0 36.182 0 0.242 0 0.438-0.196 0.438-0.438v-23.495c0-0.242-0.196-0.438-0.438-0.438zM24.229 0.98h12.646c0 3.92 0 14.244 0 23.443h-13.58c-0.602 0-1.204 0.254-1.593 0.583v-21.505c0-1.397 1.119-2.521 2.527-2.521zM5.654 0.98h12.646c1.369 0 2.476 1.065 2.522 2.425 0.001 0.019 0.002 0.078 0.005 0.096v21.503c-0.388-0.328-0.984-0.581-1.587-0.581h-13.586c0-9.195 0-19.525 0-23.443zM3.611 3.829h1.167v21.032c0 0.242 0.196 0.438 0.438 0.438h14.023c0.667 0 1.312 0.438 1.518 1.149h-17.147v-22.62zM38.918 26.448h-17.146c0.208-0.715 0.846-1.149 1.524-1.149h14.018c0.242 0 0.438-0.196 0.438-0.438v-21.032h1.167v22.62z">
            </path>
        </symbol>
        <symbol id="icon-howwedo4" viewBox="0 0 33 32">
            <path
                d="M1.993 12.558v2.831c0 0.152 0.070 0.295 0.189 0.39 1.935 1.523 4.363 2.362 6.837 2.362 0.74 0 1.482-0.077 2.206-0.224 1.544 0.683 3.188 1.032 4.89 1.032 1.707 0 3.351-0.349 4.89-1.032 3.091 0.624 6.384-0.046 9.042-2.138 0.12-0.094 0.189-0.238 0.189-0.39v-2.831c0-0.416-0.206-0.794-0.575-1.027l-3.867-2.176c0.846-1.073 1.476-2.602 1.586-3.913 0.321-2.256-1.518-4.646-4.166-4.646-1.113 0-2.171 0.458-2.948 1.227-0.027 0.027-0.058 0.049-0.084 0.076-0.024 0.025-0.043 0.054-0.067 0.080-0.016 0.017-0.029 0.036-0.044 0.053-0.757-1.38-2.211-2.232-3.924-2.232-0.166 0-0.33 0.011-0.492 0.028-0.010-0.001-0.018-0.006-0.028-0.006-0.092 0-0.287 0.024-0.391 0.054-0.015 0.004-0.026 0.015-0.041 0.021-1.279 0.259-2.363 1.034-3.013 2.156-0.781-0.911-1.93-1.457-3.179-1.457-3.908 0-5.642 4.612-2.557 8.581l-3.903 2.167c-0.346 0.219-0.553 0.598-0.553 1.014zM20.996 16.828c-0.084 0.041-0.167 0.085-0.251 0.123l-0 0c-0.001 0-0.001 0.001-0.002 0.001-1.452 0.667-3.009 1.006-4.627 1.006-1.614 0-3.17-0.338-4.629-1.007-0.71-0.323-1.397-0.734-2.045-1.221v-2.87c0-0.098 0.047-0.184 0.102-0.221l4.542-2.524c0.565 0.48 1.287 0.832 2.035 0.832 0.721 0 1.499-0.357 2.052-0.843l4.487 2.52c0.083 0.053 0.13 0.139 0.13 0.237v2.87c-0.571 0.429-1.173 0.795-1.794 1.098zM29.154 12.382c0.059 0.037 0.092 0.101 0.092 0.176v2.587c-1.968 1.477-4.337 2.148-6.737 1.98 0.369-0.23 0.771-0.516 1.083-0.76 0.12-0.094 0.19-0.238 0.19-0.39v-3.114c0-0.435-0.218-0.835-0.61-1.087l-2.383-1.339 0.58-0.321c0.703 0.573 1.307 0.744 1.848 0.744 0.663 0 1.36-0.325 1.878-0.759l4.060 2.284zM23.216 1.788c1.38 0 2.593 0.902 3.021 2.142-0.833-0.099-1.647-0.51-2.237-1.142-0.107-0.114-0.258-0.173-0.415-0.155-0.155 0.016-0.293 0.105-0.373 0.239-0.566 0.948-1.493 1.58-2.548 1.76 0-0.001-0-0.002-0-0.003 0.005-0.216-0.008-0.434-0.033-0.653-0.003-0.022-0.005-0.044-0.007-0.067-0.032-0.248-0.107-0.559-0.122-0.609 0.563-0.902 1.609-1.513 2.713-1.513zM20.556 5.644c1.253-0.137 2.386-0.767 3.164-1.762 0.767 0.629 1.74 1.010 2.702 1.056-0.007 1.792-1.471 4.927-3.206 4.927-1.337 0-2.479-1.912-2.905-3.238 0.108-0.341 0.187-0.669 0.245-0.983zM20.657 9.373l-0.886 0.491-0.895-0.502c0.332-0.413 0.636-0.893 0.896-1.413 0.25 0.526 0.55 1.010 0.884 1.425zM19.32 6.465c-0.478 1.427-1.705 3.49-3.199 3.49-1.742 0-3.226-2.864-3.509-4.696 0.075-0.019 2.43 0.126 4.049-2.001 0.822 0.688 1.932 1.143 3.011 1.188 0.013 0.647-0.144 1.406-0.352 2.018zM16.15 0.992c2.78 0 3.309 2.392 3.352 2.442-1.008-0.102-1.928-0.596-2.563-1.276-0.107-0.114-0.262-0.171-0.416-0.154-0.155 0.017-0.293 0.106-0.373 0.241-0.551 0.932-1.414 1.589-2.414 1.868-0.386 0.108-0.803 0.157-1.166 0.154 0.136-1.822 1.596-3.274 3.58-3.274zM12.461 7.938c0.257 0.515 0.563 1.006 0.913 1.438l-0.875 0.487-0.907-0.51c0.344-0.438 0.636-0.929 0.87-1.415zM9.006 1.788c1.125 0 2.155 0.571 2.729 1.514-0.029 0.1-0.106 0.498-0.117 0.548-0.69-0.165-1.324-0.533-1.821-1.062-0.107-0.114-0.258-0.17-0.416-0.154-0.155 0.017-0.293 0.106-0.372 0.24-0.663 1.119-1.881 1.815-3.177 1.815 0.158-1.627 1.518-2.9 3.174-2.9zM5.876 5.678c1.425-0.014 2.77-0.686 3.643-1.796 0.596 0.491 1.304 0.813 2.055 0.961 0.029 0.575 0.179 1.273 0.35 1.789-0.274 0.84-0.799 1.841-1.451 2.505-0.004 0.004-0.010 0.006-0.014 0.010-0.408 0.43-0.988 0.719-1.444 0.719-1.594 0-2.841-2.508-3.14-4.188zM2.985 12.558c0-0.075 0.033-0.139 0.067-0.162l4.116-2.284c0.247 0.206 0.304 0.229 0.353 0.265l-0 0c0.484 0.322 0.928 0.482 1.534 0.482 0.645 0 1.232-0.273 1.749-0.694 0.029-0.023 0.060-0.045 0.088-0.068l0.587 0.33-2.446 1.361c-0.366 0.236-0.584 0.636-0.584 1.071v3.114c0 0.152 0.070 0.296 0.19 0.39 0.317 0.249 0.727 0.539 1.083 0.761-2.434 0.166-4.803-0.528-6.737-1.98v-2.587z">
            </path>
            <path
                d="M31.259 20.781c-0.61-0.383-1.361-0.423-2.007-0.11l-6.119 2.956c-0.021-1.145-0.956-2.072-2.107-2.072l-3.509 0.001c-1.73-1.504-3.941-2.425-5.952-2.473-1.983-0.047-3.763-0.060-4.593-0.064v-1.002h-6.972v11.517h6.972v-1.379c1.912 1.097 6.939 3.845 9.325 3.845 0.054 0 0.107-0.001 0.158-0.004 4.196-0.235 14.091-7.198 14.743-7.661 0.638-0.37 1.034-1.056 1.034-1.796 0-0.719-0.364-1.376-0.973-1.758zM5.98 28.542h-4.988v-9.533h4.988v9.533zM30.687 23.484c-0.015 0.008-0.030 0.017-0.044 0.028-0.102 0.073-10.281 7.271-14.244 7.494-0.039 0.002-0.079 0.003-0.121 0.003-2.092 0-7.194-2.753-9.307-4.001v-6.997c0.827 0.004 2.597 0.017 4.569 0.064 1.837 0.044 3.876 0.921 5.456 2.346l0.141 0.128 3.887-0.001c0.617 0 1.119 0.502 1.119 1.119s-0.502 1.119-1.119 1.119h-7.142v0.992h7.142c0.684 0 1.288-0.333 1.674-0.839l6.984-3.373c0.343-0.167 0.725-0.146 1.049 0.057s0.508 0.537 0.508 0.918c0 0.391-0.212 0.753-0.553 0.945z">
            </path>
            <path d="M16.612 12.158h-0.992v0.92h0.992v-0.92z"></path>
            <path d="M16.612 13.992h-0.992v0.92h0.992v-0.92z"></path>
            <path d="M16.612 15.826h-0.992v0.92h0.992v-0.92z"></path>
        </symbol>
        <symbol id="icon-howwedo5" viewBox="0 0 27 32">
            <path
                d="M-0.105 31.754c3.514 0 23.845 0 27.355 0 0.136-3.12-0.088-8.295-2.006-10.759l-0.069-0.088-4.191-2.104c0.091-0.307 0.136-0.588 0.154-0.795 0.021-0.248-0.013-0.481-0.102-0.692-0.691-1.655-2.155-2.525-2.959-2.896 0.245-0.494 0.403-1.025 0.48-1.567 0.456-0.128 0.822-0.489 0.942-0.971l0.489-1.987c0.087-0.351 0.032-0.714-0.154-1.023-0.080-0.133-0.184-0.246-0.3-0.341 1.379-3.133-0.931-6.087-1.057-6.243-2.502-2.705-5.662-2.199-5.829-2.169-4.561 0.955-6.321 4.451-5.328 8.55-0.294 0.326-0.418 0.78-0.309 1.226l0.492 1.99c0.119 0.478 0.483 0.838 0.935 0.968 0.14 0.993 0.56 1.89 1.177 2.614v1.576c-6.545 3.352-2.398 1.213-7.643 3.867-0.010 0.049-2.461 2.654-2.097 10.375l0.022 0.472zM26.299 30.763h-4.502v-1.891l2.978-6.817c1.492 2.476 1.547 7.203 1.524 8.708zM20.155 17.923c-0.174 1.996-1.268 1.393-1.944 2.93-0.531-0.584-0.691-1.285-0.548-2.035 0.258-1.377-0.583-1.786-0.375-3.233l0.031-0.033v-0.005c0.018-0.020 0.184-0.217 0.232-0.28 1.781 0.776 2.639 2.221 2.604 2.656zM10.6 16.354c0.827 0.573 1.825 0.912 2.899 0.912 1.011 0 1.971-0.294 2.795-0.836 0.114 1.138 0.559 1.365 0.401 2.203-0.030 0.155-0.046 0.308-0.055 0.459l-3.066 3.456-3.919-4.419 0.946-0.494v-1.281zM9.367 12.125v-1.916c0-0.706 0-3.504 0-3.366 0.477-0.883 1.128-1.522 1.936-1.906 2.165 1.225 4.657 3.053 6.329 4.893-0.002 2.343 0.007 2.35-0.009 2.542l-0.001 0.012c-0.13 2.128-1.88 3.892-4.124 3.892-2.181 0-3.992-1.713-4.123-3.913-0.007-0.079-0.008-0.158-0.008-0.238zM8.756 18.607l4.816 5.43 3.234-3.644c0.074 0.213 0.178 0.414 0.296 0.608l-3.53 4.414-5.264-6.583 0.447-0.224zM18.618 11.329v-1.53c0.043-0.050 0.411-0.471 0.368-0.421 0.020 0.775 0.104-0.14-0.368 1.951zM12.829 1.090c0.196 0.012 2.824-0.4 4.901 1.843 0.082 0.103 1.773 2.281 1.093 4.665-0.233-1.061-0.638-2.42-1.278-3.068l-0.7 0.697c0.632 0.641 1.048 2.591 1.206 3.602-2.901-3.035-6.643-4.957-6.694-4.989-0.188 0.117-1.771 0.418-2.921 2.653l-0.055 0.107v1.642c-0.049 0.001-0.194 0.002-0.145 0.002-0.731-3.528 0.669-6.33 4.593-7.153zM8.132 9.262l0.249 1.008v1.060l-0.414-1.674c-0.061-0.25 0.124-0.344 0.165-0.394zM7.407 19.285l6.166 7.712 4.172-5.218c0.454 0.406 0.672 0.464 1.634 0.959l-0.325-1.101c-0.082-0.279 0.244-0.728 0.441-0.934 0.44-0.238 0.806-0.578 1.080-0.998l3.404 1.709-3.167 7.251v2.099h-14.477v-2.099l-3.169-7.25 4.242-2.129zM2.37 22.058l2.978 6.815v1.891h-4.502c-0.023-1.504 0.033-6.229 1.524-8.706z">
            </path>
        </symbol>
        <symbol id="icon-howwedo6" viewBox="0 0 37 32">
            <path
                d="M2.381 29.453h12.23c0.62 1.285 1.917 2.116 3.38 2.116h0.772c1.465 0 2.761-0.83 3.381-2.116h12.237c1.26 0 2.286-1.025 2.286-2.286v-21.905c0-1.26-1.025-2.286-2.286-2.286h-1.234v-1.021c0-0.84-0.684-1.524-1.524-1.524h-26.491c-0.84 0-1.524 0.683-1.524 1.524v1.021h-1.227c-1.26 0-2.286 1.025-2.286 2.286v21.905c0 1.26 1.025 2.286 2.286 2.286zM31.621 24.752h-12.478v-17.705c2.884 0.377 5.121 2.845 5.121 5.831v0.687l-0.181-0.040c-0.196-0.042-0.403-0.007-0.574 0.102s-0.291 0.281-0.334 0.478l-1.213 5.519c-0.090 0.41 0.17 0.816 0.58 0.907l2.621 0.578c0.135 0.029 0.273 0.043 0.411 0.043 0.922 0 1.707-0.631 1.908-1.535l0.702-3.192c0.231-1.048-0.433-2.090-1.484-2.324l-0.912-0.201v-1.023c0-3.827-2.917-6.986-6.644-7.37v-3.551h12.48l-0.001 22.796zM24.499 15.177l1.871 0.412c0.234 0.052 0.376 0.275 0.325 0.508l-0.702 3.191c-0.051 0.231-0.306 0.374-0.507 0.331l-1.874-0.413 0.886-4.030zM5.132 1.956h12.487v3.55c-3.731 0.381-6.652 3.541-6.652 7.371v1.022l-0.914 0.202c-0.509 0.113-0.943 0.416-1.222 0.854-0.28 0.439-0.373 0.961-0.26 1.468l0.7 3.188c0.19 0.892 0.993 1.54 1.909 1.54 0.138 0 0.275-0.015 0.416-0.045l2.61-0.577c0.41-0.091 0.67-0.496 0.58-0.907l-1.213-5.519c-0.043-0.198-0.164-0.37-0.334-0.478s-0.378-0.144-0.574-0.102l-0.174 0.038v-0.686c0-2.988 2.24-5.458 5.128-5.832v17.706h-12.487v-22.796zM12.249 15.177l0.887 4.029-1.863 0.411c-0.229 0.052-0.463-0.1-0.512-0.328l-0.702-3.196c-0.025-0.111-0.005-0.224 0.055-0.319 0.061-0.096 0.157-0.162 0.268-0.187l1.867-0.412zM1.619 5.262c0-0.42 0.341-0.762 0.762-0.762h1.227v20.252c0 0.84 0.684 1.524 1.524 1.524h26.491c0.84 0 1.524-0.683 1.524-1.524v-20.252h1.234c0.42 0 0.762 0.342 0.762 0.762v21.905c0 0.42-0.342 0.762-0.762 0.762h-12.754c-0.335 0-0.63 0.218-0.728 0.538-0.289 0.943-1.147 1.577-2.135 1.577h-0.772c-0.984 0-1.841-0.631-2.138-1.586-0.101-0.315-0.394-0.529-0.725-0.529h-12.747c-0.42 0-0.762-0.342-0.762-0.762v-21.905z">
            </path>
        </symbol>
        <symbol id="icon-menu" viewBox="0 0 48 32">
            <path fill="#ff6b09" stroke-linejoin="miter" stroke-linecap="butt" stroke-miterlimit="4" stroke-width="4.5714"
                d="M0 2.286h46.857"></path>
            <path fill="#ff6b09" stroke-linejoin="miter" stroke-linecap="butt" stroke-miterlimit="4" stroke-width="4.5714"
                d="M0 16h46.857"></path>
            <path fill="#ff6b09" stroke-linejoin="miter" stroke-linecap="butt" stroke-miterlimit="4" stroke-width="4.5714"
                d="M0 29.714h46.857"></path>
        </symbol>
        <symbol id="icon-phone" viewBox="0 0 33 32">
            <path fill="#ff6b09" style="fill: var(--color1, #ff6b09)"
                d="M4.817 0.003c-0.533 0.025-1.056 0.252-1.44 0.674l-2.684 2.95c0.004-0.009-0.010-0.007-0.087 0.1-0.041 0.055-0.072 0.117-0.093 0.182-1.092 3.48-0.36 7.308 1.424 10.949s4.63 7.125 7.897 9.984c3.267 2.859 6.953 5.096 10.468 6.205s6.922 1.095 9.448-0.737c0.027-0.020 0.053-0.043 0.077-0.067 0.066-0.066 0.068-0.075 0.058-0.065l0.010-0.013 2.671-2.938c0.768-0.844 0.706-2.17-0.138-2.938l-6.337-5.763c-0.844-0.768-2.17-0.706-2.938 0.137l-2.867 3.153c-2.327-0.674-4.317-1.816-6.231-3.557s-3.24-3.615-4.131-5.869l2.866-3.153c0.768-0.844 0.706-2.17-0.137-2.938l-6.337-5.763c-0.422-0.384-0.965-0.561-1.498-0.535l-0.001 0zM4.878 1.296c0.196-0.009 0.396 0.059 0.559 0.208l6.337 5.763c0.326 0.297 0.349 0.771 0.052 1.097l-3.169 3.482c-0.080 0.088-0.134 0.196-0.156 0.313s-0.013 0.237 0.027 0.348c0.962 2.624 2.513 4.777 4.648 6.719s4.423 3.283 7.126 3.992c0.115 0.030 0.236 0.028 0.35-0.006s0.217-0.098 0.297-0.186l3.169-3.483c0.297-0.326 0.77-0.348 1.096-0.051l6.338 5.763c0.326 0.297 0.348 0.77 0.051 1.096l-2.649 2.912c-2.072 1.488-4.992 1.571-8.262 0.539-3.282-1.036-6.846-3.182-9.999-5.942s-5.898-6.131-7.585-9.573c-1.67-3.407-2.275-6.852-1.357-9.888l2.588-2.844c0.148-0.163 0.342-0.251 0.538-0.26l0 0z">
            </path>
        </symbol>

        <symbol id="logo" viewBox="0 0 128 45">
            <path
                d="M19.136 6.8V25H13.988V17.902H6.968V25H1.82V6.8H6.968V13.638H13.988V6.8H19.136ZM37.9773 17.98C37.9773 18.0147 37.9513 18.422 37.8993 19.202H27.6553C27.8633 19.93 28.2619 20.4933 28.8513 20.892C29.4579 21.2733 30.2119 21.464 31.1133 21.464C31.7893 21.464 32.3699 21.3687 32.8553 21.178C33.3579 20.9873 33.8606 20.6753 34.3633 20.242L36.9633 22.946C35.5939 24.4713 33.5919 25.234 30.9573 25.234C29.3106 25.234 27.8633 24.922 26.6153 24.298C25.3673 23.674 24.3966 22.8073 23.7033 21.698C23.0273 20.5887 22.6893 19.332 22.6893 17.928C22.6893 16.5413 23.0186 15.302 23.6773 14.21C24.3533 13.1007 25.2806 12.234 26.4593 11.61C27.6379 10.986 28.9639 10.674 30.4373 10.674C31.8413 10.674 33.1153 10.9687 34.2593 11.558C35.4033 12.13 36.3046 12.9707 36.9633 14.08C37.6393 15.172 37.9773 16.472 37.9773 17.98ZM30.4633 14.184C29.7006 14.184 29.0593 14.4007 28.5393 14.834C28.0366 15.2673 27.7159 15.8567 27.5773 16.602H33.3493C33.2106 15.8567 32.8813 15.2673 32.3613 14.834C31.8586 14.4007 31.2259 14.184 30.4633 14.184ZM41.2949 5.708H46.2349V25H41.2949V5.708ZM50.4853 5.708H55.4253V25H50.4853V5.708Z"
                fill="var(--color1, #111518)" />
            <path   
                d="M6.488 41.8H3.888L3.392 43H2.064L4.56 37.4H5.84L8.344 43H6.984L6.488 41.8ZM6.08 40.816L5.192 38.672L4.304 40.816H6.08ZM16.3495 41.944V44.16H15.1495V43H11.1975V44.16H9.9975L10.0055 41.944H10.2295C10.5655 41.9333 10.8028 41.688 10.9415 41.208C11.0802 40.728 11.1655 40.0427 11.1975 39.152L11.2615 37.4H15.5655V41.944H16.3495ZM12.3415 39.272C12.3148 39.9387 12.2588 40.4987 12.1735 40.952C12.0882 41.4 11.9575 41.7307 11.7815 41.944H14.2855V38.456H12.3655L12.3415 39.272ZM21.3099 43.096C20.7393 43.096 20.2219 42.9733 19.7579 42.728C19.2993 42.4773 18.9366 42.1333 18.6699 41.696C18.4086 41.2533 18.2779 40.7547 18.2779 40.2C18.2779 39.6453 18.4086 39.1493 18.6699 38.712C18.9366 38.2693 19.2993 37.9253 19.7579 37.68C20.2219 37.4293 20.7419 37.304 21.3179 37.304C21.8033 37.304 22.2406 37.3893 22.6299 37.56C23.0246 37.7307 23.3553 37.976 23.6219 38.296L22.7899 39.064C22.4113 38.6267 21.9419 38.408 21.3819 38.408C21.0353 38.408 20.7259 38.4853 20.4539 38.64C20.1819 38.7893 19.9686 39 19.8139 39.272C19.6646 39.544 19.5899 39.8533 19.5899 40.2C19.5899 40.5467 19.6646 40.856 19.8139 41.128C19.9686 41.4 20.1819 41.6133 20.4539 41.768C20.7259 41.9173 21.0353 41.992 21.3819 41.992C21.9419 41.992 22.4113 41.7707 22.7899 41.328L23.6219 42.096C23.3553 42.4213 23.0246 42.6693 22.6299 42.84C22.2353 43.0107 21.7953 43.096 21.3099 43.096ZM28.0746 40.744H27.1786V43H25.8906V37.4H27.1786V39.664H28.1066L29.5786 37.4H30.9466L29.1146 40.104L31.0026 43H29.5306L28.0746 40.744ZM33.0498 37.4H34.3378V41.048L37.0098 37.4H38.2258V43H36.9458V39.36L34.2738 43H33.0498V37.4ZM41.0601 37.4H42.3481V41.048L45.0201 37.4H46.2361V43H44.9561V39.36L42.2841 43H41.0601V37.4ZM43.6441 37.04C42.6201 37.04 42.1027 36.632 42.0921 35.816H42.9801C42.9907 36.2053 43.2121 36.4 43.6441 36.4C43.8574 36.4 44.0201 36.352 44.1321 36.256C44.2441 36.1547 44.3027 36.008 44.3081 35.816H45.1961C45.1907 36.216 45.0601 36.52 44.8041 36.728C44.5481 36.936 44.1614 37.04 43.6441 37.04Z"
                fill="#FF6B09" />
            <path
                d="M56.568 41.8H53.968L53.472 43H52.144L54.64 37.4H55.92L58.424 43H57.064L56.568 41.8ZM56.16 40.816L55.272 38.672L54.384 40.816H56.16ZM65.7426 37.4V43H64.4466V40.704H61.9026V43H60.6066V37.4H61.9026V39.608H64.4466V37.4H65.7426ZM72.5297 38.456H69.8657L69.8737 43H68.5857V37.4H72.5377L72.5297 38.456ZM79.0646 37.4V43H77.7846V38.456H75.8646L75.8246 39.624C75.7979 40.4187 75.7339 41.064 75.6326 41.56C75.5312 42.0507 75.3606 42.4293 75.1206 42.696C74.8859 42.9573 74.5552 43.088 74.1286 43.088C73.9526 43.088 73.7392 43.0587 73.4886 43L73.5686 41.904C73.6379 41.9253 73.7152 41.936 73.8006 41.936C74.1099 41.936 74.3259 41.7547 74.4486 41.392C74.5712 41.024 74.6486 40.4507 74.6806 39.672L74.7606 37.4H79.0646ZM81.9032 37.4H83.1912V41.048L85.8632 37.4H87.0792V43H85.7992V39.36L83.1272 43H81.9032V37.4ZM89.9135 37.4H91.2015V41.048L93.8735 37.4H95.0895V43H93.8095V39.36L91.1375 43H89.9135V37.4ZM92.4975 37.04C91.4735 37.04 90.9562 36.632 90.9455 35.816H91.8335C91.8442 36.2053 92.0655 36.4 92.4975 36.4C92.7108 36.4 92.8735 36.352 92.9855 36.256C93.0975 36.1547 93.1562 36.008 93.1615 35.816H94.0495C94.0442 36.216 93.9135 36.52 93.6575 36.728C93.4015 36.936 93.0148 37.04 92.4975 37.04ZM100.572 43.096C100.001 43.096 99.4838 42.9733 99.0198 42.728C98.5611 42.4773 98.1985 42.1333 97.9318 41.696C97.6705 41.2533 97.5398 40.7547 97.5398 40.2C97.5398 39.6453 97.6705 39.1493 97.9318 38.712C98.1985 38.2693 98.5611 37.9253 99.0198 37.68C99.4838 37.4293 100.004 37.304 100.58 37.304C101.065 37.304 101.502 37.3893 101.892 37.56C102.286 37.7307 102.617 37.976 102.884 38.296L102.052 39.064C101.673 38.6267 101.204 38.408 100.644 38.408C100.297 38.408 99.9878 38.4853 99.7158 38.64C99.4438 38.7893 99.2305 39 99.0758 39.272C98.9265 39.544 98.8518 39.8533 98.8518 40.2C98.8518 40.5467 98.9265 40.856 99.0758 41.128C99.2305 41.4 99.4438 41.6133 99.7158 41.768C99.9878 41.9173 100.297 41.992 100.644 41.992C101.204 41.992 101.673 41.7707 102.052 41.328L102.884 42.096C102.617 42.4213 102.286 42.6693 101.892 42.84C101.497 43.0107 101.057 43.096 100.572 43.096ZM107.337 40.744H106.441V43H105.153V37.4H106.441V39.664H107.369L108.841 37.4H110.209L108.377 40.104L110.265 43H108.793L107.337 40.744ZM112.312 37.4H113.6V41.048L116.272 37.4H117.488V43H116.208V39.36L113.536 43H112.312V37.4ZM120.322 37.4H121.61V41.048L124.282 37.4H125.498V43H124.218V39.36L121.546 43H120.322V37.4ZM122.906 37.04C121.882 37.04 121.365 36.632 121.354 35.816H122.242C122.253 36.2053 122.474 36.4 122.906 36.4C123.119 36.4 123.282 36.352 123.394 36.256C123.506 36.1547 123.565 36.008 123.57 35.816H124.458C124.453 36.216 124.322 36.52 124.066 36.728C123.81 36.936 123.423 37.04 122.906 37.04Z"
                fill="var(--color1, #111518)" />
            <path
                d="M104.432 21.022V25H89.82V6.8H104.094V10.778H94.916V13.846H103.002V17.694H94.916V21.022H104.432ZM125.645 6.8V25H121.407L113.373 15.302V25H108.329V6.8H112.567L120.601 16.498V6.8H125.645Z"
                fill="var(--color1, #111518)" />
            <path
                d="M82.5392 15.5558C82.2734 14.9604 81.9067 14.374 81.3705 13.6967C80.0184 11.9967 79.6059 8.20581 79.6013 8.16945C79.583 7.98763 79.4547 7.83763 79.2851 7.78309C79.1109 7.72854 78.923 7.77854 78.7992 7.9149C77.1859 9.71945 77.8642 12.5058 78.2309 13.6194C78.3317 13.924 78.4417 14.2831 78.5196 14.6467C79.1154 17.5876 77.965 18.9194 77.6946 19.1876C77.4334 19.2604 77.2546 19.224 77.0896 19.0467C76.5213 18.424 76.3334 16.3831 76.5992 13.724C76.6542 13.1831 76.6404 12.6967 76.5625 12.2422C76.0019 8.97386 73.9463 6.8774 73.4229 6.14218C71.9838 4.0149 71.8371 0.473994 71.8325 0.442176C71.8279 0.273994 71.7317 0.123994 71.5804 0.0512668C71.4338 -0.0214604 71.255 -0.0123695 71.1175 0.083085C68.7159 1.7149 68.9221 5.64672 69.2567 7.84218C69.3346 8.35127 69.4859 8.86945 69.7471 9.524C70.6775 11.8649 69.5638 14.8876 69.5546 14.9149C69.5454 14.9422 69.5363 14.9649 69.5317 14.9922C69.3896 15.7376 69.1513 16.1831 68.8854 16.1831C68.8579 16.1831 68.8304 16.1785 68.7984 16.1694C68.4729 16.1013 68.3034 15.7558 68.2988 15.4558C68.2804 11.5785 64.3892 10.274 64.3479 10.2604C64.1738 10.2058 63.9813 10.2558 63.8621 10.3967C63.7384 10.5376 63.7154 10.7331 63.7979 10.8967C63.8438 10.9922 63.9904 11.4104 63.8896 12.8876C63.8025 14.2149 63.5596 15.5285 63.17 16.7876C62.2442 19.8058 62.3909 22.6649 62.4 22.8013C63.112 30.5425 74.2451 31.899 80.8525 27.5376C81.5767 27.0604 82.1679 26.5149 82.6034 25.9149C85.0417 22.5513 83.6072 17.9831 82.5392 15.5558ZM65.6038 22.9513C65.6176 23.2013 65.4251 23.4149 65.173 23.4285H65.1455C64.9026 23.4285 64.7009 23.2422 64.6872 23.0013C64.6459 22.3376 64.6551 21.6422 64.7055 20.8876C64.7238 20.6376 64.9438 20.4513 65.1959 20.4649C65.448 20.483 65.6405 20.7012 65.6222 20.9512C65.5717 21.6695 65.5626 22.324 65.6038 22.9513ZM65.8284 18.924C65.8009 19.1558 65.6038 19.324 65.3746 19.324C65.3563 19.324 65.3379 19.324 65.315 19.3195C65.0675 19.2876 64.8888 19.0649 64.9163 18.8149L65.1363 17.0604C65.1684 16.8149 65.3929 16.6376 65.6496 16.6649C65.9017 16.6967 66.0804 16.924 66.0484 17.174L65.8284 18.924Z"
                fill="#FF6B09" />
            <path
                d="M79.4384 6.21861C79.1884 6.1802 79.017 5.94851 79.0555 5.70061C79.0841 5.51592 79.2497 4.57047 79.6991 4.09506C79.8721 3.91174 80.1617 3.9022 80.347 4.07442C80.5316 4.24597 80.541 4.53365 80.3678 4.71697C80.1776 4.91829 80.0156 5.49442 79.9614 5.83915C79.9228 6.08442 79.6921 6.25656 79.4384 6.21861Z"
                fill="#FF6B09" />
            <path
                d="M62.7294 8.48281C62.6417 8.14476 62.4237 7.58726 62.2145 7.40526C62.024 7.23967 62.005 6.95249 62.1719 6.76385C62.3384 6.57476 62.6278 6.55544 62.8187 6.72167C63.3126 7.15113 63.5706 8.07599 63.6174 8.25685C63.6801 8.4999 63.5324 8.74713 63.2875 8.80972C63.0373 8.87213 62.7918 8.72181 62.7294 8.48281Z"
                fill="#FF6B09" />
        </symbol>

        <symbol id="icon-vk" viewBox="0 0 30 30">
            <g clip-path="url(#clip0)">
                <path
                    d="M25.8193 17.3062C26.8144 18.2778 27.8647 19.1919 28.7573 20.2614C29.1516 20.7367 29.5248 21.2272 29.8104 21.7788C30.215 22.5629 29.8485 23.4257 29.1455 23.4725L24.775 23.4705C23.6477 23.5641 22.7485 23.1103 21.9924 22.3396C21.3873 21.7232 20.8269 21.0673 20.2451 20.4301C20.0065 20.1697 19.7569 19.9247 19.4586 19.731C18.862 19.3437 18.3441 19.4623 18.0032 20.0845C17.6559 20.7175 17.5771 21.4182 17.543 22.1236C17.4962 23.1527 17.1851 23.4233 16.1514 23.4704C13.9421 23.5746 11.8454 23.2404 9.89753 22.1259C8.18026 21.1434 6.84866 19.7563 5.68956 18.186C3.43294 15.1284 1.70472 11.7686 0.151512 8.31457C-0.198116 7.53639 0.0575866 7.11867 0.91622 7.10385C2.34198 7.07613 3.76757 7.07813 5.19503 7.10186C5.77452 7.11035 6.15813 7.4427 6.3819 7.99014C7.15329 9.88688 8.09718 11.6914 9.28194 13.3641C9.59747 13.8094 9.91921 14.2548 10.3773 14.5682C10.8841 14.9153 11.27 14.8003 11.5084 14.2356C11.6597 13.8776 11.726 13.492 11.7601 13.1087C11.8731 11.7895 11.888 10.4726 11.6899 9.15814C11.5682 8.33777 11.1061 7.80668 10.2875 7.65147C9.86982 7.57231 9.93198 7.41686 10.1342 7.17844C10.4855 6.76723 10.8159 6.51123 11.4746 6.51123H16.4139C17.1915 6.66469 17.3642 7.01402 17.4707 7.79643L17.4749 13.283C17.4664 13.5858 17.6262 14.4847 18.1717 14.6852C18.6084 14.8279 18.8962 14.4786 19.1582 14.2017C20.3408 12.9466 21.1849 11.4632 21.9389 9.92725C22.2735 9.25184 22.5613 8.55047 22.8401 7.84963C23.0467 7.32961 23.3709 7.07373 23.9567 7.08504L28.7105 7.08926C28.8515 7.08926 28.9941 7.09131 29.1306 7.11469C29.9317 7.25121 30.1512 7.5958 29.9038 8.37803C29.514 9.60527 28.7555 10.628 28.0138 11.6555C27.2211 12.7524 26.3732 13.8118 25.587 14.9153C24.8647 15.9231 24.922 16.431 25.8193 17.3062Z"
                    fill="#436EAB" />
            </g>
            <defs>
                <clipPath id="clip0">
                    <rect width="30" height="30" fill="white" />
                </clipPath>
            </defs>
        </symbol>

        <symbol id="icon-instagram" viewBox="0 0 40 40">
            <g clip-path="url(#clip0)">
                <path
                    d="M39.3152 7.15454C38.9511 3.74329 36.257 1.04858 32.8455 0.684814C24.2902 -0.228271 15.7098 -0.228271 7.15485 0.684814C3.74329 1.04889 1.04889 3.74329 0.684814 7.15454C-0.228271 15.7095 -0.228271 24.2902 0.684814 32.8452C1.04889 36.2567 3.74329 38.9511 7.15454 39.3152C15.7095 40.2283 24.2902 40.2283 32.8455 39.3152C36.257 38.9511 38.9511 36.2567 39.3152 32.8452C40.2283 24.2902 40.2283 15.7098 39.3152 7.15454Z"
                    fill="url(#paint0_radial)" />
                <path
                    d="M37.1394 8.60117C36.8165 5.57413 34.4258 3.18307 31.3984 2.85989C23.8069 2.04996 16.1927 2.04996 8.60117 2.85989C5.57413 3.18307 3.18307 5.57413 2.85989 8.60117C2.04996 16.1927 2.04996 23.8069 2.85989 31.3981C3.18307 34.4254 5.57413 36.8165 8.60117 37.1394C16.1927 37.9496 23.8069 37.9496 31.3981 37.1394C34.4254 36.8165 36.8165 34.4254 37.1394 31.3981C37.9496 23.8069 37.9496 16.1927 37.1394 8.60117Z"
                    fill="url(#paint1_linear)" />
                <path
                    d="M0.599609 32.0161C0.627075 32.2926 0.655457 32.5691 0.685059 32.8456C1.04913 36.2568 3.74353 38.9512 7.15509 39.3153C15.7101 40.2284 24.2907 40.2284 32.8457 39.3153C36.2573 38.9512 38.9514 36.2568 39.3154 32.8456C39.345 32.5691 39.3734 32.2926 39.4012 32.0161H0.599609Z"
                    fill="url(#paint2_linear)" />
                <path
                    d="M39.315 32.8453C39.8057 28.2484 40.0322 23.6442 39.9955 19.0407L30.8525 9.89759C29.7102 8.59357 28.0418 7.77967 26.0814 7.70917C22.0497 7.56391 18.0052 7.57123 13.9729 7.70978C10.6239 7.82514 8.28198 10.0761 7.6814 13.3845C7.5755 13.9686 7.51202 14.5604 7.42871 15.1487V24.8478C7.47479 25.1622 7.54254 25.475 7.5636 25.7911C7.69788 27.8035 8.5249 29.5271 9.84906 30.6932L19.1533 39.9971C23.7193 40.0291 28.2856 39.8021 32.8453 39.3153C36.2568 38.9512 38.9509 36.2568 39.315 32.8453Z"
                    fill="url(#paint3_linear)" />
                <path
                    d="M39.3154 32.8457C38.9516 36.2567 36.2566 38.9517 32.8456 39.3154C28.2866 39.8019 23.7194 40.0292 19.1539 39.9972L9.86377 30.707C10.9407 31.6497 12.3445 32.2238 13.9736 32.2851C18.0049 32.4365 22.0504 32.4325 26.0817 32.2872C29.728 32.1554 32.3665 29.4567 32.4803 25.8105C32.6018 21.939 32.6018 18.0575 32.4803 14.186C32.4285 12.5039 31.838 11.0238 30.8589 9.90381L39.9962 19.0411C40.0322 23.644 39.8058 28.2488 39.3154 32.8457Z"
                    fill="url(#paint4_linear)" />
                <path
                    d="M24.72 15.6688C23.5487 14.3934 21.8681 13.5933 20.0001 13.5933C16.4619 13.5933 13.5933 16.4619 13.5933 20.0001C13.5933 21.8681 14.3934 23.5487 15.6688 24.72L30.4921 39.5433C31.2767 39.4749 32.0613 39.3989 32.8453 39.3153C36.2568 38.9512 38.9512 36.2568 39.3153 32.8453C39.3989 32.0613 39.4749 31.2767 39.5433 30.4921L24.72 15.6688Z"
                    fill="url(#paint5_linear)" />
                <path
                    d="M39.9227 24.3089L27.9927 12.3793C27.7144 12.014 27.2759 11.7769 26.7812 11.7769C25.9395 11.7769 25.2568 12.4592 25.2568 13.3012C25.2568 13.7959 25.494 14.2344 25.8593 14.5128L39.7094 28.3632C39.8033 27.0121 39.8745 25.6605 39.9227 24.3089Z"
                    fill="url(#paint6_linear)" />
                <path
                    d="M7.42871 15.1487C7.51202 14.5604 7.5755 13.9686 7.6814 13.3845C8.28168 10.0761 10.6239 7.82514 13.9729 7.70978C18.0052 7.57123 22.0497 7.56391 26.0814 7.70917C29.7264 7.8404 32.3661 10.5394 32.48 14.1856C32.6011 18.0574 32.6011 21.9386 32.48 25.8104C32.3661 29.4566 29.7273 32.1553 26.0817 32.2868C22.05 32.4324 18.0046 32.436 13.9732 32.2847C10.3276 32.1476 7.80743 29.4426 7.5636 25.7908C7.54254 25.475 7.47479 25.1619 7.42871 24.8475C7.42871 21.6145 7.42871 18.3815 7.42871 15.1487ZM20.0032 30.1259C21.8483 30.1259 23.6952 30.1811 25.5378 30.113C28.4269 30.0059 30.204 28.2817 30.2714 25.3953C30.355 21.7988 30.355 18.1975 30.2714 14.6007C30.204 11.7149 28.4257 9.95038 25.5378 9.88904C21.8724 9.81153 18.2029 9.81214 14.5375 9.88904C11.6716 9.94916 9.88934 11.678 9.81152 14.532C9.71265 18.174 9.71265 21.8223 9.81152 25.4643C9.88934 28.318 11.6716 30.0068 14.5378 30.113C16.3572 30.1808 18.1813 30.1259 20.0032 30.1259Z"
                    fill="url(#paint7_linear)" />
                <path
                    d="M7.42871 15.1487C7.51202 14.5604 7.5755 13.9686 7.6814 13.3845C8.28168 10.0761 10.6239 7.82514 13.9729 7.70978C18.0052 7.57123 22.0497 7.56391 26.0814 7.70917C29.7264 7.8404 32.3661 10.5394 32.48 14.1856C32.6011 18.0574 32.6011 21.9386 32.48 25.8104C32.3661 29.4566 29.7273 32.1553 26.0817 32.2868C22.05 32.4324 18.0046 32.436 13.9732 32.2847C10.3276 32.1476 7.80743 29.4426 7.5636 25.7908C7.54254 25.475 7.47479 25.1619 7.42871 24.8475C7.42871 21.6145 7.42871 18.3815 7.42871 15.1487ZM20.0032 30.1259C21.8483 30.1259 23.6952 30.1811 25.5378 30.113C28.4269 30.0059 30.204 28.2817 30.2714 25.3953C30.355 21.7988 30.355 18.1975 30.2714 14.6007C30.204 11.7149 28.4257 9.95038 25.5378 9.88904C21.8724 9.81153 18.2029 9.81214 14.5375 9.88904C11.6716 9.94916 9.88934 11.678 9.81152 14.532C9.71265 18.174 9.71265 21.8223 9.81152 25.4643C9.88934 28.318 11.6716 30.0068 14.5378 30.113C16.3572 30.1808 18.1813 30.1259 20.0032 30.1259Z"
                    fill="white" />
                <path
                    d="M19.9996 13.5933C16.4614 13.5933 13.5928 16.4616 13.5928 19.9998C13.5928 23.5383 16.4614 26.4067 19.9996 26.4067C23.5381 26.4067 26.4065 23.5383 26.4065 19.9998C26.4065 16.4616 23.5381 13.5933 19.9996 13.5933ZM19.9996 24.2009C17.6794 24.2009 15.7986 22.3201 15.7986 19.9998C15.7986 17.6796 17.6794 15.7988 19.9996 15.7988C22.3199 15.7988 24.2007 17.6796 24.2007 19.9998C24.2007 22.3201 22.3199 24.2009 19.9996 24.2009Z"
                    fill="white" />
                <path
                    d="M28.3047 13.3012C28.3047 14.1429 27.6224 14.8253 26.7807 14.8253C25.939 14.8253 25.2563 14.1429 25.2563 13.3012C25.2563 12.4592 25.939 11.7769 26.7807 11.7769C27.6224 11.7769 28.3047 12.4592 28.3047 13.3012Z"
                    fill="white" />
            </g>
            <defs>
                <radialGradient id="paint0_radial" cx="0" cy="0" r="1" gradientUnits="userSpaceOnUse"
                    gradientTransform="translate(8.19977 34.9568) scale(44.113)">
                    <stop stop-color="#FAE100" />
                    <stop offset="0.0544" stop-color="#FADC04" />
                    <stop offset="0.1167" stop-color="#FBCE0E" />
                    <stop offset="0.1829" stop-color="#FCB720" />
                    <stop offset="0.2514" stop-color="#FE9838" />
                    <stop offset="0.3054" stop-color="#FF7950" />
                    <stop offset="0.4922" stop-color="#FF1C74" />
                    <stop offset="1" stop-color="#6C1CD1" />
                </radialGradient>
                <linearGradient id="paint1_linear" x1="15.3414" y1="17.3794" x2="-52.4233" y2="-20.7382"
                    gradientUnits="userSpaceOnUse">
                    <stop stop-color="#A1B5D8" stop-opacity="0" />
                    <stop offset="0.3094" stop-color="#90A2BD" stop-opacity="0.309804" />
                    <stop offset="0.7554" stop-color="#7C8B9C" stop-opacity="0.756863" />
                    <stop offset="1" stop-color="#748290" />
                </linearGradient>
                <linearGradient id="paint2_linear" x1="20.0003" y1="35.31" x2="20.0003" y2="41.545"
                    gradientUnits="userSpaceOnUse">
                    <stop stop-color="#FAE100" stop-opacity="0" />
                    <stop offset="0.3068" stop-color="#FCA800" stop-opacity="0.305882" />
                    <stop offset="0.6275" stop-color="#FE7300" stop-opacity="0.627451" />
                    <stop offset="0.8685" stop-color="#FF5200" stop-opacity="0.866667" />
                    <stop offset="1" stop-color="#FF4500" />
                </linearGradient>
                <linearGradient id="paint3_linear" x1="17.7242" y1="17.6679" x2="7.82487" y2="7.76858"
                    gradientUnits="userSpaceOnUse">
                    <stop stop-color="#833AB4" stop-opacity="0" />
                    <stop offset="1" stop-color="#833AB4" />
                </linearGradient>
                <linearGradient id="paint4_linear" x1="27.4142" y1="36.5852" x2="22.4733" y2="13.2922"
                    gradientUnits="userSpaceOnUse">
                    <stop stop-color="#833AB4" stop-opacity="0" />
                    <stop offset="1" stop-color="#833AB4" />
                </linearGradient>
                <linearGradient id="paint5_linear" x1="29.2943" y1="29.2943" x2="9.44864" y2="9.44863"
                    gradientUnits="userSpaceOnUse">
                    <stop stop-color="#833AB4" stop-opacity="0" />
                    <stop offset="1" stop-color="#833AB4" />
                </linearGradient>
                <linearGradient id="paint6_linear" x1="30.7663" y1="17.2863" x2="24.2038" y2="10.7237"
                    gradientUnits="userSpaceOnUse">
                    <stop stop-color="#833AB4" stop-opacity="0" />
                    <stop offset="1" stop-color="#833AB4" />
                </linearGradient>
                <linearGradient id="paint7_linear" x1="27.9419" y1="12.1134" x2="11.761" y2="28.2943"
                    gradientUnits="userSpaceOnUse">
                    <stop stop-color="#833AB4" />
                    <stop offset="0.0922" stop-color="#9C3495" />
                    <stop offset="0.2927" stop-color="#DC2546" />
                    <stop offset="0.392" stop-color="#FD1D1D" />
                    <stop offset="0.5589" stop-color="#FC6831" />
                    <stop offset="0.6887" stop-color="#FC9B40" />
                    <stop offset="0.7521" stop-color="#FCAF45" />
                    <stop offset="0.7806" stop-color="#FDB750" />
                    <stop offset="0.8656" stop-color="#FECB6A" />
                    <stop offset="0.9415" stop-color="#FFD87A" />
                    <stop offset="1" stop-color="#FFDC80" />
                </linearGradient>
                <clipPath id="clip0">
                    <rect width="40" height="40" fill="white" />
                </clipPath>
            </defs>
        </symbol>
        <symbol id="vertical-line" width="2" height="40" viewBox="0 0 2 40" fill="none" xmlns="http://www.w3.org/2000/svg">
            <path d="M1 0V40" stroke="#B9B9B9" />
        </symbol>

    </defs>
</svg>