<svg aria-hidden="true" style="position:absolute;width:0;height:0" xmlns="http://www.w3.org/2000/svg" overflow="hidden"><defs><symbol id="icon-vk" viewBox="0 0 53 32"><path d="M45.902 20.1c1.767 1.728 3.636 3.353 5.221 5.253.702.846 1.365 1.717 1.872 2.699.72 1.394.069 2.928-1.182 3.012l-7.769-.004c-2.004.165-3.602-.64-4.948-2.011-1.076-1.097-2.071-2.263-3.106-3.396a7.426 7.426 0 00-1.373-1.227l-.025-.016c-1.061-.688-1.982-.478-2.588.629-.617 1.124-.757 2.37-.818 3.625-.084 1.829-.636 2.311-2.475 2.393-3.927.187-7.655-.409-11.116-2.389-3.054-1.748-5.422-4.213-7.481-7.004C6.102 16.228 3.03 10.256.269 4.116-.353 2.731.102 1.99 1.627 1.963c2.535-.05 5.07-.046 7.607-.004 1.031.014 1.712.604 2.11 1.579 1.371 3.372 3.049 6.58 5.156 9.554.56.791 1.132 1.582 1.947 2.14.901.617 1.588.412 2.011-.59.27-.636.388-1.323.448-2.004.201-2.347.228-4.686-.124-7.022-.217-1.46-1.038-2.404-2.492-2.681-.743-.14-.633-.416-.274-.841.624-.729 1.212-1.186 2.382-1.186h8.782c1.381.274 1.689.894 1.879 2.284l.007 9.755c-.016.539.268 2.137 1.239 2.492.775.254 1.287-.366 1.753-.859 2.103-2.231 3.604-4.869 4.942-7.6.596-1.2 1.108-2.448 1.604-3.692.368-.924.942-1.38 1.986-1.36l8.45.007c.252 0 .505.004.747.046 1.426.242 1.815.853 1.376 2.245-.693 2.181-2.041 4-3.36 5.826-1.41 1.95-2.916 3.835-4.315 5.796-1.284 1.792-1.182 2.695.412 4.251z"/></symbol><symbol id="icon-supporting" viewBox="0 0 33 32"><path d="M1.993 12.558v2.831c0 .152.069.295.189.39a11.027 11.027 0 006.836 2.362c.741 0 1.482-.077 2.207-.224a11.826 11.826 0 004.872 1.032h.019-.001c1.707 0 3.351-.349 4.89-1.032 3.091.625 6.385-.046 9.043-2.138a.495.495 0 00.189-.39v-2.831c0-.415-.207-.794-.575-1.027l-3.867-2.176c.846-1.073 1.476-2.602 1.586-3.913.321-2.256-1.519-4.646-4.166-4.646a4.208 4.208 0 00-2.947 1.227c-.027.027-.058.049-.084.077-.024.025-.043.054-.067.08l-.044.053C19.316.852 17.862 0 16.148 0c-.167 0-.329.011-.491.028-.01-.001-.019-.006-.029-.006-.092 0-.287.025-.391.055-.015.004-.027.015-.041.021a4.498 4.498 0 00-3.002 2.135l-.011.021A4.17 4.17 0 009.014.797h-.01.001c-3.908 0-5.642 4.612-2.557 8.581l-3.903 2.167a1.19 1.19 0 00-.553 1.014zm19.004 4.27c-.084.041-.167.085-.251.123l-.002.001a10.84 10.84 0 01-4.596 1.006h-.033.002-.025c-2.509 0-4.823-.837-6.677-2.248l.027.02v-2.87c0-.097.047-.184.102-.221l4.542-2.525c.565.48 1.287.832 2.035.832.72 0 1.499-.357 2.052-.843l4.487 2.52a.277.277 0 01.131.237v2.87c-.52.395-1.108.76-1.729 1.069l-.064.029zm8.157-4.447a.202.202 0 01.092.169v2.595a9.988 9.988 0 01-6.737 1.98c.419-.265.772-.515 1.111-.782l-.028.022a.496.496 0 00.19-.39V12.86c0-.435-.219-.835-.611-1.087l-2.383-1.339.58-.321c.703.573 1.307.744 1.848.744.663 0 1.36-.325 1.878-.759l4.06 2.284zM23.216 1.788c1.381 0 2.593.902 3.021 2.142a3.698 3.698 0 01-2.235-1.14L24 2.788a.497.497 0 00-.788.082l-.001.002a3.694 3.694 0 01-2.524 1.757l-.022.003-.001-.003.001-.083c0-.201-.012-.399-.036-.594l.002.023-.007-.066a5.316 5.316 0 00-.13-.647l.009.038c.563-.902 1.609-1.513 2.713-1.513zm-2.66 3.855a4.652 4.652 0 003.157-1.751l.008-.01a4.684 4.684 0 002.701 1.056c-.007 1.792-1.471 4.927-3.206 4.927-1.337 0-2.479-1.912-2.905-3.238.109-.341.187-.669.245-.983zm.101 3.73l-.886.491-.895-.503c.332-.413.636-.893.897-1.413.25.527.551 1.01.884 1.425zM19.32 6.465c-.478 1.427-1.705 3.49-3.2 3.49-1.742 0-3.225-2.864-3.508-4.696.075-.019 2.429.127 4.049-2.001.823.688 1.932 1.143 3.011 1.188.013.647-.144 1.407-.352 2.019zM16.149.991c2.78 0 3.309 2.393 3.353 2.443a4.124 4.124 0 01-2.561-1.274l-.002-.002a.494.494 0 00-.788.085l-.001.002a4.095 4.095 0 01-2.385 1.86l-.029.007a4.23 4.23 0 01-1.14.153h-.028.001c.136-1.821 1.596-3.273 3.58-3.273zm-3.688 6.947c.257.515.563 1.007.913 1.439l-.875.487-.907-.51c.321-.411.61-.876.849-1.369l.02-.046zm-3.455-6.15c1.125 0 2.155.571 2.729 1.514-.029.1-.107.498-.117.548a3.685 3.685 0 01-1.819-1.061l-.002-.002a.494.494 0 00-.787.085l-.001.002a3.717 3.717 0 01-3.177 1.815h-.001c.158-1.627 1.518-2.9 3.174-2.9zm-3.13 3.889a4.699 4.699 0 003.635-1.786l.007-.01a4.6 4.6 0 002.027.956l.029.005c.029.575.179 1.273.35 1.789-.273.84-.799 1.84-1.451 2.505l-.013.01c-.408.43-.988.719-1.444.719-1.594 0-2.841-2.508-3.14-4.188zm-2.891 6.881c0-.075.033-.139.067-.162l4.116-2.284c.247.206.304.229.353.265.485.323.929.483 1.534.483.645 0 1.233-.273 1.749-.694.029-.023.06-.045.088-.068l.587.33-2.447 1.361a1.271 1.271 0 00-.584 1.069V15.976c0 .152.07.295.19.389.317.249.727.539 1.083.761a10.018 10.018 0 01-6.737-1.98v-2.587z"/><path d="M31.259 20.781a2.042 2.042 0 00-1.102-.319c-.329 0-.641.077-.917.215l.012-.005-6.12 2.957a2.11 2.11 0 00-2.106-2.071l-3.51.001c-1.73-1.504-3.941-2.425-5.952-2.473-1.983-.047-3.762-.06-4.592-.064V18.02H0v11.517h6.972v-1.379c1.911 1.098 6.939 3.845 9.325 3.845.053 0 .107-.001.157-.005 4.196-.235 14.091-7.198 14.743-7.66a2.083 2.083 0 001.034-1.796v-.006a2.06 2.06 0 00-.965-1.747l-.009-.005zM5.98 28.543H.992V19.01H5.98v9.533zm24.707-5.058a.385.385 0 00-.045.028l.001-.001c-.103.073-10.281 7.271-14.245 7.493a2.179 2.179 0 01-.12.003c-2.093 0-7.195-2.753-9.307-4.001V20.01c.827.003 2.596.017 4.569.063 1.837.045 3.876.921 5.455 2.346l.141.128 3.888-.001a1.119 1.119 0 010 2.238h-7.142v.991h7.142a2.1 2.1 0 001.673-.839l6.984-3.373a1.052 1.052 0 011.053.06l-.004-.003c.323.202.508.537.508.918a1.087 1.087 0 01-.548.943l-.005.003zM16.611 12.159h-.991v.92h.991v-.92zm0 1.833h-.991v.92h.991v-.92zm0 1.835h-.991v.919h.991v-.92z"/></symbol><symbol id="icon-smartphone" viewBox="0 0 33 32"><path d="M30.175-.128H14.429a1.861 1.861 0 00-1.859 1.859V8.25L.871 13.159a.382.382 0 00-.05.678l.002.001 1.492.893v9.516A1.722 1.722 0 00.98 25.92v.917c0 .211.17.381.381.381h2.671a.38.38 0 00.381-.381v-.917a1.72 1.72 0 00-1.337-1.673v-9.06l1.18.706c-.037.272-.005-.474-.017 4.43 0 1.612 4.129 2.476 8.33 2.525v7.425c0 1.025.832 1.856 1.857 1.856H30.172a1.858 1.858 0 001.857-1.857c0 .051-.002-1.573 0-28.539a1.87 1.87 0 00-1.856-1.859zM3.651 25.918v.537H1.743v-.537a.955.955 0 111.909 0zm26.524 5.446H14.429c-.378 0-.711-.191-.909-.481a1.081 1.081 0 01-.187-.61V27.697h17.934v2.575c0 .596-.497 1.092-1.092 1.092zm1.092-4.429H13.332v-4.086c2.051-.023 8.335-.475 8.335-2.527-.003-3.08.005-4.33-.01-4.436l3.421-2.049a.382.382 0 00-.046-.676l-.002-.001-11.698-4.91V5.068h17.935v21.868zm-18.316-9.143c-2.113 0-6.182.273-7.949 1.427.011-3.53-.123-3.3.312-3.6 1.098-.808 4.239-1.373 7.637-1.373 1.482 0 7.954.407 7.954 1.777v3.196c-1.784-1.165-5.832-1.428-7.954-1.428zm.381-16.061A1.096 1.096 0 0114.428.636h15.745c.605 0 1.093.498 1.093 1.095v2.574H13.332V1.731zm-.381 7.184l11.09 4.655-2.748 1.644c-1.461-1.449-6.294-1.729-8.342-1.729-2.051 0-6.884.281-8.342 1.729L1.86 13.57l11.091-4.655zM5.002 20.321c0-.616 2.73-1.768 7.949-1.768 5.222 0 7.954 1.151 7.954 1.767s-2.732 1.768-7.954 1.768c-5.219 0-7.949-1.151-7.949-1.768z"/><path d="M22.301 28.271a1.261 1.261 0 101.26 1.26c0-.694-.565-1.26-1.26-1.26zm0 1.759a.5.5 0 01-.001-.996h.001a.498.498 0 010 .996zm1.454-27.94h-2.907v.762h2.907V2.09z"/></symbol><symbol id="icon-right" viewBox="0 0 54 32"><path d="M2 14a2 2 0 100 4v-4zm51.414 3.414c.362-.362.586-.862.586-1.414s-.224-1.052-.586-1.414L40.686 1.858a2 2 0 10-2.829 2.827l.001.001L49.172 16 37.858 27.314a2 2 0 002.829 2.827l-.001.001 12.728-12.728zM2 18h50v-4H2v4z"/></symbol><symbol id="icon-phone" viewBox="0 0 33 32"><path d="M4.818.002a2.068 2.068 0 00-1.439.672l-.001.002L.693 3.629c.004-.009-.011-.008-.086.099a.62.62 0 00-.092.179l-.001.005C-.578 7.392.154 11.22 1.937 14.86c1.785 3.641 4.63 7.125 7.897 9.984 3.266 2.859 6.953 5.096 10.467 6.206 3.516 1.109 6.923 1.095 9.449-.737a.56.56 0 00.077-.067c.066-.066.068-.075.057-.065l2.681-2.95c.333-.369.537-.86.537-1.399 0-.608-.26-1.156-.675-1.538l-6.337-5.765a2.088 2.088 0 00-2.938.136l-2.868 3.154c-2.328-.673-4.318-1.816-6.231-3.556-1.913-1.741-3.24-3.615-4.13-5.869l2.866-3.153a2.08 2.08 0 00.538-1.4c0-.608-.259-1.155-.674-1.537L6.314.538A2.064 2.064 0 004.81.003h.005zm.059 1.293l.03-.001c.205 0 .392.08.53.21l6.337 5.763a.759.759 0 01.051 1.097l-3.169 3.482a.648.648 0 00-.127.665l-.001-.005c.961 2.624 2.513 4.778 4.647 6.719 2.135 1.942 4.423 3.283 7.126 3.992a.65.65 0 00.648-.192v-.001l3.169-3.482a.759.759 0 011.097-.051l6.338 5.763a.759.759 0 01.051 1.097l-2.649 2.913c-2.072 1.486-4.992 1.57-8.262.537-3.283-1.036-6.846-3.182-9.999-5.942s-5.898-6.131-7.585-9.574C1.439 10.878.834 7.433 1.752 4.397l2.589-2.845a.772.772 0 01.535-.259h.002z"/></symbol><symbol id="icon-person" viewBox="0 0 27 32"><path d="M-.103 31.759h26.785c.133-3.055-.087-8.123-1.964-10.535l-.068-.087-4.104-2.06c.089-.301.133-.576.151-.779a1.417 1.417 0 00-.103-.687l.003.009c-.677-1.62-2.109-2.472-2.897-2.835.24-.484.395-1.003.469-1.534.456-.131.805-.489.921-.942l.002-.009.479-1.947a1.31 1.31 0 00-.155-1.007l.003.006c-.08-.13-.178-.24-.291-.332l-.002-.002c1.35-3.068-.912-5.96-1.035-6.113C15.642.257 12.547.752 12.383.782c-4.466.935-6.189 4.358-5.216 8.372a1.312 1.312 0 00-.3 1.209l-.002-.009.481 1.949c.117.468.473.82.915.947a5.01 5.01 0 001.158 2.567l-.006-.007v1.543c-6.409 3.282-2.348 1.188-7.485 3.787-.01.048-2.409 2.599-2.053 10.158l.022.462zm25.854-.97h-4.408v-1.852l2.915-6.675c1.461 2.425 1.515 7.053 1.493 8.527zm-6.016-12.573c-.17 1.955-1.241 1.364-1.903 2.869-.52-.572-.677-1.258-.537-1.993.253-1.349-.571-1.749-.367-3.166l.031-.032v-.005c.017-.02.18-.213.227-.274 1.744.76 2.584 2.174 2.55 2.6zm-9.356-1.535a4.927 4.927 0 002.842.894 4.94 4.94 0 002.75-.831l-.018.011c.112 1.113.547 1.337.393 2.157a3.355 3.355 0 00-.054.439v.01l-3.002 3.383-3.838-4.327.927-.483V16.68zm-1.207-4.142V7.367c.467-.864 1.104-1.491 1.895-1.867 2.12 1.2 4.56 2.99 6.197 4.792-.002 2.294.007 2.3-.009 2.489l-.001.012c-.128 2.084-1.841 3.811-4.038 3.811-2.135 0-3.909-1.677-4.037-3.831a2.716 2.716 0 01-.008-.21v-.024.001zm-.598 6.347l4.716 5.317 3.167-3.569c.072.209.173.405.289.596l-3.456 4.322-5.153-6.446.437-.22zm9.656-7.127v-1.498l.36-.413c.02.759.102-.136-.36 1.911zM12.561 1.733c.192.012 2.765-.391 4.799 1.805.08.1 1.736 2.233 1.071 4.567-.228-1.039-.625-2.369-1.252-3.004l-.685.683c.619.627 1.027 2.537 1.181 3.527-2.84-2.972-6.504-4.853-6.555-4.885-.183.114-1.734.409-2.86 2.598l-.053.104v1.608l-.143.001c-.715-3.455.655-6.199 4.497-7.004zM7.963 9.735l.243.987v1.038l-.405-1.64c-.06-.244.121-.337.161-.385zm-.71 9.814L13.29 27.1l4.085-5.109c.445.398.658.454 1.6.939l-.317-1.078c-.081-.273.239-.713.431-.914a2.94 2.94 0 001.05-.966l.007-.011 3.333 1.673-3.102 7.1v2.055H6.202v-2.055l-3.103-7.099 4.153-2.085zM2.32 22.265l2.916 6.673v1.851H.828c-.022-1.473.033-6.1 1.492-8.525z"/></symbol><symbol id="icon-menu-cross" viewBox="0 0 34 32"><path fill="none" stroke="var(--color3, #fff)" stroke-width="4" d="M2.004 30.496L30.996 1.504m0 28.992L2.004 1.504"/></symbol><symbol id="icon-menu-burger" viewBox="0 0 48 32"><path stroke-width="4.571" d="M0 2.286h46.857M0 16h46.857M0 29.714h46.857"/></symbol><symbol id="icon-left" viewBox="0 0 54 32"><path d="M52 14a2 2 0 110 4v-4zM.586 17.414C.224 17.052 0 16.552 0 16s.224-1.052.586-1.414L13.314 1.858a2 2 0 012.825 2.829l.001-.001L4.828 16l11.314 11.314a2 2 0 11-2.827 2.829l-.001-.001L.586 17.414zM52 18H2v-4h50v4z"/></symbol><symbol id="icon-instagram" viewBox="0 0 32 32"><path d="M.528 10.03c.102-.725.181-1.452.311-2.171C1.577 3.786 4.46 1.016 8.582.874a210.36 210.36 0 0114.902 0c4.487.16 7.735 3.483 7.877 7.97.071 2.132.112 4.638.112 7.153s-.041 5.022-.121 7.518l.009-.364c-.142 4.489-3.39 7.809-7.877 7.972-4.96.178-9.94.183-14.902-.002-4.486-.169-7.588-3.498-7.889-7.993-.025-.389-.108-.775-.165-1.162V10.031zm15.476 18.433c2.271 0 4.544.068 6.812-.016 3.557-.132 5.743-2.254 5.826-5.807.102-4.426.102-8.858 0-13.285-.084-3.552-2.272-5.723-5.826-5.799a330.748 330.748 0 00-13.891.006l.353-.006C5.751 3.63 3.557 5.758 3.461 9.27a245.354 245.354 0 000 13.455c.096 3.513 2.289 5.591 5.817 5.722 2.24.084 4.484.016 6.726.016z"/><path d="M16 8.114c-4.355 0-7.886 3.53-7.886 7.886s3.53 7.886 7.886 7.886c4.355 0 7.886-3.53 7.886-7.886S20.356 8.114 16 8.114zm0 13.056a5.17 5.17 0 110-10.34 5.17 5.17 0 110 10.34zM26.222 7.755a1.876 1.876 0 01-3.752 0 1.876 1.876 0 013.752 0z"/></symbol><symbol id="icon-fire" viewBox="0 0 23 32"><path d="M21.909 16.593c-.285-.636-.675-1.261-1.248-1.984-1.442-1.813-1.882-5.856-1.887-5.895a.49.49 0 00-.334-.411l-.003-.001a.493.493 0 00-.518.141c-1.721 1.924-.997 4.896-.606 6.084.107.325.224.708.308 1.097.635 3.136-.592 4.557-.88 4.843-.279.078-.469.039-.645-.149-.607-.665-.807-2.842-.523-5.678a5.936 5.936 0 00-.044-1.615l.005.034c-.598-3.486-2.791-5.723-3.349-6.507-1.536-2.269-1.692-6.046-1.696-6.08A.488.488 0 009.725.09l.002-.001C7.165 1.831 7.385 6.025 7.742 8.366c.083.544.244 1.095.523 1.794.992 2.496-.195 5.722-.205 5.749-.011.03-.02.053-.025.083-.151.796-.405 1.27-.69 1.27a.332.332 0 01-.095-.016l.002.001c-.347-.073-.528-.441-.533-.761-.019-4.135-4.17-5.527-4.213-5.542s-.096-.023-.149-.023a.49.49 0 00-.369.169l-.001.001a.474.474 0 00-.067.536l-.001-.003c.049.101.205.547.098 2.123a18.128 18.128 0 01-.803 4.288l.035-.128c-.988 3.221-.832 6.271-.821 6.416.759 8.258 12.635 9.705 19.682 5.053.773-.51 1.404-1.091 1.868-1.731 2.602-3.588 1.071-8.461-.068-11.051zM3.843 24.48l.001.025a.484.484 0 01-.459.484h-.034a.486.486 0 01-.485-.454v-.001c-.044-.707-.034-1.45.019-2.254a.494.494 0 01.524-.451h-.001a.488.488 0 01.456.487l-.001.032v-.001a15.615 15.615 0 00-.019 2.133zm.239-4.295a.485.485 0 01-.482.427h-.002c-.02 0-.039 0-.064-.005a.49.49 0 01-.425-.54v.002l.235-1.872a.495.495 0 01.551-.421h-.002a.486.486 0 01.425.543l-.235 1.867zM18.601 6.634a.486.486 0 01-.408-.555v.003c.032-.197.208-1.205.687-1.713a.488.488 0 01.691-.021.48.48 0 01.021.685c-.203.214-.374.829-.433 1.197a.49.49 0 01-.56.405h.003zM.779 9.049c-.095-.361-.327-.956-.551-1.15a.481.481 0 01-.044-.684.49.49 0 01.691-.045H.874c.527.458.802 1.444.851 1.637a.484.484 0 01-.349.589l-.003.001a.49.49 0 01-.594-.346l-.001-.003z"/></symbol><symbol id="icon-file" viewBox="0 0 31 32"><path d="M30.151 4.961l-.001-.003a.225.225 0 00-.025-.046l.001.001-.003-.003a.278.278 0 00-.033-.042L25.283.062a.237.237 0 00-.039-.032l-.001-.001c-.003-.002-.007-.003-.009-.006A.518.518 0 0025.2.004l-.002-.001-.011-.004a.28.28 0 00-.098-.02H3.912a.283.283 0 00-.283.284v29.311a.25.25 0 00.005.055l.007.023.01.03c.003.009.009.017.013.025.004.007.007.016.013.023a.26.26 0 00.033.04l2.167 2.167a.283.283 0 00.402 0l1.965-1.964 1.964 1.964c.051.052.122.084.201.084s.15-.032.201-.084l1.963-1.963 1.965 1.963a.283.283 0 00.402 0l1.963-1.963 1.964 1.963a.283.283 0 00.402 0l1.965-1.964 1.964 1.964a.282.282 0 00.402 0l1.964-1.963 1.965 1.963a.283.283 0 00.402 0l2.165-2.165.011-.013.024-.029c.007-.009.011-.02.016-.03.004-.007.007-.012.009-.019.007-.013.009-.027.013-.04l.005-.013a.324.324 0 00.005-.056V5.068a.314.314 0 00-.023-.111l.001.002zM25.367.949l3.836 3.835h-3.836V.949zm4.237 28.507l-1.88 1.88-1.965-1.964a.283.283 0 00-.402 0l-1.963 1.964-1.964-1.964a.283.283 0 00-.402 0l-1.965 1.964-1.963-1.964c-.051-.052-.122-.084-.201-.084s-.15.032-.201.084l-1.963 1.964-1.965-1.964a.287.287 0 00-.402 0l-1.963 1.964-1.964-1.964a.287.287 0 00-.402 0l-1.964 1.964-1.88-1.88V.547h20.603v4.522c0 .157.127.284.284.284h4.521v24.103z"/><path d="M6.313 3.234h9.303a.284.284 0 100-.568H6.313a.284.284 0 100 .568zm0 1.757h14.92a.284.284 0 100-.568H6.313a.284.284 0 100 .568zm-.284 1.577v9.199c0 .157.127.284.285.284h21.172a.284.284 0 00.284-.284V6.568a.284.284 0 00-.284-.284H6.313h-.001a.284.284 0 00-.284.284zm6.279.284h14.893v2.445H12.308V6.852zm0 3.013h14.893v2.444H12.308V9.865zm0 3.012h14.893v2.605H12.308v-2.605zm-5.71-6.025h5.142v2.445H6.598V6.852zm0 3.013h5.142v2.444H6.598V9.865zm0 3.012h5.142v2.605H6.598v-2.605zm20.888 4.452H6.313h-.001a.284.284 0 00-.284.284v9.198a.284.284 0 10.568 0v-2.889h5.143v2.889a.284.284 0 10.568 0v-2.889H27.2v2.889a.284.284 0 10.568 0v-9.198-.001a.283.283 0 00-.283-.283h-.001zM11.74 23.353H6.598V20.91h5.142v2.443zm0-3.012H6.598v-2.444h5.142v2.444zm15.461 3.012H12.308V20.91h14.893v2.443zm0-3.012H12.308v-2.444h14.893v2.444zM2.281-.021a.284.284 0 00-.284.284v29.311a.284.284 0 10.568 0V.263a.284.284 0 00-.284-.284zm-1.563 0a.284.284 0 00-.284.284v29.311a.284.284 0 10.568 0V.263a.284.284 0 00-.284-.284z"/></symbol><symbol id="icon-dollar" viewBox="0 0 27 32"><path d="M.528 13.797c0 .348-.528.348-.528 0C0 6.394 6.004.39 13.407.39c7.406 0 13.406 6.004 13.406 13.407 0 .348-.525.348-.525 0 0-5.005-8.222-5.008-8.222 0 0 .348-.542.348-.542 0 0-4.991-8.235-4.991-8.235 0 0 .348-.542.348-.542 0 0-4.982-8.219-5.017-8.219 0zm8.267-1.943c.143-2.88.595-5.463 1.253-7.435.525-1.566 1.19-2.757 1.943-3.424C6.338 1.612 1.762 5.897.739 11.455c1.947-2.807 6.441-2.583 8.055.398zm8.689-.13c-.146-2.769-.585-5.247-1.219-7.137-1.633-4.89-4.082-4.89-5.715 0-.633 1.89-1.069 4.368-1.218 7.137 1.756-2.985 6.396-2.985 8.153 0zm8.589-.269C25.054 5.897 20.477 1.611 14.821.995c.757.667 1.418 1.858 1.943 3.424.659 1.972 1.111 4.555 1.253 7.435 1.623-2.997 6.131-3.175 8.055-.399zm-14.426 8.476v-2.722c-.491.326-.877.83-.877 1.444 0 .598.392.994.877 1.278zm.529.846c-.94-.43-1.93-.933-1.93-2.124 0-1.229.933-1.842 1.93-2.302v4.425zm2.99 3.262v2.754c.497-.329.887-.835.887-1.449 0-.605-.399-1.013-.887-1.304zm-.525-.848c.944.437 1.94.956 1.94 2.153 0 1.231-.94 1.845-1.94 2.301v-4.453z"/><path d="M15.166 14.111c2.165.499 4.39 2.12 4.39 4.541 0 2.074-3.504 1.998-3.504 0 0-.617-.389-1.124-.886-1.449v3.874c2.003.656 4.396 1.829 4.396 4.266 0 2.425-2.224 4.042-4.396 4.539-.009 2.308-3.512 2.305-3.519-.003-1.235-.285-2.307-.861-3.083-1.623-.813-.804-1.294-1.814-1.294-2.911 0-2.043 3.5-2.043 3.5 0 0 .61.386 1.114.877 1.439v-3.871c-1.988-.642-4.393-1.851-4.393-4.266 0-2.424 2.225-4.041 4.393-4.539.009-2.307 3.513-2.304 3.52.003zm-2.99.006v.421c-2.061.408-4.396 1.728-4.396 4.108 0 2.288 2.563 3.314 4.396 3.881v5.115c-.991-.453-1.93-1.063-1.93-2.298 0-1.348-2.451-1.348-2.451 0 0 .952.425 1.833 1.139 2.535.909.899 2.011 1.327 3.241 1.57v.424c0 1.623 2.466 1.623 2.466 0v-.421c2.066-.411 4.393-1.73 4.393-4.108 0-2.31-2.558-3.304-4.393-3.884v-5.111c.994.453 1.94 1.064 1.94 2.304 0 1.314 2.447 1.367 2.447 0 0-2.377-2.323-3.7-4.386-4.111v-.425c0-1.623-2.466-1.623-2.466 0z"/></symbol><symbol id="icon-dashed-line" viewBox="0 0 2 32"><path fill="none" stroke="var(--color4, #b9b9b9)" stroke-width=".8" d="M.8 0v32"/></symbol><symbol id="icon-dash" viewBox="0 0 213 32"><path d="M0 4.267h213.333V24.96H0V4.267z"/></symbol><symbol id="icon-check-mark" viewBox="0 0 40 32"><path d="M34.458 1.514a29.4 29.4 0 00-4.266 2.379c-2.731 1.797-5.227 3.936-7.568 6.218a85.06 85.06 0 00-6.458 7.12l-.125.16c-.515.637-2.822 3.472-2.822 3.472L3.622 6.481 0 16.524l12.976 15.477c1.261-2.552 2.474-5.07 3.664-7.258.294-.557.605-1.08.901-1.613 0 0 1.523-2.677 1.923-3.35 1.602-2.698 3.333-5.325 5.238-7.821 1.909-2.491 3.984-4.87 6.336-6.96a28.318 28.318 0 013.64-2.807l.11-.067C36.119 1.277 37.535.535 39.049 0c-1.574.31-3.112.848-4.592 1.514z"/></symbol><symbol id="icon-bordered-smartphone" viewBox="0 0 31 32"><path d="M20.406 8.558H13.29a.841.841 0 00-.84.84v2.946l-5.287 2.219a.171.171 0 00-.023.306h.001l.674.403v4.3a.777.777 0 00-.603.756v.415c0 .095.077.172.172.172h1.207a.172.172 0 00.172-.172v-.414a.777.777 0 00-.604-.756v-4.094l.533.319c-.017.123-.002-.214-.008 2.002 0 .729 1.866 1.119 3.765 1.141v3.356a.84.84 0 00.839.839h7.117a.84.84 0 00.839-.839V9.399a.846.846 0 00-.839-.84zM8.419 20.328v.242h-.862v-.242c0-.238.193-.433.43-.433s.432.194.432.433zm11.987 2.462H13.29a.494.494 0 01-.496-.494v-1.164h8.105v1.164c0 .27-.225.494-.494.494zm.494-2.002h-8.105v-1.847c.927-.01 3.767-.215 3.767-1.142-.001-1.392.002-1.957-.004-2.005l1.546-.926a.173.173 0 00-.021-.306h-.001l-5.286-2.219v-1.438h8.105v9.883zm-8.278-4.132c-.955 0-2.794.123-3.592.645.005-1.595-.055-1.491.141-1.627.496-.365 1.916-.62 3.451-.62.67 0 3.595.184 3.595.803v1.444c-.806-.526-2.636-.645-3.595-.645zm.172-7.258c0-.273.222-.495.495-.495h7.116c.273 0 .494.225.494.495v1.163h-8.105V9.398zm-.172 3.246l5.012 2.104-1.242.743c-.66-.655-2.844-.782-3.77-.782-.927 0-3.111.127-3.77.782l-1.242-.743 5.012-2.104zM9.03 17.799c0-.279 1.234-.799 3.592-.799 2.36 0 3.595.52 3.595.799s-1.235.799-3.595.799c-2.358 0-3.592-.52-3.592-.799z"/><path d="M16.848 21.392a.57.57 0 10.001 1.137.57.57 0 00-.001-1.136zm0 .794a.226.226 0 01-.001-.45h.001a.226.226 0 01.001.45zm.657-12.626h-1.314v.344h1.314V9.56z"/><path fill="none" stroke="var(--color2, #ff6b09)" stroke-width=".615" d="M31.077 4.615V.307H.308v31.385h30.769v-4.308"/></symbol><symbol id="icon-bordered-person" viewBox="0 0 31 32"><path d="M7.953 23.273h12.362c.062-1.41-.04-3.749-.906-4.862l-.031-.04-1.894-.951a1.874 1.874 0 00.073-.422.65.65 0 00-.051-.254l.002.004c-.312-.748-.974-1.141-1.337-1.309.111-.223.182-.463.217-.708a.61.61 0 00.425-.435l.001-.004.221-.898a.607.607 0 00-.072-.465l.002.003a.6.6 0 00-.134-.153l-.001-.001c.623-1.416-.421-2.751-.478-2.822-1.13-1.222-2.559-.994-2.634-.98-2.061.432-2.857 2.011-2.408 3.864a.607.607 0 00-.138.558l-.001-.004.222.899a.608.608 0 00.422.437c.066.456.256.86.535 1.185l-.003-.003v.712c-2.958 1.515-1.084.548-3.454 1.748-.005.022-1.112 1.199-.948 4.688l.01.213zm11.932-.447h-2.034v-.855l1.346-3.081c.674 1.119.699 3.255.689 3.935zm-2.776-5.803c-.079.902-.573.63-.878 1.324a1.023 1.023 0 01-.248-.92c.117-.622-.263-.807-.169-1.461l.014-.015v-.002c.008-.009.083-.098.105-.126.805.351 1.193 1.003 1.177 1.2zm-4.319-.709c.366.258.821.413 1.312.413.47 0 .906-.141 1.269-.383l-.008.005c.052.514.252.617.182.995-.012.059-.021.13-.025.203v.005l-1.386 1.562-1.771-1.997.428-.223v-.579zm-.557-1.911v-2.387c.215-.399.51-.688.875-.862.978.554 2.105 1.38 2.86 2.212-.001 1.059.003 1.062-.004 1.149v.006A1.87 1.87 0 0114.1 16.28a1.873 1.873 0 01-1.866-1.861v-.015.001zm-.276 2.929l2.177 2.454 1.462-1.647c.033.096.08.187.134.275l-1.595 1.995-2.378-2.975.202-.102zm4.457-3.289v-.691l.166-.191c.009.35.047-.063-.166.882zm-2.616-4.628c.089.006 1.276-.181 2.215.833.037.046.801 1.031.494 2.108-.105-.479-.288-1.094-.578-1.386l-.316.315c.286.289.474 1.171.545 1.628-1.311-1.372-3.002-2.24-3.026-2.254-.085.053-.8.189-1.32 1.199l-.025.048v.742l-.066.001c-.33-1.594.302-2.861 2.076-3.233zm-2.123 3.693l.112.456v.479l-.187-.757c-.028-.113.056-.155.074-.178zm-.328 4.53l2.786 3.485 1.885-2.358c.205.184.304.21.738.433l-.146-.498c-.037-.126.11-.329.199-.422.2-.11.364-.262.485-.446l.003-.005 1.538.772-1.432 3.277v.949h-6.542v-.949l-1.432-3.277 1.917-.962zm-2.276 1.253l1.346 3.08v.854H8.382c-.01-.68.015-2.815.689-3.934z"/><path fill="none" stroke="var(--color2, #ff6b09)" stroke-width=".615" d="M31.077 4.615V.307H.308v31.385h30.769v-4.308"/></symbol><symbol id="icon-bordered-dollar" viewBox="0 0 31 32"><path d="M7.942 14.958c0 .165-.25.165-.25 0a6.343 6.343 0 0112.684 0c0 .165-.249.165-.249 0 0-2.367-3.89-2.369-3.89 0 0 .165-.256.165-.256 0 0-2.361-3.896-2.361-3.896 0 0 .165-.256.165-.256 0 0-2.357-3.888-2.373-3.888 0zm3.911-.92c.068-1.362.282-2.584.593-3.517.249-.742.563-1.304.919-1.62a6.097 6.097 0 00-5.323 4.949c.921-1.328 3.047-1.222 3.811.189zm4.11-.061c-.069-1.31-.277-2.482-.577-3.376-.772-2.314-1.931-2.314-2.704 0-.299.894-.506 2.066-.576 3.376.831-1.412 3.026-1.412 3.857 0zm4.064-.127a6.094 6.094 0 00-5.323-4.949c.358.316.671.879.919 1.62.311.933.526 2.154.593 3.517.768-1.418 2.9-1.502 3.811-.189zm-6.825 4.01v-1.288c-.232.154-.414.392-.414.683 0 .283.186.47.414.605zm.25.4c-.445-.204-.913-.442-.913-1.005 0-.581.442-.872.913-1.089v2.094zm1.415 1.543v1.303c.235-.156.419-.395.419-.686 0-.286-.189-.479-.419-.617zm-.248-.401c.446.206.918.452.918 1.018 0 .582-.445.873-.918 1.089v-2.107z"/><path d="M14.867 15.106c1.024.237 2.077 1.003 2.077 2.149 0 .981-1.658.945-1.658 0 0-.292-.184-.532-.419-.686v1.833c.948.31 2.08.865 2.08 2.018 0 1.147-1.053 1.912-2.08 2.147-.004 1.091-1.662 1.09-1.665-.002-.584-.135-1.092-.407-1.458-.768-.385-.38-.612-.858-.612-1.378 0-.966 1.656-.966 1.656 0 0 .289.182.527.415.682V19.27c-.94-.304-2.078-.876-2.078-2.018 0-1.147 1.053-1.912 2.078-2.147.004-1.092 1.662-1.09 1.665.002zm-1.415.003v.199c-.975.193-2.08.818-2.08 1.943 0 1.083 1.213 1.568 2.08 1.836v2.42c-.469-.214-.914-.503-.914-1.087 0-.638-1.159-.638-1.159 0 0 .451.201.867.539 1.199.43.425.951.628 1.533.743v.201c0 .768 1.166.768 1.166 0v-.199c.978-.195 2.078-.819 2.078-1.944 0-1.093-1.21-1.563-2.078-1.837v-2.418c.47.214.918.503.918 1.09 0 .622 1.157.647 1.157 0 0-1.125-1.099-1.75-2.075-1.945v-.201c0-.768-1.166-.768-1.166 0z"/><path fill="none" stroke="var(--color2, #ff6b09)" stroke-width=".615" d="M31.077 4.615V.307H.308v31.385h30.769v-4.308"/></symbol><symbol id="icon-book" viewBox="0 0 46 32"><path d="M20.267 4.608H6.627v1.021h13.64V4.608zm0 3.808H8.67v1.021h11.597V8.416zm0 3.808H6.627v1.021h13.64v-1.021zm0 3.808H8.67v1.021h11.597v-1.021zm0 3.808H6.627v1.021h13.64V19.84zm0 3.808H8.67v1.021h11.597v-1.021zM38.99 4.608H25.35v1.021h13.64V4.608zm-2.043 3.808H25.35v1.021h11.596V8.416zm2.043 3.808H25.35v1.021h13.64v-1.021zm-2.043 3.808H25.35v1.021h11.596v-1.021zm2.043 3.808H25.35v1.021h13.64V19.84zm-2.043 3.808H25.35v1.021h11.596v-1.021z"/><path d="M43.915 3.445h-1.872V.633a.511.511 0 00-.511-.511H26.249c-1.469 0-2.75.802-3.43 1.991l-.01.019A3.957 3.957 0 0019.367.121H4.086a.511.511 0 00-.511.511v2.812H1.702a.511.511 0 00-.511.511v27.411c0 .282.229.511.511.511h42.213a.51.51 0 00.51-.511V3.955a.511.511 0 00-.511-.511zM26.267 1.144H41.02v27.349H25.178c-.703 0-1.405.296-1.859.68V4.085v-.009a2.932 2.932 0 012.932-2.932h.015-.001zm-21.671 0h14.773a2.924 2.924 0 012.922 2.824v.005c.001.022.003.091.007.113v25.087a2.987 2.987 0 00-1.852-.678H4.596V1.145zM2.213 4.467h1.362v24.538c0 .282.229.511.511.511h16.36c.779 0 1.531.511 1.772 1.341H2.213V4.468zm41.191 26.389H23.4a1.85 1.85 0 011.775-1.341H41.532a.511.511 0 00.511-.511V4.466h1.361v26.389z"/></symbol><symbol id="icon-audiobook" viewBox="0 0 39 32"><path d="M3.047 29.453h12.23a3.743 3.743 0 003.367 2.115h.801a3.737 3.737 0 003.356-2.093l.01-.022h12.237a2.288 2.288 0 002.286-2.286V5.262a2.288 2.288 0 00-2.286-2.285h-1.234V1.956A1.525 1.525 0 0032.29.433H5.799a1.525 1.525 0 00-1.524 1.523v1.021H3.048A2.289 2.289 0 00.761 5.262v21.905a2.288 2.288 0 002.287 2.286zm29.24-4.702H19.81V7.046c2.885.377 5.121 2.845 5.121 5.831v.687l-.181-.04a.763.763 0 00-.907.575l-.001.005-1.213 5.52a.762.762 0 00.575.906l.005.001 2.621.578a1.944 1.944 0 002.318-1.492l.702-3.192a1.953 1.953 0 00-1.472-2.321l-.013-.003-.912-.201v-1.023c0-3.827-2.917-6.987-6.645-7.371V1.955h12.48l-.001 22.796zm-7.12-9.574l1.871.412a.422.422 0 01.325.508l-.702 3.191a.45.45 0 01-.507.331l-1.873-.413.886-4.029zM5.799 1.955h12.487v3.55c-3.731.381-6.651 3.542-6.651 7.372v1.022l-.913.202a1.945 1.945 0 00-1.218.846l-.005.008a1.91 1.91 0 00-.257 1.482l-.003-.013.7 3.189a1.961 1.961 0 002.338 1.493l-.013.002 2.61-.577a.764.764 0 00.58-.912l.001.005-1.213-5.519a.762.762 0 00-.913-.579l.005-.001-.174.038v-.685c0-2.988 2.24-5.458 5.128-5.832v17.707H5.8V1.956zm7.117 13.222l.887 4.029-1.863.411a.432.432 0 01-.511-.325l-.001-.003-.702-3.196a.42.42 0 01.056-.321l-.001.002a.429.429 0 01.265-.186l.003-.001 1.867-.412zM2.286 5.262c0-.42.341-.762.761-.762h1.227v20.251a1.525 1.525 0 001.525 1.524H32.29a1.525 1.525 0 001.524-1.523V4.5h1.234c.421 0 .762.342.762.762v21.905c0 .42-.341.762-.762.762H22.294a.763.763 0 00-.729.539 2.226 2.226 0 01-2.126 1.577h-.785a2.23 2.23 0 01-2.13-1.571l-.004-.016a.762.762 0 00-.725-.529H3.048a.762.762 0 01-.762-.762V5.262z"/></symbol></defs></svg>