<svg aria-hidden="true" style="position: absolute; width: 0; height: 0; overflow: hidden;" version="1.1" xmlns="http://www.w3.org/2000/svg" xmlns:xlink="http://www.w3.org/1999/xlink">
<defs>
<symbol id="icon-button" viewBox="0 0 26 32">
<path stroke-linejoin="round" stroke-linecap="round" stroke-miterlimit="4" stroke-width="6.4" d="M5.172 3.2l14.169 12.8-14.169 12.8"></path>
</symbol>
<symbol id="icon-untitled" viewBox="0 0 43 32">
<path d="M32.014 0c1.929 0 3.75 0.52 5.464 1.561s3.107 2.537 4.179 4.488c1.029 1.951 1.543 4.249 1.543 6.894s-0.643 5.225-1.929 7.74c-0.429 0.911-1.2 2.081-2.314 3.512-1.157 1.431-2.229 2.667-3.214 3.707l-4.050 4.098-2.893-4.813c2.014-1.257 3.793-2.818 5.336-4.683 1.543-1.821 2.314-3.491 2.314-5.008 0-0.78-0.171-1.409-0.514-1.886-1.5 1.084-3.171 1.626-5.014 1.626-1.329 0-2.593-0.412-3.793-1.236-1.243-0.78-2.229-1.821-2.957-3.122-0.771-1.258-1.157-2.558-1.157-3.902 0-1.518 0.45-2.97 1.35-4.358 0.857-1.388 1.993-2.515 3.407-3.382 1.371-0.824 2.786-1.236 4.243-1.236zM8.936 0c1.929 0 3.75 0.52 5.464 1.561s3.107 2.537 4.179 4.488c1.029 1.951 1.543 4.249 1.543 6.894 0 1.864-0.236 3.534-0.707 5.008-0.471 1.518-1.286 3.1-2.443 4.748-1.114 1.561-2.164 2.862-3.15 3.902-0.986 1.084-2.7 2.884-5.143 5.398l-2.893-4.813c2.014-1.257 3.793-2.818 5.336-4.683 1.543-1.821 2.314-3.491 2.314-5.008 0-0.78-0.171-1.409-0.514-1.886-1.5 1.084-3.171 1.626-5.014 1.626-1.329 0-2.593-0.412-3.793-1.236-1.243-0.78-2.229-1.821-2.957-3.122-0.771-1.258-1.157-2.558-1.157-3.902 0-1.518 0.429-2.97 1.286-4.358s1.993-2.515 3.407-3.382c1.371-0.824 2.786-1.236 4.243-1.236z"></path>
</symbol>
<symbol id="icon-Burger" viewBox="0 0 46 32">
<path stroke-linejoin="miter" stroke-linecap="butt" stroke-miterlimit="4" stroke-width="2.2857" d="M0 2.286h45.714"></path>
<path stroke-linejoin="miter" stroke-linecap="butt" stroke-miterlimit="4" stroke-width="2.2857" d="M0 16h45.714"></path>
<path stroke-linejoin="miter" stroke-linecap="butt" stroke-miterlimit="4" stroke-width="2.2857" d="M0 29.714h45.714"></path>
</symbol>
<symbol id="icon-close" viewBox="0 0 32 32">
<path stroke-linejoin="miter" stroke-linecap="butt" stroke-miterlimit="4" stroke-width="2" d="M2.519 2l26.963 28"></path>
<path stroke-linejoin="miter" stroke-linecap="butt" stroke-miterlimit="4" stroke-width="2" d="M2 29.481l28-26.963"></path>
</symbol>
<symbol id="icon-telegram" viewBox="0 0 44 32">
<path fill="fff" style="fill: var(--color3, #fff)" d="M17.343 21.048l-0.675 8.86c0.966 0 1.384-0.387 1.885-0.852l4.527-4.038 9.381 6.412c1.72 0.895 2.933 0.424 3.397-1.477l6.157-26.929 0.002-0.002c0.546-2.374-0.92-3.302-2.596-2.72l-36.194 12.933c-2.47 0.895-2.433 2.18-0.42 2.762l9.253 2.686 21.494-12.552c1.011-0.625 1.931-0.279 1.175 0.346l-17.386 14.57z"></path>
</symbol>
<symbol id="icon-house" viewBox="0 0 35 32">
<path d="M34.253 15.613c0.599-0.659 0.541-1.669-0.129-2.255l-14.772-12.926c-0.671-0.586-1.745-0.574-2.402 0.028l-14.822 13.587c-0.656 0.602-0.689 1.611-0.071 2.252l0.372 0.387c0.617 0.642 1.613 0.718 2.224 0.17l1.108-0.992v14.523c0 0.891 0.722 1.613 1.612 1.613h5.778c0.89 0 1.612-0.721 1.612-1.613v-10.16h7.37v10.16c-0.013 0.89 0.624 1.612 1.515 1.612h6.123c0.89 0 1.613-0.722 1.613-1.613v-14.318c0 0 0.306 0.268 0.683 0.6s1.168 0.066 1.767-0.594l0.42-0.462z"></path>
</symbol>
<symbol id="icon-facebook" viewBox="0 0 16 32">
<path fill="fff" style="fill: var(--color3, #fff)" d="M14.143 15.972h-4.034v14.865h-6.112v-14.865h-2.907v-5.224h2.907v-3.381c0-2.418 1.142-6.203 6.166-6.203l4.527 0.019v5.071h-3.285c-0.539 0-1.296 0.271-1.296 1.424v3.075h4.567l-0.534 5.219z"></path>
</symbol>
<symbol id="icon-git" viewBox="0 0 32 32">
<path fill="fff" style="fill: var(--color3, #fff)" d="M16 0c-8.788 0-16 7.212-16 16 0 7.499 5.262 14.312 12.25 16v-5.293c-0.692 0.152-1.33 0.156-2.034-0.052-0.946-0.279-1.714-0.909-2.284-1.869-0.364-0.613-1.008-1.278-1.68-1.23l-0.165-1.868c1.453-0.124 2.711 0.886 3.457 2.14 0.332 0.558 0.713 0.884 1.203 1.029 0.473 0.14 0.982 0.072 1.574-0.137 0.149-1.186 0.692-1.63 1.102-2.255v-0.001c-4.167-0.622-5.828-2.832-6.488-4.578-0.874-2.317-0.405-5.212 1.14-7.041 0.030-0.036 0.084-0.129 0.063-0.194-0.708-2.139 0.155-3.909 0.187-4.097 0.817 0.242 0.95-0.243 3.551 1.337l0.449 0.27c0.188 0.112 0.129 0.048 0.317 0.034 1.086-0.295 2.23-0.458 3.358-0.472 1.136 0.015 2.273 0.178 3.404 0.484l0.145 0.015c-0.013-0.002 0.040-0.009 0.127-0.062 3.248-1.968 3.132-1.324 4.003-1.608 0.032 0.188 0.883 1.987 0.182 4.099-0.095 0.291 2.816 2.956 1.203 7.235-0.659 1.746-2.32 3.957-6.487 4.578v0.001c0.534 0.814 1.176 1.247 1.173 2.927v6.608c6.988-1.688 12.25-8.501 12.25-16 0-8.788-7.212-16-16-16v0z"></path>
</symbol>
<symbol id="icon-button2"><path d="M1 1l4 4-4 4" stroke="#D41443" stroke-width="2" stroke-linecap="round" stroke-linejoin="round"/></symbol>
<symbol id="icon-arrow-up" viewBox="0 0 32 32"><path d="M27.414 12.586l-10-10a2 2 0 00-2.828 0l-10 10a2 2 0 102.828 2.828L14 8.828V28a2 2 0 104 0V8.828l6.586 6.586c.39.39.902.586 1.414.586s1.024-.195 1.414-.586a2 2 0 000-2.828z"/></symbol>
<symbol id="icon-arrow-right" viewBox="0 0 32 32"><path d="M19.414 27.414l10-10a2 2 0 000-2.828l-10-10a2 2 0 10-2.828 2.828L23.172 14H4a2 2 0 100 4h19.172l-6.586 6.586c-.39.39-.586.902-.586 1.414s.195 1.024.586 1.414a2 2 0 002.828 0z"/></symbol>
<symbol id="icon-arrow-btn" viewBox="0 0 20 20"><path d="M12.95 10.707l.707-.707L8 4.343 6.586 5.757 10.828 10l-4.242 4.243L8 15.657l4.95-4.95z"/></symbol>
<symbol id="icon-ice-bucket" viewBox="0 0 32 32">
<path d="M31.522 5.87c-0.018-0.002-0.036-0.003-0.054-0.003h-0.846l0.156-0.156c0.208-0.208 0.208-0.546 0-0.754l-3.2-3.2c-0.208-0.208-0.546-0.208-0.754 0l-0.156 0.156v-1.379c0-0.295-0.239-0.533-0.533-0.533h-4.267c-0.295 0-0.533 0.239-0.533 0.533v0.313l-0.69-0.69c-0.208-0.208-0.546-0.208-0.754 0l-1.977 1.977h-1.379v-1.6c0-0.295-0.239-0.533-0.533-0.533h-4.267c-0.295 0-0.533 0.239-0.533 0.533v1.913l-0.267 0.267-2.556-2.556c-0.208-0.208-0.546-0.208-0.754 0l-1.756 1.756-0.69-0.69c-0.208-0.208-0.546-0.208-0.754 0l-3.2 3.2c-0.208 0.208-0.208 0.546 0 0.754l0.69 0.69h-1.379c-0.295 0-0.533 0.239-0.533 0.534 0 0.019 0.001 0.037 0.003 0.056l2.463 23.159c0.142 1.358 1.288 2.388 2.653 2.385h21.76c1.365 0.002 2.51-1.028 2.652-2.385l2.463-23.159c0.031-0.293-0.181-0.555-0.474-0.586zM26.511 3.578l0.69-0.69 2.446 2.446-0.533 0.533h-3.825l-0.533-0.533 1.756-1.756zM22.401 1.067h3.2v1.913l-0.533 0.533v-0.313c0-0.295-0.239-0.533-0.533-0.533h-1.379l-0.754-0.754v-0.846zM24.001 3.733v0.846l-0.377 0.377c-0.208 0.208-0.208 0.546 0 0.754l0.156 0.156h-2.979v-2.133h3.2zM18.511 3.044l1.757-1.757 1.379 1.379h-1.379c-0.295 0-0.533 0.239-0.533 0.533v2.446l-1.913-1.913 0.689-0.689zM16.847 3.2l-0.156 0.156c-0.208 0.208-0.208 0.546 0 0.754l1.756 1.756h-3.513v-2.667h1.913zM12.267 1.067h3.2v1.067h-1.067c-0.295 0-0.533 0.239-0.533 0.533v0.313l-1.223-1.223c-0.1-0.1-0.236-0.156-0.377-0.156v-0.533zM10.511 4.644l1.757-1.757 1.6 1.6v1.379h-3.513l-0.533-0.533 0.689-0.689zM8.001 1.287l1.379 1.379h-2.758l1.379-1.379zM6.401 3.733h3.2v0.313l-0.91 0.91c-0.208 0.208-0.208 0.546 0 0.754l0.156 0.156h-2.446v-2.133zM4.801 2.354l0.601 0.601c-0.042 0.075-0.065 0.159-0.067 0.245v2.667h-1.913l-1.067-1.067 2.446-2.446zM28.474 29.501c-0.086 0.815-0.774 1.433-1.593 1.433h-21.76c-0.818 0-1.505-0.617-1.591-1.431l-2.402-22.569h29.747l-2.401 22.567z"></path>
<path d="M18.134 10.646c-0.053-1.177-1.050-2.088-2.227-2.036-1.103 0.049-1.986 0.933-2.036 2.036-2.372 1.172-3.345 4.046-2.172 6.418 0.809 1.636 2.477 2.671 4.302 2.668 2.646 0.006 4.796-2.135 4.802-4.781 0.004-1.827-1.031-3.497-2.668-4.306zM16.001 9.6c0.589 0 1.067 0.478 1.067 1.067s-0.478 1.067-1.067 1.067-1.067-0.478-1.067-1.067 0.478-1.067 1.067-1.067zM19.24 16.793c-1.025 1.789-3.307 2.408-5.096 1.382s-2.408-3.307-1.382-5.096c0.33-0.575 0.807-1.053 1.382-1.382 0.559 1.025 1.843 1.404 2.868 0.845 0.357-0.195 0.651-0.488 0.845-0.845 1.789 1.025 2.408 3.307 1.382 5.096z"></path>
</symbol>
<symbol id="icon-popsicle" viewBox="0 0 32 32">
<path d="M31.999 8.632c-0.004-0.259-0.217-0.467-0.476-0.462-0.259 0.004-0.466 0.217-0.462 0.476 0.014 0.989-0.152 1.951-0.485 2.849-0.413-0.241-0.784-0.353-1.123-0.455-0.543-0.163-1.011-0.304-1.658-0.954s-0.788-1.12-0.951-1.664c-0.174-0.582-0.371-1.241-1.186-2.057s-1.472-1.015-2.052-1.189c-0.543-0.163-1.011-0.304-1.658-0.953s-0.788-1.12-0.951-1.664c-0.102-0.341-0.214-0.715-0.457-1.131 0.86-0.321 1.779-0.489 2.725-0.489 2.081 0 4.038 0.812 5.511 2.287 0 0 0.001 0.001 0.001 0.001 0.894 0.897 1.563 2.006 1.934 3.208 0.076 0.247 0.339 0.386 0.586 0.309s0.386-0.339 0.309-0.586c-0.416-1.344-1.162-2.584-2.159-3.586-0.001-0.001-0.002-0.002-0.003-0.003-1.651-1.656-3.845-2.567-6.18-2.567-2.333 0-4.527 0.911-6.176 2.566l-13.98 14.022c-0.182 0.183-0.182 0.479 0 0.662 0.647 0.649 0.788 1.12 0.951 1.664 0.174 0.582 0.371 1.241 1.185 2.057s1.472 1.015 2.052 1.189c0.091 0.027 0.18 0.054 0.269 0.083l-1.737 1.635c-0.189 0.177-0.198 0.474-0.020 0.663 0.092 0.098 0.217 0.148 0.341 0.148 0.115 0 0.231-0.042 0.321-0.127l1.992-1.874c0.154 0.112 0.317 0.251 0.493 0.427s0.313 0.338 0.424 0.493l-6.894 7.178c-0.168 0.177-0.396 0.276-0.639 0.279-0.243 0-0.473-0.091-0.645-0.264-0.174-0.174-0.267-0.406-0.264-0.652s0.104-0.475 0.281-0.643l3.592-3.38c0.189-0.177 0.198-0.474 0.020-0.663s-0.474-0.198-0.663-0.020l-3.593 3.381c-0.364 0.344-0.568 0.81-0.575 1.311s0.183 0.973 0.537 1.328c0.348 0.349 0.808 0.54 1.298 0.54 0.007 0 0.014-0 0.021-0 0.499-0.006 0.963-0.208 1.306-0.568l6.658-6.932c0.030 0.091 0.057 0.183 0.085 0.277 0.174 0.582 0.371 1.241 1.185 2.058s1.472 1.015 2.052 1.189c0.542 0.163 1.011 0.304 1.658 0.954 0.088 0.088 0.207 0.138 0.332 0.138s0.244-0.050 0.332-0.138l13.978-14.024c1.683-1.688 2.591-3.934 2.556-6.322zM25.823 17.258c-0.657-0.553-1.208-0.719-1.703-0.868-0.543-0.163-1.011-0.304-1.658-0.954s-0.788-1.12-0.951-1.664c-0.174-0.582-0.371-1.241-1.186-2.057-0.665-0.667-1.223-0.917-1.681-1.073-0.245-0.083-0.511 0.047-0.595 0.293s0.048 0.511 0.293 0.595c0.373 0.127 0.792 0.318 1.319 0.847 0.648 0.65 0.788 1.12 0.951 1.664 0.174 0.582 0.371 1.241 1.186 2.057s1.472 1.015 2.052 1.189c0.44 0.133 0.831 0.25 1.309 0.637l-1.496 1.501c-0.657-0.553-1.209-0.719-1.704-0.868-0.543-0.163-1.011-0.304-1.658-0.954s-0.788-1.12-0.951-1.664c-0.174-0.582-0.371-1.241-1.186-2.057s-1.472-1.015-2.052-1.189c-0.542-0.163-1.011-0.304-1.658-0.953s-0.788-1.12-0.951-1.664c-0.149-0.497-0.315-1.052-0.869-1.712l1.496-1.5c0.386 0.48 0.504 0.873 0.636 1.315 0.174 0.582 0.371 1.241 1.185 2.057 0.092 0.092 0.212 0.138 0.332 0.138s0.239-0.046 0.331-0.137c0.183-0.183 0.184-0.48 0.001-0.663-0.648-0.649-0.788-1.12-0.951-1.664-0.149-0.497-0.315-1.052-0.869-1.713l2.51-2.517c0.385 0.479 0.503 0.872 0.635 1.314 0.174 0.582 0.371 1.241 1.185 2.057s1.472 1.015 2.052 1.189c0.543 0.163 1.011 0.304 1.658 0.953s0.788 1.12 0.951 1.664c0.174 0.582 0.371 1.241 1.186 2.057s1.472 1.015 2.052 1.189c0.44 0.133 0.832 0.25 1.309 0.637zM9.43 13.529c0.174 0.582 0.371 1.241 1.185 2.057s1.472 1.015 2.052 1.189c0.542 0.163 1.011 0.304 1.658 0.953s0.788 1.12 0.951 1.664c0.174 0.582 0.371 1.241 1.185 2.057s1.472 1.015 2.052 1.189c0.44 0.133 0.832 0.25 1.31 0.637l-1.496 1.501c-0.658-0.554-1.209-0.72-1.705-0.869-0.543-0.163-1.011-0.304-1.658-0.954s-0.788-1.12-0.951-1.664c-0.174-0.582-0.371-1.241-1.185-2.057s-1.472-1.015-2.052-1.189c-0.543-0.163-1.011-0.304-1.658-0.953s-0.788-1.12-0.951-1.664c-0.149-0.498-0.315-1.052-0.869-1.713l1.496-1.5c0.386 0.48 0.504 0.873 0.636 1.315zM18.785 21.742c-0.543-0.163-1.011-0.304-1.658-0.954s-0.788-1.12-0.951-1.664c-0.174-0.582-0.371-1.241-1.185-2.057s-1.472-1.015-2.052-1.189c-0.543-0.163-1.011-0.304-1.658-0.953s-0.788-1.12-0.951-1.664c-0.149-0.498-0.315-1.052-0.87-1.713l2.51-2.517c0.386 0.479 0.503 0.872 0.635 1.314 0.174 0.582 0.371 1.241 1.185 2.057s1.472 1.015 2.052 1.189c0.543 0.163 1.011 0.304 1.658 0.953s0.788 1.12 0.951 1.664c0.174 0.582 0.371 1.241 1.186 2.057s1.472 1.015 2.052 1.189c0.44 0.133 0.832 0.25 1.31 0.637l-2.51 2.518c-0.657-0.553-1.209-0.719-1.704-0.868zM15.119 27.997c-0.658-0.555-1.21-0.721-1.706-0.87-0.542-0.163-1.011-0.304-1.658-0.954s-0.788-1.12-0.951-1.664c-0.174-0.582-0.371-1.241-1.185-2.058s-1.472-1.015-2.052-1.189c-0.542-0.163-1.011-0.304-1.658-0.953s-0.788-1.12-0.951-1.664c-0.149-0.497-0.315-1.052-0.869-1.713l2.544-2.552c0.386 0.48 0.504 0.873 0.636 1.315 0.174 0.582 0.371 1.241 1.185 2.057s1.472 1.015 2.052 1.189c0.543 0.163 1.011 0.304 1.658 0.953s0.788 1.12 0.951 1.664c0.174 0.582 0.371 1.241 1.185 2.057s1.472 1.015 2.052 1.189c0.441 0.133 0.832 0.25 1.311 0.638zM28.992 14.070c-0.655-0.55-1.205-0.716-1.699-0.864-0.543-0.163-1.011-0.304-1.658-0.954s-0.788-1.12-0.951-1.664c-0.174-0.582-0.371-1.241-1.186-2.057s-1.472-1.015-2.052-1.189c-0.543-0.163-1.011-0.304-1.658-0.953s-0.788-1.12-0.951-1.664c-0.148-0.496-0.314-1.049-0.865-1.707 0.519-0.482 1.092-0.886 1.706-1.206 0.223 0.351 0.316 0.665 0.421 1.016 0.174 0.582 0.371 1.241 1.185 2.057s1.472 1.015 2.052 1.189c0.543 0.163 1.011 0.304 1.658 0.953s0.788 1.12 0.951 1.664c0.174 0.582 0.371 1.241 1.185 2.057s1.472 1.015 2.052 1.189c0.349 0.105 0.661 0.199 1.011 0.421-0.318 0.615-0.721 1.19-1.202 1.712z"></path>
</symbol>
<symbol id="icon-weight" viewBox="0 0 32 32">
<path d="M30.5 25h-2.5v-12.762c1.763-0.636 3-2.295 3-4.243 0-2.485-2.015-4.5-4.5-4.5s-4.5 2.015-4.5 4.5c0 1.948 1.237 3.606 2.969 4.233l0.031 0.010v12.762h-2v-10c0-0.552-0.448-1-1-1v0h-4v-10c0-0.552-0.448-1-1-1v0h-9c-0.552 0-1 0.448-1 1v0 10h-4c-0.552 0-1 0.448-1 1v0 10h-0.5c-0.276 0-0.5 0.224-0.5 0.5v0 3c0 0.276 0.224 0.5 0.5 0.5v0h2.5v1.5c0 0.276 0.224 0.5 0.5 0.5v0h3.5c0.276 0 0.5-0.224 0.5-0.5v0-1.5h15.5v1.5c0 0.276 0.224 0.5 0.5 0.5v0h3c0.276 0 0.5-0.224 0.5-0.5v0-1.5h2.5c0.276 0 0.5-0.224 0.5-0.5v0-3c0-0.276-0.224-0.5-0.5-0.5v0zM23 8c0-1.933 1.567-3.5 3.5-3.5s3.5 1.567 3.5 3.5c0 1.933-1.567 3.5-3.5 3.5v0c-1.932-0.002-3.498-1.568-3.5-3.5v-0zM26 12.47c0.15 0.019 0.324 0.030 0.5 0.030s0.35-0.011 0.52-0.032l-0.020 0.002v12.53h-1zM22 25h-9v-10h2.5v4.5c0 0 0 0 0 0 0 0.276 0.224 0.5 0.5 0.5 0.103 0 0.2-0.031 0.279-0.085l-0.002 0.001 1.223-0.816 1.223 0.815c0.078 0.053 0.174 0.084 0.277 0.084 0.276 0 0.499-0.223 0.5-0.499v-4.5h2.5zM18.5 18.566l-0.723-0.482c-0.078-0.053-0.174-0.084-0.277-0.084s-0.2 0.031-0.279 0.085l0.002-0.001-0.723 0.482v-3.566h2zM13.5 4v3.566l-0.723-0.481c-0.078-0.053-0.174-0.084-0.277-0.084s-0.2 0.031-0.279 0.085l0.002-0.001-0.723 0.481v-3.566zM8 4h2.5v4.5c0 0 0 0 0 0 0 0.276 0.224 0.5 0.5 0.5 0.103 0 0.2-0.031 0.279-0.085l-0.002 0.001 1.223-0.816 1.223 0.815c0.078 0.053 0.174 0.084 0.277 0.084 0.276 0 0.499-0.223 0.5-0.499v-4.5h2.5v10h-9zM8.5 15v3.566l-0.723-0.482c-0.078-0.053-0.174-0.084-0.277-0.084s-0.2 0.031-0.279 0.085l0.002-0.001-0.723 0.482v-3.566zM3 15h2.5v4.5c0 0 0 0 0 0 0 0.276 0.224 0.5 0.5 0.5 0.103 0 0.2-0.031 0.279-0.085l-0.002 0.001 1.223-0.816 1.222 0.815c0.078 0.053 0.174 0.084 0.277 0.084 0.276 0 0.499-0.223 0.5-0.499v-4.5h2.5v10h-9zM7.5 30h-2.5v-1h2.5zM27 30h-2v-1h2zM30 28h-28v-2h28z"></path>
<path d="M27.5 8c-0.001-0.091-0.015-0.179-0.039-0.262l0.002 0.007 1.159-1.159c0.094-0.091 0.153-0.219 0.153-0.36 0-0.276-0.224-0.5-0.5-0.5-0.141 0-0.269 0.058-0.36 0.152l-1.159 1.159c-0.076-0.023-0.164-0.036-0.255-0.037h-0.001c-0.552 0-1 0.448-1 1s0.448 1 1 1c0.552 0 1-0.448 1-1v0z"></path>
</symbol>
<symbol id="icon-milk" viewBox="0 0 32 32">
<path d="M26.538 13.421c-0.198-0.239-0.492-0.378-0.802-0.378h-19.471c-0.31 0-0.604 0.139-0.802 0.378s-0.278 0.554-0.219 0.859l3.245 16.877c0.094 0.49 0.523 0.844 1.021 0.844h12.981c0.499 0 0.927-0.354 1.021-0.844l3.245-16.877c0.059-0.305-0.022-0.62-0.219-0.859zM24.344 15.123c-0.478 3.857-3.774 6.473-8.344 6.473s-7.866-2.616-8.344-6.473h16.688zM21.631 29.92h-11.263l-1.684-8.758c1.847 1.583 4.388 2.514 7.315 2.514s5.468-0.931 7.315-2.514l-1.684 8.758z"></path>
<path d="M7.53 7.891c0.521 0.521 1.213 0.807 1.949 0.807s1.428-0.287 1.949-0.807l0.287-0.287c0.488 0.267 0.999 0.488 1.529 0.659v1.111c0 1.52 1.236 2.756 2.756 2.756s2.756-1.236 2.756-2.756v-1.111c0.53-0.171 1.041-0.391 1.529-0.659l0.287 0.287c0.521 0.521 1.213 0.807 1.949 0.807s1.428-0.287 1.949-0.807c1.075-1.075 1.075-2.823 0-3.898l-0.347-0.347c0.503-0.732 0.811-1.256 0.811-2.606 0-0.574-0.466-1.040-1.040-1.040h-15.789c-0.574 0-1.040 0.466-1.040 1.040 0 1.35 0.308 1.874 0.811 2.606l-0.347 0.347c-1.075 1.075-1.075 2.823-0 3.898zM9.001 5.464l0.942-0.942c0.336-0.336 0.402-0.857 0.159-1.266-0.192-0.323-0.364-0.574-0.503-0.776-0.11-0.16-0.195-0.284-0.26-0.399h13.322c-0.065 0.116-0.15 0.239-0.26 0.399-0.139 0.201-0.311 0.452-0.503 0.776-0.243 0.409-0.177 0.93 0.159 1.266l0.942 0.942c0.128 0.128 0.198 0.297 0.198 0.478s-0.070 0.35-0.198 0.478c-0.128 0.128-0.297 0.198-0.478 0.198s-0.35-0.070-0.478-0.198l-0.866-0.866c-0.354-0.354-0.909-0.405-1.322-0.124-0.719 0.49-1.514 0.834-2.365 1.023-0.476 0.106-0.815 0.528-0.815 1.015v1.905c0 0.373-0.303 0.676-0.676 0.676s-0.676-0.303-0.676-0.676v-1.905c0-0.488-0.339-0.91-0.815-1.015-0.851-0.189-1.647-0.533-2.365-1.023-0.178-0.121-0.382-0.181-0.586-0.181-0.268 0-0.535 0.104-0.736 0.305l-0.866 0.866c-0.128 0.128-0.297 0.198-0.478 0.198s-0.35-0.070-0.478-0.198c-0.128-0.128-0.198-0.297-0.198-0.478s0.070-0.351 0.198-0.478z"></path>
</symbol>
</defs>
</svg>
