<svg aria-hidden="true" style="position: absolute; width: 0; height: 0; overflow: hidden;" version="1.1" xmlns="http://www.w3.org/2000/svg" xmlns:xlink="http://www.w3.org/1999/xlink">
<defs>
<symbol id="icon-fifthsvg" viewBox="0 0 27 32">
<path  d="M-0.103 31.759h26.785c0.133-3.055-0.087-8.123-1.964-10.535l-0.068-0.087-4.104-2.060c0.089-0.301 0.133-0.576 0.151-0.779 0.004-0.041 0.007-0.089 0.007-0.137 0-0.195-0.039-0.381-0.11-0.55l0.003 0.009c-0.677-1.62-2.109-2.472-2.897-2.835 0.24-0.484 0.395-1.003 0.469-1.534 0.456-0.131 0.805-0.489 0.921-0.942l0.002-0.009 0.479-1.947c0.025-0.096 0.039-0.206 0.039-0.319 0-0.252-0.071-0.488-0.194-0.688l0.003 0.006c-0.080-0.13-0.178-0.24-0.291-0.332l-0.002-0.002c1.35-3.068-0.912-5.96-1.035-6.113-2.449-2.648-5.544-2.153-5.708-2.123-4.466 0.935-6.189 4.358-5.216 8.372-0.211 0.233-0.34 0.543-0.34 0.884 0 0.112 0.014 0.221 0.040 0.325l-0.002-0.009 0.481 1.949c0.117 0.468 0.473 0.82 0.915 0.947 0.142 0.989 0.554 1.863 1.158 2.567l-0.006-0.007v1.543c-6.409 3.282-2.348 1.188-7.485 3.787-0.010 0.048-2.409 2.599-2.053 10.158l0.022 0.462zM25.751 30.789h-4.408v-1.852l2.915-6.675c1.461 2.425 1.515 7.053 1.493 8.527zM19.735 18.216c-0.17 1.955-1.241 1.364-1.903 2.869-0.52-0.572-0.677-1.258-0.537-1.993 0.253-1.349-0.571-1.749-0.367-3.166l0.031-0.032v-0.005c0.017-0.020 0.18-0.213 0.227-0.274 1.744 0.76 2.584 2.174 2.55 2.6zM10.379 16.681c0.793 0.559 1.778 0.894 2.842 0.894 1.017 0 1.963-0.306 2.75-0.831l-0.018 0.011c0.112 1.113 0.547 1.337 0.393 2.157-0.025 0.128-0.045 0.282-0.054 0.439l-0 0.010-3.002 3.383-3.838-4.327 0.927-0.483v-1.254zM9.172 12.539v-5.172c0.467-0.864 1.104-1.491 1.895-1.867 2.12 1.2 4.56 2.99 6.197 4.792-0.002 2.294 0.007 2.3-0.009 2.489l-0.001 0.012c-0.128 2.084-1.841 3.811-4.038 3.811-2.135 0-3.909-1.677-4.037-3.831-0.005-0.063-0.008-0.136-0.008-0.21 0-0.008 0-0.016 0-0.024v0.001zM8.574 18.886l4.716 5.317 3.167-3.569c0.072 0.209 0.173 0.405 0.289 0.596l-3.456 4.322-5.153-6.446 0.437-0.22zM18.23 11.759v-1.498l0.36-0.413c0.020 0.759 0.102-0.136-0.36 1.911zM12.561 1.733c0.192 0.012 2.765-0.391 4.799 1.805 0.080 0.1 1.736 2.233 1.071 4.567-0.228-1.039-0.625-2.369-1.252-3.004l-0.685 0.683c0.619 0.627 1.027 2.537 1.181 3.527-2.84-2.972-6.504-4.853-6.555-4.885-0.183 0.114-1.734 0.409-2.86 2.598l-0.053 0.104v1.608l-0.143 0.001c-0.715-3.455 0.655-6.199 4.497-7.004zM7.963 9.735l0.243 0.987v1.038l-0.405-1.64c-0.060-0.244 0.121-0.337 0.161-0.385zM7.253 19.549l6.037 7.551 4.085-5.109c0.445 0.398 0.658 0.454 1.6 0.939l-0.317-1.078c-0.081-0.273 0.239-0.713 0.431-0.914 0.433-0.238 0.789-0.568 1.050-0.966l0.007-0.011 3.333 1.673-3.102 7.1v2.055h-14.175v-2.055l-3.103-7.099 4.153-2.085zM2.32 22.265l2.916 6.673v1.851h-4.408c-0.022-1.473 0.033-6.1 1.492-8.525z"></path>
</symbol>
<symbol id="icon-firstsvg" viewBox="0 0 31 32">
<path  d="M30.151 4.961l-0.001-0.003c-0.007-0.017-0.015-0.032-0.025-0.046l0.001 0.001-0.003-0.003c-0.010-0.016-0.021-0.029-0.033-0.042l-4.807-4.806c-0.012-0.012-0.025-0.023-0.039-0.032l-0.001-0.001c-0.003-0.002-0.007-0.003-0.009-0.006-0.010-0.006-0.022-0.013-0.034-0.019l-0.002-0.001-0.011-0.004c-0.029-0.012-0.063-0.019-0.098-0.020h-21.177c-0.157 0-0.283 0.127-0.283 0.284 0 0 0 0 0 0v0 29.311c0 0.019 0.001 0.037 0.005 0.055l0.007 0.023 0.010 0.030c0.003 0.009 0.009 0.017 0.013 0.025 0.004 0.007 0.007 0.016 0.013 0.023 0.010 0.015 0.021 0.028 0.033 0.040l2.167 2.167c0.051 0.051 0.122 0.083 0.201 0.083s0.149-0.032 0.201-0.083v0l1.965-1.964 1.964 1.964c0.051 0.052 0.122 0.084 0.201 0.084s0.15-0.032 0.201-0.084l1.963-1.963 1.965 1.963c0.051 0.051 0.122 0.083 0.201 0.083s0.149-0.032 0.201-0.083v0l1.963-1.963 1.964 1.963c0.051 0.051 0.122 0.083 0.201 0.083s0.149-0.032 0.201-0.083v0l1.965-1.964 1.964 1.964c0.051 0.052 0.122 0.084 0.201 0.084s0.149-0.032 0.201-0.084l1.964-1.963 1.965 1.963c0.051 0.051 0.122 0.083 0.201 0.083s0.149-0.032 0.201-0.083v0l2.165-2.165 0.011-0.013c0.008-0.009 0.017-0.019 0.024-0.029 0.007-0.009 0.011-0.020 0.016-0.030 0.004-0.007 0.007-0.012 0.009-0.019 0.007-0.013 0.009-0.027 0.013-0.040l0.005-0.013c0.003-0.017 0.005-0.036 0.005-0.056 0-0 0-0.001 0-0.001v0-24.503c-0.001-0.039-0.009-0.077-0.023-0.111l0.001 0.002zM25.367 0.949l3.836 3.835h-3.836v-3.835zM29.604 29.456l-1.88 1.88-1.965-1.964c-0.051-0.051-0.122-0.083-0.201-0.083s-0.149 0.032-0.201 0.083v0l-1.963 1.964-1.964-1.964c-0.051-0.051-0.122-0.083-0.201-0.083s-0.149 0.032-0.201 0.083v0l-1.965 1.964-1.963-1.964c-0.051-0.052-0.122-0.084-0.201-0.084s-0.15 0.032-0.201 0.084v0l-1.963 1.964-1.965-1.964c-0.052-0.051-0.123-0.083-0.201-0.083s-0.149 0.032-0.201 0.083v0l-1.963 1.964-1.964-1.964c-0.052-0.051-0.123-0.083-0.201-0.083s-0.149 0.032-0.201 0.083v0l-1.964 1.964-1.88-1.88v-28.909h20.603v4.522c0 0.157 0.127 0.284 0.284 0.284h4.521v24.103z"></path>
<path  d="M6.313 3.234h9.303c0.157 0 0.284-0.127 0.284-0.284s-0.127-0.284-0.284-0.284h-9.303c-0.157 0-0.284 0.127-0.284 0.284s0.127 0.284 0.284 0.284v0zM6.313 4.991h14.92c0.157 0 0.284-0.127 0.284-0.284s-0.127-0.284-0.284-0.284h-14.92c-0.157 0-0.284 0.127-0.284 0.284s0.127 0.284 0.284 0.284v0zM6.029 6.568v9.199c0 0.157 0.127 0.284 0.285 0.284h21.172c0.157 0 0.284-0.127 0.284-0.284v0-9.199c0-0.157-0.127-0.284-0.284-0.284v0h-21.173c-0 0-0 0-0.001 0-0.157 0-0.284 0.127-0.284 0.284 0 0 0 0 0 0v0zM12.308 6.852h14.893v2.445h-14.893v-2.445zM12.308 9.865h14.893v2.444h-14.893v-2.444zM12.308 12.877h14.893v2.605h-14.893v-2.605zM6.598 6.852h5.142v2.445h-5.142v-2.445zM6.598 9.865h5.142v2.444h-5.142v-2.444zM6.598 12.877h5.142v2.605h-5.142v-2.605zM27.486 17.329h-21.173c-0 0-0 0-0.001 0-0.157 0-0.284 0.127-0.284 0.284 0 0 0 0 0 0v0 9.198c0 0.157 0.127 0.284 0.284 0.284s0.284-0.127 0.284-0.284v-2.889h5.143v2.889c0 0.157 0.127 0.284 0.284 0.284s0.284-0.127 0.284-0.284v0-2.889h14.893v2.889c0 0.157 0.127 0.284 0.284 0.284s0.284-0.127 0.284-0.284v0-9.198c0-0 0-0.001 0-0.001 0-0.156-0.127-0.283-0.283-0.283-0 0-0 0-0.001 0h0zM11.74 23.353h-5.142v-2.443h5.142v2.443zM11.74 20.341h-5.142v-2.444h5.142v2.444zM27.201 23.353h-14.893v-2.443h14.893v2.443zM27.201 20.341h-14.893v-2.444h14.893v2.444zM2.281-0.021c-0.157 0-0.284 0.127-0.284 0.284v29.311c0 0.157 0.127 0.284 0.284 0.284s0.284-0.127 0.284-0.284v0-29.311c0-0.157-0.127-0.284-0.284-0.284v0zM0.718-0.021c-0.157 0-0.284 0.127-0.284 0.284v29.311c0 0.157 0.127 0.284 0.284 0.284s0.284-0.127 0.284-0.284v0-29.311c0-0.157-0.127-0.284-0.284-0.284v0z"></path>
</symbol>
<symbol id="icon-fourthsvg" viewBox="0 0 33 32">
<path  d="M1.993 12.558v2.831c0 0.152 0.069 0.295 0.189 0.39 1.864 1.471 4.246 2.36 6.836 2.362h0c0.741 0 1.482-0.077 2.207-0.224 1.433 0.652 3.108 1.032 4.872 1.032 0.006 0 0.012 0 0.019 0h-0.001c1.707 0 3.351-0.349 4.89-1.032 3.091 0.625 6.385-0.046 9.043-2.138 0.116-0.092 0.189-0.232 0.189-0.39v0-2.831c0-0.415-0.207-0.794-0.575-1.027l-3.867-2.176c0.846-1.073 1.476-2.602 1.586-3.913 0.321-2.256-1.519-4.646-4.166-4.646-1.113 0-2.171 0.459-2.947 1.227-0.027 0.027-0.058 0.049-0.084 0.077-0.024 0.025-0.043 0.054-0.067 0.080-0.015 0.017-0.029 0.035-0.044 0.053-0.757-1.381-2.211-2.233-3.925-2.233-0.167 0-0.329 0.011-0.491 0.028-0.010-0.001-0.019-0.006-0.029-0.006-0.092 0-0.287 0.025-0.391 0.055-0.015 0.004-0.027 0.015-0.041 0.021-1.296 0.262-2.369 1.054-3.002 2.135l-0.011 0.021c-0.77-0.894-1.904-1.457-3.169-1.457-0.003 0-0.007 0-0.010 0h0.001c-3.908 0-5.642 4.612-2.557 8.581l-3.903 2.167c-0.347 0.219-0.553 0.599-0.553 1.014zM20.997 16.828c-0.084 0.041-0.167 0.085-0.251 0.123l-0.002 0.001c-1.349 0.635-2.929 1.006-4.596 1.006-0.011 0-0.022-0-0.033-0h0.002c-0.007 0-0.016 0-0.025 0-2.509 0-4.823-0.837-6.677-2.248l0.027 0.020v-2.87c0-0.097 0.047-0.184 0.102-0.221l4.542-2.525c0.565 0.48 1.287 0.832 2.035 0.832 0.72 0 1.499-0.357 2.052-0.843l4.487 2.52c0.083 0.053 0.131 0.139 0.131 0.237v2.87c-0.52 0.395-1.108 0.76-1.729 1.069l-0.064 0.029zM29.154 12.381c0.056 0.037 0.092 0.099 0.092 0.169 0 0.003-0 0.005-0 0.008v-0 2.587c-1.969 1.477-4.337 2.148-6.737 1.98 0.419-0.265 0.772-0.515 1.111-0.782l-0.028 0.022c0.116-0.092 0.19-0.232 0.19-0.39v-3.115c0-0.435-0.219-0.835-0.611-1.087l-2.383-1.339 0.58-0.321c0.703 0.573 1.307 0.744 1.848 0.744 0.663 0 1.36-0.325 1.878-0.759l4.060 2.284zM23.216 1.788c1.381 0 2.593 0.902 3.021 2.142-0.889-0.115-1.664-0.531-2.235-1.14l-0.002-0.002c-0.091-0.097-0.22-0.158-0.363-0.158-0.18 0-0.338 0.096-0.425 0.24l-0.001 0.002c-0.546 0.916-1.456 1.567-2.524 1.757l-0.022 0.003-0.001-0.003c0-0.025 0.001-0.054 0.001-0.083 0-0.201-0.012-0.399-0.036-0.594l0.002 0.023-0.007-0.066c-0.034-0.24-0.076-0.446-0.13-0.647l0.009 0.038c0.563-0.902 1.609-1.513 2.713-1.513zM20.556 5.643c1.291-0.143 2.407-0.797 3.157-1.751l0.008-0.010c0.767 0.629 1.74 1.010 2.701 1.056-0.007 1.792-1.471 4.927-3.206 4.927-1.337 0-2.479-1.912-2.905-3.238 0.109-0.341 0.187-0.669 0.245-0.983zM20.657 9.373l-0.886 0.491-0.895-0.503c0.332-0.413 0.636-0.893 0.897-1.413 0.25 0.527 0.551 1.010 0.884 1.425zM19.32 6.465c-0.478 1.427-1.705 3.49-3.2 3.49-1.742 0-3.225-2.864-3.508-4.696 0.075-0.019 2.429 0.127 4.049-2.001 0.823 0.688 1.932 1.143 3.011 1.188 0.013 0.647-0.144 1.407-0.352 2.019zM16.149 0.991c2.78 0 3.309 2.393 3.353 2.443-1.017-0.113-1.908-0.58-2.561-1.274l-0.002-0.002c-0.091-0.097-0.219-0.157-0.362-0.157-0.181 0-0.339 0.097-0.426 0.242l-0.001 0.002c-0.533 0.901-1.379 1.569-2.385 1.86l-0.029 0.007c-0.342 0.097-0.734 0.153-1.14 0.153-0.009 0-0.019-0-0.028-0h0.001c0.136-1.821 1.596-3.273 3.58-3.273zM12.461 7.938c0.257 0.515 0.563 1.007 0.913 1.439l-0.875 0.487-0.907-0.51c0.321-0.411 0.61-0.876 0.849-1.369l0.020-0.046zM9.006 1.788c1.125 0 2.155 0.571 2.729 1.514-0.029 0.1-0.107 0.498-0.117 0.548-0.723-0.179-1.343-0.552-1.819-1.061l-0.002-0.002c-0.091-0.097-0.219-0.157-0.362-0.157-0.181 0-0.339 0.097-0.425 0.242l-0.001 0.002c-0.657 1.090-1.832 1.81-3.177 1.815h-0.001c0.158-1.627 1.518-2.9 3.174-2.9zM5.876 5.677c1.475-0.018 2.784-0.712 3.635-1.786l0.007-0.010c0.57 0.468 1.265 0.806 2.027 0.956l0.029 0.005c0.029 0.575 0.179 1.273 0.35 1.789-0.273 0.84-0.799 1.84-1.451 2.505-0.004 0.004-0.009 0.006-0.013 0.010-0.408 0.43-0.988 0.719-1.444 0.719-1.594 0-2.841-2.508-3.14-4.188zM2.985 12.558c0-0.075 0.033-0.139 0.067-0.162l4.116-2.284c0.247 0.206 0.304 0.229 0.353 0.265 0.485 0.323 0.929 0.483 1.534 0.483 0.645 0 1.233-0.273 1.749-0.694 0.029-0.023 0.060-0.045 0.088-0.068l0.587 0.33-2.447 1.361c-0.353 0.229-0.584 0.622-0.584 1.069 0 0.001 0 0.002 0 0.003v-0 3.115c0 0.152 0.070 0.295 0.19 0.389 0.317 0.249 0.727 0.539 1.083 0.761-2.434 0.167-4.803-0.528-6.737-1.98v-2.587z"></path>
<path  d="M31.259 20.781c-0.312-0.2-0.693-0.319-1.102-0.319-0.329 0-0.641 0.077-0.917 0.215l0.012-0.005-6.12 2.957c-0.022-1.147-0.956-2.069-2.106-2.071l-3.51 0.001c-1.73-1.504-3.941-2.425-5.952-2.473-1.983-0.047-3.762-0.060-4.592-0.064v-1.002h-6.972v11.517h6.972v-1.379c1.911 1.098 6.939 3.845 9.325 3.845 0.053 0 0.107-0.001 0.157-0.005 4.196-0.235 14.091-7.198 14.743-7.66 0.622-0.367 1.033-1.033 1.034-1.796v-0c0-0.002 0-0.004 0-0.006 0-0.736-0.385-1.382-0.965-1.747l-0.009-0.005zM5.98 28.543h-4.988v-9.533h4.988v9.533zM30.687 23.485c-0.017 0.009-0.031 0.018-0.045 0.028l0.001-0.001c-0.103 0.073-10.281 7.271-14.245 7.493-0.035 0.002-0.077 0.003-0.12 0.003h-0c-2.093 0-7.195-2.753-9.307-4.001v-6.997c0.827 0.003 2.596 0.017 4.569 0.063 1.837 0.045 3.876 0.921 5.455 2.346l0.141 0.128 3.888-0.001c0.618 0.001 1.118 0.501 1.119 1.119v0c-0 0.618-0.501 1.119-1.119 1.119h-7.142v0.991h7.142c0.685 0 1.288-0.333 1.673-0.839l6.984-3.373c0.138-0.070 0.301-0.112 0.474-0.112 0.214 0 0.413 0.063 0.579 0.172l-0.004-0.003c0.323 0.202 0.508 0.537 0.508 0.918-0.001 0.404-0.221 0.756-0.548 0.943l-0.005 0.003zM16.611 12.159h-0.991v0.92h0.991v-0.92zM16.611 13.992h-0.991v0.92h0.991v-0.92zM16.611 15.827h-0.991v0.919h0.991v-0.92z"></path>
</symbol>
<symbol id="icon-secondsvg" viewBox="0 0 33 32">
<path  d="M30.175-0.128h-15.746c-1.026 0.001-1.858 0.833-1.859 1.859v6.519l-11.699 4.909c-0.139 0.059-0.235 0.194-0.235 0.352 0 0.139 0.074 0.26 0.185 0.326l0.002 0.001 1.492 0.893v9.516c-0.77 0.181-1.334 0.861-1.335 1.673v0.917c0 0.211 0.17 0.381 0.381 0.381h2.671c0.211 0 0.381-0.171 0.381-0.381v0-0.917c0-0.816-0.573-1.498-1.337-1.673v-9.060l1.18 0.706c-0.037 0.272-0.005-0.474-0.017 4.43 0 1.612 4.129 2.476 8.33 2.525v7.425c0 1.025 0.832 1.856 1.857 1.856 0 0 0.001 0 0.001 0h15.745c1.025-0.001 1.857-0.832 1.857-1.857v-0c0 0.051-0.002-1.573 0-28.539 0-1.012-0.836-1.859-1.856-1.859zM3.651 25.918v0.537h-1.908v-0.537c0-0.528 0.427-0.957 0.952-0.957 0.528 0 0.957 0.43 0.957 0.957zM30.175 31.364h-15.746c-0.378 0-0.711-0.191-0.909-0.481-0.117-0.171-0.187-0.383-0.187-0.61 0-0.001 0-0.001 0-0.002v0-2.574h17.934v2.575c0 0.596-0.497 1.092-1.092 1.092zM31.267 26.935h-17.935v-4.086c2.051-0.023 8.335-0.475 8.335-2.527-0.003-3.080 0.005-4.33-0.010-4.436l3.421-2.049c0.111-0.068 0.184-0.189 0.184-0.326 0-0.157-0.095-0.292-0.23-0.35l-0.002-0.001-11.698-4.91v-3.182h17.935v21.868zM12.951 17.792c-2.113 0-6.182 0.273-7.949 1.427 0.011-3.53-0.123-3.3 0.312-3.6 1.098-0.808 4.239-1.373 7.637-1.373 1.482 0 7.954 0.407 7.954 1.777v3.196c-1.784-1.165-5.832-1.428-7.954-1.428zM13.332 1.731c0.001-0.605 0.491-1.095 1.096-1.095 0 0 0 0 0 0h15.745c0.605 0 1.093 0.498 1.093 1.095v2.574h-17.934v-2.574zM12.951 8.915l11.090 4.655-2.748 1.644c-1.461-1.449-6.294-1.729-8.342-1.729-2.051 0-6.884 0.281-8.342 1.729l-2.749-1.644 11.091-4.655zM5.002 20.321c0-0.616 2.73-1.768 7.949-1.768 5.222 0 7.954 1.151 7.954 1.767s-2.732 1.768-7.954 1.768c-5.219 0-7.949-1.151-7.949-1.768z"></path>
<path  d="M22.301 28.271c-0.694 0-1.26 0.565-1.26 1.26s0.565 1.26 1.26 1.26 1.26-0.565 1.26-1.26c0-0.694-0.565-1.26-1.26-1.26zM22.301 30.030c-0.264-0.014-0.473-0.232-0.473-0.498s0.209-0.484 0.472-0.498l0.001-0c0.275 0 0.498 0.223 0.498 0.498s-0.223 0.498-0.498 0.498v0zM23.755 2.090h-2.907v0.762h2.907v-0.762z"></path>
</symbol>
<symbol id="icon-sixthsvg" viewBox="0 0 39 32">
<path  d="M3.047 29.453h12.23c0.618 1.262 1.893 2.115 3.367 2.115 0.005 0 0.009 0 0.014-0h0.773c0.004 0 0.009 0 0.014 0 1.474 0 2.748-0.854 3.356-2.093l0.010-0.022h12.237c1.262-0.001 2.285-1.024 2.286-2.286v-21.905c-0.002-1.262-1.024-2.284-2.286-2.285h-1.234v-1.021c-0.001-0.841-0.683-1.523-1.524-1.523h-26.491c-0.841 0.001-1.523 0.682-1.524 1.523v1.021h-1.227c-1.262 0.001-2.285 1.023-2.287 2.285v21.905c0.001 1.262 1.024 2.285 2.287 2.286h0zM32.287 24.751h-12.477v-17.705c2.885 0.377 5.121 2.845 5.121 5.831v0.687l-0.181-0.040c-0.049-0.011-0.106-0.018-0.164-0.018-0.363 0-0.666 0.253-0.743 0.593l-0.001 0.005-1.213 5.52c-0.011 0.049-0.018 0.105-0.018 0.163 0 0.362 0.253 0.666 0.593 0.743l0.005 0.001 2.621 0.578c0.136 0.029 0.273 0.043 0.411 0.043 0.921 0 1.707-0.631 1.907-1.535l0.702-3.192c0.029-0.125 0.045-0.269 0.045-0.417 0-0.929-0.648-1.706-1.517-1.904l-0.013-0.003-0.912-0.201v-1.023c0-3.827-2.917-6.987-6.645-7.371v-3.551h12.48l-0.001 22.796zM25.167 15.177l1.871 0.412c0.233 0.052 0.377 0.275 0.325 0.508l-0.702 3.191c-0.051 0.231-0.306 0.374-0.507 0.331l-1.873-0.413 0.886-4.029zM5.799 1.955h12.487v3.55c-3.731 0.381-6.651 3.542-6.651 7.372v1.022l-0.913 0.202c-0.517 0.115-0.947 0.425-1.218 0.846l-0.005 0.008c-0.193 0.295-0.307 0.657-0.307 1.045 0 0.15 0.017 0.297 0.050 0.437l-0.003-0.013 0.7 3.189c0.199 0.887 0.98 1.539 1.913 1.539 0.146 0 0.288-0.016 0.425-0.046l-0.013 0.002 2.61-0.577c0.344-0.078 0.598-0.381 0.598-0.744 0-0.058-0.006-0.114-0.018-0.168l0.001 0.005-1.213-5.519c-0.077-0.345-0.381-0.598-0.743-0.598-0.058 0-0.115 0.007-0.17 0.019l0.005-0.001-0.174 0.038v-0.685c0-2.988 2.24-5.458 5.128-5.832v17.707h-12.488v-22.797zM12.916 15.177l0.887 4.029-1.863 0.411c-0.027 0.006-0.058 0.009-0.090 0.009-0.205 0-0.377-0.143-0.421-0.334l-0.001-0.003-0.702-3.196c-0.007-0.028-0.011-0.060-0.011-0.094 0-0.084 0.025-0.161 0.067-0.227l-0.001 0.002c0.061-0.094 0.155-0.161 0.265-0.186l0.003-0.001 1.867-0.412zM2.286 5.262c0-0.42 0.341-0.762 0.761-0.762h1.227v20.251c0.001 0.842 0.683 1.524 1.525 1.524h26.491c0.841-0.001 1.523-0.682 1.524-1.523v-20.252h1.234c0.421 0 0.762 0.342 0.762 0.762v21.905c0 0.42-0.341 0.762-0.762 0.762h-12.754c-0.335 0-0.631 0.219-0.729 0.539-0.285 0.92-1.129 1.577-2.126 1.577-0.003 0-0.006 0-0.009-0h-0.772c-0.001 0-0.002 0-0.004 0-1.002 0-1.849-0.661-2.13-1.571l-0.004-0.016c-0.101-0.31-0.388-0.529-0.725-0.529h-12.747c-0.421 0-0.762-0.342-0.762-0.762v-21.905z"></path>
</symbol>
<symbol id="icon-thirdsvg" viewBox="0 0 46 32">
<path  d="M20.267 4.608h-13.64v1.021h13.64v-1.021zM20.267 8.416h-11.597v1.021h11.597v-1.021zM20.267 12.224h-13.64v1.021h13.64v-1.021zM20.267 16.032h-11.597v1.021h11.597v-1.021zM20.267 19.84h-13.64v1.021h13.64v-1.021zM20.267 23.648h-11.597v1.021h11.597v-1.021zM38.99 4.608h-13.64v1.021h13.64v-1.021zM36.947 8.416h-11.597v1.021h11.596v-1.021zM38.99 12.224h-13.64v1.021h13.64v-1.021zM36.947 16.032h-11.597v1.021h11.596v-1.021zM38.99 19.84h-13.64v1.021h13.64v-1.021zM36.947 23.648h-11.597v1.021h11.596v-1.021z"></path>
<path  d="M43.915 3.445h-1.872v-2.812c0-0.282-0.229-0.511-0.511-0.511v0h-15.265c-0.005-0-0.011-0-0.018-0-1.469 0-2.75 0.802-3.43 1.991l-0.010 0.019c-0.691-1.209-1.973-2.011-3.442-2.011-0.006 0-0.012 0-0.017 0h-15.264c-0.282 0-0.511 0.229-0.511 0.511v0 2.812h-1.873c-0.282 0-0.511 0.229-0.511 0.511v0 27.411c0 0.282 0.229 0.511 0.511 0.511h42.213c0.282-0 0.51-0.229 0.51-0.511 0 0 0 0 0 0v0-27.411c0-0.282-0.229-0.511-0.511-0.511v0zM26.267 1.144h14.753v27.349h-15.842c-0.703 0-1.405 0.296-1.859 0.68v-25.088c0-0.003 0-0.006 0-0.009 0-1.619 1.313-2.932 2.932-2.932 0.005 0 0.010 0 0.015 0h-0.001zM4.596 1.144h14.753c0.006-0 0.013-0 0.020-0 1.581 0 2.869 1.255 2.922 2.824l0 0.005c0.001 0.022 0.003 0.091 0.007 0.113v25.087c-0.453-0.383-1.148-0.678-1.852-0.678h-15.85v-27.35zM2.213 4.467h1.362v24.538c0 0.282 0.229 0.511 0.511 0.511h16.36c0.779 0 1.531 0.511 1.772 1.341h-20.005v-26.389zM43.404 30.856h-20.004c0.227-0.78 0.936-1.341 1.775-1.341 0.001 0 0.002 0 0.003 0h16.353c0 0 0 0 0.001 0 0.282 0 0.511-0.229 0.511-0.511v0-24.538h1.361v26.389z"></path>
</symbol>
</defs>
</svg>
