<svg aria-hidden="true" style="position: absolute; width: 0; height: 0; overflow: hidden;" version="1.1"
    xmlns="http://www.w3.org/2000/svg" xmlns:xlink="http://www.w3.org/1999/xlink">
    <defs>
        <symbol id="icon-gg_menu-left" viewBox="0 0 32 32">
            <path fill="#fff" style="fill: var(--color1, #fff)"
                d="M2.667 7.993c0-0.733 0.595-1.327 1.327-1.327h10.68c0.352 0 0.689 0.14 0.938 0.389s0.389 0.586 0.389 0.938c0 0.352-0.14 0.689-0.389 0.938s-0.586 0.389-0.938 0.389h-10.68c-0.352 0-0.689-0.14-0.938-0.389s-0.389-0.586-0.389-0.938zM2.667 16c0-0.733 0.595-1.327 1.327-1.327h24.013c0.352 0 0.689 0.14 0.938 0.389s0.389 0.586 0.389 0.938c0 0.352-0.14 0.689-0.389 0.938s-0.586 0.389-0.938 0.389h-24.013c-0.352 0-0.689-0.14-0.938-0.389s-0.389-0.586-0.389-0.938zM3.993 22.68c-0.352 0-0.689 0.14-0.938 0.389s-0.389 0.586-0.389 0.938c0 0.352 0.14 0.689 0.389 0.938s0.586 0.389 0.938 0.389h16.013c0.352 0 0.689-0.14 0.938-0.389s0.389-0.586 0.389-0.938c0-0.352-0.14-0.689-0.389-0.938s-0.586-0.389-0.938-0.389h-16.013z">
            </path>
        </symbol>
        <symbol id="icon-x" viewBox="0 0 32 32">
            <path fill="none" stroke="#fff" style="stroke: var(--color1, #fff)" stroke-linejoin="round"
                stroke-linecap="round" stroke-miterlimit="4" stroke-width="1.7333" d="M24 8l-16 16"></path>
            <path fill="none" stroke="#fff" style="stroke: var(--color1, #fff)" stroke-linejoin="round"
                stroke-linecap="round" stroke-miterlimit="4" stroke-width="1.7333" d="M8 8l16 16"></path>
        </symbol>
    </defs>
    <symbol id="icon-button-prev-2" viewBox="0 0 32 32">
        <path fill="none" stroke="#fff" style="stroke: var(--color1, #fff)" stroke-linejoin="miter"
            stroke-linecap="butt" stroke-miterlimit="4" stroke-width="0.9412"
            d="M8.471 0.471h15.059c4.418 0 8 3.582 8 8v15.059c0 4.418-3.582 8-8 8h-15.059c-4.418 0-8-3.582-8-8v-15.059c0-4.418 3.582-8 8-8z">
        </path>
        <path fill="none" stroke="#fff" style="stroke: var(--color1, #fff)" stroke-linejoin="round"
            stroke-linecap="round" stroke-miterlimit="4" stroke-width="0.9412"
            d="M18.118 20.235l-4.235-4.235 4.235-4.235"></path>
    </symbol>
    <symbol id="icon-button-next" viewBox="0 0 32 32">
        <path fill="none" stroke="#fff" style="stroke: var(--color1, #fff)" stroke-linejoin="miter"
            stroke-linecap="butt" stroke-miterlimit="4" stroke-width="0.9412"
            d="M8.471 0.471h15.059c4.418 0 8 3.582 8 8v15.059c0 4.418-3.582 8-8 8h-15.059c-4.418 0-8-3.582-8-8v-15.059c0-4.418 3.582-8 8-8z">
        </path>
        <path fill="none" stroke="#fff" style="stroke: var(--color1, #fff)" stroke-linejoin="round"
            stroke-linecap="round" stroke-miterlimit="4" stroke-width="0.9412"
            d="M13.882 20.235l4.235-4.235-4.235-4.235"></path>
    </symbol>
</svg>