<svg width="52" height="52" viewBox="0 0 52 52" fill="none" xmlns="http://www.w3.org/2000/svg">
<path fill-rule="evenodd" clip-rule="evenodd" d="M14.0632 1.5H13.5632V2C13.5632 2.18813 13.5539 2.37943 13.544 2.5828V2.58281L13.5366 2.73687C13.525 2.9895 13.5158 3.26113 13.5337 3.51925C13.5686 4.02187 13.7192 4.637 14.3396 4.94721C14.7765 5.16567 15.2783 5.58595 15.4683 6.10837C15.6353 6.56767 15.6103 7.24579 14.7096 8.14645C13.1702 9.68585 13.2351 11.4806 14.1477 12.5479C14.5923 13.068 15.2366 13.4023 15.9449 13.3961C16.6629 13.3898 17.3756 13.0348 17.9536 12.3123C18.8038 11.2497 20.0632 11.0385 21.1275 11.4642C22.1914 11.8898 23.0632 12.9584 23.0632 14.5C23.0632 15.9488 23.371 17.0241 23.9202 17.7511C24.469 18.4777 25.2232 18.8076 26.0054 18.8297L26.0054 18.8307L26.0316 18.8303L26.0578 18.8307L26.0578 18.8297C26.84 18.8076 27.5942 18.4777 28.143 17.7511C28.6922 17.0241 29 15.9488 29 14.5C29 12.9584 29.8718 11.8898 30.9357 11.4642C32 11.0385 33.2594 11.2497 34.1096 12.3123C34.6876 13.0348 35.4003 13.3898 36.1183 13.3961C36.8266 13.4023 37.4709 13.068 37.9155 12.5479C38.8281 11.4806 38.893 9.68585 37.3536 8.14645C36.4529 7.24579 36.4279 6.56767 36.5949 6.10837C36.7849 5.58595 37.2867 5.16567 37.7236 4.94721C38.344 4.637 38.4946 4.02187 38.5295 3.51925C38.5474 3.26113 38.5382 2.9895 38.5266 2.73687L38.5192 2.58277V2.58275C38.5093 2.3794 38.5 2.18811 38.5 2V1.5H38H26.0632H26H14.0632ZM27.3451 17.1483C26.9942 17.6129 26.5339 17.8155 26.0316 17.8301C25.5293 17.8155 25.069 17.6129 24.7181 17.1483C24.3466 16.6566 24.0632 15.8237 24.0632 14.5C24.0632 12.5416 22.935 11.1102 21.4989 10.5358C20.0632 9.96148 18.3226 10.2503 17.1728 11.6877C16.7508 12.2152 16.3058 12.3929 15.9361 12.3961C15.5567 12.3995 15.1833 12.2204 14.9077 11.8981C14.3799 11.2808 14.1948 10.0755 15.4167 8.85355C16.5161 7.75421 16.7411 6.68233 16.4081 5.76663C16.0981 4.91405 15.3499 4.33433 14.7868 4.05279C14.6587 3.98874 14.5593 3.85387 14.5313 3.45006C14.5178 3.25496 14.524 3.03426 14.5355 2.78287L14.5423 2.64243L14.5491 2.5H26H26.0632H37.5141L37.5209 2.64243L37.5277 2.78287C37.5392 3.03426 37.5454 3.25496 37.5319 3.45006C37.5039 3.85387 37.4045 3.98874 37.2764 4.05279C36.7133 4.33433 35.9651 4.91405 35.6551 5.76663C35.3221 6.68233 35.5471 7.75421 36.6464 8.85355C37.8684 10.0755 37.6832 11.2808 37.1555 11.8981C36.8799 12.2204 36.5065 12.3995 36.1271 12.3961C35.7574 12.3929 35.3124 12.2152 34.8904 11.6877C33.7406 10.2503 32 9.96148 30.5643 10.5358C29.1282 11.1102 28 12.5416 28 14.5C28 15.8237 27.7166 16.6566 27.3451 17.1483ZM9.77619 23.8198C9.57213 22.8845 10.2845 22 11.2417 22H40.2802C41.2268 22 41.9367 22.866 41.7511 23.7942L36.6511 49.2942C36.5108 49.9953 35.8952 50.5 35.1802 50.5H16.8053C16.1001 50.5 15.4902 50.0088 15.3398 49.3197L9.77619 23.8198ZM16.3168 49.1066L10.9114 24.3318C12.5815 29.1361 14.9112 32.5154 17.5854 34.6504C20.4805 36.9617 23.7542 37.7928 26.9522 37.4108C32.2877 36.7735 37.3379 32.78 40.1242 26.8296L35.6705 49.0981C35.6237 49.3318 35.4185 49.5 35.1802 49.5H16.8053C16.5703 49.5 16.3669 49.3363 16.3168 49.1066ZM40.2802 23C40.348 23 40.4122 23.0133 40.4706 23.0374C38.3317 30.6063 32.675 35.7201 26.8336 36.4179C23.9006 36.7682 20.8945 36.0126 18.2093 33.8689C15.5428 31.7401 13.1681 28.2214 11.5239 23H40.2802Z" fill="#ffa5ba"/>
<path d="M13.5632 1.5V0.5H12.5632V1.5H13.5632ZM13.544 2.5828L12.5451 2.53411L12.544 2.55844V2.5828H13.544ZM13.544 2.58281L14.5428 2.63058L14.544 2.60671V2.58281H13.544ZM13.5366 2.73687L12.5377 2.6891L12.5376 2.69088L13.5366 2.73687ZM13.5337 3.51925L14.5313 3.45006V3.45006L13.5337 3.51925ZM14.3396 4.94721L13.8924 5.84164L13.8924 5.84164L14.3396 4.94721ZM15.4683 6.10837L16.4081 5.76663L16.4081 5.76663L15.4683 6.10837ZM14.7096 8.14645L15.4167 8.85355V8.85355L14.7096 8.14645ZM14.1477 12.5479L13.3876 13.1978H13.3876L14.1477 12.5479ZM15.9449 13.3961L15.9537 14.3961H15.9537L15.9449 13.3961ZM17.9536 12.3123L18.7345 12.937L17.9536 12.3123ZM21.1275 11.4642L21.4989 10.5358L21.4989 10.5358L21.1275 11.4642ZM23.9202 17.7511L23.1222 18.3538L23.9202 17.7511ZM26.0054 18.8297L27.0053 18.8185L26.9946 17.8573L26.0337 17.8301L26.0054 18.8297ZM26.0054 18.8307L25.0055 18.8419L25.0167 19.8458L26.0205 19.8306L26.0054 18.8307ZM26.0316 18.8303L26.0467 17.8305L26.0316 17.8302L26.0165 17.8305L26.0316 18.8303ZM26.0578 18.8307L26.0427 19.8306L27.0465 19.8458L27.0577 18.8419L26.0578 18.8307ZM26.0578 18.8297L26.0295 17.8301L25.0686 17.8573L25.0579 18.8185L26.0578 18.8297ZM28.143 17.7511L28.9409 18.3538L28.143 17.7511ZM30.9357 11.4642L30.5643 10.5358L30.5643 10.5358L30.9357 11.4642ZM34.1096 12.3123L33.3287 12.937L34.1096 12.3123ZM36.1183 13.3961L36.1095 14.3961H36.1095L36.1183 13.3961ZM37.9155 12.5479L38.6756 13.1978L37.9155 12.5479ZM37.3536 8.14645L38.0607 7.43934V7.43934L37.3536 8.14645ZM36.5949 6.10837L35.6551 5.76663L35.6551 5.76663L36.5949 6.10837ZM37.7236 4.94721L38.1708 5.84164L37.7236 4.94721ZM38.5295 3.51925L39.5271 3.58844L39.5271 3.58844L38.5295 3.51925ZM38.5266 2.73687L39.5256 2.69088L39.5255 2.6891L38.5266 2.73687ZM38.5192 2.58277H37.5192V2.60667L37.5204 2.63054L38.5192 2.58277ZM38.5192 2.58275H39.5192V2.55839L39.5181 2.53406L38.5192 2.58275ZM38.5 1.5H39.5V0.5H38.5V1.5ZM26.0316 17.8301L26.0025 18.8296L26.0316 18.8305L26.0607 18.8296L26.0316 17.8301ZM27.3451 17.1483L28.143 17.7511L28.143 17.7511L27.3451 17.1483ZM24.7181 17.1483L23.9202 17.7511L23.9202 17.7511L24.7181 17.1483ZM21.4989 10.5358L21.1275 11.4642H21.1275L21.4989 10.5358ZM17.1728 11.6877L17.9536 12.3123L17.1728 11.6877ZM15.9361 12.3961L15.9449 13.3961H15.9449L15.9361 12.3961ZM14.9077 11.8981L14.1477 12.5479V12.5479L14.9077 11.8981ZM15.4167 8.85355L16.1239 9.56066H16.1239L15.4167 8.85355ZM16.4081 5.76663L17.3479 5.42489L17.3479 5.42488L16.4081 5.76663ZM14.7868 4.05279L15.234 3.15836L15.234 3.15836L14.7868 4.05279ZM14.5313 3.45006L15.5289 3.38086V3.38086L14.5313 3.45006ZM14.5355 2.78287L13.5367 2.73492L13.5366 2.73687L14.5355 2.78287ZM14.5423 2.64243L13.5434 2.5944L13.5434 2.59448L14.5423 2.64243ZM14.5491 2.5V1.5H13.596L13.5503 2.45197L14.5491 2.5ZM37.5141 2.5L38.5129 2.45197L38.4671 1.5H37.5141V2.5ZM37.5209 2.64243L38.5198 2.59447L38.5198 2.59439L37.5209 2.64243ZM37.5277 2.78287L38.5266 2.73688L38.5265 2.73491L37.5277 2.78287ZM37.5319 3.45006L36.5343 3.38086V3.38086L37.5319 3.45006ZM37.2764 4.05279L36.8292 3.15836V3.15836L37.2764 4.05279ZM35.6551 5.76663L36.5949 6.10837V6.10837L35.6551 5.76663ZM36.6464 8.85355L35.9393 9.56066L36.6464 8.85355ZM37.1555 11.8981L37.9155 12.5479L37.1555 11.8981ZM36.1271 12.3961L36.1183 13.3961H36.1183L36.1271 12.3961ZM34.8904 11.6877L35.6713 11.063L34.8904 11.6877ZM30.5643 10.5358L30.9357 11.4642L30.5643 10.5358ZM9.77619 23.8198L8.79917 24.0329H8.79917L9.77619 23.8198ZM41.7511 23.7942L40.7705 23.5981V23.5981L41.7511 23.7942ZM36.6511 49.2942L37.6317 49.4903L36.6511 49.2942ZM15.3398 49.3197L16.3168 49.1066L15.3398 49.3197ZM10.9114 24.3318L11.856 24.0034L9.93441 24.5449L10.9114 24.3318ZM16.3168 49.1066L15.3398 49.3197L15.3398 49.3198L16.3168 49.1066ZM17.5854 34.6504L16.9615 35.4319H16.9615L17.5854 34.6504ZM26.9522 37.4108L26.8336 36.4179H26.8336L26.9522 37.4108ZM40.1242 26.8296L41.1048 27.0257L39.2186 26.4055L40.1242 26.8296ZM35.6705 49.0981L36.6511 49.2942L36.6511 49.2942L35.6705 49.0981ZM40.4706 23.0374L41.4329 23.3093L41.6752 22.4518L40.8512 22.1126L40.4706 23.0374ZM26.8336 36.4179L26.9522 37.4108H26.9522L26.8336 36.4179ZM18.2093 33.8689L17.5854 34.6504H17.5854L18.2093 33.8689ZM11.5239 23V22H10.1606L10.57 23.3004L11.5239 23ZM13.5632 2.5H14.0632V0.5H13.5632V2.5ZM14.5632 2V1.5H12.5632V2H14.5632ZM14.5428 2.63149C14.5525 2.43289 14.5632 2.21678 14.5632 2H12.5632C12.5632 2.15948 12.5553 2.32598 12.5451 2.53411L14.5428 2.63149ZM14.544 2.58281V2.5828H12.544V2.58281H14.544ZM14.5354 2.78465L14.5428 2.63058L12.5451 2.53503L12.5377 2.6891L14.5354 2.78465ZM14.5313 3.45006C14.5178 3.25485 14.524 3.03401 14.5355 2.78287L12.5376 2.69088C12.5259 2.945 12.5138 3.26741 12.5361 3.58844L14.5313 3.45006ZM14.7868 4.05279C14.7042 4.01147 14.66 3.96097 14.6227 3.88139C14.5765 3.78261 14.5445 3.64036 14.5313 3.45006L12.5361 3.58844C12.5774 4.18447 12.7768 5.28385 13.8924 5.84164L14.7868 4.05279ZM16.4081 5.76663C16.0983 4.91469 15.3508 4.33477 14.7868 4.05279L13.8924 5.84164C14.0249 5.90788 14.1743 6.00944 14.3003 6.13164C14.4284 6.25585 14.4989 6.3686 14.5285 6.45012L16.4081 5.76663ZM15.4167 8.85355C15.9487 8.32156 16.2924 7.78576 16.4502 7.23911C16.6127 6.67558 16.5562 6.17396 16.4081 5.76663L14.5285 6.45011C14.5474 6.50207 14.5619 6.56917 14.5285 6.68469C14.4903 6.81708 14.3712 7.07068 14.0025 7.43934L15.4167 8.85355ZM14.9077 11.8981C14.3818 11.2829 14.1926 10.0777 15.4167 8.85355L14.0025 7.43934C12.1479 9.29402 12.0884 11.6782 13.3876 13.1978L14.9077 11.8981ZM15.9361 12.3961C15.5572 12.3995 15.1836 12.2208 14.9077 11.8981L13.3876 13.1978C14.0009 13.9152 14.9159 14.4052 15.9537 14.3961L15.9361 12.3961ZM17.1728 11.6877C16.7503 12.2158 16.3052 12.3929 15.9361 12.3961L15.9537 14.3961C17.0206 14.3867 18.001 13.8539 18.7345 12.937L17.1728 11.6877ZM21.4989 10.5358C20.0619 9.96097 18.3218 10.2513 17.1728 11.6877L18.7345 12.937C19.2857 12.2481 20.0645 12.1161 20.7561 12.3927L21.4989 10.5358ZM24.0632 14.5C24.0632 12.5418 22.9352 11.1103 21.4989 10.5358L20.7561 12.3927C21.4475 12.6693 22.0632 13.375 22.0632 14.5H24.0632ZM24.7181 17.1483C24.3467 16.6567 24.0632 15.8239 24.0632 14.5H22.0632C22.0632 16.0736 22.3954 17.3916 23.1222 18.3538L24.7181 17.1483ZM26.0337 17.8301C25.5316 17.8159 25.0703 17.6146 24.7181 17.1483L23.1222 18.3538C23.8678 19.3407 24.9148 19.7992 25.9771 19.8293L26.0337 17.8301ZM27.0053 18.8196L27.0053 18.8185L25.0054 18.8409L25.0055 18.8419L27.0053 18.8196ZM26.0165 17.8305L25.9903 17.8309L26.0205 19.8306L26.0467 19.8302L26.0165 17.8305ZM26.0729 17.8309L26.0467 17.8305L26.0165 19.8302L26.0427 19.8306L26.0729 17.8309ZM25.0579 18.8185L25.0579 18.8196L27.0577 18.8419L27.0578 18.8409L25.0579 18.8185ZM27.3451 17.1483C26.9929 17.6146 26.5316 17.8159 26.0295 17.8301L26.0861 19.8293C27.1484 19.7992 28.1954 19.3407 28.9409 18.3538L27.3451 17.1483ZM28 14.5C28 15.8239 27.7165 16.6567 27.3451 17.1483L28.9409 18.3538C29.6678 17.3916 30 16.0736 30 14.5H28ZM30.5643 10.5358C29.128 11.1103 28 12.5418 28 14.5H30C30 13.375 30.6157 12.6693 31.3071 12.3927L30.5643 10.5358ZM34.8904 11.6877C33.7414 10.2513 32.0013 9.96097 30.5643 10.5358L31.3071 12.3927C31.9987 12.1161 32.7775 12.2481 33.3287 12.937L34.8904 11.6877ZM36.1271 12.3961C35.758 12.3929 35.3129 12.2158 34.8904 11.6877L33.3287 12.937C34.0622 13.8539 35.0426 14.3867 36.1095 14.3961L36.1271 12.3961ZM37.1555 11.8981C36.8796 12.2208 36.506 12.3995 36.1271 12.3961L36.1095 14.3961C37.1473 14.4052 38.0623 13.9152 38.6756 13.1978L37.1555 11.8981ZM36.6464 8.85355C37.8706 10.0777 37.6814 11.2829 37.1555 11.8981L38.6756 13.1978C39.9748 11.6782 39.9153 9.29402 38.0607 7.43934L36.6464 8.85355ZM35.6551 5.76663C35.507 6.17396 35.4505 6.67558 35.613 7.23911C35.7708 7.78577 36.1145 8.32156 36.6464 8.85355L38.0607 7.43934C37.692 7.07068 37.5729 6.81708 37.5347 6.68469C37.5013 6.56917 37.5158 6.50207 37.5347 6.45011L35.6551 5.76663ZM37.2764 4.05279C36.7124 4.33478 35.9649 4.91469 35.6551 5.76663L37.5347 6.45012C37.5643 6.3686 37.6348 6.25585 37.7629 6.13164C37.8889 6.00944 38.0383 5.90788 38.1708 5.84164L37.2764 4.05279ZM37.5319 3.45005C37.5187 3.64035 37.4867 3.78261 37.4405 3.88139C37.4032 3.96097 37.359 4.01147 37.2764 4.05279L38.1708 5.84164C39.2864 5.28385 39.4858 4.18447 39.5271 3.58844L37.5319 3.45005ZM37.5277 2.78286C37.5392 3.03401 37.5454 3.25485 37.5319 3.45006L39.5271 3.58844C39.5494 3.2674 39.5372 2.945 39.5255 2.69088L37.5277 2.78286ZM37.5204 2.63054L37.5278 2.78464L39.5255 2.6891L39.5181 2.535L37.5204 2.63054ZM37.5192 2.58275V2.58277H39.5192V2.58275H37.5192ZM37.5 2C37.5 2.21676 37.5107 2.43286 37.5204 2.63144L39.5181 2.53406C39.5079 2.32595 39.5 2.15946 39.5 2H37.5ZM37.5 1.5V2H39.5V1.5H37.5ZM38 2.5H38.5V0.5H38V2.5ZM26.0632 2.5H38V0.5H26.0632V2.5ZM26 2.5H26.0632V0.5H26V2.5ZM14.0632 2.5H26V0.5H14.0632V2.5ZM26.0607 18.8296C26.8451 18.8068 27.597 18.474 28.143 17.7511L26.5472 16.5456C26.3914 16.7518 26.2226 16.8241 26.0025 16.8305L26.0607 18.8296ZM23.9202 17.7511C24.4662 18.474 25.2181 18.8068 26.0025 18.8296L26.0607 16.8305C25.8406 16.8241 25.6718 16.7518 25.516 16.5456L23.9202 17.7511ZM23.0632 14.5C23.0632 15.949 23.3711 17.0243 23.9202 17.7511L25.516 16.5456C25.3221 16.2888 25.0632 15.6983 25.0632 14.5H23.0632ZM21.1275 11.4642C22.1915 11.8898 23.0632 12.9585 23.0632 14.5H25.0632C25.0632 12.1247 23.6786 10.3306 21.8703 9.60729L21.1275 11.4642ZM17.9536 12.3123C18.8032 11.2504 20.0623 11.0382 21.1275 11.4642L21.8703 9.60729C20.0641 8.8848 17.8421 9.25021 16.3919 11.063L17.9536 12.3123ZM15.9449 13.3961C16.6618 13.3898 17.3749 13.0358 17.9536 12.3123L16.3919 11.063C16.2541 11.2352 16.1404 11.316 16.0686 11.3538C15.9986 11.3907 15.9516 11.396 15.9273 11.3962L15.9449 13.3961ZM14.1477 12.5479C14.5929 13.0687 15.2375 13.4023 15.9449 13.3961L15.9273 11.3962C15.8759 11.3966 15.7736 11.372 15.6678 11.2482L14.1477 12.5479ZM14.7096 8.14645C13.9613 8.89481 13.5708 9.71604 13.509 10.5266C13.4479 11.3274 13.7157 12.0427 14.1477 12.5479L15.6678 11.2482C15.5719 11.1361 15.4833 10.9401 15.5032 10.6785C15.5224 10.4266 15.6503 10.0342 16.1239 9.56066L14.7096 8.14645ZM15.4683 6.10837C15.6346 6.56575 15.6121 7.24402 14.7096 8.14645L16.1239 9.56066C17.4201 8.2644 17.8475 6.79892 17.3479 5.42489L15.4683 6.10837ZM14.3396 4.94721C14.7771 5.16598 15.2785 5.5864 15.4683 6.10837L17.3479 5.42488C16.9176 4.24169 15.9227 3.50268 15.234 3.15836L14.3396 4.94721ZM13.5337 3.51925C13.5517 3.77872 13.5975 4.05691 13.7204 4.31241C13.8634 4.60954 14.0827 4.81875 14.3396 4.94721L15.234 3.15836C15.2844 3.18356 15.3467 3.2237 15.4063 3.28369C15.4653 3.3431 15.5019 3.40207 15.5226 3.44526C15.5419 3.48525 15.5451 3.50632 15.5424 3.49385C15.5397 3.48145 15.5335 3.44669 15.5289 3.38086L13.5337 3.51925ZM13.5366 2.73687C13.525 2.9892 13.5158 3.261 13.5337 3.51925L15.5289 3.38086C15.5198 3.24891 15.5229 3.07931 15.5345 2.82886L13.5366 2.73687ZM13.5434 2.59448L13.5367 2.73492L15.5344 2.83082L15.5411 2.69038L13.5434 2.59448ZM13.5503 2.45197L13.5434 2.5944L15.5411 2.69046L15.548 2.54803L13.5503 2.45197ZM26 1.5H14.5491V3.5H26V1.5ZM26.0632 1.5H26V3.5H26.0632V1.5ZM37.5141 1.5H26.0632V3.5H37.5141V1.5ZM38.5198 2.59439L38.5129 2.45197L36.5152 2.54803L36.5221 2.69046L38.5198 2.59439ZM38.5265 2.73491L38.5198 2.59447L36.5221 2.69038L36.5288 2.83082L38.5265 2.73491ZM38.5295 3.51925C38.5474 3.261 38.5382 2.9892 38.5266 2.73688L36.5287 2.82886C36.5403 3.07932 36.5434 3.24891 36.5343 3.38086L38.5295 3.51925ZM37.7236 4.94721C37.9805 4.81875 38.1998 4.60953 38.3428 4.31241C38.4657 4.05691 38.5115 3.77872 38.5295 3.51925L36.5343 3.38086C36.5297 3.44669 36.5235 3.48146 36.5208 3.49385C36.5181 3.50632 36.5213 3.48526 36.5406 3.44526C36.5613 3.40207 36.5979 3.3431 36.6569 3.28369C36.7165 3.2237 36.7788 3.18356 36.8292 3.15836L37.7236 4.94721ZM36.5949 6.10837C36.7847 5.5864 37.2861 5.16598 37.7236 4.94721L36.8292 3.15836C36.1405 3.50268 35.1456 4.24169 34.7153 5.42489L36.5949 6.10837ZM37.3536 8.14645C36.4511 7.24402 36.4286 6.56575 36.5949 6.10837L34.7153 5.42488C34.2157 6.79892 34.6431 8.2644 35.9393 9.56066L37.3536 8.14645ZM37.9155 12.5479C38.3475 12.0427 38.6152 11.3274 38.5542 10.5266C38.4924 9.71604 38.1019 8.89481 37.3536 8.14645L35.9393 9.56066C36.4129 10.0342 36.5408 10.4266 36.56 10.6785C36.5799 10.9401 36.4913 11.1361 36.3954 11.2482L37.9155 12.5479ZM36.1183 13.3961C36.8257 13.4023 37.4703 13.0687 37.9155 12.5479L36.3954 11.2482C36.2896 11.372 36.1873 11.3966 36.1359 11.3962L36.1183 13.3961ZM34.1096 12.3123C34.6883 13.0358 35.4014 13.3898 36.1183 13.3961L36.1359 11.3962C36.1116 11.396 36.0646 11.3907 35.9946 11.3538C35.9228 11.316 35.8091 11.2352 35.6713 11.063L34.1096 12.3123ZM30.9357 11.4642C32.0009 11.0382 33.26 11.2504 34.1096 12.3123L35.6713 11.063C34.2211 9.25021 31.9991 8.8848 30.1929 9.60729L30.9357 11.4642ZM29 14.5C29 12.9585 29.8717 11.8898 30.9357 11.4642L30.1929 9.60729C28.3846 10.3306 27 12.1247 27 14.5H29ZM28.143 17.7511C28.692 17.0243 29 15.949 29 14.5H27C27 15.6983 26.7411 16.2888 26.5472 16.5456L28.143 17.7511ZM11.2417 21C9.64629 21 8.45908 22.4742 8.79917 24.0329L10.7532 23.6066C10.6852 23.2948 10.9226 23 11.2417 23V21ZM40.2802 21H11.2417V23H40.2802V21ZM42.7316 23.9903C43.041 22.4433 41.8578 21 40.2802 21V23C40.5957 23 40.8324 23.2887 40.7705 23.5981L42.7316 23.9903ZM37.6317 49.4903L42.7316 23.9903L40.7705 23.5981L35.6705 49.0981L37.6317 49.4903ZM35.1802 51.5C36.3719 51.5 37.3979 50.6589 37.6317 49.4903L35.6705 49.0981C35.6237 49.3318 35.4185 49.5 35.1802 49.5V51.5ZM16.8053 51.5H35.1802V49.5H16.8053V51.5ZM14.3628 49.5329C14.6134 50.6813 15.63 51.5 16.8053 51.5V49.5C16.5703 49.5 16.3669 49.3363 16.3168 49.1066L14.3628 49.5329ZM8.79917 24.0329L14.3628 49.5329L16.3168 49.1066L10.7532 23.6066L8.79917 24.0329ZM9.93441 24.5449L15.3398 49.3197L17.2939 48.8934L11.8884 24.1186L9.93441 24.5449ZM18.2093 33.8689C15.7176 31.8796 13.4807 28.6771 11.856 24.0034L9.96687 24.6601C11.6824 29.5951 14.1047 33.1512 16.9615 35.4319L18.2093 33.8689ZM26.8336 36.4179C23.9006 36.7682 20.8945 36.0126 18.2093 33.8689L16.9615 35.4319C20.0665 37.9107 23.6078 38.8174 27.0708 38.4037L26.8336 36.4179ZM39.2186 26.4055C36.5458 32.1134 31.7555 35.8299 26.8336 36.4179L27.0708 38.4037C32.8199 37.717 38.13 33.4466 41.0298 27.2536L39.2186 26.4055ZM36.6511 49.2942L41.1048 27.0257L39.1436 26.6334L34.6899 48.9019L36.6511 49.2942ZM35.1802 50.5C35.8952 50.5 36.5108 49.9953 36.6511 49.2942L34.6899 48.9019C34.7367 48.6682 34.9419 48.5 35.1802 48.5V50.5ZM16.8053 50.5H35.1802V48.5H16.8053V50.5ZM15.3398 49.3198C15.4902 50.0088 16.1001 50.5 16.8053 50.5V48.5C17.0404 48.5 17.2437 48.6637 17.2939 48.8934L15.3398 49.3198ZM40.8512 22.1126C40.6738 22.0396 40.4805 22 40.2802 22V24C40.2156 24 40.1506 23.9871 40.09 23.9621L40.8512 22.1126ZM26.9522 37.4108C33.2816 36.6548 39.2101 31.175 41.4329 23.3093L39.5083 22.7654C37.4532 30.0375 32.0684 34.7854 26.715 35.4249L26.9522 37.4108ZM17.5854 34.6504C20.4805 36.9617 23.7542 37.7928 26.9522 37.4108L26.715 35.4249C24.047 35.7436 21.3085 35.0635 18.8332 33.0874L17.5854 34.6504ZM10.57 23.3004C12.2565 28.6561 14.7237 32.3658 17.5854 34.6504L18.8332 33.0874C16.3619 31.1144 14.0796 27.7867 12.4777 22.6996L10.57 23.3004ZM40.2802 22H11.5239V24H40.2802V22Z" fill="#ffa5ba"/>
</svg>
