<svg aria-hidden="true" style="position: absolute; width: 0; height: 0; overflow: hidden;" version="1.1" xmlns="http://www.w3.org/2000/svg" xmlns:xlink="http://www.w3.org/1999/xlink">
<defs>
<symbol id="udder" viewBox="0 0 32 32">
<path d="M8.801 0.923h-0.308v0.308c0 0.116-0.006 0.234-0.012 0.359v0l-0.005 0.095c-0.007 0.155-0.013 0.323-0.002 0.481 0.021 0.309 0.114 0.688 0.496 0.879 0.269 0.134 0.578 0.393 0.695 0.715 0.103 0.283 0.087 0.7-0.467 1.254-0.947 0.947-0.907 2.052-0.346 2.709 0.274 0.32 0.67 0.526 1.106 0.522 0.442-0.004 0.88-0.222 1.236-0.667 0.523-0.654 1.298-0.784 1.953-0.522s1.191 0.92 1.191 1.868c0 0.892 0.189 1.553 0.527 2.001s0.802 0.65 1.283 0.664v0.001l0.016-0 0.016 0v-0.001c0.481-0.014 0.945-0.217 1.283-0.664s0.527-1.109 0.527-2.001c0-0.949 0.537-1.606 1.191-1.868s1.43-0.132 1.953 0.522c0.356 0.445 0.794 0.663 1.236 0.667 0.436 0.004 0.832-0.202 1.106-0.522 0.562-0.657 0.602-1.761-0.346-2.709-0.554-0.554-0.57-0.972-0.467-1.254 0.117-0.321 0.426-0.58 0.695-0.715 0.382-0.191 0.474-0.569 0.496-0.879 0.011-0.159 0.005-0.326-0.002-0.481l-0.005-0.095c-0.006-0.125-0.012-0.243-0.012-0.359v-0.308h-15.038zM16.975 10.553c-0.216 0.286-0.499 0.411-0.808 0.42-0.309-0.009-0.592-0.134-0.808-0.42-0.229-0.303-0.403-0.815-0.403-1.63 0-1.205-0.694-2.086-1.578-2.439s-1.955-0.176-2.662 0.709c-0.26 0.325-0.534 0.434-0.761 0.436-0.233 0.002-0.463-0.108-0.633-0.306-0.325-0.38-0.439-1.122 0.313-1.874 0.677-0.677 0.815-1.336 0.61-1.9-0.191-0.525-0.651-0.881-0.998-1.055-0.079-0.039-0.14-0.122-0.157-0.371-0.008-0.12-0.005-0.256 0.003-0.411l0.004-0.086 0.004-0.088h14.132l0.004 0.088 0.004 0.086c0.007 0.155 0.011 0.291 0.003 0.411-0.017 0.248-0.078 0.332-0.157 0.371-0.347 0.173-0.807 0.53-0.998 1.055-0.205 0.564-0.066 1.223 0.61 1.9 0.752 0.752 0.638 1.494 0.313 1.874-0.17 0.198-0.399 0.309-0.633 0.306-0.227-0.002-0.501-0.111-0.761-0.436-0.708-0.885-1.779-1.062-2.662-0.709s-1.578 1.234-1.578 2.44c0 0.815-0.174 1.327-0.403 1.63zM6.163 14.658l3.424 15.692c0.093 0.424 0.468 0.726 0.902 0.726h11.308c0.44 0 0.819-0.311 0.905-0.742l3.138-15.692c0.114-0.571-0.323-1.104-0.905-1.104h-17.87c-0.589 0-1.027 0.544-0.902 1.12zM10.188 30.219l-3.326-15.246c1.028 2.957 2.461 5.036 4.107 6.35 1.782 1.422 3.796 1.934 5.764 1.699 3.283-0.392 6.391-2.85 8.106-6.512l-2.741 13.704c-0.029 0.144-0.155 0.247-0.302 0.247h-11.308c-0.145 0-0.27-0.101-0.301-0.242zM24.935 14.154c0.042 0 0.081 0.008 0.117 0.023-1.316 4.658-4.797 7.805-8.392 8.234-1.805 0.216-3.655-0.249-5.307-1.569-1.641-1.31-3.102-3.475-4.114-6.689h17.696z"></path>
<path d="M8.494 0.923v-0.615h-0.615v0.615h0.615zM8.482 1.589l-0.615-0.030-0.001 0.015v0.015h0.615zM8.482 1.589l0.615 0.029 0.001-0.015v-0.015h-0.615zM8.477 1.684l-0.615-0.029-0 0.001 0.615 0.028zM8.476 2.166v0zM8.972 3.044v0zM9.666 3.759v0zM9.199 5.013v0zM8.853 7.722v0zM9.959 8.244v0zM11.196 7.577v0zM13.149 7.055v0zM14.867 10.924v0zM16.15 11.588l0.615-0.007-0.007-0.591-0.591-0.017-0.017 0.615zM16.15 11.588l-0.615 0.007 0.007 0.618 0.618-0.009-0.009-0.615zM16.167 11.588l0.009-0.615-0.009-0-0.009 0 0.009 0.615zM16.183 11.588l-0.009 0.615 0.618 0.009 0.007-0.618-0.615-0.007zM16.183 11.588l-0.017-0.615-0.591 0.017-0.007 0.591 0.615 0.007zM17.466 10.924v0zM19.184 7.055v0zM21.138 7.577v0zM22.374 8.244v0zM23.48 7.722v0zM23.134 5.013v0zM22.667 3.759v0zM23.362 3.044v0zM23.858 2.166v0zM23.856 1.684l0.615-0.028-0-0.001-0.615 0.029zM23.851 1.589h-0.615v0.015l0.001 0.015 0.615-0.029zM23.851 1.589h0.615v-0.015l-0.001-0.015-0.615 0.030zM23.839 0.923h0.615v-0.615h-0.615v0.615zM16.167 10.972l-0.018 0.615 0.018 0.001 0.018-0.001-0.018-0.615zM16.975 10.553v0zM15.358 10.553v0zM13.377 6.484v0zM10.715 7.192v0zM9.954 7.628v0zM9.321 7.322v0zM9.634 5.448v0zM10.244 3.549v0zM9.247 2.494v0zM9.089 2.123v0zM9.092 1.713l-0.615-0.030-0 0.001 0.615 0.028zM9.096 1.626v0zM9.1 1.538v-0.615h-0.587l-0.028 0.586 0.615 0.030zM23.233 1.538l0.615-0.030-0.028-0.586h-0.586v0.615zM23.237 1.626v0zM23.241 1.713l0.615-0.028-0-0.001-0.615 0.030zM23.244 2.123v0zM23.086 2.494v0zM22.089 3.549v0zM22.699 5.448v0zM23.012 7.322v0zM22.379 7.628v0zM21.618 7.192v0zM18.956 6.484v0zM6.163 14.658v0zM25.84 14.643v0zM22.702 30.335v0zM9.587 30.351v0zM6.862 14.973l0.581-0.202-1.183 0.333 0.601-0.131zM10.188 30.219v0zM10.969 21.323v0zM16.733 23.022v0zM24.839 16.511l0.603 0.121-1.161-0.382 0.557 0.261zM22.098 30.214v0zM25.052 14.177l0.592 0.167 0.149-0.528-0.507-0.209-0.234 0.569zM16.66 22.411v0zM11.353 20.842v0zM7.239 14.154v-0.615h-0.839l0.252 0.8 0.587-0.185zM8.494 1.538h0.308v-1.231h-0.308v1.231zM9.109 1.231v-0.308h-1.231v0.308h1.231zM9.097 1.619c0.006-0.122 0.013-0.255 0.013-0.389h-1.231c0 0.098-0.005 0.201-0.011 0.329l1.229 0.060zM9.097 1.589v0 0zM9.092 1.714l0.005-0.095-1.229-0.059-0.005 0.095 1.229 0.059zM9.089 2.123c-0.008-0.12-0.005-0.256 0.003-0.411l-1.229-0.057c-0.007 0.156-0.015 0.355-0.001 0.552l1.228-0.085zM9.247 2.494c-0.051-0.025-0.078-0.057-0.101-0.105-0.028-0.061-0.048-0.148-0.056-0.265l-1.228 0.085c0.025 0.367 0.148 1.043 0.835 1.387l0.55-1.101zM10.244 3.549c-0.191-0.524-0.651-0.881-0.998-1.055l-0.55 1.101c0.082 0.041 0.173 0.103 0.251 0.178 0.079 0.076 0.122 0.146 0.14 0.196l1.157-0.421zM9.634 5.448c0.327-0.327 0.539-0.657 0.636-0.994 0.1-0.347 0.065-0.655-0.026-0.906l-1.157 0.421c0.012 0.032 0.021 0.073 0 0.144-0.024 0.081-0.097 0.238-0.324 0.464l0.87 0.87zM9.321 7.322c-0.324-0.379-0.44-1.12 0.313-1.874l-0.87-0.87c-1.141 1.141-1.178 2.609-0.378 3.544l0.935-0.8zM9.954 7.628c-0.233 0.002-0.463-0.108-0.633-0.306l-0.935 0.8c0.377 0.441 0.941 0.743 1.579 0.737l-0.011-1.231zM10.715 7.192c-0.26 0.325-0.534 0.434-0.761 0.436l0.011 1.231c0.657-0.006 1.26-0.334 1.711-0.898l-0.961-0.769zM13.377 6.484c-0.884-0.354-1.955-0.175-2.662 0.709l0.961 0.769c0.339-0.424 0.818-0.505 1.244-0.335l0.457-1.143zM14.955 8.923c0-1.205-0.694-2.086-1.578-2.439l-0.457 1.143c0.425 0.17 0.804 0.605 0.804 1.297h1.231zM15.358 10.553c-0.229-0.303-0.403-0.815-0.403-1.63h-1.231c0 0.968 0.204 1.779 0.652 2.372l0.982-0.742zM16.168 10.972c-0.309-0.009-0.593-0.133-0.81-0.42l-0.982 0.742c0.459 0.607 1.103 0.889 1.757 0.908l0.035-1.23zM16.766 11.581v-0.001l-1.231 0.014 1.231-0.014zM16.157 10.973l-0.016 0 0.019 1.231 0.016-0-0.019-1.231zM16.192 10.973l-0.016-0-0.019 1.231 0.016 0 0.019-1.231zM15.567 11.581v0.001l1.231 0.013-1.231-0.014zM16.975 10.553c-0.217 0.287-0.501 0.411-0.81 0.42l0.035 1.23c0.654-0.019 1.298-0.301 1.757-0.908l-0.982-0.742zM17.378 8.923c0 0.815-0.174 1.327-0.403 1.63l0.982 0.742c0.447-0.592 0.652-1.403 0.652-2.372h-1.231zM18.956 6.484c-0.884 0.354-1.578 1.234-1.578 2.44h1.231c0-0.692 0.379-1.127 0.804-1.297l-0.457-1.143zM21.618 7.192c-0.707-0.884-1.778-1.063-2.662-0.709l0.457 1.143c0.426-0.17 0.905-0.089 1.244 0.335l0.961-0.769zM22.379 7.628c-0.227-0.002-0.501-0.111-0.761-0.436l-0.961 0.769c0.451 0.564 1.055 0.892 1.711 0.898l0.011-1.231zM23.012 7.322c-0.17 0.199-0.4 0.309-0.633 0.306l-0.011 1.231c0.639 0.006 1.202-0.296 1.579-0.737l-0.935-0.8zM22.699 5.448c0.753 0.753 0.637 1.495 0.313 1.874l0.935 0.8c0.799-0.935 0.763-2.402-0.378-3.544l-0.87 0.87zM22.089 3.549c-0.091 0.251-0.126 0.559-0.026 0.906 0.097 0.336 0.309 0.666 0.636 0.994l0.87-0.87c-0.227-0.227-0.3-0.383-0.324-0.464-0.021-0.071-0.012-0.112 0-0.144l-1.157-0.421zM23.086 2.494c-0.347 0.174-0.807 0.53-0.998 1.055l1.157 0.421c0.018-0.050 0.062-0.12 0.14-0.196 0.078-0.075 0.169-0.138 0.251-0.178l-0.55-1.101zM23.244 2.123c-0.008 0.117-0.028 0.205-0.056 0.265-0.023 0.049-0.050 0.080-0.101 0.105l0.55 1.101c0.687-0.343 0.809-1.020 0.835-1.387l-1.228-0.085zM23.241 1.713c0.007 0.155 0.011 0.29 0.003 0.411l1.228 0.085c0.014-0.198 0.006-0.396-0.001-0.552l-1.229 0.057zM23.237 1.619l0.005 0.095 1.229-0.059-0.005-0.095-1.229 0.059zM23.236 1.589v0 0zM23.224 1.231c0 0.133 0.007 0.266 0.013 0.389l1.229-0.060c-0.006-0.128-0.011-0.231-0.011-0.329h-1.231zM23.224 0.923v0.308h1.231v-0.308h-1.231zM23.532 1.538h0.308v-1.231h-0.308v1.231zM16.186 1.538h7.346v-1.231h-7.346v1.231zM16.147 1.538h0.039v-1.231h-0.039v1.231zM8.801 1.538h7.346v-1.231h-7.346v1.231zM16.184 11.587c0.483-0.014 0.945-0.219 1.281-0.664l-0.982-0.742c-0.096 0.127-0.2 0.171-0.335 0.175l0.036 1.23zM14.867 10.924c0.336 0.445 0.799 0.65 1.281 0.664l0.036-1.23c-0.135-0.004-0.239-0.048-0.335-0.175l-0.982 0.742zM14.34 8.923c0 0.892 0.189 1.553 0.527 2.001l0.982-0.742c-0.119-0.158-0.279-0.521-0.279-1.259h-1.231zM13.149 7.055c0.655 0.262 1.191 0.92 1.191 1.868h1.231c0-1.462-0.852-2.566-1.965-3.011l-0.457 1.143zM11.196 7.577c0.523-0.653 1.298-0.784 1.953-0.522l0.457-1.143c-1.111-0.445-2.479-0.22-3.371 0.896l0.961 0.769zM9.959 8.244c0.441-0.004 0.88-0.222 1.236-0.667l-0.961-0.769c-0.085 0.106-0.155 0.156-0.199 0.179-0.043 0.023-0.072 0.026-0.087 0.026l0.011 1.231zM8.853 7.722c0.274 0.321 0.671 0.526 1.106 0.522l-0.011-1.231c-0.032 0-0.095-0.015-0.16-0.091l-0.935 0.8zM9.199 5.013c-0.46 0.461-0.701 0.966-0.739 1.465-0.038 0.493 0.127 0.933 0.393 1.244l0.935-0.8c-0.059-0.069-0.114-0.19-0.101-0.351 0.012-0.155 0.091-0.396 0.382-0.688l-0.87-0.87zM9.666 3.759c0.102 0.281 0.088 0.699-0.467 1.254l0.87 0.87c0.798-0.798 1.061-1.7 0.753-2.545l-1.157 0.421zM8.972 3.044c0.269 0.135 0.578 0.393 0.695 0.715l1.157-0.421c-0.265-0.728-0.877-1.183-1.301-1.395l-0.55 1.101zM8.476 2.166c0.011 0.16 0.039 0.331 0.115 0.488 0.088 0.183 0.223 0.312 0.381 0.391l0.55-1.101c0.031 0.016 0.069 0.040 0.106 0.077s0.059 0.073 0.072 0.099c0.012 0.025 0.014 0.038 0.012 0.030s-0.005-0.029-0.008-0.070l-1.228 0.085zM8.477 1.684c-0.007 0.155-0.013 0.323-0.002 0.481l1.228-0.085c-0.006-0.081-0.004-0.186 0.003-0.34l-1.229-0.057zM8.482 1.597l-0.004 0.086 1.229 0.059 0.004-0.086-1.229-0.059zM8.486 1.509l-0.004 0.088 1.229 0.059 0.004-0.088-1.229-0.059zM16.147 0.923h-7.047v1.231h7.047v-1.231zM16.186 0.923h-0.039v1.231h0.039v-1.231zM23.233 0.923h-7.047v1.231h7.047v-1.231zM23.852 1.597l-0.004-0.088-1.229 0.059 0.004 0.088 1.229-0.059zM23.856 1.683l-0.004-0.086-1.229 0.059 0.004 0.086 1.229-0.059zM23.858 2.166c0.011-0.159 0.005-0.326-0.002-0.481l-1.229 0.057c0.007 0.154 0.009 0.258 0.003 0.34l1.228 0.085zM23.362 3.044c0.158-0.079 0.293-0.208 0.381-0.391 0.076-0.157 0.104-0.328 0.115-0.488l-1.228-0.085c-0.003 0.041-0.007 0.062-0.008 0.070s0-0.005 0.012-0.030c0.013-0.027 0.035-0.063 0.072-0.099s0.075-0.062 0.106-0.077l0.55 1.101zM22.667 3.759c0.117-0.321 0.425-0.58 0.695-0.715l-0.55-1.101c-0.424 0.212-1.036 0.667-1.301 1.395l1.157 0.421zM23.134 5.013c-0.555-0.555-0.569-0.973-0.467-1.254l-1.157-0.421c-0.307 0.846-0.044 1.747 0.753 2.545l0.87-0.87zM23.48 7.722c0.266-0.311 0.431-0.751 0.393-1.244-0.038-0.499-0.278-1.004-0.739-1.465l-0.87 0.87c0.291 0.291 0.37 0.533 0.382 0.688 0.012 0.161-0.042 0.282-0.101 0.351l0.935 0.8zM22.374 8.244c0.435 0.004 0.832-0.201 1.106-0.522l-0.935-0.8c-0.065 0.076-0.128 0.091-0.16 0.091l-0.011 1.231zM21.138 7.577c0.356 0.445 0.795 0.663 1.236 0.667l0.011-1.231c-0.015-0-0.044-0.003-0.087-0.026-0.044-0.023-0.114-0.073-0.199-0.179l-0.961 0.769zM19.184 7.055c0.655-0.262 1.43-0.132 1.953 0.522l0.961-0.769c-0.892-1.116-2.26-1.34-3.371-0.896l0.457 1.143zM17.993 8.923c0-0.949 0.536-1.606 1.191-1.868l-0.457-1.143c-1.113 0.445-1.965 1.549-1.965 3.011h1.231zM17.466 10.924c0.338-0.447 0.527-1.109 0.527-2.001h-1.231c0 0.737-0.159 1.101-0.279 1.259l0.982 0.742zM7.065 12.923c-0.982 0-1.712 0.907-1.503 1.866l1.202-0.262c-0.042-0.192 0.104-0.373 0.301-0.373v-1.231zM24.935 12.923h-17.87v1.231h17.87v-1.231zM26.444 14.763c0.19-0.952-0.538-1.84-1.509-1.84v1.231c0.194 0 0.34 0.178 0.302 0.368l1.207 0.241zM23.305 30.456l3.138-15.692-1.207-0.241-3.138 15.692 1.207 0.241zM21.797 31.692c0.733 0 1.365-0.518 1.509-1.237l-1.207-0.241c-0.029 0.144-0.155 0.247-0.302 0.247v1.231zM10.489 31.692h11.308v-1.231h-11.308v1.231zM8.986 30.482c0.154 0.707 0.78 1.211 1.503 1.211v-1.231c-0.145 0-0.27-0.101-0.301-0.242l-1.202 0.262zM5.562 14.789l3.424 15.692 1.202-0.262-3.424-15.692-1.202 0.262zM6.261 15.105l3.326 15.246 1.203-0.262-3.326-15.246-1.202 0.262zM11.353 20.842c-1.533-1.224-2.91-3.195-3.91-6.071l-1.163 0.404c1.056 3.037 2.546 5.225 4.304 6.629l0.768-0.962zM16.66 22.411c-1.805 0.216-3.655-0.249-5.307-1.569l-0.768 0.962c1.911 1.525 4.090 2.083 6.221 1.829l-0.146-1.222zM24.282 16.25c-1.645 3.513-4.593 5.8-7.622 6.161l0.146 1.222c3.538-0.423 6.806-3.051 8.59-6.862l-1.115-0.522zM22.702 30.335l2.741-13.704-1.207-0.241-2.741 13.704 1.207 0.241zM21.797 31.077c0.44 0 0.819-0.311 0.905-0.742l-1.207-0.241c0.029-0.144 0.155-0.247 0.302-0.247v1.231zM10.489 31.077h11.308v-1.231h-11.308v1.231zM9.587 30.351c0.093 0.424 0.468 0.726 0.902 0.726v-1.231c0.145 0 0.27 0.101 0.301 0.242l-1.203 0.262zM25.286 13.608c-0.109-0.045-0.228-0.069-0.351-0.069v1.231c-0.040 0-0.080-0.008-0.117-0.023l0.468-1.138zM16.733 23.022c3.895-0.465 7.543-3.837 8.911-8.678l-1.184-0.335c-1.265 4.475-4.578 7.397-7.873 7.79l0.146 1.222zM10.969 21.323c1.782 1.422 3.796 1.934 5.764 1.699l-0.146-1.222c-1.642 0.196-3.327-0.222-4.85-1.438l-0.768 0.962zM6.652 14.339c1.038 3.296 2.556 5.579 4.317 6.985l0.768-0.962c-1.521-1.214-2.925-3.262-3.911-6.393l-1.174 0.37zM24.935 13.538h-17.696v1.231h17.696v-1.231z"></path>
</symbol>
</defs>
</svg>
