<svg width="33" height="33" viewBox="0 0 33 33" fill="none" xmlns="http://www.w3.org/2000/svg">
<path d="M32.315 25.8453C32.8057 21.2484 33.0322 16.6442 32.9955 12.0407L23.8525 2.89759C22.7102 1.59357 21.0418 0.779669 19.0814 0.709173C15.0497 0.563909 11.0052 0.571234 6.9729 0.709783C3.6239 0.82514 1.28198 3.07612 0.681396 6.38453C0.5755 6.96863 0.512024 7.56037 0.428711 8.14875V17.8478C0.474792 18.1622 0.542542 18.475 0.563599 18.7911C0.697876 20.8035 1.5249 22.5271 2.84906 23.6932L12.1533 32.9971C16.7193 33.0291 21.2856 32.8021 25.8453 32.3153C29.2568 31.9512 31.9509 29.2568 32.315 25.8453Z" fill="url(#paint0_linear)"/>
<defs>
<linearGradient id="paint0_linear" x1="10.7242" y1="10.6679" x2="0.824869" y2="0.768578" gradientUnits="userSpaceOnUse">
<stop stop-color="#833AB4" stop-opacity="0"/>
<stop offset="1" stop-color="#833AB4"/>
</linearGradient>
</defs>
</svg>
