<svg width="55" height="48" viewBox="0 0 55 48" fill="none" xmlns="http://www.w3.org/2000/svg">
<path d="M3.57164 44.1788H21.9165C22.8462 46.1068 24.7915 47.3524 26.9868 47.3524H28.1453C30.3428 47.3524 32.287 46.1074 33.2167 44.1788H51.5716C53.4623 44.1788 55.0002 42.6409 55.0002 40.7503V7.89311C55.0002 6.00249 53.4623 4.46454 51.5716 4.46454H49.7201V2.9333C49.7201 1.67269 48.6944 0.647583 47.4344 0.647583H7.69775C6.43771 0.647583 5.41204 1.67269 5.41204 2.9333V4.46454H3.57164C1.68101 4.46454 0.143066 6.00249 0.143066 7.89311V40.7503C0.143066 42.6409 1.68101 44.1788 3.57164 44.1788ZM47.4321 37.1275H28.7145V10.5698C33.0409 11.1357 36.3953 14.8373 36.3953 19.3156V20.3463L36.1241 20.2865C35.8295 20.2235 35.5203 20.2765 35.2636 20.4394C35.008 20.603 34.8272 20.8608 34.7625 21.1571L32.9433 29.4361C32.8082 30.0516 33.1978 30.6604 33.8138 30.796L37.7457 31.6627C37.9489 31.7056 38.1553 31.7279 38.3618 31.7279C39.7446 31.7279 40.9221 30.7821 41.2234 29.4255L42.2759 24.6375C42.623 23.0656 41.6263 21.5019 40.0493 21.1515L38.681 20.85V19.3156C38.681 13.5745 34.3052 8.83692 28.7145 8.26019V2.9333H47.4344L47.4321 37.1275ZM36.7491 22.7648L39.556 23.3831C39.9065 23.4612 40.1207 23.7949 40.0437 24.1454L38.9913 28.9322C38.9154 29.2782 38.5326 29.493 38.2301 29.4288L35.4198 28.8094L36.7491 22.7648ZM7.69775 2.9333H26.4288V8.2585C20.8325 8.82993 16.4511 13.5706 16.4511 19.3156V20.8493L15.0806 21.1521C14.3172 21.3217 13.6654 21.7765 13.2469 22.4327C12.8261 23.0907 12.6877 23.8742 12.8574 24.6353L13.9076 29.4177C14.1922 30.7564 15.3964 31.7279 16.7714 31.7279C16.9779 31.7279 17.1844 31.7056 17.3953 31.661L21.3105 30.796C21.9254 30.6599 22.315 30.0516 22.1799 29.4361L20.3607 21.1571C20.296 20.8608 20.1152 20.6024 19.8596 20.4394C19.6029 20.2765 19.2926 20.2229 18.998 20.2865L18.7368 20.3442V19.3156C18.7368 14.8335 22.0969 11.129 26.4288 10.5681V37.1275H7.69775V5.6074V2.9333ZM18.3741 22.7659L19.7045 28.81L16.9098 29.4272C16.5661 29.5047 16.2156 29.2776 16.1419 28.9355L15.0895 24.142C15.0515 23.9757 15.0817 23.8055 15.1721 23.6638C15.2636 23.5203 15.4076 23.421 15.5739 23.3836L18.3741 22.7659ZM2.42878 7.89311C2.42878 7.26309 2.94106 6.75026 3.57164 6.75026H5.41204V37.1275C5.41204 38.3881 6.43771 39.4132 7.69775 39.4132H47.4344C48.6944 39.4132 49.7201 38.3881 49.7201 37.1275V6.75026H51.5716C52.2022 6.75026 52.7145 7.26309 52.7145 7.89311V40.7503C52.7145 41.3803 52.2022 41.8931 51.5716 41.8931H32.4399C31.9377 41.8931 31.4946 42.2207 31.3473 42.7006C30.9132 44.1158 29.6263 45.0667 28.1453 45.0667H26.9868C25.5114 45.0667 24.2257 44.1197 23.7804 42.6872C23.6285 42.214 23.1888 41.8931 22.6922 41.8931H3.57164C2.94106 41.8931 2.42878 41.3803 2.42878 40.7503V7.89311Z" fill="#FF6B09"/>
</svg>
