<svg width="15" height="20" viewBox="0 0 15 20" fill="none" xmlns="http://www.w3.org/2000/svg">
<path d="M13.1507 10.0502C12.979 9.66554 12.7421 9.2867 12.3956 8.84914C11.5221 7.75081 11.2556 5.3016 11.2526 5.2781C11.2408 5.16063 11.1578 5.06372 11.0483 5.02848C10.9358 4.99324 10.8143 5.02555 10.7344 5.11365C9.69206 6.27952 10.1303 8.07972 10.3672 8.79921C10.4324 8.99597 10.5034 9.22797 10.5537 9.46291C10.9387 11.363 10.1954 12.2234 10.0207 12.3967C9.85193 12.4437 9.73644 12.4202 9.62984 12.3056C9.26266 11.9033 9.14125 10.5847 9.313 8.86676C9.34856 8.51729 9.33965 8.20306 9.28931 7.90939C8.9271 5.79781 7.59901 4.44334 7.2609 3.96833C6.33109 2.59395 6.23633 0.30626 6.23337 0.285704C6.23041 0.177045 6.16823 0.0801342 6.07051 0.0331469C5.97575 -0.0138404 5.86026 -0.00796697 5.77143 0.0537038C4.21977 1.10798 4.35302 3.64823 4.56919 5.06666C4.61953 5.39557 4.71725 5.73035 4.88604 6.15324C5.48716 7.66564 4.76759 9.61855 4.76167 9.63617C4.75574 9.65379 4.74982 9.66848 4.74686 9.6861C4.65507 10.1677 4.50108 10.4555 4.32934 10.4555C4.31157 10.4555 4.2938 10.4526 4.27307 10.4467C4.06283 10.4027 3.95327 10.1795 3.9503 9.98564C3.93846 7.48063 1.42442 6.6378 1.39777 6.62899C1.28525 6.59375 1.16088 6.62605 1.08389 6.71709C1.00393 6.80813 0.989128 6.9344 1.04243 7.04012C1.07204 7.1018 1.1668 7.37197 1.10165 8.3264C1.04539 9.18392 0.888448 10.0326 0.636748 10.8461C0.0385899 12.7961 0.133347 14.6433 0.13927 14.7314C0.599229 19.7328 7.79211 20.6091 12.061 17.7914C12.5288 17.483 12.9108 17.1306 13.1921 16.743C14.7675 14.5698 13.8407 11.6184 13.1507 10.0502ZM2.20916 14.8283C2.21805 14.9898 2.09368 15.1278 1.93081 15.1366H1.91304C1.7561 15.1366 1.62581 15.0162 1.61693 14.8606C1.59028 14.4318 1.5962 13.9825 1.62877 13.495C1.64062 13.3335 1.78275 13.2131 1.94562 13.2219C2.10848 13.2336 2.23285 13.3746 2.22101 13.5361C2.1884 14.0001 2.18251 14.423 2.20916 14.8283ZM2.35423 12.2263C2.33646 12.3761 2.20913 12.4848 2.06107 12.4848C2.04923 12.4848 2.03738 12.4848 2.02258 12.4818C1.86267 12.4613 1.74719 12.3174 1.76496 12.1559L1.90709 11.0223C1.92782 10.8637 2.07292 10.7492 2.23874 10.7668C2.40161 10.7874 2.5171 10.9342 2.49637 11.0957L2.35423 12.2263Z" fill="#FF6B09"/>
</svg>
