<svg width="26" height="26" viewBox="0 0 26 26" fill="none" xmlns="http://www.w3.org/2000/svg">
<path d="M0.428894 8.14875C0.512207 7.56037 0.575684 6.96863 0.68158 6.38453C1.28186 3.07612 3.62408 0.82514 6.97308 0.709783C11.0054 0.571234 15.0499 0.563909 19.0815 0.709173C22.7266 0.840399 25.3663 3.53937 25.4802 7.18561C25.6013 11.0574 25.6013 14.9386 25.4802 18.8104C25.3663 22.4566 22.7275 25.1553 19.0818 25.2868C15.0502 25.4324 11.0048 25.436 6.97339 25.2847C3.32776 25.1476 0.807617 22.4426 0.563782 18.7908C0.542725 18.475 0.474976 18.1619 0.428894 17.8475C0.428894 14.6145 0.428894 11.3815 0.428894 8.14875ZM13.0034 23.1259C14.8484 23.1259 16.6954 23.1811 18.538 23.113C21.4271 23.0059 23.2042 21.2817 23.2716 18.3953C23.3552 14.7988 23.3552 11.1975 23.2716 7.60065C23.2042 4.71491 21.4259 2.95038 18.538 2.88904C14.8726 2.81153 11.2031 2.81214 7.53766 2.88904C4.67175 2.94916 2.88953 4.67798 2.81171 7.53199C2.71283 11.174 2.71283 14.8223 2.81171 18.4643C2.88953 21.318 4.67175 23.0068 7.53796 23.113C9.35742 23.1808 11.1815 23.1259 13.0034 23.1259Z" fill="white"/>
<path d="M13 6.59326C9.46179 6.59326 6.59314 9.46161 6.59314 12.9998C6.59314 16.5383 9.46179 19.4067 13 19.4067C16.5385 19.4067 19.4069 16.5383 19.4069 12.9998C19.4069 9.46161 16.5385 6.59326 13 6.59326ZM13 17.2009C10.6797 17.2009 8.79895 15.3201 8.79895 12.9998C8.79895 10.6796 10.6797 8.79877 13 8.79877C15.3203 8.79877 17.201 10.6796 17.201 12.9998C17.201 15.3201 15.3203 17.2009 13 17.2009Z" fill="white"/>
<path d="M21.3051 6.30121C21.3051 7.14288 20.6227 7.82526 19.781 7.82526C18.9393 7.82526 18.2567 7.14288 18.2567 6.30121C18.2567 5.45923 18.9393 4.77686 19.781 4.77686C20.6227 4.77686 21.3051 5.45923 21.3051 6.30121Z" fill="white"/>
</svg>
