<svg aria-hidden="true" style="position: absolute; width: 0; height: 0; overflow: hidden;" version="1.1" xmlns="http://www.w3.org/2000/svg" xmlns:xlink="http://www.w3.org/1999/xlink">
    <defs>
        <symbol id="fire" viewBox="0 0 55 64">
            <path d="M57.598 43.662c-0.745-1.671-1.774-3.317-3.277-5.218-3.792-4.772-4.949-15.412-4.961-15.514-0.051-0.51-0.411-0.931-0.887-1.084-0.488-0.153-1.015-0.013-1.362 0.37-4.524 5.065-2.622 12.886-1.594 16.011 0.283 0.855 0.591 1.863 0.81 2.883 1.671 8.255-1.555 11.993-2.313 12.745-0.733 0.204-1.234 0.102-1.697-0.395-1.594-1.748-2.121-7.476-1.375-14.94 0.154-1.518 0.116-2.883-0.103-4.159-1.572-9.173-7.337-15.058-8.804-17.121-4.036-5.971-4.447-15.909-4.46-15.999-0.013-0.472-0.283-0.893-0.707-1.097-0.411-0.204-0.913-0.179-1.298 0.089-6.735 4.58-6.157 15.616-5.218 21.778 0.219 1.429 0.643 2.883 1.375 4.721 2.609 6.57-0.514 15.054-0.54 15.131s-0.051 0.14-0.064 0.217c-0.398 2.092-1.067 3.343-1.812 3.343-0.077 0-0.154-0.013-0.244-0.038-0.913-0.191-1.388-1.161-1.401-2.003-0.051-10.883-10.964-14.544-11.079-14.582-0.488-0.153-1.028-0.013-1.362 0.383-0.347 0.395-0.411 0.944-0.18 1.403 0.128 0.268 0.54 1.442 0.257 5.588-0.244 3.725-0.925 7.413-2.018 10.946-2.596 8.471-2.185 16.496-2.159 16.879 1.997 21.728 33.218 25.535 51.747 13.294 2.031-1.34 3.689-2.87 4.91-4.555 6.838-9.441 2.815-22.263-0.18-29.076zM10.106 64.419c0.039 0.702-0.501 1.301-1.208 1.34h-0.077c-0.681 0-1.247-0.523-1.285-1.199-0.116-1.863-0.090-3.815 0.051-5.932 0.051-0.702 0.668-1.225 1.375-1.187 0.707 0.051 1.247 0.663 1.195 1.365-0.142 2.016-0.167 3.853-0.051 5.614zM10.736 53.115c-0.077 0.651-0.63 1.123-1.272 1.123-0.051 0-0.103 0-0.167-0.013-0.694-0.089-1.195-0.715-1.118-1.416l0.617-4.925c0.090-0.689 0.72-1.186 1.44-1.11 0.707 0.089 1.208 0.727 1.118 1.429l-0.617 4.912z"></path>
            <path d="M48.903 17.454c-0.701-0.108-1.182-0.758-1.074-1.454 0.080-0.518 0.545-3.172 1.805-4.506 0.485-0.514 1.297-0.541 1.817-0.058 0.518 0.482 0.544 1.289 0.058 1.803-0.533 0.565-0.988 2.182-1.14 3.15-0.108 0.688-0.755 1.171-1.467 1.065z"></path>
            <path d="M2.045 23.809c-0.246-0.949-0.857-2.514-1.444-3.024-0.534-0.465-0.587-1.271-0.119-1.8 0.467-0.531 1.278-0.585 1.814-0.118 1.385 1.205 2.109 3.801 2.24 4.309 0.176 0.682-0.238 1.376-0.925 1.552-0.702 0.175-1.39-0.247-1.565-0.918z"></path>
        </symbol>
    </defs>
</svg>