<!-- Generated by IcoMoon.io -->
<svg version="1.1" xmlns="http://www.w3.org/2000/svg" width="31" height="32" viewBox="0 0 31 32">
<title>hero-icon2</title>
<path fill="#ff6b09" d="M24.717 5.25h-10.248c-0.668 0.001-1.209 0.542-1.209 1.21v4.241l-7.613 3.196c-0.090 0.038-0.153 0.126-0.153 0.229 0 0.090 0.048 0.168 0.119 0.212l0.001 0.001 0.971 0.581v6.192c-0.501 0.118-0.869 0.561-0.869 1.089v0.597c0 0.137 0.111 0.248 0.248 0.248h1.739c0.137 0 0.248-0.111 0.248-0.248v-0.597c-0.001-0.529-0.369-0.971-0.862-1.087l-0.008-0.002v-5.896l0.768 0.459c-0.023 0.177-0.003-0.308-0.011 2.883 0 1.049 2.687 1.611 5.421 1.643v4.832c0 0.667 0.541 1.208 1.208 1.208 0 0 0 0 0.001 0h10.248c0.667-0.001 1.208-0.541 1.209-1.209v-0c0 0.034-0.002-1.023 0-18.573 0-0.658-0.544-1.21-1.209-1.21zM7.456 22.201v0.349h-1.243v-0.349c0-0.344 0.278-0.623 0.62-0.623 0.344 0 0.623 0.279 0.623 0.623zM24.717 25.745h-10.248c-0.246 0-0.463-0.124-0.591-0.313-0.076-0.111-0.122-0.249-0.122-0.397 0-0 0-0 0-0v0-1.675h11.671v1.676c0 0.388-0.324 0.711-0.711 0.711zM25.428 22.862h-11.672v-2.659c1.335-0.015 5.425-0.309 5.425-1.645-0.002-2.005 0.003-2.818-0.007-2.887l2.226-1.334c0.072-0.044 0.12-0.123 0.12-0.212 0-0.102-0.062-0.19-0.15-0.228l-0.002-0.001-7.612-3.195v-2.071h11.672v14.231zM13.508 16.913c-1.376 0-4.023 0.178-5.173 0.929 0.007-2.297-0.080-2.148 0.203-2.343 0.715-0.526 2.758-0.894 4.97-0.894 0.965 0 5.176 0.266 5.176 1.157v2.080c-1.161-0.758-3.795-0.929-5.176-0.929zM13.756 6.46c0-0.393 0.32-0.713 0.713-0.713h10.248c0.393 0 0.711 0.324 0.711 0.713v1.675h-11.671v-1.675zM13.507 11.136l7.218 3.029-1.788 1.070c-0.951-0.943-4.096-1.126-5.429-1.126-1.335 0-4.48 0.183-5.429 1.126l-1.788-1.070 7.218-3.029zM8.335 18.558c0-0.401 1.777-1.15 5.173-1.15 3.398 0 5.176 0.749 5.176 1.15s-1.778 1.15-5.176 1.15c-3.397 0-5.173-0.749-5.173-1.15z"></path>
<path fill="#ff6b09" d="M19.593 23.732c-0.452 0-0.82 0.368-0.82 0.82s0.368 0.82 0.82 0.82c0.452 0 0.82-0.368 0.82-0.82s-0.368-0.82-0.82-0.82zM19.593 24.877c-0.004 0-0.008 0-0.012 0-0.18 0-0.325-0.146-0.325-0.325s0.146-0.325 0.325-0.325c0.005 0 0.010 0 0.014 0l-0.001-0c0.174 0.008 0.311 0.15 0.311 0.325s-0.139 0.318-0.312 0.325l-0.001 0zM20.538 6.693h-1.892v0.496h1.892v-0.496z"></path>
<path fill="none" stroke="#ff6b09" stroke-linejoin="miter" stroke-linecap="butt" stroke-miterlimit="4" stroke-width="1.0159" d="M30.387 4.945v-4.183h-29.879v30.476h29.879v-4.183"></path>
</svg>
