<!-- Generated by IcoMoon.io -->
<svg version="1.1" xmlns="http://www.w3.org/2000/svg" width="31" height="32" viewBox="0 0 31 32">
<title>hero-icon1</title>
<path fill="#ff6b09" d="M7.046 26.005h17.006c0.084-1.939-0.054-5.157-1.247-6.689l-0.043-0.055-2.606-1.308c0.057-0.19 0.085-0.366 0.096-0.494 0.003-0.026 0.004-0.056 0.004-0.087 0-0.124-0.025-0.242-0.070-0.35l0.002 0.006c-0.43-1.029-1.339-1.57-1.84-1.801 0.152-0.307 0.25-0.637 0.298-0.974 0.29-0.083 0.511-0.311 0.584-0.598l0.001-0.006 0.304-1.235c0.054-0.218 0.020-0.444-0.096-0.636-0.051-0.083-0.113-0.153-0.185-0.211l-0.002-0.001c0.857-1.947-0.579-3.784-0.657-3.881-1.556-1.682-3.521-1.367-3.624-1.349-2.836 0.593-3.93 2.767-3.312 5.316-0.183 0.203-0.26 0.485-0.192 0.762l0.305 1.237c0.074 0.297 0.3 0.521 0.582 0.601 0.090 0.628 0.352 1.183 0.735 1.63l-0.004-0.004v0.979c-4.069 2.084-1.491 0.754-4.752 2.404-0.007 0.030-1.53 1.65-1.304 6.45l0.014 0.293zM23.461 25.39h-2.799v-1.175l1.851-4.238c0.927 1.539 0.962 4.478 0.948 5.413zM19.641 17.407c-0.108 1.24-0.789 0.866-1.209 1.821-0.33-0.363-0.43-0.799-0.34-1.265 0.16-0.856-0.363-1.11-0.234-2.010l0.020-0.021v-0.003c0.011-0.012 0.114-0.135 0.144-0.174 1.107 0.483 1.641 1.381 1.619 1.651zM13.701 16.432c0.503 0.355 1.129 0.568 1.805 0.568 0.646 0 1.247-0.194 1.747-0.528l-0.012 0.007c0.071 0.707 0.347 0.849 0.249 1.369-0.018 0.096-0.028 0.192-0.034 0.285l-1.906 2.149-2.437-2.747 0.588-0.307v-0.796zM12.935 13.803v-3.283c0.297-0.549 0.701-0.946 1.204-1.185 1.346 0.762 2.895 1.898 3.934 3.043-0.001 1.457 0.005 1.46-0.005 1.58l-0.001 0.008c-0.081 1.323-1.168 2.419-2.564 2.419-1.356 0-2.482-1.065-2.564-2.433-0.003-0.040-0.005-0.086-0.005-0.133 0-0.005 0-0.011 0-0.016v0.001zM12.555 17.833l2.994 3.376 2.010-2.266c0.046 0.132 0.111 0.258 0.184 0.378l-2.194 2.744-3.273-4.092 0.278-0.14zM18.685 13.307v-0.951l0.229-0.262c0.013 0.482 0.065-0.087-0.229 1.213zM15.087 6.942c0.122 0.008 1.755-0.249 3.047 1.145 0.051 0.064 1.102 1.418 0.68 2.9-0.145-0.66-0.396-1.505-0.795-1.908l-0.435 0.434c0.393 0.398 0.651 1.611 0.75 2.239-1.803-1.887-4.13-3.082-4.162-3.102-0.117 0.073-1.101 0.26-1.816 1.649l-0.034 0.067v1.021l-0.090 0.001c-0.454-2.193 0.416-3.936 2.856-4.447zM12.166 12.022l0.155 0.627v0.658l-0.257-1.041c-0.038-0.155 0.077-0.213 0.103-0.245zM11.716 18.254l3.833 4.794 2.594-3.244c0.282 0.252 0.418 0.288 1.016 0.596l-0.202-0.685c-0.051-0.174 0.152-0.452 0.274-0.58 0.275-0.151 0.501-0.361 0.667-0.614l0.004-0.007 2.116 1.062-1.969 4.508v1.304h-9.001v-1.305l-1.97-4.507 2.637-1.324zM8.584 19.978l1.851 4.236v1.176h-2.799c-0.014-0.935 0.020-3.872 0.947-5.412z"></path>
<path fill="none" stroke="#ff6b09" stroke-linejoin="miter" stroke-linecap="butt" stroke-miterlimit="4" stroke-width="1.0159" d="M30.387 4.945v-4.183h-29.879v30.476h29.879v-4.183"></path>
</svg>
