<svg width="356" height="299" viewBox="0 0 356 299" fill="none" xmlns="http://www.w3.org/2000/svg">
<path d="M140.539 57C136.388 57.2302 132.302 58.9306 129.129 62.1025C122.29 68.9421 122.29 80.0307 129.129 86.8703C132.549 90.2899 137.031 92 141.514 92C145.996 92 150.479 90.2899 153.898 86.8703C157.069 83.6986 158.77 79.6125 159 75.4608L140.539 57ZM136.601 80.3377H133.133L136.809 74.2095L138.497 77.0207L136.601 80.3377ZM138.281 80.3377L144.106 70.1442L149.932 80.3377H138.281ZM155.268 73.7924C154.147 73.5985 153.049 73.2845 151.984 72.8529C149.994 72.0455 148.207 70.8593 146.674 69.3266C145.029 67.6823 143.788 65.7538 142.983 63.5945C142.634 62.6589 142.376 61.703 142.207 60.7315L155.268 73.7924ZM156.217 80.9466C155.415 82.7705 154.287 84.4164 152.866 85.8386C151.333 87.3713 149.546 88.5579 147.556 89.365C145.632 90.1452 143.6 90.5404 141.514 90.5404C139.428 90.5404 137.395 90.1452 135.472 89.365C133.481 88.5579 131.695 87.3713 130.162 85.8386C128.629 84.3053 127.442 82.5189 126.635 80.5284C125.855 78.6047 125.459 76.5721 125.459 74.4866C125.459 72.4005 125.854 70.368 126.635 68.4443C127.442 66.4538 128.629 64.6674 130.162 63.1341C131.584 61.712 133.23 60.5851 135.053 59.7846C136.621 59.0961 138.274 58.6673 139.981 58.5055L140.547 59.0716C140.743 62.2092 141.779 65.3046 143.656 67.9909L139.325 75.5681L136.809 71.3725L130.554 81.7974H135.767H143.064H152.446L146.23 70.9192C149.278 73.7005 153.07 75.2114 156.928 75.4522L157.495 76.0194C157.334 77.7252 156.904 79.3797 156.217 80.9466Z" fill="url(#paint0_linear)" style="mix-blend-mode:multiply"/>
<path d="M290.875 50L282.327 60.0085L281.548 60.9205L272.999 70.929L291.311 86.569L299.859 76.5606L300.638 75.6485L309.187 65.6401L290.875 50ZM291.183 84.9496L274.618 70.8016L282.421 61.6662L298.986 75.8143L291.183 84.9496ZM283.2 60.7542L291.002 51.6188L307.567 65.7669L299.765 74.9022L283.2 60.7541L283.2 60.7542Z" fill="white"/>
<path d="M293.021 60.0337L293.401 57.7604L287.967 59.5836L289.836 61.1798L292.453 63.4148L295.815 66.2858L297.295 58.4992L293.021 60.0337ZM290.254 60.0268L291.955 59.4533L291.783 60.4814L291.08 60.7316L290.254 60.0268ZM292.084 61.5897L295.794 60.2576L295.058 64.1296L292.084 61.5897Z" fill="white"/>
<path d="M294.637 66.7856L287.66 60.8263C287.421 60.6223 287.057 60.651 286.85 60.8924C286.647 61.1306 286.676 61.4954 286.914 61.6994L293.892 67.6587C294.133 67.8649 294.494 67.833 294.697 67.5947C294.904 67.3533 294.879 66.9918 294.637 66.7856Z" fill="white"/>
<path d="M279.094 70.8556C278.855 70.6516 278.493 70.6774 278.286 70.9188C278.08 71.1602 278.112 71.5218 278.351 71.7258C278.592 71.932 278.954 71.9065 279.16 71.6651C279.366 71.4236 279.335 71.0618 279.094 70.8556Z" fill="white"/>
<path d="M280.837 72.3445C280.599 72.141 280.237 72.1668 280.031 72.4082C279.824 72.6496 279.856 73.0112 280.094 73.2147C280.335 73.4209 280.697 73.3954 280.904 73.154C281.11 72.9125 281.079 72.5507 280.837 72.3445Z" fill="white"/>
<path d="M282.585 73.8362C282.343 73.63 281.981 73.6558 281.775 73.8972C281.569 74.1386 281.6 74.5002 281.841 74.7064C282.08 74.9099 282.442 74.8844 282.648 74.6429C282.854 74.4015 282.823 74.0397 282.585 73.8362Z" fill="white"/>
<path d="M284.327 75.3252C284.085 75.119 283.723 75.1448 283.517 75.3862C283.311 75.6276 283.342 75.9892 283.584 76.1954C283.821 76.3983 284.183 76.3729 284.389 76.1314C284.596 75.8899 284.564 75.5281 284.327 75.3252Z" fill="white"/>
<path d="M286.071 76.8148C285.83 76.6086 285.47 76.6366 285.264 76.878C285.058 77.1194 285.087 77.4788 285.328 77.685C285.569 77.8912 285.928 77.8624 286.134 77.621C286.34 77.3795 286.313 77.021 286.071 76.8148Z" fill="white"/>
<path d="M283.889 73.4412L287.251 76.3122L288.729 68.5286L284.454 70.0633L284.837 67.7869L279.404 69.61L281.272 71.2062L283.889 73.4412L283.889 73.4412ZM286.492 74.159L283.518 71.6191L287.227 70.2873L286.492 74.159ZM281.688 70.0561L283.388 69.483L283.219 70.5079L282.513 70.761L281.688 70.0562L281.688 70.0561Z" fill="white"/>
<path d="M303.573 68.4234C303.548 68.1084 303.271 67.8717 302.956 67.8964L300.097 68.1244L300.007 66.9804C299.982 66.6654 299.705 66.4286 299.39 66.4534C299.075 66.4782 298.841 66.7522 298.863 67.0704L298.998 68.7832C299.025 69.1003 299.3 69.3349 299.615 69.3101L303.046 69.0404C303.361 69.0156 303.598 68.7384 303.573 68.4234Z" fill="white"/>
<path d="M290.495 78.7378C290.522 79.055 290.794 79.2924 291.112 79.2647L291.114 79.2669L292.256 79.1747L292.346 80.3187C292.371 80.6337 292.648 80.8704 292.963 80.8457C293.278 80.8209 293.512 80.5465 293.49 80.2287L293.397 79.0876L294.541 78.9976C294.856 78.9728 295.093 78.6956 295.068 78.3809C295.043 78.0659 294.766 77.8291 294.451 77.8539L293.307 77.9436L293.22 76.8022L293.217 76.8C293.192 76.485 292.918 76.2504 292.6 76.273C292.285 76.2975 292.049 76.5747 292.073 76.8897L292.163 78.0337L291.022 78.1208C290.704 78.1485 290.47 78.4228 290.495 78.7378Z" fill="white"/>
<path d="M270.229 176.896L270.923 175.156L271.155 174.576L271.386 173.996C269.801 173.364 269.032 171.548 269.67 169.949C270.308 168.35 272.116 167.563 273.701 168.196L273.933 167.615L274.164 167.035L274.859 165.295L273.502 155.339L266.254 155.137L266.015 159.076L252.797 153.801L246.315 170.042L259.533 175.318L256.994 178.339L262.39 183.182L270.229 176.896ZM258.72 178.21L260.477 176.12L261.591 174.794L259.996 174.157L247.928 169.341L253.484 155.419L265.552 160.236L267.147 160.872L267.252 159.144L267.417 156.418L272.416 156.557L273.586 165.144L272.947 166.745C271.086 166.581 269.255 167.651 268.521 169.49C267.787 171.329 268.378 173.366 269.841 174.528L269.202 176.129L262.441 181.551L258.72 178.21Z" fill="url(#paint1_linear)" style="mix-blend-mode:multiply"/>
<path d="M260.598 165.26L262.785 164.896L259.466 160.497L258.584 162.707L257.349 165.8L255.762 169.778L263.303 168.688L260.598 165.26ZM259.797 163.005L260.552 164.004L259.717 164.143L259.469 163.829L259.797 163.005L259.797 163.005ZM258.935 165.165L260.986 167.764L257.709 168.238L258.935 165.165Z" fill="url(#paint2_linear)" style="mix-blend-mode:multiply"/>
<path d="M27 294.05L18.2733 285L24.8865 278.141C26.2049 276.775 26.2049 274.559 24.8865 273.192C24.2273 272.508 23.3638 272.166 22.5003 272.166C21.6368 272.166 20.7724 272.508 20.1132 273.192L13.5 280.05L4.7733 271L0 275.95L8.7267 285L1.12472 292.884V297.834H5.89802L13.5 289.95L22.2267 299L27 294.05ZM17.4773 284.175L16.2875 282.941L21.3105 277.733L22.5003 278.966L17.4773 284.175ZM20.9092 274.016C21.3343 273.576 21.8988 273.333 22.5003 273.333C23.101 273.333 23.6662 273.576 24.0914 274.016C24.9681 274.926 24.9681 276.407 24.0914 277.316L23.2954 278.141L20.1132 274.841L20.9092 274.016ZM19.3181 275.666L20.5145 276.908L15.4924 282.116L14.2952 280.875L19.3181 275.666ZM4.7733 272.65L6.34052 274.275L5.54454 275.1C5.32538 275.328 5.32538 275.698 5.54454 275.925C5.76455 276.153 6.12051 276.153 6.34052 275.925C6.34052 275.925 6.34052 275.925 6.34136 275.924L7.13565 275.1L8.72675 276.75L7.93162 277.575C7.71161 277.803 7.71161 278.173 7.93162 278.4C8.15078 278.628 8.50758 278.628 8.72675 278.4C8.72675 278.4 8.72675 278.4 8.72675 278.4L9.52272 277.575L11.1138 279.225L10.3187 280.05C10.3187 280.05 10.3178 280.05 10.3178 280.05C10.0987 280.278 10.0987 280.647 10.3178 280.875C10.5379 281.103 10.8938 281.103 11.1138 280.875V280.875L11.909 280.05L13.5 281.7L12.7049 282.525C12.4849 282.753 12.4849 283.122 12.7049 283.35C12.924 283.578 13.28 283.578 13.5 283.35L14.2951 282.525L15.8862 284.175L15.0911 285C14.8711 285.228 14.8711 285.597 15.0911 285.825C15.3103 286.053 15.6671 286.053 15.8862 285.825C15.8871 285.825 15.8871 285.825 15.8871 285.825L16.6822 285L18.2733 286.65L17.4773 287.475V287.475C17.2582 287.703 17.2582 288.072 17.4773 288.3C17.6973 288.528 18.0533 288.528 18.2733 288.3L19.0684 287.475L20.6595 289.125L19.8644 289.95C19.6444 290.178 19.6444 290.547 19.8644 290.775C20.0836 291.002 20.4395 291.003 20.6595 290.775C20.6595 290.775 20.6595 290.775 20.6595 290.774L21.4547 289.95L23.0458 291.6L22.2515 292.424L22.2506 292.425C22.0306 292.652 22.0306 293.022 22.2506 293.25C22.4706 293.477 22.8266 293.477 23.0458 293.25L23.8417 292.425L25.409 294.05L22.2267 297.35L1.5911 275.95L4.7733 272.65ZM2.24944 296.667V295.7L3.1822 296.667H2.24944ZM5.43164 296.667H4.77246L2.24944 294.05V293.367L9.52267 285.825L10.7191 287.066L5.10616 292.887C4.88616 293.115 4.88616 293.485 5.10616 293.712C5.32533 293.94 5.68128 293.94 5.90129 293.712L11.515 287.891L12.7048 289.125L5.43164 296.667Z" fill="white"/>
<path d="M223 35.0503L214.273 26L220.887 19.1414C222.205 17.7747 222.205 15.5585 220.887 14.1918C220.227 13.5082 219.364 13.1664 218.5 13.1664C217.637 13.1664 216.772 13.5082 216.113 14.1918L209.5 21.0503L200.773 12L196 16.9497L204.727 26L197.125 33.8835V38.8336H201.898L209.5 30.9497L218.227 40L223 35.0503ZM213.477 25.175L212.288 23.9411L217.31 18.7326L218.5 19.9664L213.477 25.175ZM216.909 15.0163C217.334 14.5758 217.899 14.3332 218.5 14.3332C219.101 14.3332 219.666 14.5759 220.091 15.0163C220.968 15.9264 220.968 17.4068 220.091 18.3164L219.295 19.1414L216.113 15.8414L216.909 15.0163ZM215.318 16.6664L216.515 17.9075L211.492 23.1161L210.295 21.8753L215.318 16.6664ZM200.773 13.65L202.341 15.2753L201.545 16.1003C201.325 16.328 201.325 16.6976 201.545 16.9253C201.765 17.153 202.121 17.153 202.341 16.9253C202.341 16.9253 202.341 16.9249 202.341 16.9244L203.136 16.1003L204.727 17.7503L203.932 18.5754C203.712 18.8031 203.712 19.1726 203.932 19.4004C204.151 19.6281 204.508 19.6281 204.727 19.4004C204.727 19.3999 204.727 19.3999 204.727 19.3999L205.523 18.5754L207.114 20.2254L206.319 21.0495C206.319 21.0495 206.318 21.05 206.318 21.0504C206.099 21.2781 206.099 21.6473 206.318 21.875C206.538 22.1031 206.894 22.1031 207.114 21.875V21.8754L207.909 21.0504L209.5 22.6999L208.705 23.525C208.485 23.7531 208.485 24.1223 208.705 24.35C208.924 24.5777 209.28 24.5777 209.5 24.35L210.295 23.525L211.886 25.175L211.091 26C210.871 26.2277 210.871 26.5973 211.091 26.825C211.31 27.0527 211.667 27.0527 211.886 26.825C211.887 26.8246 211.887 26.8246 211.887 26.8246L212.682 26L214.273 27.65L213.477 28.4746V28.475C213.258 28.7028 213.258 29.0719 213.477 29.3001C213.697 29.5278 214.053 29.5278 214.273 29.3001L215.068 28.475L216.66 30.1251L215.864 30.9497C215.644 31.1778 215.644 31.547 215.864 31.7747C216.084 32.0024 216.44 32.0028 216.66 31.7747C216.66 31.7747 216.66 31.7747 216.66 31.7742L217.455 30.9497L219.046 32.5997L218.251 33.4243L218.251 33.4247C218.031 33.6524 218.031 34.022 218.251 34.2497C218.471 34.4774 218.827 34.4774 219.046 34.2497L219.842 33.4247L221.409 35.0504L218.227 38.35L197.591 16.9497L200.773 13.65ZM198.249 37.6668V36.7004L199.182 37.6668H198.249ZM201.432 37.6668H200.772L198.249 35.0503V34.3672L205.523 26.825L206.719 28.0661L201.106 33.8874C200.886 34.1151 200.886 34.4847 201.106 34.7124C201.325 34.9401 201.681 34.9401 201.901 34.7124L207.515 28.8912L208.705 30.1247L201.432 37.6668Z" fill="url(#paint3_linear)" style="mix-blend-mode:multiply"/>
<path d="M217.827 220.588L212.81 225.448C212.579 225.671 212.574 226.04 212.797 226.27C213.021 226.502 213.389 226.508 213.62 226.284L218.638 221.425C218.869 221.201 218.874 220.833 218.65 220.601C218.427 220.371 218.058 220.364 217.827 220.588Z" fill="url(#paint4_linear)" style="mix-blend-mode:multiply"/>
<path d="M212 224.611L213.672 222.991C213.903 222.767 213.909 222.399 213.686 222.168C213.462 221.937 213.094 221.932 212.863 222.156L211.19 223.775C210.96 223.999 210.953 224.367 211.177 224.598C211.401 224.829 211.769 224.834 212 224.611Z" fill="url(#paint5_linear)" style="mix-blend-mode:multiply"/>
<path d="M224.075 212.47L222.064 211.933L223.238 216.97L224.831 215.427L227.06 213.268L229.928 210.491L223.059 208.499L224.075 212.47ZM223.904 214.704L223.638 213.558L224.405 213.763L224.498 214.128L223.904 214.704ZM225.461 213.196L224.692 210.185L227.677 211.05L225.461 213.196Z" fill="url(#paint6_linear)" style="mix-blend-mode:multiply"/>
<path d="M220.652 198.404L201.418 217.032C201.187 217.256 201.181 217.625 201.405 217.856L212.744 229.563C212.967 229.794 213.336 229.799 213.567 229.576L232.8 210.948C233.031 210.725 233.037 210.356 232.814 210.126L221.474 198.418C221.251 198.187 220.882 198.181 220.652 198.404ZM220.223 200.441L216.725 213.302C216.698 213.404 216.536 213.56 216.433 213.585L203.464 216.672L220.223 200.441ZM213.175 228.334L203.118 217.951L216.703 214.717C216.96 214.656 217.212 214.506 217.417 214.308C217.621 214.11 217.78 213.863 217.849 213.608L221.513 200.131L231.572 210.516L213.175 228.334Z" fill="url(#paint7_linear)" style="mix-blend-mode:multiply"/>
<path d="M178 12.7272C178 5.69796 172.329 0 165.333 0C163.026 0 160.864 0.619865 159 1.70299C157.136 0.61994 154.974 0 152.667 0C145.671 0 140 5.69796 140 12.7272C140 17.4761 142.588 21.6167 146.425 23.8039C147.177 30.1107 152.52 35 159 35C165.48 35 170.823 30.1107 171.575 23.8039C175.412 21.6167 178 17.4761 178 12.7272ZM148.164 24.626C149.564 25.1608 151.081 25.4544 152.667 25.4544C154.974 25.4544 157.136 24.8346 159 23.7514C160.864 24.8345 163.026 25.4544 165.333 25.4544C166.919 25.4544 168.436 25.1608 169.836 24.626C169.691 25.3024 169.483 25.9642 169.213 26.6068C168.655 27.9329 167.855 29.1243 166.837 30.1474C165.819 31.1705 164.634 31.9739 163.314 32.535C161.948 33.1153 160.497 33.4095 159 33.4095C157.503 33.4095 156.052 33.1153 154.686 32.535C153.366 31.974 152.181 31.1705 151.163 30.1474C150.145 29.1243 149.345 27.9329 148.787 26.6068C148.517 25.9642 148.309 25.3024 148.164 24.626ZM170.071 22.7977C169.931 22.8642 169.79 22.9282 169.647 22.9894C168.282 23.5696 166.83 23.8639 165.333 23.8639C163.836 23.8639 162.385 23.5697 161.02 22.9894C160.838 22.9119 160.66 22.8297 160.482 22.7435C163.338 20.4899 165.207 17.0298 165.326 13.1269C165.863 13.5026 166.369 13.9268 166.837 14.3981C167.855 15.4212 168.655 16.6126 169.213 17.9381C169.791 19.3102 170.083 20.7685 170.083 22.2728C170.083 22.4487 170.079 22.6235 170.071 22.7977ZM163.737 12.2023C163.745 12.3765 163.75 12.5513 163.75 12.7272C163.75 14.2315 163.458 15.6898 162.88 17.0613C162.321 18.3873 161.522 19.5788 160.504 20.6019C160.037 21.0715 159.535 21.4938 159 21.8679C158.465 21.4938 157.963 21.0715 157.496 20.6019C156.478 19.5788 155.679 18.3874 155.12 17.0613C154.542 15.6898 154.25 14.2315 154.25 12.7272C154.25 12.5513 154.255 12.3765 154.263 12.2023C154.402 12.1358 154.543 12.0718 154.686 12.0106C156.052 11.4304 157.503 11.1361 159 11.1361C160.497 11.1361 161.948 11.4303 163.314 12.0106C163.457 12.0718 163.598 12.1358 163.737 12.2023ZM159 9.54556C157.415 9.54556 155.897 9.83924 154.498 10.374C154.643 9.69762 154.85 9.03577 155.12 8.39316C155.679 7.06715 156.478 5.87567 157.496 4.85258C157.963 4.38298 158.465 3.96059 159 3.58652C159.535 3.96059 160.037 4.38298 160.504 4.85258C161.522 5.87567 162.321 7.06707 162.88 8.39316C163.151 9.03577 163.358 9.69762 163.502 10.374C162.103 9.83916 160.585 9.54556 159 9.54556ZM152.674 13.1269C152.793 17.0298 154.662 20.4899 157.518 22.7435C157.341 22.8297 157.162 22.9119 156.98 22.9894C155.615 23.5696 154.164 23.8639 152.667 23.8639C151.17 23.8639 149.718 23.5697 148.353 22.9894C148.211 22.9282 148.069 22.8641 147.929 22.7977C147.921 22.6235 147.917 22.4487 147.917 22.2728C147.917 20.7685 148.209 19.3102 148.787 17.9387C149.345 16.6127 150.145 15.4212 151.163 14.3981C151.631 13.9268 152.137 13.5026 152.674 13.1269ZM157.518 2.71094C154.94 4.74429 153.168 7.75987 152.759 11.1961C149.03 13.3215 146.481 17.2926 146.34 21.8731C145.803 21.4974 145.299 21.0732 144.83 20.6019C143.811 19.5788 143.012 18.3874 142.454 17.0613C141.876 15.6898 141.583 14.2315 141.583 12.7272C141.583 11.2229 141.876 9.76459 142.454 8.39316C143.012 7.06715 143.811 5.87567 144.83 4.85258C145.848 3.82949 147.033 3.02609 148.353 2.46499C149.718 1.88473 151.17 1.59045 152.667 1.59045C154.164 1.59045 155.615 1.88465 156.98 2.46499C157.162 2.54255 157.341 2.62466 157.518 2.71094ZM175.546 8.39316C176.124 9.76466 176.417 11.2229 176.417 12.7272C176.417 14.2315 176.124 15.6898 175.546 17.0613C174.988 18.3873 174.189 19.5788 173.17 20.6019C172.702 21.0732 172.197 21.4974 171.66 21.8731C171.519 17.2926 168.97 13.3215 165.241 11.1961C164.832 7.75987 163.06 4.74422 160.482 2.71094C160.66 2.62473 160.838 2.54255 161.02 2.46507C162.385 1.8848 163.836 1.59053 165.333 1.59053C166.83 1.59053 168.282 1.88473 169.647 2.46507C170.967 3.02609 172.152 3.82956 173.17 4.85265C174.189 5.87567 174.988 7.06715 175.546 8.39316Z" fill="url(#paint8_linear)" style="mix-blend-mode:multiply"/>
<path d="M68.0489 40.9068L75.3942 45.9599L78.5423 48.1256L85.8884 53.1792L104.263 28.7157L84.3255 14.9999L68.0489 40.9068ZM69.777 40.5494L71.1338 38.3911L77.5599 42.8118L76.1162 44.9104L69.777 40.5494ZM77.1661 45.6326L80.0535 41.4354L81.1026 42.1571L78.2152 46.3544L77.1661 45.6326ZM79.2643 47.0761L80.708 44.9775L87.1348 49.3987L85.6035 51.437L79.2643 47.0761ZM102.447 29.0132L87.9006 48.3793L81.43 43.928L82.8737 41.8294C83.073 41.5396 83.0001 41.1435 82.7104 40.9442C82.4206 40.7449 82.0239 40.8179 81.8246 41.1077C82.0239 40.8179 81.9502 40.4213 81.6605 40.222C81.3707 40.0226 80.9748 40.0962 80.7755 40.3859C80.9748 40.0962 80.9011 39.6996 80.6114 39.5003C80.3216 39.3009 79.9249 39.3739 79.7256 39.6637L78.2819 41.7623L71.812 37.3114L84.6969 16.8022L102.447 29.0132Z" fill="white"/>
<path d="M83.2952 34.9042L88.8505 32.2275L88.6554 35.3521L95.7356 32.1245L92.9871 30.2338L89.1396 27.5869L84.1923 24.1835L83.2952 34.9042ZM93.1595 31.8991L90.0586 33.3123L90.1654 31.5933L91.6653 30.8713L93.1595 31.8991L93.1595 31.8991ZM90.4564 30.0396L84.7502 32.789L85.2785 26.4775L90.4564 30.0396Z" fill="white"/>
<g clip-path="url(#clip0)">
<path d="M329.285 151.636C329.285 149.387 327.462 147.563 325.212 147.563C324.911 147.563 324.618 147.596 324.335 147.658L321.636 144.959L328.961 137.633C330.23 136.364 330.23 134.307 328.961 133.038C328.327 132.404 327.496 132.086 326.664 132.086C325.833 132.086 325.001 132.404 324.366 133.038L317.04 140.364L308.697 132.02C308.274 131.597 307.719 131.386 307.166 131.386C306.611 131.386 306.056 131.597 305.633 132.02C304.788 132.866 304.788 134.237 305.633 135.084L313.977 143.427L306.085 151.319V155.914H310.681L318.572 148.022L321.248 150.698C321.177 150.999 321.138 151.313 321.138 151.636C321.138 156.249 327.941 156.614 330.19 156.614C332.44 156.615 329.285 153.886 329.285 151.636ZM326.664 133.169C327.243 133.169 327.786 133.395 328.195 133.804C329.04 134.648 329.04 136.023 328.195 136.867L327.43 137.633L324.366 134.569L325.132 133.804C325.541 133.395 326.085 133.169 326.664 133.169ZM306.399 134.317C305.977 133.895 305.977 133.208 306.399 132.786C306.604 132.581 306.876 132.469 307.166 132.469C307.454 132.469 307.727 132.581 307.931 132.786L316.275 141.129L314.743 142.661L306.399 134.317ZM307.169 154.831V153.934L308.065 154.831H307.169ZM310.232 154.831H309.598L307.169 152.402V151.768L323.601 135.335L324.753 136.488L309.918 151.322C309.706 151.534 309.706 151.877 309.918 152.088C310.129 152.3 310.473 152.3 310.684 152.088L325.518 137.253L326.664 138.399L310.232 154.831ZM319.338 147.256L320.869 145.725L323.225 148.08C322.584 148.439 322.05 148.966 321.683 149.601L319.338 147.256ZM325.167 154.829C324.225 154.511 323.499 154.098 323.009 153.6C322.479 153.063 322.222 152.421 322.222 151.636C322.222 150.838 322.533 150.087 323.097 149.522C323.662 148.958 324.413 148.647 325.212 148.647C326.861 148.647 328.202 149.988 328.202 151.636C328.202 152.869 328.859 154.072 329.387 155.038C329.466 155.182 329.561 155.356 329.648 155.524C328.482 155.494 326.716 155.351 325.167 154.829Z" fill="url(#paint9_linear)" style="mix-blend-mode:multiply"/>
</g>
<g clip-path="url(#clip1)">
<path d="M239.686 113.447L287.58 127.017L290.495 116.733L242.6 103.162L239.686 113.447ZM286.352 124.819L282.974 123.861L283.461 122.147C283.594 121.673 283.319 121.181 282.846 121.046C282.373 120.913 281.881 121.188 281.746 121.661C281.746 121.662 281.746 121.662 281.746 121.662L281.261 123.375L277.832 122.404L278.318 120.69C278.452 120.216 278.177 119.724 277.703 119.59C277.231 119.456 276.737 119.73 276.604 120.204L276.118 121.919L272.69 120.947L273.175 119.233L273.175 119.232C273.31 118.76 273.034 118.267 272.561 118.133C272.087 117.999 271.595 118.274 271.461 118.747C271.461 118.748 271.461 118.748 271.461 118.748L270.975 120.461L267.547 119.489L268.033 117.776C268.167 117.302 267.892 116.81 267.418 116.675C266.946 116.542 266.453 116.817 266.318 117.29L265.833 119.004L262.405 118.033L262.891 116.319C263.025 115.845 262.749 115.353 262.276 115.219C261.803 115.084 261.31 115.359 261.176 115.833L260.691 117.548L257.263 116.576L257.748 114.861C257.883 114.389 257.607 113.895 257.134 113.762C256.66 113.628 256.168 113.902 256.034 114.376C256.034 114.376 256.034 114.376 256.034 114.376L255.548 116.09L252.12 115.118L252.606 113.405C252.739 112.931 252.465 112.439 251.991 112.304C251.518 112.171 251.026 112.446 250.891 112.918C250.891 112.918 250.891 112.918 250.892 112.92L250.406 114.633L246.977 113.662L247.462 111.949C247.463 111.948 247.463 111.948 247.463 111.948C247.597 111.474 247.322 110.982 246.849 110.848C246.375 110.713 245.882 110.988 245.749 111.462L245.263 113.175L241.886 112.219L243.828 105.362L288.295 117.962L286.352 124.819Z" fill="url(#paint10_linear)" style="mix-blend-mode:multiply"/>
</g>
<path d="M278.243 28.7833L264.196 11.378C264.027 11.1696 263.721 11.1366 263.512 11.3053L251.405 21.0771C251.196 21.2457 251.163 21.5519 251.332 21.7603L256.4 28.0398L253.764 29.4192L253.642 29.2679C253.474 29.0595 253.167 29.0268 252.958 29.1954C252.749 29.3641 252.717 29.6703 252.885 29.8787L257.771 35.9332C257.94 36.1416 258.246 36.1746 258.455 36.0059C258.664 35.8373 258.697 35.5308 258.528 35.3224L258.406 35.1706L260.31 32.885L265.379 39.1656C265.547 39.374 265.853 39.407 266.062 39.2383L278.17 29.4666C278.379 29.2979 278.411 28.9917 278.243 28.7833ZM254.387 30.1913L257.019 28.8138L259.685 32.1153L257.783 34.3991L254.387 30.1913L254.387 30.1913ZM277.18 29.015L267.343 36.9543L253.908 20.3072L263.745 12.3679L277.18 29.015ZM259.112 29.8524L252.394 21.5289L253.151 20.9181L259.869 29.2416L266.586 37.5651L265.83 38.1759L259.112 29.8524Z" fill="url(#paint11_linear)" style="mix-blend-mode:multiply"/>
<path d="M259.795 29.9251C260.004 29.7564 260.037 29.4507 259.869 29.2418C259.7 29.0329 259.394 29.0004 259.185 29.1691C258.976 29.3377 258.943 29.6437 259.112 29.8526C259.28 30.0615 259.586 30.0937 259.795 29.9251Z" fill="url(#paint12_linear)" style="mix-blend-mode:multiply"/>
<path d="M263.148 14.7241L272.308 26.0738C272.308 26.0738 272.309 26.0744 272.309 26.0749C272.477 26.2833 272.784 26.3163 272.993 26.1476C273.202 25.979 273.234 25.6725 273.066 25.4641L263.905 14.1133C263.736 13.9038 263.43 13.8711 263.221 14.0397C263.012 14.2084 262.979 14.5146 263.148 14.7241Z" fill="url(#paint13_linear)" style="mix-blend-mode:multiply"/>
<path d="M261.635 15.946L266.52 21.9989C266.521 21.9994 266.521 21.9994 266.521 21.9994C266.69 22.2084 266.995 22.2408 267.204 22.0721C267.413 21.9035 267.446 21.5978 267.277 21.3889L262.392 15.3354C262.223 15.126 261.917 15.093 261.708 15.2616C261.499 15.4303 261.466 15.7365 261.635 15.946Z" fill="url(#paint14_linear)" style="mix-blend-mode:multiply"/>
<path d="M260.12 17.1677L266.837 25.4907C266.838 25.4913 266.838 25.4913 266.838 25.4913C267.006 25.7002 267.312 25.7326 267.521 25.564C267.73 25.3953 267.763 25.0894 267.595 24.8804L260.877 16.5569C260.708 16.3474 260.401 16.3144 260.193 16.4831C259.983 16.6519 259.951 16.9582 260.12 17.1677Z" fill="url(#paint15_linear)" style="mix-blend-mode:multiply"/>
<path d="M258.608 18.3888L262.882 23.6851C263.051 23.8946 263.358 23.9275 263.566 23.7589C263.775 23.5903 263.808 23.284 263.639 23.0745L259.365 17.778C259.195 17.5685 258.889 17.5357 258.68 17.7044C258.471 17.873 258.439 18.1793 258.608 18.3888Z" fill="url(#paint16_linear)" style="mix-blend-mode:multiply"/>
<path d="M257.094 19.6104L265.033 29.447L265.033 29.4472C265.202 29.6567 265.509 29.6894 265.717 29.5208C265.926 29.3521 265.959 29.0459 265.79 28.8364L257.851 18.9998C257.682 18.7903 257.376 18.7573 257.167 18.926C256.958 19.0946 256.925 19.4009 257.094 19.6104Z" fill="url(#paint17_linear)" style="mix-blend-mode:multiply"/>
<path d="M255.58 20.832L258.023 23.8582C258.192 24.0676 258.498 24.1006 258.707 23.932C258.916 23.7633 258.949 23.4568 258.78 23.2473L256.337 20.2212C256.168 20.0117 255.862 19.9787 255.653 20.1474C255.444 20.3162 255.411 20.6225 255.58 20.832Z" fill="url(#paint18_linear)" style="mix-blend-mode:multiply"/>
<path d="M188.715 153.114L184.915 149.114L180.589 162.123L186.326 160.843L194.358 159.052L204.684 156.749L191.922 142.733L188.715 153.114ZM183.449 159.54L185.718 152.716L188.072 155.194L186.972 158.754L183.449 159.54ZM189.107 158.278L192.755 146.469L201.078 155.608L189.107 158.278Z" fill="white"/>
<path d="M198.288 128.08L197.866 126.186C197.75 125.664 197.241 125.333 196.729 125.447C196.216 125.561 195.897 126.077 196.013 126.6L196.435 128.493L192.728 129.32L192.306 127.427C192.189 126.904 191.681 126.573 191.169 126.687C190.656 126.801 190.336 127.317 190.453 127.84L190.875 129.733L187.168 130.56L186.746 128.667C186.629 128.144 186.12 127.813 185.609 127.927C185.096 128.041 184.776 128.557 184.892 129.08L185.315 130.973L181.608 131.8L181.186 129.907C181.069 129.384 180.56 129.053 180.048 129.167C179.536 129.282 179.215 129.798 179.332 130.32L179.754 132.213L176.047 133.04L175.625 131.147C175.509 130.624 174.999 130.293 174.488 130.407C173.975 130.522 173.655 131.038 173.771 131.561L174.194 133.454L168.633 134.694L177.922 176.339L213.137 168.484L203.849 126.839L198.288 128.08ZM210.871 167.043L179.362 174.071L170.9 136.134L174.607 135.307L175.012 137.121C175.128 137.644 175.638 137.975 176.15 137.861C176.662 137.747 176.982 137.23 176.865 136.708L176.461 134.894L180.168 134.067L180.572 135.881C180.689 136.403 181.198 136.735 181.71 136.621C182.222 136.507 182.542 135.99 182.426 135.467L182.021 133.654L185.728 132.827L186.133 134.641C186.249 135.163 186.758 135.495 187.271 135.381C187.783 135.266 188.103 134.75 187.986 134.227L187.582 132.413L191.288 131.587L191.693 133.4C191.81 133.923 192.318 134.255 192.831 134.14C193.343 134.026 193.663 133.51 193.546 132.987L193.141 131.173L196.849 130.347L197.253 132.16C197.37 132.683 197.879 133.015 198.392 132.9C198.904 132.786 199.223 132.27 199.106 131.747L198.702 129.933L202.409 129.106L210.871 167.043Z" fill="white"/>
<path d="M209.231 54.4347L186.495 74.4399C186.222 74.6801 186.195 75.0962 186.435 75.3691L200.351 91.186C200.592 91.459 201.008 91.4852 201.281 91.2451L209.484 84.0273L211.502 87.5134L211.304 87.6874C211.031 87.9275 211.005 88.344 211.245 88.617C211.485 88.89 211.901 88.9162 212.174 88.676L220.083 81.7175C220.356 81.4773 220.382 81.0619 220.142 80.7889C219.902 80.5159 219.486 80.4887 219.213 80.7288L219.015 80.9028L215.813 78.4589L224.018 71.2399C224.29 70.9997 224.317 70.5842 224.077 70.3113L210.16 54.4944C209.92 54.2214 209.504 54.1945 209.231 54.4347ZM212.51 86.6266L210.495 83.1451L214.808 79.3479L218.007 81.7896L212.51 86.6267L212.51 86.6266ZM213.956 60.801L210.99 63.4104L206.641 58.4678L209.607 55.8584L213.956 60.801ZM211.86 64.3991L214.825 61.7897L220.914 68.7093L217.948 71.3186L211.86 64.3991ZM205.653 59.3374L216.96 72.1882L199.166 87.8443L187.859 74.9935L205.653 59.3374ZM211.779 80.2545L200.906 89.8217L200.036 88.833L210.909 79.2658L221.784 69.698L222.653 70.6866L211.779 80.2545Z" fill="url(#paint19_linear)" style="mix-blend-mode:multiply"/>
<path d="M211.838 79.3251C211.597 79.0522 211.182 79.0253 210.908 79.2661C210.635 79.5063 210.609 79.9217 210.849 80.1947C211.09 80.4677 211.505 80.4949 211.778 80.2548C212.052 80.014 212.078 79.5981 211.838 79.3251Z" fill="url(#paint20_linear)" style="mix-blend-mode:multiply"/>
<path d="M205.14 75.5555L208.529 72.5734L200.877 69.9518L201.81 74.4933L199.567 73.7777L200.62 79.5319L202.504 77.8749L205.14 75.5555ZM202.631 71.9444L205.955 73.0838L203.337 75.3873L202.631 71.9444ZM201.497 77.0067L201.257 75.6992L202.113 75.9722L202.198 76.3894L201.497 77.0067Z" fill="url(#paint21_linear)" style="mix-blend-mode:multiply"/>
<path d="M193.551 73.4909L192.563 74.3605L193.433 75.3492L194.421 74.4796L193.551 73.4909Z" fill="url(#paint22_linear)" style="mix-blend-mode:multiply"/>
<path d="M198.987 68.7078L197.999 69.5774L198.869 70.5661L199.857 69.6965L198.987 68.7078Z" fill="url(#paint23_linear)" style="mix-blend-mode:multiply"/>
<path d="M204.425 63.924L203.436 64.7943L204.305 65.7829L205.294 64.9127L204.425 63.924Z" fill="url(#paint24_linear)" style="mix-blend-mode:multiply"/>
<path d="M207.904 67.8781L206.915 68.7483L207.785 69.7366L208.774 68.8664L207.904 67.8781Z" fill="url(#paint25_linear)" style="mix-blend-mode:multiply"/>
<path d="M211.384 71.8321L210.395 72.7023L211.265 73.691L212.254 72.8208L211.384 71.8321Z" fill="url(#paint26_linear)" style="mix-blend-mode:multiply"/>
<path d="M200.511 81.3995L199.523 82.2691L200.393 83.2578L201.381 82.3882L200.511 81.3995Z" fill="url(#paint27_linear)" style="mix-blend-mode:multiply"/>
<path d="M197.031 77.4455L196.043 78.315L196.913 79.3033L197.901 78.4338L197.031 77.4455Z" fill="url(#paint28_linear)" style="mix-blend-mode:multiply"/>
<path d="M205.947 76.6164L204.959 77.486L205.829 78.4746L206.817 77.6051L205.947 76.6164Z" fill="url(#paint29_linear)" style="mix-blend-mode:multiply"/>
<circle cx="336.5" cy="94.5" r="10.5" stroke="url(#paint30_linear)" stroke-width="10" style="mix-blend-mode:multiply"/>
<path d="M255 259.807V255.894H249.053V249H244.947V255.894H239V259.807H244.947V267H249.053V259.807H255Z" fill="white"/>
<path d="M295.472 292C295.472 290.494 291.366 277.65 307.38 282.17C323.394 286.689 328.321 279.157 331.606 264.641C334.891 250.125 344.472 248.756 352 249.029" stroke="url(#paint31_linear)" stroke-width="8" stroke-linecap="round" stroke-linejoin="round" style="mix-blend-mode:multiply"/>
<path d="M339.197 44.7795C338.668 45.0496 334.888 48.7878 333.618 42.3746C332.348 35.9614 328.822 35.5872 323.135 37.0392C317.448 38.4913 315.257 35.3843 314.01 32.7012" stroke="url(#paint32_linear)" stroke-width="8" stroke-linecap="round" stroke-linejoin="round" style="mix-blend-mode:multiply"/>
<path d="M44.0883 68.4711L32.8074 80.1773L20.9622 88.3949L22.998 90.3567L21.5265 91.8836C21.2556 92.1647 21.2639 92.6127 21.545 92.8836L39.8683 110.541C40.1494 110.812 40.597 110.803 40.8679 110.522L63.4297 87.1096C63.7006 86.8285 63.6927 86.3809 63.4116 86.11L45.0883 68.4526C44.8072 68.1817 44.3592 68.19 44.0883 68.4711ZM23.1846 88.5738L32.6614 81.9994L49.9263 98.6369L40.4496 105.211L23.1846 88.5738ZM40.3398 109.033L23.0346 92.3563L24.0161 91.3378L40.3036 107.033L46.2256 102.925L40.3398 109.033ZM61.9216 86.637L51.1307 97.8348L33.8255 81.1584L44.6164 69.9606L61.9216 86.637Z" fill="url(#paint33_linear)" style="mix-blend-mode:multiply"/>
<path d="M39.7486 77.049L36.8057 80.1028L39.8595 83.0458L42.8025 79.9919L39.7486 77.049ZM40.8029 80.0292L39.8222 81.047L38.8041 80.0659L39.7848 79.0482L40.8029 80.0292Z" fill="url(#paint34_linear)" style="mix-blend-mode:multiply"/>
<path d="M43.6724 72.9782L40.7295 76.032L43.7834 78.975L46.7263 75.9211L43.6724 72.9782ZM44.7275 75.9577L43.746 76.9762L42.7279 75.9951L43.7094 74.9766L44.7275 75.9577Z" fill="url(#paint35_linear)" style="mix-blend-mode:multiply"/>
<path d="M43.8208 80.9724L40.8779 84.0263L43.9318 86.9692L46.8747 83.9153L43.8208 80.9724ZM44.8756 83.9531L43.8948 84.9708L42.8767 83.9897L43.8575 82.972L44.8756 83.9531Z" fill="url(#paint36_linear)" style="mix-blend-mode:multiply"/>
<path d="M47.7432 76.9016L44.8003 79.9555L47.8542 82.8984L50.7971 79.8445L47.7432 76.9016ZM48.7987 79.8815L47.8172 80.9L46.7991 79.9189L47.7806 78.9004L48.7987 79.8815Z" fill="url(#paint37_linear)" style="mix-blend-mode:multiply"/>
<path d="M47.8921 84.8966L44.9492 87.9504L48.0031 90.8933L50.946 87.8395L47.8921 84.8966ZM48.9465 87.8768L47.9657 88.8945L46.948 87.9138L47.9288 86.8961L48.9465 87.8768Z" fill="url(#paint38_linear)" style="mix-blend-mode:multiply"/>
<path d="M51.816 80.8254L48.873 83.8793L51.9269 86.8222L54.8698 83.7683L51.816 80.8254ZM52.871 83.8049L51.8896 84.8234L50.8719 83.8427L51.8533 82.8242L52.871 83.8049Z" fill="url(#paint39_linear)" style="mix-blend-mode:multiply"/>
<path d="M55.0188 91.7636L51.9649 88.8207L49.022 91.8746L52.0759 94.8175L55.0188 91.7636ZM51.0204 91.8376L52.0011 90.8199L53.0192 91.801L52.0385 92.8187L51.0204 91.8376Z" fill="url(#paint40_linear)" style="mix-blend-mode:multiply"/>
<path d="M55.8872 84.7496L52.9443 87.8034L55.9982 90.7463L58.9411 87.6925L55.8872 84.7496ZM56.9423 87.7291L55.9609 88.7475L54.9428 87.7665L55.9242 86.748L56.9423 87.7291Z" fill="url(#paint41_linear)" style="mix-blend-mode:multiply"/>
<defs>
<linearGradient id="paint0_linear" x1="158.545" y1="57.8464" x2="119.251" y2="69.428" gradientUnits="userSpaceOnUse">
<stop stop-color="#FFC000"/>
<stop offset="1" stop-color="#FF8A00"/>
</linearGradient>
<linearGradient id="paint1_linear" x1="266.576" y1="184.433" x2="267.845" y2="150.006" gradientUnits="userSpaceOnUse">
<stop stop-color="#FFC000"/>
<stop offset="1" stop-color="#FF8A00"/>
</linearGradient>
<linearGradient id="paint2_linear" x1="261.791" y1="172.045" x2="261.345" y2="160.919" gradientUnits="userSpaceOnUse">
<stop stop-color="#FFC000"/>
<stop offset="1" stop-color="#FF8A00"/>
</linearGradient>
<linearGradient id="paint3_linear" x1="222.649" y1="12.6771" x2="192.165" y2="21.341" gradientUnits="userSpaceOnUse">
<stop stop-color="#FFC000"/>
<stop offset="1" stop-color="#FF8A00"/>
</linearGradient>
<linearGradient id="paint4_linear" x1="218.189" y1="220.277" x2="219.545" y2="224.398" gradientUnits="userSpaceOnUse">
<stop stop-color="#FFC000"/>
<stop offset="1" stop-color="#FF8A00"/>
</linearGradient>
<linearGradient id="paint5_linear" x1="213.268" y1="221.802" x2="213.023" y2="224.984" gradientUnits="userSpaceOnUse">
<stop stop-color="#FFC000"/>
<stop offset="1" stop-color="#FF8A00"/>
</linearGradient>
<linearGradient id="paint6_linear" x1="225.626" y1="206.223" x2="221.721" y2="215.855" gradientUnits="userSpaceOnUse">
<stop stop-color="#FFC000"/>
<stop offset="1" stop-color="#FF8A00"/>
</linearGradient>
<linearGradient id="paint7_linear" x1="221.102" y1="198.556" x2="210.219" y2="227.407" gradientUnits="userSpaceOnUse">
<stop stop-color="#FFC000"/>
<stop offset="1" stop-color="#FF8A00"/>
</linearGradient>
<linearGradient id="paint8_linear" x1="177.506" y1="0.846431" x2="135.445" y2="14.3062" gradientUnits="userSpaceOnUse">
<stop stop-color="#FFC000"/>
<stop offset="1" stop-color="#FF8A00"/>
</linearGradient>
<linearGradient id="paint9_linear" x1="330.661" y1="131.996" x2="301.615" y2="140.819" gradientUnits="userSpaceOnUse">
<stop stop-color="#FFC000"/>
<stop offset="1" stop-color="#FF8A00"/>
</linearGradient>
<linearGradient id="paint10_linear" x1="237.174" y1="106.828" x2="272.932" y2="141.842" gradientUnits="userSpaceOnUse">
<stop stop-color="#FFC000"/>
<stop offset="1" stop-color="#FF8A00"/>
</linearGradient>
<linearGradient id="paint11_linear" x1="277.973" y1="29.2353" x2="255.206" y2="14.7436" gradientUnits="userSpaceOnUse">
<stop stop-color="#FFC000"/>
<stop offset="1" stop-color="#FF8A00"/>
</linearGradient>
<linearGradient id="paint12_linear" x1="260.147" y1="29.6247" x2="259.212" y2="28.9775" gradientUnits="userSpaceOnUse">
<stop stop-color="#FFC000"/>
<stop offset="1" stop-color="#FF8A00"/>
</linearGradient>
<linearGradient id="paint13_linear" x1="273.226" y1="25.6995" x2="269.714" y2="27.4835" gradientUnits="userSpaceOnUse">
<stop stop-color="#FFC000"/>
<stop offset="1" stop-color="#FF8A00"/>
</linearGradient>
<linearGradient id="paint14_linear" x1="267.493" y1="21.6931" x2="263.916" y2="22.8729" gradientUnits="userSpaceOnUse">
<stop stop-color="#FFC000"/>
<stop offset="1" stop-color="#FF8A00"/>
</linearGradient>
<linearGradient id="paint15_linear" x1="267.786" y1="25.1552" x2="264.223" y2="26.6763" gradientUnits="userSpaceOnUse">
<stop stop-color="#FFC000"/>
<stop offset="1" stop-color="#FF8A00"/>
</linearGradient>
<linearGradient id="paint16_linear" x1="263.863" y1="23.3894" x2="260.299" y2="24.4065" gradientUnits="userSpaceOnUse">
<stop stop-color="#FFC000"/>
<stop offset="1" stop-color="#FF8A00"/>
</linearGradient>
<linearGradient id="paint17_linear" x1="265.966" y1="29.0925" x2="262.428" y2="30.7637" gradientUnits="userSpaceOnUse">
<stop stop-color="#FFC000"/>
<stop offset="1" stop-color="#FF8A00"/>
</linearGradient>
<linearGradient id="paint18_linear" x1="259.028" y1="23.592" x2="255.707" y2="23.8679" gradientUnits="userSpaceOnUse">
<stop stop-color="#FFC000"/>
<stop offset="1" stop-color="#FF8A00"/>
</linearGradient>
<linearGradient id="paint19_linear" x1="209.858" y1="54.7737" x2="191.564" y2="86.4077" gradientUnits="userSpaceOnUse">
<stop stop-color="#FFC000"/>
<stop offset="1" stop-color="#FF8A00"/>
</linearGradient>
<linearGradient id="paint20_linear" x1="211.411" y1="78.8662" x2="210.589" y2="80.1694" gradientUnits="userSpaceOnUse">
<stop stop-color="#FFC000"/>
<stop offset="1" stop-color="#FF8A00"/>
</linearGradient>
<linearGradient id="paint21_linear" x1="203.899" y1="67.519" x2="198.967" y2="78.1905" gradientUnits="userSpaceOnUse">
<stop stop-color="#FFC000"/>
<stop offset="1" stop-color="#FF8A00"/>
</linearGradient>
<linearGradient id="paint22_linear" x1="193.559" y1="73.5262" x2="192.738" y2="74.8294" gradientUnits="userSpaceOnUse">
<stop stop-color="#FFC000"/>
<stop offset="1" stop-color="#FF8A00"/>
</linearGradient>
<linearGradient id="paint23_linear" x1="198.996" y1="68.743" x2="198.174" y2="70.0463" gradientUnits="userSpaceOnUse">
<stop stop-color="#FFC000"/>
<stop offset="1" stop-color="#FF8A00"/>
</linearGradient>
<linearGradient id="paint24_linear" x1="204.433" y1="63.9593" x2="203.61" y2="65.2636" gradientUnits="userSpaceOnUse">
<stop stop-color="#FFC000"/>
<stop offset="1" stop-color="#FF8A00"/>
</linearGradient>
<linearGradient id="paint25_linear" x1="207.912" y1="67.9133" x2="207.09" y2="69.2176" gradientUnits="userSpaceOnUse">
<stop stop-color="#FFC000"/>
<stop offset="1" stop-color="#FF8A00"/>
</linearGradient>
<linearGradient id="paint26_linear" x1="211.392" y1="71.8673" x2="210.57" y2="73.1716" gradientUnits="userSpaceOnUse">
<stop stop-color="#FFC000"/>
<stop offset="1" stop-color="#FF8A00"/>
</linearGradient>
<linearGradient id="paint27_linear" x1="200.519" y1="81.4348" x2="199.697" y2="82.738" gradientUnits="userSpaceOnUse">
<stop stop-color="#FFC000"/>
<stop offset="1" stop-color="#FF8A00"/>
</linearGradient>
<linearGradient id="paint28_linear" x1="197.039" y1="77.4807" x2="196.218" y2="78.784" gradientUnits="userSpaceOnUse">
<stop stop-color="#FFC000"/>
<stop offset="1" stop-color="#FF8A00"/>
</linearGradient>
<linearGradient id="paint29_linear" x1="205.955" y1="76.6516" x2="205.134" y2="77.9548" gradientUnits="userSpaceOnUse">
<stop stop-color="#FFC000"/>
<stop offset="1" stop-color="#FF8A00"/>
</linearGradient>
<linearGradient id="paint30_linear" x1="351.597" y1="79.7497" x2="316.794" y2="90.0077" gradientUnits="userSpaceOnUse">
<stop stop-color="#FFC000"/>
<stop offset="1" stop-color="#FF8A00"/>
</linearGradient>
<linearGradient id="paint31_linear" x1="351.259" y1="250.04" x2="290.918" y2="273.616" gradientUnits="userSpaceOnUse">
<stop stop-color="#FFC000"/>
<stop offset="1" stop-color="#FF8A00"/>
</linearGradient>
<linearGradient id="paint32_linear" x1="314.497" y1="32.7794" x2="333.501" y2="49.7222" gradientUnits="userSpaceOnUse">
<stop stop-color="#FFC000"/>
<stop offset="1" stop-color="#FF8A00"/>
</linearGradient>
<linearGradient id="paint33_linear" x1="42.7542" y1="66.8158" x2="25.9723" y2="102.28" gradientUnits="userSpaceOnUse">
<stop stop-color="#FFC000"/>
<stop offset="1" stop-color="#FF8A00"/>
</linearGradient>
<linearGradient id="paint34_linear" x1="39.7842" y1="77.1598" x2="37.4907" y2="81.5622" gradientUnits="userSpaceOnUse">
<stop stop-color="#FFC000"/>
<stop offset="1" stop-color="#FF8A00"/>
</linearGradient>
<linearGradient id="paint35_linear" x1="43.708" y1="73.089" x2="41.4146" y2="77.4914" gradientUnits="userSpaceOnUse">
<stop stop-color="#FFC000"/>
<stop offset="1" stop-color="#FF8A00"/>
</linearGradient>
<linearGradient id="paint36_linear" x1="43.8564" y1="81.0833" x2="41.563" y2="85.4857" gradientUnits="userSpaceOnUse">
<stop stop-color="#FFC000"/>
<stop offset="1" stop-color="#FF8A00"/>
</linearGradient>
<linearGradient id="paint37_linear" x1="47.7788" y1="77.0125" x2="45.4854" y2="81.4149" gradientUnits="userSpaceOnUse">
<stop stop-color="#FFC000"/>
<stop offset="1" stop-color="#FF8A00"/>
</linearGradient>
<linearGradient id="paint38_linear" x1="47.9277" y1="85.0074" x2="45.6343" y2="89.4098" gradientUnits="userSpaceOnUse">
<stop stop-color="#FFC000"/>
<stop offset="1" stop-color="#FF8A00"/>
</linearGradient>
<linearGradient id="paint39_linear" x1="51.8516" y1="80.9363" x2="49.5581" y2="85.3387" gradientUnits="userSpaceOnUse">
<stop stop-color="#FFC000"/>
<stop offset="1" stop-color="#FF8A00"/>
</linearGradient>
<linearGradient id="paint40_linear" x1="52.0005" y1="88.9316" x2="49.707" y2="93.3339" gradientUnits="userSpaceOnUse">
<stop stop-color="#FFC000"/>
<stop offset="1" stop-color="#FF8A00"/>
</linearGradient>
<linearGradient id="paint41_linear" x1="55.9228" y1="84.8604" x2="53.6294" y2="89.2628" gradientUnits="userSpaceOnUse">
<stop stop-color="#FFC000"/>
<stop offset="1" stop-color="#FF8A00"/>
</linearGradient>
<clipPath id="clip0">
<rect width="26" height="26" fill="white" transform="translate(305 131)"/>
</clipPath>
<clipPath id="clip1">
<rect width="42.7584" height="42.7584" fill="white" transform="translate(256.848 144.179) rotate(-119.18)"/>
</clipPath>
</defs>
</svg>
