<svg width="337" height="296" viewBox="0 0 337 296" fill="none" xmlns="http://www.w3.org/2000/svg">
<path d="M121.539 57C117.388 57.2302 113.302 58.9306 110.129 62.1025C103.29 68.9421 103.29 80.0307 110.129 86.8703C113.549 90.2899 118.031 92 122.514 92C126.996 92 131.479 90.2899 134.898 86.8703C138.069 83.6986 139.77 79.6125 140 75.4608L121.539 57ZM117.601 80.3377H114.133L117.809 74.2095L119.497 77.0207L117.601 80.3377ZM119.281 80.3377L125.106 70.1442L130.932 80.3377H119.281ZM136.268 73.7924C135.147 73.5985 134.049 73.2845 132.984 72.8529C130.994 72.0455 129.207 70.8593 127.674 69.3266C126.029 67.6823 124.788 65.7538 123.983 63.5945C123.634 62.6589 123.376 61.703 123.207 60.7315L136.268 73.7924ZM137.217 80.9466C136.415 82.7705 135.287 84.4164 133.866 85.8386C132.333 87.3713 130.546 88.5579 128.556 89.365C126.632 90.1452 124.6 90.5404 122.514 90.5404C120.428 90.5404 118.395 90.1452 116.472 89.365C114.481 88.5579 112.695 87.3713 111.162 85.8386C109.629 84.3053 108.442 82.5189 107.635 80.5284C106.855 78.6047 106.459 76.5721 106.459 74.4866C106.459 72.4005 106.854 70.368 107.635 68.4443C108.442 66.4538 109.629 64.6674 111.162 63.1341C112.584 61.712 114.23 60.5851 116.053 59.7846C117.621 59.0961 119.274 58.6673 120.981 58.5055L121.547 59.0716C121.743 62.2092 122.779 65.3046 124.656 67.9909L120.325 75.5681L117.809 71.3725L111.554 81.7974H116.767H124.064H133.446L127.23 70.9192C130.278 73.7005 134.07 75.2114 137.928 75.4522L138.495 76.0194C138.334 77.7252 137.904 79.3797 137.217 80.9466Z" fill="url(#paint0_linear)" style="mix-blend-mode:multiply"/>
<path d="M271.875 50L263.327 60.0085L262.548 60.9205L253.999 70.929L272.311 86.569L280.859 76.5606L281.638 75.6485L290.187 65.6401L271.875 50ZM272.183 84.9496L255.618 70.8016L263.421 61.6662L279.986 75.8143L272.183 84.9496ZM264.2 60.7542L272.002 51.6188L288.567 65.7669L280.765 74.9022L264.2 60.7541L264.2 60.7542Z" fill="white"/>
<path d="M274.021 60.0337L274.401 57.7604L268.967 59.5836L270.836 61.1798L273.453 63.4148L276.815 66.2858L278.295 58.4992L274.021 60.0337ZM271.254 60.0268L272.955 59.4533L272.783 60.4814L272.08 60.7316L271.254 60.0268ZM273.084 61.5897L276.794 60.2576L276.058 64.1296L273.084 61.5897Z" fill="white"/>
<path d="M275.637 66.7856L268.66 60.8263C268.421 60.6223 268.057 60.651 267.85 60.8924C267.647 61.1306 267.676 61.4954 267.914 61.6994L274.892 67.6587C275.133 67.8649 275.494 67.833 275.697 67.5947C275.904 67.3533 275.879 66.9918 275.637 66.7856Z" fill="white"/>
<path d="M260.094 70.8556C259.855 70.6516 259.493 70.6774 259.286 70.9188C259.08 71.1602 259.112 71.5218 259.351 71.7258C259.592 71.932 259.954 71.9065 260.16 71.6651C260.366 71.4236 260.335 71.0618 260.094 70.8556Z" fill="white"/>
<path d="M261.837 72.3445C261.599 72.141 261.237 72.1668 261.031 72.4082C260.824 72.6496 260.856 73.0112 261.094 73.2147C261.335 73.4209 261.697 73.3954 261.904 73.154C262.11 72.9125 262.079 72.5507 261.837 72.3445Z" fill="white"/>
<path d="M263.585 73.8362C263.343 73.63 262.981 73.6558 262.775 73.8972C262.569 74.1386 262.6 74.5002 262.841 74.7064C263.08 74.9099 263.442 74.8844 263.648 74.6429C263.854 74.4015 263.823 74.0397 263.585 73.8362Z" fill="white"/>
<path d="M265.327 75.3252C265.085 75.119 264.723 75.1448 264.517 75.3862C264.311 75.6276 264.342 75.9892 264.584 76.1954C264.821 76.3983 265.183 76.3729 265.389 76.1314C265.596 75.8899 265.564 75.5281 265.327 75.3252Z" fill="white"/>
<path d="M267.071 76.8148C266.83 76.6086 266.47 76.6366 266.264 76.878C266.058 77.1194 266.087 77.4788 266.328 77.685C266.569 77.8912 266.928 77.8624 267.134 77.621C267.34 77.3795 267.313 77.021 267.071 76.8148Z" fill="white"/>
<path d="M264.889 73.4412L268.251 76.3122L269.729 68.5286L265.454 70.0633L265.837 67.7869L260.404 69.61L262.272 71.2062L264.889 73.4412L264.889 73.4412ZM267.492 74.159L264.518 71.6191L268.227 70.2873L267.492 74.159ZM262.688 70.0561L264.388 69.483L264.219 70.5079L263.513 70.761L262.688 70.0562L262.688 70.0561Z" fill="white"/>
<path d="M284.573 68.4234C284.548 68.1084 284.271 67.8717 283.956 67.8964L281.097 68.1244L281.007 66.9804C280.982 66.6654 280.705 66.4286 280.39 66.4534C280.075 66.4782 279.841 66.7522 279.863 67.0704L279.998 68.7832C280.025 69.1003 280.3 69.3349 280.615 69.3101L284.046 69.0404C284.361 69.0156 284.598 68.7384 284.573 68.4234Z" fill="white"/>
<path d="M271.495 78.7378C271.522 79.055 271.794 79.2924 272.112 79.2647L272.114 79.2669L273.256 79.1747L273.346 80.3187C273.371 80.6337 273.648 80.8704 273.963 80.8457C274.278 80.8209 274.512 80.5465 274.49 80.2287L274.397 79.0876L275.541 78.9976C275.856 78.9728 276.093 78.6956 276.068 78.3809C276.043 78.0659 275.766 77.8291 275.451 77.8539L274.307 77.9436L274.22 76.8022L274.217 76.8C274.192 76.485 273.918 76.2504 273.6 76.273C273.285 76.2975 273.049 76.5747 273.073 76.8897L273.163 78.0337L272.022 78.1208C271.704 78.1485 271.47 78.4228 271.495 78.7378Z" fill="white"/>
<path d="M251.229 176.896L251.923 175.156L252.155 174.576L252.386 173.996C250.801 173.364 250.032 171.548 250.67 169.949C251.308 168.35 253.116 167.563 254.701 168.196L254.933 167.615L255.164 167.035L255.859 165.295L254.502 155.339L247.254 155.137L247.015 159.076L233.797 153.801L227.315 170.042L240.533 175.318L237.994 178.339L243.39 183.182L251.229 176.896ZM239.72 178.21L241.477 176.12L242.591 174.794L240.996 174.157L228.928 169.341L234.484 155.419L246.552 160.236L248.147 160.872L248.252 159.144L248.417 156.418L253.416 156.557L254.586 165.144L253.947 166.745C252.086 166.581 250.255 167.651 249.521 169.49C248.787 171.329 249.378 173.366 250.841 174.528L250.202 176.129L243.441 181.551L239.72 178.21Z" fill="url(#paint1_linear)" style="mix-blend-mode:multiply"/>
<path d="M241.598 165.26L243.785 164.896L240.466 160.497L239.584 162.707L238.349 165.8L236.762 169.778L244.303 168.688L241.598 165.26ZM240.797 163.005L241.552 164.004L240.717 164.143L240.469 163.829L240.797 163.005L240.797 163.005ZM239.935 165.165L241.986 167.764L238.709 168.238L239.935 165.165Z" fill="url(#paint2_linear)" style="mix-blend-mode:multiply"/>
<path d="M204 35.0503L195.273 26L201.887 19.1414C203.205 17.7747 203.205 15.5585 201.887 14.1918C201.227 13.5082 200.364 13.1664 199.5 13.1664C198.637 13.1664 197.772 13.5082 197.113 14.1918L190.5 21.0503L181.773 12L177 16.9497L185.727 26L178.125 33.8835V38.8336H182.898L190.5 30.9497L199.227 40L204 35.0503ZM194.477 25.175L193.288 23.9411L198.31 18.7326L199.5 19.9664L194.477 25.175ZM197.909 15.0163C198.334 14.5758 198.899 14.3332 199.5 14.3332C200.101 14.3332 200.666 14.5759 201.091 15.0163C201.968 15.9264 201.968 17.4068 201.091 18.3164L200.295 19.1414L197.113 15.8414L197.909 15.0163ZM196.318 16.6664L197.515 17.9075L192.492 23.1161L191.295 21.8753L196.318 16.6664ZM181.773 13.65L183.341 15.2753L182.545 16.1003C182.325 16.328 182.325 16.6976 182.545 16.9253C182.765 17.153 183.121 17.153 183.341 16.9253C183.341 16.9253 183.341 16.9249 183.341 16.9244L184.136 16.1003L185.727 17.7503L184.932 18.5754C184.712 18.8031 184.712 19.1726 184.932 19.4004C185.151 19.6281 185.508 19.6281 185.727 19.4004C185.727 19.3999 185.727 19.3999 185.727 19.3999L186.523 18.5754L188.114 20.2254L187.319 21.0495C187.319 21.0495 187.318 21.05 187.318 21.0504C187.099 21.2781 187.099 21.6473 187.318 21.875C187.538 22.1031 187.894 22.1031 188.114 21.875V21.8754L188.909 21.0504L190.5 22.6999L189.705 23.525C189.485 23.7531 189.485 24.1223 189.705 24.35C189.924 24.5777 190.28 24.5777 190.5 24.35L191.295 23.525L192.886 25.175L192.091 26C191.871 26.2277 191.871 26.5973 192.091 26.825C192.31 27.0527 192.667 27.0527 192.886 26.825C192.887 26.8246 192.887 26.8246 192.887 26.8246L193.682 26L195.273 27.65L194.477 28.4746V28.475C194.258 28.7028 194.258 29.0719 194.477 29.3001C194.697 29.5278 195.053 29.5278 195.273 29.3001L196.068 28.475L197.66 30.1251L196.864 30.9497C196.644 31.1778 196.644 31.547 196.864 31.7747C197.084 32.0024 197.44 32.0028 197.66 31.7747C197.66 31.7747 197.66 31.7747 197.66 31.7742L198.455 30.9497L200.046 32.5997L199.251 33.4243L199.251 33.4247C199.031 33.6524 199.031 34.022 199.251 34.2497C199.471 34.4774 199.827 34.4774 200.046 34.2497L200.842 33.4247L202.409 35.0504L199.227 38.35L178.591 16.9497L181.773 13.65ZM179.249 37.6668V36.7004L180.182 37.6668H179.249ZM182.432 37.6668H181.772L179.249 35.0503V34.3672L186.523 26.825L187.719 28.0661L182.106 33.8874C181.886 34.1151 181.886 34.4847 182.106 34.7124C182.325 34.9401 182.681 34.9401 182.901 34.7124L188.515 28.8912L189.705 30.1247L182.432 37.6668Z" fill="url(#paint3_linear)" style="mix-blend-mode:multiply"/>
<path d="M198.827 220.588L193.81 225.448C193.579 225.671 193.574 226.04 193.797 226.27C194.021 226.502 194.389 226.508 194.62 226.284L199.638 221.425C199.869 221.201 199.874 220.833 199.65 220.601C199.427 220.371 199.058 220.364 198.827 220.588Z" fill="url(#paint4_linear)" style="mix-blend-mode:multiply"/>
<path d="M193 224.611L194.672 222.991C194.903 222.767 194.909 222.399 194.686 222.168C194.462 221.937 194.094 221.932 193.863 222.156L192.19 223.775C191.96 223.999 191.953 224.367 192.177 224.598C192.401 224.829 192.769 224.834 193 224.611Z" fill="url(#paint5_linear)" style="mix-blend-mode:multiply"/>
<path d="M205.075 212.47L203.064 211.933L204.238 216.97L205.831 215.427L208.06 213.268L210.928 210.491L204.059 208.499L205.075 212.47ZM204.904 214.704L204.638 213.558L205.405 213.763L205.498 214.128L204.904 214.704ZM206.461 213.196L205.692 210.185L208.677 211.05L206.461 213.196Z" fill="url(#paint6_linear)" style="mix-blend-mode:multiply"/>
<path d="M201.652 198.404L182.418 217.032C182.187 217.256 182.181 217.625 182.405 217.856L193.744 229.563C193.967 229.794 194.336 229.799 194.567 229.576L213.8 210.948C214.031 210.725 214.037 210.356 213.814 210.126L202.474 198.418C202.251 198.187 201.882 198.181 201.652 198.404ZM201.223 200.441L197.725 213.302C197.698 213.404 197.536 213.56 197.433 213.585L184.464 216.672L201.223 200.441ZM194.175 228.334L184.118 217.951L197.703 214.717C197.96 214.656 198.212 214.506 198.417 214.308C198.621 214.11 198.78 213.863 198.849 213.608L202.513 200.131L212.572 210.516L194.175 228.334Z" fill="url(#paint7_linear)" style="mix-blend-mode:multiply"/>
<path d="M159 12.7272C159 5.69796 153.329 0 146.333 0C144.026 0 141.864 0.619865 140 1.70299C138.136 0.61994 135.974 0 133.667 0C126.671 0 121 5.69796 121 12.7272C121 17.4761 123.588 21.6167 127.425 23.8039C128.177 30.1107 133.52 35 140 35C146.48 35 151.823 30.1107 152.575 23.8039C156.412 21.6167 159 17.4761 159 12.7272ZM129.164 24.626C130.564 25.1608 132.081 25.4544 133.667 25.4544C135.974 25.4544 138.136 24.8346 140 23.7514C141.864 24.8345 144.026 25.4544 146.333 25.4544C147.919 25.4544 149.436 25.1608 150.836 24.626C150.691 25.3024 150.483 25.9642 150.213 26.6068C149.655 27.9329 148.855 29.1243 147.837 30.1474C146.819 31.1705 145.634 31.9739 144.314 32.535C142.948 33.1153 141.497 33.4095 140 33.4095C138.503 33.4095 137.052 33.1153 135.686 32.535C134.366 31.974 133.181 31.1705 132.163 30.1474C131.145 29.1243 130.345 27.9329 129.787 26.6068C129.517 25.9642 129.309 25.3024 129.164 24.626ZM151.071 22.7977C150.931 22.8642 150.79 22.9282 150.647 22.9894C149.282 23.5696 147.83 23.8639 146.333 23.8639C144.836 23.8639 143.385 23.5697 142.02 22.9894C141.838 22.9119 141.66 22.8297 141.482 22.7435C144.338 20.4899 146.207 17.0298 146.326 13.1269C146.863 13.5026 147.369 13.9268 147.837 14.3981C148.855 15.4212 149.655 16.6126 150.213 17.9381C150.791 19.3102 151.083 20.7685 151.083 22.2728C151.083 22.4487 151.079 22.6235 151.071 22.7977ZM144.737 12.2023C144.745 12.3765 144.75 12.5513 144.75 12.7272C144.75 14.2315 144.458 15.6898 143.88 17.0613C143.321 18.3873 142.522 19.5788 141.504 20.6019C141.037 21.0715 140.535 21.4938 140 21.8679C139.465 21.4938 138.963 21.0715 138.496 20.6019C137.478 19.5788 136.679 18.3874 136.12 17.0613C135.542 15.6898 135.25 14.2315 135.25 12.7272C135.25 12.5513 135.255 12.3765 135.263 12.2023C135.402 12.1358 135.543 12.0718 135.686 12.0106C137.052 11.4304 138.503 11.1361 140 11.1361C141.497 11.1361 142.948 11.4303 144.314 12.0106C144.457 12.0718 144.598 12.1358 144.737 12.2023ZM140 9.54556C138.415 9.54556 136.897 9.83924 135.498 10.374C135.643 9.69762 135.85 9.03577 136.12 8.39316C136.679 7.06715 137.478 5.87567 138.496 4.85258C138.963 4.38298 139.465 3.96059 140 3.58652C140.535 3.96059 141.037 4.38298 141.504 4.85258C142.522 5.87567 143.321 7.06707 143.88 8.39316C144.151 9.03577 144.358 9.69762 144.502 10.374C143.103 9.83916 141.585 9.54556 140 9.54556ZM133.674 13.1269C133.793 17.0298 135.662 20.4899 138.518 22.7435C138.341 22.8297 138.162 22.9119 137.98 22.9894C136.615 23.5696 135.164 23.8639 133.667 23.8639C132.17 23.8639 130.718 23.5697 129.353 22.9894C129.211 22.9282 129.069 22.8641 128.929 22.7977C128.921 22.6235 128.917 22.4487 128.917 22.2728C128.917 20.7685 129.209 19.3102 129.787 17.9387C130.345 16.6127 131.145 15.4212 132.163 14.3981C132.631 13.9268 133.137 13.5026 133.674 13.1269ZM138.518 2.71094C135.94 4.74429 134.168 7.75987 133.759 11.1961C130.03 13.3215 127.481 17.2926 127.34 21.8731C126.803 21.4974 126.299 21.0732 125.83 20.6019C124.811 19.5788 124.012 18.3874 123.454 17.0613C122.876 15.6898 122.583 14.2315 122.583 12.7272C122.583 11.2229 122.876 9.76459 123.454 8.39316C124.012 7.06715 124.811 5.87567 125.83 4.85258C126.848 3.82949 128.033 3.02609 129.353 2.46499C130.718 1.88473 132.17 1.59045 133.667 1.59045C135.164 1.59045 136.615 1.88465 137.98 2.46499C138.162 2.54255 138.341 2.62466 138.518 2.71094ZM156.546 8.39316C157.124 9.76466 157.417 11.2229 157.417 12.7272C157.417 14.2315 157.124 15.6898 156.546 17.0613C155.988 18.3873 155.189 19.5788 154.17 20.6019C153.702 21.0732 153.197 21.4974 152.66 21.8731C152.519 17.2926 149.97 13.3215 146.241 11.1961C145.832 7.75987 144.06 4.74422 141.482 2.71094C141.66 2.62473 141.838 2.54255 142.02 2.46507C143.385 1.8848 144.836 1.59053 146.333 1.59053C147.83 1.59053 149.282 1.88473 150.647 2.46507C151.967 3.02609 153.152 3.82956 154.17 4.85265C155.189 5.87567 155.988 7.06715 156.546 8.39316Z" fill="url(#paint8_linear)" style="mix-blend-mode:multiply"/>
<path d="M49.0489 40.9068L56.3942 45.9599L59.5423 48.1256L66.8884 53.1792L85.2632 28.7157L65.3255 14.9999L49.0489 40.9068ZM50.777 40.5494L52.1338 38.3911L58.5599 42.8118L57.1162 44.9104L50.777 40.5494ZM58.1661 45.6326L61.0535 41.4354L62.1026 42.1571L59.2152 46.3544L58.1661 45.6326ZM60.2643 47.0761L61.708 44.9775L68.1348 49.3987L66.6035 51.437L60.2643 47.0761ZM83.4473 29.0132L68.9006 48.3793L62.43 43.928L63.8737 41.8294C64.073 41.5396 64.0001 41.1435 63.7104 40.9442C63.4206 40.7449 63.0239 40.8179 62.8246 41.1077C63.0239 40.8179 62.9502 40.4213 62.6605 40.222C62.3707 40.0226 61.9748 40.0962 61.7755 40.3859C61.9748 40.0962 61.9011 39.6996 61.6114 39.5003C61.3216 39.3009 60.9249 39.3739 60.7256 39.6637L59.2819 41.7623L52.812 37.3114L65.6969 16.8022L83.4473 29.0132Z" fill="white"/>
<path d="M64.2952 34.9042L69.8505 32.2275L69.6554 35.3521L76.7356 32.1245L73.9871 30.2338L70.1396 27.5869L65.1923 24.1835L64.2952 34.9042ZM74.1595 31.8991L71.0586 33.3123L71.1654 31.5933L72.6653 30.8713L74.1595 31.8991L74.1595 31.8991ZM71.4564 30.0396L65.7502 32.789L66.2785 26.4775L71.4564 30.0396Z" fill="white"/>
<g clip-path="url(#clip0)">
<path d="M310.285 151.636C310.285 149.387 308.462 147.563 306.212 147.563C305.911 147.563 305.618 147.596 305.335 147.658L302.636 144.959L309.961 137.633C311.23 136.364 311.23 134.307 309.961 133.038C309.327 132.404 308.496 132.086 307.664 132.086C306.833 132.086 306.001 132.404 305.366 133.038L298.04 140.364L289.697 132.02C289.274 131.597 288.719 131.386 288.166 131.386C287.611 131.386 287.056 131.597 286.633 132.02C285.788 132.866 285.788 134.237 286.633 135.084L294.977 143.427L287.085 151.319V155.914H291.681L299.572 148.022L302.248 150.698C302.177 150.999 302.138 151.313 302.138 151.636C302.138 156.249 308.941 156.614 311.19 156.614C313.44 156.615 310.285 153.886 310.285 151.636ZM307.664 133.169C308.243 133.169 308.786 133.395 309.195 133.804C310.04 134.648 310.04 136.023 309.195 136.867L308.43 137.633L305.366 134.569L306.132 133.804C306.541 133.395 307.085 133.169 307.664 133.169ZM287.399 134.317C286.977 133.895 286.977 133.208 287.399 132.786C287.604 132.581 287.876 132.469 288.166 132.469C288.454 132.469 288.727 132.581 288.931 132.786L297.275 141.129L295.743 142.661L287.399 134.317ZM288.169 154.831V153.934L289.065 154.831H288.169ZM291.232 154.831H290.598L288.169 152.402V151.768L304.601 135.335L305.753 136.488L290.918 151.322C290.706 151.534 290.706 151.877 290.918 152.088C291.129 152.3 291.473 152.3 291.684 152.088L306.518 137.253L307.664 138.399L291.232 154.831ZM300.338 147.256L301.869 145.725L304.225 148.08C303.584 148.439 303.05 148.966 302.683 149.601L300.338 147.256ZM306.167 154.829C305.225 154.511 304.499 154.098 304.009 153.6C303.479 153.063 303.222 152.421 303.222 151.636C303.222 150.838 303.533 150.087 304.097 149.522C304.662 148.958 305.413 148.647 306.212 148.647C307.861 148.647 309.202 149.988 309.202 151.636C309.202 152.869 309.859 154.072 310.387 155.038C310.466 155.182 310.561 155.356 310.648 155.524C309.482 155.494 307.716 155.351 306.167 154.829Z" fill="url(#paint9_linear)" style="mix-blend-mode:multiply"/>
</g>
<g clip-path="url(#clip1)">
<path d="M220.686 113.447L268.58 127.017L271.495 116.733L223.6 103.162L220.686 113.447ZM267.352 124.819L263.974 123.861L264.461 122.147C264.594 121.673 264.319 121.181 263.846 121.046C263.373 120.913 262.881 121.188 262.746 121.661C262.746 121.662 262.746 121.662 262.746 121.662L262.261 123.375L258.832 122.404L259.318 120.69C259.452 120.216 259.177 119.724 258.703 119.59C258.231 119.456 257.737 119.73 257.604 120.204L257.118 121.919L253.69 120.947L254.175 119.233L254.175 119.232C254.31 118.76 254.034 118.267 253.561 118.133C253.087 117.999 252.595 118.274 252.461 118.747C252.461 118.748 252.461 118.748 252.461 118.748L251.975 120.461L248.547 119.489L249.033 117.776C249.167 117.302 248.892 116.81 248.418 116.675C247.946 116.542 247.453 116.817 247.318 117.29L246.833 119.004L243.405 118.033L243.891 116.319C244.025 115.845 243.749 115.353 243.276 115.219C242.803 115.084 242.31 115.359 242.176 115.833L241.691 117.548L238.263 116.576L238.748 114.861C238.883 114.389 238.607 113.895 238.134 113.762C237.66 113.628 237.168 113.902 237.034 114.376C237.034 114.376 237.034 114.376 237.034 114.376L236.548 116.09L233.12 115.118L233.606 113.405C233.739 112.931 233.465 112.439 232.991 112.304C232.518 112.171 232.026 112.446 231.891 112.918C231.891 112.918 231.891 112.918 231.892 112.92L231.406 114.633L227.977 113.662L228.462 111.949C228.463 111.948 228.463 111.948 228.463 111.948C228.597 111.474 228.322 110.982 227.849 110.848C227.375 110.713 226.882 110.988 226.749 111.462L226.263 113.175L222.886 112.219L224.828 105.362L269.295 117.962L267.352 124.819Z" fill="url(#paint10_linear)" style="mix-blend-mode:multiply"/>
</g>
<path d="M259.243 28.7833L245.196 11.378C245.027 11.1696 244.721 11.1366 244.512 11.3053L232.405 21.0771C232.196 21.2457 232.163 21.5519 232.332 21.7603L237.4 28.0398L234.764 29.4192L234.642 29.2679C234.474 29.0595 234.167 29.0268 233.958 29.1954C233.749 29.3641 233.717 29.6703 233.885 29.8787L238.771 35.9332C238.94 36.1416 239.246 36.1746 239.455 36.0059C239.664 35.8373 239.697 35.5308 239.528 35.3224L239.406 35.1706L241.31 32.885L246.379 39.1656C246.547 39.374 246.853 39.407 247.062 39.2383L259.17 29.4666C259.379 29.2979 259.411 28.9917 259.243 28.7833ZM235.387 30.1913L238.019 28.8138L240.685 32.1153L238.783 34.3991L235.387 30.1913L235.387 30.1913ZM258.18 29.015L248.343 36.9543L234.908 20.3072L244.745 12.3679L258.18 29.015ZM240.112 29.8524L233.394 21.5289L234.151 20.9181L240.869 29.2416L247.586 37.5651L246.83 38.1759L240.112 29.8524Z" fill="url(#paint11_linear)" style="mix-blend-mode:multiply"/>
<path d="M240.795 29.9251C241.004 29.7564 241.037 29.4507 240.869 29.2418C240.7 29.0329 240.394 29.0004 240.185 29.1691C239.976 29.3377 239.943 29.6437 240.112 29.8526C240.28 30.0615 240.586 30.0937 240.795 29.9251Z" fill="url(#paint12_linear)" style="mix-blend-mode:multiply"/>
<path d="M244.148 14.7241L253.308 26.0738C253.308 26.0738 253.309 26.0744 253.309 26.0749C253.477 26.2833 253.784 26.3163 253.993 26.1476C254.202 25.979 254.234 25.6725 254.066 25.4641L244.905 14.1133C244.736 13.9038 244.43 13.8711 244.221 14.0397C244.012 14.2084 243.979 14.5146 244.148 14.7241Z" fill="url(#paint13_linear)" style="mix-blend-mode:multiply"/>
<path d="M242.635 15.946L247.52 21.9989C247.521 21.9994 247.521 21.9994 247.521 21.9994C247.69 22.2084 247.995 22.2408 248.204 22.0721C248.413 21.9035 248.446 21.5978 248.277 21.3889L243.392 15.3354C243.223 15.126 242.917 15.093 242.708 15.2616C242.499 15.4303 242.466 15.7365 242.635 15.946Z" fill="url(#paint14_linear)" style="mix-blend-mode:multiply"/>
<path d="M241.12 17.1677L247.837 25.4907C247.838 25.4913 247.838 25.4913 247.838 25.4913C248.006 25.7002 248.312 25.7326 248.521 25.564C248.73 25.3953 248.763 25.0894 248.595 24.8804L241.877 16.5569C241.708 16.3474 241.401 16.3144 241.193 16.4831C240.983 16.6519 240.951 16.9582 241.12 17.1677Z" fill="url(#paint15_linear)" style="mix-blend-mode:multiply"/>
<path d="M239.608 18.3888L243.882 23.6851C244.051 23.8946 244.358 23.9275 244.566 23.7589C244.775 23.5903 244.808 23.284 244.639 23.0745L240.365 17.778C240.195 17.5685 239.889 17.5357 239.68 17.7044C239.471 17.873 239.439 18.1793 239.608 18.3888Z" fill="url(#paint16_linear)" style="mix-blend-mode:multiply"/>
<path d="M238.094 19.6104L246.033 29.447L246.033 29.4472C246.202 29.6567 246.509 29.6894 246.717 29.5208C246.926 29.3521 246.959 29.0459 246.79 28.8364L238.851 18.9998C238.682 18.7903 238.376 18.7573 238.167 18.926C237.958 19.0946 237.925 19.4009 238.094 19.6104Z" fill="url(#paint17_linear)" style="mix-blend-mode:multiply"/>
<path d="M236.58 20.832L239.023 23.8582C239.192 24.0676 239.498 24.1006 239.707 23.932C239.916 23.7633 239.949 23.4568 239.78 23.2473L237.337 20.2212C237.168 20.0117 236.862 19.9787 236.653 20.1474C236.444 20.3162 236.411 20.6225 236.58 20.832Z" fill="url(#paint18_linear)" style="mix-blend-mode:multiply"/>
<path d="M169.715 153.114L165.915 149.114L161.589 162.123L167.326 160.843L175.358 159.052L185.684 156.749L172.922 142.733L169.715 153.114ZM164.449 159.54L166.718 152.716L169.072 155.194L167.972 158.754L164.449 159.54ZM170.107 158.278L173.755 146.469L182.078 155.608L170.107 158.278Z" fill="white"/>
<path d="M179.288 128.08L178.866 126.186C178.75 125.664 178.241 125.333 177.729 125.447C177.216 125.561 176.897 126.077 177.013 126.6L177.435 128.493L173.728 129.32L173.306 127.427C173.189 126.904 172.681 126.573 172.169 126.687C171.656 126.801 171.336 127.317 171.453 127.84L171.875 129.733L168.168 130.56L167.746 128.667C167.629 128.144 167.12 127.813 166.609 127.927C166.096 128.041 165.776 128.557 165.892 129.08L166.315 130.973L162.608 131.8L162.186 129.907C162.069 129.384 161.56 129.053 161.048 129.167C160.536 129.282 160.215 129.798 160.332 130.32L160.754 132.213L157.047 133.04L156.625 131.147C156.509 130.624 155.999 130.293 155.488 130.407C154.975 130.522 154.655 131.038 154.771 131.561L155.194 133.454L149.633 134.694L158.922 176.339L194.137 168.484L184.849 126.839L179.288 128.08ZM191.871 167.043L160.362 174.071L151.9 136.134L155.607 135.307L156.012 137.121C156.128 137.644 156.638 137.975 157.15 137.861C157.662 137.747 157.982 137.23 157.865 136.708L157.461 134.894L161.168 134.067L161.572 135.881C161.689 136.403 162.198 136.735 162.71 136.621C163.222 136.507 163.542 135.99 163.426 135.467L163.021 133.654L166.728 132.827L167.133 134.641C167.249 135.163 167.758 135.495 168.271 135.381C168.783 135.266 169.103 134.75 168.986 134.227L168.582 132.413L172.288 131.587L172.693 133.4C172.81 133.923 173.318 134.255 173.831 134.14C174.343 134.026 174.663 133.51 174.546 132.987L174.141 131.173L177.849 130.347L178.253 132.16C178.37 132.683 178.879 133.015 179.392 132.9C179.904 132.786 180.223 132.27 180.106 131.747L179.702 129.933L183.409 129.106L191.871 167.043Z" fill="white"/>
<path d="M190.231 54.4347L167.495 74.4399C167.222 74.6801 167.195 75.0962 167.435 75.3691L181.351 91.186C181.592 91.459 182.008 91.4852 182.281 91.2451L190.484 84.0273L192.502 87.5134L192.304 87.6874C192.031 87.9275 192.005 88.344 192.245 88.617C192.485 88.89 192.901 88.9162 193.174 88.676L201.083 81.7175C201.356 81.4773 201.382 81.0619 201.142 80.7889C200.902 80.5159 200.486 80.4887 200.213 80.7288L200.015 80.9028L196.813 78.4589L205.018 71.2399C205.29 70.9997 205.317 70.5842 205.077 70.3113L191.16 54.4944C190.92 54.2214 190.504 54.1945 190.231 54.4347ZM193.51 86.6266L191.495 83.1451L195.808 79.3479L199.007 81.7896L193.51 86.6267L193.51 86.6266ZM194.956 60.801L191.99 63.4104L187.641 58.4678L190.607 55.8584L194.956 60.801ZM192.86 64.3991L195.825 61.7897L201.914 68.7093L198.948 71.3186L192.86 64.3991ZM186.653 59.3374L197.96 72.1882L180.166 87.8443L168.859 74.9935L186.653 59.3374ZM192.779 80.2545L181.906 89.8217L181.036 88.833L191.909 79.2658L202.784 69.698L203.653 70.6866L192.779 80.2545Z" fill="url(#paint19_linear)" style="mix-blend-mode:multiply"/>
<path d="M192.838 79.3251C192.597 79.0522 192.182 79.0253 191.908 79.2661C191.635 79.5063 191.609 79.9217 191.849 80.1947C192.09 80.4677 192.505 80.4949 192.778 80.2548C193.052 80.014 193.078 79.5981 192.838 79.3251Z" fill="url(#paint20_linear)" style="mix-blend-mode:multiply"/>
<path d="M186.14 75.5555L189.529 72.5734L181.877 69.9518L182.81 74.4933L180.567 73.7777L181.62 79.5319L183.504 77.8749L186.14 75.5555ZM183.631 71.9444L186.955 73.0838L184.337 75.3873L183.631 71.9444ZM182.497 77.0067L182.257 75.6992L183.113 75.9722L183.198 76.3894L182.497 77.0067Z" fill="url(#paint21_linear)" style="mix-blend-mode:multiply"/>
<path d="M174.551 73.4909L173.563 74.3605L174.433 75.3492L175.421 74.4796L174.551 73.4909Z" fill="url(#paint22_linear)" style="mix-blend-mode:multiply"/>
<path d="M179.987 68.7078L178.999 69.5774L179.869 70.5661L180.857 69.6965L179.987 68.7078Z" fill="url(#paint23_linear)" style="mix-blend-mode:multiply"/>
<path d="M185.425 63.924L184.436 64.7943L185.305 65.7829L186.294 64.9127L185.425 63.924Z" fill="url(#paint24_linear)" style="mix-blend-mode:multiply"/>
<path d="M188.904 67.8781L187.915 68.7483L188.785 69.7366L189.774 68.8664L188.904 67.8781Z" fill="url(#paint25_linear)" style="mix-blend-mode:multiply"/>
<path d="M192.384 71.8321L191.395 72.7023L192.265 73.691L193.254 72.8208L192.384 71.8321Z" fill="url(#paint26_linear)" style="mix-blend-mode:multiply"/>
<path d="M181.511 81.3995L180.523 82.2691L181.393 83.2578L182.381 82.3882L181.511 81.3995Z" fill="url(#paint27_linear)" style="mix-blend-mode:multiply"/>
<path d="M178.031 77.4455L177.043 78.315L177.913 79.3033L178.901 78.4338L178.031 77.4455Z" fill="url(#paint28_linear)" style="mix-blend-mode:multiply"/>
<path d="M186.947 76.6164L185.959 77.486L186.829 78.4746L187.817 77.6051L186.947 76.6164Z" fill="url(#paint29_linear)" style="mix-blend-mode:multiply"/>
<circle cx="317.5" cy="94.5" r="10.5" stroke="url(#paint30_linear)" stroke-width="10" style="mix-blend-mode:multiply"/>
<path d="M236 259.807V255.894H230.053V249H225.947V255.894H220V259.807H225.947V267H230.053V259.807H236Z" fill="white"/>
<path d="M276.472 292C276.472 290.494 272.366 277.65 288.38 282.17C304.394 286.689 309.321 279.157 312.606 264.641C315.891 250.125 325.472 248.756 333 249.029" stroke="url(#paint31_linear)" stroke-width="8" stroke-linecap="round" stroke-linejoin="round" style="mix-blend-mode:multiply"/>
<path d="M320.197 44.7795C319.668 45.0496 315.888 48.7878 314.618 42.3746C313.348 35.9614 309.822 35.5872 304.135 37.0392C298.448 38.4913 296.257 35.3843 295.01 32.7012" stroke="url(#paint32_linear)" stroke-width="8" stroke-linecap="round" stroke-linejoin="round" style="mix-blend-mode:multiply"/>
<path d="M25.0883 68.4711L13.8074 80.1773L1.96218 88.3949L3.99798 90.3567L2.52652 91.8836C2.25564 92.1647 2.26393 92.6127 2.54503 92.8836L20.8683 110.541C21.1494 110.812 21.597 110.803 21.8679 110.522L44.4297 87.1096C44.7006 86.8285 44.6927 86.3809 44.4116 86.11L26.0883 68.4526C25.8072 68.1817 25.3592 68.19 25.0883 68.4711ZM4.18464 88.5738L13.6614 81.9994L30.9263 98.6369L21.4496 105.211L4.18464 88.5738ZM21.3398 109.033L4.03461 92.3563L5.01607 91.3378L21.3036 107.033L27.2256 102.925L21.3398 109.033ZM42.9216 86.637L32.1307 97.8348L14.8255 81.1584L25.6164 69.9606L42.9216 86.637Z" fill="url(#paint33_linear)" style="mix-blend-mode:multiply"/>
<path d="M20.7486 77.049L17.8057 80.1028L20.8595 83.0458L23.8025 79.9919L20.7486 77.049ZM21.8029 80.0292L20.8222 81.047L19.8041 80.0659L20.7848 79.0482L21.8029 80.0292Z" fill="url(#paint34_linear)" style="mix-blend-mode:multiply"/>
<path d="M24.6724 72.9782L21.7295 76.032L24.7834 78.975L27.7263 75.9211L24.6724 72.9782ZM25.7275 75.9577L24.746 76.9762L23.7279 75.9951L24.7094 74.9766L25.7275 75.9577Z" fill="url(#paint35_linear)" style="mix-blend-mode:multiply"/>
<path d="M24.8208 80.9724L21.8779 84.0263L24.9318 86.9692L27.8747 83.9153L24.8208 80.9724ZM25.8756 83.9531L24.8948 84.9708L23.8767 83.9897L24.8575 82.972L25.8756 83.9531Z" fill="url(#paint36_linear)" style="mix-blend-mode:multiply"/>
<path d="M28.7432 76.9016L25.8003 79.9555L28.8542 82.8984L31.7971 79.8445L28.7432 76.9016ZM29.7987 79.8815L28.8172 80.9L27.7991 79.9189L28.7806 78.9004L29.7987 79.8815Z" fill="url(#paint37_linear)" style="mix-blend-mode:multiply"/>
<path d="M28.8921 84.8966L25.9492 87.9504L29.0031 90.8933L31.946 87.8395L28.8921 84.8966ZM29.9465 87.8768L28.9657 88.8945L27.948 87.9138L28.9288 86.8961L29.9465 87.8768Z" fill="url(#paint38_linear)" style="mix-blend-mode:multiply"/>
<path d="M32.816 80.8254L29.873 83.8793L32.9269 86.8222L35.8698 83.7683L32.816 80.8254ZM33.871 83.8049L32.8896 84.8234L31.8719 83.8427L32.8533 82.8242L33.871 83.8049Z" fill="url(#paint39_linear)" style="mix-blend-mode:multiply"/>
<path d="M36.0188 91.7636L32.9649 88.8207L30.022 91.8746L33.0759 94.8175L36.0188 91.7636ZM32.0204 91.8376L33.0011 90.8199L34.0192 91.801L33.0385 92.8187L32.0204 91.8376Z" fill="url(#paint40_linear)" style="mix-blend-mode:multiply"/>
<path d="M36.8872 84.7496L33.9443 87.8034L36.9982 90.7463L39.9411 87.6925L36.8872 84.7496ZM37.9423 87.7291L36.9609 88.7475L35.9428 87.7665L36.9242 86.748L37.9423 87.7291Z" fill="url(#paint41_linear)" style="mix-blend-mode:multiply"/>
<defs>
<linearGradient id="paint0_linear" x1="139.545" y1="57.8464" x2="100.251" y2="69.428" gradientUnits="userSpaceOnUse">
<stop stop-color="#FFC000"/>
<stop offset="1" stop-color="#FF8A00"/>
</linearGradient>
<linearGradient id="paint1_linear" x1="247.576" y1="184.433" x2="248.845" y2="150.006" gradientUnits="userSpaceOnUse">
<stop stop-color="#FFC000"/>
<stop offset="1" stop-color="#FF8A00"/>
</linearGradient>
<linearGradient id="paint2_linear" x1="242.791" y1="172.045" x2="242.345" y2="160.919" gradientUnits="userSpaceOnUse">
<stop stop-color="#FFC000"/>
<stop offset="1" stop-color="#FF8A00"/>
</linearGradient>
<linearGradient id="paint3_linear" x1="203.649" y1="12.6771" x2="173.165" y2="21.341" gradientUnits="userSpaceOnUse">
<stop stop-color="#FFC000"/>
<stop offset="1" stop-color="#FF8A00"/>
</linearGradient>
<linearGradient id="paint4_linear" x1="199.189" y1="220.277" x2="200.545" y2="224.398" gradientUnits="userSpaceOnUse">
<stop stop-color="#FFC000"/>
<stop offset="1" stop-color="#FF8A00"/>
</linearGradient>
<linearGradient id="paint5_linear" x1="194.268" y1="221.802" x2="194.023" y2="224.984" gradientUnits="userSpaceOnUse">
<stop stop-color="#FFC000"/>
<stop offset="1" stop-color="#FF8A00"/>
</linearGradient>
<linearGradient id="paint6_linear" x1="206.626" y1="206.223" x2="202.721" y2="215.855" gradientUnits="userSpaceOnUse">
<stop stop-color="#FFC000"/>
<stop offset="1" stop-color="#FF8A00"/>
</linearGradient>
<linearGradient id="paint7_linear" x1="202.102" y1="198.556" x2="191.219" y2="227.407" gradientUnits="userSpaceOnUse">
<stop stop-color="#FFC000"/>
<stop offset="1" stop-color="#FF8A00"/>
</linearGradient>
<linearGradient id="paint8_linear" x1="158.506" y1="0.846431" x2="116.445" y2="14.3062" gradientUnits="userSpaceOnUse">
<stop stop-color="#FFC000"/>
<stop offset="1" stop-color="#FF8A00"/>
</linearGradient>
<linearGradient id="paint9_linear" x1="311.661" y1="131.996" x2="282.615" y2="140.819" gradientUnits="userSpaceOnUse">
<stop stop-color="#FFC000"/>
<stop offset="1" stop-color="#FF8A00"/>
</linearGradient>
<linearGradient id="paint10_linear" x1="218.174" y1="106.828" x2="253.932" y2="141.842" gradientUnits="userSpaceOnUse">
<stop stop-color="#FFC000"/>
<stop offset="1" stop-color="#FF8A00"/>
</linearGradient>
<linearGradient id="paint11_linear" x1="258.973" y1="29.2353" x2="236.206" y2="14.7436" gradientUnits="userSpaceOnUse">
<stop stop-color="#FFC000"/>
<stop offset="1" stop-color="#FF8A00"/>
</linearGradient>
<linearGradient id="paint12_linear" x1="241.147" y1="29.6247" x2="240.212" y2="28.9775" gradientUnits="userSpaceOnUse">
<stop stop-color="#FFC000"/>
<stop offset="1" stop-color="#FF8A00"/>
</linearGradient>
<linearGradient id="paint13_linear" x1="254.226" y1="25.6995" x2="250.714" y2="27.4835" gradientUnits="userSpaceOnUse">
<stop stop-color="#FFC000"/>
<stop offset="1" stop-color="#FF8A00"/>
</linearGradient>
<linearGradient id="paint14_linear" x1="248.493" y1="21.6931" x2="244.916" y2="22.8729" gradientUnits="userSpaceOnUse">
<stop stop-color="#FFC000"/>
<stop offset="1" stop-color="#FF8A00"/>
</linearGradient>
<linearGradient id="paint15_linear" x1="248.786" y1="25.1552" x2="245.223" y2="26.6763" gradientUnits="userSpaceOnUse">
<stop stop-color="#FFC000"/>
<stop offset="1" stop-color="#FF8A00"/>
</linearGradient>
<linearGradient id="paint16_linear" x1="244.863" y1="23.3894" x2="241.299" y2="24.4065" gradientUnits="userSpaceOnUse">
<stop stop-color="#FFC000"/>
<stop offset="1" stop-color="#FF8A00"/>
</linearGradient>
<linearGradient id="paint17_linear" x1="246.966" y1="29.0925" x2="243.428" y2="30.7637" gradientUnits="userSpaceOnUse">
<stop stop-color="#FFC000"/>
<stop offset="1" stop-color="#FF8A00"/>
</linearGradient>
<linearGradient id="paint18_linear" x1="240.028" y1="23.592" x2="236.707" y2="23.8679" gradientUnits="userSpaceOnUse">
<stop stop-color="#FFC000"/>
<stop offset="1" stop-color="#FF8A00"/>
</linearGradient>
<linearGradient id="paint19_linear" x1="190.858" y1="54.7737" x2="172.564" y2="86.4077" gradientUnits="userSpaceOnUse">
<stop stop-color="#FFC000"/>
<stop offset="1" stop-color="#FF8A00"/>
</linearGradient>
<linearGradient id="paint20_linear" x1="192.411" y1="78.8662" x2="191.589" y2="80.1694" gradientUnits="userSpaceOnUse">
<stop stop-color="#FFC000"/>
<stop offset="1" stop-color="#FF8A00"/>
</linearGradient>
<linearGradient id="paint21_linear" x1="184.899" y1="67.519" x2="179.967" y2="78.1905" gradientUnits="userSpaceOnUse">
<stop stop-color="#FFC000"/>
<stop offset="1" stop-color="#FF8A00"/>
</linearGradient>
<linearGradient id="paint22_linear" x1="174.559" y1="73.5262" x2="173.738" y2="74.8294" gradientUnits="userSpaceOnUse">
<stop stop-color="#FFC000"/>
<stop offset="1" stop-color="#FF8A00"/>
</linearGradient>
<linearGradient id="paint23_linear" x1="179.996" y1="68.743" x2="179.174" y2="70.0463" gradientUnits="userSpaceOnUse">
<stop stop-color="#FFC000"/>
<stop offset="1" stop-color="#FF8A00"/>
</linearGradient>
<linearGradient id="paint24_linear" x1="185.433" y1="63.9593" x2="184.61" y2="65.2636" gradientUnits="userSpaceOnUse">
<stop stop-color="#FFC000"/>
<stop offset="1" stop-color="#FF8A00"/>
</linearGradient>
<linearGradient id="paint25_linear" x1="188.912" y1="67.9133" x2="188.09" y2="69.2176" gradientUnits="userSpaceOnUse">
<stop stop-color="#FFC000"/>
<stop offset="1" stop-color="#FF8A00"/>
</linearGradient>
<linearGradient id="paint26_linear" x1="192.392" y1="71.8673" x2="191.57" y2="73.1716" gradientUnits="userSpaceOnUse">
<stop stop-color="#FFC000"/>
<stop offset="1" stop-color="#FF8A00"/>
</linearGradient>
<linearGradient id="paint27_linear" x1="181.519" y1="81.4348" x2="180.697" y2="82.738" gradientUnits="userSpaceOnUse">
<stop stop-color="#FFC000"/>
<stop offset="1" stop-color="#FF8A00"/>
</linearGradient>
<linearGradient id="paint28_linear" x1="178.039" y1="77.4807" x2="177.218" y2="78.784" gradientUnits="userSpaceOnUse">
<stop stop-color="#FFC000"/>
<stop offset="1" stop-color="#FF8A00"/>
</linearGradient>
<linearGradient id="paint29_linear" x1="186.955" y1="76.6516" x2="186.134" y2="77.9548" gradientUnits="userSpaceOnUse">
<stop stop-color="#FFC000"/>
<stop offset="1" stop-color="#FF8A00"/>
</linearGradient>
<linearGradient id="paint30_linear" x1="332.597" y1="79.7497" x2="297.794" y2="90.0077" gradientUnits="userSpaceOnUse">
<stop stop-color="#FFC000"/>
<stop offset="1" stop-color="#FF8A00"/>
</linearGradient>
<linearGradient id="paint31_linear" x1="332.259" y1="250.04" x2="271.918" y2="273.616" gradientUnits="userSpaceOnUse">
<stop stop-color="#FFC000"/>
<stop offset="1" stop-color="#FF8A00"/>
</linearGradient>
<linearGradient id="paint32_linear" x1="295.497" y1="32.7794" x2="314.501" y2="49.7222" gradientUnits="userSpaceOnUse">
<stop stop-color="#FFC000"/>
<stop offset="1" stop-color="#FF8A00"/>
</linearGradient>
<linearGradient id="paint33_linear" x1="23.7542" y1="66.8158" x2="6.97226" y2="102.28" gradientUnits="userSpaceOnUse">
<stop stop-color="#FFC000"/>
<stop offset="1" stop-color="#FF8A00"/>
</linearGradient>
<linearGradient id="paint34_linear" x1="20.7842" y1="77.1598" x2="18.4907" y2="81.5622" gradientUnits="userSpaceOnUse">
<stop stop-color="#FFC000"/>
<stop offset="1" stop-color="#FF8A00"/>
</linearGradient>
<linearGradient id="paint35_linear" x1="24.708" y1="73.089" x2="22.4146" y2="77.4914" gradientUnits="userSpaceOnUse">
<stop stop-color="#FFC000"/>
<stop offset="1" stop-color="#FF8A00"/>
</linearGradient>
<linearGradient id="paint36_linear" x1="24.8564" y1="81.0833" x2="22.563" y2="85.4857" gradientUnits="userSpaceOnUse">
<stop stop-color="#FFC000"/>
<stop offset="1" stop-color="#FF8A00"/>
</linearGradient>
<linearGradient id="paint37_linear" x1="28.7788" y1="77.0125" x2="26.4854" y2="81.4149" gradientUnits="userSpaceOnUse">
<stop stop-color="#FFC000"/>
<stop offset="1" stop-color="#FF8A00"/>
</linearGradient>
<linearGradient id="paint38_linear" x1="28.9277" y1="85.0074" x2="26.6343" y2="89.4098" gradientUnits="userSpaceOnUse">
<stop stop-color="#FFC000"/>
<stop offset="1" stop-color="#FF8A00"/>
</linearGradient>
<linearGradient id="paint39_linear" x1="32.8516" y1="80.9363" x2="30.5581" y2="85.3387" gradientUnits="userSpaceOnUse">
<stop stop-color="#FFC000"/>
<stop offset="1" stop-color="#FF8A00"/>
</linearGradient>
<linearGradient id="paint40_linear" x1="33.0005" y1="88.9316" x2="30.707" y2="93.3339" gradientUnits="userSpaceOnUse">
<stop stop-color="#FFC000"/>
<stop offset="1" stop-color="#FF8A00"/>
</linearGradient>
<linearGradient id="paint41_linear" x1="36.9228" y1="84.8604" x2="34.6294" y2="89.2628" gradientUnits="userSpaceOnUse">
<stop stop-color="#FFC000"/>
<stop offset="1" stop-color="#FF8A00"/>
</linearGradient>
<clipPath id="clip0">
<rect width="26" height="26" fill="white" transform="translate(286 131)"/>
</clipPath>
<clipPath id="clip1">
<rect width="42.7584" height="42.7584" fill="white" transform="translate(237.848 144.179) rotate(-119.18)"/>
</clipPath>
</defs>
</svg>
