<?xml version="1.0" standalone="no"?>
<!DOCTYPE svg PUBLIC "-//W3C//DTD SVG 20010904//EN"
 "http://www.w3.org/TR/2001/REC-SVG-20010904/DTD/svg10.dtd">
<svg version="1.0" xmlns="http://www.w3.org/2000/svg"
 width="102.000000pt" height="100.000000pt" viewBox="0 0 102.000000 100.000000"
 preserveAspectRatio="xMidYMid meet">
<metadata>
Created by potrace 1.16, written by Peter Selinger 2001-2019
</metadata>
<g transform="translate(0.000000,100.000000) scale(0.100000,-0.100000)"
fill="#000000" stroke="none">
<path d="M360 990 c0 -5 -13 -10 -30 -10 -16 0 -30 -4 -30 -10 0 -5 -9 -10
-20 -10 -11 0 -20 -4 -20 -10 0 -5 -7 -10 -15 -10 -20 0 -185 -165 -185 -185
0 -8 -4 -15 -10 -15 -5 0 -10 -9 -10 -20 0 -11 -4 -20 -10 -20 -5 0 -10 -13
-10 -30 0 -16 -4 -30 -10 -30 -6 0 -10 -53 -10 -140 0 -87 4 -140 10 -140 6 0
10 -13 10 -30 0 -16 5 -30 10 -30 6 0 10 -9 10 -20 0 -11 5 -20 10 -20 6 0 10
-7 10 -15 0 -20 165 -185 185 -185 8 0 15 -4 15 -10 0 -5 9 -10 20 -10 11 0
20 -4 20 -10 0 -5 9 -10 20 -10 15 0 20 7 20 26 0 26 -20 54 -40 54 -6 0 -26
16 -45 35 -34 34 -35 36 -35 116 0 77 -1 82 -30 109 -24 23 -30 36 -30 70 0
34 6 47 32 72 26 24 29 31 17 40 -11 7 -11 11 -1 15 7 3 12 24 12 54 0 27 5
49 10 49 6 0 10 7 10 15 0 20 105 125 125 125 8 0 15 5 15 10 0 6 9 10 20 10
11 0 20 5 20 10 0 6 37 10 90 10 53 0 90 -4 90 -10 0 -5 9 -10 20 -10 11 0 20
-4 20 -10 0 -5 7 -10 15 -10 20 0 125 -105 125 -125 0 -8 5 -15 10 -15 6 0 10
-22 10 -49 0 -30 5 -51 13 -54 9 -4 9 -8 -2 -15 -12 -9 -9 -16 17 -40 26 -25
32 -38 32 -72 0 -34 -6 -47 -30 -70 -29 -27 -30 -32 -30 -109 0 -80 -1 -82
-35 -116 -19 -19 -39 -35 -45 -35 -20 0 -40 -28 -40 -54 0 -14 5 -26 10 -26 6
0 10 5 10 10 0 6 9 10 20 10 11 0 20 5 20 10 0 6 8 10 18 10 10 0 24 9 32 20
8 11 20 20 28 20 17 0 82 65 82 82 0 8 9 20 20 28 11 8 20 22 20 32 0 10 5 18
10 18 6 0 10 9 10 20 0 11 5 20 10 20 6 0 10 9 10 20 0 11 5 20 10 20 6 0 10
23 10 50 0 28 5 50 10 50 6 0 10 27 10 60 0 33 -4 60 -10 60 -5 0 -10 23 -10
50 0 28 -4 50 -10 50 -5 0 -10 9 -10 20 0 11 -4 20 -10 20 -5 0 -10 9 -10 20
0 11 -4 20 -10 20 -5 0 -10 8 -10 18 0 10 -9 24 -20 32 -11 8 -20 20 -20 28 0
17 -65 82 -82 82 -8 0 -20 9 -28 20 -8 11 -22 20 -32 20 -10 0 -18 5 -18 10 0
6 -9 10 -20 10 -11 0 -20 5 -20 10 0 6 -9 10 -20 10 -11 0 -20 5 -20 10 0 6
-57 10 -150 10 -93 0 -150 -4 -150 -10z"/>
<path d="M460 770 c0 -5 -13 -10 -30 -10 -16 0 -30 -4 -30 -10 0 -5 -7 -10
-16 -10 -20 0 -44 -24 -44 -44 0 -9 8 -16 20 -16 11 0 20 -4 20 -10 0 -5 14
-10 30 -10 17 0 30 -4 30 -10 0 -6 30 -10 70 -10 40 0 70 4 70 10 0 6 14 10
30 10 17 0 30 5 30 10 0 6 9 10 20 10 12 0 20 7 20 16 0 20 -24 44 -44 44 -9
0 -16 5 -16 10 0 6 -13 10 -30 10 -16 0 -30 5 -30 10 0 6 -22 10 -50 10 -27 0
-50 -4 -50 -10z"/>
<path d="M293 625 c-7 -8 -13 -35 -13 -60 l0 -45 230 0 230 0 0 46 c0 29 -6
51 -17 62 -12 12 -18 13 -21 4 -2 -6 -12 -12 -23 -12 -10 0 -19 -4 -19 -10 0
-5 -9 -10 -20 -10 -11 0 -20 -4 -20 -10 0 -6 -43 -10 -110 -10 -67 0 -110 4
-110 10 0 6 -9 10 -20 10 -11 0 -20 5 -20 10 0 6 -9 10 -20 10 -11 0 -20 5
-20 10 0 14 -13 12 -27 -5z"/>
<path d="M232 444 c-11 -12 -11 -17 2 -29 12 -12 47 -15 180 -15 l166 0 0 -70
c0 -63 2 -70 20 -70 18 0 20 7 20 70 l0 70 76 0 c54 0 80 4 90 15 14 13 14 17
0 30 -22 22 -534 22 -554 -1z"/>
<path d="M280 270 c0 -40 4 -70 10 -70 6 0 10 -9 10 -20 0 -13 7 -20 20 -20
11 0 20 -4 20 -10 0 -6 63 -10 170 -10 107 0 170 4 170 10 0 6 9 10 20 10 13
0 20 7 20 20 0 11 5 20 10 20 6 0 10 30 10 70 l0 70 -30 0 c-29 0 -30 -2 -30
-45 0 -59 -32 -95 -85 -95 -19 0 -35 5 -35 10 0 6 -9 10 -20 10 -13 0 -20 7
-20 20 0 11 -4 20 -10 20 -5 0 -10 18 -10 40 l0 40 -110 0 -110 0 0 -70z"/>
<path d="M400 54 c0 -45 20 -54 124 -54 l96 0 0 40 0 40 -110 0 -110 0 0 -26z"/>
</g>
</svg>
