<svg width="60" height="65" viewBox="0 0 60 65" fill="none" xmlns="http://www.w3.org/2000/svg">
<path d="M30.9285 34.6984C33.802 27.0114 27.8514 22.8036 23.907 20.0381C23.1528 19.4731 22.3986 18.9453 21.7877 18.4621C20.6959 17.554 19.8916 16.3559 19.4705 15.0103C19.0493 13.6648 19.029 12.2283 19.412 10.8717C19.4513 10.7298 19.4503 10.5799 19.4091 10.4385C19.3679 10.2971 19.2881 10.1695 19.1784 10.0698C19.0686 9.97004 18.9332 9.90195 18.7869 9.87294C18.6405 9.84393 18.4889 9.85511 18.3486 9.90528C17.0202 10.4233 15.7851 11.1488 14.6907 12.0538C13.6392 12.8529 12.7873 13.8788 12.2003 15.0527C11.6133 16.2267 11.3068 17.5175 11.3044 18.8263C10.5606 19.4043 9.90308 20.0825 9.35102 20.841C8.33683 22.2057 7.82834 23.872 7.9105 25.5617C6.70244 26.6555 5.8027 28.0393 5.29908 29.5781C4.79546 31.1169 4.70516 32.7581 5.03702 34.3415C4.55642 34.6278 4.18442 35.0616 3.97814 35.5764C3.77185 36.0912 3.74269 36.6585 3.89514 37.1912C4.04759 37.7239 4.37323 38.1925 4.82203 38.5252C5.27082 38.8578 5.81798 39.036 6.37949 39.0325H6.43228V43.4038C6.43228 43.8474 6.61106 44.2729 6.9293 44.5866C7.24753 44.9003 7.67917 45.0765 8.12922 45.0765H9.44906L11.5985 63.439C11.6432 63.8478 11.8397 64.2258 12.1502 64.5003C12.4607 64.7748 12.8633 64.9264 13.2804 64.9258H22.2251C22.6426 64.9249 23.0452 64.7731 23.3566 64.499C23.668 64.2249 23.8665 63.8478 23.9145 63.439L26.064 45.0765H27.3838C27.8339 45.0765 28.2655 44.9003 28.5837 44.5866C28.902 44.2729 29.0808 43.8474 29.0808 43.4038V39.0325H29.1336C29.8156 39.0325 30.4698 38.7654 30.9521 38.29C31.4344 37.8146 31.7053 37.1698 31.7053 36.4974C31.7088 36.1619 31.6438 35.8291 31.5142 35.5187C31.3847 35.2084 31.1932 34.9269 30.9511 34.6909L30.9285 34.6984ZM11.5684 20.7518C12.6544 24.7737 16.8477 26.3572 20.6715 27.7697C20.7743 27.8321 20.8898 27.8713 21.0097 27.8848C21.1297 27.8982 21.2511 27.8854 21.3655 27.8473C21.4798 27.8092 21.5843 27.7468 21.6714 27.6644C21.7585 27.5821 21.8262 27.4818 21.8696 27.3707C21.9129 27.2597 21.931 27.1406 21.9224 27.0219C21.9138 26.9032 21.8788 26.7879 21.8198 26.684C21.7609 26.5802 21.6795 26.4904 21.5814 26.421C21.4833 26.3517 21.3709 26.3045 21.2522 26.2828C17.1343 24.744 13.2502 23.3092 12.9561 19.198C12.8871 18.0679 13.1023 16.9386 13.5826 15.9101C14.0628 14.8817 14.7932 13.9861 15.7089 13.3027C16.2826 12.8322 16.8985 12.4142 17.5491 12.0538C17.5072 12.5684 17.5072 13.0855 17.5491 13.6001C17.6364 14.7781 17.9631 15.9269 18.5099 16.978C19.0567 18.0291 19.8123 18.961 20.7318 19.7184C21.3578 20.2463 22.1346 20.789 22.9944 21.3688C24.9779 22.7739 27.233 24.3425 28.6659 26.4687C29.4305 27.5591 29.9062 28.8207 30.0498 30.1386C30.1934 31.4565 30.0002 32.7889 29.488 34.0144H29.1713H26.1545C19.2838 34.0144 11.3873 32.141 9.82616 26.8924C9.51646 25.8127 9.51899 24.6691 9.83348 23.5906C10.148 22.5122 10.7619 21.5418 11.6061 20.789L11.5684 20.7518ZM17.7527 46.095L20.2718 48.578L17.7527 51.0611L15.2337 48.5632L17.7527 46.095ZM23.5299 52.6148L21.4483 54.6667L18.9293 52.1836L21.4483 49.708L23.6355 51.8565L23.5299 52.6148ZM17.7527 58.3094L15.2337 55.8264L17.7527 53.3433L20.2718 55.8264L17.7527 58.3094ZM16.5988 52.1985L14.0798 54.6815L11.9831 52.6148L11.8926 51.8714L14.0798 49.7229L16.5988 52.1985ZM12.9184 55.8264L12.413 56.3245L12.2848 55.1945L12.9184 55.8264ZM12.6544 58.3689L14.0798 56.9638L16.8477 59.7145C16.8619 59.77 16.8795 59.8246 16.9005 59.878H12.8278L12.6544 58.3689ZM21.4332 56.9638L22.8587 58.3689L22.6852 59.8557H18.4994L21.4332 56.9638ZM23.0924 56.3245L22.5871 55.8264L23.2282 55.1945L23.0924 56.3245ZM23.8466 49.827L22.5871 48.5632L24.186 46.9871L23.8466 49.827ZM21.4257 47.4332L19.0349 45.084H23.8165L21.4257 47.4332ZM14.0723 47.4332L11.6815 45.084H16.4631L14.0723 47.4332ZM22.2176 63.3126H13.2804C13.2669 63.3111 13.2544 63.3051 13.2448 63.2956C13.2353 63.2862 13.2292 63.2738 13.2276 63.2606L13.0164 61.4764H22.4891L22.2855 63.2606C22.2836 63.275 22.2764 63.2883 22.2653 63.2979C22.2542 63.3075 22.2399 63.3127 22.2251 63.3126H22.2176ZM29.1336 37.4118H26.509C26.3949 37.401 26.2798 37.4139 26.171 37.4495C26.0623 37.4851 25.9623 37.5427 25.8775 37.6187C25.7927 37.6946 25.7249 37.7872 25.6786 37.8905C25.6322 37.9938 25.6082 38.1055 25.6082 38.2185C25.6082 38.3314 25.6322 38.4431 25.6786 38.5464C25.7249 38.6497 25.7927 38.7423 25.8775 38.8182C25.9623 38.8942 26.0623 38.9518 26.171 38.9874C26.2798 39.0231 26.3949 39.0359 26.509 39.0251H27.4441V43.3964C27.4423 43.4108 27.4352 43.4241 27.424 43.4337C27.4129 43.4433 27.3986 43.4485 27.3838 43.4484H8.09905C8.08427 43.4485 8.06996 43.4433 8.05884 43.4337C8.04772 43.4241 8.04057 43.4108 8.03872 43.3964V39.0251H22.9793C23.1828 39.0058 23.3717 38.9125 23.5091 38.7633C23.6466 38.6142 23.7227 38.42 23.7227 38.2185C23.7227 38.017 23.6466 37.8227 23.5091 37.6736C23.3717 37.5244 23.1828 37.4311 22.9793 37.4118H6.38703C6.25767 37.4233 6.1273 37.4081 6.00423 37.3672C5.88116 37.3263 5.76807 37.2605 5.6722 37.1742C5.57632 37.0878 5.49976 36.9827 5.44738 36.8655C5.39499 36.7484 5.36792 36.6218 5.36792 36.4937C5.36792 36.3657 5.39499 36.2391 5.44738 36.1219C5.49976 36.0048 5.57632 35.8996 5.6722 35.8133C5.76807 35.7269 5.88116 35.6612 6.00423 35.6202C6.1273 35.5793 6.25767 35.5641 6.38703 35.5756H8.09905C8.30252 35.5563 8.49141 35.463 8.62886 35.3139C8.76631 35.1647 8.84247 34.9705 8.84247 34.769C8.84247 34.5675 8.76631 34.3732 8.62886 34.2241C8.49141 34.075 8.30252 33.9817 8.09905 33.9624H6.59066C6.37462 32.8312 6.40972 31.6674 6.69354 30.5509C6.97736 29.4344 7.50317 28.3917 8.2348 27.4946C8.76273 29.1153 10.1203 31.3307 13.5142 33.0926C16.7044 34.7355 20.9279 35.5756 26.064 35.5756H29.0808C29.2101 35.5641 29.3405 35.5793 29.4636 35.6202C29.5866 35.6612 29.6997 35.7269 29.7956 35.8133C29.8914 35.8996 29.968 36.0048 30.0204 36.1219C30.0728 36.2391 30.0998 36.3657 30.0998 36.4937C30.0998 36.6218 30.0728 36.7484 30.0204 36.8655C29.968 36.9827 29.8914 37.0878 29.7956 37.1742C29.6997 37.2605 29.5866 37.3263 29.4636 37.3672C29.3405 37.4081 29.2101 37.4233 29.0808 37.4118H29.1336Z" fill="#F8D24E"/>
<path d="M34.4585 59.2145L33.8644 60.1261L33.8763 60.1337L34.4585 59.2145ZM40.8546 59.5226L41.9423 59.4985L41.9143 58.2393L40.6726 58.45L40.8546 59.5226ZM40.929 62.8694L41.2059 63.9216L42.0358 63.7032L42.0167 62.8453L40.929 62.8694ZM32.5354 63.0288L32.7795 61.9686L32.7729 61.9671L32.5354 63.0288ZM28.3917 61.1801L29.0956 60.3505L29.0939 60.3491L28.3917 61.1801ZM26.8936 57.7802L27.9816 57.7856V57.7802H26.8936ZM27.4142 55.4002L26.4379 54.92L26.4372 54.9215L27.4142 55.4002ZM30.7504 52.5527L31.1364 53.57L31.1404 53.5684L30.7504 52.5527ZM41.439 52.2765L42.5237 52.361L42.5952 51.4423L41.7008 51.2205L41.439 52.2765ZM41.1733 55.6871L40.9707 56.756L42.1638 56.9821L42.258 55.7715L41.1733 55.6871ZM38.2728 54.291C36.64 54.291 35.2675 54.4654 34.2649 54.9063C33.7511 55.1322 33.2837 55.4501 32.9433 55.8991C32.5923 56.3621 32.4249 56.9017 32.4249 57.472H34.6008C34.6008 57.3447 34.6317 57.2738 34.6774 57.2136C34.7337 57.1393 34.8612 57.0211 35.1408 56.8982C35.7248 56.6414 36.7323 56.4669 38.2728 56.4669V54.291ZM32.4249 57.472C32.4249 58.5916 32.9267 59.5149 33.8644 60.126L35.0525 58.303C34.7294 58.0925 34.6008 57.8541 34.6008 57.472H32.4249ZM33.8763 60.1337C34.7653 60.6967 35.9375 60.9081 37.2528 60.9081V58.7321C36.1172 58.7321 35.4266 58.5398 35.0406 58.2954L33.8763 60.1337ZM37.2528 60.9081C38.5439 60.9081 39.8054 60.8042 41.0366 60.5953L40.6726 58.45C39.5663 58.6377 38.4267 58.7321 37.2528 58.7321V60.9081ZM39.7669 59.5468L39.8413 62.8936L42.0167 62.8453L41.9423 59.4985L39.7669 59.5468ZM40.6521 61.8173C39.4082 62.1446 38.0363 62.3127 36.5303 62.3127V64.4887C38.1976 64.4887 39.7581 64.3026 41.2059 63.9216L40.6521 61.8173ZM36.5303 62.3127C34.9935 62.3127 33.7497 62.192 32.7795 61.9686L32.2912 64.0891C33.4743 64.3615 34.8938 64.4887 36.5303 64.4887V62.3127ZM32.7729 61.9671C31.7344 61.7348 30.9844 61.488 30.4841 61.2437L29.5292 63.199C30.2473 63.5496 31.183 63.8412 32.2979 64.0906L32.7729 61.9671ZM30.4841 61.2437C29.9478 60.9818 29.4872 60.6828 29.0956 60.3505L27.6878 62.0097C28.2311 62.4707 28.8472 62.8659 29.5292 63.199L30.4841 61.2437ZM29.0939 60.3491C28.3547 59.7244 27.9759 58.9079 27.9816 57.7856L25.8056 57.7747C25.7971 59.4857 26.4171 60.9359 27.6894 62.0111L29.0939 60.3491ZM27.9816 57.7802C27.9816 57.0488 28.1251 56.422 28.3912 55.8789L26.4372 54.9215C26.0092 55.795 25.8056 56.7549 25.8056 57.7802H27.9816ZM28.3905 55.8803C28.8854 54.874 29.7594 54.0925 31.1364 53.57L30.3644 51.5355C28.5681 52.2172 27.2179 53.334 26.4379 54.92L28.3905 55.8803ZM31.1404 53.5684C32.5879 53.0127 34.2033 52.727 35.9991 52.727V50.551C33.9699 50.551 32.0861 50.8745 30.3604 51.537L31.1404 53.5684ZM35.9991 52.727C37.8305 52.727 39.5554 52.9304 41.1771 53.3325L41.7008 51.2205C39.8942 50.7726 37.9925 50.551 35.9991 50.551V52.727ZM40.3543 52.192L40.0886 55.6026L42.258 55.7715L42.5237 52.361L40.3543 52.192ZM41.376 54.6181C40.244 54.4036 39.2073 54.291 38.2728 54.291V56.4669C39.0382 56.4669 39.9352 56.5597 40.9707 56.756L41.376 54.6181ZM51.9915 56.3564L51.9855 57.4444L53.0912 57.4505L53.0795 56.3449L51.9915 56.3564ZM51.524 54.9433L50.7837 55.7407L50.7931 55.7492L51.524 54.9433ZM48.8147 55.0496L49.5682 55.8345L49.5762 55.8266L48.8147 55.0496ZM48.156 56.3352L47.0824 56.1587L46.8757 57.4161L48.1499 57.4231L48.156 56.3352ZM56.1565 62.1363L56.8137 63.0034L57.2048 62.7069L57.2414 62.2175L56.1565 62.1363ZM53.8084 63.0076L53.5745 61.945L53.5681 61.9464L53.8084 63.0076ZM45.6485 62.7101L45.2775 63.7329L45.2864 63.736L45.6485 62.7101ZM43.7892 61.722L43.1139 62.575L43.1204 62.5801L43.127 62.5852L43.7892 61.722ZM42.5461 60.1601L41.5708 60.6424L41.573 60.6467L42.5461 60.1601ZM43.821 53.5621L44.5446 54.3747L44.5451 54.3742L43.821 53.5621ZM53.7659 52.3827L54.201 51.3855L54.1908 51.3812L53.7659 52.3827ZM56.2627 54.6777L55.2842 55.1534L55.2872 55.1594L56.2627 54.6777ZM56.6877 56.5796L57.7728 56.6585L57.7757 56.6191V56.5796H56.6877ZM56.5602 58.3326L56.5548 59.4206L57.5716 59.4256L57.6453 58.4116L56.5602 58.3326ZM47.9435 58.2901L47.9488 57.2022L46.5295 57.1952L46.8915 58.5676L47.9435 58.2901ZM49.176 59.8095L48.6406 60.7567L48.645 60.7591L49.176 59.8095ZM55.7846 59.4376V58.3496H55.5672L55.3665 58.4332L55.7846 59.4376ZM56.3583 59.4376L57.4433 59.5188L57.5307 58.3496H56.3583V59.4376ZM53.0795 56.3449C53.0711 55.5579 52.8902 54.7136 52.255 54.1374L50.7931 55.7492C50.7803 55.7376 50.8053 55.7515 50.8364 55.8455C50.8694 55.9451 50.9009 56.1115 50.9036 56.368L53.0795 56.3449ZM52.2644 54.1461C51.6934 53.6159 50.9443 53.441 50.2066 53.441V55.6169C50.6305 55.6169 50.7597 55.7183 50.7837 55.7406L52.2644 54.1461ZM50.2066 53.441C49.3963 53.441 48.6428 53.6948 48.0532 54.2725L49.5762 55.8266C49.695 55.7102 49.8693 55.6169 50.2066 55.6169V53.441ZM48.0613 54.2647C47.5257 54.7789 47.2028 55.4262 47.0824 56.1587L49.2295 56.5117C49.2791 56.21 49.3954 56.0003 49.5682 55.8344L48.0613 54.2647ZM48.1499 57.4231L51.9855 57.4444L51.9976 55.2685L48.162 55.2472L48.1499 57.4231ZM55.4992 61.2693C55.2607 61.4501 54.679 61.7019 53.5745 61.945L54.0423 64.0701C55.1902 63.8174 56.1739 63.4884 56.8137 63.0034L55.4992 61.2693ZM53.5681 61.9464C52.514 62.1851 51.5003 62.3021 50.5253 62.3021V64.478C51.6753 64.478 52.8503 64.34 54.0486 64.0687L53.5681 61.9464ZM50.5253 62.3021C49.5001 62.3021 48.6556 62.2537 47.9824 62.1631L47.6921 64.3196C48.4921 64.4273 49.4397 64.478 50.5253 64.478V62.3021ZM47.9824 62.1631C47.3219 62.0741 46.6649 61.9151 46.0106 61.6841L45.2864 63.736C46.0771 64.0151 46.8793 64.2102 47.6921 64.3196L47.9824 62.1631ZM46.0195 61.6873C45.3834 61.4566 44.8659 61.1767 44.4514 60.8587L43.127 62.5852C43.7466 63.0605 44.4686 63.4394 45.2775 63.7328L46.0195 61.6873ZM44.4645 60.8689C44.091 60.5732 43.7736 60.1824 43.5192 59.6736L41.573 60.6467C41.956 61.4128 42.4674 62.0632 43.1139 62.575L44.4645 60.8689ZM43.5213 59.6778C43.2924 59.215 43.1559 58.6192 43.1559 57.8545H40.98C40.98 58.8748 41.1622 59.8161 41.5708 60.6424L43.5213 59.6778ZM43.1559 57.8545C43.1559 57.0891 43.2939 56.4132 43.5548 55.8121L41.5586 54.9458C41.1679 55.8463 40.98 56.8208 40.98 57.8545H43.1559ZM43.5548 55.8121C43.829 55.18 44.165 54.7126 44.5446 54.3747L43.0975 52.7495C42.4429 53.3324 41.936 54.0762 41.5586 54.9458L43.5548 55.8121ZM44.5451 54.3742C45.7144 53.3316 47.4982 52.727 50.0684 52.727V50.551C47.1847 50.551 44.8035 51.2285 43.097 52.75L44.5451 54.3742ZM50.0684 52.727C51.2218 52.727 52.3095 52.9467 53.341 53.3843L54.1908 51.3812C52.8848 50.8271 51.5075 50.551 50.0684 50.551V52.727ZM53.3307 53.3799C54.2935 53.8001 54.9158 54.3955 55.2842 55.1534L57.2412 54.2021C56.618 52.9199 55.5757 51.9854 54.201 51.3856L53.3307 53.3799ZM55.2872 55.1594C55.4904 55.5709 55.5997 56.038 55.5997 56.5796H57.7757C57.7757 55.7327 57.6017 54.932 57.2382 54.196L55.2872 55.1594ZM55.6026 56.5006L55.4751 58.2537L57.6453 58.4116L57.7728 56.6585L55.6026 56.5006ZM56.5656 57.2447L47.9488 57.2022L47.9381 59.3781L56.5548 59.4206L56.5656 57.2447ZM46.8915 58.5676C47.1458 59.5321 47.7679 60.2634 48.6406 60.7567L49.7113 58.8623C49.2807 58.619 49.0811 58.3374 48.9955 58.0127L46.8915 58.5676ZM48.645 60.7591C49.5274 61.2525 50.6309 61.45 51.864 61.45V59.274C50.8306 59.274 50.142 59.1031 49.7069 58.8599L48.645 60.7591ZM51.864 61.45C53.1873 61.45 54.6407 61.0923 56.2027 60.4421L55.3665 58.4332C53.9677 59.0155 52.8074 59.274 51.864 59.274V61.45ZM55.7846 60.5256H56.3583V58.3496H55.7846V60.5256ZM55.2734 59.3565L55.0715 62.0552L57.2414 62.2175L57.4433 59.5188L55.2734 59.3565Z" fill="#F8D24E"/>
</svg>
