<svg aria-hidden="true" style="position:absolute;width:0;height:0" xmlns="http://www.w3.org/2000/svg" overflow="hidden"><defs><symbol id="next" viewBox="0 0 32 32"><path d="M31.489 14.757L19.933 3.2c-.33-.33-.77-.511-1.238-.511s-.909.181-1.239.511l-1.049 1.05c-.33.329-.511.769-.511 1.238s.182.924.511 1.253l6.742 6.757H1.73A1.71 1.71 0 00.001 15.22v1.484c0 .966.763 1.798 1.729 1.798h21.495l-6.818 6.794c-.33.33-.511.758-.511 1.227s.182.903.511 1.232l1.049 1.046c.33.33.769.51 1.239.51s.908-.182 1.238-.512l11.556-11.556c.331-.331.513-.773.511-1.242a1.745 1.745 0 00-.511-1.244z"/></symbol></defs></svg>