<svg width="31" height="31" viewBox="0 0 31 31" fill="none" xmlns="http://www.w3.org/2000/svg">
<path d="M30.3154 23.8457C29.9516 27.2567 27.2566 29.9517 23.8456 30.3154C19.2866 30.8019 14.7194 31.0292 10.1539 30.9972L0.86377 21.707C1.94073 22.6497 3.34454 23.2238 4.97357 23.2851C9.00494 23.4365 13.0504 23.4325 17.0817 23.2872C20.728 23.1554 23.3665 20.4567 23.4803 16.8105C23.6018 12.939 23.6018 9.05749 23.4803 5.18603C23.4285 3.50391 22.838 2.0238 21.8589 0.903809L30.9962 10.0411C31.0322 14.644 30.8058 19.2488 30.3154 23.8457Z" fill="url(#paint0_linear)"/>
<defs>
<linearGradient id="paint0_linear" x1="18.4142" y1="27.5852" x2="13.4733" y2="4.29224" gradientUnits="userSpaceOnUse">
<stop stop-color="#833AB4" stop-opacity="0"/>
<stop offset="1" stop-color="#833AB4"/>
</linearGradient>
</defs>
</svg>
