<svg width="26" height="26" viewBox="0 0 26 26" fill="none" xmlns="http://www.w3.org/2000/svg">
<path d="M0.428711 8.14875C0.512024 7.56037 0.5755 6.96863 0.681396 6.38453C1.28168 3.07612 3.6239 0.82514 6.9729 0.709783C11.0052 0.571234 15.0497 0.563909 19.0814 0.709173C22.7264 0.840399 25.3661 3.53937 25.48 7.18561C25.6011 11.0574 25.6011 14.9386 25.48 18.8104C25.3661 22.4566 22.7273 25.1553 19.0817 25.2868C15.05 25.4324 11.0046 25.436 6.97321 25.2847C3.32758 25.1476 0.807434 22.4426 0.563599 18.7908C0.542542 18.475 0.474792 18.1619 0.428711 17.8475C0.428711 14.6145 0.428711 11.3815 0.428711 8.14875ZM13.0032 23.1259C14.8483 23.1259 16.6952 23.1811 18.5378 23.113C21.4269 23.0059 23.204 21.2817 23.2714 18.3953C23.355 14.7988 23.355 11.1975 23.2714 7.60065C23.204 4.71491 21.4257 2.95038 18.5378 2.88904C14.8724 2.81153 11.2029 2.81214 7.53748 2.88904C4.67157 2.94916 2.88934 4.67798 2.81152 7.53199C2.71265 11.174 2.71265 14.8223 2.81152 18.4643C2.88934 21.318 4.67157 23.0068 7.53778 23.113C9.35724 23.1808 11.1813 23.1259 13.0032 23.1259Z" fill="url(#paint0_linear)"/>
<defs>
<linearGradient id="paint0_linear" x1="20.9419" y1="5.11337" x2="4.76096" y2="21.2943" gradientUnits="userSpaceOnUse">
<stop stop-color="#833AB4"/>
<stop offset="0.0922" stop-color="#9C3495"/>
<stop offset="0.2927" stop-color="#DC2546"/>
<stop offset="0.392" stop-color="#FD1D1D"/>
<stop offset="0.5589" stop-color="#FC6831"/>
<stop offset="0.6887" stop-color="#FC9B40"/>
<stop offset="0.7521" stop-color="#FCAF45"/>
<stop offset="0.7806" stop-color="#FDB750"/>
<stop offset="0.8656" stop-color="#FECB6A"/>
<stop offset="0.9415" stop-color="#FFD87A"/>
<stop offset="1" stop-color="#FFDC80"/>
</linearGradient>
</defs>
</svg>
