<svg width="50" height="50" viewBox="0 0 50 50" fill="none" xmlns="http://www.w3.org/2000/svg">
<g clip-path="url(#clip0_70758_16)">
<path d="M46.2908 33.454C44.2721 32.738 42.5691 32.9172 41.2248 33.4823C41.4507 32.1116 41.9596 30.6199 43.0522 29.6062C43.726 28.9813 43.7654 27.9286 43.1404 27.2549C42.5159 26.5813 41.463 26.5418 40.7891 27.1667C38.8686 28.9482 38.1241 31.4611 37.861 33.5433C37.361 33.3189 36.8093 33.1475 36.2081 33.0567L39.1615 17.698C39.2553 17.2104 39.1265 16.7067 38.8103 16.3241C38.4943 15.9414 38.024 15.7199 37.5275 15.7199H37.2086C37.3551 14.9379 37.429 14.1616 37.4231 13.4232C37.3984 10.3081 36.0118 7.96162 33.7142 7.14664C31.5115 6.36515 29.6679 6.6 28.2346 7.24983C28.4618 5.72525 29.0068 4.02576 30.2373 2.88435C30.911 2.25943 30.9504 1.20674 30.3255 0.532999C29.7009 -0.14057 28.6479 -0.180133 27.9741 0.444783C25.9112 2.35859 25.1383 5.07795 24.8775 7.29849C23.7292 6.75455 22.3091 6.47576 20.6455 6.78249C18.9359 4.32727 16.5628 3.19563 14.2558 3.74866C11.9879 4.29327 10.5714 5.49142 9.72311 6.81448C9.0822 5.40943 8.61065 3.68738 9.01739 2.07054C9.24146 1.17929 8.70072 0.275254 7.80964 0.051012C6.91806 -0.173735 6.01436 0.36751 5.79011 1.25876C5.10375 3.98738 5.93793 6.6894 6.92951 8.69327C5.3418 8.90775 3.62126 9.70842 2.16604 11.6088C1.2625 12.7889 0.957623 14.2621 1.2349 15.8268C0.964862 15.9278 0.721596 16.0966 0.533717 16.3241C0.217724 16.7067 0.0887676 17.2104 0.182539 17.698L6.13422 48.6503C6.28489 49.4337 6.97042 50 7.76823 50H31.5756C32.3734 50 33.059 49.4337 33.2096 48.6503L33.2682 48.3458C33.7169 48.6549 34.1989 48.9135 34.7162 49.1062C36.6948 49.8429 38.5389 49.5406 39.4721 49.2906C39.9657 49.4229 40.7144 49.5699 41.6031 49.5699C42.394 49.5699 43.2962 49.4534 44.2278 49.1062C47.916 47.7322 49.8755 43.1072 49.8465 39.453C49.8233 36.4781 48.494 34.2355 46.2908 33.454ZM35.4287 19.0476C34.6625 26.3998 28.4723 31.4062 19.8489 31.4062C11.2255 31.4062 5.03523 26.3997 4.26907 19.0476H35.4287ZM25.0502 11.7421C25.3381 12.2867 25.8876 12.6276 26.5041 12.6276C27.1206 12.6276 27.6699 12.2867 27.958 11.7421C28.0032 11.667 28.4113 11.0141 29.1598 10.5283C30.1428 9.89057 31.2686 9.81027 32.6016 10.283C33.9309 10.7544 34.0889 12.6545 34.0953 13.4495C34.1011 14.1737 33.9948 14.9519 33.7975 15.7197H22.6637C23.0319 13.8611 22.8108 11.8263 22.2123 9.98738C22.8007 10.0216 23.3433 10.201 23.848 10.5283C24.5968 11.0141 25.0046 11.6668 25.0502 11.7421ZM4.80846 13.6317C5.66823 12.5089 6.65577 11.9626 7.82782 11.9615H7.83102C8.72227 11.9615 9.41873 12.2859 9.49718 12.3239C10.0298 12.62 10.6672 12.5929 11.1825 12.2657C11.7 11.9367 11.9795 11.3414 11.9342 10.7298C11.9253 10.6094 11.7537 7.77138 15.0329 6.98418C16.4021 6.65488 17.5726 8.16162 18.0113 8.82492C19.2726 10.7318 19.9197 13.6806 19.2251 15.7195H4.61756C4.39752 15.0281 4.33826 14.246 4.80846 13.6317ZM9.14298 46.6722L5.84466 29.5197C6.06082 29.7274 6.28338 29.9301 6.5125 30.1274C9.96217 33.098 14.6985 34.734 19.8489 34.734C24.9992 34.734 29.7356 33.0982 33.1852 30.1274C33.2657 30.0583 33.3443 29.9874 33.4231 29.9168L32.7492 33.4219C32.7172 33.4328 32.6857 33.4428 32.6536 33.454C30.4504 34.2355 29.1211 36.4781 29.0977 39.453C29.0832 41.2724 29.5622 43.3322 30.5014 45.1116L30.2014 46.6722H9.14298ZM43.0662 45.9879C41.5921 46.5369 40.1273 46.0152 40.0728 45.9953C39.6827 45.8443 39.2627 45.8406 38.8731 45.9948C38.8583 46.0005 37.3729 46.5446 35.8782 45.9877C33.7883 45.2093 32.4054 41.9938 32.4253 39.4793C32.4312 38.7515 32.5731 37.0133 33.766 36.5902C34.312 36.3966 34.7995 36.3172 35.233 36.3172C36.9635 36.3172 37.8228 37.5857 38.0176 37.9175C38.3049 38.4643 38.8543 38.8067 39.4723 38.8067C40.0905 38.8067 40.6396 38.464 40.927 37.9175C41.1706 37.5027 42.4529 35.6239 45.1785 36.5902C46.3713 37.0131 46.5133 38.7515 46.5192 39.4793C46.5389 41.9939 45.1561 45.2094 43.0662 45.9879Z" fill="#FFA5BA"/>
</g>
<defs>
<clipPath id="clip0_70758_16">
<rect width="50" height="50" fill="white"/>
</clipPath>
</defs>
</svg>
