<svg width="33" height="50" viewBox="0 0 33 50" fill="none" xmlns="http://www.w3.org/2000/svg">
<path d="M3.64538 0.224613C3.09858 0.517582 2.78201 1.10352 2.78201 1.79688C2.7916 3.06641 3.10817 4.22852 3.74131 5.23438L4.01951 5.69336L3.49189 6.28907C2.89713 6.95313 2.75323 7.19727 2.48463 7.98829C2.26399 8.63282 2.2448 9.80469 2.43666 10.459C3.10817 12.7051 5.33375 14.0039 7.51137 13.4277C8.25003 13.2324 8.7009 12.9883 9.3916 12.4023L9.97678 11.9141L10.5236 12.1875C10.8306 12.3438 11.3486 12.5684 11.6843 12.6953L12.2791 12.9102V14.0039C12.2791 15.7324 12.634 16.7578 13.5454 17.6856C14.4567 18.6133 15.8861 19.0918 17.1236 18.877C18.0061 18.7207 18.8695 18.2813 19.4547 17.6856C20.366 16.7578 20.721 15.7324 20.721 14.0039V12.9102L21.3253 12.6953C21.6515 12.5684 22.1695 12.3438 22.4765 12.1875L23.0233 11.9141L23.6085 12.4023C24.2992 12.9883 24.75 13.2324 25.4887 13.4277C27.6663 14.0039 29.8919 12.7051 30.5634 10.459C30.7553 9.80469 30.7361 8.63282 30.5154 7.98829C30.2468 7.19727 30.1029 6.95313 29.5082 6.28907L28.9806 5.69336L29.2588 5.23438C29.8919 4.22852 30.2085 3.06641 30.2181 1.79688C30.2181 1.10352 29.9015 0.517582 29.3547 0.224613L28.9422 3.8147e-06H16.5H4.05788L3.64538 0.224613ZM26.6686 3.28125C26.6686 3.31055 26.3904 3.76954 26.0451 4.31641C25.0282 5.92774 25.0666 6.2793 26.4192 7.70508C26.9085 8.22266 27.3593 8.74024 27.4265 8.85743C27.791 9.58008 27.062 10.4785 26.2561 10.293C26.0643 10.2539 25.6422 9.91211 25.0282 9.30665C23.8003 8.09571 23.3782 7.95899 22.4381 8.4961C21.3541 9.1211 19.9727 9.75586 19.3012 9.94141C18.3515 10.2148 18.0253 10.4199 17.7759 10.9375C17.5745 11.3379 17.5553 11.5039 17.5553 13.0664C17.5553 14.9902 17.4785 15.3027 16.9317 15.5664C16.5384 15.7617 16.4617 15.7617 16.0683 15.5664C15.5215 15.3027 15.4448 14.9902 15.4448 13.0664C15.4448 11.5039 15.4256 11.3379 15.2338 10.9375C14.9747 10.4297 14.6486 10.2148 13.6989 9.94141C12.8739 9.70704 11.6556 9.16993 10.984 8.73047C10.3509 8.32032 9.79451 8.16407 9.35323 8.24219C9.06544 8.30079 8.77765 8.5254 8.01021 9.27735C7.37707 9.89258 6.9262 10.2539 6.73433 10.293C5.93811 10.4785 5.20904 9.57032 5.57358 8.85743C5.64073 8.74024 6.0916 8.22266 6.58085 7.70508C7.93346 6.2793 7.97184 5.92774 6.95497 4.31641C6.60963 3.76954 6.33143 3.31055 6.33143 3.28125C6.33143 3.24219 10.9073 3.22266 16.5 3.22266C22.0928 3.22266 26.6686 3.24219 26.6686 3.28125Z" fill="#FFA5BA"/>
<path d="M0.757849 20.6348C0.268605 20.9668 0 21.4355 0 21.9531C0 22.3047 4.87326 48.3984 5.04593 48.9453C5.13227 49.248 5.48721 49.6094 5.86134 49.8047C6.21628 50 6.4657 50 16.5 50C26.5343 50 26.7837 50 27.1387 49.8047C27.5128 49.6094 27.8677 49.248 27.9541 48.9453C28.1267 48.3984 33 22.3047 33 21.9531C33 21.4355 32.7314 20.9668 32.2421 20.6348L31.916 20.4102H16.5H1.08401L0.757849 20.6348ZM29.2108 24.1895C29.1148 24.9707 28.5584 26.6699 28.1459 27.4414C26.141 31.1523 22.3421 33.4082 17.632 33.6719C14.073 33.877 11.0608 33.1543 8.53779 31.4941C7.07965 30.5371 5.86134 29.2285 4.99796 27.6855C4.51831 26.8359 3.88517 25.0098 3.78924 24.1895L3.72209 23.6328H16.5H29.2779L29.2108 24.1895ZM6.85901 34.248C10.9744 37.0215 17.1235 37.7539 22.3038 36.0742C24.0305 35.5176 25.7956 34.5801 27.273 33.4375C27.7047 33.0957 27.7334 33.0957 27.6855 33.3105C27.6567 33.4375 27.0907 36.4258 26.4288 39.9414C25.7669 43.457 25.2105 46.4355 25.1817 46.5527L25.1337 46.7773H16.5H7.86628L7.81831 46.5527C7.78953 46.4355 7.23314 43.457 6.57122 39.9414C5.9093 36.4258 5.34331 33.4375 5.31453 33.3105C5.26657 33.0957 5.29535 33.0957 5.72703 33.4375C5.97645 33.6328 6.49448 33.9941 6.85901 34.248Z" fill="#FFA5BA"/>
</svg>
