<svg aria-hidden="true" style="position: absolute; width: 0; height: 0; overflow: hidden;" version="1.1"
    xmlns="http://www.w3.org/2000/svg" xmlns:xlink="http://www.w3.org/1999/xlink">
    <defs>
        <symbol id="arrow-right" viewBox="0 0 32 32">
            <path
                d="M29.372 14.844 15.008.48a1.636 1.636 0 0 0-2.314 0l-1.157 1.157a1.636 1.636 0 0 0 0 2.314l9.596 9.596H3.786c-.903 0-1.636.733-1.636 1.636v1.636c0 .903.733 1.636 1.636 1.636h17.347l-9.595 9.594a1.637 1.637 0 0 0 0 2.315l1.157 1.157c.639.64 1.675.64 2.314 0l14.364-14.365a1.634 1.634 0 0 0 0-2.312z" />
        </symbol>
    </defs>
</svg>