<svg aria-hidden="true" style="position: absolute; width: 0; height: 0; overflow: hidden;" version="1.1" xmlns="http://www.w3.org/2000/svg" xmlns:xlink="http://www.w3.org/1999/xlink">
<defs>
<symbol id="icon-audiobook" viewBox="0 0 39 32">
<path fill="#ff6b09" style="fill: var(--color1, #ff6b09)" d="M3.048 29.453h12.23c0.62 1.285 1.917 2.116 3.38 2.116h0.772c1.465 0 2.761-0.83 3.381-2.116h12.237c1.26 0 2.286-1.025 2.286-2.286v-21.905c0-1.26-1.025-2.286-2.286-2.286h-1.234v-1.021c0-0.84-0.684-1.524-1.524-1.524h-26.491c-0.84 0-1.524 0.683-1.524 1.524v1.021h-1.227c-1.26 0-2.286 1.025-2.286 2.286v21.905c0 1.26 1.025 2.286 2.286 2.286zM32.288 24.752h-12.478v-17.705c2.884 0.377 5.121 2.845 5.121 5.831v0.687l-0.181-0.040c-0.196-0.042-0.403-0.007-0.574 0.102s-0.291 0.281-0.334 0.478l-1.213 5.519c-0.090 0.41 0.17 0.816 0.58 0.907l2.621 0.578c0.135 0.029 0.273 0.043 0.411 0.043 0.922 0 1.707-0.631 1.908-1.535l0.702-3.192c0.231-1.048-0.433-2.090-1.484-2.324l-0.912-0.201v-1.023c0-3.827-2.917-6.986-6.644-7.37v-3.551h12.48l-0.001 22.796zM25.166 15.177l1.871 0.412c0.234 0.052 0.376 0.275 0.325 0.508l-0.702 3.191c-0.051 0.231-0.306 0.374-0.507 0.331l-1.874-0.413 0.886-4.030zM5.798 1.956h12.487v3.55c-3.731 0.381-6.652 3.541-6.652 7.371v1.022l-0.914 0.202c-0.509 0.113-0.943 0.416-1.222 0.854-0.28 0.439-0.373 0.961-0.26 1.468l0.7 3.188c0.19 0.892 0.993 1.54 1.909 1.54 0.138 0 0.275-0.015 0.416-0.045l2.61-0.577c0.41-0.091 0.67-0.496 0.58-0.907l-1.213-5.519c-0.043-0.198-0.164-0.37-0.334-0.478s-0.378-0.144-0.574-0.102l-0.174 0.038v-0.686c0-2.988 2.24-5.458 5.128-5.832v17.706h-12.487v-22.796zM12.916 15.177l0.887 4.029-1.863 0.411c-0.229 0.052-0.463-0.1-0.512-0.328l-0.702-3.196c-0.025-0.111-0.005-0.224 0.055-0.319 0.061-0.096 0.157-0.162 0.268-0.187l1.867-0.412zM2.286 5.262c0-0.42 0.341-0.762 0.762-0.762h1.227v20.252c0 0.84 0.684 1.524 1.524 1.524h26.491c0.84 0 1.524-0.683 1.524-1.524v-20.252h1.234c0.42 0 0.762 0.342 0.762 0.762v21.905c0 0.42-0.342 0.762-0.762 0.762h-12.754c-0.335 0-0.63 0.218-0.728 0.538-0.289 0.943-1.147 1.577-2.135 1.577h-0.772c-0.984 0-1.841-0.631-2.138-1.586-0.101-0.315-0.394-0.529-0.725-0.529h-12.747c-0.42 0-0.762-0.342-0.762-0.762v-21.905z"></path>
</symbol>
</defs>
</svg>
