<!-- Generated by IcoMoon.io -->
<svg version="1.1" xmlns="http://www.w3.org/2000/svg" width="512" height="512" viewBox="0 0 512 512">
<title></title>
<g id="icomoon-ignore">
</g>
<path fill="#fff" d="M501.76 261.12c0 138.557-110.031 250.88-245.76 250.88s-245.76-112.323-245.76-250.88c0-138.557 110.031-250.88 245.76-250.88s245.76 112.323 245.76 250.88z"></path>
<path fill="#d41443" d="M189.588 8.985c-118.493 35.881-189.588 129.172-189.588 247.067 0 96.366 49.458 180.431 130.857 222.463 42.244 21.529 48.427 6.151 9.273-23.579-27.819-22.553-32.971-32.805-32.971-70.737 0-26.654-6.183-48.183-15.456-56.385-18.546-15.377-20.608-55.36-2.061-69.712 7.213-6.151 14.425-26.654 15.456-45.107 5.151-67.662 78.309-131.222 151.464-131.222s146.312 63.56 151.464 131.222c1.030 18.453 8.242 38.956 15.455 45.107 18.546 14.353 16.486 54.334-2.060 69.712-9.274 8.201-15.457 29.73-15.457 56.385 0 37.932-5.151 48.183-32.972 70.737-43.276 33.831-30.911 46.133 17.517 16.404 68.004-42.032 118.492-133.273 118.492-214.262 0-161.977-168.981-293.2-319.413-248.092z"></path>
<path fill="#d41443" d="M202.982 127.906c-18.547 8.201-34.002 18.452-34.002 24.603 0 11.278 55.639 31.781 87.581 31.781s87.58-20.504 87.58-31.781c0-12.303-63.882-39.982-89.642-39.982-10.303 1.026-34.002 7.176-51.517 15.379z"></path>
<path fill="#d41443" d="M144.25 191.465c-3.091 4.101-6.182 17.429-6.182 30.756 0 23.578 1.030 23.578 118.491 23.578s118.492 0 118.492-23.578c0-34.856-9.274-38.957-42.245-22.554-37.092 19.478-115.4 19.478-152.494 0-16.486-8.201-31.941-11.276-36.062-8.201z"></path>
<path fill="#d41443" d="M114.368 282.706c-16.486 17.428 11.335 24.605 91.704 24.605h86.55v35.881c0 19.478 5.151 35.881 10.303 35.881 6.182 0 10.303-15.377 10.303-34.856 0-33.831 2.062-35.881 41.215-38.957 22.668-2.050 41.215-8.201 41.215-13.327 0-11.277-269.956-20.503-281.291-9.228z"></path>
<path fill="#d41443" d="M138.068 372.921c0 56.385 19.577 67.661 118.491 67.661 98.916 0 118.492-11.276 118.492-67.661 0-24.604-5.151-34.856-15.455-34.856-9.274 0-15.455 9.226-15.455 24.603 0 57.409-78.308 62.536-89.642 6.151-5.151-29.73-8.243-30.755-60.792-30.755h-55.639v34.856z"></path>
<path fill="#d41443" d="M201.952 488.767c6.182 32.806 111.279 29.73 111.279-2.050 0-11.277-13.395-15.378-57.701-15.378-48.427 0-56.67 3.076-53.579 17.428z"></path>
</svg>
