<svg width="69" height="48" fill="none" xmlns="http://www.w3.org/2000/svg"><path d="M30.4 6.912H9.94v1.532H30.4V6.912zM30.4 12.624H13.004v1.531H30.4v-1.531zM30.4 18.336H9.94v1.532H30.4v-1.532zM30.4 24.048H13.004v1.532H30.4v-1.532zM30.4 29.76H9.94v1.531H30.4V29.76zM30.4 35.472H13.004v1.532H30.4v-1.532zM58.485 6.912h-20.46v1.532h20.46V6.912zM55.421 12.624H38.026v1.531H55.42v-1.531zM58.485 18.336h-20.46v1.532h20.46v-1.532zM55.421 24.048H38.026v1.532H55.42v-1.532zM58.485 29.76h-20.46v1.531h20.46V29.76zM55.421 35.472H38.026v1.532H55.42v-1.532z" fill="#fff"/><path d="M65.872 5.168h-2.808V.95a.766.766 0 00-.766-.766H39.4A5.923 5.923 0 0034.213 3.2 5.926 5.926 0 0029.026.184H6.128a.766.766 0 00-.766.766v4.218H2.553a.766.766 0 00-.766.766V47.05c0 .423.343.766.766.766h63.32a.766.766 0 00.765-.766V5.934a.766.766 0 00-.766-.766zM39.401 1.716h22.13V42.74H37.768c-1.054 0-2.107.444-2.788 1.02V6.128A4.398 4.398 0 0139.4 1.716zm-32.507 0h22.13a4.385 4.385 0 014.413 4.243c.001.033.004.137.01.169V43.758c-.68-.574-1.722-1.017-2.778-1.017H6.894V1.716zM3.319 6.7h2.043v36.807c0 .423.343.766.766.766h24.54c1.168 0 2.297.766 2.658 2.011H3.319V6.7zm61.787 39.584H35.1a2.768 2.768 0 012.667-2.011h24.53a.766.766 0 00.767-.766V6.7h2.042v39.584z" fill="#fff"/></svg>