<svg width="20" height="20" xmlns="http://www.w3.org/2000/svg"><path d="M10 0C4.507 0 0 4.507 0 10c0 4.687 3.289 8.945 7.656 10v-3.308a2.446 2.446 0 01-1.271-.033c-.591-.174-1.071-.568-1.428-1.168-.227-.383-.63-.8-1.05-.769l-.103-1.167c.909-.078 1.694.554 2.16 1.337.208.349.447.553.753.643.295.088.613.046.983-.085.093-.741.433-1.018.69-1.41-2.605-.388-3.643-1.77-4.055-2.86-.546-1.449-.253-3.258.712-4.402.019-.022.053-.08.04-.12-.443-1.338.096-2.444.116-2.561.511.15.594-.152 2.22.835l.28.169c.118.07.08.03.198.02A8.487 8.487 0 0110 4.828c.71.009 1.42.11 2.127.302l.091.01c-.008-.002.025-.006.08-.039 2.03-1.23 1.957-.828 2.502-1.005.02.118.551 1.242.114 2.562-.06.182 1.76 1.848.751 4.522-.412 1.09-1.45 2.473-4.054 2.861.334.51.735.78.733 1.83V20C16.71 18.945 20 14.687 20 10c0-5.493-4.507-10-10-10z"/></svg>