<svg aria-hidden="true" style="position: absolute; width: 0; height: 0; overflow: hidden;" version="1.1" xmlns="http://www.w3.org/2000/svg" xmlns:xlink="http://www.w3.org/1999/xlink">
<defs>
<symbol id="icon-underline" viewBox="0 0 32 32">
<path d="M22 2h4v13c0 4.971-4.477 9-10 9s-10-4.029-10-9v-13h4v13c0 1.255 0.57 2.459 1.605 3.391 1.153 1.038 2.714 1.609 4.395 1.609s3.242-0.572 4.395-1.609c1.035-0.931 1.605-2.136 1.605-3.391v-13zM6 26h20v4h-20z"></path>
</symbol>
<symbol id="icon-vimeo2" viewBox="0 0 32 32">
<path d="M29 0h-26c-1.65 0-3 1.35-3 3v26c0 1.65 1.35 3 3 3h26c1.65 0 3-1.35 3-3v-26c0-1.65-1.35-3-3-3zM26.925 10.625c-0.1 2.25-1.675 5.331-4.719 9.244-3.144 4.087-5.806 6.131-7.981 6.131-1.35 0-2.488-1.244-3.419-3.731-0.625-2.281-1.244-4.563-1.869-6.844-0.688-2.488-1.431-3.731-2.225-3.731-0.175 0-0.781 0.363-1.813 1.088l-1.087-1.4c1.144-1 2.269-2.006 3.375-3.006 1.525-1.313 2.662-2.006 3.425-2.075 1.8-0.175 2.906 1.056 3.325 3.687 0.45 2.844 0.762 4.606 0.938 5.3 0.519 2.356 1.088 3.531 1.712 3.531 0.481 0 1.212-0.762 2.181-2.294s1.488-2.694 1.556-3.494c0.137-1.319-0.381-1.981-1.556-1.981-0.556 0-1.125 0.125-1.712 0.381 1.137-3.719 3.306-5.531 6.512-5.425 2.375 0.069 3.494 1.606 3.356 4.619z"></path>
</symbol>
<symbol id="icon-behance" viewBox="0 0 32 32">
<path d="M9.281 6.412c0.944 0 1.794 0.081 2.569 0.25 0.775 0.162 1.431 0.438 1.988 0.813 0.55 0.375 0.975 0.875 1.287 1.5 0.3 0.619 0.45 1.394 0.45 2.313 0 0.994-0.225 1.819-0.675 2.481-0.456 0.662-1.119 1.2-2.006 1.625 1.213 0.35 2.106 0.962 2.706 1.831 0.6 0.875 0.887 1.925 0.887 3.163 0 1-0.194 1.856-0.575 2.581-0.387 0.731-0.912 1.325-1.556 1.781-0.65 0.462-1.4 0.8-2.237 1.019-0.831 0.219-1.688 0.331-2.575 0.331h-9.544v-19.688h9.281zM8.719 14.363c0.769 0 1.406-0.181 1.906-0.55 0.5-0.363 0.738-0.963 0.738-1.787 0-0.456-0.081-0.838-0.244-1.131-0.169-0.294-0.387-0.525-0.669-0.688-0.275-0.169-0.588-0.281-0.956-0.344-0.356-0.069-0.731-0.1-1.113-0.1h-4.050v4.6h4.388zM8.956 22.744c0.425 0 0.831-0.038 1.213-0.125 0.387-0.087 0.731-0.219 1.019-0.419 0.287-0.194 0.531-0.45 0.706-0.788 0.175-0.331 0.256-0.756 0.256-1.275 0-1.012-0.287-1.738-0.856-2.175-0.569-0.431-1.325-0.644-2.262-0.644h-4.7v5.419h4.625z"></path>
<path d="M22.663 22.675c0.587 0.575 1.431 0.863 2.531 0.863 0.788 0 1.475-0.2 2.044-0.6s0.913-0.825 1.044-1.262h3.45c-0.556 1.719-1.394 2.938-2.544 3.675-1.131 0.738-2.519 1.113-4.125 1.113-1.125 0-2.131-0.181-3.038-0.538-0.906-0.363-1.663-0.869-2.3-1.531-0.619-0.663-1.106-1.45-1.45-2.375-0.337-0.919-0.512-1.938-0.512-3.038 0-1.069 0.175-2.063 0.525-2.981 0.356-0.925 0.844-1.719 1.494-2.387s1.413-1.2 2.313-1.588c0.894-0.387 1.881-0.581 2.975-0.581 1.206 0 2.262 0.231 3.169 0.706 0.9 0.469 1.644 1.1 2.225 1.887s0.994 1.694 1.25 2.706c0.256 1.012 0.344 2.069 0.275 3.175h-10.294c0 1.119 0.375 2.188 0.969 2.756zM27.156 15.188c-0.462-0.512-1.256-0.794-2.212-0.794-0.625 0-1.144 0.106-1.556 0.319-0.406 0.213-0.738 0.475-0.994 0.787-0.25 0.313-0.425 0.65-0.525 1.006-0.1 0.344-0.163 0.663-0.181 0.938h6.375c-0.094-1-0.438-1.738-0.906-2.256z"></path>
<path d="M20.887 8h7.981v1.944h-7.981v-1.944z"></path>
</symbol>
<symbol id="icon-behance1" viewBox="0.5 94.187 511 323.626">
<path d="M206.729 238.87s48.358-3.59 48.358-60.297c0-56.711-39.563-84.387-89.678-84.387H.5v316.909h164.909s100.671 3.18 100.671-93.537c0 .001 4.389-78.688-59.351-78.688zm-53.19-88.357h11.87s22.416 0 22.416 32.973c0 32.969-13.183 37.749-28.136 37.749H73.161v-70.722h80.378zm7.21 204.257H73.161v-84.69h92.248s33.41-.438 33.41 43.522c0 37.068-24.954 40.888-38.07 41.168zm239.593-179.953c-121.873 0-121.765 121.766-121.765 121.766s-8.362 121.141 121.765 121.141c0 0 108.438 6.195 108.438-84.271h-55.768s1.86 34.068-50.81 34.068c0 0-55.777 3.738-55.777-55.135H510.64c0-.001 17.968-137.569-110.298-137.569zm-54.53 95.263s6.81-48.846 55.769-48.846c48.949 0 48.336 48.846 48.336 48.846H345.812zm117.096-118.199H332.159v-39.025h130.749v39.025z">
</symbol>
<defs>
</defs>
</svg>
