<svg width="15" height="20" fill="none" xmlns="http://www.w3.org/2000/svg"><g clip-path="url(#clip0)" fill="#FF6B09"><path d="M13.693 10.37c-.178-.397-.422-.787-.78-1.239-.9-1.133-1.176-3.66-1.179-3.685a.305.305 0 00-.21-.257.31.31 0 00-.325.087c-1.075 1.203-.623 3.061-.379 3.803.068.204.141.443.193.685.397 1.96-.37 2.849-.55 3.028-.174.048-.293.024-.403-.094-.38-.415-.505-1.776-.327-3.549.036-.36.027-.685-.025-.988-.374-2.179-1.744-3.576-2.093-4.066-.96-1.419-1.057-3.78-1.06-3.8a.305.305 0 00-.477-.24c-1.6 1.088-1.463 3.71-1.24 5.173.052.34.152.685.327 1.121.62 1.56-.123 3.576-.129 3.594-.006.018-.012.033-.015.052-.095.497-.254.794-.43.794a.212.212 0 01-.059-.01c-.217-.045-.33-.275-.333-.475-.012-2.585-2.606-3.455-2.634-3.464a.304.304 0 00-.324.091.298.298 0 00-.043.333c.031.064.129.343.062 1.328-.058.884-.22 1.76-.48 2.6A12.668 12.668 0 00.267 15.2c.474 5.16 7.896 6.065 12.301 3.157a4.454 4.454 0 001.167-1.082c1.626-2.242.67-5.287-.042-6.906zM2.403 15.3c.009.167-.12.31-.288.319h-.018a.304.304 0 01-.306-.285c-.027-.442-.021-.906.012-1.41a.308.308 0 01.327-.28.305.305 0 01.285.323c-.034.48-.04.915-.013 1.334zm.15-2.684a.303.303 0 01-.303.267c-.013 0-.025 0-.04-.003a.306.306 0 01-.266-.337l.147-1.17a.308.308 0 01.342-.263.304.304 0 01.266.34l-.147 1.166zM11.626 4.145a.303.303 0 01-.256-.345c.02-.123.13-.753.43-1.07a.307.307 0 01.431-.014c.123.114.13.306.014.428-.127.135-.235.519-.27.748a.305.305 0 01-.35.253zM.486 5.655C.428 5.43.282 5.058.143 4.937a.301.301 0 01-.029-.428.307.307 0 01.432-.028c.329.287.5.903.532 1.024a.303.303 0 01-.22.368.306.306 0 01-.372-.218z"/></g><defs><clipPath id="clip0"><path fill="#fff" d="M0 0h14.667v20H0z"/></clipPath></defs></svg>