<svg width="40" height="40" viewBox="0 0 40 40" fill="none" xmlns="http://www.w3.org/2000/svg">
<g clip-path="url(#clip0)">
<path d="M39.3152 7.15454C38.9511 3.74329 36.257 1.04858 32.8455 0.684814C24.2902 -0.228271 15.7098 -0.228271 7.15485 0.684814C3.74329 1.04889 1.04889 3.74329 0.684814 7.15454C-0.228271 15.7095 -0.228271 24.2902 0.684814 32.8452C1.04889 36.2567 3.74329 38.9511 7.15454 39.3152C15.7095 40.2283 24.2902 40.2283 32.8455 39.3152C36.257 38.9511 38.9511 36.2567 39.3152 32.8452C40.2283 24.2902 40.2283 15.7098 39.3152 7.15454Z" fill="url(#paint0_radial)"/>
<path d="M37.1396 8.60117C36.8167 5.57413 34.426 3.18307 31.3987 2.85989C23.8071 2.04996 16.193 2.04996 8.60141 2.85989C5.57437 3.18307 3.18332 5.57413 2.86014 8.60117C2.0502 16.1927 2.0502 23.8069 2.86014 31.3981C3.18332 34.4254 5.57437 36.8165 8.60141 37.1394C16.193 37.9496 23.8071 37.9496 31.3983 37.1394C34.4257 36.8165 36.8167 34.4254 37.1396 31.3981C37.9499 23.8069 37.9499 16.1927 37.1396 8.60117Z" fill="url(#paint1_linear)"/>
<path d="M0.599365 32.0161C0.626831 32.2926 0.655212 32.5691 0.684814 32.8456C1.04889 36.2568 3.74329 38.9512 7.15485 39.3153C15.7098 40.2284 24.2905 40.2284 32.8455 39.3153C36.257 38.9512 38.9511 36.2568 39.3152 32.8456C39.3448 32.5691 39.3732 32.2926 39.4009 32.0161H0.599365Z" fill="url(#paint2_linear)"/>
<path d="M39.3152 32.8453C39.8059 28.2484 40.0323 23.6442 39.9957 19.0407L30.8527 9.89759C29.7104 8.59357 28.042 7.77967 26.0815 7.70917C22.0499 7.56391 18.0054 7.57123 13.9731 7.70978C10.6241 7.82514 8.28217 10.0761 7.68158 13.3845C7.57568 13.9686 7.51221 14.5604 7.42889 15.1487V24.8478C7.47498 25.1622 7.54272 25.475 7.56378 25.7911C7.69806 27.8035 8.52509 29.5271 9.84924 30.6932L19.1534 39.9971C23.7195 40.0291 28.2858 39.8021 32.8455 39.3153C36.257 38.9512 38.9511 36.2568 39.3152 32.8453Z" fill="url(#paint3_linear)"/>
<path d="M39.3152 32.8457C38.9514 36.2567 36.2564 38.9517 32.8455 39.3154C28.2864 39.8019 23.7192 40.0292 19.1537 39.9972L9.86359 30.707C10.9406 31.6497 12.3444 32.2238 13.9734 32.2851C18.0048 32.4365 22.0502 32.4325 26.0815 32.2872C29.7278 32.1554 32.3663 29.4567 32.4802 25.8105C32.6016 21.939 32.6016 18.0575 32.4802 14.186C32.4283 12.5039 31.8378 11.0238 30.8588 9.90381L39.996 19.0411C40.032 23.644 39.8056 28.2488 39.3152 32.8457Z" fill="url(#paint4_linear)"/>
<path d="M24.7198 15.6688C23.5486 14.3934 21.868 13.5933 20 13.5933C16.4618 13.5933 13.5931 16.4619 13.5931 20.0001C13.5931 21.8681 14.3933 23.5487 15.6686 24.72L30.4919 39.5433C31.2766 39.4749 32.0612 39.3989 32.8452 39.3153C36.2567 38.9512 38.9511 36.2568 39.3152 32.8453C39.3988 32.0613 39.4748 31.2767 39.5432 30.4921L24.7198 15.6688Z" fill="url(#paint5_linear)"/>
<path d="M39.9225 24.3089L27.9926 12.3793C27.7142 12.014 27.2757 11.7769 26.781 11.7769C25.9393 11.7769 25.2567 12.4592 25.2567 13.3012C25.2567 13.7959 25.4938 14.2344 25.8591 14.5128L39.7092 28.3632C39.8032 27.0121 39.8743 25.6605 39.9225 24.3089Z" fill="url(#paint6_linear)"/>
<path d="M7.42889 15.1487C7.51221 14.5604 7.57568 13.9686 7.68158 13.3845C8.28186 10.0761 10.6241 7.82514 13.9731 7.70978C18.0054 7.57123 22.0499 7.56391 26.0815 7.70917C29.7266 7.8404 32.3663 10.5394 32.4802 14.1856C32.6013 18.0574 32.6013 21.9386 32.4802 25.8104C32.3663 29.4566 29.7275 32.1553 26.0818 32.2868C22.0502 32.4324 18.0048 32.436 13.9734 32.2847C10.3278 32.1476 7.80762 29.4426 7.56378 25.7908C7.54272 25.475 7.47498 25.1619 7.42889 24.8475C7.42889 21.6145 7.42889 18.3815 7.42889 15.1487ZM20.0034 30.1259C21.8484 30.1259 23.6954 30.1811 25.538 30.113C28.4271 30.0059 30.2042 28.2817 30.2716 25.3953C30.3552 21.7988 30.3552 18.1975 30.2716 14.6007C30.2042 11.7149 28.4259 9.95038 25.538 9.88904C21.8726 9.81153 18.2031 9.81214 14.5377 9.88904C11.6718 9.94916 9.88953 11.678 9.81171 14.532C9.71283 18.174 9.71283 21.8223 9.81171 25.4643C9.88953 28.318 11.6718 30.0068 14.538 30.113C16.3574 30.1808 18.1815 30.1259 20.0034 30.1259Z" fill="url(#paint7_linear)"/>
<path d="M7.42889 15.1487C7.51221 14.5604 7.57568 13.9686 7.68158 13.3845C8.28186 10.0761 10.6241 7.82514 13.9731 7.70978C18.0054 7.57123 22.0499 7.56391 26.0815 7.70917C29.7266 7.8404 32.3663 10.5394 32.4802 14.1856C32.6013 18.0574 32.6013 21.9386 32.4802 25.8104C32.3663 29.4566 29.7275 32.1553 26.0818 32.2868C22.0502 32.4324 18.0048 32.436 13.9734 32.2847C10.3278 32.1476 7.80762 29.4426 7.56378 25.7908C7.54272 25.475 7.47498 25.1619 7.42889 24.8475C7.42889 21.6145 7.42889 18.3815 7.42889 15.1487ZM20.0034 30.1259C21.8484 30.1259 23.6954 30.1811 25.538 30.113C28.4271 30.0059 30.2042 28.2817 30.2716 25.3953C30.3552 21.7988 30.3552 18.1975 30.2716 14.6007C30.2042 11.7149 28.4259 9.95038 25.538 9.88904C21.8726 9.81153 18.2031 9.81214 14.5377 9.88904C11.6718 9.94916 9.88953 11.678 9.81171 14.532C9.71283 18.174 9.71283 21.8223 9.81171 25.4643C9.88953 28.318 11.6718 30.0068 14.538 30.113C16.3574 30.1808 18.1815 30.1259 20.0034 30.1259Z" fill="white"/>
<path d="M20 13.5933C16.4618 13.5933 13.5931 16.4616 13.5931 19.9998C13.5931 23.5383 16.4618 26.4067 20 26.4067C23.5385 26.4067 26.4069 23.5383 26.4069 19.9998C26.4069 16.4616 23.5385 13.5933 20 13.5933ZM20 24.2009C17.6797 24.2009 15.799 22.3201 15.799 19.9998C15.799 17.6796 17.6797 15.7988 20 15.7988C22.3203 15.7988 24.201 17.6796 24.201 19.9998C24.201 22.3201 22.3203 24.2009 20 24.2009Z" fill="white"/>
<path d="M28.3051 13.3012C28.3051 14.1429 27.6227 14.8253 26.781 14.8253C25.9393 14.8253 25.2567 14.1429 25.2567 13.3012C25.2567 12.4592 25.9393 11.7769 26.781 11.7769C27.6227 11.7769 28.3051 12.4592 28.3051 13.3012Z" fill="white"/>
</g>
<defs>
<radialGradient id="paint0_radial" cx="0" cy="0" r="1" gradientUnits="userSpaceOnUse" gradientTransform="translate(8.19977 34.9568) scale(44.113)">
<stop stop-color="#FAE100"/>
<stop offset="0.0544" stop-color="#FADC04"/>
<stop offset="0.1167" stop-color="#FBCE0E"/>
<stop offset="0.1829" stop-color="#FCB720"/>
<stop offset="0.2514" stop-color="#FE9838"/>
<stop offset="0.3054" stop-color="#FF7950"/>
<stop offset="0.4922" stop-color="#FF1C74"/>
<stop offset="1" stop-color="#6C1CD1"/>
</radialGradient>
<linearGradient id="paint1_linear" x1="15.3416" y1="17.3794" x2="-52.4231" y2="-20.7382" gradientUnits="userSpaceOnUse">
<stop stop-color="#A1B5D8" stop-opacity="0"/>
<stop offset="0.3094" stop-color="#90A2BD" stop-opacity="0.309804"/>
<stop offset="0.7554" stop-color="#7C8B9C" stop-opacity="0.756863"/>
<stop offset="1" stop-color="#748290"/>
</linearGradient>
<linearGradient id="paint2_linear" x1="20" y1="35.31" x2="20" y2="41.545" gradientUnits="userSpaceOnUse">
<stop stop-color="#FAE100" stop-opacity="0"/>
<stop offset="0.3068" stop-color="#FCA800" stop-opacity="0.305882"/>
<stop offset="0.6275" stop-color="#FE7300" stop-opacity="0.627451"/>
<stop offset="0.8685" stop-color="#FF5200" stop-opacity="0.866667"/>
<stop offset="1" stop-color="#FF4500"/>
</linearGradient>
<linearGradient id="paint3_linear" x1="17.7244" y1="17.6679" x2="7.82505" y2="7.76858" gradientUnits="userSpaceOnUse">
<stop stop-color="#833AB4" stop-opacity="0"/>
<stop offset="1" stop-color="#833AB4"/>
</linearGradient>
<linearGradient id="paint4_linear" x1="27.414" y1="36.5852" x2="22.4731" y2="13.2922" gradientUnits="userSpaceOnUse">
<stop stop-color="#833AB4" stop-opacity="0"/>
<stop offset="1" stop-color="#833AB4"/>
</linearGradient>
<linearGradient id="paint5_linear" x1="29.2941" y1="29.2943" x2="9.44852" y2="9.44863" gradientUnits="userSpaceOnUse">
<stop stop-color="#833AB4" stop-opacity="0"/>
<stop offset="1" stop-color="#833AB4"/>
</linearGradient>
<linearGradient id="paint6_linear" x1="30.7661" y1="17.2863" x2="24.2036" y2="10.7237" gradientUnits="userSpaceOnUse">
<stop stop-color="#833AB4" stop-opacity="0"/>
<stop offset="1" stop-color="#833AB4"/>
</linearGradient>
<linearGradient id="paint7_linear" x1="27.9421" y1="12.1134" x2="11.7611" y2="28.2943" gradientUnits="userSpaceOnUse">
<stop stop-color="#833AB4"/>
<stop offset="0.0922" stop-color="#9C3495"/>
<stop offset="0.2927" stop-color="#DC2546"/>
<stop offset="0.392" stop-color="#FD1D1D"/>
<stop offset="0.5589" stop-color="#FC6831"/>
<stop offset="0.6887" stop-color="#FC9B40"/>
<stop offset="0.7521" stop-color="#FCAF45"/>
<stop offset="0.7806" stop-color="#FDB750"/>
<stop offset="0.8656" stop-color="#FECB6A"/>
<stop offset="0.9415" stop-color="#FFD87A"/>
<stop offset="1" stop-color="#FFDC80"/>
</linearGradient>
<clipPath id="clip0">
<rect width="40" height="40" fill="white"/>
</clipPath>
</defs>
</svg>
