<?xml version="1.0" standalone="no"?>
<!DOCTYPE svg PUBLIC "-//W3C//DTD SVG 20010904//EN"
 "http://www.w3.org/TR/2001/REC-SVG-20010904/DTD/svg10.dtd">
<svg version="1.0" xmlns="http://www.w3.org/2000/svg"
 width="199.000000pt" height="50.000000pt" viewBox="0 0 199.000000 50.000000"
 preserveAspectRatio="xMidYMid meet">

<g transform="translate(0.000000,50.000000) scale(0.100000,-0.100000)"
fill="#000000" stroke="none">
<path d="M190 491 c-115 -35 -184 -126 -184 -241 0 -94 48 -176 127 -217 41
-21 47 -6 9 23 -27 22 -32 32 -32 69 0 26 -6 47 -15 55 -18 15 -20 54 -2 68 7
6 14 26 15 44 5 66 76 128 147 128 71 0 142 -62 147 -128 1 -18 8 -38 15 -44
18 -14 16 -53 -2 -68 -9 -8 -15 -29 -15 -55 0 -37 -5 -47 -32 -69 -42 -33 -30
-45 17 -16 66 41 115 130 115 209 0 158 -164 286 -310 242z"/>
<path d="M203 375 c-18 -8 -33 -18 -33 -24 0 -11 54 -31 85 -31 31 0 85 20 85
31 0 12 -62 39 -87 39 -10 -1 -33 -7 -50 -15z"/>
<path d="M718 323 c-15 -4 -18 -17 -18 -89 l0 -84 35 0 36 0 -3 87 c-3 91 -7
98 -50 86z"/>
<path d="M835 318 c-33 -18 -45 -40 -45 -83 0 -59 32 -87 91 -83 40 3 44 6 47
31 3 25 1 27 -30 25 -32 -3 -33 -1 -33 32 0 33 2 35 31 32 24 -2 33 2 37 17 2
10 0 24 -6 30 -14 14 -66 14 -92 -1z"/>
<path d="M954 317 c-3 -8 -4 -47 -2 -88 l3 -74 65 0 c60 0 65 2 68 23 3 19 -1
22 -32 22 -20 0 -36 5 -36 10 0 6 14 10 30 10 23 0 30 4 30 20 0 16 -7 20 -30
20 -16 0 -30 5 -30 10 0 6 13 10 29 10 28 0 47 22 35 41 -9 15 -124 11 -130
-4z"/>
<path d="M1160 323 c-37 -14 -50 -36 -50 -85 0 -66 24 -90 88 -86 43 3 47 5
47 28 0 22 -4 25 -32 22 -24 -2 -33 1 -38 17 -9 31 10 56 42 56 31 0 45 31 21
46 -14 10 -55 10 -78 2z"/>
<path d="M1278 324 c-5 -4 -8 -45 -8 -91 l0 -84 32 3 c25 2 34 9 39 28 l6 25
8 -27 c6 -23 13 -28 39 -28 43 0 48 7 30 42 -11 22 -13 33 -5 41 13 13 14 57
2 76 -10 16 -130 29 -143 15z m82 -54 c0 -11 -4 -20 -10 -20 -5 0 -10 9 -10
20 0 11 5 20 10 20 6 0 10 -9 10 -20z"/>
<path d="M1457 323 c-4 -3 -7 -44 -7 -90 l0 -83 65 0 c63 0 65 1 65 25 0 21
-5 25 -30 25 -16 0 -30 5 -30 10 0 6 11 10 25 10 18 0 25 5 25 20 0 15 -7 20
-25 20 -14 0 -25 5 -25 10 0 6 14 10 30 10 25 0 30 4 30 25 0 24 -3 25 -58 25
-32 0 -62 -3 -65 -7z"/>
<path d="M1659 324 c-18 -5 -64 -138 -55 -160 8 -20 53 -18 65 3 9 17 10 17
28 0 23 -20 73 -23 73 -4 0 6 -10 46 -23 87 -20 66 -26 75 -47 77 -14 0 -32
-1 -41 -3z m28 -91 c-3 -10 -5 -4 -5 12 0 17 2 24 5 18 2 -7 2 -21 0 -30z"/>
<path d="M1803 323 c-9 -3 -13 -31 -13 -89 l0 -84 30 0 c27 0 30 3 31 33 l1
32 11 -27 c13 -34 34 -36 47 -5 8 21 9 21 9 -6 1 -25 4 -28 32 -25 l31 3 1 83
c2 77 1 83 -20 88 -32 8 -59 -11 -68 -48 l-7 -33 -11 35 c-14 47 -35 59 -74
43z"/>
<path d="M146 313 c-3 -4 -6 -17 -6 -30 0 -23 1 -23 115 -23 114 0 115 0 115
23 0 34 -9 38 -41 22 -36 -19 -112 -19 -148 0 -16 8 -31 11 -35 8z"/>
<path d="M117 224 c-16 -17 11 -24 89 -24 l84 0 0 -35 c0 -19 5 -35 10 -35 6
0 10 15 10 34 0 33 2 35 40 38 22 2 40 8 40 13 0 11 -262 20 -273 9z"/>
<path d="M140 136 c0 -55 19 -66 115 -66 96 0 115 11 115 66 0 24 -5 34 -15
34 -9 0 -15 -9 -15 -24 0 -56 -76 -61 -87 -6 -5 29 -8 30 -59 30 l-54 0 0 -34z"/>
<path d="M202 23 c6 -32 108 -29 108 2 0 11 -13 15 -56 15 -47 0 -55 -3 -52
-17z"/>
</g>
</svg>
