<svg aria-hidden="true" style="position: absolute; width: 0; height: 0; overflow: hidden;" version="1.1" xmlns="http://www.w3.org/2000/svg" xmlns:xlink="http://www.w3.org/1999/xlink">
<defs>
<symbol id="icon-rectangle-2" viewBox="0 0 1 32">
<path d="M0 0h0.533v32h-0.533v-32z"></path>
</symbol>
<symbol id="icon-rectangle1" viewBox="0 0 1920 32">
<path d="M1920 0v32h-1920v-32h1920z"></path>
</symbol>
<symbol id="icon-menu_40px" viewBox="0 0 32 32">
<path fill="#fff" style="fill: var(--color1, #fff)" d="M6.4 11.733v-2.133h19.2v2.133h-19.2zM6.4 17.067h19.2v-2.133h-19.2v2.133zM6.4 22.4h19.2v-2.133h-19.2v2.133z"></path>
</symbol>
<symbol id="icon-close_40px" viewBox="0 0 32 32">
<path d="M23.733 10.304l-1.504-1.504-5.963 5.963-5.963-5.963-1.504 1.504 5.963 5.963-5.963 5.963 1.504 1.504 5.963-5.963 5.963 5.963 1.504-1.504-5.963-5.963 5.963-5.963z"></path>
</symbol>
<symbol id="icon-facebook" viewBox="0 0 32 32">
<path fill="#fff" style="fill: var(--color1, #fff)" d="M32 16c0 4.418-1.791 8.418-4.686 11.314s-6.895 4.686-11.314 4.686-8.418-1.791-11.314-4.686c-2.895-2.895-4.686-6.895-4.686-11.314s1.791-8.418 4.686-11.314 6.895-4.686 11.314-4.686c4.418 0 8.418 1.791 11.314 4.686s4.686 6.895 4.686 11.314z"></path>
<path fill="#303030" style="fill: var(--color2, #303030)" d="M18.422 11.142h1.328v-2.313c-0.229-0.031-1.017-0.102-1.935-0.102-1.915 0-3.226 1.204-3.226 3.418v2.037h-2.113v2.585h2.113v6.505h2.59v-6.505h2.027l0.322-2.585h-2.35v-1.781c0.001-0.747 0.202-1.259 1.243-1.259z"></path>
</symbol>
<symbol id="icon-instagram" viewBox="0 0 32 32">
<path fill="#fff" style="fill: var(--color1, #fff)" d="M29.538 13.538c0 3.739-1.515 7.123-3.965 9.573s-5.835 3.965-9.573 3.965-7.123-1.515-9.573-3.965c-2.45-2.45-3.965-5.835-3.965-9.573s1.515-7.123 3.965-9.573c2.45-2.45 5.835-3.965 9.573-3.965s7.123 1.515 9.573 3.965c2.45 2.45 3.965 5.835 3.965 9.573z"></path>
<path fill="#303030" style="fill: var(--color2, #303030)" d="M22.142 11.003c-0.029-0.654-0.135-1.104-0.286-1.493-0.156-0.413-0.397-0.784-0.712-1.091-0.308-0.313-0.68-0.555-1.089-0.709-0.392-0.151-0.839-0.257-1.493-0.286-0.659-0.031-0.868-0.039-2.539-0.039s-1.88 0.007-2.537 0.036c-0.654 0.029-1.104 0.135-1.493 0.286-0.414 0.156-0.784 0.397-1.092 0.712-0.313 0.308-0.555 0.68-0.709 1.089-0.152 0.392-0.257 0.839-0.286 1.493-0.031 0.659-0.038 0.868-0.038 2.539s0.007 1.88 0.036 2.537c0.029 0.654 0.135 1.104 0.286 1.493 0.156 0.413 0.399 0.784 0.712 1.091 0.308 0.313 0.68 0.555 1.089 0.709 0.392 0.151 0.839 0.257 1.493 0.286 0.656 0.029 0.866 0.036 2.537 0.036s1.88-0.007 2.537-0.036c0.654-0.029 1.104-0.135 1.493-0.286 0.827-0.32 1.481-0.974 1.801-1.801 0.151-0.392 0.257-0.839 0.286-1.493 0.029-0.656 0.036-0.866 0.036-2.537s-0.002-1.88-0.031-2.537zM21.033 16.028c-0.026 0.601-0.127 0.926-0.212 1.142-0.207 0.536-0.632 0.962-1.169 1.169-0.216 0.084-0.543 0.185-1.142 0.212-0.649 0.029-0.844 0.036-2.486 0.036s-1.839-0.007-2.486-0.036c-0.601-0.026-0.926-0.127-1.142-0.212-0.267-0.099-0.51-0.255-0.707-0.459-0.204-0.2-0.361-0.44-0.459-0.707-0.084-0.216-0.185-0.543-0.211-1.142-0.029-0.649-0.036-0.844-0.036-2.486s0.007-1.839 0.036-2.486c0.026-0.601 0.127-0.926 0.211-1.142 0.099-0.267 0.255-0.51 0.462-0.707 0.199-0.204 0.44-0.361 0.707-0.459 0.216-0.084 0.543-0.185 1.142-0.212 0.649-0.029 0.844-0.036 2.486-0.036 1.645 0 1.839 0.007 2.486 0.036 0.601 0.026 0.926 0.127 1.142 0.212 0.267 0.099 0.51 0.255 0.707 0.459 0.204 0.2 0.361 0.44 0.459 0.707 0.084 0.216 0.185 0.543 0.212 1.142 0.029 0.649 0.036 0.844 0.036 2.486s-0.007 1.835-0.036 2.484z"></path>
<path fill="#303030" style="fill: var(--color2, #303030)" d="M16.023 10.378c-1.745 0-3.162 1.416-3.162 3.162s1.416 3.162 3.162 3.162c1.746 0 3.162-1.416 3.162-3.162s-1.416-3.162-3.162-3.162zM16.023 15.591c-1.132 0-2.051-0.918-2.051-2.051s0.919-2.051 2.051-2.051c1.133 0 2.051 0.918 2.051 2.051s-0.918 2.051-2.051 2.051z"></path>
<path fill="#303030" style="fill: var(--color2, #303030)" d="M20.048 10.253c0 0.408-0.331 0.738-0.738 0.738s-0.738-0.33-0.738-0.738c0-0.408 0.33-0.738 0.738-0.738s0.738 0.33 0.738 0.738z"></path>
</symbol>
<symbol id="icon-linkedIn" viewBox="0 0 32 32">
<path fill="#fff" style="fill: var(--color1, #fff)" d="M32 16c0 4.418-1.791 8.418-4.686 11.314s-6.895 4.686-11.314 4.686-8.418-1.791-11.314-4.686c-2.895-2.895-4.686-6.895-4.686-11.314s1.791-8.418 4.686-11.314 6.895-4.686 11.314-4.686c4.418 0 8.418 1.791 11.314 4.686s4.686 6.895 4.686 11.314z"></path>
<path fill="#303030" style="fill: var(--color2, #303030)" d="M23.269 23.273v-0.001h0.004v-5.335c0-2.61-0.562-4.62-3.613-4.62-1.467 0-2.451 0.805-2.853 1.568h-0.042v-1.324h-2.893v9.711h3.012v-4.809c0-1.266 0.24-2.49 1.808-2.49 1.545 0 1.568 1.445 1.568 2.572v4.728h3.009z"></path>
<path fill="#303030" style="fill: var(--color2, #303030)" d="M8.967 13.562h3.016v9.711h-3.016v-9.711z"></path>
<path fill="#303030" style="fill: var(--color2, #303030)" d="M10.474 8.727c-0.964 0-1.747 0.782-1.747 1.747s0.782 1.763 1.747 1.763c0.964 0 1.747-0.799 1.747-1.763s-0.783-1.747-1.747-1.747v0z"></path>
</symbol>
<symbol id="icon-mail" viewBox="0 0 32 32">
<path fill="none" stroke="#9da4bd" style="stroke: var(--color3, #9da4bd)" stroke-linejoin="round" stroke-linecap="round" stroke-miterlimit="4" stroke-width="1.3333" d="M6.4 6.667h19.2c1.32 0 2.4 1.050 2.4 2.333v14c0 1.283-1.080 2.333-2.4 2.333h-19.2c-1.32 0-2.4-1.050-2.4-2.333v-14c0-1.283 1.080-2.333 2.4-2.333z"></path>
<path fill="none" stroke="#9da4bd" style="stroke: var(--color3, #9da4bd)" stroke-linejoin="round" stroke-linecap="round" stroke-miterlimit="4" stroke-width="1.3333" d="M26.667 9.333l-10.667 8-10.667-8"></path>
</symbol>
<symbol id="icon-map-pin" viewBox="0 0 32 32">
<path fill="none" stroke="#9da4bd" style="stroke: var(--color3, #9da4bd)" stroke-linejoin="round" stroke-linecap="round" stroke-miterlimit="4" stroke-width="1.3333" d="M26.667 13.818c0 7.636-10.667 14.182-10.667 14.182s-10.667-6.545-10.667-14.182c0-5.422 4.776-9.818 10.667-9.818s10.667 4.396 10.667 9.818v0z"></path>
<path fill="none" stroke="#9da4bd" style="stroke: var(--color3, #9da4bd)" stroke-linejoin="round" stroke-linecap="round" stroke-miterlimit="4" stroke-width="1.3333" d="M16 18.667c2.209 0 4-1.791 4-4s-1.791-4-4-4-4 1.791-4 4c0 2.209 1.791 4 4 4z"></path>
</symbol>
<symbol id="icon-phone" viewBox="0 0 32 32">
<path fill="none" stroke="#9da4bd" style="stroke: var(--color3, #9da4bd)" stroke-linejoin="round" stroke-linecap="round" stroke-miterlimit="4" stroke-width="1.3333" d="M26.666 21.337v3.218c0.002 0.604-0.25 1.181-0.695 1.589s-1.042 0.61-1.643 0.556c-3.301-0.359-6.471-1.487-9.257-3.293-2.592-1.647-4.789-3.844-6.436-6.436-1.813-2.798-2.941-5.984-3.293-9.3-0.054-0.6 0.146-1.195 0.552-1.639s0.98-0.698 1.582-0.699h3.218c1.077-0.011 1.995 0.779 2.145 1.845 0.136 1.030 0.388 2.041 0.751 3.014 0.295 0.784 0.106 1.668-0.483 2.263l-1.362 1.362c1.527 2.685 3.75 4.909 6.436 6.436l1.362-1.362c0.596-0.589 1.479-0.777 2.263-0.483 0.973 0.363 1.984 0.615 3.014 0.751 1.079 0.152 1.872 1.088 1.845 2.177z"></path>
</symbol>
<symbol id="icon-twitter" viewBox="0 0 32 32">
<path fill="#fff" style="fill: var(--color1, #fff)" d="M32 16c0 4.418-1.791 8.418-4.686 11.314s-6.895 4.686-11.314 4.686-8.418-1.791-11.314-4.686c-2.895-2.895-4.686-6.895-4.686-11.314s1.791-8.418 4.686-11.314 6.895-4.686 11.314-4.686c4.418 0 8.418 1.791 11.314 4.686s4.686 6.895 4.686 11.314z"></path>
<path fill="#303030" style="fill: var(--color2, #303030)" d="M23.273 11.49c-0.541 0.237-1.117 0.394-1.718 0.471 0.618-0.369 1.090-0.949 1.312-1.648-0.576 0.344-1.213 0.586-1.891 0.722-0.547-0.583-1.327-0.944-2.178-0.944-1.651 0-2.98 1.34-2.98 2.983 0 0.236 0.020 0.464 0.069 0.68-2.479-0.121-4.673-1.309-6.146-3.119-0.257 0.446-0.408 0.957-0.408 1.507 0 1.033 0.532 1.948 1.325 2.478-0.479-0.009-0.949-0.148-1.347-0.367 0 0.009 0 0.021 0 0.033 0 1.449 1.034 2.653 2.389 2.93-0.243 0.066-0.507 0.098-0.782 0.098-0.191 0-0.384-0.011-0.565-0.051 0.386 1.181 1.483 2.049 2.786 2.077-1.015 0.794-2.303 1.272-3.697 1.272-0.245 0-0.479-0.011-0.714-0.041 1.321 0.852 2.886 1.338 4.575 1.338 5.487 0 8.487-4.545 8.487-8.485 0-0.132-0.005-0.259-0.011-0.385 0.592-0.42 1.089-0.944 1.495-1.548z"></path>
</symbol>
</defs>
</svg>
