<svg aria-hidden="true" style="position: absolute; width: 0; height: 0; overflow: hidden;" version="1.1" xmlns="http://www.w3.org/2000/svg" xmlns:xlink="http://www.w3.org/1999/xlink">
<defs>
<symbol id="icon-openbook" viewBox="0 0 46 32">
<path fill="#fff" style="fill: var(--color1, #fff)" d="M20.267 4.608h-13.64v1.021h13.64v-1.021z"></path>
<path fill="#fff" style="fill: var(--color1, #fff)" d="M20.267 8.416h-11.597v1.021h11.597v-1.021z"></path>
<path fill="#fff" style="fill: var(--color1, #fff)" d="M20.267 12.224h-13.64v1.021h13.64v-1.021z"></path>
<path fill="#fff" style="fill: var(--color1, #fff)" d="M20.267 16.032h-11.597v1.021h11.597v-1.021z"></path>
<path fill="#fff" style="fill: var(--color1, #fff)" d="M20.267 19.84h-13.64v1.021h13.64v-1.021z"></path>
<path fill="#fff" style="fill: var(--color1, #fff)" d="M20.267 23.648h-11.597v1.021h11.597v-1.021z"></path>
<path fill="#fff" style="fill: var(--color1, #fff)" d="M38.99 4.608h-13.64v1.021h13.64v-1.021z"></path>
<path fill="#fff" style="fill: var(--color1, #fff)" d="M36.947 8.416h-11.597v1.021h11.597v-1.021z"></path>
<path fill="#fff" style="fill: var(--color1, #fff)" d="M38.99 12.224h-13.64v1.021h13.64v-1.021z"></path>
<path fill="#fff" style="fill: var(--color1, #fff)" d="M36.947 16.032h-11.597v1.021h11.597v-1.021z"></path>
<path fill="#fff" style="fill: var(--color1, #fff)" d="M38.99 19.84h-13.64v1.021h13.64v-1.021z"></path>
<path fill="#fff" style="fill: var(--color1, #fff)" d="M36.947 23.648h-11.597v1.021h11.597v-1.021z"></path>
<path fill="#fff" style="fill: var(--color1, #fff)" d="M43.915 3.445h-1.872v-2.812c0-0.282-0.229-0.511-0.511-0.511h-15.265c-1.49 0-2.781 0.805-3.458 2.011-0.678-1.206-1.97-2.011-3.459-2.011h-15.265c-0.282 0-0.511 0.229-0.511 0.511v2.812h-1.872c-0.282 0-0.511 0.229-0.511 0.511v27.411c0 0.282 0.229 0.511 0.511 0.511 5.127 0 37.068 0 42.213 0 0.282 0 0.511-0.229 0.511-0.511v-27.411c0-0.282-0.229-0.511-0.511-0.511zM26.267 1.144h14.754c0 4.573 0 16.619 0 27.35h-15.843c-0.702 0-1.405 0.296-1.859 0.68v-25.089c0-1.63 1.305-2.942 2.948-2.942zM4.596 1.144h14.754c1.597 0 2.889 1.243 2.942 2.829 0.001 0.022 0.003 0.091 0.006 0.112v25.087c-0.453-0.383-1.148-0.678-1.852-0.678h-15.85c0-10.728 0-22.779 0-27.35zM2.213 4.467h1.362v24.538c0 0.282 0.229 0.511 0.511 0.511h16.361c0.778 0 1.531 0.511 1.771 1.341h-20.005v-26.39zM43.404 30.856h-20.004c0.242-0.834 0.987-1.341 1.778-1.341h16.354c0.282 0 0.511-0.229 0.511-0.511v-24.538h1.362v26.39z"></path>
</symbol>
</defs>
</svg>
