<svg width="453" height="621" viewBox="0 0 453 621" fill="none" xmlns="http://www.w3.org/2000/svg">
<path d="M423.585 321.94C418.087 309.614 410.504 297.476 399.414 283.456C371.45 248.266 362.919 169.795 362.824 169.042C362.445 165.278 359.791 162.173 356.283 161.044C352.681 159.915 348.795 160.95 346.235 163.773C312.869 201.127 326.898 258.805 334.481 281.857C336.567 288.161 338.842 295.594 340.452 303.121C352.775 363.998 328.982 391.567 323.39 397.118C317.987 398.624 314.29 397.871 310.877 394.201C299.123 381.311 295.237 339.064 300.734 284.021C301.873 272.824 301.588 262.756 299.976 253.347C288.381 185.693 245.867 142.297 235.044 127.077C205.279 83.0428 202.246 9.74598 202.151 9.08734C202.056 5.60598 200.066 2.50098 196.938 0.995525C193.904 -0.509929 190.207 -0.321747 187.364 1.65416C137.693 35.4328 141.958 116.821 148.878 162.267C150.49 172.806 153.618 183.532 159.021 197.081C178.264 245.538 155.229 308.108 155.04 308.673C154.85 309.237 154.661 309.708 154.566 310.272C151.627 325.703 146.698 334.924 141.2 334.924C140.631 334.924 140.063 334.83 139.399 334.642C132.669 333.231 129.162 326.08 129.067 319.87C128.688 239.61 48.2095 212.606 47.3563 212.324C43.7543 211.195 39.773 212.23 37.3084 215.146C34.7491 218.063 34.2751 222.109 35.9814 225.496C36.9293 227.472 39.9626 236.129 37.8772 266.708C36.0761 294.183 31.0522 321.375 22.9949 347.438C3.84698 409.915 6.88031 469.098 7.06989 471.921C21.7939 632.164 252.049 660.243 388.701 569.963C403.678 560.084 415.906 548.793 424.912 536.373C475.342 466.746 445.672 372.184 423.585 321.94ZM73.3302 475.026C73.6146 480.201 69.6333 484.623 64.4198 484.905H63.851C58.8271 484.905 54.6563 481.047 54.3719 476.061C53.5188 462.323 53.7083 447.927 54.751 432.308C55.1302 427.133 59.6802 423.276 64.8938 423.557C70.1073 423.933 74.0886 428.45 73.7094 433.625C72.6657 448.492 72.4771 462.041 73.3302 475.026ZM77.9741 391.661C77.4053 396.46 73.3293 399.941 68.5897 399.941C68.2105 399.941 67.8313 399.941 67.3574 399.847C62.2386 399.188 58.5418 394.578 59.1105 389.403L63.6605 353.084C64.3241 348.003 68.9688 344.333 74.2772 344.898C79.4907 345.556 83.1876 350.261 82.5241 355.436L77.9741 391.661Z" fill="#3D3D3D"/>
<path d="M359.455 128.66C354.285 127.865 350.74 123.069 351.536 117.937C352.128 114.115 355.553 94.5436 364.848 84.7027C368.425 80.908 374.415 80.7104 378.247 84.2755C382.065 87.8265 382.26 93.7815 378.678 97.5762C374.744 101.743 371.392 113.67 370.272 120.805C369.472 125.883 364.702 129.446 359.455 128.66Z" fill="#3D3D3D"/>
<path d="M13.8818 175.528C12.0675 168.531 7.5592 156.991 3.23196 153.223C-0.706636 149.795 -1.10002 143.851 2.35229 139.946C5.79607 136.032 11.7803 135.632 15.7283 139.073C25.9431 147.963 31.2799 167.107 32.2477 170.851C33.5435 175.882 30.4893 181 25.4255 182.295C20.2499 183.587 15.1719 180.476 13.8818 175.528Z" fill="#3D3D3D"/>
</svg>
