<svg aria-hidden="true" style="position:absolute;width:0;height:0;overflow:hidden" xmlns="http://www.w3.org/2000/svg"><defs><symbol id="icon-favorite" viewBox="0 0 32 32"><path fill="#ff6b08" style="fill:var(--color2, #ff6b08)" d="m16 30.583-2.24-2.24C5.44 20.983 0 16.023 0 9.943c0-4.96 3.84-8.8 8.8-8.8 2.72 0 5.44 1.28 7.2 3.36 1.76-2.08 4.48-3.36 7.2-3.36 4.96 0 8.8 3.84 8.8 8.8 0 6.08-5.44 11.04-13.76 18.4L16 30.583z"/></symbol><symbol id="film" viewBox="0 0 32 32"><path fill="none" stroke="#818181" style="stroke:var(--color1, #818181)" stroke-linejoin="round" stroke-linecap="round" stroke-width="2.667" d="M26.427 2.667H5.574a2.907 2.907 0 0 0-2.907 2.907v20.853a2.907 2.907 0 0 0 2.907 2.907h20.853a2.907 2.907 0 0 0 2.907-2.907V5.574a2.907 2.907 0 0 0-2.907-2.907zM9.333 2.667v26.667M22.667 2.667v26.667M2.667 16h26.667M2.667 9.333h6.667M2.667 22.667h6.667M22.667 22.667h6.667M22.667 9.333h6.667"/></symbol><symbol id="search" viewBox="0 0 24 24"><path d="M16.041 15.856a.995.995 0 0 0-.186.186A6.97 6.97 0 0 1 11 18c-1.933 0-3.682-.782-4.95-2.05S4 12.933 4 11s.782-3.682 2.05-4.95S9.067 4 11 4s3.682.782 4.95 2.05S18 9.067 18 11a6.971 6.971 0 0 1-1.959 4.856zm5.666 4.437-3.675-3.675A8.967 8.967 0 0 0 20 11c0-2.485-1.008-4.736-2.636-6.364S13.485 2 11 2 6.264 3.008 4.636 4.636 2 8.515 2 11s1.008 4.736 2.636 6.364S8.515 20 11 20a8.967 8.967 0 0 0 5.618-1.968l3.675 3.675a.999.999 0 1 0 1.414-1.414z"/></symbol></defs></svg>