<svg aria-hidden="true" style="position: absolute; width: 0; height: 0; overflow: hidden;" version="1.1" xmlns="http://www.w3.org/2000/svg" xmlns:xlink="http://www.w3.org/1999/xlink">
<defs>
<symbol id="icon-favorite" viewBox="0 0 32 32">
<path fill="#ff6b08" style="fill: var(--color2, #ff6b08)" d="M16 30.583l-2.24-2.24c-8.32-7.36-13.76-12.32-13.76-18.4 0-4.96 3.84-8.8 8.8-8.8 2.72 0 5.44 1.28 7.2 3.36 1.76-2.080 4.48-3.36 7.2-3.36 4.96 0 8.8 3.84 8.8 8.8 0 6.080-5.44 11.040-13.76 18.4l-2.24 2.24z"></path>
</symbol>
<symbol id="close" viewBox="0 0 32 32"><path d="M7.659 7.659l-0.459 0.461 7.88 7.88-7.88 7.88 0.459 0.461 0.461 0.459 7.88-7.88 7.88 7.88 0.461-0.459 0.459-0.461-7.88-7.88 7.88-7.88-0.459-0.461-0.461-0.459-7.88 7.88-7.88-7.88-0.461 0.459z"></path></symbol>
</defs>
</svg>
