<svg aria-hidden="true" style="position: absolute; width: 0; height: 0; overflow: hidden;" version="1.1" xmlns="http://www.w3.org/2000/svg" xmlns:xlink="http://www.w3.org/1999/xlink">
<defs>
<symbol id="burger" viewBox="0 0 46 32">
<path stroke-linejoin="miter" stroke-linecap="butt" stroke-miterlimit="4" stroke-width="2.2857" d="M0 2.29h45.714M0 16.004h45.714M0 29.719h45.714"></path>
</symbol>
<symbol id="close" viewBox="0 0 32 32">
<path stroke-linejoin="miter" stroke-linecap="butt" stroke-miterlimit="4" stroke-width="2" d="M2.521 2.001l26.97 28.010M2.001 29.49l28.010-26.97"></path>
</symbol>
<symbol id="dots-products" viewBox="0 0 139 32">
<path d="M85.352 16.015c0 8.838-7.165 16.003-16.004 16.003s-16.004-7.165-16.004-16.003c0-8.838 7.165-16.003 16.004-16.003s16.004 7.165 16.004 16.003z"></path>
<path d="M32.007 16.015c0 8.838-7.165 16.003-16.003 16.003s-16.003-7.165-16.003-16.003c0-8.838 7.165-16.003 16.003-16.003s16.003 7.165 16.003 16.003z"></path>
<path d="M138.697 16.015c0 8.838-7.165 16.003-16.004 16.003s-16.004-7.165-16.004-16.003c0-8.838 7.165-16.003 16.004-16.003s16.004 7.165 16.004 16.003z"></path>
</symbol>
<symbol id="dots-slider" viewBox="0 0 256 32">
<path d="M144.009 16.015c0 8.837-7.164 16.001-16.001 16.001s-16.001-7.164-16.001-16.001c0-8.837 7.164-16.001 16.001-16.001s16.001 7.164 16.001 16.001z"></path>
<path d="M32.002 16.015c0 8.837-7.164 16.001-16.001 16.001s-16.001-7.164-16.001-16.001c0-8.837 7.164-16.001 16.001-16.001s16.001 7.164 16.001 16.001z"></path>
<path d="M256.015 16.015c0 8.837-7.164 16.001-16.001 16.001s-16.001-7.164-16.001-16.001c0-8.837 7.164-16.001 16.001-16.001s16.001 7.164 16.001 16.001z"></path>
</symbol>
<symbol id="ellipse" viewBox="0 0 32 32">
<path d="M32 16c0 8.837-7.163 16-16 16s-16-7.163-16-16c0-8.837 7.163-16 16-16s16 7.163 16 16z"></path>
</symbol>
<symbol id="facebook" viewBox="0 0 16 32">

<path d="M14.266 15.97h-4.176v15.39h-6.327v-15.39h-3.009v-5.409h3.009v-3.5c0-2.503 1.182-6.422 6.384-6.422l4.687 0.020v5.25h-3.401c-0.558 0-1.342 0.28-1.342 1.474v3.183h4.729l-0.553 5.403z"></path>
</symbol>
<symbol id="github" viewBox="0 0 32 32">
<path d="M16 0.941c-8.271 0-15.059 6.788-15.059 15.059 0 7.058 4.953 13.47 11.529 15.059v-4.982c-0.652 0.143-1.251 0.147-1.915-0.049-0.89-0.263-1.613-0.856-2.15-1.76-0.342-0.577-0.949-1.203-1.581-1.157l-0.155-1.758c1.368-0.117 2.551 0.833 3.254 2.013 0.312 0.525 0.671 0.832 1.132 0.969 0.446 0.131 0.924 0.068 1.481-0.129 0.14-1.116 0.651-1.534 1.037-2.122v-0.001c-3.922-0.585-5.486-2.666-6.106-4.308-0.822-2.181-0.381-4.905 1.073-6.627 0.028-0.034 0.079-0.121 0.060-0.183-0.667-2.014 0.146-3.679 0.176-3.856 0.769 0.228 0.894-0.229 3.342 1.258l0.423 0.254c0.177 0.105 0.121 0.045 0.298 0.032 1.022-0.278 2.099-0.431 3.16-0.445 1.069 0.014 2.14 0.167 3.204 0.456l0.137 0.014c-0.012-0.002 0.037-0.009 0.12-0.058 3.057-1.852 2.947-1.247 3.767-1.513 0.030 0.177 0.831 1.87 0.172 3.858-0.089 0.274 2.65 2.782 1.132 6.809-0.62 1.643-2.184 3.724-6.106 4.309v0.001c0.503 0.766 1.107 1.174 1.104 2.755v6.219c6.577-1.589 11.529-8.001 11.529-15.059 0-8.271-6.787-15.059-15.059-15.059v0z"></path>

</symbol>
<symbol id="home" viewBox="0 0 35 32">
<path d="M34.273 15.616c0.257-0.28 0.414-0.654 0.414-1.065 0-0.475-0.21-0.901-0.543-1.191l-0.002-0.002-14.782-12.933c-0.318-0.269-0.732-0.432-1.185-0.432-0.467 0-0.894 0.174-1.218 0.461l0.002-0.002-14.83 13.597c-0.316 0.288-0.514 0.701-0.514 1.161 0 0.424 0.168 0.809 0.442 1.091l-0-0 0.374 0.387c0.614 0.64 1.612 0.72 2.225 0.171l1.107-0.993v14.531c0 0.894 0.72 1.614 1.614 1.614h5.777c0.891 0 1.614-0.72 1.614-1.614v-10.166h7.378v10.166c-0.013 0.891 0.624 1.614 1.516 1.614h6.126c0.891 0 1.612-0.72 1.612-1.614v-14.328l0.686 0.603c0.376 0.331 1.169 0.064 1.766-0.595l0.422-0.462z"></path>
</symbol>
<symbol id="quotes" viewBox="0 0 43 32">
<path d="M32.017-0.001c1.928 0 3.75 0.52 5.464 1.561s3.107 2.537 4.179 4.488c1.029 1.951 1.543 4.25 1.543 6.895s-0.643 5.225-1.928 7.741c-0.429 0.91-1.2 2.081-2.315 3.512-1.157 1.43-2.228 2.667-3.214 3.707l-4.051 4.098-2.893-4.813c2.063-1.302 3.824-2.855 5.307-4.647l0.030-0.037c1.542-1.821 2.314-3.491 2.314-5.008 0-0.781-0.171-1.41-0.514-1.887-1.5 1.084-3.172 1.627-5.015 1.627-1.328 0-2.593-0.412-3.793-1.236-1.238-0.782-2.237-1.834-2.936-3.079l-0.022-0.043c-0.771-1.258-1.157-2.559-1.157-3.903 0-1.518 0.45-2.971 1.35-4.359 0.866-1.389 2.011-2.526 3.364-3.356l0.044-0.025c1.37-0.824 2.784-1.236 4.242-1.236zM8.937-0.001c1.928 0 3.75 0.52 5.464 1.561s3.107 2.536 4.179 4.488c1.029 1.951 1.543 4.25 1.543 6.895 0 1.864-0.236 3.534-0.707 5.008-0.472 1.518-1.286 3.1-2.443 4.748-1.114 1.561-2.164 2.862-3.15 3.903-0.986 1.084-2.7 2.883-5.144 5.399l-2.893-4.813c2.063-1.302 3.824-2.855 5.307-4.647l0.030-0.037c1.543-1.821 2.315-3.491 2.315-5.008 0-0.781-0.172-1.41-0.514-1.887-1.5 1.084-3.172 1.627-5.015 1.627-1.328 0-2.593-0.412-3.793-1.236-1.238-0.782-2.237-1.834-2.936-3.079l-0.022-0.043c-0.771-1.258-1.157-2.559-1.157-3.903 0-1.518 0.429-2.971 1.286-4.359 0.866-1.389 2.011-2.526 3.364-3.356l0.045-0.025c1.37-0.824 2.784-1.236 4.243-1.236z"></path>
</symbol>
<symbol id="telegram" viewBox="0 0 40 32">
<path d="M16.205 20.751l-0.635 8.339c0.909 0 1.302-0.364 1.774-0.802l4.261-3.801 8.829 6.035c1.619 0.842 2.76 0.399 3.197-1.39l5.797-25.346c0.514-2.234-0.866-3.108-2.443-2.56l-34.065 12.172c-2.325 0.842-2.29 2.052-0.395 2.6l8.709 2.528 20.229-11.814c0.952-0.588 1.818-0.263 1.106 0.326l-16.364 13.713z"></path>
</symbol>
<symbol id="tip" viewBox="0 0 19 32">
<path stroke-linejoin="round" stroke-linecap="round" stroke-miterlimit="4" stroke-width="6.4" d="M3.209 3.2l12.8 12.8-12.8 12.8"></path>
</symbol>
<symbol id="arrow" viewBox="0 0 32 32">
<path d="M19.414 27.414l10-10c0.781-0.781 0.781-2.047 0-2.828l-10-10c-0.781-0.781-2.047-0.781-2.828 0s-0.781 2.047 0 2.828l6.586 6.586h-19.172c-1.105 0-2 0.895-2 2s0.895 2 2 2h19.172l-6.586 6.586c-0.39 0.39-0.586 0.902-0.586 1.414s0.195 1.024 0.586 1.414c0.781 0.781 2.047 0.781 2.828 0z"></path>
</symbol>
</defs>
</svg>
