<svg aria-hidden="true" style="position:absolute;width:0;height:0" xmlns="http://www.w3.org/2000/svg" overflow="hidden"><defs><symbol id="icon-antenna" viewBox="0 0 32 32"><path fill="var(--color1, #212121)" d="M30.773 22.098l-8.443-8.505.937-4.616c.225.09.485.144.758.146h.033a2.16 2.16 0 10-2.029-1.42l-.005-.015-4.96.606L8.973.161a.53.53 0 00-.376-.16.536.536 0 00-.373.155L6.712 1.66a.535.535 0 000 .754l.814.825C6.383 5.301 5.71 7.761 5.71 10.378c0 4.106 1.656 7.824 4.336 10.525l-.001-.001a.49.49 0 00.146.097 2.986 2.986 0 00-.052.546v6.188h-6.4a2.669 2.669 0 00-2.667 2.666v1.067c0 .295.239.534.534.534H26.14a.534.534 0 00.533-.534v-1.067a2.67 2.67 0 00-2.666-2.666h-6.4v-2.742a14.784 14.784 0 0010.166-1.502l-.077.039.818.823a.534.534 0 00.376.16.536.536 0 00.373-.155l1.512-1.504a.535.535 0 000-.754zM23.28 6.233a1.067 1.067 0 11.752 1.822h-.004a1.066 1.066 0 01-.747-1.822h-.002zm-1.256 3.504l-.598 2.946-1.175-1.183 1.774-1.763zm-.605-.902l-1.92 1.909-1.486-1.493 3.406-.416zM24.004 28.8a1.6 1.6 0 011.6 1.6v.534H2.138V30.4a1.6 1.6 0 011.6-1.6h20.267zm-7.466-2.134v1.067h-5.334v-1.067h5.334zM11.204 25.6v-4.053c0-1.294 1.196-2.346 2.667-2.346s2.667 1.053 2.667 2.346V25.6h-5.334zm6.4-1.696v-2.357c0-1.882-1.675-3.413-3.733-3.413h-.058c-1.353 0-2.54.707-3.213 1.771l-.009.016a13.817 13.817 0 01-3.812-9.55c0-2.314.567-4.496 1.569-6.414l-.036.077 18.602 18.709c-1.823.947-3.979 1.502-6.266 1.502-1.079 0-2.128-.124-3.136-.357l.093.018zm11.289-.684L7.836 2.039l.754-.752 7.935 7.98c.004 0 .006.007.01.01l13.114 13.191-.757.752z"/><path fill="var(--color2, #2196f3)" d="M13.876 20.267h-.007a1.6 1.6 0 00-.003 3.2h.007a1.6 1.6 0 00.002-3.2zm.373 1.978a.534.534 0 11-.378-.912.533.533 0 01.374.911h.005z"/></symbol><symbol id="icon-astronaut" viewBox="0 0 32 32"><path fill="var(--color2, #2196f3)" d="M31.974 4.524a.535.535 0 00-.427-.362h-.003l-1.911-.278-.855-1.731c-.179-.365-.777-.365-.956 0l-.855 1.731-1.911.278a.534.534 0 00-.296.91l1.383 1.348-.326 1.903a.532.532 0 00.774.562l1.709-.899 1.709.899a.534.534 0 00.773-.565v.003l-.326-1.903 1.383-1.348a.535.535 0 00.134-.55l.001.004zm-2.463 1.327a.53.53 0 00-.153.472l.191 1.114-1-.526a.525.525 0 00-.501.001l.003-.001-1 .526.191-1.114a.53.53 0 00-.152-.472l-.811-.79 1.119-.162a.532.532 0 00.402-.292l.5-1.013.5 1.013a.532.532 0 00.402.292l1.119.162-.809.79zm-3.377 14.671h-1.067v1.067h1.067v-1.067zm0 2.134h-1.067v1.066h1.067v-1.066zm1.066-1.067h-1.067v1.067H27.2v-1.067zm-2.133 0H24v1.067h1.067v-1.067zm-2.667 4.8h-1.067v1.067H22.4v-1.067zm0 2.134h-1.067v1.067H22.4v-1.067zm1.067-1.067H22.4v1.067h1.067v-1.067zm-2.133 0h-1.067v1.067h1.067v-1.067zM16 24.256h-1.066v1.067H16v-1.067zm0 2.133h-1.066v1.067H16v-1.067zm1.067-1.067H16v1.067h1.067v-1.067zm-2.133 0h-1.067v1.067h1.067v-1.067zm-9.067-19.2H4.801v1.066h1.066V6.122zm0 2.134H4.801v1.066h1.066V8.256zm1.066-1.067H5.866v1.067h1.066V7.189zm-2.133 0H3.733v1.067H4.8V7.189z"/><path fill="var(--color1, #212121)" d="M24.715 14.16a1.774 1.774 0 00-1.179-.703l-.009-.001a1.769 1.769 0 00-1.344.355l.004-.003-1.253.96-1.898 1.417-1.358-.541c2.421-1.086 4.113-3.508 4.113-6.32 0-3.823-3.122-6.934-6.961-6.934S7.869 5.5 7.869 9.324c0 1.386.415 2.674 1.12 3.759l-2.768-.024c-.009 0-.016.005-.023.005a.511.511 0 00-.159.033l.004-.001c-.013.005-.026.007-.038.013-.006.003-.013.003-.019.006l-3.233 1.596-.001.001-1.893.91a.5.5 0 00-.065.036l.001-.001a1.782 1.782 0 00-.594 2.306l-.005-.01c.22.424.592.742 1.043.885l.013.003a1.772 1.772 0 001.388-.133l-.009.005 1.388-.738 2.264-1.169 1.357-.008-5.442 5.415-.001.001-1.339 1.333a1.643 1.643 0 00-.491 1.173v.005a1.668 1.668 0 001.667 1.664h.002a1.67 1.67 0 001.18-.485l1.314-1.309 1.741-1.3.901.897L4.07 27.28a1.643 1.643 0 00-.491 1.173v.004a1.662 1.662 0 001.666 1.664h.003a1.67 1.67 0 001.18-.485l4.488-4.472c.007-.006.016-.009.022-.016l5.166-5.658 3.471.494a.474.474 0 00.262-.032c.017-.006.032-.015.049-.023.019-.01.039-.015.058-.027l3.213-2.133c.012-.008.018-.021.029-.03.013-.01.029-.014.041-.026l1.271-1.191c.348-.326.564-.787.564-1.3 0-.4-.132-.769-.355-1.066l.003.005zM2.13 17.77a.706.706 0 01-.564.05l.005.001a.717.717 0 01-.215-1.258l.002-.001 1.314-.632.316.924.133.389-.992.527zm3.497-1.828l-1.548.8-.255-.746-.184-.537 2.027-1.001-.04 1.484zm15.1-6.62c0 .918-.219 1.785-.599 2.56l-4.181-1.899a1.865 1.865 0 00-.782-1.384l-.006-.004 1.464-4.861c2.377.757 4.104 2.975 4.104 5.588zm-11.789 0c0-3.235 2.644-5.867 5.894-5.867.253 0 .5.022.745.053l-1.432 4.753c-.019 0-.037-.006-.057-.006h-.001a1.872 1.872 0 00-1.872 1.867 1.873 1.873 0 001.872 1.867h.001c.695 0 1.295-.383 1.618-.944l3.863 1.755a5.891 5.891 0 01-4.737 2.39c-3.25 0-5.894-2.632-5.894-5.867zm5.957.8c0 .441-.362.8-.806.8h-.001a.804.804 0 01-.804-.8c0-.441.361-.8.806-.8s.806.359.806.8zM2.464 25.146a.606.606 0 01-.855.001.591.591 0 010-.844l.962-.959.852.848-.959.954zm3.214 3.734a.606.606 0 01-.855.001.591.591 0 010-.844l.963-.959.852.848-.96.955zm3.482-3.469l-.001.001-1.765 1.76-.852-.848 1.765-1.757a.527.527 0 00.09-.136c.007-.014.02-.026.026-.04.016-.041.019-.085.026-.128.003-.025.014-.048.014-.073 0-.035-.013-.07-.02-.105-.006-.032-.006-.064-.019-.096a.536.536 0 00-.092-.138c-.01-.012-.014-.026-.025-.038h-.001l-.001-.002-1.607-1.6c-.017-.017-.039-.024-.058-.038a.491.491 0 00-.084-.056l-.003-.001a.527.527 0 00-.09-.031l-.003-.001a.502.502 0 00-.101-.02h-.025a.603.603 0 00-.075.005h.003c-.036.005-.069.009-.104.021s-.064.027-.094.045c-.02.011-.043.015-.061.029l-1.774 1.324-.901-.897 2.399-2.386 4.36 4.289-.928.919zm6.819-7.017c-.016-.002-.03.004-.046.003l-.027-.001a.562.562 0 00-.092.008h.003a.484.484 0 00-.187.07l.002-.001a.492.492 0 00-.083.061c-.013.011-.028.016-.04.029l-4.698 5.146-4.328-4.256 2.833-2.818a.535.535 0 00-.378-.911h-.002l-2.219.013.028-1.607 3.104.027a6.928 6.928 0 004.978 2.101h.003c.438 0 .864-.046 1.28-.122.04.032.08.064.129.085l2.41.96.152.758.178.886-3.003-.427zm4.041.178l-.313-1.558 1.446-1.08.946 1.257-2.08 1.381zm3.753-2.831l-.837.785-.931-1.236.831-.637a.735.735 0 01.543-.143.718.718 0 01.621.71.71.71 0 01-.226.521z"/><path fill="var(--color1, #212121)" d="M13.602 18.544l-2.143-2.134a.53.53 0 00-.752 0l-2.143 2.133a.535.535 0 000 .756l2.142 2.134a.53.53 0 00.752 0l2.143-2.134a.532.532 0 000-.756zm-2.519 1.759l-1.387-1.381 1.386-1.381 1.387 1.381-1.387 1.381zm6.081-15.232l-.258 1.036c.071.018 1.738.452 1.738 2.149h1.067c0-2.017-1.666-2.965-2.547-3.184zm2.547 4.251h-1.067v1.066h1.067V9.322z"/></symbol><symbol id="icon-clock" viewBox="0 0 32 32"><path fill="var(--color1, #212121)" d="M31.296 15.301C31.295 6.849 24.441-.002 15.988 0S.685 6.855.687 15.308c.002 6.788 4.422 12.543 10.541 14.545l.108.031a.667.667 0 00.529-.065.636.636 0 00.283-.357l3.865-12.25a1.913 1.913 0 10-.852-3.63l.011-.005-5.106-5.107a.638.638 0 00-.902.902l5.103 5.109a1.847 1.847 0 00-.191.826c0 .602.283 1.137.723 1.48l.004.003-3.682 11.673C3.843 25.782.117 17.709 2.797 10.431S13.551-.573 20.829 2.108c7.278 2.681 11.004 10.754 8.323 18.032-1.345 3.581-4.003 6.406-7.374 7.938l-.088.036-.398-1.874a.639.639 0 00-1.05-.343l.001-.001-3.837 3.426a.637.637 0 00.227 1.083l.005.001 4.899 1.563a.637.637 0 00.818-.744l.001.004-.391-1.839c5.528-2.374 9.329-7.772 9.329-14.057v-.034.002zm-15.304-.637a.638.638 0 010 1.276.638.638 0 010-1.276zm2.1 14.864l2.184-1.948.603 2.84-2.787-.892z"/><path fill="var(--color2, #2196f3)" d="M15.354 3.185V4.46a.638.638 0 001.276 0V3.185a.638.638 0 10-1.276 0zM3.876 14.664a.638.638 0 000 1.276h1.275a.638.638 0 000-1.276H3.876zm24.232 1.275a.638.638 0 000-1.276h-1.275a.638.638 0 000 1.276h1.275z"/></symbol><symbol id="icon-diagram" viewBox="0 0 32 32"><path fill="var(--color2, #2196f3)" d="M14.926 14.965h1.066v4.798h-1.066v-4.798zm4.264 2.132h1.066v2.665H19.19v-2.665zm-8.529 1.599h1.066v1.066h-1.066v-1.066zm-3.198-.533h1.066v1.599H7.463v-1.599z"/><path fill="var(--color1, #212121)" d="M1.599 28.291h25.586a1.6 1.6 0 001.599-1.599V24.56a1.6 1.6 0 00-1.599-1.599h-.533V9.667l3.028-2.868a1.608 1.608 0 10-.742-.752l-.004-.01-2.281 2.162v-1.23a1.6 1.6 0 00-1.599-1.599H3.731a1.6 1.6 0 00-1.599 1.599v15.992h-.533A1.6 1.6 0 000 24.56v2.132a1.6 1.6 0 001.599 1.599zM30.384 4.837a.533.533 0 010 1.066.533.533 0 010-1.066zM3.198 6.969c0-.294.239-.533.533-.533h21.323c.294 0 .533.239.533.533v2.239l-1.066 1.013V8.036a.534.534 0 00-.534-.534H4.798a.534.534 0 00-.534.533v13.327c0 .294.239.533.534.533h19.189a.534.534 0 00.534-.533v-9.675l1.066-1.01V22.96H3.198V6.969zm4.798 6.93h-.005a1.6 1.6 0 101.112 2.748l1.853.93a.535.535 0 00.636-.122l3.939-4.432 3.872 2.902a.534.534 0 00.686-.039l3.365-3.188v8.131H5.331V8.568h18.123v2.661l-3.771 3.572-3.904-2.927a.534.534 0 00-.718.071v.001l-3.993 4.493-1.493-.746c.011-.064.017-.128.02-.193a1.6 1.6 0 00-1.599-1.599zm.533 1.599a.533.533 0 01-1.066 0 .533.533 0 011.066 0zm3.198 8.528h5.33v.533a.533.533 0 01-.533.533h-4.265a.533.533 0 01-.533-.533v-.533zm-10.66.534c0-.294.238-.533.533-.533h9.062v.533a1.6 1.6 0 001.599 1.599h4.265a1.6 1.6 0 001.599-1.599v-.533h9.062c.294 0 .533.239.533.533v2.132a.533.533 0 01-.533.533H1.601a.533.533 0 01-.533-.533V24.56z"/></symbol><symbol id="icon-mail" viewBox="0 0 43 32"><path d="M38.667 0H4C1.795 0 0 1.795 0 4v24c0 2.205 1.795 4 4 4h34.667c2.205 0 4-1.795 4-4V4c0-2.205-1.795-4-4-4zm0 2.667c.181 0 .355.037.512.104L21.334 18.238 3.489 2.771c.151-.065.327-.104.512-.104h34.667zm0 26.666H4A1.333 1.333 0 012.667 28V5.587l17.792 15.421c.233.203.539.327.875.327s.642-.124.876-.328l-.002.001L40 5.587V28c0 .736-.597 1.333-1.333 1.333z"/></symbol><symbol id="icon-facebook" viewBox="0 0 32 32"><path d="M21.328 5.312h2.923V.224A36.483 36.483 0 0020.143 0h-.156.008c-4.213 0-7.099 2.65-7.099 7.52V12H8.25v5.688h4.646V32h5.699V17.69h4.459l.707-5.688h-5.168V8.08c0-1.643.443-2.768 2.734-2.768z"/></symbol><symbol id="icon-instagram" viewBox="0 0 32 32"><path d="M31.968 9.408c-.074-1.701-.349-2.869-.742-3.882a7.839 7.839 0 00-1.85-2.837l-.001-.001A7.906 7.906 0 0026.597.861l-.054-.018C25.524.449 24.362.176 22.661.101 20.949.019 20.405 0 16.059 0c-4.344 0-4.888.019-6.595.094-1.699.074-2.869.349-3.88.742a7.847 7.847 0 00-2.839 1.85l-.001.001A7.9 7.9 0 00.919 5.465l-.018.054C.506 6.538.232 7.7.157 9.401c-.082 1.712-.101 2.256-.101 6.602 0 4.344.019 4.888.094 6.595.075 1.701.35 2.869.744 3.882a7.915 7.915 0 001.849 2.837l.001.001c.8.813 1.77 1.443 2.832 1.843 1.019.395 2.182.67 3.882.744 1.707.075 2.251.094 6.595.094 4.346 0 4.89-.019 6.595-.094 1.701-.074 2.869-.349 3.882-.742a8.237 8.237 0 004.664-4.628l.019-.055c.394-1.019.669-2.182.744-3.882.075-1.707.093-2.251.093-6.595s-.006-4.888-.08-6.595zm-2.88 13.066c-.07 1.563-.333 2.406-.55 2.97a5.341 5.341 0 01-3.004 3.024l-.036.012c-.56.219-1.411.482-2.968.55-1.688.075-2.194.094-6.464.094-4.269 0-4.782-.019-6.464-.094-1.563-.069-2.406-.331-2.97-.55a4.953 4.953 0 01-1.836-1.192l-.001-.001a4.978 4.978 0 01-1.184-1.803L3.6 25.45c-.218-.563-.48-1.413-.549-2.97-.075-1.688-.094-2.195-.094-6.464 0-4.27.019-4.784.094-6.464.069-1.563.331-2.406.549-2.97a4.897 4.897 0 011.198-1.837l.002-.002a4.972 4.972 0 011.806-1.182l.034-.011c.56-.219 1.411-.48 2.968-.55 1.688-.074 2.195-.093 6.464-.093 4.275 0 4.782.019 6.464.093 1.563.069 2.406.331 2.97.55a4.91 4.91 0 011.837 1.194c.531.52.938 1.144 1.195 1.84.218.56.48 1.411.549 2.968.075 1.688.094 2.194.094 6.464 0 4.269-.019 4.768-.094 6.458z"/><path d="M16.059 7.782a8.223 8.223 0 00-8.219 8.221 8.223 8.223 0 0016.442.008v-.009a8.223 8.223 0 00-8.221-8.221zm0 13.552a5.333 5.333 0 01.001-10.666h.001a5.334 5.334 0 110 10.668zM26.525 7.458a1.92 1.92 0 01-3.84 0 1.92 1.92 0 013.84 0z"/></symbol><symbol id="icon-linkedin" viewBox="0 0 32 32"><path d="M31.992 32H32V20.262c0-5.741-1.237-10.163-7.947-10.163-3.227 0-5.392 1.77-6.277 3.45h-.093v-2.914h-6.365v21.363h6.627V21.42c0-2.786.528-5.48 3.978-5.48 3.398 0 3.448 3.179 3.448 5.658V32h6.621zM.528 10.635h6.635V32H.528V10.635zM3.843 0A3.843 3.843 0 000 3.843c0 2.12 1.722 3.878 3.843 3.878 2.12 0 3.842-1.757 3.842-3.878S5.965.002 3.844 0z"/></symbol><symbol id="icon-logo-1" viewBox="0 0 29 32"><path d="M3.84 0l4.677 4.428h13.046v12.351l4.677 4.428V.001H3.84z"/><path d="M0 4.241v20.6h21.76v-8.188L8.655 4.246 0 4.241zm17.615 17.587H3.443V7.973h1.002V20.89h13.17v.938zM6.266 28.662l.524-1.078h.438l-.764 1.437v.838h-.397v-.838l-.764-1.437h.439l.524 1.078zm2.247.667h-.881l-.184.53h-.411l.859-2.275h.355l.861 2.275h-.413l-.186-.53zm-.77-.319h.659l-.33-.944-.33.944zm2.328.234c0-.105.029-.202.086-.289.058-.089.17-.193.339-.314a1.498 1.498 0 01-.182-.276l-.004-.008a.568.568 0 01-.052-.226c0-.179.054-.319.163-.422s.254-.156.437-.156a.57.57 0 01.406.147c.106.097.16.218.16.361v.003a.497.497 0 01-.074.262l.001-.002a.858.858 0 01-.233.236l-.003.002-.155.113.44.518a.914.914 0 00.095-.417h.33c0 .28-.065.509-.196.689l.334.396h-.44l-.128-.152a.93.93 0 01-.558.183h-.025.001c-.225 0-.405-.06-.54-.179a.597.597 0 01-.202-.447v-.021.001zm.753.343a.58.58 0 00.359-.128l-.497-.586-.049.035c-.125.095-.188.203-.188.325 0 .105.034.191.102.256a.375.375 0 00.254.099h.019-.001zm-.21-1.466c0 .088.054.197.161.33l.173-.118.049-.039a.283.283 0 00.097-.212v-.009-.002a.2.2 0 00-.067-.149.233.233 0 00-.162-.064h-.019a.224.224 0 00-.167.075.276.276 0 00-.066.179v.01zm4.134.997c-.023.243-.113.432-.269.568s-.364.204-.623.204a.902.902 0 01-.48-.128.86.86 0 01-.317-.362l-.002-.005a1.302 1.302 0 01-.117-.544v-.22c0-.214.038-.403.114-.567a.871.871 0 01.326-.378.913.913 0 01.494-.133c.251 0 .453.068.606.205s.243.329.268.578h-.394c-.019-.163-.067-.281-.144-.353-.076-.073-.188-.109-.336-.109a.464.464 0 00-.397.189c-.092.125-.138.309-.141.552v.202c0 .246.044.433.132.563s.218.194.387.194c.155 0 .272-.035.35-.105s.128-.186.148-.348h.394zm2.17-.338c0 .223-.038.419-.115.588a.88.88 0 01-.332.388.905.905 0 01-.494.134.92.92 0 01-.493-.134.897.897 0 01-.332-.38l-.002-.006a1.335 1.335 0 01-.119-.555v-.023.001-.128c0-.222.038-.418.117-.588s.19-.3.333-.389c.144-.091.308-.136.493-.136s.35.045.493.134c.143.089.255.217.333.384s.118.362.118.584v.126zm-.396-.118c0-.252-.048-.445-.143-.58a.465.465 0 00-.384-.202l-.022.001h.001-.016a.468.468 0 00-.384.2l-.001.002c-.096.133-.145.323-.147.567v.131c0 .25.049.444.146.58s.233.205.406.205c.175 0 .31-.067.403-.2.095-.133.142-.328.142-.584v-.118z"/></symbol><symbol id="icon-logo-2" viewBox="0 0 25 32"><path d="M10.447 1.806h.084c.156 0 .324.015.49.03a13.96 13.96 0 012.18.329V.403a12.432 12.432 0 00-2.207-.357l-.042-.002c-.254-.02-.57-.035-.889-.043H9.779c-1.523.006-3.04.201-4.514.582a18.266 18.266 0 00-4.79 1.948v17.475a18.922 18.922 0 014.431-1.75l.135-.029c1.123-.3 2.433-.51 3.78-.586l.052-.002h.052c.217-.011.433-.017.655-.018V15.83c-1.78.024-3.493.264-5.129.695l.147-.033c-.603.157-1.185.326-1.731.513l-.623.212V3.591l.266-.128C4.4 2.545 6.606 1.95 8.935 1.814l.047-.002.028-.001.029.001h-.001c.248-.012.497-.018.742-.018h.28c.129.003.258.006.388.014z"/><path d="M14.837 3.651h-.016c-.915 0-1.811-.077-2.684-.225l.094.013c-.277-.047-.55-.103-.814-.164V20.55c1.12.277 2.271.412 3.425.404a18.446 18.446 0 004.644-.61l-.128.029a18.299 18.299 0 004.877-1.995l-.085.047V1.262a19.021 19.021 0 01-4.429 1.751l-.136.03a19.345 19.345 0 01-4.746.609zm6.908.299l.623-.209v13.63l-.266.129c-.903.442-1.962.834-3.065 1.118l-.119.026c-1.331.345-2.7.521-4.074.527-.411 0-.818-.017-1.214-.052l-.426-.038V5.064l.497.033c.361.023.735.034 1.141.034a21.098 21.098 0 005.173-.663 28.128 28.128 0 001.731-.518zM1.684 25.977a.916.916 0 00-.661-.281l-.034.001h.002-.014c-.139 0-.272.028-.393.078l.007-.003a.904.904 0 00-.51.512l-.002.006a1.001 1.001 0 00-.071.386v2.335c-.006.164.026.328.092.479.055.12.135.226.234.313a.824.824 0 00.32.166c.114.031.231.048.349.048a.985.985 0 00.968-.982v-.261H1.36v.222c0 .07-.013.136-.037.198l.001-.004a.38.38 0 01-.089.132.426.426 0 01-.255.089.308.308 0 01-.286-.125l-.001-.001a.548.548 0 01-.082-.289l.001-.024v.001-2.177a.74.74 0 01.075-.349.31.31 0 01.262-.143l.038.002H.986h.012c.107 0 .201.052.26.131l.001.001a.493.493 0 01.101.3v.014-.001.202h.604v-.238-.011c0-.143-.027-.28-.077-.405l.003.007a.955.955 0 00-.205-.329zm3.626-.026a1.051 1.051 0 00-1.058-.191.965.965 0 00-.557.511l-.002.006a1.08 1.08 0 00-.089.452v2.239c-.004.158.026.314.089.458a.888.888 0 00.236.313.964.964 0 00.322.197 1.049 1.049 0 001.059-.198l-.001.001a.948.948 0 00.23-.313c.063-.144.093-.301.089-.458v-2.239-.02c0-.156-.033-.305-.092-.439l.003.007a1.016 1.016 0 00-.23-.327zm-.285 3.018l.002.035a.398.398 0 01-.123.289.446.446 0 01-.575 0l.001.001a.398.398 0 01-.121-.326v.002-2.239l-.001-.034a.4.4 0 01.123-.289.446.446 0 01.575 0l-.001-.001a.398.398 0 01.121.326v-.002 2.24zm5.047 1v-4.24h-.586l-.771 2.244h-.01l-.777-2.244h-.58v4.239h.606V27.39h.011l.593 1.823h.302l.598-1.823h.01v2.578h.606zm3.441-3.942a.834.834 0 00-.342-.232 1.31 1.31 0 00-.416-.066h-.024.001-.9v4.24h.604v-1.656h.311c.189.009.376-.031.545-.116a.88.88 0 00.329-.32l.002-.004a1 1 0 00.138-.369c.021-.133.033-.287.033-.444v-.04.002a2.426 2.426 0 00-.059-.606.906.906 0 00-.223-.39zm-.312 1.292a.538.538 0 01-.057.224l.001-.003a.342.342 0 01-.154.147l-.002.001a.617.617 0 01-.254.054l-.033-.001h.002-.276V26.3h.311l.029-.001c.088 0 .172.02.247.055l-.004-.002a.35.35 0 01.141.154l.001.002a.62.62 0 01.053.236v.282c0 .098.006.201 0 .291H13.2zm3.173-1.59h-.495l-.934 4.24h.604l.177-.911h.823l.178.911h.604l-.958-4.24zm-.557 2.752l.297-1.537h.011l.295 1.537h-.604zm4.46-.198h-.011l-.912-2.554h-.581v4.24h.604v-2.55h.012l.923 2.549h.568v-4.239h-.604v2.554zm3.691-2.554l-.486 1.686h-.012l-.486-1.686h-.639l.83 2.448v1.791h.604v-1.791l.83-2.447h-.64zM0 31.166h.291v.817h.198v-.817h.289v-.167H0v.168zm2.447-.168l-.382.985h.21l.081-.224h.392l.084.224h.215l-.391-.985h-.21zm-.03.595l.134-.365.134.365h-.268zm2.449.027h.228v.127a.378.378 0 01-.234.083h-.014a.25.25 0 01-.195-.094.406.406 0 01-.073-.234l.001-.023v.001c0-.219.095-.329.283-.329l.021-.001c.097 0 .178.067.201.157v.001l.194-.038c-.042-.192-.18-.289-.417-.289h-.013a.492.492 0 00-.331.127.48.48 0 00-.141.38v-.002.023c0 .132.048.254.127.347l-.001-.001c.087.09.209.146.343.146L4.877 32h-.001.016c.155 0 .296-.06.402-.157v-.388h-.426v.166zm2.471-.622h-.199v.985h.689v-.167h-.49v-.817zm2.089 0h-.199v.985h.199v-.985zm2.043.657l-.404-.657h-.193v.985h.185v-.643l.396.643h.198v-.985h-.182v.658zm1.846-.106h.49v-.167h-.49v-.215h.527v-.168h-.727v.985h.747v-.167h-.548v-.266zm4.477-.163h-.388v-.388h-.197v.984h.197v-.431h.388v.431h.198v-.985h-.198v.388zm1.857.163h.492v-.167h-.492v-.215h.529v-.168h-.726v.985h.746v-.167h-.548v-.266zm2.519.001c.171-.027.258-.118.258-.274a.23.23 0 00-.096-.219h-.001a.555.555 0 00-.25-.059l-.04.001h.002-.417v.984h.198v-.412h.055c.039 0 .076.008.109.023l-.002-.001a.201.201 0 01.07.072l.215.313h.236l-.12-.192a.704.704 0 00-.215-.235l-.002-.002zm-.199-.137h-.146v-.247h.156a.515.515 0 01.205.024l-.004-.001a.13.13 0 01-.009.2.537.537 0 01-.164.025l-.039-.001h.002zm2.099.136h.49v-.167h-.49v-.215h.529v-.168h-.729v.985h.747v-.167h-.548v-.266z"/></symbol><symbol id="icon-logo-3" viewBox="0 0 31 32"><path d="M4.722 31.103c.023.001.044.01.06.025l.153.161c-.119.13-.266.234-.431.304a1.533 1.533 0 01-.61.109h-.031a1.5 1.5 0 01-.554-.106l.01.004a1.25 1.25 0 01-.709-.725l-.003-.009a1.591 1.591 0 01-.097-.55v-.022-.022c0-.198.038-.387.108-.56l-.004.01a1.318 1.318 0 01.757-.734c.188-.07.389-.104.591-.102a1.47 1.47 0 01.55.093c.151.063.29.149.412.257l-.129.171a.134.134 0 01-.032.031.077.077 0 01-.045.014h-.006a.107.107 0 01-.056-.019l-.068-.045-.096-.059a1.024 1.024 0 00-.296-.101l-.006-.001a1.233 1.233 0 00-.209-.018h-.02.001-.016c-.147 0-.288.028-.417.079l.008-.003a.964.964 0 00-.333.216 1.002 1.002 0 00-.216.342 1.248 1.248 0 00-.079.452c-.002.156.025.313.079.46.046.126.119.242.212.341a.863.863 0 00.318.212c.125.049.259.074.394.073.078.001.156-.004.234-.015a.879.879 0 00.505-.235.115.115 0 01.072-.03zm4.422-.807c.002.194-.033.387-.103.568a1.246 1.246 0 01-.288.44 1.314 1.314 0 01-.444.286l-.009.003a1.695 1.695 0 01-1.176-.004l.012.004a1.331 1.331 0 01-.45-.29 1.3 1.3 0 01-.288-.436l-.003-.009a1.614 1.614 0 01.004-1.147l-.004.011a1.34 1.34 0 01.29-.447 1.32 1.32 0 01.441-.276l.009-.003A1.674 1.674 0 018.311 29l-.012-.004a1.29 1.29 0 01.741.729c.071.182.106.376.104.571zm-.402 0v-.024c0-.155-.027-.303-.076-.441l.003.009a.907.907 0 00-.522-.554l-.006-.002a1.219 1.219 0 00-.855.003l.009-.003a.903.903 0 00-.528.55l-.002.006a1.465 1.465 0 000 .912.899.899 0 00.524.552l.006.002c.273.097.573.097.846 0a.903.903 0 00.324-.214.972.972 0 00.205-.341 1.29 1.29 0 00.073-.456zm3.418.478l.041.102c.015-.036.028-.069.044-.102.017-.04.034-.073.052-.105l-.002.005.978-1.694c.019-.03.037-.048.056-.053a.234.234 0 01.066-.009h.015-.001.289v2.755h-.342v-2.11l-.001-.048.001-.05v.002l-.984 1.718a.149.149 0 01-.057.062h-.001a.16.16 0 01-.082.022h-.057a.151.151 0 01-.141-.084v-.001l-1.013-1.73v2.212h-.331v-2.75h.303a.22.22 0 01.068.01h-.002a.107.107 0 01.053.052v.001l.999 1.696c.018.028.035.06.048.094l.001.004zm3.681-.136v1.031h-.383v-2.75h.887c.158 0 .311.022.455.063l-.012-.003a.927.927 0 01.337.171c.085.074.15.167.191.27a.925.925 0 01.066.352.84.84 0 01-.071.352.772.772 0 01-.205.274l-.001.001a.953.953 0 01-.333.181l-.007.002a1.498 1.498 0 01-.461.064l-.463-.007zm0-.296h.464c.1.002.201-.013.296-.042a.627.627 0 00.215-.12l-.001.001c.056-.049.1-.11.129-.178l.001-.003a.565.565 0 00.046-.225v-.008l.001-.028a.506.506 0 00-.041-.199l.001.003a.544.544 0 00-.133-.188.763.763 0 00-.517-.148h.003-.464v1.134zm5.146 1.331h-.308a.134.134 0 01-.079-.026.168.168 0 01-.049-.063v-.001l-.26-.665h-1.307l-.27.665a.152.152 0 01-.047.061.135.135 0 01-.082.028h-.307l1.148-2.756h.398l1.164 2.756zm-1.895-1.023h1.079l-.455-1.122a1.845 1.845 0 01-.083-.245l-.003-.013-.044.144a1.282 1.282 0 01-.045.126l.003-.009-.452 1.119zm3.548-1.72c.023.013.043.03.058.05l1.674 2.076v-2.139h.342v2.756h-.196a.164.164 0 01-.074-.017h.001a.233.233 0 01-.061-.051L22.71 29.53a.753.753 0 010 .095v2.049h-.342v-2.756h.203c.024 0 .047.004.068.013zm4.897 1.647v1.094h-.383v-1.094l-1.058-1.66H26.446c.028 0 .054.009.075.024a.251.251 0 01.052.061l.001.001.662 1.07a1.363 1.363 0 01.116.244l.05-.118a.93.93 0 01.068-.13l-.002.004.653-1.078a.284.284 0 01.05-.059.117.117 0 01.076-.027h.352l-1.06 1.667zm-15.566-6.284c.167.02.335.037.506.051 2.582-1.101 4.767-2.902 6.281-5.18s2.29-4.93 2.231-7.625l-2.846-2.712c.189.894.297 1.921.297 2.974 0 2.015-.396 3.937-1.115 5.694l.036-.1c-1.09 2.731-2.957 5.12-5.39 6.899z"/><path d="M10.954 24.167l.077.015c2.6-1.773 4.583-4.247 5.692-7.104.627-1.564.991-3.378.991-5.276 0-1.296-.17-2.553-.488-3.748l.023.101-4.054-3.862c1.269 2.397 2.015 5.239 2.015 8.255 0 .701-.04 1.393-.119 2.074l.008-.083c-.397 3.519-1.834 6.857-4.144 9.628zm13.75-9.443c-.688 2.962-2.361 5.632-4.77 7.616a14.98 14.98 0 01-2.191 1.51l-.075.039a13.579 13.579 0 005.285-2.851l-.016.013a12.774 12.774 0 003.381-4.679l.031-.084-1.645-1.565z"/><path d="M24.06 14.288l-2.341-2.23a13.684 13.684 0 01-2.23 7.249l.032-.053c-1.394 2.169-3.373 3.943-5.729 5.137h.012c.525 0 1.049-.03 1.572-.089a14.47 14.47 0 005.649-3.95l.014-.017a13.397 13.397 0 003.005-5.958l.016-.089zM11.294 2.664L8.501 0c-2.497.919-4.644 2.535-6.16 4.636S.008 9.225.001 11.775c.01 2.818 1.005 5.552 2.829 7.77s4.372 3.793 7.242 4.476c2.562-2.973 4.061-6.647 4.281-10.488s-.851-7.648-3.059-10.87zm19.218 11.214c-.01-3.343-1.409-6.547-3.89-8.91s-5.843-3.696-9.352-3.706a13.67 13.67 0 00-4.741.841l17.099 16.29c.559-1.335.884-2.886.884-4.513v-.001z"/></symbol><symbol id="icon-logo-4" viewBox="0 0 60 32"><path d="M9.229 9.548h-.002c-1.683 0-3.048 1.331-3.048 2.971v.002c0 1.64 1.365 2.971 3.048 2.971h.002c1.683 0 3.048-1.331 3.048-2.971v-.002c0-1.64-1.365-2.97-3.048-2.97zm22.501-.949a8.508 8.508 0 00-2.59-6.075A8.954 8.954 0 0022.909 0c-2.339.004-4.581.912-6.236 2.523s-2.585 3.797-2.59 6.076v12.566S31.728 19.25 31.73 8.601v-.002zM0 25.289a5.909 5.909 0 001.801 4.226l.002.001a6.223 6.223 0 004.336 1.758 6.215 6.215 0 004.337-1.759l-.002.002a5.905 5.905 0 001.803-4.224v-8.746S-.001 17.882-.001 25.29zm6.14 1.566h-.003c-.331 0-.639-.098-.897-.267l.006.004a1.583 1.583 0 01-.588-.693l-.004-.01a1.511 1.511 0 01-.089-.914l-.002.01a1.56 1.56 0 01.441-.802c.22-.213.5-.365.813-.427l.01-.002c.312-.061.635-.03.929.089s.545.319.722.577a1.546 1.546 0 01.146 1.481l.004-.01c-.08.191-.199.365-.348.511s-.327.262-.522.341a1.61 1.61 0 01-.616.12h-.001v-.006zm12.532-.971h-1.256v1.297h-.655v-3.173h2.067v.53h-1.412v.819h1.255v.528zm3.143-.218c0 .313-.056.586-.166.822s-.269.417-.476.545a1.29 1.29 0 01-.682.192h-.025.001l-.039.001c-.504 0-.939-.296-1.141-.723l-.003-.008c-.109-.23-.173-.5-.173-.785v-.028.001-.158c0-.313.056-.588.168-.825a1.26 1.26 0 01.477-.547c.206-.128.442-.192.707-.192s.499.064.704.192c.206.127.365.309.477.547s.17.511.17.822v.141zm-.662-.144c0-.333-.06-.586-.179-.759a.585.585 0 00-.485-.26l-.027.001h.001-.024a.58.58 0 00-.482.256l-.001.002c-.119.17-.18.42-.182.749v.155c0 .324.06.576.179.755s.291.268.515.268l.026.001c.2 0 .375-.101.479-.255l.001-.002c.118-.173.177-.424.179-.755v-.155zm2.783.826v-.018a.329.329 0 00-.131-.264l-.001-.001c-.087-.067-.244-.137-.47-.21a3.363 3.363 0 01-.558-.227l.019.009c-.36-.195-.541-.457-.541-.787 0-.171.048-.324.144-.458s.236-.24.417-.316c.182-.075.385-.113.61-.113s.429.042.606.124a.947.947 0 01.412.347c.099.15.149.32.149.511h-.655a.422.422 0 00-.137-.338c-.092-.082-.22-.123-.386-.123-.16 0-.284.034-.372.103a.315.315 0 00-.134.259v.008c0 .103.052.189.155.259.105.07.258.135.461.196.372.112.643.251.813.417s.255.372.255.618c0 .275-.104.491-.312.647s-.487.234-.839.234c-.244 0-.467-.045-.667-.133a1.081 1.081 0 01-.458-.365l-.002-.003a.934.934 0 01-.157-.522v-.019.001h.656c0 .35.21.525.628.525a.616.616 0 00.365-.094.312.312 0 00.131-.253v-.014.001zm3.49-1.811h-.972v2.644H25.8v-2.644h-.959v-.53h2.586v.53zm2.286 1.268h-1.256v.85h1.474v.525h-2.128v-3.173h2.124v.53h-1.47v.756h1.256v.513zm1.777.214h-.521v1.162h-.655v-3.173h1.18c.374 0 .664.083.868.251s.305.403.305.708a.992.992 0 01-.141.543.955.955 0 01-.419.341l-.006.002.687 1.297v.03h-.703l-.595-1.162zm-.521-.53h.528c.164 0 .291-.042.381-.124a.45.45 0 00.136-.323l-.001-.025v.001a.474.474 0 00-.129-.353c-.084-.086-.214-.129-.39-.129h-.526v.953zm3.963.573v1.119h-.655v-3.173h1.239c.238 0 .447.043.628.131s.321.211.418.372c.097.16.146.342.146.548 0 .311-.106.557-.32.737-.212.179-.506.268-.883.268h-.573zm0-.529h.584c.173 0 .305-.041.394-.123.092-.081.138-.197.138-.348l.001-.023a.522.522 0 00-.139-.355.519.519 0 00-.38-.149h-.599v.997zm4.138.272h-1.255v.85h1.474v.525H37.16v-3.173h2.124v.53h-1.469v.756h1.255v.513zm3.035-1.268h-.972v2.644h-.655v-2.644h-.959v-.53h2.585v.53zm2.284 1.268h-1.255v.85h1.474v.525h-2.128v-3.173h2.124v.53h-1.47v.756h1.256v.513zm1.778.214h-.521v1.162h-.654v-3.173h1.18c.375 0 .665.083.868.251s.305.403.305.708a.983.983 0 01-.141.543.95.95 0 01-.419.341l-.006.002.687 1.297v.03h-.703l-.595-1.162zm-.521-.53h.528c.164 0 .29-.042.381-.124a.448.448 0 00.135-.322l-.001-.026v.001a.474.474 0 00-.128-.353c-.085-.086-.214-.129-.391-.129h-.525v.953zm3.843.859l.001-.018a.334.334 0 00-.13-.264l-.001-.001c-.088-.067-.245-.137-.471-.21a3.363 3.363 0 01-.558-.227l.019.009c-.36-.195-.541-.457-.541-.787 0-.171.048-.324.144-.458s.236-.24.417-.316c.181-.075.385-.113.61-.113s.429.042.606.124a.953.953 0 01.412.347c.099.15.149.32.149.511h-.655a.422.422 0 00-.137-.338c-.092-.082-.22-.123-.386-.123-.16 0-.284.034-.372.103a.315.315 0 00-.134.259v.008c0 .103.052.189.155.259.105.07.258.135.46.196.372.112.644.251.813.417s.255.372.255.618c0 .275-.104.491-.312.647s-.487.234-.839.234c-.244 0-.467-.045-.667-.133a1.087 1.087 0 01-.458-.365l-.002-.003a.934.934 0 01-.157-.522v-.019.001h.656c0 .35.208.525.627.525a.616.616 0 00.365-.094.311.311 0 00.13-.253v-.014.001z"/></symbol><symbol id="icon-logo-5" viewBox="0 0 40 32"><path d="M3.056 26.742c.157.194.24.438.236.688l.001.053c0 .324-.141.615-.365.815l-.001.001a1.575 1.575 0 01-1.061.317H.001v-4.361h1.827a1.548 1.548 0 011.017.294l-.004-.003a.994.994 0 01.353.818v-.003c.011.24-.065.477-.212.667a.99.99 0 01-.556.34c.247.046.471.177.63.373zm-2.188-.658h.78a.733.733 0 00.497-.145.518.518 0 00.169-.383l-.002-.045v.002l.001-.037a.535.535 0 00-.167-.389.75.75 0 00-.514-.147h.003-.767v1.144zm1.354 1.672a.542.542 0 00.186-.408l-.001-.036v.002l.001-.032a.552.552 0 00-.189-.416l-.001-.001a.8.8 0 00-.48-.159l-.054.002h.002-.818v1.199h.829a.816.816 0 00.524-.151zm4.568.861l-1.016-1.704h-.382v1.704h-.874v-4.361h1.654a1.624 1.624 0 011.156.373l-.003-.002a1.391 1.391 0 01.12 1.808l.003-.004a1.337 1.337 0 01-.789.443l1.083 1.743h-.95zm-1.398-2.299h.715c.497 0 .745-.22.745-.66l.001-.037a.647.647 0 00-.184-.453.767.767 0 00-.566-.177h.003-.724l.009 1.328zm6.176 1.421H9.826l-.308.878h-.916l1.6-4.313h.991l1.593 4.312h-.916l-.301-.878zm-.233-.66l-.637-1.84-.637 1.84h1.273zm6.215 1.538h-.869l-1.946-2.965v2.965h-.865v-4.361h.865l1.946 2.982v-2.982h.868v4.361zm4.952-1.044c-.182.33-.45.593-.775.764l-.01.005a2.545 2.545 0 01-1.22.274h-1.546v-4.361h1.546l.067-.001c.42 0 .817.1 1.168.277l-.015-.007c.332.168.606.433.786.761.171.333.272.727.272 1.144s-.1.811-.278 1.158l.007-.014zm-.993-.104c.239-.278.384-.642.384-1.041s-.145-.763-.386-1.043l.002.002a1.5 1.5 0 00-1.091-.371h.004-.603v2.823h.603a1.496 1.496 0 001.088-.372l-.002.001zM12.111 0s11.201 4.246 10.964 10.39v10.392S11.882 16.534 12.116 10.39L12.111 0zm20.942 18.349a15.15 15.15 0 017.049-2.628l.068-.006v-3.253c-2.995 1.181-5.437 3.227-7.081 5.827l-.035.06z"/><path d="M31.782 19.329c1.749-3.487 4.693-6.158 8.283-7.513l.105-.035V2.408S24.218 8.456 24.555 17.205v14.796s.711-.27 1.829-.778c0-.473 0-.95.05-1.43a15.388 15.388 0 015.327-10.447l.021-.017z"/><path d="M30.266 24.825a15.3 15.3 0 01.558-3.03 14.243 14.243 0 00-3.378 8.921v.016a44.08 44.08 0 003.286-1.741l-.218.118c-.191-.908-.3-1.952-.3-3.021 0-.445.019-.885.056-1.32l-.004.057zm.634.053a14.803 14.803 0 00.212 3.971l-.015-.092c4.358-2.619 9.255-6.664 9.067-11.553v-.426a14.265 14.265 0 00-8.297 3.894l.005-.005a14.228 14.228 0 00-.968 4.158l-.003.052z"/></symbol><symbol id="icon-logo-6" viewBox="0 0 62 32"><path d="M31.123 14.854a2.248 2.248 0 01-.396-1.437v.007-2.074c0-.637.132-1.12.394-1.45s.715-.495 1.356-.494c.602 0 1.03.141 1.282.422.275.359.41.798.379 1.241v.487h-1.077v-.494l.001-.064c0-.148-.012-.293-.034-.435l.002.016a.482.482 0 00-.153-.287.575.575 0 00-.345-.113l-.048.002h.002a.616.616 0 00-.412.119l.002-.001a.568.568 0 00-.178.313l-.001.004a2.594 2.594 0 00-.042.513v2.518a1.425 1.425 0 00.142.715l-.004-.008a.526.526 0 00.212.171l.003.001a.544.544 0 00.28.04h-.003a.545.545 0 00.382-.115l-.001.001a.522.522 0 00.16-.303v-.003c.026-.167.037-.336.034-.504v-.511h1.077v.466a2.015 2.015 0 01-.377 1.311l.004-.006c-.247.308-.669.462-1.288.462s-1.088-.164-1.354-.506zm4.485.022c-.272-.323-.408-.794-.408-1.416v-2.183c0-.616.136-1.082.408-1.399s.726-.474 1.364-.473c.633 0 1.085.158 1.358.473.271.317.41.783.41 1.399v2.183c0 .616-.139 1.089-.415 1.414-.277.325-.727.487-1.354.487s-1.09-.164-1.364-.485zm1.865-.524c.097-.202.142-.424.129-.646v-2.672l.002-.072a1.28 1.28 0 00-.133-.569l.003.007a.528.528 0 00-.216-.173l-.003-.001a.533.533 0 00-.287-.037h.003a.546.546 0 00-.289.039l.004-.001a.527.527 0 00-.219.172l-.001.001a1.242 1.242 0 00-.129.633v2.685a1.29 1.29 0 00.129.646.672.672 0 00.222.158l.004.002a.692.692 0 00.558-.002l-.005.002a.672.672 0 00.226-.16v-.013zm2.562-4.884h1.16l.872 4.028.892-4.028h1.128l.113 5.813h-.833l-.089-4.04-.861 4.04h-.669l-.892-4.054-.083 4.054h-.843l.104-5.812zm5.465 0h1.806c1.04 0 1.56.55 1.56 1.651 0 1.054-.547 1.58-1.643 1.579h-.614v2.583h-1.115l.007-5.812zm1.543 2.484c.11.014.222.004.327-.028a.78.78 0 00.286-.155 1.01 1.01 0 00.16-.657l.001-.067c0-.163-.02-.322-.057-.474l.003.014a.425.425 0 00-.083-.161l.001.001a.484.484 0 00-.139-.116l-.002-.001a1.055 1.055 0 00-.499-.092h.003-.433v1.736h.433zm3.431-2.484h1.197l1.229 5.813h-1.039l-.243-1.341H50.55l-.25 1.341h-1.055l1.229-5.812zm1.023 3.799l-.417-2.44-.417 2.44h.835zm2.395-3.799h.779l1.494 3.316V9.468h.925v5.812h-.742l-1.503-3.462v3.462h-.957l.002-5.812zm5.366 3.596l-1.242-3.588h1.046l.758 2.305.711-2.305h1.023l-1.226 3.588v2.216h-1.071v-2.216zm-26.413 4.758v.304h-.91v2.362h-.381v-2.362h-.914v-.304h2.205zm2.852 2.666h-.302a.124.124 0 01-.075-.026.134.134 0 01-.048-.06v-.001l-.263-.633h-1.262l-.264.633a.181.181 0 01-.04.072.124.124 0 01-.076.025h-.301l1.115-2.666h.387l1.128 2.655zm-1.847-.99h1.053l-.446-1.085a1.908 1.908 0 01-.08-.236l-.003-.014-.042.141-.04.111-.442 1.083zm3.769.728c.07.003.139.003.209 0 .061-.006.12-.017.179-.032a1.3 1.3 0 00.169-.052l-.009.003c.049-.019.099-.042.15-.065v-.6h-.451a.082.082 0 01-.055-.021.057.057 0 01-.022-.046v-.208h.865v1.022a1.61 1.61 0 01-.459.214l-.012.003a1.747 1.747 0 01-.269.055l-.009.001a2.896 2.896 0 01-.321.017h-.018c-.197 0-.386-.037-.56-.103l.011.004a1.34 1.34 0 01-.446-.279l.001.001a1.293 1.293 0 01-.285-.414l-.003-.008a1.424 1.424 0 01-.103-.535v-.018-.016c0-.195.037-.38.105-.551l-.004.01c.064-.158.161-.301.287-.422.127-.12.279-.214.446-.277a1.71 1.71 0 01.598-.099c.104 0 .207.007.31.023.09.014.179.036.266.067a1.2 1.2 0 01.223.106c.069.042.134.088.195.139l-.108.165a.103.103 0 01-.036.036.098.098 0 01-.051.014.137.137 0 01-.07-.021h.001a1.281 1.281 0 01-.114-.066l.005.003a.905.905 0 00-.143-.07l-.007-.002a1.21 1.21 0 00-.197-.058l-.008-.001a1.495 1.495 0 00-.268-.023h-.016.001-.013c-.15 0-.293.027-.425.077l.008-.003a.912.912 0 00-.328.211.924.924 0 00-.207.332 1.338 1.338 0 00.003.898l-.003-.009c.049.125.125.24.223.335a.935.935 0 00.326.211c.142.046.292.064.442.053zm3.553-.042h1.217v.304h-1.59v-2.666h.381l-.009 2.362zm2.484.303h-.381v-2.664h.381v2.666zm1.418-2.653a.192.192 0 01.057.048l1.63 2.01-.002-.048.002-.05v.002-1.986h.332v2.676h-.191l-.013.001a.171.171 0 01-.071-.016h.001a.266.266 0 01-.06-.05l-1.628-2.007v2.072h-.319v-2.665h.198c.022 0 .043.004.063.013zm4.827-.012v.294H48.55v.88h1.095v.282H48.55v.91h1.351v.294h-1.743v-2.659h1.743zM9.95 1.359l16.929 4.55v15.946L9.952 17.308V1.359zM8.865 0v18.081l19.098 5.135V5.136L8.865-.001z"/><path d="M19.1 31.61L0 26.471V8.391l19.1 5.137V31.61z"/><path d="M9.181 1.155l16.707 4.493-7.105 6.728-16.71-4.495L9.18 1.154zM8.865 0L0 8.392l19.1 5.137 8.863-8.392L8.865 0zm11.31 30.593l7.788-7.374-7.788-2.096v9.47z"/></symbol><symbol id="icon-phone" viewBox="0 0 20 32"><path d="M17 0H3C1.346 0 0 1.346 0 3v26c0 1.654 1.346 3 3 3h14c1.654 0 3-1.346 3-3V3c0-1.654-1.346-3-3-3zM3 2h14a1 1 0 011 1v21H2V3a1 1 0 011-1zm14 28H3a1 1 0 01-1-1v-3h16v3a1 1 0 01-1 1z"/><path fill="var(--color3, #757575)" d="M4.708 27.478a.889.889 0 01.001 1.319l-.001.001a1.048 1.048 0 01-1.417 0l.001.001a.889.889 0 01-.001-1.319l.001-.001a1.048 1.048 0 011.417 0l-.001-.001z"/></symbol><symbol id="icon-twitter" viewBox="0 0 32 32"><path d="M32 6.078c-1.1.493-2.376.857-3.713 1.028l-.068.007a6.556 6.556 0 002.873-3.579l.013-.046a12.88 12.88 0 01-4.076 1.573l-.084.014A6.558 6.558 0 0015.6 9.557v.004c0 .52.043 1.021.152 1.496-5.454-.266-10.28-2.88-13.522-6.861a6.524 6.524 0 00-.902 3.313v.001a6.57 6.57 0 002.914 5.451 6.453 6.453 0 01-2.994-.823l.033.017v.072a6.592 6.592 0 005.213 6.44l.043.008a6.403 6.403 0 01-1.662.215h-.061.003c-.419 0-.843-.024-1.242-.112.85 2.598 3.261 4.509 6.13 4.57a13.093 13.093 0 01-8.122 2.8H1.57h.001-.062c-.531 0-1.055-.034-1.569-.099l.061.006c2.826 1.846 6.287 2.944 10.004 2.944h.063-.003c12.072 0 18.672-10 18.672-18.669 0-.288-.01-.57-.024-.848a13.203 13.203 0 003.258-3.355l.03-.047z"/></symbol><symbol id="icon-close" viewBox="0 0 32 32"><path d="M32 3.223L28.777 0 16 12.777 3.223 0 0 3.223 12.777 16 0 28.777 3.223 32 16 19.223 28.777 32 32 28.777 19.223 16 32 3.223z"/></symbol><symbol id="icon-send" viewBox="0 0 32 32"><path fill="#fff" style="fill: var(--color1, #fff)" d="M32 0l-32 18 10.227 3.788 15.773-14.788-11.998 16.186 0.010 0.004-0.012-0.004v8.814l5.735-6.691 7.265 2.691 5-28z"></path></symbol><symbol id="icon-icon-check" viewBox="0 0 32 32"><path style="fill: var(--color1, #fff); stroke: var(--color1, #fff)" stroke="#fff" stroke-linejoin="miter" stroke-linecap="butt" stroke-miterlimit="4" stroke-width="0.4" d="M7.914 16.503l-0.138-0.131-2.067 1.958 7.282 6.947 15.298-14.594-2.053-1.959-13.245 12.623-5.077-4.844z"></path></symbol><symbol id="icon-icon-check" viewBox="0 0 32 32"><path style="fill: var(--color1, #fff); stroke: var(--color1, #fff)" stroke="#fff" stroke-linejoin="miter" stroke-linecap="butt" stroke-miterlimit="4" stroke-width="0.4" d="M7.914 16.503l-0.138-0.131-2.067 1.958 7.282 6.947 15.298-14.594-2.053-1.959-13.245 12.623-5.077-4.844z"></path></symbol><symbol id="icon-Vector-2" viewBox="0 0 32 32"><path d="M28.444 4.333v23.333h-24.889v-23.333h24.889zM28.444 1h-24.889c-1.956 0-3.556 1.5-3.556 3.333v23.333c0 1.833 1.6 3.333 3.556 3.333h24.889c1.956 0 3.556-1.5 3.556-3.333v-23.333c0-1.833-1.6-3.333-3.556-3.333z"></path></symbol><symbol id="icon-phone-black" viewBox="0 0 32 32"><path d="M24.882 19.773l-3.268-0.373c-0.785-0.090-1.557 0.18-2.11 0.733l-2.367 2.367c-3.641-1.853-6.626-4.825-8.478-8.478l2.38-2.38c0.553-0.553 0.823-1.325 0.733-2.11l-0.373-3.242c-0.154-1.299-1.248-2.277-2.56-2.277h-2.226c-1.454 0-2.663 1.209-2.573 2.663 0.682 10.987 9.469 19.761 20.443 20.443 1.454 0.090 2.663-1.119 2.663-2.573v-2.226c0.013-1.3-0.965-2.393-2.264-2.547z"></path></symbol><symbol id="icon-email-black" viewBox="0 0 32 32"><path d="M26.667 5.333h-21.333c-1.467 0-2.653 1.2-2.653 2.667l-0.013 16c0 1.467 1.2 2.667 2.667 2.667h21.333c1.467 0 2.667-1.2 2.667-2.667v-16c0-1.467-1.2-2.667-2.667-2.667zM26.133 11l-9.427 5.893c-0.427 0.267-0.987 0.267-1.413 0l-9.427-5.893c-0.333-0.213-0.533-0.573-0.533-0.96 0-0.893 0.973-1.427 1.733-0.96l8.933 5.587 8.933-5.587c0.76-0.467 1.733 0.067 1.733 0.96 0 0.387-0.2 0.747-0.533 0.96z"></path></symbol><symbol id="icon-person-black" viewBox="0 0 32 32"><path d="M16 16c2.947 0 5.333-2.387 5.333-5.333s-2.387-5.333-5.333-5.333c-2.947 0-5.333 2.387-5.333 5.333s2.387 5.333 5.333 5.333zM16 18.667c-3.56 0-10.667 1.787-10.667 5.333v1.333c0 0.733 0.6 1.333 1.333 1.333h18.667c0.733 0 1.333-0.6 1.333-1.333v-1.333c0-3.547-7.107-5.333-10.667-5.333z"></path></symbol><symbol id="icon-burger" viewBox="0 0 32 32"><path d="M6.4 11.733v-2.133h19.2v2.133h-19.2zM6.4 17.067h19.2v-2.133h-19.2v2.133zM6.4 22.4h19.2v-2.133h-19.2v2.133z"></path></symbol><symbol id="icon-close-burger" viewBox="0 0 32 32"><path d="M23.733 10.304l-1.504-1.504-5.963 5.963-5.963-5.963-1.504 1.504 5.963 5.963-5.963 5.963 1.504 1.504 5.963-5.963 5.963 5.963 1.504-1.504-5.963-5.963 5.963-5.963z"></path></symbol></defs></svg>