<svg aria-hidden="true" style="position: absolute; width: 0; height: 0; overflow: hidden;" version="1.1" xmlns="http://www.w3.org/2000/svg" xmlns:xlink="http://www.w3.org/1999/xlink">
<defs>
<symbol id="greater-than-icon-19-1-icon" viewBox="0 0 19 32">
<path d="M1.769 0.15c-1.256 0.406-2.006 1.762-1.681 3.031 0.056 0.219 0.162 0.5 0.237 0.625 0.069 0.125 2.819 2.919 6.106 6.206l5.975 5.988-6.006 6.012c-4.719 4.725-6.037 6.081-6.15 6.319-0.588 1.25-0.063 2.762 1.175 3.369 0.394 0.194 0.45 0.206 1.106 0.206 1.194 0 0.45 0.65 8.537-7.45 5.819-5.831 7.063-7.106 7.181-7.363 0.212-0.469 0.288-1.012 0.206-1.488-0.144-0.863 0.206-0.481-7.475-8.15-7.981-7.969-7.269-7.338-8.356-7.375-0.381-0.012-0.688 0.012-0.856 0.069z"></path>
</symbol>
</defs>
</svg>
