<?xml version="1.0" standalone="no"?>
<!DOCTYPE svg PUBLIC "-//W3C//DTD SVG 20010904//EN"
 "http://www.w3.org/TR/2001/REC-SVG-20010904/DTD/svg10.dtd">
<svg version="1.0" xmlns="http://www.w3.org/2000/svg"
 width="512.000000pt" height="512.000000pt" viewBox="0 0 512.000000 512.000000"
 preserveAspectRatio="xMidYMid meet">
<metadata>
Created by potrace 1.11, written by Peter Selinger 2001-2013
</metadata>
<g transform="translate(0.000000,512.000000) scale(0.100000,-0.100000)"
fill="#000000" stroke="none">
<path d="M2239 5102 c-178 -119 -299 -367 -327 -671 -16 -182 -3 -481 29 -638
6 -29 10 -54 9 -55 -1 -2 22 -68 50 -148 28 -79 57 -178 64 -220 17 -100 12
-322 -9 -435 -9 -49 -19 -99 -21 -110 -2 -11 -13 -51 -24 -90 -12 -38 -27 -96
-35 -127 -19 -76 -50 -140 -75 -156 -16 -10 -26 -10 -53 1 -54 23 -66 50 -73
172 -17 321 -239 613 -586 771 -71 32 -107 35 -136 11 -25 -21 -30 -51 -15
-101 15 -50 20 -248 9 -351 -3 -27 -8 -72 -11 -100 -7 -73 -15 -121 -31 -205
-9 -41 -18 -88 -21 -105 -2 -16 -25 -99 -49 -183 -48 -166 -99 -406 -110 -517
-3 -38 -8 -79 -11 -90 -2 -11 -6 -112 -8 -225 -5 -218 4 -296 46 -435 78 -252
249 -478 482 -634 297 -199 675 -300 1122 -300 128 0 178 2 285 15 30 3 69 8
85 9 165 18 467 102 653 182 618 263 885 627 885 1208 0 78 -12 245 -18 255
-2 3 -7 33 -10 65 -4 33 -11 70 -16 83 -5 12 -7 22 -4 22 2 0 -1 15 -6 33 -10
31 -14 47 -23 84 -29 120 -134 400 -188 501 -35 66 -48 86 -134 202 -69 95
-125 193 -156 272 -23 60 -76 223 -82 253 -3 11 -14 61 -25 110 -19 87 -25
115 -35 180 -26 168 -27 171 -54 187 -15 9 -38 14 -52 12 -63 -9 -170 -187
-196 -326 -38 -200 -21 -382 57 -642 100 -330 99 -586 -4 -793 -38 -79 -77
-125 -107 -130 -80 -12 -131 75 -165 281 -14 88 -13 480 3 615 21 184 -12 375
-104 601 -81 201 -169 347 -350 575 -140 178 -212 339 -274 618 -26 115 -32
150 -45 277 -4 36 -9 76 -10 90 -2 14 -4 35 -4 48 -1 30 -44 72 -73 72 -13 0
-35 -8 -49 -18z m-853 -2763 c18 -20 21 -49 11 -126 -4 -29 -10 -77 -13 -105
-4 -29 -8 -60 -10 -68 -1 -8 -3 -27 -3 -41 -2 -67 -92 -99 -133 -48 -18 21
-19 33 -13 109 4 47 8 87 10 90 2 3 6 37 10 75 4 39 12 81 18 95 23 48 87 58
123 19z m-70 -630 c9 -10 16 -31 16 -46 -2 -282 -3 -365 -8 -378 -10 -26 -55
-43 -90 -34 -52 14 -58 39 -57 239 1 151 4 184 17 206 30 44 88 51 122 13z"/>
<path d="M3691 4459 c-50 -20 -105 -127 -128 -248 -2 -13 -5 -26 -6 -30 -6
-24 15 -69 38 -79 65 -30 98 -5 120 89 14 63 28 96 72 172 12 21 1 68 -20 85
-21 17 -51 21 -76 11z"/>
<path d="M773 4006 c-36 -31 -33 -74 6 -123 28 -36 81 -151 81 -179 0 -31 80
-53 111 -31 21 16 37 48 34 69 -14 88 -103 257 -143 273 -37 15 -64 13 -89 -9z"/>
</g>
</svg>
