<?xml version="1.0" standalone="no"?>
<!DOCTYPE svg PUBLIC "-//W3C//DTD SVG 20010904//EN"
 "http://www.w3.org/TR/2001/REC-SVG-20010904/DTD/svg10.dtd">
<svg version="1.0" xmlns="http://www.w3.org/2000/svg"
 width="150.000000pt" height="150.000000pt" viewBox="0 0 150.000000 150.000000"
 preserveAspectRatio="xMidYMid meet">
<metadata>
Created by potrace 1.11, written by Peter Selinger 2001-2013
</metadata>
<g transform="translate(0.000000,150.000000) scale(0.100000,-0.100000)"
fill="#000000" stroke="none">
<path d="M600 1475 c-235 -53 -409 -187 -515 -397 -61 -121 -78 -208 -73 -361
8 -207 68 -347 213 -492 92 -92 177 -145 290 -181 412 -131 837 99 951 516 28
101 26 293 -4 390 -79 252 -257 432 -507 510 -91 29 -263 36 -355 15z m278
-220 c20 -9 48 -26 61 -38 28 -26 60 -92 61 -124 0 -17 10 -25 53 -37 139 -40
177 -207 70 -308 -15 -15 -41 -32 -56 -37 -18 -7 -141 -11 -329 -11 -344 0
-360 3 -414 82 -39 55 -41 144 -6 201 26 40 95 87 130 87 14 0 22 6 22 18 0
56 83 120 141 108 19 -4 32 1 45 16 47 53 150 72 222 43z m111 -602 c0 -5 -51
-96 -112 -203 -94 -163 -117 -195 -137 -198 -23 -2 -36 17 -142 203 l-117 205
255 0 c140 0 254 -3 253 -7z"/>
<path d="M850 1167 c0 -8 12 -24 26 -38 20 -19 25 -31 22 -64 -2 -30 1 -41 13
-43 21 -4 32 48 18 86 -20 51 -79 96 -79 59z"/>
</g>
</svg>
