<?xml version="1.0" standalone="no"?>
<!DOCTYPE svg PUBLIC "-//W3C//DTD SVG 20010904//EN"
 "http://www.w3.org/TR/2001/REC-SVG-20010904/DTD/svg10.dtd">
<svg version="1.0" xmlns="http://www.w3.org/2000/svg"
 width="153.000000pt" height="153.000000pt" viewBox="0 0 153.000000 153.000000"
 preserveAspectRatio="xMidYMid meet">
<metadata>
Created by potrace 1.11, written by Peter Selinger 2001-2013
</metadata>
<g transform="translate(0.000000,153.000000) scale(0.100000,-0.100000)"
fill="#000000" stroke="none">
<path d="M630 1505 c0 -12 -13 -15 -60 -15 -47 0 -60 -3 -60 -15 0 -11 -12
-15 -45 -15 -33 0 -45 -4 -45 -15 0 -10 -10 -15 -30 -15 -20 0 -30 -5 -30 -15
0 -8 -7 -15 -15 -15 -8 0 -15 -7 -15 -15 0 -8 -7 -15 -15 -15 -8 0 -15 -7 -15
-15 0 -10 -10 -15 -30 -15 -20 0 -30 -5 -30 -15 0 -8 -7 -15 -15 -15 -8 0 -15
-7 -15 -15 0 -8 -7 -15 -15 -15 -10 0 -15 -10 -15 -30 0 -20 -5 -30 -15 -30
-8 0 -15 -7 -15 -15 0 -8 -7 -15 -15 -15 -10 0 -15 -10 -15 -30 0 -20 -5 -30
-15 -30 -8 0 -15 -7 -15 -15 0 -8 -7 -15 -15 -15 -11 0 -15 -12 -15 -45 0 -33
-4 -45 -15 -45 -12 0 -15 -13 -15 -60 0 -47 -3 -60 -15 -60 -12 0 -15 -20 -15
-120 0 -100 3 -120 15 -120 12 0 15 -13 15 -60 0 -47 3 -60 15 -60 11 0 15
-12 15 -45 0 -33 4 -45 15 -45 8 0 15 -7 15 -15 0 -8 7 -15 15 -15 10 0 15
-10 15 -30 0 -20 5 -30 15 -30 8 0 15 -7 15 -15 0 -8 7 -15 15 -15 10 0 15
-10 15 -30 0 -20 5 -30 15 -30 8 0 15 -7 15 -15 0 -8 7 -15 15 -15 8 0 15 -7
15 -15 0 -10 10 -15 30 -15 20 0 30 -5 30 -15 0 -8 7 -15 15 -15 8 0 15 -7 15
-15 0 -8 7 -15 15 -15 8 0 15 -7 15 -15 0 -10 10 -15 30 -15 20 0 30 -5 30
-15 0 -11 12 -15 45 -15 43 0 45 1 45 30 0 20 -5 30 -15 30 -8 0 -15 7 -15 15
0 10 -10 15 -30 15 -20 0 -30 5 -30 15 0 8 -7 15 -15 15 -8 0 -15 7 -15 15 0
8 -7 15 -15 15 -8 0 -15 7 -15 15 0 8 -7 15 -15 15 -13 0 -15 22 -15 135 0
113 -2 135 -15 135 -8 0 -15 7 -15 15 0 8 -7 15 -15 15 -8 0 -15 7 -15 15 0 8
-7 15 -15 15 -12 0 -15 15 -15 75 0 60 3 75 15 75 8 0 15 7 15 15 0 8 7 15 15
15 8 0 15 7 15 15 0 8 7 15 15 15 12 0 15 17 15 90 0 73 3 90 15 90 10 0 15
10 15 30 0 20 5 30 15 30 10 0 15 10 15 30 0 20 5 30 15 30 8 0 15 7 15 15 0
8 7 15 15 15 8 0 15 7 15 15 0 8 7 15 15 15 8 0 15 7 15 15 0 8 7 15 15 15 8
0 15 7 15 15 0 10 10 15 30 15 20 0 30 5 30 15 0 10 10 15 30 15 20 0 30 5 30
15 0 13 22 15 135 15 113 0 135 -2 135 -15 0 -10 10 -15 30 -15 20 0 30 -5 30
-15 0 -10 10 -15 30 -15 20 0 30 -5 30 -15 0 -8 7 -15 15 -15 8 0 15 -7 15
-15 0 -8 7 -15 15 -15 8 0 15 -7 15 -15 0 -8 7 -15 15 -15 8 0 15 -7 15 -15 0
-8 7 -15 15 -15 10 0 15 -10 15 -30 0 -20 5 -30 15 -30 10 0 15 -10 15 -30 0
-20 5 -30 15 -30 12 0 15 -17 15 -90 0 -73 3 -90 15 -90 8 0 15 -7 15 -15 0
-8 7 -15 15 -15 8 0 15 -7 15 -15 0 -8 7 -15 15 -15 12 0 15 -15 15 -75 0 -60
-3 -75 -15 -75 -8 0 -15 -7 -15 -15 0 -8 -7 -15 -15 -15 -8 0 -15 -7 -15 -15
0 -8 -7 -15 -15 -15 -13 0 -15 -22 -15 -135 0 -113 -2 -135 -15 -135 -8 0 -15
-7 -15 -15 0 -8 -7 -15 -15 -15 -8 0 -15 -7 -15 -15 0 -8 -7 -15 -15 -15 -8 0
-15 -7 -15 -15 0 -10 -10 -15 -30 -15 -20 0 -30 -5 -30 -15 0 -8 -7 -15 -15
-15 -10 0 -15 -10 -15 -30 0 -27 3 -30 30 -30 20 0 30 5 30 15 0 10 10 15 30
15 20 0 30 5 30 15 0 8 7 15 15 15 8 0 15 7 15 15 0 10 10 15 30 15 20 0 30 5
30 15 0 8 7 15 15 15 8 0 15 7 15 15 0 8 7 15 15 15 8 0 15 7 15 15 0 8 7 15
15 15 8 0 15 7 15 15 0 8 7 15 15 15 10 0 15 10 15 30 0 20 5 30 15 30 8 0 15
7 15 15 0 8 7 15 15 15 10 0 15 10 15 30 0 20 5 30 15 30 10 0 15 10 15 30 0
20 5 30 15 30 12 0 15 13 15 60 0 47 3 60 15 60 13 0 15 23 15 150 0 127 -2
150 -15 150 -12 0 -15 13 -15 60 0 47 -3 60 -15 60 -10 0 -15 10 -15 30 0 20
-5 30 -15 30 -10 0 -15 10 -15 30 0 20 -5 30 -15 30 -8 0 -15 7 -15 15 0 8 -7
15 -15 15 -10 0 -15 10 -15 30 0 20 -5 30 -15 30 -8 0 -15 7 -15 15 0 8 -7 15
-15 15 -8 0 -15 7 -15 15 0 8 -7 15 -15 15 -8 0 -15 7 -15 15 0 8 -7 15 -15
15 -8 0 -15 7 -15 15 0 10 -10 15 -30 15 -20 0 -30 5 -30 15 0 8 -7 15 -15 15
-8 0 -15 7 -15 15 0 10 -10 15 -30 15 -20 0 -30 5 -30 15 0 11 -12 15 -45 15
-33 0 -45 4 -45 15 0 11 -12 15 -45 15 -33 0 -45 4 -45 15 0 13 -22 15 -135
15 -113 0 -135 -2 -135 -15z"/>
<path d="M660 1175 c0 -10 -10 -15 -30 -15 -20 0 -30 -5 -30 -15 0 -10 -10
-15 -30 -15 -20 0 -30 -5 -30 -15 0 -8 -7 -15 -15 -15 -10 0 -15 -10 -15 -30
0 -27 3 -30 30 -30 20 0 30 -5 30 -15 0 -10 10 -15 30 -15 20 0 30 -5 30 -15
0 -13 22 -15 135 -15 113 0 135 2 135 15 0 10 10 15 30 15 20 0 30 5 30 15 0
10 10 15 30 15 27 0 30 3 30 30 0 20 -5 30 -15 30 -8 0 -15 7 -15 15 0 10 -10
15 -30 15 -20 0 -30 5 -30 15 0 10 -10 15 -30 15 -20 0 -30 5 -30 15 0 12 -18
15 -105 15 -87 0 -105 -3 -105 -15z"/>
<path d="M420 890 l0 -90 345 0 345 0 0 90 0 90 -30 0 c-20 0 -30 -5 -30 -15
0 -10 -10 -15 -30 -15 -20 0 -30 -5 -30 -15 0 -10 -10 -15 -30 -15 -20 0 -30
-5 -30 -15 0 -13 -25 -15 -165 -15 -140 0 -165 2 -165 15 0 10 -10 15 -30 15
-20 0 -30 5 -30 15 0 10 -10 15 -30 15 -20 0 -30 5 -30 15 0 10 -10 15 -30 15
l-30 0 0 -90z"/>
<path d="M360 695 c0 -8 -7 -15 -15 -15 -10 0 -15 -10 -15 -30 l0 -30 255 0
c220 0 255 -2 255 -15 0 -8 7 -15 15 -15 11 0 15 -12 15 -45 0 -33 -4 -45 -15
-45 -10 0 -15 -10 -15 -30 0 -20 5 -30 15 -30 8 0 15 -7 15 -15 0 -10 10 -15
30 -15 l30 0 0 105 0 105 135 0 135 0 0 30 c0 20 -5 30 -15 30 -8 0 -15 7 -15
15 0 13 -52 15 -405 15 -353 0 -405 -2 -405 -15z"/>
<path d="M420 410 c0 -100 3 -120 15 -120 8 0 15 -7 15 -15 0 -10 10 -15 30
-15 20 0 30 -5 30 -15 0 -13 35 -15 255 -15 220 0 255 2 255 15 0 10 10 15 30
15 20 0 30 5 30 15 0 8 7 15 15 15 13 0 15 20 15 120 l0 120 -45 0 -45 0 0
-75 c0 -60 -3 -75 -15 -75 -8 0 -15 -7 -15 -15 0 -8 -7 -15 -15 -15 -8 0 -15
-7 -15 -15 0 -12 -13 -15 -60 -15 -47 0 -60 3 -60 15 0 8 -7 15 -15 15 -8 0
-15 7 -15 15 0 8 -7 15 -15 15 -10 0 -15 10 -15 30 0 20 -5 30 -15 30 -11 0
-15 12 -15 45 l0 45 -165 0 -165 0 0 -120z"/>
<path d="M600 95 c0 -33 4 -45 15 -45 8 0 15 -7 15 -15 0 -13 22 -15 135 -15
113 0 135 2 135 15 0 8 7 15 15 15 11 0 15 12 15 45 l0 45 -165 0 -165 0 0
-45z"/>
</g>
</svg>
