<svg aria-hidden="true" style="position:absolute;width:0;height:0" xmlns="http://www.w3.org/2000/svg" overflow="hidden"><defs><symbol id="icon-fire" viewBox="0 0 24 32"><path fill="var(--color1, #ff6b09)" d="M21.908 16.593c-.284-.635-.675-1.261-1.247-1.983-1.442-1.813-1.882-5.857-1.887-5.896a.488.488 0 00-.337-.412.495.495 0 00-.518.141c-1.721 1.925-.997 4.897-.606 6.085.108.325.225.708.308 1.096.636 3.137-.592 4.558-.88 4.844-.279.078-.469.039-.645-.15-.606-.664-.807-2.841-.523-5.678a5.797 5.797 0 00-.039-1.581c-.598-3.486-2.791-5.722-3.349-6.507C10.65 4.283 10.493.506 10.489.472a.487.487 0 00-.763-.383C7.164 1.83 7.384 6.024 7.741 8.365c.083.543.244 1.096.523 1.794.992 2.497-.196 5.721-.205 5.75s-.02.053-.024.082c-.152.795-.406 1.27-.689 1.27a.327.327 0 01-.093-.015c-.347-.073-.528-.441-.533-.761-.02-4.136-4.17-5.527-4.214-5.542a.487.487 0 00-.586.678c.049.102.205.548.098 2.124a18.09 18.09 0 01-.768 4.16C.262 21.124.419 24.174.429 24.32c.759 8.257 12.635 9.704 19.683 5.052.772-.509 1.403-1.091 1.868-1.731 2.601-3.588 1.071-8.46-.068-11.05zM3.844 24.481a.484.484 0 01-.46.509h-.029a.487.487 0 01-.489-.456c-.044-.708-.034-1.45.02-2.255a.49.49 0 01.978.068 15.622 15.622 0 00-.02 2.133zm.239-4.296a.485.485 0 01-.484.427c-.02 0-.039 0-.064-.005a.489.489 0 01-.425-.538l.235-1.872a.494.494 0 01.548-.422c.269.034.46.276.425.543l-.235 1.867zM18.601 6.633a.484.484 0 01-.408-.553c.031-.197.207-1.205.687-1.713.184-.196.493-.206.691-.022s.207.49.022.685c-.203.215-.376.829-.433 1.197a.489.489 0 01-.558.405zM.778 9.048C.684 8.687.452 8.093.229 7.899c-.203-.177-.223-.483-.045-.684s.486-.222.69-.045c.527.458.802 1.445.852 1.638a.49.49 0 01-.947.241z"/></symbol><symbol id="icon-galka" viewBox="0 0 41 32"><path fill="var(--color1, #ff6b09)" d="M34.457 1.514a29.389 29.389 0 00-4.265 2.379c-2.731 1.797-5.228 3.936-7.57 6.218-2.341 2.287-4.52 4.735-6.581 7.28-.515.636-2.823 3.47-2.823 3.47L3.622 6.481-.001 16.523 12.976 32c1.26-2.551 2.473-5.07 3.662-7.258.296-.556.605-1.08.901-1.612 0 0 1.523-2.677 1.923-3.352 1.602-2.697 3.333-5.325 5.239-7.821 1.908-2.491 3.983-4.87 6.335-6.961a28.328 28.328 0 013.751-2.872c1.332-.848 2.747-1.591 4.261-2.125-1.575.31-3.111.848-4.592 1.514z"/></symbol><symbol id="icon-line" viewBox="0 0 213 32"><path fill="var(--color1, #ff6b09)" d="M0 4.267h213.333V24.96H0V4.267z"/></symbol><symbol id="icon-Vector-teacher" viewBox="0 0 1 32"><path fill="none" stroke="var(--color2, #b9b9b9)" stroke-width=".471" d="M.471 0v32"/></symbol></defs></svg>