<svg width="66" height="48" viewBox="0 0 66 48" fill="none" xmlns="http://www.w3.org/2000/svg">
<path d="M64.8724 5.16797H62.0638V0.949719C62.0638 0.526847 61.7207 0.183762 61.2979 0.183762H38.4009C36.1665 0.183762 34.2298 1.39173 33.2135 3.19997C32.197 1.39154 30.2591 0.183762 28.0246 0.183762H5.12766C4.70479 0.183762 4.3617 0.526847 4.3617 0.949719V5.16797H1.55319C1.13032 5.16797 0.787231 5.51105 0.787231 5.93393V47.0503C0.787231 47.4732 1.13032 47.8162 1.55319 47.8162C9.24343 47.8162 57.1546 47.8162 64.8724 47.8162C65.2952 47.8162 65.6383 47.4732 65.6383 47.0503V5.93393C65.6383 5.51105 65.2952 5.16797 64.8724 5.16797ZM38.4009 1.71568H60.5319C60.5319 8.57486 60.5319 26.6435 60.5319 42.7408H36.7668C35.7133 42.7408 34.66 43.185 33.9787 43.7611V6.12791C33.9787 3.68264 35.9364 1.71568 38.4009 1.71568ZM5.89361 1.71568H28.0246C30.4197 1.71568 32.358 3.57971 32.4373 5.95936C32.4383 5.99227 32.4413 6.0955 32.4468 6.12791V6.13389V6.13539V43.7581C31.7673 43.1843 30.7254 42.7408 29.6687 42.7408H5.89361C5.89361 26.6489 5.89361 8.57266 5.89361 1.71568ZM2.31915 6.69988H4.3617V43.5067C4.3617 43.9296 4.70479 44.2727 5.12766 44.2727H29.6687C30.8363 44.2727 31.9647 45.0387 32.3259 46.2843H2.31915V6.69988ZM64.1064 46.2843H34.1001C34.4637 45.0326 35.5808 44.2727 36.7668 44.2727H61.2979C61.7207 44.2727 62.0638 43.9296 62.0638 43.5067V6.69988H64.1064V46.2843Z" fill="white"/>
</svg>
