<svg width="66" height="48" viewBox="0 0 66 48" fill="none" xmlns="http://www.w3.org/2000/svg">
<path d="M29.3999 6.9118H8.94043V8.44372H29.3999V6.9118Z" fill="white"/>
<path d="M29.4 12.6236H12.0044V14.1555H29.4V12.6236Z" fill="white"/>
<path d="M29.3999 18.3358H8.94043V19.8678H29.3999V18.3358Z" fill="white"/>
<path d="M29.4 24.0476H12.0044V25.5795H29.4V24.0476Z" fill="white"/>
<path d="M29.3999 29.7594H8.94043V31.2913H29.3999V29.7594Z" fill="white"/>
<path d="M29.4 35.4716H12.0044V37.0036H29.4V35.4716Z" fill="white"/>
<path d="M57.4848 6.9118H37.0254V8.44372H57.4848V6.9118Z" fill="white"/>
<path d="M54.421 12.6236H37.0254V14.1555H54.421V12.6236Z" fill="white"/>
<path d="M57.4848 18.3358H37.0254V19.8678H57.4848V18.3358Z" fill="white"/>
<path d="M54.421 24.0476H37.0254V25.5795H54.421V24.0476Z" fill="white"/>
<path d="M57.4848 29.7594H37.0254V31.2913H57.4848V29.7594Z" fill="white"/>
<path d="M54.421 35.4716H37.0254V37.0036H54.421V35.4716Z" fill="white"/>
<path d="M64.8722 5.16795H62.0637V0.949704C62.0637 0.526831 61.7206 0.183746 61.2978 0.183746H38.4008C36.1664 0.183746 34.2297 1.39171 33.2133 3.19995C32.1969 1.39153 30.259 0.183746 28.0245 0.183746H5.12754C4.70466 0.183746 4.36158 0.526831 4.36158 0.949704V5.16795H1.55307C1.13019 5.16795 0.787109 5.51104 0.787109 5.93391V47.0503C0.787109 47.4731 1.13019 47.8162 1.55307 47.8162C9.24331 47.8162 57.1545 47.8162 64.8722 47.8162C65.2951 47.8162 65.6382 47.4731 65.6382 47.0503V5.93391C65.6382 5.51104 65.2951 5.16795 64.8722 5.16795ZM38.4008 1.71566H60.5318C60.5318 8.57484 60.5318 26.6435 60.5318 42.7408H36.7667C35.7132 42.7408 34.6599 43.185 33.9786 43.761V6.12789C33.9786 3.68263 35.9363 1.71566 38.4008 1.71566ZM5.89349 1.71566H28.0245C30.4196 1.71566 32.3579 3.57969 32.4372 5.95934C32.4382 5.99226 32.4412 6.09548 32.4467 6.12789V6.13388V6.13537V43.758C31.7672 43.1843 30.7252 42.7408 29.6686 42.7408H5.89349C5.89349 26.6489 5.89349 8.57265 5.89349 1.71566ZM2.31902 6.69987H4.36158V43.5067C4.36158 43.9296 4.70466 44.2727 5.12754 44.2727H29.6686C30.8362 44.2727 31.9646 45.0386 32.3258 46.2843H2.31902V6.69987ZM64.1063 46.2843H34.1C34.4636 45.0326 35.5807 44.2727 36.7667 44.2727H61.2978C61.7206 44.2727 62.0637 43.9296 62.0637 43.5067V6.69987H64.1063V46.2843Z" fill="white"/>
</svg>
