<svg width="454" height="472" viewBox="0 0 454 472" fill="none" xmlns="http://www.w3.org/2000/svg">
<g clip-path="url(#clip0)">
<path d="M423.855 322.005C418.369 309.679 410.802 297.542 399.736 283.522C371.834 248.332 363.321 169.86 363.227 169.108C362.849 165.344 360.2 162.239 356.701 161.11C353.106 159.981 349.228 161.016 346.675 163.838C313.381 201.193 327.38 258.87 334.946 281.923C337.027 288.227 339.297 295.66 340.904 303.187C353.2 364.064 329.46 391.633 323.879 397.184C318.488 398.689 314.799 397.937 311.394 394.267C299.666 381.377 295.788 339.13 301.274 284.087C302.41 272.89 302.125 262.822 300.517 253.413C288.948 185.759 246.527 142.362 235.728 127.143C206.028 83.1085 203.002 9.81165 202.907 9.15302C202.813 5.67165 200.826 2.56665 197.705 1.0612C194.678 -0.444256 190.99 -0.256073 188.152 1.71984C138.591 35.4985 142.847 116.887 149.751 162.333C151.359 172.871 154.481 183.598 159.872 197.147C179.072 245.604 156.088 308.174 155.899 308.739C155.71 309.303 155.521 309.773 155.426 310.338C152.494 325.769 147.576 334.99 142.09 334.99C141.523 334.99 140.955 334.896 140.293 334.708C133.578 333.296 130.078 326.145 129.983 319.935C129.605 239.676 49.3039 212.672 48.4526 212.389C44.8584 211.26 40.8859 212.295 38.4268 215.212C35.873 218.129 35.4001 222.175 37.1026 225.562C38.0484 227.538 41.0751 236.194 38.9943 266.774C37.1972 294.249 32.1843 321.441 24.1447 347.504C5.03886 409.98 8.06553 469.164 8.25469 471.986C22.9463 632.23 252.695 660.308 389.047 570.029C403.991 560.149 416.193 548.859 425.178 536.439C475.497 466.811 445.893 372.25 423.855 322.005ZM74.3694 475.091C74.6531 480.266 70.6806 484.689 65.4785 484.971H64.911C59.8981 484.971 55.7365 481.113 55.4527 476.126C54.6015 462.389 54.7906 447.993 55.831 432.374C56.2094 427.199 60.7494 423.341 65.9515 423.623C71.1536 423.999 75.1261 428.515 74.7477 433.69C73.7064 448.558 73.5181 462.107 74.3694 475.091ZM79.003 391.727C78.4355 396.525 74.3684 400.007 69.6393 400.007C69.2609 400.007 68.8826 400.007 68.4097 399.913C63.3022 399.254 59.6134 394.644 60.1809 389.469L64.7209 353.149C65.383 348.069 70.0176 344.399 75.3143 344.964C80.5163 345.622 84.2051 350.327 83.543 355.502L79.003 391.727Z" fill="#3D3D3D"/>
<path d="M359.865 128.726C354.707 127.931 351.169 123.135 351.964 118.003C352.555 114.18 355.972 94.6093 365.246 84.7683C368.816 80.9737 374.792 80.7761 378.616 84.3412C382.426 87.8922 382.62 93.8472 379.046 97.6419C375.121 101.809 371.776 113.735 370.659 120.871C369.861 125.948 365.1 129.511 359.865 128.726Z" fill="#3D3D3D"/>
<path d="M15.0517 175.594C13.2414 168.597 8.74302 157.056 4.42529 153.289C0.495356 149.861 0.102834 143.916 3.54756 140.012C6.98377 136.098 12.9548 135.698 16.8942 139.139C27.0865 148.028 32.4116 167.173 33.3773 170.917C34.6702 175.948 31.6227 181.065 26.5701 182.361C21.4058 183.653 16.339 180.541 15.0517 175.594Z" fill="#3D3D3D"/>
</g>
<defs>
<clipPath id="clip0">
<rect width="454" height="472" fill="white"/>
</clipPath>
</defs>
</svg>
