<?xml version="1.0" standalone="no"?>
<!DOCTYPE svg PUBLIC "-//W3C//DTD SVG 20010904//EN"
 "http://www.w3.org/TR/2001/REC-SVG-20010904/DTD/svg10.dtd">
<svg version="1.0" xmlns="http://www.w3.org/2000/svg"
 width="1280.000000pt" height="1301.000000pt" viewBox="0 0 1280.000000 1301.000000"
 preserveAspectRatio="xMidYMid meet">
<metadata>
Created by potrace 1.16, written by Peter Selinger 2001-2019
</metadata>
<g transform="translate(0.000000,1301.000000) scale(0.100000,-0.100000)"
fill="#000000" stroke="none">
<path d="M5996 12995 c-54 -19 -160 -94 -285 -201 -596 -509 -960 -1321 -1080
-2409 -32 -291 -42 -499 -42 -860 0 -529 32 -968 112 -1525 55 -382 142 -697
323 -1169 137 -355 205 -663 237 -1065 15 -192 6 -730 -15 -921 -58 -515 -167
-1028 -310 -1456 -19 -57 -46 -158 -61 -224 -84 -378 -221 -639 -355 -675 -98
-26 -248 50 -325 165 -70 106 -86 171 -96 399 -24 548 -139 995 -368 1431
-400 763 -1144 1413 -2056 1797 -147 61 -152 63 -240 63 -81 0 -95 -3 -144
-30 -90 -50 -145 -133 -156 -237 -6 -54 2 -95 44 -210 55 -150 78 -502 61
-912 -33 -807 -136 -1539 -321 -2280 -45 -178 -81 -307 -221 -786 -131 -451
-264 -1094 -332 -1615 -14 -104 -28 -209 -31 -232 l-6 -43 6235 0 6236 0 0
1923 0 1922 -127 165 c-215 281 -280 384 -416 655 -331 662 -616 1688 -766
2760 -43 304 -48 330 -66 368 -28 59 -74 105 -137 136 -51 26 -72 31 -132 31
-128 -1 -183 -33 -295 -170 -175 -215 -282 -397 -386 -655 -264 -657 -291
-1493 -79 -2430 36 -158 87 -341 159 -572 131 -414 172 -576 219 -855 181
-1070 26 -1982 -440 -2598 -107 -141 -125 -156 -209 -169 -181 -26 -299 52
-418 279 -138 261 -228 693 -268 1295 -7 99 -12 356 -12 570 0 482 17 823 65
1310 30 298 32 757 5 950 -100 710 -365 1499 -739 2200 -279 521 -574 957
-1084 1595 -206 259 -266 341 -352 485 -77 130 -211 395 -277 550 -320 749
-553 1779 -630 2796 -9 117 -23 238 -32 268 -20 73 -94 153 -170 181 -63 23
-159 26 -217 5z m-3566 -10851 c75 -22 162 -109 184 -184 9 -30 16 -67 16 -84
0 -17 -34 -298 -75 -625 -54 -422 -81 -606 -94 -635 -26 -60 -76 -113 -135
-144 -43 -22 -64 -27 -131 -27 -67 0 -88 5 -130 27 -89 47 -151 133 -161 226
-4 29 23 273 70 647 85 667 85 669 168 740 81 69 183 90 288 59z"/>
<path d="M11629 10427 c-88 -33 -144 -87 -234 -226 -100 -155 -203 -421 -266
-687 -61 -262 -50 -374 45 -469 62 -63 121 -85 221 -85 133 0 244 81 279 204
9 28 27 107 42 176 53 251 148 491 238 600 60 72 80 132 74 224 -7 111 -63
197 -161 248 -53 27 -183 35 -238 15z"/>
<path d="M223 8694 c-60 -22 -127 -86 -160 -151 -54 -112 -28 -259 61 -343
111 -104 229 -338 321 -635 44 -141 71 -192 123 -233 60 -48 118 -67 197 -66
170 2 298 128 298 294 0 110 -110 436 -226 666 -112 223 -287 432 -392 467
-59 21 -165 21 -222 1z"/>
</g>
</svg>
