<svg width="46" height="48" fill="none" xmlns="http://www.w3.org/2000/svg"><path d="M45.226 7.441l-.001-.004a.42.42 0 00-.09-.135L37.925.093a.394.394 0 00-.06-.049c-.004-.003-.01-.005-.014-.009a.45.45 0 00-.054-.029L37.781 0a.437.437 0 00-.148-.03H5.868a.426.426 0 00-.426.426v43.966c0 .028.003.055.008.083l.01.035.015.045.02.038.019.035a.457.457 0 00.049.06l.004.004 3.247 3.247a.426.426 0 00.603 0l2.946-2.946 2.946 2.946a.424.424 0 00.603 0l2.945-2.945 2.947 2.945a.426.426 0 00.602 0l2.946-2.945 2.945 2.945a.425.425 0 00.602 0l2.948-2.946 2.945 2.946a.423.423 0 00.602 0l2.946-2.945 2.947 2.945a.425.425 0 00.602 0l3.247-3.247.017-.02c.011-.014.025-.028.035-.044.01-.014.017-.03.024-.045.006-.01.011-.018.015-.028.009-.02.013-.04.018-.06l.007-.02a.441.441 0 00.008-.086V7.604a.45.45 0 00-.034-.163zM38.05 1.424l5.754 5.753H38.05V1.424zm6.356 42.76l-2.82 2.82-2.947-2.946a.426.426 0 00-.602 0l-2.945 2.946-2.945-2.946a.427.427 0 00-.603 0l-2.947 2.946-2.945-2.944v-.002a.425.425 0 00-.603 0l-2.945 2.946-2.947-2.946a.427.427 0 00-.603 0l-2.945 2.946-2.946-2.946a.427.427 0 00-.602 0l-2.947 2.946-2.82-2.82V.82h30.904v6.783c0 .235.191.426.426.426h6.782v36.154z" fill="#FF6B09"/><path d="M9.47 4.851h13.955a.426.426 0 000-.852H9.471a.426.426 0 100 .852zM9.47 7.486H31.85a.426.426 0 000-.852H9.47a.426.426 0 100 .852zM9.044 9.852V23.65c0 .235.19.426.427.426h31.758a.426.426 0 00.426-.426V9.852a.426.426 0 00-.426-.426H9.471a.426.426 0 00-.427.426zm9.418.426h22.34v3.668h-22.34v-3.668zm0 4.52h22.34v3.666h-22.34v-3.666zm0 4.518h22.34v3.908h-22.34v-3.908zm-8.565-9.038h7.713v3.668H9.897v-3.668zm0 4.52h7.713v3.666H9.897v-3.666zm0 4.518h7.713v3.908H9.897v-3.908zM41.229 25.994H9.471a.426.426 0 00-.427.426v13.797a.426.426 0 10.852 0v-4.333h7.714v4.333a.426.426 0 00.852 0v-4.333h22.34v4.333a.426.426 0 00.852 0V26.42a.424.424 0 00-.425-.426zM17.61 35.03H9.897v-3.665h7.713v3.665zm0-4.518H9.897v-3.666h7.713v3.666zm23.192 4.518h-22.34v-3.665h22.34v3.665zm0-4.518h-22.34v-3.666h22.34v3.666zM3.421-.032a.426.426 0 00-.426.426V44.36a.426.426 0 00.853 0V.394a.426.426 0 00-.427-.426zM1.078-.032A.426.426 0 00.65.394V44.36a.426.426 0 00.852 0V.394a.426.426 0 00-.425-.426z" fill="#FF6B09"/></svg>