<svg width="55" height="48" viewBox="0 0 55 48" fill="none" xmlns="http://www.w3.org/2000/svg">
<path d="M3.57139 44.1788H21.9163C22.846 46.1068 24.7913 47.3524 26.9866 47.3524H28.1451C30.3426 47.3524 32.2868 46.1074 33.2165 44.1788H51.5714C53.462 44.1788 55 42.6409 55 40.7503V7.89311C55 6.00249 53.462 4.46454 51.5714 4.46454H49.7198V2.9333C49.7198 1.67269 48.6942 0.647583 47.4341 0.647583H7.69751C6.43746 0.647583 5.41179 1.67269 5.41179 2.9333V4.46454H3.57139C1.68077 4.46454 0.142822 6.00249 0.142822 7.89311V40.7503C0.142822 42.6409 1.68077 44.1788 3.57139 44.1788ZM47.4319 37.1275H28.7143V10.5698C33.0406 11.1357 36.3951 14.8373 36.3951 19.3156V20.3463L36.1239 20.2865C35.8292 20.2235 35.5201 20.2765 35.2634 20.4394C35.0078 20.603 34.827 20.8608 34.7622 21.1571L32.943 29.4361C32.808 30.0516 33.1975 30.6604 33.8136 30.796L37.7455 31.6627C37.9486 31.7056 38.1551 31.7279 38.3616 31.7279C39.7444 31.7279 40.9218 30.7821 41.2232 29.4255L42.2756 24.6375C42.6227 23.0656 41.6261 21.5019 40.0491 21.1515L38.6808 20.85V19.3156C38.6808 13.5745 34.305 8.83692 28.7143 8.26019V2.9333H47.4341L47.4319 37.1275ZM36.7488 22.7648L39.5558 23.3831C39.9062 23.4612 40.1205 23.7949 40.0435 24.1454L38.991 28.9322C38.9151 29.2782 38.5323 29.493 38.2299 29.4288L35.4196 28.8094L36.7488 22.7648ZM7.69751 2.9333H26.4285V8.2585C20.8323 8.82993 16.4509 13.5706 16.4509 19.3156V20.8493L15.0803 21.1521C14.3169 21.3217 13.6651 21.7765 13.2466 22.4327C12.8259 23.0907 12.6875 23.8742 12.8571 24.6353L13.9073 29.4177C14.1919 30.7564 15.3962 31.7279 16.7712 31.7279C16.9777 31.7279 17.1841 31.7056 17.3951 31.661L21.3102 30.796C21.9252 30.6599 22.3147 30.0516 22.1797 29.4361L20.3605 21.1571C20.2957 20.8608 20.1149 20.6024 19.8593 20.4394C19.6026 20.2765 19.2924 20.2229 18.9977 20.2865L18.7366 20.3442V19.3156C18.7366 14.8335 22.0967 11.129 26.4285 10.5681V37.1275H7.69751V5.6074V2.9333ZM18.3739 22.7659L19.7042 28.81L16.9096 29.4272C16.5658 29.5047 16.2154 29.2776 16.1417 28.9355L15.0892 24.142C15.0513 23.9757 15.0814 23.8055 15.1718 23.6638C15.2634 23.5203 15.4073 23.421 15.5736 23.3836L18.3739 22.7659ZM2.42854 7.89311C2.42854 7.26309 2.94081 6.75026 3.57139 6.75026H5.41179V37.1275C5.41179 38.3881 6.43746 39.4132 7.69751 39.4132H47.4341C48.6942 39.4132 49.7198 38.3881 49.7198 37.1275V6.75026H51.5714C52.202 6.75026 52.7143 7.26309 52.7143 7.89311V40.7503C52.7143 41.3803 52.202 41.8931 51.5714 41.8931H32.4397C31.9375 41.8931 31.4944 42.2207 31.3471 42.7006C30.9129 44.1158 29.6261 45.0667 28.1451 45.0667H26.9866C25.5111 45.0667 24.2254 44.1197 23.7801 42.6872C23.6283 42.214 23.1886 41.8931 22.6919 41.8931H3.57139C2.94081 41.8931 2.42854 41.3803 2.42854 40.7503V7.89311Z" fill="#FF6B09"/>
</svg>
