<svg width="0" height="0" class="hidden">
  <symbol fill="none" xmlns="http://www.w3.org/2000/svg" id="instagram">
    <g clip-path="url(#clip0)">
      <path d="M39.315 7.155a7.283 7.283 0 0 0-6.47-6.47 120.815 120.815 0 0 0-25.69 0 7.283 7.283 0 0 0-6.47 6.47 120.815 120.815 0 0 0 0 25.69 7.283 7.283 0 0 0 6.47 6.47 120.82 120.82 0 0 0 25.69 0 7.283 7.283 0 0 0 6.47-6.47 120.82 120.82 0 0 0 0-25.69z" fill="url(#paint0_radial)"></path>
      <path d="M37.14 8.601a6.463 6.463 0 0 0-5.742-5.741 107.25 107.25 0 0 0-22.797 0A6.464 6.464 0 0 0 2.86 8.6c-.81 7.592-.81 15.206 0 22.797A6.463 6.463 0 0 0 8.6 37.14c7.592.81 15.206.81 22.797 0a6.463 6.463 0 0 0 5.741-5.74c.81-7.592.81-15.206 0-22.798z" fill="url(#paint1_linear)"></path>
      <path d="M.6 32.016c.027.277.055.553.085.83a7.283 7.283 0 0 0 6.47 6.47c8.555.912 17.136.912 25.69 0a7.283 7.283 0 0 0 6.47-6.47c.03-.277.058-.553.086-.83H.6z" fill="url(#paint2_linear)"></path>
      <path d="M39.315 32.845c.49-4.597.717-9.2.68-13.804l-9.142-9.143C29.71 8.594 28.041 7.78 26.08 7.709a172.253 172.253 0 0 0-12.108 0c-3.35.116-5.691 2.367-6.292 5.675-.106.585-.169 1.176-.252 1.765v9.699c.046.314.114.627.135.943.134 2.012.96 3.736 2.285 4.902l9.304 9.304a120.87 120.87 0 0 0 13.692-.682 7.283 7.283 0 0 0 6.47-6.47z" fill="url(#paint3_linear)"></path>
      <path d="M39.315 32.846a7.283 7.283 0 0 1-6.47 6.47c-4.558.486-9.126.713-13.691.681l-9.29-9.29c1.077.943 2.48 1.517 4.11 1.578 4.03.152 8.076.148 12.108.002 3.646-.132 6.285-2.83 6.398-6.476.122-3.872.122-7.753 0-11.625-.051-1.682-.642-3.162-1.621-4.282l9.137 9.137c.036 4.603-.19 9.208-.68 13.805z" fill="url(#paint4_linear)"></path>
      <path d="M24.72 15.669a6.407 6.407 0 1 0-9.051 9.051l14.823 14.823c.785-.068 1.57-.144 2.353-.228a7.284 7.284 0 0 0 6.47-6.47c.084-.784.16-1.568.228-2.353L24.72 15.67z" fill="url(#paint5_linear)"></path>
      <path d="M39.923 24.309l-11.93-11.93a1.524 1.524 0 1 0-2.133 2.133l13.85 13.851c.093-1.35.164-2.703.213-4.054z" fill="url(#paint6_linear)"></path>
      <path d="M7.429 15.149c.083-.589.146-1.18.252-1.764.6-3.309 2.943-5.56 6.292-5.675a171.52 171.52 0 0 1 12.108 0c3.645.13 6.285 2.83 6.399 6.476a186.03 186.03 0 0 1 0 11.624c-.114 3.647-2.753 6.345-6.398 6.477-4.032.145-8.077.149-12.109-.002-3.645-.137-6.166-2.842-6.41-6.494-.02-.316-.088-.63-.134-.944V15.15zm12.574 14.977c1.845 0 3.692.055 5.535-.013 2.889-.107 4.666-1.831 4.733-4.718.084-3.596.084-7.197 0-10.794-.067-2.886-1.845-4.65-4.733-4.712a261.253 261.253 0 0 0-11 0c-2.866.06-4.649 1.789-4.726 4.643-.1 3.642-.1 7.29 0 10.932.077 2.854 1.86 4.543 4.726 4.649 1.82.068 3.643.013 5.465.013z" fill="url(#paint7_linear)"></path>
      <path d="M7.429 15.149c.083-.589.146-1.18.252-1.764.6-3.309 2.943-5.56 6.292-5.675a171.52 171.52 0 0 1 12.108 0c3.645.13 6.285 2.83 6.399 6.476a186.03 186.03 0 0 1 0 11.624c-.114 3.647-2.753 6.345-6.398 6.477-4.032.145-8.077.149-12.109-.002-3.645-.137-6.166-2.842-6.41-6.494-.02-.316-.088-.63-.134-.944V15.15zm12.574 14.977c1.845 0 3.692.055 5.535-.013 2.889-.107 4.666-1.831 4.733-4.718.084-3.596.084-7.197 0-10.794-.067-2.886-1.845-4.65-4.733-4.712a261.253 261.253 0 0 0-11 0c-2.866.06-4.649 1.789-4.726 4.643-.1 3.642-.1 7.29 0 10.932.077 2.854 1.86 4.543 4.726 4.649 1.82.068 3.643.013 5.465.013z" fill="#fff"></path>
      <path d="M20 13.593a6.407 6.407 0 1 0 0 12.814 6.407 6.407 0 0 0 0-12.814zm0 10.608a4.201 4.201 0 1 1 0-8.402 4.201 4.201 0 0 1 0 8.402zm8.305-10.9a1.524 1.524 0 1 1-3.048 0 1.524 1.524 0 0 1 3.048 0z" fill="#fff"></path>
    </g>
    <defs>
      <radialGradient id="paint0_radial" cx="0" cy="0" r="1" gradientUnits="userSpaceOnUse" gradientTransform="translate(8.2 34.957) scale(44.113)">
        <stop stop-color="#FAE100"></stop>
        <stop offset=".054" stop-color="#FADC04"></stop>
        <stop offset=".117" stop-color="#FBCE0E"></stop>
        <stop offset=".183" stop-color="#FCB720"></stop>
        <stop offset=".251" stop-color="#FE9838"></stop>
        <stop offset=".305" stop-color="#FF7950"></stop>
        <stop offset=".492" stop-color="#FF1C74"></stop>
        <stop offset="1" stop-color="#6C1CD1"></stop>
      </radialGradient>
      <linearGradient id="paint1_linear" x1="15.341" y1="17.379" x2="-52.423" y2="-20.738" gradientUnits="userSpaceOnUse">
        <stop stop-color="#A1B5D8" stop-opacity="0"></stop>
        <stop offset=".309" stop-color="#90A2BD" stop-opacity=".31"></stop>
        <stop offset=".755" stop-color="#7C8B9C" stop-opacity=".757"></stop>
        <stop offset="1" stop-color="#748290"></stop>
      </linearGradient>
      <linearGradient id="paint2_linear" x1="20" y1="35.31" x2="20" y2="41.545" gradientUnits="userSpaceOnUse">
        <stop stop-color="#FAE100" stop-opacity="0"></stop>
        <stop offset=".307" stop-color="#FCA800" stop-opacity=".306"></stop>
        <stop offset=".627" stop-color="#FE7300" stop-opacity=".627"></stop>
        <stop offset=".869" stop-color="#FF5200" stop-opacity=".867"></stop>
        <stop offset="1" stop-color="#FF4500"></stop>
      </linearGradient>
      <linearGradient id="paint3_linear" x1="17.724" y1="17.668" x2="7.825" y2="7.769" gradientUnits="userSpaceOnUse">
        <stop stop-color="#833AB4" stop-opacity="0"></stop>
        <stop offset="1" stop-color="#833AB4"></stop>
      </linearGradient>
      <linearGradient id="paint4_linear" x1="27.414" y1="36.585" x2="22.473" y2="13.292" gradientUnits="userSpaceOnUse">
        <stop stop-color="#833AB4" stop-opacity="0"></stop>
        <stop offset="1" stop-color="#833AB4"></stop>
      </linearGradient>
      <linearGradient id="paint5_linear" x1="29.294" y1="29.294" x2="9.449" y2="9.449" gradientUnits="userSpaceOnUse">
        <stop stop-color="#833AB4" stop-opacity="0"></stop>
        <stop offset="1" stop-color="#833AB4"></stop>
      </linearGradient>
      <linearGradient id="paint6_linear" x1="30.766" y1="17.286" x2="24.204" y2="10.724" gradientUnits="userSpaceOnUse">
        <stop stop-color="#833AB4" stop-opacity="0"></stop>
        <stop offset="1" stop-color="#833AB4"></stop>
      </linearGradient>
      <linearGradient id="paint7_linear" x1="27.942" y1="12.113" x2="11.761" y2="28.294" gradientUnits="userSpaceOnUse">
        <stop stop-color="#833AB4"></stop>
        <stop offset=".092" stop-color="#9C3495"></stop>
        <stop offset=".293" stop-color="#DC2546"></stop>
        <stop offset=".392" stop-color="#FD1D1D"></stop>
        <stop offset=".559" stop-color="#FC6831"></stop>
        <stop offset=".689" stop-color="#FC9B40"></stop>
        <stop offset=".752" stop-color="#FCAF45"></stop>
        <stop offset=".781" stop-color="#FDB750"></stop>
        <stop offset=".866" stop-color="#FECB6A"></stop>
        <stop offset=".942" stop-color="#FFD87A"></stop>
        <stop offset="1" stop-color="#FFDC80"></stop>
      </linearGradient>
      <clipPath id="clip0">
        <path fill="#fff" d="M0 0h40v40H0z"></path>
      </clipPath>
    </defs>
  </symbol>
  <symbol  fill="none" xmlns="http://www.w3.org/2000/svg" id="logo-fire">
    <path d="M13.839 10.576c-.181-.405-.43-.804-.794-1.264-.919-1.156-1.2-3.733-1.202-3.758a.311.311 0 0 0-.215-.263.316.316 0 0 0-.33.09c-1.096 1.227-.635 3.121-.386 3.878.068.208.143.452.196.699.405 2-.377 2.905-.56 3.087-.178.05-.3.025-.412-.096-.386-.423-.513-1.81-.333-3.618a3.7 3.7 0 0 0-.025-1.008c-.38-2.222-1.777-3.647-2.132-4.147C6.668 2.729 6.568.322 6.566.3A.31.31 0 1 0 6.08.056C4.447 1.166 4.587 3.84 4.814 5.332c.053.346.156.698.333 1.143.633 1.592-.124 3.647-.13 3.665-.007.019-.013.034-.016.053-.096.507-.258.81-.439.81a.212.212 0 0 1-.06-.01c-.22-.046-.335-.281-.338-.485-.013-2.636-2.656-3.523-2.684-3.532a.31.31 0 0 0-.33.092.304.304 0 0 0-.044.34c.031.065.13.35.062 1.354a11.542 11.542 0 0 1-.489 2.652 12.929 12.929 0 0 0-.523 4.088c.484 5.263 8.047 6.185 12.536 3.22a4.54 4.54 0 0 0 1.19-1.103c1.656-2.287.681-5.393-.044-7.043zM2.334 15.604a.309.309 0 0 1-.293.325h-.019a.31.31 0 0 1-.311-.291 11.15 11.15 0 0 1 .012-1.437.311.311 0 1 1 .623.043c-.034.489-.04.934-.012 1.36zm.152-2.738a.309.309 0 0 1-.308.272c-.012 0-.025 0-.04-.003a.312.312 0 0 1-.271-.343l.15-1.193a.314.314 0 0 1 .348-.269.31.31 0 0 1 .27.346l-.149 1.19z" fill="#FF6B09"></path>
  </symbol>
  <symbol viewBox="0 0 20 20" fill="none" xmlns="http://www.w3.org/2000/svg" id="phone">
    <path d="M2.91.002a1.252 1.252 0 0 0-.87.407L.42 2.19c.002-.005-.006-.004-.052.06a.394.394 0 0 0-.057.11c-.66 2.103-.217 4.416.86 6.616 1.078 2.2 2.798 4.304 4.771 6.032 1.974 1.727 4.201 3.079 6.325 3.749 2.123.67 4.182.662 5.708-.445a.407.407 0 0 0 .046-.041c.04-.04.042-.045.035-.039l.006-.008 1.614-1.775a1.263 1.263 0 0 0-.083-1.774l-3.829-3.482a1.263 1.263 0 0 0-1.775.083l-1.732 1.905c-1.406-.408-2.608-1.098-3.765-2.15C7.335 9.982 6.534 8.85 5.996 7.488l1.732-1.905a1.262 1.262 0 0 0-.084-1.775L3.816.325A1.253 1.253 0 0 0 2.91 0zm.037.78a.469.469 0 0 1 .338.126L7.113 4.39a.46.46 0 0 1 .032.663L5.23 7.157a.394.394 0 0 0-.078.4c.581 1.585 1.519 2.886 2.808 4.059 1.29 1.173 2.672 1.984 4.306 2.412a.395.395 0 0 0 .39-.116l1.916-2.104a.46.46 0 0 1 .662-.031l3.83 3.482a.46.46 0 0 1 .03.662l-1.6 1.76c-1.253.898-3.017.949-4.992.325-1.983-.626-4.136-1.922-6.041-3.59-1.906-1.668-3.564-3.704-4.583-5.784-1.009-2.058-1.375-4.14-.82-5.974L2.622.94a.468.468 0 0 1 .325-.157z" fill="#FF6B09"></path>
  </symbol>
</svg>