<svg width="0" height="0" class="hidden">
  <symbol viewBox="0 0 66 48" fill="none" xmlns="http://www.w3.org/2000/svg" id="book">
    <path d="M29.4 6.912H8.94v1.532H29.4V6.912zm0 5.712H12.004v1.531H29.4v-1.531zm0 5.712H8.94v1.532H29.4v-1.532zm0 5.712H12.004v1.532H29.4v-1.532zm0 5.712H8.94v1.531H29.4V29.76zm0 5.712H12.004v1.532H29.4v-1.532zm28.085-28.56h-20.46v1.532h20.46V6.912zm-3.064 5.712H37.025v1.531h17.396v-1.531zm3.064 5.712h-20.46v1.532h20.46v-1.532zm-3.064 5.712H37.025v1.532h17.396v-1.532zm3.064 5.712h-20.46v1.531h20.46V29.76zm-3.064 5.712H37.025v1.532h17.396v-1.532z" fill="#fff"></path>
    <path d="M64.872 5.168h-2.808V.95a.766.766 0 0 0-.766-.766H38.4A5.924 5.924 0 0 0 33.213 3.2 5.925 5.925 0 0 0 28.024.184H5.128a.766.766 0 0 0-.766.766v4.218H1.553a.766.766 0 0 0-.766.766V47.05c0 .423.343.766.766.766h63.32a.766.766 0 0 0 .765-.766V5.934a.766.766 0 0 0-.766-.766zM38.401 1.716h22.13V42.74H36.768c-1.054 0-2.107.444-2.788 1.02V6.128a4.398 4.398 0 0 1 4.42-4.412zm-32.508 0h22.131a4.385 4.385 0 0 1 4.413 4.243c.001.033.004.136.01.169v37.63c-.68-.574-1.722-1.017-2.778-1.017H5.893V1.716zM2.32 6.7h2.043v36.807c0 .423.343.766.766.766h24.54c1.168 0 2.297.766 2.658 2.011H2.319V6.7zm61.787 39.584H34.1a2.768 2.768 0 0 1 2.667-2.011h24.53a.766.766 0 0 0 .767-.766V6.7h2.042v39.584z" fill="#fff"></path>
  </symbol>
  <symbol viewBox="0 0 48 47" fill="none" xmlns="http://www.w3.org/2000/svg" id="call">
    <path d="M44.32-.188H21.193a2.733 2.733 0 0 0-2.73 2.73v9.574L1.28 19.326a.559.559 0 0 0-.071.997L3.4 21.634V35.61a2.525 2.525 0 0 0-1.961 2.458v1.347c0 .31.25.56.56.56h3.923a.56.56 0 0 0 .56-.56v-1.347c0-1.198-.842-2.2-1.963-2.457V22.304l1.733 1.037c-.054.4-.007-.696-.025 6.506 0 2.368 6.064 3.636 12.235 3.709v10.906a2.727 2.727 0 0 0 2.729 2.726h23.126a2.73 2.73 0 0 0 2.728-2.728c0 .075-.003-2.31 0-41.917 0-1.486-1.228-2.731-2.726-2.731zM5.363 38.067v.788H2.56v-.788c0-.775.627-1.406 1.399-1.406.775 0 1.405.631 1.405 1.406zm38.957 7.999H21.193a1.61 1.61 0 0 1-1.335-.707 1.599 1.599 0 0 1-.275-.899v-3.78h26.341v3.782c0 .876-.73 1.604-1.604 1.604zm1.604-6.505H19.582v-6.002c3.012-.034 12.242-.698 12.242-3.712-.004-4.524.008-6.36-.014-6.515l5.024-3.01a.56.56 0 0 0-.071-.995l-17.181-7.212V7.442h26.342v32.119zM19.022 26.132c-3.103 0-9.08.401-11.675 2.096.016-5.185-.18-4.847.458-5.287 1.613-1.187 6.226-2.016 11.217-2.016 2.177 0 11.683.598 11.683 2.61v4.694c-2.62-1.711-8.566-2.097-11.683-2.097zm.56-23.59a1.61 1.61 0 0 1 1.61-1.608h23.126c.888 0 1.606.732 1.606 1.608v3.781H19.583v-3.78zm-.56 10.552l16.289 6.837-4.036 2.415c-2.146-2.128-9.244-2.54-12.253-2.54-3.013 0-10.111.413-12.252 2.54l-4.037-2.415 16.29-6.837zM7.347 29.847c0-.905 4.01-2.596 11.675-2.596 7.67 0 11.683 1.69 11.683 2.596 0 .906-4.013 2.597-11.683 2.597-7.665 0-11.675-1.69-11.675-2.597z" fill="#FF6B09"></path>
    <path d="M32.755 41.523c-1.02 0-1.85.83-1.85 1.851 0 1.02.83 1.851 1.85 1.851s1.85-.83 1.85-1.851c0-1.02-.83-1.85-1.85-1.85zm0 2.583a.733.733 0 0 1 0-1.464.732.732 0 0 1 0 1.464zM34.89 3.069h-4.27v1.119h4.27V3.069z" fill="#FF6B09"></path>
  </symbol>
  <symbol viewBox="0 0 55 48" fill="none" xmlns="http://www.w3.org/2000/svg" id="headphones">
    <path d="M3.571 44.179h18.345a5.605 5.605 0 0 0 5.07 3.173h1.16a5.603 5.603 0 0 0 5.07-3.173h18.355A3.432 3.432 0 0 0 55 40.75V7.893a3.432 3.432 0 0 0-3.429-3.428H49.72V2.933A2.288 2.288 0 0 0 47.434.648H7.698a2.288 2.288 0 0 0-2.286 2.285v1.532h-1.84a3.432 3.432 0 0 0-3.43 3.428V40.75a3.432 3.432 0 0 0 3.43 3.429zm43.86-7.052H28.715V10.57c4.327.566 7.681 4.267 7.681 8.746v1.03l-.271-.06a1.143 1.143 0 0 0-1.362.87l-1.819 8.28a1.142 1.142 0 0 0 .87 1.36l3.932.867c.204.043.41.065.617.065 1.382 0 2.56-.946 2.861-2.303l1.053-4.788a2.93 2.93 0 0 0-2.227-3.486l-1.368-.301v-1.534c0-5.741-4.376-10.48-9.967-11.056V2.933h18.72l-.002 34.194zM36.75 22.765l2.807.618c.35.078.565.412.488.762l-1.053 4.787c-.076.346-.459.561-.761.497l-2.81-.62 1.329-6.044zM7.698 2.933h18.73v5.325c-5.596.572-9.977 5.313-9.977 11.058v1.533l-1.37.303a2.908 2.908 0 0 0-1.834 1.28 2.895 2.895 0 0 0-.39 2.203l1.05 4.783a2.938 2.938 0 0 0 3.488 2.243l3.915-.865a1.143 1.143 0 0 0 .87-1.36l-1.82-8.279a1.141 1.141 0 0 0-1.362-.87l-.261.057v-1.028c0-4.482 3.36-8.187 7.692-8.748v26.56H7.697V2.932zm10.676 19.833l1.33 6.044-2.794.617a.649.649 0 0 1-.768-.491l-1.053-4.794a.625.625 0 0 1 .083-.478.64.64 0 0 1 .402-.28l2.8-.618zM2.429 7.893c0-.63.512-1.143 1.142-1.143h1.84v30.377a2.288 2.288 0 0 0 2.287 2.286h39.736a2.288 2.288 0 0 0 2.286-2.285V6.75h1.851c.631 0 1.143.513 1.143 1.143V40.75c0 .63-.512 1.143-1.143 1.143H32.44c-.502 0-.946.328-1.093.808a3.332 3.332 0 0 1-3.202 2.366h-1.158a3.343 3.343 0 0 1-3.207-2.38 1.143 1.143 0 0 0-1.088-.794H3.572a1.144 1.144 0 0 1-1.143-1.143V7.893z" fill="#FF6B09"></path>
  </symbol>
  <symbol viewBox="0 0 46 48" fill="none" xmlns="http://www.w3.org/2000/svg" id="magazine">
    <path d="M45.226 7.441l-.001-.004a.42.42 0 0 0-.036-.067l-.004-.005a.413.413 0 0 0-.05-.063L37.925.093a.395.395 0 0 0-.06-.049c-.005-.003-.01-.005-.014-.009a.449.449 0 0 0-.054-.029L37.78 0a.437.437 0 0 0-.148-.03H5.867a.426.426 0 0 0-.425.426v43.966a.39.39 0 0 0 .008.083l.01.035.015.045c.005.013.013.025.02.038.006.011.011.024.019.035a.457.457 0 0 0 .049.06l.004.004 3.247 3.247a.426.426 0 0 0 .602 0l2.947-2.946 2.946 2.946a.423.423 0 0 0 .603 0l2.945-2.945 2.947 2.945a.426.426 0 0 0 .602 0l2.945-2.945 2.946 2.945a.425.425 0 0 0 .602 0l2.947-2.946 2.946 2.946a.423.423 0 0 0 .602 0l2.946-2.945 2.947 2.945a.425.425 0 0 0 .602 0l3.247-3.247.016-.02c.012-.014.025-.028.036-.044.01-.014.017-.03.024-.045.006-.01.011-.018.014-.028.01-.02.014-.04.019-.06l.007-.02a.449.449 0 0 0 .008-.086V7.604a.447.447 0 0 0-.034-.163zM38.05 1.424l5.754 5.753H38.05V1.424zm6.356 42.76l-2.82 2.82-2.947-2.946a.426.426 0 0 0-.602 0l-2.945 2.946-2.946-2.946a.427.427 0 0 0-.602 0l-2.948 2.946-2.944-2.944v-.002a.425.425 0 0 0-.603 0l-2.945 2.946-2.947-2.946a.427.427 0 0 0-.603 0l-2.945 2.946-2.946-2.946a.427.427 0 0 0-.603 0l-2.946 2.946-2.82-2.82V.82h30.904v6.783c0 .235.19.426.426.426h6.782v36.154z" fill="#FF6B09"></path>
    <path d="M9.47 4.851h13.955a.426.426 0 0 0 0-.852H9.471a.426.426 0 1 0 0 .852zm0 2.635h22.38a.426.426 0 0 0 0-.852H9.47a.426.426 0 1 0 0 .852zm-.426 2.366V23.65c0 .235.19.426.427.426h31.758a.426.426 0 0 0 .426-.426V9.852a.426.426 0 0 0-.426-.426H9.47a.426.426 0 0 0-.427.426zm9.418.426h22.34v3.668h-22.34v-3.668zm0 4.52h22.34v3.666h-22.34v-3.666zm0 4.518h22.34v3.908h-22.34v-3.908zm-8.565-9.038h7.713v3.668H9.897v-3.668zm0 4.52h7.713v3.666H9.897v-3.666zm0 4.518h7.713v3.908H9.897v-3.908zm31.332 6.678H9.47a.426.426 0 0 0-.427.426v13.797a.426.426 0 1 0 .852 0v-4.333h7.714v4.333a.426.426 0 0 0 .852 0v-4.333h22.34v4.333a.426.426 0 0 0 .852 0V26.42a.424.424 0 0 0-.425-.426zM17.61 35.03H9.897v-3.665h7.713v3.665zm0-4.518H9.897v-3.666h7.713v3.666zm23.192 4.518h-22.34v-3.665h22.34v3.665zm0-4.518h-22.34v-3.666h22.34v3.666zM3.421-.032a.426.426 0 0 0-.426.426V44.36a.426.426 0 0 0 .852 0V.394a.426.426 0 0 0-.426-.426zm-2.344 0a.426.426 0 0 0-.426.426V44.36a.426.426 0 0 0 .852 0V.394a.426.426 0 0 0-.426-.426z" fill="#FF6B09"></path>
  </symbol>
  <symbol viewBox="0 0 40 47" fill="none" xmlns="http://www.w3.org/2000/svg" id="man">
    <path d="M-.154 46.638h40.177c.2-4.582-.13-12.184-2.946-15.802l-.102-.13-6.156-3.09c.134-.451.2-.864.226-1.168a2.14 2.14 0 0 0-.15-1.017c-1.015-2.43-3.164-3.708-4.346-4.253a7.54 7.54 0 0 0 .704-2.301 1.975 1.975 0 0 0 1.384-1.426l.719-2.92a1.975 1.975 0 0 0-.227-1.503 1.967 1.967 0 0 0-.44-.501c2.025-4.602-1.368-8.94-1.553-9.17C23.462-.614 18.82.128 18.574.173 11.875 1.575 9.29 6.709 10.75 12.73a1.977 1.977 0 0 0-.453 1.8l.722 2.923c.175.702.709 1.23 1.373 1.421a7.52 7.52 0 0 0 1.729 3.84v2.314c-9.614 4.923-3.522 1.782-11.227 5.68-.015.072-3.614 3.898-3.08 15.237l.033.693zm38.781-1.454h-6.612v-2.778l4.373-10.012c2.191 3.637 2.272 10.58 2.24 12.79zm-9.025-18.86c-.255 2.932-1.862 2.046-2.855 4.304-.78-.858-1.015-1.887-.805-2.989.379-2.023-.856-2.623-.55-4.749l.046-.048v-.007c.026-.03.27-.32.34-.411 2.616 1.14 3.876 3.261 3.825 3.9zm-14.034-2.303a7.449 7.449 0 0 0 8.362.112c.168 1.67.82 2.005.59 3.235a5.408 5.408 0 0 0-.082.674l-4.503 5.075-5.757-6.49 1.39-.725v-1.881zm-1.81-6.212v-7.758c.7-1.296 1.656-2.236 2.843-2.8 3.18 1.8 6.84 4.485 9.296 7.188-.003 3.441.01 3.45-.013 3.733l-.002.018c-.192 3.126-2.761 5.716-6.057 5.716-3.203 0-5.863-2.515-6.055-5.747a4.102 4.102 0 0 1-.012-.35zm-.897 9.52l7.074 7.975 4.75-5.353c.108.313.26.608.434.894l-5.184 6.483-7.73-9.669.656-.33zm14.484-10.69v-2.247l.54-.62c.03 1.139.153-.204-.54 2.867zM18.842 1.6c.288.018 4.148-.587 7.199 2.707.12.15 2.604 3.35 1.606 6.851-.342-1.558-.937-3.554-1.878-4.506l-1.028 1.024c.929.94 1.54 3.806 1.771 5.29-4.26-4.458-9.756-7.28-9.832-7.327-.275.171-2.601.613-4.29 3.897l-.08.156v2.412l-.214.002c-1.073-5.182.982-9.298 6.746-10.506zm-6.898 12.002l.365 1.481v1.557l-.607-2.46c-.09-.366.182-.505.242-.578zm-1.065 14.722l9.056 11.326 6.127-7.664c.667.597.987.682 2.4 1.408l-.476-1.617c-.121-.41.358-1.069.647-1.371a4.38 4.38 0 0 0 1.586-1.466l5 2.51-4.653 10.65v3.083H9.303V42.1L4.649 31.452l6.23-3.128zM3.48 32.397l4.374 10.01v2.777H1.242c-.033-2.21.049-9.15 2.238-12.787z" fill="#FF6B09"></path>
  </symbol>
  <symbol viewBox="0 0 49 48" fill="none" xmlns="http://www.w3.org/2000/svg" id="people">
    <path d="M2.99 18.837v4.247c0 .228.104.443.284.585a16.65 16.65 0 0 0 10.255 3.543c1.111 0 2.223-.116 3.31-.336a18.027 18.027 0 0 0 7.335 1.548c2.56 0 5.027-.524 7.335-1.548 4.636.937 9.577-.069 13.564-3.207a.745.745 0 0 0 .284-.585v-4.247c0-.623-.31-1.191-.862-1.54l-5.801-3.264c1.269-1.61 2.214-3.903 2.379-5.87.481-3.384-2.278-6.969-6.249-6.969-1.67 0-3.257.688-4.421 1.84-.04.04-.087.074-.126.115-.036.038-.065.081-.1.12-.023.025-.043.053-.066.08C28.976 1.278 26.795 0 24.224 0c-.25 0-.494.017-.737.042-.015-.001-.028-.009-.043-.009-.138 0-.43.037-.586.082-.023.006-.04.023-.061.031a6.724 6.724 0 0 0-4.52 3.234 6.263 6.263 0 0 0-4.768-2.185c-5.862 0-8.463 6.918-3.836 12.871l-5.854 3.25c-.52.329-.83.898-.83 1.521zm28.505 6.405c-.126.061-.25.127-.377.185l-.003.001a16.505 16.505 0 0 1-6.941 1.509 16.556 16.556 0 0 1-10.012-3.342V19.29c0-.146.071-.276.153-.331l6.813-3.787c.848.72 1.93 1.248 3.053 1.248 1.08 0 2.248-.536 3.078-1.265l6.73 3.78c.125.08.196.209.196.355v4.305a16.635 16.635 0 0 1-2.69 1.647zm12.236-6.67a.303.303 0 0 1 .138.265v3.881c-2.953 2.216-6.505 3.222-10.105 2.97a19.791 19.791 0 0 0 1.624-1.141.744.744 0 0 0 .285-.585V19.29c0-.652-.328-1.253-.916-1.63l-3.575-2.009.87-.482c1.054.86 1.96 1.116 2.772 1.116.994 0 2.04-.487 2.817-1.138l6.09 3.426zm-8.907-15.89c2.071 0 3.89 1.353 4.532 3.213a5.55 5.55 0 0 1-3.355-1.713.744.744 0 0 0-1.183.126 5.524 5.524 0 0 1-3.82 2.64l-.001-.005a7.34 7.34 0 0 0-.049-.98l-.011-.099a8.248 8.248 0 0 0-.182-.913c.844-1.353 2.413-2.27 4.07-2.27zm-3.99 5.783a6.966 6.966 0 0 0 4.747-2.642c1.15.943 2.61 1.515 4.052 1.584-.01 2.688-2.206 7.39-4.809 7.39-2.005 0-3.718-2.868-4.358-4.857.163-.511.281-1.003.368-1.475zm.151 5.594l-1.329.736-1.342-.754c.498-.62.954-1.339 1.345-2.12.375.79.826 1.515 1.326 2.138zM28.98 9.697c-.717 2.14-2.557 5.235-4.8 5.235-2.613 0-4.838-4.296-5.262-7.044.113-.028 3.644.19 6.074-3.001 1.234 1.032 2.898 1.715 4.516 1.782.02.97-.216 2.11-.528 3.028zm-4.756-8.21c4.17 0 4.964 3.59 5.029 3.664a6.193 6.193 0 0 1-3.845-1.914.744.744 0 0 0-1.184.13 6.112 6.112 0 0 1-3.62 2.801 6.465 6.465 0 0 1-1.75.23c.204-2.732 2.394-4.91 5.37-4.91zm-5.532 10.42c.386.772.844 1.51 1.369 2.158l-1.313.73-1.36-.765a11.62 11.62 0 0 0 1.304-2.123zm-5.183-9.225c1.687 0 3.232.856 4.094 2.271-.043.15-.16.747-.175.822a5.505 5.505 0 0 1-2.731-1.594.743.743 0 0 0-1.183.13 5.568 5.568 0 0 1-4.766 2.722c.237-2.44 2.277-4.35 4.761-4.35zM8.814 8.516a7.061 7.061 0 0 0 5.463-2.693 6.938 6.938 0 0 0 3.084 1.441c.043.862.268 1.91.525 2.683-.41 1.26-1.199 2.76-2.176 3.758-.006.006-.014.009-.02.015-.612.645-1.482 1.078-2.166 1.078-2.391 0-4.262-3.762-4.71-6.282zM4.477 18.837c0-.113.05-.209.101-.243l6.174-3.426c.37.309.456.344.53.398.727.484 1.393.724 2.301.724.968 0 1.849-.41 2.624-1.041.043-.034.09-.067.132-.102l.881.495-3.67 2.041a1.905 1.905 0 0 0-.876 1.607v4.672c0 .228.105.443.285.584.475.373 1.091.809 1.624 1.142-3.651.25-7.204-.792-10.106-2.97v-3.881z" fill="#FF6B09"></path>
    <path d="M46.888 31.171a3.092 3.092 0 0 0-3.01-.165l-9.18 4.435a3.166 3.166 0 0 0-3.16-3.107l-5.264.001c-2.595-2.256-5.912-3.638-8.928-3.71-2.974-.07-5.643-.09-6.888-.096v-1.503H0v17.275h10.458v-2.069C13.325 43.879 20.866 48 24.445 48c.08 0 .16-.002.236-.007 6.294-.353 21.136-10.797 22.115-11.49a3.119 3.119 0 0 0 1.551-2.694 3.096 3.096 0 0 0-1.46-2.638zM8.97 42.814H1.488v-14.3H8.97v14.3zm37.06-7.587a.635.635 0 0 0-.065.041c-.154.11-15.421 10.907-21.367 11.24a3.651 3.651 0 0 1-.18.005c-3.14 0-10.792-4.129-13.96-6.001V30.017c1.24.005 3.894.025 6.853.095 2.755.067 5.814 1.382 8.183 3.519l.212.192 5.832-.002a1.68 1.68 0 0 1 1.678 1.678 1.68 1.68 0 0 1-1.678 1.679H20.825v1.487h10.713a3.15 3.15 0 0 0 2.51-1.259l10.476-5.06a1.593 1.593 0 0 1 1.574.086c.484.303.762.805.762 1.377a1.63 1.63 0 0 1-.83 1.418zM24.917 18.238H23.43v1.38h1.487v-1.38zm0 2.75H23.43v1.38h1.487v-1.38zm0 2.752H23.43v1.379h1.487v-1.38z" fill="#FF6B09"></path>
  </symbol>
  <symbol viewBox="0 0 400 472" fill="none" xmlns="http://www.w3.org/2000/svg" id="Vector">
    <path d="M417.788 322.005c-5.498-12.326-13.081-24.463-24.171-38.483-27.964-35.19-36.495-113.662-36.59-114.414-.379-3.764-3.033-6.869-6.541-7.998a9.61 9.61 0 0 0-10.048 2.728c-33.366 37.355-19.337 95.032-11.754 118.085 2.086 6.304 4.361 13.737 5.971 21.264 12.323 60.877-11.47 88.446-17.062 93.997-5.403 1.505-9.1.753-12.513-2.917-11.754-12.89-15.64-55.137-10.143-110.18 1.139-11.197.854-21.265-.758-30.674-11.595-67.654-54.109-111.051-64.932-126.27-29.765-44.034-32.798-117.331-32.893-117.99-.095-3.481-2.085-6.586-5.213-8.092-3.034-1.505-6.731-1.317-9.574.659-49.671 33.779-45.406 115.167-38.486 160.613 1.612 10.538 4.74 21.265 10.143 34.814 19.243 48.457-3.792 111.027-3.981 111.592-.19.564-.379 1.034-.474 1.599-2.939 15.431-7.868 24.652-13.366 24.652-.569 0-1.137-.094-1.801-.282-6.73-1.412-10.237-8.563-10.332-14.773-.379-80.259-80.857-107.263-81.71-107.546-3.603-1.129-7.584-.094-10.049 2.823-2.559 2.917-3.033 6.963-1.327 10.35.948 1.976 3.982 10.632 1.896 41.212-1.8 27.475-6.825 54.667-14.882 80.73C-1.95 409.98 1.083 469.164 1.273 471.986c14.724 160.244 244.979 188.322 381.631 98.043 14.977-9.88 27.205-21.17 36.211-33.59 50.43-69.628 20.76-164.189-1.327-214.434zM67.533 475.091c.285 5.175-3.697 9.598-8.91 9.88h-.569c-5.024 0-9.195-3.858-9.48-8.845-.852-13.737-.663-28.133.38-43.752.38-5.175 4.93-9.033 10.143-8.751 5.213.376 9.195 4.892 8.815 10.067-1.043 14.868-1.232 28.417-.379 41.401zm4.644-83.364c-.569 4.798-4.645 8.28-9.384 8.28-.38 0-.759 0-1.233-.094-5.118-.659-8.815-5.27-8.247-10.444l4.55-36.32c.664-5.081 5.309-8.75 10.617-8.185 5.214.658 8.91 5.363 8.247 10.538l-4.55 36.225z" fill="#3D3D3D"></path>
  </symbol>
</svg>