<svg aria-hidden="true" style="position: absolute; width: 0; height: 0; overflow: hidden;" version="1.1" xmlns="http://www.w3.org/2000/svg" xmlns:xlink="http://www.w3.org/1999/xlink">
<defs>
<symbol id="icon-quotes" viewBox="0 0 32 32">
<path d="M23.714 4.148c1.429 0 2.778 0.385 4.048 1.156s2.302 1.879 3.095 3.324c0.762 1.445 1.143 3.148 1.143 5.107s-0.476 3.87-1.429 5.733c-0.317 0.674-0.889 1.542-1.714 2.602-0.857 1.060-1.651 1.975-2.381 2.746l-3 3.035-2.143-3.565c1.492-0.931 2.81-2.088 3.952-3.469 1.143-1.349 1.714-2.586 1.714-3.71 0-0.578-0.127-1.044-0.381-1.397-1.111 0.803-2.349 1.204-3.714 1.204-0.984 0-1.921-0.305-2.81-0.915-0.921-0.578-1.651-1.349-2.19-2.313-0.571-0.931-0.857-1.895-0.857-2.891 0-1.124 0.333-2.2 1-3.228 0.635-1.028 1.476-1.863 2.524-2.505 1.016-0.61 2.063-0.915 3.143-0.915zM6.619 4.148c1.429 0 2.778 0.385 4.048 1.156s2.302 1.879 3.095 3.324c0.762 1.445 1.143 3.148 1.143 5.107 0 1.381-0.175 2.618-0.524 3.71-0.349 1.124-0.952 2.297-1.81 3.517-0.825 1.156-1.603 2.12-2.333 2.891-0.73 0.803-2 2.136-3.81 3.999l-2.143-3.565c1.492-0.931 2.81-2.088 3.952-3.469 1.143-1.349 1.714-2.586 1.714-3.71 0-0.578-0.127-1.044-0.381-1.397-1.111 0.803-2.349 1.204-3.714 1.204-0.984 0-1.921-0.305-2.81-0.915-0.921-0.578-1.651-1.349-2.19-2.313-0.571-0.931-0.857-1.895-0.857-2.891 0-1.124 0.317-2.2 0.952-3.228s1.476-1.863 2.524-2.505c1.016-0.61 2.063-0.915 3.143-0.915z"></path>
</symbol>
<symbol id="icon-burger" viewBox="0 0 20 14">
<path d="M0 1H20"/>
<path d="M0 7H20"/>
<path d="M0 13H20"/>
</symbol>
<!-- <symbol id="icon-close" viewBox="0 0 32 32">
<path stroke-linejoin="miter" stroke-linecap="butt" stroke-miterlimit="4" stroke-width="3" d="M2.519 2l26.963 28"></path>
<path stroke-linejoin="miter" stroke-linecap="butt" stroke-miterlimit="4" stroke-width="3" d="M2 29.481l28-26.963"></path>
</symbol> -->
<symbol id="icon-close" viewBox="0 0 16 16">
<path d="M1.25928 1L14.7408 15"/>
<path d="M1 14.7407L15 1.25924"/>
</symbol>
<symbol id="icon-ellipse" viewBox="0 0 32 32">
<path d="M0 16c0 8.837 7.163 16 16 16s16-7.163 16-16c0-8.837-7.163-16-16-16s-16 7.163-16 16z"></path>
</symbol>
<symbol id="icon-telegram" viewBox="0 0 32 32">
<path d="M12.613 19.671l-0.491 6.444c0.702 0 1.006-0.282 1.371-0.62l3.293-2.937 6.822 4.663c1.251 0.651 2.133 0.308 2.47-1.074l4.478-19.585 0.001-0.001c0.397-1.726-0.669-2.401-1.888-1.978l-26.323 9.406c-1.796 0.651-1.769 1.585-0.305 2.009l6.73 1.954 15.632-9.129c0.736-0.455 1.404-0.203 0.854 0.252l-12.645 10.597z"></path>
</symbol>
<symbol id="icon-facebook" viewBox="0 0 32 32">
<path d="M22.143 15.972h-4.034v14.865h-6.112v-14.865h-2.907v-5.224h2.907v-3.381c0-2.418 1.142-6.203 6.166-6.203l4.527 0.019v5.071h-3.285c-0.539 0-1.296 0.271-1.296 1.424v3.075h4.567l-0.534 5.219z"></path>
</symbol>
<symbol id="icon-home" viewBox="0 0 32 32">
<path d="M31.618 15.643c0.553-0.608 0.5-1.541-0.119-2.082l-13.636-11.931c-0.619-0.541-1.611-0.53-2.217 0.026l-13.682 12.542c-0.606 0.556-0.636 1.487-0.066 2.079l0.343 0.357c0.569 0.592 1.489 0.663 2.053 0.157l1.023-0.916v13.406c0 0.823 0.666 1.488 1.488 1.488h5.333c0.822 0 1.488-0.666 1.488-1.488v-9.379h6.803v9.379c-0.012 0.822 0.576 1.488 1.398 1.488h5.652c0.822 0 1.488-0.666 1.488-1.488v-13.217c0 0 0.282 0.247 0.631 0.554s1.078 0.061 1.631-0.548l0.388-0.426z"></path>
</symbol>
<symbol id="icon-arrow" viewBox="0 0 32 32">
<path stroke-linejoin="round" stroke-linecap="round" stroke-miterlimit="4" stroke-width="6.4" d="M10.375 3.2l12.88 12.8-12.88 12.8"></path>
</symbol>
<symbol id="icon-github" viewBox="0 0 32 32">
<path d="M16 0c-8.788 0-16 7.212-16 16 0 7.499 5.262 14.312 12.25 16v-5.293c-0.692 0.152-1.33 0.156-2.034-0.052-0.946-0.279-1.714-0.909-2.284-1.869-0.364-0.613-1.008-1.278-1.68-1.23l-0.165-1.868c1.453-0.124 2.711 0.886 3.457 2.14 0.332 0.558 0.713 0.884 1.203 1.029 0.473 0.14 0.982 0.072 1.574-0.137 0.149-1.186 0.692-1.63 1.102-2.255v-0.001c-4.167-0.622-5.828-2.832-6.488-4.578-0.874-2.317-0.405-5.212 1.14-7.041 0.030-0.036 0.084-0.129 0.063-0.194-0.708-2.139 0.155-3.909 0.187-4.097 0.817 0.242 0.95-0.243 3.551 1.337l0.449 0.27c0.188 0.112 0.129 0.048 0.317 0.034 1.086-0.295 2.23-0.458 3.358-0.472 1.136 0.015 2.273 0.178 3.404 0.484l0.145 0.015c-0.013-0.002 0.040-0.009 0.127-0.062 3.248-1.968 3.132-1.324 4.003-1.608 0.032 0.188 0.883 1.987 0.182 4.099-0.095 0.291 2.816 2.956 1.203 7.235-0.659 1.746-2.32 3.957-6.487 4.578v0.001c0.534 0.814 1.176 1.247 1.173 2.927v6.608c6.988-1.688 12.25-8.501 12.25-16 0-8.788-7.212-16-16-16v0z"></path>
</symbol>
<symbol id="icon-group" viewBox="0 0 256 32"><path d="M144 16c0 8.837-7.163 16-16 16s-16-7.163-16-16 7.163-16 16-16 16 7.163 16 16zM32 16c0 8.837-7.163 16-16 16S0 24.837 0 16 7.163 0 16 0s16 7.163 16 16zM256 16c0 8.837-7.163 16-16 16s-16-7.163-16-16 7.163-16 16-16 16 7.163 16 16z"/></symbol>
<symbol id="icon-btn-arrow" viewBox="0 0 24 24">
<path d="M9.29 15.88L13.17 12 9.29 8.12c-.39-.39-.39-1.02 0-1.41.39-.39 1.02-.39 1.41 0l4.59 4.59c.39.39.39 1.02 0 1.41L10.7 17.3c-.39.39-1.02.39-1.41 0-.38-.39-.39-1.03 0-1.42z" fill="currentcolor"/>
</symbol>
<symbol id="icon-logo" viewBox="0 0 114.89874 239.45011">
<path d="M6.740808 108.563276c-.972 1.908-1.368 3.78-.792 5.616.396 1.836 1.764 3.636 3.708 5.4l2.7 29.089c-.936.971-1.44 2.051-1.656 2.844-.216.791-.504 1.043.504 2.16.936.971 3.492 3.131 5.292 4.104 1.692.9 3.312 1.404 5.004 1.512 1.872 1.404 3.24 3.816 4.248 7.381.9 3.455.648 6.768 1.476 13.68.684 6.803 2.052 20.447 3.132 27.324 1.116 6.803 2.052 11.16 3.204 13.355-.792 2.951-.864 5.615-.072 7.992.72 2.268.972 4.32 4.644 6.012 3.708 1.729 11.196 3.707 17.172 4.283 5.868.469 13.141-.576 17.784-1.332 4.464-.756 7.416-1.08 9.432-3.348 2.017-2.484 2.664-6.047 2.34-11.088.576-3.959 1.08-7.199 1.513-9.863.359-2.736.647-2.197 1.008-6.156.252-4.213.396-11.953 1.008-18.072.576-6.156 1.872-13.896 2.772-18.359.72-4.537 1.332-6.445 2.268-8.496.864-2.16 1.368-2.629 3.456-4.176 2.088-1.656 4.968-3.492 8.928-5.508-.359-2.09-.576-5.006-.647-8.605-.181-3.744-.324-9.18-.145-13.248.036-4.104.396-7.848.792-11.231 1.261-.72 2.16-1.728 2.845-3.024.684-1.44 1.008-2.988 1.115-5.04 2.628-3.204 4.104-6.408 4.824-9.756.576-3.42.288-7.128-1.008-10.152-1.332-3.06-3.528-5.688-6.732-8.028 3.456-3.204 5.112-6.624 5.257-10.692 0-4.176-2.521-10.224-4.788-13.428-2.305-3.204-5.221-5.004-8.748-5.544 2.52-4.932 3.023-9.468 1.655-13.752-1.512-4.356-5.58-7.848-10.115-11.844-4.645-4.068-13.32-7.776-17.28-12.096-4.068-4.5-3.636-11.556-6.336-14.22-2.809-2.7-8.244-2.412-9.648-1.908-1.332.432 1.224 2.7 1.404 4.32-.036 1.368 1.044 2.736-1.332 4.644-2.484 1.908-10.044 4.176-13.104 6.948-3.168 2.7-4.716 5.76-5.184 9.324-7.812 5.04-13.428 9.72-16.848 14.04-3.492 4.284-3.636 7.596-3.888 11.736-.288 4.104.36 8.244 2.088 12.708-8.781 4.43-14.685 9.398-17.853 14.762-3.24 5.436-2.016 12.384-1.188 17.496.717 4.998 2.697 9.028 5.793 12.268z"/>
<path d="M59.336808 1.212276c2.484-.036 4.536.612 5.76 2.34 1.188 1.584.468 4.716 1.872 7.452 1.296 2.556 2.484 5.04 6.336 8.424 3.888 3.312 12.528 7.92 16.74 11.484 3.96 3.384 6.3 5.436 7.452 9.216 1.116 3.744.899 8.316-.648 13.572-7.704.324-15.048-.216-22.716-1.764-7.704-1.656-17.316-4.572-22.716-7.38-5.364-2.772-7.668-5.76-9.432-9.108-1.908-3.384-2.448-7.668-1.764-10.764.648-3.276 2.772-5.94 5.544-7.992 2.664-1.98 7.92-2.7 10.476-4.104 2.376-1.548 3.744-3.204 4.249-5.112.503-2.016.07-3.924-1.153-6.264z" fill="#fff"/>
<path d="M38.168808 27.528276c-.432 3.852.036 7.2 1.8 10.188 1.62 2.952 3.42 4.932 8.316 7.488 4.788 2.484 14.22 5.4 20.952 7.344 6.696 1.728 14.112 2.736 19.332 3.42 5.04.612 8.496-.828 11.484.396 2.988 1.116 5.004 3.888 6.588 6.66 1.548 2.628 2.772 6.336 2.557 9.612-.288 3.24-1.692 6.516-4.213 9.972-3.491-1.872-8.855-3.168-16.235-3.888-7.416-.864-19.296-.18-28.008-.576-8.928-.468-18.396.288-24.66-1.62-6.3-2.016-9.972-6.48-12.672-10.188-2.808-3.78-3.564-8.172-3.672-12.204-.108-4.248.864-9.036 2.772-12.564 1.8-3.528 5.364-5.76 8.064-8.064 2.617-2.376 5.1-4.32 7.585-5.976z" fill="#fff"/>
<path d="M20.888808 65.868276c.432 1.908 1.656 3.96 4.068 6.156 2.304 2.196 4.392 5.292 9.864 6.768 5.4 1.188 14.508.936 22.752 1.188 8.244.144 19.08 0 26.244.54 6.984.504 11.629 1.224 15.876 2.7 4.213 1.404 7.272 2.952 9.324 5.76 2.017 2.736 2.484 6.588 2.376 10.584-.288 3.816-1.548 7.884-3.924 12.348-9.468 3.24-19.332 5.4-30.42 6.336-11.124.9-24.084 1.008-35.388-.648-11.448-1.73-25.596-4.11-32.184-9.51-6.588-5.65-8.856-16.269-6.948-23.397 1.938-7.171 7.878-13.219 18.354-18.835z" fill="#fff"/>
<path d="M101.854808 121.523276c-8.136 3.779-17.352 6.229-28.08 7.199-10.836.865-25.848-.072-36.144-1.439-10.332-1.404-18.612-3.6-25.272-6.732-2.088-2.16-3.204-4.284-3.888-5.976-.648-1.728-.54-3.42.18-4.68-.252 1.296 2.484 2.772 8.208 4.572 5.76 1.692 15.84 4.932 26.064 5.976 10.152 1.008 23.328 1.152 34.271.035 10.837-1.223 20.845-3.6 30.421-7.127.252 1.152.071 2.196-.937 3.672-1.04 1.33-2.52 2.88-4.82 4.5z" fill="#fff"/>
<path d="M12.068808 123.073276l1.8 26.354c4.32 2.664 11.844 4.68 22.572 5.65 10.8.828 30.24 1.117 41.652.469 11.268-.576 19.729-1.836 25.813-3.779-.469-4.932-.757-9.648-.864-14.438-.145-4.787-.108-9.359.107-14.004-5.399 2.916-11.88 5.076-19.872 6.336-8.136 1.225-18.54 1.621-27.863 1.332-9.468-.395-20.376-1.943-27.72-3.275-7.279-1.37-12.392-2.92-15.631-4.65z" fill="#fff"/>
<path d="M96.740808 156.773276c-2.593 1.98-8.425 3.42-18.036 4.031-9.792.576-29.196.469-39.313-.18-10.08-.648-16.596-2.52-20.916-3.672-4.428-1.297-4.716-2.844-5.328-3.672-.72-.9-1.584-2.053 1.44-1.512 3.024.539 8.676 3.275 16.38 4.463 7.704.9 20.7 1.441 29.124 1.621 8.244.107 14.04 0 20.448-.469 6.372-.504 12.096-1.225 17.604-2.305-.467.53-.935 1.11-1.403 1.69z" fill="#fff"/>
<path d="M26.324808 160.583276c1.188 1.547 2.232 5.111 3.132 10.836.792 5.76 1.368 14.65 2.304 23.219 1.008 8.424 2.052 17.281 3.528 27 2.952 2.844 7.056 4.752 12.456 5.869 5.364 1.08 13.789 1.295 19.836.504 6.012-.828 11.195-2.809 15.948-5.652.323-3.961.575-9.107 1.151-15.732.468-6.732 1.116-17.641 1.8-23.688.648-6.084.937-8.641 1.98-12.385.936-3.779 2.16-7.02 3.672-10.008-5.652 1.188-11.52 2.088-18 2.701-6.48.467-12.528 1.295-20.484.826-8.063-.48-16.991-1.59-27.323-3.5z" fill="#fff"/>
<path d="M34.928808 165.553276l1.224 9.793 9.9.719-8.892-1.656-2.232-8.85zM37.124808 180.063276l1.944 17.568 9.864 1.691-8.676-2.807-3.132-16.45zM40.616808 203.533276l.972 16.379 7.704 2.018-6.12-3.133-2.556-15.27zM51.776808 167.713276l.288 8.389 6.228.215-4.824-1.152-1.728-6.299.036-1.16zM52.099808 180.383276l1.296 19.512 5.795.396-4.428-1.332-2.663-18.58zM53.612808 204.363276l.576 17.531 5.436.396-4.248-1.512-1.764-16.42zM62.899808 167.313276l.469 8.785 4.859-.217-3.852-.719-1.548-6.301.072-1.55zM62.647808 179.773276l.828 20.447 6.84-.324-5.399-.971-2.269-19.16zM63.151808 204.903276l.54 17.354 5.257-.217-4.248-.721-1.549-16.41zM73.483808 204.073276l-1.188 17.102 4.32-1.008-3.097-.109-.035-15.98zM73.376808 179.553276l-.324 19.656 4.896-1.008-3.889.252-.683-18.9zM74.204808 166.743276l-.504 8.172 7.235-.936-5.832-.18-.899-7.05zM82.556808 166.853276l-.036 6.623 2.736-.324-1.512-.611-1.188-5.69zM81.512808 179.843276l-.792 17.496 3.348-1.262-2.304-.252-.252-15.99zM80.107808 203.753276l-1.151 16.486 4.14-2.195-3.312.684.323-14.977v.01z"/>
</symbol>
<symbol id="icon-right-arrow" viewBox="0 0 492.004 492.004">
<path d="M484.14 226.886L306.46 49.202c-5.072-5.072-11.832-7.856-19.04-7.856-7.216 0-13.972 2.788-19.044 7.856l-16.132 16.136c-5.068 5.064-7.86 11.828-7.86 19.04 0 7.208 2.792 14.2 7.86 19.264L355.9 207.526H26.58C11.732 207.526 0 219.15 0 234.002v22.812c0 14.852 11.732 27.648 26.58 27.648h330.496L252.248 388.926c-5.068 5.072-7.86 11.652-7.86 18.864 0 7.204 2.792 13.88 7.86 18.948l16.132 16.084c5.072 5.072 11.828 7.836 19.044 7.836 7.208 0 13.968-2.8 19.04-7.872l177.68-177.68c5.084-5.088 7.88-11.88 7.86-19.1.016-7.244-2.776-14.04-7.864-19.12z"/>
</symbol>
</defs>
</svg>
