<svg width="0" height="0" class="hidden">
  <symbol  fill="none" xmlns="http://www.w3.org/2000/svg" id="logo">
    <path d="M11.764 4.62v12.364H8.266v-4.822H3.497v4.822H0V4.62h3.497v4.645h4.77V4.62h3.497zm12.799 7.595c0 .024-.017.3-.053.83h-6.959c.142.495.412.877.813 1.148.412.26.924.389 1.536.389.46 0 .854-.065 1.184-.195.341-.13.683-.341 1.024-.635l1.767 1.837c-.93 1.036-2.29 1.554-4.08 1.554-1.12 0-2.103-.212-2.95-.636-.848-.424-1.508-1.013-1.979-1.766-.459-.754-.688-1.608-.688-2.561 0-.942.223-1.784.67-2.526a4.794 4.794 0 0 1 1.89-1.767c.801-.423 1.702-.635 2.703-.635.954 0 1.82.2 2.597.6.777.389 1.39.96 1.837 1.713.459.742.688 1.625.688 2.65zM19.46 9.636c-.518 0-.954.147-1.307.442-.342.294-.56.694-.654 1.2h3.921c-.094-.506-.318-.906-.67-1.2-.342-.295-.772-.442-1.29-.442zm7.357-5.758h3.356v13.106h-3.356V3.878zm6.243 0h3.357v13.106H33.06V3.878zM3.171 28.397H1.405l-.337.815H.166l1.696-3.804h.87l1.7 3.804h-.924l-.337-.815zm-.277-.669l-.603-1.456-.603 1.456h1.206zm6.976.767V30h-.814v-.788H6.37V30h-.815l.005-1.505h.152c.228-.008.39-.174.484-.5.094-.326.152-.792.174-1.397l.043-1.19h2.924v3.087h.533zm-2.722-1.816a8.053 8.053 0 0 1-.114 1.142c-.058.304-.147.529-.266.674h1.7v-2.37H7.165l-.016.554zm6.092 2.598a2.22 2.22 0 0 1-1.054-.25 1.938 1.938 0 0 1-.739-.7 1.971 1.971 0 0 1-.266-1.017c0-.377.089-.714.266-1.011.181-.3.428-.534.74-.701.315-.17.668-.256 1.06-.256.329 0 .626.058.89.174.269.116.493.283.674.5l-.565.522a1.215 1.215 0 0 0-.956-.446c-.236 0-.446.053-.63.158-.186.102-.33.245-.436.43a1.289 1.289 0 0 0-.152.63c0 .235.051.446.152.63.105.185.25.33.435.435.185.102.395.152.63.152.381 0 .7-.15.957-.45l.565.52c-.18.222-.405.39-.674.506a2.238 2.238 0 0 1-.896.174zm4.596-1.597h-.608v1.532h-.875v-3.804h.875v1.538h.63l1-1.538h.93l-1.245 1.837 1.282 1.967h-1l-.989-1.533zm3.38-2.272h.875v2.478l1.815-2.478h.827v3.804h-.87v-2.473l-1.815 2.473h-.832v-3.804zm5.442 0h.875v2.478l1.815-2.478h.826v3.804h-.87v-2.473l-1.814 2.473h-.832v-3.804zm1.755-.245c-.695 0-1.047-.277-1.054-.832h.603c.008.265.158.397.451.397.145 0 .256-.032.332-.098.076-.068.116-.168.12-.299h.603c-.004.272-.093.479-.267.62-.174.141-.436.212-.788.212zm8.78 3.234h-1.766l-.337.815h-.902l1.695-3.804h.87l1.701 3.804h-.924l-.337-.815zm-.277-.669l-.603-1.456-.603 1.456h1.206zm6.51-2.32v3.804h-.88v-1.56h-1.729v1.56h-.88v-3.804h.88v1.5h1.729v-1.5h.88zm4.611.717h-1.81l.006 3.087h-.875v-3.804h2.684l-.005.717zm4.439-.717v3.804h-.87v-3.087h-1.304l-.027.794a8.14 8.14 0 0 1-.13 1.315c-.07.333-.185.59-.348.771-.16.178-.384.267-.674.267-.12 0-.264-.02-.435-.06l.055-.745c.047.015.1.022.157.022.21 0 .357-.123.44-.37.084-.25.136-.639.158-1.168l.054-1.543h2.924zm1.929 0h.875v2.478l1.815-2.478h.826v3.804h-.87v-2.473l-1.815 2.473h-.831v-3.804zm5.441 0h.876v2.478l1.815-2.478h.826v3.804h-.87v-2.473l-1.815 2.473h-.831v-3.804zm1.756-.245c-.696 0-1.047-.277-1.054-.832h.603c.007.265.157.397.45.397.146 0 .256-.032.332-.098.077-.068.116-.168.12-.299h.603c-.003.272-.092.479-.266.62-.174.141-.437.212-.788.212zm5.485 4.114a2.22 2.22 0 0 1-1.054-.25 1.938 1.938 0 0 1-.74-.7 1.971 1.971 0 0 1-.266-1.017 1.886 1.886 0 0 1 1.005-1.712c.316-.17.67-.256 1.06-.256.33 0 .627.058.892.174.268.116.493.283.674.5l-.565.522a1.215 1.215 0 0 0-.957-.446c-.235 0-.445.053-.63.158-.185.102-.33.245-.435.43a1.289 1.289 0 0 0-.152.63c0 .235.05.446.152.63.105.185.25.33.435.435.184.102.395.152.63.152.38 0 .7-.15.957-.45l.565.52c-.181.222-.406.39-.674.506a2.237 2.237 0 0 1-.897.174zm4.596-1.597h-.609v1.532H70.2v-3.804h.875v1.538h.63l1-1.538h.93l-1.245 1.837 1.283 1.967h-1l-.99-1.533zm3.38-2.272h.875v2.478l1.815-2.478h.826v3.804h-.87v-2.473l-1.815 2.473h-.831v-3.804zm5.441 0h.875v2.478l1.816-2.478h.826v3.804h-.87v-2.473l-1.815 2.473h-.832v-3.804zm1.756-.245c-.696 0-1.047-.277-1.055-.832h.604c.007.265.157.397.45.397.146 0 .256-.032.332-.098.077-.068.116-.168.12-.299h.603c-.003.272-.092.479-.266.62-.174.141-.437.212-.788.212zM69.71 14.281v2.703h-9.927V4.62h9.697v2.702h-6.235v2.084h5.493v2.614h-5.493v2.261h6.464zM84.12 4.62v12.364h-2.879l-5.458-6.589v6.589h-3.426V4.62h2.879l5.458 6.588V4.62h3.426z" fill="#111518"></path>
    <g clip-path="url(#clip0)" fill="#FF6B09">
      <path d="M54.839 10.576c-.181-.405-.43-.804-.794-1.264-.919-1.156-1.2-3.733-1.202-3.758a.311.311 0 0 0-.215-.263.316.316 0 0 0-.33.09c-1.096 1.227-.635 3.121-.386 3.878.068.208.143.452.196.699.405 2-.377 2.905-.56 3.087-.178.05-.3.025-.412-.096-.386-.423-.513-1.81-.333-3.618a3.698 3.698 0 0 0-.025-1.008c-.38-2.222-1.777-3.647-2.132-4.147C47.668 2.729 47.568.322 47.566.3a.31.31 0 1 0-.486-.244c-1.632 1.11-1.492 3.783-1.265 5.276.053.346.156.698.334 1.143.632 1.592-.125 3.647-.131 3.665-.007.019-.013.034-.016.053-.096.507-.258.81-.439.81a.213.213 0 0 1-.06-.01c-.22-.046-.335-.281-.339-.485-.012-2.636-2.655-3.523-2.683-3.532a.31.31 0 0 0-.33.092.304.304 0 0 0-.044.34c.031.065.13.35.062 1.354a11.542 11.542 0 0 1-.489 2.652 12.928 12.928 0 0 0-.523 4.088c.484 5.263 8.047 6.185 12.536 3.22a4.54 4.54 0 0 0 1.19-1.103c1.656-2.287.681-5.393-.044-7.043zm-11.505 5.028a.309.309 0 0 1-.293.325h-.019a.31.31 0 0 1-.311-.291c-.028-.451-.022-.924.013-1.437a.311.311 0 1 1 .623.043 9.882 9.882 0 0 0-.013 1.36zm.152-2.738a.309.309 0 0 1-.308.272c-.012 0-.025 0-.04-.003a.312.312 0 0 1-.271-.343l.15-1.193a.314.314 0 0 1 .348-.269.31.31 0 0 1 .27.346l-.149 1.19zm9.194-8.641a.309.309 0 0 1-.26-.352c.019-.125.131-.768.436-1.09a.313.313 0 0 1 .44-.015.307.307 0 0 1 .015.437c-.13.137-.24.528-.276.762a.311.311 0 0 1-.356.258zM41.359 5.763c-.06-.23-.208-.608-.35-.732a.307.307 0 0 1-.029-.436.312.312 0 0 1 .44-.028c.335.291.51.92.542 1.043a.312.312 0 0 1-.603.154z"></path>
    </g>
    <defs>
      <clipPath id="clip0">
        <path fill="#fff" transform="translate(40.883)" d="M0 0h14.946v20.381H0z"></path>
      </clipPath>
    </defs>
  </symbol>
  <symbol viewBox="0 0 15 21" fill="none" xmlns="http://www.w3.org/2000/svg" id="logo-fire">
    <path d="M13.839 10.576c-.181-.405-.43-.804-.794-1.264-.919-1.156-1.2-3.733-1.202-3.758a.311.311 0 0 0-.215-.263.316.316 0 0 0-.33.09c-1.096 1.227-.635 3.121-.386 3.878.068.208.143.452.196.699.405 2-.377 2.905-.56 3.087-.178.05-.3.025-.412-.096-.386-.423-.513-1.81-.333-3.618a3.7 3.7 0 0 0-.025-1.008c-.38-2.222-1.777-3.647-2.132-4.147C6.668 2.729 6.568.322 6.566.3A.31.31 0 1 0 6.08.056C4.447 1.166 4.587 3.84 4.814 5.332c.053.346.156.698.333 1.143.633 1.592-.124 3.647-.13 3.665-.007.019-.013.034-.016.053-.096.507-.258.81-.439.81a.212.212 0 0 1-.06-.01c-.22-.046-.335-.281-.338-.485-.013-2.636-2.656-3.523-2.684-3.532a.31.31 0 0 0-.33.092.304.304 0 0 0-.044.34c.031.065.13.35.062 1.354a11.542 11.542 0 0 1-.489 2.652 12.929 12.929 0 0 0-.523 4.088c.484 5.263 8.047 6.185 12.536 3.22a4.54 4.54 0 0 0 1.19-1.103c1.656-2.287.681-5.393-.044-7.043zM2.334 15.604a.309.309 0 0 1-.293.325h-.019a.31.31 0 0 1-.311-.291 11.15 11.15 0 0 1 .012-1.437.311.311 0 1 1 .623.043c-.034.489-.04.934-.012 1.36zm.152-2.738a.309.309 0 0 1-.308.272c-.012 0-.025 0-.04-.003a.312.312 0 0 1-.271-.343l.15-1.193a.314.314 0 0 1 .348-.269.31.31 0 0 1 .27.346l-.149 1.19z" fill="#FF6B09"></path>
  </symbol>
  <symbol fill="none" xmlns="http://www.w3.org/2000/svg" id="phone">
    <path d="M2.91.002a1.252 1.252 0 0 0-.87.407L.42 2.19c.002-.005-.006-.004-.052.06a.394.394 0 0 0-.057.11c-.66 2.103-.217 4.416.86 6.616 1.078 2.2 2.798 4.304 4.771 6.032 1.974 1.727 4.201 3.079 6.325 3.749 2.123.67 4.182.662 5.708-.445a.407.407 0 0 0 .046-.041c.04-.04.042-.045.035-.039l.006-.008 1.614-1.775a1.263 1.263 0 0 0-.083-1.774l-3.829-3.482a1.263 1.263 0 0 0-1.775.083l-1.732 1.905c-1.406-.408-2.608-1.098-3.765-2.15C7.335 9.982 6.534 8.85 5.996 7.488l1.732-1.905a1.262 1.262 0 0 0-.084-1.775L3.816.325A1.253 1.253 0 0 0 2.91 0zm.037.78a.469.469 0 0 1 .338.126L7.113 4.39a.46.46 0 0 1 .032.663L5.23 7.157a.394.394 0 0 0-.078.4c.581 1.585 1.519 2.886 2.808 4.059 1.29 1.173 2.672 1.984 4.306 2.412a.395.395 0 0 0 .39-.116l1.916-2.104a.46.46 0 0 1 .662-.031l3.83 3.482a.46.46 0 0 1 .03.662l-1.6 1.76c-1.253.898-3.017.949-4.992.325-1.983-.626-4.136-1.922-6.041-3.59-1.906-1.668-3.564-3.704-4.583-5.784-1.009-2.058-1.375-4.14-.82-5.974L2.622.94a.468.468 0 0 1 .325-.157z" fill="#FF6B09"></path>
  </symbol>
</svg>