<svg aria-hidden="true" style="position:absolute;width:0;height:0" xmlns="http://www.w3.org/2000/svg" overflow="hidden"><defs><symbol id="orange-fire" viewBox="0 0 24 32"><path fill="var(--color1, #ff6b09)" d="M21.909 16.592c-.285-.635-.675-1.259-1.248-1.982-1.44-1.813-1.882-5.856-1.886-5.896a.488.488 0 00-.333-.41l-.003-.001a.49.49 0 00-.519.139c-1.72 1.925-.997 4.898-.606 6.085.109.326.226.709.309 1.096.635 3.136-.592 4.558-.88 4.845-.278.077-.469.038-.645-.15-.608-.664-.808-2.842-.523-5.678a5.837 5.837 0 00-.04-1.581c-.598-3.486-2.79-5.722-3.349-6.506C10.65 4.283 10.495.505 10.49.473A.488.488 0 009.725.09l.002-.001C7.167 1.83 7.386 6.025 7.743 8.366c.083.544.243 1.096.523 1.794.992 2.496-.197 5.722-.206 5.75s-.019.053-.024.083c-.152.795-.406 1.27-.688 1.27a.346.346 0 01-.097-.017l.002.001c-.347-.072-.528-.44-.533-.76-.019-4.136-4.17-5.528-4.214-5.542s-.096-.024-.15-.024a.483.483 0 00-.368.169l-.001.001a.474.474 0 00-.068.536l-.001-.003c.05.102.206.549.099 2.125a18.12 18.12 0 01-.768 4.16C.721 19.63.417 21.607.417 23.656c0 .234.004.468.012.7l-.001-.034c.758 8.256 12.634 9.704 19.682 5.051a7.183 7.183 0 001.854-1.713l.013-.018c2.602-3.587 1.072-8.459-.067-11.05zM3.845 24.48a.486.486 0 01-.461.51h-.033a.486.486 0 01-.485-.455v-.001c-.043-.707-.034-1.45.019-2.256a.493.493 0 01.525-.448h-.002a.488.488 0 01.457.487l-.001.031v-.001a15.808 15.808 0 00-.021 2.134zm.24-4.294a.485.485 0 01-.481.427H3.6c-.021 0-.04 0-.064-.005a.49.49 0 01-.426-.542v.002l.235-1.872a.493.493 0 01.55-.42h-.002a.487.487 0 01.425.546v-.002l-.235 1.866zM18.602 6.632a.486.486 0 01-.409-.555v.003c.032-.197.208-1.205.688-1.712a.491.491 0 01.69-.022.48.48 0 01.022.685c-.203.216-.376.83-.432 1.197a.49.49 0 01-.563.404h.003zM.778 9.048c-.093-.36-.326-.955-.549-1.149a.48.48 0 01-.046-.685.49.49 0 01.692-.044H.874c.526.459.8 1.445.851 1.638a.483.483 0 01-.348.588l-.003.001a.489.489 0 01-.594-.346l-.001-.003z"/></symbol><symbol id="orange-mark" viewBox="0 0 41 32"><path fill="var(--color1, #ff6b09)" d="M34.457 1.513c-1.486.663-2.907 1.477-4.265 2.379-2.731 1.797-5.227 3.936-7.57 6.217a84.919 84.919 0 00-6.455 7.124l-.125.16-2.823 3.467L3.624 6.481.001 16.522l12.978 15.477c1.257-2.551 2.471-5.07 3.662-7.257.297-.558.606-1.081.901-1.614 0 0 1.522-2.674 1.925-3.351a80.284 80.284 0 015.381-8.016l-.144.196c1.909-2.491 3.984-4.869 6.336-6.962a28.433 28.433 0 013.749-2.871A20.523 20.523 0 0138.91.045l.145-.047a21.164 21.164 0 00-4.722 1.568l.13-.055z"/></symbol><symbol id="icon-menu-burger" viewBox="0 0 21 14"><path d="M0 1h20.5M0 7h20.5M0 13h20.5" stroke="#000" stroke-width="2"/></symbol><symbol id="icon-menu-close" viewBox="0 0 32 32"><path d="M23.733 10.304L22.229 8.8l-5.963 5.963L10.303 8.8l-1.504 1.504 5.963 5.963-5.963 5.963 1.504 1.504 5.963-5.963 5.963 5.963 1.504-1.504-5.963-5.963 5.963-5.963z"/></symbol><symbol id="icon-learn" viewBox="0 0 32 32"><path fill="var(--color1, #ff6b09)" d="M29.457.256H14.086a1.817 1.817 0 00-1.815 1.815v6.363L.852 13.227a.371.371 0 00-.047.662l1.456.872v9.288a1.678 1.678 0 00-1.304 1.634v.895c0 .205.167.372.372.372h2.608a.373.373 0 00.372-.372v-.895a1.68 1.68 0 00-1.304-1.633v-8.844l1.151.689c-.035.266-.004-.463-.016 4.324 0 1.574 4.031 2.417 8.132 2.465v7.249a1.813 1.813 0 001.814 1.812h15.371c1 0 1.813-.814 1.813-1.813 0 .05-.002-1.535 0-27.86 0-.987-.816-1.815-1.812-1.815zM3.565 25.682v.523H1.701v-.523c0-.515.417-.935.93-.935.515 0 .934.419.934.935zm25.892 5.316H14.086a1.071 1.071 0 01-1.07-1.067v-2.513h17.508v2.514c0 .582-.485 1.066-1.066 1.066zm1.066-4.323H13.015v-3.989c2.002-.023 8.137-.464 8.137-2.467-.002-3.007.005-4.227-.009-4.33l3.339-2a.373.373 0 00-.047-.662L13.016 8.434V5.328h17.508v21.347zm-17.88-8.925c-2.063 0-6.034.266-7.76 1.393.011-3.446-.12-3.222.305-3.514 1.072-.789 4.137-1.34 7.455-1.34 1.447 0 7.765.398 7.765 1.735v3.119c-1.742-1.137-5.693-1.394-7.765-1.394zm.372-15.679c0-.59.48-1.069 1.069-1.069h15.371c.59 0 1.067.486 1.067 1.069v2.513H13.014V2.071zm-.372 7.013l10.826 4.544-2.683 1.605c-1.426-1.414-6.144-1.689-8.143-1.689-2.002 0-6.72.275-8.143 1.689l-2.683-1.606 10.827-4.544zm-7.76 11.135c0-.602 2.665-1.725 7.76-1.725 5.098 0 7.765 1.123 7.765 1.725s-2.667 1.726-7.765 1.726c-5.095 0-7.76-1.123-7.76-1.726z"/><path fill="var(--color1, #ff6b09)" d="M21.77 27.979a1.231 1.231 0 000 2.46c.678 0 1.23-.552 1.23-1.23s-.552-1.23-1.23-1.23zm0 1.717a.487.487 0 11.001-.973.487.487 0 01-.001.973zm1.419-27.275h-2.837v.744h2.837v-.744z"/></symbol><symbol id="icon-programm" viewBox="0 0 27 32"><path fill="var(--color1, #ff6b09)" d="M-.103 31.359h26.785c.133-3.054-.086-8.122-1.964-10.535l-.068-.087-4.104-2.06c.089-.301.133-.576.151-.778a1.43 1.43 0 00-.1-.678c-.677-1.62-2.11-2.472-2.898-2.836.24-.484.395-1.003.47-1.534.446-.126.805-.479.922-.951l.479-1.946a1.314 1.314 0 00-.151-1.002c-.078-.13-.18-.24-.294-.334 1.351-3.068-.911-5.96-1.035-6.113C15.64-.144 12.546.352 12.382.381c-4.466.935-6.19 4.358-5.217 8.372a1.317 1.317 0 00-.302 1.2l.481 1.948c.117.468.473.82.916.948a5.014 5.014 0 001.152 2.559v1.543c-6.409 3.282-2.348 1.188-7.484 3.786-.01.048-2.41 2.599-2.053 10.159l.022.462zm25.854-.97h-4.408v-1.852l2.916-6.674c1.461 2.424 1.515 7.053 1.493 8.526zm-6.016-12.573c-.17 1.954-1.242 1.363-1.903 2.869-.52-.572-.677-1.258-.537-1.993.253-1.348-.57-1.749-.367-3.166l.031-.032v-.004c.017-.02.18-.213.227-.274 1.744.76 2.584 2.174 2.55 2.6zm-9.356-1.536a4.963 4.963 0 005.574.074c.112 1.114.547 1.337.393 2.157a3.536 3.536 0 00-.054.45l-3.002 3.384-3.838-4.327.926-.484V16.28zm-1.207-4.14V6.968c.467-.864 1.104-1.491 1.896-1.866 2.12 1.2 4.56 2.99 6.197 4.791-.002 2.294.006 2.301-.009 2.489l-.001.012c-.128 2.084-1.841 3.811-4.038 3.811-2.136 0-3.909-1.677-4.037-3.831a2.578 2.578 0 01-.008-.233zm-.598 6.346l4.716 5.317 3.166-3.568c.072.208.174.405.29.595l-3.456 4.322-5.154-6.446.438-.22zm9.656-7.127V9.861l.36-.413c.02.758.102-.137-.36 1.911zM12.561 1.334c.192.012 2.765-.391 4.799 1.804.08.1 1.736 2.234 1.071 4.567-.228-1.038-.625-2.369-1.252-3.004l-.686.683c.619.627 1.026 2.537 1.181 3.527-2.84-2.972-6.504-4.853-6.555-4.885-.184.114-1.734.409-2.86 2.598l-.054.105v1.607l-.142.002c-.716-3.454.655-6.198 4.497-7.004zM7.962 9.336l.244.987v1.038l-.405-1.639c-.059-.244.122-.337.161-.386zm-.71 9.814l6.037 7.551 4.085-5.109c.444.398.658.454 1.6.939l-.318-1.078c-.081-.274.239-.713.431-.914.43-.234.789-.566 1.058-.978l3.333 1.674-3.101 7.1v2.055H6.201v-2.055l-3.103-7.099 4.153-2.085zM2.32 21.865l2.916 6.673v1.852H.828c-.022-1.473.033-6.099 1.492-8.524z"/></symbol><symbol id="icon-results" viewBox="0 0 27 32"><path fill="var(--color1, #ff6b09)" d="M.529 13.797c0 .348-.529.348-.529 0C0 6.394 6.004.39 13.407.39c7.406 0 13.407 6.004 13.407 13.407 0 .348-.525.348-.525 0 0-5.004-8.223-5.007-8.223 0 0 .348-.541.348-.541 0 0-4.991-8.235-4.991-8.235 0 0 .348-.541.348-.541 0 0-4.982-8.219-5.017-8.219 0zm8.267-1.943c.142-2.88.595-5.463 1.253-7.435.525-1.567 1.19-2.757 1.943-3.425C6.339 1.611 1.763 5.897.74 11.454c1.946-2.807 6.441-2.583 8.055.399zm8.687-.13c-.146-2.769-.586-5.248-1.218-7.137-1.633-4.89-4.083-4.89-5.716 0-.633 1.889-1.07 4.368-1.219 7.137 1.757-2.985 6.396-2.985 8.153 0zm8.59-.269A12.881 12.881 0 0014.821.995c.756.668 1.418 1.858 1.943 3.425.658 1.972 1.111 4.554 1.253 7.435 1.624-2.997 6.131-3.175 8.055-.399zm-14.426 8.477V17.21c-.491.326-.877.829-.877 1.444 0 .598.393.994.877 1.279zm.529.845c-.94-.431-1.931-.934-1.931-2.124 0-1.228.934-1.842 1.931-2.301v4.426zm2.991 3.262v2.754c.497-.329.886-.835.886-1.45 0-.605-.399-1.013-.886-1.304zm-.526-.848c.943.437 1.94.956 1.94 2.152 0 1.231-.94 1.845-1.94 2.301v-4.453z"/><path fill="var(--color1, #ff6b09)" d="M15.167 14.111c2.165.5 4.39 2.121 4.39 4.542 0 2.073-3.504 1.997-3.504 0 0-.617-.389-1.124-.886-1.45v3.874c2.003.655 4.396 1.829 4.396 4.267 0 2.424-2.225 4.042-4.396 4.539-.01 2.307-3.513 2.304-3.519-.003-1.234-.285-2.307-.861-3.083-1.624-.813-.804-1.295-1.814-1.295-2.912 0-2.042 3.5-2.042 3.5 0 0 .611.386 1.114.877 1.44v-3.871c-1.988-.643-4.393-1.852-4.393-4.267 0-2.424 2.225-4.042 4.393-4.539.009-2.307 3.513-2.304 3.519.003zm-2.991.006v.421c-2.06.408-4.396 1.728-4.396 4.108 0 2.288 2.564 3.314 4.396 3.88v5.115c-.991-.453-1.931-1.064-1.931-2.298 0-1.348-2.45-1.348-2.45 0 0 .953.424 1.833 1.139 2.535.908.899 2.01 1.326 3.241 1.57v.424c0 1.624 2.466 1.624 2.466 0v-.421c2.067-.411 4.393-1.731 4.393-4.108 0-2.31-2.557-3.304-4.393-3.884v-5.112c.994.453 1.94 1.063 1.94 2.304 0 1.313 2.447 1.367 2.447 0 0-2.377-2.323-3.7-4.387-4.111v-.424c0-1.624-2.466-1.624-2.466 0z"/></symbol><symbol id="icon-audiobook" viewBox="0 0 39 32"><path d="M3.048 29.453h12.229a3.743 3.743 0 003.367 2.115h.801a3.737 3.737 0 003.356-2.093l.01-.022h12.237a2.288 2.288 0 002.285-2.286V5.262a2.288 2.288 0 00-2.285-2.285h-1.235V1.956A1.525 1.525 0 0032.289.433H5.798a1.525 1.525 0 00-1.524 1.523v1.021H3.047A2.288 2.288 0 00.761 5.262v21.905a2.288 2.288 0 002.286 2.286zm29.24-4.702H19.809V7.046c2.885.377 5.121 2.845 5.121 5.831v.687l-.18-.04a.763.763 0 00-.907.575l-.001.005-1.213 5.52a.762.762 0 00.575.906l.005.001 2.622.578a1.944 1.944 0 002.318-1.492l.702-3.192a1.953 1.953 0 00-1.472-2.321l-.013-.003-.912-.201v-1.023c0-3.827-2.917-6.987-6.644-7.371V1.955h12.48l-.002 22.796zm-7.121-9.574l1.871.412a.422.422 0 01.325.508l-.702 3.191a.45.45 0 01-.507.331l-1.874-.413.887-4.029zM5.799 1.955h12.487v3.55c-3.731.381-6.651 3.542-6.651 7.372v1.022l-.913.202a1.945 1.945 0 00-1.218.846l-.005.008a1.91 1.91 0 00-.257 1.482l-.003-.013.7 3.189a1.961 1.961 0 002.339 1.493l-.013.002 2.611-.577a.763.763 0 00.578-.911l.001.005-1.213-5.519a.76.76 0 00-.914-.579l.005-.001-.174.038v-.685c0-2.988 2.24-5.458 5.128-5.832v17.707H5.8V1.957zm7.117 13.222l.887 4.029-1.863.411a.432.432 0 01-.511-.325l-.001-.003-.701-3.196a.416.416 0 01.055-.32l-.001.002a.429.429 0 01.265-.186l.003-.001 1.867-.412zM2.287 5.262c0-.42.341-.762.762-.762h1.227v20.251A1.526 1.526 0 005.8 26.275h26.491a1.525 1.525 0 001.524-1.523V4.5h1.235c.42 0 .761.342.761.762v21.905c0 .42-.341.762-.761.762H22.295a.764.764 0 00-.729.539 2.226 2.226 0 01-2.126 1.577h-.785a2.23 2.23 0 01-2.13-1.571l-.004-.016a.762.762 0 00-.725-.529H3.049a.763.763 0 01-.762-.762V5.262z"/></symbol><symbol id="icon-book" viewBox="0 0 46 32"><path d="M20.267 4.608H6.627v1.021h13.64V4.608zm0 3.808H8.67v1.021h11.597V8.416zm0 3.808H6.627v1.021h13.64v-1.021zm0 3.808H8.67v1.021h11.597v-1.021zm0 3.808H6.627v1.021h13.64V19.84zm0 3.808H8.67v1.021h11.597v-1.021zM38.99 4.608H25.35v1.021h13.64V4.608zm-2.043 3.808H25.35v1.021h11.597V8.416zm2.043 3.808H25.35v1.021h13.64v-1.021zm-2.043 3.808H25.35v1.021h11.597v-1.021zm2.043 3.808H25.35v1.021h13.64V19.84zm-2.043 3.808H25.35v1.021h11.597v-1.021z"/><path d="M43.915 3.445h-1.872V.633a.511.511 0 00-.511-.511H26.25a3.95 3.95 0 00-3.431 1.991l-.01.019A3.955 3.955 0 0019.368.121H4.086a.511.511 0 00-.511.511v2.812H1.702a.511.511 0 00-.511.511v27.411c0 .282.229.511.511.511h42.213a.51.51 0 00.51-.511V3.955a.511.511 0 00-.511-.511zM26.267 1.144H41.02v27.349H25.178c-.703 0-1.405.296-1.859.68V4.085v-.009a2.932 2.932 0 012.932-2.932h.015-.001zm-21.672 0h14.774a2.924 2.924 0 012.922 2.824v.005c.001.022.003.091.007.113v25.087a2.987 2.987 0 00-1.852-.678H4.595V1.145zM2.213 4.467h1.362v24.538c0 .282.229.511.511.511h16.36c.779 0 1.531.511 1.772 1.341H2.213V4.468zm41.192 26.389H23.4a1.85 1.85 0 011.775-1.341H41.532a.511.511 0 00.511-.511V4.466h1.361v26.389z"/></symbol><symbol id="icon-mobilelearning" viewBox="0 0 33 32"><path d="M30.175-.128H14.429a1.861 1.861 0 00-1.859 1.859V8.25L.871 13.159a.382.382 0 00-.05.678l.002.001 1.491.893v9.516A1.722 1.722 0 00.98 25.92v.917c0 .211.17.381.381.381h2.671a.38.38 0 00.381-.381v-.917a1.72 1.72 0 00-1.337-1.673v-9.06l1.179.706c-.036.272-.004-.474-.016 4.43 0 1.612 4.129 2.476 8.33 2.525v7.425a1.86 1.86 0 001.858 1.856h15.746a1.858 1.858 0 001.857-1.857c0 .051-.002-1.573 0-28.539a1.87 1.87 0 00-1.856-1.859zM3.651 25.918v.537H1.743v-.537a.955.955 0 111.909 0zm26.524 5.446H14.429a1.098 1.098 0 01-1.097-1.092V27.697h17.935v2.575c0 .596-.497 1.092-1.092 1.092zm1.092-4.429H13.331v-4.086c2.051-.023 8.336-.475 8.336-2.527-.003-3.08.005-4.33-.01-4.436l3.421-2.049a.382.382 0 00-.046-.676l-.002-.001-11.697-4.91V5.068h17.935v21.868zm-18.316-9.143c-2.113 0-6.182.273-7.949 1.427.011-3.53-.123-3.3.312-3.6 1.098-.808 4.238-1.373 7.637-1.373 1.482 0 7.954.407 7.954 1.777v3.196c-1.784-1.165-5.832-1.428-7.954-1.428zm.381-16.061A1.096 1.096 0 0114.428.636h15.745c.605 0 1.093.498 1.093 1.095v2.574H13.332V1.731zm-.381 7.184l11.09 4.655-2.748 1.644c-1.46-1.449-6.293-1.729-8.342-1.729-2.051 0-6.884.281-8.342 1.729L1.86 13.57l11.091-4.655zM5.002 20.321c0-.616 2.73-1.768 7.949-1.768 5.222 0 7.954 1.151 7.954 1.767s-2.732 1.768-7.954 1.768c-5.219 0-7.949-1.151-7.949-1.768z"/><path d="M22.301 28.271a1.261 1.261 0 101.26 1.26c0-.694-.565-1.26-1.26-1.26zm0 1.759a.5.5 0 01-.001-.996h.001a.498.498 0 010 .996zm1.454-27.94h-2.907v.762h2.907V2.09z"/></symbol><symbol id="icon-student" viewBox="0 0 27 32"><path d="M-.103 31.759h26.785c.133-3.055-.087-8.123-1.964-10.535l-.068-.087-4.104-2.06c.089-.301.133-.576.151-.779a1.43 1.43 0 00-.1-.678c-.677-1.62-2.109-2.472-2.897-2.835.24-.484.395-1.003.469-1.534.456-.131.805-.489.921-.942l.002-.009.479-1.947a1.31 1.31 0 00-.155-1.007l.003.006c-.08-.13-.178-.24-.291-.332l-.002-.002c1.35-3.068-.912-5.96-1.035-6.113C15.642.257 12.547.752 12.383.782c-4.466.935-6.189 4.358-5.216 8.372a1.312 1.312 0 00-.3 1.209l-.002-.009.481 1.949c.117.468.473.82.915.947a5.01 5.01 0 001.158 2.567l-.006-.007v1.543c-6.409 3.282-2.348 1.188-7.485 3.787-.01.048-2.41 2.599-2.053 10.158l.022.462zm25.854-.97h-4.408v-1.852l2.915-6.675c1.461 2.425 1.515 7.053 1.493 8.527zm-6.016-12.573c-.17 1.955-1.241 1.364-1.903 2.869-.52-.572-.677-1.258-.537-1.993.253-1.349-.571-1.749-.367-3.166l.031-.032v-.005c.017-.02.18-.213.227-.274 1.744.76 2.584 2.174 2.549 2.6zm-9.356-1.535a4.927 4.927 0 002.842.894 4.94 4.94 0 002.75-.831l-.018.011c.112 1.113.547 1.337.393 2.157a3.401 3.401 0 00-.053.44v.009l-3.003 3.383-3.838-4.327.927-.483V16.68zm-1.207-4.142V7.367c.467-.864 1.104-1.491 1.895-1.867 2.12 1.2 4.56 2.99 6.197 4.792-.002 2.294.007 2.3-.009 2.489l-.001.012c-.128 2.084-1.841 3.811-4.038 3.811-2.135 0-3.909-1.677-4.037-3.831a2.716 2.716 0 01-.008-.21v-.024.001zm-.598 6.347l4.716 5.317 3.167-3.569c.072.209.173.405.289.596l-3.456 4.322-5.153-6.446.437-.22zm9.656-7.127v-1.498l.36-.413c.02.759.102-.136-.36 1.911zM12.561 1.733c.192.012 2.765-.391 4.799 1.805.08.1 1.736 2.233 1.071 4.567-.228-1.039-.625-2.369-1.252-3.004l-.685.683c.619.627 1.026 2.537 1.181 3.527-2.84-2.972-6.504-4.853-6.555-4.885-.183.114-1.734.409-2.86 2.598l-.053.104v1.608l-.143.001c-.715-3.455.655-6.199 4.497-7.004zM7.963 9.735l.243.987v1.038l-.405-1.64c-.06-.244.121-.337.161-.385zm-.71 9.814L13.29 27.1l4.085-5.109c.445.398.658.454 1.6.939l-.317-1.078c-.081-.273.239-.713.431-.914a2.94 2.94 0 001.05-.966l.007-.011 3.333 1.673-3.102 7.1v2.055H6.202v-2.055l-3.103-7.099 4.153-2.085zM2.32 22.265l2.916 6.673v1.851H.828c-.022-1.473.033-6.1 1.492-8.525z"/></symbol><symbol id="icon-studyprogram" viewBox="0 0 31 32"><path d="M30.151 4.961l-.001-.003a.284.284 0 00-.06-.09L25.283.062a.237.237 0 00-.039-.032l-.001-.001c-.003-.002-.007-.003-.009-.006A.518.518 0 0025.2.004l-.002-.001-.011-.004a.28.28 0 00-.098-.02H3.912a.284.284 0 00-.284.284v29.311a.33.33 0 00.005.055l.007.023.01.03.013.025.013.023a.26.26 0 00.033.04l2.167 2.167a.283.283 0 00.402 0l1.964-1.964 1.964 1.964c.051.052.122.084.201.084s.15-.032.201-.084l1.963-1.963 1.965 1.963a.283.283 0 00.402 0l1.964-1.963 1.963 1.963a.283.283 0 00.402 0l1.965-1.964 1.963 1.964a.282.282 0 00.402 0l1.964-1.963 1.965 1.963a.283.283 0 00.402 0l2.176-2.178c.007-.009.017-.019.023-.029.007-.009.011-.02.016-.03l.01-.019c.006-.013.009-.027.012-.04l.005-.013a.324.324 0 00.005-.056V5.067a.314.314 0 00-.023-.111l.001.002zM25.367.949l3.836 3.835h-3.836V.949zm4.237 28.507l-1.88 1.88-1.965-1.964a.283.283 0 00-.402 0l-1.963 1.964-1.963-1.964a.287.287 0 00-.402 0l-1.965 1.964-1.963-1.964c-.051-.052-.122-.084-.201-.084s-.15.032-.201.084l-1.963 1.964-1.965-1.964a.287.287 0 00-.402 0l-1.963 1.964-1.964-1.964a.283.283 0 00-.402 0l-1.965 1.964-1.88-1.88V.547h20.603v4.522c0 .157.127.284.284.284h4.521v24.103z"/><path d="M6.313 3.234h9.303a.284.284 0 100-.568H6.313a.284.284 0 100 .568zm0 1.757h14.92a.284.284 0 100-.568H6.313a.284.284 0 100 .568zm-.284 1.577v9.199c0 .157.127.284.285.284h21.172a.284.284 0 00.284-.284V6.568a.284.284 0 00-.284-.284H6.314h-.001a.284.284 0 00-.284.284zm6.279.284h14.893v2.445H12.308V6.852zm0 3.013h14.893v2.444H12.308V9.865zm0 3.012h14.893v2.605H12.308v-2.605zm-5.71-6.025h5.142v2.445H6.598V6.852zm0 3.013h5.142v2.444H6.598V9.865zm0 3.012h5.142v2.605H6.598v-2.605zm20.888 4.452H6.314h-.001a.284.284 0 00-.284.284v9.198a.284.284 0 10.568 0v-2.889h5.143v2.889a.284.284 0 10.568 0v-2.889h14.893v2.889a.284.284 0 10.568 0v-9.198-.001a.283.283 0 00-.283-.283h-.001zM11.74 23.353H6.598V20.91h5.142v2.443zm0-3.012H6.598v-2.444h5.142v2.444zm15.461 3.012H12.308V20.91h14.893v2.443zm0-3.012H12.308v-2.444h14.893v2.444zM2.281-.021a.284.284 0 00-.284.284v29.311a.284.284 0 10.568 0V.263a.284.284 0 00-.284-.284H2.28zm-1.562 0H.718a.284.284 0 00-.284.284v29.311a.284.284 0 10.568 0V.263a.284.284 0 00-.283-.284z"/></symbol><symbol id="icon-support" viewBox="0 0 33 32"><path d="M1.993 12.558v2.831c0 .152.069.295.189.39a11.027 11.027 0 006.836 2.362c.741 0 1.482-.077 2.207-.224a11.826 11.826 0 004.872 1.032h.019-.001c1.707 0 3.351-.349 4.89-1.032 3.091.625 6.385-.046 9.043-2.138a.495.495 0 00.189-.39v-2.831c0-.415-.207-.794-.575-1.027l-3.867-2.176c.846-1.073 1.476-2.602 1.586-3.913.321-2.256-1.519-4.646-4.166-4.646a4.208 4.208 0 00-2.947 1.227c-.027.027-.058.049-.084.077-.024.025-.043.054-.067.08l-.044.053C19.316.852 17.862 0 16.148 0c-.167 0-.329.011-.491.028-.01-.001-.019-.006-.029-.006-.092 0-.287.025-.391.055-.015.004-.027.015-.041.021a4.498 4.498 0 00-3.002 2.135l-.011.021A4.17 4.17 0 009.014.797h-.01.001c-3.908 0-5.642 4.612-2.557 8.581l-3.903 2.167a1.19 1.19 0 00-.553 1.014zm19.004 4.27c-.084.041-.167.085-.251.123l-.002.001a10.84 10.84 0 01-4.596 1.006h-.033.002-.025c-2.509 0-4.823-.837-6.677-2.248l.027.02v-2.87c0-.097.047-.184.102-.221l4.542-2.525c.565.48 1.287.832 2.035.832.72 0 1.499-.357 2.052-.843l4.487 2.52a.277.277 0 01.131.237v2.87c-.52.395-1.108.76-1.729 1.069l-.064.029zm8.157-4.447a.202.202 0 01.092.169v2.595a9.988 9.988 0 01-6.737 1.98c.418-.265.771-.515 1.111-.782l-.028.022a.496.496 0 00.19-.39V12.86c0-.435-.219-.835-.61-1.087l-2.384-1.339.58-.321c.703.573 1.307.744 1.848.744.663 0 1.36-.325 1.878-.759l4.06 2.284zM23.216 1.788c1.381 0 2.593.902 3.021 2.142a3.698 3.698 0 01-2.235-1.14L24 2.788a.497.497 0 00-.787.082l-.001.002a3.695 3.695 0 01-2.526 1.757l-.022.003v-.003l.001-.084c0-.201-.012-.398-.036-.593l.002.023-.007-.066a5.316 5.316 0 00-.13-.647l.009.038c.563-.902 1.609-1.513 2.713-1.513zm-2.66 3.855a4.652 4.652 0 003.157-1.751l.008-.01a4.684 4.684 0 002.701 1.056c-.007 1.792-1.471 4.927-3.206 4.927-1.337 0-2.479-1.912-2.905-3.238.109-.341.187-.669.245-.983zm.101 3.73l-.886.491-.894-.503c.331-.413.635-.893.896-1.413.25.527.551 1.01.884 1.425zM19.32 6.465c-.478 1.427-1.705 3.49-3.2 3.49-1.741 0-3.225-2.864-3.508-4.696.075-.019 2.429.127 4.049-2.001.823.688 1.932 1.143 3.011 1.188.013.647-.144 1.407-.352 2.019zM16.149.991c2.78 0 3.309 2.393 3.353 2.443a4.124 4.124 0 01-2.561-1.274l-.002-.002a.494.494 0 00-.788.085l-.001.002a4.08 4.08 0 01-3.52 2.022h-.063.003c.136-1.822 1.596-3.274 3.58-3.274zm-3.688 6.947c.257.515.563 1.007.913 1.439l-.875.487-.907-.51c.343-.439.635-.929.869-1.415zm-3.455-6.15c1.125 0 2.155.571 2.729 1.514-.029.1-.107.498-.117.548a3.685 3.685 0 01-1.819-1.061l-.002-.002a.494.494 0 00-.787.085l-.001.002a3.717 3.717 0 01-3.177 1.815h-.001c.158-1.627 1.518-2.9 3.174-2.9zm-3.13 3.889a4.699 4.699 0 003.635-1.786l.007-.01c.57.468 1.264.806 2.026.956l.029.005c.029.575.179 1.273.35 1.789-.273.84-.799 1.84-1.451 2.505l-.013.01c-.408.43-.988.719-1.444.719-1.594 0-2.841-2.508-3.14-4.188zm-2.891 6.881c0-.075.033-.139.067-.162l4.116-2.284c.247.206.304.229.353.265.485.323.929.483 1.534.483.645 0 1.233-.273 1.749-.694.029-.023.06-.045.088-.068l.587.33-2.447 1.361a1.271 1.271 0 00-.584 1.069V15.976c0 .152.07.295.19.389.317.249.727.539 1.083.761a10.018 10.018 0 01-6.737-1.98v-2.587z"/><path d="M31.259 20.781a2.042 2.042 0 00-1.102-.319c-.329 0-.641.077-.917.215l.012-.005-6.12 2.957a2.11 2.11 0 00-2.106-2.072l-3.51.001c-1.73-1.504-3.941-2.425-5.952-2.473-1.983-.047-3.762-.06-4.592-.064v-1.002H0v11.516h6.972v-1.379c1.911 1.098 6.939 3.846 9.325 3.846.053 0 .107-.001.157-.005 4.196-.235 14.091-7.198 14.743-7.66a2.083 2.083 0 001.034-1.796v-.006a2.06 2.06 0 00-.965-1.747l-.009-.005zM5.98 28.542H.992v-9.533H5.98v9.533zm24.707-5.057a.385.385 0 00-.045.028l.001-.001c-.103.073-10.281 7.271-14.245 7.493a2.179 2.179 0 01-.12.003c-2.093 0-7.195-2.753-9.307-4.001V20.01c.827.003 2.596.017 4.569.063 1.837.044 3.876.921 5.455 2.346l.141.127h3.888a1.119 1.119 0 010 2.237h-7.142v.991h7.142a2.1 2.1 0 001.673-.839l6.984-3.373a1.052 1.052 0 011.053.06l-.004-.003c.323.202.508.537.508.918a1.087 1.087 0 01-.548.943l-.005.003zM16.611 12.159h-.991v.92h.991v-.92zm0 1.833h-.991v.92h.991v-.92zm0 1.835h-.991v.919h.991v-.92z"/></symbol></defs></svg>
