
<svg aria-hidden="true" style="position:absolute;width:0;height:0" xmlns="http://www.w3.org/2000/svg" overflow="hidden"><defs><symbol id="orange-fire" viewBox="0 0 24 32"><path fill="var(--color1, #ff6b09)" d="M21.909 16.592c-.285-.635-.675-1.259-1.248-1.982-1.44-1.813-1.882-5.856-1.886-5.896a.488.488 0 00-.333-.41l-.003-.001a.49.49 0 00-.519.139c-1.72 1.925-.997 4.898-.606 6.085.109.326.226.709.309 1.096.635 3.136-.592 4.558-.88 4.845-.278.077-.469.038-.645-.15-.608-.664-.808-2.842-.523-5.678a5.837 5.837 0 00-.04-1.581c-.598-3.486-2.79-5.722-3.349-6.506C10.65 4.283 10.495.505 10.49.473A.488.488 0 009.725.09l.002-.001C7.167 1.83 7.386 6.025 7.743 8.366c.083.544.243 1.096.523 1.794.992 2.496-.197 5.722-.206 5.75s-.019.053-.024.083c-.152.795-.406 1.27-.688 1.27a.346.346 0 01-.097-.017l.002.001c-.347-.072-.528-.44-.533-.76-.019-4.136-4.17-5.528-4.214-5.542s-.096-.024-.15-.024a.483.483 0 00-.368.169l-.001.001a.474.474 0 00-.068.536l-.001-.003c.05.102.206.549.099 2.125a18.12 18.12 0 01-.768 4.16C.721 19.63.417 21.607.417 23.656c0 .234.004.468.012.7l-.001-.034c.758 8.256 12.634 9.704 19.682 5.051a7.183 7.183 0 001.854-1.713l.013-.018c2.602-3.587 1.072-8.459-.067-11.05zM3.845 24.48a.486.486 0 01-.461.51h-.033a.486.486 0 01-.485-.455v-.001c-.043-.707-.034-1.45.019-2.256a.493.493 0 01.525-.448h-.002a.488.488 0 01.457.487l-.001.031v-.001a15.808 15.808 0 00-.021 2.134zm.24-4.294a.485.485 0 01-.481.427H3.6c-.021 0-.04 0-.064-.005a.49.49 0 01-.426-.542v.002l.235-1.872a.493.493 0 01.55-.42h-.002a.487.487 0 01.425.546v-.002l-.235 1.866zM18.602 6.632a.486.486 0 01-.409-.555v.003c.032-.197.208-1.205.688-1.712a.491.491 0 01.69-.022.48.48 0 01.022.685c-.203.216-.376.83-.432 1.197a.49.49 0 01-.563.404h.003zM.778 9.048c-.093-.36-.326-.955-.549-1.149a.48.48 0 01-.046-.685.49.49 0 01.692-.044H.874c.526.459.8 1.445.851 1.638a.483.483 0 01-.348.588l-.003.001a.489.489 0 01-.594-.346l-.001-.003z"/></symbol><symbol id="orange-mark" viewBox="0 0 41 32"><path fill="var(--color1, #ff6b09)" d="M34.457 1.513c-1.486.663-2.907 1.477-4.265 2.379-2.731 1.797-5.227 3.936-7.57 6.217a84.919 84.919 0 00-6.455 7.124l-.125.16-2.823 3.467L3.624 6.481.001 16.522l12.978 15.477c1.257-2.551 2.471-5.07 3.662-7.257.297-.558.606-1.081.901-1.614 0 0 1.522-2.674 1.925-3.351a80.284 80.284 0 015.381-8.016l-.144.196c1.909-2.491 3.984-4.869 6.336-6.962a28.433 28.433 0 013.749-2.871A20.523 20.523 0 0138.91.045l.145-.047a21.164 21.164 0 00-4.722 1.568l.13-.055z"/></symbol><symbol id="icon-menu-burger" viewBox="0 0 21 14"><path d="M0 1h20.5M0 7h20.5M0 13h20.5" stroke="#000" stroke-width="2"/></symbol><symbol id="icon-menu-close" viewBox="0 0 32 32"><path d="M23.733 10.304L22.229 8.8l-5.963 5.963L10.303 8.8l-1.504 1.504 5.963 5.963-5.963 5.963 1.504 1.504 5.963-5.963 5.963 5.963 1.504-1.504-5.963-5.963 5.963-5.963z"/></symbol><symbol id="icon-learn" viewBox="0 0 32 32"><path fill="var(--color1, #ff6b09)" d="M29.457.256H14.086a1.817 1.817 0 00-1.815 1.815v6.363L.852 13.227a.371.371 0 00-.047.662l1.456.872v9.288a1.678 1.678 0 00-1.304 1.634v.895c0 .205.167.372.372.372h2.608a.373.373 0 00.372-.372v-.895a1.68 1.68 0 00-1.304-1.633v-8.844l1.151.689c-.035.266-.004-.463-.016 4.324 0 1.574 4.031 2.417 8.132 2.465v7.249a1.813 1.813 0 001.814 1.812h15.371c1 0 1.813-.814 1.813-1.813 0 .05-.002-1.535 0-27.86 0-.987-.816-1.815-1.812-1.815zM3.565 25.682v.523H1.701v-.523c0-.515.417-.935.93-.935.515 0 .934.419.934.935zm25.892 5.316H14.086a1.071 1.071 0 01-1.07-1.067v-2.513h17.508v2.514c0 .582-.485 1.066-1.066 1.066zm1.066-4.323H13.015v-3.989c2.002-.023 8.137-.464 8.137-2.467-.002-3.007.005-4.227-.009-4.33l3.339-2a.373.373 0 00-.047-.662L13.016 8.434V5.328h17.508v21.347zm-17.88-8.925c-2.063 0-6.034.266-7.76 1.393.011-3.446-.12-3.222.305-3.514 1.072-.789 4.137-1.34 7.455-1.34 1.447 0 7.765.398 7.765 1.735v3.119c-1.742-1.137-5.693-1.394-7.765-1.394zm.372-15.679c0-.59.48-1.069 1.069-1.069h15.371c.59 0 1.067.486 1.067 1.069v2.513H13.014V2.071zm-.372 7.013l10.826 4.544-2.683 1.605c-1.426-1.414-6.144-1.689-8.143-1.689-2.002 0-6.72.275-8.143 1.689l-2.683-1.606 10.827-4.544zm-7.76 11.135c0-.602 2.665-1.725 7.76-1.725 5.098 0 7.765 1.123 7.765 1.725s-2.667 1.726-7.765 1.726c-5.095 0-7.76-1.123-7.76-1.726z"/><path fill="var(--color1, #ff6b09)" d="M21.77 27.979a1.231 1.231 0 000 2.46c.678 0 1.23-.552 1.23-1.23s-.552-1.23-1.23-1.23zm0 1.717a.487.487 0 11.001-.973.487.487 0 01-.001.973zM23.189 2.421h-2.837v.744h2.837v-.744z"/></symbol><symbol id="icon-programm" viewBox="0 0 27 32"><path fill="var(--color1, #ff6b09)" d="M-.103 31.359h26.785c.133-3.054-.086-8.122-1.964-10.535l-.068-.087-4.104-2.06c.089-.301.133-.576.151-.778a1.43 1.43 0 00-.1-.678c-.677-1.62-2.11-2.472-2.898-2.836.24-.484.395-1.003.47-1.534.446-.126.805-.479.922-.951l.479-1.946a1.314 1.314 0 00-.151-1.002c-.078-.13-.18-.24-.294-.334 1.351-3.068-.911-5.96-1.035-6.113C15.64-.144 12.546.352 12.382.381c-4.466.935-6.19 4.358-5.217 8.372a1.317 1.317 0 00-.302 1.2l.481 1.948c.117.468.473.82.916.948a5.014 5.014 0 001.152 2.559v1.543c-6.409 3.282-2.348 1.188-7.484 3.786-.01.048-2.41 2.599-2.053 10.159l.022.462zm25.854-.97h-4.408v-1.852l2.916-6.674c1.461 2.424 1.515 7.053 1.493 8.526zm-6.016-12.573c-.17 1.954-1.242 1.363-1.903 2.869-.52-.572-.677-1.258-.537-1.993.253-1.348-.57-1.749-.367-3.166l.031-.032v-.004c.017-.02.18-.213.227-.274 1.744.76 2.584 2.174 2.55 2.6zm-9.356-1.536a4.963 4.963 0 005.574.074c.112 1.114.547 1.337.393 2.157a3.536 3.536 0 00-.054.45l-3.002 3.384-3.838-4.327.926-.484V16.28zm-1.207-4.14v-1.876-3.296c.467-.864 1.104-1.491 1.896-1.866 2.12 1.2 4.56 2.99 6.197 4.791-.002 2.294.006 2.301-.009 2.489l-.001.012c-.128 2.084-1.841 3.811-4.038 3.811-2.136 0-3.909-1.677-4.037-3.831a2.578 2.578 0 01-.008-.233zm-.598 6.346l4.716 5.317 3.166-3.568c.072.208.174.405.29.595l-3.456 4.322-5.154-6.446.438-.22zm9.656-7.127V9.861l.36-.413c.02.758.102-.137-.36 1.911zM12.561 1.334c.192.012 2.765-.391 4.799 1.804.08.1 1.736 2.234 1.071 4.567-.228-1.038-.625-2.369-1.252-3.004l-.686.683c.619.627 1.026 2.537 1.181 3.527-2.84-2.972-6.504-4.853-6.555-4.885-.184.114-1.734.409-2.86 2.598l-.054.105v1.607l-.142.002c-.716-3.454.655-6.198 4.497-7.004zM7.962 9.336l.244.987v1.038l-.405-1.639c-.059-.244.122-.337.161-.386zm-.71 9.814l6.037 7.551 4.085-5.109c.444.398.658.454 1.6.939l-.318-1.078c-.081-.274.239-.713.431-.914.43-.234.789-.566 1.058-.978l3.333 1.674-3.101 7.1v2.055H6.201v-2.055l-3.103-7.099 4.153-2.085zM2.32 21.865l2.916 6.673v1.852H.828c-.022-1.473.033-6.099 1.492-8.524z"/></symbol><symbol id="icon-results" viewBox="0 0 27 32"><path fill="var(--color1, #ff6b09)" d="M.529 13.797c0 .348-.529.348-.529 0C0 6.394 6.004.39 13.407.39c7.406 0 13.407 6.004 13.407 13.407 0 .348-.525.348-.525 0 0-5.004-8.223-5.007-8.223 0 0 .348-.541.348-.541 0 0-4.991-8.235-4.991-8.235 0 0 .348-.541.348-.541 0 0-4.982-8.219-5.017-8.219 0zm8.267-1.943c.142-2.88.595-5.463 1.253-7.435.525-1.567 1.19-2.757 1.943-3.425C6.339 1.611 1.763 5.897.74 11.454c1.946-2.807 6.441-2.583 8.055.399zm8.687-.13c-.146-2.769-.586-5.248-1.218-7.137-1.633-4.89-4.083-4.89-5.716 0-.633 1.889-1.07 4.368-1.219 7.137 1.757-2.985 6.396-2.985 8.153 0zm8.59-.269A12.881 12.881 0 0014.821.995c.756.668 1.418 1.858 1.943 3.425.658 1.972 1.111 4.554 1.253 7.435 1.624-2.997 6.131-3.175 8.055-.399zM11.647 19.932V17.21c-.491.326-.877.829-.877 1.444 0 .598.393.994.877 1.279zm.529.845c-.94-.431-1.931-.934-1.931-2.124 0-1.228.934-1.842 1.931-2.301v4.426zM15.167 24.039v2.754c.497-.329.886-.835.886-1.45 0-.605-.399-1.013-.886-1.304zm-.526-.848c.943.437 1.94.956 1.94 2.152 0 1.231-.94 1.845-1.94 2.301v-4.453z"/><path fill="var(--color1, #ff6b09)" d="M15.167 14.111c2.165.5 4.39 2.121 4.39 4.542 0 2.073-3.504 1.997-3.504 0 0-.617-.389-1.124-.886-1.45v3.874c2.003.655 4.396 1.829 4.396 4.267 0 2.424-2.225 4.042-4.396 4.539-.01 2.307-3.513 2.304-3.519-.003-1.234-.285-2.307-.861-3.083-1.624-.813-.804-1.295-1.814-1.295-2.912 0-2.042 3.5-2.042 3.5 0 0 .611.386 1.114.877 1.44v-3.871c-1.988-.643-4.393-1.852-4.393-4.267 0-2.424 2.225-4.042 4.393-4.539.009-2.307 3.513-2.304 3.519.003zm-2.991.006v.421c-2.06.408-4.396 1.728-4.396 4.108 0 2.288 2.564 3.314 4.396 3.88v5.115c-.991-.453-1.931-1.064-1.931-2.298 0-1.348-2.45-1.348-2.45 0 0 .953.424 1.833 1.139 2.535.908.899 2.01 1.326 3.241 1.57v.424c0 1.624 2.466 1.624 2.466 0v-.421c2.067-.411 4.393-1.731 4.393-4.108 0-2.31-2.557-3.304-4.393-3.884v-5.112c.994.453 1.94 1.063 1.94 2.304 0 1.313 2.447 1.367 2.447 0 0-2.377-2.323-3.7-4.387-4.111v-.424c0-1.624-2.466-1.624-2.466 0z"/></symbol></defs></svg>
<svg width="0" height="0" class="hidden">
  <symbol viewBox="0 0 66 48" fill="none" xmlns="http://www.w3.org/2000/svg" id="book">
    <path d="M29.4 6.912H8.94v1.532H29.4V6.912zm0 5.712H12.004v1.531H29.4v-1.531zm0 5.712H8.94v1.532H29.4v-1.532zm0 5.712H12.004v1.532H29.4v-1.532zm0 5.712H8.94v1.531H29.4V29.76zm0 5.712H12.004v1.532H29.4v-1.532zm28.085-28.56h-20.46v1.532h20.46V6.912zm-3.064 5.712H37.025v1.531h17.396v-1.531zm3.064 5.712h-20.46v1.532h20.46v-1.532zm-3.064 5.712H37.025v1.532h17.396v-1.532zm3.064 5.712h-20.46v1.531h20.46V29.76zm-3.064 5.712H37.025v1.532h17.396v-1.532z" fill="#fff"></path>
    <path d="M64.872 5.168h-2.808V.95a.766.766 0 0 0-.766-.766H38.4A5.924 5.924 0 0 0 33.213 3.2 5.925 5.925 0 0 0 28.024.184H5.128a.766.766 0 0 0-.766.766v4.218H1.553a.766.766 0 0 0-.766.766V47.05c0 .423.343.766.766.766h63.32a.766.766 0 0 0 .765-.766V5.934a.766.766 0 0 0-.766-.766zM38.401 1.716h22.13V42.74H36.768c-1.054 0-2.107.444-2.788 1.02V6.128a4.398 4.398 0 0 1 4.42-4.412zm-32.508 0h22.131a4.385 4.385 0 0 1 4.413 4.243c.001.033.004.136.01.169v37.63c-.68-.574-1.722-1.017-2.778-1.017H5.893V1.716zM2.32 6.7h2.043v36.807c0 .423.343.766.766.766h24.54c1.168 0 2.297.766 2.658 2.011H2.319V6.7zm61.787 39.584H34.1a2.768 2.768 0 0 1 2.667-2.011h24.53a.766.766 0 0 0 .767-.766V6.7h2.042v39.584z" fill="#fff"></path>
  </symbol>
  <symbol viewBox="0 0 48 47" fill="none" xmlns="http://www.w3.org/2000/svg" id="call">
    <path d="M44.32-.188H21.193a2.733 2.733 0 0 0-2.73 2.73v9.574L1.28 19.326a.559.559 0 0 0-.071.997L3.4 21.634V35.61a2.525 2.525 0 0 0-1.961 2.458v1.347c0 .31.25.56.56.56h3.923a.56.56 0 0 0 .56-.56v-1.347c0-1.198-.842-2.2-1.963-2.457V22.304l1.733 1.037c-.054.4-.007-.696-.025 6.506 0 2.368 6.064 3.636 12.235 3.709v10.906a2.727 2.727 0 0 0 2.729 2.726h23.126a2.73 2.73 0 0 0 2.728-2.728c0 .075-.003-2.31 0-41.917 0-1.486-1.228-2.731-2.726-2.731zM5.363 38.067v.788H2.56v-.788c0-.775.627-1.406 1.399-1.406.775 0 1.405.631 1.405 1.406zm38.957 7.999H21.193a1.61 1.61 0 0 1-1.335-.707 1.599 1.599 0 0 1-.275-.899v-3.78h26.341v3.782c0 .876-.73 1.604-1.604 1.604zm1.604-6.505H19.582v-6.002c3.012-.034 12.242-.698 12.242-3.712-.004-4.524.008-6.36-.014-6.515l5.024-3.01a.56.56 0 0 0-.071-.995l-17.181-7.212V7.442h26.342v32.119zM19.022 26.132c-3.103 0-9.08.401-11.675 2.096.016-5.185-.18-4.847.458-5.287 1.613-1.187 6.226-2.016 11.217-2.016 2.177 0 11.683.598 11.683 2.61v4.694c-2.62-1.711-8.566-2.097-11.683-2.097zm.56-23.59a1.61 1.61 0 0 1 1.61-1.608h23.126c.888 0 1.606.732 1.606 1.608v3.781H19.583v-3.78zm-.56 10.552l16.289 6.837-4.036 2.415c-2.146-2.128-9.244-2.54-12.253-2.54-3.013 0-10.111.413-12.252 2.54l-4.037-2.415 16.29-6.837zM7.347 29.847c0-.905 4.01-2.596 11.675-2.596 7.67 0 11.683 1.69 11.683 2.596 0 .906-4.013 2.597-11.683 2.597-7.665 0-11.675-1.69-11.675-2.597z" fill="#FF6B09"></path>
    <path d="M32.755 41.523c-1.02 0-1.85.83-1.85 1.851 0 1.02.83 1.851 1.85 1.851s1.85-.83 1.85-1.851c0-1.02-.83-1.85-1.85-1.85zm0 2.583a.733.733 0 0 1 0-1.464.732.732 0 0 1 0 1.464zM34.89 3.069h-4.27v1.119h4.27V3.069z" fill="#FF6B09"></path>
  </symbol>
  <symbol viewBox="0 0 55 48" fill="none" xmlns="http://www.w3.org/2000/svg" id="headphones">
    <path d="M3.571 44.179h18.345a5.605 5.605 0 0 0 5.07 3.173h1.16a5.603 5.603 0 0 0 5.07-3.173h18.355A3.432 3.432 0 0 0 55 40.75V7.893a3.432 3.432 0 0 0-3.429-3.428H49.72V2.933A2.288 2.288 0 0 0 47.434.648H7.698a2.288 2.288 0 0 0-2.286 2.285v1.532h-1.84a3.432 3.432 0 0 0-3.43 3.428V40.75a3.432 3.432 0 0 0 3.43 3.429zm43.86-7.052H28.715V10.57c4.327.566 7.681 4.267 7.681 8.746v1.03l-.271-.06a1.143 1.143 0 0 0-1.362.87l-1.819 8.28a1.142 1.142 0 0 0 .87 1.36l3.932.867c.204.043.41.065.617.065 1.382 0 2.56-.946 2.861-2.303l1.053-4.788a2.93 2.93 0 0 0-2.227-3.486l-1.368-.301v-1.534c0-5.741-4.376-10.48-9.967-11.056V2.933h18.72l-.002 34.194zM36.75 22.765l2.807.618c.35.078.565.412.488.762l-1.053 4.787c-.076.346-.459.561-.761.497l-2.81-.62 1.329-6.044zM7.698 2.933h18.73v5.325c-5.596.572-9.977 5.313-9.977 11.058v1.533l-1.37.303a2.908 2.908 0 0 0-1.834 1.28 2.895 2.895 0 0 0-.39 2.203l1.05 4.783a2.938 2.938 0 0 0 3.488 2.243l3.915-.865a1.143 1.143 0 0 0 .87-1.36l-1.82-8.279a1.141 1.141 0 0 0-1.362-.87l-.261.057v-1.028c0-4.482 3.36-8.187 7.692-8.748v26.56H7.697V2.932zm10.676 19.833l1.33 6.044-2.794.617a.649.649 0 0 1-.768-.491l-1.053-4.794a.625.625 0 0 1 .083-.478.64.64 0 0 1 .402-.28l2.8-.618zM2.429 7.893c0-.63.512-1.143 1.142-1.143h1.84v30.377a2.288 2.288 0 0 0 2.287 2.286h39.736a2.288 2.288 0 0 0 2.286-2.285V6.75h1.851c.631 0 1.143.513 1.143 1.143V40.75c0 .63-.512 1.143-1.143 1.143H32.44c-.502 0-.946.328-1.093.808a3.332 3.332 0 0 1-3.202 2.366h-1.158a3.343 3.343 0 0 1-3.207-2.38 1.143 1.143 0 0 0-1.088-.794H3.572a1.144 1.144 0 0 1-1.143-1.143V7.893z" fill="#FF6B09"></path>
  </symbol>
  <symbol viewBox="0 0 46 48" fill="none" xmlns="http://www.w3.org/2000/svg" id="magazine">
    <path d="M45.226 7.441l-.001-.004a.42.42 0 0 0-.036-.067l-.004-.005a.413.413 0 0 0-.05-.063L37.925.093a.395.395 0 0 0-.06-.049c-.005-.003-.01-.005-.014-.009a.449.449 0 0 0-.054-.029L37.78 0a.437.437 0 0 0-.148-.03H5.867a.426.426 0 0 0-.425.426v43.966a.39.39 0 0 0 .008.083l.01.035.015.045c.005.013.013.025.02.038.006.011.011.024.019.035a.457.457 0 0 0 .049.06l.004.004 3.247 3.247a.426.426 0 0 0 .602 0l2.947-2.946 2.946 2.946a.423.423 0 0 0 .603 0l2.945-2.945 2.947 2.945a.426.426 0 0 0 .602 0l2.945-2.945 2.946 2.945a.425.425 0 0 0 .602 0l2.947-2.946 2.946 2.946a.423.423 0 0 0 .602 0l2.946-2.945 2.947 2.945a.425.425 0 0 0 .602 0l3.247-3.247.016-.02c.012-.014.025-.028.036-.044.01-.014.017-.03.024-.045.006-.01.011-.018.014-.028.01-.02.014-.04.019-.06l.007-.02a.449.449 0 0 0 .008-.086V7.604a.447.447 0 0 0-.034-.163zM38.05 1.424l5.754 5.753H38.05V1.424zm6.356 42.76l-2.82 2.82-2.947-2.946a.426.426 0 0 0-.602 0l-2.945 2.946-2.946-2.946a.427.427 0 0 0-.602 0l-2.948 2.946-2.944-2.944v-.002a.425.425 0 0 0-.603 0l-2.945 2.946-2.947-2.946a.427.427 0 0 0-.603 0l-2.945 2.946-2.946-2.946a.427.427 0 0 0-.603 0l-2.946 2.946-2.82-2.82V.82h30.904v6.783c0 .235.19.426.426.426h6.782v36.154z" fill="#FF6B09"></path>
    <path d="M9.47 4.851h13.955a.426.426 0 0 0 0-.852H9.471a.426.426 0 1 0 0 .852zm0 2.635h22.38a.426.426 0 0 0 0-.852H9.47a.426.426 0 1 0 0 .852zm-.426 2.366V23.65c0 .235.19.426.427.426h31.758a.426.426 0 0 0 .426-.426V9.852a.426.426 0 0 0-.426-.426H9.47a.426.426 0 0 0-.427.426zm9.418.426h22.34v3.668h-22.34v-3.668zm0 4.52h22.34v3.666h-22.34v-3.666zm0 4.518h22.34v3.908h-22.34v-3.908zm-8.565-9.038h7.713v3.668H9.897v-3.668zm0 4.52h7.713v3.666H9.897v-3.666zm0 4.518h7.713v3.908H9.897v-3.908zm31.332 6.678H9.47a.426.426 0 0 0-.427.426v13.797a.426.426 0 1 0 .852 0v-4.333h7.714v4.333a.426.426 0 0 0 .852 0v-4.333h22.34v4.333a.426.426 0 0 0 .852 0V26.42a.424.424 0 0 0-.425-.426zM17.61 35.03H9.897v-3.665h7.713v3.665zm0-4.518H9.897v-3.666h7.713v3.666zm23.192 4.518h-22.34v-3.665h22.34v3.665zm0-4.518h-22.34v-3.666h22.34v3.666zM3.421-.032a.426.426 0 0 0-.426.426V44.36a.426.426 0 0 0 .852 0V.394a.426.426 0 0 0-.426-.426zm-2.344 0a.426.426 0 0 0-.426.426V44.36a.426.426 0 0 0 .852 0V.394a.426.426 0 0 0-.426-.426z" fill="#FF6B09"></path>
  </symbol>
  <symbol viewBox="0 0 40 47" fill="none" xmlns="http://www.w3.org/2000/svg" id="man">
    <path d="M-.154 46.638h40.177c.2-4.582-.13-12.184-2.946-15.802l-.102-.13-6.156-3.09c.134-.451.2-.864.226-1.168a2.14 2.14 0 0 0-.15-1.017c-1.015-2.43-3.164-3.708-4.346-4.253a7.54 7.54 0 0 0 .704-2.301 1.975 1.975 0 0 0 1.384-1.426l.719-2.92a1.975 1.975 0 0 0-.227-1.503 1.967 1.967 0 0 0-.44-.501c2.025-4.602-1.368-8.94-1.553-9.17C23.462-.614 18.82.128 18.574.173 11.875 1.575 9.29 6.709 10.75 12.73a1.977 1.977 0 0 0-.453 1.8l.722 2.923c.175.702.709 1.23 1.373 1.421a7.52 7.52 0 0 0 1.729 3.84v2.314c-9.614 4.923-3.522 1.782-11.227 5.68-.015.072-3.614 3.898-3.08 15.237l.033.693zm38.781-1.454h-6.612v-2.778l4.373-10.012c2.191 3.637 2.272 10.58 2.24 12.79zm-9.025-18.86c-.255 2.932-1.862 2.046-2.855 4.304-.78-.858-1.015-1.887-.805-2.989.379-2.023-.856-2.623-.55-4.749l.046-.048v-.007c.026-.03.27-.32.34-.411 2.616 1.14 3.876 3.261 3.825 3.9zm-14.034-2.303a7.449 7.449 0 0 0 8.362.112c.168 1.67.82 2.005.59 3.235a5.408 5.408 0 0 0-.082.674l-4.503 5.075-5.757-6.49 1.39-.725v-1.881zm-1.81-6.212v-7.758c.7-1.296 1.656-2.236 2.843-2.8 3.18 1.8 6.84 4.485 9.296 7.188-.003 3.441.01 3.45-.013 3.733l-.002.018c-.192 3.126-2.761 5.716-6.057 5.716-3.203 0-5.863-2.515-6.055-5.747a4.102 4.102 0 0 1-.012-.35zm-.897 9.52l7.074 7.975 4.75-5.353c.108.313.26.608.434.894l-5.184 6.483-7.73-9.669.656-.33zm14.484-10.69v-2.247l.54-.62c.03 1.139.153-.204-.54 2.867zM18.842 1.6c.288.018 4.148-.587 7.199 2.707.12.15 2.604 3.35 1.606 6.851-.342-1.558-.937-3.554-1.878-4.506l-1.028 1.024c.929.94 1.54 3.806 1.771 5.29-4.26-4.458-9.756-7.28-9.832-7.327-.275.171-2.601.613-4.29 3.897l-.08.156v2.412l-.214.002c-1.073-5.182.982-9.298 6.746-10.506zm-6.898 12.002l.365 1.481v1.557l-.607-2.46c-.09-.366.182-.505.242-.578zm-1.065 14.722l9.056 11.326 6.127-7.664c.667.597.987.682 2.4 1.408l-.476-1.617c-.121-.41.358-1.069.647-1.371a4.38 4.38 0 0 0 1.586-1.466l5 2.51-4.653 10.65v3.083H9.303V42.1L4.649 31.452l6.23-3.128zM3.48 32.397l4.374 10.01v2.777H1.242c-.033-2.21.049-9.15 2.238-12.787z" fill="#FF6B09"></path>
  </symbol>
  <symbol viewBox="0 0 49 48" fill="none" xmlns="http://www.w3.org/2000/svg" id="people">
    <path d="M2.99 18.837v4.247c0 .228.104.443.284.585a16.65 16.65 0 0 0 10.255 3.543c1.111 0 2.223-.116 3.31-.336a18.027 18.027 0 0 0 7.335 1.548c2.56 0 5.027-.524 7.335-1.548 4.636.937 9.577-.069 13.564-3.207a.745.745 0 0 0 .284-.585v-4.247c0-.623-.31-1.191-.862-1.54l-5.801-3.264c1.269-1.61 2.214-3.903 2.379-5.87.481-3.384-2.278-6.969-6.249-6.969-1.67 0-3.257.688-4.421 1.84-.04.04-.087.074-.126.115-.036.038-.065.081-.1.12-.023.025-.043.053-.066.08C28.976 1.278 26.795 0 24.224 0c-.25 0-.494.017-.737.042-.015-.001-.028-.009-.043-.009-.138 0-.43.037-.586.082-.023.006-.04.023-.061.031a6.724 6.724 0 0 0-4.52 3.234 6.263 6.263 0 0 0-4.768-2.185c-5.862 0-8.463 6.918-3.836 12.871l-5.854 3.25c-.52.329-.83.898-.83 1.521zm28.505 6.405c-.126.061-.25.127-.377.185l-.003.001a16.505 16.505 0 0 1-6.941 1.509 16.556 16.556 0 0 1-10.012-3.342V19.29c0-.146.071-.276.153-.331l6.813-3.787c.848.72 1.93 1.248 3.053 1.248 1.08 0 2.248-.536 3.078-1.265l6.73 3.78c.125.08.196.209.196.355v4.305a16.635 16.635 0 0 1-2.69 1.647zm12.236-6.67a.303.303 0 0 1 .138.265v3.881c-2.953 2.216-6.505 3.222-10.105 2.97a19.791 19.791 0 0 0 1.624-1.141.744.744 0 0 0 .285-.585V19.29c0-.652-.328-1.253-.916-1.63l-3.575-2.009.87-.482c1.054.86 1.96 1.116 2.772 1.116.994 0 2.04-.487 2.817-1.138l6.09 3.426zm-8.907-15.89c2.071 0 3.89 1.353 4.532 3.213a5.55 5.55 0 0 1-3.355-1.713.744.744 0 0 0-1.183.126 5.524 5.524 0 0 1-3.82 2.64l-.001-.005a7.34 7.34 0 0 0-.049-.98l-.011-.099a8.248 8.248 0 0 0-.182-.913c.844-1.353 2.413-2.27 4.07-2.27zm-3.99 5.783a6.966 6.966 0 0 0 4.747-2.642c1.15.943 2.61 1.515 4.052 1.584-.01 2.688-2.206 7.39-4.809 7.39-2.005 0-3.718-2.868-4.358-4.857.163-.511.281-1.003.368-1.475zm.151 5.594l-1.329.736-1.342-.754c.498-.62.954-1.339 1.345-2.12.375.79.826 1.515 1.326 2.138zM28.98 9.697c-.717 2.14-2.557 5.235-4.8 5.235-2.613 0-4.838-4.296-5.262-7.044.113-.028 3.644.19 6.074-3.001 1.234 1.032 2.898 1.715 4.516 1.782.02.97-.216 2.11-.528 3.028zm-4.756-8.21c4.17 0 4.964 3.59 5.029 3.664a6.193 6.193 0 0 1-3.845-1.914.744.744 0 0 0-1.184.13 6.112 6.112 0 0 1-3.62 2.801 6.465 6.465 0 0 1-1.75.23c.204-2.732 2.394-4.91 5.37-4.91zm-5.532 10.42c.386.772.844 1.51 1.369 2.158l-1.313.73-1.36-.765a11.62 11.62 0 0 0 1.304-2.123zm-5.183-9.225c1.687 0 3.232.856 4.094 2.271-.043.15-.16.747-.175.822a5.505 5.505 0 0 1-2.731-1.594.743.743 0 0 0-1.183.13 5.568 5.568 0 0 1-4.766 2.722c.237-2.44 2.277-4.35 4.761-4.35zM8.814 8.516a7.061 7.061 0 0 0 5.463-2.693 6.938 6.938 0 0 0 3.084 1.441c.043.862.268 1.91.525 2.683-.41 1.26-1.199 2.76-2.176 3.758-.006.006-.014.009-.02.015-.612.645-1.482 1.078-2.166 1.078-2.391 0-4.262-3.762-4.71-6.282zM4.477 18.837c0-.113.05-.209.101-.243l6.174-3.426c.37.309.456.344.53.398.727.484 1.393.724 2.301.724.968 0 1.849-.41 2.624-1.041.043-.034.09-.067.132-.102l.881.495-3.67 2.041a1.905 1.905 0 0 0-.876 1.607v4.672c0 .228.105.443.285.584.475.373 1.091.809 1.624 1.142-3.651.25-7.204-.792-10.106-2.97v-3.881z" fill="#FF6B09"></path>
    <path d="M46.888 31.171a3.092 3.092 0 0 0-3.01-.165l-9.18 4.435a3.166 3.166 0 0 0-3.16-3.107l-5.264.001c-2.595-2.256-5.912-3.638-8.928-3.71-2.974-.07-5.643-.09-6.888-.096v-1.503H0v17.275h10.458v-2.069C13.325 43.879 20.866 48 24.445 48c.08 0 .16-.002.236-.007 6.294-.353 21.136-10.797 22.115-11.49a3.119 3.119 0 0 0 1.551-2.694 3.096 3.096 0 0 0-1.46-2.638zM8.97 42.814H1.488v-14.3H8.97v14.3zm37.06-7.587a.635.635 0 0 0-.065.041c-.154.11-15.421 10.907-21.367 11.24a3.651 3.651 0 0 1-.18.005c-3.14 0-10.792-4.129-13.96-6.001V30.017c1.24.005 3.894.025 6.853.095 2.755.067 5.814 1.382 8.183 3.519l.212.192 5.832-.002a1.68 1.68 0 0 1 1.678 1.678 1.68 1.68 0 0 1-1.678 1.679H20.825v1.487h10.713a3.15 3.15 0 0 0 2.51-1.259l10.476-5.06a1.593 1.593 0 0 1 1.574.086c.484.303.762.805.762 1.377a1.63 1.63 0 0 1-.83 1.418zM24.917 18.238H23.43v1.38h1.487v-1.38zm0 2.75H23.43v1.38h1.487v-1.38zm0 2.752H23.43v1.379h1.487v-1.38z" fill="#FF6B09"></path>
  </symbol>
  <symbol viewBox="0 0 400 472" fill="none" xmlns="http://www.w3.org/2000/svg" id="Vector">
    <path d="M417.788 322.005c-5.498-12.326-13.081-24.463-24.171-38.483-27.964-35.19-36.495-113.662-36.59-114.414-.379-3.764-3.033-6.869-6.541-7.998a9.61 9.61 0 0 0-10.048 2.728c-33.366 37.355-19.337 95.032-11.754 118.085 2.086 6.304 4.361 13.737 5.971 21.264 12.323 60.877-11.47 88.446-17.062 93.997-5.403 1.505-9.1.753-12.513-2.917-11.754-12.89-15.64-55.137-10.143-110.18 1.139-11.197.854-21.265-.758-30.674-11.595-67.654-54.109-111.051-64.932-126.27-29.765-44.034-32.798-117.331-32.893-117.99-.095-3.481-2.085-6.586-5.213-8.092-3.034-1.505-6.731-1.317-9.574.659-49.671 33.779-45.406 115.167-38.486 160.613 1.612 10.538 4.74 21.265 10.143 34.814 19.243 48.457-3.792 111.027-3.981 111.592-.19.564-.379 1.034-.474 1.599-2.939 15.431-7.868 24.652-13.366 24.652-.569 0-1.137-.094-1.801-.282-6.73-1.412-10.237-8.563-10.332-14.773-.379-80.259-80.857-107.263-81.71-107.546-3.603-1.129-7.584-.094-10.049 2.823-2.559 2.917-3.033 6.963-1.327 10.35.948 1.976 3.982 10.632 1.896 41.212-1.8 27.475-6.825 54.667-14.882 80.73C-1.95 409.98 1.083 469.164 1.273 471.986c14.724 160.244 244.979 188.322 381.631 98.043 14.977-9.88 27.205-21.17 36.211-33.59 50.43-69.628 20.76-164.189-1.327-214.434zM67.533 475.091c.285 5.175-3.697 9.598-8.91 9.88h-.569c-5.024 0-9.195-3.858-9.48-8.845-.852-13.737-.663-28.133.38-43.752.38-5.175 4.93-9.033 10.143-8.751 5.213.376 9.195 4.892 8.815 10.067-1.043 14.868-1.232 28.417-.379 41.401zm4.644-83.364c-.569 4.798-4.645 8.28-9.384 8.28-.38 0-.759 0-1.233-.094-5.118-.659-8.815-5.27-8.247-10.444l4.55-36.32c.664-5.081 5.309-8.75 10.617-8.185 5.214.658 8.91 5.363 8.247 10.538l-4.55 36.225z" fill="#3D3D3D"></path>
  </symbol>
    <symbol viewBox="0 0 15 20" fill="none" xmlns="http://www.w3.org/2000/svg" id="fire">
        <g clip-path="url(#clip0)" fill="#FF6B09">
            <path
                d="M13.693 10.37c-.178-.397-.422-.787-.78-1.239-.9-1.133-1.176-3.66-1.179-3.685a.305.305 0 0 0-.21-.257.31.31 0 0 0-.325.087c-1.075 1.203-.623 3.061-.379 3.803.068.204.141.443.193.685.397 1.96-.37 2.849-.55 3.028-.174.048-.293.024-.403-.094-.38-.415-.505-1.776-.327-3.549.036-.36.027-.685-.025-.988-.374-2.179-1.744-3.576-2.093-4.066-.96-1.419-1.057-3.78-1.06-3.8a.305.305 0 1 0-.477-.24c-1.6 1.088-1.463 3.71-1.24 5.173.052.34.152.685.327 1.121.62 1.56-.123 3.576-.129 3.594-.006.018-.012.033-.015.052-.095.497-.254.794-.43.794a.212.212 0 0 1-.059-.01c-.217-.045-.33-.275-.333-.475-.012-2.585-2.606-3.455-2.634-3.464a.304.304 0 0 0-.324.091.298.298 0 0 0-.043.333c.031.064.129.343.062 1.328-.058.884-.22 1.76-.48 2.6A12.668 12.668 0 0 0 .267 15.2c.474 5.16 7.896 6.065 12.301 3.157a4.454 4.454 0 0 0 1.167-1.082c1.626-2.242.67-5.287-.042-6.906zM2.403 15.3a.304.304 0 0 1-.288.319h-.018a.304.304 0 0 1-.306-.285c-.027-.442-.021-.906.012-1.41a.308.308 0 0 1 .327-.28.305.305 0 0 1 .285.323c-.034.48-.04.915-.013 1.334zm.15-2.684a.303.303 0 0 1-.303.267c-.013 0-.025 0-.04-.003a.306.306 0 0 1-.266-.337l.147-1.17a.308.308 0 0 1 .342-.263.304.304 0 0 1 .266.34l-.147 1.166zm9.073-8.471a.303.303 0 0 1-.256-.345c.02-.123.13-.753.43-1.07a.307.307 0 0 1 .431-.014.3.3 0 0 1 .014.428c-.127.135-.235.519-.27.748a.305.305 0 0 1-.35.253zM.486 5.655C.428 5.43.282 5.058.143 4.937a.301.301 0 0 1-.029-.428.307.307 0 0 1 .432-.028c.329.287.5.903.532 1.024a.303.303 0 0 1-.22.368.306.306 0 0 1-.372-.218z">
            </path>
        </g>
        <defs>
            <clipPath id="clip0">
                <path fill="#fff" d="M0 0h14.667v20H0z"></path>
            </clipPath>
        </defs>
    </symbol>
    <symbol viewBox="0 0 18 14" fill="none" xmlns="http://www.w3.org/2000/svg" id="mark">
        <path
            d="M15.075.662c-.65.29-1.272.646-1.866 1.041-1.195.786-2.287 1.722-3.312 2.72A36.922 36.922 0 0 0 7.018 7.61L5.783 9.127 1.585 2.836 0 7.229 5.678 14c.55-1.116 1.081-2.218 1.602-3.175.13-.244.265-.473.394-.706 0 0 .666-1.17.842-1.466a35.42 35.42 0 0 1 2.291-3.421c.835-1.09 1.743-2.13 2.772-3.046A12.43 12.43 0 0 1 15.219.93 9.148 9.148 0 0 1 17.085 0a9.306 9.306 0 0 0-2.009.662z"
            fill="#FF6B09"></path>
    </symbol>
</svg>
<svg aria-hidden="true" style="position: absolute; width: 0; height: 0; overflow: hidden;" version="1.1" xmlns="http://www.w3.org/2000/svg" xmlns:xlink="http://www.w3.org/1999/xlink">
<defs>
<symbol id="icon-audiobook" viewBox="0 0 39 32">
<path d="M3.048 29.453h12.229c0.618 1.262 1.893 2.115 3.367 2.115 0.005 0 0.009 0 0.014-0h0.773c0.004 0 0.009 0 0.014 0 1.474 0 2.748-0.854 3.356-2.093l0.010-0.022h12.237c1.262-0.002 2.284-1.024 2.285-2.286v-21.905c-0.002-1.262-1.024-2.284-2.285-2.285h-1.235v-1.021c-0.001-0.841-0.683-1.523-1.524-1.523h-26.491c-0.841 0.001-1.523 0.682-1.524 1.523v1.021h-1.227c-1.262 0.001-2.284 1.024-2.286 2.285v21.905c0.001 1.262 1.024 2.285 2.286 2.286h0zM32.288 24.751h-12.479v-17.705c2.885 0.377 5.121 2.845 5.121 5.831v0.687l-0.18-0.040c-0.049-0.011-0.106-0.018-0.164-0.018-0.363 0-0.666 0.253-0.743 0.593l-0.001 0.005-1.213 5.52c-0.011 0.049-0.018 0.105-0.018 0.163 0 0.362 0.253 0.666 0.593 0.743l0.005 0.001 2.622 0.578c0.135 0.029 0.273 0.043 0.411 0.043 0.922 0 1.707-0.631 1.907-1.535l0.702-3.192c0.029-0.125 0.045-0.269 0.045-0.417 0-0.929-0.648-1.706-1.517-1.904l-0.013-0.003-0.912-0.201v-1.023c0-3.827-2.917-6.987-6.644-7.371v-3.551h12.48l-0.002 22.796zM25.167 15.177l1.871 0.412c0.233 0.052 0.377 0.275 0.325 0.508l-0.702 3.191c-0.051 0.231-0.305 0.374-0.507 0.331l-1.874-0.413 0.887-4.029zM5.799 1.955h12.487v3.55c-3.731 0.381-6.651 3.542-6.651 7.372v1.022l-0.913 0.202c-0.517 0.115-0.947 0.425-1.218 0.846l-0.005 0.008c-0.193 0.295-0.307 0.657-0.307 1.045 0 0.15 0.017 0.297 0.050 0.437l-0.003-0.013 0.7 3.189c0.199 0.887 0.98 1.539 1.913 1.539 0.146 0 0.289-0.016 0.426-0.046l-0.013 0.002 2.611-0.577c0.344-0.078 0.597-0.381 0.597-0.743 0-0.058-0.006-0.114-0.019-0.168l0.001 0.005-1.213-5.519c-0.077-0.345-0.38-0.598-0.743-0.598-0.059 0-0.116 0.007-0.171 0.019l0.005-0.001-0.174 0.038v-0.685c0-2.988 2.24-5.458 5.128-5.832v17.707h-12.487v-22.797zM12.916 15.177l0.887 4.029-1.863 0.411c-0.027 0.006-0.058 0.009-0.090 0.009-0.205 0-0.377-0.143-0.421-0.334l-0.001-0.003-0.701-3.196c-0.007-0.028-0.011-0.061-0.011-0.094 0-0.083 0.024-0.161 0.066-0.226l-0.001 0.002c0.061-0.094 0.155-0.161 0.265-0.186l0.003-0.001 1.867-0.412zM2.287 5.262c0-0.42 0.341-0.762 0.762-0.762h1.227v20.251c0.001 0.841 0.683 1.523 1.524 1.524h26.491c0.841-0.001 1.523-0.682 1.524-1.523v-20.252h1.235c0.42 0 0.761 0.342 0.761 0.762v21.905c0 0.42-0.341 0.762-0.761 0.762h-12.755c-0.335 0-0.63 0.219-0.729 0.539-0.285 0.92-1.129 1.577-2.126 1.577-0.003 0-0.006 0-0.009-0h-0.772c-0.001 0-0.002 0-0.004 0-1.002 0-1.849-0.661-2.13-1.571l-0.004-0.016c-0.101-0.31-0.388-0.529-0.725-0.529h-12.747c-0.42 0-0.762-0.342-0.762-0.762v-21.905z"></path>
</symbol>
<symbol id="icon-book" viewBox="0 0 46 32">
<path d="M20.267 4.608h-13.64v1.021h13.64v-1.021zM20.267 8.416h-11.597v1.021h11.597v-1.021zM20.267 12.224h-13.64v1.021h13.64v-1.021zM20.267 16.032h-11.597v1.021h11.597v-1.021zM20.267 19.84h-13.64v1.021h13.64v-1.021zM20.267 23.648h-11.597v1.021h11.597v-1.021zM38.99 4.608h-13.64v1.021h13.64v-1.021zM36.947 8.416h-11.597v1.021h11.597v-1.021zM38.99 12.224h-13.64v1.021h13.64v-1.021zM36.947 16.032h-11.597v1.021h11.597v-1.021zM38.99 19.84h-13.64v1.021h13.64v-1.021zM36.947 23.648h-11.597v1.021h11.597v-1.021z"></path>
<path d="M43.915 3.445h-1.872v-2.812c0-0.282-0.229-0.511-0.511-0.511v0h-15.265c-0.005-0-0.011-0-0.017-0-1.469 0-2.75 0.802-3.431 1.991l-0.010 0.019c-0.691-1.209-1.972-2.011-3.441-2.011-0.006 0-0.013 0-0.019 0h-15.263c-0.282 0-0.511 0.229-0.511 0.511v0 2.812h-1.873c-0.282 0-0.511 0.229-0.511 0.511v0 27.411c0 0.282 0.229 0.511 0.511 0.511h42.213c0.282-0 0.51-0.229 0.51-0.511 0 0 0 0 0 0v0-27.411c0-0.282-0.229-0.511-0.511-0.511v0zM26.267 1.144h14.753v27.349h-15.842c-0.703 0-1.405 0.296-1.859 0.68v-25.088c0-0.003 0-0.006 0-0.009 0-1.619 1.313-2.932 2.932-2.932 0.005 0 0.010 0 0.015 0h-0.001zM4.595 1.144h14.754c0.006-0 0.013-0 0.020-0 1.581 0 2.869 1.255 2.922 2.824l0 0.005c0.001 0.022 0.003 0.091 0.007 0.113v25.087c-0.453-0.383-1.148-0.678-1.852-0.678h-15.851v-27.35zM2.213 4.467h1.362v24.538c0 0.282 0.229 0.511 0.511 0.511h16.36c0.779 0 1.531 0.511 1.772 1.341h-20.005v-26.389zM43.405 30.856h-20.005c0.227-0.78 0.936-1.341 1.775-1.341 0.001 0 0.002 0 0.003 0h16.353c0 0 0 0 0.001 0 0.282 0 0.511-0.229 0.511-0.511v0-24.538h1.361v26.389z"></path>
</symbol>
<symbol id="icon-mobilelearning" viewBox="0 0 33 32">
<path d="M30.175-0.128h-15.746c-1.026 0.001-1.858 0.833-1.859 1.859v6.519l-11.699 4.909c-0.139 0.059-0.235 0.194-0.235 0.352 0 0.139 0.074 0.26 0.185 0.326l0.002 0.001 1.491 0.893v9.516c-0.769 0.181-1.333 0.861-1.334 1.673v0.917c0 0.211 0.17 0.381 0.381 0.381h2.671c0.211 0 0.381-0.171 0.381-0.381v0-0.917c0-0.816-0.573-1.498-1.337-1.673v-9.060l1.179 0.706c-0.036 0.272-0.004-0.474-0.016 4.43 0 1.612 4.129 2.476 8.33 2.525v7.425c0 0.383 0.118 0.74 0.319 1.036 0.338 0.497 0.901 0.819 1.539 0.82h15.746c1.025-0.001 1.857-0.832 1.857-1.857v-0c0 0.051-0.002-1.573 0-28.539 0-1.012-0.836-1.859-1.856-1.859zM3.651 25.918v0.537h-1.908v-0.537c0-0.528 0.427-0.957 0.952-0.957 0.528 0 0.957 0.43 0.957 0.957zM30.175 31.364h-15.746c-0.378 0-0.712-0.191-0.909-0.481-0.118-0.171-0.188-0.383-0.188-0.611 0-0 0-0 0-0.001v0-2.574h17.935v2.575c0 0.596-0.497 1.092-1.092 1.092zM31.267 26.935h-17.936v-4.086c2.051-0.023 8.336-0.475 8.336-2.527-0.003-3.080 0.005-4.33-0.010-4.436l3.421-2.049c0.111-0.068 0.184-0.189 0.184-0.326 0-0.157-0.095-0.292-0.23-0.35l-0.002-0.001-11.697-4.91v-3.182h17.935v21.868zM12.951 17.792c-2.113 0-6.182 0.273-7.949 1.427 0.011-3.53-0.123-3.3 0.312-3.6 1.098-0.808 4.238-1.373 7.637-1.373 1.482 0 7.954 0.407 7.954 1.777v3.196c-1.784-1.165-5.832-1.428-7.954-1.428zM13.332 1.731c0.001-0.605 0.491-1.095 1.096-1.095 0 0 0 0 0 0h15.745c0.605 0 1.093 0.498 1.093 1.095v2.574h-17.934v-2.574zM12.951 8.915l11.090 4.655-2.748 1.644c-1.46-1.449-6.293-1.729-8.342-1.729-2.051 0-6.884 0.281-8.342 1.729l-2.749-1.644 11.091-4.655zM5.002 20.321c0-0.616 2.73-1.768 7.949-1.768 5.222 0 7.954 1.151 7.954 1.767s-2.732 1.768-7.954 1.768c-5.219 0-7.949-1.151-7.949-1.768z"></path>
<path d="M22.301 28.271c-0.694 0-1.26 0.565-1.26 1.26s0.565 1.26 1.26 1.26 1.26-0.565 1.26-1.26c0-0.694-0.565-1.26-1.26-1.26zM22.301 30.030c-0.264-0.014-0.473-0.232-0.473-0.498s0.209-0.484 0.472-0.498l0.001-0c0.275 0 0.498 0.223 0.498 0.498s-0.223 0.498-0.498 0.498v0zM23.755 2.090h-2.907v0.762h2.907v-0.762z"></path>
</symbol>
<symbol id="icon-student" viewBox="0 0 27 32">
<path d="M-0.103 31.759h26.785c0.133-3.055-0.087-8.123-1.964-10.535l-0.068-0.087-4.104-2.060c0.089-0.301 0.133-0.576 0.151-0.779 0.020-0.243-0.013-0.471-0.1-0.678-0.677-1.62-2.109-2.472-2.897-2.835 0.24-0.484 0.395-1.003 0.469-1.534 0.456-0.131 0.805-0.489 0.921-0.942l0.002-0.009 0.479-1.947c0.025-0.096 0.039-0.206 0.039-0.319 0-0.252-0.071-0.488-0.194-0.688l0.003 0.006c-0.080-0.13-0.178-0.24-0.291-0.332l-0.002-0.002c1.35-3.068-0.912-5.96-1.035-6.113-2.449-2.648-5.544-2.153-5.708-2.123-4.466 0.935-6.189 4.358-5.216 8.372-0.211 0.233-0.34 0.543-0.34 0.884 0 0.112 0.014 0.221 0.040 0.325l-0.002-0.009 0.481 1.949c0.117 0.468 0.473 0.82 0.915 0.947 0.142 0.989 0.554 1.863 1.158 2.567l-0.006-0.007v1.543c-6.409 3.282-2.348 1.188-7.485 3.787-0.010 0.048-2.41 2.599-2.053 10.158l0.022 0.462zM25.751 30.789h-4.408v-1.852l2.915-6.675c1.461 2.425 1.515 7.053 1.493 8.527zM19.735 18.216c-0.17 1.955-1.241 1.364-1.903 2.869-0.52-0.572-0.677-1.258-0.537-1.993 0.253-1.349-0.571-1.749-0.367-3.166l0.031-0.032v-0.005c0.017-0.020 0.18-0.213 0.227-0.274 1.744 0.76 2.584 2.174 2.549 2.6zM10.379 16.681c0.793 0.559 1.778 0.894 2.842 0.894 1.017 0 1.963-0.306 2.75-0.831l-0.018 0.011c0.112 1.113 0.547 1.337 0.393 2.157-0.025 0.129-0.044 0.283-0.053 0.44l-0 0.009-3.003 3.383-3.838-4.327 0.927-0.483v-1.254zM9.172 12.539v-5.172c0.467-0.864 1.104-1.491 1.895-1.867 2.12 1.2 4.56 2.99 6.197 4.792-0.002 2.294 0.007 2.3-0.009 2.489l-0.001 0.012c-0.128 2.084-1.841 3.811-4.038 3.811-2.135 0-3.909-1.677-4.037-3.831-0.005-0.063-0.008-0.136-0.008-0.21 0-0.008 0-0.016 0-0.024v0.001zM8.574 18.886l4.716 5.317 3.167-3.569c0.072 0.209 0.173 0.405 0.289 0.596l-3.456 4.322-5.153-6.446 0.437-0.22zM18.23 11.759v-1.498l0.36-0.413c0.020 0.759 0.102-0.136-0.36 1.911zM12.561 1.733c0.192 0.012 2.765-0.391 4.799 1.805 0.080 0.1 1.736 2.233 1.071 4.567-0.228-1.039-0.625-2.369-1.252-3.004l-0.685 0.683c0.619 0.627 1.026 2.537 1.181 3.527-2.84-2.972-6.504-4.853-6.555-4.885-0.183 0.114-1.734 0.409-2.86 2.598l-0.053 0.104v1.608l-0.143 0.001c-0.715-3.455 0.655-6.199 4.497-7.004zM7.963 9.735l0.243 0.987v1.038l-0.405-1.64c-0.060-0.244 0.121-0.337 0.161-0.385zM7.253 19.549l6.037 7.551 4.085-5.109c0.445 0.398 0.658 0.454 1.6 0.939l-0.317-1.078c-0.081-0.273 0.239-0.713 0.431-0.914 0.433-0.238 0.789-0.568 1.050-0.966l0.007-0.011 3.333 1.673-3.102 7.1v2.055h-14.175v-2.055l-3.103-7.099 4.153-2.085zM2.32 22.265l2.916 6.673v1.851h-4.408c-0.022-1.473 0.033-6.1 1.492-8.525z"></path>
</symbol>
<symbol id="icon-studyprogram" viewBox="0 0 31 32">
<path d="M30.151 4.961l-0.001-0.003c-0.015-0.035-0.035-0.065-0.060-0.090v0l-4.807-4.806c-0.012-0.012-0.025-0.023-0.039-0.032l-0.001-0.001c-0.003-0.002-0.007-0.003-0.009-0.006-0.010-0.006-0.022-0.013-0.034-0.019l-0.002-0.001-0.011-0.004c-0.029-0.012-0.063-0.019-0.098-0.020h-21.177c-0.157 0-0.284 0.127-0.284 0.284v29.311c0 0.019 0.002 0.037 0.005 0.055l0.007 0.023 0.010 0.030 0.013 0.025 0.013 0.023c0.010 0.015 0.021 0.028 0.033 0.040l2.167 2.167c0.051 0.052 0.122 0.083 0.201 0.083s0.15-0.032 0.201-0.083v0l1.964-1.964 1.964 1.964c0.051 0.052 0.122 0.084 0.201 0.084s0.15-0.032 0.201-0.084l1.963-1.963 1.965 1.963c0.051 0.051 0.122 0.083 0.201 0.083s0.149-0.032 0.201-0.083v0l1.964-1.963 1.963 1.963c0.051 0.051 0.122 0.083 0.201 0.083s0.149-0.032 0.201-0.083v0l1.965-1.964 1.963 1.964c0.051 0.052 0.122 0.084 0.201 0.084s0.149-0.032 0.201-0.084l1.964-1.963 1.965 1.963c0.051 0.051 0.122 0.083 0.201 0.083s0.149-0.032 0.201-0.083v0l2.176-2.178c0.007-0.009 0.017-0.019 0.023-0.029 0.007-0.009 0.011-0.020 0.016-0.030 0.004-0.007 0.007-0.012 0.010-0.019 0.006-0.013 0.009-0.027 0.012-0.040l0.005-0.013c0.003-0.017 0.005-0.036 0.005-0.056 0-0.001 0-0.001 0-0.002v0-24.503c-0.001-0.039-0.009-0.077-0.023-0.111l0.001 0.002zM25.367 0.949l3.836 3.835h-3.836v-3.835zM29.604 29.456l-1.88 1.88-1.965-1.964c-0.051-0.051-0.122-0.083-0.201-0.083s-0.149 0.032-0.201 0.083v0l-1.963 1.964-1.963-1.964c-0.052-0.051-0.123-0.083-0.201-0.083s-0.149 0.032-0.201 0.083v0l-1.965 1.964-1.963-1.964c-0.051-0.052-0.122-0.084-0.201-0.084s-0.15 0.032-0.201 0.084v0l-1.963 1.964-1.965-1.964c-0.052-0.051-0.123-0.083-0.201-0.083s-0.149 0.032-0.201 0.083v0l-1.963 1.964-1.964-1.964c-0.051-0.051-0.122-0.083-0.201-0.083s-0.149 0.032-0.201 0.083v0l-1.965 1.964-1.88-1.88v-28.909h20.603v4.522c0 0.157 0.127 0.284 0.284 0.284h4.521v24.103z"></path>
<path d="M6.313 3.234h9.303c0.157 0 0.284-0.127 0.284-0.284s-0.127-0.284-0.284-0.284h-9.303c-0.157 0-0.284 0.127-0.284 0.284s0.127 0.284 0.284 0.284v0zM6.313 4.991h14.92c0.157 0 0.284-0.127 0.284-0.284s-0.127-0.284-0.284-0.284h-14.92c-0.157 0-0.284 0.127-0.284 0.284s0.127 0.284 0.284 0.284v0zM6.029 6.568v9.199c0 0.157 0.127 0.284 0.285 0.284h21.172c0.157 0 0.284-0.127 0.284-0.284v0-9.199c0-0.157-0.127-0.284-0.284-0.284v0h-21.172c-0 0-0 0-0.001 0-0.157 0-0.284 0.127-0.284 0.284 0 0 0 0 0 0v0zM12.308 6.852h14.893v2.445h-14.893v-2.445zM12.308 9.865h14.893v2.444h-14.893v-2.444zM12.308 12.877h14.893v2.605h-14.893v-2.605zM6.598 6.852h5.142v2.445h-5.142v-2.445zM6.598 9.865h5.142v2.444h-5.142v-2.444zM6.598 12.877h5.142v2.605h-5.142v-2.605zM27.486 17.329h-21.172c-0 0-0 0-0.001 0-0.157 0-0.284 0.127-0.284 0.284 0 0 0 0 0 0v0 9.198c0 0.157 0.127 0.284 0.284 0.284s0.284-0.127 0.284-0.284v-2.889h5.143v2.889c0 0.157 0.127 0.284 0.284 0.284s0.284-0.127 0.284-0.284v0-2.889h14.893v2.889c0 0.157 0.127 0.284 0.284 0.284s0.284-0.127 0.284-0.284v0-9.198c0-0 0-0.001 0-0.001 0-0.156-0.127-0.283-0.283-0.283-0 0-0 0-0.001 0h0zM11.74 23.353h-5.142v-2.443h5.142v2.443zM11.74 20.341h-5.142v-2.444h5.142v2.444zM27.201 23.353h-14.893v-2.443h14.893v2.443zM27.201 20.341h-14.893v-2.444h14.893v2.444zM2.281-0.021c-0.157 0-0.284 0.127-0.284 0.284v29.311c0 0.157 0.127 0.284 0.284 0.284s0.284-0.127 0.284-0.284v0-29.311c0 0 0 0 0 0 0-0.157-0.127-0.284-0.284-0.284-0 0-0 0-0.001 0h0zM0.719-0.021c-0 0-0.001 0-0.001 0-0.157 0-0.284 0.127-0.284 0.284 0 0 0 0 0 0v0 29.311c0 0.157 0.127 0.284 0.284 0.284s0.284-0.127 0.284-0.284v0-29.311c0 0 0 0 0 0 0-0.157-0.127-0.284-0.283-0.284h-0z"></path>
</symbol>
<symbol id="icon-support" viewBox="0 0 33 32">
<path d="M1.993 12.558v2.831c0 0.152 0.069 0.295 0.189 0.39 1.864 1.471 4.246 2.36 6.836 2.362h0c0.741 0 1.482-0.077 2.207-0.224 1.433 0.652 3.108 1.032 4.872 1.032 0.006 0 0.012 0 0.019 0h-0.001c1.707 0 3.351-0.349 4.89-1.032 3.091 0.625 6.385-0.046 9.043-2.138 0.116-0.092 0.189-0.232 0.189-0.39v0-2.831c0-0.415-0.207-0.794-0.575-1.027l-3.867-2.176c0.846-1.073 1.476-2.602 1.586-3.913 0.321-2.256-1.519-4.646-4.166-4.646-1.113 0-2.171 0.459-2.947 1.227-0.027 0.027-0.058 0.049-0.084 0.077-0.024 0.025-0.043 0.054-0.067 0.080-0.015 0.017-0.029 0.035-0.044 0.053-0.757-1.381-2.211-2.233-3.925-2.233-0.167 0-0.329 0.011-0.491 0.028-0.010-0.001-0.019-0.006-0.029-0.006-0.092 0-0.287 0.025-0.391 0.055-0.015 0.004-0.027 0.015-0.041 0.021-1.296 0.262-2.369 1.054-3.002 2.135l-0.011 0.021c-0.77-0.894-1.904-1.457-3.169-1.457-0.003 0-0.007 0-0.010 0h0.001c-3.908 0-5.642 4.612-2.557 8.581l-3.903 2.167c-0.347 0.219-0.553 0.599-0.553 1.014zM20.997 16.828c-0.084 0.041-0.167 0.085-0.251 0.123l-0.002 0.001c-1.349 0.635-2.929 1.006-4.596 1.006-0.011 0-0.022-0-0.033-0h0.002c-0.007 0-0.016 0-0.025 0-2.509 0-4.823-0.837-6.677-2.248l0.027 0.020v-2.87c0-0.097 0.047-0.184 0.102-0.221l4.542-2.525c0.565 0.48 1.287 0.832 2.035 0.832 0.72 0 1.499-0.357 2.052-0.843l4.487 2.52c0.083 0.053 0.131 0.139 0.131 0.237v2.87c-0.52 0.395-1.108 0.76-1.729 1.069l-0.064 0.029zM29.154 12.381c0.056 0.037 0.092 0.099 0.092 0.169 0 0.003-0 0.005-0 0.008v-0 2.587c-1.969 1.477-4.337 2.148-6.737 1.98 0.418-0.265 0.771-0.515 1.111-0.782l-0.028 0.022c0.116-0.092 0.19-0.232 0.19-0.39v-3.115c0-0.435-0.219-0.835-0.61-1.087l-2.384-1.339 0.58-0.321c0.703 0.573 1.307 0.744 1.848 0.744 0.663 0 1.36-0.325 1.878-0.759l4.060 2.284zM23.216 1.788c1.381 0 2.593 0.902 3.021 2.142-0.889-0.115-1.664-0.531-2.235-1.14l-0.002-0.002c-0.091-0.097-0.22-0.158-0.363-0.158-0.18 0-0.338 0.096-0.424 0.24l-0.001 0.002c-0.547 0.916-1.456 1.567-2.526 1.757l-0.022 0.003v-0.003c0-0.025 0.001-0.054 0.001-0.084 0-0.201-0.012-0.398-0.036-0.593l0.002 0.023-0.007-0.066c-0.034-0.24-0.076-0.446-0.13-0.647l0.009 0.038c0.563-0.902 1.609-1.513 2.713-1.513zM20.556 5.643c1.291-0.143 2.407-0.797 3.157-1.751l0.008-0.010c0.767 0.629 1.74 1.010 2.701 1.056-0.007 1.792-1.471 4.927-3.206 4.927-1.337 0-2.479-1.912-2.905-3.238 0.109-0.341 0.187-0.669 0.245-0.983zM20.657 9.373l-0.886 0.491-0.894-0.503c0.331-0.413 0.635-0.893 0.896-1.413 0.25 0.527 0.551 1.010 0.884 1.425zM19.32 6.465c-0.478 1.427-1.705 3.49-3.2 3.49-1.741 0-3.225-2.864-3.508-4.696 0.075-0.019 2.429 0.127 4.049-2.001 0.823 0.688 1.932 1.143 3.011 1.188 0.013 0.647-0.144 1.407-0.352 2.019zM16.149 0.991c2.78 0 3.309 2.393 3.353 2.443-1.017-0.113-1.908-0.58-2.561-1.274l-0.002-0.002c-0.091-0.097-0.219-0.157-0.362-0.157-0.181 0-0.339 0.097-0.426 0.242l-0.001 0.002c-0.72 1.218-2.026 2.022-3.52 2.022-0.021 0-0.042-0-0.063-0l0.003 0c0.136-1.822 1.596-3.274 3.58-3.274zM12.461 7.938c0.257 0.515 0.563 1.007 0.913 1.439l-0.875 0.487-0.907-0.51c0.343-0.439 0.635-0.929 0.869-1.415zM9.006 1.788c1.125 0 2.155 0.571 2.729 1.514-0.029 0.1-0.107 0.498-0.117 0.548-0.723-0.179-1.343-0.552-1.819-1.061l-0.002-0.002c-0.091-0.097-0.219-0.157-0.362-0.157-0.181 0-0.339 0.097-0.425 0.242l-0.001 0.002c-0.657 1.090-1.832 1.81-3.177 1.815h-0.001c0.158-1.627 1.518-2.9 3.174-2.9zM5.876 5.677c1.475-0.018 2.784-0.712 3.635-1.786l0.007-0.010c0.57 0.468 1.264 0.806 2.026 0.956l0.029 0.005c0.029 0.575 0.179 1.273 0.35 1.789-0.273 0.84-0.799 1.84-1.451 2.505-0.004 0.004-0.009 0.006-0.013 0.010-0.408 0.43-0.988 0.719-1.444 0.719-1.594 0-2.841-2.508-3.14-4.188zM2.985 12.558c0-0.075 0.033-0.139 0.067-0.162l4.116-2.284c0.247 0.206 0.304 0.229 0.353 0.265 0.485 0.323 0.929 0.483 1.534 0.483 0.645 0 1.233-0.273 1.749-0.694 0.029-0.023 0.060-0.045 0.088-0.068l0.587 0.33-2.447 1.361c-0.353 0.229-0.584 0.622-0.584 1.069 0 0.001 0 0.002 0 0.003v-0 3.115c0 0.152 0.070 0.295 0.19 0.389 0.317 0.249 0.727 0.539 1.083 0.761-2.434 0.167-4.803-0.528-6.737-1.98v-2.587z"></path>
<path d="M31.259 20.781c-0.312-0.2-0.693-0.319-1.102-0.319-0.329 0-0.641 0.077-0.917 0.215l0.012-0.005-6.12 2.957c-0.022-1.148-0.956-2.070-2.106-2.072l-3.51 0.001c-1.73-1.504-3.941-2.425-5.952-2.473-1.983-0.047-3.762-0.060-4.592-0.064v-1.002h-6.972v11.516h6.972v-1.379c1.911 1.098 6.939 3.846 9.325 3.846 0.053 0 0.107-0.001 0.157-0.005 4.196-0.235 14.091-7.198 14.743-7.66 0.622-0.367 1.033-1.033 1.034-1.796v-0c0-0.002 0-0.004 0-0.006 0-0.736-0.385-1.382-0.965-1.747l-0.009-0.005zM5.98 28.542h-4.988v-9.533h4.988v9.533zM30.687 23.485c-0.017 0.009-0.031 0.018-0.045 0.028l0.001-0.001c-0.103 0.073-10.281 7.271-14.245 7.493-0.035 0.002-0.077 0.003-0.12 0.003h-0c-2.093 0-7.195-2.753-9.307-4.001v-6.997c0.827 0.003 2.596 0.017 4.569 0.063 1.837 0.044 3.876 0.921 5.455 2.346l0.141 0.127h3.888c0.617 0.001 1.118 0.501 1.119 1.118v0c-0 0.618-0.501 1.119-1.119 1.119h-7.142v0.991h7.142c0.685 0 1.288-0.333 1.673-0.839l6.984-3.373c0.138-0.070 0.301-0.112 0.474-0.112 0.214 0 0.413 0.063 0.579 0.172l-0.004-0.003c0.323 0.202 0.508 0.537 0.508 0.918-0.001 0.404-0.221 0.756-0.548 0.943l-0.005 0.003zM16.611 12.159h-0.991v0.92h0.991v-0.92zM16.611 13.992h-0.991v0.92h0.991v-0.92zM16.611 15.827h-0.991v0.919h0.991v-0.92z"></path>
</symbol>
</defs>
</svg>
