<svg aria-hidden="true" style="position:absolute;width:0;height:0" xmlns="http://www.w3.org/2000/svg" overflow="hidden"><defs><symbol id="orange-fire" viewBox="0 0 24 32"><path fill="var(--color1, #ff6b09)" d="M21.909 16.592c-.285-.635-.675-1.259-1.248-1.982-1.44-1.813-1.882-5.856-1.886-5.896a.488.488 0 00-.333-.41l-.003-.001a.49.49 0 00-.519.139c-1.72 1.925-.997 4.898-.606 6.085.109.326.226.709.309 1.096.635 3.136-.592 4.558-.88 4.845-.278.077-.469.038-.645-.15-.608-.664-.808-2.842-.523-5.678a5.837 5.837 0 00-.04-1.581c-.598-3.486-2.79-5.722-3.349-6.506C10.65 4.283 10.495.505 10.49.473A.488.488 0 009.725.09l.002-.001C7.167 1.83 7.386 6.025 7.743 8.366c.083.544.243 1.096.523 1.794.992 2.496-.197 5.722-.206 5.75s-.019.053-.024.083c-.152.795-.406 1.27-.688 1.27a.346.346 0 01-.097-.017l.002.001c-.347-.072-.528-.44-.533-.76-.019-4.136-4.17-5.528-4.214-5.542s-.096-.024-.15-.024a.483.483 0 00-.368.169l-.001.001a.474.474 0 00-.068.536l-.001-.003c.05.102.206.549.099 2.125a18.12 18.12 0 01-.768 4.16C.721 19.63.417 21.607.417 23.656c0 .234.004.468.012.7l-.001-.034c.758 8.256 12.634 9.704 19.682 5.051a7.183 7.183 0 001.854-1.713l.013-.018c2.602-3.587 1.072-8.459-.067-11.05zM3.845 24.48a.486.486 0 01-.461.51h-.033a.486.486 0 01-.485-.455v-.001c-.043-.707-.034-1.45.019-2.256a.493.493 0 01.525-.448h-.002a.488.488 0 01.457.487l-.001.031v-.001a15.808 15.808 0 00-.021 2.134zm.24-4.294a.485.485 0 01-.481.427H3.6c-.021 0-.04 0-.064-.005a.49.49 0 01-.426-.542v.002l.235-1.872a.493.493 0 01.55-.42h-.002a.487.487 0 01.425.546v-.002l-.235 1.866zM18.602 6.632a.486.486 0 01-.409-.555v.003c.032-.197.208-1.205.688-1.712a.491.491 0 01.69-.022.48.48 0 01.022.685c-.203.216-.376.83-.432 1.197a.49.49 0 01-.563.404h.003zM.778 9.048c-.093-.36-.326-.955-.549-1.149a.48.48 0 01-.046-.685.49.49 0 01.692-.044H.874c.526.459.8 1.445.851 1.638a.483.483 0 01-.348.588l-.003.001a.489.489 0 01-.594-.346l-.001-.003z"/></symbol><symbol id="orange-mark" viewBox="0 0 41 32"><path fill="var(--color1, #ff6b09)" d="M34.457 1.513c-1.486.663-2.907 1.477-4.265 2.379-2.731 1.797-5.227 3.936-7.57 6.217a84.919 84.919 0 00-6.455 7.124l-.125.16-2.823 3.467L3.624 6.481.001 16.522l12.978 15.477c1.257-2.551 2.471-5.07 3.662-7.257.297-.558.606-1.081.901-1.614 0 0 1.522-2.674 1.925-3.351a80.284 80.284 0 015.381-8.016l-.144.196c1.909-2.491 3.984-4.869 6.336-6.962a28.433 28.433 0 013.749-2.871A20.523 20.523 0 0138.91.045l.145-.047a21.164 21.164 0 00-4.722 1.568l.13-.055z"/></symbol><symbol id="icon-menu-close" viewBox="0 0 32 32"><path fill="none" stroke="var(--color1, #fff)" stroke-width="3.765" d="M1.882 29.168L29.168 1.882M29.168 29.168L1.882 1.882"/></symbol><symbol id="icon-menu-burger" viewBox="0 0 21 14"><path d="M0 1h20.5M0 7h20.5M0 13h20.5" stroke="#000" stroke-width="2"/></symbol></defs></svg>