<svg aria-hidden="true" style="position:absolute;width:0;height:0" xmlns="http://www.w3.org/2000/svg" overflow="hidden"><defs><symbol id="orange-fire" viewBox="0 0 24 32"><path fill="var(--color1, #ff6b09)" d="M21.909 16.592c-.285-.635-.675-1.259-1.248-1.982-1.44-1.813-1.882-5.856-1.886-5.896a.488.488 0 00-.333-.41l-.003-.001a.49.49 0 00-.519.139c-1.72 1.925-.997 4.898-.606 6.085.109.326.226.709.309 1.096.635 3.136-.592 4.558-.88 4.845-.278.077-.469.038-.645-.15-.608-.664-.808-2.842-.523-5.678a5.837 5.837 0 00-.04-1.581c-.598-3.486-2.79-5.722-3.349-6.506C10.65 4.283 10.495.505 10.49.473A.488.488 0 009.725.09l.002-.001C7.167 1.83 7.386 6.025 7.743 8.366c.083.544.243 1.096.523 1.794.992 2.496-.197 5.722-.206 5.75s-.019.053-.024.083c-.152.795-.406 1.27-.688 1.27a.346.346 0 01-.097-.017l.002.001c-.347-.072-.528-.44-.533-.76-.019-4.136-4.17-5.528-4.214-5.542s-.096-.024-.15-.024a.483.483 0 00-.368.169l-.001.001a.474.474 0 00-.068.536l-.001-.003c.05.102.206.549.099 2.125a18.12 18.12 0 01-.768 4.16C.721 19.63.417 21.607.417 23.656c0 .234.004.468.012.7l-.001-.034c.758 8.256 12.634 9.704 19.682 5.051a7.183 7.183 0 001.854-1.713l.013-.018c2.602-3.587 1.072-8.459-.067-11.05zM3.845 24.48a.486.486 0 01-.461.51h-.033a.486.486 0 01-.485-.455v-.001c-.043-.707-.034-1.45.019-2.256a.493.493 0 01.525-.448h-.002a.488.488 0 01.457.487l-.001.031v-.001a15.808 15.808 0 00-.021 2.134zm.24-4.294a.485.485 0 01-.481.427H3.6c-.021 0-.04 0-.064-.005a.49.49 0 01-.426-.542v.002l.235-1.872a.493.493 0 01.55-.42h-.002a.487.487 0 01.425.546v-.002l-.235 1.866zM18.602 6.632a.486.486 0 01-.409-.555v.003c.032-.197.208-1.205.688-1.712a.491.491 0 01.69-.022.48.48 0 01.022.685c-.203.216-.376.83-.432 1.197a.49.49 0 01-.563.404h.003zM.778 9.048c-.093-.36-.326-.955-.549-1.149a.48.48 0 01-.046-.685.49.49 0 01.692-.044H.874c.526.459.8 1.445.851 1.638a.483.483 0 01-.348.588l-.003.001a.489.489 0 01-.594-.346l-.001-.003z"/></symbol><symbol id="orange-mark" viewBox="0 0 41 32"><path fill="var(--color1, #ff6b09)" d="M34.457 1.513c-1.486.663-2.907 1.477-4.265 2.379-2.731 1.797-5.227 3.936-7.57 6.217a84.919 84.919 0 00-6.455 7.124l-.125.16-2.823 3.467L3.624 6.481.001 16.522l12.978 15.477c1.257-2.551 2.471-5.07 3.662-7.257.297-.558.606-1.081.901-1.614 0 0 1.522-2.674 1.925-3.351a80.284 80.284 0 015.381-8.016l-.144.196c1.909-2.491 3.984-4.869 6.336-6.962a28.433 28.433 0 013.749-2.871A20.523 20.523 0 0138.91.045l.145-.047a21.164 21.164 0 00-4.722 1.568l.13-.055z"/></symbol><symbol id="icon-menu-burger" viewBox="0 0 21 14"><path d="M0 1h20.5M0 7h20.5M0 13h20.5" stroke="#000" stroke-width="2"/></symbol><symbol id="icon-menu-close" viewBox="0 0 32 32"><path d="M23.733 10.304L22.229 8.8l-5.963 5.963L10.303 8.8l-1.504 1.504 5.963 5.963-5.963 5.963 1.504 1.504 5.963-5.963 5.963 5.963 1.504-1.504-5.963-5.963 5.963-5.963z"/></symbol><symbol id="icon-learn" viewBox="0 0 32 32"><path fill="var(--color1, #ff6b09)" d="M29.457.256H14.086a1.817 1.817 0 00-1.815 1.815v6.363L.852 13.227a.371.371 0 00-.047.662l1.456.872v9.288a1.678 1.678 0 00-1.304 1.634v.895c0 .205.167.372.372.372h2.608a.373.373 0 00.372-.372v-.895a1.68 1.68 0 00-1.304-1.633v-8.844l1.151.689c-.035.266-.004-.463-.016 4.324 0 1.574 4.031 2.417 8.132 2.465v7.249a1.813 1.813 0 001.814 1.812h15.371c1 0 1.813-.814 1.813-1.813 0 .05-.002-1.535 0-27.86 0-.987-.816-1.815-1.812-1.815zM3.565 25.682v.523H1.701v-.523c0-.515.417-.935.93-.935.515 0 .934.419.934.935zm25.892 5.316H14.086a1.071 1.071 0 01-1.07-1.067v-2.513h17.508v2.514c0 .582-.485 1.066-1.066 1.066zm1.066-4.323H13.015v-3.989c2.002-.023 8.137-.464 8.137-2.467-.002-3.007.005-4.227-.009-4.33l3.339-2a.373.373 0 00-.047-.662L13.016 8.434V5.328h17.508v21.347zm-17.88-8.925c-2.063 0-6.034.266-7.76 1.393.011-3.446-.12-3.222.305-3.514 1.072-.789 4.137-1.34 7.455-1.34 1.447 0 7.765.398 7.765 1.735v3.119c-1.742-1.137-5.693-1.394-7.765-1.394zm.372-15.679c0-.59.48-1.069 1.069-1.069h15.371c.59 0 1.067.486 1.067 1.069v2.513H13.014V2.071zm-.372 7.013l10.826 4.544-2.683 1.605c-1.426-1.414-6.144-1.689-8.143-1.689-2.002 0-6.72.275-8.143 1.689l-2.683-1.606 10.827-4.544zm-7.76 11.135c0-.602 2.665-1.725 7.76-1.725 5.098 0 7.765 1.123 7.765 1.725s-2.667 1.726-7.765 1.726c-5.095 0-7.76-1.123-7.76-1.726z"/><path fill="var(--color1, #ff6b09)" d="M21.77 27.979a1.231 1.231 0 000 2.46c.678 0 1.23-.552 1.23-1.23s-.552-1.23-1.23-1.23zm0 1.717a.487.487 0 11.001-.973.487.487 0 01-.001.973zM23.189 2.421h-2.837v.744h2.837v-.744z"/></symbol><symbol id="icon-programm" viewBox="0 0 27 32"><path fill="var(--color1, #ff6b09)" d="M-.103 31.359h26.785c.133-3.054-.086-8.122-1.964-10.535l-.068-.087-4.104-2.06c.089-.301.133-.576.151-.778a1.43 1.43 0 00-.1-.678c-.677-1.62-2.11-2.472-2.898-2.836.24-.484.395-1.003.47-1.534.446-.126.805-.479.922-.951l.479-1.946a1.314 1.314 0 00-.151-1.002c-.078-.13-.18-.24-.294-.334 1.351-3.068-.911-5.96-1.035-6.113C15.64-.144 12.546.352 12.382.381c-4.466.935-6.19 4.358-5.217 8.372a1.317 1.317 0 00-.302 1.2l.481 1.948c.117.468.473.82.916.948a5.014 5.014 0 001.152 2.559v1.543c-6.409 3.282-2.348 1.188-7.484 3.786-.01.048-2.41 2.599-2.053 10.159l.022.462zm25.854-.97h-4.408v-1.852l2.916-6.674c1.461 2.424 1.515 7.053 1.493 8.526zm-6.016-12.573c-.17 1.954-1.242 1.363-1.903 2.869-.52-.572-.677-1.258-.537-1.993.253-1.348-.57-1.749-.367-3.166l.031-.032v-.004c.017-.02.18-.213.227-.274 1.744.76 2.584 2.174 2.55 2.6zm-9.356-1.536a4.963 4.963 0 005.574.074c.112 1.114.547 1.337.393 2.157a3.536 3.536 0 00-.054.45l-3.002 3.384-3.838-4.327.926-.484V16.28zm-1.207-4.14v-1.876-3.296c.467-.864 1.104-1.491 1.896-1.866 2.12 1.2 4.56 2.99 6.197 4.791-.002 2.294.006 2.301-.009 2.489l-.001.012c-.128 2.084-1.841 3.811-4.038 3.811-2.136 0-3.909-1.677-4.037-3.831a2.578 2.578 0 01-.008-.233zm-.598 6.346l4.716 5.317 3.166-3.568c.072.208.174.405.29.595l-3.456 4.322-5.154-6.446.438-.22zm9.656-7.127V9.861l.36-.413c.02.758.102-.137-.36 1.911zM12.561 1.334c.192.012 2.765-.391 4.799 1.804.08.1 1.736 2.234 1.071 4.567-.228-1.038-.625-2.369-1.252-3.004l-.686.683c.619.627 1.026 2.537 1.181 3.527-2.84-2.972-6.504-4.853-6.555-4.885-.184.114-1.734.409-2.86 2.598l-.054.105v1.607l-.142.002c-.716-3.454.655-6.198 4.497-7.004zM7.962 9.336l.244.987v1.038l-.405-1.639c-.059-.244.122-.337.161-.386zm-.71 9.814l6.037 7.551 4.085-5.109c.444.398.658.454 1.6.939l-.318-1.078c-.081-.274.239-.713.431-.914.43-.234.789-.566 1.058-.978l3.333 1.674-3.101 7.1v2.055H6.201v-2.055l-3.103-7.099 4.153-2.085zM2.32 21.865l2.916 6.673v1.852H.828c-.022-1.473.033-6.099 1.492-8.524z"/></symbol><symbol id="icon-results" viewBox="0 0 27 32"><path fill="var(--color1, #ff6b09)" d="M.529 13.797c0 .348-.529.348-.529 0C0 6.394 6.004.39 13.407.39c7.406 0 13.407 6.004 13.407 13.407 0 .348-.525.348-.525 0 0-5.004-8.223-5.007-8.223 0 0 .348-.541.348-.541 0 0-4.991-8.235-4.991-8.235 0 0 .348-.541.348-.541 0 0-4.982-8.219-5.017-8.219 0zm8.267-1.943c.142-2.88.595-5.463 1.253-7.435.525-1.567 1.19-2.757 1.943-3.425C6.339 1.611 1.763 5.897.74 11.454c1.946-2.807 6.441-2.583 8.055.399zm8.687-.13c-.146-2.769-.586-5.248-1.218-7.137-1.633-4.89-4.083-4.89-5.716 0-.633 1.889-1.07 4.368-1.219 7.137 1.757-2.985 6.396-2.985 8.153 0zm8.59-.269A12.881 12.881 0 0014.821.995c.756.668 1.418 1.858 1.943 3.425.658 1.972 1.111 4.554 1.253 7.435 1.624-2.997 6.131-3.175 8.055-.399zM11.647 19.932V17.21c-.491.326-.877.829-.877 1.444 0 .598.393.994.877 1.279zm.529.845c-.94-.431-1.931-.934-1.931-2.124 0-1.228.934-1.842 1.931-2.301v4.426zM15.167 24.039v2.754c.497-.329.886-.835.886-1.45 0-.605-.399-1.013-.886-1.304zm-.526-.848c.943.437 1.94.956 1.94 2.152 0 1.231-.94 1.845-1.94 2.301v-4.453z"/><path fill="var(--color1, #ff6b09)" d="M15.167 14.111c2.165.5 4.39 2.121 4.39 4.542 0 2.073-3.504 1.997-3.504 0 0-.617-.389-1.124-.886-1.45v3.874c2.003.655 4.396 1.829 4.396 4.267 0 2.424-2.225 4.042-4.396 4.539-.01 2.307-3.513 2.304-3.519-.003-1.234-.285-2.307-.861-3.083-1.624-.813-.804-1.295-1.814-1.295-2.912 0-2.042 3.5-2.042 3.5 0 0 .611.386 1.114.877 1.44v-3.871c-1.988-.643-4.393-1.852-4.393-4.267 0-2.424 2.225-4.042 4.393-4.539.009-2.307 3.513-2.304 3.519.003zm-2.991.006v.421c-2.06.408-4.396 1.728-4.396 4.108 0 2.288 2.564 3.314 4.396 3.88v5.115c-.991-.453-1.931-1.064-1.931-2.298 0-1.348-2.45-1.348-2.45 0 0 .953.424 1.833 1.139 2.535.908.899 2.01 1.326 3.241 1.57v.424c0 1.624 2.466 1.624 2.466 0v-.421c2.067-.411 4.393-1.731 4.393-4.108 0-2.31-2.557-3.304-4.393-3.884v-5.112c.994.453 1.94 1.063 1.94 2.304 0 1.313 2.447 1.367 2.447 0 0-2.377-2.323-3.7-4.387-4.111v-.424c0-1.624-2.466-1.624-2.466 0z"/></symbol></defs></svg>