<svg width="0" height="0" class="hidden" >
  <symbol version="1" xmlns="http://www.w3.org/2000/svg" viewBox="0 0 1280 1301" id="fire-fire3">
    <path d="M599.6 1.5c-5.4 1.9-16 9.4-28.5 20.1-59.6 50.9-96 132.1-108 240.9-3.2 29.1-4.2 49.9-4.2 86 0 52.9 3.2 96.8 11.2 152.5 5.5 38.2 14.2 69.7 32.3 116.9 13.7 35.5 20.5 66.3 23.7 106.5 1.5 19.2.6 73-1.5 92.1-5.8 51.5-16.7 102.8-31 145.6-1.9 5.7-4.6 15.8-6.1 22.4-8.4 37.8-22.1 63.9-35.5 67.5-9.8 2.6-24.8-5-32.5-16.5-7-10.6-8.6-17.1-9.6-39.9-2.4-54.8-13.9-99.5-36.8-143.1-40-76.3-114.4-141.3-205.6-179.7-14.7-6.1-15.2-6.3-24-6.3-8.1 0-9.5.3-14.4 3-9 5-14.5 13.3-15.6 23.7-.6 5.4.2 9.5 4.4 21 5.5 15 7.8 50.2 6.1 91.2-3.3 80.7-13.6 153.9-32.1 228-4.5 17.8-8.1 30.7-22.1 78.6-13.1 45.1-26.4 109.4-33.2 161.5-1.4 10.4-2.8 20.9-3.1 23.2l-.6 4.3H1280V916.5l-12.7-16.5c-21.5-28.1-28-38.4-41.6-65.5-33.1-66.2-61.6-168.8-76.6-276-4.3-30.4-4.8-33-6.6-36.8-2.8-5.9-7.4-10.5-13.7-13.6-5.1-2.6-7.2-3.1-13.2-3.1-12.8.1-18.3 3.3-29.5 17-17.5 21.5-28.2 39.7-38.6 65.5-26.4 65.7-29.1 149.3-7.9 243 3.6 15.8 8.7 34.1 15.9 57.2 13.1 41.4 17.2 57.6 21.9 85.5 18.1 107 2.6 198.2-44 259.8-10.7 14.1-12.5 15.6-20.9 16.9-18.1 2.6-29.9-5.2-41.8-27.9-13.8-26.1-22.8-69.3-26.8-129.5-.7-9.9-1.2-35.6-1.2-57 0-48.2 1.7-82.3 6.5-131 3-29.8 3.2-75.7.5-95-10-71-36.5-149.9-73.9-220-27.9-52.1-57.4-95.7-108.4-159.5-20.6-25.9-26.6-34.1-35.2-48.5-7.7-13-21.1-39.5-27.7-55-32-74.9-55.3-177.9-63-279.6-.9-11.7-2.3-23.8-3.2-26.8-2-7.3-9.4-15.3-17-18.1-6.3-2.3-15.9-2.6-21.7-.5zM243 1086.6c7.5 2.2 16.2 10.9 18.4 18.4.9 3 1.6 6.7 1.6 8.4 0 1.7-3.4 29.8-7.5 62.5-5.4 42.2-8.1 60.6-9.4 63.5-2.6 6-7.6 11.3-13.5 14.4-4.3 2.2-6.4 2.7-13.1 2.7-6.7 0-8.8-.5-13-2.7-8.9-4.7-15.1-13.3-16.1-22.6-.4-2.9 2.3-27.3 7-64.7 8.5-66.7 8.5-66.9 16.8-74 8.1-6.9 18.3-9 28.8-5.9zm919.9-828.3c-8.8 3.3-14.4 8.7-23.4 22.6-10 15.5-20.3 42.1-26.6 68.7-6.1 26.2-5 37.4 4.5 46.9 6.2 6.3 12.1 8.5 22.1 8.5 13.3 0 24.4-8.1 27.9-20.4.9-2.8 2.7-10.7 4.2-17.6 5.3-25.1 14.8-49.1 23.8-60 6-7.2 8-13.2 7.4-22.4-.7-11.1-6.3-19.7-16.1-24.8-5.3-2.7-18.3-3.5-23.8-1.5zM22.3 431.6c-6 2.2-12.7 8.6-16 15.1-5.4 11.2-2.8 25.9 6.1 34.3 11.1 10.4 22.9 33.8 32.1 63.5 4.4 14.1 7.1 19.2 12.3 23.3 6 4.8 11.8 6.7 19.7 6.6 17-.2 29.8-12.8 29.8-29.4 0-11-11-43.6-22.6-66.6-11.2-22.3-28.7-43.2-39.2-46.7-5.9-2.1-16.5-2.1-22.2-.1z"></path>
  </symbol>
</svg>