<!-- Generated by IcoMoon.io -->
<svg version="1.1" xmlns="http://www.w3.org/2000/svg" width="32" height="32" viewBox="0 0 32 32">
<title>Copyright</title>
<path fill="#9da4bd" d="M15.808 11.424c2.048 0.096 2.576 1.84 2.608 2.656h2.864c-0.128-3.168-2.384-5.104-5.52-5.104-3.536 0-6.16 2.224-6.16 7.248 0 3.104 1.488 6.784 6.144 6.784 3.552 0 5.456-2.64 5.504-4.72h-2.864c-0.048 0.944-0.72 2.208-2.608 2.304-2.096-0.064-2.976-1.696-2.976-4.368 0-4.624 2.048-4.768 3.008-4.8zM16 0c-8.832 0-16 7.168-16 16s7.168 16 16 16c8.832 0 16-7.168 16-16s-7.168-16-16-16zM16 28.8c-7.056 0-12.8-5.744-12.8-12.8s5.744-12.8 12.8-12.8c7.056 0 12.8 5.744 12.8 12.8s-5.744 12.8-12.8 12.8z"></path>
</svg>
