<svg width="30" height="29" fill="none" xmlns="http://www.w3.org/2000/svg"><path d="M4.366.002a1.879 1.879 0 00-1.305.61L.628 3.288c.004-.008-.01-.007-.078.09a.59.59 0 00-.085.166c-.99 3.154-.326 6.623 1.29 9.922 1.618 3.3 4.196 6.457 7.157 9.048 2.96 2.591 6.301 4.618 9.486 5.624 3.186 1.005 6.274.992 8.563-.668a.595.595 0 00.07-.061c.06-.06.062-.068.052-.059l.01-.011 2.42-2.662a1.894 1.894 0 00-.126-2.663l-5.742-5.223a1.894 1.894 0 00-2.663.125l-2.598 2.857c-2.11-.61-3.913-1.646-5.647-3.223-1.734-1.578-2.936-3.276-3.743-5.319l2.597-2.857a1.894 1.894 0 00-.124-2.663L5.724.487A1.88 1.88 0 004.366.002zm.054 1.172a.703.703 0 01.507.189l5.743 5.223a.69.69 0 01.047.994l-2.872 3.156a.59.59 0 00-.116.599c.871 2.378 2.277 4.33 4.211 6.089 1.935 1.76 4.008 2.975 6.458 3.618a.59.59 0 00.587-.174l2.872-3.156a.69.69 0 01.994-.047l5.744 5.223a.69.69 0 01.046.994l-2.401 2.64c-1.878 1.347-4.524 1.423-7.487.487-2.975-.939-6.204-2.884-9.062-5.385-2.858-2.501-5.345-5.556-6.874-8.676C1.304 9.86.755 6.738 1.587 3.987l2.346-2.578a.702.702 0 01.487-.235z" fill="#FF6B09"/></svg>