<svg width="54" height="40" fill="none" xmlns="http://www.w3.org/2000/svg"><path d="M40.0178.000003c2.4108 0 4.6875.65041 6.8304 1.951217 2.1429 1.30082 3.8839 3.17074 5.2232 5.60976C53.3571 10 54 12.8726 54 16.1789c0 3.3062-.8036 6.5311-2.4107 9.6748-.5357 1.1382-1.5 2.6016-2.8929 4.3902-1.4464 1.7886-2.7857 3.3333-4.0178 4.6341L39.6161 40 36 33.9837c2.5178-1.5718 4.7411-3.523 6.6696-5.8536 1.9286-2.2764 2.8929-4.3632 2.8929-6.2602 0-.9756-.2143-1.7615-.6429-2.3577-1.875 1.355-3.9643 2.0325-6.2678 2.0325-1.6607 0-3.2411-.5149-4.7411-1.5447-1.5536-.9756-2.7857-2.2764-3.6964-3.9024-.9643-1.5719-1.4465-3.1979-1.4465-4.8781 0-1.89701.5625-3.71272 1.6875-5.44714 1.0715-1.73442 2.4911-3.14363 4.259-4.22764C36.4286.51491 38.1964.000002 40.0178.000003zM11.1696 0C13.5803 0 15.8571.65041 18 1.95122c2.1428 1.30081 3.8839 3.17073 5.2232 5.60976C24.5089 10 25.1518 12.8726 25.1518 16.1789c0 2.3306-.2947 4.4173-.884 6.2601-.5892 1.897-1.6071 3.8754-3.0535 5.935-1.3929 1.9512-2.7054 3.5772-3.9375 4.878-1.2322 1.355-3.375 3.6044-6.4286 6.748l-3.61608-6.0163c2.51786-1.5718 4.74108-3.523 6.66968-5.8536 1.9285-2.2764 2.8928-4.3632 2.8928-6.2602 0-.9756-.2143-1.7615-.6428-2.3577-1.875 1.355-3.9643 2.0325-6.26789 2.0325-1.66071 0-3.24107-.5149-4.74107-1.5447-1.55357-.9756-2.78571-2.2764-3.69643-3.9024-.964283-1.5719-1.446427-3.1979-1.446427-4.8781 0-1.89701.535714-3.71273 1.607147-5.44714C2.67855 4.03794 4.0982 2.62873 5.86606 1.54472 7.58034.514908 9.3482 0 11.1696 0z" fill="#E1E1E1"/></svg>