<svg aria-hidden="true" style="position:absolute;width:0;height:0" xmlns="http://www.w3.org/2000/svg" overflow="hidden"><defs><symbol id="icon-arrow-right" viewBox="0 0 32 32"><path d="M0 0h32v32H0z"/></symbol><symbol id="icon-dot-1" viewBox="0 0 32 32"><path fill="var(--color1, #fff)" d="M32 16c0 8.837-7.163 16-16 16S0 24.837 0 16 7.163 0 16 0s16 7.163 16 16z"/></symbol><symbol id="icon-dot-2" viewBox="0 0 32 32"><path fill="var(--color1, #fff)" d="M32 16c0 8.837-7.163 16-16 16S0 24.837 0 16 7.163 0 16 0s16 7.163 16 16z"/></symbol><symbol id="icon-dot-3" viewBox="0 0 32 32"><path fill="var(--color1, #fff)" d="M32 16c0 8.837-7.163 16-16 16S0 24.837 0 16 7.163 0 16 0s16 7.163 16 16z"/></symbol><symbol id="icon-dots" viewBox="0 0 32 32"><path fill="var(--color1, #fff)" d="M19.692 16a3.692 3.692 0 11-7.384 0 3.692 3.692 0 017.384 0zM7.385 16a3.692 3.692 0 11-7.384 0 3.692 3.692 0 017.384 0zM32 16a3.692 3.692 0 11-7.384 0A3.692 3.692 0 0132 16z"/></symbol></defs></svg>