<svg width="20" height="20" viewBox="0 0 20 20" fill="currentColor" xmlns="http://www.w3.org/2000/svg">
<g clip-path="url(#clip0_101_197)">
<path d="M10 3.18918C10.3236 3.18918 10.5859 2.92684 10.5859 2.60324V0.585938C10.5859 0.262344 10.3236 0 10 0C9.67641 0 9.41406 0.262344 9.41406 0.585938V2.60324C9.41406 2.92684 9.67641 3.18918 10 3.18918Z" fill="#FF6B09"/>
<path d="M19.4141 9.41406H17.3968C17.0732 9.41406 16.8109 9.67641 16.8109 10C16.8109 10.3236 17.0732 10.5859 17.3968 10.5859H19.4141C19.7377 10.5859 20 10.3236 20 10C20 9.67641 19.7377 9.41406 19.4141 9.41406Z" fill="#FF6B09"/>
<path d="M3.18918 10C3.18918 9.67641 2.92684 9.41406 2.60324 9.41406H0.585938C0.262344 9.41406 0 9.67641 0 10C0 10.3236 0.262344 10.5859 0.585938 10.5859H2.60324C2.92684 10.5859 3.18918 10.3236 3.18918 10Z" fill="#FF6B09"/>
<path d="M15.2303 5.35552C15.3803 5.35552 15.5302 5.29829 15.6446 5.18388L17.071 3.7574C17.2999 3.52857 17.2999 3.15759 17.071 2.92876C16.8423 2.69997 16.4712 2.69997 16.2424 2.92876L14.816 4.35525C14.5871 4.58408 14.5871 4.95505 14.816 5.18388C14.9304 5.29833 15.0804 5.35552 15.2303 5.35552Z" fill="#FF6B09"/>
<path d="M15.6446 14.8159C15.4158 14.5871 15.0448 14.5871 14.816 14.8159C14.5871 15.0447 14.5871 15.4157 14.816 15.6445L16.2424 17.071C16.3569 17.1854 16.5068 17.2426 16.6567 17.2426C16.8067 17.2426 16.9567 17.1854 17.071 17.071C17.2999 16.8422 17.2999 16.4712 17.071 16.2424L15.6446 14.8159Z" fill="#FF6B09"/>
<path d="M4.35537 14.8158L2.92888 16.2423C2.70006 16.4711 2.70006 16.8421 2.92888 17.071C3.0433 17.1854 3.19326 17.2426 3.34318 17.2426C3.4931 17.2426 3.6431 17.1854 3.75748 17.071L5.18393 15.6445C5.41276 15.4157 5.41276 15.0447 5.18393 14.8158C4.95518 14.5871 4.58416 14.5871 4.35537 14.8158Z" fill="#FF6B09"/>
<path d="M4.35539 5.1839C4.4698 5.29832 4.61977 5.35554 4.76969 5.35554C4.91961 5.35554 5.06961 5.29832 5.18398 5.1839C5.41281 4.95511 5.41281 4.5841 5.18398 4.35527L3.75758 2.92882C3.52879 2.70004 3.15777 2.70004 2.92895 2.92882C2.70012 3.15761 2.70012 3.52863 2.92895 3.75746L4.35539 5.1839Z" fill="#FF6B09"/>
<path d="M12.6138 3.71079C12.6874 3.74134 12.7635 3.75579 12.8385 3.75579C13.0681 3.75579 13.2861 3.61989 13.3798 3.39458L14.1539 1.53177C14.2781 1.23294 14.1365 0.890008 13.8377 0.765828C13.5389 0.641687 13.196 0.783172 13.0718 1.08208L12.2976 2.94489C12.1735 3.24368 12.315 3.58657 12.6138 3.71079Z" fill="#FF6B09"/>
<path d="M18.9181 13.0717L17.0553 12.2976C16.7565 12.1734 16.4136 12.3149 16.2894 12.6138C16.1652 12.9126 16.3068 13.2555 16.6056 13.3797L18.4684 14.1538C18.542 14.1844 18.6181 14.1988 18.6931 14.1988C18.9227 14.1988 19.1407 14.0629 19.2344 13.8376C19.3585 13.5388 19.217 13.1959 18.9181 13.0717Z" fill="#FF6B09"/>
<path d="M7.38618 16.2894C7.08739 16.1652 6.74446 16.3068 6.62024 16.6056L5.8461 18.4684C5.72192 18.7672 5.86348 19.1102 6.16231 19.2343C6.23583 19.2649 6.312 19.2793 6.38692 19.2793C6.61657 19.2793 6.83458 19.1435 6.92821 18.9181L7.70235 17.0553C7.82657 16.7565 7.68501 16.4136 7.38618 16.2894Z" fill="#FF6B09"/>
<path d="M1.08196 6.92817L2.94477 7.70232C3.01829 7.73286 3.09446 7.74732 3.16938 7.74732C3.39903 7.74732 3.61704 7.61142 3.71067 7.3861C3.83485 7.08728 3.69329 6.74435 3.39446 6.62017L1.53165 5.84602C1.23298 5.72188 0.88993 5.86341 0.765712 6.16224C0.641532 6.46106 0.783134 6.80399 1.08196 6.92817Z" fill="#FF6B09"/>
<path d="M16.2955 7.40086C16.3888 7.62684 16.6071 7.76336 16.8373 7.76336C16.9118 7.76336 16.9875 7.74907 17.0607 7.71887L18.9253 6.94906C19.2244 6.82555 19.3668 6.48297 19.2434 6.18387C19.1198 5.88473 18.7772 5.74238 18.4782 5.86582L16.6135 6.63563C16.3144 6.75918 16.172 7.10176 16.2955 7.40086Z" fill="#FF6B09"/>
<path d="M13.3642 16.6136C13.2407 16.3144 12.8981 16.1721 12.599 16.2955C12.2999 16.4191 12.1575 16.7616 12.281 17.0607L13.0508 18.9253C13.1441 19.1513 13.3625 19.2878 13.5926 19.2878C13.6671 19.2878 13.7429 19.2735 13.816 19.2434C14.1151 19.1198 14.2575 18.7773 14.134 18.4782L13.3642 16.6136Z" fill="#FF6B09"/>
<path d="M3.7045 12.5991C3.58102 12.3 3.23848 12.1577 2.9393 12.2811L1.07465 13.0509C0.77555 13.1744 0.633168 13.517 0.756644 13.8161C0.849925 14.0421 1.06828 14.1786 1.29848 14.1786C1.37297 14.1786 1.44871 14.1643 1.52184 14.1341L3.38649 13.3643C3.68563 13.2408 3.82801 12.8982 3.7045 12.5991Z" fill="#FF6B09"/>
<path d="M6.63576 3.38662C6.72904 3.61264 6.9474 3.74912 7.1776 3.74912C7.25209 3.74912 7.32783 3.73483 7.40096 3.70463C7.70006 3.58115 7.84244 3.23854 7.71896 2.93944L6.94916 1.07483C6.82568 0.775686 6.48311 0.633342 6.18397 0.75678C5.88486 0.880256 5.74248 1.22287 5.86596 1.52198L6.63576 3.38662Z" fill="#FF6B09"/>
<path d="M10.5859 15.398C13.3053 15.1048 15.4297 12.7959 15.4297 10C15.4297 7.00605 12.994 4.57031 10 4.57031C7.00602 4.57031 4.57031 7.00605 4.57031 10C4.57031 12.7959 6.69469 15.1048 9.41406 15.398V19.4141C9.41406 19.7377 9.67641 20 10 20C10.3236 20 10.5859 19.7377 10.5859 19.4141V15.398ZM5.74219 10C5.74219 7.65223 7.65223 5.74219 10 5.74219C12.3478 5.74219 14.2578 7.65223 14.2578 10C14.2578 12.149 12.6574 13.9309 10.5859 14.2173V11.9812L10.7185 12.1137C10.9473 12.3425 11.3183 12.3425 11.5471 12.1137C11.776 11.885 11.776 11.5139 11.5471 11.2851L10.4113 10.1493C10.1848 9.92281 9.81844 9.92016 9.58871 10.1434L8.4168 11.2818C8.18469 11.5073 8.1793 11.8783 8.4048 12.1104C8.51969 12.2286 8.6723 12.288 8.82512 12.288C8.97223 12.288 9.11949 12.233 9.23336 12.1224L9.41406 11.9468V14.2174C7.34258 13.9309 5.74219 12.1489 5.74219 10Z" fill="#FF6B09"/>
</g>
<defs>
<clipPath id="clip0_101_197">
<rect width="20" height="20" fill="currentColor"/>
</clipPath>
</defs>
</svg>
