<svg width="30" height="18" fill="none" xmlns="http://www.w3.org/2000/svg"><path d="M25.82 11.306c.994.972 2.045 1.886 2.937 2.955.395.476.768.966 1.053 1.518.405.784.039 1.647-.665 1.694l-4.37-.002c-1.127.093-2.026-.36-2.783-1.131-.605-.617-1.165-1.273-1.747-1.91a4.14 4.14 0 00-.786-.699c-.597-.387-1.115-.269-1.456.354-.347.632-.426 1.333-.46 2.039-.047 1.029-.358 1.3-1.392 1.346-2.209.105-4.306-.23-6.253-1.344-1.718-.983-3.05-2.37-4.208-3.94C3.433 9.128 1.705 5.769.152 2.315c-.35-.779-.094-1.196.764-1.211 1.426-.028 2.852-.026 4.279-.002.58.008.963.34 1.187.888.771 1.897 1.715 3.701 2.9 5.374.315.445.637.89 1.095 1.204.507.347.893.232 1.131-.332.152-.358.218-.744.252-1.127.113-1.32.128-2.636-.07-3.95-.122-.821-.584-1.352-1.402-1.508-.418-.079-.356-.234-.154-.473.351-.41.682-.667 1.34-.667h4.94c.777.154.95.503 1.057 1.285l.004 5.487c-.009.303.151 1.202.697 1.402.436.143.724-.206.986-.483 1.183-1.255 2.027-2.739 2.78-4.275.335-.675.623-1.377.902-2.077.207-.52.53-.776 1.117-.765l4.753.004c.142 0 .284.002.42.026.802.136 1.021.48.774 1.263-.39 1.227-1.148 2.25-1.89 3.277-.793 1.097-1.64 2.157-2.427 3.26-.722 1.008-.665 1.516.232 2.391z" fill="#436EAB"/></svg>