<svg width="40" height="48" fill="none" xmlns="http://www.w3.org/2000/svg"><g clip-path="url(#clip0)"><path d="M-.154 47.638h40.177c.199-4.582-.13-12.184-2.946-15.802l-.102-.13-6.156-3.09c.134-.451.2-.864.226-1.168.03-.364-.02-.707-.15-1.017-1.015-2.43-3.164-3.708-4.346-4.253.36-.726.592-1.505.704-2.301a1.975 1.975 0 001.384-1.426l.719-2.92a1.975 1.975 0 00-.227-1.503 1.969 1.969 0 00-.44-.501c2.025-4.602-1.368-8.94-1.553-9.17-3.674-3.972-8.316-3.23-8.562-3.185C11.875 2.575 9.29 7.709 10.75 13.73a1.977 1.977 0 00-.453 1.8l.722 2.923c.175.702.709 1.23 1.373 1.421a7.519 7.519 0 001.729 3.84v2.314c-9.614 4.923-3.522 1.782-11.227 5.68-.015.072-3.615 3.898-3.08 15.237l.033.693zm38.781-1.454h-6.612v-2.778l4.373-10.012c2.191 3.637 2.272 10.58 2.239 12.79zm-9.025-18.86c-.255 2.932-1.862 2.046-2.855 4.304-.78-.858-1.015-1.887-.805-2.989.379-2.023-.856-2.623-.55-4.749l.046-.048v-.007c.026-.03.27-.32.34-.411 2.616 1.14 3.876 3.261 3.824 3.9zM15.568 25.02a7.448 7.448 0 008.362.113c.168 1.67.82 2.005.589 3.235a5.389 5.389 0 00-.08.674l-4.504 5.075-5.757-6.49 1.39-.725V25.02zm-1.81-6.21v-2.815-4.944c.7-1.296 1.656-2.236 2.843-2.8 3.18 1.8 6.84 4.485 9.296 7.188-.003 3.441.01 3.45-.013 3.733l-.002.018c-.192 3.126-2.761 5.716-6.057 5.716-3.203 0-5.863-2.515-6.055-5.747a4.102 4.102 0 01-.012-.35zm-.897 9.52l7.074 7.974 4.75-5.353c.108.313.26.608.434.893l-5.184 6.484-7.73-9.669.656-.33zm14.484-10.691v-2.247l.54-.62c.03 1.139.153-.204-.54 2.867zM18.842 2.6c.288.018 4.148-.587 7.199 2.707.12.15 2.604 3.35 1.606 6.851-.342-1.558-.937-3.554-1.878-4.506l-1.028 1.024c.929.94 1.539 3.806 1.771 5.29-4.26-4.458-9.756-7.28-9.832-7.327-.275.171-2.601.613-4.29 3.897l-.08.156v2.412l-.214.002c-1.073-5.182.982-9.298 6.746-10.506zm-6.898 12.002l.365 1.481v1.557l-.607-2.46c-.09-.366.182-.505.242-.578zm-1.065 14.722l9.056 11.326 6.127-7.664c.667.597.987.681 2.4 1.408l-.476-1.617c-.121-.41.358-1.069.647-1.371a4.38 4.38 0 001.586-1.466l5 2.51-4.653 10.65v3.083H9.303V43.1L4.649 32.452l6.23-3.127zM3.48 33.397l4.374 10.01v2.777H1.242c-.033-2.21.049-9.15 2.238-12.787z" fill="#FF6B09"/></g><defs><clipPath id="clip0"><path fill="#fff" d="M0 0h39.83v48H0z"/></clipPath></defs></svg>