<svg width="40" height="48" viewBox="0 0 40 48" fill="none" xmlns="http://www.w3.org/2000/svg">
<g clip-path="url(#clip0)">
<path d="M-0.153959 47.6381C5.00747 47.6381 34.8677 47.6381 40.0231 47.6381C40.222 43.0563 39.8939 35.4544 37.0768 31.8362L36.975 31.7063L30.8192 28.6155C30.9529 28.1647 31.0187 27.7517 31.0451 27.4481C31.0755 27.0838 31.0253 26.7414 30.8952 26.4314C29.8796 24.0012 27.7307 22.7227 26.5486 22.1777C26.9089 21.452 27.1411 20.6728 27.2533 19.8768C27.9224 19.6883 28.4606 19.158 28.6371 18.4506L29.3556 15.5316C29.4829 15.0166 29.403 14.4826 29.1293 14.0284C29.0115 13.8326 28.8592 13.6677 28.6884 13.5268C30.7142 8.92515 27.3213 4.58629 27.1364 4.3579C23.4617 0.384892 18.8196 1.12779 18.5742 1.17182C11.8751 2.57461 9.28981 7.70876 10.7494 13.7302C10.317 14.2092 10.1355 14.8765 10.2957 15.5308L11.0178 18.4531C11.1928 19.1553 11.7268 19.6837 12.3911 19.8744C12.5961 21.3323 13.2132 22.6509 14.1196 23.7136V26.0277C4.50617 30.9507 10.5975 27.8099 2.89339 31.7073C2.87816 31.7801 -0.721533 35.6058 -0.186489 46.9453L-0.153959 47.6381ZM38.627 46.1835H32.0147V43.4058L36.388 33.3941C38.579 37.0305 38.6603 43.9737 38.627 46.1835ZM29.6024 27.3245C29.3472 30.2558 27.7397 29.3698 26.7474 31.6282C25.9669 30.7699 25.7322 29.7408 25.9419 28.6392C26.3209 26.6164 25.0863 26.0157 25.3914 23.8903L25.4377 23.8416V23.8348C25.4639 23.8055 25.7074 23.5156 25.7778 23.424C28.394 24.5644 29.6535 26.6854 29.6024 27.3245ZM15.5679 25.0205C16.7824 25.8629 18.2484 26.3607 19.8253 26.3607C21.3103 26.3607 22.7208 25.9287 23.93 25.1329C24.0976 26.8038 24.7507 27.1383 24.519 28.3679C24.4755 28.5961 24.452 28.821 24.4381 29.0422L19.9349 34.1175L14.1783 27.6276L15.5679 26.9019V25.0205H15.5679ZM13.7575 18.8093V15.9953C13.7575 14.9591 13.7575 10.8481 13.7575 11.0511C14.4583 9.75492 15.4137 8.81494 16.6011 8.25137C19.7813 10.0507 23.4418 12.736 25.8967 15.4386C25.8943 18.8803 25.9064 18.8896 25.8835 19.1724L25.8819 19.1903C25.6904 22.3156 23.1206 24.9062 19.8253 24.9062C16.6217 24.9062 13.9619 22.3909 13.7695 19.1594C13.7596 19.0436 13.7575 18.9275 13.7575 18.8093ZM12.8607 28.3295L19.9349 36.3043L24.6843 30.9515C24.7928 31.2641 24.9451 31.5593 25.1192 31.8445L19.9349 38.3277L12.2041 28.6591L12.8607 28.3295ZM27.345 17.6388V15.392C27.4086 15.319 27.9486 14.6999 27.885 14.7729C27.9148 15.9105 28.0376 14.5678 27.345 17.6388ZM18.8423 2.60116C19.1296 2.61905 22.99 2.01397 26.0409 5.30784C26.161 5.45859 28.6446 8.65847 27.6469 12.159C27.3054 10.6013 26.7101 8.60525 25.7694 7.65265L24.7411 8.6768C25.6699 9.61758 26.28 12.4825 26.5124 13.9677C22.2518 9.50939 16.7557 6.68762 16.6803 6.63987C16.4047 6.8113 14.0789 7.25348 12.3897 10.5365L12.3091 10.6935V13.1047C12.2366 13.1055 12.0237 13.1077 12.0962 13.107C11.023 7.92546 13.0782 3.80931 18.8423 2.60116ZM11.9436 14.6033L12.3091 16.0841V17.6406L11.7016 15.1818C11.6125 14.8153 11.884 14.6763 11.9436 14.6033ZM10.8787 29.3245L19.9349 40.6509L26.0622 32.9874C26.7287 33.5839 27.0492 33.6685 28.4624 34.3952L27.9857 32.7784C27.8648 32.3679 28.3436 31.7095 28.6328 31.4069C29.2784 31.0567 29.8166 30.5573 30.2191 29.9407L35.2183 32.451L30.5663 43.1012V46.1836H9.30278V43.1008L4.64867 32.452L10.8787 29.3245ZM3.48036 33.3973L7.85443 43.4062V46.1836H1.24206C1.20883 43.9744 1.29086 37.0348 3.48036 33.3973Z" fill="#FF6B09"/>
</g>
<defs>
<clipPath id="clip0">
<rect width="39.8298" height="48" fill="white"/>
</clipPath>
</defs>
</svg>
