<svg aria-hidden="true" style="position: absolute; width: 0; height: 0; overflow: hidden;" version="1.1" xmlns="http://www.w3.org/2000/svg" xmlns:xlink="http://www.w3.org/1999/xlink">
<defs>
<symbol id="fire" viewBox="0 0 28 32">
<path d="M28.777 21.831c-0.38-0.836-0.903-1.659-1.669-2.61-1.931-2.386-2.52-7.708-2.526-7.759-0.026-0.255-0.209-0.466-0.452-0.542-0.249-0.077-0.517-0.006-0.694 0.185-2.304 2.533-1.335 6.444-0.812 8.007 0.144 0.427 0.301 0.932 0.412 1.442 0.851 4.128-0.792 5.998-1.178 6.374-0.373 0.102-0.628 0.051-0.864-0.198-0.812-0.874-1.080-3.739-0.7-7.471 0.079-0.759 0.059-1.442-0.052-2.080-0.801-4.588-3.736-7.53-4.483-8.563-2.055-2.986-2.264-7.956-2.271-8.001-0.007-0.236-0.144-0.447-0.36-0.549-0.209-0.102-0.465-0.089-0.661 0.045-3.429 2.291-3.135 7.81-2.657 10.891 0.111 0.715 0.327 1.442 0.7 2.361 1.329 3.286-0.262 7.529-0.275 7.567s-0.026 0.070-0.033 0.108c-0.203 1.046-0.543 1.672-0.923 1.672-0.039 0-0.079-0.006-0.124-0.019-0.465-0.096-0.707-0.581-0.713-1.002-0.026-5.442-5.583-7.274-5.641-7.293-0.249-0.077-0.524-0.006-0.694 0.191-0.177 0.198-0.209 0.472-0.092 0.702 0.065 0.134 0.275 0.721 0.131 2.795-0.124 1.863-0.471 3.707-1.028 5.474-1.322 4.237-1.113 8.25-1.099 8.441 1.017 10.866 16.914 12.77 26.349 6.648 1.034-0.67 1.878-1.436 2.5-2.278 3.482-4.721 1.433-11.134-0.092-14.541zM4.594 32.212c0.020 0.351-0.255 0.651-0.615 0.67h-0.039c-0.347 0-0.635-0.262-0.654-0.6-0.059-0.932-0.046-1.908 0.026-2.967 0.026-0.351 0.34-0.613 0.7-0.593 0.36 0.026 0.635 0.332 0.609 0.683-0.072 1.008-0.085 1.927-0.026 2.807zM4.915 26.559c-0.039 0.325-0.321 0.561-0.648 0.561-0.026 0-0.052 0-0.085-0.006-0.353-0.045-0.609-0.357-0.569-0.708l0.314-2.463c0.046-0.345 0.367-0.593 0.733-0.555 0.36 0.045 0.615 0.364 0.569 0.715l-0.314 2.456z"></path>
<path d="M24.451 8.727c-0.351-0.054-0.591-0.379-0.537-0.727 0.040-0.259 0.272-1.586 0.902-2.253 0.242-0.257 0.649-0.271 0.908-0.029s0.272 0.644 0.029 0.902c-0.267 0.282-0.494 1.091-0.57 1.575-0.054 0.344-0.378 0.586-0.733 0.533z"></path>
<path d="M1.023 11.905c-0.123-0.474-0.429-1.257-0.722-1.512-0.267-0.232-0.294-0.635-0.060-0.9s0.639-0.292 0.907-0.059c0.693 0.603 1.054 1.901 1.12 2.154 0.088 0.341-0.119 0.688-0.463 0.776-0.351 0.088-0.695-0.123-0.783-0.459z"></path>
</symbol>
</defs>
</svg>
