<svg width="15" height="20" fill="none" xmlns="http://www.w3.org/2000/svg"><path d="M13.693 10.37c-.177-.396-.422-.787-.78-1.239-.9-1.133-1.176-3.66-1.179-3.685a.305.305 0 00-.21-.257.31.31 0 00-.324.088c-1.076 1.203-.624 3.06-.38 3.803.068.203.141.442.193.685.397 1.96-.37 2.848-.55 3.027-.174.048-.293.024-.403-.094-.38-.415-.504-1.776-.327-3.549.037-.36.027-.684-.025-.987-.373-2.18-1.744-3.577-2.093-4.067-.96-1.418-1.057-3.779-1.06-3.8a.305.305 0 00-.477-.24c-1.6 1.088-1.463 3.71-1.24 5.173.052.34.153.685.327 1.121.62 1.561-.122 3.576-.129 3.594-.006.019-.012.034-.015.052-.095.497-.253.794-.43.794a.208.208 0 01-.059-.01c-.217-.045-.33-.275-.333-.475-.012-2.585-2.606-3.455-2.634-3.464a.304.304 0 00-.324.091.298.298 0 00-.042.334c.03.063.128.342.06 1.327-.057.885-.22 1.76-.479 2.6A12.668 12.668 0 00.267 15.2c.474 5.16 7.897 6.065 12.301 3.157a4.45 4.45 0 001.168-1.081c1.625-2.243.669-5.288-.043-6.906zM2.403 15.3c.009.168-.12.31-.288.32h-.018a.304.304 0 01-.305-.286c-.028-.442-.022-.906.012-1.409a.309.309 0 01.327-.282.305.305 0 01.284.325c-.034.478-.04.915-.012 1.333zm.15-2.684a.303.303 0 01-.303.267c-.012 0-.025 0-.04-.003a.306.306 0 01-.266-.337l.147-1.17a.308.308 0 01.342-.263.304.304 0 01.266.34l-.147 1.166z" fill="#FF6B09"/></svg>