<svg width="26" height="26" viewBox="0 0 26 26" fill="none" xmlns="http://www.w3.org/2000/svg">
<path d="M0.428711 8.14875C0.512024 7.56037 0.5755 6.96863 0.681396 6.38453C1.28168 3.07612 3.6239 0.82514 6.9729 0.709783C11.0052 0.571234 15.0497 0.563909 19.0814 0.709173C22.7264 0.840399 25.3661 3.53937 25.48 7.18561C25.6011 11.0574 25.6011 14.9386 25.48 18.8104C25.3661 22.4566 22.7273 25.1553 19.0817 25.2868C15.05 25.4324 11.0046 25.436 6.97321 25.2847C3.32758 25.1476 0.807434 22.4426 0.563599 18.7908C0.542542 18.475 0.474792 18.1619 0.428711 17.8475C0.428711 14.6145 0.428711 11.3815 0.428711 8.14875ZM13.0032 23.1259C14.8483 23.1259 16.6952 23.1811 18.5378 23.113C21.4269 23.0059 23.204 21.2817 23.2714 18.3953C23.355 14.7988 23.355 11.1975 23.2714 7.60065C23.204 4.71491 21.4257 2.95038 18.5378 2.88904C14.8724 2.81153 11.2029 2.81214 7.53748 2.88904C4.67157 2.94916 2.88934 4.67798 2.81152 7.53199C2.71265 11.174 2.71265 14.8223 2.81152 18.4643C2.88934 21.318 4.67157 23.0068 7.53778 23.113C9.35724 23.1808 11.1813 23.1259 13.0032 23.1259Z" fill="white"/>
<path d="M12.9996 6.59326C9.46143 6.59326 6.59277 9.46161 6.59277 12.9998C6.59277 16.5383 9.46143 19.4067 12.9996 19.4067C16.5381 19.4067 19.4065 16.5383 19.4065 12.9998C19.4065 9.46161 16.5381 6.59326 12.9996 6.59326ZM12.9996 17.2009C10.6794 17.2009 8.79858 15.3201 8.79858 12.9998C8.79858 10.6796 10.6794 8.79877 12.9996 8.79877C15.3199 8.79877 17.2007 10.6796 17.2007 12.9998C17.2007 15.3201 15.3199 17.2009 12.9996 17.2009Z" fill="white"/>
<path d="M21.3047 6.30121C21.3047 7.14288 20.6224 7.82526 19.7807 7.82526C18.939 7.82526 18.2563 7.14288 18.2563 6.30121C18.2563 5.45923 18.939 4.77686 19.7807 4.77686C20.6224 4.77686 21.3047 5.45923 21.3047 6.30121Z" fill="white"/>
</svg>
