<svg width="34" height="34" fill="none" xmlns="http://www.w3.org/2000/svg"><circle cx="17" cy="17" r="17" fill="#FEA5BB"/><path d="M17 7C11.507 7 7 11.507 7 17c0 4.687 3.289 8.945 7.656 10v-3.308c-.433.094-.83.097-1.271-.033-.591-.174-1.071-.568-1.428-1.168-.227-.383-.63-.8-1.05-.769l-.103-1.167c.909-.078 1.694.554 2.16 1.337.208.349.447.553.753.643.295.088.613.046.983-.085.093-.741.433-1.018.69-1.41-2.605-.388-3.643-1.77-4.055-2.86-.546-1.449-.253-3.258.712-4.402.019-.022.053-.08.04-.12-.443-1.338.096-2.444.116-2.561.511.15.594-.152 2.22.835l.28.169c.118.07.08.03.198.02A8.484 8.484 0 0117 11.828c.71.009 1.42.11 2.127.302l.091.01c-.008-.002.025-.006.08-.039 2.03-1.23 1.957-.828 2.502-1.005.02.118.551 1.242.113 2.562-.059.182 1.76 1.848.752 4.522-.412 1.09-1.45 2.473-4.054 2.861.334.51.735.78.733 1.83V27C23.71 25.945 27 21.687 27 17c0-5.493-4.507-10-10-10z" fill="#fff"/></svg>