<svg width="40" height="40" fill="none" xmlns="http://www.w3.org/2000/svg"><g clip-path="url(#clip0)"><path d="M39.315 7.155a7.283 7.283 0 00-6.47-6.47 120.815 120.815 0 00-25.69 0 7.283 7.283 0 00-6.47 6.47 120.815 120.815 0 000 25.69 7.283 7.283 0 006.47 6.47c8.555.913 17.135.913 25.69 0a7.283 7.283 0 006.47-6.47c.913-8.555.913-17.135 0-25.69z" fill="url(#paint0_radial)"/><path d="M37.14 8.601a6.463 6.463 0 00-5.741-5.741 107.25 107.25 0 00-22.798 0A6.464 6.464 0 002.861 8.6c-.81 7.592-.81 15.206 0 22.797A6.463 6.463 0 008.6 37.14c7.592.81 15.206.81 22.797 0a6.463 6.463 0 005.742-5.74c.81-7.592.81-15.206 0-22.798z" fill="url(#paint1_linear)"/><path d="M.6 32.016c.027.277.055.553.085.83a7.283 7.283 0 006.47 6.47c8.555.912 17.136.912 25.69 0a7.283 7.283 0 006.47-6.47c.03-.277.058-.553.086-.83H.599z" fill="url(#paint2_linear)"/><path d="M39.315 32.845c.491-4.597.717-9.2.68-13.804l-9.142-9.143c-1.143-1.304-2.81-2.118-4.771-2.189a172.253 172.253 0 00-12.109 0c-3.349.116-5.69 2.367-6.291 5.675-.106.585-.17 1.176-.253 1.765v9.699c.046.314.114.627.135.943.134 2.012.961 3.736 2.285 4.902l9.305 9.304c4.566.032 9.132-.195 13.692-.682a7.283 7.283 0 006.47-6.47z" fill="url(#paint3_linear)"/><path d="M39.315 32.846a7.283 7.283 0 01-6.47 6.47c-4.559.486-9.126.713-13.691.681l-9.29-9.29c1.076.943 2.48 1.517 4.11 1.578 4.03.152 8.076.148 12.107.002 3.647-.132 6.285-2.83 6.4-6.476.12-3.872.12-7.753 0-11.625-.053-1.682-.643-3.162-1.622-4.282l9.137 9.137c.036 4.603-.19 9.208-.68 13.805z" fill="url(#paint4_linear)"/><path d="M24.72 15.669a6.407 6.407 0 10-9.051 9.051l14.823 14.823c.785-.068 1.57-.144 2.353-.228a7.284 7.284 0 006.47-6.47c.084-.784.16-1.568.228-2.353L24.72 15.67z" fill="url(#paint5_linear)"/><path d="M39.922 24.309l-11.93-11.93a1.524 1.524 0 10-2.133 2.133l13.85 13.851c.094-1.35.165-2.703.213-4.054z" fill="url(#paint6_linear)"/><path d="M7.429 15.149c.083-.589.147-1.18.253-1.764.6-3.309 2.942-5.56 6.291-5.675 4.032-.139 8.077-.146 12.109 0 3.645.13 6.284 2.83 6.398 6.476.121 3.871.121 7.753 0 11.624-.114 3.647-2.752 6.345-6.398 6.477-4.032.145-8.077.149-12.109-.002-3.645-.137-6.165-2.842-6.41-6.494-.02-.316-.088-.63-.134-.944V15.15zm12.574 14.977c1.846 0 3.692.055 5.535-.013 2.89-.107 4.666-1.831 4.734-4.718.083-3.596.083-7.197 0-10.794-.068-2.886-1.846-4.65-4.734-4.712a261.257 261.257 0 00-11 0c-2.866.06-4.648 1.789-4.726 4.643-.1 3.642-.1 7.29 0 10.932.078 2.854 1.86 4.543 4.726 4.649 1.82.068 3.643.013 5.465.013z" fill="url(#paint7_linear)"/><path d="M7.429 15.149c.083-.589.147-1.18.253-1.764.6-3.309 2.942-5.56 6.291-5.675 4.032-.139 8.077-.146 12.109 0 3.645.13 6.284 2.83 6.398 6.476.121 3.871.121 7.753 0 11.624-.114 3.647-2.752 6.345-6.398 6.477-4.032.145-8.077.149-12.109-.002-3.645-.137-6.165-2.842-6.41-6.494-.02-.316-.088-.63-.134-.944V15.15zm12.574 14.977c1.846 0 3.692.055 5.535-.013 2.89-.107 4.666-1.831 4.734-4.718.083-3.596.083-7.197 0-10.794-.068-2.886-1.846-4.65-4.734-4.712a261.257 261.257 0 00-11 0c-2.866.06-4.648 1.789-4.726 4.643-.1 3.642-.1 7.29 0 10.932.078 2.854 1.86 4.543 4.726 4.649 1.82.068 3.643.013 5.465.013z" fill="#fff"/><path d="M20 13.593a6.407 6.407 0 100 12.814 6.407 6.407 0 000-12.814zm0 10.608a4.201 4.201 0 110-8.402 4.201 4.201 0 010 8.402zM28.305 13.301a1.524 1.524 0 11-3.048 0 1.524 1.524 0 013.048 0z" fill="#fff"/></g><defs><linearGradient id="paint1_linear" x1="15.342" y1="17.379" x2="-52.423" y2="-20.738" gradientUnits="userSpaceOnUse"><stop stop-color="#A1B5D8" stop-opacity="0"/><stop offset=".309" stop-color="#90A2BD" stop-opacity=".31"/><stop offset=".755" stop-color="#7C8B9C" stop-opacity=".757"/><stop offset="1" stop-color="#748290"/></linearGradient><linearGradient id="paint2_linear" x1="20" y1="35.31" x2="20" y2="41.545" gradientUnits="userSpaceOnUse"><stop stop-color="#FAE100" stop-opacity="0"/><stop offset=".307" stop-color="#FCA800" stop-opacity=".306"/><stop offset=".627" stop-color="#FE7300" stop-opacity=".627"/><stop offset=".869" stop-color="#FF5200" stop-opacity=".867"/><stop offset="1" stop-color="#FF4500"/></linearGradient><linearGradient id="paint3_linear" x1="17.724" y1="17.668" x2="7.825" y2="7.769" gradientUnits="userSpaceOnUse"><stop stop-color="#833AB4" stop-opacity="0"/><stop offset="1" stop-color="#833AB4"/></linearGradient><linearGradient id="paint4_linear" x1="27.414" y1="36.585" x2="22.473" y2="13.292" gradientUnits="userSpaceOnUse"><stop stop-color="#833AB4" stop-opacity="0"/><stop offset="1" stop-color="#833AB4"/></linearGradient><linearGradient id="paint5_linear" x1="29.294" y1="29.294" x2="9.449" y2="9.449" gradientUnits="userSpaceOnUse"><stop stop-color="#833AB4" stop-opacity="0"/><stop offset="1" stop-color="#833AB4"/></linearGradient><linearGradient id="paint6_linear" x1="30.766" y1="17.286" x2="24.203" y2="10.724" gradientUnits="userSpaceOnUse"><stop stop-color="#833AB4" stop-opacity="0"/><stop offset="1" stop-color="#833AB4"/></linearGradient><linearGradient id="paint7_linear" x1="27.942" y1="12.113" x2="11.761" y2="28.294" gradientUnits="userSpaceOnUse"><stop stop-color="#833AB4"/><stop offset=".092" stop-color="#9C3495"/><stop offset=".293" stop-color="#DC2546"/><stop offset=".392" stop-color="#FD1D1D"/><stop offset=".559" stop-color="#FC6831"/><stop offset=".689" stop-color="#FC9B40"/><stop offset=".752" stop-color="#FCAF45"/><stop offset=".781" stop-color="#FDB750"/><stop offset=".866" stop-color="#FECB6A"/><stop offset=".942" stop-color="#FFD87A"/><stop offset="1" stop-color="#FFDC80"/></linearGradient><radialGradient id="paint0_radial" cx="0" cy="0" r="1" gradientUnits="userSpaceOnUse" gradientTransform="translate(8.2 34.957) scale(44.113)"><stop stop-color="#FAE100"/><stop offset=".054" stop-color="#FADC04"/><stop offset=".117" stop-color="#FBCE0E"/><stop offset=".183" stop-color="#FCB720"/><stop offset=".251" stop-color="#FE9838"/><stop offset=".305" stop-color="#FF7950"/><stop offset=".492" stop-color="#FF1C74"/><stop offset="1" stop-color="#6C1CD1"/></radialGradient><clipPath id="clip0"><path fill="#fff" d="M0 0h40v40H0z"/></clipPath></defs></svg>