<svg width="26" height="26" viewBox="0 0 26 26" fill="none" xmlns="http://www.w3.org/2000/svg">
<path d="M0.428955 8.14875C0.512268 7.56037 0.575745 6.96863 0.681641 6.38453C1.28192 3.07612 3.62415 0.82514 6.97314 0.709783C11.0054 0.571234 15.0499 0.563909 19.0816 0.709173C22.7266 0.840399 25.3664 3.53937 25.4802 7.18561C25.6014 11.0574 25.6014 14.9386 25.4802 18.8104C25.3664 22.4566 22.7275 25.1553 19.0819 25.2868C15.0502 25.4324 11.0048 25.436 6.97345 25.2847C3.32782 25.1476 0.807678 22.4426 0.563843 18.7908C0.542786 18.475 0.475037 18.1619 0.428955 17.8475C0.428955 14.6145 0.428955 11.3815 0.428955 8.14875ZM13.0034 23.1259C14.8485 23.1259 16.6954 23.1811 18.5381 23.113C21.4272 23.0059 23.2042 21.2817 23.2717 18.3953C23.3553 14.7988 23.3553 11.1975 23.2717 7.60065C23.2042 4.71491 21.426 2.95038 18.5381 2.88904C14.8726 2.81153 11.2032 2.81214 7.53772 2.88904C4.67181 2.94916 2.88959 4.67798 2.81177 7.53199C2.71289 11.174 2.71289 14.8223 2.81177 18.4643C2.88959 21.318 4.67181 23.0068 7.53802 23.113C9.35748 23.1808 11.1815 23.1259 13.0034 23.1259Z" fill="white"/>
<path d="M13.0001 6.59326C9.46191 6.59326 6.59326 9.46161 6.59326 12.9998C6.59326 16.5383 9.46191 19.4067 13.0001 19.4067C16.5386 19.4067 19.407 16.5383 19.407 12.9998C19.407 9.46161 16.5386 6.59326 13.0001 6.59326ZM13.0001 17.2009C10.6799 17.2009 8.79907 15.3201 8.79907 12.9998C8.79907 10.6796 10.6799 8.79877 13.0001 8.79877C15.3204 8.79877 17.2012 10.6796 17.2012 12.9998C17.2012 15.3201 15.3204 17.2009 13.0001 17.2009Z" fill="white"/>
<path d="M21.3052 6.30121C21.3052 7.14288 20.6229 7.82526 19.7812 7.82526C18.9395 7.82526 18.2568 7.14288 18.2568 6.30121C18.2568 5.45923 18.9395 4.77686 19.7812 4.77686C20.6229 4.77686 21.3052 5.45923 21.3052 6.30121Z" fill="white"/>
</svg>
