<?xml version="1.0" encoding="iso-8859-1"?>
<!-- Generator: Adobe Illustrator 19.0.0, SVG Export Plug-In . SVG Version: 6.00 Build 0)  -->
<svg version="1.1" id="Layer_1" xmlns="http://www.w3.org/2000/svg" xmlns:xlink="http://www.w3.org/1999/xlink" x="0px" y="0px"
	 viewBox="0 0 512 512" style="enable-background:new 0 0 512 512;" xml:space="preserve">
<g>
	<g>
		<path d="M217.42,79.899c1.39-1.399,2.2-3.33,2.2-5.31c0-1.97-0.811-3.9-2.2-5.3c-1.4-1.4-3.33-2.2-5.3-2.2
			c-1.98,0-3.91,0.8-5.311,2.2c-1.39,1.399-2.189,3.33-2.189,5.3c0,1.979,0.8,3.91,2.189,5.31c1.4,1.391,3.33,2.19,5.311,2.19
			C214.09,82.09,216.02,81.29,217.42,79.899z"/>
		<path d="M279.02,69.7c-1.39,1.39-2.189,3.33-2.189,5.3s0.8,3.91,2.189,5.3c1.4,1.4,3.33,2.2,5.311,2.2c1.97,0,3.91-0.8,5.3-2.2
			c1.4-1.39,2.2-3.33,2.2-5.3s-0.8-3.91-2.2-5.3c-1.39-1.4-3.32-2.2-5.3-2.2C282.35,67.5,280.42,68.3,279.02,69.7z"/>
		<path d="M243.79,89.28c-1.98,0-3.91,0.8-5.311,2.199c-1.39,1.391-2.189,3.33-2.189,5.301c0,1.98,0.8,3.909,2.189,5.3
			c1.4,1.399,3.33,2.2,5.311,2.2c1.97,0,3.9-0.801,5.3-2.2c1.4-1.391,2.2-3.33,2.2-5.3c0-1.971-0.8-3.9-2.2-5.301
			C247.689,90.08,245.76,89.28,243.79,89.28z"/>
		<path d="M250.149,55.77c-1.399-1.39-3.33-2.189-5.31-2.189c-1.97,0-3.9,0.8-5.3,2.189c-1.391,1.4-2.19,3.33-2.19,5.311
			c0,1.97,0.8,3.899,2.19,5.3c1.4,1.4,3.33,2.2,5.3,2.2c1.98,0,3.91-0.8,5.31-2.2c1.391-1.4,2.19-3.33,2.19-5.3
			C252.34,59.109,251.54,57.17,250.149,55.77z"/>
		<path d="M382.711,114.212l71.153-70.603c2.376-2.356,3.684-5.499,3.683-8.85c-0.001-3.35-1.31-6.49-3.683-8.842L431.403,3.631
			C429.046,1.29,425.908,0,422.57,0s-6.476,1.29-8.831,3.629l-79.687,79.068c-4.748-12.919-12.493-24.67-22.925-34.451
			c-3.023-2.836-7.77-2.68-10.601,0.341c-2.834,3.021-2.681,7.768,0.341,10.601c10.171,9.537,17.272,21.317,20.891,34.272
			c-4.172-0.577-8.433-0.882-12.765-0.882c-9.186,0-18.055,1.346-26.416,3.838c-0.219,0.055-0.433,0.118-0.643,0.191
			c-15.676,4.798-29.528,13.652-40.266,25.295c-2.679-3.117-5.587-6.068-8.718-8.823c-3.111-2.736-7.851-2.432-10.585,0.679
			c-2.735,3.11-2.432,7.85,0.679,10.585c3.392,2.982,6.463,6.245,9.204,9.728c-8.765,13.607-13.843,29.693-13.843,46.918
			c0,2.174,0.086,4.328,0.245,6.464c-1.081-0.604-2.325-0.952-3.652-0.952h-17.736c-4.143,0-7.5,3.357-7.5,7.5s3.357,7.5,7.5,7.5
			H215c2.099,0,3.993-0.863,5.354-2.252c0.68,3.145,1.536,6.227,2.55,9.24H103.238c-4.167-9.09-6.499-19.14-6.499-29.715
			c0-40.479,33.908-73.41,75.588-73.41c8.99,0,17.787,1.517,26.145,4.509c3.899,1.396,8.191-0.635,9.589-4.534
			c1.396-3.899-0.634-8.192-4.534-9.589c-8.501-3.042-17.376-4.796-26.44-5.253c9.865-30.021,38.336-51.787,71.861-51.787
			c9.44,0,18.645,1.701,27.357,5.058c3.86,1.485,8.205-0.438,9.694-4.304c1.488-3.865-0.438-8.205-4.304-9.694
			c-10.439-4.021-21.457-6.06-32.748-6.06c-42.078,0-77.538,28.638-87.673,67.313c-44.756,5.337-79.535,42.652-79.535,87.751
			c0,10.422,1.868,20.423,5.278,29.715H71.534c-9.419,0-17.081,7.668-17.081,17.094v46.039c0,18.993,12.322,35.175,29.443,41.107
			c25.29,47.884,71.771,83.074,127.003,93.206c5.455,8.99,8.378,19.286,8.378,30.065c0,8.836-2.039,17.514-5.865,25.391h-71.337
			c-14.029,0-25.443,11.352-25.443,25.305S128.046,512,142.075,512h203.351c14.029,0,25.443-11.352,25.443-25.305
			s-11.414-25.305-25.443-25.305H274.09c-3.826-7.877-5.865-16.555-5.865-25.391c0-10.78,2.923-21.076,8.378-30.065
			c55.23-10.132,101.713-45.322,127.002-93.206c17.122-5.934,29.444-22.115,29.444-41.107v-46.039
			c0-9.426-7.663-17.094-17.082-17.094h-20.881c2.913-8.66,4.498-17.901,4.498-27.5c0-23.034-9.076-44.036-23.917-59.787l6.983-6.93
			C382.672,114.252,382.69,114.231,382.711,114.212z M422.57,15.997l18.913,18.767L422.85,53.253L410.82,27.656L422.57,15.997z
			 M399.516,38.872l12.031,25.597L401.35,74.588l-12.03-25.598L399.516,38.872z M356.522,81.532l12.03,25.599l-4.062,4.029
			c-4.019-3.049-8.307-5.774-12.822-8.139l-5.343-11.371L356.522,81.532z M291.902,109.494c5.496-1.239,11.213-1.916,17.092-1.916
			c5.88,0,11.597,0.677,17.094,1.916v98.994h-34.186V109.494z M276.902,114.543v93.945h-37.984
			c-3.549-8.498-5.511-17.779-5.511-27.5C233.407,151.649,251.228,126.286,276.902,114.543z M345.426,476.391
			c5.759,0,10.443,4.623,10.443,10.305S351.185,497,345.426,497H142.075c-5.759,0-10.443-4.623-10.443-10.305
			s4.685-10.305,10.443-10.305H345.426z M257.795,461.391h-28.088c2.995-8.08,4.57-16.674,4.57-25.391
			c0-9.664-1.86-19.022-5.405-27.694c4.908,0.399,9.869,0.61,14.879,0.61s9.971-0.211,14.878-0.61
			c-3.544,8.672-5.404,18.029-5.404,27.694C253.225,444.717,254.799,453.311,257.795,461.391z M243.751,393.916
			c-36.579,0-70.407-11.858-97.821-31.879h195.642C314.157,382.058,280.33,393.916,243.751,393.916z M415.967,223.488
			c1.129,0,2.082,0.959,2.082,2.094v46.039c0,15.734-12.947,28.535-28.861,28.535c-15.913,0-28.859-12.801-28.859-28.535
			c0-4.143-3.357-7.5-7.5-7.5s-7.5,3.357-7.5,7.5c0,8.771-3.992,16.928-10.953,22.38c-3.261,2.555-3.834,7.269-1.279,10.529
			s7.27,3.833,10.529,1.279c3.622-2.838,6.718-6.158,9.224-9.835c7.166,10.501,18.833,17.725,32.224,18.97
			c-7.21,11.741-15.85,22.524-25.701,32.093h-231.24c-9.852-9.568-18.492-20.352-25.702-32.093c13.402-1.246,25.079-8.483,32.243-19
			c7.89,11.582,21.244,19.212,36.359,19.212s28.47-7.63,36.359-19.212c7.89,11.582,21.245,19.212,36.36,19.212
			c15.091,0,28.427-7.605,36.321-19.157c5.971,8.8,15.157,15.361,26.197,17.974c4.031,0.948,8.071-1.542,9.025-5.572
			c0.953-4.031-1.541-8.071-5.572-9.025c-13.02-3.08-22.113-14.493-22.113-27.754c0-4.143-3.357-7.5-7.5-7.5s-7.5,3.357-7.5,7.5
			c0,15.734-12.946,28.535-28.858,28.535c-15.914,0-28.86-12.801-28.86-28.535c0-4.143-3.357-7.5-7.5-7.5s-7.5,3.357-7.5,7.5
			c0,15.734-12.946,28.535-28.859,28.535s-28.859-12.801-28.859-28.535c0-4.143-3.357-7.5-7.5-7.5s-7.5,3.357-7.5,7.5
			c0,15.734-12.946,28.535-28.86,28.535c-15.912,0-28.858-12.801-28.858-28.535v-46.039c0-1.135,0.953-2.094,2.081-2.094H415.967z
			 M384.584,180.988c0,9.721-1.962,19.002-5.511,27.5h-37.985v-93.945C366.764,126.287,384.584,151.649,384.584,180.988z
			 M367.826,70.316l10.189-10.11l12.029,25.598l-10.189,10.111L367.826,70.316z"/>
		<path d="M175.601,132.938c4.143,0,7.5-3.357,7.5-7.5c0-4.143-3.357-7.5-7.5-7.5h-19.003c-4.143,0-7.5,3.357-7.5,7.5
			c0,4.143,3.357,7.5,7.5,7.5H175.601z"/>
		<path d="M148.895,151.836c0-4.143-3.357-7.5-7.5-7.5h-17.737c-4.143,0-7.5,3.357-7.5,7.5c0,4.143,3.357,7.5,7.5,7.5h17.737
			C145.538,159.336,148.895,155.979,148.895,151.836z"/>
		<path d="M185.736,159.336h17.736c4.143,0,7.5-3.357,7.5-7.5c0-4.143-3.357-7.5-7.5-7.5h-17.736c-4.143,0-7.5,3.357-7.5,7.5
			C178.236,155.979,181.594,159.336,185.736,159.336z"/>
		<path d="M154.264,187.5H172c4.143,0,7.5-3.357,7.5-7.5s-3.357-7.5-7.5-7.5h-17.736c-4.143,0-7.5,3.357-7.5,7.5
			S150.121,187.5,154.264,187.5z"/>
		<path d="M113.264,186.5c-4.143,0-7.5,3.357-7.5,7.5s3.357,7.5,7.5,7.5H131c4.143,0,7.5-3.357,7.5-7.5s-3.357-7.5-7.5-7.5H113.264z
			"/>
	</g>
</g>
<g>
</g>
<g>
</g>
<g>
</g>
<g>
</g>
<g>
</g>
<g>
</g>
<g>
</g>
<g>
</g>
<g>
</g>
<g>
</g>
<g>
</g>
<g>
</g>
<g>
</g>
<g>
</g>
<g>
</g>
</svg>
