<svg width="22" height="30" viewBox="0 0 22 30" fill="none" xmlns="http://www.w3.org/2000/svg">
<path d="M20.5392 15.5556C20.2734 14.9601 19.9067 14.3738 19.3705 13.6965C18.0184 11.9965 17.6059 8.20557 17.6013 8.1692C17.583 7.98739 17.4547 7.83739 17.2851 7.78284C17.1109 7.7283 16.923 7.7783 16.7992 7.91466C15.1859 9.7192 15.8642 12.5056 16.2309 13.6192C16.3317 13.9238 16.4417 14.2828 16.5196 14.6465C17.1154 17.5874 15.965 18.9192 15.6946 19.1874C15.4334 19.2601 15.2546 19.2238 15.0896 19.0465C14.5213 18.4238 14.3334 16.3828 14.5992 13.7238C14.6542 13.1828 14.6404 12.6965 14.5625 12.2419C14.0019 8.97361 11.9463 6.87716 11.4229 6.14193C9.98378 4.01466 9.83711 0.47375 9.83253 0.441932C9.82794 0.27375 9.73169 0.12375 9.58044 0.0510227C9.43378 -0.0217046 9.25503 -0.0126137 9.11753 0.0828409C6.71586 1.71466 6.92211 5.64648 7.25669 7.84193C7.33461 8.35102 7.48586 8.86921 7.74711 9.52375C8.67753 11.8647 7.56378 14.8874 7.55461 14.9147C7.54544 14.9419 7.53628 14.9647 7.53169 14.9919C7.38961 15.7374 7.15128 16.1828 6.88544 16.1828C6.85794 16.1828 6.83044 16.1783 6.79836 16.1692C6.47294 16.101 6.30336 15.7556 6.29878 15.4556C6.28044 11.5783 2.38919 10.2738 2.34794 10.2601C2.17378 10.2056 1.98128 10.2556 1.86211 10.3965C1.73836 10.5374 1.71544 10.7328 1.79794 10.8965C1.84378 10.9919 1.99044 11.4101 1.88961 12.8874C1.80253 14.2147 1.55961 15.5283 1.17003 16.7874C0.244194 19.8056 0.39086 22.6647 0.400027 22.801C1.11196 30.5423 12.2451 31.8987 18.8525 27.5374C19.5767 27.0601 20.1679 26.5147 20.6034 25.9147C23.0417 22.551 21.6072 17.9828 20.5392 15.5556ZM3.60382 22.951C3.61757 23.201 3.42507 23.4147 3.17299 23.4283H3.14549C2.90257 23.4283 2.70091 23.2419 2.68716 23.001C2.64591 22.3374 2.65507 21.6419 2.70549 20.8874C2.72382 20.6374 2.94382 20.451 3.19591 20.4646C3.44799 20.4828 3.64049 20.701 3.62216 20.951C3.57169 21.6692 3.56257 22.3238 3.60382 22.951ZM3.82836 18.9238C3.80086 19.1556 3.60378 19.3238 3.37461 19.3238C3.35628 19.3238 3.33794 19.3238 3.31503 19.3192C3.06753 19.2874 2.88878 19.0647 2.91628 18.8147L3.13628 17.0601C3.16836 16.8147 3.39294 16.6374 3.64961 16.6647C3.90169 16.6965 4.08044 16.9237 4.04836 17.1737L3.82836 18.9238Z" fill="#FF6B09"/>
</svg>
