<svg width="48" height="47" viewBox="0 0 48 47" fill="none" xmlns="http://www.w3.org/2000/svg">
<g clip-path="url(#clip0)">
<path d="M44.3199 -0.187988H21.1929C19.6873 -0.187988 18.4627 1.0367 18.4627 2.54224V12.1155L1.28134 19.3269C1.08681 19.4085 0.954583 19.5921 0.939647 19.8026C0.924712 20.0132 1.02889 20.2142 1.20994 20.3228L3.40104 21.6342V35.6091C2.28058 35.8646 1.43979 36.8674 1.43979 38.0673V39.4143C1.43979 39.7233 1.69041 39.9739 1.99932 39.9739H5.92291C6.23181 39.9739 6.48243 39.7233 6.48243 39.4143V38.0673C6.48243 36.869 5.64151 35.8675 4.52009 35.6104V22.304L6.25257 23.3409C6.19931 23.7404 6.24583 22.6446 6.2278 29.8471C6.2278 32.2147 12.2922 33.483 18.4627 33.5557V44.4617C18.4627 45.0251 18.6351 45.549 18.9301 45.9838C19.4207 46.7097 20.2513 47.1879 21.1914 47.1879H44.3184C45.8225 47.1879 47.0461 45.964 47.0461 44.4603C47.046 44.535 47.043 42.1501 47.0461 2.5426C47.0461 1.0575 45.8181 -0.187988 44.3199 -0.187988ZM5.36338 38.0673V38.8548H2.55884V38.0673C2.55884 37.2921 3.18649 36.6612 3.95765 36.6612C4.73283 36.6612 5.36338 37.2921 5.36338 38.0673ZM44.3199 46.066H21.1929C20.638 46.066 20.1477 45.7851 19.8579 45.3587C19.6843 45.102 19.5828 44.7927 19.5828 44.4603V40.6798H45.9241V44.4617C45.9241 45.3381 45.1938 46.066 44.3199 46.066ZM45.9241 39.5608H19.5817V33.559C22.5944 33.5245 31.8238 32.861 31.8238 29.8471C31.8205 25.3225 31.8318 23.4877 31.8096 23.3324L36.834 20.3228C37.0151 20.2142 37.1193 20.0132 37.1043 19.8026C37.0894 19.5921 36.9572 19.4085 36.7627 19.3269L19.5817 12.1153V7.44208H45.9241V39.5608ZM19.0222 26.1322C15.9186 26.1322 9.94288 26.533 7.34685 28.2282C7.36332 23.0432 7.16695 23.3809 7.80547 22.9412C9.41811 21.7537 14.0305 20.9246 19.0222 20.9246C21.1993 20.9246 30.7048 21.5231 30.7048 23.5357V28.229C28.0844 26.518 22.1391 26.1322 19.0222 26.1322ZM19.5828 2.5426C19.5828 1.6556 20.3044 0.933974 21.1914 0.933974H44.3184C45.2062 0.933974 45.9241 1.66572 45.9241 2.54224V6.32303H19.5828V2.5426ZM19.0222 13.0941L35.3107 19.9308L31.2746 22.3461C29.1289 20.2182 22.031 19.8055 19.0222 19.8055C16.0094 19.8055 8.91099 20.2194 6.76984 22.3467L2.7326 19.9308L19.0222 13.0941ZM7.34685 29.8471C7.34685 28.9415 11.3568 27.2513 19.0222 27.2513C26.6923 27.2513 30.7048 28.9415 30.7048 29.8471C30.7048 30.7534 26.6923 32.4436 19.0222 32.4436C11.3568 32.4436 7.34685 30.7534 7.34685 29.8471Z" fill="#FF6B09"/>
<path d="M32.7548 41.5235C31.7345 41.5235 30.9043 42.3533 30.9043 43.374C30.9043 44.3947 31.7345 45.2252 32.7548 45.2252C33.7755 45.2252 34.6057 44.3947 34.6057 43.374C34.6057 42.3533 33.7755 41.5235 32.7548 41.5235ZM32.7548 44.1062C32.3516 44.1062 32.0233 43.7776 32.0233 43.374C32.0233 42.9704 32.3516 42.6425 32.7548 42.6425C33.1584 42.6425 33.4866 42.9704 33.4866 43.374C33.4866 43.7776 33.1584 44.1062 32.7548 44.1062Z" fill="#FF6B09"/>
<path d="M34.8892 3.06897H30.6206V4.18802H34.8892V3.06897Z" fill="#FF6B09"/>
</g>
<defs>
<clipPath id="clip0">
<rect width="48" height="47" fill="white"/>
</clipPath>
</defs>
</svg>
