<svg version="1.1" xmlns="http://www.w3.org/2000/svg" fill="#b9b9b9" width="12" height="12" viewBox="0 0 1024 1024">
<title></title>
<g id="icomoon-ignore">
</g>
<path d="M300.81 769.081c258.605 0 468.222-209.65 468.222-468.255 0-114.59-41.288-219.415-109.609-300.81 211.091 67.764 363.954 265.486 363.954 499.089 0 289.571-234.717 524.288-524.288 524.288-233.603 0-431.325-152.863-499.089-363.954 81.396 68.354 186.253 109.642 300.81 109.642z"></path>
<path d="M823.132 87.605c70.124 89.096 112.263 201.261 112.263 323.486 0 289.571-234.717 524.288-524.288 524.288-122.225 0-234.39-42.14-323.486-112.263 95.945 121.799 244.417 200.278 411.501 200.278 289.571 0 524.288-234.717 524.288-524.288 0-167.084-78.479-315.523-200.278-411.501z"></path>
</svg>
