<svg width="69" height="48" viewBox="0 0 69 48" fill="none" xmlns="http://www.w3.org/2000/svg">
<path d="M30.4001 6.9118H9.94067V8.44372H30.4001V6.9118Z" fill="#FF6B09"/>
<path d="M30.4 12.6236H13.0044V14.1555H30.4V12.6236Z" fill="#FF6B09"/>
<path d="M30.4001 18.3358H9.94067V19.8678H30.4001V18.3358Z" fill="#FF6B09"/>
<path d="M30.4 24.0476H13.0044V25.5795H30.4V24.0476Z" fill="#FF6B09"/>
<path d="M30.4001 29.7594H9.94067V31.2913H30.4001V29.7594Z" fill="#FF6B09"/>
<path d="M30.4 35.4716H13.0044V37.0036H30.4V35.4716Z" fill="#FF6B09"/>
<path d="M58.4851 6.9118H38.0256V8.44372H58.4851V6.9118Z" fill="#FF6B09"/>
<path d="M55.4212 12.6236H38.0256V14.1555H55.4212V12.6236Z" fill="#FF6B09"/>
<path d="M58.4851 18.3358H38.0256V19.8678H58.4851V18.3358Z" fill="#FF6B09"/>
<path d="M55.4212 24.0476H38.0256V25.5795H55.4212V24.0476Z" fill="#FF6B09"/>
<path d="M58.4851 29.7594H38.0256V31.2913H58.4851V29.7594Z" fill="#FF6B09"/>
<path d="M55.4212 35.4716H38.0256V37.0036H55.4212V35.4716Z" fill="#FF6B09"/>
<path d="M65.8725 5.16795H63.064V0.949704C63.064 0.526831 62.7209 0.183746 62.298 0.183746H39.4011C37.1666 0.183746 35.2299 1.39171 34.2136 3.19995C33.1971 1.39153 31.2593 0.183746 29.0247 0.183746H6.12778C5.70491 0.183746 5.36182 0.526831 5.36182 0.949704V5.16795H2.55331C2.13044 5.16795 1.78735 5.51104 1.78735 5.93391V47.0503C1.78735 47.4731 2.13044 47.8162 2.55331 47.8162C10.2436 47.8162 58.1547 47.8162 65.8725 47.8162C66.2953 47.8162 66.6384 47.4731 66.6384 47.0503V5.93391C66.6384 5.51104 66.2953 5.16795 65.8725 5.16795ZM39.4011 1.71566H61.532C61.532 8.57484 61.532 26.6435 61.532 42.7408H37.7669C36.7134 42.7408 35.6602 43.185 34.9788 43.761V6.12789C34.9788 3.68263 36.9366 1.71566 39.4011 1.71566ZM6.89374 1.71566H29.0247C31.4198 1.71566 33.3582 3.57969 33.4375 5.95934C33.4385 5.99226 33.4414 6.09548 33.4469 6.12789V6.13388V6.13537V43.758C32.7674 43.1843 31.7255 42.7408 30.6688 42.7408H6.89374C6.89374 26.6489 6.89374 8.57265 6.89374 1.71566ZM3.31927 6.69987H5.36182V43.5067C5.36182 43.9296 5.70491 44.2727 6.12778 44.2727H30.6688C31.8365 44.2727 32.9648 45.0386 33.326 46.2843H3.31927V6.69987ZM65.1065 46.2843H35.1002C35.4639 45.0326 36.5809 44.2727 37.7669 44.2727H62.298C62.7209 44.2727 63.064 43.9296 63.064 43.5067V6.69987H65.1065V46.2843Z" fill="#FF6B09"/>
</svg>
