<svg width="49" height="48" fill="none" xmlns="http://www.w3.org/2000/svg"><path d="M2.99 18.837v4.247c0 .228.104.443.284.585a16.65 16.65 0 0010.255 3.543c1.111 0 2.223-.116 3.31-.336a18.027 18.027 0 007.335 1.548c2.56 0 5.027-.524 7.335-1.548 4.636.937 9.577-.069 13.564-3.207a.745.745 0 00.284-.585v-4.247c0-.623-.31-1.191-.862-1.54l-5.801-3.264c1.269-1.61 2.214-3.903 2.379-5.87.481-3.384-2.278-6.969-6.249-6.969-1.67 0-3.257.688-4.421 1.84-.04.04-.087.074-.126.115-.036.038-.065.081-.1.12-.023.025-.043.053-.066.08C28.976 1.278 26.795 0 24.224 0c-.25 0-.494.017-.737.042-.015-.001-.028-.009-.043-.009-.138 0-.43.037-.586.082-.023.006-.04.023-.061.031a6.724 6.724 0 00-4.52 3.234 6.263 6.263 0 00-4.768-2.185c-5.862 0-8.463 6.918-3.836 12.871l-5.854 3.25c-.52.329-.83.898-.83 1.521zm28.505 6.405c-.126.061-.25.127-.377.185l-.003.001a16.505 16.505 0 01-6.941 1.509 16.556 16.556 0 01-10.012-3.342V19.29c0-.146.071-.276.153-.331l6.813-3.787c.848.72 1.93 1.248 3.053 1.248 1.08 0 2.248-.536 3.078-1.265l6.73 3.78c.125.08.196.209.196.355v4.305a16.634 16.634 0 01-2.69 1.647zm12.236-6.67a.303.303 0 01.138.265v3.881c-2.953 2.216-6.505 3.222-10.105 2.97a19.774 19.774 0 001.624-1.141.744.744 0 00.285-.585V19.29c0-.652-.328-1.253-.915-1.63l-3.576-2.009.87-.482c1.054.86 1.96 1.116 2.772 1.116.994 0 2.04-.487 2.817-1.138l6.09 3.426zm-8.907-15.89c2.071 0 3.89 1.353 4.532 3.213a5.55 5.55 0 01-3.355-1.713.743.743 0 00-1.182.126 5.524 5.524 0 01-3.822 2.64v-.005a7.306 7.306 0 00-.049-.98l-.011-.099a8.24 8.24 0 00-.182-.913c.844-1.353 2.413-2.27 4.07-2.27zm-3.99 5.783a6.965 6.965 0 004.747-2.642c1.15.943 2.61 1.515 4.052 1.584-.01 2.688-2.206 7.39-4.809 7.39-2.005 0-3.718-2.868-4.358-4.857.163-.511.281-1.003.368-1.475zm.151 5.594l-1.329.736-1.341-.754c.497-.62.953-1.339 1.344-2.12.375.79.826 1.515 1.326 2.138zM28.98 9.697c-.717 2.14-2.557 5.235-4.8 5.235-2.612 0-4.838-4.296-5.262-7.044.113-.028 3.644.19 6.074-3.001 1.234 1.032 2.898 1.715 4.516 1.782.02.97-.216 2.11-.528 3.028zm-4.756-8.21c4.17 0 4.964 3.59 5.029 3.664a6.193 6.193 0 01-3.845-1.914.744.744 0 00-1.184.13 6.112 6.112 0 01-5.37 3.032c.204-2.733 2.394-4.911 5.37-4.911zm-5.532 10.42c.386.772.844 1.51 1.369 2.158l-1.313.73-1.36-.765c.515-.658.953-1.393 1.304-2.123zm-5.183-9.225c1.687 0 3.233.856 4.094 2.271-.043.15-.16.747-.175.822a5.505 5.505 0 01-2.731-1.594.743.743 0 00-1.183.13 5.568 5.568 0 01-4.766 2.722c.237-2.44 2.277-4.35 4.761-4.35zM8.814 8.516a7.061 7.061 0 005.464-2.693 6.937 6.937 0 003.083 1.441c.043.862.268 1.91.525 2.683-.41 1.26-1.198 2.76-2.176 3.758-.006.006-.014.009-.02.015-.612.645-1.482 1.078-2.166 1.078-2.391 0-4.262-3.762-4.71-6.282zM4.477 18.837c0-.113.05-.209.101-.243l6.174-3.426c.37.309.456.344.53.398.727.484 1.393.724 2.301.724.968 0 1.849-.41 2.624-1.041.043-.034.09-.067.132-.102l.881.495-3.67 2.041a1.905 1.905 0 00-.876 1.607v4.672c0 .228.105.443.285.584.475.373 1.091.809 1.624 1.142-3.651.25-7.204-.792-10.106-2.97v-3.881z" fill="#FF6B09"/><path d="M46.888 31.171a3.092 3.092 0 00-3.01-.165l-9.18 4.435a3.166 3.166 0 00-3.16-3.107l-5.264.001c-2.595-2.256-5.912-3.638-8.928-3.71-2.974-.07-5.643-.09-6.888-.096v-1.503H0v17.275h10.458v-2.069C13.325 43.879 20.866 48 24.445 48c.08 0 .16-.002.236-.007 6.294-.353 21.136-10.797 22.115-11.49a3.119 3.119 0 001.551-2.694 3.096 3.096 0 00-1.46-2.638zM8.97 42.814H1.488v-14.3H8.97v14.3zm37.06-7.587a.635.635 0 00-.065.041c-.154.11-15.421 10.907-21.367 11.24a3.651 3.651 0 01-.18.005c-3.14 0-10.792-4.129-13.96-6.001V30.017c1.24.005 3.894.025 6.853.095 2.755.067 5.814 1.382 8.183 3.519l.212.192 5.832-.002a1.68 1.68 0 011.678 1.678 1.68 1.68 0 01-1.678 1.679H20.825v1.487h10.713c1.027 0 1.932-.499 2.51-1.259l10.476-5.06a1.593 1.593 0 011.574.086c.484.303.762.805.762 1.377a1.63 1.63 0 01-.83 1.418zM24.917 18.238H23.43v1.38h1.487v-1.38zM24.917 20.988H23.43v1.38h1.487v-1.38zM24.917 23.74H23.43v1.379h1.487v-1.38z" fill="#FF6B09"/></svg>