<svg width="34" height="40" viewBox="0 0 34 40" fill="none" xmlns="http://www.w3.org/2000/svg">
<path d="M-0.12838 39.1984C4.17281 39.1984 29.0563 39.1984 33.3525 39.1984C33.5183 35.3803 33.2448 29.0454 30.8973 26.0302L30.8124 25.9219L25.6826 23.3463C25.794 22.9706 25.8488 22.6264 25.8708 22.3735C25.8962 22.0698 25.8543 21.7846 25.7459 21.5262C24.8996 19.5011 23.1088 18.4356 22.1238 17.9815C22.424 17.3767 22.6175 16.7274 22.711 16.064C23.2686 15.9069 23.7171 15.465 23.8641 14.8755L24.4629 12.443C24.569 12.0139 24.5024 11.5688 24.2743 11.1903C24.1762 11.0272 24.0493 10.8898 23.9069 10.7723C25.5951 6.93766 22.7676 3.32194 22.6136 3.13162C19.5514 -0.179227 15.683 0.439858 15.4785 0.476549C9.89581 1.64554 7.74143 5.924 8.95773 10.9419C8.59739 11.341 8.44615 11.8971 8.57967 12.4424L9.18139 14.8776C9.32728 15.4628 9.77223 15.9031 10.3259 16.0621C10.4967 17.2769 11.0109 18.3758 11.7662 19.2613V21.1897C3.75506 25.2923 8.83115 22.6749 2.41108 25.9228C2.39839 25.9834 -0.601359 29.1715 -0.155489 38.6211L-0.12838 39.1984ZM32.1891 37.9863H26.6788V35.6716L30.3233 27.3285C32.149 30.3588 32.2168 36.1448 32.1891 37.9863ZM24.6686 22.2705C24.456 24.7132 23.1164 23.9748 22.2894 25.8568C21.639 25.1416 21.4434 24.284 21.6182 23.366C21.934 21.6804 20.9052 21.1797 21.1595 19.4086L21.198 19.368V19.3624C21.2198 19.338 21.4227 19.0963 21.4815 19.02C23.6616 19.9704 24.7111 21.7379 24.6686 22.2705ZM12.9732 20.3505C13.9853 21.0525 15.207 21.4673 16.521 21.4673C17.7585 21.4673 18.9339 21.1072 19.9416 20.4441C20.0813 21.8365 20.6255 22.1153 20.4324 23.1399C20.3962 23.3301 20.3766 23.5175 20.365 23.7019L16.6123 27.9313L11.8152 22.523L12.9732 21.9183V20.3505H12.9732ZM11.4645 15.1744V12.8295C11.4645 11.966 11.4645 8.5401 11.4645 8.70927C12.0485 7.62913 12.8447 6.84581 13.8342 6.37617C16.4843 7.87562 19.5347 10.1134 21.5805 12.3655C21.5785 15.2336 21.5886 15.2414 21.5695 15.477L21.5682 15.492C21.4086 18.0964 19.2671 20.2552 16.521 20.2552C13.8513 20.2552 11.6348 18.1591 11.4745 15.4662C11.4662 15.3697 11.4645 15.273 11.4645 15.1744ZM10.7172 23.1079L16.6123 29.7536L20.5702 25.293C20.6606 25.5534 20.7875 25.7995 20.9326 26.0371L16.6124 31.4398L10.17 23.3826L10.7172 23.1079ZM22.7874 14.199V12.3267C22.8405 12.2659 23.2904 11.75 23.2374 11.8108C23.2622 12.7588 23.3646 11.6399 22.7874 14.199ZM15.7018 1.66766C15.9413 1.68257 19.1582 1.17834 21.7007 3.92323C21.8008 4.04885 23.8704 6.71542 23.039 9.63253C22.7544 8.33448 22.2583 6.67107 21.4744 5.87724L20.6175 6.73069C21.3915 7.51468 21.9 9.90208 22.0936 11.1398C18.5431 7.42452 13.963 5.07305 13.9002 5.03325C13.6705 5.17611 11.7323 5.5446 10.3247 8.28047L10.2575 8.41127V10.4206C10.1971 10.4213 10.0196 10.4231 10.0801 10.4225C9.18572 6.10458 10.8985 2.67445 15.7018 1.66766ZM9.9529 11.6694L10.2575 12.9035V14.2005L9.75127 12.1515C9.67699 11.8461 9.90325 11.7303 9.9529 11.6694ZM9.06547 23.9371L16.6123 33.3758L21.7184 26.9895C22.2739 27.4866 22.5409 27.5571 23.7186 28.1627L23.3214 26.8153C23.2206 26.4732 23.6196 25.9246 23.8606 25.6725C24.3986 25.3806 24.847 24.9644 25.1825 24.4506L29.3485 26.5425L25.4719 35.4177V37.9863H7.75224V35.4174L3.87381 26.5434L9.06547 23.9371ZM2.90022 27.3311L6.54528 35.6719V37.9863H1.03497C1.00728 36.1454 1.07564 30.3623 2.90022 27.3311Z" fill="#FF6B09"/>
</svg>
