<svg width="24" height="24" viewBox="0 0 24 24" fill="none" xmlns="http://www.w3.org/2000/svg">
<path d="M3.49259 0.00182175C3.10622 0.0201449 2.72684 0.18444 2.44862 0.490301L0.502737 2.62938C0.505458 2.62303 0.495118 2.62395 0.439985 2.70196C0.410595 2.74221 0.387756 2.78685 0.372316 2.83423C-0.419735 5.3572 0.11122 8.13254 1.40458 10.7722C2.698 13.4118 4.76108 15.9378 7.12967 18.0106C9.49825 20.0835 12.1707 21.7052 14.7188 22.5096C17.2669 23.314 19.7376 23.3033 21.5685 21.975C21.5884 21.9603 21.6071 21.944 21.6245 21.9264C21.6725 21.8784 21.6741 21.8723 21.6663 21.8796L21.6737 21.8703L23.6103 19.7405C24.1668 19.1287 24.1219 18.1671 23.51 17.6106L18.9157 13.4322C18.3039 12.8757 17.3424 12.9201 16.7859 13.5319L14.7071 15.8179C13.0197 15.3293 11.5771 14.501 10.1897 13.239C8.80206 11.9768 7.84072 10.6183 7.19488 8.9842L9.27302 6.69816C9.82952 6.08637 9.78524 5.12479 9.17335 4.56829L4.57904 0.389897C4.27316 0.111648 3.87958 -0.0165759 3.49317 0.00171102L3.49259 0.00182175ZM3.53627 0.939388C3.67859 0.933038 3.82339 0.982482 3.94168 1.09012L8.53599 5.26851C8.77267 5.48376 8.78875 5.82736 8.57351 6.06399L6.27631 8.58876C6.21857 8.65256 6.17934 8.73091 6.16286 8.81537C6.14638 8.89982 6.15328 8.9872 6.1828 9.06802C6.88 10.9706 8.00469 12.5315 9.55227 13.9392C11.0999 15.3468 12.7587 16.3194 14.7188 16.8337C14.8022 16.8556 14.8901 16.8542 14.9729 16.8297C15.0556 16.8052 15.1301 16.7585 15.1882 16.6946L17.4859 14.1692C17.7011 13.9327 18.0442 13.917 18.2808 14.1323L22.8757 18.3107C23.1124 18.526 23.1278 18.869 22.9126 19.1056L20.9919 21.2169C19.4894 22.2954 17.3728 22.3558 15.0024 21.6076C12.6227 20.8563 10.0393 19.3003 7.75282 17.2992C5.46632 15.2982 3.47653 12.8545 2.25351 10.3586C1.04309 7.8882 0.603968 5.39081 1.26977 3.18958L3.14617 1.1274C3.25378 1.00911 3.39389 0.94576 3.53621 0.939138L3.53627 0.939388Z" fill="#FF6B09"/>
</svg>
