<svg width="24" height="24" fill="none" xmlns="http://www.w3.org/2000/svg"><path d="M3.493.002A1.503 1.503 0 002.449.49L.503 2.63c.002-.007-.008-.006-.063.072a.473.473 0 00-.068.132c-.792 2.523-.26 5.299 1.033 7.938 1.293 2.64 3.356 5.166 5.725 7.239 2.368 2.073 5.04 3.694 7.589 4.499 2.548.804 5.019.793 6.85-.535a.48.48 0 00.056-.049c.047-.048.05-.054.041-.046l.008-.01 1.936-2.13a1.515 1.515 0 00-.1-2.13l-4.594-4.178a1.515 1.515 0 00-2.13.1l-2.079 2.286c-1.687-.489-3.13-1.317-4.517-2.579-1.388-1.262-2.35-2.62-2.995-4.255l2.078-2.286a1.515 1.515 0 00-.1-2.13L4.58.39A1.504 1.504 0 003.493.002zm.043.937a.562.562 0 01.406.151L8.536 5.27a.552.552 0 01.038.795L6.276 8.589a.473.473 0 00-.093.479c.697 1.903 1.822 3.463 3.37 4.871 1.547 1.408 3.206 2.38 5.166 2.895a.473.473 0 00.47-.14l2.297-2.525a.551.551 0 01.795-.037l4.595 4.179a.551.551 0 01.037.795l-1.921 2.11c-1.503 1.08-3.62 1.14-5.99.392-2.38-.752-4.963-2.308-7.25-4.309-2.286-2-4.275-4.444-5.498-6.94-1.21-2.47-1.65-4.968-.984-7.17l1.876-2.062a.562.562 0 01.39-.188z" fill="#FF6B09"/></svg>