<svg aria-hidden="true" style="position:absolute;width:0;height:0" xmlns="http://www.w3.org/2000/svg" overflow="hidden"><defs><symbol id="icon-circle" viewBox="0 0 32 32"><path d="M32 16c0 8.837-7.163 16-16 16S0 24.837 0 16 7.163 0 16 0s16 7.163 16 16z"/></symbol><symbol id="icon-facebook" viewBox="0 0 32 32"><path d="M16 32c8.837 0 16-7.163 16-16S24.837 0 16 0 0 7.163 0 16s7.163 16 16 16z"/><path fill="var(--color2, #fff)" d="M20.446 15.982h-2.61v9.619h-3.955v-9.619H12v-3.38h1.881v-2.187c0-1.564.739-4.014 3.99-4.014l2.929.012v3.281h-2.125c-.349 0-.839.175-.839.921v1.989h2.955l-.346 3.377z"/></symbol><symbol id="icon-github" viewBox="0 0 32 32"><path d="M32 16c0 8.837-7.163 16-16 16S0 24.837 0 16 7.163 0 16 0s16 7.163 16 16z"/><path fill="var(--color2, #fff)" d="M16 6.588c-5.169 0-9.412 4.242-9.412 9.412 0 4.411 3.095 8.419 7.206 9.412v-3.114a2.307 2.307 0 01-1.197-.03c-.556-.164-1.008-.535-1.344-1.1-.214-.361-.593-.752-.988-.723l-.097-1.099c.855-.073 1.595.521 2.034 1.259.195.328.419.52.708.605.278.082.578.043.926-.08.088-.698.407-.959.648-1.326v-.001c-2.451-.366-3.428-1.666-3.816-2.693-.514-1.363-.238-3.066.671-4.142.018-.021.05-.076.037-.114-.417-1.258.091-2.299.11-2.41.481.142.559-.143 2.089.786l.264.159c.111.066.076.028.186.02A8.031 8.031 0 0116 11.131a8.016 8.016 0 012.002.285l.086.009c-.007-.001.023-.005.075-.036 1.911-1.157 1.842-.779 2.355-.946.019.111.519 1.169.107 2.411-.056.171 1.657 1.739.708 4.256-.388 1.027-1.365 2.328-3.816 2.693v.001c.314.479.692.734.69 1.722v3.887c4.111-.993 7.206-5 7.206-9.412 0-5.169-4.242-9.412-9.412-9.412z"/></symbol><symbol id="icon-home" viewBox="0 0 32 32"><path d="M31.618 15.643c.553-.608.5-1.541-.119-2.082L17.863 1.63c-.619-.541-1.611-.53-2.217.026L1.964 14.198a1.446 1.446 0 00-.066 2.079l.343.357c.569.592 1.489.663 2.053.157l1.023-.916v13.406c0 .823.666 1.488 1.488 1.488h5.333c.822 0 1.488-.666 1.488-1.488v-9.379h6.803v9.379c-.012.822.576 1.488 1.398 1.488h5.652c.822 0 1.488-.666 1.488-1.488V16.064l.631.554c.349.307 1.078.061 1.631-.548l.388-.426z"/></symbol><symbol id="icon-telegram" viewBox="0 0 32 32"><path d="M32 16c0 8.837-7.163 16-16 16S0 24.837 0 16 7.163 0 16 0s16 7.163 16 16z"/><path fill="var(--color2, #fff)" d="M12.867 18.375l-.318 4.169c.454 0 .651-.182.887-.401l2.13-1.9 4.415 3.017c.81.421 1.38.199 1.598-.695l2.898-12.673c.257-1.117-.433-1.554-1.222-1.28L6.223 14.698c-1.162.421-1.145 1.026-.198 1.3l4.354 1.264 10.115-5.907c.476-.294.909-.131.553.163l-8.182 6.857z"/></symbol><symbol id="icon-arrow-right" viewBox="0 0 32 32"><path d="M19.414 27.414l10-10a2 2 0 000-2.828l-10-10a2 2 0 10-2.828 2.828L23.172 14H4a2 2 0 100 4h19.172l-6.586 6.586c-.39.39-.586.902-.586 1.414s.195 1.024.586 1.414a2 2 0 002.828 0z"/></symbol><symbol id="icon-burger" viewBox="0 0 32 32"><path d="M1 7h30a1 1 0 000-2H1a1 1 0 000 2zM31 15H1a1 1 0 000 2h30a1 1 0 000-2zM31 25H1a1 1 0 000 2h30a1 1 0 000-2z"/></symbol><symbol id="icon-close" viewBox="0 0 32 32"><path d="M.371 2.165A1.268 1.268 0 012.164.372l13.835 13.835L29.834.372a1.27 1.27 0 011.794 1.793L17.792 16l13.835 13.835a1.268 1.268 0 11-1.794 1.793L15.998 17.793 2.163 31.628A1.268 1.268 0 01.37 29.835L14.205 16 .37 2.165z"/></symbol><symbol id="icon-vector-right" viewBox="0 0 32 32"><path d="M24.684 13.727a3.118 3.118 0 00-.523-.417L11.758.908a3.1 3.1 0 00-4.383 4.384l10.682 10.681L7.321 26.71a3.098 3.098 0 104.382 4.382l12.459-12.457a3.082 3.082 0 001.426-2.662 3.082 3.082 0 00-.903-2.245z"/></symbol></defs></svg>