<svg aria-hidden="true" style="position: absolute; width: 0; height: 0; overflow: hidden;" version="1.1" xmlns="http://www.w3.org/2000/svg" xmlns:xlink="http://www.w3.org/1999/xlink">
<defs>
<symbol id="fire" viewBox="0 0 23 32">
<path fill="#ff6b09" style="fill: var(--color1, #ff6b09)" d="M21.913 16.593c-0.285-0.636-0.675-1.261-1.248-1.984-1.442-1.813-1.882-5.856-1.887-5.895-0.022-0.194-0.155-0.353-0.334-0.411l-0.003-0.001c-0.045-0.015-0.096-0.023-0.15-0.023-0.146 0-0.277 0.063-0.368 0.164l-0 0c-1.721 1.924-0.997 4.896-0.606 6.084 0.107 0.325 0.224 0.708 0.308 1.097 0.635 3.136-0.592 4.557-0.88 4.843-0.279 0.078-0.469 0.039-0.645-0.149-0.607-0.665-0.807-2.842-0.523-5.678 0.023-0.194 0.036-0.419 0.036-0.647 0-0.33-0.027-0.653-0.080-0.968l0.005 0.034c-0.598-3.486-2.791-5.723-3.349-6.507-1.536-2.269-1.692-6.046-1.696-6.080-0.011-0.261-0.225-0.468-0.488-0.468-0.102 0-0.198 0.032-0.276 0.086l0.002-0.001c-2.562 1.742-2.342 5.936-1.985 8.277 0.083 0.544 0.244 1.095 0.523 1.794 0.992 2.496-0.195 5.722-0.205 5.749-0.011 0.030-0.020 0.053-0.025 0.083-0.151 0.796-0.405 1.27-0.69 1.27-0.033-0.001-0.065-0.006-0.095-0.016l0.002 0.001c-0.347-0.073-0.528-0.441-0.533-0.761-0.019-4.135-4.17-5.527-4.213-5.542s-0.096-0.023-0.149-0.023c-0.147 0-0.279 0.066-0.369 0.169l-0.001 0.001c-0.075 0.084-0.12 0.195-0.12 0.317 0 0.079 0.019 0.154 0.053 0.219l-0.001-0.003c0.049 0.101 0.205 0.547 0.098 2.123-0.102 1.521-0.376 2.939-0.803 4.288l0.035-0.128c-0.988 3.221-0.832 6.271-0.821 6.416 0.759 8.258 12.635 9.705 19.682 5.053 0.773-0.51 1.404-1.091 1.868-1.731 2.602-3.588 1.071-8.461-0.068-11.051zM3.847 24.48c0 0.008 0.001 0.016 0.001 0.025 0 0.259-0.203 0.471-0.459 0.484l-0.001 0h-0.030c-0.001 0-0.002 0-0.003 0-0.258 0-0.469-0.201-0.485-0.454l-0-0.001c-0.044-0.707-0.034-1.45 0.019-2.254 0.022-0.254 0.234-0.452 0.492-0.452 0.011 0 0.021 0 0.032 0.001l-0.001-0c0.256 0.017 0.456 0.229 0.456 0.487 0 0.011-0 0.022-0.001 0.032l0-0.001c-0.053 0.766-0.064 1.465-0.019 2.133zM4.086 20.185c-0.030 0.242-0.234 0.427-0.482 0.427-0.001 0-0.001 0-0.002 0h0c-0.020 0-0.039 0-0.064-0.005-0.243-0.032-0.428-0.237-0.428-0.486 0-0.018 0.001-0.036 0.003-0.054l-0 0.002 0.235-1.872c0.035-0.241 0.241-0.425 0.489-0.425 0.021 0 0.041 0.001 0.062 0.004l-0.002-0c0.269 0.034 0.459 0.276 0.425 0.543l-0.235 1.867zM18.605 6.634c-0.236-0.036-0.414-0.237-0.414-0.48 0-0.026 0.002-0.051 0.006-0.075l-0 0.003c0.032-0.197 0.208-1.205 0.687-1.713 0.090-0.095 0.216-0.153 0.356-0.153 0.13 0 0.247 0.050 0.335 0.132l-0-0c0.197 0.182 0.207 0.49 0.021 0.685-0.203 0.214-0.374 0.829-0.433 1.197-0.039 0.234-0.24 0.411-0.482 0.411-0.027 0-0.053-0.002-0.078-0.006l0.003 0zM0.783 9.049c-0.095-0.361-0.327-0.956-0.551-1.15-0.102-0.089-0.166-0.219-0.166-0.364 0-0.123 0.046-0.235 0.122-0.32l-0 0c0.090-0.102 0.222-0.166 0.368-0.166 0.124 0 0.237 0.046 0.323 0.121l-0.001-0c0.527 0.459 0.802 1.444 0.851 1.637 0.010 0.036 0.015 0.077 0.015 0.12 0 0.226-0.155 0.416-0.364 0.469l-0.003 0.001c-0.036 0.010-0.078 0.015-0.121 0.015-0.226 0-0.416-0.153-0.473-0.361l-0.001-0.003z"></path>
</symbol>
<symbol id="menu" viewBox="0 0 48 32">
<path fill="none" stroke="#111518" style="stroke: var(--color2, #111518)" stroke-linejoin="miter" stroke-linecap="butt" stroke-miterlimit="4" stroke-width="4.5714" d="M0 2.301h46.866M0 16.018h46.866M0 29.735h46.866"></path>
</symbol>
<symbol id="close" viewBox="0 0 32 32">
<path fill="none" stroke="#FFFFFF" style="stroke: var(--color2, #FFFFFF)" stroke-linejoin="miter" stroke-linecap="butt" stroke-miterlimit="4" stroke-width="3.7647" d="M1.883 29.182l27.299-27.299M29.182 29.182l-27.299-27.299"></path>
</symbol>
<symbol id="portrait" viewBox="0 0 31 32">
<path fill="#ff6b09" style="fill: var(--color1, #ff6b09)" d="M7.953 23.277h12.364c0.062-1.41-0.040-3.75-0.907-4.863l-0.031-0.040-1.894-0.951c0.041-0.139 0.062-0.266 0.070-0.359 0.002-0.019 0.003-0.041 0.003-0.063 0-0.090-0.018-0.176-0.051-0.254l0.002 0.004c-0.312-0.748-0.974-1.141-1.337-1.309 0.111-0.223 0.182-0.463 0.217-0.708 0.211-0.060 0.372-0.226 0.425-0.435l0.001-0.004 0.221-0.899c0.012-0.044 0.018-0.095 0.018-0.148 0-0.116-0.033-0.225-0.090-0.318l0.002 0.003c-0.037-0.060-0.082-0.111-0.134-0.153l-0.001-0.001c0.623-1.416-0.421-2.751-0.478-2.822-1.131-1.222-2.559-0.994-2.635-0.98-2.062 0.432-2.857 2.012-2.408 3.865-0.097 0.107-0.157 0.251-0.157 0.408 0 0.052 0.006 0.102 0.019 0.15l-0.001-0.004 0.222 0.9c0.054 0.216 0.218 0.379 0.423 0.437 0.066 0.457 0.256 0.86 0.535 1.185l-0.003-0.003v0.712c-2.959 1.515-1.084 0.548-3.455 1.748-0.005 0.022-1.112 1.2-0.948 4.689l0.010 0.213zM19.887 22.829h-2.035v-0.855l1.346-3.081c0.674 1.119 0.699 3.256 0.689 3.936zM17.11 17.025c-0.079 0.902-0.573 0.63-0.879 1.325-0.24-0.264-0.313-0.581-0.248-0.92 0.117-0.623-0.263-0.807-0.169-1.461l0.014-0.015v-0.002c0.008-0.009 0.083-0.098 0.105-0.126 0.805 0.351 1.193 1.004 1.177 1.2zM12.791 16.317c0.366 0.258 0.821 0.413 1.312 0.413 0.47 0 0.906-0.141 1.27-0.383l-0.008 0.005c0.052 0.514 0.252 0.617 0.182 0.996-0.012 0.059-0.021 0.13-0.025 0.203l-0 0.005-1.386 1.562-1.772-1.997 0.428-0.223v-0.579zM12.234 14.405v-2.387c0.215-0.399 0.51-0.688 0.875-0.862 0.979 0.554 2.105 1.38 2.861 2.212-0.001 1.059 0.003 1.062-0.004 1.149l-0 0.006c-0.059 0.962-0.85 1.759-1.864 1.759-0.986 0-1.804-0.774-1.864-1.769-0.002-0.028-0.003-0.061-0.003-0.093 0-0.005 0-0.010 0-0.015v0.001zM11.958 17.335l2.177 2.454 1.462-1.647c0.033 0.096 0.080 0.187 0.134 0.275l-1.595 1.995-2.379-2.976 0.202-0.102zM16.415 14.045v-0.691l0.166-0.191c0.009 0.351 0.047-0.063-0.166 0.882zM13.798 9.417c0.089 0.006 1.277-0.181 2.215 0.833 0.037 0.046 0.801 1.031 0.494 2.108-0.105-0.479-0.288-1.094-0.578-1.387l-0.316 0.315c0.286 0.289 0.474 1.171 0.545 1.628-1.311-1.372-3.003-2.24-3.026-2.255-0.085 0.053-0.8 0.189-1.32 1.199l-0.025 0.048v0.742l-0.066 0.001c-0.33-1.594 0.302-2.861 2.076-3.233zM11.676 13.11l0.112 0.456v0.479l-0.187-0.757c-0.028-0.113 0.056-0.155 0.074-0.178zM11.348 17.64l2.787 3.486 1.885-2.358c0.205 0.184 0.304 0.21 0.739 0.433l-0.146-0.498c-0.037-0.126 0.11-0.329 0.199-0.422 0.2-0.11 0.364-0.262 0.485-0.446l0.003-0.005 1.539 0.772-1.432 3.277v0.949h-6.543v-0.949l-1.432-3.277 1.917-0.962zM9.071 18.894l1.346 3.080v0.855h-2.035c-0.010-0.68 0.015-2.816 0.689-3.935z"></path>
<path fill="none" stroke="#ff6b09" style="stroke: var(--color1, #ff6b09)" stroke-linejoin="miter" stroke-linecap="butt" stroke-miterlimit="4" stroke-width="0.6154" d="M31.080 4.616v-4.308h-30.774v31.389h30.774v-4.308"></path>
</symbol>
<symbol id="method" viewBox="0 0 31 32">
<path fill="#ff6b09" style="fill: var(--color1, #ff6b09)" d="M20.408 8.559h-7.117c-0.464 0.001-0.84 0.376-0.84 0.84v2.946l-5.288 2.22c-0.063 0.027-0.106 0.088-0.106 0.159 0 0.063 0.033 0.117 0.083 0.147l0.001 0 0.674 0.403v4.301c-0.348 0.082-0.603 0.389-0.603 0.756v0.415c0 0.095 0.077 0.172 0.172 0.172h1.207c0.095 0 0.172-0.077 0.172-0.172v0-0.415c0-0.369-0.259-0.677-0.604-0.756v-4.095l0.533 0.319c-0.017 0.123-0.002-0.214-0.008 2.002 0 0.729 1.866 1.119 3.765 1.141v3.356c0 0.463 0.376 0.839 0.839 0.839 0 0 0 0 0.001 0h7.117c0.463-0 0.839-0.376 0.84-0.839v-0c0 0.023-0.001-0.711 0-12.899 0-0.457-0.378-0.84-0.839-0.84zM8.419 20.331v0.242h-0.863v-0.242c0-0.238 0.193-0.433 0.431-0.433s0.432 0.194 0.432 0.433zM20.408 22.793h-7.117c-0.171 0-0.322-0.086-0.411-0.218-0.053-0.077-0.085-0.173-0.085-0.276 0-0 0-0.001 0-0.001v0-1.163h8.106v1.164c0 0.27-0.225 0.494-0.494 0.494zM20.902 20.791h-8.106v-1.847c0.927-0.010 3.767-0.215 3.767-1.142-0.001-1.393 0.002-1.957-0.004-2.005l1.546-0.926c0.050-0.031 0.083-0.085 0.083-0.148 0-0.071-0.043-0.132-0.104-0.158l-0.001-0-5.287-2.219v-1.438h8.106v9.884zM12.623 16.659c-0.955 0-2.794 0.123-3.593 0.645 0.005-1.596-0.055-1.492 0.141-1.627 0.496-0.365 1.916-0.62 3.452-0.62 0.67 0 3.595 0.184 3.595 0.803v1.445c-0.806-0.527-2.636-0.645-3.595-0.645zM12.795 9.399c0-0.273 0.222-0.495 0.495-0.495 0 0 0 0 0 0h7.117c0.273 0 0.494 0.225 0.494 0.495v1.164h-8.106v-1.163zM12.623 12.646l5.013 2.104-1.242 0.743c-0.66-0.655-2.845-0.782-3.771-0.782-0.927 0-3.112 0.127-3.77 0.782l-1.242-0.743 5.013-2.104zM9.030 17.802c0-0.279 1.234-0.799 3.593-0.799 2.36 0 3.595 0.52 3.595 0.799s-1.235 0.799-3.595 0.799c-2.359 0-3.593-0.52-3.593-0.799z"></path>
<path fill="#ff6b09" style="fill: var(--color1, #ff6b09)" d="M16.849 21.395c-0.314 0-0.569 0.255-0.569 0.57s0.255 0.57 0.569 0.57 0.569-0.255 0.569-0.57c0-0.314-0.255-0.569-0.569-0.569zM16.849 22.19c-0.118-0.008-0.211-0.106-0.211-0.225s0.093-0.217 0.21-0.225l0.001-0c0.121 0.005 0.217 0.104 0.217 0.225s-0.096 0.221-0.217 0.225h-0zM17.506 9.561h-1.314v0.344h1.314v-0.344z"></path>
<path fill="none" stroke="#ff6b09" style="stroke: var(--color1, #ff6b09)" stroke-linejoin="miter" stroke-linecap="butt" stroke-miterlimit="4" stroke-width="0.6154" d="M31.080 4.616v-4.308h-30.774v31.389h30.774v-4.308"></path>
</symbol>
<symbol id="warranty" viewBox="0 0 31 32">
<path fill="#ff6b09" style="fill: var(--color1, #ff6b09)" d="M7.942 14.96c0 0.165-0.25 0.165-0.25 0 0-3.503 2.841-6.343 6.343-6.343 3.504 0 6.343 2.841 6.343 6.343 0 0.165-0.249 0.165-0.249 0 0-2.367-3.89-2.369-3.89 0 0 0.165-0.256 0.165-0.256 0 0-2.362-3.897-2.362-3.897 0 0 0.165-0.256 0.165-0.256 0 0-2.357-3.889-2.374-3.889 0zM11.854 14.041c0.068-1.363 0.282-2.585 0.593-3.517 0.249-0.742 0.563-1.305 0.92-1.621-2.675 0.292-4.84 2.32-5.324 4.949 0.921-1.328 3.048-1.222 3.811 0.189zM15.965 13.979c-0.069-1.31-0.277-2.483-0.577-3.377-0.772-2.314-1.932-2.314-2.704 0-0.299 0.894-0.506 2.066-0.576 3.377 0.831-1.412 3.026-1.412 3.857 0zM20.029 13.852c-0.482-2.63-2.648-4.657-5.324-4.949 0.358 0.316 0.671 0.879 0.92 1.621 0.311 0.933 0.526 2.155 0.593 3.517 0.768-1.418 2.901-1.502 3.811-0.189zM13.203 17.863v-1.288c-0.232 0.154-0.415 0.392-0.415 0.683 0 0.283 0.186 0.47 0.415 0.605zM13.453 18.263c-0.445-0.204-0.913-0.442-0.913-1.005 0-0.581 0.442-0.872 0.913-1.089v2.094zM14.868 19.806v1.303c0.235-0.156 0.419-0.395 0.419-0.686 0-0.286-0.189-0.479-0.419-0.617zM14.62 19.405c0.446 0.206 0.918 0.452 0.918 1.018 0 0.583-0.445 0.873-0.918 1.089v-2.107z"></path>
<path fill="#ff6b09" style="fill: var(--color1, #ff6b09)" d="M14.868 15.108c1.024 0.237 2.077 1.003 2.077 2.149 0 0.981-1.658 0.945-1.658 0 0-0.292-0.184-0.532-0.419-0.686v1.833c0.948 0.31 2.080 0.865 2.080 2.019 0 1.147-1.053 1.912-2.080 2.147-0.004 1.092-1.662 1.090-1.665-0.002-0.584-0.135-1.092-0.407-1.459-0.768-0.385-0.38-0.612-0.858-0.612-1.378 0-0.966 1.656-0.966 1.656 0 0 0.289 0.182 0.527 0.415 0.682v-1.832c-0.94-0.304-2.079-0.876-2.079-2.019 0-1.147 1.053-1.912 2.079-2.147 0.004-1.092 1.662-1.090 1.665 0.002zM13.453 15.111v0.199c-0.975 0.193-2.080 0.818-2.080 1.944 0 1.083 1.213 1.568 2.080 1.836v2.42c-0.469-0.214-0.914-0.503-0.914-1.087 0-0.638-1.159-0.638-1.159 0 0 0.451 0.201 0.867 0.539 1.2 0.43 0.425 0.951 0.628 1.533 0.743v0.201c0 0.768 1.167 0.768 1.167 0v-0.199c0.978-0.195 2.078-0.819 2.078-1.944 0-1.093-1.21-1.563-2.078-1.837v-2.419c0.47 0.214 0.918 0.503 0.918 1.090 0 0.622 1.157 0.647 1.157 0 0-1.125-1.099-1.751-2.075-1.945v-0.201c0-0.768-1.166-0.768-1.166 0z"></path>
<path fill="none" stroke="#ff6b09" style="stroke: var(--color1, #ff6b09)" stroke-linejoin="miter" stroke-linecap="butt" stroke-miterlimit="4" stroke-width="0.6154" d="M31.080 4.616v-4.308h-30.774v31.389h30.774v-4.308"></path>
</symbol>
<symbol id="study" viewBox="0 0 31 32">
<path fill="#ff6b09" style="fill: var(--color1, #ff6b09)" d="M30.156 4.962l-0.001-0.003c-0.007-0.017-0.015-0.032-0.025-0.046l0.001 0.001-0.003-0.003c-0.010-0.016-0.021-0.029-0.033-0.042l-4.808-4.807c-0.012-0.012-0.025-0.023-0.039-0.032l-0.001-0.001c-0.003-0.002-0.007-0.003-0.009-0.006-0.010-0.006-0.022-0.013-0.034-0.019l-0.002-0.001-0.011-0.004c-0.029-0.012-0.063-0.019-0.098-0.020h-21.182c-0.157 0-0.283 0.127-0.283 0.284 0 0 0 0 0 0v0 29.318c0 0.019 0.001 0.037 0.005 0.055l0.007 0.023 0.010 0.030c0.003 0.009 0.009 0.017 0.013 0.025 0.004 0.007 0.007 0.016 0.013 0.023 0.010 0.015 0.021 0.028 0.033 0.040l2.168 2.168c0.051 0.051 0.122 0.083 0.201 0.083s0.149-0.032 0.201-0.083v0l1.965-1.964 1.964 1.964c0.051 0.052 0.122 0.084 0.201 0.084s0.15-0.032 0.201-0.084l1.964-1.964 1.965 1.964c0.051 0.051 0.122 0.083 0.201 0.083s0.149-0.032 0.201-0.083v0l1.964-1.964 1.964 1.964c0.051 0.051 0.122 0.083 0.201 0.083s0.149-0.032 0.201-0.083v0l1.965-1.964 1.964 1.964c0.051 0.052 0.122 0.084 0.201 0.084s0.15-0.032 0.201-0.084l1.965-1.964 1.965 1.964c0.051 0.051 0.122 0.083 0.201 0.083s0.149-0.032 0.201-0.083v0l2.165-2.165 0.011-0.013c0.008-0.009 0.017-0.019 0.024-0.029 0.007-0.009 0.011-0.020 0.016-0.030 0.004-0.007 0.007-0.012 0.009-0.019 0.007-0.013 0.009-0.027 0.013-0.040l0.005-0.013c0.003-0.017 0.005-0.036 0.005-0.056 0-0 0-0.001 0-0.001v0-24.509c-0.001-0.039-0.009-0.077-0.023-0.111l0.001 0.002zM25.37 0.95l3.837 3.836h-3.837v-3.836zM29.609 29.463l-1.88 1.88-1.965-1.964c-0.051-0.051-0.122-0.083-0.201-0.083s-0.149 0.032-0.201 0.083v0l-1.964 1.964-1.964-1.964c-0.051-0.051-0.122-0.083-0.201-0.083s-0.149 0.032-0.201 0.083v0l-1.966 1.964-1.963-1.964c-0.051-0.052-0.122-0.084-0.201-0.084s-0.15 0.032-0.201 0.084v0l-1.964 1.964-1.965-1.964c-0.052-0.051-0.123-0.083-0.201-0.083s-0.15 0.032-0.201 0.083v0l-1.964 1.964-1.964-1.964c-0.052-0.051-0.123-0.083-0.201-0.083s-0.15 0.032-0.201 0.083v0l-1.964 1.964-1.88-1.88v-28.916h20.608v4.523c0 0.157 0.127 0.284 0.284 0.284h4.522v24.109z"></path>
<path fill="#ff6b09" style="fill: var(--color1, #ff6b09)" d="M6.312 3.235h9.306c0.157 0 0.284-0.127 0.284-0.284s-0.127-0.284-0.284-0.284h-9.305c-0.157 0-0.284 0.127-0.284 0.284s0.127 0.284 0.284 0.284v0zM6.312 4.992h14.924c0.157 0 0.284-0.127 0.284-0.284s-0.127-0.284-0.284-0.284h-14.924c-0.157 0-0.284 0.127-0.284 0.284s0.127 0.284 0.284 0.284v0zM6.028 6.57v9.201c0 0.157 0.127 0.284 0.285 0.284h21.177c0.157 0 0.284-0.127 0.284-0.284v0-9.201c0-0.157-0.127-0.284-0.284-0.284v0h-21.178c-0 0-0 0-0.001 0-0.157 0-0.284 0.127-0.284 0.284 0 0 0 0 0 0v0zM12.309 6.854h14.897v2.446h-14.897v-2.446zM12.309 9.868h14.897v2.445h-14.897v-2.445zM12.309 12.88h14.897v2.606h-14.897v-2.606zM6.597 6.854h5.143v2.446h-5.143v-2.446zM6.597 9.868h5.143v2.445h-5.143v-2.445zM6.597 12.88h5.143v2.606h-5.143v-2.606zM27.49 17.334h-21.178c-0 0-0 0-0.001 0-0.157 0-0.284 0.127-0.284 0.284 0 0 0 0 0 0v0 9.2c0 0.157 0.127 0.284 0.284 0.284s0.284-0.127 0.284-0.284v-2.889h5.144v2.889c0 0.157 0.127 0.284 0.284 0.284s0.284-0.127 0.284-0.284v0-2.889h14.897v2.889c0 0.157 0.127 0.284 0.284 0.284s0.284-0.127 0.284-0.284v0-9.2c0-0 0-0.001 0-0.001 0-0.156-0.127-0.283-0.283-0.283-0 0-0 0-0.001 0h0zM11.74 23.359h-5.143v-2.444h5.143v2.444zM11.74 20.346h-5.143v-2.445h5.143v2.445zM27.206 23.359h-14.897v-2.444h14.897v2.444zM27.206 20.346h-14.897v-2.445h14.897v2.445zM2.279-0.021c-0.157 0-0.284 0.127-0.284 0.284v29.318c0 0.157 0.127 0.284 0.284 0.284s0.284-0.127 0.284-0.284v0-29.318c0-0.157-0.127-0.284-0.284-0.284v0zM0.716-0.021c-0.157 0-0.284 0.127-0.284 0.284v29.318c0 0.157 0.127 0.284 0.284 0.284s0.284-0.127 0.284-0.284v0-29.318c0-0.157-0.127-0.284-0.284-0.284v0z"></path>
</symbol>
<symbol id="mobile" viewBox="0 0 33 32">
<path fill="#ff6b09" style="fill: var(--color1, #ff6b09)" d="M30.183-0.129h-15.75c-1.026 0.001-1.858 0.833-1.859 1.859v6.52l-11.702 4.91c-0.139 0.059-0.235 0.194-0.235 0.352 0 0.139 0.074 0.26 0.185 0.326l0.002 0.001 1.492 0.893v9.518c-0.77 0.181-1.334 0.861-1.335 1.674v0.917c0 0.211 0.17 0.381 0.381 0.381h2.672c0.211 0 0.381-0.171 0.381-0.381v0-0.917c0-0.816-0.573-1.498-1.337-1.673v-9.062l1.18 0.706c-0.037 0.272-0.005-0.474-0.017 4.431 0 1.613 4.13 2.476 8.332 2.526v7.427c0 1.025 0.832 1.856 1.857 1.856 0 0 0.001 0 0.001 0h15.749c1.026-0.001 1.857-0.832 1.858-1.858v-0c0 0.051-0.002-1.573 0-28.546 0-1.012-0.836-1.86-1.856-1.86zM3.652 25.923v0.537h-1.909v-0.537c0-0.528 0.427-0.957 0.953-0.957 0.528 0 0.957 0.43 0.957 0.957zM30.183 31.37h-15.75c-0.378 0-0.712-0.191-0.909-0.481-0.117-0.171-0.187-0.383-0.187-0.611 0-0.001 0-0.001 0-0.002v0-2.574h17.939v2.576c0 0.597-0.497 1.092-1.092 1.092zM31.275 26.94h-17.939v-4.087c2.051-0.023 8.337-0.475 8.337-2.528-0.003-3.081 0.005-4.331-0.010-4.437l3.421-2.050c0.111-0.068 0.184-0.189 0.184-0.326 0-0.157-0.095-0.292-0.23-0.35l-0.002-0.001-11.701-4.912v-3.182h17.939v21.874zM12.954 17.795c-2.113 0-6.184 0.273-7.951 1.427 0.011-3.531-0.123-3.301 0.312-3.601 1.098-0.808 4.24-1.373 7.639-1.373 1.483 0 7.956 0.407 7.956 1.777v3.197c-1.784-1.165-5.834-1.428-7.956-1.428zM13.336 1.73c0.001-0.605 0.491-1.095 1.096-1.095 0 0 0 0 0 0h15.749c0.605 0 1.094 0.498 1.094 1.095v2.575h-17.939v-2.574zM12.954 8.916l11.093 4.656-2.749 1.645c-1.461-1.449-6.295-1.73-8.345-1.73-2.052 0-6.886 0.281-8.344 1.73l-2.749-1.645 11.094-4.656zM5.003 20.325c0-0.616 2.731-1.768 7.951-1.768 5.223 0 7.956 1.151 7.956 1.768s-2.733 1.769-7.956 1.769c-5.22 0-7.951-1.151-7.951-1.769z"></path>
<path fill="#ff6b09" style="fill: var(--color1, #ff6b09)" d="M22.307 28.277c-0.695 0-1.26 0.565-1.26 1.261s0.565 1.261 1.26 1.261 1.26-0.565 1.26-1.261c0-0.695-0.565-1.26-1.26-1.26zM22.307 30.036c-0.264-0.014-0.473-0.232-0.473-0.498s0.209-0.484 0.472-0.498l0.001-0c0.275 0 0.498 0.223 0.498 0.498s-0.223 0.498-0.498 0.498v0zM23.761 2.089h-2.908v0.762h2.908v-0.762z"></path>
</symbol>
<symbol id="book" viewBox="0 0 46 32">
<path fill="#ff6b09" style="fill: var(--color1, #ff6b09)" d="M20.271 4.609h-13.643v1.022h13.643v-1.022zM20.271 8.418h-11.6v1.021h11.6v-1.021zM20.271 12.227h-13.643v1.022h13.643v-1.022zM20.271 16.036h-11.6v1.022h11.6v-1.022zM20.271 19.845h-13.643v1.021h13.643v-1.021zM20.271 23.654h-11.6v1.022h11.6v-1.022zM38.999 4.609h-13.643v1.022h13.643v-1.022zM36.956 8.418h-11.599v1.021h11.599v-1.021zM38.999 12.227h-13.643v1.022h13.643v-1.022zM36.956 16.036h-11.599v1.022h11.599v-1.022zM38.999 19.845h-13.643v1.021h13.643v-1.021zM36.956 23.654h-11.599v1.022h11.599v-1.022z"></path>
<path fill="#ff6b09" style="fill: var(--color1, #ff6b09)" d="M43.925 3.446h-1.872v-2.813c0-0.282-0.229-0.511-0.511-0.511v0h-15.269c-0.005-0-0.011-0-0.018-0-1.469 0-2.751 0.802-3.431 1.992l-0.010 0.019c-0.691-1.209-1.973-2.011-3.442-2.011-0.006 0-0.012 0-0.017 0h-15.268c-0.282 0-0.511 0.229-0.511 0.511v0 2.813h-1.873c-0.282 0-0.511 0.229-0.511 0.511v0 27.417c0 0.282 0.229 0.511 0.511 0.511h42.223c0.282-0 0.51-0.229 0.51-0.511 0 0 0 0 0 0v0-27.417c0-0.282-0.229-0.511-0.511-0.511v0zM26.273 1.145h14.757v27.356h-15.846c-0.703 0-1.405 0.296-1.859 0.68v-25.094c0-0.003 0-0.006 0-0.009 0-1.62 1.313-2.933 2.933-2.933 0.005 0 0.010 0 0.015 0h-0.001zM4.597 1.145h14.757c0.006-0 0.013-0 0.020-0 1.582 0 2.87 1.256 2.922 2.825l0 0.005c0.001 0.022 0.003 0.091 0.007 0.113v25.092c-0.453-0.383-1.148-0.678-1.852-0.678h-15.854v-27.356zM2.213 4.468h1.362v24.544c0 0.282 0.229 0.511 0.511 0.511h16.364c0.779 0 1.532 0.511 1.772 1.341h-20.009v-26.395zM43.414 30.863h-20.009c0.227-0.78 0.936-1.341 1.775-1.341 0.001 0 0.002 0 0.003 0h16.357c0 0 0 0 0.001 0 0.282 0 0.511-0.229 0.511-0.511v0-24.544h1.362v26.395z"></path>
</symbol>
<symbol id="backup" viewBox="0 0 33 32">
<path fill="#ff6b09" style="fill: var(--color1, #ff6b09)" d="M1.994 12.561v2.832c0 0.152 0.069 0.295 0.189 0.39 1.864 1.471 4.248 2.361 6.838 2.363h0c0.741 0 1.482-0.077 2.207-0.224 1.434 0.652 3.11 1.032 4.874 1.032 0.006 0 0.012 0 0.019 0h-0.001c1.707 0 3.352-0.349 4.892-1.032 3.092 0.625 6.387-0.046 9.046-2.139 0.116-0.092 0.189-0.232 0.189-0.39v0-2.832c0-0.415-0.207-0.794-0.575-1.027l-3.869-2.177c0.846-1.074 1.476-2.603 1.587-3.915 0.321-2.257-1.519-4.647-4.167-4.647-1.114 0-2.172 0.459-2.948 1.227-0.027 0.027-0.058 0.049-0.084 0.077-0.024 0.025-0.043 0.054-0.067 0.080-0.015 0.017-0.029 0.035-0.044 0.053-0.757-1.381-2.211-2.233-3.926-2.233-0.167 0-0.329 0.011-0.492 0.028-0.010-0.001-0.019-0.006-0.029-0.006-0.092 0-0.287 0.025-0.391 0.055-0.015 0.004-0.027 0.015-0.041 0.021-1.296 0.262-2.369 1.054-3.003 2.136l-0.011 0.021c-0.771-0.894-1.905-1.457-3.17-1.457-0.003 0-0.007 0-0.010 0h0.001c-3.909 0-5.644 4.613-2.558 8.583l-3.904 2.167c-0.347 0.219-0.554 0.599-0.554 1.014zM21.003 16.832c-0.084 0.041-0.167 0.085-0.251 0.123l-0.002 0.001c-1.349 0.635-2.93 1.006-4.598 1.006-0.011 0-0.022-0-0.033-0h0.002c-0.007 0-0.016 0-0.025 0-2.51 0-4.824-0.838-6.679-2.249l0.027 0.020v-2.871c0-0.097 0.047-0.184 0.102-0.221l4.543-2.525c0.566 0.48 1.287 0.832 2.036 0.832 0.72 0 1.499-0.357 2.053-0.844l4.488 2.521c0.083 0.053 0.131 0.139 0.131 0.237v2.871c-0.52 0.395-1.108 0.76-1.729 1.069l-0.064 0.029zM29.163 12.384c0.056 0.037 0.092 0.099 0.092 0.17 0 0.003-0 0.005-0 0.008v-0 2.588c-1.969 1.478-4.338 2.149-6.739 1.981 0.419-0.265 0.772-0.516 1.111-0.782l-0.028 0.022c0.116-0.092 0.19-0.232 0.19-0.39v-3.116c0-0.435-0.219-0.836-0.611-1.087l-2.384-1.34 0.58-0.321c0.703 0.574 1.307 0.744 1.849 0.744 0.663 0 1.36-0.325 1.879-0.759l4.061 2.285zM23.223 1.787c1.381 0 2.594 0.902 3.022 2.143-0.889-0.115-1.664-0.531-2.236-1.14l-0.002-0.002c-0.091-0.097-0.22-0.158-0.363-0.158-0.18 0-0.338 0.096-0.425 0.24l-0.001 0.002c-0.546 0.916-1.456 1.567-2.525 1.757l-0.022 0.003-0.001-0.003c0-0.025 0.001-0.054 0.001-0.083 0-0.201-0.012-0.399-0.036-0.594l0.002 0.023-0.007-0.066c-0.034-0.24-0.076-0.446-0.13-0.647l0.009 0.038c0.563-0.902 1.609-1.514 2.714-1.514zM20.563 5.644c1.292-0.143 2.408-0.797 3.158-1.752l0.008-0.010c0.767 0.629 1.741 1.010 2.702 1.056-0.007 1.793-1.471 4.928-3.207 4.928-1.337 0-2.479-1.913-2.906-3.239 0.109-0.341 0.187-0.669 0.245-0.984zM20.663 9.374l-0.886 0.491-0.895-0.503c0.332-0.413 0.636-0.893 0.897-1.414 0.25 0.527 0.551 1.010 0.884 1.426zM19.326 6.466c-0.478 1.427-1.705 3.491-3.201 3.491-1.743 0-3.226-2.865-3.509-4.697 0.075-0.019 2.43 0.127 4.051-2.001 0.823 0.688 1.933 1.144 3.012 1.188 0.013 0.647-0.144 1.407-0.352 2.019zM16.154 0.99c2.781 0 3.31 2.394 3.354 2.443-1.017-0.113-1.909-0.581-2.562-1.274l-0.002-0.002c-0.091-0.097-0.22-0.157-0.362-0.157-0.181 0-0.339 0.097-0.426 0.242l-0.001 0.002c-0.533 0.901-1.379 1.57-2.385 1.861l-0.029 0.007c-0.342 0.097-0.734 0.153-1.14 0.153-0.009 0-0.019-0-0.028-0h0.001c0.136-1.822 1.597-3.274 3.581-3.274zM12.465 7.939c0.257 0.515 0.563 1.007 0.913 1.439l-0.876 0.487-0.907-0.51c0.321-0.411 0.611-0.876 0.849-1.37l0.020-0.046zM9.009 1.787c1.125 0 2.155 0.571 2.73 1.514-0.029 0.1-0.107 0.498-0.117 0.548-0.724-0.179-1.343-0.552-1.819-1.061l-0.002-0.002c-0.091-0.097-0.219-0.157-0.362-0.157-0.181 0-0.339 0.097-0.426 0.242l-0.001 0.002c-0.657 1.091-1.833 1.81-3.178 1.815h-0.001c0.158-1.627 1.518-2.901 3.175-2.901zM5.878 5.678c1.475-0.018 2.785-0.712 3.636-1.786l0.007-0.010c0.57 0.468 1.265 0.806 2.027 0.956l0.029 0.005c0.029 0.575 0.179 1.274 0.35 1.789-0.273 0.84-0.8 1.841-1.451 2.506-0.004 0.004-0.009 0.006-0.013 0.010-0.408 0.43-0.988 0.719-1.444 0.719-1.595 0-2.842-2.509-3.141-4.189zM2.986 12.561c0-0.075 0.033-0.139 0.067-0.162l4.117-2.285c0.247 0.206 0.304 0.229 0.353 0.265 0.485 0.323 0.929 0.483 1.534 0.483 0.646 0 1.233-0.273 1.75-0.694 0.029-0.023 0.060-0.045 0.088-0.068l0.588 0.33-2.447 1.361c-0.354 0.229-0.584 0.622-0.584 1.069 0 0.001 0 0.002 0 0.003v-0 3.116c0 0.152 0.070 0.295 0.19 0.389 0.317 0.249 0.728 0.54 1.083 0.762-2.435 0.167-4.804-0.528-6.739-1.981v-2.588z"></path>
<path fill="#ff6b09" style="fill: var(--color1, #ff6b09)" d="M31.269 20.786c-0.312-0.2-0.693-0.319-1.102-0.319-0.329 0-0.641 0.077-0.917 0.215l0.012-0.005-6.122 2.958c-0.022-1.148-0.957-2.070-2.107-2.072l-3.511 0.001c-1.731-1.504-3.943-2.426-5.954-2.474-1.983-0.047-3.763-0.060-4.593-0.064v-1.002h-6.974v11.52h6.974v-1.38c1.912 1.098 6.941 3.847 9.328 3.847 0.053 0 0.107-0.001 0.157-0.005 4.197-0.235 14.095-7.2 14.748-7.662 0.622-0.367 1.034-1.034 1.034-1.796v-0c0-0.002 0-0.004 0-0.006 0-0.736-0.385-1.382-0.965-1.748l-0.009-0.005zM5.982 28.551h-4.99v-9.536h4.99v9.536zM30.696 23.491c-0.017 0.009-0.031 0.018-0.045 0.028l0.001-0.001c-0.103 0.073-10.284 7.274-14.249 7.496-0.035 0.002-0.077 0.003-0.12 0.003h-0c-2.094 0-7.197-2.754-9.31-4.002v-6.999c0.827 0.003 2.597 0.017 4.57 0.063 1.837 0.045 3.877 0.922 5.457 2.347l0.141 0.128 3.889-0.001c0.618 0.001 1.118 0.501 1.119 1.119v0c-0 0.618-0.501 1.119-1.119 1.12h-7.144v0.992h7.144c0.685 0 1.288-0.333 1.674-0.84l6.986-3.374c0.138-0.071 0.302-0.112 0.474-0.112 0.214 0 0.413 0.063 0.579 0.172l-0.004-0.003c0.323 0.202 0.508 0.537 0.508 0.918-0.001 0.404-0.221 0.756-0.548 0.943l-0.005 0.003zM16.617 12.161h-0.992v0.92h0.992v-0.92zM16.617 13.995h-0.992v0.92h0.992v-0.92zM16.617 15.831h-0.992v0.92h0.992v-0.92z"></path>
</symbol>
<symbol id="student" viewBox="0 0 27 32">
<path fill="#ff6b09" style="fill: var(--color1, #ff6b09)" d="M-0.106 31.766h26.791c0.133-3.055-0.087-8.125-1.964-10.537l-0.068-0.087-4.105-2.061c0.089-0.301 0.133-0.576 0.151-0.779 0.004-0.041 0.007-0.089 0.007-0.137 0-0.195-0.039-0.381-0.11-0.551l0.003 0.009c-0.677-1.62-2.11-2.473-2.898-2.836 0.24-0.484 0.395-1.004 0.469-1.534 0.456-0.131 0.806-0.489 0.921-0.942l0.002-0.009 0.479-1.947c0.025-0.096 0.039-0.206 0.039-0.32 0-0.252-0.071-0.488-0.194-0.688l0.003 0.006c-0.080-0.13-0.178-0.24-0.291-0.332l-0.002-0.002c1.35-3.069-0.912-5.961-1.036-6.115-2.45-2.649-5.545-2.154-5.709-2.124-4.467 0.936-6.191 4.359-5.217 8.374-0.211 0.233-0.341 0.543-0.341 0.884 0 0.112 0.014 0.221 0.040 0.325l-0.002-0.009 0.481 1.949c0.117 0.468 0.473 0.82 0.916 0.948 0.142 0.989 0.554 1.863 1.159 2.567l-0.006-0.007v1.543c-6.411 3.283-2.349 1.188-7.487 3.788-0.010 0.048-2.41 2.599-2.054 10.16l0.022 0.462zM25.754 30.797h-4.409v-1.852l2.916-6.676c1.461 2.425 1.515 7.055 1.494 8.529zM19.736 18.22c-0.17 1.955-1.242 1.364-1.904 2.87-0.52-0.572-0.677-1.258-0.537-1.993 0.253-1.349-0.571-1.749-0.367-3.167l0.031-0.032v-0.005c0.017-0.020 0.18-0.213 0.227-0.274 1.744 0.76 2.585 2.175 2.551 2.601zM10.378 16.685c0.793 0.559 1.779 0.894 2.843 0.894 1.018 0 1.964-0.306 2.751-0.831l-0.018 0.011c0.112 1.114 0.547 1.337 0.393 2.157-0.025 0.128-0.045 0.283-0.054 0.439l-0 0.010-3.003 3.384-3.839-4.328 0.927-0.483v-1.254zM9.171 12.542v-5.173c0.467-0.864 1.104-1.491 1.896-1.867 2.121 1.2 4.561 2.991 6.199 4.793-0.002 2.295 0.007 2.301-0.009 2.489l-0.001 0.012c-0.128 2.085-1.841 3.812-4.039 3.812-2.136 0-3.91-1.677-4.038-3.832-0.005-0.063-0.008-0.136-0.008-0.21 0-0.008 0-0.016 0-0.024v0.001zM8.573 18.891l4.717 5.318 3.167-3.57c0.072 0.209 0.173 0.405 0.289 0.596l-3.457 4.323-5.155-6.448 0.437-0.22zM18.231 11.762v-1.498l0.36-0.413c0.020 0.76 0.102-0.136-0.36 1.912zM12.561 1.734c0.192 0.012 2.766-0.391 4.8 1.805 0.080 0.1 1.736 2.234 1.071 4.568-0.228-1.039-0.625-2.37-1.252-3.005l-0.686 0.683c0.619 0.627 1.027 2.538 1.181 3.528-2.841-2.973-6.506-4.855-6.556-4.886-0.183 0.114-1.734 0.409-2.861 2.599l-0.053 0.104v1.608l-0.143 0.001c-0.716-3.455 0.655-6.2 4.498-7.006zM7.961 9.737l0.243 0.988v1.038l-0.405-1.64c-0.060-0.244 0.121-0.337 0.161-0.385zM7.251 19.554l6.039 7.553 4.086-5.111c0.445 0.398 0.658 0.454 1.6 0.939l-0.317-1.078c-0.081-0.273 0.239-0.713 0.431-0.914 0.434-0.238 0.79-0.569 1.051-0.966l0.007-0.011 3.334 1.674-3.103 7.102v2.056h-14.179v-2.056l-3.103-7.1 4.154-2.085zM2.317 22.27l2.917 6.675v1.852h-4.409c-0.022-1.474 0.033-6.101 1.492-8.527z"></path>
</symbol>
<symbol id="audio" viewBox="0 0 39 32">
<path fill="#ff6b09" style="fill: var(--color1, #ff6b09)" d="M3.048 29.459h12.232c0.618 1.262 1.893 2.116 3.367 2.116 0.005 0 0.009 0 0.014-0h0.773c0.004 0 0.009 0 0.014 0 1.474 0 2.749-0.854 3.357-2.094l0.010-0.022h12.239c1.262-0.001 2.285-1.024 2.286-2.286v-21.909c-0.002-1.262-1.024-2.285-2.286-2.286h-1.234v-1.022c-0.001-0.841-0.683-1.523-1.524-1.524h-26.496c-0.841 0.001-1.523 0.682-1.524 1.524v1.022h-1.227c-1.262 0.001-2.286 1.024-2.287 2.286v21.909c0.001 1.263 1.025 2.286 2.287 2.286h0zM32.294 24.757h-12.48v-17.708c2.885 0.377 5.122 2.845 5.122 5.832v0.687l-0.181-0.040c-0.049-0.011-0.106-0.018-0.164-0.018-0.363 0-0.666 0.253-0.743 0.593l-0.001 0.005-1.213 5.521c-0.011 0.049-0.018 0.105-0.018 0.163 0 0.363 0.253 0.666 0.593 0.743l0.005 0.001 2.622 0.578c0.136 0.029 0.273 0.043 0.411 0.043 0.922 0 1.707-0.631 1.908-1.536l0.702-3.193c0.029-0.125 0.045-0.269 0.045-0.417 0-0.929-0.648-1.706-1.517-1.905l-0.013-0.003-0.912-0.201v-1.023c0-3.828-2.918-6.988-6.646-7.372v-3.552h12.483l-0.001 22.801zM25.172 15.18l1.872 0.412c0.233 0.052 0.377 0.275 0.325 0.508l-0.702 3.192c-0.051 0.231-0.306 0.374-0.507 0.331l-1.874-0.413 0.886-4.030zM5.8 1.956h12.489v3.551c-3.731 0.381-6.653 3.543-6.653 7.373v1.022l-0.914 0.202c-0.517 0.115-0.947 0.425-1.218 0.846l-0.005 0.008c-0.193 0.295-0.307 0.657-0.307 1.045 0 0.15 0.017 0.297 0.050 0.437l-0.003-0.013 0.7 3.189c0.199 0.887 0.98 1.54 1.914 1.54 0.146 0 0.288-0.016 0.425-0.046l-0.013 0.002 2.611-0.577c0.344-0.078 0.598-0.382 0.598-0.744 0-0.058-0.006-0.114-0.019-0.168l0.001 0.005-1.214-5.52c-0.077-0.345-0.381-0.598-0.743-0.598-0.058 0-0.115 0.007-0.17 0.019l0.005-0.001-0.174 0.038v-0.685c0-2.989 2.24-5.459 5.129-5.833v17.71h-12.491v-22.802zM12.919 15.181l0.887 4.030-1.863 0.411c-0.027 0.006-0.058 0.009-0.090 0.009-0.205 0-0.377-0.143-0.421-0.334l-0.001-0.003-0.702-3.197c-0.007-0.028-0.011-0.060-0.011-0.094 0-0.084 0.025-0.161 0.067-0.227l-0.001 0.002c0.061-0.094 0.155-0.161 0.265-0.186l0.003-0.001 1.867-0.412zM2.286 5.264c0-0.42 0.341-0.762 0.761-0.762h1.227v20.255c0.001 0.842 0.683 1.524 1.525 1.524h26.496c0.841-0.001 1.523-0.682 1.524-1.524v-20.256h1.234c0.421 0 0.762 0.342 0.762 0.762v21.909c0 0.42-0.341 0.762-0.762 0.762h-12.757c-0.335 0-0.631 0.219-0.729 0.539-0.285 0.921-1.129 1.578-2.126 1.578-0.003 0-0.006 0-0.009-0h-0.772c-0.001 0-0.002 0-0.004 0-1.002 0-1.85-0.661-2.13-1.571l-0.004-0.016c-0.102-0.31-0.388-0.529-0.725-0.529h-12.749c-0.421 0-0.762-0.342-0.762-0.762v-21.909z"></path>
</symbol>
<symbol id="ellipse" viewBox="0 0 36 32">
<path fill="#ff6b09" style="fill: var(--color1, #ff6b09)" d="M34.306 16.004c0 8.842-7.68 16.010-17.153 16.010s-17.153-7.168-17.153-16.010c0-8.842 7.68-16.010 17.153-16.010s17.153 7.168 17.153 16.010z"></path>
</symbol>
<symbol id="marker" viewBox="0 0 40 32">
<path fill="#ff6b09" style="fill: var(--color1, #ff6b09)" d="M34.458 1.514c-1.485 0.664-2.907 1.475-4.266 2.379-2.731 1.797-5.227 3.936-7.568 6.218-2.291 2.256-4.444 4.63-6.458 7.12l-0.125 0.16c-0.515 0.637-2.822 3.472-2.822 3.472l-9.597-14.382-3.622 10.043 12.976 15.477c1.261-2.552 2.474-5.070 3.664-7.258 0.294-0.557 0.605-1.080 0.901-1.613 0 0 1.523-2.677 1.923-3.35 1.602-2.698 3.333-5.325 5.238-7.821 1.909-2.491 3.984-4.87 6.336-6.96 1.117-1.018 2.342-1.964 3.64-2.807l0.11-0.067c1.331-0.848 2.747-1.59 4.261-2.125-1.574 0.31-3.112 0.848-4.592 1.514z"></path>
</symbol>
<symbol id="left" viewBox="0 0 54 32">
<path fill="#ff6b09" style="fill: var(--color1, #ff6b09)" d="M52.015 14.003c1.105 0 2.001 0.896 2.001 2.001s-0.896 2.001-2.001 2.001v0-4.001zM0.586 17.418c-0.362-0.362-0.586-0.862-0.586-1.414s0.224-1.052 0.586-1.414l12.732-12.732c0.357-0.335 0.839-0.541 1.368-0.541 1.105 0 2.001 0.896 2.001 2.001 0 0.53-0.206 1.013-0.543 1.371l0.001-0.001-11.315 11.317 11.317 11.317c0.377 0.364 0.611 0.874 0.611 1.439 0 1.105-0.896 2.001-2.001 2.001-0.565 0-1.075-0.234-1.438-0.61l-0.001-0.001-12.732-12.732zM52.015 18.005h-50.014v-4.001h50.014v4.001z"></path>
</symbol>
<symbol id="right" viewBox="0 0 54 32">
<path fill="#ff6b09" style="fill: var(--color1, #ff6b09)" d="M2.001 14.003c-1.105 0-2.001 0.896-2.001 2.001s0.896 2.001 2.001 2.001v0-4.001zM53.429 17.418c0.362-0.362 0.586-0.862 0.586-1.414s-0.224-1.052-0.586-1.414l-12.732-12.732c-0.364-0.377-0.874-0.611-1.439-0.611-1.105 0-2.001 0.896-2.001 2.001 0 0.565 0.234 1.075 0.61 1.438l0.001 0.001 11.317 11.317-11.317 11.317c-0.347 0.359-0.562 0.85-0.562 1.39 0 1.105 0.896 2.001 2.001 2.001 0.54 0 1.030-0.214 1.39-0.562l-0.001 0.001 12.732-12.732zM2.001 18.005h50.014v-4.001h-50.014v4.001z"></path>
</symbol>
<symbol id="vk" viewBox="0 0 32 32">
<path fill="#436eab" style="fill: var(--color3, #436eab)" d="M27.541 18.46c1.060 1.037 2.181 2.012 3.133 3.152 0.421 0.508 0.819 1.030 1.123 1.619 0.432 0.836 0.042 1.757-0.709 1.807l-4.661-0.002c-1.202 0.099-2.161-0.384-2.969-1.206-0.645-0.658-1.243-1.358-1.863-2.037-0.246-0.281-0.521-0.527-0.824-0.736l-0.015-0.010c-0.637-0.413-1.189-0.287-1.553 0.377-0.37 0.676-0.454 1.423-0.491 2.176-0.050 1.098-0.382 1.387-1.485 1.436-2.356 0.112-4.593-0.245-6.67-1.434-1.833-1.049-3.253-2.528-4.489-4.203-2.407-3.262-4.251-6.845-5.907-10.529-0.373-0.831-0.1-1.276 0.815-1.292 1.521-0.030 3.042-0.028 4.564-0.002 0.619 0.009 1.027 0.363 1.266 0.947 0.822 2.023 1.829 3.948 3.093 5.732 0.336 0.475 0.679 0.949 1.168 1.284 0.541 0.37 0.953 0.247 1.206-0.354 0.162-0.382 0.233-0.794 0.269-1.202 0.121-1.408 0.137-2.812-0.075-4.213-0.13-0.876-0.623-1.442-1.495-1.609-0.446-0.084-0.38-0.25-0.164-0.505 0.374-0.437 0.727-0.711 1.429-0.711h5.269c0.829 0.164 1.013 0.537 1.127 1.371l0.004 5.853c-0.010 0.323 0.161 1.282 0.743 1.495 0.465 0.153 0.772-0.22 1.052-0.515 1.262-1.339 2.162-2.922 2.965-4.56 0.357-0.72 0.665-1.469 0.962-2.215 0.221-0.555 0.565-0.828 1.191-0.816l5.070 0.004c0.151 0 0.303 0.002 0.448 0.028 0.855 0.145 1.089 0.512 0.826 1.347-0.416 1.309-1.225 2.4-2.016 3.495-0.846 1.17-1.749 2.301-2.589 3.477-0.77 1.075-0.709 1.617 0.247 2.55z"></path>
</symbol>
<symbol id="phone" viewBox="0 0 33 32">
<path fill="#ff6b09" style="fill: var(--color1, #ff6b09)" d="M4.818 0.011c-0.572 0.026-1.080 0.279-1.439 0.672l-0.001 0.002-2.685 2.953c0.004-0.009-0.011-0.008-0.086 0.099-0.039 0.053-0.071 0.113-0.092 0.179l-0.001 0.005c-1.092 3.48-0.36 7.308 1.423 10.948 1.785 3.641 4.63 7.125 7.897 9.984 3.266 2.859 6.953 5.096 10.467 6.206 3.516 1.109 6.923 1.095 9.449-0.737 0.029-0.021 0.054-0.043 0.077-0.067l0-0c0.066-0.066 0.068-0.075 0.057-0.065l2.681-2.95c0.333-0.369 0.537-0.86 0.537-1.399 0-0.608-0.26-1.156-0.675-1.538l-6.337-5.765c-0.369-0.334-0.86-0.538-1.4-0.538-0.608 0-1.156 0.26-1.538 0.674l-2.868 3.154c-2.328-0.673-4.318-1.816-6.231-3.556-1.913-1.741-3.24-3.615-4.13-5.869l2.866-3.153c0.334-0.369 0.538-0.861 0.538-1.4 0-0.608-0.259-1.155-0.674-1.537l-6.339-5.766c-0.367-0.334-0.856-0.538-1.394-0.538-0.037 0-0.074 0.001-0.11 0.003l0.005-0zM4.877 1.304c0.009-0 0.019-0.001 0.030-0.001 0.205 0 0.392 0.080 0.53 0.21l-0-0 6.337 5.763c0.16 0.14 0.26 0.345 0.26 0.573 0 0.203-0.079 0.387-0.209 0.524l0-0-3.169 3.482c-0.104 0.115-0.168 0.268-0.168 0.436 0 0.081 0.015 0.158 0.041 0.229l-0.001-0.005c0.961 2.624 2.513 4.778 4.647 6.719 2.135 1.942 4.423 3.283 7.126 3.992 0.050 0.014 0.107 0.021 0.166 0.021 0.191 0 0.362-0.082 0.482-0.213l0-0.001 3.169-3.482c0.14-0.16 0.345-0.26 0.573-0.26 0.203 0 0.387 0.079 0.524 0.209l6.338 5.763c0.16 0.14 0.26 0.345 0.26 0.573 0 0.203-0.080 0.388-0.209 0.524l0-0-2.649 2.913c-2.072 1.486-4.992 1.57-8.262 0.537-3.283-1.036-6.846-3.182-9.999-5.942s-5.898-6.131-7.585-9.574c-1.67-3.407-2.275-6.852-1.357-9.888l2.589-2.845c0.133-0.15 0.323-0.247 0.535-0.259l0.002-0z"></path>
</symbol>
<symbol id="instagram" viewBox="0 0 32 32">
<path fill="#000" style="fill: var(--color4, #000)" d="M31.464 5.726c-0.3-2.731-2.447-4.878-5.152-5.176l-0.026-0.002c-3.084-0.349-6.659-0.548-10.28-0.548s-7.196 0.199-10.714 0.587l0.434-0.039c-2.731 0.3-4.878 2.447-5.176 5.152l-0.002 0.026c-0.349 3.084-0.548 6.659-0.548 10.28s0.199 7.196 0.587 10.714l-0.039-0.434c0.3 2.731 2.447 4.878 5.152 5.176l0.026 0.002c6.847 0.731 13.713 0.731 20.56 0 2.731-0.3 4.878-2.447 5.176-5.152l0.002-0.026c0.731-6.847 0.731-13.713 0-20.56z"></path>
<path fill="#000" style="fill: var(--color4, #000)" d="M29.724 6.883c-0.266-2.423-2.172-4.329-4.571-4.593l-0.023-0.002c-2.737-0.31-5.909-0.486-9.123-0.486s-6.386 0.177-9.508 0.521l0.385-0.034c-2.422 0.267-4.327 2.172-4.592 4.571l-0.002 0.023c-0.648 6.076-0.648 12.17 0 18.245 0.265 2.423 2.17 4.329 4.57 4.594l0.023 0.002c6.076 0.648 12.17 0.648 18.245 0 2.423-0.266 4.329-2.171 4.593-4.571l0.002-0.023c0.648-6.076 0.648-12.17 0-18.246z"></path>
<path fill="#000" style="fill: var(--color4, #000)" d="M0.48 25.623c0.022 0.222 0.044 0.443 0.068 0.664 0.3 2.731 2.447 4.878 5.152 5.176l0.026 0.002c6.847 0.73 13.714 0.73 20.56 0 2.731-0.3 4.878-2.447 5.176-5.152l0.002-0.026c0.024-0.222 0.046-0.443 0.069-0.664h-31.054z"></path>
<path fill="#000" style="fill: var(--color4, #000)" d="M31.464 26.286c0.392-3.679 0.574-7.363 0.544-11.047l-7.316-7.317c-0.915-1.044-2.25-1.695-3.82-1.752-1.445-0.054-3.141-0.085-4.845-0.085s-3.4 0.031-5.089 0.092l0.244-0.007c-2.68 0.093-4.554 1.894-5.035 4.542-0.085 0.468-0.136 0.941-0.202 1.413v7.762c0.037 0.251 0.091 0.502 0.108 0.755 0.107 1.61 0.769 2.99 1.829 3.923l7.446 7.446c3.655 0.026 7.309-0.156 10.959-0.546 2.731-0.3 4.878-2.447 5.176-5.152l0.002-0.026z"></path>
<path fill="#000" style="fill: var(--color4, #000)" d="M31.464 26.287c-0.3 2.731-2.447 4.878-5.152 5.176l-0.026 0.002c-3.649 0.389-7.304 0.571-10.957 0.545l-7.435-7.435c0.862 0.755 1.985 1.214 3.289 1.263 3.225 0.122 6.463 0.118 9.689 0.002 2.919-0.106 5.030-2.265 5.122-5.183 0.046-1.386 0.073-3.016 0.073-4.652s-0.026-3.266-0.079-4.889l0.006 0.237c-0.042-1.346-0.515-2.531-1.298-3.427l7.312 7.312c0.029 3.684-0.152 7.369-0.544 11.048z"></path>
<path fill="#000" style="fill: var(--color4, #000)" d="M19.784 12.54c-0.941-1.031-2.291-1.675-3.791-1.675-2.832 0-5.128 2.296-5.128 5.128 0 1.5 0.644 2.85 1.671 3.787l0.004 0.004 11.863 11.863c0.628-0.054 1.256-0.115 1.883-0.182 2.731-0.3 4.878-2.447 5.176-5.152l0.002-0.026c0.067-0.627 0.128-1.255 0.182-1.883l-11.863-11.862z"></path>
<path fill="#000" style="fill: var(--color4, #000)" d="M31.95 19.455l-9.548-9.548c-0.225-0.299-0.579-0.49-0.977-0.49-0.674 0-1.22 0.546-1.22 1.22 0 0.399 0.191 0.752 0.487 0.975l0.003 0.002 11.084 11.085c0.075-1.080 0.132-2.163 0.17-3.244z"></path>
<path fill="#000" style="fill: var(--color4, #000)" d="M5.946 12.124c0.066-0.471 0.118-0.944 0.202-1.412 0.48-2.648 2.355-4.45 5.035-4.542 1.445-0.054 3.141-0.085 4.845-0.085s3.4 0.031 5.089 0.092l-0.244-0.007c2.918 0.104 5.030 2.265 5.122 5.183 0.046 1.386 0.073 3.016 0.073 4.651s-0.026 3.265-0.079 4.888l0.006-0.237c-0.092 2.919-2.204 5.078-5.122 5.184-3.225 0.116-6.463 0.119-9.69-0.002-2.917-0.11-4.934-2.274-5.13-5.197-0.016-0.253-0.070-0.504-0.107-0.756v-7.761zM16.009 24.11c1.477 0 2.955 0.044 4.43-0.010 2.313-0.086 3.734-1.465 3.789-3.776 0.066-2.878 0.066-5.76 0-8.639-0.054-2.31-1.477-3.721-3.789-3.771-1.31-0.030-2.854-0.046-4.402-0.046s-3.092 0.017-4.631 0.050l0.23-0.004c-2.294 0.048-3.72 1.432-3.782 3.716-0.080 2.915-0.080 5.834 0 8.749 0.062 2.284 1.489 3.636 3.782 3.721 1.457 0.054 2.916 0.010 4.374 0.010z"></path>
<path fill="#fff" style="fill: var(--color2, #fff)" d="M5.946 12.124c0.066-0.471 0.118-0.944 0.202-1.412 0.48-2.648 2.355-4.45 5.035-4.542 1.445-0.054 3.141-0.085 4.845-0.085s3.4 0.031 5.089 0.092l-0.244-0.007c2.918 0.104 5.030 2.265 5.122 5.183 0.046 1.386 0.073 3.016 0.073 4.651s-0.026 3.265-0.079 4.888l0.006-0.237c-0.092 2.919-2.204 5.078-5.122 5.184-3.225 0.116-6.463 0.119-9.69-0.002-2.917-0.11-4.934-2.274-5.13-5.197-0.016-0.253-0.070-0.504-0.107-0.756v-7.761zM16.009 24.11c1.477 0 2.955 0.044 4.43-0.010 2.313-0.086 3.734-1.465 3.789-3.776 0.066-2.878 0.066-5.76 0-8.639-0.054-2.31-1.477-3.721-3.789-3.771-1.31-0.030-2.854-0.046-4.402-0.046s-3.092 0.017-4.631 0.050l0.23-0.004c-2.294 0.048-3.72 1.432-3.782 3.716-0.080 2.915-0.080 5.834 0 8.749 0.062 2.284 1.489 3.636 3.782 3.721 1.457 0.054 2.916 0.010 4.374 0.010z"></path>
<path fill="#fff" style="fill: var(--color2, #fff)" d="M16.006 10.879c-2.832 0-5.128 2.296-5.128 5.128s2.296 5.128 5.128 5.128v0c2.832 0 5.128-2.296 5.128-5.128s-2.296-5.128-5.128-5.128v0zM16.006 19.368c-1.857 0-3.362-1.505-3.362-3.362s1.505-3.362 3.362-3.362v0c1.857 0 3.362 1.505 3.362 3.362s-1.505 3.362-3.362 3.362v0zM22.653 10.645c0 0.674-0.546 1.22-1.22 1.22s-1.22-0.546-1.22-1.22v0c0-0.674 0.546-1.22 1.22-1.22s1.22 0.546 1.22 1.22v0z"></path>
</symbol>
</defs>
</svg>
