<svg aria-hidden="true" style="position: absolute; width: 0; height: 0; overflow: hidden;" version="1.1" xmlns="http://www.w3.org/2000/svg" xmlns:xlink="http://www.w3.org/1999/xlink">
<defs>
<symbol id="study-program" viewBox="0 0 32 32">
<path d="M30.817 4.961l-0.001-0.003c-0.007-0.017-0.015-0.032-0.025-0.046l0.001 0.001-0.003-0.003c-0.010-0.016-0.021-0.029-0.033-0.042l-4.807-4.806c-0.012-0.012-0.025-0.023-0.039-0.032l-0.001-0.001c-0.003-0.002-0.007-0.003-0.009-0.006-0.010-0.006-0.022-0.013-0.034-0.019l-0.002-0.001-0.011-0.004c-0.029-0.012-0.063-0.019-0.098-0.020h-21.177c-0.157 0-0.283 0.127-0.283 0.284 0 0 0 0 0 0v0 29.311c0 0.019 0.001 0.037 0.005 0.055l0.007 0.023 0.010 0.030c0.003 0.009 0.009 0.017 0.013 0.025 0.004 0.007 0.007 0.016 0.013 0.023 0.010 0.015 0.021 0.028 0.033 0.040l2.167 2.167c0.051 0.051 0.122 0.083 0.201 0.083s0.149-0.032 0.201-0.083v0l1.965-1.964 1.964 1.964c0.051 0.052 0.122 0.084 0.201 0.084s0.15-0.032 0.201-0.084l1.963-1.963 1.965 1.963c0.051 0.051 0.122 0.083 0.201 0.083s0.149-0.032 0.201-0.083v0l1.963-1.963 1.964 1.963c0.051 0.051 0.122 0.083 0.201 0.083s0.149-0.032 0.201-0.083v0l1.965-1.964 1.964 1.964c0.051 0.052 0.122 0.084 0.201 0.084s0.149-0.032 0.201-0.084l1.964-1.963 1.965 1.963c0.051 0.051 0.122 0.083 0.201 0.083s0.149-0.032 0.201-0.083v0l2.165-2.165 0.011-0.013c0.008-0.009 0.017-0.019 0.024-0.029 0.007-0.009 0.011-0.020 0.016-0.030 0.004-0.007 0.007-0.012 0.009-0.019 0.007-0.013 0.009-0.027 0.013-0.040l0.005-0.013c0.003-0.017 0.005-0.036 0.005-0.056 0-0 0-0.001 0-0.001v0-24.503c-0.001-0.039-0.009-0.077-0.023-0.111l0.001 0.002zM26.033 0.949l3.836 3.835h-3.836v-3.835zM30.271 29.456l-1.88 1.88-1.965-1.964c-0.051-0.051-0.122-0.083-0.201-0.083s-0.149 0.032-0.201 0.083v0l-1.963 1.964-1.964-1.964c-0.051-0.051-0.122-0.083-0.201-0.083s-0.149 0.032-0.201 0.083v0l-1.965 1.964-1.963-1.964c-0.051-0.052-0.122-0.084-0.201-0.084s-0.15 0.032-0.201 0.084v0l-1.963 1.964-1.965-1.964c-0.052-0.051-0.123-0.083-0.201-0.083s-0.149 0.032-0.201 0.083v0l-1.963 1.964-1.964-1.964c-0.052-0.051-0.123-0.083-0.201-0.083s-0.149 0.032-0.201 0.083v0l-1.964 1.964-1.88-1.88v-28.909h20.603v4.522c0 0.157 0.127 0.284 0.284 0.284h4.521v24.103z"></path>
<path d="M6.98 3.234h9.303c0.157 0 0.284-0.127 0.284-0.284s-0.127-0.284-0.284-0.284h-9.303c-0.157 0-0.284 0.127-0.284 0.284s0.127 0.284 0.284 0.284v0zM6.98 4.991h14.92c0.157 0 0.284-0.127 0.284-0.284s-0.127-0.284-0.284-0.284h-14.92c-0.157 0-0.284 0.127-0.284 0.284s0.127 0.284 0.284 0.284v0zM6.696 6.568v9.199c0 0.157 0.127 0.284 0.285 0.284h21.172c0.157 0 0.284-0.127 0.284-0.284v0-9.199c0-0.157-0.127-0.284-0.284-0.284v0h-21.173c-0 0-0 0-0.001 0-0.157 0-0.284 0.127-0.284 0.284 0 0 0 0 0 0v0zM12.975 6.852h14.893v2.445h-14.893v-2.445zM12.975 9.865h14.893v2.444h-14.893v-2.444zM12.975 12.877h14.893v2.605h-14.893v-2.605zM7.265 6.852h5.142v2.445h-5.142v-2.445zM7.265 9.865h5.142v2.444h-5.142v-2.444zM7.265 12.877h5.142v2.605h-5.142v-2.605zM28.153 17.329h-21.173c-0 0-0 0-0.001 0-0.157 0-0.284 0.127-0.284 0.284 0 0 0 0 0 0v0 9.198c0 0.157 0.127 0.284 0.284 0.284s0.284-0.127 0.284-0.284v-2.889h5.143v2.889c0 0.157 0.127 0.284 0.284 0.284s0.284-0.127 0.284-0.284v0-2.889h14.893v2.889c0 0.157 0.127 0.284 0.284 0.284s0.284-0.127 0.284-0.284v0-9.198c0-0 0-0.001 0-0.001 0-0.156-0.127-0.283-0.283-0.283-0 0-0 0-0.001 0h0zM12.407 23.353h-5.142v-2.443h5.142v2.443zM12.407 20.341h-5.142v-2.444h5.142v2.444zM27.868 23.353h-14.893v-2.443h14.893v2.443zM27.868 20.341h-14.893v-2.444h14.893v2.444zM2.947-0.021c-0.157 0-0.284 0.127-0.284 0.284v29.311c0 0.157 0.127 0.284 0.284 0.284s0.284-0.127 0.284-0.284v0-29.311c0-0.157-0.127-0.284-0.284-0.284v0zM1.385-0.021c-0.157 0-0.284 0.127-0.284 0.284v29.311c0 0.157 0.127 0.284 0.284 0.284s0.284-0.127 0.284-0.284v0-29.311c0-0.157-0.127-0.284-0.284-0.284v0z"></path>
</symbol>
<symbol id="psy-support" viewBox="0 0 32 32">
<path d="M1.953 12.628v2.774c0 0.149 0.068 0.289 0.185 0.382 1.826 1.441 4.16 2.312 6.697 2.314h0c0.726 0 1.452-0.076 2.162-0.219 1.404 0.639 3.045 1.011 4.773 1.011 0.006 0 0.012 0 0.018 0h-0.001c1.672 0 3.283-0.342 4.79-1.011 3.028 0.612 6.254-0.045 8.858-2.094 0.113-0.090 0.185-0.228 0.185-0.382v0-2.774c0-0.407-0.202-0.778-0.563-1.006l-3.788-2.132c0.829-1.051 1.446-2.549 1.554-3.833 0.314-2.21-1.488-4.551-4.081-4.551-1.091 0-2.127 0.449-2.887 1.202-0.026 0.026-0.057 0.048-0.082 0.075-0.023 0.025-0.042 0.053-0.065 0.078-0.015 0.016-0.028 0.035-0.043 0.052-0.741-1.353-2.166-2.187-3.845-2.187-0.163 0-0.323 0.011-0.481 0.027-0.010-0.001-0.018-0.006-0.028-0.006-0.090 0-0.281 0.024-0.383 0.054-0.015 0.004-0.026 0.015-0.040 0.020-1.269 0.257-2.32 1.033-2.941 2.091l-0.011 0.021c-0.755-0.876-1.865-1.427-3.104-1.427-0.003 0-0.007 0-0.010 0h0.001c-3.828 0-5.527 4.518-2.505 8.406l-3.823 2.122c-0.34 0.215-0.542 0.586-0.542 0.993zM20.568 16.811c-0.082 0.040-0.163 0.083-0.246 0.121l-0.002 0.001c-1.321 0.622-2.869 0.985-4.503 0.985-0.011 0-0.021 0-0.032-0h0.002c-0.007 0-0.016 0-0.024 0-2.458 0-4.725-0.82-6.541-2.202l0.027 0.019v-2.811c0-0.095 0.046-0.18 0.1-0.216l4.449-2.473c0.554 0.47 1.26 0.815 1.994 0.815 0.705 0 1.468-0.35 2.010-0.826l4.395 2.469c0.082 0.052 0.128 0.136 0.128 0.232v2.811c-0.51 0.387-1.085 0.745-1.694 1.047l-0.063 0.028zM28.559 12.455c0.055 0.036 0.090 0.097 0.090 0.166 0 0.002-0 0.005-0 0.007v-0 2.535c-1.928 1.447-4.248 2.104-6.599 1.94 0.41-0.259 0.756-0.505 1.088-0.766l-0.028 0.021c0.114-0.090 0.186-0.227 0.186-0.382v-3.051c0-0.426-0.214-0.818-0.598-1.065l-2.335-1.312 0.568-0.315c0.688 0.562 1.28 0.729 1.81 0.729 0.649 0 1.332-0.318 1.84-0.743l3.977 2.237zM22.742 2.078c1.352 0 2.54 0.884 2.96 2.098-0.87-0.113-1.63-0.52-2.189-1.117l-0.002-0.002c-0.089-0.095-0.215-0.155-0.355-0.155-0.176 0-0.331 0.094-0.416 0.235l-0.001 0.002c-0.535 0.897-1.426 1.535-2.473 1.721l-0.022 0.003-0.001-0.003c0-0.024 0.001-0.053 0.001-0.081 0-0.197-0.012-0.391-0.035-0.582l0.002 0.023-0.007-0.065c-0.033-0.235-0.075-0.436-0.127-0.634l0.009 0.038c0.551-0.884 1.576-1.482 2.658-1.482zM20.137 5.855c1.265-0.14 2.358-0.78 3.093-1.716l0.007-0.010c0.751 0.616 1.704 0.989 2.646 1.034-0.007 1.755-1.441 4.826-3.141 4.826-1.309 0-2.428-1.873-2.846-3.172 0.106-0.334 0.183-0.655 0.24-0.963zM20.235 9.508l-0.868 0.481-0.876-0.492c0.325-0.405 0.623-0.874 0.878-1.385 0.245 0.516 0.539 0.989 0.866 1.396zM18.926 6.659c-0.468 1.398-1.67 3.419-3.135 3.419-1.706 0-3.159-2.806-3.436-4.6 0.074-0.018 2.38 0.124 3.967-1.96 0.806 0.674 1.893 1.12 2.949 1.164 0.013 0.633-0.141 1.378-0.345 1.977zM15.82 1.298c2.723 0 3.242 2.345 3.284 2.393-0.996-0.111-1.869-0.569-2.509-1.248l-0.002-0.002c-0.089-0.095-0.215-0.154-0.355-0.154-0.177 0-0.332 0.095-0.417 0.237l-0.001 0.002c-0.522 0.883-1.351 1.537-2.336 1.822l-0.028 0.007c-0.335 0.095-0.719 0.15-1.116 0.15-0.009 0-0.019-0-0.028-0h0.001c0.133-1.784 1.563-3.207 3.507-3.207zM12.207 8.103c0.252 0.504 0.551 0.986 0.894 1.409l-0.857 0.477-0.888-0.5c0.314-0.403 0.598-0.858 0.832-1.341l0.020-0.045zM8.822 2.078c1.102 0 2.111 0.559 2.674 1.483-0.028 0.098-0.104 0.488-0.114 0.537-0.709-0.175-1.315-0.54-1.782-1.039l-0.002-0.002c-0.089-0.095-0.215-0.154-0.355-0.154-0.177 0-0.332 0.095-0.417 0.237l-0.001 0.002c-0.643 1.068-1.795 1.773-3.112 1.778h-0.001c0.155-1.593 1.487-2.841 3.109-2.841zM5.756 5.888c1.445-0.018 2.727-0.698 3.56-1.749l0.007-0.010c0.558 0.459 1.239 0.789 1.985 0.936l0.029 0.005c0.028 0.563 0.175 1.247 0.343 1.752-0.268 0.823-0.783 1.802-1.421 2.454-0.004 0.004-0.009 0.006-0.013 0.010-0.4 0.421-0.968 0.704-1.415 0.704-1.561 0-2.783-2.457-3.076-4.103zM2.924 12.628c0-0.074 0.033-0.136 0.066-0.159l4.032-2.237c0.242 0.202 0.298 0.225 0.346 0.26 0.475 0.316 0.91 0.473 1.503 0.473 0.632 0 1.207-0.268 1.714-0.68 0.028-0.022 0.059-0.044 0.086-0.067l0.575 0.323-2.397 1.333c-0.346 0.225-0.572 0.61-0.572 1.047 0 0.001 0 0.002 0 0.003v-0 3.051c0 0.149 0.069 0.289 0.186 0.381 0.31 0.244 0.713 0.528 1.061 0.746-2.384 0.163-4.705-0.517-6.6-1.94v-2.535z"></path>
<path d="M30.621 20.683c-0.306-0.196-0.679-0.313-1.079-0.313-0.323 0-0.628 0.076-0.898 0.21l0.012-0.005-5.995 2.896c-0.022-1.124-0.937-2.027-2.063-2.029l-3.438 0.001c-1.695-1.473-3.861-2.376-5.831-2.423-1.942-0.046-3.685-0.059-4.498-0.063v-0.982h-6.83v11.282h6.83v-1.351c1.872 1.076 6.797 3.767 9.134 3.767 0.052 0 0.105-0.001 0.154-0.005 4.11-0.231 13.803-7.051 14.442-7.504 0.61-0.359 1.012-1.012 1.013-1.759v-0c0-0.002 0-0.004 0-0.006 0-0.721-0.377-1.354-0.945-1.712l-0.008-0.005zM5.858 28.287h-4.886v-9.339h4.886v9.339zM30.060 23.332c-0.017 0.009-0.030 0.018-0.044 0.028l0.001-0.001c-0.101 0.072-10.071 7.123-13.954 7.34-0.035 0.002-0.076 0.003-0.117 0.003h-0c-2.051 0-7.048-2.697-9.117-3.919v-6.854c0.81 0.003 2.543 0.016 4.475 0.062 1.799 0.044 3.797 0.903 5.344 2.298l0.138 0.125 3.809-0.001c0.605 0.001 1.095 0.491 1.096 1.096v0c-0 0.605-0.491 1.096-1.096 1.096h-6.996v0.971h6.996c0.671 0 1.262-0.326 1.639-0.822l6.841-3.305c0.135-0.069 0.295-0.11 0.465-0.11 0.209 0 0.404 0.062 0.567 0.168l-0.004-0.002c0.316 0.198 0.498 0.526 0.498 0.899-0.001 0.395-0.217 0.74-0.537 0.923l-0.005 0.003zM16.272 12.237h-0.971v0.901h0.971v-0.901zM16.272 14.033h-0.971v0.901h0.971v-0.901zM16.272 15.83h-0.971v0.901h0.971v-0.901z"></path>
</symbol>
<symbol id="open-book" viewBox="0 0 32 32">
<path d="M14.099 8.075h-9.489v0.71h9.489v-0.71zM14.099 10.724h-8.068v0.71h8.068v-0.71zM14.099 13.373h-9.489v0.71h9.489v-0.71zM14.099 16.022h-8.068v0.71h8.068v-0.71zM14.099 18.671h-9.489v0.71h9.489v-0.71zM14.099 21.32h-8.068v0.71h8.068v-0.71zM27.123 8.075h-9.489v0.71h9.489v-0.71zM25.703 10.724h-8.067v0.71h8.067v-0.71zM27.123 13.373h-9.489v0.71h9.489v-0.71zM25.703 16.022h-8.067v0.71h8.067v-0.71zM27.123 18.671h-9.489v0.71h9.489v-0.71zM25.703 21.32h-8.067v0.71h8.067v-0.71z"></path>
<path d="M30.549 7.266h-1.302v-1.956c0-0.196-0.159-0.355-0.355-0.355v0h-10.619c-0.004-0-0.008-0-0.012-0-1.022 0-1.913 0.558-2.386 1.385l-0.007 0.013c-0.481-0.841-1.372-1.399-2.394-1.399-0.004 0-0.008 0-0.012 0h-10.619c-0.196 0-0.355 0.159-0.355 0.355v0 1.956h-1.303c-0.196 0-0.355 0.159-0.355 0.355v0 19.068c0 0.196 0.159 0.355 0.355 0.355h29.366c0.196-0 0.355-0.159 0.355-0.355 0 0 0 0 0 0v0-19.068c0-0.196-0.159-0.355-0.355-0.355v0zM18.273 5.665h10.263v19.026h-11.021c-0.489 0-0.977 0.206-1.293 0.473v-17.453c0-0.002 0-0.004 0-0.007 0-1.126 0.913-2.040 2.040-2.040 0.004 0 0.007 0 0.011 0h-0.001zM3.197 5.665h10.263c0.004-0 0.009-0 0.014-0 1.1 0 1.996 0.873 2.032 1.964l0 0.003c0 0.015 0.002 0.064 0.005 0.078v17.452c-0.315-0.266-0.799-0.472-1.288-0.472h-11.026v-19.026zM1.539 7.977h0.947v17.070c0 0.196 0.159 0.355 0.355 0.355h11.381c0.542 0 1.065 0.355 1.233 0.933h-13.916v-18.358zM30.194 26.335h-13.916c0.158-0.543 0.651-0.933 1.235-0.933 0.001 0 0.001 0 0.002 0h11.376c0 0 0 0 0 0 0.196 0 0.355-0.159 0.355-0.355v0-17.070h0.947v18.358z"></path>
</symbol>
<symbol id="mobile-learning" viewBox="0 0 32 32">
<path d="M29.547 0.208h-15.418c-1.005 0.001-1.819 0.815-1.82 1.82v6.383l-11.455 4.807c-0.136 0.058-0.23 0.19-0.23 0.344 0 0.136 0.072 0.254 0.181 0.32l0.002 0.001 1.461 0.874v9.317c-0.754 0.177-1.306 0.843-1.307 1.639v0.898c0 0.207 0.167 0.373 0.373 0.373h2.615c0.206 0 0.373-0.167 0.373-0.373v0-0.898c0-0.799-0.561-1.467-1.309-1.638v-8.871l1.155 0.691c-0.036 0.267-0.005-0.464-0.017 4.337 0 1.579 4.043 2.424 8.157 2.473v7.271c0 1.004 0.814 1.817 1.818 1.817 0 0 0.001 0 0.001 0h15.417c1.004-0.001 1.818-0.815 1.819-1.819v-0c0 0.050-0.002-1.54 0-27.945 0-0.991-0.819-1.821-1.817-1.821zM3.575 25.711v0.525h-1.869v-0.525c0-0.517 0.418-0.937 0.933-0.937 0.517 0 0.937 0.421 0.937 0.937zM29.547 31.044h-15.418c-0.37 0-0.697-0.187-0.89-0.471-0.115-0.168-0.183-0.375-0.183-0.598 0-0.001 0-0.001 0-0.002v0-2.52h17.561v2.521c0 0.584-0.487 1.069-1.069 1.069zM30.616 26.707h-17.561v-4.001c2.008-0.023 8.161-0.465 8.161-2.475-0.003-3.016 0.005-4.24-0.009-4.343l3.349-2.007c0.109-0.067 0.18-0.185 0.18-0.32 0-0.154-0.093-0.286-0.225-0.343l-0.002-0.001-11.454-4.808v-3.115h17.561v21.413zM12.681 17.755c-2.069 0-6.053 0.267-7.783 1.397 0.011-3.457-0.12-3.231 0.305-3.525 1.075-0.791 4.151-1.344 7.478-1.344 1.451 0 7.789 0.399 7.789 1.74v3.129c-1.747-1.141-5.711-1.398-7.789-1.398zM13.055 2.028c0.001-0.592 0.481-1.072 1.073-1.072 0 0 0 0 0 0h15.417c0.592 0 1.071 0.488 1.071 1.072v2.521h-17.561v-2.52zM12.681 9.063l10.859 4.558-2.691 1.61c-1.431-1.419-6.163-1.693-8.169-1.693-2.009 0-6.741 0.275-8.168 1.693l-2.691-1.61 10.86-4.558zM4.898 20.231c0-0.603 2.673-1.731 7.783-1.731 5.113 0 7.789 1.127 7.789 1.731s-2.675 1.731-7.789 1.731c-5.11 0-7.783-1.127-7.783-1.731z"></path>
<path d="M21.837 28.015c-0.68 0-1.233 0.553-1.233 1.234s0.553 1.234 1.233 1.234 1.233-0.553 1.233-1.234c0-0.68-0.553-1.233-1.233-1.233zM21.837 29.737c-0.259-0.014-0.463-0.227-0.463-0.488s0.204-0.474 0.462-0.488l0.001-0c0.27 0 0.488 0.218 0.488 0.488s-0.218 0.488-0.488 0.488v0zM23.26 2.379h-2.847v0.746h2.847v-0.746z"></path>
</symbol>
<symbol id="female-student" viewBox="0 0 32 32">
<path d="M2.564 31.759h26.785c0.133-3.055-0.087-8.123-1.964-10.535l-0.068-0.087-4.104-2.060c0.089-0.301 0.133-0.576 0.151-0.779 0.004-0.041 0.007-0.089 0.007-0.137 0-0.195-0.039-0.381-0.11-0.55l0.003 0.009c-0.677-1.62-2.109-2.472-2.897-2.835 0.24-0.484 0.395-1.003 0.469-1.534 0.456-0.131 0.805-0.489 0.921-0.942l0.002-0.009 0.479-1.947c0.025-0.096 0.039-0.206 0.039-0.319 0-0.252-0.071-0.488-0.194-0.688l0.003 0.006c-0.080-0.13-0.178-0.24-0.291-0.332l-0.002-0.002c1.35-3.068-0.912-5.96-1.035-6.113-2.449-2.648-5.544-2.153-5.708-2.123-4.466 0.935-6.189 4.358-5.216 8.372-0.211 0.233-0.34 0.543-0.34 0.884 0 0.112 0.014 0.221 0.040 0.325l-0.002-0.009 0.481 1.949c0.117 0.468 0.473 0.82 0.915 0.947 0.142 0.989 0.554 1.863 1.158 2.567l-0.006-0.007v1.543c-6.409 3.282-2.348 1.188-7.485 3.787-0.010 0.048-2.409 2.599-2.053 10.158l0.022 0.462zM28.418 30.789h-4.408v-1.852l2.915-6.675c1.461 2.425 1.515 7.053 1.493 8.527zM22.401 18.216c-0.17 1.955-1.241 1.364-1.903 2.869-0.52-0.572-0.677-1.258-0.537-1.993 0.253-1.349-0.571-1.749-0.367-3.166l0.031-0.032v-0.005c0.017-0.020 0.18-0.213 0.227-0.274 1.744 0.76 2.584 2.174 2.55 2.6zM13.045 16.681c0.793 0.559 1.778 0.894 2.842 0.894 1.017 0 1.963-0.306 2.75-0.831l-0.018 0.011c0.112 1.113 0.547 1.337 0.393 2.157-0.025 0.128-0.045 0.282-0.054 0.439l-0 0.010-3.002 3.383-3.838-4.327 0.927-0.483v-1.254zM11.839 12.539v-5.172c0.467-0.864 1.104-1.491 1.895-1.867 2.12 1.2 4.56 2.99 6.197 4.792-0.002 2.294 0.007 2.3-0.009 2.489l-0.001 0.012c-0.128 2.084-1.841 3.811-4.038 3.811-2.135 0-3.909-1.677-4.037-3.831-0.005-0.063-0.008-0.136-0.008-0.21 0-0.008 0-0.016 0-0.024v0.001zM11.241 18.886l4.716 5.317 3.167-3.569c0.072 0.209 0.173 0.405 0.289 0.596l-3.456 4.322-5.153-6.446 0.437-0.22zM20.897 11.759v-1.498l0.36-0.413c0.020 0.759 0.102-0.136-0.36 1.911zM15.228 1.733c0.192 0.012 2.765-0.391 4.799 1.805 0.080 0.1 1.736 2.233 1.071 4.567-0.228-1.039-0.625-2.369-1.252-3.004l-0.685 0.683c0.619 0.627 1.027 2.537 1.181 3.527-2.84-2.972-6.504-4.853-6.555-4.885-0.183 0.114-1.734 0.409-2.86 2.598l-0.053 0.104v1.608l-0.143 0.001c-0.715-3.455 0.655-6.199 4.497-7.004zM10.629 9.735l0.243 0.987v1.038l-0.405-1.64c-0.060-0.244 0.121-0.337 0.161-0.385zM9.919 19.549l6.037 7.551 4.085-5.109c0.445 0.398 0.658 0.454 1.6 0.939l-0.317-1.078c-0.081-0.273 0.239-0.713 0.431-0.914 0.433-0.238 0.789-0.568 1.050-0.966l0.007-0.011 3.333 1.673-3.102 7.1v2.055h-14.175v-2.055l-3.103-7.099 4.153-2.085zM4.987 22.265l2.916 6.673v1.851h-4.408c-0.022-1.473 0.033-6.1 1.492-8.525z"></path>
</symbol>
<symbol id="audio-book" viewBox="0 0 32 32">
<path d="M2.522 27.133h10.121c0.511 1.044 1.566 1.751 2.786 1.751 0.004 0 0.008 0 0.012-0h0.639c0.003 0 0.008 0 0.012 0 1.22 0 2.274-0.706 2.777-1.732l0.008-0.018h10.127c1.044-0.001 1.891-0.847 1.892-1.892v-18.128c-0.001-1.044-0.848-1.89-1.892-1.891h-1.021v-0.845c-0.001-0.696-0.565-1.26-1.261-1.261h-21.923c-0.696 0.001-1.26 0.565-1.261 1.261v0.845h-1.015c-1.044 0.001-1.891 0.847-1.892 1.891v18.128c0.001 1.045 0.848 1.891 1.892 1.892h0zM26.721 23.242h-10.326v-14.652c2.387 0.312 4.238 2.354 4.238 4.825v0.568l-0.15-0.033c-0.041-0.009-0.088-0.015-0.136-0.015-0.3 0-0.551 0.21-0.615 0.491l-0.001 0.004-1.004 4.568c-0.009 0.041-0.015 0.087-0.015 0.135 0 0.3 0.21 0.551 0.49 0.615l0.004 0.001 2.169 0.478c0.113 0.024 0.226 0.036 0.34 0.036 0.762 0 1.412-0.522 1.578-1.271l0.581-2.642c0.024-0.104 0.037-0.223 0.037-0.345 0-0.769-0.536-1.412-1.255-1.576l-0.011-0.002-0.755-0.166v-0.846c0-3.167-2.414-5.782-5.499-6.1v-2.939h10.328l-0.001 18.866zM20.828 15.319l1.549 0.341c0.193 0.043 0.312 0.227 0.269 0.42l-0.581 2.641c-0.042 0.191-0.253 0.31-0.42 0.274l-1.55-0.342 0.733-3.335zM4.799 4.377h10.334v2.938c-3.087 0.316-5.505 2.931-5.505 6.101v0.846l-0.756 0.167c-0.428 0.095-0.784 0.351-1.008 0.7l-0.004 0.006c-0.159 0.244-0.254 0.543-0.254 0.865 0 0.124 0.014 0.245 0.041 0.362l-0.002-0.011 0.579 2.639c0.165 0.734 0.811 1.274 1.583 1.274 0.121 0 0.239-0.013 0.352-0.038l-0.011 0.002 2.16-0.477c0.285-0.065 0.495-0.316 0.495-0.616 0-0.048-0.005-0.094-0.015-0.139l0.001 0.004-1.004-4.568c-0.064-0.285-0.315-0.495-0.615-0.495-0.048 0-0.095 0.005-0.141 0.016l0.004-0.001-0.144 0.031v-0.567c0-2.473 1.854-4.517 4.244-4.826v14.654h-10.335v-18.867zM10.689 15.319l0.734 3.335-1.542 0.34c-0.022 0.005-0.048 0.008-0.075 0.008-0.17 0-0.312-0.118-0.349-0.276l-0-0.002-0.581-2.645c-0.006-0.023-0.009-0.050-0.009-0.078 0-0.069 0.020-0.134 0.055-0.188l-0.001 0.001c0.050-0.078 0.128-0.133 0.219-0.154l0.002-0 1.545-0.341zM1.892 7.113c0-0.348 0.282-0.631 0.63-0.631h1.015v16.76c0.001 0.697 0.565 1.261 1.262 1.261h21.923c0.696-0.001 1.26-0.565 1.261-1.261v-16.76h1.021c0.348 0 0.631 0.283 0.631 0.631v18.128c0 0.348-0.282 0.631-0.631 0.631h-10.555c-0.277 0-0.522 0.181-0.603 0.446-0.236 0.762-0.934 1.305-1.759 1.305-0.003 0-0.005 0-0.008 0h-0.638c-0.001 0-0.002 0-0.003 0-0.829 0-1.53-0.547-1.763-1.3l-0.003-0.013c-0.084-0.256-0.321-0.438-0.6-0.438h-10.549c-0.348 0-0.631-0.283-0.631-0.631v-18.128z"></path>
</symbol>
<symbol id="fire" viewBox="0 0 32 32">
<path d="M26.176 16.593c-0.285-0.636-0.675-1.261-1.248-1.984-1.442-1.813-1.882-5.856-1.887-5.895-0.022-0.194-0.155-0.353-0.334-0.411l-0.003-0.001c-0.045-0.015-0.096-0.023-0.15-0.023-0.146 0-0.277 0.063-0.368 0.164l-0 0c-1.721 1.924-0.997 4.896-0.606 6.084 0.107 0.325 0.224 0.708 0.308 1.097 0.635 3.136-0.592 4.557-0.88 4.843-0.279 0.078-0.469 0.039-0.645-0.149-0.607-0.665-0.807-2.842-0.523-5.678 0.023-0.194 0.036-0.419 0.036-0.647 0-0.33-0.027-0.653-0.080-0.968l0.005 0.034c-0.598-3.486-2.791-5.723-3.349-6.507-1.536-2.269-1.692-6.046-1.696-6.080-0.011-0.261-0.225-0.468-0.488-0.468-0.102 0-0.198 0.032-0.276 0.086l0.002-0.001c-2.562 1.742-2.342 5.936-1.985 8.277 0.083 0.544 0.244 1.095 0.523 1.794 0.992 2.496-0.195 5.722-0.205 5.749-0.011 0.030-0.020 0.053-0.025 0.083-0.151 0.796-0.405 1.27-0.69 1.27-0.033-0.001-0.065-0.006-0.095-0.016l0.002 0.001c-0.347-0.073-0.528-0.441-0.533-0.761-0.019-4.135-4.17-5.527-4.213-5.542s-0.096-0.023-0.149-0.023c-0.147 0-0.279 0.066-0.369 0.169l-0.001 0.001c-0.075 0.084-0.12 0.195-0.12 0.317 0 0.079 0.019 0.154 0.053 0.219l-0.001-0.003c0.049 0.101 0.205 0.547 0.098 2.123-0.102 1.521-0.376 2.939-0.803 4.288l0.035-0.128c-0.988 3.221-0.832 6.271-0.821 6.416 0.759 8.258 12.635 9.705 19.682 5.053 0.773-0.51 1.404-1.091 1.868-1.731 2.602-3.588 1.071-8.461-0.068-11.051zM8.11 24.48c0 0.008 0.001 0.016 0.001 0.025 0 0.259-0.203 0.471-0.459 0.484l-0.001 0h-0.030c-0.001 0-0.002 0-0.003 0-0.258 0-0.469-0.201-0.485-0.454l-0-0.001c-0.044-0.707-0.034-1.45 0.019-2.254 0.022-0.254 0.234-0.452 0.492-0.452 0.011 0 0.021 0 0.032 0.001l-0.001-0c0.256 0.017 0.456 0.229 0.456 0.487 0 0.011-0 0.022-0.001 0.032l0-0.001c-0.053 0.766-0.064 1.465-0.019 2.133zM8.349 20.185c-0.030 0.242-0.234 0.427-0.482 0.427-0 0-0.001 0-0.002 0h0c-0.020 0-0.039 0-0.064-0.005-0.243-0.032-0.428-0.237-0.428-0.486 0-0.018 0.001-0.036 0.003-0.054l-0 0.002 0.235-1.872c0.035-0.241 0.241-0.425 0.489-0.425 0.021 0 0.041 0.001 0.062 0.004l-0.002-0c0.269 0.034 0.459 0.276 0.425 0.543l-0.235 1.867zM22.867 6.634c-0.236-0.036-0.414-0.237-0.414-0.48 0-0.026 0.002-0.051 0.006-0.075l-0 0.003c0.032-0.197 0.208-1.205 0.687-1.713 0.090-0.095 0.216-0.153 0.356-0.153 0.13 0 0.247 0.050 0.335 0.132l-0-0c0.197 0.182 0.207 0.49 0.021 0.685-0.203 0.214-0.374 0.829-0.433 1.197-0.039 0.234-0.24 0.411-0.482 0.411-0.027 0-0.053-0.002-0.078-0.006l0.003 0zM5.045 9.049c-0.095-0.361-0.327-0.956-0.551-1.15-0.102-0.089-0.166-0.219-0.166-0.364 0-0.123 0.046-0.235 0.122-0.32l-0 0c0.090-0.102 0.222-0.166 0.368-0.166 0.124 0 0.237 0.046 0.323 0.121l-0.001-0c0.527 0.459 0.802 1.444 0.851 1.637 0.010 0.036 0.015 0.077 0.015 0.12 0 0.226-0.155 0.416-0.364 0.469l-0.003 0.001c-0.036 0.010-0.078 0.015-0.121 0.015-0.226 0-0.416-0.153-0.473-0.361l-0.001-0.003z"></path>
</symbol>
<symbol id="line-litle" viewBox="0 0 32 32">
<path d="M0.762 14.324h30.476v2.956h-30.476v-2.956z"></path>
</symbol>
<symbol id="square-girl" viewBox="0 0 31 32">
<path fill="#ff6b09" style="fill: var(--color1, #ff6b09)" d="M7.046 26.006c2.185 0 14.824 0 17.006 0 0.084-1.939-0.055-5.157-1.247-6.689l-0.043-0.055-2.606-1.308c0.057-0.191 0.084-0.366 0.096-0.494 0.013-0.154-0.008-0.299-0.064-0.43-0.43-1.029-1.339-1.57-1.84-1.8 0.152-0.307 0.251-0.637 0.298-0.974 0.283-0.080 0.511-0.304 0.586-0.604l0.304-1.236c0.054-0.218 0.020-0.444-0.096-0.636-0.050-0.083-0.114-0.153-0.187-0.212 0.857-1.948-0.579-3.784-0.657-3.881-1.555-1.682-3.52-1.367-3.624-1.349-2.836 0.594-3.93 2.767-3.312 5.316-0.183 0.203-0.26 0.485-0.192 0.762l0.306 1.237c0.074 0.297 0.3 0.521 0.581 0.602 0.087 0.617 0.348 1.175 0.732 1.625v0.979c-4.069 2.084-1.491 0.754-4.752 2.404-0.006 0.031-1.53 1.65-1.304 6.45l0.014 0.293zM23.461 25.39h-2.799v-1.176l1.851-4.238c0.927 1.539 0.962 4.478 0.948 5.413zM19.641 17.407c-0.108 1.241-0.788 0.866-1.208 1.822-0.33-0.363-0.43-0.799-0.341-1.265 0.16-0.856-0.362-1.11-0.233-2.010l0.020-0.021v-0.003c0.011-0.012 0.114-0.135 0.144-0.174 1.107 0.483 1.64 1.381 1.619 1.651zM13.701 16.432c0.514 0.357 1.135 0.567 1.802 0.567 0.629 0 1.226-0.183 1.738-0.52 0.071 0.707 0.347 0.849 0.249 1.369-0.018 0.097-0.028 0.192-0.034 0.285l-1.906 2.148-2.437-2.747 0.588-0.307v-0.796zM12.934 13.803v-1.191c0-0.439 0-2.179 0-2.093 0.297-0.549 0.701-0.947 1.204-1.185 1.346 0.762 2.896 1.898 3.935 3.042-0.001 1.457 0.004 1.461-0.006 1.58l-0.001 0.008c-0.081 1.323-1.169 2.419-2.564 2.419-1.356 0-2.482-1.065-2.563-2.433-0.004-0.049-0.005-0.098-0.005-0.148zM12.555 17.833l2.994 3.376 2.010-2.266c0.046 0.132 0.11 0.257 0.184 0.378l-2.194 2.744-3.272-4.093 0.278-0.14zM18.686 13.307v-0.951c0.027-0.031 0.256-0.293 0.229-0.262 0.013 0.482 0.065-0.087-0.229 1.213zM15.087 6.942c0.122 0.008 1.756-0.249 3.047 1.146 0.051 0.064 1.102 1.418 0.68 2.9-0.145-0.659-0.396-1.504-0.795-1.907l-0.435 0.434c0.393 0.398 0.651 1.611 0.75 2.24-1.803-1.887-4.13-3.082-4.162-3.102-0.117 0.073-1.101 0.26-1.816 1.649l-0.034 0.066v1.021c-0.031 0-0.121 0.001-0.090 0.001-0.454-2.193 0.416-3.936 2.856-4.447zM12.167 12.023l0.155 0.627v0.659l-0.257-1.041c-0.038-0.155 0.077-0.214 0.102-0.245zM11.716 18.254l3.833 4.794 2.594-3.244c0.282 0.253 0.418 0.288 1.016 0.596l-0.202-0.684c-0.051-0.174 0.151-0.452 0.274-0.58 0.273-0.148 0.501-0.36 0.671-0.621l2.116 1.063-1.969 4.508v1.305h-9v-1.305l-1.97-4.507 2.637-1.324zM8.584 19.978l1.851 4.237v1.176h-2.799c-0.014-0.935 0.021-3.872 0.947-5.412z"></path>
<path fill="none" stroke="#ff6b09" style="stroke: var(--color1, #ff6b09)" stroke-linejoin="miter" stroke-linecap="butt" stroke-miterlimit="4" stroke-width="1.0159" d="M30.387 4.945v-4.183h-29.879v30.476h29.879v-4.183"></path>
</symbol>
<symbol id="square-money" viewBox="0 0 31 32">
<path fill="#ff6b09" style="fill: var(--color1, #ff6b09)" d="M6.947 14.566c0 0.227-0.344 0.227-0.344 0 0-4.818 3.907-8.725 8.725-8.725 4.82 0 8.725 3.907 8.725 8.725 0 0.227-0.342 0.227-0.342 0 0-3.256-5.351-3.258-5.351 0 0 0.227-0.352 0.227-0.352 0 0-3.248-5.36-3.248-5.36 0 0 0.227-0.352 0.227-0.352 0 0-3.242-5.349-3.265-5.349 0zM12.327 13.302c0.093-1.874 0.387-3.555 0.816-4.838 0.342-1.020 0.774-1.794 1.265-2.229-3.679 0.402-6.657 3.191-7.322 6.808 1.267-1.827 4.192-1.681 5.242 0.26zM17.981 13.217c-0.095-1.802-0.381-3.415-0.793-4.645-1.063-3.182-2.657-3.182-3.72 0-0.412 1.23-0.696 2.842-0.793 4.645 1.143-1.942 4.163-1.942 5.306 0zM23.571 13.042c-0.663-3.617-3.642-6.406-7.322-6.808 0.492 0.435 0.923 1.209 1.265 2.229 0.428 1.283 0.723 2.964 0.816 4.838 1.057-1.951 3.99-2.066 5.242-0.26z"></path>
<path fill="#ff6b09" style="fill: var(--color1, #ff6b09)" d="M14.183 18.559v-1.772c-0.319 0.212-0.571 0.54-0.571 0.939 0 0.389 0.255 0.647 0.571 0.832zM14.527 19.109c-0.612-0.28-1.256-0.608-1.256-1.382 0-0.799 0.608-1.199 1.256-1.498v2.88z"></path>
<path fill="#ff6b09" style="fill: var(--color1, #ff6b09)" d="M16.474 21.232v1.792c0.323-0.214 0.577-0.544 0.577-0.943 0-0.393-0.259-0.659-0.577-0.849zM16.132 20.68c0.614 0.284 1.263 0.622 1.263 1.401 0 0.801-0.612 1.201-1.263 1.497v-2.898z"></path>
<path fill="#ff6b09" style="fill: var(--color1, #ff6b09)" d="M16.474 14.77c1.409 0.325 2.857 1.38 2.857 2.956 0 1.349-2.28 1.3-2.28 0 0-0.402-0.253-0.731-0.577-0.943v2.521c1.304 0.426 2.861 1.191 2.861 2.777 0 1.578-1.448 2.63-2.861 2.954-0.006 1.502-2.286 1.5-2.29-0.002-0.803-0.185-1.502-0.56-2.006-1.057-0.529-0.523-0.842-1.18-0.842-1.895 0-1.329 2.278-1.329 2.278 0 0 0.398 0.251 0.725 0.571 0.937v-2.519c-1.294-0.418-2.859-1.205-2.859-2.777 0-1.578 1.448-2.63 2.859-2.954 0.006-1.502 2.286-1.5 2.29 0.002zM14.527 14.774v0.274c-1.341 0.266-2.861 1.125-2.861 2.674 0 1.489 1.668 2.157 2.861 2.525v3.329c-0.645-0.295-1.256-0.692-1.256-1.495 0-0.878-1.594-0.878-1.594 0 0 0.62 0.276 1.193 0.742 1.65 0.591 0.585 1.308 0.863 2.109 1.022v0.276c0 1.057 1.605 1.057 1.605 0v-0.274c1.345-0.268 2.859-1.127 2.859-2.674 0-1.504-1.664-2.15-2.859-2.527v-3.327c0.647 0.295 1.263 0.692 1.263 1.5 0 0.855 1.592 0.89 1.592 0 0-1.547-1.512-2.408-2.855-2.676v-0.276c0-1.057-1.605-1.057-1.605 0z"></path>
<path fill="none" stroke="#ff6b09" style="stroke: var(--color1, #ff6b09)" stroke-linejoin="miter" stroke-linecap="butt" stroke-miterlimit="4" stroke-width="1.0159" d="M30.387 4.945v-4.183h-29.879v30.476h29.879v-4.183"></path>
</symbol>
<symbol id="square-phone" viewBox="0 0 31 32">
<path fill="#ff6b09" style="fill: var(--color1, #ff6b09)" d="M24.717 5.25h-10.247c-0.667 0-1.21 0.543-1.21 1.21v4.242l-7.613 3.195c-0.086 0.036-0.145 0.117-0.151 0.211s0.040 0.182 0.12 0.23l0.971 0.581v6.192c-0.497 0.113-0.869 0.558-0.869 1.089v0.597c0 0.137 0.111 0.248 0.248 0.248h1.739c0.137 0 0.248-0.111 0.248-0.248v-0.597c0-0.531-0.373-0.975-0.87-1.089v-5.896l0.768 0.459c-0.024 0.177-0.003-0.309-0.011 2.883 0 1.049 2.687 1.611 5.421 1.643v4.832c0 0.25 0.076 0.482 0.207 0.674 0.217 0.322 0.585 0.534 1.002 0.534h10.247c0.666 0 1.209-0.542 1.209-1.209 0 0.033-0.001-1.024 0-18.573 0-0.658-0.544-1.21-1.208-1.21zM7.456 22.201v0.349h-1.243v-0.349c0-0.344 0.278-0.623 0.62-0.623 0.343 0 0.623 0.28 0.623 0.623zM24.717 25.745h-10.247c-0.246 0-0.463-0.125-0.592-0.313-0.077-0.114-0.122-0.251-0.122-0.398v-1.675h11.672v1.676c0 0.388-0.324 0.711-0.711 0.711zM25.428 22.862h-11.672v-2.659c1.335-0.015 5.424-0.309 5.424-1.645-0.001-2.005 0.004-2.818-0.006-2.887l2.226-1.334c0.080-0.048 0.126-0.137 0.12-0.23s-0.065-0.175-0.151-0.211l-7.613-3.195v-2.071h11.672v14.232zM13.508 16.912c-1.375 0-4.023 0.178-5.173 0.929 0.007-2.297-0.080-2.148 0.203-2.343 0.715-0.526 2.758-0.894 4.97-0.894 0.965 0 5.176 0.265 5.176 1.157v2.080c-1.161-0.758-3.795-0.929-5.176-0.929zM13.756 6.46c0-0.393 0.32-0.713 0.713-0.713h10.247c0.393 0 0.712 0.324 0.712 0.713v1.675h-11.672v-1.675zM13.508 11.135l7.217 3.029-1.788 1.070c-0.951-0.943-4.096-1.126-5.429-1.126-1.335 0-4.48 0.183-5.429 1.126l-1.789-1.070 7.218-3.029zM8.335 18.558c0-0.401 1.777-1.15 5.173-1.15 3.399 0 5.176 0.749 5.176 1.15s-1.778 1.15-5.176 1.15c-3.396 0-5.173-0.749-5.173-1.15z"></path>
<path fill="#ff6b09" style="fill: var(--color1, #ff6b09)" d="M19.593 23.732c-0.452 0-0.82 0.368-0.82 0.82s0.368 0.82 0.82 0.82c0.452 0 0.82-0.368 0.82-0.82s-0.368-0.82-0.82-0.82zM19.593 24.877c-0.179 0-0.324-0.146-0.324-0.324s0.145-0.324 0.324-0.324c0.179 0 0.324 0.145 0.324 0.324s-0.145 0.324-0.324 0.324z"></path>
<path fill="#ff6b09" style="fill: var(--color1, #ff6b09)" d="M20.538 6.693h-1.891v0.496h1.891v-0.496z"></path>
<path fill="none" stroke="#ff6b09" style="stroke: var(--color1, #ff6b09)" stroke-linejoin="miter" stroke-linecap="butt" stroke-miterlimit="4" stroke-width="1.0159" d="M30.387 4.945v-4.183h-29.879v30.476h29.879v-4.183"></path>
</symbol>
</defs>
</svg>
