<svg aria-hidden="true" style="position:absolute;width:0;height:0" xmlns="http://www.w3.org/2000/svg" overflow="hidden"><defs>
<symbol id="close_40px" viewBox="0 0 32 32">
<path d="M23.734 10.304L22.23 8.8l-5.963 5.962L10.305 8.8l-1.504 1.504 5.962 5.962-5.962 5.963 1.504 1.504 5.962-5.963 5.963 5.963 1.504-1.504-5.963-5.963 5.963-5.962z"/></symbol>
<symbol id="facebook"  viewBox="0 0 32 32">
<path d="M21.328 5.312h2.928v-5.088c-0.512-0.064-2.24-0.224-4.256-0.224-4.224 0-7.104 2.656-7.104 7.52v4.48h-4.64v5.68h4.64v14.32h5.696v-14.304h4.464l0.704-5.696h-5.168v-3.92c0-1.648 0.448-2.768 2.736-2.768z"></path>
</symbol>
<symbol id="instagram" viewBox="0 0 32 32">
<path d="M31.968 9.408c-0.024-1.403-0.292-2.735-0.763-3.968l0.027 0.080c-0.427-1.109-1.058-2.054-1.854-2.83l-0.002-0.002c-0.8-0.8-1.76-1.44-2.832-1.84-1.151-0.448-2.483-0.721-3.875-0.752l-0.013-0c-1.458-0.070-3.167-0.109-4.885-0.109-0.6 0-1.199 0.005-1.797 0.014l0.090-0.001c-4.352 0-4.896 0.016-6.592 0.096-1.712 0.064-2.88 0.352-3.888 0.736-1.072 0.416-2.032 1.040-2.832 1.856-0.816 0.8-1.44 1.76-1.856 2.832-0.443 1.152-0.711 2.485-0.736 3.877l-0 0.011c-0.070 1.458-0.109 3.167-0.109 4.885 0 0.6 0.005 1.199 0.014 1.797l-0.001-0.090c0 4.352 0 4.896 0.080 6.592 0.030 1.405 0.303 2.737 0.779 3.968l-0.027-0.080c0.4 1.072 1.040 2.032 1.856 2.832 0.8 0.816 1.76 1.44 2.832 1.856 1.008 0.384 2.176 0.656 3.872 0.736 1.712 0.080 2.24 0.096 6.592 0.096s4.896-0.016 6.608-0.096c1.397-0.026 2.724-0.294 3.952-0.763l-0.080 0.027c2.16-0.851 3.837-2.528 4.669-4.633l0.019-0.055c0.384-1.024 0.672-2.176 0.736-3.888 0.080-1.696 0.096-2.24 0.096-6.592 0-4.336 0-4.88-0.080-6.592zM29.088 22.48c-0.064 1.552-0.32 2.4-0.544 2.96-0.552 1.401-1.639 2.488-3.004 3.027l-0.036 0.013c-0.56 0.224-1.424 0.48-2.976 0.544-1.68 0.080-2.192 0.096-6.464 0.096-0.465 0.007-1.013 0.011-1.562 0.011-1.724 0-3.439-0.039-5.144-0.116l0.242 0.009c-1.568-0.064-2.4-0.32-2.96-0.544-0.722-0.271-1.337-0.68-1.839-1.199l-0.001-0.001c-0.518-0.5-0.926-1.108-1.189-1.79l-0.011-0.034c-0.336-0.884-0.535-1.905-0.544-2.972l-0-0.004c-0.068-1.463-0.107-3.179-0.107-4.903 0-0.549 0.004-1.097 0.012-1.643l-0.001 0.083c0-4.272 0.016-4.784 0.096-6.464 0.064-1.568 0.32-2.4 0.544-2.976 0.256-0.688 0.656-1.312 1.2-1.824 0.504-0.519 1.118-0.928 1.806-1.189l0.034-0.011c0.56-0.224 1.408-0.48 2.976-0.544 1.68-0.080 2.192-0.096 6.448-0.096 4.288 0 4.8 0 6.464 0.096 1.568 0.064 2.4 0.32 2.976 0.544 0.688 0.256 1.328 0.656 1.84 1.2 0.528 0.512 0.944 1.136 1.2 1.824 0.208 0.576 0.48 1.424 0.544 2.976 0.080 1.68 0.096 2.192 0.096 6.464s-0.016 4.768-0.096 6.464z"></path>
<path d="M16.064 7.776c-4.542 0-8.224 3.682-8.224 8.224s3.682 8.224 8.224 8.224v0c4.542 0 8.224-3.682 8.224-8.224s-3.682-8.224-8.224-8.224v0zM16.064 21.328c-2.943 0-5.328-2.385-5.328-5.328s2.385-5.328 5.328-5.328v0c2.943 0 5.328 2.385 5.328 5.328s-2.385 5.328-5.328 5.328v0zM26.528 7.456c0 1.060-0.86 1.92-1.92 1.92s-1.92-0.86-1.92-1.92v0c0-1.060 0.86-1.92 1.92-1.92s1.92 0.86 1.92 1.92v0z"></path>
</symbol>
<symbol id="linkedin"  viewBox="0 0 32 32">
<path d="M32 32v-11.744c0-5.728-1.232-10.16-7.952-10.16-0.076-0.003-0.166-0.005-0.256-0.005-2.555 0-4.788 1.376-5.999 3.428l-0.018 0.032h-0.096v-2.912h-6.368v21.36h6.64v-10.576c0-2.784 0.528-5.488 3.968-5.488 3.408 0 3.456 3.184 3.456 5.664v10.4h6.624zM0.528 10.64h6.64v21.36h-6.64v-21.36zM3.84 0c-2.121 0-3.84 1.719-3.84 3.84v0c-0 0.005-0 0.010-0 0.016 0 2.127 1.715 3.854 3.838 3.872h0.002c2.128 0 3.84-1.76 3.84-3.888 0-2.121-1.719-3.84-3.84-3.84v0z"></path>
</symbol>
<symbol id="twitter"  viewBox="0 0 32 32">
<path d="M32 6.078c-1.19 0.522-2.458 0.868-3.78 1.036 1.36-0.812 2.398-2.088 2.886-3.626-1.268 0.756-2.668 1.29-4.16 1.588-1.204-1.282-2.92-2.076-4.792-2.076-3.632 0-6.556 2.948-6.556 6.562 0 0.52 0.044 1.020 0.152 1.496-5.454-0.266-10.28-2.88-13.522-6.862-0.566 0.982-0.898 2.106-0.898 3.316 0 2.272 1.17 4.286 2.914 5.452-1.054-0.020-2.088-0.326-2.964-0.808 0 0.020 0 0.046 0 0.072 0 3.188 2.274 5.836 5.256 6.446-0.534 0.146-1.116 0.216-1.72 0.216-0.42 0-0.844-0.024-1.242-0.112 0.85 2.598 3.262 4.508 6.13 4.57-2.232 1.746-5.066 2.798-8.134 2.798-0.538 0-1.054-0.024-1.57-0.090 2.906 1.874 6.35 2.944 10.064 2.944 12.072 0 18.672-10 18.672-18.668 0-0.29-0.010-0.57-0.024-0.848 1.302-0.924 2.396-2.078 3.288-3.406z"></path>
</symbol>
<symbol id="copyright" viewBox="0 0 32 32">
<path fill="var(--color1, #9da4bd)" d="M15.808 11.424c2.048.096 2.576 1.84 2.608 2.656h2.864c-.128-3.168-2.384-5.104-5.52-5.104-3.536 0-6.16 2.224-6.16 7.248 0 3.104 1.488 6.784 6.144 6.784 3.552 0 5.456-2.64 5.504-4.72h-2.864c-.048.944-.72 2.208-2.608 2.304-2.096-.064-2.976-1.696-2.976-4.368 0-4.624 2.048-4.768 3.008-4.8zM16 0C7.168 0 0 7.168 0 16s7.168 16 16 16 16-7.168 16-16S24.832 0 16 0zm0 28.8c-7.066-.009-12.791-5.734-12.8-12.799V16C3.2 8.944 8.944 3.2 16 3.2S28.8 8.944 28.8 16 23.056 28.8 16 28.8z"/></symbol>
<symbol id="logo" viewBox="0 0 39 32">
<path d="M22.371 9.64l-.749-.571a.57.57 0 00-.8.079l-.001.001-10.36 11.897.16.177 2.566-2.366a.395.395 0 01.147-.76h.007c.174 0 .321.114.371.272l.001.003 3.383-3.137a.291.291 0 01.366 0h-.001l.171.126a.285.285 0 00.382-.046l4.423-4.96a.473.473 0 00-.067-.714l-.001-.001z"/>
<path d="M27.24 12.989a22.87 22.87 0 01-7.335 3.477l-.162.037c-2.401.638-5.193 1.072-8.063 1.208l-.092.003c.055.406.155.805.297 1.189 1.554 1.406 13.257-.994 15.543-3.771.486-.577-.189-2.143-.189-2.143zm-13.897 5.868a.389.389 0 11.389-.389v.006a.382.382 0 01-.382.382h-.007zM2.286 12.166l.091-.394 1.486.337c.123.226.198.475.223.731a2.43 2.43 0 01-.051.811 2.157 2.157 0 01-.493.997l.002-.002a1.97 1.97 0 01-.866.568l-.014.004a2.109 2.109 0 01-1.095.038l.014.003a2.001 2.001 0 01-.955-.504l.001.001a1.883 1.883 0 01-.54-.884l-.003-.013a2.15 2.15 0 01.004-1.158l-.004.015c.061-.28.171-.547.326-.789.147-.22.339-.399.563-.527l.008-.004.206.314a1.64 1.64 0 00-.753 1.099l-.002.01a1.792 1.792 0 00.02.91l-.003-.013c.077.278.229.529.44.726.217.21.488.354.783.417.286.08.589.08.874 0 .274-.09.52-.25.714-.463.2-.23.337-.507.4-.806a1.755 1.755 0 00-.073-1.103l.004.012-1.309-.331zM5.52 8.571l-1.331 1.777.571 1.023-.263.354-2.114-3.857.246-.337 4.303.926-.269.354-1.143-.24zm-.377-.091l-2.286-.514L4 10.017 5.143 8.48zm0-3.594l.343-.257 2.177 2.914L9.457 6.2l.217.291-2.131 1.594-2.4-3.2zm3.6-2.383l.383-.171 1.509 3.303 2.04-.926.149.331-2.423 1.103-1.657-3.64zm7.531 1.314l.086.36-2.754.646-.914-3.897 2.674-.623.08.354-2.286.531.326 1.383 2.011-.474.086.354-2.017.469.343 1.446 2.366-.549zm3.926.143l-.954-1.257a2.847 2.847 0 01-.32 0l-1.074.034.04 1.269h-.423l-.131-4L18.858 0a1.8 1.8 0 011.217.329L20.07.325c.287.232.469.585.469.979v.016-.001c.017.282-.057.563-.211.8a1.34 1.34 0 01-.653.483l-.009.003 1 1.337-.463.017zm-.4-1.88a.909.909 0 00.291-.752v-.016a.916.916 0 00-.336-.71l-.002-.001a1.373 1.373 0 00-.902-.234h.005l-1.086.04.069 2 1.063-.034a1.36 1.36 0 00.9-.294l-.003.002zm3.423.817l-.206 1.366L22.6 4.2l.211-1.343L21.628 0l.446.069 1.011 2.434L24.799.486l.4.086-1.977 2.326zm5.651-.24l.497.646-.217.171-.497-.663-.314.749-.24-.103.32-.749-.823.109v-.274l.811-.091-.503-.646.223-.171.44.651.309-.754.246.103-.291.766.823-.114v.28l-.783.091zm1.909 4.606a1.565 1.565 0 01-.245-.684l-.001-.007.337-.149c.025.226.099.445.217.64.127.219.294.413.491.571.197.189.452.318.736.359l.007.001a.62.62 0 00.536-.221l.001-.001a.51.51 0 00.133-.345l-.002-.045v.002a1.054 1.054 0 00-.14-.399l.003.005a5.935 5.935 0 00-.359-.523l.01.014a4.995 4.995 0 01-.398-.603l-.013-.026a1.133 1.133 0 01-.149-.536v-.001a.84.84 0 01.223-.571c.123-.148.283-.261.467-.324l.007-.002a1.125 1.125 0 01.642.002l-.008-.002c.28.093.522.234.728.414l-.002-.002c.176.146.331.315.463.503.121.174.212.367.269.571l-.326.171a2.006 2.006 0 00-.256-.544l.005.007a2.1 2.1 0 00-.379-.391l-.004-.003a1.265 1.265 0 00-.731-.348l-.006-.001a.616.616 0 00-.536.233l-.001.001a.49.49 0 00-.131.39v-.002a.934.934 0 00.137.406c.08.131.194.303.349.509.153.194.29.401.411.617.091.154.148.338.154.535v.002a.84.84 0 01-.223.571 1.02 1.02 0 01-.473.324l-.007.002a1.093 1.093 0 01-.642-.002l.008.002a2.115 2.115 0 01-.734-.414l.003.002a2.626 2.626 0 01-.565-.695l-.007-.013zm5.748.834l-.806-1.143.297-.211 1.857 2.651-.297.211-.806-1.143-2.983 2.086-.24-.349 2.977-2.103zm-1.28 4.697c.107-.357.306-.659.569-.89l.002-.002c.256-.23.573-.396.924-.472l.013-.002a2.086 2.086 0 011.089.044l-.015-.004c.348.117.642.314.873.57l.002.002c.238.272.409.609.483.981l.002.014a2.21 2.21 0 01-.003 1.118l.004-.015a1.975 1.975 0 01-.569.89l-.002.002a2.111 2.111 0 01-2.055.441l.015.004a1.912 1.912 0 01-.872-.569l-.002-.002a2.137 2.137 0 01-.483-.975l-.002-.014a2.187 2.187 0 01.033-1.136l-.004.016zM36 14.611a1.575 1.575 0 001.207.533c.446 0 .854-.165 1.166-.438l-.002.002c.211-.194.367-.44.451-.714a1.835 1.835 0 00-.374-1.683l.002.003a1.63 1.63 0 00-.726-.46l-.012-.003a1.697 1.697 0 00-.892.003l.012-.003c-.303.06-.568.199-.778.395l.001-.001a1.594 1.594 0 00-.448.709l-.003.011a1.705 1.705 0 00.003.898l-.003-.012c.067.296.205.553.395.761l-.001-.001zm-1.183 4.818l1.48-.571c0-.103.034-.206.063-.314l.28-1.034-1.211-.314.109-.406 3.863 1.034-.389 1.446c-.092.435-.33.803-.659 1.06l-.004.003a1.226 1.226 0 01-1.094.157l.009.003a1.242 1.242 0 01-.977-1.205l-1.577.571.109-.429zm1.914.16a1.03 1.03 0 001.439.38l-.004.003c.246-.199.421-.478.484-.797l.001-.009.274-1.029-1.937-.52-.274 1.029a1.366 1.366 0 00.02.952l-.003-.009zm-3.965 3.52l-.291-.223 1.714-2.257 3.189 2.417-1.657 2.189-.291-.223 1.4-1.846-1.143-.863-1.251 1.651-.286-.217 1.28-1.651-1.183-.897-1.48 1.92zm-1.337 4.554l-.817.046v-.274l.817-.006-.44-.68.223-.143.434.686.354-.766.246.131-.389.72.817-.046v.28h-.829l.44.68-.223.143-.434-.686-.377.743-.24-.137.417-.691zM24 27.206l.691.383a1.781 1.781 0 011.131-.9l.012-.003a1.77 1.77 0 01.711-.074l-.007-.001c.216.017.411.092.575.208l-.003-.002a.894.894 0 01.32.457c.069.226.057.469-.034.686-.151.307-.342.57-.571.794.189.101.363.226.52.371a.983.983 0 01.234.394.758.758 0 01-.15.67l.001-.001a1.1 1.1 0 01-.632.438l-.008.002a.996.996 0 01-.709 0 .716.716 0 01-.41-.481l-.001-.005a.78.78 0 01.042-.576l-.002.005a2.76 2.76 0 01.509-.703l-1.377-.766a2.7 2.7 0 00-.034.817h-.349a2.73 2.73 0 01.119-1.014l-.005.019-.72-.4.149-.32zm.994.571l1.514.84c.194-.186.357-.403.479-.644l.006-.014a.723.723 0 000-.514.618.618 0 00-.396-.427l-.004-.001a1.123 1.123 0 00-.74.003l.008-.002a1.376 1.376 0 00-.888.735l-.004.008.023.017zm2.149 2.286a.509.509 0 00.045-.427l.001.004a.703.703 0 00-.183-.297 2.479 2.479 0 00-.46-.308l-.014-.006a2.999 2.999 0 00-.444.559l-.007.013a.566.566 0 00-.045.426l-.001-.004a.483.483 0 00.249.302l.003.001a.637.637 0 00.451 0 .68.68 0 00.381-.266l.001-.002.023.006zm-10.109 1.548l.08-4h.406l-.063 3.2 1.623-2.663h.2l1.52 2.709.057-3.183h.406l-.074 4h-.349l-1.68-2.989-1.777 2.931-.349-.006zm-1.988-4.182a1.943 1.943 0 01.516 1.991l.004-.014c-.1.367-.289.682-.543.931a1.91 1.91 0 01-.907.5l-.013.003a2.189 2.189 0 01-1.124-.039l.016.004a2.15 2.15 0 01-.961-.521l.001.001a1.918 1.918 0 01-.528-.889l-.003-.013a2.1 2.1 0 01.572-2.011c.242-.242.548-.421.889-.511l.014-.003a2.202 2.202 0 011.118.038l-.016-.004c.378.098.704.285.966.538l-.001-.001zm-1.949-.2a1.523 1.523 0 00-.737.411 1.652 1.652 0 00-.432.748l-.003.012c-.08.286-.08.589 0 .874.067.278.212.531.417.731.209.204.469.357.759.437l.012.003a1.796 1.796 0 00.898-.003l-.012.003a1.63 1.63 0 00.743-.411 1.68 1.68 0 00.432-.748l.003-.012a1.645 1.645 0 00-.003-.892l.003.012a1.613 1.613 0 00-.423-.731 1.718 1.718 0 00-.765-.432l-.012-.003a1.645 1.645 0 00-.892.003l.012-.003zm-4.326-2.658l.154 1.571c.098.042.194.09.286.143l.931.537.629-1.109.371.211-2 3.446-1.303-.749a1.826 1.826 0 01-.853-.903l-.005-.012a1.256 1.256 0 01.128-1.091l-.003.005c.133-.25.343-.451.6-.571a1.299 1.299 0 01.832-.061l-.009-.002-.166-1.68.406.263zm-.651 1.806a1.03 1.03 0 00-.735 1.293l-.002-.007c.134.296.366.536.657.68l.92.531 1-1.714-.92-.531a1.401 1.401 0 00-.923-.28h.004v.029zm-2.731-4.486l.257-.257 1.971 2.029-2.857 2.789-1.903-1.966.263-.257 1.617 1.663.977-.989-1.417-1.474.274-.263 1.446 1.486 1.063-1.034-1.691-1.726zm-4.246-2.245l.137-.789.269.04-.154.811.76-.28.091.251-.771.263.634.537-.183.206-.611-.571-.143.811-.274-.051.16-.811-.766.274-.086-.223.766-.269-.634-.531.189-.206.617.537z"/></symbol>
<symbol id="mail" viewBox="0 0 32 32">
<path fill="none" stroke="var(--color1, #9da4bd)" stroke-linejoin="round" stroke-linecap="round" stroke-width="1.333" d="M6.4 6.667h19.2C26.92 6.667 28 7.716 28 9v14c0 1.283-1.08 2.333-2.4 2.333H6.4C5.08 25.333 4 24.282 4 23V9c0-1.284 1.08-2.333 2.4-2.333z"/>
<path fill="none" stroke="var(--color1, #9da4bd)" stroke-linejoin="round" stroke-linecap="round" stroke-width="1.333" d="M26.667 9.333l-10.667 8-10.667-8"/></symbol>
<symbol id="map-pin" viewBox="0 0 32 32">
<path fill="none" stroke="var(--color1, #9da4bd)" stroke-linejoin="round" stroke-linecap="round" stroke-width="1.333" d="M26.667 13.819C26.667 21.454 16 28 16 28S5.333 21.453 5.333 13.819C5.333 8.396 10.109 4 16 4s10.667 4.396 10.667 9.819v0z"/>
<path fill="none" stroke="var(--color1, #9da4bd)" stroke-linejoin="round" stroke-linecap="round" stroke-width="1.333" d="M16 18.667a4 4 0 000-8v0a4 4 0 000 8v0z"/></symbol>
<symbol id="menu_40px" viewBox="0 0 32 32">
<path fill="var(--color2, #fff)" d="M6.4 11.734V9.6h19.2v2.134H6.4zm0 5.332h19.2v-2.133H6.4v2.133zm0 5.334h19.2v-2.134H6.4V22.4z"/></symbol>
<symbol id="mobile_Logo" viewBox="0 0 39 32">
<path fill="var(--color2, #fff)" d="M22.371 9.64l-.749-.571a.57.57 0 00-.8.079l-.001.001-10.36 11.897.16.177 2.566-2.366a.395.395 0 01.147-.76h.007c.174 0 .321.114.371.272l.001.003 3.383-3.137a.291.291 0 01.366 0h-.001l.171.126a.285.285 0 00.382-.046l4.423-4.96a.474.474 0 00-.067-.714l-.001-.001z"/><path fill="var(--color2, #fff)" d="M27.24 12.989a22.87 22.87 0 01-7.335 3.477l-.162.037c-2.401.638-5.193 1.072-8.063 1.208l-.092.003c.055.406.155.805.297 1.189 1.554 1.406 13.257-.994 15.543-3.771.486-.577-.189-2.143-.189-2.143zm-13.897 5.868a.389.389 0 11.389-.389v.006a.382.382 0 01-.382.382h-.007zM2.286 12.166l.091-.394 1.486.337c.123.226.198.475.223.731a2.43 2.43 0 01-.051.811 2.157 2.157 0 01-.493.997l.002-.002a1.97 1.97 0 01-.866.568l-.014.004a2.109 2.109 0 01-1.095.038l.014.003a2.001 2.001 0 01-.955-.504l.001.001a1.883 1.883 0 01-.54-.884l-.003-.013a2.15 2.15 0 01.004-1.158l-.004.015c.062-.28.171-.547.326-.789.147-.22.339-.399.563-.527l.008-.004.206.314a1.64 1.64 0 00-.753 1.099l-.002.01a1.792 1.792 0 00.02.91l-.003-.013c.077.278.229.529.44.726.217.21.488.354.783.417.286.08.589.08.874 0 .283-.095.524-.255.713-.462l.001-.001c.2-.23.337-.507.4-.806a1.755 1.755 0 00-.073-1.103l.004.012-1.309-.331zM5.52 8.571l-1.331 1.777.571 1.023-.263.354-2.114-3.857.246-.337 4.303.926-.269.354-1.143-.24zm-.377-.091l-2.286-.514L4 10.017 5.143 8.48zm0-3.594l.343-.257 2.177 2.914L9.457 6.2l.217.291-2.131 1.594-2.4-3.2zm3.6-2.383l.383-.171 1.509 3.303 2.04-.926.149.331-2.423 1.103-1.657-3.64zm7.531 1.314l.086.36-2.754.646-.914-3.897 2.674-.623.08.354-2.286.531.326 1.383 2.011-.474.086.354-2.017.469.343 1.446 2.366-.549zm3.926.143l-.954-1.257a2.847 2.847 0 01-.32 0l-1.074.034.04 1.269h-.423l-.131-4L18.858 0a1.8 1.8 0 011.217.329L20.07.325c.287.232.469.585.469.979v.016-.001c.017.282-.057.563-.211.8a1.34 1.34 0 01-.653.483l-.009.003 1 1.337-.463.017zm-.4-1.88a.909.909 0 00.291-.752v-.015a.92.92 0 00-.336-.711l-.002-.001a1.373 1.373 0 00-.902-.234h.005l-1.086.04.069 2 1.063-.034a1.36 1.36 0 00.9-.294l-.003.002zm3.423.817l-.206 1.366L22.6 4.2l.211-1.343L21.628 0l.446.069 1.011 2.434L24.799.486l.4.086-1.977 2.326zm5.651-.24l.497.646-.217.171-.497-.663-.314.749-.24-.103.32-.749-.823.109v-.274l.811-.091-.503-.646.223-.171.44.651.309-.754.246.103-.291.766.823-.114v.28l-.783.091zm1.909 4.606a1.565 1.565 0 01-.245-.684l-.001-.007.337-.149c.025.226.099.445.217.64.127.219.294.413.491.571.197.189.452.318.736.359l.007.001a.62.62 0 00.536-.221l.001-.001a.51.51 0 00.133-.345l-.002-.045v.002a1.037 1.037 0 00-.14-.399l.003.005a5.935 5.935 0 00-.359-.523l.01.014a4.995 4.995 0 01-.398-.603l-.013-.026a1.133 1.133 0 01-.149-.536v-.001a.84.84 0 01.223-.571c.123-.148.283-.261.467-.324l.007-.002a1.125 1.125 0 01.642.002l-.008-.002c.28.093.522.234.728.414l-.002-.002c.176.146.331.315.463.503.121.174.212.367.269.571l-.326.171a2.006 2.006 0 00-.256-.544l.005.007a2.068 2.068 0 00-.379-.391l-.004-.003a1.265 1.265 0 00-.731-.348l-.006-.001a.616.616 0 00-.536.233l-.001.001a.49.49 0 00-.131.39v-.002c.013.144.06.283.137.406.08.131.194.303.349.509.153.194.29.401.411.617.091.154.148.338.154.535v.002a.84.84 0 01-.223.571 1.02 1.02 0 01-.473.324l-.007.002a1.093 1.093 0 01-.642-.002l.008.002a2.115 2.115 0 01-.734-.414l.003.002a2.626 2.626 0 01-.565-.695l-.007-.013zm5.748.834l-.806-1.143.297-.211 1.857 2.651-.297.211-.806-1.143-2.983 2.086-.24-.349 2.977-2.103zm-1.28 4.697c.107-.357.306-.659.569-.89l.002-.002c.256-.23.573-.396.924-.472l.013-.002a2.086 2.086 0 011.089.044l-.015-.004c.348.117.642.314.873.57l.002.002c.238.272.409.609.483.981l.002.014a2.21 2.21 0 01-.003 1.118l.004-.015a1.975 1.975 0 01-.569.89l-.002.002a2.111 2.111 0 01-2.055.441l.015.004a1.912 1.912 0 01-.872-.569l-.002-.002a2.137 2.137 0 01-.483-.975l-.002-.014a2.187 2.187 0 01.033-1.136l-.004.016zM36 14.611a1.575 1.575 0 001.207.533c.446 0 .854-.165 1.166-.438l-.002.002c.211-.194.367-.44.451-.714a1.835 1.835 0 00-.374-1.683l.002.003a1.63 1.63 0 00-.726-.46l-.012-.003a1.697 1.697 0 00-.892.003l.012-.003c-.303.06-.568.199-.778.395l.001-.001a1.594 1.594 0 00-.448.709l-.003.011a1.705 1.705 0 00.003.898l-.003-.012c.067.296.205.553.395.761l-.001-.001zm-1.183 4.818l1.48-.571c0-.103.034-.206.063-.314l.28-1.034-1.211-.314.109-.406 3.863 1.034-.389 1.446c-.092.435-.33.803-.659 1.06l-.004.003a1.226 1.226 0 01-1.094.157l.009.003a1.242 1.242 0 01-.977-1.205l-1.577.571.109-.429zm1.914.16a1.03 1.03 0 001.439.38l-.004.003c.246-.199.421-.478.484-.797l.001-.009.274-1.029-1.937-.52-.274 1.029a1.366 1.366 0 00.02.952l-.003-.009zm-3.965 3.52l-.291-.223 1.714-2.257 3.189 2.417-1.657 2.189-.291-.223 1.4-1.846-1.143-.863-1.251 1.651-.286-.217 1.28-1.651-1.183-.897-1.48 1.92zm-1.337 4.554l-.817.046v-.274l.817-.006-.44-.68.223-.143.434.686.354-.766.246.131-.389.72.817-.046v.28h-.829l.44.68-.223.143-.434-.686-.377.743-.24-.137.417-.691zM24 27.206l.691.383a1.781 1.781 0 011.131-.9l.012-.003a1.77 1.77 0 01.711-.074l-.007-.001c.216.017.411.092.575.208l-.003-.002a.894.894 0 01.32.457c.069.226.057.469-.034.686-.151.307-.342.57-.571.794.189.101.363.226.52.371a.983.983 0 01.234.394.758.758 0 01-.15.67l.001-.001a1.1 1.1 0 01-.632.438l-.008.002a.996.996 0 01-.709 0 .716.716 0 01-.41-.481l-.001-.005a.78.78 0 01.042-.576l-.002.005a2.76 2.76 0 01.509-.703l-1.377-.766a2.7 2.7 0 00-.034.817h-.349a2.73 2.73 0 01.119-1.014l-.005.019-.72-.4.149-.32zm.994.571l1.514.84c.194-.186.357-.403.479-.644l.006-.014a.723.723 0 000-.514.618.618 0 00-.396-.427l-.004-.001a1.123 1.123 0 00-.74.003l.008-.002a1.376 1.376 0 00-.888.735l-.004.008.023.017zm2.149 2.286a.509.509 0 00.045-.427l.001.004a.703.703 0 00-.183-.297 2.479 2.479 0 00-.46-.308l-.014-.006a2.999 2.999 0 00-.444.559l-.007.013a.566.566 0 00-.045.426l-.001-.004a.483.483 0 00.249.302l.003.001a.637.637 0 00.451 0 .68.68 0 00.381-.266l.001-.002.023.006zm-10.109 1.548l.08-4h.406l-.063 3.2 1.623-2.663h.2l1.52 2.709.057-3.183h.406l-.074 4h-.349l-1.68-2.989-1.777 2.931-.349-.006zm-1.988-4.182a1.943 1.943 0 01.516 1.991l.004-.014c-.1.367-.289.682-.543.931a1.91 1.91 0 01-.907.5l-.013.003a2.189 2.189 0 01-1.124-.039l.016.004a2.15 2.15 0 01-.961-.521l.001.001a1.918 1.918 0 01-.528-.889l-.003-.013a2.1 2.1 0 01.572-2.011c.242-.242.548-.421.889-.511l.014-.003a2.202 2.202 0 011.118.038l-.016-.004c.378.098.704.285.966.538l-.001-.001zm-1.949-.2a1.523 1.523 0 00-.737.411 1.652 1.652 0 00-.432.748l-.003.012c-.08.286-.08.589 0 .874.067.278.212.531.417.731.209.204.469.357.759.437l.012.003a1.796 1.796 0 00.898-.003l-.012.003a1.63 1.63 0 00.743-.411 1.68 1.68 0 00.432-.748l.003-.012a1.645 1.645 0 00-.003-.892l.003.012a1.613 1.613 0 00-.423-.731 1.718 1.718 0 00-.765-.432l-.012-.003a1.645 1.645 0 00-.892.003l.012-.003zm-4.326-2.658l.154 1.571c.098.042.194.09.286.143l.931.537.629-1.109.371.211-2 3.446-1.303-.749a1.826 1.826 0 01-.853-.903l-.005-.012a1.253 1.253 0 01.128-1.091l-.003.005c.133-.25.343-.451.6-.571a1.299 1.299 0 01.832-.061l-.009-.002-.166-1.68.406.263zm-.651 1.806a1.033 1.033 0 00-.771.871v.005a1.034 1.034 0 00.036.417l-.002-.007c.134.296.366.536.657.68l.92.531 1-1.714-.92-.531a1.401 1.401 0 00-.923-.28h.004v.029zm-2.731-4.486l.257-.257 1.971 2.029-2.857 2.789-1.903-1.966.263-.257 1.617 1.663.977-.989-1.417-1.474.274-.263 1.446 1.486 1.063-1.034-1.691-1.726zm-4.246-2.245l.137-.789.269.04-.154.811.76-.28.091.251-.771.263.634.537-.183.206-.611-.571-.143.811-.274-.051.16-.811-.766.274-.086-.223.766-.269-.634-.531.189-.206.617.537z"/></symbol>
<symbol id="phone" viewBox="0 0 32 32">
<path fill="none" stroke="var(--color1, #9da4bd)" stroke-linejoin="round" stroke-linecap="round" stroke-width="1.333" d="M26.667 21.337v3.226a2.147 2.147 0 01-2.347 2.138l.008.001c-3.481-.388-6.626-1.563-9.338-3.343l.081.05a21.113 21.113 0 01-6.386-6.353l-.05-.083A20.982 20.982 0 015.35 7.768l-.008-.095a2.145 2.145 0 012.136-2.338h3.239c1.079 0 1.972.797 2.123 1.834l.001.012c.136 1.029.387 2.04.751 3.013a2.144 2.144 0 01-.483 2.264l-1.363 1.361c1.555 2.7 3.736 4.881 6.353 6.392l.083.044 1.363-1.361a2.14 2.14 0 012.278-.477l-.015-.005c.973.363 1.984.613 3.013.751a2.148 2.148 0 011.847 2.125l-.001.056v-.003z"/></symbol>
<symbol id="icon-close" viewBox="0 0 32 32">
<path d="M31.439 3.166l-3.166-3.166-12.553 12.553-12.553-12.553-3.166 3.166 12.553 12.553-12.553 12.553 3.166 3.166 12.553-12.553 12.553 12.553 3.166-3.166-12.553-12.553 12.553-12.553z"></path>
</symbol>
<symbol id="icon-menu" viewBox="0 0 48 32">
<path d="M0 5.333v-5.333h48v5.333h-48zM0 18.667h48v-5.333h-48v5.333zM0 32h48v-5.333h-48v5.333z"></path>
</symbol>
</defs></svg>
