<svg aria-hidden="true" style="position: absolute; overflow: hidden;" version="1.1" xmlns="http://www.w3.org/2000/svg" xmlns:xlink="http://www.w3.org/1999/xlink">
<defs>
<symbol id="icon-close" viewBox="0 0 32 32">
<path stroke="#fff" style="stroke: var(--color1, #fff)" stroke-linejoin="miter" stroke-linecap="butt" stroke-miterlimit="4" stroke-width="2" d="M2.519 2l26.963 28"></path>
<path stroke="#fff" style="stroke: var(--color1, #fff)" stroke-linejoin="miter" stroke-linecap="butt" stroke-miterlimit="4" stroke-width="2" d="M2 29.481l28-26.963"></path>
</symbol>
<symbol id="icon-Burger" viewBox="0 0 46 32">
<path stroke="#d41443" style="stroke: var(--color2, #d41443)" stroke-linejoin="miter" stroke-linecap="butt" stroke-miterlimit="4" stroke-width="2.2857" d="M0 2.286h45.714"></path>
<path stroke="#d41443" style="stroke: var(--color2, #d41443)" stroke-linejoin="miter" stroke-linecap="butt" stroke-miterlimit="4" stroke-width="2.2857" d="M0 16h45.714"></path>
<path stroke="#d41443" style="stroke: var(--color2, #d41443)" stroke-linejoin="miter" stroke-linecap="butt" stroke-miterlimit="4" stroke-width="2.2857" d="M0 29.714h45.714"></path>
</symbol>
<svg aria-hidden="true" style="position: absolute; width: 0; height: 0; overflow: hidden;" version="1.1" xmlns="http://www.w3.org/2000/svg" xmlns:xlink="http://www.w3.org/1999/xlink">
<defs>
<symbol id="icon-23" viewBox="0 0 51 32">
<path fill="#d41443" style="fill: var(--color1, #d41443)" d="M3.477 12.177c-0.76 0-1.425-0.896-1.996-2.688-0.543-1.792-0.815-3.516-0.815-5.172 0-0.38 0.421-0.801 1.263-1.263 0.842-0.489 2.118-0.923 3.828-1.303s3.57-0.57 5.58-0.57c7.792 0 11.689 2.729 11.689 8.186 0 1.52-0.326 2.946-0.977 4.276s-1.371 2.403-2.159 3.217c-0.788 0.787-1.711 1.52-2.769 2.199-1.222 0.76-2.389 1.358-3.503 1.792h8.145c0.163 0 0.339 0.081 0.529 0.244 0.19 0.136 0.394 0.57 0.611 1.303 0.217 0.706 0.326 1.602 0.326 2.688 0 1.059-0.068 1.955-0.204 2.688-0.136 0.706-0.299 1.222-0.489 1.548-0.407 0.733-0.774 1.127-1.1 1.181l-0.204 0.041h-17.839c-1.711 0-2.566-2.674-2.566-8.023 0-0.597 1.765-2.24 5.295-4.928 1.33-0.977 2.552-2.050 3.665-3.217s1.67-2.118 1.67-2.851c0-0.815-0.611-1.222-1.833-1.222s-2.511 0.312-3.869 0.937c-1.33 0.624-2.091 0.937-2.281 0.937zM49.305 8.797c0 2.742-1.086 4.792-3.258 6.15 0.299 0.136 0.679 0.462 1.14 0.977 0.489 0.516 0.896 1.032 1.222 1.548 0.842 1.33 1.263 2.905 1.263 4.724 0 2.987-1.072 5.186-3.217 6.598s-5.091 2.118-8.838 2.118c-1.846 0-3.598-0.149-5.254-0.448-1.629-0.326-2.878-0.679-3.747-1.059-0.869-0.407-1.303-0.774-1.303-1.1 0-1.493 0.163-2.81 0.489-3.951s0.692-1.941 1.1-2.403c0.407-0.489 0.801-0.733 1.181-0.733 0.109 0 0.828 0.244 2.159 0.733s2.634 0.733 3.91 0.733c1.303 0 1.955-0.407 1.955-1.222 0-1.113-1.371-1.711-4.113-1.792-1.086-0.027-1.683-0.054-1.792-0.081-0.57-0.19-0.855-1.385-0.855-3.584s0.285-3.408 0.855-3.625c0.109-0.054 0.706-0.081 1.792-0.081 2.742-0.054 4.113-0.611 4.113-1.67 0-0.815-0.597-1.222-1.792-1.222-1.168 0-2.471 0.285-3.91 0.855s-2.226 0.855-2.362 0.855c-0.624 0-1.195-0.91-1.711-2.729s-0.774-3.109-0.774-3.869c0-0.706 0.787-1.425 2.362-2.159 1.738-0.787 4.29-1.181 7.657-1.181 7.82 0 11.729 2.539 11.729 7.616z"></path>
</symbol>
<symbol id="icon-16" viewBox="0 0 47 32">
<path fill="#d41443" style="fill: var(--color1, #d41443)" d="M16.316 29.568c0 0.299-0.828 0.543-2.484 0.733-1.656 0.163-3.312 0.244-4.969 0.244s-2.729-0.068-3.217-0.204c-0.462-0.163-0.692-0.421-0.692-0.774v-17.594h-4.154c-0.462 0-0.692-0.991-0.692-2.973s0.231-3.774 0.692-5.376c0.136-0.516 1.575-0.991 4.317-1.425s4.847-0.652 6.313-0.652c1.466 0 2.444 0.054 2.932 0.163s0.855 0.244 1.1 0.407c0.244 0.136 0.434 0.299 0.57 0.489 0.19 0.299 0.285 0.584 0.285 0.855v26.106zM32.164 12.748c0.244-0.217 0.896-0.502 1.955-0.855s2.254-0.529 3.584-0.529c1.358 0 2.498 0.204 3.421 0.611 0.95 0.38 1.684 0.869 2.199 1.466 0.543 0.597 0.964 1.344 1.263 2.24 0.489 1.466 0.733 2.96 0.733 4.48s-0.068 2.674-0.204 3.462c-0.108 0.76-0.407 1.616-0.896 2.566-0.462 0.95-1.1 1.751-1.914 2.403-0.787 0.652-1.928 1.208-3.421 1.67-1.466 0.434-3.19 0.652-5.172 0.652-4.263 0-7.48-1.168-9.652-3.503-2.172-2.362-3.258-6.163-3.258-11.404 0-5.267 1.018-9.055 3.055-11.363 2.036-2.335 5.132-3.503 9.286-3.503 2.851 0 5.322 0.217 7.412 0.652 2.118 0.407 3.177 0.896 3.177 1.466 0 0.706-0.271 1.941-0.815 3.706-0.516 1.765-0.991 2.647-1.425 2.647-0.136 0-0.543-0.068-1.222-0.204-1.846-0.38-3.53-0.57-5.050-0.57s-2.498 0.38-2.932 1.14c-0.434 0.733-0.652 1.819-0.652 3.258 0.109-0.136 0.285-0.299 0.529-0.489zM33.060 16.413c-0.787 0-1.181 1.466-1.181 4.399 0 2.905 0.394 4.358 1.181 4.358 0.842 0 1.263-1.453 1.263-4.358 0-2.932-0.421-4.399-1.263-4.399z"></path>
</symbol>
<svg aria-hidden="true" style="position: absolute; width: 0; height: 0; overflow: hidden;" version="1.1" xmlns="http://www.w3.org/2000/svg" xmlns:xlink="http://www.w3.org/1999/xlink">
<defs>
<symbol id="icon-right-arrow" viewBox="0 0 32 32">
<path d="M31.489 14.757l-11.556-11.557c-0.33-0.33-0.77-0.511-1.238-0.511s-0.909 0.181-1.239 0.511l-1.049 1.050c-0.33 0.329-0.511 0.769-0.511 1.238s0.182 0.924 0.511 1.253l6.742 6.757h-21.419c-0.966 0-1.729 0.756-1.729 1.722v1.484c0 0.966 0.763 1.798 1.729 1.798h21.495l-6.818 6.794c-0.33 0.33-0.511 0.758-0.511 1.227s0.182 0.903 0.511 1.232l1.049 1.046c0.33 0.33 0.769 0.51 1.239 0.51s0.908-0.182 1.238-0.512l11.556-11.556c0.331-0.331 0.513-0.773 0.511-1.242 0.001-0.471-0.181-0.913-0.511-1.244z"></path>
</symbol>
<svg aria-hidden="true" style="position: absolute; width: 0; height: 0; overflow: hidden;" version="1.1" xmlns="http://www.w3.org/2000/svg" xmlns:xlink="http://www.w3.org/1999/xlink">
<defs>
<symbol id="icon-arrow" viewBox="0 0 26 32">
<path fill="none" stroke="#d41443" style="stroke: var(--color1, #d41443)" stroke-linejoin="round" stroke-linecap="round" stroke-miterlimit="4" stroke-width="6.4" d="M5.172 3.2l14.169 12.8-14.169 12.8"></path>
</symbol>
</defs>
</svg>
