<svg width="100" height="102" viewBox="0 0 100 104" fill="none" xmlns="http://www.w3.org/2000/svg">
<g clip-path="url(#clip0)">
<path d="M64.8618 27.812H42.251C40.7791 27.812 39.5817 29.0367 39.5817 30.5422V40.1155L22.7839 47.3269C22.5938 47.4085 22.4645 47.5921 22.4499 47.8026C22.4353 48.0132 22.5371 48.2142 22.7141 48.3228L24.8563 49.6342V63.6091C23.7609 63.8646 22.9389 64.8674 22.9389 66.0673V67.4144C22.9389 67.7233 23.1839 67.9739 23.4859 67.9739H27.3219C27.6239 67.9739 27.8689 67.7233 27.8689 67.4144V66.0673C27.8689 64.869 27.0468 63.8675 25.9504 63.6104V50.304L27.6442 51.3409C27.5921 51.7404 27.6376 50.6446 27.62 57.8471C27.62 60.2147 33.549 61.483 39.5817 61.5557V72.4617C39.5817 73.0251 39.7504 73.549 40.0387 73.9838C40.5184 74.7097 41.3304 75.1879 42.2496 75.1879H64.8604C66.3309 75.1879 67.5272 73.964 67.5272 72.4603C67.5271 72.535 67.5241 70.1501 67.5272 30.5426C67.5272 29.0575 66.3266 27.812 64.8618 27.812ZM26.7749 66.0673V66.8548H24.0329V66.0673C24.0329 65.2921 24.6466 64.6612 25.4005 64.6612C26.1584 64.6612 26.7749 65.2921 26.7749 66.0673ZM64.8618 74.066H42.251C41.7085 74.066 41.2292 73.7851 40.9458 73.3587C40.7761 73.102 40.6769 72.7927 40.6769 72.4603V68.6798H66.4302V72.4617C66.4302 73.3381 65.7162 74.066 64.8618 74.066ZM66.4302 67.5608H40.6758V61.559C43.6213 61.5245 52.6447 60.861 52.6447 57.8471C52.6414 53.3225 52.6525 51.4877 52.6308 51.3324L57.5431 48.3228C57.7201 48.2142 57.8219 48.0132 57.8073 47.8026C57.7927 47.5921 57.6634 47.4085 57.4733 47.3269L40.6758 40.1153V35.4421H66.4302V67.5608V67.5608ZM40.1288 54.1322C37.0944 54.1322 31.2521 54.533 28.7141 56.2282C28.7302 51.0432 28.5382 51.3809 29.1624 50.9412C30.7391 49.7537 35.2486 48.9246 40.1288 48.9246C42.2573 48.9246 51.5506 49.5231 51.5506 51.5357V56.229C48.9887 54.518 43.1761 54.1322 40.1288 54.1322ZM40.6769 30.5426C40.6769 29.6556 41.3824 28.934 42.2496 28.934H64.8604C65.7283 28.934 66.4302 29.6657 66.4302 30.5422V34.323H40.6769V30.5426ZM40.1288 41.0941L56.0537 47.9308L52.1078 50.3461C50.0099 48.2182 43.0704 47.8055 40.1288 47.8055C37.1833 47.8055 30.2433 48.2194 28.1499 50.3467L24.2028 47.9308L40.1288 41.0941ZM28.7141 57.8471C28.7141 56.9415 32.6345 55.2513 40.1288 55.2513C47.6277 55.2513 51.5506 56.9415 51.5506 57.8471C51.5506 58.7534 47.6277 60.4436 40.1288 60.4436C32.6345 60.4436 28.7141 58.7534 28.7141 57.8471Z" fill="#FF6B09"/>
<path d="M53.555 69.5235C52.5574 69.5235 51.7458 70.3533 51.7458 71.374C51.7458 72.3947 52.5574 73.2252 53.555 73.2252C54.5529 73.2252 55.3646 72.3947 55.3646 71.374C55.3646 70.3533 54.5529 69.5235 53.555 69.5235ZM53.555 72.1062C53.1607 72.1062 52.8399 71.7776 52.8399 71.374C52.8399 70.9704 53.1607 70.6425 53.555 70.6425C53.9496 70.6425 54.2705 70.9704 54.2705 71.374C54.2705 71.7776 53.9496 72.1062 53.555 72.1062Z" fill="#FF6B09"/>
<path d="M55.6416 31.069H51.4683V32.188H55.6416V31.069Z" fill="#FF6B09"/>
</g>
<path d="M98.7679 15V1H1V103H98.7679V89" stroke="#FF6B09" stroke-width="2"/>
<defs>
<clipPath id="clip0">
<rect width="46.9286" height="47" fill="white" transform="translate(21.5312 28)"/>
</clipPath>
</defs>
</svg>
