<svg width="46" height="48" viewBox="0 0 46 48" fill="none" xmlns="http://www.w3.org/2000/svg">
<g clip-path="url(#clip0)">
<path d="M45.2258 7.44109C45.2258 7.44005 45.2248 7.43901 45.2248 7.43745C45.2149 7.41397 45.2029 7.39101 45.1888 7.36962C45.1872 7.36805 45.1862 7.36649 45.1851 7.36492C45.1705 7.34301 45.1538 7.32109 45.1345 7.30179L37.9257 0.0934448C37.9069 0.0746622 37.8865 0.0590131 37.8646 0.0444044C37.8604 0.041274 37.8552 0.0386582 37.851 0.0355278C37.8333 0.0245712 37.8156 0.0146583 37.7968 0.0063105C37.791 0.00370181 37.7858 0.00109286 37.7806 -0.000472359C37.7337 -0.019255 37.683 -0.0291673 37.6324 -0.0307325C37.6293 -0.0307325 37.6267 -0.03125 37.6246 -0.03125H5.86739C5.63209 -0.03125 5.44165 0.159707 5.44165 0.395012V44.3609C5.44165 44.3891 5.44426 44.4162 5.45 44.4444C5.45261 44.4564 5.45679 44.4674 5.46044 44.4788C5.46513 44.494 5.46878 44.5091 5.47452 44.5237C5.48026 44.5368 5.48757 44.5493 5.49487 44.5623C5.50113 44.5733 5.50635 44.5858 5.51365 44.5967C5.52826 44.6181 5.54496 44.6385 5.5627 44.6568C5.56426 44.6583 5.56478 44.6604 5.56687 44.6614L8.81366 47.9077C8.98009 48.0741 9.24931 48.0741 9.41627 47.9077L12.363 44.9625L15.3088 47.9077C15.3917 47.9912 15.5013 48.0324 15.6103 48.0324C15.7189 48.0324 15.8279 47.9912 15.9114 47.9077L18.8566 44.963L21.8034 47.9077C21.9698 48.0741 22.2396 48.0741 22.406 47.9077L25.3512 44.963L28.2964 47.9077C28.4629 48.0741 28.7326 48.0741 28.8985 47.9077L31.8463 44.9625L34.7916 47.9077C34.8745 47.9912 34.9841 48.0324 35.0926 48.0324C35.2016 48.0324 35.3107 47.9912 35.3942 47.9077L38.3394 44.963L41.2867 47.9077C41.4526 48.0741 41.7229 48.0741 41.8888 47.9077L45.1356 44.6614C45.1418 44.6552 45.1465 44.6479 45.1523 44.6411C45.1643 44.627 45.1773 44.6129 45.1877 44.5973C45.1976 44.5832 45.2044 44.567 45.2123 44.5519C45.2175 44.542 45.2232 44.5336 45.2263 44.5237C45.2352 44.5044 45.2394 44.4846 45.2446 44.4647C45.2467 44.458 45.2498 44.4517 45.2514 44.4449C45.2571 44.4157 45.2603 44.3875 45.2603 44.3578V7.60388C45.2587 7.54806 45.2477 7.49275 45.2258 7.44109ZM38.0498 1.42388L43.8036 7.17709H38.0498V1.42388ZM44.4062 44.1835L41.5862 47.0035L38.6389 44.0583C38.473 43.8924 38.2032 43.8924 38.0368 44.0583L35.0916 47.0035L32.1464 44.0583C31.9799 43.8924 31.7102 43.8924 31.5437 44.0583L28.5964 47.0035L25.6517 44.0599C25.6517 44.0594 25.6512 44.0588 25.6512 44.0583C25.5683 43.9754 25.4592 43.9336 25.3497 43.9336C25.2406 43.9336 25.1316 43.9754 25.0486 44.0583C25.0481 44.0588 25.0481 44.0588 25.0481 44.0588L22.1034 47.0035L19.1566 44.0583C18.9902 43.8924 18.721 43.8924 18.554 44.0583L15.6088 47.0035L12.663 44.0583C12.4966 43.8924 12.2274 43.8924 12.0604 44.0583L9.11366 47.0035L6.29313 44.1835V0.82023H37.1978V7.60284C37.1978 7.83814 37.3888 8.0291 37.6241 8.0291H44.4057L44.4062 44.1835Z" fill="#FF6B09"/>
<path d="M9.47069 4.85118H23.4251C23.6604 4.85118 23.8514 4.66022 23.8514 4.42492C23.8514 4.18961 23.6604 3.99866 23.4251 3.99866H9.47069C9.23486 3.99866 9.04443 4.18961 9.04443 4.42492C9.04443 4.66022 9.23486 4.85118 9.47069 4.85118Z" fill="#FF6B09"/>
<path d="M9.47069 7.48643H31.8486C32.0839 7.48643 32.2749 7.29548 32.2749 7.06017C32.2749 6.82487 32.0839 6.63391 31.8486 6.63391H9.47069C9.23486 6.63391 9.04443 6.82487 9.04443 7.06017C9.04443 7.29548 9.23486 7.48643 9.47069 7.48643Z" fill="#FF6B09"/>
<path d="M9.04443 9.85204V23.65C9.04443 23.8853 9.23486 24.0762 9.47069 24.0762H41.229C41.4643 24.0762 41.6547 23.8853 41.6547 23.65V9.85204C41.6547 9.61674 41.4643 9.42578 41.229 9.42578H9.47069C9.23486 9.42578 9.04443 9.61674 9.04443 9.85204ZM18.4623 10.2783H40.8022V13.9456H18.4623V10.2783ZM18.4623 14.7981H40.8022V18.4639H18.4623V14.7981ZM18.4623 19.3159H40.8022V23.2237H18.4623V19.3159ZM9.89695 10.2783H17.6103V13.9456H9.89695V10.2783ZM9.89695 14.7981H17.6103V18.4639H9.89695V14.7981ZM9.89695 19.3159H17.6103V23.2237H9.89695V19.3159Z" fill="#FF6B09"/>
<path d="M41.229 25.9936H9.47069C9.23486 25.9936 9.04443 26.1845 9.04443 26.4198V40.2172C9.04443 40.4525 9.23486 40.643 9.47069 40.643C9.70599 40.643 9.89643 40.4525 9.89643 40.2172V35.8837H17.6098V40.2172C17.6098 40.4525 17.8008 40.643 18.0356 40.643C18.2714 40.643 18.4618 40.4525 18.4618 40.2172V35.8837H40.8016V40.2172C40.8016 40.4525 40.9926 40.643 41.2279 40.643C41.4632 40.643 41.6536 40.4525 41.6536 40.2172V26.4198C41.6547 26.1845 41.4643 25.9936 41.229 25.9936ZM17.6103 35.0312H9.89695V31.3659H17.6103V35.0312ZM17.6103 30.5129H9.89695V26.8466H17.6103V30.5129ZM40.8022 35.0312H18.4623V31.3659H40.8022V35.0312ZM40.8022 30.5129H18.4623V26.8466H40.8022V30.5129Z" fill="#FF6B09"/>
<path d="M3.42113 -0.0317993C3.18583 -0.0317993 2.99487 0.159158 2.99487 0.394462V44.3604C2.99487 44.5952 3.18583 44.7861 3.42113 44.7861C3.65644 44.7861 3.84739 44.5952 3.84739 44.3604V0.394462C3.84739 0.159158 3.65644 -0.0317993 3.42113 -0.0317993Z" fill="#FF6B09"/>
<path d="M1.07738 -0.0317993C0.84208 -0.0317993 0.651123 0.159158 0.651123 0.394462V44.3604C0.651123 44.5952 0.84208 44.7861 1.07738 44.7861C1.31269 44.7861 1.50312 44.5952 1.50312 44.3604V0.394462C1.50312 0.159158 1.31269 -0.0317993 1.07738 -0.0317993Z" fill="#FF6B09"/>
</g>
<defs>
<clipPath id="clip0">
<rect width="45.3913" height="48" fill="white"/>
</clipPath>
</defs>
</svg>
