<svg aria-hidden="true" style="position: absolute; width: 0; height: 0; overflow: hidden;" version="1.1" xmlns="http://www.w3.org/2000/svg" xmlns:xlink="http://www.w3.org/1999/xlink">
<defs>
<symbol id="icon-right-arrow" viewBox="0 0 32 32">
<path fill="#ff9800" style="fill: var(--color1, #ff9800)" d="M19.138 2.862c-1.365-1.365-3.578-1.365-4.943 0s-1.365 3.578 0 4.943l4.861 4.863h-15.724c-1.841 0-3.333 1.492-3.333 3.333s1.492 3.333 3.333 3.333h15.724l-4.861 4.861c-1.365 1.365-1.365 3.578 0 4.943s3.578 1.365 4.943 0l12.666-12.666c0.26-0.26 0.26-0.682 0-0.943l-12.666-12.666z"></path>
</symbol>
<symbol id="icon-move-to-next" viewBox="0 0 32 32">
<path d="M10.261 32c-0.982 0-1.964-0.362-2.732-1.091-1.587-1.509-1.65-4.019-0.142-5.607l8.871-9.33-8.862-9.266c-1.514-1.582-1.458-4.092 0.124-5.607s4.093-1.458 5.607 0.124l11.477 11.997c1.463 1.53 1.466 3.939 0.009 5.474l-11.476 12.072c-0.781 0.818-1.826 1.233-2.876 1.233z"></path>
</symbol>
</defs>
</svg>
