<?xml version="1.0" encoding="iso-8859-1"?>
<!-- Generator: Adobe Illustrator 19.0.0, SVG Export Plug-In . SVG Version: 6.00 Build 0)  -->
<svg version="1.1" id="Layer_1" xmlns="http://www.w3.org/2000/svg" xmlns:xlink="http://www.w3.org/1999/xlink" x="0px" y="0px"
	 viewBox="0 0 511.997 511.997" style="enable-background:new 0 0 511.997 511.997;" xml:space="preserve">
<g>
	<g>
		<path d="M157.897,185.906c-3.217-2.609-7.939-2.117-10.549,1.101c-3.03,3.736-7.047,5.793-11.313,5.793
			c-4.266,0-8.283-2.058-11.313-5.793c-2.609-3.217-7.333-3.709-10.549-1.101c-3.217,2.609-3.71,7.332-1.101,10.549
			c5.847,7.21,14.217,11.345,22.963,11.345c8.746,0,17.115-4.135,22.963-11.345C161.607,193.238,161.114,188.515,157.897,185.906z"
			/>
	</g>
</g>
<g>
	<g>
		<path d="M101.759,141.386c-4.142,0-7.5,3.358-7.5,7.5v8.569c0,4.142,3.358,7.5,7.5,7.5c4.142,0,7.5-3.358,7.5-7.5v-8.569
			C109.259,144.744,105.901,141.386,101.759,141.386z"/>
	</g>
</g>
<g>
	<g>
		<path d="M170.311,141.386c-4.142,0-7.5,3.358-7.5,7.5v8.569c0,4.142,3.357,7.5,7.5,7.5c4.142,0,7.5-3.358,7.5-7.5v-8.569
			C177.811,144.744,174.453,141.386,170.311,141.386z"/>
	</g>
</g>
<g>
	<g>
		<path d="M406.397,228.75c-3.217-2.609-7.94-2.117-10.549,1.101c-3.03,3.735-7.048,5.793-11.313,5.793
			c-4.266,0-8.283-2.058-11.313-5.793c-2.608-3.217-7.332-3.71-10.549-1.101c-3.217,2.609-3.709,7.332-1.1,10.549
			c5.846,7.211,14.216,11.345,22.962,11.345c8.746,0,17.115-4.135,22.962-11.345C410.106,236.082,409.614,231.359,406.397,228.75z"
			/>
	</g>
</g>
<g>
	<g>
		<path d="M350.259,184.231c-4.142,0-7.5,3.358-7.5,7.5v8.569c0,4.142,3.358,7.5,7.5,7.5c4.142,0,7.5-3.358,7.5-7.5v-8.569
			C357.759,187.589,354.401,184.231,350.259,184.231z"/>
	</g>
</g>
<g>
	<g>
		<path d="M418.811,184.231c-4.142,0-7.5,3.358-7.5,7.5v8.569c0,4.142,3.357,7.5,7.5,7.5c4.142,0,7.5-3.358,7.5-7.5v-8.569
			C426.311,187.589,422.953,184.231,418.811,184.231z"/>
	</g>
</g>
<g>
	<g>
		<path d="M491.126,332.545l-58.757-23.503c-0.318-0.127-0.612-0.289-0.91-0.445c40.583-9.234,59.803-24.676,60.656-25.375
			c2.029-1.663,3.042-4.265,2.671-6.862c-0.085-0.594-8.494-60.135-8.494-118.904c0-56.11-45.649-101.759-101.759-101.759
			c-56.11,0-101.758,45.648-101.758,101.759c0,15.374-0.698,34.178-1.834,51.979l-16.373,8.187l-48.06-24.029
			c-0.138-0.069-0.283-0.119-0.424-0.179c2.286-6.663,3.781-13.689,4.33-20.98c10.053-3.106,17.378-12.487,17.378-23.547
			c0-7.449-3.328-14.131-8.569-18.653v-49.9c0-13.785-6.965-26.683-18.387-34.433c-3.87-14.38-16.79-24.481-31.958-24.481h-68.552
			c-37.21,0-67.483,30.273-67.483,67.483v41.33c-5.241,4.521-8.569,11.204-8.569,18.653c0,11.06,7.325,20.441,17.378,23.547
			c1.894,25.179,14.87,47.302,34.036,61.54v20.73L23.664,273.31C9.51,277.557,0,290.338,0,305.116v83.701c0,4.142,3.358,7.5,7.5,7.5
			h1.069v86.759c0,4.142,3.358,7.5,7.5,7.5c4.142,0,7.5-3.358,7.5-7.5v-86.759h27.845v86.759c0,4.142,3.358,7.5,7.5,7.5
			c4.142,0,7.5-3.358,7.5-7.5v-129.32c0-6.578-1.929-12.948-5.577-18.42l-12.82-19.23c-2.298-3.447-6.955-4.377-10.4-2.081
			c-3.447,2.297-4.378,6.954-2.08,10.401l12.82,19.231c2,3,3.058,6.492,3.058,10.099v27.561H16.069H15v-76.201
			c0-8.103,5.214-15.11,12.976-17.439l25.747-7.724c8.966,37.542,43.017,64.95,82.312,64.95c14.117,0,27.827-3.481,40.104-10.105
			c4.487,6.121,11.724,10.105,19.878,10.105h1.069v1.069c0,25.143,13.832,47.103,34.276,58.712v12.233
			c0,0.46-0.294,0.868-0.731,1.014l-27.977,9.326c-13.581,4.527-22.706,17.187-22.706,31.503v24.316c0,4.142,3.358,7.5,7.5,7.5
			c4.142,0,7.5-3.358,7.5-7.5V458.76c0-7.849,5.003-14.791,12.449-17.272l8.227-2.743c10.884,16.232,29.189,26.125,48.944,26.125
			c19.776,0,38.064-9.887,48.946-26.124l8.225,2.742c7.446,2.482,12.449,9.423,12.449,17.272v24.316c0,4.142,3.358,7.5,7.5,7.5
			c4.142,0,7.5-3.358,7.5-7.5V458.76c0-14.316-9.125-26.976-22.706-31.502l-27.977-9.326c-0.437-0.146-0.731-0.553-0.731-1.014
			v-12.233c15.307-8.692,26.893-23.188,31.753-40.481c14.173,14.83,33.968,23.546,55.005,23.546
			c33.212,0,62.353-21.469,72.391-52.728l28.629,11.451c6.953,2.781,11.445,9.417,11.445,16.904v35.079h-1.069h-26.776v-9.638
			c0-4.142-3.358-7.5-7.5-7.5c-4.142,0-7.5,3.358-7.5,7.5v94.259c0,4.142,3.358,7.5,7.5,7.5c4.142,0,7.5-3.358,7.5-7.5v-69.621
			h19.276v69.621c0,4.142,3.358,7.5,7.5,7.5c4.142,0,7.5-3.358,7.5-7.5v-69.621h1.069c1.989,0,3.896-0.79,5.303-2.196
			c1.407-1.407,2.197-3.314,2.197-5.304v-42.579C512,349.719,503.807,337.617,491.126,332.545z M297.776,157.455
			c0-47.839,38.92-86.759,86.759-86.759c47.839,0,86.758,38.92,86.758,86.759c0,50.363,6.065,101.274,8.036,116.479
			c-6.721,4.397-23.929,14.081-53.018,20.445v-11.935c3.984-2.258,7.798-4.835,11.384-7.733
			c14.758-11.929,25.187-28.636,29.363-47.042c1.392-6.133,2.098-12.458,2.098-18.799c0-42.391-30.657-48.477-60.305-54.363
			c-18.865-3.745-38.372-7.618-53.906-20.045c-2.251-1.801-5.335-2.152-7.934-0.903c-2.599,1.249-4.251,3.876-4.251,6.76
			c0,0.199-0.327,19.933-28.595,27c-4.019,1.005-6.462,5.077-5.457,9.096c1.004,4.019,5.077,6.46,9.095,5.457
			c23.66-5.915,33.312-19.188,37.248-29.16c16.264,9.638,34.483,13.254,50.879,16.509c31.689,6.291,48.226,10.912,48.226,39.65
			c0,5.226-0.581,10.434-1.726,15.48c-3.435,15.134-12.016,28.876-24.165,38.696c-12.5,10.104-27.622,15.444-43.73,15.444
			c-14.684,0-28.659-4.504-40.519-13.015c-4.345-11.859-11.324-22.709-20.533-31.649v-33.525c0-2.6-1.346-5.014-3.557-6.38
			c-2.211-1.366-4.971-1.491-7.297-0.328l-16.193,8.096C297.324,186.071,297.776,171.221,297.776,157.455z M308.483,212.435v27.143
			l-27.144-13.571L308.483,212.435z M220.655,212.435l27.143,13.572l-27.143,13.571V212.435z M179.948,294.558v7.123
			c-5.37,4.637-8.569,11.423-8.569,18.583c-10.682,6.311-22.817,9.639-35.345,9.639c-32.624,0-60.849-22.958-67.91-54.27
			l18.529-5.559c4.571,23.088,24.972,40.553,49.382,40.553c19.383,0,36.231-11.017,44.641-27.112
			C180.195,287.157,179.948,290.845,179.948,294.558z M100.69,260.27v-17.373c10.762,4.97,22.734,7.747,35.345,7.747
			c12.61,0,24.583-2.778,35.345-7.746v17.383c0,19.489-15.855,35.345-35.345,35.345c-19.457,0-35.29-15.804-35.343-35.249
			C100.692,260.341,100.69,260.305,100.69,260.27z M136.035,235.644c-38.39,0-69.621-31.231-69.621-69.62c0-4.142-3.358-7.5-7.5-7.5
			c-5.314,0-9.638-4.324-9.638-9.638c0-5.314,4.323-9.638,9.638-9.638h17.138c3.228,0,6.094-2.065,7.115-5.128l6.884-20.652
			c17.235-0.389,70.664-2.812,100.751-17.856c3.705-1.853,5.207-6.357,3.354-10.062c-1.852-3.705-6.356-5.207-10.062-3.354
			c-32.281,16.14-98.807,16.346-99.475,16.346c-3.228,0.001-6.094,2.066-7.114,5.129l-6.859,20.578H58.914
			c-0.358,0-0.714,0.012-1.069,0.027V88.903c0-28.939,23.544-52.483,52.483-52.483h68.552c8.956,0,16.48,6.455,17.893,15.347
			c0.359,2.26,1.73,4.232,3.723,5.356c8.468,4.776,13.729,13.669,13.729,23.21v43.941c-0.355-0.016-0.71-0.027-1.069-0.027h-8.569
			c-4.142,0-7.5,3.358-7.5,7.5c0,4.142,3.358,7.5,7.5,7.5h8.569c5.314,0,9.638,4.323,9.638,9.638s-4.323,9.638-9.638,9.638
			c-4.142,0-7.5,3.358-7.5,7.5C205.656,204.412,174.425,235.644,136.035,235.644z M186.379,260.283v-26.31
			c7.461-5.543,13.982-12.276,19.276-19.928v19.781c-8.399,8.154-14.946,17.895-19.329,28.543
			C186.355,261.676,186.379,260.982,186.379,260.283z M298.548,433.756c-8.257,10.087-20.661,16.113-33.979,16.113
			c-13.302,0-25.714-6.03-33.974-16.114l4.78-1.593c6.572-2.19,10.988-8.317,10.988-15.244v-5.978
			c5.796,1.627,11.898,2.516,18.207,2.516c6.309,0,12.411-0.889,18.207-2.516v5.978c-0.001,6.926,4.414,13.053,10.987,15.243
			L298.548,433.756z M324.553,329.903c-4.142,0-7.5,3.358-7.5,7.5v7.457c0,0.065-0.001,0.13,0,0.195v0.917
			c-0.001,28.939-23.545,52.483-52.484,52.483c-28.939,0-52.482-23.544-52.482-52.483v-8.569c0-4.142-3.358-7.5-7.5-7.5h-8.569
			c-5.314,0-9.638-4.323-9.638-9.638c0-3.42,1.81-6.515,4.841-8.279c0.677-0.394,1.266-0.893,1.776-1.457
			c18.54-0.537,78.639-4.026,118.138-26.597c3.596-2.055,4.846-6.636,2.791-10.233c-2.055-3.597-6.638-4.846-10.233-2.791
			c-34.602,19.772-88.974,23.731-108.744,24.522v-0.872c0-13.949,4.224-27.458,11.878-38.847c0.599,0.949,1.4,1.773,2.386,2.382
			c1.205,0.744,2.572,1.12,3.943,1.12c1.146,0,2.295-0.263,3.354-0.792l48.06-24.03l48.06,24.03
			c1.059,0.529,2.208,0.792,3.354,0.792c1.372,0,2.739-0.376,3.943-1.12c0.985-0.609,1.786-1.434,2.385-2.382
			c7.654,11.389,11.878,24.898,11.878,38.847v10.946c0,2.67,1.419,5.139,3.728,6.482c3.032,1.765,4.842,4.859,4.842,8.279
			c0,5.314-4.324,9.638-9.638,9.638H324.553z M384.535,372.748c-20.764,0-40.028-10.571-51.242-27.849
			c13.506-0.093,24.466-11.106,24.466-24.633c0-7.16-3.199-13.947-8.569-18.584v-7.123c0-3.019-0.163-6.021-0.482-8.995
			c11.121,5.214,23.263,7.925,35.827,7.925c9.145,0,18.189-1.515,26.776-4.379v10.983c0,10.133,6.079,19.113,15.487,22.876
			l16.173,6.469C435.22,355.066,411.55,372.748,384.535,372.748z"/>
	</g>
</g>
<g>
	<g>
		<path d="M286.432,357.285c-3.217-2.609-7.94-2.117-10.549,1.101c-3.031,3.736-7.048,5.793-11.313,5.793
			c-4.265,0-8.283-2.057-11.313-5.793c-2.609-3.217-7.333-3.71-10.549-1.101c-3.217,2.609-3.71,7.332-1.101,10.549
			c5.848,7.209,14.217,11.345,22.963,11.345c8.746,0,17.115-4.135,22.963-11.344C290.141,364.618,289.648,359.894,286.432,357.285z"
			/>
	</g>
</g>
<g>
	<g>
		<circle cx="239" cy="328.868" r="7.5"/>
	</g>
</g>
<g>
	<g>
		<circle cx="290" cy="328.868" r="7.5"/>
	</g>
</g>
<g>
</g>
<g>
</g>
<g>
</g>
<g>
</g>
<g>
</g>
<g>
</g>
<g>
</g>
<g>
</g>
<g>
</g>
<g>
</g>
<g>
</g>
<g>
</g>
<g>
</g>
<g>
</g>
<g>
</g>
</svg>
