<svg width="82" height="83" viewBox="0 0 82 83" fill="none" xmlns="http://www.w3.org/2000/svg">
<path d="M23.0083 69.225H25.6045V71.8559H23.0083V69.225Z" fill="#5C5C5C"/>
<path d="M23.0083 74.4875H25.6045V77.1184H23.0083V74.4875Z" fill="#5C5C5C"/>
<path d="M63.2526 42.9174C58.9571 42.9174 55.4639 46.4572 55.4639 50.81C55.4639 55.1628 58.9571 58.7026 63.2526 58.7026C67.5481 58.7026 71.0414 55.1628 71.0414 50.81C71.0414 46.4572 67.5481 42.9174 63.2526 42.9174ZM63.2526 56.0717C60.389 56.0717 58.0601 53.7118 58.0601 50.81C58.0601 47.9081 60.389 45.5483 63.2526 45.5483C66.1163 45.5483 68.4451 47.9081 68.4451 50.81C68.4451 53.7118 66.1163 56.0717 63.2526 56.0717Z" fill="#5C5C5C"/>
<path d="M81.4232 0.823486H11.3244V27.1321C9.89262 27.1321 8.7282 28.3121 8.7282 29.763H7.43008C5.28298 29.763 3.5357 31.5336 3.5357 33.7093V40.7271C1.75987 41.986 0.939453 45.6061 0.939453 46.8636C0.939453 49.0394 2.68673 50.8099 4.83383 50.8099C6.98092 50.8099 8.7282 49.0394 8.7282 46.8636C8.7282 45.6061 7.90778 41.986 6.13195 40.7271V33.7093C6.13195 32.9845 6.71481 32.3939 7.43008 32.3939H8.7282C8.7282 33.8448 9.89262 35.0247 11.3244 35.0247V39.8616L12.1397 40.1918C12.2007 40.2167 12.5888 40.3707 13.1937 40.589C12.8186 41.7611 12.6226 42.9792 12.6226 44.2328C12.6226 48.4829 14.8515 52.2056 18.1798 54.2945C8.26217 57.0319 0.939453 66.2136 0.939453 77.1186V82.3803H47.6719V77.1186C47.6719 66.2136 40.3492 57.0319 30.4315 54.2945C30.8482 54.0327 31.252 53.7526 31.6323 53.4408H50.5291C51.2833 57.1898 53.6212 60.3547 56.7952 62.2068L55.253 77.8289L63.2494 74.589L71.2446 77.8289L69.7024 62.2068C72.8763 60.3534 75.2142 57.1898 75.9685 53.4408H81.4232V0.823486ZM4.83383 48.1791C4.11856 48.1791 3.5357 47.5884 3.5357 46.8636C3.5357 45.7771 4.27693 43.6592 4.83383 43.0278C5.39072 43.6579 6.13195 45.7771 6.13195 46.8636C6.13195 47.5884 5.54909 48.1791 4.83383 48.1791ZM11.3231 29.763H11.3244H37.2869V32.3939H11.3244L11.3231 29.763ZM34.6907 35.0247V38.0581C32.8292 38.7343 28.1391 40.2865 24.3057 40.2865C20.4723 40.2865 15.7822 38.7343 13.9207 38.0581V35.0247H34.6907ZM24.3057 63.5262L28.422 69.0879L32.0944 61.6451V79.7494H16.5169V61.6451L20.1893 69.0879L24.3057 63.5262ZM37.2869 79.7494H34.6907V58.9196C35.6007 59.455 36.4704 60.0508 37.2869 60.7151V79.7494ZM31.03 57.2253C31.1273 57.2595 31.2221 57.2976 31.3195 57.3332L27.9794 64.1037L26.075 61.5307L31.03 57.2253ZM11.3244 60.7151C12.141 60.0508 13.0107 59.455 13.9207 58.9196V79.7494H11.3244V60.7151ZM20.6333 64.1024L17.2932 57.3318C17.3893 57.2963 17.4853 57.2582 17.5827 57.224L22.5376 61.5281L20.6333 64.1024ZM3.5357 77.1186C3.5357 71.8016 5.50755 66.9529 8.7282 63.2447V79.7494H3.5357V77.1186ZM45.0757 77.1186V79.7494H39.8832V63.2447C43.1038 66.9529 45.0757 71.8016 45.0757 77.1186ZM27.9677 56.4202L24.3057 59.601L20.6437 56.4202C21.8341 56.2032 23.0543 56.0717 24.3057 56.0717C25.5571 56.0717 26.7773 56.2032 27.9677 56.4202ZM24.3057 53.4408C19.2949 53.4408 15.2188 49.3103 15.2188 44.2328C15.2188 43.2593 15.372 42.3135 15.6615 41.4046C18.076 42.1333 21.3577 42.9173 24.3057 42.9173C27.2537 42.9173 30.5354 42.1333 32.9499 41.4059C33.2394 42.3135 33.3926 43.2593 33.3926 44.2328C33.3926 49.3103 29.3165 53.4408 24.3057 53.4408ZM68.2355 73.7761L63.2494 71.7556L58.2633 73.7774L59.294 63.3355C60.5415 63.7406 61.8695 63.9643 63.2494 63.9643C64.6293 63.9643 65.9573 63.7406 67.2048 63.3355L68.2355 73.7761ZM63.2494 61.3334C57.5234 61.3334 52.8644 56.6123 52.8644 50.8099C52.8644 45.0076 57.5234 40.2865 63.2494 40.2865C68.9755 40.2865 73.6344 45.0076 73.6344 50.8099C73.6344 56.6123 68.9755 61.3334 63.2494 61.3334ZM78.8269 50.8099H76.2307C76.2307 43.5566 70.4073 37.6556 63.2494 37.6556C56.0916 37.6556 50.2682 43.5566 50.2682 50.8099H34.0131C35.2593 48.9275 35.9888 46.665 35.9888 44.2328C35.9888 42.9792 35.7915 41.7598 35.4176 40.5903C36.0226 40.372 36.4094 40.2181 36.4717 40.1931L37.2869 39.8616V35.0247C38.7188 35.0247 39.8832 33.8448 39.8832 32.3939V29.763C39.8832 28.3121 38.7188 27.1321 37.2869 27.1321H13.9207V3.45435H78.8269V50.8099Z" fill="#5C5C5C"/>
<path d="M76.2323 6.08401H16.5186V19.2383H76.2323V6.08401ZM73.636 16.6075H19.1148V8.71488H73.636V16.6075Z" fill="#5C5C5C"/>
<path d="M16.5186 21.8698H19.1148V24.5007H16.5186V21.8698Z" fill="#5C5C5C"/>
<path d="M21.7122 21.8698H76.2334V24.5007H21.7122V21.8698Z" fill="#5C5C5C"/>
<path d="M42.481 27.1316H71.0397V29.7624H42.481V27.1316Z" fill="#5C5C5C"/>
<path d="M42.481 32.3932H76.2322V35.0241H42.481V32.3932Z" fill="#5C5C5C"/>
<path d="M42.481 37.6549H45.0772V40.2858H42.481V37.6549Z" fill="#5C5C5C"/>
<path d="M47.6748 37.6549H50.2711V40.2858H47.6748V37.6549Z" fill="#5C5C5C"/>
</svg>
