<svg width="83" height="85" viewBox="0 0 83 85" fill="none" xmlns="http://www.w3.org/2000/svg">
<path d="M9.50931 7.51216L40.9323 11.7216C40.9911 11.7286 41.0498 11.7328 41.1086 11.7328C41.1673 11.7328 41.2261 11.7285 41.2849 11.7216L71.1654 7.71835V12.5901C70.3088 13.5793 68.4329 16.0474 68.4329 18.7485C68.4329 21.8368 70.8839 22.9579 72.5316 22.9579C74.1792 22.9579 76.6302 21.8368 76.6302 18.7485C76.6302 16.0474 74.7544 13.5793 73.8977 12.5901V6.12026C73.8977 5.93511 73.8595 5.75966 73.7953 5.59687C73.772 5.53932 73.7323 5.49443 73.7024 5.44116C73.6491 5.34299 73.5958 5.24614 73.5221 5.16475C73.4743 5.11279 73.4169 5.07777 73.3623 5.03567C73.2845 4.97105 73.208 4.90939 73.1179 4.8645C73.0509 4.83079 72.9799 4.81682 72.9075 4.79577C72.8406 4.77472 72.7804 4.73822 72.708 4.72835L41.285 0.518936C41.1675 0.504959 41.05 0.504959 40.9325 0.518936L9.50947 4.72835C8.82903 4.81961 8.31958 5.41584 8.31958 6.12026C8.31926 6.82468 8.82887 7.42106 9.50931 7.51216ZM73.8976 18.7485C73.8976 19.8683 73.1584 20.1305 72.5314 20.1516C71.9043 20.1305 71.1652 19.8681 71.1652 18.7485C71.1652 17.5838 71.862 16.2845 72.5314 15.3262C73.2008 16.2847 73.8976 17.584 73.8976 18.7485ZM41.1084 3.32527L61.9691 6.12026L41.1084 8.91541L20.2478 6.12026L41.1084 3.32527Z" fill="#5C5C5C"/>
<path d="M49.3038 42.6014C52.0635 42.6014 54.3301 40.4812 54.6935 37.7466L59.687 33.9021C60.2909 33.4375 60.4138 32.5578 59.9603 31.9376C59.508 31.3174 58.6514 31.1898 58.0475 31.6569L54.5651 34.3398C54.0446 32.6294 52.5062 31.3764 50.6699 31.3764H45.2051C42.9454 31.3764 41.1065 33.2651 41.1065 35.5858C41.1065 33.2651 39.2676 31.3764 37.0079 31.3764H31.5431C29.7068 31.3764 28.1686 32.6294 27.6479 34.3398L24.1655 31.6569C23.563 31.1924 22.705 31.3187 22.2528 31.9376C21.7992 32.5578 21.9221 33.4375 22.5261 33.9021L27.5195 37.7466C27.8829 40.4812 30.1481 42.6014 32.9092 42.6014H35.6417C38.6556 42.6014 41.1065 40.0842 41.1065 36.9889C41.1065 40.0843 43.5575 42.6014 46.5713 42.6014H49.3038ZM38.374 36.9889C38.374 38.5365 37.1472 39.7952 35.6415 39.7952H32.9091C31.4022 39.7952 30.1766 38.5367 30.1766 36.9889V35.5858C30.1766 34.8127 30.7887 34.1827 31.5427 34.1827H37.0075C37.7616 34.1827 38.3737 34.8127 38.3737 35.5858V36.9889H38.374ZM43.839 36.9889V35.5858C43.839 34.8127 44.4511 34.1827 45.2051 34.1827H50.6699C51.424 34.1827 52.0361 34.8127 52.0361 35.5858V36.9889C52.0361 38.5365 50.8107 39.7952 49.3036 39.7952H46.5711C45.0644 39.7951 43.839 38.5365 43.839 36.9889Z" fill="#5C5C5C"/>
<path d="M62.9098 71.7242C62.8838 71.6246 62.8428 71.5348 62.7977 71.4422C62.7718 71.3931 62.7663 71.337 62.7362 71.2893C62.7212 71.2683 62.6994 71.2571 62.6843 71.236C62.627 71.1589 62.5559 71.0958 62.4821 71.0312C62.4165 70.9695 62.3523 70.9092 62.2745 70.8641C62.2513 70.8486 62.2377 70.8263 62.2116 70.8121L56.7468 68.0073C56.3068 67.7814 55.7849 67.8151 55.3779 68.0943L47.1791 73.7068C46.7994 73.9664 46.5712 74.4056 46.5712 74.8742V79.8497C45.7584 80.5176 43.7624 81.8898 41.1064 81.8898C38.4764 81.8898 36.4613 80.5106 35.6416 79.8454V74.8741C35.6416 74.4054 35.4135 73.9662 35.0337 73.7066L26.8364 68.0941C26.4293 67.8149 25.9073 67.7812 25.4675 68.0071L20.0027 70.812C19.9781 70.8246 19.9645 70.847 19.9427 70.8611C19.8607 70.9088 19.7924 70.972 19.7227 71.0379C19.6543 71.0997 19.5861 71.1586 19.5328 71.2316C19.5165 71.2541 19.4918 71.2666 19.4768 71.2892C19.444 71.3396 19.4385 71.3972 19.4126 71.4505C19.3702 71.5389 19.3292 71.6244 19.3047 71.7198C19.2827 71.8083 19.2773 71.8924 19.2719 71.9822C19.2664 72.0707 19.2623 72.1562 19.2733 72.246C19.2842 72.3441 19.3157 72.4339 19.3471 72.5267C19.3662 72.5827 19.3649 72.6418 19.3908 72.695C19.4031 72.7204 19.4264 72.7356 19.44 72.7597C19.4851 72.841 19.5466 72.9098 19.6094 72.9813C19.6708 73.0515 19.7282 73.1216 19.7992 73.1778C19.8212 73.1946 19.8333 73.2199 19.8553 73.2354L28.0526 78.8479C28.2862 79.0078 28.5498 79.0836 28.8094 79.0836C29.2506 79.0836 29.6851 78.8648 29.9474 78.4593C30.3669 77.8139 30.1975 76.9424 29.5689 76.5131L23.3294 72.242L25.9799 70.881L32.9093 75.625V80.4869C32.9093 80.8587 33.0528 81.2165 33.3096 81.4789C33.438 81.6108 36.4956 84.6963 41.1066 84.6963C45.7176 84.6963 48.7752 81.6108 48.9036 81.4789C49.1591 81.2165 49.3039 80.8587 49.3039 80.4869V75.625L56.2347 70.881L58.8838 72.2407L52.6443 76.5133C52.0159 76.9426 51.8465 77.8139 52.2658 78.4595C52.528 78.865 52.9626 79.0838 53.4038 79.0838C53.6633 79.0838 53.927 79.008 54.1606 78.848L62.3579 73.2355C62.3798 73.2201 62.3907 73.1962 62.4112 73.1808C62.4877 73.1219 62.5478 73.0489 62.612 72.9746C62.6693 72.9044 62.7281 72.8412 62.7718 72.7626C62.7854 72.7373 62.81 72.722 62.8224 72.6952C62.851 72.6376 62.851 72.576 62.8702 72.517C62.8989 72.4285 62.929 72.3443 62.9399 72.2517C62.9522 72.1564 62.948 72.0666 62.9413 71.9725C62.9357 71.8885 62.9315 71.8084 62.9098 71.7242Z" fill="#5C5C5C"/>
<path d="M68.532 66.9774C68.7465 67.5247 69.2588 67.8586 69.8011 67.8586C69.9705 67.8586 70.1413 67.8264 70.308 67.7577C71.0089 67.4714 71.349 66.6548 71.0704 65.9349C71.043 65.8675 68.4349 59.0751 68.4349 52.4242V41.199C68.4349 29.2443 62.4687 26.0436 62.2146 25.9133C61.7924 25.6957 61.2883 25.7168 60.8867 25.9736C60.4837 26.2304 60.2378 26.6808 60.2378 27.1677V32.7802C60.2378 38.0869 56.2841 48.9879 54.9165 51.7969C53.691 54.3155 47.2069 62.2461 41.1109 62.2461C35.015 62.2461 28.5308 54.3156 27.3039 51.7969C25.9378 48.9878 21.9839 38.0869 21.9839 32.7802V27.1677C21.9839 26.6808 21.7379 26.2304 21.335 25.9736C20.932 25.7168 20.4291 25.6957 20.0071 25.9133C19.753 26.0438 13.7867 29.2443 13.7867 41.199V52.4242C13.7867 59.0751 11.1787 65.8677 11.1513 65.9349C10.8725 66.6548 11.2128 67.4714 11.9137 67.7577C12.6119 68.0439 13.4097 67.696 13.6897 66.9774C13.8045 66.68 16.5191 59.6277 16.5191 52.424V41.1989C16.5191 35.5091 17.9632 32.2034 19.2515 30.3849V32.78C19.2515 38.8023 23.5537 50.3683 24.8598 53.0512C26.5225 56.4664 33.799 65.0523 41.1109 65.0523C48.4228 65.0523 55.6994 56.4664 57.3606 53.0512C58.668 50.3683 62.9703 38.8023 62.9703 32.78V30.3877C64.2614 32.2076 65.7028 35.512 65.7028 41.1989V52.424C65.7025 59.6277 68.4172 66.68 68.532 66.9774Z" fill="#5C5C5C"/>
<path d="M44.2588 51.4162C44.2151 51.4568 43.185 52.4236 41.1098 52.4236C39.0646 52.4236 38.0343 51.4849 37.9634 51.4176C37.432 50.8831 36.5753 50.8872 36.0452 51.4316C35.511 51.9803 35.511 52.8671 36.0452 53.4156C36.2255 53.6008 37.9032 55.23 41.1098 55.23C44.3163 55.23 45.994 53.601 46.1743 53.4156C46.7017 52.874 46.7003 52.007 46.1825 51.4568C45.662 50.9069 44.804 50.8915 44.2588 51.4162Z" fill="#5C5C5C"/>
<path d="M82.0238 82.849C81.9036 82.4758 78.9224 73.6654 67.3971 70.7063C66.6648 70.5154 65.9243 70.9757 65.7413 71.7265C65.5583 72.4786 66.0035 73.2404 66.7359 73.4285C76.7462 75.999 79.3296 83.4273 79.4335 83.736C79.6234 84.324 80.1562 84.6957 80.7287 84.6957C80.8707 84.6957 81.0171 84.6732 81.1605 84.6242C81.8763 84.3784 82.263 83.5844 82.0238 82.849Z" fill="#5C5C5C"/>
<path d="M62.9695 21.5543V11.7323C62.9695 10.9579 62.3589 10.3293 61.6033 10.3293C60.8478 10.3293 60.2372 10.9579 60.2372 11.7323V20.6464C57.9775 21.6301 50.8266 24.3606 41.1101 24.3606C31.3936 24.3606 24.2428 21.6301 21.9831 20.6464V11.7323C21.9831 10.9579 21.3724 10.3293 20.6169 10.3293C19.8614 10.3293 19.2507 10.9579 19.2507 11.7323V21.5543C19.2507 22.086 19.5431 22.5716 20.0063 22.81C20.3532 22.9868 28.6353 27.1668 41.1101 27.1668C53.5849 27.1668 61.867 22.9868 62.214 22.81C62.6772 22.5716 62.9695 22.086 62.9695 21.5543Z" fill="#5C5C5C"/>
<path d="M14.8205 70.7063C3.29512 73.6656 0.313995 82.4759 0.193758 82.849C-0.0452762 83.5842 0.341373 84.3784 1.05719 84.624C1.20065 84.6732 1.34554 84.6956 1.48899 84.6956C2.06136 84.6956 2.59419 84.3238 2.78423 83.7358C2.81017 83.6587 5.39647 76.0171 15.4819 73.4283C16.2142 73.2404 16.6596 72.4784 16.4764 71.7263C16.2933 70.9757 15.5513 70.5154 14.8205 70.7063Z" fill="#5C5C5C"/>
</svg>
