<?xml version="1.0" standalone="no"?>
<!DOCTYPE svg PUBLIC "-//W3C//DTD SVG 20010904//EN"
 "http://www.w3.org/TR/2001/REC-SVG-20010904/DTD/svg10.dtd">
<svg version="1.0" xmlns="http://www.w3.org/2000/svg"
 width="157.000000pt" height="157.000000pt" viewBox="0 0 157.000000 157.000000"
 preserveAspectRatio="xMidYMid meet">
<metadata>
Created by potrace 1.14, written by Peter Selinger 2001-2017
</metadata>
<g transform="translate(0.000000,157.000000) scale(0.100000,-0.100000)"
fill="#000000" stroke="none">
<path d="M615 1484 c-33 -8 -96 -32 -140 -54 -203 -99 -339 -277 -387 -507
-61 -299 89 -617 361 -762 31 -16 99 -42 150 -57 84 -24 104 -26 214 -22 105
4 134 9 208 37 47 17 107 46 135 64 27 19 67 45 89 60 22 14 50 33 62 42 34
24 141 233 163 321 25 96 27 272 5 359 -60 234 -241 426 -475 505 -86 29 -295
37 -385 14z m175 -35 c68 -50 117 -66 230 -78 99 -11 109 -14 170 -55 107 -71
166 -131 202 -203 31 -63 32 -71 34 -200 2 -74 8 -150 14 -169 17 -51 4 -114
-40 -201 -22 -41 -46 -98 -55 -126 -9 -29 -32 -71 -53 -94 -30 -35 -49 -46
-97 -58 -33 -9 -77 -27 -97 -40 -21 -14 -40 -25 -43 -25 -3 0 -50 -20 -104
-45 -116 -53 -157 -56 -265 -20 -41 14 -84 25 -96 25 -36 0 -95 37 -223 139
-123 98 -157 139 -157 193 -1 30 -30 93 -74 159 -33 49 -36 60 -36 127 0 61 4
80 29 125 16 28 35 78 41 110 13 65 55 121 122 163 25 16 38 33 43 56 4 18 9
41 12 52 3 12 46 38 118 72 63 30 117 54 122 55 4 0 31 15 58 34 63 42 91 43
145 4z m156 12 c73 -19 191 -68 183 -76 -7 -6 -170 12 -215 24 -46 13 -104 47
-104 61 0 15 57 12 136 -9z m-332 -11 c-14 -14 -206 -91 -199 -79 7 11 94 56
145 75 43 16 68 18 54 4z m-303 -212 c-5 -14 -37 -47 -71 -73 l-62 -48 28 44
c15 24 46 66 68 93 33 39 42 45 44 29 2 -11 -1 -31 -7 -45z m-171 -257 c-7
-28 -16 -54 -21 -57 -13 -8 -11 7 8 65 20 64 29 59 13 -8z m1329 -156 c0 -53
-3 -73 -9 -60 -5 11 -9 56 -9 100 0 53 3 73 9 60 5 -11 9 -56 9 -100z m-1282
-322 c8 -31 12 -57 10 -60 -12 -11 -77 137 -77 176 0 30 53 -62 67 -116z m211
-256 c39 -32 72 -61 72 -63 0 -16 -93 51 -154 110 -78 75 -47 57 82 -47z m781
-21 c-32 -31 -215 -113 -226 -102 -6 6 189 103 211 105 11 0 17 -1 15 -3z
m-519 -106 c13 -9 13 -10 0 -9 -8 1 -26 5 -40 9 l-25 8 25 1 c14 0 32 -4 40
-9z"/>
<path d="M607 1314 c-13 -13 -7 -59 9 -83 23 -32 36 -13 23 34 -12 44 -22 59
-32 49z"/>
<path d="M889 1282 c-33 -29 -33 -56 -1 -45 25 9 62 44 62 60 0 22 -28 15 -61
-15z"/>
<path d="M1077 1233 c-20 -74 -14 -99 17 -67 20 20 22 84 2 84 -8 0 -17 -8
-19 -17z"/>
<path d="M420 1168 c0 -33 22 -88 35 -88 17 0 20 36 5 74 -10 26 -40 36 -40
14z"/>
<path d="M757 1093 c-4 -3 -7 -12 -7 -20 0 -9 15 -13 50 -13 36 0 50 4 50 14
0 8 -7 17 -16 20 -21 8 -69 8 -77 -1z"/>
<path d="M1288 1073 c-30 -5 -38 -30 -13 -39 21 -9 85 15 85 32 0 14 -16 15
-72 7z"/>
<path d="M1060 1007 c0 -28 26 -67 46 -67 20 0 17 27 -7 61 -25 35 -39 37 -39
6z"/>
<path d="M760 996 c-45 -10 -65 -22 -111 -66 -65 -64 -79 -87 -79 -130 0 -45
28 -87 82 -121 25 -17 54 -41 63 -55 24 -37 60 -47 118 -32 40 10 51 18 62 44
7 18 24 38 37 44 68 36 85 87 54 162 -8 19 -13 44 -10 55 6 22 4 24 -69 78
-51 38 -63 40 -147 21z m121 -32 c7 -8 25 -22 41 -30 15 -8 28 -22 28 -31 0
-12 -8 -9 -31 14 -16 18 -49 38 -72 47 -41 14 -41 14 -11 15 17 1 37 -6 45
-15z m-13 -34 c98 -60 97 -217 -2 -264 -138 -65 -274 70 -204 203 40 76 135
104 206 61z m-239 -76 c-6 -16 -8 -51 -5 -79 l6 -50 -21 25 c-25 29 -22 90 7
121 22 25 27 19 13 -17z m341 -118 c-9 -8 -11 -2 -9 24 4 50 13 61 17 21 2
-18 -2 -39 -8 -45z m-110 -105 c0 -13 -26 -21 -65 -21 -53 0 -51 18 2 23 27 2
51 4 56 5 4 1 7 -2 7 -7z"/>
<path d="M286 981 c-11 -17 4 -102 18 -98 17 5 19 69 3 91 -10 13 -16 15 -21
7z"/>
<path d="M521 967 c-16 -20 -25 -74 -12 -81 12 -8 37 27 46 67 5 20 3 27 -8
27 -8 0 -20 -6 -26 -13z"/>
<path d="M1240 844 c-15 -37 -12 -74 4 -74 17 0 41 64 32 85 -8 23 -25 18 -36
-11z"/>
<path d="M246 693 c-26 -37 -26 -53 -1 -53 19 0 58 57 51 75 -9 24 -24 17 -50
-22z"/>
<path d="M418 689 c-38 -20 -46 -33 -28 -44 14 -9 90 33 90 50 0 20 -17 18
-62 -6z"/>
<path d="M1073 664 c-6 -17 42 -74 64 -74 20 0 16 18 -13 56 -29 37 -42 42
-51 18z"/>
<path d="M1358 629 c-34 -25 -36 -39 -4 -39 30 0 72 33 62 48 -10 17 -27 14
-58 -9z"/>
<path d="M595 569 c-4 -24 -3 -45 3 -51 18 -18 32 2 32 48 0 59 -25 61 -35 3z"/>
<path d="M992 478 c3 -58 16 -68 31 -25 11 35 1 77 -19 77 -12 0 -14 -11 -12
-52z"/>
<path d="M793 480 c-32 -19 -45 -50 -22 -50 21 0 79 41 79 56 0 19 -19 18 -57
-6z"/>
<path d="M370 440 c0 -17 46 -33 74 -26 14 3 26 13 26 21 0 11 -13 15 -50 15
-27 0 -50 -5 -50 -10z"/>
<path d="M1240 441 c-14 -4 -26 -15 -28 -25 -4 -16 1 -18 34 -11 47 8 54 12
54 31 0 15 -19 17 -60 5z"/>
<path d="M590 311 c0 -12 13 -35 29 -53 25 -28 31 -30 36 -16 7 19 -19 64 -46
79 -16 8 -19 6 -19 -10z"/>
<path d="M880 266 c0 -20 39 -46 67 -46 35 0 28 24 -12 43 -44 21 -55 21 -55
3z"/>
</g>
</svg>
