<svg aria-hidden="true" style="position: absolute; width: 0; height: 0; overflow: hidden;" version="1.1"
    xmlns="http://www.w3.org/2000/svg" xmlns:xlink="http://www.w3.org/1999/xlink">
    <defs>
        <symbol fill="none" xmlns="http://www.w3.org/2000/svg" viewBox="0 0 16 16" id="menu-closed">
            <path d="M1.26 1l13.48 14M1 14.74L15 1.26" stroke="#fff"></path>
        </symbol>
        <symbol id="icon-menu" viewBox="0 0 32 32">
            <path
                d="M6.4 11.734v-2.134h19.2v2.134h-19.2zM6.4 17.066h19.2v-2.133h-19.2v2.133zM6.4 22.4h19.2v-2.134h-19.2v2.134z">
            </path>
        </symbol>
        <symbol id="icon-logo" viewBox="0 0 127 32">
            <path d="M0 0h127.36v32h-127.36v-32z"></path>
        </symbol>
        <symbol id="icon-Vector" viewBox="0 0 26 32">
            <path fill="none" stroke="#d41443" style="stroke: var(--color1, #d41443)" stroke-linejoin="round"
                stroke-linecap="round" stroke-miterlimit="4" stroke-width="6.4" d="M3.542 3.2l16.825 12.8-16.825 12.8">
            </path>
        </symbol>
        <symbol id="icon-arrow" viewBox="0 0 32 32">
            <path d="M31.008 13.773l-10-9.002c-1.232-1.108-3.13-1.012-4.238 0.224-1.108 1.23-1.008 3.128 0.224 4.236l4.186 3.77h-18.18c-1.658 0-3 1.342-3 3s1.342 3 3 3h18.184l-4.192 3.77c-1.232 1.11-1.332 3.006-0.224 4.236 0.594 0.658 1.412 0.994 2.232 0.994 0.716 0 1.434-0.254 2.006-0.77l10-8.998c0.632-0.568 0.994-1.38 0.994-2.23s-0.362-1.662-0.992-2.23z"></path>
        </symbol>
    </defs>
</svg>