<svg aria-hidden="true" style="position:absolute;width:0;height:0" xmlns="http://www.w3.org/2000/svg" overflow="hidden"><defs><symbol id="menu-button-icon" width="30" height="30" viewBox="0 0 32 32"><path d="M6.4 11.733V9.6h19.2v2.133H6.4zm0 5.334h19.2v-2.133H6.4v2.133zm0 5.333h19.2v-2.133H6.4V22.4z"/></symbol><symbol id="menu-button-close" viewBox="0 0 32 32"><path d="M23.733 10.304L22.229 8.8l-5.963 5.963L10.303 8.8l-1.504 1.504 5.963 5.963-5.963 5.963 1.504 1.504 5.963-5.963 5.963 5.963 1.504-1.504-5.963-5.963 5.963-5.963z"/></symbol><symbol id="menu-button-arrow" viewBox="0 0 32 32"><path d="M1.107 1l5.258 4-5.258 4" stroke="#D41443" stroke-width="2" stroke-linecap="round" stroke-linejoin="round"/></symbol><symbol id="logo" width="50" height="50" viewBox="0 0 400 400"><path d="m215.508,114.871c7.972,16.122 24.229,25.481 41.104,25.479 6.804,0 13.712-1.522 20.213-4.737 22.624-11.187 31.929-38.694 20.743-61.318-3.357-6.789-8.228-12.516-14.201-16.823 7.297-10.444 16.752-19.37 27.788-26.067 4.721-2.865 6.226-9.016 3.36-13.737-2.866-4.721-9.018-6.224-13.737-3.36-14.636,8.884-26.993,20.996-36.154,35.216-9.6-1.745-19.466-0.371-28.372,4.031-10.96,5.419-19.154,14.78-23.072,26.362-3.919,11.58-3.092,23.994 2.328,34.954zm16.616-28.546c2.206-6.521 6.819-11.792 12.99-14.842 0-0.001 0.001-0.001 0.001-0.001 3.042-1.504 6.281-2.38 9.566-2.617-0.464,1.174-0.909,2.357-1.333,3.549-1.853,5.203 0.862,10.923 6.065,12.775 5.205,1.857 10.923-0.861 12.776-6.064 0.459-1.289 0.947-2.565 1.462-3.829 2.455,2.179 4.489,4.833 5.988,7.863 6.298,12.739 1.059,28.228-11.68,34.526-12.738,6.298-28.226,1.06-34.524-11.68-3.051-6.17-3.517-13.16-1.311-19.68zm60.637,136.931c0.758,5.471-3.063,10.52-8.533,11.277-1.826,0.253-3.703,0.448-5.582,0.58-0.238,0.017-0.475,0.024-0.71,0.024-5.204,0-9.595-4.028-9.965-9.3-0.387-5.509 3.766-10.289 9.275-10.676 1.431-0.101 2.856-0.248 4.238-0.439 5.469-0.756 10.52,3.065 11.277,8.534zm31.871-95.503c0.715,3.518 1.128,7.239 1.228,11.061 0.002,0.087 0.003,0.175 0.003,0.262 0,21.791-11.626,38.437-32.736,46.869-9.735,3.889-21.341,5.85-33.774,5.851-9.902,0-20.329-1.244-30.757-3.749-24.181-5.81-45.538-17.466-60.136-32.822-22.352-23.514-26.898-53.363-12.799-84.05 2.306-5.02 8.243-7.217 13.262-4.912 5.019,2.306 7.218,8.243 4.912,13.262-10.754,23.408-7.686,44.241 9.121,61.921 17.865,18.793 49.321,30.445 76.474,30.447 9.553,0.001 18.567-1.44 26.278-4.521 13.332-5.325 20.112-14.801 20.155-28.167-0.075-2.614-0.354-5.126-0.831-7.467-1.1-5.412 2.396-10.691 7.808-11.792 5.411-1.1 10.692,2.394 11.792,7.807zm7.035,52.757c-4.579-3.09-10.794-1.881-13.883,2.697-3.088,4.578-1.881,10.794 2.697,13.883 9.032,6.094 14.425,16.169 14.425,26.952 0,17.912-14.572,32.485-32.484,32.485h-176.626c-0.045-0.001-0.089-0.001-0.134-0.001-27.799,0-50.416-22.615-50.416-50.414 0-14.429 6.275-28.222 17.217-37.843 4.147-3.646 4.553-9.966 0.906-14.113-3.646-4.146-9.966-4.554-14.113-0.906-15.259,13.417-24.01,32.685-24.01,52.862 0,29.046 17.68,54.042 42.842,64.791 0.167,0.343 0.354,0.678 0.563,1.004l54.231,84.969c1.837,2.878 5.015,4.62 8.429,4.62h40.771v28.652h-40.771c-5.523,0-10,4.478-10,10s4.477,10 10,10h50.523c0.083,0.002 0.165,0.003 0.247,0.003s0.165-0.001 0.247-0.003h50.521c5.523,0 10-4.478 10-10s-4.477-10-10-10h-40.769v-28.652h40.769c3.414,0 6.592-1.742 8.429-4.62l54.232-84.969c0.212-0.332 0.403-0.674 0.572-1.022 17.086-8.666 28.822-26.409 28.822-46.843 0.002-17.441-8.685-33.714-23.237-43.532zm-74.297,160.987h-90.578l-41.466-64.969h173.511l-41.467,64.969zm-128.217-153.89c-21.573-23.822-33.877-54.774-33.757-84.92 0.104-25.974 9.51-50.099 26.485-67.931 18.81-19.759 46.568-31.764 80.275-34.719 3.029-0.264 6.028,0.867 8.127,3.079 2.098,2.211 3.074,5.259 2.648,8.277-1.476,10.481-0.796,19.157 2.077,26.522 2.007,5.146-0.537,10.943-5.682,12.951-5.143,2.008-10.943-0.536-12.95-5.682-2.823-7.235-4.218-15.081-4.205-23.75-56.133,9.32-76.639,47.311-76.775,81.331-0.194,48.665 38.489,104.108 110.561,111.007 5.498,0.525 9.528,5.409 9.002,10.907-0.495,5.173-4.85,9.047-9.943,9.048-0.319,0-0.64-0.016-0.964-0.047-48.119-4.603-78.166-27.595-94.899-46.073zm5.803,44.817c-1.634,3.772-5.316,6.027-9.181,6.027-1.327,0-2.675-0.266-3.971-0.827-13.761-5.962-24.333-17.614-29.004-31.969-1.709-5.252 1.162-10.895 6.414-12.604 5.251-1.711 10.895,1.163 12.604,6.414 2.898,8.904 9.437,16.123 17.938,19.807 5.068,2.196 7.396,8.085 5.2,13.152z"/></symbol><symbol id="icon-right-arrow-btn" viewBox="0 0 20 20"><path d="M12.95 10.707l.707-.707L8 4.343 6.586 5.757 10.828 10l-4.242 4.243L8 15.657l4.95-4.95z"/></symbol></defs></svg>