<svg aria-hidden="true" style="position: absolute; width: 0; height: 0; overflow: hidden;" version="1.1"
    xmlns="http://www.w3.org/2000/svg" xmlns:xlink="http://www.w3.org/1999/xlink">
    <defs>
        <symbol id="icon-logo" viewBox="0 0 127 32">
            <path fill="#fff" style="fill: var(--color1, #fff)"
                d="M31.36 16.32c0 8.66-6.877 15.68-15.36 15.68s-15.36-7.020-15.36-15.68c0-8.66 6.877-15.68 15.36-15.68s15.36 7.020 15.36 15.68z">
            </path>
            <path fill="#d41443" style="fill: var(--color2, #d41443)"
                d="M11.849 0.562c-7.406 2.243-11.849 8.073-11.849 15.442 0 6.023 3.091 11.277 8.179 13.904 2.64 1.346 3.027 0.384 0.58-1.474-1.739-1.41-2.061-2.050-2.061-4.421 0-1.666-0.386-3.011-0.966-3.524-1.159-0.961-1.288-3.46-0.129-4.357 0.451-0.384 0.902-1.666 0.966-2.819 0.322-4.229 4.894-8.201 9.467-8.201s9.145 3.973 9.466 8.201c0.064 1.153 0.515 2.435 0.966 2.819 1.159 0.897 1.030 3.396-0.129 4.357-0.58 0.513-0.966 1.858-0.966 3.524 0 2.371-0.322 3.011-2.061 4.421-2.705 2.114-1.932 2.883 1.095 1.025 4.25-2.627 7.406-8.33 7.406-13.391 0-10.124-10.561-18.325-19.963-15.506z">
            </path>
            <path fill="#d41443" style="fill: var(--color2, #d41443)"
                d="M12.686 7.994c-1.159 0.513-2.125 1.153-2.125 1.538 0 0.705 3.477 1.986 5.474 1.986s5.474-1.281 5.474-1.986c0-0.769-3.993-2.499-5.603-2.499-0.644 0.064-2.125 0.449-3.22 0.961z">
            </path>
            <path fill="#d41443" style="fill: var(--color2, #d41443)"
                d="M45.851 11.326c-0.966 0.256-1.159 1.089-1.159 5.703v5.382h4.572l-0.193-5.574c-0.193-5.831-0.451-6.279-3.22-5.51z">
            </path>
            <path fill="#d41443" style="fill: var(--color2, #d41443)"
                d="M53.386 11.646c-2.125 1.153-2.898 2.563-2.898 5.318 0 3.78 2.061 5.574 5.86 5.318 2.576-0.192 2.833-0.384 3.027-1.986s0.064-1.73-1.932-1.602c-2.061 0.192-2.125 0.064-2.125-2.050s0.129-2.243 1.996-2.050c1.546 0.128 2.125-0.128 2.383-1.089 0.129-0.641 0-1.538-0.386-1.922-0.902-0.897-4.25-0.897-5.925 0.064z">
            </path>
            <path fill="#d41443" style="fill: var(--color2, #d41443)"
                d="M61.049 11.71c-0.193 0.513-0.258 3.011-0.129 5.638l0.193 4.741h4.186c3.864 0 4.186-0.128 4.379-1.474 0.193-1.217-0.064-1.41-2.060-1.41-1.288 0-2.319-0.32-2.319-0.641 0-0.384 0.902-0.641 1.932-0.641 1.481 0 1.932-0.256 1.932-1.281s-0.451-1.281-1.932-1.281c-1.030 0-1.932-0.32-1.932-0.641 0-0.384 0.837-0.641 1.868-0.641 1.804 0 3.027-1.41 2.254-2.627-0.58-0.961-7.985-0.705-8.372 0.256z">
            </path>
            <path fill="#d41443" style="fill: var(--color2, #d41443)"
                d="M73.993 11.518c-2.125 0.833-2.962 2.307-3.027 4.998-0.065 4.613 1.803 6.215 6.633 5.767 1.868-0.128 2.189-0.448 2.189-1.794 0-1.41-0.257-1.602-2.061-1.41-1.546 0.128-2.125-0.064-2.447-1.089-0.58-1.986 0.644-3.588 2.705-3.588 1.224 0 1.868-0.384 1.996-1.217 0.451-2.050-2.833-3.011-5.989-1.666z">
            </path>
            <path fill="#d41443" style="fill: var(--color2, #d41443)"
                d="M81.914 11.262c-0.323 0.256-0.515 2.883-0.515 5.831v5.382l2.060-0.192c1.61-0.128 2.19-0.577 2.512-1.794l0.386-1.602 0.515 1.73c0.387 1.474 0.837 1.794 2.512 1.794 2.769 0 3.091-0.448 1.932-2.691-0.708-1.41-0.837-2.114-0.322-2.627 0.837-0.833 0.902-3.652 0.129-4.87-0.644-1.025-8.371-1.858-9.208-0.961zM87.194 14.722c0 0.705-0.257 1.281-0.644 1.281-0.322 0-0.644-0.577-0.644-1.281s0.322-1.281 0.644-1.281c0.387 0 0.644 0.577 0.644 1.281z">
            </path>
            <path fill="#d41443" style="fill: var(--color2, #d41443)"
                d="M93.441 11.326c-0.258 0.192-0.451 2.819-0.451 5.767v5.318h4.186c4.057 0 4.186-0.064 4.186-1.602 0-1.346-0.322-1.602-1.932-1.602-1.030 0-1.932-0.32-1.932-0.641 0-0.384 0.708-0.641 1.61-0.641 1.159 0 1.61-0.32 1.61-1.281s-0.451-1.281-1.61-1.281c-0.902 0-1.61-0.32-1.61-0.641 0-0.384 0.902-0.641 1.932-0.641 1.61 0 1.932-0.256 1.932-1.602 0-1.538-0.193-1.602-3.735-1.602-2.061 0-3.992 0.192-4.186 0.448z">
            </path>
            <path fill="#d41443" style="fill: var(--color2, #d41443)"
                d="M106.45 11.262c-1.16 0.32-4.122 8.842-3.542 10.252 0.515 1.281 3.413 1.153 4.186-0.192 0.579-1.089 0.644-1.089 1.803 0 1.482 1.281 4.701 1.474 4.701 0.256 0-0.384-0.644-2.947-1.482-5.574-1.288-4.229-1.674-4.806-3.027-4.934-0.902 0-2.061 0.064-2.64 0.192zM108.253 17.093c-0.193 0.641-0.322 0.256-0.322-0.769 0-1.089 0.129-1.538 0.322-1.153 0.129 0.448 0.129 1.346 0 1.922z">
            </path>
            <path fill="#d41443" style="fill: var(--color2, #d41443)"
                d="M115.723 11.326c-0.58 0.192-0.837 1.986-0.837 5.703v5.382h1.868c1.61 0 1.932-0.32 2.189-1.794 0.257-1.666 0.257-1.666 0.772-0.32 0.258 0.833 0.902 1.474 1.352 1.474 0.515 0 1.224-0.641 1.546-1.474 0.515-1.346 0.58-1.346 0.58 0.384 0.065 1.602 0.257 1.794 2.061 1.602l1.996-0.192 0.065-5.318c0.129-4.934 0.064-5.318-1.288-5.638-2.061-0.513-3.799 0.705-4.379 3.076l-0.451 2.114-0.708-2.243c-0.902-3.011-2.254-3.78-4.765-2.755z">
            </path>
            <path fill="#d41443" style="fill: var(--color2, #d41443)"
                d="M9.016 11.967c-0.193 0.256-0.386 1.089-0.386 1.922 0 1.474 0.064 1.474 7.406 1.474s7.406 0 7.406-1.474c0-2.178-0.58-2.435-2.64-1.41-2.318 1.217-7.213 1.217-9.531 0-1.030-0.513-1.996-0.705-2.254-0.513z">
            </path>
            <path fill="#d41443" style="fill: var(--color2, #d41443)"
                d="M7.148 17.669c-1.030 1.089 0.708 1.538 5.731 1.538h5.409v2.243c0 1.217 0.322 2.243 0.644 2.243 0.386 0 0.644-0.961 0.644-2.178 0-2.114 0.129-2.243 2.576-2.435 1.417-0.128 2.576-0.513 2.576-0.833 0-0.705-16.872-1.281-17.581-0.577z">
            </path>
            <path fill="#d41443" style="fill: var(--color2, #d41443)"
                d="M8.629 23.308c0 3.524 1.224 4.229 7.406 4.229s7.406-0.705 7.406-4.229c0-1.538-0.322-2.178-0.966-2.178-0.58 0-0.966 0.577-0.966 1.538 0 3.588-4.894 3.908-5.603 0.384-0.322-1.858-0.515-1.922-3.8-1.922h-3.477v2.178z">
            </path>
            <path fill="#d41443" style="fill: var(--color2, #d41443)"
                d="M12.622 30.548c0.386 2.050 6.955 1.858 6.955-0.128 0-0.705-0.837-0.961-3.606-0.961-3.027 0-3.542 0.192-3.349 1.089z">
            </path>
        </symbol>

        <symbol id="icon-button-arrow" viewBox="0 0 22 32">
            <path fill="none" stroke-linejoin="round" stroke-linecap="round" stroke-miterlimit="4" stroke-width="6.4"
                d="M4.544 3.2l13.702 12.8-13.702 12.8"></path>
        </symbol>

        <symbol id="icon-burger" viewBox="0 0 46 32">
            <path fill="none" stroke="#d41443" style="stroke: var(--color1, #d41443)" stroke-linejoin="miter"
                stroke-linecap="butt" stroke-miterlimit="4" stroke-width="2.2857" d="M0 2.286h45.714"></path>
            <path fill="none" stroke="#d41443" style="stroke: var(--color1, #d41443)" stroke-linejoin="miter"
                stroke-linecap="butt" stroke-miterlimit="4" stroke-width="2.2857" d="M0 16h45.714"></path>
            <path fill="none" stroke="#d41443" style="stroke: var(--color1, #d41443)" stroke-linejoin="miter"
                stroke-linecap="butt" stroke-miterlimit="4" stroke-width="2.2857" d="M0 29.714h45.714"></path>
        </symbol>
        <symbol id="icon-close" viewBox="0 0 32 32">
            <path fill="none" stroke="#fff" style="stroke: var(--color1, #fff)" stroke-linejoin="miter"
                stroke-linecap="butt" stroke-miterlimit="4" stroke-width="2" d="M2.518 2l26.963 28"></path>
            <path fill="none" stroke="#fff" style="stroke: var(--color1, #fff)" stroke-linejoin="miter"
                stroke-linecap="butt" stroke-miterlimit="4" stroke-width="2" d="M2 29.481l28-26.963"></path>
        </symbol>

        <symbol id="icon-btn-svg" viewBox="0 0 26 32">
            <path fill="none" stroke-linejoin="round" stroke-linecap="round" stroke-miterlimit="4" stroke-width="6.4"
                d="M3.542 3.2l16.825 12.8-16.825 12.8">
            </path>
        </symbol>
        <symbol id="icon-ellipse" viewBox="0 0 32 32">
            <path fill="#fff" style="fill: var(--color1, #fff)"
                d="M0 16c0 8.837 7.163 16 16 16s16-7.163 16-16c0-8.837-7.163-16-16-16s-16 7.163-16 16z"></path>
        </symbol>

        <symbol id="arrow-right" viewBox="0 0 32 32">
            <path
                d="M19.414 27.414l10-10c0.781-0.781 0.781-2.047 0-2.828l-10-10c-0.781-0.781-2.047-0.781-2.828 0s-0.781 2.047 0 2.828l6.586 6.586h-19.172c-1.105 0-2 0.895-2 2s0.895 2 2 2h19.172l-6.586 6.586c-0.39 0.39-0.586 0.902-0.586 1.414s0.195 1.024 0.586 1.414c0.781 0.781 2.047 0.781 2.828 0z">
            </path>
        </symbol>
        <symbol id="3-dots" viewBox="0 0 133 32">
            <path
                d="M81.512 16c0 8.837-6.843 16-15.284 16s-15.284-7.163-15.284-16c0-8.837 6.843-16 15.284-16s15.284 7.163 15.284 16z">
            </path>
            <path
                d="M30.567 16c0 8.837-6.843 16-15.284 16s-15.284-7.163-15.284-16c0-8.837 6.843-16 15.284-16s15.284 7.163 15.284 16z">
            </path>
            <path
                d="M132.458 16c0 8.837-6.843 16-15.284 16s-15.284-7.163-15.284-16c0-8.837 6.843-16 15.284-16s15.284 7.163 15.284 16z">
            </path>
        </symbol>
        <symbol id="icon-Vector-button" viewBox="0 0 26 32">
            <path fill="none" stroke="#d41443" style="stroke: var(--color1, #d41443)" stroke-linejoin="round"
                stroke-linecap="round" stroke-miterlimit="4" stroke-width="6.4" d="M5.172 3.2l14.169 12.8-14.169 12.8">
            </path>
        </symbol>
        <symbol id="icon-cow-3" viewBox="0 0 28 32">
            <path fill="#ffa5ba" style="fill: var(--color1, #ffa5ba)"
                d="M6.507 0.682c-2.81 0.589-4.991 2.897-5.702 6.037-0.261 1.097-0.249 3.209 0.012 4.409 0.581 2.666 1.873 5.032 3.912 7.087 1.826 1.847 3.426 2.966 5.963 4.132l1.328 0.623v8.414h1.423v-7.953l0.356 0.104c0.202 0.058 0.51 0.058 0.711 0l0.356-0.104v7.953h1.423v-8.426l1.268-0.577c2.454-1.131 4.232-2.355 5.963-4.109 2.762-2.805 4.173-5.99 4.173-9.453 0.012-3.797-1.98-6.879-5.109-7.93-0.664-0.231-1.008-0.265-2.264-0.254-1.316 0.012-1.612 0.058-2.608 0.369-1.174 0.381-2.324 0.981-3.082 1.604l-0.439 0.369-0.64-0.473c-1.648-1.212-3.331-1.801-5.311-1.881-0.688-0.023-1.47 0-1.731 0.058zM9.21 2.113c0.498 0.092 1.174 0.289 1.529 0.427 0.759 0.312 2.027 1.108 2.525 1.581 0.771 0.727 0.984 0.716 1.861-0.069 1.375-1.247 3.592-2.101 5.418-2.101 2.478 0 4.742 1.939 5.465 4.675 0.13 0.485 0.249 1.27 0.261 1.743 0.047 1.039 0.012 1.073-1.6 1.685-1.304 0.496-2.395 0.739-4.268 0.946-1.197 0.139-1.446 0.208-1.814 0.473-0.759 0.566-0.877 0.981-0.877 3.336 0 1.766-0.024 2.101-0.202 2.285-0.249 0.277-0.688 0.265-0.984-0.023-0.225-0.219-0.237-0.381-0.237-2.712 0-2.585-0.071-3.024-0.557-3.543-0.107-0.115-0.948-0.566-1.861-1.016-1.031-0.485-2.063-1.085-2.679-1.558-2.976-2.228-4.292-2.863-6.734-3.243-0.699-0.115-1.292-0.219-1.316-0.231-0.107-0.081 0.533-0.9 1.114-1.408 1.375-1.224 2.94-1.616 4.955-1.247zM5.286 6.569c1.209 0.3 2.573 0.981 3.817 1.904 0.522 0.381 1.186 0.866 1.482 1.085 0.794 0.589 2.11 1.327 3.106 1.743 0.486 0.208 0.948 0.45 1.031 0.554 0.107 0.127 0.142 0.854 0.142 2.666 0 2.181 0.036 2.551 0.225 2.955 0.391 0.831 1.020 1.212 1.98 1.212 0.616 0 1.043-0.185 1.494-0.658 0.51-0.519 0.569-0.843 0.569-3.047 0-2.505-0.024-2.459 1.375-2.574 1.423-0.127 3.189-0.508 4.363-0.935 0.593-0.219 1.103-0.369 1.126-0.335 0.13 0.127-0.759 2.389-1.28 3.266-0.83 1.42-1.482 2.228-2.739 3.405-1.826 1.708-4.339 3.174-6.9 4.051l-0.925 0.323-0.913-0.323c-2.739-0.923-5.157-2.389-7.101-4.271-2.466-2.366-3.758-4.871-4.078-7.837-0.119-1.108 0.059-3.013 0.332-3.463 0.095-0.162 1.79 0.012 2.893 0.277z">
            </path>
            <path fill="none" stroke="#ffa5ba" style="stroke: var(--color1, #ffa5ba)" stroke-linejoin="miter"
                stroke-linecap="butt" stroke-miterlimit="4" stroke-width="0.6154"
                d="M6.507 0.682c-2.81 0.589-4.991 2.897-5.702 6.037-0.261 1.097-0.249 3.209 0.012 4.409 0.581 2.666 1.873 5.032 3.912 7.087 1.826 1.847 3.426 2.966 5.963 4.132l1.328 0.623v8.414h1.423v-7.953l0.356 0.104c0.202 0.058 0.51 0.058 0.711 0l0.356-0.104v7.953h1.423v-8.426l1.268-0.577c2.454-1.131 4.232-2.355 5.963-4.109 2.762-2.805 4.173-5.99 4.173-9.453 0.012-3.797-1.98-6.879-5.109-7.93-0.664-0.231-1.008-0.265-2.264-0.254-1.316 0.012-1.612 0.058-2.608 0.369-1.174 0.381-2.324 0.981-3.082 1.604l-0.439 0.369-0.64-0.473c-1.648-1.212-3.331-1.801-5.311-1.881-0.688-0.023-1.47 0-1.731 0.058zM9.21 2.113c0.498 0.092 1.174 0.289 1.529 0.427 0.759 0.312 2.027 1.108 2.525 1.581 0.771 0.727 0.984 0.716 1.861-0.069 1.375-1.247 3.592-2.101 5.418-2.101 2.478 0 4.742 1.939 5.465 4.675 0.13 0.485 0.249 1.27 0.261 1.743 0.047 1.039 0.012 1.073-1.6 1.685-1.304 0.496-2.395 0.739-4.268 0.946-1.197 0.139-1.446 0.208-1.814 0.473-0.759 0.566-0.877 0.981-0.877 3.336 0 1.766-0.024 2.101-0.202 2.285-0.249 0.277-0.688 0.265-0.984-0.023-0.225-0.219-0.237-0.381-0.237-2.712 0-2.585-0.071-3.024-0.557-3.543-0.107-0.115-0.948-0.566-1.861-1.016-1.031-0.485-2.063-1.085-2.679-1.558-2.976-2.228-4.292-2.863-6.734-3.243-0.699-0.115-1.292-0.219-1.316-0.231-0.107-0.081 0.533-0.9 1.114-1.408 1.375-1.224 2.94-1.616 4.955-1.247zM5.286 6.569c1.209 0.3 2.573 0.981 3.817 1.904 0.522 0.381 1.186 0.866 1.482 1.085 0.794 0.589 2.11 1.327 3.106 1.743 0.486 0.208 0.948 0.45 1.031 0.554 0.107 0.127 0.142 0.854 0.142 2.666 0 2.181 0.036 2.551 0.225 2.955 0.391 0.831 1.020 1.212 1.98 1.212 0.616 0 1.043-0.185 1.494-0.658 0.51-0.519 0.569-0.843 0.569-3.047 0-2.505-0.024-2.459 1.375-2.574 1.423-0.127 3.189-0.508 4.363-0.935 0.593-0.219 1.103-0.369 1.126-0.335 0.13 0.127-0.759 2.389-1.28 3.266-0.83 1.42-1.482 2.228-2.739 3.405-1.826 1.708-4.339 3.174-6.9 4.051l-0.925 0.323-0.913-0.323c-2.739-0.923-5.157-2.389-7.101-4.271-2.466-2.366-3.758-4.871-4.078-7.837-0.119-1.108 0.059-3.013 0.332-3.463 0.095-0.162 1.79 0.012 2.893 0.277z">
            </path>
        </symbol>
        <symbol id="icon-cow-2" viewBox="0 0 32 32">
            <path
                d="M29.528 21.41c-1.292-0.458-2.382-0.344-3.242 0.018 0.145-0.877 0.47-1.832 1.17-2.481 0.431-0.4 0.456-1.074 0.056-1.505s-1.074-0.456-1.505-0.056c-1.229 1.14-1.706 2.748-1.874 4.081-0.32-0.144-0.673-0.253-1.058-0.311l1.89-9.83c0.060-0.312-0.022-0.634-0.225-0.879s-0.503-0.387-0.821-0.387h-0.204c0.094-0.5 0.141-0.997 0.137-1.47-0.016-1.994-0.903-3.495-2.374-4.017-1.41-0.5-2.59-0.35-3.507 0.066 0.145-0.976 0.494-2.063 1.282-2.794 0.431-0.4 0.456-1.074 0.056-1.505s-1.074-0.456-1.505-0.056c-1.32 1.225-1.815 2.965-1.982 4.386-0.735-0.348-1.644-0.527-2.708-0.33-1.094-1.571-2.613-2.296-4.089-1.942-1.451 0.349-2.358 1.115-2.901 1.962-0.41-0.899-0.712-2.001-0.452-3.036 0.143-0.57-0.203-1.149-0.773-1.292s-1.149 0.203-1.292 0.773c-0.439 1.746 0.095 3.476 0.729 4.758-1.016 0.137-2.117 0.65-3.049 1.866-0.578 0.755-0.773 1.698-0.596 2.7-0.173 0.065-0.329 0.173-0.449 0.318-0.202 0.245-0.285 0.567-0.225 0.879l3.809 19.81c0.096 0.501 0.535 0.864 1.046 0.864h15.237c0.511 0 0.949-0.362 1.046-0.864l0.037-0.195c0.287 0.198 0.596 0.363 0.927 0.487 1.266 0.471 2.447 0.278 3.044 0.118 0.316 0.085 0.795 0.179 1.364 0.179 0.506 0 1.084-0.075 1.68-0.297 2.36-0.879 3.615-3.839 3.596-6.178-0.015-1.904-0.866-3.339-2.276-3.839zM22.577 12.19c-0.49 4.705-4.452 7.909-9.971 7.909s-9.481-3.204-9.971-7.91h19.942zM15.934 7.515c0.184 0.349 0.536 0.567 0.93 0.567s0.746-0.218 0.93-0.567c0.029-0.048 0.29-0.466 0.769-0.777 0.629-0.408 1.35-0.46 2.203-0.157 0.851 0.302 0.952 1.518 0.956 2.027 0.004 0.464-0.064 0.962-0.191 1.453h-7.126c0.236-1.189 0.094-2.492-0.289-3.669 0.377 0.022 0.724 0.137 1.047 0.346 0.479 0.311 0.74 0.729 0.769 0.777zM2.98 8.724c0.55-0.719 1.182-1.068 1.932-1.069h0.002c0.57 0 1.016 0.208 1.066 0.232 0.341 0.189 0.749 0.172 1.079-0.037 0.331-0.211 0.51-0.591 0.481-0.983-0.006-0.077-0.115-1.893 1.983-2.397 0.876-0.211 1.625 0.754 1.906 1.178 0.807 1.22 1.221 3.108 0.777 4.413h-9.349c-0.141-0.443-0.179-0.943 0.122-1.336zM5.754 29.87l-2.111-10.978c0.138 0.133 0.281 0.263 0.427 0.389 2.208 1.901 5.239 2.948 8.535 2.948s6.328-1.047 8.535-2.948c0.052-0.044 0.102-0.090 0.152-0.135l-0.431 2.243c-0.020 0.007-0.041 0.013-0.061 0.021-1.41 0.5-2.261 1.935-2.276 3.839-0.009 1.164 0.297 2.483 0.898 3.622l-0.192 0.999h-13.477zM27.465 29.432c-0.943 0.351-1.881 0.017-1.916 0.005-0.25-0.097-0.518-0.099-0.768-0-0.009 0.004-0.96 0.352-1.917-0.004-1.338-0.498-2.223-2.556-2.21-4.165 0.004-0.466 0.095-1.578 0.858-1.849 0.349-0.124 0.661-0.175 0.939-0.175 1.107 0 1.657 0.812 1.782 1.024 0.184 0.35 0.535 0.569 0.931 0.569s0.747-0.219 0.931-0.569c0.156-0.266 0.977-1.468 2.721-0.849 0.763 0.271 0.854 1.383 0.858 1.849 0.013 1.609-0.872 3.667-2.21 4.165z">
            </path>
        </symbol>
        <symbol id="icon-cow-1" viewBox="0 0 21 32">
            <path
                d="M2.333 0.144c-0.35 0.187-0.553 0.563-0.553 1.006 0.006 0.813 0.209 1.556 0.614 2.2l0.178 0.294-0.338 0.381c-0.381 0.425-0.473 0.581-0.645 1.087-0.141 0.412-0.153 1.162-0.031 1.581 0.43 1.438 1.854 2.269 3.248 1.9 0.473-0.125 0.761-0.281 1.203-0.656l0.375-0.313 0.35 0.175c0.196 0.1 0.528 0.244 0.743 0.325l0.381 0.138v0.7c0 1.106 0.227 1.762 0.81 2.356s1.498 0.9 2.29 0.762c0.565-0.1 1.117-0.381 1.492-0.762 0.583-0.594 0.81-1.25 0.81-2.356v-0.7l0.387-0.138c0.209-0.081 0.54-0.225 0.737-0.325l0.35-0.175 0.375 0.313c0.442 0.375 0.731 0.531 1.203 0.656 1.394 0.369 2.818-0.463 3.248-1.9 0.123-0.419 0.111-1.169-0.031-1.581-0.172-0.506-0.264-0.662-0.645-1.087l-0.338-0.381 0.178-0.294c0.405-0.644 0.608-1.387 0.614-2.2 0-0.444-0.203-0.819-0.553-1.006l-0.264-0.144h-15.926l-0.264 0.144zM17.068 2.1c0 0.019-0.178 0.313-0.399 0.663-0.651 1.031-0.626 1.256 0.239 2.169 0.313 0.331 0.602 0.662 0.645 0.737 0.233 0.463-0.233 1.037-0.749 0.919-0.123-0.025-0.393-0.244-0.786-0.631-0.786-0.775-1.056-0.862-1.658-0.519-0.694 0.4-1.578 0.806-2.008 0.925-0.608 0.175-0.817 0.306-0.976 0.638-0.129 0.256-0.141 0.362-0.141 1.362 0 1.231-0.049 1.431-0.399 1.6-0.252 0.125-0.301 0.125-0.553 0-0.35-0.169-0.399-0.369-0.399-1.6 0-1-0.012-1.106-0.135-1.362-0.166-0.325-0.375-0.462-0.982-0.638-0.528-0.15-1.308-0.494-1.738-0.775-0.405-0.263-0.761-0.362-1.044-0.313-0.184 0.037-0.368 0.181-0.86 0.662-0.405 0.394-0.694 0.625-0.817 0.65-0.51 0.119-0.976-0.463-0.743-0.919 0.043-0.075 0.332-0.406 0.645-0.737 0.866-0.912 0.89-1.138 0.239-2.169-0.221-0.35-0.399-0.644-0.399-0.663 0-0.025 2.929-0.038 6.508-0.038s6.508 0.013 6.508 0.038z">
            </path>
            <path
                d="M0.485 13.206c-0.313 0.212-0.485 0.512-0.485 0.844 0 0.225 3.119 16.925 3.229 17.275 0.055 0.194 0.282 0.425 0.522 0.55 0.227 0.125 0.387 0.125 6.809 0.125s6.582 0 6.809-0.125c0.239-0.125 0.467-0.356 0.522-0.55 0.11-0.35 3.229-17.050 3.229-17.275 0-0.331-0.172-0.631-0.485-0.844l-0.209-0.144h-19.732l-0.209 0.144zM18.695 15.481c-0.061 0.5-0.418 1.587-0.682 2.081-1.283 2.375-3.714 3.819-6.729 3.988-2.278 0.131-4.206-0.331-5.82-1.394-0.933-0.612-1.713-1.45-2.265-2.438-0.307-0.544-0.712-1.712-0.774-2.237l-0.043-0.356h16.356l-0.043 0.356zM4.39 21.919c2.634 1.775 6.569 2.244 9.885 1.169 1.105-0.356 2.235-0.956 3.18-1.688 0.276-0.219 0.295-0.219 0.264-0.081-0.018 0.081-0.381 1.994-0.804 4.244s-0.78 4.156-0.798 4.231l-0.031 0.144h-11.051l-0.031-0.144c-0.018-0.075-0.375-1.981-0.798-4.231s-0.786-4.163-0.804-4.244c-0.031-0.137-0.012-0.137 0.264 0.081 0.16 0.125 0.491 0.356 0.724 0.519z">
            </path>
        </symbol>
        <symbol id="icon-telegram-footer" viewBox="0 0 40 32">
            <path fill="#fff" style="fill: var(--color1, #fff)"
                d="M16.205 20.751l-0.635 8.339c0.909 0 1.302-0.364 1.774-0.802l4.261-3.801 8.829 6.035c1.619 0.842 2.76 0.399 3.197-1.39l5.797-25.346c0.514-2.234-0.866-3.108-2.443-2.56l-34.065 12.172c-2.325 0.842-2.29 2.052-0.395 2.6l8.709 2.528 20.229-11.814c0.952-0.588 1.818-0.263 1.106 0.326l-16.364 13.713z">
            </path>
        </symbol>
        <symbol id="icon-facebook-footer" viewBox="0 0 16 32">
            <path fill="#fff" style="fill: var(--color1, #fff)"
                d="M14.266 15.97h-4.176v15.39h-6.327v-15.39h-3.009v-5.409h3.009v-3.5c0-2.503 1.182-6.422 6.384-6.422l4.687 0.020v5.25h-3.401c-0.558 0-1.342 0.28-1.342 1.474v3.183h4.729l-0.553 5.403z">
            </path>
        </symbol>
        <symbol id="icon-github-footer" viewBox="0 0 32 32">
            <path fill="#fff" style="fill: var(--color1, #fff)"
                d="M16 0.941c-8.271 0-15.059 6.788-15.059 15.059 0 7.058 4.953 13.47 11.529 15.059v-4.982c-0.652 0.143-1.251 0.147-1.915-0.049-0.89-0.263-1.613-0.855-2.15-1.759-0.342-0.577-0.949-1.203-1.581-1.157l-0.155-1.758c1.368-0.117 2.551 0.833 3.254 2.014 0.312 0.525 0.671 0.832 1.132 0.968 0.446 0.131 0.924 0.068 1.481-0.129 0.14-1.116 0.651-1.534 1.037-2.122-3.922-0.585-5.486-2.667-6.106-4.309-0.822-2.181-0.381-4.905 1.073-6.627 0.028-0.034 0.079-0.121 0.059-0.183-0.667-2.014 0.146-3.679 0.176-3.856 0.769 0.228 0.894-0.229 3.342 1.258l0.423 0.254c0.177 0.105 0.121 0.045 0.298 0.032 1.022-0.278 2.099-0.431 3.16-0.445 1.069 0.014 2.14 0.167 3.204 0.456l0.137 0.014c-0.012-0.002 0.037-0.009 0.12-0.058 3.057-1.852 2.947-1.247 3.767-1.513 0.030 0.177 0.831 1.87 0.172 3.858-0.089 0.274 2.65 2.782 1.132 6.809-0.62 1.643-2.183 3.724-6.106 4.309 0.503 0.766 1.107 1.175 1.104 2.756v6.219c6.577-1.589 11.529-8.001 11.529-15.059 0-8.271-6.787-15.059-15.059-15.059z">
            </path>
        </symbol>
    </defs>
</svg>