<?xml version="1.0" standalone="no"?>
<!DOCTYPE svg PUBLIC "-//W3C//DTD SVG 20010904//EN"
 "http://www.w3.org/TR/2001/REC-SVG-20010904/DTD/svg10.dtd">
<svg version="1.0" xmlns="http://www.w3.org/2000/svg"
 width="398.000000pt" height="398.000000pt" viewBox="0 0 398.000000 398.000000"
 preserveAspectRatio="xMidYMid meet">
<metadata>
Created by potrace 1.11, written by Peter Selinger 2001-2013
</metadata>
<g transform="translate(0.000000,398.000000) scale(0.100000,-0.100000)"
fill="#000000" stroke="none">
<path d="M420 2480 c0 -5 -18 -10 -40 -10 -22 0 -40 -4 -40 -10 0 -5 -13 -10
-30 -10 -16 0 -30 -4 -30 -10 0 -5 -7 -10 -16 -10 -9 0 -29 -13 -44 -30 -15
-16 -33 -30 -39 -30 -16 0 -61 -46 -61 -62 0 -8 -9 -20 -20 -28 -11 -8 -20
-21 -20 -30 0 -9 -9 -22 -20 -30 -12 -8 -20 -26 -20 -42 0 -15 -4 -28 -10 -28
-5 0 -10 -18 -10 -40 0 -22 -4 -40 -10 -40 -6 0 -10 -33 -10 -80 0 -47 4 -80
10 -80 6 0 10 -18 10 -40 0 -22 5 -40 10 -40 6 0 10 -13 10 -28 0 -16 8 -34
20 -42 11 -8 20 -21 20 -30 0 -9 9 -22 20 -30 11 -8 20 -20 20 -28 0 -16 45
-62 61 -62 6 0 24 -13 39 -30 15 -16 35 -30 44 -30 9 0 16 -4 16 -10 0 -5 14
-10 30 -10 21 0 30 5 30 16 0 18 -23 44 -40 44 -6 0 -26 16 -45 35 -34 34 -35
36 -35 116 0 77 -1 82 -30 109 -43 40 -43 100 0 140 26 25 30 35 30 84 0 31 5
56 10 56 6 0 10 9 10 20 0 11 5 20 10 20 6 0 10 7 10 15 0 20 85 105 105 105
8 0 15 5 15 10 0 6 9 10 20 10 11 0 20 5 20 10 0 6 37 10 90 10 53 0 90 -4 90
-10 0 -5 9 -10 20 -10 11 0 20 -4 20 -10 0 -5 7 -10 15 -10 20 0 105 -85 105
-105 0 -8 5 -15 10 -15 6 0 10 -9 10 -20 0 -11 5 -20 10 -20 6 0 10 -25 10
-56 0 -49 4 -59 30 -84 24 -23 30 -36 30 -70 0 -34 -6 -47 -30 -70 -29 -27
-30 -32 -30 -109 0 -80 -1 -82 -35 -116 -19 -19 -39 -35 -45 -35 -17 0 -40
-26 -40 -44 0 -9 8 -16 20 -16 11 0 20 5 20 10 0 6 8 10 18 10 10 0 24 9 32
20 8 11 20 20 27 20 17 0 103 86 103 103 0 7 9 19 20 27 11 8 20 22 20 32 0
10 5 18 10 18 6 0 10 9 10 20 0 11 5 20 10 20 6 0 10 18 10 40 0 22 5 40 10
40 6 0 10 40 10 100 0 60 -4 100 -10 100 -5 0 -10 18 -10 40 0 22 -4 40 -10
40 -5 0 -10 9 -10 20 0 11 -4 20 -10 20 -5 0 -10 8 -10 18 0 10 -9 24 -20 32
-11 8 -20 20 -20 27 0 17 -86 103 -103 103 -7 0 -19 9 -27 20 -8 11 -22 20
-32 20 -10 0 -18 5 -18 10 0 6 -13 10 -30 10 -16 0 -30 5 -30 10 0 6 -13 10
-30 10 -16 0 -30 5 -30 10 0 6 -37 10 -90 10 -53 0 -90 -4 -90 -10z"/>
<path d="M440 2260 c0 -5 -9 -10 -20 -10 -11 0 -20 -4 -20 -10 0 -5 -7 -10
-16 -10 -20 0 -44 -24 -44 -44 0 -9 8 -16 20 -16 11 0 20 -4 20 -10 0 -5 9
-10 20 -10 11 0 20 -4 20 -10 0 -6 37 -10 90 -10 53 0 90 4 90 10 0 6 9 10 20
10 11 0 20 5 20 10 0 6 9 10 20 10 12 0 20 7 20 16 0 20 -24 44 -44 44 -9 0
-16 5 -16 10 0 6 -9 10 -20 10 -11 0 -20 5 -20 10 0 6 -30 10 -70 10 -40 0
-70 -4 -70 -10z"/>
<path d="M1440 2140 c0 -5 -9 -10 -20 -10 -19 0 -20 -7 -20 -170 l0 -170 70 0
70 0 0 166 c0 130 -3 168 -14 180 -16 16 -86 19 -86 4z"/>
<path d="M1700 2140 c0 -5 -11 -10 -25 -10 -29 0 -75 -40 -75 -65 0 -8 -4 -15
-10 -15 -6 0 -10 -37 -10 -90 0 -53 4 -90 10 -90 6 0 10 -7 10 -16 0 -20 24
-44 44 -44 9 0 16 -4 16 -10 0 -6 35 -10 85 -10 80 0 88 2 113 27 17 17 22 28
14 31 -7 2 -12 17 -12 33 0 26 -4 29 -30 29 -16 0 -30 -4 -30 -10 0 -15 -49
-12 -66 4 -9 9 -14 35 -14 70 0 49 3 56 19 56 11 0 22 6 25 13 5 10 7 10 12 0
3 -7 23 -13 45 -13 32 0 39 3 39 20 0 11 5 20 10 20 18 0 10 31 -15 55 -21 22
-33 25 -90 25 -37 0 -65 -4 -65 -10z"/>
<path d="M1913 2135 c-20 -22 -18 -311 1 -331 11 -10 43 -14 126 -14 126 0
140 6 140 64 l0 36 -70 0 c-38 0 -70 3 -70 6 0 18 34 34 74 34 l46 0 0 40 0
40 -60 0 c-53 0 -60 2 -60 20 0 18 7 20 70 20 l70 0 0 36 c0 58 -14 64 -142
64 -85 -1 -116 -4 -125 -15z"/>
<path d="M2320 2140 c0 -5 -7 -10 -15 -10 -26 0 -85 -66 -85 -95 0 -14 -4 -25
-10 -25 -5 0 -10 -18 -10 -40 0 -22 5 -40 10 -40 6 0 10 -16 10 -35 0 -38 36
-85 65 -85 8 0 15 -4 15 -10 0 -17 169 -13 186 4 18 19 18 73 0 92 -17 16 -46
19 -46 4 0 -5 -18 -10 -40 -10 -38 0 -40 2 -40 30 0 17 -4 30 -10 30 -5 0 -10
9 -10 20 0 11 5 20 10 20 6 0 10 7 10 16 0 22 32 53 38 36 2 -7 23 -12 53 -12
l49 0 0 46 c0 64 -14 74 -104 74 -44 0 -76 -4 -76 -10z"/>
<path d="M2553 2135 c-9 -10 -13 -61 -13 -180 l0 -165 70 0 70 0 0 50 c0 28 5
50 10 50 6 0 10 -9 10 -20 0 -11 5 -20 10 -20 6 0 10 -13 10 -30 l0 -30 66 0
c48 0 70 4 82 17 12 12 13 18 4 21 -6 2 -12 12 -12 23 0 10 -4 19 -10 19 -5 0
-10 9 -10 20 0 11 -4 20 -10 20 -18 0 -11 35 10 50 16 12 20 26 20 78 0 65
-13 92 -44 92 -9 0 -16 5 -16 10 0 17 -232 12 -247 -5z m167 -105 c0 -33 -3
-40 -20 -40 -17 0 -20 7 -20 40 0 33 3 40 20 40 17 0 20 -7 20 -40z"/>
<path d="M2913 2135 c-9 -10 -13 -61 -13 -180 l0 -165 130 0 130 0 0 50 0 50
-60 0 c-53 0 -60 2 -60 20 0 17 7 20 50 20 l50 0 0 40 0 40 -50 0 c-43 0 -50
3 -50 20 0 18 7 20 60 20 l60 0 0 50 0 50 -117 0 c-89 -1 -121 -4 -130 -15z"/>
<path d="M3320 2140 c0 -5 -9 -10 -20 -10 -13 0 -20 -7 -20 -20 0 -11 -4 -20
-10 -20 -5 0 -10 -13 -10 -30 0 -16 -4 -30 -10 -30 -5 0 -10 -18 -10 -40 0
-22 -4 -40 -10 -40 -5 0 -10 -13 -10 -30 0 -16 -4 -30 -10 -30 -5 0 -10 -22
-10 -50 l0 -50 56 0 c50 0 59 3 85 31 26 27 30 29 44 16 8 -9 15 -23 15 -31 0
-13 13 -16 70 -16 l70 0 0 40 c0 22 -4 40 -10 40 -5 0 -10 18 -10 40 0 22 -4
40 -10 40 -5 0 -10 14 -10 30 0 17 -4 30 -10 30 -5 0 -10 14 -10 30 0 17 -4
30 -10 30 -5 0 -10 12 -10 26 0 40 -22 54 -84 54 -31 0 -56 -4 -56 -10z m60
-170 c0 -22 -4 -40 -10 -40 -5 0 -10 18 -10 40 0 22 5 40 10 40 6 0 10 -18 10
-40z"/>
<path d="M3620 2140 c0 -5 -9 -10 -20 -10 -19 0 -20 -7 -20 -170 l0 -170 60 0
60 0 0 40 c0 22 3 40 6 40 11 0 34 -29 34 -44 0 -10 9 -16 26 -16 29 0 54 21
54 44 0 9 5 16 10 16 6 0 10 -18 10 -40 l0 -40 56 0 c83 0 84 2 84 180 0 118
-3 155 -14 166 -17 16 -106 20 -106 4 0 -5 -7 -10 -16 -10 -23 0 -44 -25 -44
-54 0 -14 -4 -26 -10 -26 -5 0 -10 -9 -10 -20 0 -11 -4 -20 -10 -20 -5 0 -10
14 -10 30 0 17 -4 30 -10 30 -5 0 -10 14 -10 30 0 23 -4 30 -20 30 -11 0 -20
5 -20 10 0 6 -18 10 -40 10 -22 0 -40 -4 -40 -10z"/>
<path d="M280 2070 l0 -60 230 0 230 0 0 60 c0 53 -2 60 -20 60 -11 0 -20 -4
-20 -10 0 -5 -9 -10 -20 -10 -11 0 -20 -4 -20 -10 0 -5 -9 -10 -20 -10 -11 0
-20 -4 -20 -10 0 -6 -43 -10 -110 -10 -67 0 -110 4 -110 10 0 6 -9 10 -20 10
-11 0 -20 5 -20 10 0 6 -9 10 -20 10 -11 0 -20 5 -20 10 0 6 -9 10 -20 10 -18
0 -20 -7 -20 -60z"/>
<path d="M233 1935 c-7 -8 -13 -21 -13 -30 0 -13 23 -15 166 -15 130 0 168 -3
180 -14 16 -17 19 -66 4 -66 -15 0 -12 -29 4 -46 8 -8 22 -14 30 -14 13 0 16
13 16 70 l0 70 90 0 c75 0 90 3 90 16 0 42 -16 44 -292 44 -214 -1 -265 -3
-275 -15z"/>
<path d="M280 1754 c0 -78 11 -104 44 -104 9 0 16 -4 16 -10 0 -6 63 -10 170
-10 107 0 170 4 170 10 0 6 7 10 16 10 33 0 44 26 44 104 l0 76 -30 0 c-29 0
-30 -2 -30 -45 0 -57 -32 -95 -80 -95 -33 0 -80 38 -80 65 0 8 -4 15 -10 15
-5 0 -10 14 -10 30 l0 30 -110 0 -110 0 0 -76z"/>
<path d="M400 1544 c0 -44 21 -54 110 -54 89 0 110 10 110 54 l0 26 -110 0
-110 0 0 -26z"/>
</g>
</svg>
