<?xml version="1.0" standalone="no"?>
<!DOCTYPE svg PUBLIC "-//W3C//DTD SVG 20010904//EN"
 "http://www.w3.org/TR/2001/REC-SVG-20010904/DTD/svg10.dtd">
<svg version="1.0" xmlns="http://www.w3.org/2000/svg"
 width="260.000000pt" height="260.000000pt" viewBox="0 0 260.000000 260.000000"
 preserveAspectRatio="xMidYMid meet">
<metadata>
Created by potrace 1.11, written by Peter Selinger 2001-2013
</metadata>
<g transform="translate(0.000000,260.000000) scale(0.100000,-0.100000)"
fill="#000000" stroke="none">
<path d="M1112 2584 c-9 -16 -109 -43 -162 -44 -14 0 -39 -9 -56 -19 -17 -10
-46 -22 -64 -26 -47 -10 -171 -76 -258 -137 -81 -56 -189 -154 -244 -221 -104
-127 -118 -145 -118 -155 0 -5 -8 -20 -18 -33 -11 -13 -24 -39 -30 -57 -6 -18
-20 -45 -32 -59 -11 -14 -20 -35 -20 -46 0 -11 -11 -45 -24 -76 -14 -31 -29
-92 -35 -137 -11 -88 -25 -134 -41 -134 -6 0 -10 -51 -10 -140 0 -89 4 -140
10 -140 16 0 30 -46 41 -134 6 -45 21 -106 35 -137 13 -31 24 -65 24 -76 0
-11 9 -32 20 -46 12 -14 26 -41 32 -59 6 -18 19 -44 30 -57 10 -13 18 -28 18
-33 0 -10 14 -28 118 -155 98 -120 243 -233 408 -319 111 -58 144 -55 144 12
0 25 -8 38 -36 59 -19 15 -50 31 -67 36 -39 11 -140 108 -182 176 l-30 48 -4
202 -3 203 -37 30 c-92 78 -105 101 -109 196 -5 97 4 117 84 199 53 55 56 60
50 96 -8 51 26 244 53 296 11 23 21 47 21 52 0 50 251 323 309 336 16 3 35 13
42 21 6 7 33 20 59 28 26 8 63 22 81 33 29 16 58 18 214 18 167 0 183 -2 223
-22 23 -13 49 -23 57 -23 8 0 47 -17 87 -37 53 -28 100 -65 176 -140 100 -99
123 -128 157 -203 8 -19 24 -53 35 -75 24 -51 53 -230 44 -281 -6 -38 -3 -42
56 -104 34 -36 66 -75 71 -88 5 -13 9 -58 9 -101 0 -71 -3 -81 -32 -122 -18
-24 -37 -46 -41 -48 -5 -2 -24 -16 -42 -33 l-34 -29 -3 -202 -3 -202 -30 -50
c-41 -70 -129 -150 -202 -186 -65 -31 -86 -55 -81 -91 5 -35 34 -46 66 -26 15
10 50 29 77 43 28 13 62 33 76 42 14 10 52 35 84 56 67 44 238 215 262 261 18
34 46 75 81 119 12 16 22 36 22 45 0 8 9 26 21 38 11 12 25 42 30 65 6 24 17
51 25 60 8 9 19 45 25 80 13 85 27 126 44 133 22 8 22 464 0 472 -17 7 -31 48
-44 133 -6 35 -17 71 -25 80 -8 9 -19 36 -25 60 -5 23 -19 53 -30 65 -12 12
-21 30 -21 38 0 9 -10 29 -22 45 -35 44 -63 85 -81 119 -24 46 -195 217 -262
261 -32 21 -70 46 -84 56 -14 9 -49 28 -78 42 -28 13 -54 28 -57 34 -4 5 -21
12 -39 16 -17 4 -54 17 -82 30 -27 13 -90 29 -138 35 -67 9 -91 17 -100 31
-11 18 -26 19 -194 19 -158 0 -183 -2 -191 -16z"/>
<path d="M1174 2001 c-23 -10 -57 -22 -75 -26 -19 -4 -43 -15 -54 -25 -11 -10
-36 -25 -55 -33 -19 -9 -51 -29 -70 -45 -31 -27 -34 -33 -25 -59 7 -18 21 -32
41 -38 16 -5 43 -20 58 -32 16 -13 38 -23 50 -23 12 0 40 -10 61 -22 37 -21
53 -22 215 -23 181 0 201 4 315 57 140 65 154 93 79 151 -26 20 -52 37 -57 37
-6 0 -20 9 -31 19 -12 10 -62 33 -112 50 -79 27 -105 31 -195 31 -80 0 -114
-5 -145 -19z"/>
<path d="M771 1643 c-26 -21 -37 -64 -46 -177 -6 -66 -4 -84 8 -94 11 -9 151
-12 597 -10 535 3 584 4 593 20 8 12 8 46 0 119 -16 144 -51 188 -108 135 -16
-15 -33 -26 -40 -26 -7 0 -29 -11 -49 -25 -20 -14 -42 -25 -49 -25 -7 0 -36
-11 -66 -25 -111 -52 -455 -56 -551 -6 -20 10 -51 22 -69 26 -18 4 -49 18 -68
31 -20 13 -41 24 -48 24 -6 0 -22 11 -35 25 -28 30 -40 31 -69 8z"/>
<path d="M611 1164 c-37 -31 -39 -57 -6 -89 l24 -25 405 0 c414 0 450 -3 459
-39 2 -9 1 -69 -1 -133 -5 -124 4 -170 39 -188 22 -12 64 2 73 25 3 9 6 81 6
160 0 187 -16 175 230 175 182 0 187 1 208 23 35 37 27 79 -19 102 -24 13
-131 15 -708 15 l-679 0 -31 -26z"/>
<path d="M741 866 c-9 -11 -11 -61 -9 -173 3 -156 3 -159 33 -206 23 -37 44
-56 87 -78 l57 -29 417 0 417 0 54 26 c37 19 64 41 86 73 l32 46 3 163 c4 182
1 192 -55 192 -63 0 -73 -12 -73 -88 -1 -114 -13 -148 -78 -209 -100 -94 -204
-99 -303 -13 -66 56 -99 128 -99 216 0 41 -5 75 -12 82 -19 19 -541 17 -557
-2z"/>
<path d="M1064 197 c-9 -5 -14 -25 -14 -61 0 -45 4 -58 30 -84 17 -18 30 -36
30 -42 0 -6 69 -10 190 -10 114 0 190 4 190 10 0 5 19 18 43 28 23 10 48 26
54 34 14 16 22 113 10 124 -9 10 -515 11 -533 1z"/>
</g>
</svg>
