<svg width="0" height="0" class="hidden">
    <symbol  xmlns="http://www.w3.org/2000/svg" viewBox="0 0 6 10" id="arrou_con">
        <path d="M1 1l3.61 4L1 9" stroke="#fff" stroke-width="2" stroke-linecap="round" stroke-linejoin="round"></path>
    </symbol>
    <symbol xmlns="http://www.w3.org/2000/svg" viewBox="0 0 24 24" id="arrow-O">
        <path d="M13.025 1l-2.847 2.828 6.176 6.176H0v3.992h16.354l-6.176 6.176L13.025 23 24 12z"></path>
    </symbol>
    <symbol xmlns="http://www.w3.org/2000/svg" viewBox="0 0 24 24" id="arrow-right25">
        <path d="M5 3l3.057-3L20 12 8.057 24 5 21l9-9z"></path>
    </symbol>
    <symbol xmlns="http://www.w3.org/2000/svg" viewBox="0 0 24 24" id="facebook">
        <path d="M15.997 3.985h2.191V.169C17.81.117 16.51 0 14.996 0c-3.159 0-5.323 1.987-5.323 5.639V9H6.187v4.266h3.486V24h4.274V13.267h3.345l.531-4.266h-3.877V6.062c.001-1.233.333-2.077 2.051-2.077z"></path>
    </symbol>
    <symbol xmlns="http://www.w3.org/2000/svg" viewBox="0 0 24 24" id="github">
        <path d="M12 .5C5.37.5 0 5.78 0 12.292c0 5.211 3.438 9.63 8.205 11.188.6.111.82-.254.82-.567 0-.28-.01-1.022-.015-2.005-3.338.711-4.042-1.582-4.042-1.582-.546-1.361-1.335-1.725-1.335-1.725-1.087-.731.084-.716.084-.716 1.205.082 1.838 1.215 1.838 1.215 1.07 1.803 2.809 1.282 3.495.981.108-.763.417-1.282.76-1.577-2.665-.295-5.466-1.309-5.466-5.827 0-1.287.465-2.339 1.235-3.164-.135-.298-.54-1.497.105-3.121 0 0 1.005-.316 3.3 1.209.96-.262 1.98-.392 3-.398 1.02.006 2.04.136 3 .398 2.28-1.525 3.285-1.209 3.285-1.209.645 1.624.24 2.823.12 3.121.765.825 1.23 1.877 1.23 3.164 0 4.53-2.805 5.527-5.475 5.817.42.354.81 1.077.81 2.182 0 1.578-.015 2.846-.015 3.229 0 .309.21.678.825.56C20.565 21.917 24 17.495 24 12.292 24 5.78 18.627.5 12 .5z" ></path>
    </symbol>
    <symbol xmlns="http://www.w3.org/2000/svg" viewBox="0 0 64 64" id="harvest">
        <path d="M53 37h2v2h-2zm0 8h2v2h-2zm0 8h2v2h-2z"></path>
        <path d="M61 29h-4.483a13.925 13.925 0 00-3.209-6.298 8.772 8.772 0 00-2.485-1.95A6.994 6.994 0 0053.844 15v-1h-5c-2.548 0-4.775 1.373-6 3.413V15c0-2.206 1.794-4 4-4V9c-3.309 0-6 2.691-6 6v5.549a7.748 7.748 0 00-8.412 2.094c-.257.286-.498.583-.729.887l.087-.417c.139-.67.21-1.357.21-2.113a9.965 9.965 0 00-3.039-7.165l3.506-5.16a3.1 3.1 0 00-1.179-4.507l-.25-.125a3.07 3.07 0 00-2.363-.168 3.092 3.092 0 00-1.94 1.896l-2.039 5.608a9.848 9.848 0 00-.418-.108l.706-7.069A2.909 2.909 0 0022.095 1h-.189a2.909 2.909 0 00-2.891 3.195l.707 7.078c-.141.033-.28.069-.418.108l-2.038-5.607a3.194 3.194 0 00-.149-.346 3.078 3.078 0 00-1.791-1.553 3.072 3.072 0 00-2.363.168l-.25.125a3.103 3.103 0 00-1.177 4.509l3.508 5.163a10.063 10.063 0 00-2.833 9.272L13.438 29H12c-1.103 0-2 .897-2 2v.08A7.026 7.026 0 009 31H4v1a6.994 6.994 0 003.021 5.752 8.73 8.73 0 00-2.485 1.951A13.97 13.97 0 001 49c0 3.842 1.525 7.425 4.294 10.09a13.885 13.885 0 0010.261 3.9c3.559-.137 6.796-1.64 9.203-3.989H54c2.757 0 5-2.243 5-5V35h2c1.103 0 2-.897 2-2v-2c0-1.103-.897-2-2-2zM48.844 16h2.899a5.009 5.009 0 01-4.899 4h-2.899a5.008 5.008 0 014.899-4zm-14.926 7.98c1.629-1.81 4.324-2.407 6.554-1.453.12.051.247.091.372.134v2.135c-.993-.37-1.936-1.149-2.294-1.505l-1.413 1.416c.234.235 2.36 2.293 4.707 2.293s4.473-2.058 4.707-2.293l-1.413-1.416c-.358.355-1.301 1.134-2.294 1.505V22h4c.339 0 .669-.032.995-.079 1.401.1 2.883.884 3.975 2.11A11.933 11.933 0 0154.459 29h-23.23a11.938 11.938 0 012.689-5.02zM28.615 6.453a1.05 1.05 0 01.058-.131c.131-.262.355-.457.634-.55.28-.093.575-.071.837.06l.25.125a1.096 1.096 0 01.417 1.596l-3.422 5.036a10.065 10.065 0 00-.831-.48l2.057-5.656zM21 3.905c0-.499.406-.905.905-.905h.189c.499 0 .905.406.9.995l-.702 7.02C22.195 11.012 22.099 11 22 11c-.099 0-.195.012-.293.015L21 3.905zm-7.809 3.651a1.097 1.097 0 01.415-1.599l.25-.125c.261-.13.558-.153.837-.06a1.106 1.106 0 01.693.682l2.057 5.657a9.885 9.885 0 00-.83.48l-3.422-5.035zM22 13c4.411 0 8 3.589 8 8.072 0 .547-.057 1.096-.168 1.632L28.52 29H17.382c.703-.615 1.612-1 2.618-1v-2a5.99 5.99 0 00-4.677 2.25l-1.156-5.546A8.325 8.325 0 0114 21c0-4.411 3.589-8 8-8zM12 31h2.09c-.055.326-.09.659-.09 1v1.111a7.013 7.013 0 00-2-1.425V31zm-3 2a5.008 5.008 0 014.899 4H11a5.008 5.008 0 01-4.899-4H9zm6.478 27.991c-3.318.119-6.424-1.06-8.797-3.343A11.903 11.903 0 013 49a11.98 11.98 0 013.029-7.969c1.092-1.227 2.574-2.011 3.976-2.11.326.047.656.079.995.079h3v2.796c-.993-.37-1.936-1.149-2.294-1.505l-1.413 1.416C10.527 41.942 12.653 44 15 44s4.473-2.058 4.707-2.293l-1.413-1.416c-.358.355-1.301 1.134-2.294 1.505v-1.883a5.831 5.831 0 001.372-.386c2.229-.956 4.925-.356 6.553 1.453a11.943 11.943 0 013.063 8.565c-.273 6.18-5.33 11.207-11.51 11.446zM28.984 49a13.93 13.93 0 00-1.332-6H57v6H28.984zM54 57H26.463a13.9 13.9 0 002.393-6H57v3c0 1.654-1.346 3-3 3zm7-24h-4v8H26.475a14.03 14.03 0 00-1.063-1.357 7.766 7.766 0 00-8.826-1.954 3.9 3.9 0 01-.585.179V35h39v-2H16v-1c0-.347.058-.678.142-1H61v2z"></path>
        <path d="M7 49H5c0 5.514 4.486 10 10 10v-2c-4.411 0-8-3.589-8-8zm18-32h2v2h-2zm0 4h2v2h-2zm0 4h2v2h-2z"></path>
    </symbol>
    <symbol xmlns="http://www.w3.org/2000/svg" viewBox="0 0 24 24" id="home">
        <path d="M21 13v10h-6v-6H9v6H3V13H0L12 1l12 12h-3zm-1-5.907V2h-3v2.093l3 3z"></path>
    </symbol>
    <symbol xmlns="http://www.w3.org/2000/svg" viewBox="0 0 512 512" id="ice-cream-logo">
        <path d="M354.754 182.784c-3.347 3.346-8.792 3.346-12.138 0a7.501 7.501 0 00-10.607 10.607c4.598 4.597 10.637 6.896 16.676 6.896s12.078-2.299 16.675-6.896a7.5 7.5 0 000-10.606 7.498 7.498 0 00-10.606-.001zm-62.39 25.575c-3.346 3.347-8.792 3.347-12.138 0a7.5 7.5 0 00-10.606 0 7.5 7.5 0 000 10.606c4.598 4.598 10.636 6.896 16.675 6.896s12.079-2.299 16.676-6.896a7.5 7.5 0 10-10.607-10.606zm-119.925-30.284a7.5 7.5 0 00-7.5-7.5h-11.044a7.5 7.5 0 000 15h11.044a7.5 7.5 0 007.5-7.5zm14.589 32.997h-11.044a7.5 7.5 0 000 15h11.044a7.5 7.5 0 000-15zm-61.358-1.228h-11.044a7.5 7.5 0 000 15h11.044a7.5 7.5 0 000-15z"></path>
        <circle cx="340.506" cy="227.5" r="7.5"></circle>
        <circle cx="390.506" cy="204.5" r="7.5"></circle>
        <circle cx="300.506" cy="174.5" r="7.5"></circle>
        <path d="M276.506 364.5h-41a7.5 7.5 0 000 15h41a7.5 7.5 0 000-15zm-9.5 28h-22a7.5 7.5 0 000 15h22a7.5 7.5 0 000-15zm-42.567-223.425a7.5 7.5 0 00-7.5-7.5h-11.044a7.5 7.5 0 000 15h11.044a7.5 7.5 0 007.5-7.5z"></path>
        <path d="M437.906 250.341h-1.798c.107-1.987.171-3.986.171-5.999 0-33.265-14.608-63.177-37.739-83.677l26.612-38.571a7.501 7.501 0 00-12.347-8.519L386.66 151.47a111.891 111.891 0 00-15.477-8.698 111.14 111.14 0 00-6.87-35.349l36.122-76.083c3.467-7.303 9.627-12.649 17.346-15.054 7.72-2.404 15.826-1.502 22.827 2.54s11.836 10.612 13.613 18.499.228 15.895-4.364 22.549l-17.175 24.893a7.501 7.501 0 0012.347 8.519l17.175-24.893c6.896-9.994 9.319-22.52 6.65-34.365s-10.23-22.121-20.746-28.192a43.752 43.752 0 00-34.788-3.871 43.75 43.75 0 00-26.436 22.941l-30.862 65.007c-19.41-33.199-55.437-55.552-96.591-55.552-54.443 0-99.91 39.118-109.8 90.721-45.855 13.952-79.32 56.633-79.32 106.989 0 6.222.524 12.323 1.508 18.271h-3.135c-14.666 0-26.597 11.932-26.597 26.597s11.932 26.597 26.597 26.597h2.644l26.556 160.36a13.595 13.595 0 0013.457 11.412h.695V499.5c0 6.893 5.607 12.5 12.5 12.5h257.521c6.893 0 12.5-5.607 12.5-12.5v-24.193h.695a13.594 13.594 0 0013.457-11.412l26.556-160.36h2.644c14.666 0 26.597-11.931 26.597-26.597s-11.934-26.597-26.6-26.597zm-16.627-5.999a96.13 96.13 0 01-.198 5.999h-35.125c.031-.276.05-.556.05-.841a7.5 7.5 0 00-15 0c0 .285.019.564.05.841h-106.1c.031-.276.05-.556.05-.841a7.5 7.5 0 00-15 0c0 .285.019.564.05.841h-22.198a96.13 96.13 0 01-.198-5.999c0-53.38 43.428-96.809 96.809-96.809s96.81 43.428 96.81 96.809zM261.934 49.393a96.152 96.152 0 0144.979 12.438l-26.591 79.796a111.732 111.732 0 00-19.665 10.96 112.452 112.452 0 00-26.608-19.513zm93.861 87.613a111.48 111.48 0 00-31.326-4.473 111.67 111.67 0 00-26.356 3.146l21.7-65.117c19.94 15.96 33.452 39.626 35.982 66.444zM245.812 50.324l-25.542 76.648c-11.911-4.339-24.758-6.71-38.151-6.71-5.531 0-10.968.41-16.287 1.19 9.825-37.172 41.251-65.65 79.98-71.128zM85.31 232.07c0-53.38 43.428-96.809 96.809-96.809 25.859 0 49.38 10.194 66.762 26.771-22.25 20.45-36.22 49.777-36.22 82.309 0 2.013.064 4.012.171 5.999H87.058a96.668 96.668 0 01-1.748-18.27zm308.786 228.237h-39.09a7.5 7.5 0 000 15h24.549V497H127.034v-21.693h192.972a7.5 7.5 0 000-15H112.492l-7.418-44.796h95.548c11.085 19.104 31.751 31.989 55.384 31.989s44.298-12.885 55.384-31.989h90.125zM256.006 432.5c-27.019 0-49-21.981-49-49s21.981-49 49-49 49 21.981 49 49-21.981 49-49 49zm181.9-143.965h-240.9a7.5 7.5 0 000 15h223.052l-16.059 96.976h-86.305a63.805 63.805 0 002.313-17.011c0-35.29-28.71-64-64-64s-64 28.71-64 64c0 5.89.816 11.59 2.313 17.011h-91.73l-16.059-96.976h75.475a7.5 7.5 0 000-15H68.683c-6.395 0-11.597-5.202-11.597-11.597s5.203-11.597 11.597-11.597h369.223c6.395 0 11.597 5.203 11.597 11.597s-5.202 11.597-11.597 11.597z"></path>
    </symbol>
    <symbol xmlns="http://www.w3.org/2000/svg" viewBox="0 0 512 512" id="ice-cream-svg(hover)">
        <path d="M389.01 188.539c.003.112 0-.111 0 0z"></path>
        <path d="M390.025 232.046A10.001 10.001 0 00381.99 228h-4.919c7.613-11.436 11.938-25.356 11.938-39.461-.548-16.371-8.305-31.91-21.277-42.341a57.57 57.57 0 00-7.133-4.891 55.775 55.775 0 003.69-20.019c0-7.572-1.485-14.922-4.414-21.848-7.426-17.556-23.509-29.54-41.809-32.64.307-2.456.464-4.936.464-7.433C318.531 26.632 291.898 0 259.163 0c-5.523 0-10 4.477-10 10 0 6.879-5.597 12.477-12.477 12.477h-23.194c-32.642 0-59.635 26.179-60.171 58.356a59.144 59.144 0 002.242 17.256c-16.182 9.586-26.519 27.201-26.519 46.471 0 11.064 3.318 21.614 9.464 30.533-9.121 8.063-15.01 19.709-15.518 32.467-.005.132-.008.265-.008.398 0 7.143 1.61 14.089 4.549 20.363a9.993 9.993 0 00-5.555 3.726 9.998 9.998 0 00-1.532 8.865l19.476 64a10 10 0 009.567 7.089h11.375l28.764 191.485a10 10 0 009.889 8.515h112.972a10 10 0 009.889-8.515l8.336-55.497c.82-5.461-2.942-10.554-8.404-11.375-5.458-.819-10.554 2.942-11.375 8.404L303.876 492h-95.752l-27.039-180h149.829l-6.611 44.011c-.82 5.461 2.942 10.554 8.404 11.375 5.458.819 10.554-2.942 11.375-8.404L351.139 312h11.375a10 10 0 009.567-7.089l19.476-64a10.002 10.002 0 00-1.532-8.865zM213.493 42.477h23.194c14.106 0 26.141-9.04 30.614-21.631 17.816 3.759 31.23 19.604 31.23 38.522 0 2.6-.256 5.169-.753 7.686L174.561 91.685a39.397 39.397 0 01-1.242-10.518c.355-21.334 18.377-38.69 40.174-38.69zm-42.51 70.318l130.476-26.088c16.732-3.345 33.551 5.287 39.996 20.524a35.9 35.9 0 012.834 14.057c0 4.56-.842 8.981-2.483 13.167-6.393-1.106-12.97-1.116-19.455.083l-162.384 30.027c-1.27.235-2.521.525-3.75.866-4.646-5.941-7.174-13.21-7.174-20.871 0-14.102 8.798-26.783 21.94-31.765zM355.104 292H156.896l-13.39-44h224.988zm-4.848-64H151.509c-5.272-4.999-8.472-12.336-8.527-19.842.557-11.583 9.389-21.849 20.622-23.926l162.384-30.027c10.226-1.892 20.872.872 29.211 7.579 8.385 6.743 13.414 16.609 13.812 27.092-.051 15.331-7.159 30.012-18.755 39.124z"></path>
        <circle cx="327.51" cy="402" r="10"></circle>
    </symbol>
    <symbol xmlns="http://www.w3.org/2000/svg" viewBox="0 0 512 512" id="lemonade">
        <path d="M397.176 150.408h-3.566c-4.53-32.121-20.184-61.651-44.42-83.57a138.607 138.607 0 00-69.925-33.915V12.5c0-6.893-5.607-12.5-12.5-12.5h-21.529c-6.893 0-12.5 5.607-12.5 12.5v20.423a138.6 138.6 0 00-69.925 33.915c-24.236 21.919-39.89 51.449-44.42 83.57h-3.566c-9.226 0-16.731 7.505-16.731 16.731v15.146c0 9.226 7.505 16.731 16.731 16.731h4.731l30.846 269.24c.864 7.539 6.57 13.444 13.8 14.768v11.994c0 9.364 7.619 16.983 16.983 16.983h149.634c9.364 0 16.983-7.619 16.983-16.983v-11.995c7.228-1.324 12.932-7.23 13.796-14.767l30.846-269.239h4.731c9.226 0 16.731-7.505 16.731-16.731V167.14c.001-9.227-7.505-16.732-16.73-16.732zm-58.048-72.445c21.096 19.079 34.905 44.612 39.318 72.445h-99.182V48.161a123.638 123.638 0 0159.864 29.802zM247.735 15h16.529v16.219c-2.744-.162-5.499-.253-8.265-.253s-5.521.091-8.265.253V15zm-74.863 62.963a123.638 123.638 0 0159.864-29.802v27.562a7.5 7.5 0 0015 0v-29.48c2.742-.182 5.498-.277 8.265-.277s5.522.095 8.265.277v104.165h-16.529v-38.395a7.5 7.5 0 00-15 0v38.395h-99.182c4.411-27.833 18.221-53.366 39.317-72.445zM330.819 497H181.185a1.986 1.986 0 01-1.983-1.983v-11.712h153.6v11.712c0 1.093-.89 1.983-1.983 1.983zm-25.566-44.709c-13.604 11.049-30.734 16.708-48.354 15.941-17.989-.781-34.915-8.229-47.657-20.971s-20.19-29.668-20.971-47.657c-.765-17.611 4.892-34.75 15.941-48.354l9.036 9.036c-17.955 23.186-16.314 56.746 4.955 78.015 11.533 11.534 26.683 17.3 41.833 17.3 12.789 0 25.569-4.126 36.182-12.345zm41.443 14.256a1.982 1.982 0 01-1.97 1.757h-35.91a87.002 87.002 0 006.647-4.989 14.328 14.328 0 005.151-10.335 14.21 14.21 0 00-4.139-10.68l-38.46-38.46a7.5 7.5 0 00-10.606 0 7.5 7.5 0 000 10.606l18.091 18.091c-17.227 12.173-41.28 10.566-56.69-4.843-15.41-15.41-17.017-39.464-4.843-56.69l17.782 17.782a7.5 7.5 0 0010.606 0 7.5 7.5 0 000-10.606l-38.152-38.152a14.22 14.22 0 00-10.68-4.138 14.332 14.332 0 00-10.336 5.151c-13.772 16.574-20.84 37.604-19.902 59.214.944 21.749 9.947 42.21 25.351 57.613a87.2 87.2 0 0012.612 10.438h-43.973a1.982 1.982 0 01-1.97-1.757l-24.967-217.924h231.326zm52.211-284.262c0 .955-.776 1.731-1.731 1.731h-68.42a7.5 7.5 0 000 15h48.591l-3.965 34.608H138.618l-3.965-34.608h157.813a7.5 7.5 0 000-15H114.824a1.732 1.732 0 01-1.731-1.731v-15.146c0-.955.776-1.731 1.731-1.731h282.352c.955 0 1.731.776 1.731 1.731z"></path>
        <path d="M234.671 395.858l-1.732.733a7.5 7.5 0 005.846 13.814l1.732-.733a7.5 7.5 0 00-5.846-13.814zM256.659 412a7.502 7.502 0 00-9.83 3.984l-.733 1.732a7.5 7.5 0 0013.814 5.846l.733-1.732a7.5 7.5 0 00-3.984-9.83zm44.295-128.676h-.104a7.5 7.5 0 000 15h.104a7.5 7.5 0 000-15zm-29.102 12.496h-.14a7.5 7.5 0 00-.034 15h.14a7.5 7.5 0 00.034-15zm27.99 55.625h-.14a7.5 7.5 0 00-.034 15h.14a7.5 7.5 0 00.034-15z"></path>
    </symbol>
    <symbol xmlns="http://www.w3.org/2000/svg" viewBox="0 0 24 24" id="telegram">
        <path d="M9.417 15.181l-.397 5.584c.568 0 .814-.244 1.109-.537l2.663-2.545 5.518 4.041c1.012.564 1.725.267 1.998-.931L23.93 3.821l.001-.001c.321-1.496-.541-2.081-1.527-1.714l-21.29 8.151c-1.453.564-1.431 1.374-.247 1.741l5.443 1.693L18.953 5.78c.595-.394 1.136-.176.691.218z"></path>
    </symbol>
    <symbol id="icon-untitled" viewBox="0 0 43 32">
        <path d="M32.014 0c1.929 0 3.75 0.52 5.464 1.561s3.107 2.537 4.179 4.488c1.029 1.951 1.543 4.249 1.543 6.894s-0.643 5.225-1.929 7.74c-0.429 0.911-1.2 2.081-2.314 3.512-1.157 1.431-2.229 2.667-3.214 3.707l-4.050 4.098-2.893-4.813c2.014-1.257 3.793-2.818 5.336-4.683 1.543-1.821 2.314-3.491 2.314-5.008 0-0.78-0.171-1.409-0.514-1.886-1.5 1.084-3.171 1.626-5.014 1.626-1.329 0-2.593-0.412-3.793-1.236-1.243-0.78-2.229-1.821-2.957-3.122-0.771-1.258-1.157-2.558-1.157-3.902 0-1.518 0.45-2.97 1.35-4.358 0.857-1.388 1.993-2.515 3.407-3.382 1.371-0.824 2.786-1.236 4.243-1.236zM8.936 0c1.929 0 3.75 0.52 5.464 1.561s3.107 2.537 4.179 4.488c1.029 1.951 1.543 4.249 1.543 6.894 0 1.864-0.236 3.534-0.707 5.008-0.471 1.518-1.286 3.1-2.443 4.748-1.114 1.561-2.164 2.862-3.15 3.902-0.986 1.084-2.7 2.884-5.143 5.398l-2.893-4.813c2.014-1.257 3.793-2.818 5.336-4.683 1.543-1.821 2.314-3.491 2.314-5.008 0-0.78-0.171-1.409-0.514-1.886-1.5 1.084-3.171 1.626-5.014 1.626-1.329 0-2.593-0.412-3.793-1.236-1.243-0.78-2.229-1.821-2.957-3.122-0.771-1.258-1.157-2.558-1.157-3.902 0-1.518 0.429-2.97 1.286-4.358s1.993-2.515 3.407-3.382c1.371-0.824 2.786-1.236 4.243-1.236z"></path>
    </symbol>
</svg>