<svg aria-hidden="true" style="position: absolute; width: 0; height: 0; overflow: hidden;" version="1.1" xmlns="http://www.w3.org/2000/svg" xmlns:xlink="http://www.w3.org/1999/xlink">
<defs>
<symbol id="icon-close" viewBox="0 0 32 32">
<path stroke-linejoin="miter" stroke-linecap="butt" stroke-miterlimit="4" stroke-width="2" d="M2.519 2l26.963 28"></path>
<path stroke-linejoin="miter" stroke-linecap="butt" stroke-miterlimit="4" stroke-width="2" d="M2 29.481l28-26.963"></path>
</symbol>
<symbol id="icon-burger" viewBox="0 0 46 32">
<path stroke-linejoin="miter" stroke-linecap="butt" stroke-miterlimit="4" stroke-width="2.2857" d="M0 2.286h45.714"></path>
<path stroke-linejoin="miter" stroke-linecap="butt" stroke-miterlimit="4" stroke-width="2.2857" d="M0 16h45.714"></path>
<path stroke-linejoin="miter" stroke-linecap="butt" stroke-miterlimit="4" stroke-width="2.2857" d="M0 29.714h45.714"></path>
</symbol>
<symbol id="icon-arrow" viewBox="0 0 38 32">
<path d="M27.474 16l-10.537-10.537 4.525-4.525 15.063 15.063-15.063 15.063-4.525-4.525 10.537-10.537z"></path>
<path d="M28.8 19.2h-28.8v-6.4h28.8v6.4z"></path>
</symbol>
<symbol id="icon-github" viewBox="0 0 32 32">
<path d="M16 0c-8.788 0-16 7.212-16 16 0 7.499 5.262 14.312 12.25 16v-5.293c-0.692 0.152-1.33 0.156-2.034-0.052-0.946-0.279-1.714-0.909-2.284-1.869-0.364-0.613-1.008-1.278-1.68-1.23l-0.165-1.868c1.453-0.124 2.711 0.886 3.457 2.14 0.332 0.558 0.713 0.884 1.203 1.029 0.473 0.14 0.982 0.072 1.574-0.137 0.149-1.186 0.692-1.63 1.102-2.255v-0.001c-4.167-0.622-5.828-2.832-6.488-4.578-0.874-2.317-0.405-5.212 1.14-7.041 0.030-0.036 0.084-0.129 0.063-0.194-0.708-2.139 0.155-3.909 0.187-4.097 0.817 0.242 0.95-0.243 3.551 1.337l0.449 0.27c0.188 0.112 0.129 0.048 0.317 0.034 1.086-0.295 2.23-0.458 3.358-0.472 1.136 0.015 2.273 0.178 3.404 0.484l0.145 0.015c-0.013-0.002 0.040-0.009 0.127-0.062 3.248-1.968 3.132-1.324 4.003-1.608 0.032 0.188 0.883 1.987 0.182 4.099-0.095 0.291 2.816 2.956 1.203 7.235-0.659 1.746-2.32 3.957-6.487 4.578v0.001c0.534 0.814 1.176 1.247 1.173 2.927v6.608c6.988-1.688 12.25-8.501 12.25-16 0-8.788-7.212-16-16-16v0z"></path>
</symbol>
<symbol id="icon-facebook" viewBox="0 0 16 32">
<path d="M14.143 15.972h-4.034v14.865h-6.112v-14.865h-2.907v-5.224h2.907v-3.381c0-2.418 1.142-6.203 6.166-6.203l4.527 0.019v5.071h-3.285c-0.539 0-1.296 0.271-1.296 1.424v3.075h4.567l-0.534 5.219z"></path>
</symbol>
<symbol id="icon-telegram" viewBox="0 0 44 32">
<path d="M17.343 21.048l-0.675 8.86c0.966 0 1.384-0.387 1.885-0.852l4.527-4.038 9.381 6.412c1.72 0.895 2.933 0.424 3.397-1.477l6.157-26.929 0.002-0.002c0.546-2.374-0.92-3.302-2.596-2.72l-36.194 12.933c-2.47 0.895-2.433 2.18-0.42 2.762l9.253 2.686 21.494-12.552c1.011-0.625 1.931-0.279 1.175 0.346l-17.386 14.57z"></path>
</symbol>
<symbol id="icon-house" viewBox="0 0 35 32">
<path d="M34.253 15.613c0.599-0.659 0.541-1.669-0.129-2.255l-14.772-12.926c-0.671-0.586-1.745-0.574-2.402 0.028l-14.822 13.587c-0.656 0.602-0.689 1.611-0.071 2.252l0.372 0.387c0.617 0.642 1.613 0.718 2.224 0.17l1.108-0.992v14.523c0 0.891 0.722 1.613 1.612 1.613h5.778c0.89 0 1.612-0.721 1.612-1.613v-10.16h7.37v10.16c-0.013 0.89 0.624 1.612 1.515 1.612h6.123c0.89 0 1.613-0.722 1.613-1.613v-14.318c0 0 0.306 0.268 0.683 0.6s1.168 0.066 1.767-0.594l0.42-0.462z"></path>
</symbol>
<symbol id="icon-hart_on_stick" viewBox="0 0 29 32">
<path stroke-linejoin="miter" stroke-linecap="butt" stroke-miterlimit="4" stroke-width="1.92" d="M12.48 22.72v8.32h3.84v-8.32M1.92 11.52c0.64 0.64 0.96 0.64 1.28 0.64 2.24 0 1.6-3.84 3.52-3.84 1.28 0 1.92 0.64 1.92 2.88 0 1.92 0.64 2.88 1.92 2.88s1.92-0.96 1.92-2.88c0-2.24 0.64-2.88 1.92-2.88s1.92 0.64 1.92 2.88c0 2.24 0.64 2.88 1.92 2.88s1.92-0.64 1.92-2.88c0-2.24 0.64-2.88 1.92-2.88s1.6 1.28 1.92 2.56c0.31 1.242 0.64 1.6 1.28 1.6s1.387-0.747 1.6-0.96M1.28 8.32c0 5.38 4.761 9.758 10.734 13.798 1.441 0.975 3.331 0.975 4.772 0 5.974-4.041 10.734-8.418 10.734-13.798 0-6.080-3.84-7.36-6.080-7.36-2.645 0-4.415 1.093-6.034 2.737-0.551 0.559-1.462 0.559-2.013 0-1.619-1.644-3.389-2.737-6.034-2.737-2.24 0-6.080 1.28-6.080 7.36z"></path>
</symbol>
<symbol id="icon-apple_bucket" viewBox="0 0 31 32">
<path stroke-linejoin="round" stroke-linecap="round" stroke-miterlimit="4" stroke-width="1.8824" d="M1.255 11.294h22.588M1.255 11.294l3.116 19.451h15.578l0.314-1.569M1.255 11.294c1.168 4.090 2.726 10.039 11.684 10.039 7.166 0 10.256-6.693 10.905-10.039M23.843 11.294l-2.196 10.98M24.784 23.53c-0.941-0.627-1.569-1.255-2.824-1.255s-2.51 0.941-2.51 3.137c0 2.824 1.882 5.020 3.765 5.020 0.314 0 0.941 0 1.569-0.627 0.627 0.627 0.941 0.627 1.255 0.627 1.882 0 3.765-2.196 3.765-5.020 0-2.196-1.255-3.137-2.51-3.137s-1.569 0.627-2.51 1.255zM24.784 23.53c0-2.51 0.941-4.078 2.196-5.020M16.941 6.619c-0.941-0.627-1.569-1.255-2.824-1.255-0.623 0-1.245 0.232-1.715 0.734M16.941 6.619c0.941-0.627 1.255-1.255 2.51-1.255s2.51 0.941 2.51 3.137c0 1.002-0.237 1.926-0.628 2.7M16.941 6.619c-0.627-2.51 0.314-4.078 1.569-5.020M6.419 6.904c-1.198 0.054-2.128-0.088-3.201 0.699-0.963 0.707-1.45 2.063-0.542 3.691M6.419 6.904c0.411-1.127 0.285-1.86 1.358-2.647s2.736-0.77 4.114 1.107c1.481 2.017 1.562 4.484 0.61 5.93M6.419 6.904c-1.575-2.145-1.754-4.077-1.272-5.668"></path>
</symbol>
<symbol id="icon-milk_bucket" viewBox="0 0 21 32">
<path d="M1.28 13.44v-0.96c-0.279 0-0.544 0.121-0.726 0.332s-0.264 0.49-0.224 0.766l0.95-0.138zM19.84 13.44l0.945 0.172c0.051-0.28-0.025-0.568-0.207-0.787s-0.452-0.345-0.737-0.345v0.96zM18.16 2.18v0zM17.414 3.858v0zM17.495 4.411v0zM18.203 5.237v0zM15.957 7.317v0zM15.309 6.669v0zM14.708 6.585v0zM12.455 7.836v0zM8.369 7.831v0zM6.422 6.614v0zM5.757 6.642v0zM4.578 7.526v0zM2.686 5.507v0zM3.59 4.451v0zM3.684 3.809v0zM2.96 2.18v0zM2.673 7.304v0zM18.037 7.397v0zM16.64 31.040v0.96c0.464 0 0.861-0.332 0.945-0.788l-0.945-0.172zM3.84 31.040l-0.95 0.138c0.069 0.472 0.473 0.822 0.95 0.822v-0.96zM0.354 13.693c0.469 1.719 1.070 4.082 2.573 5.983 1.561 1.974 4.011 3.365 7.953 3.365v-1.92c-3.418 0-5.288-1.17-6.447-2.635-1.217-1.539-1.736-3.496-2.227-5.297l-1.852 0.505zM10.88 23.040c3.303 0 5.665-1.631 7.238-3.601 1.554-1.947 2.376-4.261 2.666-5.824l-1.888-0.35c-0.244 1.317-0.958 3.322-2.278 4.976-1.302 1.63-3.153 2.879-5.738 2.879v1.92zM17.283 1.79l-0.746 1.678 1.755 0.78 0.746-1.678-1.755-0.78zM16.767 5.036l0.708 0.826 1.458-1.25-0.708-0.826-1.458 1.25zM16.636 6.638l-0.648-0.648-1.358 1.358 0.648 0.648 1.358-1.358zM14.241 5.746l-2.253 1.252 0.932 1.678 2.253-1.252-0.932-1.678zM11.2 8.337v1.103h1.92v-1.103h-1.92zM9.6 9.44v-1.121h-1.92v1.121h1.92zM8.878 7.017l-1.947-1.217-1.018 1.628 1.947 1.217 1.018-1.628zM5.181 5.874l-1.179 0.884 1.152 1.536 1.179-0.884-1.152-1.536zM3.415 6.131l0.905-1.055-1.458-1.25-0.905 1.055 1.458 1.25zM4.561 3.42l-0.724-1.629-1.755 0.78 0.724 1.629 1.755-0.78zM3.545 2.24h14.030v-1.92h-14.030v1.92zM3.837 1.79c0.094 0.212-0.061 0.45-0.292 0.45v-1.92c-1.158 0-1.932 1.192-1.462 2.25l1.755-0.78zM4.319 5.076c0.394-0.459 0.488-1.104 0.242-1.657l-1.755 0.78c-0.055-0.124-0.034-0.269 0.054-0.373l1.458 1.25zM3.411 6.689c-0.135-0.162-0.133-0.398 0.004-0.558l-1.458-1.25c-0.747 0.872-0.756 2.155-0.021 3.037l1.475-1.229zM4.002 6.758c-0.184 0.138-0.444 0.108-0.591-0.069l-1.475 1.229c0.802 0.962 2.217 1.127 3.218 0.376l-1.152-1.536zM6.931 5.8c-0.543-0.339-1.238-0.31-1.75 0.074l1.152 1.536c-0.123 0.092-0.289 0.099-0.42 0.018l1.018-1.628zM9.6 8.319c0-0.53-0.273-1.022-0.722-1.303l-1.018 1.628c-0.112-0.070-0.18-0.193-0.18-0.326h1.92zM10.4 10.24c-0.442 0-0.8-0.358-0.8-0.8h-1.92c0 1.502 1.218 2.72 2.72 2.72v-1.92zM11.2 9.44c0 0.442-0.358 0.8-0.8 0.8v1.92c1.502 0 2.72-1.218 2.72-2.72h-1.92zM11.988 6.997c-0.487 0.27-0.788 0.783-0.788 1.34h1.92c0 0.141-0.076 0.27-0.199 0.339l-0.932-1.678zM15.988 5.99c-0.462-0.462-1.175-0.562-1.747-0.245l0.932 1.678c-0.178 0.099-0.4 0.068-0.544-0.076l1.358-1.358zM17.412 6.668c-0.227 0.194-0.565 0.181-0.776-0.030l-1.358 1.358c0.921 0.921 2.395 0.977 3.384 0.13l-1.249-1.458zM17.474 5.862c0.206 0.24 0.178 0.601-0.062 0.806l1.249 1.458c1.045-0.896 1.166-2.469 0.27-3.514l-1.458 1.25zM16.537 3.468c-0.233 0.523-0.143 1.134 0.229 1.568l1.458-1.25c0.11 0.128 0.136 0.307 0.067 0.461l-1.755-0.78zM19.037 2.57c0.47-1.058-0.304-2.25-1.462-2.25v1.92c-0.232 0-0.387-0.238-0.292-0.45l1.755 0.78zM1.28 14.4h18.56v-1.92h-18.56v1.92zM18.895 13.268l-3.2 17.6 1.889 0.343 3.2-17.6-1.889-0.343zM16.64 30.080h-12.8v1.92h12.8v-1.92zM4.79 30.902l-2.56-17.6-1.9 0.276 2.56 17.6 1.9-0.276z"></path>
</symbol>
<symbol id="icon-button_arrow" viewBox="0 0 19 32">
<path stroke-linejoin="round" stroke-linecap="round" stroke-miterlimit="4" stroke-width="6.4" d="M3.2 3.2l12.8 12.8-12.8 12.8"></path>
</symbol>
</defs>
</svg>
