<svg aria-hidden="true" style="position: absolute; width: 0; height: 0; overflow: hidden;" version="1.1" xmlns="http://www.w3.org/2000/svg" xmlns:xlink="http://www.w3.org/1999/xlink">
    <defs>
        <symbol id="tradition-icon-3" viewBox="0 0 28 32">
            <path fill="none" stroke="#ffa5ba" style="stroke: var(--color1, #ffa5ba)" stroke-linejoin="miter" stroke-linecap="butt" stroke-miterlimit="10" stroke-width="1.5094" d="M14.249 4.528s1.872-3.442 6.943-3.623 6.219 3.502 6.4 7.306c0.604 8.755-13.223 15.034-13.223 15.034s-13.404-6.279-13.585-14.853c-0.181-3.441 1.026-7.487 6.581-7.185s6.883 3.321 6.883 3.321z"></path>
            <path fill="none" stroke="#ffa5ba" style="stroke: var(--color1, #ffa5ba)" stroke-linejoin="miter" stroke-linecap="butt" stroke-miterlimit="10" stroke-width="1.5094" d="M12.136 22.883h4.166v8.211h-4.166zM2.958 14.43s0.966-6.219 3.502-5.917c4.045 0.181 0.604 6.098 3.864 6.098 3.864 0.242 0.362-5.917 3.864-5.917 3.502 0.060 0.423 5.857 3.804 5.917s0.845-6.159 3.864-6.159 3.442 5.917 3.442 5.917"></path>
        </symbol>
        <symbol id="tradition-icon-2" viewBox="0 0 31 32">
            <path fill="none" stroke="#ffa5ba" style="stroke: var(--color1, #ffa5ba)" stroke-linejoin="miter" stroke-linecap="butt" stroke-miterlimit="10" stroke-width="1.5094" d="M12.136 8.392s1.449-4.408-2.536-4.891c-3.019-0.362-3.804 3.14-3.804 3.14s-1.992-0.725-3.381 1.087-0.966 3.623-0.966 3.623"></path>
            <path fill="none" stroke="#ffa5ba" style="stroke: var(--color1, #ffa5ba)" stroke-linejoin="miter" stroke-linecap="butt" stroke-miterlimit="10" stroke-width="1.5094" d="M4.468 0.664s-0.302 1.389 0 3.019 1.268 2.958 1.268 2.958M13.223 11.532s-2.657-4.106 0.483-5.857c1.932-1.087 3.442 0.966 3.442 0.966s2.355-2.536 4.287-0.785 0.906 5.313 0.906 5.313"></path>
            <path fill="none" stroke="#ffa5ba" style="stroke: var(--color1, #ffa5ba)" stroke-linejoin="miter" stroke-linecap="butt" stroke-miterlimit="10" stroke-width="1.5094" d="M18.717 0.845s-1.691 0.664-2.053 2.174c-0.362 1.449 0.483 3.623 0.483 3.623M1.147 11.532s0.604 9.117 10.989 9.298c10.385 0.302 11.23-9.298 11.23-9.298M24.755 23.004s0.785-1.449 2.838-1.268c1.449 0.181 2.657 1.389 2.657 3.442 0 2.475-0.906 5.192-5.494 5.192s-5.615-3.623-5.615-5.494c0-1.449 0.483-2.959 2.174-3.442 2.053-0.483 3.442 1.57 3.442 1.57z"></path>
            <path fill="none" stroke="#ffa5ba" style="stroke: var(--color1, #ffa5ba)" stroke-linejoin="miter" stroke-linecap="butt" stroke-miterlimit="10" stroke-width="1.5094" d="M26.626 17.57s-1.449 0.785-1.751 2.174-0.121 3.26-0.121 3.26M19.2 25.057c0.121-3.321 2.234-4.226 2.234-4.226l1.872-9.238h-22.159l3.925 19.2h14.43l0.604-1.872c-0.060-0.060-0.906-1.811-0.906-3.864z"></path>
        </symbol>
        <symbol id="tradition-icon-1" viewBox="0 0 21 32">
            <path fill="none" stroke="#ffa5ba" style="stroke: var(--color1, #ffa5ba)" stroke-linejoin="miter" stroke-linecap="butt" stroke-miterlimit="10" stroke-width="1.92" d="M3.648 0.96h14.336s0.576 0 0.576 0.64-0.896 2.048-0.896 2.048 1.792 1.92 0.768 3.264-3.584-0.512-3.584-0.512l-2.048 0.704s0.384 3.904-1.984 3.904-1.92-3.84-1.92-3.84l-2.368-0.832s-2.048 2.048-3.328 0.704 0.64-3.52 0.64-3.52-1.088-1.216-1.088-1.92 0.896-0.64 0.896-0.64zM1.92 13.888h17.856l-3.072 17.088h-11.968z"></path>
            <path fill="none" stroke="#ffa5ba" style="stroke: var(--color1, #ffa5ba)" stroke-linejoin="miter" stroke-linecap="butt" stroke-miterlimit="10" stroke-width="1.92" d="M1.92 13.888s1.344 8.512 8.896 8.512 8.896-8.512 8.896-8.512"></path>
        </symbol>
        <symbol id="tradition-arrow" viewBox="0 0 26 32">
            <path fill="none" stroke="#d41443" style="stroke: var(--color1, #d41443)" stroke-linejoin="round" stroke-linecap="round" stroke-miterlimit="4" stroke-width="6.4" d="M5.171 3.2l14.17 12.8-14.17 12.8"></path>
        </symbol>
        <symbol id="tradition-arrow-1" viewBox="0 0 26 32">
            <path fill="none" stroke="#d41443" style="stroke: var(--color1, #d41443)" stroke-linejoin="round" stroke-linecap="round" stroke-miterlimit="4" stroke-width="6.4" d="M5.172 3.2l14.169 12.8-14.169 12.8"></path>
        </symbol>
        <symbol id="tradition-arrow-2" viewBox="0 0 26 32">
            <path fill="none" stroke="#d41443" style="stroke: var(--color1, #d41443)" stroke-linejoin="round" stroke-linecap="round" stroke-miterlimit="4" stroke-width="6.4" d="M5.173 3.2l14.169 12.8-14.169 12.8"></path>
        </symbol>
    </defs>
</svg>