<svg width="22" height="30" viewBox="0 0 22 30" fill="none" xmlns="http://www.w3.org/2000/svg">
<path d="M20.5392 15.5558C20.2734 14.9604 19.9067 14.374 19.3705 13.6967C18.0184 11.9967 17.6059 8.20581 17.6013 8.16945C17.583 7.98763 17.4547 7.83763 17.2851 7.78309C17.1109 7.72854 16.923 7.77854 16.7992 7.9149C15.1859 9.71945 15.8642 12.5058 16.2309 13.6194C16.3317 13.924 16.4417 14.2831 16.5196 14.6467C17.1154 17.5876 15.965 18.9194 15.6946 19.1876C15.4334 19.2604 15.2546 19.224 15.0896 19.0467C14.5213 18.424 14.3334 16.3831 14.5992 13.724C14.6542 13.1831 14.6405 12.6967 14.5625 12.2422C14.0019 8.97386 11.9463 6.8774 11.4229 6.14218C9.98378 4.0149 9.83712 0.473994 9.83253 0.442176C9.82795 0.273994 9.7317 0.123994 9.58045 0.0512668C9.43378 -0.0214604 9.25503 -0.0123695 9.11753 0.083085C6.71587 1.7149 6.92212 5.64672 7.2567 7.84218C7.33462 8.35127 7.48587 8.86945 7.74712 9.524C8.67753 11.8649 7.56378 14.8876 7.55462 14.9149C7.54545 14.9422 7.53628 14.9649 7.5317 14.9922C7.38962 15.7376 7.15128 16.1831 6.88545 16.1831C6.85795 16.1831 6.83045 16.1785 6.79837 16.1694C6.47295 16.1013 6.30337 15.7558 6.29878 15.4558C6.28045 11.5785 2.3892 10.274 2.34795 10.2604C2.17378 10.2058 1.98128 10.2558 1.86212 10.3967C1.73837 10.5376 1.71545 10.7331 1.79795 10.8967C1.84378 10.9922 1.99045 11.4104 1.88962 12.8876C1.80253 14.2149 1.55962 15.5285 1.17003 16.7876C0.244201 19.8058 0.390868 22.6649 0.400034 22.8013C1.11196 30.5425 12.2452 31.899 18.8525 27.5376C19.5767 27.0604 20.1679 26.5149 20.6034 25.9149C23.0417 22.5513 21.6072 17.9831 20.5392 15.5558ZM3.60383 22.9513C3.61758 23.2013 3.42508 23.4149 3.173 23.4285H3.1455C2.90258 23.4285 2.70091 23.2422 2.68716 23.0013C2.64591 22.3376 2.65508 21.6422 2.7055 20.8876C2.72383 20.6376 2.94383 20.4513 3.19591 20.4649C3.448 20.483 3.6405 20.7012 3.62216 20.9512C3.5717 21.6695 3.56258 22.324 3.60383 22.9513ZM3.82837 18.924C3.80087 19.1558 3.60378 19.324 3.37462 19.324C3.35628 19.324 3.33795 19.324 3.31503 19.3195C3.06753 19.2876 2.88878 19.0649 2.91628 18.8149L3.13628 17.0604C3.16837 16.8149 3.39295 16.6376 3.64962 16.6649C3.9017 16.6967 4.08045 16.924 4.04837 17.174L3.82837 18.924Z" fill="#FF6B09"/>
<path d="M17.4384 6.21861C17.1884 6.1802 17.017 5.94851 17.0555 5.70061C17.0841 5.51592 17.2497 4.57047 17.6991 4.09506C17.8721 3.91174 18.1617 3.9022 18.347 4.07442C18.5316 4.24597 18.541 4.53365 18.3678 4.71697C18.1776 4.91829 18.0156 5.49442 17.9614 5.83915C17.9228 6.08442 17.6921 6.25656 17.4384 6.21861Z" fill="#FF6B09"/>
<path d="M0.72939 8.48269C0.641665 8.14464 0.423681 7.58714 0.214452 7.40514C0.0240147 7.23955 0.00499382 6.95237 0.171919 6.76373C0.338431 6.57464 0.627777 6.55532 0.818673 6.72155C1.31257 7.151 1.57061 8.07587 1.61741 8.25673C1.68006 8.49978 1.53239 8.747 1.28755 8.8096C1.0373 8.872 0.791769 8.72169 0.72939 8.48269Z" fill="#FF6B09"/>
</svg>
