<svg aria-hidden="true" style="position:absolute;width:0;height:0" xmlns="http://www.w3.org/2000/svg" overflow="hidden"><defs><symbol id="icon-rectangle" viewBox="0 0 1920 32"><path d="M1920 0v32H0V0h1920z"/></symbol><symbol id="icon-map-pin" viewBox="0 0 32 32"><path stroke="var(--color1, #9da4bd)" stroke-linejoin="round" stroke-linecap="round" stroke-width="1.333" d="M26.667 13.818C26.667 21.454 16 28 16 28S5.333 21.455 5.333 13.818C5.333 8.396 10.109 4 16 4s10.667 4.396 10.667 9.818v0z"/><path stroke="var(--color1, #9da4bd)" stroke-linejoin="round" stroke-linecap="round" stroke-width="1.333" d="M16 18.667a4 4 0 100-8 4 4 0 000 8z"/></symbol><symbol id="icon-phone" viewBox="0 0 32 32"><path stroke="var(--color1, #9da4bd)" stroke-linejoin="round" stroke-linecap="round" stroke-width="1.333" d="M26.666 21.337v3.218a2.146 2.146 0 01-2.338 2.145 21.239 21.239 0 01-9.257-3.293 20.914 20.914 0 01-6.436-6.436 21.221 21.221 0 01-3.293-9.3 2.144 2.144 0 012.134-2.338h3.218a2.144 2.144 0 012.145 1.845c.136 1.03.388 2.041.751 3.014a2.144 2.144 0 01-.483 2.263l-1.362 1.362a17.162 17.162 0 006.436 6.436l1.362-1.362a2.146 2.146 0 012.263-.483c.973.363 1.984.615 3.014.751a2.144 2.144 0 011.845 2.177z"/></symbol><symbol id="icon-mail" viewBox="0 0 32 32"><path stroke="var(--color1, #9da4bd)" stroke-linejoin="round" stroke-linecap="round" stroke-width="1.333" d="M6.4 6.667h19.2c1.32 0 2.4 1.05 2.4 2.333v14c0 1.283-1.08 2.333-2.4 2.333H6.4C5.08 25.333 4 24.283 4 23V9c0-1.283 1.08-2.333 2.4-2.333z"/><path stroke="var(--color1, #9da4bd)" stroke-linejoin="round" stroke-linecap="round" stroke-width="1.333" d="M26.667 9.333l-10.667 8-10.667-8"/></symbol></defs></svg>