<svg aria-hidden="true" style="position:absolute;width:0;height:0" xmlns="http://www.w3.org/2000/svg" overflow="hidden">
<defs>
  <symbol viewBox="0 0 24 24"   id="map-pin" fill="none">
    
<path fill-rule="evenodd" clip-rule="evenodd" d="M20 10.3636C20 16.0909 12 21 12 21C12 21 4 16.0909 4 10.3636C4 6.29681 7.58172 3 12 3C16.4183 3 20 6.29681 20 10.3636V10.3636Z" stroke="#9DA4BD" stroke-linecap="round" stroke-linejoin="round"/>
<path fill-rule="evenodd" clip-rule="evenodd" d="M12 14C13.6569 14 15 12.6569 15 11C15 9.34315 13.6569 8 12 8C10.3431 8 9 9.34315 9 11C9 12.6569 10.3431 14 12 14Z" stroke="#9DA4BD" stroke-linecap="round" stroke-linejoin="round"/>

  </symbol>
  <symbol viewBox="0 0 24 24"  id="phone" fill="none">
    <path fill-rule="evenodd" clip-rule="evenodd" d="M20 16.003v2.413a1.61 1.61 0 0 1-1.754 1.61 15.921 15.921 0 0 1-6.943-2.47 15.688 15.688 0 0 1-4.827-4.827 15.92 15.92 0 0 1-2.47-6.975A1.609 1.609 0 0 1 5.608 4h2.414A1.609 1.609 0 0 1 9.63 5.384c.102.772.29 1.53.563 2.26a1.61 1.61 0 0 1-.362 1.698l-1.022 1.021a12.872 12.872 0 0 0 4.827 4.827l1.022-1.021a1.61 1.61 0 0 1 1.697-.362c.73.272 1.488.46 2.26.563A1.609 1.609 0 0 1 20 16.003z"
      stroke="#9DA4BD" stroke-linecap="round" stroke-linejoin="round"></path>
  </symbol>
  <symbol viewBox="0 0 24 24"  id="mail" fill="none">
    <path fill-rule="evenodd" clip-rule="evenodd" d="M4.8 5h14.4c.99 0 1.8.787 1.8 1.75v10.5c0 .962-.81 1.75-1.8 1.75H4.8c-.99 0-1.8-.788-1.8-1.75V6.75C3 5.787 3.81 5 4.8 5z" stroke="#9DA4BD" stroke-linecap="round" stroke-linejoin="round"></path>
    <path d="M20 7l-8 6-8-6" stroke="#9DA4BD" stroke-linecap="round" stroke-linejoin="round"></path>
  </symbol>
  </defs>
</svg>