<svg aria-hidden="true" style="position: absolute; width: 0; height: 0; overflow: hidden;" version="1.1" xmlns="http://www.w3.org/2000/svg" xmlns:xlink="http://www.w3.org/1999/xlink">
<defs>
<symbol id="icon-heart-icon" viewBox="0 0 32 32">
<path fill="#ffa5ba" style="fill: var(--color1, #ffa5ba)" d="M8.916 1.466c-0.156 0.008-0.294 0.031-0.305 0.046s-0.179 0.061-0.37 0.099c-0.195 0.034-0.355 0.080-0.355 0.095s-0.065 0.042-0.141 0.057c-0.183 0.034-0.484 0.133-0.507 0.172-0.011 0.015-0.107 0.057-0.217 0.092-0.107 0.038-0.202 0.076-0.21 0.092-0.015 0.034-0.351 0.198-0.408 0.198-0.023 0-0.042 0.019-0.042 0.038 0 0.023-0.061 0.069-0.133 0.103s-0.133 0.076-0.133 0.092c0 0.015-0.069 0.061-0.153 0.107-0.080 0.042-0.183 0.107-0.221 0.145s-0.133 0.118-0.206 0.175c-0.29 0.225-1.072 1.030-1.205 1.247-0.034 0.053-0.084 0.111-0.111 0.126s-0.050 0.053-0.050 0.084c0 0.031-0.023 0.069-0.053 0.084-0.027 0.015-0.080 0.088-0.114 0.153-0.034 0.069-0.076 0.126-0.092 0.126-0.019 0-0.061 0.084-0.099 0.191-0.038 0.103-0.084 0.191-0.107 0.191-0.019 0-0.053 0.050-0.072 0.114-0.023 0.061-0.053 0.114-0.072 0.114-0.015 0-0.050 0.080-0.076 0.175s-0.069 0.195-0.095 0.217c-0.023 0.027-0.072 0.145-0.111 0.263-0.038 0.122-0.080 0.221-0.099 0.221-0.015 0-0.050 0.107-0.076 0.237-0.027 0.133-0.065 0.252-0.084 0.263-0.015 0.011-0.061 0.164-0.095 0.343-0.034 0.175-0.076 0.328-0.092 0.34-0.065 0.046-0.126 0.961-0.126 1.888 0 0.919 0.065 1.881 0.126 1.926 0.011 0.011 0.053 0.198 0.092 0.42 0.034 0.217 0.080 0.404 0.099 0.42 0.019 0.011 0.057 0.126 0.080 0.256 0.027 0.133 0.061 0.24 0.072 0.24 0.015 0 0.050 0.103 0.076 0.233 0.031 0.126 0.076 0.252 0.103 0.282 0.031 0.027 0.053 0.069 0.053 0.088 0 0.080 0.134 0.45 0.179 0.496 0.027 0.027 0.050 0.084 0.050 0.122s0.023 0.095 0.053 0.126c0.031 0.031 0.072 0.122 0.095 0.21 0.027 0.088 0.065 0.179 0.092 0.206 0.031 0.027 0.084 0.13 0.122 0.233 0.038 0.099 0.080 0.179 0.095 0.179s0.050 0.069 0.076 0.153 0.065 0.153 0.084 0.153c0.019 0 0.061 0.065 0.095 0.141 0.031 0.080 0.080 0.16 0.111 0.175s0.053 0.057 0.053 0.084c0 0.031 0.031 0.088 0.069 0.126 0.034 0.034 0.099 0.137 0.137 0.229 0.038 0.088 0.088 0.16 0.107 0.16s0.050 0.042 0.069 0.095 0.050 0.095 0.065 0.095c0.019 0 0.065 0.061 0.103 0.134 0.042 0.072 0.088 0.134 0.107 0.134s0.050 0.042 0.069 0.095 0.065 0.107 0.095 0.118c0.031 0.015 0.057 0.046 0.057 0.076 0 0.027 0.042 0.080 0.095 0.114s0.095 0.080 0.095 0.103c0 0.023 0.034 0.076 0.072 0.122 0.042 0.042 0.153 0.16 0.248 0.259 0.095 0.103 0.175 0.195 0.175 0.206 0 0.015 0.21 0.229 0.465 0.477 0.259 0.248 0.607 0.587 0.778 0.752s0.359 0.332 0.42 0.37c0.057 0.042 0.168 0.137 0.244 0.214 0.072 0.080 0.153 0.145 0.179 0.145 0.023 0 0.076 0.042 0.114 0.088 0.038 0.050 0.107 0.111 0.153 0.134 0.046 0.027 0.107 0.069 0.133 0.092 0.088 0.084 0.294 0.221 0.324 0.221 0.019 0 0.053 0.034 0.080 0.076s0.072 0.076 0.103 0.076c0.031 0 0.069 0.023 0.084 0.046 0.034 0.057 0.141 0.126 0.271 0.183 0.046 0.019 0.084 0.050 0.084 0.069s0.069 0.065 0.153 0.103c0.084 0.038 0.153 0.080 0.153 0.092 0 0.015 0.088 0.065 0.191 0.114 0.107 0.050 0.191 0.103 0.191 0.118s0.076 0.057 0.172 0.099c0.095 0.038 0.172 0.080 0.172 0.092s0.092 0.061 0.202 0.114c0.107 0.050 0.206 0.103 0.217 0.114s0.092 0.053 0.179 0.095c0.092 0.042 0.164 0.088 0.164 0.103 0 0.011 0.088 0.053 0.191 0.088 0.107 0.034 0.191 0.076 0.191 0.092s0.111 0.069 0.248 0.118 0.248 0.103 0.248 0.114 0.076 0.046 0.175 0.072c0.095 0.027 0.191 0.072 0.217 0.095 0.057 0.053 0.435 0.214 0.507 0.214 0.031 0 0.053 0.015 0.053 0.031s0.084 0.061 0.191 0.099 0.191 0.084 0.191 0.099 0.034 0.038 0.076 0.050c0.076 0.019 0.076 0.053 0.076 3.971v3.952h1.945v-7.267h0.763v7.267h1.945v-3.967c0-3.941 0-3.967 0.076-3.967 0.042 0 0.076-0.015 0.076-0.031s0.084-0.061 0.191-0.099c0.103-0.038 0.191-0.080 0.191-0.095 0-0.011 0.103-0.057 0.233-0.095 0.126-0.038 0.252-0.092 0.275-0.118 0.027-0.023 0.145-0.076 0.267-0.114 0.118-0.038 0.217-0.080 0.217-0.095s0.107-0.069 0.24-0.118c0.13-0.046 0.244-0.099 0.256-0.114s0.095-0.057 0.191-0.095 0.191-0.088 0.21-0.111c0.023-0.027 0.099-0.069 0.172-0.099 0.072-0.027 0.164-0.080 0.202-0.114s0.134-0.084 0.217-0.111c0.084-0.027 0.153-0.065 0.153-0.080 0-0.019 0.065-0.061 0.141-0.092 0.080-0.034 0.153-0.076 0.164-0.092 0.011-0.019 0.099-0.069 0.202-0.114 0.099-0.046 0.179-0.095 0.179-0.111 0-0.019 0.061-0.061 0.134-0.095s0.134-0.076 0.134-0.095 0.061-0.057 0.137-0.084c0.076-0.031 0.156-0.084 0.183-0.114 0.023-0.034 0.103-0.092 0.179-0.126s0.149-0.092 0.164-0.122c0.011-0.031 0.042-0.057 0.069-0.057s0.118-0.061 0.202-0.134c0.084-0.072 0.164-0.134 0.175-0.134 0.015 0 0.092-0.061 0.172-0.134 0.084-0.072 0.16-0.134 0.175-0.134s0.103-0.076 0.198-0.172c0.099-0.095 0.191-0.172 0.206-0.172 0.019 0 0.221-0.183 0.454-0.412 0.233-0.225 0.587-0.568 0.79-0.759 0.202-0.195 0.366-0.366 0.366-0.385 0-0.015 0.046-0.072 0.107-0.126 0.057-0.053 0.172-0.179 0.256-0.282 0.084-0.099 0.187-0.217 0.229-0.263s0.107-0.13 0.145-0.191c0.080-0.118 0.168-0.233 0.267-0.336 0.034-0.038 0.065-0.084 0.065-0.103 0-0.023 0.031-0.061 0.069-0.088 0.034-0.027 0.099-0.118 0.141-0.202s0.088-0.156 0.103-0.164c0.015-0.008 0.057-0.072 0.092-0.145s0.076-0.13 0.095-0.13 0.034-0.023 0.034-0.050c0-0.027 0.031-0.084 0.069-0.126 0.034-0.038 0.099-0.141 0.141-0.225s0.088-0.16 0.103-0.172c0.011-0.011 0.053-0.095 0.092-0.191s0.092-0.195 0.118-0.221c0.027-0.027 0.050-0.072 0.050-0.099s0.034-0.088 0.072-0.133c0.038-0.046 0.095-0.16 0.122-0.252 0.027-0.095 0.061-0.172 0.076-0.172 0.011 0 0.053-0.095 0.092-0.21 0.034-0.114 0.076-0.21 0.092-0.21s0.053-0.095 0.080-0.21c0.027-0.114 0.061-0.21 0.076-0.21s0.057-0.133 0.099-0.298c0.038-0.16 0.080-0.301 0.095-0.313 0.031-0.027 0.149-0.557 0.149-0.671 0-0.050 0.015-0.092 0.034-0.092s0.053-0.168 0.080-0.374c0.027-0.202 0.061-0.378 0.080-0.389 0.015-0.011 0.050-0.385 0.076-0.828 0.034-0.626 0.034-0.965 0-1.507-0.027-0.381-0.057-0.706-0.076-0.717-0.015-0.011-0.053-0.179-0.080-0.374-0.027-0.191-0.061-0.351-0.072-0.351-0.015 0-0.057-0.164-0.099-0.362-0.038-0.198-0.080-0.362-0.095-0.362-0.011 0-0.053-0.111-0.095-0.248-0.038-0.137-0.080-0.248-0.095-0.248s-0.050-0.076-0.076-0.172-0.061-0.172-0.076-0.172c-0.019 0-0.061-0.088-0.099-0.191-0.038-0.107-0.080-0.191-0.095-0.191-0.011 0-0.053-0.076-0.088-0.172-0.038-0.095-0.080-0.172-0.099-0.172-0.015 0-0.050-0.053-0.080-0.118-0.027-0.069-0.088-0.164-0.137-0.217s-0.088-0.114-0.088-0.137c0-0.023-0.034-0.065-0.076-0.092s-0.076-0.072-0.076-0.103c0-0.031-0.034-0.072-0.076-0.095s-0.076-0.065-0.076-0.092c0-0.031-0.042-0.080-0.095-0.114s-0.095-0.080-0.095-0.103c0-0.023-0.107-0.141-0.236-0.267-0.134-0.126-0.309-0.298-0.397-0.378-0.084-0.084-0.164-0.153-0.179-0.153-0.011 0-0.065-0.038-0.114-0.088-0.145-0.134-0.263-0.221-0.397-0.286-0.069-0.034-0.126-0.072-0.126-0.088 0-0.019-0.065-0.061-0.141-0.099-0.080-0.034-0.16-0.084-0.183-0.111-0.019-0.023-0.118-0.072-0.217-0.111-0.103-0.038-0.183-0.080-0.183-0.092 0-0.015-0.084-0.057-0.191-0.095-0.103-0.038-0.191-0.084-0.191-0.103s-0.019-0.034-0.046-0.034c-0.069 0-0.58-0.164-0.603-0.191-0.027-0.034-0.591-0.153-0.725-0.153-0.065 0-0.114-0.019-0.114-0.038 0-0.023-0.446-0.038-1.259-0.038s-1.259 0.015-1.259 0.038c0 0.019-0.065 0.038-0.141 0.038-0.183 0-0.824 0.114-0.851 0.153-0.011 0.015-0.187 0.065-0.389 0.114-0.206 0.046-0.374 0.095-0.374 0.114 0 0.015-0.118 0.061-0.267 0.099-0.145 0.038-0.267 0.080-0.267 0.095s-0.114 0.065-0.256 0.114c-0.145 0.046-0.267 0.095-0.278 0.114-0.011 0.015-0.095 0.057-0.191 0.095s-0.179 0.080-0.191 0.095c-0.011 0.011-0.103 0.065-0.21 0.111-0.103 0.046-0.198 0.099-0.21 0.111-0.011 0.015-0.084 0.057-0.16 0.092-0.080 0.038-0.145 0.080-0.145 0.099 0 0.015-0.061 0.057-0.134 0.092s-0.134 0.080-0.134 0.099-0.050 0.053-0.107 0.076c-0.061 0.027-0.175 0.107-0.259 0.179-0.118 0.107-0.172 0.13-0.263 0.111-0.061-0.011-0.141-0.050-0.172-0.088-0.069-0.076-0.172-0.145-0.294-0.198-0.050-0.019-0.088-0.053-0.088-0.072 0-0.023-0.065-0.069-0.141-0.107-0.080-0.034-0.172-0.095-0.21-0.134s-0.095-0.069-0.126-0.069c-0.027 0-0.069-0.023-0.084-0.050-0.027-0.046-0.359-0.217-0.412-0.217-0.011 0-0.057-0.034-0.103-0.076-0.042-0.038-0.13-0.084-0.187-0.095-0.061-0.015-0.111-0.038-0.111-0.057 0-0.015-0.118-0.069-0.267-0.118-0.145-0.046-0.267-0.099-0.267-0.114s-0.114-0.057-0.256-0.095c-0.145-0.038-0.267-0.080-0.282-0.099-0.011-0.015-0.191-0.069-0.401-0.114-0.206-0.046-0.385-0.095-0.397-0.107-0.023-0.031-0.881-0.153-1.057-0.153-0.065 0-0.126-0.019-0.133-0.038-0.011-0.042-1.553-0.080-2.052-0.050zM10.667 3.312c0.244 0.023 0.45 0.057 0.462 0.072s0.107 0.038 0.21 0.053c0.328 0.046 0.629 0.114 0.629 0.141 0 0.015 0.065 0.038 0.145 0.050 0.214 0.042 0.557 0.149 0.603 0.195 0.023 0.023 0.114 0.065 0.202 0.095 0.084 0.027 0.156 0.061 0.156 0.076s0.069 0.050 0.153 0.076 0.183 0.080 0.225 0.118c0.042 0.038 0.114 0.080 0.168 0.092 0.053 0.015 0.13 0.057 0.172 0.099 0.046 0.038 0.149 0.107 0.233 0.153 0.088 0.046 0.156 0.092 0.156 0.107 0 0.011 0.057 0.046 0.126 0.076 0.065 0.027 0.141 0.072 0.16 0.095 0.046 0.050 0.275 0.214 0.301 0.214 0.011 0 0.103 0.084 0.206 0.187s0.221 0.198 0.267 0.21c0.046 0.015 0.084 0.042 0.084 0.061s0.057 0.065 0.126 0.099c0.065 0.034 0.133 0.084 0.149 0.107 0.034 0.053 0.671 0.057 0.71 0.004 0.015-0.023 0.099-0.072 0.191-0.111 0.088-0.042 0.16-0.088 0.16-0.103 0-0.019 0.050-0.057 0.107-0.088s0.175-0.122 0.259-0.202c0.179-0.168 0.378-0.317 0.431-0.317 0.019 0 0.042-0.027 0.057-0.057 0.011-0.031 0.065-0.076 0.118-0.095s0.095-0.053 0.095-0.076c0-0.019 0.080-0.072 0.183-0.118 0.099-0.046 0.187-0.095 0.198-0.114 0.011-0.015 0.088-0.061 0.172-0.095s0.168-0.084 0.191-0.111c0.019-0.027 0.13-0.080 0.24-0.118 0.107-0.038 0.198-0.080 0.198-0.092 0-0.015 0.103-0.057 0.229-0.095s0.229-0.080 0.229-0.095c0-0.015 0.156-0.069 0.343-0.118 0.187-0.046 0.343-0.099 0.343-0.114 0-0.011 0.16-0.057 0.355-0.092 0.191-0.038 0.359-0.080 0.37-0.095 0.042-0.053 0.74-0.114 1.289-0.114s1.148 0.053 1.19 0.107c0.011 0.015 0.137 0.057 0.286 0.095 0.145 0.038 0.275 0.080 0.286 0.099 0.011 0.015 0.114 0.057 0.229 0.095s0.229 0.088 0.248 0.111c0.023 0.027 0.107 0.080 0.191 0.122s0.16 0.084 0.172 0.095c0.034 0.034 0.168 0.114 0.259 0.153 0.046 0.019 0.084 0.053 0.084 0.076s0.031 0.050 0.069 0.065c0.034 0.015 0.13 0.088 0.21 0.16 0.336 0.317 0.66 0.649 0.732 0.744 0.042 0.057 0.107 0.137 0.145 0.179 0.034 0.038 0.065 0.084 0.065 0.099 0 0.019 0.042 0.080 0.095 0.141 0.050 0.057 0.114 0.156 0.141 0.217s0.061 0.111 0.072 0.111c0.011 0 0.053 0.076 0.088 0.172 0.038 0.095 0.080 0.172 0.099 0.172 0.015 0 0.061 0.103 0.099 0.229s0.080 0.229 0.095 0.229c0.015 0 0.050 0.092 0.072 0.198 0.027 0.111 0.061 0.21 0.076 0.221 0.034 0.023 0.153 0.58 0.153 0.725 0 0.061 0.015 0.114 0.034 0.122 0.088 0.031 0.156 1.415 0.076 1.568-0.053 0.099-0.187 0.214-0.252 0.217-0.023 0-0.069 0.023-0.095 0.050-0.027 0.031-0.153 0.084-0.278 0.122s-0.24 0.088-0.252 0.103c-0.011 0.019-0.149 0.069-0.305 0.111-0.156 0.046-0.29 0.095-0.301 0.111s-0.134 0.057-0.275 0.095c-0.145 0.038-0.259 0.084-0.259 0.099 0 0.019-0.031 0.034-0.065 0.034-0.103 0-0.599 0.122-0.622 0.156-0.011 0.015-0.275 0.065-0.591 0.114-0.313 0.046-0.58 0.099-0.591 0.111-0.019 0.027-1.122 0.153-1.324 0.153-0.069 0-0.126 0.015-0.126 0.034 0 0.015-0.145 0.042-0.324 0.057-0.549 0.046-1.049 0.133-1.11 0.195-0.034 0.031-0.080 0.057-0.107 0.057-0.069 0-0.252 0.092-0.252 0.126 0 0.015-0.038 0.046-0.084 0.065-0.134 0.057-0.221 0.122-0.362 0.267-0.217 0.229-0.24 0.252-0.24 0.29 0 0.023-0.031 0.072-0.069 0.114-0.076 0.080-0.198 0.488-0.198 0.66 0 0.061-0.019 0.118-0.046 0.126-0.031 0.011-0.050 0.496-0.069 1.82-0.015 0.992-0.042 1.816-0.061 1.827-0.019 0.015-0.053 0.061-0.076 0.099-0.092 0.172-0.481 0.134-0.576-0.053-0.027-0.053-0.050-0.221-0.050-0.374 0-0.149-0.015-0.275-0.034-0.275s-0.042-0.824-0.053-1.938c-0.015-1.842-0.046-2.384-0.141-2.449-0.015-0.011-0.050-0.084-0.072-0.164-0.027-0.076-0.065-0.141-0.084-0.141s-0.034-0.023-0.034-0.053c0-0.099-0.393-0.469-0.591-0.557-0.103-0.046-0.198-0.099-0.21-0.111-0.011-0.015-0.088-0.057-0.172-0.095-0.084-0.042-0.16-0.084-0.172-0.099-0.011-0.011-0.095-0.053-0.191-0.092s-0.179-0.080-0.191-0.095c-0.011-0.015-0.122-0.069-0.248-0.118s-0.236-0.103-0.248-0.114c-0.011-0.015-0.099-0.057-0.198-0.095-0.103-0.038-0.183-0.080-0.183-0.092 0-0.015-0.111-0.069-0.248-0.118s-0.248-0.103-0.248-0.118c0-0.011-0.076-0.053-0.172-0.095-0.095-0.038-0.172-0.080-0.172-0.092 0-0.015-0.095-0.065-0.21-0.111-0.114-0.050-0.21-0.099-0.21-0.114s-0.076-0.057-0.172-0.095c-0.095-0.042-0.172-0.088-0.172-0.103 0-0.019-0.076-0.069-0.172-0.111s-0.172-0.092-0.172-0.111-0.031-0.042-0.065-0.057c-0.103-0.031-0.214-0.111-0.271-0.187-0.027-0.034-0.072-0.065-0.103-0.065s-0.076-0.031-0.103-0.069c-0.057-0.072-0.168-0.153-0.267-0.183-0.038-0.015-0.069-0.038-0.069-0.057s-0.038-0.053-0.084-0.072c-0.13-0.057-0.236-0.126-0.271-0.183-0.015-0.023-0.053-0.046-0.084-0.046s-0.076-0.031-0.103-0.069c-0.027-0.034-0.13-0.107-0.229-0.156-0.103-0.050-0.183-0.103-0.183-0.118s-0.069-0.057-0.153-0.099c-0.084-0.038-0.153-0.084-0.153-0.099s-0.076-0.065-0.172-0.107c-0.095-0.042-0.172-0.092-0.172-0.107 0-0.019-0.072-0.065-0.16-0.103-0.092-0.038-0.179-0.092-0.202-0.114-0.019-0.027-0.099-0.069-0.172-0.095s-0.149-0.069-0.172-0.095c-0.019-0.023-0.118-0.076-0.217-0.114-0.103-0.038-0.183-0.080-0.183-0.092 0-0.015-0.084-0.057-0.191-0.095-0.103-0.038-0.191-0.080-0.191-0.095 0-0.011-0.137-0.065-0.305-0.114-0.168-0.053-0.305-0.107-0.305-0.122s-0.13-0.057-0.286-0.095-0.286-0.080-0.286-0.095-0.21-0.065-0.465-0.114c-0.259-0.050-0.477-0.099-0.488-0.114-0.011-0.011-0.256-0.057-0.542-0.095-0.29-0.038-0.526-0.080-0.526-0.095s-0.137-0.038-0.305-0.053c-0.298-0.027-0.408-0.072-0.29-0.118 0.034-0.011 0.061-0.046 0.061-0.069 0-0.027 0.038-0.084 0.088-0.126 0.046-0.046 0.187-0.195 0.309-0.332 0.126-0.137 0.244-0.252 0.267-0.252s0.099-0.061 0.172-0.133 0.149-0.133 0.175-0.133 0.057-0.027 0.072-0.057c0.011-0.031 0.088-0.088 0.175-0.122 0.084-0.038 0.153-0.080 0.153-0.099 0-0.015 0.061-0.057 0.133-0.088s0.133-0.069 0.133-0.088c0-0.019 0.122-0.072 0.267-0.118 0.149-0.046 0.267-0.099 0.267-0.114s0.141-0.057 0.317-0.095c0.172-0.038 0.32-0.084 0.332-0.103 0.065-0.092 1.221-0.13 1.904-0.065zM5.971 7.279c0.298 0.027 0.542 0.061 0.542 0.076 0 0.019 0.038 0.034 0.088 0.034 0.13-0.004 0.881 0.126 0.904 0.156 0.011 0.011 0.175 0.065 0.362 0.111 0.191 0.050 0.351 0.103 0.362 0.114 0.011 0.015 0.126 0.057 0.259 0.095 0.13 0.038 0.236 0.084 0.236 0.099 0 0.011 0.103 0.065 0.229 0.111s0.229 0.099 0.229 0.114c0 0.015 0.072 0.050 0.156 0.076 0.088 0.031 0.179 0.072 0.202 0.095 0.050 0.050 0.385 0.21 0.439 0.21 0.019 0 0.042 0.027 0.057 0.057 0.011 0.031 0.042 0.057 0.072 0.057 0.027 0 0.084 0.034 0.13 0.072 0.042 0.042 0.149 0.111 0.236 0.153 0.084 0.046 0.156 0.095 0.156 0.114s0.031 0.046 0.069 0.057c0.126 0.050 0.236 0.118 0.236 0.149 0 0.015 0.038 0.046 0.088 0.065 0.13 0.057 0.229 0.126 0.286 0.198 0.027 0.038 0.072 0.069 0.103 0.069s0.069 0.023 0.084 0.046c0.034 0.053 0.141 0.126 0.263 0.179 0.046 0.019 0.092 0.065 0.103 0.095 0.015 0.034 0.046 0.061 0.072 0.061s0.111 0.053 0.183 0.114 0.153 0.114 0.179 0.114 0.069 0.031 0.095 0.069 0.114 0.099 0.195 0.133c0.076 0.038 0.141 0.080 0.141 0.095s0.069 0.061 0.153 0.099c0.084 0.042 0.153 0.084 0.153 0.099s0.088 0.065 0.191 0.111c0.107 0.046 0.191 0.095 0.191 0.114 0 0.015 0.076 0.061 0.172 0.103 0.095 0.038 0.172 0.080 0.172 0.092 0 0.015 0.095 0.065 0.21 0.111 0.114 0.050 0.21 0.099 0.21 0.114s0.088 0.057 0.191 0.095c0.107 0.038 0.191 0.080 0.191 0.095s0.095 0.057 0.214 0.099c0.118 0.042 0.236 0.092 0.259 0.114 0.023 0.019 0.137 0.069 0.252 0.111 0.114 0.038 0.217 0.084 0.229 0.095 0.011 0.015 0.13 0.069 0.267 0.118s0.256 0.103 0.267 0.114c0.011 0.015 0.072 0.050 0.134 0.080 0.103 0.050 0.118 0.076 0.137 0.282 0.015 0.126 0.027 0.961 0.031 1.858 0.004 1.060 0.019 1.633 0.042 1.633s0.038 0.141 0.038 0.343c0 0.378 0.069 0.916 0.118 0.916 0.015 0 0.057 0.092 0.088 0.206 0.034 0.114 0.088 0.214 0.118 0.229 0.031 0.011 0.057 0.046 0.057 0.076 0 0.050 0.347 0.416 0.561 0.595 0.095 0.080 0.332 0.191 0.408 0.191 0.034 0 0.061 0.015 0.061 0.034 0 0.057 0.347 0.122 0.763 0.145 0.393 0.023 1.015-0.061 1.068-0.137 0.011-0.019 0.084-0.053 0.164-0.084 0.084-0.027 0.164-0.084 0.183-0.118 0.019-0.038 0.061-0.069 0.088-0.069 0.053 0 0.519-0.45 0.519-0.504 0-0.019 0.046-0.080 0.107-0.137 0.111-0.111 0.236-0.481 0.236-0.71 0-0.072 0.019-0.137 0.042-0.145 0.034-0.011 0.050-0.458 0.061-1.614 0.015-1.797 0.042-2.083 0.187-2.152 0.053-0.023 0.13-0.042 0.168-0.042 0.042 0 0.076-0.015 0.076-0.034 0-0.015 0.175-0.042 0.393-0.057 0.626-0.042 1.53-0.141 1.553-0.172 0.011-0.015 0.244-0.057 0.515-0.095 0.275-0.038 0.504-0.084 0.515-0.099s0.225-0.065 0.477-0.114 0.465-0.099 0.477-0.114c0.011-0.011 0.156-0.053 0.324-0.092s0.313-0.084 0.324-0.095c0.011-0.015 0.168-0.069 0.355-0.118 0.183-0.046 0.332-0.099 0.332-0.118 0-0.034 0.225-0.088 0.252-0.061s-0.069 0.332-0.103 0.332c-0.015 0-0.050 0.095-0.076 0.214s-0.069 0.233-0.092 0.259c-0.023 0.023-0.072 0.141-0.114 0.259-0.038 0.122-0.084 0.221-0.099 0.221-0.011 0-0.053 0.095-0.092 0.21-0.034 0.114-0.076 0.21-0.092 0.21s-0.053 0.069-0.080 0.153c-0.027 0.084-0.065 0.153-0.080 0.153s-0.057 0.084-0.095 0.191c-0.038 0.103-0.080 0.191-0.092 0.191-0.015 0-0.057 0.069-0.095 0.153s-0.084 0.153-0.103 0.153c-0.015 0-0.031 0.023-0.031 0.050s-0.031 0.084-0.065 0.126c-0.038 0.038-0.103 0.137-0.145 0.214-0.042 0.080-0.088 0.145-0.099 0.145-0.015 0-0.053 0.061-0.088 0.133s-0.080 0.133-0.095 0.133c-0.015 0-0.050 0.046-0.076 0.103s-0.080 0.126-0.122 0.156c-0.038 0.027-0.072 0.069-0.072 0.092s-0.038 0.080-0.084 0.13c-0.050 0.050-0.13 0.141-0.183 0.206-0.263 0.32-1.022 1.102-1.244 1.278-0.076 0.061-0.195 0.164-0.263 0.229-0.065 0.061-0.187 0.164-0.267 0.229-0.084 0.061-0.195 0.16-0.244 0.217-0.053 0.061-0.118 0.107-0.145 0.107-0.023 0-0.061 0.023-0.076 0.053s-0.095 0.092-0.172 0.137c-0.080 0.046-0.145 0.095-0.145 0.111 0 0.011-0.065 0.057-0.141 0.099-0.080 0.042-0.168 0.107-0.195 0.141-0.027 0.038-0.072 0.069-0.095 0.069-0.027 0-0.092 0.042-0.153 0.092-0.057 0.050-0.156 0.111-0.217 0.137-0.065 0.027-0.114 0.061-0.114 0.080s-0.076 0.069-0.172 0.111c-0.095 0.042-0.172 0.092-0.172 0.111s-0.076 0.065-0.172 0.107c-0.095 0.038-0.172 0.080-0.172 0.095 0 0.011-0.080 0.061-0.179 0.111-0.103 0.046-0.191 0.095-0.202 0.107-0.011 0.015-0.092 0.057-0.179 0.099-0.092 0.042-0.164 0.088-0.164 0.103 0 0.011-0.084 0.053-0.191 0.088-0.103 0.034-0.202 0.084-0.217 0.111-0.019 0.027-0.114 0.080-0.221 0.118-0.103 0.042-0.198 0.084-0.21 0.095-0.011 0.015-0.13 0.065-0.267 0.114s-0.256 0.103-0.267 0.118c-0.011 0.015-0.107 0.057-0.21 0.095-0.107 0.034-0.198 0.076-0.21 0.088-0.011 0.015-0.145 0.069-0.294 0.114-0.153 0.050-0.278 0.103-0.278 0.122s-0.023 0.034-0.053 0.034c-0.069 0-0.458 0.122-0.481 0.153-0.011 0.015-0.172 0.065-0.362 0.111-0.187 0.046-0.355 0.107-0.37 0.13-0.034 0.057-0.446 0.057-0.481 0.004-0.015-0.023-0.187-0.080-0.378-0.134-0.195-0.050-0.355-0.103-0.355-0.114 0-0.015-0.114-0.057-0.256-0.095-0.145-0.038-0.267-0.080-0.278-0.095s-0.145-0.065-0.294-0.111c-0.153-0.046-0.278-0.095-0.278-0.111s-0.103-0.057-0.229-0.095-0.229-0.084-0.229-0.099c0-0.015-0.118-0.069-0.267-0.114-0.145-0.046-0.267-0.099-0.267-0.114s-0.080-0.057-0.179-0.095c-0.103-0.038-0.191-0.080-0.202-0.092-0.011-0.015-0.111-0.069-0.217-0.118-0.111-0.053-0.202-0.107-0.202-0.122 0-0.011-0.050-0.034-0.111-0.050-0.057-0.011-0.141-0.053-0.179-0.088-0.042-0.034-0.164-0.107-0.271-0.156-0.111-0.053-0.202-0.107-0.202-0.122s-0.050-0.042-0.107-0.065c-0.061-0.019-0.133-0.061-0.164-0.095-0.031-0.031-0.13-0.092-0.217-0.137s-0.16-0.095-0.16-0.111c0-0.015-0.069-0.057-0.153-0.095-0.084-0.034-0.153-0.080-0.153-0.103 0-0.019-0.076-0.069-0.168-0.111s-0.175-0.103-0.191-0.137c-0.011-0.031-0.046-0.057-0.076-0.057-0.034 0-0.088-0.042-0.122-0.095s-0.084-0.095-0.107-0.095c-0.050 0-0.244-0.153-0.408-0.317-0.057-0.057-0.118-0.103-0.137-0.103-0.023 0-0.133-0.095-0.252-0.21s-0.225-0.21-0.24-0.21c-0.015 0-0.088-0.061-0.164-0.134-0.675-0.648-0.805-0.778-0.805-0.809 0-0.015-0.084-0.107-0.191-0.198-0.103-0.092-0.191-0.187-0.191-0.214 0-0.023-0.053-0.080-0.114-0.126-0.065-0.050-0.114-0.099-0.114-0.118 0-0.015-0.076-0.114-0.172-0.217-0.095-0.099-0.172-0.202-0.172-0.229 0-0.023-0.027-0.053-0.057-0.069-0.031-0.011-0.076-0.065-0.095-0.118s-0.053-0.095-0.072-0.095-0.053-0.053-0.080-0.114c-0.027-0.065-0.061-0.114-0.080-0.114-0.015 0-0.061-0.061-0.095-0.133s-0.072-0.133-0.088-0.133c-0.015 0-0.057-0.076-0.095-0.172-0.042-0.095-0.088-0.172-0.107-0.172s-0.053-0.053-0.072-0.114c-0.023-0.065-0.053-0.114-0.069-0.114s-0.057-0.088-0.095-0.191c-0.038-0.107-0.084-0.191-0.099-0.191s-0.061-0.088-0.099-0.191c-0.038-0.107-0.080-0.191-0.099-0.191-0.015 0-0.046-0.069-0.069-0.153s-0.057-0.153-0.076-0.153c-0.023 0-0.038-0.019-0.038-0.046 0-0.084-0.13-0.488-0.16-0.488-0.011 0-0.053-0.133-0.092-0.298-0.034-0.16-0.076-0.301-0.088-0.313-0.034-0.023-0.118-0.397-0.118-0.515 0-0.050-0.015-0.095-0.034-0.103-0.034-0.011-0.156-0.782-0.156-0.999 0-0.076-0.015-0.137-0.038-0.137s-0.038-0.259-0.038-0.706 0.015-0.706 0.038-0.706 0.038-0.103 0.038-0.229c0-0.301 0.111-1.083 0.156-1.099 0.019-0.008 0.034-0.046 0.034-0.084 0-0.122 0.031-0.122 1.137-0.034z"></path>
</symbol>
<symbol id="icon-bucket-icon" viewBox="0 0 32 32">
<path fill="#ffa5ba" style="fill: var(--color1, #ffa5ba)" d="M29.528 21.41c-1.292-0.458-2.382-0.344-3.242 0.018 0.145-0.877 0.47-1.832 1.17-2.481 0.431-0.4 0.456-1.074 0.056-1.505s-1.074-0.456-1.505-0.056c-1.229 1.14-1.706 2.748-1.874 4.081-0.32-0.144-0.673-0.253-1.058-0.311l1.89-9.83c0.060-0.312-0.022-0.634-0.225-0.879s-0.503-0.387-0.821-0.387h-0.204c0.094-0.5 0.141-0.997 0.137-1.47-0.016-1.994-0.903-3.495-2.374-4.017-1.41-0.5-2.59-0.35-3.507 0.066 0.145-0.976 0.494-2.063 1.282-2.794 0.431-0.4 0.456-1.074 0.056-1.505s-1.074-0.456-1.505-0.056c-1.32 1.225-1.815 2.965-1.982 4.386-0.735-0.348-1.644-0.527-2.708-0.33-1.094-1.571-2.613-2.296-4.089-1.942-1.451 0.349-2.358 1.115-2.901 1.962-0.41-0.899-0.712-2.001-0.452-3.036 0.143-0.57-0.203-1.149-0.773-1.292s-1.149 0.203-1.292 0.773c-0.439 1.746 0.095 3.476 0.729 4.758-1.016 0.137-2.117 0.65-3.049 1.866-0.578 0.755-0.773 1.698-0.596 2.7-0.173 0.065-0.329 0.173-0.449 0.318-0.202 0.245-0.285 0.567-0.225 0.879l3.809 19.81c0.096 0.501 0.535 0.864 1.046 0.864h15.237c0.511 0 0.949-0.362 1.046-0.864l0.037-0.195c0.287 0.198 0.596 0.363 0.927 0.487 1.266 0.471 2.447 0.278 3.044 0.118 0.316 0.085 0.795 0.179 1.364 0.179 0.506 0 1.084-0.075 1.68-0.297 2.36-0.879 3.615-3.839 3.596-6.178-0.015-1.904-0.866-3.339-2.276-3.839zM22.577 12.19c-0.49 4.705-4.452 7.909-9.971 7.909s-9.481-3.204-9.971-7.91h19.942zM15.934 7.515c0.184 0.349 0.536 0.567 0.93 0.567s0.746-0.218 0.93-0.567c0.029-0.048 0.29-0.466 0.769-0.777 0.629-0.408 1.35-0.46 2.203-0.157 0.851 0.302 0.952 1.518 0.956 2.027 0.004 0.464-0.064 0.962-0.191 1.453h-7.126c0.236-1.189 0.094-2.492-0.289-3.669 0.377 0.022 0.724 0.137 1.047 0.346 0.479 0.311 0.74 0.729 0.769 0.777zM2.98 8.724c0.55-0.719 1.182-1.068 1.932-1.069h0.002c0.57 0 1.016 0.208 1.066 0.232 0.341 0.189 0.749 0.172 1.079-0.037 0.331-0.211 0.51-0.591 0.481-0.983-0.006-0.077-0.115-1.893 1.983-2.397 0.876-0.211 1.625 0.754 1.906 1.178 0.807 1.22 1.221 3.108 0.777 4.413h-9.349c-0.141-0.443-0.179-0.943 0.122-1.336zM5.754 29.87l-2.111-10.978c0.138 0.133 0.281 0.263 0.427 0.389 2.208 1.901 5.239 2.948 8.535 2.948s6.328-1.047 8.535-2.948c0.052-0.044 0.102-0.090 0.152-0.135l-0.431 2.243c-0.020 0.007-0.041 0.013-0.061 0.021-1.41 0.5-2.261 1.935-2.276 3.839-0.009 1.164 0.297 2.483 0.898 3.622l-0.192 0.999h-13.477zM27.465 29.432c-0.943 0.351-1.881 0.017-1.916 0.005-0.25-0.097-0.518-0.099-0.768-0-0.009 0.004-0.96 0.352-1.917-0.004-1.338-0.498-2.223-2.556-2.21-4.165 0.004-0.466 0.095-1.578 0.858-1.849 0.349-0.124 0.661-0.175 0.939-0.175 1.107 0 1.657 0.812 1.782 1.024 0.184 0.35 0.535 0.569 0.931 0.569s0.747-0.219 0.931-0.569c0.156-0.266 0.977-1.468 2.721-0.849 0.763 0.271 0.854 1.383 0.858 1.849 0.013 1.609-0.872 3.667-2.21 4.165z"></path>
</symbol>
<symbol id="icon-cow-icon" viewBox="0 0 21 32">
<path fill="#ffa5ba" style="fill: var(--color1, #ffa5ba)" d="M2.333 0.144c-0.35 0.187-0.553 0.563-0.553 1.006 0.006 0.813 0.209 1.556 0.614 2.2l0.178 0.294-0.338 0.381c-0.381 0.425-0.473 0.581-0.645 1.087-0.141 0.412-0.153 1.162-0.031 1.581 0.43 1.438 1.854 2.269 3.248 1.9 0.473-0.125 0.761-0.281 1.203-0.656l0.375-0.313 0.35 0.175c0.196 0.1 0.528 0.244 0.743 0.325l0.381 0.138v0.7c0 1.106 0.227 1.762 0.81 2.356s1.498 0.9 2.29 0.762c0.565-0.1 1.117-0.381 1.492-0.762 0.583-0.594 0.81-1.25 0.81-2.356v-0.7l0.387-0.138c0.209-0.081 0.54-0.225 0.737-0.325l0.35-0.175 0.375 0.313c0.442 0.375 0.731 0.531 1.203 0.656 1.394 0.369 2.818-0.463 3.248-1.9 0.123-0.419 0.111-1.169-0.031-1.581-0.172-0.506-0.264-0.662-0.645-1.087l-0.338-0.381 0.178-0.294c0.405-0.644 0.608-1.387 0.614-2.2 0-0.444-0.203-0.819-0.553-1.006l-0.264-0.144h-15.926l-0.264 0.144zM17.068 2.1c0 0.019-0.178 0.313-0.399 0.663-0.651 1.031-0.626 1.256 0.239 2.169 0.313 0.331 0.602 0.662 0.645 0.737 0.233 0.463-0.233 1.037-0.749 0.919-0.123-0.025-0.393-0.244-0.786-0.631-0.786-0.775-1.056-0.862-1.658-0.519-0.694 0.4-1.578 0.806-2.008 0.925-0.608 0.175-0.817 0.306-0.976 0.638-0.129 0.256-0.141 0.362-0.141 1.362 0 1.231-0.049 1.431-0.399 1.6-0.252 0.125-0.301 0.125-0.553 0-0.35-0.169-0.399-0.369-0.399-1.6 0-1-0.012-1.106-0.135-1.362-0.166-0.325-0.375-0.462-0.982-0.638-0.528-0.15-1.308-0.494-1.738-0.775-0.405-0.263-0.761-0.362-1.044-0.313-0.184 0.037-0.368 0.181-0.86 0.662-0.405 0.394-0.694 0.625-0.817 0.65-0.51 0.119-0.976-0.463-0.743-0.919 0.043-0.075 0.332-0.406 0.645-0.737 0.866-0.912 0.89-1.138 0.239-2.169-0.221-0.35-0.399-0.644-0.399-0.663 0-0.025 2.929-0.038 6.508-0.038s6.508 0.013 6.508 0.038z"></path>
<path fill="#ffa5ba" style="fill: var(--color1, #ffa5ba)" d="M0.485 13.206c-0.313 0.212-0.485 0.512-0.485 0.844 0 0.225 3.119 16.925 3.229 17.275 0.055 0.194 0.282 0.425 0.522 0.55 0.227 0.125 0.387 0.125 6.809 0.125s6.582 0 6.809-0.125c0.239-0.125 0.467-0.356 0.522-0.55 0.11-0.35 3.229-17.050 3.229-17.275 0-0.331-0.172-0.631-0.485-0.844l-0.209-0.144h-19.732l-0.209 0.144zM18.695 15.481c-0.061 0.5-0.418 1.587-0.682 2.081-1.283 2.375-3.714 3.819-6.729 3.988-2.278 0.131-4.206-0.331-5.82-1.394-0.933-0.612-1.713-1.45-2.265-2.438-0.307-0.544-0.712-1.712-0.774-2.237l-0.043-0.356h16.356l-0.043 0.356zM4.39 21.919c2.634 1.775 6.569 2.244 9.885 1.169 1.105-0.356 2.235-0.956 3.18-1.688 0.276-0.219 0.295-0.219 0.264-0.081-0.018 0.081-0.381 1.994-0.804 4.244s-0.78 4.156-0.798 4.231l-0.031 0.144h-11.051l-0.031-0.144c-0.018-0.075-0.375-1.981-0.798-4.231s-0.786-4.163-0.804-4.244c-0.031-0.137-0.012-0.137 0.264 0.081 0.16 0.125 0.491 0.356 0.724 0.519z"></path>
</symbol>
</defs>
</svg>
