<svg width="58" height="48" fill="none" xmlns="http://www.w3.org/2000/svg"><path d="M4.571 44.179h18.345a5.605 5.605 0 005.07 3.173h1.16a5.603 5.603 0 005.07-3.173h18.355A3.432 3.432 0 0056 40.75V7.893a3.432 3.432 0 00-3.429-3.428H50.72V2.933A2.288 2.288 0 0048.434.648H8.698a2.288 2.288 0 00-2.286 2.285v1.532h-1.84a3.432 3.432 0 00-3.43 3.428V40.75a3.432 3.432 0 003.43 3.429zm43.86-7.052H29.715V10.57c4.327.566 7.681 4.267 7.681 8.746v1.03l-.271-.06a1.143 1.143 0 00-1.362.87l-1.819 8.28a1.142 1.142 0 00.87 1.36l3.932.867c.204.043.41.065.617.065 1.382 0 2.56-.946 2.861-2.303l1.053-4.788a2.93 2.93 0 00-2.227-3.486l-1.368-.301v-1.534c0-5.741-4.376-10.48-9.967-11.056V2.933h18.72l-.002 34.194zM37.75 22.765l2.807.618c.35.078.565.412.488.762l-1.053 4.787c-.076.346-.459.561-.761.497l-2.81-.62 1.329-6.044zM8.698 2.933h18.73v5.325c-5.596.572-9.977 5.313-9.977 11.058v1.533l-1.37.303a2.908 2.908 0 00-1.834 1.28 2.895 2.895 0 00-.39 2.203l1.05 4.783a2.938 2.938 0 003.488 2.243l3.915-.865a1.143 1.143 0 00.87-1.36l-1.82-8.279a1.141 1.141 0 00-1.362-.87l-.261.057v-1.028c0-4.482 3.36-8.187 7.692-8.748v26.56H8.697V2.932zm10.676 19.833l1.33 6.044-2.794.617a.649.649 0 01-.768-.491l-1.053-4.794a.625.625 0 01.083-.478.64.64 0 01.402-.28l2.8-.618zM3.429 7.893c0-.63.512-1.143 1.142-1.143h1.84v30.377a2.288 2.288 0 002.287 2.286h39.736a2.288 2.288 0 002.286-2.285V6.75h1.851c.631 0 1.143.513 1.143 1.143V40.75c0 .63-.512 1.143-1.143 1.143H33.44c-.502 0-.946.328-1.093.808a3.332 3.332 0 01-3.202 2.366h-1.158a3.343 3.343 0 01-3.207-2.38 1.143 1.143 0 00-1.088-.794H4.572c-.631 0-1.143-.513-1.143-1.143V7.893z" fill="#FF6B09"/></svg>