<svg width="25" height="20" fill="none" xmlns="http://www.w3.org/2000/svg"><path d="M21.536.946c-.928.415-1.817.922-2.666 1.487-1.707 1.123-3.267 2.46-4.73 3.886a52.726 52.726 0 00-4.114 4.55c-.322.398-1.764 2.17-1.764 2.17L2.264 4.05 0 10.327 8.11 20c.788-1.595 1.546-3.169 2.29-4.536.184-.348.378-.675.563-1.008 0 0 .952-1.673 1.202-2.094 1.001-1.686 2.083-3.328 3.274-4.888 1.193-1.557 2.49-3.044 3.96-4.35a17.693 17.693 0 012.344-1.796C22.575.798 23.46.334 24.406 0c-.984.194-1.945.53-2.87.946z" fill="#FF6B09"/></svg>