<svg width="61" height="63" fill="none" xmlns="http://www.w3.org/2000/svg"><g clip-path="url(#clip0)" fill="#FF6B09"><path d="M48.662 10.336H28.487a2.384 2.384 0 00-2.381 2.382v8.35L11.118 27.36a.487.487 0 00-.063.868l1.912 1.144v12.191a2.202 2.202 0 00-1.711 2.145v1.175c0 .27.219.488.488.488h3.423c.27 0 .488-.219.488-.488v-1.175a2.204 2.204 0 00-1.712-2.143V29.957l1.511.904c-.046.349-.006-.607-.021 5.676 0 2.065 5.29 3.172 10.673 3.235v9.514a2.379 2.379 0 002.38 2.378h20.175a2.382 2.382 0 002.38-2.38c0 .066-.004-2.015 0-36.566 0-1.296-1.072-2.382-2.38-2.382zM14.679 43.708v.687h-2.447v-.687c0-.677.548-1.227 1.22-1.227.677 0 1.227.55 1.227 1.227zm33.983 6.977H28.487c-.484 0-.911-.245-1.164-.617a1.395 1.395 0 01-.24-.783v-3.298H50.06v3.299c0 .764-.637 1.4-1.4 1.4zm1.4-5.675h-22.98v-5.235c2.628-.03 10.68-.609 10.68-3.238-.004-3.947.006-5.548-.013-5.683l4.383-2.626a.488.488 0 00-.063-.868l-14.987-6.291v-4.077h22.98V45.01zM26.593 33.297c-2.708 0-7.92.35-10.185 1.829.014-4.523-.157-4.229.4-4.612 1.407-1.036 5.43-1.76 9.785-1.76 1.899 0 10.19.523 10.19 2.278v4.094c-2.285-1.492-7.471-1.829-10.19-1.829zm.489-20.578c0-.774.63-1.403 1.403-1.403h20.175c.774 0 1.4.638 1.4 1.403v3.298H27.083v-3.298zm-.49 9.205l14.21 5.964-3.521 2.106c-1.872-1.856-8.064-2.216-10.688-2.216-2.628 0-8.82.361-10.689 2.217l-3.521-2.107 14.21-5.964zM16.41 36.537c0-.79 3.498-2.265 10.185-2.265 6.69 0 10.19 1.475 10.19 2.265s-3.5 2.265-10.19 2.265c-6.687 0-10.185-1.474-10.185-2.265z"/><path d="M38.573 46.723c-.89 0-1.614.724-1.614 1.614 0 .89.724 1.615 1.614 1.615.89 0 1.615-.725 1.615-1.615s-.724-1.614-1.615-1.614zm0 2.253a.64.64 0 11.003-1.279.64.64 0 01-.003 1.279zM40.435 13.177h-3.724v.976h3.724v-.976z"/></g><path d="M59.824 9.735V1.5H1v60h58.824v-8.235" stroke="#FF6B09" stroke-width="2"/><defs><clipPath id="clip0"><path fill="#fff" transform="translate(10 10.5)" d="M0 0h41.872v41H0z"/></clipPath></defs></svg>