<svg aria-hidden="true" style="position: absolute; width: 0; height: 0; overflow: hidden;" version="1.1" xmlns="http://www.w3.org/2000/svg" xmlns:xlink="http://www.w3.org/1999/xlink">
<defs>
<symbol id="icon-burger-mobile-menu" viewBox="0 0 60 32">
<path d="M2 0h56c1.105 0 2 0.895 2 2s-0.895 2-2 2h-56c-1.105 0-2-0.895-2-2s0.895-2 2-2z"></path>
<path d="M2 14h56c1.105 0 2 0.895 2 2s-0.895 2-2 2h-56c-1.105 0-2-0.895-2-2s0.895-2 2-2z"></path>
<path d="M2 28h56c1.105 0 2 0.895 2 2s-0.895 2-2 2h-56c-1.105 0-2-0.895-2-2s0.895-2 2-2z"></path>
</symbol>
<symbol id="icon-chat" viewBox="0 0 47 32">
<path fill="#674d40" style="fill: var(--color1, #674d40)" d="M35.987 13.842c0-8.361-8.814-13.842-17.614-13.842-8.835 0-17.613 5.506-17.613 13.842 0 3.154 1.381 6.237 3.889 8.684 0.096 0.094 0.133 0.236 0.096 0.371-0.788 2.886-2.654 5.493-3.419 6.48-0.238 0.307-0.277 0.713-0.102 1.060 0.171 0.339 0.51 0.547 0.888 0.547 0.009 0 0.017-0 0.026-0 3.746-0.093 8.089-1.151 10.773-3.79 0.094-0.092 0.228-0.129 0.36-0.097 1.649 0.391 3.366 0.589 5.103 0.589 8.832-0 17.614-5.504 17.614-13.842zM13.58 25.79c-0.583-0.138-1.185 0.028-1.61 0.446-2.684 2.639-7.067 3.239-9.142 3.372 0.948-1.308 2.489-3.711 3.211-6.359 0.165-0.605-0.009-1.25-0.453-1.684-2.279-2.223-3.484-4.894-3.484-7.723 0-6.893 7.3-12.501 16.272-12.501s16.272 5.608 16.272 12.501c0 6.893-7.3 12.501-16.272 12.501-1.633 0-3.245-0.186-4.793-0.553z"></path>
<path fill="#674d40" style="fill: var(--color1, #674d40)" d="M40.3 24.986c3.91-1.976 6.245-5.344 6.245-9.010 0-5.18-4.683-9.607-11.135-10.525-0.366-0.052-0.706 0.203-0.759 0.569s0.203 0.706 0.569 0.758c5.784 0.823 9.983 4.692 9.983 9.198 0 3.149-2.059 6.070-5.509 7.813-0.671 0.339-1.030 1.088-0.874 1.823 0.327 1.537 1.023 2.96 1.58 3.924-3.961-0.659-5.462-2.56-5.937-3.382-0.293-0.508-0.841-0.823-1.432-0.823-0.002 0-0.004 0-0.005 0l-0.049 0c-0.744 0-1.488-0.052-2.213-0.153-0.366-0.052-0.706 0.204-0.758 0.571s0.204 0.706 0.571 0.758c0.786 0.11 1.594 0.166 2.4 0.166l0.056-0c0.112 0 0.215 0.058 0.269 0.152 1.816 3.148 5.992 3.952 7.703 4.151 0.378 0.044 0.738-0.129 0.94-0.452s0.199-0.721-0.007-1.041c-0.515-0.803-1.435-2.409-1.806-4.15-0.030-0.139 0.039-0.282 0.167-0.346z"></path>
<path fill="#674d40" style="fill: var(--color1, #674d40)" d="M7.937 11.443c-1.282 0-2.324 1.043-2.324 2.324s1.043 2.324 2.324 2.324 2.324-1.043 2.324-2.324c0-1.282-1.043-2.324-2.324-2.324zM7.937 14.751c-0.542 0-0.983-0.441-0.983-0.983s0.441-0.983 0.983-0.983c0.542 0 0.983 0.441 0.983 0.983s-0.441 0.983-0.983 0.983z"></path>
<path fill="#674d40" style="fill: var(--color1, #674d40)" d="M14.568 11.443c-1.282 0-2.324 1.043-2.324 2.324s1.043 2.324 2.324 2.324 2.325-1.043 2.325-2.324c0-1.282-1.043-2.324-2.325-2.324zM14.568 14.751c-0.542 0-0.983-0.441-0.983-0.983s0.441-0.983 0.983-0.983c0.542 0 0.983 0.441 0.983 0.983s-0.441 0.983-0.983 0.983z"></path>
<path fill="#674d40" style="fill: var(--color1, #674d40)" d="M21.199 11.443c-1.282 0-2.324 1.043-2.324 2.324s1.043 2.324 2.324 2.324 2.325-1.043 2.325-2.324c0-1.282-1.043-2.324-2.325-2.324zM21.199 14.751c-0.542 0-0.983-0.441-0.983-0.983s0.441-0.983 0.983-0.983c0.542 0 0.983 0.441 0.983 0.983s-0.441 0.983-0.983 0.983z"></path>
<path fill="#674d40" style="fill: var(--color1, #674d40)" d="M27.83 11.443c-1.282 0-2.325 1.043-2.325 2.324s1.043 2.324 2.325 2.324 2.324-1.043 2.324-2.324c0-1.282-1.043-2.324-2.324-2.324zM27.83 14.751c-0.542 0-0.983-0.441-0.983-0.983s0.441-0.983 0.983-0.983c0.542 0 0.983 0.441 0.983 0.983s-0.441 0.983-0.983 0.983z"></path>
</symbol>
<symbol id="icon-chef-hat" viewBox="0 0 35 32">
<path fill="#674d40" style="fill: var(--color1, #674d40)" d="M25.046 8.507c-0.13 0-0.254-0.052-0.346-0.143s-0.143-0.216-0.143-0.346c-0.038-1.875-0.809-3.66-2.149-4.973s-3.14-2.048-5.015-2.048c-1.875 0-3.676 0.735-5.015 2.048s-2.111 3.098-2.149 4.973c0 0.13-0.052 0.254-0.143 0.346s-0.216 0.143-0.346 0.143c-0.13 0-0.254-0.052-0.346-0.143s-0.143-0.216-0.143-0.346c0.033-2.138 0.906-4.177 2.429-5.677s3.576-2.341 5.714-2.341c2.138 0 4.19 0.841 5.714 2.341s2.396 3.539 2.429 5.677c0 0.13-0.051 0.254-0.143 0.346s-0.216 0.143-0.346 0.143z"></path>
<path fill="#674d40" style="fill: var(--color1, #674d40)" d="M26.474 19.581c-0.13 0.001-0.255-0.050-0.347-0.141s-0.145-0.215-0.145-0.345c-0.001-0.13 0.050-0.255 0.141-0.347s0.215-0.145 0.345-0.145c1.864-0.011 3.649-0.753 4.971-2.066s2.077-3.093 2.101-4.957c-0.019-1.882-0.783-3.68-2.125-4.999s-3.153-2.052-5.035-2.038c-0.723-0.001-1.441 0.105-2.132 0.316-0.123 0.036-0.256 0.022-0.369-0.039s-0.198-0.164-0.235-0.287c-0.038-0.123-0.025-0.256 0.034-0.37s0.161-0.2 0.284-0.239c0.784-0.239 1.599-0.36 2.419-0.359 2.142-0.014 4.201 0.823 5.727 2.325s2.393 3.549 2.412 5.691c-0.025 2.121-0.881 4.147-2.385 5.644s-3.534 2.343-5.655 2.358h-0.006z"></path>
<path fill="#674d40" style="fill: var(--color1, #674d40)" d="M8.308 19.581h-0.006c-2.121-0.015-4.151-0.862-5.655-2.358s-2.36-3.523-2.385-5.644c0.019-2.141 0.886-4.188 2.412-5.691s3.585-2.339 5.727-2.325c0.82-0.001 1.635 0.12 2.419 0.359 0.062 0.018 0.12 0.048 0.171 0.089s0.092 0.091 0.123 0.148c0.031 0.057 0.050 0.12 0.056 0.184s-0 0.13-0.019 0.192c-0.019 0.062-0.050 0.12-0.092 0.17s-0.092 0.091-0.15 0.121c-0.058 0.030-0.12 0.048-0.185 0.054s-0.13-0.002-0.191-0.022c-0.691-0.211-1.41-0.317-2.132-0.316-1.882-0.014-3.693 0.719-5.035 2.038s-2.106 3.117-2.125 4.999c0.024 1.864 0.779 3.643 2.101 4.957s3.108 2.055 4.971 2.066c0.064 0 0.128 0.013 0.187 0.038s0.113 0.061 0.158 0.107c0.045 0.046 0.081 0.1 0.105 0.159s0.037 0.123 0.036 0.188c-0 0.064-0.013 0.128-0.038 0.187s-0.061 0.113-0.107 0.158c-0.046 0.045-0.1 0.081-0.159 0.105s-0.123 0.037-0.188 0.036z"></path>
<path fill="#674d40" style="fill: var(--color1, #674d40)" d="M26.474 31.756h-18.166c-0.13 0-0.254-0.052-0.346-0.143s-0.143-0.216-0.143-0.346v-12.174c0-0.13 0.052-0.254 0.143-0.346s0.216-0.143 0.346-0.143 0.254 0.052 0.346 0.143c0.092 0.092 0.143 0.216 0.143 0.346v11.684h17.187v-11.684c0-0.13 0.052-0.254 0.143-0.346s0.216-0.143 0.346-0.143 0.254 0.052 0.346 0.143c0.092 0.092 0.143 0.216 0.143 0.346v12.174c0 0.13-0.051 0.254-0.143 0.346s-0.216 0.143-0.346 0.143z"></path>
<path fill="#674d40" style="fill: var(--color1, #674d40)" d="M29.88 27.014h-18.166c-0.13 0-0.254-0.051-0.346-0.143s-0.143-0.216-0.143-0.346 0.052-0.254 0.143-0.346c0.092-0.092 0.216-0.143 0.346-0.143h18.166c0.13 0 0.254 0.052 0.346 0.143s0.143 0.216 0.143 0.346-0.051 0.254-0.143 0.346c-0.092 0.092-0.216 0.143-0.346 0.143z"></path>
</symbol>
<symbol id="icon-clock" viewBox="0 0 32 32">
<path fill="#674d40" style="fill: var(--color1, #674d40)" d="M16 0c-8.822 0-16 7.178-16 16s7.178 16 16 16c8.822 0 16-7.178 16-16s-7.178-16-16-16zM16 30.933c-8.234 0-14.933-6.699-14.933-14.933s6.699-14.933 14.933-14.933c8.234 0 14.933 6.699 14.933 14.933s-6.699 14.933-14.933 14.933z"></path>
<path fill="#674d40" style="fill: var(--color1, #674d40)" d="M16.533 13.878v-5.409c0-0.295-0.239-0.533-0.533-0.533s-0.533 0.238-0.533 0.533v5.409c-0.746 0.194-1.33 0.778-1.524 1.524h-3.809c-0.294 0-0.533 0.238-0.533 0.533s0.239 0.533 0.533 0.533h3.809c0.238 0.917 1.067 1.6 2.058 1.6 1.177 0 2.133-0.957 2.133-2.133 0-0.992-0.683-1.819-1.6-2.058zM16 17.002c-0.588 0-1.067-0.478-1.067-1.067s0.478-1.067 1.067-1.067c0.588 0 1.067 0.478 1.067 1.067s-0.478 1.067-1.067 1.067z"></path>
<path fill="#674d40" style="fill: var(--color1, #674d40)" d="M16 5.269c0.294 0 0.533-0.238 0.533-0.533v-0.533c0-0.295-0.239-0.533-0.533-0.533s-0.533 0.238-0.533 0.533v0.533c0 0.295 0.239 0.533 0.533 0.533z"></path>
<path fill="#674d40" style="fill: var(--color1, #674d40)" d="M16 26.602c-0.294 0-0.533 0.238-0.533 0.533v0.533c0 0.295 0.239 0.533 0.533 0.533s0.533-0.238 0.533-0.533v-0.533c0-0.295-0.239-0.533-0.533-0.533z"></path>
<path fill="#674d40" style="fill: var(--color1, #674d40)" d="M27.733 15.402h-0.533c-0.294 0-0.533 0.238-0.533 0.533s0.239 0.533 0.533 0.533h0.533c0.294 0 0.533-0.238 0.533-0.533s-0.239-0.533-0.533-0.533z"></path>
<path fill="#674d40" style="fill: var(--color1, #674d40)" d="M4.8 15.402h-0.533c-0.294 0-0.533 0.238-0.533 0.533s0.239 0.533 0.533 0.533h0.533c0.294 0 0.533-0.238 0.533-0.533s-0.239-0.533-0.533-0.533z"></path>
<path fill="#674d40" style="fill: var(--color1, #674d40)" d="M23.919 7.262l-0.377 0.377c-0.209 0.209-0.209 0.546 0 0.754 0.104 0.104 0.241 0.156 0.377 0.156s0.273-0.052 0.377-0.156l0.377-0.377c0.209-0.209 0.209-0.546 0-0.754s-0.546-0.208-0.754 0z"></path>
<path fill="#674d40" style="fill: var(--color1, #674d40)" d="M7.703 23.478l-0.377 0.377c-0.209 0.209-0.209 0.546 0 0.754 0.104 0.104 0.241 0.156 0.377 0.156s0.273-0.052 0.377-0.156l0.377-0.377c0.209-0.209 0.209-0.546 0-0.754s-0.546-0.208-0.754 0z"></path>
<path fill="#674d40" style="fill: var(--color1, #674d40)" d="M24.297 23.478c-0.209-0.209-0.546-0.209-0.754 0s-0.209 0.546 0 0.754l0.377 0.377c0.104 0.104 0.241 0.156 0.377 0.156s0.273-0.052 0.377-0.156c0.209-0.209 0.209-0.546 0-0.754l-0.377-0.377z"></path>
<path fill="#674d40" style="fill: var(--color1, #674d40)" d="M8.081 7.261c-0.209-0.209-0.546-0.209-0.754 0s-0.209 0.546 0 0.754l0.377 0.377c0.104 0.104 0.241 0.156 0.377 0.156s0.273-0.052 0.377-0.156c0.209-0.209 0.209-0.546 0-0.754l-0.377-0.377z"></path>
</symbol>
<symbol id="icon-close-mobile-menu" viewBox="0 0 32 32">
<path d="M30.355 32c0.422 0 0.843-0.16 1.163-0.483 0.643-0.643 0.643-1.685 0-2.328l-28.707-28.707c-0.643-0.643-1.685-0.643-2.328 0s-0.643 1.685 0 2.329l28.707 28.706c0.323 0.321 0.744 0.483 1.165 0.483z"></path>
<path d="M1.645 32c0.422 0 0.843-0.16 1.163-0.483l28.709-28.706c0.643-0.643 0.643-1.686 0-2.329s-1.685-0.643-2.329 0l-28.707 28.707c-0.643 0.643-0.643 1.685 0 2.328 0.323 0.321 0.744 0.483 1.163 0.483z"></path>
</symbol>
<symbol id="icon-facebook" viewBox="0 0 19 32">
<path d="M16.649 0.007l-4.15-0.007c-4.662 0-7.675 3.091-7.675 7.875v3.631h-4.172c-0.361 0-0.652 0.292-0.652 0.653v5.261c0 0.361 0.292 0.653 0.652 0.653h4.172v13.275c0 0.361 0.292 0.652 0.652 0.652h5.444c0.361 0 0.652-0.292 0.652-0.652v-13.275h4.878c0.361 0 0.652-0.292 0.652-0.653l0.002-5.261c0-0.173-0.069-0.339-0.191-0.461s-0.289-0.191-0.462-0.191h-4.88v-3.078c0-1.479 0.353-2.23 2.28-2.23l2.795-0.001c0.36 0 0.652-0.292 0.652-0.652v-4.885c0-0.36-0.292-0.652-0.652-0.652z"></path>
</symbol>
<symbol id="icon-instagram" viewBox="0 0 32 32">
<path d="M16.316 32c-0.106 0-0.212 0-0.319-0-2.508 0.006-4.826-0.058-7.080-0.195-2.066-0.126-3.953-0.84-5.455-2.065-1.45-1.182-2.44-2.781-2.942-4.75-0.438-1.715-0.461-3.398-0.483-5.026-0.016-1.168-0.033-2.553-0.036-3.96 0.003-1.414 0.020-2.798 0.036-3.966 0.022-1.628 0.045-3.311 0.483-5.026 0.503-1.97 1.493-3.568 2.942-4.75 1.503-1.225 3.389-1.939 5.456-2.065 2.254-0.137 4.572-0.201 7.086-0.195 2.509-0.005 4.826 0.058 7.080 0.195 2.067 0.126 3.953 0.84 5.455 2.065 1.45 1.182 2.44 2.78 2.942 4.75 0.438 1.715 0.461 3.398 0.483 5.026 0.016 1.168 0.033 2.553 0.036 3.96v0.006c-0.003 1.408-0.020 2.792-0.036 3.96-0.022 1.628-0.045 3.311-0.483 5.026-0.503 1.97-1.493 3.568-2.942 4.75-1.502 1.225-3.389 1.939-5.455 2.065-2.158 0.131-4.376 0.195-6.768 0.195zM15.997 29.499c2.468 0.006 4.733-0.056 6.934-0.19 1.562-0.095 2.917-0.602 4.027-1.507 1.026-0.837 1.733-1.991 2.1-3.431 0.364-1.428 0.385-2.96 0.406-4.442 0.016-1.16 0.032-2.535 0.036-3.929-0.004-1.394-0.020-2.769-0.036-3.929-0.020-1.482-0.041-3.015-0.406-4.443-0.367-1.44-1.074-2.594-2.1-3.431-1.11-0.905-2.465-1.412-4.027-1.507-2.201-0.134-4.467-0.196-6.929-0.19-2.467-0.006-4.733 0.056-6.934 0.19-1.563 0.095-2.917 0.602-4.027 1.507-1.026 0.837-1.732 1.991-2.1 3.431-0.364 1.428-0.385 2.96-0.406 4.443-0.016 1.161-0.032 2.537-0.036 3.932 0.003 1.389 0.020 2.765 0.036 3.926 0.020 1.482 0.041 3.015 0.406 4.442 0.367 1.44 1.074 2.594 2.1 3.431 1.11 0.905 2.465 1.412 4.027 1.507 2.201 0.134 4.467 0.197 6.928 0.19zM15.937 23.813c-4.308 0-7.813-3.505-7.813-7.813s3.505-7.813 7.813-7.813c4.308 0 7.813 3.505 7.813 7.813s-3.505 7.813-7.813 7.813zM15.937 10.687c-2.929 0-5.313 2.383-5.313 5.313s2.383 5.313 5.313 5.313c2.929 0 5.313-2.383 5.313-5.313s-2.383-5.313-5.313-5.313zM24.625 5.687c-1.035 0-1.875 0.839-1.875 1.875s0.84 1.875 1.875 1.875c1.036 0 1.875-0.839 1.875-1.875s-0.839-1.875-1.875-1.875z"></path>
</symbol>
<symbol id="icon-local" viewBox="0 0 23 32">
<path d="M11.733 1.193c6.47 0 11.733 5.264 11.733 11.733 0 2.56-0.809 4.993-2.341 7.034l-8.669 11.676c-0.022 0.028-0.055 0.039-0.079 0.064-0.433 0.464-1.058 0.347-1.367-0.064-2.496-3.331-7.072-9.552-8.832-11.899 0 0-0.001-0.002-0.001-0.003l-0.011-0.014c-1.418-1.992-2.167-4.341-2.167-6.794 0-6.47 5.264-11.733 11.733-11.733zM11.733 19.256c3.483 0 6.33-2.847 6.33-6.33s-2.847-6.33-6.33-6.33c-3.483 0-6.33 2.847-6.33 6.33s2.847 6.33 6.33 6.33z"></path>
</symbol>
<symbol id="icon-logosvg" viewBox="0 0 72 32">
<path d="M42.45 15.997c0 0.261-0.008 0.521 0 0.783 0.089 2.653-0.739 5.043-2.069 7.296-0.446 0.756-0.872 1.524-1.256 2.314-0.317 0.649-0.757 1.104-1.442 1.37-0.382 0.148-0.737 0.405-1.058 0.669-1.476 1.218-3.15 2.091-4.941 2.705-1.189 0.408-2.414 0.767-3.706 0.751-0.385-0.004-0.771 0.114-1.157 0.115s-0.772-0.124-1.154-0.108c-1.666 0.071-3.21-0.441-4.742-0.979-1.673-0.586-3.15-1.513-4.539-2.617-1.961-1.558-3.358-3.52-4.385-5.765-0.554-1.211-1.004-2.46-1.132-3.804-0.021-0.223-0.095-0.444-0.161-0.66-0.466-1.507-0.198-2.985 0.090-4.486 0.22-1.148 0.447-2.283 0.877-3.373 1.135-2.884 2.938-5.245 5.435-7.1 2.081-1.545 4.411-2.494 6.944-2.902 2.907-0.468 5.744-0.131 8.497 0.963 1.374 0.548 2.67 1.241 3.802 2.159 1.056 0.856 2.008 1.858 2.908 2.883 0.815 0.928 1.394 2.034 1.911 3.162 0.807 1.762 1.333 3.586 1.28 5.546-0.012 0.362-0.003 0.721-0.003 1.080zM41.335 12.427c-0.081-0.616-0.131-1.329-0.281-2.022-0.429-1.992-1.583-3.548-3.121-4.818-0.873-0.722-1.825-1.349-2.763-1.988-0.318-0.216-0.687-0.415-1.058-0.481-0.954-0.176-1.919-0.34-2.886-0.389-1.678-0.085-3.186-0.518-4.453-1.685-0.933-0.858-1.948-0.941-2.917-0.186-1.099 0.855-2.349 1.357-3.624 1.854-0.934 0.364-1.833 0.823-2.731 1.276-0.75 0.379-1.187 0.971-1.177 1.867 0.006 0.503-0.225 0.923-0.69 1.201-0.388 0.234-0.762 0.492-1.117 0.773-0.993 0.781-1.767 1.661-1.934 3.027-0.132 1.080-0.459 2.148-1.2 3.038-0.248 0.306-0.401 0.677-0.442 1.069-0.068 0.807-0.040 1.625-0.020 2.437 0.006 0.217 0.1 0.451 0.211 0.642 0.256 0.452 0.534 0.891 0.835 1.315 0.727 1.010 1.359 2.046 1.505 3.329 0.141 1.244 0.742 2.257 1.759 3.030 1.473 1.121 2.892 2.311 4.387 3.402 0.803 0.588 1.663 1.102 2.723 1.221s2.098 0.408 3.048 0.941c0.199 0.107 0.418 0.174 0.643 0.197 1.34 0.144 2.581-0.187 3.758-0.814 0.369-0.197 0.749-0.375 1.131-0.546 0.92-0.412 1.94-0.682 2.741-1.255 0.891-0.639 1.845-0.923 2.868-1.101 0.442-0.077 0.803-0.259 1.091-0.588 0.344-0.39 0.661-0.802 1.019-1.179 0.37-0.389 0.637-0.802 0.702-1.356 0.099-0.849 0.463-1.599 0.924-2.319 0.781-1.217 1.225-2.562 1.456-3.992 0.061-0.375 0.095-0.692-0.091-1.023-0.538-0.953-0.318-2.035-0.488-3.049-0.086-0.548 0.112-1.148 0.195-1.832l-0.002 0.001zM34.865 2.909c-0.227-0.251-0.299-0.364-0.402-0.434-0.186-0.128-0.388-0.233-0.585-0.344-1.687-0.95-3.535-1.412-5.423-1.743-0.379-0.067-0.778-0.037-1.165-0.022-0.101 0.004-0.221 0.102-0.285 0.19-0.029 0.040 0.037 0.18 0.092 0.248 0.42 0.5 0.968 0.878 1.585 1.092 1.066 0.383 2.186 0.594 3.319 0.623 0.48 0.013 0.958 0.104 1.436 0.169 0.407 0.058 0.814 0.127 1.428 0.223zM20.532 30.284c-1.132-0.925-2.125-1.752-3.135-2.556-0.836-0.666-1.691-1.309-2.545-1.951-0.096-0.072-0.247-0.070-0.458-0.124 1.030 1.728 4.469 4.353 6.138 4.632zM12.903 8.699c0.683-0.521 1.315-1.070 2.008-1.524 0.972-0.633 1.344-1.421 1.115-2.773-0.69 0.564-1.182 1.244-1.714 1.861-0.562 0.651-0.979 1.426-1.448 2.155-0.036 0.059 0.022 0.175 0.039 0.281zM35.933 28.421c-0.637-0.044-1.279 0.069-1.678 0.412-0.758 0.652-1.661 0.98-2.578 1.306-0.482 0.171-0.936 0.422-1.39 0.661-0.063 0.033-0.074 0.209-0.061 0.313 0.004 0.035 0.174 0.092 0.244 0.069 0.824-0.281 1.676-0.507 2.456-0.883 0.957-0.459 1.856-1.040 2.772-1.579 0.096-0.054 0.147-0.181 0.236-0.299zM11.596 19.382c-0.183 0.54-0.147 0.838-0.032 1.156 0.319 0.883 0.513 1.814 1.089 2.585 0.213 0.286 0.257 0.925 0.651 0.787 0.347-0.12-0.059-0.627-0.083-0.968-0.091-1.304-0.777-2.355-1.625-3.561zM17.775 3.142l0.086 0.129c0.476-0.176 0.956-0.343 1.428-0.532 1.024-0.41 2.045-0.829 3.062-1.254 0.205-0.087 0.393-0.225 0.568-0.366 0.049-0.040 0.040-0.175 0.025-0.258-0.008-0.037-0.105-0.078-0.161-0.080-0.095 0.002-0.19 0.018-0.281 0.047-1.383 0.393-2.688 0.974-3.936 1.68-0.292 0.165-0.529 0.422-0.791 0.636zM42.071 17.147c0.084-0.097 0.149-0.138 0.154-0.183 0.135-1.421-0.016-2.829-0.21-4.233-0.010-0.071-0.108-0.172-0.174-0.18-0.073-0.010-0.188 0.051-0.233 0.117-0.073 0.104-0.119 0.225-0.133 0.352-0.073 1.158 0.003 2.321 0.227 3.46 0.044 0.23 0.235 0.432 0.369 0.668zM11.262 13.227c0.54-0.206 0.621-0.578 0.678-0.915 0.141-0.82 0.494-1.61 0.377-2.477-0.564 1.035-1.065 2.083-1.055 3.392h-0zM24.328 31.234c-1.21-0.535-1.538-0.591-2.616-0.441 0.457 0.173 0.868 0.448 1.281 0.452 0.431 0.006 0.898 0.534 1.335-0.011h-0z"></path>
<path d="M26.823 20.593c-0.827-0.015-1.396-0.361-1.817-1.030-0.392-0.624-1.044-0.947-1.642-1.332-0.753-0.484-1.366-1.030-1.54-2.012-0.12-0.665 0.020-1.243 0.29-1.769 0.227-0.439 0.632-0.847 1.057-1.108 0.461-0.283 0.844-0.55 1.056-1.073 0.241-0.602 0.848-0.638 1.386-0.746 0.506-0.102 1.021-0.167 1.521-0.295 0.683-0.174 1.303-0.12 1.802 0.411 0.386 0.412 0.836 0.708 1.338 0.958 0.522 0.26 0.695 0.564 0.531 1.107-0.111 0.369-0.004 0.62 0.134 0.914 0.15 0.321 0.305 0.647 0.408 0.986 0.344 1.128-0.052 2.077-1.111 2.58-0.656 0.311-1.159 0.726-1.322 1.456-0.066 0.294-0.249 0.461-0.509 0.537-0.524 0.153-1.055 0.28-1.583 0.417zM30.297 15.864c0.017-1.987-1.49-3.576-3.45-3.579-1.759 0-3.528 1.189-3.596 3.469-0.055 1.824 1.465 3.524 3.447 3.53 2.414 0.012 3.552-1.663 3.599-3.42zM23.231 17.764c0-0.255 0.024-0.385-0.004-0.503-0.26-1.079-0.429-2.148 0.161-3.188 0.043-0.075-0.055-0.229-0.088-0.346-0.116 0.037-0.255 0.045-0.343 0.117-0.974 0.799-1.409 2.718 0.274 3.92zM26.849 11.787c0.408 0.149 0.64 0.255 0.884 0.321 0.898 0.237 1.664 0.664 2.197 1.451 0.105 0.155 0.241 0.385 0.442 0.209 0.107-0.094 0.142-0.382 0.080-0.526-0.083-0.191-0.272-0.43-0.454-0.468-0.493-0.103-0.763-0.46-1.085-0.771-0.541-0.519-1.144-0.682-2.065-0.215zM26.794 19.609l-0.012-0.075c-0.259 0-0.52-0.022-0.774 0.009-0.131 0.016-0.25 0.127-0.374 0.195 0.113 0.1 0.211 0.257 0.341 0.29 0.696 0.175 1.397 0.213 2.083-0.055 0.117-0.046 0.248-0.106 0.321-0.201 0.065-0.080 0.086-0.223 0.073-0.331-0.005-0.040-0.168-0.101-0.248-0.088-0.471 0.074-0.94 0.167-1.409 0.254l-0.002 0.001zM30.352 17.571c0.482-0.089 0.697-0.361 0.725-0.779 0.021-0.352 0.016-0.705-0.015-1.056-0.008-0.093-0.137-0.175-0.21-0.263-0.107 0.101-0.325 0.238-0.305 0.299 0.196 0.609-0.213 1.155-0.194 1.797v0.001z"></path>
<path d="M34.761 20.323c-0.028 0.014-0.139 0.107-0.26 0.12-0.11 0.013-0.271-0.024-0.339-0.101-0.343-0.386-0.675-0.783-0.982-1.199-0.080-0.109-0.113-0.401-0.067-0.426 0.151-0.083 0.445-0.17 0.511-0.098 0.388 0.427 0.729 0.897 1.079 1.357 0.034 0.046 0.024 0.125 0.059 0.346z"></path>
<path d="M18.351 23.668c0.179 0.014 0.533 0.025 0.878 0.084 0.086 0.015 0.201 0.183 0.201 0.283s-0.099 0.274-0.185 0.295c-0.671 0.166-1.338 0.207-1.932-0.241-0.034-0.031-0.059-0.070-0.076-0.112s-0.023-0.089-0.019-0.134c0.013-0.067 0.117-0.16 0.187-0.165 0.257-0.022 0.516-0.010 0.946-0.010z"></path>
<path d="M39.372 9.562l0.254 0.139c-0.072 0.129-0.116 0.336-0.221 0.373-0.483 0.177-0.979 0.319-1.483 0.423-0.145 0.028-0.356-0.114-0.489-0.231-0.154-0.136-0.062-0.431 0.132-0.461 0.571-0.088 1.147-0.155 1.807-0.242z"></path>
<path d="M22.297 26.541c0.268 0.125 0.493 0.16 0.602 0.294 0.3 0.372 0.575 0.764 0.822 1.174 0.12 0.195 0.010 0.406-0.192 0.462-0.111 0.031-0.313-0.060-0.395-0.16-0.327-0.394-0.631-0.807-0.909-1.238-0.064-0.102 0.035-0.308 0.071-0.532z"></path>
<path d="M32.825 11.018c0.017-0.114 0-0.244 0.053-0.294 0.072-0.066 0.227-0.12 0.302-0.085 0.102 0.049 0.167 0.182 0.237 0.286 0.194 0.291 0.387 0.584 0.572 0.883 0.083 0.134 0.194 0.276 0.201 0.42 0.008 0.133-0.073 0.306-0.174 0.398-0.056 0.051-0.286 0.018-0.343-0.053-0.371-0.471-0.816-0.913-0.849-1.554z"></path>
<path d="M33.98 6.010c-0.080 0.481-0.112 0.836-0.206 1.175-0.059 0.183-0.17 0.345-0.321 0.465-0.106 0.086-0.292 0.073-0.442 0.105-0.012-0.14-0.056-0.286-0.031-0.419 0.078-0.41 0.183-0.815 0.277-1.222 0.007-0.032 0.005-0.065 0.014-0.096 0.074-0.245 0.234-0.432 0.49-0.331 0.129 0.051 0.189 0.276 0.219 0.323z"></path>
<path d="M27.054 9.141c0.226 0.028 0.518 0.043 0.796 0.111 0.095 0.023 0.236 0.194 0.219 0.268-0.029 0.132-0.139 0.306-0.255 0.345-0.184 0.057-0.381 0.058-0.566 0.003-0.321-0.102-0.621-0.136-0.941-0.002-0.21 0.088-0.408-0.004-0.464-0.214-0.075-0.281 0.136-0.417 0.374-0.456 0.253-0.042 0.515-0.035 0.837-0.054z"></path>
<path d="M32.064 22.97c-0.091 0.398-0.161 0.748-0.259 1.089-0.019 0.067-0.161 0.157-0.22 0.142-0.107-0.026-0.257-0.11-0.279-0.198-0.048-0.189-0.054-0.386-0.016-0.577 0.076-0.35 0.15-0.682 0.008-1.039-0.067-0.171-0.048-0.444 0.212-0.444 0.14 0 0.342 0.173 0.405 0.316 0.102 0.229 0.109 0.499 0.149 0.71z"></path>
<path d="M28.111 22.868c-0.052 0.093-0.078 0.204-0.146 0.251-0.423 0.291-0.847 0.584-1.292 0.838-0.114 0.065-0.313 0.025-0.458-0.018-0.212-0.063-0.257-0.342-0.080-0.455 0.487-0.312 0.977-0.621 1.478-0.908 0.080-0.046 0.241 0.004 0.345 0.055 0.070 0.035 0.1 0.149 0.154 0.237z"></path>
<path d="M22.723 4.155c0.069 0.040 0.198 0.075 0.215 0.139 0.168 0.618 0.33 1.238 0.463 1.864 0.037 0.174-0.193 0.27-0.347 0.166-0.486-0.327-0.788-1.536-0.505-2.042 0.029-0.050 0.101-0.075 0.174-0.128z"></path>
<path d="M28.724 5.911c-0.146-0.097-0.304-0.147-0.325-0.231-0.023-0.091 0.053-0.247 0.135-0.321 0.356-0.318 0.729-0.618 1.117-0.897 0.131-0.092 0.402-0.157 0.502-0.085 0.237 0.166 0.112 0.401-0.053 0.573-0.222 0.231-0.442 0.475-0.697 0.662-0.196 0.141-0.447 0.201-0.678 0.299z"></path>
<path d="M19.489 9.177l-0.355 0.335c-0.101-0.11-0.251-0.201-0.294-0.331-0.17-0.512-0.313-1.033-0.448-1.555-0.018-0.072 0.040-0.219 0.1-0.243 0.098-0.040 0.26-0.056 0.335 0 0.147 0.109 0.316 0.254 0.364 0.418 0.127 0.425 0.193 0.87 0.298 1.377z"></path>
<path d="M15.602 17.757c-0.326 0.596-0.573 1.207-1.18 1.533-0.102 0.055-0.328-0.015-0.437-0.102-0.186-0.147 0-0.27 0.090-0.395 0.285-0.392 0.548-0.8 0.85-1.177 0.078-0.097 0.276-0.144 0.411-0.131 0.092 0.008 0.166 0.164 0.266 0.272z"></path>
<path d="M19.282 17.807c0.17 0.098 0.293 0.128 0.316 0.192 0.038 0.106 0.057 0.272 0 0.346-0.093 0.117-0.253 0.184-0.39 0.263-0.356 0.204-0.708 0.42-1.078 0.594-0.113 0.053-0.317 0.037-0.418-0.035-0.207-0.147-0.134-0.383 0.032-0.487 0.509-0.318 1.043-0.596 1.538-0.873z"></path>
<path d="M37.698 15.106c-0.131 0.295-0.315 0.74-0.533 1.167-0.034 0.066-0.245 0.102-0.335 0.063-0.083-0.037-0.174-0.205-0.157-0.295 0.088-0.475 0.184-0.952 0.332-1.411 0.045-0.14 0.248-0.267 0.405-0.314 0.058-0.017 0.209 0.201 0.281 0.334 0.041 0.075 0.007 0.191 0.007 0.457z"></path>
<path d="M15.5 11.562c0.576 0.517 0.508 1.218 0.572 1.866 0.012 0.12-0.138 0.292-0.258 0.379-0.063 0.046-0.317-0.028-0.323-0.070-0.091-0.654-0.161-1.312-0.216-1.971-0.004-0.056 0.131-0.125 0.226-0.205z"></path>
<path d="M28.97 27.56c0.097 0.026 0.192 0.057 0.285 0.093 0.346 0.16 0.695 0.317 1.032 0.493 0.161 0.083 0.321 0.188 0.437 0.321 0.133 0.154-0.019 0.451-0.205 0.41-0.628-0.136-1.242-0.325-1.712-0.794-0.070-0.069-0.068-0.243-0.045-0.358 0.013-0.065 0.135-0.11 0.208-0.165z"></path>
<path d="M21.324 11.751c0.033 0.104 0.147 0.265 0.107 0.366-0.211 0.536-0.455 1.059-0.704 1.578-0.031 0.064-0.161 0.12-0.238 0.11-0.067-0.008-0.161-0.103-0.178-0.175-0.132-0.579 0.284-1.615 0.747-1.876 0.048-0.027 0.124-0.004 0.266-0.004z"></path>
<path d="M39.288 20.539c-0.072-0.046-0.223-0.102-0.301-0.209-0.031-0.043 0.070-0.239 0.157-0.301 0.387-0.281 0.781-0.549 1.192-0.789 0.111-0.065 0.341-0.069 0.423 0.003 0.075 0.067 0.086 0.321 0.018 0.414-0.345 0.48-0.779 0.846-1.49 0.883z"></path>
<path d="M36.901 24.67c-0.298-0.031-0.428-0.034-0.552-0.062-0.053-0.012-0.131-0.074-0.132-0.114-0.006-0.091 0.018-0.182 0.068-0.259 0.064-0.073 0.148-0.125 0.241-0.15 0.46-0.138 0.919-0.276 1.386-0.388 0.101-0.024 0.314 0.043 0.328 0.1 0.031 0.137-0.006 0.303-0.060 0.441-0.029 0.073-0.142 0.134-0.23 0.16-0.399 0.11-0.8 0.207-1.049 0.272z"></path>
<path d="M23.064 21.355c-0.033 0.14-0.086 0.45-0.19 0.742-0.026 0.073-0.227 0.142-0.319 0.116s-0.201-0.178-0.198-0.274c0.010-0.541 0.037-1.083 0.092-1.622 0.012-0.118 0.161-0.221 0.247-0.331 0.103 0.109 0.27 0.205 0.296 0.329 0.058 0.279 0.046 0.573 0.073 1.039z"></path>
<path d="M44.599 4.422c0-1.146 0.278-2.016 0.833-2.608 0.561-0.598 1.28-0.898 2.157-0.898s1.574 0.258 2.091 0.775c0.524 0.516 0.785 1.342 0.785 2.475s-0.277 1.99-0.832 2.57c-0.555 0.579-1.296 0.869-2.223 0.869-0.801 0-1.457-0.23-1.968-0.69-0.265-0.239-0.473-0.57-0.625-0.992-0.145-0.428-0.218-0.929-0.218-1.502zM47.56 1.012c-0.637 0-1.16 0.283-1.57 0.85-0.404 0.567-0.606 1.398-0.606 2.494s0.192 1.896 0.577 2.4c0.385 0.504 0.896 0.756 1.533 0.756 0.643 0 1.167-0.283 1.571-0.85 0.41-0.573 0.615-1.401 0.615-2.485 0-1.090-0.195-1.89-0.587-2.4-0.385-0.51-0.896-0.765-1.533-0.765z"></path>
<path d="M52.101 7.569h-0.785v-6.614h0.785v3.042h3.075v-3.042h0.785v6.614h-0.785v-3.477h-3.075v3.477z"></path>
<path d="M59.997 7.569h-0.123l0.823-6.614h0.312l1.987 6.113 1.977-6.113h0.312l0.823 6.614h-0.785l-0.653-5.291-1.713 5.291h-0.596l-1.731-5.225-0.634 5.225z"></path>
<path d="M71.35 0.955c0.12 0.12 0.18 0.274 0.18 0.463 0 0.157-0.035 0.318-0.104 0.482l-1.694 3.43v2.239h-0.785v-2.031l-1.892-4.582h0.804l1.807 4.261 1.646-3.316c0.069-0.157 0.104-0.321 0.104-0.491s-0.047-0.302-0.142-0.397l0.076-0.057z"></path>
<path d="M1.334 9.306c0.489-0.022 0.967-0.033 1.434-0.033 0.478 0 0.978 0.050 1.5 0.15 0.534 0.1 1.056 0.289 1.567 0.566 0.522 0.266 0.961 0.616 1.317 1.049 0.367 0.422 0.661 0.982 0.884 1.682s0.333 1.548 0.333 2.547c0 0.999-0.167 1.898-0.5 2.697-0.322 0.788-0.767 1.393-1.334 1.815-1.1 0.821-2.429 1.232-3.985 1.232-0.545 0-1.117-0.022-1.717-0.067h-0.834v-11.638h1.334zM1.384 20.811c0.233 0.022 0.528 0.033 0.884 0.033s0.622-0.006 0.8-0.017c0.178-0.011 0.422-0.055 0.734-0.133 0.311-0.089 0.6-0.205 0.867-0.35s0.545-0.355 0.834-0.633c0.3-0.289 0.556-0.627 0.767-1.016 0.478-0.91 0.717-2.098 0.717-3.563 0-1.043-0.128-1.942-0.383-2.697-0.256-0.766-0.55-1.332-0.884-1.698-0.322-0.366-0.717-0.655-1.184-0.866-0.467-0.222-0.839-0.35-1.117-0.383s-0.6-0.050-0.967-0.050-0.722 0.017-1.067 0.050v11.321z"></path>
<path d="M44.869 20.944h-0.216v-11.654h0.567l6.936 10.772v-10.772h0.216v11.654h-1.217l-6.286-9.656v9.656z"></path>
<path d="M62.638 9.29h0.217v6.66c0 1.743-0.344 3.025-1.034 3.846-0.689 0.81-1.589 1.215-2.701 1.215-0.7 0-1.295-0.061-1.784-0.183-0.489-0.133-0.95-0.372-1.384-0.716-0.889-0.688-1.333-2.076-1.333-4.162v-6.66h1.384v6.643c0 2.020 0.306 3.369 0.917 4.046 0.311 0.333 0.634 0.561 0.967 0.683 0.345 0.122 0.756 0.183 1.234 0.183 1.067 0 1.917-0.388 2.551-1.165 0.645-0.788 0.967-2.037 0.967-3.746v-6.643z"></path>
<path d="M68.542 20.944h-1.384v-11.488h-2.884v-0.166h7.169v0.166h-2.901v11.488z"></path>
</symbol>
<symbol id="icon-people" viewBox="0 0 35 32">
<path fill="#674d40" style="fill: var(--color1, #674d40)" d="M11.847 0c-3.678 0-6.674 2.996-6.674 6.674s2.996 6.674 6.674 6.674c3.678 0 6.674-2.996 6.674-6.674s-2.996-6.674-6.674-6.674zM11.847 12.229c-3.071 0-5.562-2.498-5.562-5.562s2.498-5.562 5.562-5.562c3.071 0 5.562 2.498 5.562 5.562s-2.498 5.562-5.562 5.562z"></path>
<path fill="#674d40" style="fill: var(--color1, #674d40)" d="M25.516 2.771c-2.764 0-5.009 2.245-5.009 5.009s2.245 5.009 5.009 5.009c2.764 0 5.009-2.245 5.009-5.009s-2.245-5.009-5.009-5.009zM25.516 11.683c-2.15 0-3.897-1.747-3.897-3.897s1.747-3.897 3.897-3.897c2.15 0 3.897 1.747 3.897 3.897s-1.747 3.897-3.897 3.897z"></path>
<path fill="#674d40" style="fill: var(--color1, #674d40)" d="M34.476 20.131c-0.505-3.044-2.395-5.609-5.616-6.954 0 0-1.426 1.078-3.344 1.044-2.095-0.041-3.344-1.044-3.344-1.044s-1.556 0.58-2.811 1.788c-1.16-1.030-3.119-1.87-3.119-1.87s-1.795 1.365-4.402 1.344c-2.736-0.020-4.388-1.344-4.388-1.344s-5.916 2.034-7.165 8.933c0 0-1.338 3.658 1.761 9.124h19.606c0 0 1.392-2.423 1.638-3.897h9.752c2.395-3.63 1.433-7.124 1.433-7.124zM20.964 30.040h-18.227c-2.382-4.524-1.351-7.827-1.351-7.827 0.58-3.46 2.805-6.381 5.985-7.861 2.73 1.604 6.23 1.604 8.96 0 3.18 1.481 5.405 4.401 5.985 7.861-0.007 0 0.983 4.067-1.351 7.827zM32.394 26.143h-8.878c0.341-1.965-0.109-4.115-0.109-4.115-0.403-2.429-1.549-4.62-3.228-6.312 0.573-0.519 1.208-0.949 1.904-1.283 2.095 1.201 4.763 1.201 6.858 0 2.354 1.126 4.006 3.303 4.436 5.882 0 0 0.812 2.757-0.983 5.828z"></path>
</symbol>
<symbol id="icon-star-bad" viewBox="0 0 34 32">
<path fill="none" stroke="#ab816c" style="stroke: var(--color2, #ab816c)" stroke-linejoin="miter" stroke-linecap="butt" stroke-miterlimit="4" stroke-width="1.6842" d="M16.041 1.822c0.252-0.776 1.35-0.776 1.602 0l2.558 7.872c0.338 1.041 1.308 1.746 2.403 1.746h8.277c0.816 0 1.155 1.044 0.495 1.523l-6.696 4.865c-0.885 0.643-1.256 1.784-0.918 2.825l2.558 7.872c0.252 0.776-0.636 1.421-1.296 0.941l-6.696-4.865c-0.886-0.643-2.084-0.643-2.97 0l-6.696 4.865c-0.66 0.48-1.548-0.166-1.296-0.941l2.558-7.872c0.338-1.041-0.032-2.181-0.918-2.825l-6.696-4.865c-0.66-0.479-0.321-1.523 0.495-1.523h8.277c1.094 0 2.064-0.705 2.403-1.746l2.558-7.872z"></path>
</symbol>
<symbol id="icon-star-good" viewBox="0 0 34 32">
<path fill="#ab816c" style="fill: var(--color2, #ab816c)" d="M15.24 1.561c0.504-1.552 2.699-1.552 3.204 0l2.558 7.872c0.225 0.694 0.872 1.164 1.602 1.164h8.277c1.632 0 2.31 2.088 0.99 3.047l-6.696 4.865c-0.59 0.429-0.837 1.189-0.612 1.883l2.558 7.872c0.504 1.552-1.272 2.842-2.592 1.883l-6.696-4.865c-0.59-0.429-1.39-0.429-1.98 0l-6.696 4.865c-1.32 0.959-3.096-0.331-2.592-1.883l2.558-7.872c0.225-0.694-0.022-1.454-0.612-1.883l-6.696-4.865c-1.32-0.959-0.642-3.047 0.99-3.047h8.277c0.73 0 1.376-0.47 1.602-1.164l2.558-7.872z"></path>
</symbol>
<symbol id="icon-star-line-4" viewBox="0 0 181 32">
<path fill="#ab816c" style="fill: var(--color2, #ab816c)" d="M14.732 3.903c0.399-1.228 2.137-1.228 2.536 0l2.025 6.232c0.178 0.549 0.69 0.921 1.268 0.921h6.552c1.292 0 1.829 1.653 0.784 2.412l-5.301 3.851c-0.467 0.339-0.663 0.941-0.484 1.491l2.025 6.232c0.399 1.228-1.007 2.25-2.052 1.491l-5.301-3.851c-0.467-0.339-1.1-0.339-1.567 0l-5.301 3.851c-1.045 0.759-2.451-0.262-2.052-1.491l2.025-6.232c0.178-0.549-0.017-1.151-0.484-1.491l-5.301-3.851c-1.045-0.759-0.508-2.412 0.784-2.412h6.552c0.578 0 1.090-0.372 1.268-0.921l2.025-6.232z"></path>
<path fill="none" stroke="#ab816c" style="stroke: var(--color2, #ab816c)" stroke-linejoin="miter" stroke-linecap="butt" stroke-miterlimit="4" stroke-width="1.3333" d="M164.699 4.109c0.2-0.614 1.069-0.614 1.269 0l2.024 6.232c0.268 0.824 1.036 1.382 1.903 1.382h6.552c0.645 0 0.915 0.826 0.392 1.206l-5.301 3.851c-0.701 0.509-0.995 1.412-0.727 2.236l2.025 6.232c0.2 0.614-0.504 1.125-1.027 0.745l-5.3-3.851c-0.701-0.509-1.651-0.509-2.352 0l-5.3 3.851c-0.523 0.38-1.227-0.131-1.027-0.745l2.025-6.232c0.268-0.824-0.025-1.727-0.727-2.236l-5.301-3.851c-0.523-0.38-0.253-1.206 0.392-1.206h6.552c0.867 0 1.635-0.558 1.903-1.382l2.024-6.232z"></path>
<path fill="#ab816c" style="fill: var(--color2, #ab816c)" d="M126.732 3.903c0.399-1.228 2.137-1.228 2.536 0l2.025 6.232c0.178 0.549 0.69 0.921 1.268 0.921h6.552c1.292 0 1.828 1.653 0.784 2.412l-5.301 3.851c-0.467 0.339-0.663 0.941-0.484 1.491l2.024 6.232c0.4 1.228-1.007 2.25-2.051 1.491l-5.302-3.851c-0.467-0.339-1.1-0.339-1.567 0l-5.301 3.851c-1.045 0.759-2.451-0.262-2.052-1.491l2.025-6.232c0.179-0.549-0.017-1.151-0.484-1.491l-5.301-3.851c-1.045-0.759-0.508-2.412 0.784-2.412h6.552c0.578 0 1.090-0.372 1.268-0.921l2.025-6.232z"></path>
<path fill="#ab816c" style="fill: var(--color2, #ab816c)" d="M89.399 3.903c0.399-1.228 2.137-1.228 2.536 0l2.025 6.232c0.178 0.549 0.69 0.921 1.268 0.921h6.552c1.292 0 1.829 1.653 0.784 2.412l-5.301 3.851c-0.467 0.339-0.663 0.941-0.484 1.491l2.025 6.232c0.399 1.228-1.007 2.25-2.052 1.491l-5.301-3.851c-0.467-0.339-1.1-0.339-1.567 0l-5.301 3.851c-1.045 0.759-2.451-0.262-2.052-1.491l2.025-6.232c0.179-0.549-0.017-1.151-0.484-1.491l-5.301-3.851c-1.045-0.759-0.508-2.412 0.784-2.412h6.552c0.578 0 1.090-0.372 1.268-0.921l2.025-6.232z"></path>
<path fill="#ab816c" style="fill: var(--color2, #ab816c)" d="M52.065 3.903c0.399-1.228 2.137-1.228 2.536 0l2.025 6.232c0.178 0.549 0.69 0.921 1.268 0.921h6.552c1.292 0 1.829 1.653 0.784 2.412l-5.301 3.851c-0.467 0.339-0.663 0.941-0.484 1.491l2.025 6.232c0.399 1.228-1.007 2.25-2.052 1.491l-5.301-3.851c-0.467-0.339-1.1-0.339-1.567 0l-5.301 3.851c-1.045 0.759-2.451-0.262-2.052-1.491l2.025-6.232c0.179-0.549-0.017-1.151-0.484-1.491l-5.301-3.851c-1.045-0.759-0.508-2.412 0.784-2.412h6.552c0.578 0 1.090-0.372 1.268-0.921l2.025-6.232z"></path>
</symbol>
<symbol id="icon-star-line-5" viewBox="0 0 181 32">
<path fill="#ab816c" style="fill: var(--color2, #ab816c)" d="M14.732 3.903c0.399-1.228 2.137-1.228 2.536 0l2.025 6.232c0.178 0.549 0.69 0.921 1.268 0.921h6.552c1.292 0 1.829 1.653 0.784 2.412l-5.301 3.851c-0.467 0.339-0.663 0.941-0.484 1.491l2.025 6.232c0.399 1.228-1.007 2.25-2.052 1.491l-5.301-3.851c-0.467-0.339-1.1-0.339-1.567 0l-5.301 3.851c-1.045 0.759-2.451-0.262-2.052-1.491l2.025-6.232c0.178-0.549-0.017-1.151-0.484-1.491l-5.301-3.851c-1.045-0.759-0.508-2.412 0.784-2.412h6.552c0.578 0 1.090-0.372 1.268-0.921l2.025-6.232z"></path>
<path fill="#ab816c" style="fill: var(--color2, #ab816c)" d="M164.065 3.903c0.399-1.228 2.137-1.228 2.536 0l2.025 6.232c0.179 0.549 0.689 0.921 1.268 0.921h6.552c1.292 0 1.828 1.653 0.784 2.412l-5.301 3.851c-0.467 0.339-0.663 0.941-0.484 1.491l2.024 6.232c0.4 1.228-1.007 2.25-2.051 1.491l-5.301-3.851c-0.468-0.339-1.1-0.339-1.568 0l-5.301 3.851c-1.044 0.759-2.451-0.262-2.051-1.491l2.024-6.232c0.179-0.549-0.017-1.151-0.484-1.491l-5.301-3.851c-1.044-0.759-0.508-2.412 0.784-2.412h6.552c0.579 0 1.089-0.372 1.268-0.921l2.025-6.232z"></path>
<path fill="#ab816c" style="fill: var(--color2, #ab816c)" d="M126.732 3.903c0.399-1.228 2.137-1.228 2.536 0l2.025 6.232c0.178 0.549 0.69 0.921 1.268 0.921h6.552c1.292 0 1.828 1.653 0.784 2.412l-5.301 3.851c-0.467 0.339-0.663 0.941-0.484 1.491l2.024 6.232c0.4 1.228-1.007 2.25-2.051 1.491l-5.302-3.851c-0.467-0.339-1.1-0.339-1.567 0l-5.301 3.851c-1.045 0.759-2.451-0.262-2.052-1.491l2.025-6.232c0.179-0.549-0.017-1.151-0.484-1.491l-5.301-3.851c-1.045-0.759-0.508-2.412 0.784-2.412h6.552c0.578 0 1.090-0.372 1.268-0.921l2.025-6.232z"></path>
<path fill="#ab816c" style="fill: var(--color2, #ab816c)" d="M89.399 3.903c0.399-1.228 2.137-1.228 2.536 0l2.025 6.232c0.178 0.549 0.69 0.921 1.268 0.921h6.552c1.292 0 1.829 1.653 0.784 2.412l-5.301 3.851c-0.467 0.339-0.663 0.941-0.484 1.491l2.025 6.232c0.399 1.228-1.007 2.25-2.052 1.491l-5.301-3.851c-0.467-0.339-1.1-0.339-1.567 0l-5.301 3.851c-1.045 0.759-2.451-0.262-2.052-1.491l2.025-6.232c0.179-0.549-0.017-1.151-0.484-1.491l-5.301-3.851c-1.045-0.759-0.508-2.412 0.784-2.412h6.552c0.578 0 1.090-0.372 1.268-0.921l2.025-6.232z"></path>
<path fill="#ab816c" style="fill: var(--color2, #ab816c)" d="M52.065 3.903c0.399-1.228 2.137-1.228 2.536 0l2.025 6.232c0.178 0.549 0.69 0.921 1.268 0.921h6.552c1.292 0 1.829 1.653 0.784 2.412l-5.301 3.851c-0.467 0.339-0.663 0.941-0.484 1.491l2.025 6.232c0.399 1.228-1.007 2.25-2.052 1.491l-5.301-3.851c-0.467-0.339-1.1-0.339-1.567 0l-5.301 3.851c-1.045 0.759-2.451-0.262-2.052-1.491l2.025-6.232c0.179-0.549-0.017-1.151-0.484-1.491l-5.301-3.851c-1.045-0.759-0.508-2.412 0.784-2.412h6.552c0.578 0 1.090-0.372 1.268-0.921l2.025-6.232z"></path>
</symbol>
<symbol id="icon-tel" viewBox="0 0 32 32">
<path d="M29.43 21.003c-1.959 0-3.882-0.306-5.705-0.909-0.893-0.305-1.991-0.025-2.536 0.535l-3.598 2.716c-4.172-2.227-6.743-4.797-8.939-8.938l2.636-3.504c0.685-0.684 0.931-1.683 0.636-2.62-0.605-1.832-0.912-3.755-0.912-5.715 0-1.416-1.152-2.568-2.567-2.568h-5.876c-1.416 0-2.568 1.152-2.568 2.568 0 16.228 13.202 29.43 29.43 29.43 1.416 0 2.568-1.152 2.568-2.568v-5.86c0-1.416-1.152-2.567-2.568-2.567z"></path>
</symbol>
<symbol id="icon-twitter" viewBox="0 0 40 32">
<path d="M40.421 3.788c-1.503 0.642-3.105 1.068-4.775 1.275 1.718-0.999 3.029-2.57 3.645-4.463-1.602 0.93-3.37 1.588-5.255 1.954-1.521-1.578-3.688-2.555-6.053-2.555-4.588 0-8.281 3.628-8.281 8.076 0 0.64 0.056 1.255 0.192 1.841-6.889-0.327-12.985-3.545-17.080-8.446-0.715 1.209-1.134 2.592-1.134 4.081 0 2.796 1.478 5.275 3.681 6.71-1.331-0.025-2.637-0.401-3.744-0.994 0 0.025 0 0.057 0 0.089 0 3.924 2.872 7.183 6.639 7.934-0.675 0.18-1.41 0.266-2.173 0.266-0.531 0-1.066-0.029-1.569-0.138 1.074 3.197 4.12 5.548 7.743 5.625-2.819 2.149-6.399 3.444-10.275 3.444-0.68 0-1.331-0.030-1.983-0.111 3.671 2.307 8.021 3.623 12.712 3.623 15.249 0 23.586-12.308 23.586-22.976 0-0.357-0.013-0.702-0.030-1.044 1.645-1.137 3.027-2.558 4.153-4.192z"></path>
</symbol>
</defs>
</svg>
