<svg aria-hidden="true" style="position:absolute;width:0;height:0" xmlns="http://www.w3.org/2000/svg" overflow="hidden">
  <defs>
    <symbol id="icon-actions-icon1" viewBox="0 0 31 32">
      <path  d="M30.151 4.961l-.001-.002a.32.32 0 00-.06-.09L25.284.063a.258.258 0 00-.041-.033l-.009-.006c-.012-.007-.024-.014-.036-.019L25.187 0a.277.277 0 00-.099-.02H3.912a.284.284 0 00-.284.284v29.311c0 .019.002.037.006.056l.007.023.009.03.014.026.013.023c.01.014.021.028.033.04l.003.003 2.165 2.164c.111.111.29.111.402 0l1.964-1.963 1.964 1.963c.055.056.128.083.201.083s.145-.027.201-.083l1.963-1.963 1.965 1.963a.284.284 0 00.402 0l1.963-1.963 1.963 1.963a.283.283 0 00.401 0l1.965-1.963 1.964 1.963c.055.056.128.083.201.083s.145-.027.201-.083l1.963-1.963 1.965 1.963a.283.283 0 00.401 0l2.165-2.164.011-.014.024-.029c.007-.009.011-.02.016-.03.003-.007.007-.012.009-.019.006-.013.009-.026.012-.039l.005-.013a.286.286 0 00.006-.058V5.071a.296.296 0 00-.023-.109zM25.367.949l3.836 3.835h-3.836V.949zm4.237 28.507l-1.88 1.88-1.965-1.963a.283.283 0 00-.401 0l-1.963 1.963-1.964-1.963a.284.284 0 00-.402 0l-1.965 1.963-1.963-1.962v-.001a.284.284 0 00-.402 0l-1.963 1.963-1.965-1.963a.284.284 0 00-.402 0l-1.963 1.963-1.964-1.963a.284.284 0 00-.402 0l-1.965 1.963-1.88-1.88V.547h20.603v4.522c0 .157.127.284.284.284h4.521v24.103z"/>
      <path  d="M6.314 3.234h9.303a.284.284 0 100-.568H6.314a.284.284 0 100 .568zM6.314 4.991h14.919a.284.284 0 100-.568H6.314a.284.284 0 100 .568zM6.03 6.568v9.199c0 .157.127.284.284.284h21.172a.284.284 0 00.284-.284V6.568a.284.284 0 00-.284-.284H6.314a.284.284 0 00-.284.284zm6.278.284h14.893v2.445H12.308V6.852zm0 3.013h14.893v2.444H12.308V9.865zm0 3.012h14.893v2.605H12.308v-2.605zm-5.71-6.025h5.142v2.445H6.598V6.852zm0 3.013h5.142v2.444H6.598V9.865zm0 3.012h5.142v2.605H6.598v-2.605zM27.486 17.329H6.314a.284.284 0 00-.284.284v9.198a.284.284 0 10.568 0v-2.889h5.142v2.889a.284.284 0 10.568 0v-2.889h14.893v2.889a.284.284 0 10.568 0v-9.198a.282.282 0 00-.283-.284zM11.74 23.354H6.598v-2.443h5.142v2.443zm0-3.012H6.598v-2.444h5.142v2.444zm15.461 3.012H12.308v-2.443h14.893v2.443zm0-3.012H12.308v-2.444h14.893v2.444zM2.281-.021a.284.284 0 00-.284.284v29.311a.284.284 0 10.568 0V.263a.284.284 0 00-.284-.284zM.718-.021a.284.284 0 00-.284.284v29.311a.284.284 0 10.568 0V.263a.284.284 0 00-.284-.284z"/>
    </symbol>
    <symbol id="icon-actions-icon2" viewBox="0 0 33 32">
      <path  d="M30.175-.128H14.429a1.861 1.861 0 00-1.859 1.859v6.518L.872 13.159a.38.38 0 00-.049.678l1.492.893v9.515A1.719 1.719 0 00.98 25.919v.917c0 .21.171.381.381.381h2.671c.21 0 .381-.171.381-.381v-.917a1.72 1.72 0 00-1.336-1.673v-9.06l1.18.706c-.036.272-.005-.474-.017 4.43 0 1.612 4.129 2.476 8.33 2.525v7.425a1.858 1.858 0 001.858 1.856h15.746a1.859 1.859 0 001.857-1.857c0 .051-.002-1.573 0-28.54a1.87 1.87 0 00-1.856-1.859zM3.652 25.918v.536H1.743v-.536a.955.955 0 111.909 0zm26.523 5.446H14.429a1.096 1.096 0 01-1.096-1.094v-2.574h17.935v2.575c0 .597-.497 1.092-1.092 1.092zm1.092-4.429H13.332v-4.086c2.051-.023 8.335-.475 8.335-2.527-.002-3.081.005-4.33-.01-4.436l3.421-2.049a.382.382 0 00-.049-.678l-11.698-4.91V5.067h17.935v21.868zm-18.316-9.143c-2.113 0-6.182.273-7.949 1.427.011-3.53-.122-3.3.312-3.6 1.098-.809 4.238-1.373 7.637-1.373 1.482 0 7.954.408 7.954 1.778v3.195c-1.784-1.165-5.832-1.428-7.954-1.428zm.382-16.061c0-.604.491-1.095 1.095-1.095h15.746c.604 0 1.093.498 1.093 1.095v2.574H13.332V1.731zm-.382 7.184l11.09 4.655-2.748 1.644c-1.461-1.449-6.294-1.73-8.342-1.73-2.051 0-6.884.282-8.342 1.73L1.86 13.569l11.091-4.655zM5.002 20.321c0-.617 2.73-1.767 7.949-1.767 5.222 0 7.954 1.151 7.954 1.767s-2.732 1.768-7.954 1.768c-5.219 0-7.949-1.151-7.949-1.768z"/>
      <path  d="M22.301 28.271a1.261 1.261 0 000 2.52 1.261 1.261 0 000-2.52zm0 1.759a.499.499 0 11.002-.998.499.499 0 01-.002.998zM23.754 2.09h-2.906v.762h2.906V2.09z"/>
    </symbol>
    <symbol id="icon-actions-icon3" viewBox="0 0 44 32">
      <path  d="M19.6 4.608H5.96v1.021H19.6V4.608zM19.6 8.416H8.003v1.021H19.6V8.416zM19.6 12.224H5.96v1.021H19.6v-1.021zM19.6 16.032H8.003v1.021H19.6v-1.021zM19.6 19.84H5.96v1.021H19.6V19.84zM19.6 23.648H8.003v1.021H19.6v-1.021zM38.323 4.608h-13.64v1.021h13.64V4.608zM36.281 8.416H24.684v1.021h11.597V8.416zM38.323 12.224h-13.64v1.021h13.64v-1.021zM36.281 16.032H24.684v1.021h11.597v-1.021zM38.323 19.84h-13.64v1.021h13.64V19.84zM36.281 23.648H24.684v1.021h11.597v-1.021z"/>
      <path  d="M43.248 3.445h-1.872V.633a.511.511 0 00-.511-.511H25.6c-1.49 0-2.781.805-3.458 2.011A3.95 3.95 0 0018.683.122H3.418a.511.511 0 00-.511.511v2.812H1.035a.511.511 0 00-.511.511v27.411c0 .282.229.511.511.511h42.213a.511.511 0 00.511-.511V3.956a.511.511 0 00-.511-.511zM25.601 1.144h14.754v27.35H24.512a3.01 3.01 0 00-1.859.68V4.085a2.932 2.932 0 012.948-2.942zm-21.672 0h14.754a2.924 2.924 0 012.942 2.829c.001.022.003.091.006.112v25.087a2.987 2.987 0 00-1.852-.678H3.929V1.144zM1.546 4.467h1.362v24.538c0 .282.229.511.511.511H19.78c.778 0 1.531.511 1.771 1.341H1.546V4.467zm41.192 26.389H22.734a1.845 1.845 0 011.778-1.341h16.354a.511.511 0 00.511-.511V4.466h1.362v26.39z"/>
    </symbol>
    <symbol id="icon-actions-icon4" viewBox="0 0 33 32">
      <path  d="M1.993 12.558v2.831a.5.5 0 00.189.39 11.099 11.099 0 006.837 2.362c.74 0 1.482-.077 2.206-.224a12.01 12.01 0 004.89 1.032c1.707 0 3.351-.349 4.89-1.032 3.091.624 6.384-.046 9.042-2.138a.495.495 0 00.189-.39v-2.831a1.2 1.2 0 00-.575-1.027l-3.867-2.176c.846-1.073 1.476-2.602 1.586-3.913.321-2.256-1.518-4.646-4.166-4.646a4.208 4.208 0 00-2.948 1.227c-.027.027-.058.049-.084.076-.024.025-.043.054-.067.08-.016.017-.029.036-.044.053C19.314.852 17.86 0 16.147 0c-.166 0-.33.011-.492.028-.01-.001-.018-.006-.028-.006-.092 0-.287.024-.391.054-.015.004-.026.015-.041.021a4.485 4.485 0 00-3.013 2.156A4.176 4.176 0 009.003.796c-3.908 0-5.642 4.612-2.557 8.581l-3.903 2.167a1.192 1.192 0 00-.553 1.014zm19.003 4.27c-.084.041-.167.085-.251.123l-.002.001a11.007 11.007 0 01-4.627 1.006 11.023 11.023 0 01-6.674-2.228v-2.87c0-.098.047-.184.102-.221l4.542-2.524c.565.48 1.287.832 2.035.832.721 0 1.499-.357 2.052-.843l4.487 2.52c.083.053.13.139.13.237v2.87c-.571.429-1.173.795-1.794 1.098zm8.158-4.446a.201.201 0 01.092.176v2.587a9.986 9.986 0 01-6.737 1.98c.369-.23.771-.516 1.083-.76a.496.496 0 00.19-.39v-3.114c0-.435-.218-.835-.61-1.087l-2.383-1.339.58-.321c.703.573 1.307.744 1.848.744.663 0 1.36-.325 1.878-.759l4.06 2.284zM23.216 1.788c1.38 0 2.593.902 3.021 2.142A3.703 3.703 0 0124 2.788a.494.494 0 00-.788.084 3.684 3.684 0 01-2.548 1.76v-.003a4.786 4.786 0 00-.162-1.329c.563-.902 1.609-1.513 2.713-1.513zm-2.66 3.856a4.642 4.642 0 003.164-1.762 4.684 4.684 0 002.702 1.056c-.007 1.792-1.471 4.927-3.206 4.927-1.337 0-2.479-1.912-2.905-3.238a8.15 8.15 0 00.245-.983zm.101 3.729l-.886.491-.895-.502c.332-.413.636-.893.896-1.413.25.526.55 1.01.884 1.425zM19.32 6.465c-.478 1.427-1.705 3.49-3.199 3.49-1.742 0-3.226-2.864-3.509-4.696.075-.019 2.43.126 4.049-2.001.822.688 1.932 1.143 3.011 1.188.013.647-.144 1.406-.352 2.018zM16.15.992c2.78 0 3.309 2.392 3.352 2.442a4.123 4.123 0 01-2.563-1.276.497.497 0 00-.789.087 4.073 4.073 0 01-3.58 2.022c.136-1.822 1.596-3.274 3.58-3.274zm-3.689 6.946c.257.515.563 1.006.913 1.438l-.875.487-.907-.51a7.76 7.76 0 00.87-1.415zm-3.455-6.15c1.125 0 2.155.571 2.729 1.514-.029.1-.106.498-.117.548a3.675 3.675 0 01-1.821-1.062.496.496 0 00-.788.086 3.712 3.712 0 01-3.177 1.815c.158-1.627 1.518-2.9 3.174-2.9zm-3.13 3.89a4.711 4.711 0 003.643-1.796 4.629 4.629 0 002.055.961c.029.575.179 1.273.35 1.789-.274.84-.799 1.841-1.451 2.505l-.014.01c-.408.43-.988.719-1.444.719-1.594 0-2.841-2.508-3.14-4.188zm-2.891 6.88c0-.075.033-.139.067-.162l4.116-2.284c.247.206.304.229.353.265.484.322.928.482 1.534.482.645 0 1.232-.273 1.749-.694.029-.023.06-.045.088-.068l.587.33-2.446 1.361a1.269 1.269 0 00-.584 1.071v3.114c0 .152.07.296.19.39.317.249.727.539 1.083.761a10.024 10.024 0 01-6.737-1.98v-2.587z"/>
      <path  d="M31.259 20.781a2.063 2.063 0 00-2.007-.11l-6.119 2.956a2.111 2.111 0 00-2.107-2.072l-3.509.001c-1.73-1.504-3.941-2.425-5.952-2.473-1.983-.047-3.763-.06-4.593-.064v-1.002H0v11.517h6.972v-1.379C8.884 29.252 13.911 32 16.297 32c.054 0 .107-.001.158-.004 4.196-.235 14.091-7.198 14.743-7.661a2.08 2.08 0 001.034-1.796c0-.719-.364-1.376-.973-1.758zM5.98 28.542H.992v-9.533H5.98v9.533zm24.707-5.058a.296.296 0 00-.044.028c-.102.073-10.281 7.271-14.244 7.494a2.354 2.354 0 01-.121.003c-2.092 0-7.194-2.753-9.307-4.001v-6.997c.827.004 2.597.017 4.569.064 1.837.044 3.876.921 5.456 2.346l.141.128 3.887-.001c.617 0 1.119.502 1.119 1.119s-.502 1.119-1.119 1.119h-7.142v.992h7.142c.684 0 1.288-.333 1.674-.839l6.984-3.373c.343-.167.725-.146 1.049.057s.508.537.508.918c0 .391-.212.753-.553.945zM16.612 12.158h-.992v.92h.992v-.92zM16.612 13.992h-.992v.92h.992v-.92zM16.612 15.826h-.992v.92h.992v-.92z"/>
    </symbol>
    <symbol id="icon-actions-icon5" viewBox="0 0 27 32">
      <path  d="M-.105 31.754H27.25c.136-3.12-.088-8.295-2.006-10.759l-.069-.088-4.191-2.104c.091-.307.136-.588.154-.795a1.449 1.449 0 00-.102-.692c-.691-1.655-2.155-2.525-2.959-2.896a5.158 5.158 0 00.48-1.567c.456-.128.822-.489.942-.971l.489-1.987a1.329 1.329 0 00-.454-1.364c1.379-3.133-.931-6.087-1.057-6.243C15.975-.417 12.815.089 12.648.119c-4.561.955-6.321 4.451-5.328 8.55-.294.326-.418.78-.309 1.226l.492 1.99c.119.478.483.838.935.968.14.993.56 1.89 1.177 2.614v1.576c-6.545 3.352-2.398 1.213-7.643 3.867-.01.049-2.461 2.654-2.097 10.375l.022.472zm26.404-.991h-4.502v-1.891l2.978-6.817c1.492 2.476 1.547 7.203 1.524 8.708zm-6.144-12.84c-.174 1.996-1.268 1.393-1.944 2.93-.531-.584-.691-1.285-.548-2.035.258-1.377-.583-1.786-.375-3.233l.031-.033v-.005c.018-.02.184-.217.232-.28 1.781.776 2.639 2.221 2.604 2.656zM10.6 16.354a5.075 5.075 0 005.694.076c.114 1.138.559 1.365.401 2.203a3.5 3.5 0 00-.055.459l-3.066 3.456-3.919-4.419.946-.494v-1.281zm-1.233-4.229v-1.916-3.366c.477-.883 1.128-1.522 1.936-1.906 2.165 1.225 4.657 3.053 6.329 4.893-.002 2.343.007 2.35-.009 2.542l-.001.012c-.13 2.128-1.88 3.892-4.124 3.892-2.181 0-3.992-1.713-4.123-3.913a2.69 2.69 0 01-.008-.238zm-.611 6.482l4.816 5.43 3.234-3.644c.074.213.178.414.296.608l-3.53 4.414-5.264-6.583.447-.224zm9.862-7.278v-1.53l.368-.421c.02.775.104-.14-.368 1.951zM12.829 1.09c.196.012 2.824-.4 4.901 1.843.082.103 1.773 2.281 1.093 4.665-.233-1.061-.638-2.42-1.278-3.068l-.7.697c.632.641 1.048 2.591 1.206 3.602-2.901-3.035-6.643-4.957-6.694-4.989-.188.117-1.771.418-2.921 2.653l-.055.107v1.642l-.145.002c-.731-3.528.669-6.33 4.593-7.153zM8.132 9.262l.249 1.008v1.06l-.414-1.674c-.061-.25.124-.344.165-.394zm-.725 10.023l6.166 7.712 4.172-5.218c.454.406.672.464 1.634.959l-.325-1.101c-.082-.279.244-.728.441-.934.44-.238.806-.578 1.08-.998l3.404 1.709-3.167 7.251v2.099H6.335v-2.099l-3.169-7.25 4.242-2.129zM2.37 22.058l2.978 6.815v1.891H.846c-.023-1.504.033-6.229 1.524-8.706z"/>
    </symbol>
    <symbol id="icon-actions-icon6" viewBox="0 0 37 32">
      <path  d="M2.381 29.453h12.23a3.738 3.738 0 003.38 2.116h.772c1.465 0 2.761-.83 3.381-2.116h12.237a2.289 2.289 0 002.286-2.286V5.262a2.289 2.289 0 00-2.286-2.286h-1.234V1.955c0-.84-.684-1.524-1.524-1.524H5.132c-.84 0-1.524.683-1.524 1.524v1.021H2.381A2.289 2.289 0 00.095 5.262v21.905a2.289 2.289 0 002.286 2.286zm29.24-4.701H19.143V7.047c2.884.377 5.121 2.845 5.121 5.831v.687l-.181-.04a.759.759 0 00-.908.58l-1.213 5.519c-.09.41.17.816.58.907l2.621.578a1.946 1.946 0 002.319-1.492l.702-3.192a1.954 1.954 0 00-1.484-2.324l-.912-.201v-1.023c0-3.827-2.917-6.986-6.644-7.37V1.956h12.48l-.001 22.796zm-7.122-9.575l1.871.412a.422.422 0 01.325.508l-.702 3.191a.45.45 0 01-.507.331l-1.874-.413.886-4.03zM5.132 1.956h12.487v3.55c-3.731.381-6.652 3.541-6.652 7.371v1.022l-.914.202a1.935 1.935 0 00-1.222.854c-.28.439-.373.961-.26 1.468l.7 3.188a1.96 1.96 0 002.325 1.495l2.61-.577a.762.762 0 00.58-.907l-1.213-5.519c-.043-.198-.164-.37-.334-.478s-.378-.144-.574-.102l-.174.038v-.686c0-2.988 2.24-5.458 5.128-5.832v17.706H5.132V1.953zm7.117 13.221l.887 4.029-1.863.411a.433.433 0 01-.512-.328l-.702-3.196a.42.42 0 01.323-.506l1.867-.412zM1.619 5.262c0-.42.341-.762.762-.762h1.227v20.252c0 .84.684 1.524 1.524 1.524h26.491c.84 0 1.524-.683 1.524-1.524V4.5h1.234c.42 0 .762.342.762.762v21.905c0 .42-.342.762-.762.762H21.627a.76.76 0 00-.728.538 2.22 2.22 0 01-2.135 1.577h-.772a2.229 2.229 0 01-2.138-1.586.762.762 0 00-.725-.529H2.382a.763.763 0 01-.762-.762V5.262z"/>
    </symbol>
    <symbol id="icon-comment-arrow-1" viewBox="0 0 54 32">
      <path  d="M52 14a2 2 0 110 4v-4zM.586 17.414a2 2 0 010-2.828L13.314 1.858a2 2 0 112.828 2.828L4.828 16l11.314 11.314a2 2 0 11-2.828 2.828L.586 17.414zM52 18H2v-4h50v4z"/>
    </symbol>
    <symbol id="icon-comment-arrow-2" viewBox="0 0 54 32">
      <path  d="M2 14a2 2 0 100 4v-4zm51.414 3.414a2 2 0 000-2.828L40.686 1.858a2 2 0 10-2.828 2.828L49.172 16 37.858 27.314a2 2 0 102.828 2.828l12.728-12.728zM2 18h50v-4H2v4z"/>
    </symbol>
    <symbol id="icon-footer-mobile" viewBox="0 0 33 32">
      <path  d="M4.817.003a2.072 2.072 0 00-1.44.674L.693 3.627c.004-.009-.01-.007-.087.1a.627.627 0 00-.093.182c-1.092 3.48-.36 7.308 1.424 10.949s4.63 7.125 7.897 9.984c3.267 2.859 6.953 5.096 10.468 6.205s6.922 1.095 9.448-.737a.697.697 0 00.077-.067c.066-.066.068-.075.058-.065l.01-.013 2.671-2.938a2.09 2.09 0 00-.138-2.938l-6.337-5.763a2.09 2.09 0 00-2.938.137l-2.867 3.153c-2.327-.674-4.317-1.816-6.231-3.557s-3.24-3.615-4.131-5.869l2.866-3.153a2.09 2.09 0 00-.137-2.938L6.316.536A2.07 2.07 0 004.818.001h-.001zm.061 1.293a.772.772 0 01.559.208l6.337 5.763a.762.762 0 01.052 1.097l-3.169 3.482a.664.664 0 00-.129.661c.962 2.624 2.513 4.777 4.648 6.719s4.423 3.283 7.126 3.992a.65.65 0 00.647-.192l3.169-3.483a.76.76 0 011.096-.051l6.338 5.763a.76.76 0 01.051 1.096l-2.649 2.912c-2.072 1.488-4.992 1.571-8.262.539-3.282-1.036-6.846-3.182-9.999-5.942s-5.898-6.131-7.585-9.573C1.438 10.88.833 7.435 1.751 4.399l2.588-2.844a.775.775 0 01.538-.26z"/>
    </symbol>
    <symbol id="icon-frame" viewBox="0 0 31 32">
      <path  d="M31.077 4.615V.307H.308v31.385h30.769v-4.308"/>
    </symbol>
    <symbol id="icon-frame-icon1" viewBox="0 0 27 32">
      <path  d="M-.105 31.754H27.25c.136-3.12-.088-8.295-2.006-10.759l-.069-.088-4.191-2.104c.091-.307.136-.588.154-.795a1.449 1.449 0 00-.102-.692c-.691-1.655-2.155-2.525-2.959-2.896a5.158 5.158 0 00.48-1.567c.456-.128.822-.489.942-.971l.489-1.987a1.329 1.329 0 00-.454-1.364c1.379-3.133-.931-6.087-1.057-6.243C15.975-.417 12.815.089 12.648.119c-4.561.955-6.321 4.451-5.328 8.55-.294.326-.418.78-.309 1.226l.492 1.99c.119.478.483.838.935.968.14.993.56 1.89 1.177 2.614v1.576c-6.545 3.352-2.398 1.213-7.643 3.867-.01.049-2.461 2.654-2.097 10.375l.022.472zm26.404-.991h-4.502v-1.891l2.978-6.817c1.492 2.476 1.547 7.203 1.524 8.708zm-6.144-12.84c-.174 1.996-1.268 1.393-1.944 2.93-.531-.584-.691-1.285-.548-2.035.258-1.377-.583-1.786-.375-3.233l.031-.033v-.005c.018-.02.184-.217.232-.28 1.781.776 2.639 2.221 2.604 2.656zM10.6 16.354a5.075 5.075 0 005.694.076c.114 1.138.559 1.365.401 2.203a3.5 3.5 0 00-.055.459l-3.066 3.456-3.919-4.419.946-.494v-1.281zm-1.233-4.229v-1.916-3.366c.477-.883 1.128-1.522 1.936-1.906 2.165 1.225 4.657 3.053 6.329 4.893-.002 2.343.007 2.35-.009 2.542l-.001.012c-.13 2.128-1.88 3.892-4.124 3.892-2.181 0-3.992-1.713-4.123-3.913a2.69 2.69 0 01-.008-.238zm-.611 6.482l4.816 5.43 3.234-3.644c.074.213.178.414.296.608l-3.53 4.414-5.264-6.583.447-.224zm9.862-7.278v-1.53l.368-.421c.02.775.104-.14-.368 1.951zM12.829 1.09c.196.012 2.824-.4 4.901 1.843.082.103 1.773 2.281 1.093 4.665-.233-1.061-.638-2.42-1.278-3.068l-.7.697c.632.641 1.048 2.591 1.206 3.602-2.901-3.035-6.643-4.957-6.694-4.989-.188.117-1.771.418-2.921 2.653l-.055.107v1.642l-.145.002c-.731-3.528.669-6.33 4.593-7.153zM8.132 9.262l.249 1.008v1.06l-.414-1.674c-.061-.25.124-.344.165-.394zm-.725 10.023l6.166 7.712 4.172-5.218c.454.406.672.464 1.634.959l-.325-1.101c-.082-.279.244-.728.441-.934.44-.238.806-.578 1.08-.998l3.404 1.709-3.167 7.251v2.099H6.335v-2.099l-3.169-7.25 4.242-2.129zM2.37 22.058l2.978 6.815v1.891H.846c-.023-1.504.033-6.229 1.524-8.706z"/>
    </symbol>
    <symbol id="icon-frame-icon2" viewBox="0 0 33 32">
      <path  d="M30.175-.128H14.429a1.861 1.861 0 00-1.859 1.859v6.518L.872 13.159a.38.38 0 00-.049.678l1.492.893v9.515A1.719 1.719 0 00.98 25.919v.917c0 .21.171.381.381.381h2.671c.21 0 .381-.171.381-.381v-.917a1.72 1.72 0 00-1.336-1.673v-9.06l1.18.706c-.036.272-.005-.474-.017 4.43 0 1.612 4.129 2.476 8.33 2.525v7.425a1.858 1.858 0 001.858 1.856h15.746a1.859 1.859 0 001.857-1.857c0 .051-.002-1.573 0-28.54a1.87 1.87 0 00-1.856-1.859zM3.652 25.918v.536H1.743v-.536a.955.955 0 111.909 0zm26.523 5.446H14.429a1.096 1.096 0 01-1.096-1.094v-2.574h17.935v2.575c0 .597-.497 1.092-1.092 1.092zm1.092-4.429H13.332v-4.086c2.051-.023 8.335-.475 8.335-2.527-.002-3.081.005-4.33-.01-4.436l3.421-2.049a.382.382 0 00-.049-.678l-11.698-4.91V5.067h17.935v21.868zm-18.316-9.143c-2.113 0-6.182.273-7.949 1.427.011-3.53-.122-3.3.312-3.6 1.098-.809 4.238-1.373 7.637-1.373 1.482 0 7.954.408 7.954 1.778v3.195c-1.784-1.165-5.832-1.428-7.954-1.428zm.382-16.061c0-.604.491-1.095 1.095-1.095h15.746c.604 0 1.093.498 1.093 1.095v2.574H13.332V1.731zm-.382 7.184l11.09 4.655-2.748 1.644c-1.461-1.449-6.294-1.73-8.342-1.73-2.051 0-6.884.282-8.342 1.73L1.86 13.569l11.091-4.655zM5.002 20.321c0-.617 2.73-1.767 7.949-1.767 5.222 0 7.954 1.151 7.954 1.767s-2.732 1.768-7.954 1.768c-5.219 0-7.949-1.151-7.949-1.768z"/>
      <path  d="M22.301 28.271a1.261 1.261 0 000 2.52 1.261 1.261 0 000-2.52zm0 1.759a.499.499 0 11.002-.998.499.499 0 01-.002.998zM23.754 2.09h-2.906v.762h2.906V2.09z"/>
    </symbol>
    <symbol id="icon-frame-icon3" viewBox="0 0 28 32">
      <path  d="M.542 13.742c0 .357-.542.357-.542 0C0 6.154 6.154 0 13.742 0c7.591 0 13.742 6.154 13.742 13.742 0 .357-.539.357-.539 0 0-5.129-8.428-5.132-8.428 0 0 .357-.555.357-.555 0 0-5.116-8.441-5.116-8.441 0 0 .357-.555.357-.555 0 0-5.106-8.425-5.142-8.425 0zm8.473-1.992c.146-2.952.61-5.599 1.285-7.62.539-1.606 1.22-2.826 1.992-3.51C6.498 1.253 1.807 5.645.759 11.342c1.995-2.878 6.602-2.647 8.256.409zm8.906-.133c-.149-2.839-.6-5.379-1.249-7.316-1.674-5.012-4.185-5.012-5.859 0-.649 1.937-1.097 4.477-1.249 7.316 1.8-3.059 6.556-3.059 8.357 0zm8.804-.276A13.205 13.205 0 0015.192.619c.775.684 1.453 1.904 1.992 3.51.675 2.021 1.139 4.668 1.285 7.62 1.664-3.072 6.284-3.254 8.256-.409zM11.938 20.03v-2.791c-.503.334-.899.85-.899 1.48 0 .613.402 1.019.899 1.311zm.542.866c-.964-.441-1.979-.957-1.979-2.177 0-1.259.957-1.888 1.979-2.359v4.536zM15.546 24.24v2.822c.509-.337.908-.856.908-1.486 0-.62-.409-1.038-.908-1.337zm-.539-.869c.967.448 1.989.98 1.989 2.206 0 1.262-.963 1.891-1.989 2.358v-4.564z"/>
      <path  d="M15.546 14.063c2.219.513 4.5 2.174 4.5 4.655 0 2.125-3.591 2.047-3.591 0 0-.633-.399-1.152-.908-1.486v3.971c2.054.672 4.506 1.875 4.506 4.373 0 2.485-2.281 4.143-4.506 4.652-.01 2.365-3.601 2.362-3.607-.003-1.265-.292-2.365-.882-3.16-1.664-.834-.824-1.327-1.859-1.327-2.985 0-2.093 3.588-2.093 3.588 0 0 .626.396 1.142.899 1.476v-3.968c-2.037-.659-4.503-1.898-4.503-4.373 0-2.485 2.281-4.143 4.503-4.652.01-2.365 3.601-2.362 3.607.003zm-3.066.007v.431c-2.112.419-4.506 1.771-4.506 4.211 0 2.346 2.628 3.397 4.506 3.977v5.243c-1.015-.464-1.979-1.09-1.979-2.355 0-1.382-2.511-1.382-2.511 0 0 .976.435 1.878 1.168 2.599.931.921 2.06 1.359 3.322 1.609v.435c0 1.664 2.527 1.664 2.527 0v-.431c2.118-.422 4.503-1.775 4.503-4.211 0-2.368-2.621-3.387-4.503-3.981v-5.239c1.019.464 1.989 1.09 1.989 2.362 0 1.346 2.508 1.401 2.508 0 0-2.436-2.381-3.792-4.496-4.214v-.435c0-1.664-2.527-1.664-2.527 0z"/>
    </symbol>
    <symbol id="icon-logo" viewBox="0 0 91 32">
      <path   d="M13.608 4.836v12.942H9.947v-5.047H4.955v5.047H1.294V4.836h3.661v4.863h4.992V4.836h3.661zm13.398 7.95c0 .025-.018.314-.055.869h-7.285c.148.518.431.918.851 1.202.431.271.968.407 1.609.407.481 0 .894-.068 1.239-.203a3.63 3.63 0 001.072-.666l1.849 1.923c-.974 1.085-2.397 1.627-4.271 1.627-1.171 0-2.2-.222-3.088-.666s-1.578-1.06-2.071-1.849c-.481-.789-.721-1.683-.721-2.681 0-.986.234-1.867.703-2.644.481-.789 1.14-1.405 1.978-1.849s1.781-.666 2.829-.666c.998 0 1.904.21 2.718.629a4.58 4.58 0 011.923 1.793c.481.777.721 1.701.721 2.773zm-5.343-2.7c-.542 0-.998.154-1.368.462-.357.308-.586.727-.684 1.257h4.105c-.099-.53-.333-.949-.703-1.257-.357-.308-.807-.462-1.35-.462zm7.702-6.027h3.513v13.719h-3.513V4.059zm6.536 0h3.513v13.719h-3.513V4.059z"/>
      <path  d="M4.614 29.724H2.765l-.353.853h-.944l1.775-3.982h.91l1.781 3.982h-.967l-.353-.853zm-.29-.699L3.693 27.5l-.631 1.525h1.263zm7.302.802v1.576h-.853v-.825h-2.81v.825H7.11l.006-1.576h.159c.239-.008.408-.182.506-.523s.159-.829.182-1.462l.045-1.246h3.061v3.231h.557zm-2.85-1.9a8.56 8.56 0 01-.119 1.195c-.061.319-.154.554-.279.705h1.781v-2.48H8.794l-.017.58zm6.378 2.719c-.406 0-.774-.087-1.104-.262a2.03 2.03 0 01-.774-.734c-.186-.315-.279-.669-.279-1.064s.093-.747.279-1.058a1.98 1.98 0 01.774-.734 2.3 2.3 0 011.109-.267c.345 0 .656.061.933.182.281.121.516.296.705.523l-.592.546a1.271 1.271 0 00-1.001-.466c-.246 0-.466.055-.66.165a1.155 1.155 0 00-.455.449c-.106.193-.159.413-.159.66s.053.466.159.66c.11.193.262.345.455.455.193.106.413.159.66.159.398 0 .732-.157 1.001-.472l.592.546c-.19.231-.425.408-.705.529s-.594.182-.939.182zm4.81-1.672h-.637v1.604h-.916v-3.982h.916v1.61h.66l1.047-1.61h.973l-1.303 1.923 1.343 2.059H21l-1.035-1.604zm3.538-2.378h.916v2.594l1.9-2.594h.865v3.982h-.91V27.99l-1.9 2.588h-.87v-3.982zm5.696 0h.916v2.594l1.9-2.594h.865v3.982h-.91V27.99l-1.9 2.588h-.87v-3.982zm1.838-.256c-.728 0-1.096-.29-1.104-.87h.631c.008.277.165.415.472.415.152 0 .267-.034.347-.102.08-.072.121-.176.125-.313h.631c-.004.284-.097.501-.279.649s-.457.222-.825.222z"/>
      <path  d="M40.226 29.724h-1.849l-.353.853h-.944l1.775-3.982h.91l1.781 3.982h-.967l-.353-.853zm-.29-.699l-.631-1.525-.631 1.525h1.263zm6.814-2.429v3.982h-.922v-1.633h-1.809v1.633h-.922v-3.982h.922v1.57h1.809v-1.57h.922zm4.827.75h-1.894l.006 3.231h-.916v-3.982h2.81l-.006.751zm4.647-.75v3.982h-.91v-3.231h-1.365l-.028.831a8.564 8.564 0 01-.137 1.377c-.072.349-.193.618-.364.808-.167.186-.402.279-.705.279-.125 0-.277-.021-.455-.063l.057-.779a.562.562 0 00.165.023c.22 0 .374-.129.461-.387.087-.262.142-.669.165-1.223l.057-1.616h3.061zm2.018 0h.916v2.594l1.9-2.594h.865v3.982h-.91V27.99l-1.9 2.588h-.87v-3.982zm5.696 0h.916v2.594l1.9-2.594h.865v3.982h-.91V27.99l-1.9 2.588h-.87v-3.982zm1.838-.256c-.728 0-1.096-.29-1.104-.87h.631c.008.277.165.415.472.415.152 0 .267-.034.347-.102.08-.072.121-.176.125-.313h.631c-.004.284-.097.501-.279.649s-.457.222-.825.222zm5.742 4.306c-.406 0-.774-.087-1.104-.262a2.03 2.03 0 01-.774-.734c-.186-.315-.279-.669-.279-1.064s.093-.747.279-1.058a1.98 1.98 0 01.774-.734 2.3 2.3 0 011.109-.267c.345 0 .656.061.933.182.28.121.516.296.705.523l-.592.546a1.271 1.271 0 00-1.001-.466 1.31 1.31 0 00-.66.165 1.155 1.155 0 00-.455.449c-.106.193-.159.413-.159.66s.053.466.159.66c.11.193.262.345.455.455.193.106.413.159.66.159.398 0 .732-.157 1.001-.472l.592.546c-.19.231-.425.408-.705.529s-.594.182-.939.182zm4.811-1.672h-.637v1.604h-.916v-3.982h.916v1.61h.66l1.047-1.61h.973l-1.303 1.923 1.343 2.059h-1.047l-1.035-1.604zm3.537-2.378h.916v2.594l1.9-2.594h.865v3.982h-.91V27.99l-1.9 2.588h-.87v-3.982zm5.696 0h.916v2.594l1.9-2.594h.865v3.982h-.91V27.99l-1.9 2.588h-.87v-3.982zm1.838-.256c-.728 0-1.096-.29-1.104-.87h.631c.008.277.165.415.472.415.151 0 .267-.034.347-.102.08-.072.122-.176.125-.313h.631c-.004.284-.097.501-.279.649s-.457.222-.825.222zM74.263 14.949v2.829H63.872V4.836h10.15v2.829h-6.527v2.182h5.75v2.736h-5.75v2.367h6.767zM89.348 4.836v12.942h-3.014l-5.713-6.896v6.896h-3.587V4.836h3.014l5.713 6.896V4.836h3.587z"/>
      <path fill="#FF6B09" d="M58.695 11.062c-.189-.423-.45-.84-.831-1.322-.962-1.209-1.255-3.905-1.258-3.931a.326.326 0 00-.225-.275.331.331 0 00-.346.094c-1.147 1.283-.665 3.265-.404 4.057.072.217.15.472.205.731.424 2.091-.394 3.038-.587 3.229-.186.052-.313.026-.43-.1-.404-.443-.538-1.894-.349-3.785a3.89 3.89 0 00-.026-1.054c-.399-2.324-1.86-3.815-2.233-4.338C51.188 2.855 51.083.337 51.08.315a.324.324 0 00-.508-.255c-1.708 1.16-1.561 3.956-1.323 5.518.055.362.163.731.349 1.196.662 1.665-.13 3.814-.137 3.834s-.013.036-.016.055c-.101.53-.27.847-.46.847a.205.205 0 01-.062-.01c-.231-.048-.352-.294-.355-.507-.013-2.757-2.78-3.685-2.81-3.694a.323.323 0 00-.345.097.32.32 0 00-.046.356c.033.068.137.365.065 1.416a12.072 12.072 0 01-.512 2.773 13.547 13.547 0 00-.548 4.276c.506 5.505 8.423 6.469 13.122 3.368a4.742 4.742 0 001.245-1.154c1.734-2.392.714-5.64-.046-7.366zm-12.043 5.259a.322.322 0 01-.306.339h-.02a.324.324 0 01-.326-.304c-.029-.472-.023-.966.013-1.503a.326.326 0 01.652.045c-.036.511-.042.976-.013 1.422zm.159-2.864a.323.323 0 01-.323.284c-.013 0-.026 0-.042-.003a.327.327 0 01-.284-.359l.156-1.248a.328.328 0 01.649.081l-.156 1.244zM56.49 4.422a.322.322 0 01-.272-.368c.02-.131.138-.804.458-1.142.123-.13.329-.137.461-.015s.138.327.015.457c-.135.143-.25.553-.289.798a.326.326 0 01-.372.27zM44.608 6.032c-.062-.24-.217-.637-.366-.766-.135-.118-.149-.322-.03-.456s.324-.148.46-.03c.351.305.535.963.568 1.092a.322.322 0 01-.235.393.328.328 0 01-.397-.232z"/>
    </symbol>
    <symbol id="icon-menu-burger" viewBox="0 0 32 32">
      <path d="M6.4 11.733V9.6h19.2v2.133H6.4zm0 5.334h19.2v-2.133H6.4v2.133zm0 5.333h19.2v-2.133H6.4V22.4z"/>
    </symbol>
    <symbol id="icon-menu-cross" viewBox="0 0 32 32">
      <path d="M23.733 10.304L22.229 8.8l-5.963 5.963L10.303 8.8l-1.504 1.504 5.963 5.963-5.963 5.963 1.504 1.504 5.963-5.963 5.963 5.963 1.504-1.504-5.963-5.963 5.963-5.963z"/>
    </symbol>
    <symbol id="icon-vk-icon" viewBox="0 0 32 32">
      <path  d="M27.541 18.46c1.061 1.036 2.182 2.011 3.134 3.152.421.507.819 1.03 1.123 1.619.432.836.041 1.757-.709 1.807l-4.662-.002c-1.202.1-2.162-.384-2.968-1.206-.645-.657-1.243-1.357-1.864-2.037-.255-.278-.521-.539-.839-.746-.636-.413-1.189-.287-1.552.377-.37.675-.454 1.423-.491 2.175-.05 1.098-.382 1.386-1.484 1.437-2.357.111-4.593-.245-6.671-1.434-1.832-1.048-3.252-2.528-4.489-4.203-2.407-3.261-4.25-6.845-5.907-10.53-.373-.83-.1-1.276.816-1.291 1.521-.03 3.041-.027 4.564-.002.618.009 1.027.364 1.266.947.823 2.023 1.83 3.948 3.093 5.732.337.475.68.95 1.168 1.284.541.37.952.248 1.207-.355.161-.382.232-.793.268-1.202.121-1.407.136-2.812-.075-4.214-.13-.875-.623-1.442-1.496-1.607-.446-.084-.379-.25-.164-.505.375-.439.727-.712 1.43-.712h5.269c.829.164 1.014.536 1.127 1.371l.004 5.852c-.009.323.161 1.282.743 1.496.466.152.773-.22 1.052-.516 1.261-1.339 2.162-2.921 2.966-4.559.357-.72.664-1.469.961-2.216.22-.555.566-.828 1.191-.816l5.071.005c.15 0 .302.002.448.027.855.146 1.089.513.825 1.348-.416 1.309-1.225 2.4-2.016 3.496-.846 1.17-1.75 2.3-2.589 3.477-.77 1.075-.709 1.617.248 2.55z"/>
    </symbol>
  </defs>
</svg>