<svg aria-hidden="true" style="position: absolute; width: 0; height: 0; overflow: hidden;" version="1.1" xmlns="http://www.w3.org/2000/svg" xmlns:xlink="http://www.w3.org/1999/xlink">
<defs>

<symbol id="Burger" viewBox="0 0 32 32">
<path fill="none" stroke="#d41443" style="stroke: var(--color1, #d41443)" stroke-linejoin="miter" stroke-linecap="butt" stroke-miterlimit="4" stroke-width="1.6" d="M0 6.4h32"></path>
<path fill="none" stroke="#d41443" style="stroke: var(--color1, #d41443)" stroke-linejoin="miter" stroke-linecap="butt" stroke-miterlimit="4" stroke-width="1.6" d="M0 16h32"></path>
<path fill="none" stroke="#d41443" style="stroke: var(--color1, #d41443)" stroke-linejoin="miter" stroke-linecap="butt" stroke-miterlimit="4" stroke-width="1.6" d="M0 25.6h32"></path>
</symbol>

<symbol id="close_burger" viewBox="0 0 32 32">
<path fill="none" stroke="#fff" style="stroke: var(--color2, #fff)" stroke-linejoin="miter" stroke-linecap="butt" stroke-miterlimit="4" stroke-width="2" d="M2.519 2l26.963 28"></path>
<path fill="none" stroke="#fff" style="stroke: var(--color2, #fff)" stroke-linejoin="miter" stroke-linecap="butt" stroke-miterlimit="4" stroke-width="2" d="M2 29.481l28-26.963"></path>
</symbol>

<symbol id="elipse_3up" viewBox="0 0 32 32">
<path d="M18 16c0 1.105-0.895 2-2 2s-2-0.895-2-2c0-1.105 0.895-2 2-2s2 0.895 2 2z"></path>
<path d="M4 16c0 1.105-0.895 2-2 2s-2-0.895-2-2c0-1.105 0.895-2 2-2s2 0.895 2 2z"></path>
<path d="M32 16c0 1.105-0.895 2-2 2s-2-0.895-2-2c0-1.105 0.895-2 2-2s2 0.895 2 2z"></path>
</symbol>

<symbol id="Ellipse1_home" viewBox="0 0 32 32">
<path d="M30.511 16c0 8.157-6.612 14.769-14.769 14.769s-14.769-6.612-14.769-14.769c0-8.157 6.612-14.769 14.769-14.769s14.769 6.612 14.769 14.769z"></path>
</symbol>

<symbol id="Ellipse2_home" viewBox="0 0 32 32">
<path d="M30.511 16c0 8.157-6.612 14.769-14.769 14.769s-14.769-6.612-14.769-14.769c0-8.157 6.612-14.769 14.769-14.769s14.769 6.612 14.769 14.769z"></path>
</symbol>

<symbol id="facebook" viewBox="0 0 32 32">
<path d="M22.266 15.97h-4.176v15.39h-6.327v-15.39h-3.009v-5.409h3.009v-3.5c0-2.503 1.182-6.422 6.384-6.422l4.687 0.020v5.25h-3.401c-0.558 0-1.342 0.28-1.342 1.474v3.183h4.729l-0.553 5.403z"></path>
</symbol>

<symbol id="git_hub" viewBox="0 0 32 32">
<path d="M16 0.941c-8.271 0-15.059 6.788-15.059 15.059 0 7.058 4.953 13.47 11.529 15.059v-4.982c-0.652 0.143-1.251 0.147-1.915-0.049-0.89-0.263-1.613-0.856-2.15-1.76-0.342-0.577-0.949-1.203-1.581-1.157l-0.155-1.758c1.368-0.117 2.551 0.833 3.254 2.013 0.312 0.525 0.671 0.832 1.132 0.969 0.446 0.131 0.924 0.068 1.481-0.129 0.14-1.116 0.651-1.534 1.037-2.122v-0.001c-3.922-0.585-5.486-2.666-6.106-4.308-0.822-2.181-0.381-4.905 1.073-6.627 0.028-0.034 0.079-0.121 0.060-0.183-0.667-2.014 0.146-3.679 0.176-3.856 0.769 0.228 0.894-0.229 3.342 1.258l0.423 0.254c0.177 0.105 0.121 0.045 0.298 0.032 1.022-0.278 2.099-0.431 3.16-0.445 1.069 0.014 2.14 0.167 3.204 0.456l0.137 0.014c-0.012-0.002 0.037-0.009 0.12-0.058 3.057-1.852 2.947-1.247 3.767-1.513 0.030 0.177 0.831 1.87 0.172 3.858-0.089 0.274 2.65 2.782 1.132 6.809-0.62 1.643-2.184 3.724-6.106 4.309v0.001c0.503 0.766 1.107 1.174 1.104 2.755v6.219c6.577-1.589 11.529-8.001 11.529-15.059 0-8.271-6.787-15.059-15.059-15.059v0z"></path>
</symbol>

<symbol id="icon_Home" viewBox="0 0 32 32">
<path d="M30.129 15.447c0.553-0.6 0.5-1.52-0.119-2.054l-13.636-11.77c-0.619-0.534-1.611-0.523-2.217 0.025l-13.682 12.372c-0.606 0.548-0.636 1.466-0.066 2.051l0.343 0.352c0.569 0.584 1.489 0.654 2.053 0.155l1.023-0.903v13.224c0 0.811 0.667 1.468 1.488 1.468h5.333c0.822 0 1.488-0.657 1.488-1.468v-9.252h6.803v9.252c-0.012 0.811 0.576 1.468 1.398 1.468h5.652c0.822 0 1.488-0.657 1.488-1.468v-13.038c0 0 0.282 0.244 0.631 0.546s1.078 0.060 1.631-0.541l0.388-0.42z"></path>
</symbol>

<symbol id="telegram" viewBox="0 0 32 32">
<path d="M12.964 19.8l-0.508 6.671c0.727 0 1.042-0.292 1.42-0.641l3.409-3.040 7.063 4.828c1.295 0.674 2.208 0.319 2.557-1.112l4.638-20.277c0.411-1.787-0.692-2.486-1.955-2.048l-27.252 9.738c-1.86 0.674-1.832 1.641-0.316 2.080l6.967 2.023 16.183-9.451c0.762-0.471 1.454-0.21 0.884 0.26l-13.091 10.971z"></path>
</symbol>

<symbol id="icon_logo" viewBox="0 0 32 32">
<path fill="#d41443" style="fill: var(--color1, #d41443)" d="M16.022 32c8.849-0 16.022-7.174 16.022-16.022s-7.174-16.022-16.022-16.022c-8.849 0-16.022 7.173-16.022 16.022 0 0.016 0 0.032 0 0.047v-0.002c0.025 8.83 7.189 15.978 16.022 15.978 0 0 0 0 0 0v0z"></path>
<path fill="#fff" style="fill: var(--color2, #fff)" d="M8.723 23.848c0 1.013-0.115 1.923 0.577 2.692 1.686 1.961 12.004 1.019 12.139 0.955 0.327-0.114 0.606-0.244 0.87-0.397l-0.024 0.013 0.558-0.41c1.077-1.032 0.737-3.352 0.737-5.448l-1.923 0.070c0 1.41 0.346 1.756-0.224 2.974-0.255 0.393-0.561 0.728-0.914 1.006l-0.009 0.007c-1.429 0.949-2.942 0.417-3.922-0.923-0.641-0.852-0.545-1.788-0.551-3.166h-7.281v2.602zM12.722 31.66c-0.764-0.164-1.408-0.349-2.034-0.573l0.111 0.035-0.083-1.641c-4.057-0.968-3.884-4.191-3.884-6.646s-0.179-1.372-1.346-2.756c-0.045-0.051-0.109-0.115-0.147-0.173-0.041-0.054-0.083-0.117-0.122-0.182l-0.006-0.010c-0.2-0.386-0.318-0.843-0.318-1.327s0.117-0.941 0.325-1.343l-0.008 0.016c0.032-0.064 0.090-0.135 0.128-0.192s0.103-0.122 0.147-0.173l0.814-0.795c1-1.282-0.346-4.070 2.762-7.479l1.923-1.634c1.46-0.976 3.256-1.557 5.188-1.557 2.256 0 4.327 0.793 5.949 2.115l-0.017-0.013c4.634 3.794 2.705 7.184 4.076 8.735 0.743 0.84 0.82 0.359 1.128 1.461 0.092 0.259 0.145 0.557 0.145 0.868 0 0.646-0.229 1.238-0.61 1.7l0.004-0.005-1.013 0.929c-1.109 1.615 1.333 7.146-4.236 8.46l-0.064 1.519c-0.447 0.174-1.018 0.354-1.601 0.502l-0.11 0.024h-0.244l0.090-1.993h-7.075l0.128 2.109zM10.722 9.505c-0.385 1.545 4.159 2.173 5.127 2.179 2.608 0 5.243-0.737 5.621-1.756 0.474-1.282-2.922-2.724-5.621-2.833-1.083-0.045-4.8 1.109-5.127 2.416zM8.633 15.574h15.035c0-1.282 0-2.852-0.461-3.813-2.147-0.192-0.128-0.359-1.666 0.481-1.538 0.936-3.398 1.49-5.387 1.49s-3.849-0.554-5.433-1.516l0.047 0.026c-1.538-0.84 0.487-0.673-1.666-0.481-0.481 0.961-0.474 2.564-0.461 3.813zM7.78 17.497h16.663c0.512 0.004 0.926 0.418 0.929 0.929v0c-0.004 0.512-0.418 0.926-0.929 0.929h-4.448v3.768c-0.004 0.512-0.418 0.926-0.929 0.929h-0c-0.512-0.004-0.926-0.418-0.929-0.929v-3.788h-10.357c-0.512-0.004-0.926-0.418-0.929-0.929v-0c0.004-0.512 0.418-0.926 0.929-0.929h0z"></path>
</symbol>

<symbol id="arrow_right" viewBox="0 0 32 32">
<path d="M19.414 27.414l10-10c0.781-0.781 0.781-2.047 0-2.828l-10-10c-0.781-0.781-2.047-0.781-2.828 0s-0.781 2.047 0 2.828l6.586 6.586h-19.172c-1.105 0-2 0.895-2 2s0.895 2 2 2h19.172l-6.586 6.586c-0.39 0.39-0.586 0.902-0.586 1.414s0.195 1.024 0.586 1.414c0.781 0.781 2.047 0.781 2.828 0z"></path>
</symbol>

<symbol id="kav" viewBox="0 0 43 32">
<path d="M32.014 0c1.929 0 3.75 0.52 5.464 1.561s3.107 2.537 4.179 4.488c1.029 1.951 1.543 4.249 1.543 6.894s-0.643 5.225-1.929 7.74c-0.429 0.911-1.2 2.081-2.314 3.512-1.157 1.431-2.229 2.667-3.214 3.707l-4.050 4.098-2.893-4.813c2.014-1.257 3.793-2.818 5.336-4.683 1.543-1.821 2.314-3.491 2.314-5.008 0-0.78-0.171-1.409-0.514-1.886-1.5 1.084-3.171 1.626-5.014 1.626-1.329 0-2.593-0.412-3.793-1.236-1.243-0.78-2.229-1.821-2.957-3.122-0.771-1.258-1.157-2.558-1.157-3.902 0-1.518 0.45-2.97 1.35-4.358 0.857-1.388 1.993-2.515 3.407-3.382 1.371-0.824 2.786-1.236 4.243-1.236zM8.936 0c1.929 0 3.75 0.52 5.464 1.561s3.107 2.537 4.179 4.488c1.029 1.951 1.543 4.249 1.543 6.894 0 1.864-0.236 3.534-0.707 5.008-0.471 1.518-1.286 3.1-2.443 4.748-1.114 1.561-2.164 2.862-3.15 3.902-0.986 1.084-2.7 2.884-5.143 5.398l-2.893-4.813c2.014-1.257 3.793-2.818 5.336-4.683 1.543-1.821 2.314-3.491 2.314-5.008 0-0.78-0.171-1.409-0.514-1.886-1.5 1.084-3.171 1.626-5.014 1.626-1.329 0-2.593-0.412-3.793-1.236-1.243-0.78-2.229-1.821-2.957-3.122-0.771-1.258-1.157-2.558-1.157-3.902 0-1.518 0.429-2.97 1.286-4.358s1.993-2.515 3.407-3.382c1.371-0.824 2.786-1.236 4.243-1.236z"></path>
</symbol>

<symbol id="contacts-icon-btn" viewBox="0 0 22 32">
<path fill="none" stroke="inherrit" style="stroke: var(inherrit)" stroke-linejoin="round" stroke-linecap="round" stroke-miterlimit="4" stroke-width="6.4" d="M4.545 3.2l13.7 12.8-13.7 12.8"></path>
</symbol>

<symbol id="line_footer" viewBox="0 0 5120 32">
<path stroke="#e1e1e1" style="stroke: var(--color1, #e1e1e1)" stroke-linejoin="miter" stroke-linecap="butt" stroke-miterlimit="4" stroke-width="16" d="M0 16h5120"></path>
</symbol>

<symbol id="line1_contacts" viewBox="0 0 3744 32">
<path stroke="#e1e1e1" style="stroke: var(--color1, #e1e1e1)" stroke-linejoin="miter" stroke-linecap="butt" stroke-miterlimit="4" stroke-width="16" d="M0 16h3744"></path>
</symbol>

<symbol id="line2_contacts" viewBox="0 0 3744 32">
<path stroke="#e1e1e1" style="stroke: var(--color1, #e1e1e1)" stroke-linejoin="miter" stroke-linecap="butt" stroke-miterlimit="4" stroke-width="16" d="M0 16h3744"></path>
</symbol>

</defs>
</svg>
